<?xml version="1.0" encoding="UTF-8" standalone="no"?>
<!-- Created with Inkscape (http://www.inkscape.org/) -->

<svg
   xmlns:dc="http://purl.org/dc/elements/1.1/"
   xmlns:cc="http://creativecommons.org/ns#"
   xmlns:rdf="http://www.w3.org/1999/02/22-rdf-syntax-ns#"
   xmlns:svg="http://www.w3.org/2000/svg"
   xmlns="http://www.w3.org/2000/svg"
   xmlns:xlink="http://www.w3.org/1999/xlink"
   xmlns:sodipodi="http://sodipodi.sourceforge.net/DTD/sodipodi-0.dtd"
   xmlns:inkscape="http://www.inkscape.org/namespaces/inkscape"
   width="22"
   height="22"
   id="svg2"
   sodipodi:version="0.32"
   inkscape:version="0.48.0 r9654"
   version="1.0"
   sodipodi:docname="add-files-to-archive.svg"
   inkscape:output_extension="org.inkscape.output.svg.inkscape"
   inkscape:export-filename="/home/matt/.icons/Sirocco/scalable/mimetypes/text-plain.png"
   inkscape:export-xdpi="90"
   inkscape:export-ydpi="90"
   sodipodi:modified="true"
   style="display:inline">
  <sodipodi:namedview
     id="base"
     pagecolor="#ffffff"
     bordercolor="#666666"
     borderopacity="1.0"
     inkscape:pageopacity="0.0"
     inkscape:pageshadow="2"
     inkscape:zoom="17.194902"
     inkscape:cx="-16.046867"
     inkscape:cy="4.3884925"
     inkscape:document-units="px"
     inkscape:current-layer="layer1"
     width="128px"
     height="128px"
     inkscape:showpageshadow="false"
     inkscape:window-width="1920"
     inkscape:window-height="1026"
     inkscape:window-x="0"
     inkscape:window-y="25"
     showguides="true"
     inkscape:guide-bbox="true"
     showgrid="true"
     inkscape:window-maximized="1">
    <sodipodi:guide
       id="guide2226"
       position="32.637397,117.99844"
       orientation="horizontal" />
    <sodipodi:guide
       id="guide2230"
       position="110,57.402344"
       orientation="vertical" />
    <sodipodi:guide
       id="guide2232"
       position="33.760911"
       orientation="horizontal" />
    <sodipodi:guide
       id="guide2231"
       position="46.774696"
       orientation="horizontal" />
    <inkscape:grid
       enabled="true"
       visible="true"
       id="grid3231"
       type="xygrid" />
    <sodipodi:guide
       orientation="1,0"
       position="100,67.625"
       id="guide2713" />
  </sodipodi:namedview>
  <defs
     id="defs4">
    <linearGradient
       gradientUnits="userSpaceOnUse"
       y2="19.387045"
       x2="11.998966"
       y1="0.92195445"
       x1="11.998966"
       gradientTransform="scale(0.9219544,1.0846523)"
       id="linearGradient6774">
      <stop
         id="stop6776"
         offset="0"
         style="stop-color:#000000;stop-opacity:0.86274511;" />
      <stop
         id="stop6778"
         offset="1"
         style="stop-color:#000000;stop-opacity:0.47058824;" />
    </linearGradient>
    <clipPath
       clipPathUnits="userSpaceOnUse"
       id="clipPath3634">
      <path
         style="fill:#ff00ff;fill-opacity:1;stroke:none"
         d="m -30,0 0,22 22,0 0,-22 -22,0 z m 9,2 c 1.536279,0 3.078693,0.5829855 4.25,1.75 2.042235,2.0347517 2.299759,5.181761 0.78125,7.5 0.01984,0.394051 0.08665,1.024202 0.34375,1.25 0.350063,0.307445 1.153972,-0.120878 1.6875,0.46875 l 3.6875,3.71875 c 0,0 0.750914,0.690483 -0.3125,1.75 -1.063413,1.059517 -1.75,0.3125 -1.75,0.3125 L -16,15.03125 c -0.591796,-0.531572 -0.160173,-1.338719 -0.46875,-1.6875 -0.226629,-0.256157 -0.854501,-0.32398 -1.25,-0.34375 -2.326765,1.512945 -5.489015,1.253503 -7.53125,-0.78125 -2.342612,-2.3340289 -2.342612,-6.134721 0,-8.46875 C -24.078693,2.5829856 -22.536279,2 -21,2 z m 0.03125,2 c -1.104318,1e-7 -2.119541,0.4034447 -2.84375,1.125 -0.724209,0.7215553 -1.15625,1.7434783 -1.15625,2.84375 0,2.200545 1.791365,4.000001 4,4 2.208637,0 4,-1.799455 4,-4 0,-2.2005437 -1.791364,-3.9687501 -4,-3.96875 z"
         id="path3636" />
    </clipPath>
    <filter
       inkscape:collect="always"
       id="filter3644">
      <feGaussianBlur
         inkscape:collect="always"
         stdDeviation="0.51"
         id="feGaussianBlur3646" />
    </filter>
    <linearGradient
       inkscape:collect="always"
       xlink:href="#StandardGradient"
       id="linearGradient2904"
       gradientUnits="userSpaceOnUse"
       gradientTransform="matrix(0.9247229,0,0,1.0872097,-3.0600562,-1.0023583)"
       x1="11.998966"
       y1="1.8417114"
       x2="11.998966"
       y2="20.237488" />
    <filter
       inkscape:collect="always"
       id="filter3711">
      <feGaussianBlur
         inkscape:collect="always"
         stdDeviation="0.57"
         id="feGaussianBlur3713" />
    </filter>
    <linearGradient
       inkscape:collect="always"
       xlink:href="#StandardGradient"
       id="linearGradient3786"
       gradientUnits="userSpaceOnUse"
       gradientTransform="scale(1.0598527,0.9435274)"
       x1="11.794092"
       y1="3.2126782"
       x2="11.794092"
       y2="20.137329" />
    <linearGradient
       id="StandardGradient"
       gradientTransform="matrix(1.0765258,0,0,0.9227364,-0.00801316,0.1584665)"
       x1="10.005832"
       y1="4.1631975"
       x2="10.005832"
       y2="17.168188"
       gradientUnits="userSpaceOnUse">
      <stop
         id="stop3337"
         offset="0"
         style="stop-color:#ebebeb;stop-opacity:1;" />
      <stop
         id="stop3339"
         offset="1"
         style="stop-color:#aaaaaa;stop-opacity:1;" />
    </linearGradient>
    <linearGradient
       y2="20.137329"
       x2="11.794092"
       y1="3.2126782"
       x1="11.794092"
       gradientTransform="matrix(1.0598527,0,0,0.9435274,-22,-4)"
       gradientUnits="userSpaceOnUse"
       id="linearGradient3234"
       xlink:href="#StandardGradient"
       inkscape:collect="always" />
    <linearGradient
       inkscape:collect="always"
       xlink:href="#StandardGradient"
       id="linearGradient6799"
       gradientUnits="userSpaceOnUse"
       gradientTransform="matrix(0.9247229,0,0,1.0872097,-3.0600562,-1.0023583)"
       x1="11.998966"
       y1="1.8417114"
       x2="11.998966"
       y2="20.237488" />
  </defs>
  <metadata
     id="metadata7">
    <rdf:RDF>
      <cc:Work
         rdf:about="">
        <dc:format>image/svg+xml</dc:format>
        <dc:type
           rdf:resource="http://purl.org/dc/dcmitype/StillImage" />
      </cc:Work>
    </rdf:RDF>
  </metadata>
  <g
     style="display:inline"
     inkscape:label="Calque 1"
     id="layer1"
     inkscape:groupmode="layer">
    <path
       sodipodi:type="inkscape:offset"
       inkscape:radius="0.99548358"
       inkscape:original="M 10 1 C 8.892 1 8 1.892 8 3 L 17 3 C 17.554 3 18 3.446 18 4 L 18 14 C 18 14.554 17.554 15 17 15 L 8 15 C 8 16.108 8.892 17 10 17 L 13 17 L 13 18 L 12 18 L 12 19 L 9 19 L 9 20 L 12 20 L 12 21 L 16 21 L 16 20 L 19 20 L 19 19 L 16 19 L 16 18 L 15 18 L 15 17 L 18 17 C 19.108 17 20 16.108 20 15 L 20 3 C 20 1.892 19.108 1 18 1 L 10 1 z M 3.5 4 C 2.669 4 2 4.669 2 5.5 L 2 12.5 C 2 13.331 2.669 14 3.5 14 L 5.5 14 C 4.669 14 4 13.331 4 12.5 L 4 11.5 L 4 6.5 L 4 5.5 C 4 4.669 4.669 4 5.5 4 L 3.5 4 z M 6.5 4 C 5.669 4 5 4.669 5 5.5 L 5 12.5 C 5 13.331 5.669 14 6.5 14 L 12.5 14 C 13.331 14 14 13.331 14 12.5 L 14 5.5 C 14 4.669 13.331 4 12.5 4 L 6.5 4 z M 7.5 6 L 11.5 6 C 11.777 6 12 6.223 12 6.5 L 12 11.5 C 12 11.777 11.777 12 11.5 12 L 7.5 12 C 7.223 12 7 11.777 7 11.5 L 7 6.5 C 7 6.223 7.223 6 7.5 6 z "
       style="fill:#000000;fill-opacity:1;stroke:none;display:inline;opacity:0.25"
       id="path6801"
       d="M 10,0 C 8.3577212,0 7,1.3577212 7,3 L 6.5,3 C 6.1086593,3 5.8316319,3.2728626 5.5,3.4375 L 5.5,3 3.5,3 C 2.1347212,3 1,4.1347212 1,5.5 l 0,7 C 1,13.865279 2.1347212,15 3.5,15 l 2,0 0,-0.4375 C 5.8316319,14.727137 6.1086593,15 6.5,15 L 7,15 c 0,1.642279 1.3577212,3 3,3 l -1,0 a 0.99558313,0.99558313 0 0 0 -1,1 l 0,1 a 0.99558313,0.99558313 0 0 0 1,1 l 2,0 a 0.99558313,0.99558313 0 0 0 1,1 l 4,0 a 0.99558313,0.99558313 0 0 0 1,-1 l 2,0 a 0.99558313,0.99558313 0 0 0 1,-1 l 0,-1 a 0.99558313,0.99558313 0 0 0 -1,-1 l -1,0 c 1.642279,0 3,-1.357721 3,-3 L 21,3 C 21,1.3577212 19.642279,0 18,0 L 10,0 z M 14.34375,4 17,4 17,14 14.34375,14 C 14.690468,13.57105 15,13.087011 15,12.5 l 0,-7 C 15,4.912989 14.690468,4.4289503 14.34375,4 z M 8,7 l 3,0 0,4 -3,0 0,-4 z" />
    <path
       style="fill:url(#linearGradient2904);fill-opacity:1.0;stroke:none;display:inline"
       d="M 10 1 C 8.892 1 8 1.892 8 3 L 17 3 C 17.554 3 18 3.446 18 4 L 18 14 C 18 14.554 17.554 15 17 15 L 8 15 C 8 16.108 8.892 17 10 17 L 13 17 L 13 18 L 12 18 L 12 19 L 9 19 L 9 20 L 12 20 L 12 21 L 16 21 L 16 20 L 19 20 L 19 19 L 16 19 L 16 18 L 15 18 L 15 17 L 18 17 C 19.108 17 20 16.108 20 15 L 20 3 C 20 1.892 19.108 1 18 1 L 10 1 z M 3.5 4 C 2.669 4 2 4.669 2 5.5 L 2 12.5 C 2 13.331 2.669 14 3.5 14 L 5.5 14 C 4.669 14 4 13.331 4 12.5 L 4 11.5 L 4 6.5 L 4 5.5 C 4 4.669 4.669 4 5.5 4 L 3.5 4 z M 6.5 4 C 5.669 4 5 4.669 5 5.5 L 5 12.5 C 5 13.331 5.669 14 6.5 14 L 12.5 14 C 13.331 14 14 13.331 14 12.5 L 14 5.5 C 14 4.669 13.331 4 12.5 4 L 6.5 4 z M 7.5 6 L 11.5 6 C 11.777 6 12 6.223 12 6.5 L 12 11.5 C 12 11.777 11.777 12 11.5 12 L 7.5 12 C 7.223 12 7 11.777 7 11.5 L 7 6.5 C 7 6.223 7.223 6 7.5 6 z "
       id="path2877" />
    <path
       style="fill:#ffffff;fill-opacity:1;stroke:none;display:inline;opacity:0.6"
       d="M 10 1 C 8.892 1 8 1.892 8 3 L 8.28125 3 C 8.6265269 2.4030909 9.2580987 2 10 2 L 18 2 C 19.108 2 20 2.892 20 4 L 20 3 C 20 1.892 19.108 1 18 1 L 10 1 z M 3.5 4 C 2.669 4 2 4.669 2 5.5 L 2 6.5 C 2 5.669 2.669 5 3.5 5 L 4.09375 5 C 4.2970063 4.4129833 4.842125 4 5.5 4 L 3.5 4 z M 6.5 4 C 5.842125 4 5.2970063 4.4129833 5.09375 5 L 5.5 5 C 5.3511125 5 5.1980709 5.0224652 5.0625 5.0625 C 5.0224652 5.1980709 5 5.3511125 5 5.5 L 5 6.5 C 5 5.669 5.669 5 6.5 5 L 12.5 5 C 13.331 5 14 5.669 14 6.5 L 14 5.5 C 14 4.669 13.331 4 12.5 4 L 8 4 L 6.5 4 z M 7 11.5 L 7 12.5 C 7 12.777 7.223 13 7.5 13 L 11.5 13 C 11.777 13 12 12.777 12 12.5 L 12 11.5 C 12 11.777 11.777 12 11.5 12 L 7.5 12 C 7.223 12 7 11.777 7 11.5 z M 4 12.5 L 4 13.5 C 4 13.673125 4.0402615 13.845522 4.09375 14 L 5.09375 14 C 5.0862616 13.978373 5.0690173 13.95957 5.0625 13.9375 C 4.441396 13.754085 4 13.182112 4 12.5 z M 18 14 C 18 14.554 17.554 15 17 15 L 12.5 15 L 8 15 C 8 15.366099 8.1108696 15.705449 8.28125 16 L 17 16 C 17.554 16 18 15.554 18 15 L 18 14 z M 12 18 L 12 19 L 13 19 L 13 18 L 12 18 z M 12 19 L 9 19 L 9 20 L 12 20 L 12 19 z M 15 18 L 15 19 L 16 19 L 16 18 L 15 18 z M 16 19 L 16 20 L 19 20 L 19 19 L 16 19 z "
       id="path2907" />
    <path
       style="fill:#000000;fill-opacity:1;stroke:none;display:inline;opacity:0.45"
       d="M 8.28125 3 C 8.1108696 3.2945508 8 3.6339013 8 4 L 12.5 4 L 17 4 C 17.554 4 18 4.446 18 5 L 18 4 C 18 3.446 17.554 3 17 3 L 8.28125 3 z M 4.09375 5 C 4.0402615 5.1544781 4 5.326875 4 5.5 L 4 6.5 C 4 5.8178875 4.441396 5.2459152 5.0625 5.0625 C 5.0690173 5.0404303 5.0862616 5.0216269 5.09375 5 L 4.09375 5 z M 7.5 6 C 7.223 6 7 6.223 7 6.5 L 7 7.5 C 7 7.223 7.223 7 7.5 7 L 11.5 7 C 11.777 7 12 7.223 12 7.5 L 12 6.5 C 12 6.223 11.777 6 11.5 6 L 7.5 6 z M 2 12.5 L 2 13.5 C 2 14.331 2.669 15 3.5 15 L 5.5 15 C 4.842125 15 4.2970063 14.587017 4.09375 14 L 3.5 14 C 2.669 14 2 13.331 2 12.5 z M 5 12.5 L 5 13.5 C 5 13.648888 5.0224652 13.801929 5.0625 13.9375 C 5.1980709 13.977535 5.3511125 14 5.5 14 L 5.09375 14 C 5.2970063 14.587017 5.842125 15 6.5 15 L 8 15 L 12.5 15 C 13.331 15 14 14.331 14 13.5 L 14 12.5 C 14 13.331 13.331 14 12.5 14 L 6.5 14 C 5.669 14 5 13.331 5 12.5 z M 20 15 C 20 16.108 19.108 17 18 17 L 15 17 L 15 18 L 16 18 L 18 18 C 19.108 18 20 17.108 20 16 L 20 15 z M 8 16 C 8 17.108 8.892 18 10 18 L 12 18 L 13 18 L 13 17 L 10 17 C 9.2580987 17 8.6265269 16.596909 8.28125 16 L 8 16 z M 9 20 L 9 21 L 12 21 L 12 20 L 9 20 z M 12 21 L 12 22 L 16 22 L 16 21 L 12 21 z M 16 21 L 19 21 L 19 20 L 16 20 L 16 21 z "
       id="path3688" />
  </g>
</svg>
