<?xml version="1.0" encoding="UTF-8" standalone="no"?>
<!-- Created with Inkscape (http://www.inkscape.org/) -->

<svg
   xmlns:dc="http://purl.org/dc/elements/1.1/"
   xmlns:cc="http://creativecommons.org/ns#"
   xmlns:rdf="http://www.w3.org/1999/02/22-rdf-syntax-ns#"
   xmlns:svg="http://www.w3.org/2000/svg"
   xmlns="http://www.w3.org/2000/svg"
   xmlns:xlink="http://www.w3.org/1999/xlink"
   xmlns:sodipodi="http://sodipodi.sourceforge.net/DTD/sodipodi-0.dtd"
   xmlns:inkscape="http://www.inkscape.org/namespaces/inkscape"
   width="22"
   height="22"
   id="svg2"
   sodipodi:version="0.32"
   inkscape:version="0.48.0 r9654"
   version="1.0"
   sodipodi:docname="add-folder-to-archive.svg"
   inkscape:output_extension="org.inkscape.output.svg.inkscape"
   inkscape:export-filename="/home/matt/.icons/Sirocco/scalable/mimetypes/text-plain.png"
   inkscape:export-xdpi="90"
   inkscape:export-ydpi="90"
   sodipodi:modified="true"
   style="display:inline">
  <sodipodi:namedview
     id="base"
     pagecolor="#ffffff"
     bordercolor="#666666"
     borderopacity="1.0"
     inkscape:pageopacity="0.0"
     inkscape:pageshadow="2"
     inkscape:zoom="17.194902"
     inkscape:cx="-16.046867"
     inkscape:cy="4.3884925"
     inkscape:document-units="px"
     inkscape:current-layer="layer1"
     width="128px"
     height="128px"
     inkscape:showpageshadow="false"
     inkscape:window-width="1920"
     inkscape:window-height="1026"
     inkscape:window-x="0"
     inkscape:window-y="25"
     showguides="true"
     inkscape:guide-bbox="true"
     showgrid="true"
     inkscape:window-maximized="1">
    <sodipodi:guide
       id="guide2226"
       position="32.637397,117.99844"
       orientation="horizontal" />
    <sodipodi:guide
       id="guide2230"
       position="110,57.402344"
       orientation="vertical" />
    <sodipodi:guide
       id="guide2232"
       position="33.760911"
       orientation="horizontal" />
    <sodipodi:guide
       id="guide2231"
       position="46.774696"
       orientation="horizontal" />
    <inkscape:grid
       enabled="true"
       visible="true"
       id="grid3231"
       type="xygrid" />
    <sodipodi:guide
       orientation="1,0"
       position="100,67.625"
       id="guide2713" />
  </sodipodi:namedview>
  <defs
     id="defs4">
    <linearGradient
       gradientUnits="userSpaceOnUse"
       y2="19.387045"
       x2="11.998966"
       y1="0.92195445"
       x1="11.998966"
       gradientTransform="scale(0.9219544,1.0846523)"
       id="linearGradient6235">
      <stop
         id="stop6237"
         offset="0"
         style="stop-color:#000000;stop-opacity:0.86274511;" />
      <stop
         id="stop6239"
         offset="1"
         style="stop-color:#000000;stop-opacity:0.47058824;" />
    </linearGradient>
    <clipPath
       clipPathUnits="userSpaceOnUse"
       id="clipPath3634">
      <path
         style="fill:#ff00ff;fill-opacity:1;stroke:none"
         d="m -30,0 0,22 22,0 0,-22 -22,0 z m 9,2 c 1.536279,0 3.078693,0.5829855 4.25,1.75 2.042235,2.0347517 2.299759,5.181761 0.78125,7.5 0.01984,0.394051 0.08665,1.024202 0.34375,1.25 0.350063,0.307445 1.153972,-0.120878 1.6875,0.46875 l 3.6875,3.71875 c 0,0 0.750914,0.690483 -0.3125,1.75 -1.063413,1.059517 -1.75,0.3125 -1.75,0.3125 L -16,15.03125 c -0.591796,-0.531572 -0.160173,-1.338719 -0.46875,-1.6875 -0.226629,-0.256157 -0.854501,-0.32398 -1.25,-0.34375 -2.326765,1.512945 -5.489015,1.253503 -7.53125,-0.78125 -2.342612,-2.3340289 -2.342612,-6.134721 0,-8.46875 C -24.078693,2.5829856 -22.536279,2 -21,2 z m 0.03125,2 c -1.104318,1e-7 -2.119541,0.4034447 -2.84375,1.125 -0.724209,0.7215553 -1.15625,1.7434783 -1.15625,2.84375 0,2.200545 1.791365,4.000001 4,4 2.208637,0 4,-1.799455 4,-4 0,-2.2005437 -1.791364,-3.9687501 -4,-3.96875 z"
         id="path3636" />
    </clipPath>
    <filter
       inkscape:collect="always"
       id="filter3644">
      <feGaussianBlur
         inkscape:collect="always"
         stdDeviation="0.51"
         id="feGaussianBlur3646" />
    </filter>
    <filter
       inkscape:collect="always"
       id="filter3696">
      <feGaussianBlur
         inkscape:collect="always"
         stdDeviation="0.51"
         id="feGaussianBlur3698" />
    </filter>
    <linearGradient
       inkscape:collect="always"
       xlink:href="#StandardGradient"
       id="linearGradient2898"
       gradientUnits="userSpaceOnUse"
       gradientTransform="matrix(0.9247229,0,0,1.0872097,-3.0600562,-1.0023583)"
       x1="11.998966"
       y1="1.8417114"
       x2="11.998966"
       y2="20.237488" />
    <clipPath
       clipPathUnits="userSpaceOnUse"
       id="clipPath3700">
      <path
         style="fill:#ff00ff;fill-opacity:1;stroke:none"
         d="m -30,0 0,22 22,0 0,-22 -22,0 z m 10,1 8,0 c 1.108,0 2,0.892 2,2 l 0,12 c 0,1.108 -0.892,2 -2,2 l -3,0 0,1 1,0 0,1 3,0 0,1 -3,0 0,1 -4,0 0,-1 -3,0 0,-1 3,0 0,-1 1,0 0,-1 -3,0 c -1.108,0 -2,-0.892 -2,-2 l 9,0 c 0.554,0 1,-0.446 1,-1 l 0,-10 c 0,-0.554 -0.446,-1 -1,-1 l -9,0 c 0,-1.108 0.892,-2 2,-2 z m -6.03125,2.09375 2,0 c 0.554,0 1,0.446 1,1 l 5,0 c 0.554,0 1,0.446 1,1 l -10,0 0,-1 c 0,-0.554 0.446,-1 1,-1 z m -0.5,3 3,0 5,0 1,0 c 0.831,0 1.5,0.669 1.5,1.5 l 0,5 c 0,0.647488 -0.396277,1.195291 -0.96875,1.40625 l 0,0.09375 -8.03125,0 -1.5,0 c -0.831,0 -1.5,-0.669 -1.5,-1.5 l 0,-5 c 0,-0.831 0.669,-1.5 1.5,-1.5 z"
         id="path3702" />
    </clipPath>
    <filter
       inkscape:collect="always"
       id="filter3704">
      <feGaussianBlur
         inkscape:collect="always"
         stdDeviation="0.57046875"
         id="feGaussianBlur3706" />
    </filter>
    <linearGradient
       inkscape:collect="always"
       xlink:href="#StandardGradient"
       id="linearGradient3786"
       gradientUnits="userSpaceOnUse"
       gradientTransform="scale(1.0598527,0.9435274)"
       x1="11.794092"
       y1="3.2126782"
       x2="11.794092"
       y2="20.137329" />
    <linearGradient
       id="StandardGradient"
       gradientTransform="matrix(1.0765258,0,0,0.9227364,-0.00801316,0.1584665)"
       x1="10.005832"
       y1="4.1631975"
       x2="10.005832"
       y2="17.168188"
       gradientUnits="userSpaceOnUse">
      <stop
         id="stop3337"
         offset="0"
         style="stop-color:#ebebeb;stop-opacity:1;" />
      <stop
         id="stop3339"
         offset="1"
         style="stop-color:#aaaaaa;stop-opacity:1;" />
    </linearGradient>
    <linearGradient
       y2="20.137329"
       x2="11.794092"
       y1="3.2126782"
       x1="11.794092"
       gradientTransform="matrix(1.0598527,0,0,0.9435274,0,-1)"
       gradientUnits="userSpaceOnUse"
       id="linearGradient3234"
       xlink:href="#StandardGradient"
       inkscape:collect="always" />
    <linearGradient
       inkscape:collect="always"
       xlink:href="#StandardGradient"
       id="linearGradient6260"
       gradientUnits="userSpaceOnUse"
       gradientTransform="matrix(0.9247229,0,0,1.0872097,-3.0600562,-1.0023583)"
       x1="11.998966"
       y1="1.8417114"
       x2="11.998966"
       y2="20.237488" />
  </defs>
  <metadata
     id="metadata7">
    <rdf:RDF>
      <cc:Work
         rdf:about="">
        <dc:format>image/svg+xml</dc:format>
        <dc:type
           rdf:resource="http://purl.org/dc/dcmitype/StillImage" />
      </cc:Work>
    </rdf:RDF>
  </metadata>
  <g
     style="display:inline"
     inkscape:label="Calque 1"
     id="layer1"
     inkscape:groupmode="layer">
    <path
       sodipodi:type="inkscape:offset"
       inkscape:radius="0.98462439"
       inkscape:original="M 10 1 C 8.892 1 8 1.892 8 3 L 17 3 C 17.554 3 18 3.446 18 4 L 18 14 C 18 14.554 17.554 15 17 15 L 8 15 C 8 16.108 8.892 17 10 17 L 13 17 L 13 18 L 12 18 L 12 19 L 9 19 L 9 20 L 12 20 L 12 21 L 16 21 L 16 20 L 19 20 L 19 19 L 16 19 L 16 18 L 15 18 L 15 17 L 18 17 C 19.108 17 20 16.108 20 15 L 20 3 C 20 1.892 19.108 1 18 1 L 10 1 z M 3.96875 3.09375 C 3.41475 3.09375 2.96875 3.53975 2.96875 4.09375 L 2.96875 5.09375 L 12.96875 5.09375 C 12.96875 4.53975 12.52275 4.09375 11.96875 4.09375 L 6.96875 4.09375 C 6.96875 3.53975 6.52275 3.09375 5.96875 3.09375 L 3.96875 3.09375 z M 3.46875 6.09375 C 2.63775 6.09375 1.96875 6.76275 1.96875 7.59375 L 1.96875 12.59375 C 1.96875 13.42475 2.63775 14.09375 3.46875 14.09375 L 4.96875 14.09375 L 13 14.09375 L 13 14 C 13.572473 13.789041 13.96875 13.241238 13.96875 12.59375 L 13.96875 7.59375 C 13.96875 6.76275 13.29975 6.09375 12.46875 6.09375 L 11.46875 6.09375 L 6.46875 6.09375 L 3.46875 6.09375 z "
       style="fill:#000000;fill-opacity:1;stroke:none;display:inline;opacity:0.25"
       id="path6262"
       d="M 10,0 C 8.5239707,0 7.4167244,1.1778866 7.1875,2.59375 c -0.3419374,-0.2779284 -0.7516993,-0.5 -1.21875,-0.5 l -2,0 c -1.0824506,0 -2,0.9175494 -2,2 l 0,1 a 0.98472285,0.98472285 0 0 0 0.1875,0.5625 c -0.6615379,0.4491237 -1.1875,1.0878434 -1.1875,1.9375 l 0,5 c 0,1.359451 1.1405494,2.5 2.5,2.5 l 1.5,0 2.0625,0 C 7.0876884,16.682239 8.3988574,18 10,18 l -1,0 a 0.98472285,0.98472285 0 0 0 -1,1 l 0,1 a 0.98472285,0.98472285 0 0 0 1,1 l 2,0 a 0.98472285,0.98472285 0 0 0 1,1 l 4,0 a 0.98472285,0.98472285 0 0 0 1,-1 l 2,0 a 0.98472285,0.98472285 0 0 0 1,-1 l 0,-1 a 0.98472285,0.98472285 0 0 0 -1,-1 l -1,0 c 1.636451,0 3,-1.363549 3,-3 L 21,3 C 21,1.3635494 19.636451,0 18,0 l -8,0 z m 3.5,4 3.5,0 0,10 -2.5,0 c 0.273907,-0.402814 0.46875,-0.891944 0.46875,-1.40625 l 0,-5 c 0,-0.8496566 -0.525962,-1.4883763 -1.1875,-1.9375 a 0.98472285,0.98472285 0 0 0 0.1875,-0.5625 C 13.96875,4.6718392 13.731375,4.3243865 13.5,4 z" />
    <path
       id="path3691"
       d="m -20,1 c -1.108,0 -2,0.892 -2,2 l 9,0 c 0.554,0 1,0.446 1,1 l 0,10 c 0,0.554 -0.446,1 -1,1 l -9,0 c 0,1.108 0.892,2 2,2 l 3,0 0,1 -1,0 0,1 -3,0 0,1 3,0 0,1 4,0 0,-1 3,0 0,-1 -3,0 0,-1 -1,0 0,-1 3,0 c 1.108,0 2,-0.892 2,-2 l 0,-12 c 0,-1.108 -0.892,-2 -2,-2 l -8,0 z m -6.03125,2.09375 c -0.554,0 -1,0.446 -1,1 l 0,1 10,0 c 0,-0.554 -0.446,-1 -1,-1 l -5,0 c 0,-0.554 -0.446,-1 -1,-1 l -2,0 z m -0.5,3 c -0.831,0 -1.5,0.669 -1.5,1.5 l 0,5 c 0,0.831 0.669,1.5 1.5,1.5 l 1.5,0 8.03125,0 L -17,14 c 0.572473,-0.210959 0.96875,-0.758762 0.96875,-1.40625 l 0,-5 c 0,-0.831 -0.669,-1.5 -1.5,-1.5 l -1,0 -5,0 -3,0 z"
       style="opacity:0.3;fill:none;stroke:#ffffff;display:inline;filter:url(#filter3704)"
       clip-path="url(#clipPath3700)"
       transform="translate(30,0)" />
    <path
       style="fill:url(#linearGradient2898);fill-opacity:1.0;stroke:none;display:inline"
       d="M 10 1 C 8.892 1 8 1.892 8 3 L 17 3 C 17.554 3 18 3.446 18 4 L 18 14 C 18 14.554 17.554 15 17 15 L 8 15 C 8 16.108 8.892 17 10 17 L 13 17 L 13 18 L 12 18 L 12 19 L 9 19 L 9 20 L 12 20 L 12 21 L 16 21 L 16 20 L 19 20 L 19 19 L 16 19 L 16 18 L 15 18 L 15 17 L 18 17 C 19.108 17 20 16.108 20 15 L 20 3 C 20 1.892 19.108 1 18 1 L 10 1 z M 3.96875 3.09375 C 3.41475 3.09375 2.96875 3.53975 2.96875 4.09375 L 2.96875 5.09375 L 12.96875 5.09375 C 12.96875 4.53975 12.52275 4.09375 11.96875 4.09375 L 6.96875 4.09375 C 6.96875 3.53975 6.52275 3.09375 5.96875 3.09375 L 3.96875 3.09375 z M 3.46875 6.09375 C 2.63775 6.09375 1.96875 6.76275 1.96875 7.59375 L 1.96875 12.59375 C 1.96875 13.42475 2.63775 14.09375 3.46875 14.09375 L 4.96875 14.09375 L 13 14.09375 L 13 14 C 13.572473 13.789041 13.96875 13.241238 13.96875 12.59375 L 13.96875 7.59375 C 13.96875 6.76275 13.29975 6.09375 12.46875 6.09375 L 11.46875 6.09375 L 6.46875 6.09375 L 3.46875 6.09375 z "
       id="path2866" />
    <path
       style="fill:#ffffff;fill-opacity:1;stroke:none;display:inline;opacity:0.6"
       d="M 10 1 C 8.892 1 8 1.892 8 3 L 8.28125 3 C 8.6265269 2.4030909 9.2580987 2 10 2 L 18 2 C 19.108 2 20 2.892 20 4 L 20 3 C 20 1.892 19.108 1 18 1 L 10 1 z M 3.96875 3.09375 C 3.41475 3.09375 2.96875 3.53975 2.96875 4.09375 L 2.96875 5.09375 C 2.96875 4.53975 3.41475 4.09375 3.96875 4.09375 L 5.96875 4.09375 C 6.52275 4.09375 6.96875 4.53975 6.96875 5.09375 L 11.96875 5.09375 L 12.96875 5.09375 C 12.96875 4.53975 12.52275 4.09375 11.96875 4.09375 L 6.96875 4.09375 C 6.96875 3.53975 6.52275 3.09375 5.96875 3.09375 L 3.96875 3.09375 z M 3.46875 6.09375 C 2.63775 6.09375 1.96875 6.76275 1.96875 7.59375 L 1.96875 8.59375 C 1.96875 7.76275 2.63775 7.09375 3.46875 7.09375 L 6.46875 7.09375 L 11.46875 7.09375 L 12.46875 7.09375 C 13.29975 7.09375 13.96875 7.76275 13.96875 8.59375 L 13.96875 7.59375 C 13.96875 6.76275 13.29975 6.09375 12.46875 6.09375 L 3.46875 6.09375 z M 18 14 C 18 14.554 17.554 15 17 15 L 13 15 L 13 15.09375 L 8 15.09375 C 8.0152688 15.424169 8.1256568 15.731013 8.28125 16 L 17 16 C 17.554 16 18 15.554 18 15 L 18 14 z M 12 18 L 12 19 L 13 19 L 13 18 L 12 18 z M 12 19 L 9 19 L 9 20 L 12 20 L 12 19 z M 15 18 L 15 19 L 16 19 L 16 18 L 15 18 z M 16 19 L 16 20 L 19 20 L 19 19 L 16 19 z "
       id="path2901" />
    <path
       style="fill:#000000;fill-opacity:1;stroke:none;display:inline;opacity:0.45"
       d="M 8.28125 3 C 8.1108696 3.2945508 8 3.6339013 8 4 L 17 4 C 17.554 4 18 4.446 18 5 L 18 4 C 18 3.446 17.554 3 17 3 L 8.28125 3 z M 2.96875 5.09375 L 2.96875 6.09375 L 3.46875 6.09375 L 12.46875 6.09375 L 12.96875 6.09375 C 12.96875 5.53975 12.52275 5.09375 11.96875 5.09375 L 6.96875 5.09375 L 2.96875 5.09375 z M 1.96875 12.59375 L 1.96875 13.59375 C 1.96875 14.42475 2.63775 15.09375 3.46875 15.09375 L 4.96875 15.09375 L 8 15.09375 C 7.9985489 15.062348 8 15.031774 8 15 L 13 15 C 13.572473 14.789041 13.96875 14.241238 13.96875 13.59375 L 13.96875 12.59375 C 13.96875 13.241238 13.572473 13.789041 13 14 L 13 14.09375 L 4.96875 14.09375 L 3.46875 14.09375 C 2.63775 14.09375 1.96875 13.42475 1.96875 12.59375 z M 20 15 C 20 16.108 19.108 17 18 17 L 15 17 L 15 18 L 16 18 L 18 18 C 19.108 18 20 17.108 20 16 L 20 15 z M 8 16 C 8 17.108 8.892 18 10 18 L 12 18 L 13 18 L 13 17 L 10 17 C 9.2580987 17 8.6265269 16.596909 8.28125 16 L 8 16 z M 9 20 L 9 21 L 12 21 L 12 20 L 9 20 z M 12 21 L 12 22 L 16 22 L 16 21 L 12 21 z M 16 21 L 19 21 L 19 20 L 16 20 L 16 21 z "
       id="path3682" />
  </g>
</svg>
