<?xml version="1.0" encoding="UTF-8" standalone="no"?>
<!-- Created with Inkscape (http://www.inkscape.org/) -->

<svg
   xmlns:dc="http://purl.org/dc/elements/1.1/"
   xmlns:cc="http://creativecommons.org/ns#"
   xmlns:rdf="http://www.w3.org/1999/02/22-rdf-syntax-ns#"
   xmlns:svg="http://www.w3.org/2000/svg"
   xmlns="http://www.w3.org/2000/svg"
   xmlns:xlink="http://www.w3.org/1999/xlink"
   xmlns:sodipodi="http://sodipodi.sourceforge.net/DTD/sodipodi-0.dtd"
   xmlns:inkscape="http://www.inkscape.org/namespaces/inkscape"
   width="22"
   height="22"
   id="svg2"
   sodipodi:version="0.32"
   inkscape:version="0.48.0 r9654"
   version="1.0"
   sodipodi:docname="appointment-new.svg"
   inkscape:output_extension="org.inkscape.output.svg.inkscape">
  <defs
     id="defs4">
    <linearGradient
       inkscape:collect="always"
       xlink:href="#StandardGradient"
       id="linearGradient4622"
       gradientUnits="userSpaceOnUse"
       gradientTransform="scale(1.1310246,0.8841541)"
       x1="11.162445"
       y1="5.6551228"
       x2="11.162445"
       y2="18.097509" />
    <linearGradient
       id="StandardGradient"
       gradientTransform="matrix(1.0765258,0,0,0.9227364,-0.00801316,0.1584665)"
       x1="10.005832"
       y1="4.1631975"
       x2="10.005832"
       y2="17.168188"
       gradientUnits="userSpaceOnUse">
      <stop
         id="stop3337"
         offset="0"
         style="stop-color:#ebebeb;stop-opacity:1;" />
      <stop
         id="stop3339"
         offset="1"
         style="stop-color:#aaaaaa;stop-opacity:1;" />
    </linearGradient>
    <linearGradient
       inkscape:collect="always"
       xlink:href="#StandardGradient"
       id="linearGradient3853"
       gradientUnits="userSpaceOnUse"
       gradientTransform="matrix(0,1,-1,0,23,-1)"
       x1="3"
       y1="11"
       x2="19"
       y2="11" />
  </defs>
  <sodipodi:namedview
     id="base"
     pagecolor="#ffffff"
     bordercolor="#9a9a9a"
     borderopacity="1"
     inkscape:pageopacity="0.0"
     inkscape:pageshadow="2"
     inkscape:zoom="18.505084"
     inkscape:cx="-11.795476"
     inkscape:cy="5.4522897"
     inkscape:document-units="px"
     inkscape:current-layer="layer3"
     showgrid="true"
     inkscape:showpageshadow="false"
     showguides="true"
     inkscape:guide-bbox="true"
     inkscape:window-width="1920"
     inkscape:window-height="1029"
     inkscape:window-x="0"
     inkscape:window-y="25"
     inkscape:window-maximized="1">
    <sodipodi:guide
       orientation="1,0"
       position="0,112"
       id="guide2383" />
    <sodipodi:guide
       orientation="0,1"
       position="26.278146,128"
       id="guide2385" />
    <sodipodi:guide
       orientation="1,0"
       position="128,54.082119"
       id="guide2387" />
    <sodipodi:guide
       orientation="0,1"
       position="78.156291,0"
       id="guide2389" />
    <inkscape:grid
       type="xygrid"
       id="grid3672"
       visible="true"
       enabled="true" />
  </sodipodi:namedview>
  <metadata
     id="metadata7">
    <rdf:RDF>
      <cc:Work
         rdf:about="">
        <dc:format>image/svg+xml</dc:format>
        <dc:type
           rdf:resource="http://purl.org/dc/dcmitype/StillImage" />
        <dc:title></dc:title>
      </cc:Work>
    </rdf:RDF>
  </metadata>
  <g
     inkscape:groupmode="layer"
     id="layer3"
     inkscape:label="Cross"
     style="display:inline">
    <path
       inkscape:connector-curvature="0"
       style="opacity:0.25;color:#000000;fill:#000000;fill-opacity:1;fill-rule:nonzero;stroke:none;stroke-width:1;marker:none;visibility:visible;display:inline;overflow:visible;enable-background:accumulate"
       d="m 12,1 c -4.9566898,0 -9,4.0433102 -9,9 0,0.381664 0.016361,0.756452 0.0625,1.125 a 0.99634656,0.99634656 0 0 0 0.09375,0.3125 0.99634656,0.99634656 0 0 0 0,0.03125 A 0.99634656,0.99634656 0 0 0 3,12 l 0,2 -2.00000002,0 A 0.99634656,0.99634656 0 0 0 0,15 l 0,3 a 0.99634656,0.99634656 0 0 0 0.99999998,1 L 3,19 3,21 a 0.99634656,0.99634656 0 0 0 1,1 l 3,0 a 0.99634656,0.99634656 0 0 0 1,-1 l 0,-2 2,0 a 0.99634656,0.99634656 0 0 0 0.5625,-0.1875 0.99634656,0.99634656 0 0 0 0.3125,0.125 C 11.243548,18.98364 11.618336,19 12,19 c 4.95669,0 9,-4.04331 9,-9 0,-4.9566898 -4.04331,-9 -9,-9 z m 0,1 c 4.418278,0 8,3.581722 8,8 0,4.418278 -3.581722,8 -8,8 -0.33999,0 -0.671168,-0.02133 -1,-0.0625 l 0,-2.03125 C 11.322839,15.95999 11.661912,16 12,16 c 3.313709,0 6,-2.686292 6,-6 0,-3.3137085 -2.686291,-6 -6,-6 -3.313708,0 -6,2.6862915 -6,6 0,0.338088 0.040011,0.677161 0.09375,1 L 4.0625,11 C 4.021333,10.671168 4,10.33999 4,10 4,5.581722 7.581722,2 12,2 z m -0.0625,3 0.125,0 C 12.578484,5 13,5.4215164 13,5.9375 L 13,9 15.5,9 c 0.554,0 1,0.446 1,1 0,0.554 -0.446,1 -1,1 L 12.0625,11 12,11 c -0.02172,0 -0.04113,0.0014 -0.0625,0 C 11.421516,11 11,10.578484 11,10.0625 l 0,-4.125 C 11,5.4215164 11.421516,5 11.9375,5 z M 10.25,5.34375 C 10.17477,5.5489691 10,5.7079911 10,5.9375 l 0,4.125 c 0,1.033727 0.850043,1.866535 1.875,1.90625 l 0,0.03125 c 0.05194,0.0034 0.04094,3.18e-4 0.0625,0 0.02156,-3.18e-4 0.07305,0 0.0625,0 l 0.0625,0 3.4375,0 c 0.469742,0 0.874803,-0.220431 1.21875,-0.5 C 16.07438,13.517484 14.238749,15 12,15 11.740511,15 11.446641,14.98584 11.15625,14.9375 A 0.99634656,0.99634656 0 0 0 11,14.90625 0.99634656,0.99634656 0 0 0 10,14 L 8,14 8,12 A 0.99634656,0.99634656 0 0 0 7.09375,11 0.99634656,0.99634656 0 0 0 7.0625,10.84375 C 7.0141614,10.553356 7,10.259488 7,10 7,7.85172 8.3594305,6.0567519 10.25,5.34375 z m 3.5,0 C 15.168387,5.8786746 16.254852,7.0475622 16.71875,8.5 16.374803,8.2204307 15.969742,8 15.5,8 L 14,8 14,5.9375 C 14,5.7079911 13.825232,5.5489691 13.75,5.34375 z M 4,12 l 3,0 0,3 3,0 0,3 -3,0 0,3 -3,0 0,-3 -3.00000002,0 0,-3 L 4,15 4,12 z"
       id="path3880" />
    <path
       inkscape:connector-curvature="0"
       style="color:#000000;fill:url(#linearGradient3853);fill-opacity:1.0;fill-rule:nonzero;stroke:none;stroke-width:1;marker:none;visibility:visible;display:inline;overflow:visible;enable-background:accumulate"
       d="m 12,2 c -4.418278,0 -8,3.581722 -8,8 0,0.33999 0.021333,0.671168 0.0625,1 l 2.03125,0 C 6.040011,10.677161 6,10.338088 6,10 6,6.6862915 8.686292,4 12,4 c 3.313709,0 6,2.6862915 6,6 0,3.313708 -2.686291,6 -6,6 -0.338088,0 -0.677161,-0.04001 -1,-0.09375 l 0,2.03125 C 11.328832,17.97867 11.66001,18 12,18 16.418278,18 20,14.418278 20,10 20,5.581722 16.418278,2 12,2 z M 11.9375,5 C 11.421516,5 11,5.4215164 11,5.9375 l 0,4.125 C 11,10.578484 11.421516,11 11.9375,11 11.95887,11.0014 11.97828,11 12,11 l 0.0625,0 3.4375,0 c 0.554,0 1,-0.446 1,-1 0,-0.554 -0.446,-1 -1,-1 L 13,9 13,5.9375 C 13,5.4215164 12.578484,5 12.0625,5 l -0.125,0 z M 4,12 l 0,3 -3.00000002,0 0,3 L 4,18 l 0,3 3,0 0,-3 3,0 0,-3 -3,0 0,-3 -3,0 z"
       id="path3716" />
    <path
       inkscape:connector-curvature="0"
       style="opacity:0.6;color:#000000;fill:#ffffff;fill-opacity:1;fill-rule:nonzero;stroke:none;stroke-width:1;marker:none;visibility:visible;display:inline;overflow:visible;enable-background:accumulate"
       d="M 12,2 C 7.581722,2 4,5.581722 4,10 4,10.127662 4.025314,10.249481 4.03125,10.375 4.3531815,6.2518817 7.7942333,3 12,3 16.248187,3 19.707507,6.3176547 19.96875,10.5 19.97921,10.332546 20,10.170091 20,10 20,5.581722 16.418278,2 12,2 z M 11.90625,5 C 11.404609,5.01661 11,5.4319755 11,5.9375 l 0,1 C 11,6.4215164 11.421516,6 11.9375,6 l 0.125,0 C 12.578484,6 13,6.4215164 13,6.9375 l 0,-1 C 13,5.4319755 12.595391,5.0166105 12.09375,5 12.08346,4.9998439 12.07281,5.0001042 12.0625,5 l -0.125,0 C 11.92704,5 11.91663,4.9996563 11.90625,5 z M 13,9 l 0,1 2.5,0 c 0.366099,0 0.669517,0.208009 0.84375,0.5 C 16.43318,10.350135 16.5,10.187901 16.5,10 16.5,9.446 16.054,9 15.5,9 L 13,9 z M 6.03125,10.375 C 6.010766,10.576702 6,10.792893 6,11 l 0.09375,0 C 6.060143,10.798108 6.047691,10.585378 6.03125,10.375 z m 11.9375,0.25 C 17.66149,13.650536 15.106602,16 12,16 11.661912,16 11.322839,15.95999 11,15.90625 l 0,1 C 11.322839,16.95999 11.661912,17 12,17 c 3.313709,0 6,-2.686292 6,-6 0,-0.124471 -0.02378,-0.252409 -0.03125,-0.375 z M 4,12 4,13 7,13 7,12 6.09375,12 4.0625,12 4,12 z m -3.00000002,3 0,1 L 4,16 4,15 0.99999998,15 z M 7,15 l 0,1 3,0 0,-1 -3,0 z"
       id="path3856" />
    <path
       inkscape:connector-curvature="0"
       style="opacity:0.45;color:#000000;fill:#000000;fill-opacity:1;fill-rule:nonzero;stroke:none;stroke-width:1;marker:none;visibility:visible;display:inline;overflow:visible;enable-background:accumulate"
       d="M 12,4 C 8.686292,4 6,6.6862915 6,10 6,10.12666 6.021401,10.248969 6.03125,10.375 6.3354451,7.3796434 8.841696,5.0464652 11.90625,5 c 0.01038,-3.437e-4 0.02079,0 0.03125,0 l 0.125,0 c 0.01031,1.042e-4 0.02096,-1.561e-4 0.03125,0 3.064555,0.046465 5.570805,2.3796434 5.875,5.375 C 17.97625,10.252409 18,10.124471 18,10 18,6.6862915 15.313709,4 12,4 z m -1,6.0625 0,1 C 11,11.578484 11.421516,12 11.9375,12 11.95887,12.0014 11.97828,12 12,12 l 0.0625,0 3.4375,0 c 0.554,0 1,-0.446 1,-1 0,-0.187901 -0.06682,-0.350135 -0.15625,-0.5 C 16.169517,10.791991 15.866099,11 15.5,11 L 12.0625,11 12,11 c -0.02172,0 -0.04113,0.0014 -0.0625,0 C 11.421516,11 11,10.578484 11,10.0625 z M 4.03125,10.375 C 4.0149833,10.583335 4,10.787489 4,11 c 0,0.33999 0.021333,0.671168 0.0625,1 l 2.03125,0 C 6.040011,11.677161 6,11.338088 6,11 L 4.0625,11 C 4.0367906,10.79464 4.041123,10.583765 4.03125,10.375 z M 19.96875,10.5 C 19.707507,14.682345 16.248187,18 12,18 11.66001,18 11.328832,17.97867 11,17.9375 l 0,1 C 11.328832,18.97867 11.66001,19 12,19 c 4.418278,0 8,-3.581722 8,-8 0,-0.170091 -0.02079,-0.332546 -0.03125,-0.5 z M 0.99999998,18 l 0,1 L 4,19 4,18 0.99999998,18 z M 7,18 l 0,1 3,0 0,-1 -3,0 z m -3,3 0,1 3,0 0,-1 -3,0 z"
       id="path3865" />
  </g>
</svg>
