<?xml version="1.0" encoding="UTF-8" standalone="no"?>
<!-- Created with Inkscape (http://www.inkscape.org/) -->

<svg
   xmlns:dc="http://purl.org/dc/elements/1.1/"
   xmlns:cc="http://creativecommons.org/ns#"
   xmlns:rdf="http://www.w3.org/1999/02/22-rdf-syntax-ns#"
   xmlns:svg="http://www.w3.org/2000/svg"
   xmlns="http://www.w3.org/2000/svg"
   xmlns:xlink="http://www.w3.org/1999/xlink"
   xmlns:sodipodi="http://sodipodi.sourceforge.net/DTD/sodipodi-0.dtd"
   xmlns:inkscape="http://www.inkscape.org/namespaces/inkscape"
   width="22"
   height="22"
   id="svg2"
   sodipodi:version="0.32"
   inkscape:version="0.48.0 r9654"
   version="1.0"
   sodipodi:docname="document-revert.svg"
   inkscape:output_extension="org.inkscape.output.svg.inkscape"
   inkscape:export-filename="/home/matt/.icons/Sirocco/scalable/mimetypes/text-plain.png"
   inkscape:export-xdpi="90"
   inkscape:export-ydpi="90"
   sodipodi:modified="true"
   style="display:inline">
  <sodipodi:namedview
     id="base"
     pagecolor="#ffffff"
     bordercolor="#666666"
     borderopacity="1.0"
     inkscape:pageopacity="0.0"
     inkscape:pageshadow="2"
     inkscape:zoom="17.092592"
     inkscape:cx="2.6608786"
     inkscape:cy="3.5430974"
     inkscape:document-units="px"
     inkscape:current-layer="layer1"
     width="128px"
     height="128px"
     inkscape:showpageshadow="false"
     inkscape:window-width="1920"
     inkscape:window-height="1026"
     inkscape:window-x="0"
     inkscape:window-y="25"
     showguides="true"
     inkscape:guide-bbox="true"
     showgrid="true"
     inkscape:window-maximized="1">
    <sodipodi:guide
       id="guide2226"
       position="32.637397,117.99844"
       orientation="horizontal" />
    <sodipodi:guide
       id="guide2230"
       position="110,57.402344"
       orientation="vertical" />
    <sodipodi:guide
       id="guide2232"
       position="33.760911"
       orientation="horizontal" />
    <sodipodi:guide
       id="guide2231"
       position="46.774696"
       orientation="horizontal" />
    <inkscape:grid
       enabled="true"
       visible="true"
       id="grid3231"
       type="xygrid" />
    <sodipodi:guide
       orientation="1,0"
       position="100,67.625"
       id="guide2713" />
  </sodipodi:namedview>
  <defs
     id="defs4">
    <linearGradient
       gradientUnits="userSpaceOnUse"
       y2="19.387045"
       x2="11.998966"
       y1="0.92195445"
       x1="11.998966"
       gradientTransform="scale(0.9219544,1.0846523)"
       id="linearGradient5649">
      <stop
         id="stop5651"
         offset="0"
         style="stop-color:#000000;stop-opacity:0.86274511;" />
      <stop
         id="stop5653"
         offset="1"
         style="stop-color:#000000;stop-opacity:0.47058824;" />
    </linearGradient>
    <linearGradient
       inkscape:collect="always"
       xlink:href="#StandardGradient"
       id="linearGradient2911"
       gradientUnits="userSpaceOnUse"
       gradientTransform="matrix(0.9247229,0,0,1.0872097,-6.0600562,4.9976422)"
       x1="11.998966"
       y1="-1.8374393"
       x2="11.998966"
       y2="12.912023" />
    <filter
       inkscape:collect="always"
       id="filter3716">
      <feGaussianBlur
         inkscape:collect="always"
         stdDeviation="0.4809375"
         id="feGaussianBlur3718" />
    </filter>
    <linearGradient
       inkscape:collect="always"
       xlink:href="#StandardGradient"
       id="linearGradient3786"
       gradientUnits="userSpaceOnUse"
       gradientTransform="scale(1.0598527,0.9435274)"
       x1="11.794092"
       y1="3.2126782"
       x2="11.794092"
       y2="20.137329" />
    <linearGradient
       id="StandardGradient"
       gradientTransform="matrix(1.0765258,0,0,0.9227364,-0.00801316,0.1584665)"
       x1="10.005832"
       y1="4.1631975"
       x2="10.005832"
       y2="17.168188"
       gradientUnits="userSpaceOnUse">
      <stop
         id="stop3337"
         offset="0"
         style="stop-color:#ebebeb;stop-opacity:1;" />
      <stop
         id="stop3339"
         offset="1"
         style="stop-color:#aaaaaa;stop-opacity:1;" />
    </linearGradient>
    <linearGradient
       y2="20.137329"
       x2="11.794092"
       y1="3.2126782"
       x1="11.794092"
       gradientTransform="matrix(1.0598527,0,0,0.9435274,-13,0)"
       gradientUnits="userSpaceOnUse"
       id="linearGradient3234"
       xlink:href="#StandardGradient"
       inkscape:collect="always" />
    <linearGradient
       inkscape:collect="always"
       xlink:href="#StandardGradient"
       id="linearGradient5674"
       gradientUnits="userSpaceOnUse"
       gradientTransform="matrix(0.9247229,0,0,1.0872097,-6.0600562,4.9976422)"
       x1="11.998966"
       y1="-1.8374393"
       x2="11.998966"
       y2="12.912023" />
  </defs>
  <metadata
     id="metadata7">
    <rdf:RDF>
      <cc:Work
         rdf:about="">
        <dc:format>image/svg+xml</dc:format>
        <dc:type
           rdf:resource="http://purl.org/dc/dcmitype/StillImage" />
      </cc:Work>
    </rdf:RDF>
  </metadata>
  <g
     style="display:inline"
     inkscape:label="Calque 1"
     id="layer1"
     inkscape:groupmode="layer">
    <path
       sodipodi:type="inkscape:offset"
       inkscape:radius="1.0367091"
       inkscape:original="M 17.03125 3 L 17.03125 8.9375 C 17.03125 10.608628 16.702377 10.96875 15.03125 10.96875 L 11.0625 10.96875 L 11.0625 8 L 6 12 L 11.0625 16 L 11.0625 13 L 16.0625 13 C 17.724501 13 19.0625 11.662 19.0625 10 L 19.0625 3 L 17.03125 3 z M 4.5 4 C 3.669 4 3 4.669 3 5.5 L 3 17.5 C 3 18.331 3.669 19 4.5 19 L 13.5 19 C 13.603875 19 13.714678 18.98867 13.8125 18.96875 C 14.497256 18.829338 15 18.227125 15 17.5 L 15 14 L 13 14 L 13 16.5 C 13 16.777 12.777 17 12.5 17 L 5.5625 17 C 5.2855 17 5.0625 16.777 5.0625 16.5 L 5.0625 6.5 C 5.0625 6.223 5.2855 6 5.5625 6 L 12.5 6 C 12.777 6 13 6.223 13 6.5 L 13 10 L 15 10 L 15 5.5 C 15 4.669 14.331 4 13.5 4 L 4.5 4 z "
       style="fill:#000000;fill-opacity:1;stroke:none;display:inline;opacity:0.25"
       id="path5676"
       d="M 16.8125,1.96875 A 1.0368127,1.0368127 0 0 0 16,3 l 0,2.4375 C 15.959574,4.0838496 14.862377,2.96875 13.5,2.96875 l -9,0 C 3.1125954,2.96875 1.96875,4.1125954 1.96875,5.5 l 0,12 c 0,1.387405 1.1438454,2.53125 2.53125,2.53125 l 9,0 c 0.17926,0 0.358754,0.0039 0.53125,-0.03125 1.159455,-0.236058 2,-1.295012 2,-2.5 l 0,-3.46875 0.03125,0 c 2.218405,0 4.03125,-1.812846 4.03125,-4.03125 l 0,-7 A 1.0368127,1.0368127 0 0 0 19.0625,1.96875 l -2.03125,0 a 1.0368127,1.0368127 0 0 0 -0.21875,0 z m -10.71875,5.0625 4.625,0 a 1.0368127,1.0368127 0 0 0 -0.3125,0.15625 l -4.3125,3.40625 0,-3.5625 z m 5.34375,0 0.53125,0 0,0.46875 A 1.0368127,1.0368127 0 0 0 11.4375,7.03125 z m -5.34375,6.375 3.25,2.5625 -3.25,0 0,-2.5625 z" />
    <path
       style="fill:url(#linearGradient2911);fill-opacity:1.0;stroke:none;display:inline"
       d="M 17.03125 3 L 17.03125 8.9375 C 17.03125 10.608628 16.702377 10.96875 15.03125 10.96875 L 11.0625 10.96875 L 11.0625 8 L 6 12 L 11.0625 16 L 11.0625 13 L 16.0625 13 C 17.724501 13 19.0625 11.662 19.0625 10 L 19.0625 3 L 17.03125 3 z M 4.5 4 C 3.669 4 3 4.669 3 5.5 L 3 17.5 C 3 18.331 3.669 19 4.5 19 L 13.5 19 C 13.603875 19 13.714678 18.98867 13.8125 18.96875 C 14.497256 18.829338 15 18.227125 15 17.5 L 15 14 L 13 14 L 13 16.5 C 13 16.777 12.777 17 12.5 17 L 5.5625 17 C 5.2855 17 5.0625 16.777 5.0625 16.5 L 5.0625 6.5 C 5.0625 6.223 5.2855 6 5.5625 6 L 12.5 6 C 12.777 6 13 6.223 13 6.5 L 13 10 L 15 10 L 15 5.5 C 15 4.669 14.331 4 13.5 4 L 4.5 4 z "
       id="path2862" />
    <path
       style="fill:#ffffff;fill-opacity:1;stroke:none;display:inline;opacity:0.6"
       d="M 17.03125 3 L 17.03125 4 L 19.0625 4 L 19.0625 3 L 17.03125 3 z M 4.5 4 C 3.669 4 3 4.669 3 5.5 L 3 6.5 C 3 5.669 3.669 5 4.5 5 L 13.5 5 C 14.331 5 15 5.669 15 6.5 L 15 5.5 C 15 4.669 14.331 4 13.5 4 L 4.5 4 z M 11.0625 8 L 6 12 L 6.625 12.5 L 11.0625 9 L 11.0625 8 z M 17.03125 8.9375 C 17.03125 10.608628 16.702377 10.96875 15.03125 10.96875 L 15 10.96875 L 15 11 L 13 11 L 13 10.96875 L 11.0625 10.96875 L 11.0625 11.96875 L 15.03125 11.96875 C 16.702377 11.96875 17.03125 11.608628 17.03125 9.9375 L 17.03125 8.9375 z M 13 14 L 13 15 L 15 15 L 15 14 L 13 14 z M 5.0625 16.5 L 5.0625 17.5 C 5.0625 17.777 5.2855 18 5.5625 18 L 12.5 18 C 12.777 18 13 17.777 13 17.5 L 13 16.5 C 13 16.777 12.777 17 12.5 17 L 11.0625 17 L 5.5625 17 C 5.2855 17 5.0625 16.777 5.0625 16.5 z "
       id="path2913" />
    <path
       style="fill:#000000;fill-opacity:1;stroke:none;display:inline;opacity:0.45"
       d="M 5.5625 6 C 5.2855 6 5.0625 6.223 5.0625 6.5 L 5.0625 7.5 C 5.0625 7.223 5.2855 7 5.5625 7 L 12.5 7 C 12.777 7 13 7.223 13 7.5 L 13 6.5 C 13 6.223 12.777 6 12.5 6 L 5.5625 6 z M 13 10 L 13 10.96875 L 15 10.96875 L 15 10 L 13 10 z M 19.0625 10 C 19.0625 11.662 17.724501 13 16.0625 13 L 11.0625 13 L 11.0625 14 L 13 14 L 15 14 L 16.0625 14 C 17.724501 14 19.0625 12.662 19.0625 11 L 19.0625 10 z M 6.625 12.5 L 6 13 L 11.0625 17 L 11.0625 16 L 6.625 12.5 z M 3 17.5 L 3 18.5 C 3 19.331 3.669 20 4.5 20 L 13.5 20 C 13.603875 20 13.714678 19.98867 13.8125 19.96875 C 14.497256 19.829338 15 19.227125 15 18.5 L 15 17.5 C 15 18.227125 14.497256 18.829338 13.8125 18.96875 C 13.714678 18.98867 13.603875 19 13.5 19 L 4.5 19 C 3.669 19 3 18.331 3 17.5 z "
       id="path3694" />
  </g>
</svg>
