<?xml version="1.0" encoding="UTF-8" standalone="no"?>
<!-- Created with Inkscape (http://www.inkscape.org/) -->

<svg
   xmlns:dc="http://purl.org/dc/elements/1.1/"
   xmlns:cc="http://creativecommons.org/ns#"
   xmlns:rdf="http://www.w3.org/1999/02/22-rdf-syntax-ns#"
   xmlns:svg="http://www.w3.org/2000/svg"
   xmlns="http://www.w3.org/2000/svg"
   xmlns:xlink="http://www.w3.org/1999/xlink"
   xmlns:sodipodi="http://sodipodi.sourceforge.net/DTD/sodipodi-0.dtd"
   xmlns:inkscape="http://www.inkscape.org/namespaces/inkscape"
   width="22"
   height="22"
   id="svg2"
   sodipodi:version="0.32"
   inkscape:version="0.48.1 r9760"
   version="1.0"
   sodipodi:docname="folder-new.svg"
   inkscape:output_extension="org.inkscape.output.svg.inkscape"
   inkscape:export-filename="/home/matt/.icons/Sirocco/scalable/mimetypes/text-plain.png"
   inkscape:export-xdpi="90"
   inkscape:export-ydpi="90"
   sodipodi:modified="true"
   style="display:inline">
  <sodipodi:namedview
     id="base"
     pagecolor="#ffffff"
     bordercolor="#666666"
     borderopacity="1.0"
     inkscape:pageopacity="0.0"
     inkscape:pageshadow="2"
     inkscape:zoom="17.041667"
     inkscape:cx="-2.4290318"
     inkscape:cy="17.919401"
     inkscape:document-units="px"
     inkscape:current-layer="layer1"
     width="128px"
     height="128px"
     inkscape:showpageshadow="false"
     inkscape:window-width="1920"
     inkscape:window-height="1030"
     inkscape:window-x="0"
     inkscape:window-y="25"
     showguides="true"
     inkscape:guide-bbox="true"
     showgrid="true"
     inkscape:window-maximized="1">
    <sodipodi:guide
       id="guide2226"
       position="32.637397,117.99844"
       orientation="horizontal" />
    <sodipodi:guide
       id="guide2230"
       position="110,57.402344"
       orientation="vertical" />
    <sodipodi:guide
       id="guide2232"
       position="33.760911"
       orientation="horizontal" />
    <sodipodi:guide
       id="guide2231"
       position="46.774696"
       orientation="horizontal" />
    <inkscape:grid
       enabled="true"
       visible="true"
       id="grid3231"
       type="xygrid" />
    <sodipodi:guide
       orientation="1,0"
       position="100,67.625"
       id="guide2713" />
  </sodipodi:namedview>
  <defs
     id="defs4">
    <linearGradient
       gradientUnits="userSpaceOnUse"
       y2="19.387045"
       x2="11.998966"
       y1="0.92195445"
       x1="11.998966"
       gradientTransform="scale(0.9219544,1.0846523)"
       id="linearGradient3968">
      <stop
         id="stop3970"
         offset="0"
         style="stop-color:#000000;stop-opacity:0.86274511;" />
      <stop
         id="stop3972"
         offset="1"
         style="stop-color:#000000;stop-opacity:0.47058824;" />
    </linearGradient>
    <linearGradient
       inkscape:collect="always"
       xlink:href="#StandardGradient"
       id="linearGradient2418"
       gradientUnits="userSpaceOnUse"
       gradientTransform="matrix(0.9219544,0,0,1.0846523,-30.017235,-1.03125)"
       x1="11.998966"
       y1="2.7658634"
       x2="11.998966"
       y2="15.702114" />
    <linearGradient
       inkscape:collect="always"
       xlink:href="#StandardGradient"
       id="linearGradient3786"
       gradientUnits="userSpaceOnUse"
       gradientTransform="scale(1.0598527,0.9435274)"
       x1="11.794092"
       y1="3.2126782"
       x2="11.794092"
       y2="20.137329" />
    <linearGradient
       id="StandardGradient"
       gradientTransform="matrix(1.0765258,0,0,0.9227364,-0.00801316,0.1584665)"
       x1="10.005832"
       y1="4.1631975"
       x2="10.005832"
       y2="17.168188"
       gradientUnits="userSpaceOnUse">
      <stop
         id="stop3337"
         offset="0"
         style="stop-color:#ebebeb;stop-opacity:1;" />
      <stop
         id="stop3339"
         offset="1"
         style="stop-color:#aaaaaa;stop-opacity:1;" />
    </linearGradient>
    <linearGradient
       inkscape:collect="always"
       xlink:href="#StandardGradient"
       id="linearGradient3993"
       gradientUnits="userSpaceOnUse"
       gradientTransform="matrix(0.9219544,0,0,1.0846523,-0.01723507,-1.03125)"
       x1="11.998966"
       y1="2.7658634"
       x2="11.998966"
       y2="15.702114" />
    <linearGradient
       inkscape:collect="always"
       xlink:href="#StandardGradient"
       id="linearGradient3036"
       gradientUnits="userSpaceOnUse"
       gradientTransform="matrix(0.9219544,0,0,1.0846523,-0.01723503,-0.03125)"
       x1="11.998966"
       y1="2.7658634"
       x2="11.998966"
       y2="15.702114" />
    <linearGradient
       id="StandardGradient-5"
       gradientTransform="scale(0.9219544,1.0846523)"
       x1="11.998966"
       y1="0.92195445"
       x2="11.998966"
       y2="19.387045"
       gradientUnits="userSpaceOnUse">
      <stop
         style="stop-color:#000000;stop-opacity:0.86274511;"
         offset="0"
         id="stop3283" />
      <stop
         style="stop-color:#000000;stop-opacity:0.47058824;"
         offset="1"
         id="stop2651" />
    </linearGradient>
  </defs>
  <metadata
     id="metadata7">
    <rdf:RDF>
      <cc:Work
         rdf:about="">
        <dc:format>image/svg+xml</dc:format>
        <dc:type
           rdf:resource="http://purl.org/dc/dcmitype/StillImage" />
      </cc:Work>
    </rdf:RDF>
  </metadata>
  <g
     style="display:inline"
     inkscape:label="Calque 1"
     id="layer1"
     inkscape:groupmode="layer">
    <path
       sodipodi:type="inkscape:offset"
       inkscape:radius="0.99755502"
       inkscape:original="M 4 1 C 3.4459999 0.99999999 3 1.446 3 2 L 3 4 L 3 4.03125 L 3 5 L 19 5 L 19 4.5 C 19 4.3373278 18.95491 4.1783754 18.90625 4.03125 C 18.90315 4.0218 18.90945 4.009327 18.90625 4 C 18.90475 3.99572 18.8765 4.00426 18.875 4 C 18.669432 3.4168202 18.124088 3 17.46875 3 L 8.96875 3 L 8.96875 2 C 8.9687497 1.446 8.52275 1 7.96875 1 L 4 1 z M 3.5 6 C 2.669 6 2 6.669 2 7.5 L 2 13 L 4 13 L 4 9.96875 L 9 9.96875 L 9 13.03125 L 12.03125 13.03125 L 12.03125 17.03125 L 18.5 17.03125 C 19.331 17.03125 20 16.36225 20 15.53125 L 20 7.5 C 20 6.669 19.331 6 18.5 6 L 3.5 6 z M 5 11 L 5 14 L 2 14 L 2 17 L 5 17 L 5 20 L 8 20 L 8 17 L 11 17 L 11 14 L 8 14 L 8 11 L 5 11 z "
       style="opacity:0.25;fill:#000000;fill-opacity:1;stroke:none;display:inline"
       id="path3995"
       d="M 4,0 C 2.9106094,-1.9664086e-8 2,0.91060958 2,2 L 2,4 2,4.03125 2,5 A 0.99765477,0.99765477 0 0 0 2.1875,5.5625 C 1.5225127,6.0139888 1,6.6460059 1,7.5 L 1,13 A 0.99765477,0.99765477 0 0 0 1.15625,13.5 0.99765477,0.99765477 0 0 0 1,14 l 0,3 a 0.99765477,0.99765477 0 0 0 1,1 l 2,0 0,2 a 0.99765477,0.99765477 0 0 0 1,1 l 3,0 a 0.99765477,0.99765477 0 0 0 1,-1 l 0,-2 2,0 a 0.99765477,0.99765477 0 0 0 0.46875,-0.125 0.99765477,0.99765477 0 0 0 0.03125,0 0.99765477,0.99765477 0 0 0 0.53125,0.15625 l 6.46875,0 c 1.366391,0 2.5,-1.133609 2.5,-2.5 L 21,7.5 C 21,6.6460059 20.477487,6.0139888 19.8125,5.5625 A 0.99765477,0.99765477 0 0 0 20,5 l 0,-0.5 c 0,-0.3203162 -0.09918,-0.5444322 -0.15625,-0.71875 -0.0048,-0.014527 0.0045,-0.048956 0,-0.0625 -0.0058,-0.019738 0.0073,-0.010037 0,-0.03125 a 0.99765477,0.99765477 0 0 0 0,-0.03125 c -4.7e-5,-1.337e-4 -0.187403,-0.3123905 -0.1875,-0.3125 -8e-6,-8.8e-6 -0.02851,0.00227 -0.03125,0 -9.7e-5,-1.089e-4 0.187547,0.3126331 0.1875,0.3125 C 19.754186,3.4908174 19.590759,3.3977528 19.5,3.25 19.487845,3.2302117 19.481442,3.2069261 19.46875,3.1875 19.451185,3.1729596 19.406282,3.1562691 19.40625,3.15625 18.956466,2.5046108 18.314659,2 17.46875,2 l -7.5,0 c -6e-7,-1.08938989 -0.9106095,-2 -2,-2 L 4,0 z"
       transform="translate(-30,0)" />
    <path
       style="fill:url(#linearGradient2418);fill-opacity:1;stroke:none;display:inline"
       d="m -26,1 c -0.554,-1e-8 -1,0.446 -1,1 l 0,2 0,0.03125 0,0.96875 16,0 0,-0.5 c 0,-0.1626722 -0.04509,-0.3216246 -0.09375,-0.46875 -0.0031,-0.00945 0.0032,-0.021923 0,-0.03125 -0.0015,-0.00428 -0.02975,0.00426 -0.03125,0 -0.205568,-0.5831798 -0.750912,-1 -1.40625,-1 l -8.5,0 0,-1 c 0,-0.554 -0.446,-1 -1,-1 L -26,1 z m -0.5,5 C -27.331,6 -28,6.669 -28,7.5 l 0,5.5 2,0 0,-3.03125 5,0 0,3.0625 3.03125,0 0,4 6.46875,0 c 0.831,0 1.5,-0.669 1.5,-1.5 L -10,7.5 C -10,6.669 -10.669,6 -11.5,6 l -15,0 z m 1.5,5 0,3 -3,0 0,3 3,0 0,3 3,0 0,-3 3,0 0,-3 -3,0 0,-3 -3,0 z"
       id="Symbol"
       inkscape:connector-curvature="0" />
    <path
       style="opacity:0.6;fill:#ffffff;fill-opacity:1;stroke:none;display:inline"
       d="m -26,1 c -0.554,-1e-8 -1,0.446 -1,1 l 0,1 c 0,-0.554 0.446,-1 1,-1 l 3.96875,0 c 0.554,0 1,0.446 1,1 l 0,-1 c 0,-0.554 -0.446,-1 -1,-1 L -26,1 z m 4.96875,2 0,1 8.5,0 c 0.655338,0 1.200682,0.4168202 1.40625,1 L -11.09375,5 -11,5 -11,4.5 c 0,-0.1626722 -0.04509,-0.3216246 -0.09375,-0.46875 -0.0031,-0.00945 0.0032,-0.021923 0,-0.03125 -0.0015,-0.00428 -0.02975,0.00426 -0.03125,0 -0.205568,-0.5831798 -0.750912,-1 -1.40625,-1 l -8.5,0 z M -26.5,6 C -27.331,6 -28,6.669 -28,7.5 l 0,1 C -28,7.669 -27.331,7 -26.5,7 l 15,0 c 0.831,0 1.5,0.669 1.5,1.5 l 0,-1 C -10,6.669 -10.669,6 -11.5,6 l -15,0 z m 1.5,5 0,1 3,0 0,-1 -3,0 z m -3,3 0,1 3,0 0,-1 -1,0 -2,0 z m 6,0 0,1 3,0 0,-0.96875 -2,0 0,-0.03125 -1,0 z"
       id="BevelShadow"
       sodipodi:nodetypes="ccccccccccccccccsssccccccccccccccccccccccccccccc"
       inkscape:connector-curvature="0" />
    <path
       style="opacity:0.45;fill:#000000;fill-opacity:1;stroke:none;display:inline"
       d="m -27,5 0,0.03125 0,0.96875 0.5,0 15,0 0.5,0 0,-0.5 0,-0.5 -16,0 z m 1,4.96875 0,1 5,0 0,-1 -5,0 z M -28,13 l 0,1 2,0 0,-1 -2,0 z m 7,0.03125 0,0.96875 2,0 0,0.03125 1.03125,0 0,-1 -3.03125,0 z m 11,2.5 c 0,0.831 -0.669,1.5 -1.5,1.5 l -6.46875,0 0,1 6.46875,0 c 0.831,0 1.5,-0.669 1.5,-1.5 l 0,-1 z M -28,17 l 0,1 3,0 0,-1 -3,0 z m 6,0 0,1 3,0 0,-1 -3,0 z m -3,3 0,1 3,0 0,-1 -3,0 z"
       id="BevelHighlight"
       sodipodi:nodetypes="cccccccccccccccccccccccccccccccccccccccccccccccc"
       inkscape:connector-curvature="0" />
    <path
       inkscape:connector-curvature="0"
       style="opacity:0.25;fill:#000000;fill-opacity:1;stroke:none;display:inline"
       d="M 4,1 C 2.9067764,1 2,1.9067765 2,3 l 0,1 a 1.0047973,1.0047973 0 0 0 0.15625,0.53125 1.0047973,1.0047973 0 0 0 0,0.03125 C 1.4967804,5.016393 1,5.6493226 1,6.5 L 1,13 A 1.0047973,1.0047973 0 0 0 1.125,13.46875 1.0047973,1.0047973 0 0 0 1.125,13.5 1.0047973,1.0047973 0 0 0 1,14 l 0,3 a 1.0047973,1.0047973 0 0 0 1,1 l 2,0 0,2 a 1.0047973,1.0047973 0 0 0 1,1 l 3,0 a 1.0047973,1.0047973 0 0 0 1,-1 l 0,-2 2,0 a 1.0047973,1.0047973 0 0 0 0.46875,-0.125 1.0047973,1.0047973 0 0 0 0.03125,0 1.0047973,1.0047973 0 0 0 0.53125,0.15625 l 6.46875,0 c 1.370224,0 2.5,-1.129776 2.5,-2.5 L 21,6.5 C 21,5.6099712 20.461004,4.9447959 19.75,4.5 A 1.0047973,1.0047973 0 0 0 19.8125,3.65625 C 19.47162,2.6892011 18.550105,2 17.46875,2 L 10,2 9.53125,2 C 9.1724516,1.4410224 8.6711439,1 7.96875,1 L 4,1 z m 0,1 3.96875,0 c 0.554,0 0.9999997,0.446 1,1 L 10,3 17.46875,3 c 0.655338,0 1.200682,0.4168202 1.40625,1 L 3,4 3,3 C 3,2.446 3.4459999,2 4,2 z m -0.5,3 15,0 C 19.331,5 20,5.669 20,6.5 l 0,9.03125 c 0,0.831 -0.669,1.5 -1.5,1.5 l -6.46875,0 0,-4 -3.03125,0 0,-3.0625 -5,0 L 4,13 2,13 2,6.5 C 2,5.669 2.669,5 3.5,5 z m 1.5,6 3,0 0,3 3,0 0,3 -3,0 0,3 -3,0 0,-3 -3,0 0,-3 3,0 0,-3 z"
       id="path3831" />
    <path
       inkscape:connector-curvature="0"
       style="fill:url(#linearGradient3036);fill-opacity:1.0;stroke:none;display:inline"
       d="M 4,2 C 3.4459999,2 3,2.446 3,3 L 3,4 18.875,4 C 18.669432,3.4168202 18.124088,3 17.46875,3 L 10,3 8.96875,3 c -3e-7,-0.554 -0.446,-1 -1,-1 L 4,2 z M 3.5,5 C 2.669,5 2,5.669 2,6.5 l 0,6.5 2,0 0,-3.03125 5,0 0,3.0625 3.03125,0 0,4 6.46875,0 c 0.831,0 1.5,-0.669 1.5,-1.5 L 20,6.5 C 20,5.669 19.331,5 18.5,5 l -15,0 z m 1.5,6 0,3 -3,0 0,3 3,0 0,3 3,0 0,-3 3,0 0,-3 -3,0 0,-3 -3,0 z"
       id="path3028" />
    <path
       inkscape:connector-curvature="0"
       style="opacity:0.6;fill:#ffffff;fill-opacity:1;stroke:none;display:inline"
       d="M 4,2 C 3.4459999,2 3,2.446 3,3 L 3,4 C 3,3.446 3.4459999,3 4,3 l 3.96875,0 c 0.554,0 0.9999997,0.446 1,1 l 8.5,0 1.40625,0 C 18.669432,3.4168202 18.124088,3 17.46875,3 L 10,3 8.96875,3 c -3e-7,-0.554 -0.446,-1 -1,-1 L 4,2 z M 3.5,5 C 2.669,5 2,5.669 2,6.5 l 0,1 C 2,6.669 2.669,6 3.5,6 l 15,0 C 19.331,6 20,6.669 20,7.5 l 0,-1 C 20,5.669 19.331,5 18.5,5 l -15,0 z m 1.5,6 0,1 3,0 0,-1 -3,0 z m -3,3 0,1 3,0 0,-1 -1,0 -2,0 z m 6,0 0,1 3,0 0,-0.96875 -2,0 L 9,14 8,14 z"
       id="path3039" />
    <path
       inkscape:connector-curvature="0"
       style="opacity:0.45;fill:#000000;fill-opacity:1;stroke:none;display:inline"
       d="m 3,4 0,1 0.5,0 15,0 0.375,0 C 18.669432,4.4168202 18.124088,4 17.46875,4 l -8.5,0 L 3,4 z m 1,5.96875 0,1 5,0 0,-1 -5,0 z M 2,13 2,14 4,14 4,13 2,13 z M 9,13.03125 9,14 l 2,0 0,0.03125 1.03125,0 0,-1 -3.03125,0 z m 11,2.5 c 0,0.831 -0.669,1.5 -1.5,1.5 l -6.46875,0 0,1 6.46875,0 c 0.831,0 1.5,-0.669 1.5,-1.5 l 0,-1 z M 2,17 l 0,1 3,0 0,-1 -3,0 z m 6,0 0,1 3,0 0,-1 -3,0 z m -3,3 0,1 3,0 0,-1 -3,0 z"
       id="path3816" />
  </g>
</svg>
