<?xml version="1.0" encoding="UTF-8" standalone="no"?>
<!-- Created with Inkscape (http://www.inkscape.org/) -->

<svg
   xmlns:dc="http://purl.org/dc/elements/1.1/"
   xmlns:cc="http://creativecommons.org/ns#"
   xmlns:rdf="http://www.w3.org/1999/02/22-rdf-syntax-ns#"
   xmlns:svg="http://www.w3.org/2000/svg"
   xmlns="http://www.w3.org/2000/svg"
   xmlns:xlink="http://www.w3.org/1999/xlink"
   xmlns:sodipodi="http://sodipodi.sourceforge.net/DTD/sodipodi-0.dtd"
   xmlns:inkscape="http://www.inkscape.org/namespaces/inkscape"
   width="22"
   height="22"
   id="svg2"
   sodipodi:version="0.32"
   inkscape:version="0.48.0 r9654"
   version="1.0"
   sodipodi:docname="format-justify-right.svg"
   inkscape:output_extension="org.inkscape.output.svg.inkscape"
   inkscape:export-filename="/home/matt/.icons/Sirocco/scalable/mimetypes/text-plain.png"
   inkscape:export-xdpi="90"
   inkscape:export-ydpi="90"
   sodipodi:modified="true"
   style="display:inline">
  <sodipodi:namedview
     id="base"
     pagecolor="#ffffff"
     bordercolor="#666666"
     borderopacity="1.0"
     inkscape:pageopacity="0.0"
     inkscape:pageshadow="2"
     inkscape:zoom="17.194901"
     inkscape:cx="-19.297365"
     inkscape:cy="10.231275"
     inkscape:document-units="px"
     inkscape:current-layer="layer1"
     width="128px"
     height="128px"
     inkscape:showpageshadow="false"
     inkscape:window-width="1920"
     inkscape:window-height="1026"
     inkscape:window-x="0"
     inkscape:window-y="25"
     showguides="true"
     inkscape:guide-bbox="true"
     showgrid="true"
     inkscape:window-maximized="1">
    <sodipodi:guide
       id="guide2226"
       position="32.637397,117.99844"
       orientation="horizontal" />
    <sodipodi:guide
       id="guide2230"
       position="110,57.402344"
       orientation="vertical" />
    <sodipodi:guide
       id="guide2232"
       position="33.760911"
       orientation="horizontal" />
    <sodipodi:guide
       id="guide2231"
       position="46.774696"
       orientation="horizontal" />
    <inkscape:grid
       enabled="true"
       visible="true"
       id="grid3231"
       type="xygrid" />
    <sodipodi:guide
       orientation="1,0"
       position="100,67.625"
       id="guide2713" />
  </sodipodi:namedview>
  <defs
     id="defs4">
    <linearGradient
       gradientUnits="userSpaceOnUse"
       y2="18.974037"
       x2="10.710332"
       y1="1.9963325"
       x1="10.710332"
       gradientTransform="matrix(0.9984539,0,0,0.9984539,-4.5977599e-2,5.7675578e-2)"
       id="linearGradient4183">
      <stop
         id="stop4185"
         offset="0"
         style="stop-color:#000000;stop-opacity:0.86274511;" />
      <stop
         id="stop4187"
         offset="1"
         style="stop-color:#000000;stop-opacity:0.47058824;" />
    </linearGradient>
    <linearGradient
       inkscape:collect="always"
       xlink:href="#StandardGradient"
       id="linearGradient2893"
       gradientUnits="userSpaceOnUse"
       gradientTransform="matrix(1.1818182,0,0,1,-3.454545,-1)"
       x1="13"
       y1="4"
       x2="13"
       y2="22.000229" />
    <linearGradient
       inkscape:collect="always"
       xlink:href="#StandardGradient"
       id="linearGradient3786"
       gradientUnits="userSpaceOnUse"
       gradientTransform="scale(1.0598527,0.9435274)"
       x1="11.794092"
       y1="3.2126782"
       x2="11.794092"
       y2="20.137329" />
    <linearGradient
       id="StandardGradient"
       gradientTransform="matrix(1.0765258,0,0,0.9227364,-0.00801316,0.1584665)"
       x1="10.005832"
       y1="4.1631975"
       x2="10.005832"
       y2="17.168188"
       gradientUnits="userSpaceOnUse">
      <stop
         id="stop3337"
         offset="0"
         style="stop-color:#ebebeb;stop-opacity:1;" />
      <stop
         id="stop3339"
         offset="1"
         style="stop-color:#aaaaaa;stop-opacity:1;" />
    </linearGradient>
    <linearGradient
       inkscape:collect="always"
       xlink:href="#StandardGradient"
       id="linearGradient4208"
       gradientUnits="userSpaceOnUse"
       gradientTransform="matrix(1.1818182,0,0,1,-3.454545,-1)"
       x1="13"
       y1="4"
       x2="13"
       y2="22.000229" />
  </defs>
  <metadata
     id="metadata7">
    <rdf:RDF>
      <cc:Work
         rdf:about="">
        <dc:format>image/svg+xml</dc:format>
        <dc:type
           rdf:resource="http://purl.org/dc/dcmitype/StillImage" />
      </cc:Work>
    </rdf:RDF>
  </metadata>
  <g
     style="display:inline"
     inkscape:label="Calque 1"
     id="layer1"
     inkscape:groupmode="layer">
    <path
       sodipodi:type="inkscape:offset"
       inkscape:radius="0.99037421"
       inkscape:original="M 6 3 L 6 5 L 19 5 L 19 3 L 6 3 z M 3 7 L 3 9 L 19 9 L 19 7 L 3 7 z M 8 11 L 8 13 L 19 13 L 19 11 L 8 11 z M 15 15 L 15 17 L 10 17 L 10 19 L 15 19 L 15 21 L 19 18 L 15 15 z "
       style="fill:#000000;fill-opacity:1;stroke:none;opacity:0.25"
       id="path4210"
       d="M 5.90625,2 A 0.99047324,0.99047324 0 0 0 5,3 L 5,5 A 0.99047324,0.99047324 0 0 0 5.9375,6 L 3,6 A 0.99047324,0.99047324 0 0 0 2,7 l 0,2 a 0.99047324,0.99047324 0 0 0 1,1 l 4.90625,0 A 0.99047324,0.99047324 0 0 0 7,11 l 0,2 a 0.99047324,0.99047324 0 0 0 1,1 l 6.9375,0 A 0.99047324,0.99047324 0 0 0 14,15 l 0,1 -4,0 a 0.99047324,0.99047324 0 0 0 -1,1 l 0,2 a 0.99047324,0.99047324 0 0 0 1,1 l 4,0 0,1 a 0.99047324,0.99047324 0 0 0 1.59375,0.78125 l 4,-3 a 0.99047324,0.99047324 0 0 0 0,-1.5625 l -4,-3 A 0.99047324,0.99047324 0 0 0 15.03125,14 L 19,14 a 0.99047324,0.99047324 0 0 0 1,-1 l 0,-2 A 0.99047324,0.99047324 0 0 0 19.09375,10 0.99047324,0.99047324 0 0 0 20,9 L 20,7 A 0.99047324,0.99047324 0 0 0 19.09375,6 0.99047324,0.99047324 0 0 0 20,5 L 20,3 A 0.99047324,0.99047324 0 0 0 19,2 L 6,2 A 0.99047324,0.99047324 0 0 0 5.90625,2 z" />
    <path
       style="fill:url(#linearGradient2893);fill-opacity:1.0;stroke:none"
       d="M 19,3 19,5 6,5 6,3 19,3 z M 19,7 19,9 3,9 3,7 19,7 z m 0,4 0,2 -11,0 0,-2 11,0 z m -4,4 4,3 -4,3 0,-2 -5,0 0,-2 5,0 0,-2 z"
       id="path2880" />
    <path
       style="opacity:0.6;fill:#ffffff;fill-opacity:1;stroke:none"
       d="M 19,3 19,4 6,4 6,3 19,3 z M 19,7 19,8 3,8 3,7 19,7 z m 0,4 0,1 -11,0 0,-1 11,0 z m -4,4 4,3 -0.65625,0.5 L 15,16 15,15 z m 0,2 0,1 -5,0 0,-1 5,0 z"
       id="path2895" />
    <path
       style="opacity:0.45;fill:#000000;fill-opacity:1;stroke:none"
       d="M 19,5 19,6 6,6 6,5 19,5 z m 0,4 0,1 -16,0 0,-1 16,0 z m 0,4 0,1 -11,0 0,-1 11,0 z M 18.34375,18.5 19,19 l -4,3 0,-1 3.34375,-2.5 z M 15,19 l 0,1 -5,0 0,-1 5,0 z"
       id="path3676" />
  </g>
</svg>
