<?xml version="1.0" encoding="UTF-8" standalone="no"?>
<!-- Created with Inkscape (http://www.inkscape.org/) -->

<svg
   xmlns:dc="http://purl.org/dc/elements/1.1/"
   xmlns:cc="http://creativecommons.org/ns#"
   xmlns:rdf="http://www.w3.org/1999/02/22-rdf-syntax-ns#"
   xmlns:svg="http://www.w3.org/2000/svg"
   xmlns="http://www.w3.org/2000/svg"
   xmlns:xlink="http://www.w3.org/1999/xlink"
   xmlns:sodipodi="http://sodipodi.sourceforge.net/DTD/sodipodi-0.dtd"
   xmlns:inkscape="http://www.inkscape.org/namespaces/inkscape"
   width="22"
   height="22"
   id="svg2"
   sodipodi:version="0.32"
   inkscape:version="0.48.0 r9654"
   version="1.0"
   sodipodi:docname="format-justify-fill.svg"
   inkscape:output_extension="org.inkscape.output.svg.inkscape"
   inkscape:export-filename="/home/matt/.icons/Sirocco/scalable/mimetypes/text-plain.png"
   inkscape:export-xdpi="90"
   inkscape:export-ydpi="90"
   sodipodi:modified="true"
   style="display:inline">
  <sodipodi:namedview
     id="base"
     pagecolor="#ffffff"
     bordercolor="#666666"
     borderopacity="1.0"
     inkscape:pageopacity="0.0"
     inkscape:pageshadow="2"
     inkscape:zoom="17.194901"
     inkscape:cx="-18.794798"
     inkscape:cy="16.043064"
     inkscape:document-units="px"
     inkscape:current-layer="layer1"
     width="128px"
     height="128px"
     inkscape:showpageshadow="false"
     inkscape:window-width="1920"
     inkscape:window-height="1026"
     inkscape:window-x="0"
     inkscape:window-y="25"
     showguides="true"
     inkscape:guide-bbox="true"
     showgrid="true"
     inkscape:window-maximized="1">
    <sodipodi:guide
       id="guide2226"
       position="32.637397,117.99844"
       orientation="horizontal" />
    <sodipodi:guide
       id="guide2230"
       position="110,57.402344"
       orientation="vertical" />
    <sodipodi:guide
       id="guide2232"
       position="33.760911"
       orientation="horizontal" />
    <sodipodi:guide
       id="guide2231"
       position="46.774696"
       orientation="horizontal" />
    <inkscape:grid
       enabled="true"
       visible="true"
       id="grid3231"
       type="xygrid" />
    <sodipodi:guide
       orientation="1,0"
       position="100,67.625"
       id="guide2713" />
  </sodipodi:namedview>
  <defs
     id="defs4">
    <linearGradient
       gradientUnits="userSpaceOnUse"
       y2="18.974037"
       x2="10.710332"
       y1="1.9963325"
       x1="10.710332"
       gradientTransform="matrix(0.9984539,0,0,0.9984539,-4.5977599e-2,5.7675578e-2)"
       id="linearGradient5261">
      <stop
         id="stop5263"
         offset="0"
         style="stop-color:#000000;stop-opacity:0.86274511;" />
      <stop
         id="stop5265"
         offset="1"
         style="stop-color:#000000;stop-opacity:0.47058824;" />
    </linearGradient>
    <linearGradient
       inkscape:collect="always"
       xlink:href="#StandardGradient"
       id="linearGradient2900"
       gradientUnits="userSpaceOnUse"
       gradientTransform="matrix(1.4545455,0,0,1,-8.6363631,-1)"
       x1="13"
       y1="4"
       x2="13"
       y2="22.000229" />
    <filter
       inkscape:collect="always"
       id="filter3707">
      <feGaussianBlur
         inkscape:collect="always"
         stdDeviation="0.51"
         id="feGaussianBlur3709" />
    </filter>
    <linearGradient
       inkscape:collect="always"
       xlink:href="#StandardGradient"
       id="linearGradient3786"
       gradientUnits="userSpaceOnUse"
       gradientTransform="scale(1.0598527,0.9435274)"
       x1="11.794092"
       y1="3.2126782"
       x2="11.794092"
       y2="20.137329" />
    <linearGradient
       id="StandardGradient"
       gradientTransform="matrix(1.0765258,0,0,0.9227364,-0.00801316,0.1584665)"
       x1="10.005832"
       y1="4.1631975"
       x2="10.005832"
       y2="17.168188"
       gradientUnits="userSpaceOnUse">
      <stop
         id="stop3337"
         offset="0"
         style="stop-color:#ebebeb;stop-opacity:1;" />
      <stop
         id="stop3339"
         offset="1"
         style="stop-color:#aaaaaa;stop-opacity:1;" />
    </linearGradient>
    <linearGradient
       y2="20.137329"
       x2="11.794092"
       y1="3.2126782"
       x1="11.794092"
       gradientTransform="matrix(1.0598527,0,0,0.9435274,-19,-6)"
       gradientUnits="userSpaceOnUse"
       id="linearGradient3234"
       xlink:href="#StandardGradient"
       inkscape:collect="always" />
    <linearGradient
       inkscape:collect="always"
       xlink:href="#StandardGradient"
       id="linearGradient5286"
       gradientUnits="userSpaceOnUse"
       gradientTransform="matrix(1.4545455,0,0,1,-8.6363631,-1)"
       x1="13"
       y1="4"
       x2="13"
       y2="22.000229" />
  </defs>
  <metadata
     id="metadata7">
    <rdf:RDF>
      <cc:Work
         rdf:about="">
        <dc:format>image/svg+xml</dc:format>
        <dc:type
           rdf:resource="http://purl.org/dc/dcmitype/StillImage" />
      </cc:Work>
    </rdf:RDF>
  </metadata>
  <g
     style="display:inline"
     inkscape:label="Calque 1"
     id="layer1"
     inkscape:groupmode="layer">
    <path
       sodipodi:type="inkscape:offset"
       inkscape:radius="1.0484362"
       inkscape:original="M 3 3 L 3 5 L 19 5 L 19 3 L 3 3 z M 3 7 L 3 9 L 19 9 L 19 7 L 3 7 z M 3 11 L 3 13 L 19 13 L 19 11 L 3 11 z M 8 15 L 4 18 L 8 21 L 8 19 L 11 19 L 14 19 L 14 21 L 18 18 L 14 15 L 14 17 L 11 17 L 8 17 L 8 15 z "
       style="fill:#000000;fill-opacity:1;stroke:none;opacity:0.25"
       id="path5288"
       d="M 3,1.9375 A 1.048541,1.048541 0 0 0 1.9375,3 l 0,2 a 1.048541,1.048541 0 0 0 0.75,1 1.048541,1.048541 0 0 0 -0.75,1 l 0,2 a 1.048541,1.048541 0 0 0 0.75,1 1.048541,1.048541 0 0 0 -0.75,1 l 0,2 A 1.048541,1.048541 0 0 0 3,14.0625 l 4.5,0 a 1.048541,1.048541 0 0 0 -0.125,0.09375 l -4,3 a 1.048541,1.048541 0 0 0 0,1.6875 l 4,3 A 1.048541,1.048541 0 0 0 9.0625,21 l 0,-0.9375 1.9375,0 1.9375,0 0,0.9375 a 1.048541,1.048541 0 0 0 1.6875,0.84375 l 4,-3 a 1.048541,1.048541 0 0 0 0,-1.6875 l -4,-3 A 1.048541,1.048541 0 0 0 14.4375,14.0625 l 4.5625,0 A 1.048541,1.048541 0 0 0 20.0625,13 l 0,-2 a 1.048541,1.048541 0 0 0 -0.75,-1 1.048541,1.048541 0 0 0 0.75,-1 l 0,-2 a 1.048541,1.048541 0 0 0 -0.75,-1 1.048541,1.048541 0 0 0 0.75,-1 l 0,-2 A 1.048541,1.048541 0 0 0 19,1.9375 l -16,0 z m 5.46875,12.125 5.0625,0 A 1.048541,1.048541 0 0 0 12.9375,15 l 0,0.9375 -1.9375,0 -1.9375,0 0,-0.9375 A 1.048541,1.048541 0 0 0 8.46875,14.0625 z" />
    <path
       style="fill:url(#linearGradient2900);fill-opacity:1.0;stroke:none"
       d="M 3 3 L 3 5 L 19 5 L 19 3 L 3 3 z M 3 7 L 3 9 L 19 9 L 19 7 L 3 7 z M 3 11 L 3 13 L 19 13 L 19 11 L 3 11 z M 8 15 L 4 18 L 8 21 L 8 19 L 11 19 L 14 19 L 14 21 L 18 18 L 14 15 L 14 17 L 11 17 L 8 17 L 8 15 z "
       id="path2893" />
    <path
       style="fill:#ffffff;fill-opacity:1;stroke:none;opacity:0.6"
       d="M 3 3 L 3 4 L 19 4 L 19 3 L 3 3 z M 3 7 L 3 8 L 19 8 L 19 7 L 3 7 z M 3 11 L 3 12 L 19 12 L 19 11 L 3 11 z M 8 15 L 4 18 L 4.65625 18.5 L 8 16 L 8 15 z M 14 15 L 14 16 L 17.34375 18.5 L 18 18 L 14 15 z M 8 17 L 8 18 L 11 18 L 14 18 L 14 17 L 11 17 L 8 17 z "
       id="path2903" />
    <path
       style="fill:#000000;fill-opacity:1;stroke:none;opacity:0.45"
       d="M 3 5 L 3 6 L 19 6 L 19 5 L 3 5 z M 3 9 L 3 10 L 19 10 L 19 9 L 3 9 z M 3 13 L 3 14 L 19 14 L 19 13 L 3 13 z M 4.65625 18.5 L 4 19 L 8 22 L 8 21 L 4.65625 18.5 z M 17.34375 18.5 L 14 21 L 14 22 L 18 19 L 17.34375 18.5 z M 8 19 L 8 20 L 11 20 L 14 20 L 14 19 L 11 19 L 8 19 z "
       id="path3684" />
  </g>
</svg>
