<?xml version="1.0" encoding="UTF-8" standalone="no"?>
<!-- Created with Inkscape (http://www.inkscape.org/) -->

<svg
   xmlns:dc="http://purl.org/dc/elements/1.1/"
   xmlns:cc="http://creativecommons.org/ns#"
   xmlns:rdf="http://www.w3.org/1999/02/22-rdf-syntax-ns#"
   xmlns:svg="http://www.w3.org/2000/svg"
   xmlns="http://www.w3.org/2000/svg"
   xmlns:xlink="http://www.w3.org/1999/xlink"
   xmlns:sodipodi="http://sodipodi.sourceforge.net/DTD/sodipodi-0.dtd"
   xmlns:inkscape="http://www.inkscape.org/namespaces/inkscape"
   width="22"
   height="22"
   id="svg2"
   sodipodi:version="0.32"
   inkscape:version="0.48.0 r9654"
   version="1.0"
   sodipodi:docname="go-first.svg"
   inkscape:output_extension="org.inkscape.output.svg.inkscape">
  <defs
     id="defs4">
    <linearGradient
       gradientUnits="userSpaceOnUse"
       y2="17.168188"
       x2="10.005832"
       y1="4.1631975"
       x1="10.005832"
       gradientTransform="matrix(1.0765258,0,0,0.9227364,-8.0131635e-3,0.1584665)"
       id="linearGradient5585">
      <stop
         style="stop-color:#000000;stop-opacity:0.86274511;"
         offset="0"
         id="stop5587" />
      <stop
         style="stop-color:#000000;stop-opacity:0.47058824;"
         offset="1"
         id="stop5589" />
    </linearGradient>
    <linearGradient
       inkscape:collect="always"
       xlink:href="#StandardGradient"
       id="linearGradient2843"
       gradientUnits="userSpaceOnUse"
       gradientTransform="matrix(1.0765258,0,0,0.9227364,0.9919868,0.1584665)"
       x1="10.005832"
       y1="4.1631975"
       x2="10.005832"
       y2="17.168188" />
    <filter
       inkscape:collect="always"
       id="filter3637">
      <feGaussianBlur
         inkscape:collect="always"
         stdDeviation="0.42"
         id="feGaussianBlur3639" />
    </filter>
    <linearGradient
       id="StandardGradient"
       gradientTransform="matrix(1.0765258,0,0,0.9227364,-0.00801316,0.1584665)"
       x1="10.005832"
       y1="4.1631975"
       x2="10.005832"
       y2="17.168188"
       gradientUnits="userSpaceOnUse">
      <stop
         id="stop3337"
         offset="0"
         style="stop-color:#ebebeb;stop-opacity:1;" />
      <stop
         id="stop3339"
         offset="1"
         style="stop-color:#aaaaaa;stop-opacity:1;" />
    </linearGradient>
    <linearGradient
       y2="17.168188"
       x2="10.005832"
       y1="4.1631975"
       x1="10.005832"
       gradientTransform="matrix(1.0765258,0,0,0.9227364,-14.008013,3.1584665)"
       gradientUnits="userSpaceOnUse"
       id="linearGradient4392"
       xlink:href="#StandardGradient"
       inkscape:collect="always" />
    <linearGradient
       inkscape:collect="always"
       xlink:href="#StandardGradient"
       id="linearGradient5608"
       gradientUnits="userSpaceOnUse"
       gradientTransform="matrix(1.0765258,0,0,0.9227364,0.9919868,0.1584665)"
       x1="10.005832"
       y1="4.1631975"
       x2="10.005832"
       y2="17.168188" />
  </defs>
  <sodipodi:namedview
     id="base"
     pagecolor="#ffffff"
     bordercolor="#9a9a9a"
     borderopacity="1"
     inkscape:pageopacity="0.0"
     inkscape:pageshadow="2"
     inkscape:zoom="12.158632"
     inkscape:cx="-12.29745"
     inkscape:cy="1.553859"
     inkscape:document-units="px"
     inkscape:current-layer="layer1"
     showgrid="true"
     inkscape:showpageshadow="false"
     showguides="true"
     inkscape:guide-bbox="true"
     inkscape:window-width="1920"
     inkscape:window-height="1026"
     inkscape:window-x="0"
     inkscape:window-y="25"
     inkscape:window-maximized="1">
    <sodipodi:guide
       orientation="1,0"
       position="0,112"
       id="guide2383" />
    <sodipodi:guide
       orientation="0,1"
       position="26.278146,128"
       id="guide2385" />
    <sodipodi:guide
       orientation="1,0"
       position="128,54.082119"
       id="guide2387" />
    <sodipodi:guide
       orientation="0,1"
       position="78.156291,0"
       id="guide2389" />
    <inkscape:grid
       type="xygrid"
       id="grid3672"
       visible="true"
       enabled="true" />
  </sodipodi:namedview>
  <metadata
     id="metadata7">
    <rdf:RDF>
      <cc:Work
         rdf:about="">
        <dc:format>image/svg+xml</dc:format>
        <dc:type
           rdf:resource="http://purl.org/dc/dcmitype/StillImage" />
      </cc:Work>
    </rdf:RDF>
  </metadata>
  <g
     inkscape:label="Calque 1"
     inkscape:groupmode="layer"
     id="layer1"
     style="display:inline">
    <path
       sodipodi:type="inkscape:offset"
       inkscape:radius="0.98695308"
       inkscape:original="M 3 4 L 3 16 L 5 16 L 5 10 L 5 4 L 3 4 z M 5 10 L 13.96875 16 L 13.96875 13.0625 L 19 13.0625 L 19 7.03125 L 13.96875 7.03125 L 13.96875 4 L 5 10 z "
       style="fill:#000000;fill-opacity:1;stroke:none;display:inline;opacity:0.25"
       id="path5610"
       d="M 3,3 A 0.98705178,0.98705178 0 0 0 2,4 l 0,12 a 0.98705178,0.98705178 0 0 0 1,1 l 2,0 a 0.98705178,0.98705178 0 0 0 1,-1 l 0,-4.15625 7.40625,4.96875 A 0.98705178,0.98705178 0 0 0 14.96875,16 l 0,-1.9375 4.03125,0 a 0.98705178,0.98705178 0 0 0 1,-1 l 0,-6.03125 a 0.98705178,0.98705178 0 0 0 -1,-1 l -4.03125,0 0,-2.03125 A 0.98705178,0.98705178 0 0 0 13.40625,3.1875 L 6,8.15625 6,4 A 0.98705178,0.98705178 0 0 0 5,3 L 3,3 z" />
    <path
       style="opacity:0.45;fill:#000000;fill-opacity:1;stroke:none;display:inline"
       d="M 5 10 L 5 11 L 13.96875 17 L 13.96875 16 L 5 10 z M 13.96875 13.0625 L 13.96875 14.0625 L 19 14.0625 L 19 13.0625 L 13.96875 13.0625 z M 3 16 L 3 17 L 5 17 L 5 16 L 3 16 z "
       id="BevelHighlight" />
    <path
       style="fill:url(#linearGradient2843);fill-opacity:1.0;stroke:none;display:inline"
       d="M 3 4 L 3 16 L 5 16 L 5 10 L 5 4 L 3 4 z M 5 10 L 13.96875 16 L 13.96875 13.0625 L 19 13.0625 L 19 7.03125 L 13.96875 7.03125 L 13.96875 4 L 5 10 z "
       id="Symbol" />
    <path
       style="opacity:0.6;fill:#ffffff;fill-opacity:1;stroke:none;display:inline"
       d="M 3 4 L 3 5 L 5 5 L 5 4 L 3 4 z M 13.96875 4 L 5 10 L 5.75 10.5 L 13.96875 5 L 13.96875 4 z M 13.96875 7.03125 L 13.96875 8.03125 L 19 8.03125 L 19 7.03125 L 13.96875 7.03125 z "
       id="BevelShadow" />
  </g>
</svg>
