<?xml version="1.0" encoding="UTF-8" standalone="no"?>
<!-- Created with Inkscape (http://www.inkscape.org/) -->

<svg
   xmlns:dc="http://purl.org/dc/elements/1.1/"
   xmlns:cc="http://creativecommons.org/ns#"
   xmlns:rdf="http://www.w3.org/1999/02/22-rdf-syntax-ns#"
   xmlns:svg="http://www.w3.org/2000/svg"
   xmlns="http://www.w3.org/2000/svg"
   xmlns:xlink="http://www.w3.org/1999/xlink"
   xmlns:sodipodi="http://sodipodi.sourceforge.net/DTD/sodipodi-0.dtd"
   xmlns:inkscape="http://www.inkscape.org/namespaces/inkscape"
   width="22"
   height="22"
   id="svg2"
   sodipodi:version="0.32"
   inkscape:version="0.48.0 r9654"
   version="1.0"
   sodipodi:docname="gtk-yes.svg"
   inkscape:output_extension="org.inkscape.output.svg.inkscape">
  <defs
     id="defs4">
    <inkscape:perspective
       sodipodi:type="inkscape:persp3d"
       inkscape:vp_x="0 : 11 : 1"
       inkscape:vp_y="0 : 1000 : 0"
       inkscape:vp_z="22 : 11 : 1"
       inkscape:persp3d-origin="11 : 7.3333333 : 1"
       id="perspective22" />
    <linearGradient
       inkscape:collect="always"
       id="linearGradient3368">
      <stop
         style="stop-color:#000000;stop-opacity:1;"
         offset="0"
         id="stop3370" />
      <stop
         style="stop-color:#000000;stop-opacity:0;"
         offset="1"
         id="stop3372" />
    </linearGradient>
    <radialGradient
       inkscape:collect="always"
       xlink:href="#linearGradient3368"
       id="radialGradient3374"
       cx="10.672893"
       cy="20.477903"
       fx="10.672893"
       fy="20.477903"
       r="6.6954174"
       gradientTransform="matrix(1,0,0,0.2207335,0,15.957744)"
       gradientUnits="userSpaceOnUse" />
    <linearGradient
       id="linearGradient3278">
      <stop
         style="stop-color:#646464;stop-opacity:1;"
         offset="0"
         id="stop3280" />
      <stop
         style="stop-color:#000000;stop-opacity:1;"
         offset="1"
         id="stop3282" />
    </linearGradient>
    <radialGradient
       inkscape:collect="always"
       xlink:href="#linearGradient3278"
       id="radialGradient2406"
       gradientUnits="userSpaceOnUse"
       gradientTransform="matrix(0.225246,0,0,0.2857144,-3.4157483,-16.343092)"
       cx="64"
       cy="120.20078"
       fx="64"
       fy="120.20078"
       r="56" />
    <inkscape:perspective
       id="perspective2850"
       inkscape:persp3d-origin="0.5 : 0.33333333 : 1"
       inkscape:vp_z="1 : 0.5 : 1"
       inkscape:vp_y="0 : 1000 : 0"
       inkscape:vp_x="0 : 0.5 : 1"
       sodipodi:type="inkscape:persp3d" />
    <radialGradient
       inkscape:collect="always"
       xlink:href="#linearGradient3278"
       id="radialGradient2861"
       gradientUnits="userSpaceOnUse"
       gradientTransform="matrix(0.225246,0,0,0.2857144,-3.4157483,-15.343092)"
       cx="64"
       cy="120.20078"
       fx="64"
       fy="120.20078"
       r="56" />
    <radialGradient
       inkscape:collect="always"
       xlink:href="#linearGradient3278"
       id="radialGradient2863"
       gradientUnits="userSpaceOnUse"
       gradientTransform="matrix(0.225246,0,0,0.2857144,-3.4157483,-16.343092)"
       cx="64"
       cy="120.20078"
       fx="64"
       fy="120.20078"
       r="56" />
    <radialGradient
       inkscape:collect="always"
       xlink:href="#linearGradient3278"
       id="radialGradient2871"
       gradientUnits="userSpaceOnUse"
       gradientTransform="matrix(0.225246,0,0,0.2857144,-3.4157483,-15.343092)"
       cx="64"
       cy="120.20078"
       fx="64"
       fy="120.20078"
       r="56" />
    <radialGradient
       inkscape:collect="always"
       xlink:href="#linearGradient3278"
       id="radialGradient2873"
       gradientUnits="userSpaceOnUse"
       gradientTransform="matrix(0.225246,0,0,0.2857144,-3.4157483,-16.343092)"
       cx="64"
       cy="120.20078"
       fx="64"
       fy="120.20078"
       r="56" />
    <radialGradient
       inkscape:collect="always"
       xlink:href="#linearGradient3278"
       id="radialGradient3652"
       gradientUnits="userSpaceOnUse"
       gradientTransform="matrix(0.225246,0,0,0.2857144,-3.4157483,-15.343092)"
       cx="64"
       cy="120.20078"
       fx="64"
       fy="120.20078"
       r="56" />
    <radialGradient
       inkscape:collect="always"
       xlink:href="#linearGradient3278"
       id="radialGradient3663"
       gradientUnits="userSpaceOnUse"
       gradientTransform="matrix(0.225246,0,0,0.2857144,-33.415748,-15.343092)"
       cx="64"
       cy="120.20078"
       fx="64"
       fy="120.20078"
       r="56" />
    <radialGradient
       inkscape:collect="always"
       xlink:href="#linearGradient3278"
       id="radialGradient3672"
       gradientUnits="userSpaceOnUse"
       gradientTransform="matrix(0.225246,0,0,0.2857144,-33.415748,-15.343092)"
       cx="64"
       cy="120.20078"
       fx="64"
       fy="120.20078"
       r="56" />
    <clipPath
       clipPathUnits="userSpaceOnUse"
       id="clipPath3680">
      <path
         style="fill:#ff00ff;fill-opacity:1;stroke:none;display:inline"
         d="m -30,0 0,22 22,0 0,-22 -22,0 z m 11,3 c 4.416,0 8,3.583999 8,8 10e-7,4.416002 -3.584,8 -8,8 -4.416,0 -8,-3.583999 -8,-8 0,-4.416001 3.584,-8 8,-8 z m 3.03125,4.03125 -4.0625,4.71875 -2,-1.8125 -1.9375,2.09375 3.9375,3.90625 6,-6.8125 -1.9375,-2.09375 z"
         id="path3682" />
    </clipPath>
    <filter
       inkscape:collect="always"
       id="filter3684">
      <feGaussianBlur
         inkscape:collect="always"
         stdDeviation="0.48"
         id="feGaussianBlur3686" />
    </filter>
    <linearGradient
       id="StandardGradient"
       gradientTransform="matrix(1.0765258,0,0,0.9227364,-0.00801316,0.1584665)"
       x1="10.005832"
       y1="4.1631975"
       x2="10.005832"
       y2="17.168188"
       gradientUnits="userSpaceOnUse">
      <stop
         id="stop3337"
         offset="0"
         style="stop-color:#ebebeb;stop-opacity:1;" />
      <stop
         id="stop3339"
         offset="1"
         style="stop-color:#aaaaaa;stop-opacity:1;" />
    </linearGradient>
    <linearGradient
       y2="17.168188"
       x2="10.005832"
       y1="4.1631975"
       x1="10.005832"
       gradientTransform="matrix(1.0765258,0,0,0.9227364,2.9919868,-14.841534)"
       gradientUnits="userSpaceOnUse"
       id="linearGradient4392"
       xlink:href="#StandardGradient"
       inkscape:collect="always" />
    <linearGradient
       inkscape:collect="always"
       xlink:href="#StandardGradient"
       id="linearGradient5669"
       x1="12"
       y1="3"
       x2="12"
       y2="19"
       gradientUnits="userSpaceOnUse" />
    <linearGradient
       inkscape:collect="always"
       xlink:href="#StandardGradient"
       id="linearGradient5673"
       gradientUnits="userSpaceOnUse"
       x1="12"
       y1="3"
       x2="12"
       y2="19" />
  </defs>
  <sodipodi:namedview
     id="base"
     pagecolor="#ffffff"
     bordercolor="#9a9a9a"
     borderopacity="1"
     inkscape:pageopacity="0.0"
     inkscape:pageshadow="2"
     inkscape:zoom="9.2534071"
     inkscape:cx="-55.124572"
     inkscape:cy="3.3128291"
     inkscape:document-units="px"
     inkscape:current-layer="layer3"
     showgrid="true"
     inkscape:showpageshadow="false"
     showguides="true"
     inkscape:guide-bbox="true"
     inkscape:window-width="1920"
     inkscape:window-height="1026"
     inkscape:window-x="0"
     inkscape:window-y="25"
     inkscape:window-maximized="1">
    <sodipodi:guide
       orientation="1,0"
       position="0,112"
       id="guide2383" />
    <sodipodi:guide
       orientation="0,1"
       position="26.278146,128"
       id="guide2385" />
    <sodipodi:guide
       orientation="1,0"
       position="128,54.082119"
       id="guide2387" />
    <sodipodi:guide
       orientation="0,1"
       position="78.156291,0"
       id="guide2389" />
    <inkscape:grid
       type="xygrid"
       id="grid3672"
       visible="true"
       enabled="true" />
  </sodipodi:namedview>
  <metadata
     id="metadata7">
    <rdf:RDF>
      <cc:Work
         rdf:about="">
        <dc:format>image/svg+xml</dc:format>
        <dc:type
           rdf:resource="http://purl.org/dc/dcmitype/StillImage" />
      </cc:Work>
    </rdf:RDF>
  </metadata>
  <g
     inkscape:groupmode="layer"
     id="layer3"
     inkscape:label="Arrow"
     style="display:inline">
    <path
       sodipodi:type="inkscape:offset"
       inkscape:radius="0.99611509"
       inkscape:original="M 11 3 C 6.5839996 3 3 6.5839988 3 11 C 3 15.416001 6.5839996 19 11 19 C 15.416 19 19.000001 15.416002 19 11 C 19 6.5839987 15.416 3 11 3 z M 14.03125 7.03125 L 15.96875 9.125 L 9.96875 15.9375 L 6.03125 12.03125 L 7.96875 9.9375 L 9.96875 11.75 L 14.03125 7.03125 z "
       style="opacity:0.25;fill:#000000;fill-opacity:1;stroke:none"
       id="path5675"
       d="m 11,2 c -4.954961,0 -9,4.0450382 -9,9 0,4.954962 4.045039,9 9,9 4.954961,0 9.000001,-4.045037 9,-9 C 20,6.045038 15.954961,2 11,2 z M 14.0625,8.53125 14.625,9.125 9.90625,14.5 7.40625,12 8.03125,11.34375 9.3125,12.5 a 0.9962147,0.9962147 0 0 0 1.40625,-0.09375 l 3.34375,-3.875 z" />
    <path
       style="opacity:1;fill:url(#linearGradient5669);fill-opacity:1;stroke:none"
       d="m 11,3 c -4.4160004,0 -8,3.5839988 -8,8 0,4.416001 3.5839996,8 8,8 4.416,0 8.000001,-3.583998 8,-8 0,-4.4160013 -3.584,-8 -8,-8 z m 3.03125,4.03125 1.9375,2.09375 -6,6.8125 -3.9375,-3.90625 1.9375,-2.09375 2,1.8125 4.0625,-4.71875 z"
       id="path2505" />
    <path
       style="opacity:0.6;fill:#ffffff;fill-opacity:1;stroke:none"
       d="M 11,3 C 6.5839996,3 3,6.5839988 3,11 3,11.170003 3.0207839,11.33262 3.03125,11.5 3.2926521,7.3195165 6.7540026,4 11,4 15.245997,4 18.707348,7.3195164 18.96875,11.5 18.979216,11.33262 19,11.170003 19,11 19,6.5839987 15.416,3 11,3 z M 15.53125,9.625 9.96875,15.9375 6.5,12.5 l -0.46875,0.53125 3.9375,3.90625 6,-6.8125 -0.4375,-0.5 z"
       id="path2867" />
    <path
       style="opacity:0.45;fill:#000000;fill-opacity:1;stroke:none"
       d="m 14.03125,7.03125 -4.0625,4.71875 -2,-1.8125 -1.9375,2.09375 L 6.5,12.5 l 1.46875,-1.5625 2,1.8125 4.0625,-4.71875 1.5,1.59375 0.4375,-0.5 -1.9375,-2.09375 z m -11,4.46875 C 3.0207839,11.66738 3,11.829997 3,12 c 0,4.416001 3.5839996,8 8,8 4.416,0 8.000001,-3.583998 8,-8 0,-0.170003 -0.02078,-0.33262 -0.03125,-0.5 C 18.707349,15.680484 15.245997,19 11,19 6.7540026,19 3.2926521,15.680483 3.03125,11.5 z"
       id="path3650" />
  </g>
</svg>
