<?xml version="1.0" encoding="UTF-8" standalone="no"?>
<!-- Created with Inkscape (http://www.inkscape.org/) -->

<svg
   xmlns:dc="http://purl.org/dc/elements/1.1/"
   xmlns:cc="http://creativecommons.org/ns#"
   xmlns:rdf="http://www.w3.org/1999/02/22-rdf-syntax-ns#"
   xmlns:svg="http://www.w3.org/2000/svg"
   xmlns="http://www.w3.org/2000/svg"
   xmlns:xlink="http://www.w3.org/1999/xlink"
   xmlns:sodipodi="http://sodipodi.sourceforge.net/DTD/sodipodi-0.dtd"
   xmlns:inkscape="http://www.inkscape.org/namespaces/inkscape"
   width="22"
   height="22"
   id="svg2"
   sodipodi:version="0.32"
   inkscape:version="0.48.0 r9654"
   version="1.0"
   sodipodi:docname="gtk-no.svg"
   inkscape:output_extension="org.inkscape.output.svg.inkscape">
  <defs
     id="defs4">
    <linearGradient
       gradientUnits="userSpaceOnUse"
       y2="2.9989266"
       x2="13.254826"
       y1="19"
       x1="13.254826"
       id="linearGradient4946">
      <stop
         id="stop4948"
         offset="0"
         style="stop-color:#e83600;stop-opacity:1;" />
      <stop
         id="stop4950"
         offset="1"
         style="stop-color:#a40000;stop-opacity:1;" />
    </linearGradient>
    <linearGradient
       inkscape:collect="always"
       xlink:href="#SpecificGradient"
       id="linearGradient3633"
       gradientUnits="userSpaceOnUse"
       x1="13.254826"
       y1="19"
       x2="13.254826"
       y2="2.9989266"
       gradientTransform="matrix(1,0,0,-1,0,22)" />
    <linearGradient
       inkscape:collect="always"
       xlink:href="#SpecificGradient"
       id="linearGradient3630"
       gradientUnits="userSpaceOnUse"
       x1="10.406627"
       y1="2"
       x2="10.406627"
       y2="18.000771"
       gradientTransform="translate(0,1)" />
    <linearGradient
       id="SpecificGradient">
      <stop
         style="stop-color:#f3604d;stop-opacity:1;"
         offset="0"
         id="stop3185" />
      <stop
         style="stop-color:#c81700;stop-opacity:1;"
         offset="1"
         id="stop3187" />
    </linearGradient>
    <linearGradient
       y2="18.000771"
       x2="10.406627"
       y1="2"
       x1="10.406627"
       gradientTransform="translate(-22,-1)"
       gradientUnits="userSpaceOnUse"
       id="linearGradient3779"
       xlink:href="#SpecificGradient"
       inkscape:collect="always" />
    <linearGradient
       inkscape:collect="always"
       xlink:href="#SpecificGradient"
       id="linearGradient4971"
       gradientUnits="userSpaceOnUse"
       x1="13.254826"
       y1="19"
       x2="13.254826"
       y2="2.9989266" />
  </defs>
  <sodipodi:namedview
     id="base"
     pagecolor="#ffffff"
     bordercolor="#9a9a9a"
     borderopacity="1"
     inkscape:pageopacity="0.0"
     inkscape:pageshadow="2"
     inkscape:zoom="13.826905"
     inkscape:cx="-30.673253"
     inkscape:cy="12.03579"
     inkscape:document-units="px"
     inkscape:current-layer="layer3"
     showgrid="true"
     inkscape:showpageshadow="false"
     showguides="true"
     inkscape:guide-bbox="true"
     inkscape:window-width="1920"
     inkscape:window-height="1029"
     inkscape:window-x="0"
     inkscape:window-y="25"
     inkscape:window-maximized="1">
    <sodipodi:guide
       orientation="1,0"
       position="0,112"
       id="guide2383" />
    <sodipodi:guide
       orientation="0,1"
       position="26.278146,128"
       id="guide2385" />
    <sodipodi:guide
       orientation="1,0"
       position="128,54.082119"
       id="guide2387" />
    <sodipodi:guide
       orientation="0,1"
       position="78.156291,0"
       id="guide2389" />
    <inkscape:grid
       type="xygrid"
       id="grid3672"
       visible="true"
       enabled="true" />
  </sodipodi:namedview>
  <metadata
     id="metadata7">
    <rdf:RDF>
      <cc:Work
         rdf:about="">
        <dc:format>image/svg+xml</dc:format>
        <dc:type
           rdf:resource="http://purl.org/dc/dcmitype/StillImage" />
      </cc:Work>
    </rdf:RDF>
  </metadata>
  <g
     inkscape:groupmode="layer"
     id="layer3"
     inkscape:label="Arrow"
     style="display:inline">
    <path
       sodipodi:type="inkscape:offset"
       inkscape:radius="1.0171615"
       inkscape:original="M 11 3 C 6.5839996 3 3 6.5839988 3 11 C 3 15.416001 6.5839996 19 11 19 C 15.416 19 19.000001 15.416002 19 11 C 19 6.5839987 15.416 3 11 3 z M 8.3125 6 L 11 8.6875 L 13.6875 6 L 16 8.3125 L 13.3125 11 L 16 13.6875 L 13.6875 16 L 11 13.3125 L 8.3125 16 L 6 13.6875 L 8.6875 11 L 6 8.3125 L 8.3125 6 z "
       style="fill:#000000;fill-opacity:1;stroke:none;opacity:0.1"
       id="path4973"
       d="m 11,1.96875 c -4.9663484,0 -9.03125,4.0649008 -9.03125,9.03125 0,4.966349 4.0649016,9.03125 9.03125,9.03125 4.966348,0 9.031251,-4.0649 9.03125,-9.03125 C 20.03125,6.0336506 15.966348,1.96875 11,1.96875 z M 8.3125,7.4375 10.28125,9.40625 a 1.0172632,1.0172632 0 0 0 1.4375,0 l 1.96875,-1.96875 0.875,0.875 -1.96875,1.96875 a 1.0172632,1.0172632 0 0 0 0,1.4375 l 1.96875,1.96875 -0.875,0.875 -1.96875,-1.96875 a 1.0172632,1.0172632 0 0 0 -1.4375,0 L 8.3125,14.5625 7.4375,13.6875 9.40625,11.71875 a 1.0172632,1.0172632 0 0 0 0,-1.4375 L 7.4375,8.3125 8.3125,7.4375 z" />
    <path
       style="fill:url(#linearGradient3633);fill-opacity:1;stroke:none"
       d="M 11,19 C 6.5839996,19 3,15.416001 3,11 3,6.583999 6.5839996,3 11,3 c 4.416,0 8.000001,3.583998 8,8 0,4.416001 -3.584,8 -8,8 z M 8.3125,16 11,13.3125 13.6875,16 16,13.6875 13.3125,11 16,8.3125 13.6875,6 11,8.6875 8.3125,6 6,8.3125 8.6875,11 6,13.6875 8.3125,16 z"
       id="Symbol"
       inkscape:connector-curvature="0" />
    <path
       style="opacity:0.3;fill:#ffffff;fill-opacity:1;stroke:none;stroke-width:5.88412905000000030;stroke-linecap:round;stroke-linejoin:miter;stroke-miterlimit:4;stroke-dasharray:none;stroke-opacity:1"
       d="M 11 3 C 6.5839996 3 3 6.5839988 3 11 C 3 11.170003 3.0207839 11.33262 3.03125 11.5 C 3.2926521 7.3195165 6.7540026 4 11 4 C 15.245997 4 18.707348 7.3195164 18.96875 11.5 C 18.979216 11.33262 19 11.170003 19 11 C 19 6.5839987 15.416 3 11 3 z M 6.5 8.8125 L 6 9.3125 L 8.1875 11.5 L 8.6875 11 L 6.5 8.8125 z M 15.5 8.8125 L 13.3125 11 L 13.8125 11.5 L 16 9.3125 L 15.5 8.8125 z M 11 13.3125 L 8.3125 16 L 6.5 14.1875 L 6 14.6875 L 8.3125 17 L 11 14.3125 L 13.6875 17 L 16 14.6875 L 15.5 14.1875 L 13.6875 16 L 11 13.3125 z "
       id="path3636" />
    <path
       style="fill:#000000;fill-opacity:1;stroke:none;opacity:0.55"
       d="M 8.3125 6 L 6 8.3125 L 6.5 8.8125 L 8.3125 7 L 11 9.6875 L 13.6875 7 L 15.5 8.8125 L 16 8.3125 L 13.6875 6 L 11 8.6875 L 8.3125 6 z M 3.03125 11.5 C 3.0207839 11.66738 3 11.829997 3 12 C 3 16.416001 6.5839996 20 11 20 C 15.416 20 19.000001 16.416002 19 12 C 19 11.829997 18.979216 11.66738 18.96875 11.5 C 18.707349 15.680484 15.245997 19 11 19 C 6.7540026 19 3.2926521 15.680483 3.03125 11.5 z M 8.1875 11.5 L 6 13.6875 L 6.5 14.1875 L 8.6875 12 L 8.1875 11.5 z M 13.8125 11.5 L 13.3125 12 L 15.5 14.1875 L 16 13.6875 L 13.8125 11.5 z "
       id="path3645" />
  </g>
</svg>
