<?xml version="1.0" encoding="UTF-8" standalone="no"?>
<!-- Created with Inkscape (http://www.inkscape.org/) -->

<svg
   xmlns:dc="http://purl.org/dc/elements/1.1/"
   xmlns:cc="http://creativecommons.org/ns#"
   xmlns:rdf="http://www.w3.org/1999/02/22-rdf-syntax-ns#"
   xmlns:svg="http://www.w3.org/2000/svg"
   xmlns="http://www.w3.org/2000/svg"
   xmlns:xlink="http://www.w3.org/1999/xlink"
   xmlns:sodipodi="http://sodipodi.sourceforge.net/DTD/sodipodi-0.dtd"
   xmlns:inkscape="http://www.inkscape.org/namespaces/inkscape"
   width="22"
   height="22"
   id="svg2"
   sodipodi:version="0.32"
   inkscape:version="0.48.0 r9654"
   version="1.0"
   sodipodi:docname="media-playlist-shuffle.svg"
   inkscape:output_extension="org.inkscape.output.svg.inkscape">
  <defs
     id="defs4">
    <linearGradient
       gradientUnits="userSpaceOnUse"
       y2="18.79122"
       x2="7.9406605"
       y1="5.9202557"
       x1="7.9406605"
       gradientTransform="scale(1.1766968,0.8498366)"
       id="linearGradient5059">
      <stop
         id="stop5061"
         offset="0"
         style="stop-color:#000000;stop-opacity:0.86274511;" />
      <stop
         id="stop5063"
         offset="1"
         style="stop-color:#000000;stop-opacity:0.47058824;" />
    </linearGradient>
    <filter
       inkscape:collect="always"
       id="filter3644">
      <feGaussianBlur
         inkscape:collect="always"
         stdDeviation="0.465"
         id="feGaussianBlur3646" />
    </filter>
    <linearGradient
       inkscape:collect="always"
       xlink:href="#StandardGradient"
       id="linearGradient5065"
       gradientUnits="userSpaceOnUse"
       gradientTransform="scale(1.1766968,0.8498366)"
       x1="7.9406605"
       y1="5.9202557"
       x2="7.9406605"
       y2="18.79122" />
    <linearGradient
       id="StandardGradient"
       gradientTransform="matrix(1.0765258,0,0,0.9227364,-0.00801316,0.1584665)"
       x1="10.005832"
       y1="4.1631975"
       x2="10.005832"
       y2="17.168188"
       gradientUnits="userSpaceOnUse">
      <stop
         id="stop3337"
         offset="0"
         style="stop-color:#ebebeb;stop-opacity:1;" />
      <stop
         id="stop3339"
         offset="1"
         style="stop-color:#aaaaaa;stop-opacity:1;" />
    </linearGradient>
    <linearGradient
       y2="17.168188"
       x2="10.005832"
       y1="4.1631975"
       x1="10.005832"
       gradientTransform="matrix(1.0765258,0,0,0.9227364,2.9919868,12.158466)"
       gradientUnits="userSpaceOnUse"
       id="linearGradient4392"
       xlink:href="#StandardGradient"
       inkscape:collect="always" />
    <linearGradient
       inkscape:collect="always"
       xlink:href="#StandardGradient"
       id="linearGradient5084"
       gradientUnits="userSpaceOnUse"
       gradientTransform="scale(1.1766968,0.8498366)"
       x1="7.9406605"
       y1="5.9202557"
       x2="7.9406605"
       y2="18.79122" />
  </defs>
  <sodipodi:namedview
     id="base"
     pagecolor="#ffffff"
     bordercolor="#e7e7e7"
     borderopacity="1"
     inkscape:pageopacity="0.0"
     inkscape:pageshadow="2"
     inkscape:zoom="8.6231435"
     inkscape:cx="-51.297975"
     inkscape:cy="4.5431545"
     inkscape:document-units="px"
     inkscape:current-layer="layer1"
     showgrid="true"
     inkscape:showpageshadow="false"
     showguides="true"
     inkscape:guide-bbox="true"
     inkscape:window-width="1920"
     inkscape:window-height="1026"
     inkscape:window-x="0"
     inkscape:window-y="25"
     inkscape:window-maximized="1">
    <sodipodi:guide
       orientation="1,0"
       position="0,112"
       id="guide2383" />
    <sodipodi:guide
       orientation="0,1"
       position="78.156291,0"
       id="guide2389" />
    <inkscape:grid
       type="xygrid"
       id="grid3672"
       visible="true"
       enabled="true" />
    <sodipodi:guide
       orientation="0,1"
       position="11.22532,22.008699"
       id="guide2952" />
  </sodipodi:namedview>
  <metadata
     id="metadata7">
    <rdf:RDF>
      <cc:Work
         rdf:about="">
        <dc:format>image/svg+xml</dc:format>
        <dc:type
           rdf:resource="http://purl.org/dc/dcmitype/StillImage" />
      </cc:Work>
    </rdf:RDF>
  </metadata>
  <g
     inkscape:label="Calque 1"
     inkscape:groupmode="layer"
     id="layer1">
    <path
       sodipodi:type="inkscape:offset"
       inkscape:radius="1.0501257"
       inkscape:original="M 15 4 L 15 6 L 12.96875 6 C 11.74186 6 10.712172 6.540433 9.96875 7.21875 C 9.4822627 7.6626333 9.1054382 8.1593998 8.75 8.65625 L 7.34375 10.625 C 7.1356016 10.883136 6.9318832 11.124118 6.71875 11.3125 C 6.2155187 11.75729 5.7308302 12 4.96875 12 L 2 12 L 2 14 L 4.96875 14 C 6.2252602 14 7.264148 13.490518 8.03125 12.8125 C 8.2410363 12.627076 8.4156306 12.42195 8.59375 12.21875 C 9.0341536 11.638938 9.4691419 11.052042 9.90625 10.46875 C 10.387766 9.7566197 10.846491 9.112698 11.3125 8.6875 C 11.799653 8.243009 12.256565 8 12.96875 8 L 15 8 L 15 10 L 20 7 L 15 4 z M 2 7 L 2 9 L 4.96875 9 C 5.7308302 9 6.2155187 9.2427095 6.71875 9.6875 C 6.729234 9.69677 6.739499 9.709317 6.75 9.71875 L 7.875 8.0625 C 7.1246381 7.4493745 6.1448435 7 4.96875 7 L 2 7 z M 15 11 L 15 13 L 12.96875 13 C 12.256565 13 11.799653 12.756991 11.3125 12.3125 C 11.045937 12.069281 10.769049 11.762626 10.5 11.40625 L 9.28125 13.03125 C 9.4937969 13.287542 9.7104146 13.545538 9.96875 13.78125 C 10.712172 14.459567 11.74186 15 12.96875 15 L 15 15 L 15 17 L 20 14 L 15 11 z "
       style="fill:#000000;fill-opacity:1;fill-rule:nonzero;stroke:none;opacity:0.25"
       id="path5086"
       d="m 14.9375,2.9375 a 1.0502307,1.0502307 0 0 0 -1,1.0625 l 0,0.9375 -0.96875,0 c -1.53527,0 -2.823832,0.683454 -3.71875,1.5 C 8.9497276,6.7114761 8.7934454,6.9986605 8.5625,7.28125 A 1.0502307,1.0502307 0 0 0 8.53125,7.25 C 7.6287288,6.5125442 6.4123391,5.9375 4.96875,5.9375 L 2,5.9375 A 1.0502307,1.0502307 0 0 0 0.9375,7 l 0,2 A 1.0502307,1.0502307 0 0 0 2,10.0625 l 2.96875,0 c 0.5391155,0 0.6679355,0.05751 1.0625,0.40625 -0.086956,-0.07689 -0.070542,-0.06019 0.03125,0.03125 -0.00788,0.0073 -0.02369,0.02457 -0.03125,0.03125 -0.3945649,0.348743 -0.523385,0.40625 -1.0625,0.40625 L 2,10.9375 A 1.0502307,1.0502307 0 0 0 0.9375,12 l 0,2 A 1.0502307,1.0502307 0 0 0 2,15.0625 l 2.96875,0 c 1.4396605,0 2.6229685,-0.604558 3.53125,-1.34375 0.209654,0.252696 0.4379357,0.559014 0.75,0.84375 0.894918,0.816546 2.18348,1.5 3.71875,1.5 l 0.96875,0 0,0.9375 a 1.0502307,1.0502307 0 0 0 1.59375,0.90625 l 5,-3 a 1.0502307,1.0502307 0 0 0 0,-1.8125 L 16.21875,10.5 20.53125,7.90625 a 1.0502307,1.0502307 0 0 0 0,-1.8125 l -5,-3 A 1.0502307,1.0502307 0 0 0 14.9375,2.9375 z m -1.96875,6.125 0.96875,0 0,0.9375 a 1.0502307,1.0502307 0 0 0 0.15625,0.5 1.0502307,1.0502307 0 0 0 -0.15625,0.5 l 0,0.9375 -0.96875,0 c -0.473305,0 -0.551083,-0.05367 -0.9375,-0.40625 -0.209377,-0.191041 -0.452662,-0.438938 -0.6875,-0.75 a 1.0502307,1.0502307 0 0 0 -0.1875,-0.1875 c 0.314726,-0.436436 0.643132,-0.9134377 0.875,-1.125 0.386417,-0.352577 0.464195,-0.40625 0.9375,-0.40625 z" />
    <path
       style="opacity:1;fill:url(#linearGradient5065);fill-opacity:1.0;fill-rule:nonzero;stroke:none;stroke-width:1;stroke-linecap:square;stroke-linejoin:round;stroke-miterlimit:4;stroke-dasharray:none;stroke-dashoffset:0;stroke-opacity:1"
       d="M 15,4 L 15,6 L 12.96875,6 C 11.74186,6 10.712172,6.540433 9.96875,7.21875 C 9.4822627,7.6626333 9.1054382,8.1593998 8.75,8.65625 L 7.34375,10.625 C 7.1356016,10.883136 6.9318832,11.124118 6.71875,11.3125 C 6.2155187,11.75729 5.7308302,12 4.96875,12 L 2,12 L 2,14 L 4.96875,14 C 6.2252602,14 7.264148,13.490518 8.03125,12.8125 C 8.2410363,12.627076 8.4156306,12.42195 8.59375,12.21875 C 9.0341536,11.638938 9.4691419,11.052042 9.90625,10.46875 C 10.387766,9.7566197 10.846491,9.112698 11.3125,8.6875 C 11.799653,8.243009 12.256565,8 12.96875,8 L 15,8 L 15,10 L 20,7 L 15,4 z M 2,7 L 2,9 L 4.96875,9 C 5.7308302,9 6.2155187,9.2427095 6.71875,9.6875 C 6.729234,9.6967665 6.7394993,9.7093174 6.75,9.71875 L 7.875,8.0625 C 7.1246381,7.4493745 6.1448435,7 4.96875,7 L 2,7 z M 15,11 L 15,13 L 12.96875,13 C 12.256565,13 11.799653,12.756991 11.3125,12.3125 C 11.045937,12.069281 10.769049,11.762626 10.5,11.40625 L 9.28125,13.03125 C 9.4937969,13.287542 9.7104146,13.545538 9.96875,13.78125 C 10.712172,14.459567 11.74186,15 12.96875,15 L 15,15 L 15,17 L 20,14 L 15,11 z"
       id="Symbol"
       sodipodi:nodetypes="cccsccsccccsccsccccccccscccccccsccsccccc"
       inkscape:label="#rect3184" />
    <path
       style="opacity:0.6;fill:#ffffff;fill-opacity:1;fill-rule:nonzero;stroke:none;stroke-width:1;stroke-linecap:square;stroke-linejoin:round;stroke-miterlimit:4;stroke-dasharray:none;stroke-dashoffset:0;stroke-opacity:1"
       d="M 15 4 L 15 5 L 19.15625 7.5 L 20 7 L 15 4 z M 12.96875 6 C 11.74186 6 10.712172 6.540433 9.96875 7.21875 C 9.4822627 7.6626333 9.1054382 8.1593998 8.75 8.65625 L 7.34375 10.625 C 7.1356016 10.883136 6.9318832 11.124118 6.71875 11.3125 C 6.2155187 11.75729 5.7308302 12 4.96875 12 L 2 12 L 2 13 L 4.96875 13 C 5.7308302 13 6.2155187 12.75729 6.71875 12.3125 C 6.9318832 12.124118 7.1356016 11.883136 7.34375 11.625 L 8.75 9.65625 C 9.1054382 9.1593998 9.4822627 8.6626333 9.96875 8.21875 C 10.712172 7.540433 11.74186 7 12.96875 7 L 15 7 L 15 6 L 12.96875 6 z M 2 7 L 2 8 L 4.96875 8 C 5.9231383 8 6.7593498 8.2795405 7.4375 8.71875 L 7.875 8.0625 C 7.1246381 7.4493745 6.1448435 7 4.96875 7 L 2 7 z M 15 11 L 15 12 L 19.15625 14.5 L 20 14 L 15 11 z M 10.5 11.40625 L 9.28125 13.03125 C 9.4059709 13.18164 9.5523693 13.322033 9.6875 13.46875 L 10.5 12.40625 C 10.769049 12.762626 11.045937 13.069281 11.3125 13.3125 C 11.799653 13.756991 12.256565 14 12.96875 14 L 15 14 L 15 13 L 12.96875 13 C 12.256565 13 11.799653 12.756991 11.3125 12.3125 C 11.045937 12.069281 10.769049 11.762626 10.5 11.40625 z "
       id="BevelShadow"
       inkscape:label="#path3182" />
    <path
       style="opacity:0.45;fill:#000000;fill-opacity:1;fill-rule:nonzero;stroke:none;stroke-width:1;stroke-linecap:square;stroke-linejoin:round;stroke-miterlimit:4;stroke-dasharray:none;stroke-dashoffset:0;stroke-opacity:1"
       d="M 20 7 L 15 10 L 15 11 L 20 8 L 20 7 z M 12.96875 8 C 12.256565 8 11.799653 8.243009 11.3125 8.6875 C 10.846491 9.112698 10.387766 9.7566197 9.90625 10.46875 C 9.4691419 11.052042 9.0341536 11.638938 8.59375 12.21875 C 8.4156306 12.42195 8.2410363 12.627076 8.03125 12.8125 C 7.264148 13.490518 6.2252602 14 4.96875 14 L 2 14 L 2 15 L 4.96875 15 C 6.2252602 15 7.264148 14.490518 8.03125 13.8125 C 8.2410363 13.627076 8.4156306 13.42195 8.59375 13.21875 C 9.0341536 12.638938 9.4691419 12.052042 9.90625 11.46875 C 10.387766 10.75662 10.846491 10.112698 11.3125 9.6875 C 11.799653 9.243009 12.256565 9 12.96875 9 L 15 9 L 15 8 L 12.96875 8 z M 9.28125 13.03125 L 9.28125 14.03125 C 9.4937969 14.287542 9.7104146 14.545538 9.96875 14.78125 C 10.712172 15.459567 11.74186 16 12.96875 16 L 15 16 L 15 15 L 12.96875 15 C 11.74186 15 10.712172 14.459567 9.96875 13.78125 C 9.7104146 13.545538 9.4937969 13.287542 9.28125 13.03125 z M 20 14 L 15 17 L 15 18 L 20 15 L 20 14 z "
       id="BevelHighlight"
       inkscape:label="#path3189" />
  </g>
</svg>
