<?xml version="1.0" encoding="UTF-8" standalone="no"?>
<!-- Created with Inkscape (http://www.inkscape.org/) -->

<svg
   xmlns:dc="http://purl.org/dc/elements/1.1/"
   xmlns:cc="http://creativecommons.org/ns#"
   xmlns:rdf="http://www.w3.org/1999/02/22-rdf-syntax-ns#"
   xmlns:svg="http://www.w3.org/2000/svg"
   xmlns="http://www.w3.org/2000/svg"
   xmlns:xlink="http://www.w3.org/1999/xlink"
   xmlns:sodipodi="http://sodipodi.sourceforge.net/DTD/sodipodi-0.dtd"
   xmlns:inkscape="http://www.inkscape.org/namespaces/inkscape"
   width="22"
   height="22"
   id="svg2"
   sodipodi:version="0.32"
   inkscape:version="0.48.0 r9654"
   version="1.0"
   sodipodi:docname="object-rotate-left.svg"
   inkscape:output_extension="org.inkscape.output.svg.inkscape">
  <defs
     id="defs4">
    <linearGradient
       gradientUnits="userSpaceOnUse"
       y2="19.290417"
       x2="10.458337"
       y1="4.3967042"
       x1="10.458337"
       gradientTransform="scale(1.0744355,0.9307213)"
       id="linearGradient5593">
      <stop
         id="stop5595"
         offset="0"
         style="stop-color:#000000;stop-opacity:0.86274511;" />
      <stop
         id="stop5597"
         offset="1"
         style="stop-color:#000000;stop-opacity:0.47058824;" />
    </linearGradient>
    <linearGradient
       inkscape:collect="always"
       xlink:href="#StandardGradient"
       id="linearGradient3677"
       gradientUnits="userSpaceOnUse"
       x1="11"
       y1="2"
       x2="10.917386"
       y2="19.380394" />
    <filter
       inkscape:collect="always"
       id="filter3710">
      <feGaussianBlur
         inkscape:collect="always"
         stdDeviation="0.49359375"
         id="feGaussianBlur3712" />
    </filter>
    <linearGradient
       id="StandardGradient"
       gradientTransform="matrix(1.0765258,0,0,0.9227364,-0.00801316,0.1584665)"
       x1="10.005832"
       y1="4.1631975"
       x2="10.005832"
       y2="17.168188"
       gradientUnits="userSpaceOnUse">
      <stop
         id="stop3337"
         offset="0"
         style="stop-color:#ebebeb;stop-opacity:1;" />
      <stop
         id="stop3339"
         offset="1"
         style="stop-color:#aaaaaa;stop-opacity:1;" />
    </linearGradient>
    <linearGradient
       y2="17.168188"
       x2="10.005832"
       y1="4.1631975"
       x1="10.005832"
       gradientTransform="matrix(1.0765258,0,0,0.9227364,26.87922,-8.9866318)"
       gradientUnits="userSpaceOnUse"
       id="linearGradient4353"
       xlink:href="#StandardGradient"
       inkscape:collect="always" />
    <linearGradient
       inkscape:collect="always"
       xlink:href="#StandardGradient"
       id="linearGradient5616"
       gradientUnits="userSpaceOnUse"
       x1="11"
       y1="2"
       x2="10.917386"
       y2="19.380394" />
  </defs>
  <sodipodi:namedview
     id="base"
     pagecolor="#ffffff"
     bordercolor="#9a9a9a"
     borderopacity="1"
     inkscape:pageopacity="0.0"
     inkscape:pageshadow="2"
     inkscape:zoom="18.396699"
     inkscape:cx="0.22982102"
     inkscape:cy="9.9567185"
     inkscape:document-units="px"
     inkscape:current-layer="layer1"
     showgrid="true"
     inkscape:showpageshadow="false"
     showguides="true"
     inkscape:guide-bbox="true"
     inkscape:window-width="1920"
     inkscape:window-height="1026"
     inkscape:window-x="0"
     inkscape:window-y="25"
     inkscape:window-maximized="1"
     inkscape:snap-global="false">
    <sodipodi:guide
       orientation="0,1"
       position="26.278146,128"
       id="guide2385" />
    <sodipodi:guide
       orientation="1,0"
       position="128,54.082119"
       id="guide2387" />
    <inkscape:grid
       type="xygrid"
       id="grid3672"
       visible="true"
       enabled="true"
       empspacing="8"
       snapvisiblegridlinesonly="true" />
  </sodipodi:namedview>
  <metadata
     id="metadata7">
    <rdf:RDF>
      <cc:Work
         rdf:about="">
        <dc:format>image/svg+xml</dc:format>
        <dc:type
           rdf:resource="http://purl.org/dc/dcmitype/StillImage" />
      </cc:Work>
    </rdf:RDF>
  </metadata>
  <g
     inkscape:groupmode="layer"
     id="layer1"
     inkscape:label="Calque 1"
     style="display:inline">
    <path
       sodipodi:type="inkscape:offset"
       inkscape:radius="0.97237796"
       inkscape:original="M 12 2 L 6.96875 5.4375 L 12 9 L 12 6.6875 C 14.34303 7.1179416 16.162297 9.035339 16.40625 11.4375 C 16.42476 11.619739 16.40625 11.812878 16.40625 12 C 16.40625 14.993955 13.993955 17.40625 11 17.40625 C 8.8634721 17.36311 7.4616072 16.318423 6.28125 14.71875 L 4.09375 16 C 5.5738406 18.599708 7.7248248 20 11 20 C 15.418278 20 19 16.418278 19 12 C 19 7.9217123 15.944443 4.5563109 12 4.0625 L 12 2 z M 11 10 C 9.895431 10 9 10.895431 9 12 C 9 13.104569 9.895431 14 11 14 C 12.104569 14 13 13.104569 13 12 C 13 10.895431 12.104569 10 11 10 z "
       style="fill:#000000;fill-opacity:1;stroke:none;opacity:0.25"
       id="path5618"
       d="M 11.875,1.03125 A 0.97247519,0.97247519 0 0 0 11.4375,1.1875 L 6.40625,4.625 a 0.97247519,0.97247519 0 0 0 0,1.59375 l 4.1875,2.96875 C 9.1785874,9.4114262 8.03125,10.526187 8.03125,12 c 0,1.630082 1.3386684,2.96875 2.96875,2.96875 1.630082,0 2.96875,-1.338668 2.96875,-2.96875 0,-0.985994 -0.563652,-1.739212 -1.3125,-2.28125 A 0.97247519,0.97247519 0 0 0 12.96875,9 l 0,-0.71875 c 1.280062,0.6728653 2.315673,1.742683 2.46875,3.25 0.0049,0.04869 0,0.217503 0,0.46875 0,2.46102 -1.949617,4.42073 -4.40625,4.4375 -0.01165,-2.35e-4 -0.01966,2.96e-4 -0.03125,0 C 9.1931937,16.391295 8.1376591,15.613354 7.0625,14.15625 A 0.97247519,0.97247519 0 0 0 5.78125,13.875 l -2.1875,1.28125 A 0.97247519,0.97247519 0 0 0 3.25,16.46875 c 1.6062224,2.821252 4.1976665,4.5 7.75,4.5 4.94379,0 8.96875,-4.02496 8.96875,-8.96875 0,-4.2518746 -3.016517,-7.7081264 -7,-8.625 l 0,-1.375 A 0.97247519,0.97247519 0 0 0 11.875,1.03125 z" />
    <path
       style="fill:url(#linearGradient3677);fill-opacity:1.0;stroke:none"
       d="M 12,2 6.96875,5.4375 12,9 12,6.6875 c 2.34303,0.4304416 4.162297,2.347839 4.40625,4.75 0.01851,0.182239 0,0.375378 0,0.5625 0,2.993955 -2.412295,5.40625 -5.40625,5.40625 C 8.8634721,17.36311 7.4616072,16.318423 6.28125,14.71875 L 4.09375,16 C 5.5738406,18.599708 7.7248248,20 11,20 15.418278,20 19,16.418278 19,12 19,7.9217123 15.944443,4.5563109 12,4.0625 L 12,2 z m -1,8 c -1.104569,0 -2,0.895431 -2,2 0,1.104569 0.895431,2 2,2 1.104569,0 2,-0.895431 2,-2 0,-1.104569 -0.895431,-2 -2,-2 z"
       id="path2856"
       sodipodi:nodetypes="ccccssccccscccsssc" />
    <path
       style="fill:#ffffff;fill-opacity:1;stroke:none;opacity:0.6"
       d="M 12 2 L 6.96875 5.4375 L 7.6875 5.9375 L 12 3 L 12 2 z M 12 4.0625 L 12 5.0625 C 15.790203 5.5370014 18.742314 8.6691798 18.96875 12.53125 C 18.980544 12.35354 19 12.180696 19 12 C 19 7.9217123 15.944443 4.5563109 12 4.0625 z M 11 10 C 9.895431 10 9 10.895431 9 12 C 9 12.172589 9.0213958 12.340241 9.0625 12.5 C 9.2844628 11.637301 10.06802 11 11 11 C 11.93198 11 12.715537 11.637301 12.9375 12.5 C 12.978604 12.340241 13 12.172589 13 12 C 13 10.895431 12.104569 10 11 10 z M 16.375 12.34375 C 16.200011 15.177735 13.879379 17.40625 11 17.40625 C 8.8634721 17.36311 7.4616072 16.318423 6.28125 14.71875 L 4.09375 16 C 4.2402814 16.257375 4.4023774 16.485081 4.5625 16.71875 L 6.28125 15.71875 C 7.4616072 17.318423 8.8634721 18.36311 11 18.40625 C 13.993955 18.40625 16.40625 15.993955 16.40625 13 C 16.40625 12.812878 16.42476 12.619739 16.40625 12.4375 C 16.402895 12.404467 16.378948 12.376597 16.375 12.34375 z "
       id="path3679" />
    <path
       style="fill:#000000;fill-opacity:1;stroke:none;opacity:0.45"
       d="M 7.6875 5.9375 L 6.96875 6.4375 L 12 10 L 12 9 L 7.6875 5.9375 z M 12 6.6875 L 12 7.6875 C 14.31081 8.1120224 16.091868 9.9879585 16.375 12.34375 C 16.381963 12.23098 16.40625 12.114576 16.40625 12 C 16.40625 11.812878 16.42476 11.619739 16.40625 11.4375 C 16.162297 9.035339 14.34303 7.1179416 12 6.6875 z M 9.0625 12.5 C 9.0213958 12.659759 9 12.827411 9 13 C 9 14.104569 9.895431 15 11 15 C 12.104569 15 13 14.104569 13 13 C 13 12.827411 12.978604 12.659759 12.9375 12.5 C 12.715537 13.362699 11.93198 14 11 14 C 10.06802 14 9.2844628 13.362699 9.0625 12.5 z M 18.96875 12.53125 C 18.692169 16.698801 15.237582 20 11 20 C 8.0490726 20 6.0197501 18.845332 4.5625 16.71875 L 4.09375 17 C 5.5738406 19.599708 7.7248248 21 11 21 C 15.418278 21 19 17.418278 19 13 C 19 12.840526 18.977965 12.688415 18.96875 12.53125 z "
       id="path3688" />
  </g>
</svg>
