<?xml version="1.0" encoding="UTF-8" standalone="no"?>
<!-- Created with Inkscape (http://www.inkscape.org/) -->

<svg
   xmlns:dc="http://purl.org/dc/elements/1.1/"
   xmlns:cc="http://creativecommons.org/ns#"
   xmlns:rdf="http://www.w3.org/1999/02/22-rdf-syntax-ns#"
   xmlns:svg="http://www.w3.org/2000/svg"
   xmlns="http://www.w3.org/2000/svg"
   xmlns:xlink="http://www.w3.org/1999/xlink"
   xmlns:sodipodi="http://sodipodi.sourceforge.net/DTD/sodipodi-0.dtd"
   xmlns:inkscape="http://www.inkscape.org/namespaces/inkscape"
   width="22"
   height="22"
   id="svg2"
   sodipodi:version="0.32"
   inkscape:version="0.48.0 r9654"
   version="1.0"
   sodipodi:docname="object-rotate-right.svg"
   inkscape:output_extension="org.inkscape.output.svg.inkscape">
  <defs
     id="defs4">
    <linearGradient
       gradientUnits="userSpaceOnUse"
       y2="19.290417"
       x2="10.458337"
       y1="4.3967042"
       x1="10.458337"
       gradientTransform="scale(1.0744355,0.9307213)"
       id="linearGradient5056">
      <stop
         id="stop5058"
         offset="0"
         style="stop-color:#000000;stop-opacity:0.86274511;" />
      <stop
         id="stop5060"
         offset="1"
         style="stop-color:#000000;stop-opacity:0.47058824;" />
    </linearGradient>
    <filter
       inkscape:collect="always"
       id="filter3710">
      <feGaussianBlur
         inkscape:collect="always"
         stdDeviation="0.49359375"
         id="feGaussianBlur3712" />
    </filter>
    <linearGradient
       inkscape:collect="always"
       xlink:href="#StandardGradient"
       id="linearGradient2862"
       gradientUnits="userSpaceOnUse"
       x1="11"
       y1="2"
       x2="10.917386"
       y2="19.380394"
       gradientTransform="matrix(-1,0,0,1,22.09375,0)" />
    <linearGradient
       id="StandardGradient"
       gradientTransform="matrix(1.0765258,0,0,0.9227364,-0.00801316,0.1584665)"
       x1="10.005832"
       y1="4.1631975"
       x2="10.005832"
       y2="17.168188"
       gradientUnits="userSpaceOnUse">
      <stop
         id="stop3337"
         offset="0"
         style="stop-color:#ebebeb;stop-opacity:1;" />
      <stop
         id="stop3339"
         offset="1"
         style="stop-color:#aaaaaa;stop-opacity:1;" />
    </linearGradient>
    <linearGradient
       y2="17.168188"
       x2="10.005832"
       y1="4.1631975"
       x1="10.005832"
       gradientTransform="matrix(1.0765258,0,0,0.9227364,-17.639638,-3.4421587)"
       gradientUnits="userSpaceOnUse"
       id="linearGradient4353"
       xlink:href="#StandardGradient"
       inkscape:collect="always" />
    <linearGradient
       inkscape:collect="always"
       xlink:href="#StandardGradient"
       id="linearGradient5079"
       gradientUnits="userSpaceOnUse"
       gradientTransform="matrix(-1,0,0,1,22.09375,0)"
       x1="11"
       y1="2"
       x2="10.917386"
       y2="19.380394" />
  </defs>
  <sodipodi:namedview
     id="base"
     pagecolor="#ffffff"
     bordercolor="#9a9a9a"
     borderopacity="1"
     inkscape:pageopacity="0.0"
     inkscape:pageshadow="2"
     inkscape:zoom="18.396699"
     inkscape:cx="0.22982102"
     inkscape:cy="14.305325"
     inkscape:document-units="px"
     inkscape:current-layer="layer1"
     showgrid="true"
     inkscape:showpageshadow="false"
     showguides="true"
     inkscape:guide-bbox="true"
     inkscape:window-width="1920"
     inkscape:window-height="1026"
     inkscape:window-x="0"
     inkscape:window-y="25"
     inkscape:window-maximized="1"
     inkscape:snap-global="false">
    <sodipodi:guide
       orientation="0,1"
       position="26.278146,128"
       id="guide2385" />
    <sodipodi:guide
       orientation="1,0"
       position="128,54.082119"
       id="guide2387" />
    <inkscape:grid
       type="xygrid"
       id="grid3672"
       visible="true"
       enabled="true"
       empspacing="8"
       snapvisiblegridlinesonly="true" />
  </sodipodi:namedview>
  <metadata
     id="metadata7">
    <rdf:RDF>
      <cc:Work
         rdf:about="">
        <dc:format>image/svg+xml</dc:format>
        <dc:type
           rdf:resource="http://purl.org/dc/dcmitype/StillImage" />
      </cc:Work>
    </rdf:RDF>
  </metadata>
  <g
     inkscape:groupmode="layer"
     id="layer1"
     inkscape:label="Calque 1"
     style="display:inline">
    <path
       sodipodi:type="inkscape:offset"
       inkscape:radius="0.99935192"
       inkscape:original="M 10.09375 2 L 10.09375 4.0625 C 6.149307 4.5563109 3.09375 7.9217123 3.09375 12 C 3.09375 16.418278 6.675472 20 11.09375 20 C 14.368925 20 16.519909 18.599708 18 16 L 15.8125 14.71875 C 14.632143 16.318423 13.230278 17.36311 11.09375 17.40625 C 8.099795 17.40625 5.6875 14.993955 5.6875 12 C 5.6875 11.812878 5.66899 11.619739 5.6875 11.4375 C 5.931453 9.035339 7.75072 7.1179416 10.09375 6.6875 L 10.09375 9 L 15.125 5.4375 L 10.09375 2 z M 11.09375 10 C 9.989181 10 9.09375 10.895431 9.09375 12 C 9.09375 13.104569 9.989181 14 11.09375 14 C 12.198319 14 13.09375 13.104569 13.09375 12 C 13.09375 10.895431 12.198319 10 11.09375 10 z "
       style="fill:#000000;fill-opacity:1;stroke:none;opacity:0.25"
       id="path5081"
       d="M 10,1 A 0.99945185,0.99945185 0 0 0 9.09375,2 l 0,1.34375 c -3.9806841,0.9304458 -7,4.4022894 -7,8.65625 0,4.958368 4.0416321,9 9,9 3.560022,0 6.171528,-1.672602 7.78125,-4.5 A 0.99945185,0.99945185 0 0 0 18.5,15.125 L 16.3125,13.84375 A 0.99945185,0.99945185 0 0 0 15,14.125 c -1.072318,1.453254 -2.108362,2.23513 -3.90625,2.28125 -0.01074,0 -0.02053,7.4e-5 -0.03125,0 C 8.6205276,16.389309 6.6875,14.446416 6.6875,12 c 0,-0.253026 -0.00457,-0.423768 0,-0.46875 C 6.8379182,10.050109 7.8442733,8.9869592 9.09375,8.3125 l 0,0.6875 A 0.99945185,0.99945185 0 0 0 9.375,9.6875 C 8.6353469,10.236071 8.09375,11.017705 8.09375,12 c 0,1.644659 1.3553406,3 3,3 1.644659,0 3,-1.355341 3,-3 0,-1.474354 -1.152214,-2.5712287 -2.5625,-2.8125 L 15.6875,6.25 a 0.99945185,0.99945185 0 0 0 0,-1.625 L 10.65625,1.1875 A 0.99945185,0.99945185 0 0 0 10,1 z" />
    <path
       style="fill:url(#linearGradient2862);fill-opacity:1.0;stroke:none"
       d="M 10.09375,2 15.125,5.4375 10.09375,9 l 0,-2.3125 c -2.34303,0.4304416 -4.162297,2.347839 -4.40625,4.75 -0.01851,0.182239 0,0.375378 0,0.5625 0,2.993955 2.412295,5.40625 5.40625,5.40625 2.136528,-0.04314 3.538393,-1.087827 4.71875,-2.6875 L 18,16 c -1.480091,2.599708 -3.631075,4 -6.90625,4 -4.418278,0 -8,-3.581722 -8,-8 0,-4.0782877 3.055557,-7.4436891 7,-7.9375 l 0,-2.0625 z m 1,8 c 1.104569,0 2,0.895431 2,2 0,1.104569 -0.895431,2 -2,2 -1.104569,0 -2,-0.895431 -2,-2 0,-1.104569 0.895431,-2 2,-2 z"
       id="path2856"
       sodipodi:nodetypes="ccccssccccscccsssc" />
    <path
       style="opacity:0.6;fill:#ffffff;fill-opacity:1;stroke:none"
       d="M 10.09375,2 15.125,5.4375 14.40625,5.9375 10.09375,3 l 0,-1 z m 0,2.0625 0,1 C 6.303547,5.5370014 3.351436,8.6691798 3.125,12.53125 3.113206,12.35354 3.09375,12.180696 3.09375,12 c 0,-4.0782877 3.055557,-7.4436891 7,-7.9375 z m 1,5.9375 c 1.104569,0 2,0.895431 2,2 0,0.172589 -0.0214,0.340241 -0.0625,0.5 -0.221963,-0.862699 -1.00552,-1.5 -1.9375,-1.5 -0.93198,0 -1.715537,0.637301 -1.9375,1.5 -0.041104,-0.159759 -0.0625,-0.327411 -0.0625,-0.5 0,-1.104569 0.895431,-2 2,-2 z m -5.375,2.34375 c 0.174989,2.833985 2.495621,5.0625 5.375,5.0625 2.136528,-0.04314 3.538393,-1.087827 4.71875,-2.6875 L 18,16 c -0.146531,0.257375 -0.308627,0.485081 -0.46875,0.71875 l -1.71875,-1 c -1.180357,1.599673 -2.582222,2.64436 -4.71875,2.6875 -2.993955,0 -5.40625,-2.412295 -5.40625,-5.40625 0,-0.187122 -0.01851,-0.380261 0,-0.5625 0.0034,-0.03303 0.0273,-0.0609 0.03125,-0.09375 z"
       id="path3679" />
    <path
       style="opacity:0.45;fill:#000000;fill-opacity:1;stroke:none"
       d="m 14.40625,5.9375 0.71875,0.5 -5.03125,3.5625 0,-1 4.3125,-3.0625 z m -4.3125,0.75 0,1 C 7.78294,8.1120224 6.001882,9.9879585 5.71875,12.34375 5.71175,12.23098 5.6875,12.114576 5.6875,12 c 0,-0.187122 -0.01851,-0.380261 0,-0.5625 0.243953,-2.402161 2.06322,-4.3195584 4.40625,-4.75 z m 2.9375,5.8125 c 0.0411,0.159759 0.0625,0.327411 0.0625,0.5 0,1.104569 -0.895431,2 -2,2 -1.104569,0 -2,-0.895431 -2,-2 0,-0.172589 0.0214,-0.340241 0.0625,-0.5 0.221963,0.862699 1.00552,1.5 1.9375,1.5 0.93198,0 1.715537,-0.637301 1.9375,-1.5 z M 3.125,12.53125 C 3.401581,16.698801 6.856168,20 11.09375,20 c 2.950927,0 4.98025,-1.154668 6.4375,-3.28125 L 18,17 c -1.480091,2.599708 -3.631075,4 -6.90625,4 -4.418278,0 -8,-3.581722 -8,-8 0,-0.159474 0.02203,-0.311585 0.03125,-0.46875 z"
       id="path3688" />
  </g>
</svg>
