<?xml version="1.0" encoding="UTF-8" standalone="no"?>
<!-- Created with Inkscape (http://www.inkscape.org/) -->

<svg
   xmlns:dc="http://purl.org/dc/elements/1.1/"
   xmlns:cc="http://creativecommons.org/ns#"
   xmlns:rdf="http://www.w3.org/1999/02/22-rdf-syntax-ns#"
   xmlns:svg="http://www.w3.org/2000/svg"
   xmlns="http://www.w3.org/2000/svg"
   xmlns:xlink="http://www.w3.org/1999/xlink"
   xmlns:sodipodi="http://sodipodi.sourceforge.net/DTD/sodipodi-0.dtd"
   xmlns:inkscape="http://www.inkscape.org/namespaces/inkscape"
   width="22"
   height="22"
   id="svg2"
   sodipodi:version="0.32"
   inkscape:version="0.48.0 r9654"
   version="1.0"
   sodipodi:docname="podcast-new.svg"
   inkscape:output_extension="org.inkscape.output.svg.inkscape"
   inkscape:export-filename="/home/matt/.icons/Sirocco/scalable/mimetypes/text-plain.png"
   inkscape:export-xdpi="90"
   inkscape:export-ydpi="90"
   sodipodi:modified="true"
   style="display:inline">
  <sodipodi:namedview
     id="base"
     pagecolor="#ffffff"
     bordercolor="#666666"
     borderopacity="1.0"
     inkscape:pageopacity="0.0"
     inkscape:pageshadow="2"
     inkscape:zoom="14.247453"
     inkscape:cx="26.043674"
     inkscape:cy="7.5498636"
     inkscape:document-units="px"
     inkscape:current-layer="layer1"
     width="128px"
     height="128px"
     inkscape:showpageshadow="false"
     inkscape:window-width="1920"
     inkscape:window-height="1026"
     inkscape:window-x="0"
     inkscape:window-y="25"
     showguides="true"
     inkscape:guide-bbox="true"
     showgrid="true"
     inkscape:window-maximized="1">
    <sodipodi:guide
       id="guide2226"
       position="32.637397,117.99844"
       orientation="horizontal" />
    <sodipodi:guide
       id="guide2230"
       position="110,57.402344"
       orientation="vertical" />
    <sodipodi:guide
       id="guide2232"
       position="33.760911"
       orientation="horizontal" />
    <sodipodi:guide
       id="guide2231"
       position="46.774696"
       orientation="horizontal" />
    <inkscape:grid
       enabled="true"
       visible="true"
       id="grid3231"
       type="xygrid" />
    <sodipodi:guide
       orientation="1,0"
       position="100,67.625"
       id="guide2713" />
  </sodipodi:namedview>
  <defs
     id="defs4">
    <linearGradient
       gradientUnits="userSpaceOnUse"
       y2="19.387045"
       x2="11.998966"
       y1="0.92195445"
       x1="11.998966"
       gradientTransform="scale(0.9219544,1.0846523)"
       id="linearGradient4519">
      <stop
         id="stop4521"
         offset="0"
         style="stop-color:#000000;stop-opacity:0.86274511;" />
      <stop
         id="stop4523"
         offset="1"
         style="stop-color:#000000;stop-opacity:0.47058824;" />
    </linearGradient>
    <linearGradient
       id="linearGradient3693">
      <stop
         style="stop-color:#ffffff;stop-opacity:1;"
         offset="0"
         id="stop3695" />
      <stop
         style="stop-color:#ffffff;stop-opacity:0;"
         offset="1"
         id="stop3697" />
    </linearGradient>
    <linearGradient
       id="StandardGradient"
       gradientTransform="scale(0.9219544,1.0846523)"
       x1="11.998966"
       y1="0.92195445"
       x2="11.998966"
       y2="19.387045"
       gradientUnits="userSpaceOnUse">
      <stop
         style="stop-color:#000000;stop-opacity:0.86274511;"
         offset="0"
         id="stop3283" />
      <stop
         style="stop-color:#000000;stop-opacity:0.47058824;"
         offset="1"
         id="stop2651" />
    </linearGradient>
    <linearGradient
       inkscape:collect="always"
       xlink:href="#linearGradient3693"
       id="linearGradient3663"
       x1="1"
       y1="11"
       x2="21"
       y2="11"
       gradientUnits="userSpaceOnUse"
       gradientTransform="matrix(0,1,-1,0,22,0)" />
    <linearGradient
       inkscape:collect="always"
       xlink:href="#linearGradient3693"
       id="linearGradient3676"
       x1="4"
       y1="10"
       x2="18"
       y2="10"
       gradientUnits="userSpaceOnUse"
       gradientTransform="matrix(0,1,-1,0,21,-1)" />
    <linearGradient
       inkscape:collect="always"
       xlink:href="#linearGradient3693"
       id="linearGradient3699"
       x1="7"
       y1="9"
       x2="15"
       y2="9"
       gradientUnits="userSpaceOnUse"
       gradientTransform="matrix(0,1,-1,0,20,-2)" />
    <linearGradient
       inkscape:collect="always"
       xlink:href="#StandardGradient"
       id="linearGradient3731"
       gradientUnits="userSpaceOnUse"
       x1="12"
       y1="8"
       x2="12"
       y2="21.038404"
       gradientTransform="translate(0,20)" />
    <linearGradient
       inkscape:collect="always"
       xlink:href="#StandardGradient-1"
       id="linearGradient2888"
       gradientUnits="userSpaceOnUse"
       x1="12"
       y1="8"
       x2="12"
       y2="21.038404" />
    <filter
       inkscape:collect="always"
       id="filter3693"
       x="-0.11395057"
       width="1.2279011"
       y="-0.05262592"
       height="1.1052518">
      <feGaussianBlur
         inkscape:collect="always"
         stdDeviation="0.28505707"
         id="feGaussianBlur3695" />
    </filter>
    <linearGradient
       id="StandardGradient-1"
       gradientTransform="matrix(1.0765258,0,0,0.9227364,-0.00801316,0.1584665)"
       x1="10.005832"
       y1="4.1631975"
       x2="10.005832"
       y2="17.168188"
       gradientUnits="userSpaceOnUse">
      <stop
         id="stop3337"
         offset="0"
         style="stop-color:#ebebeb;stop-opacity:1;" />
      <stop
         id="stop3339"
         offset="1"
         style="stop-color:#aaaaaa;stop-opacity:1;" />
    </linearGradient>
    <linearGradient
       y2="17.168188"
       x2="10.005832"
       y1="4.1631975"
       x1="10.005832"
       gradientTransform="matrix(1.0765258,0,0,0.9227364,-12.008013,-0.8415335)"
       gradientUnits="userSpaceOnUse"
       id="linearGradient4353"
       xlink:href="#StandardGradient-1"
       inkscape:collect="always" />
    <linearGradient
       inkscape:collect="always"
       xlink:href="#StandardGradient-1"
       id="linearGradient4542"
       gradientUnits="userSpaceOnUse"
       x1="12"
       y1="8"
       x2="12"
       y2="21.038404" />
  </defs>
  <metadata
     id="metadata7">
    <rdf:RDF>
      <cc:Work
         rdf:about="">
        <dc:format>image/svg+xml</dc:format>
        <dc:type
           rdf:resource="http://purl.org/dc/dcmitype/StillImage" />
        <dc:title />
      </cc:Work>
    </rdf:RDF>
  </metadata>
  <g
     style="display:inline"
     inkscape:label="Calque 1"
     id="layer1"
     inkscape:groupmode="layer">
    <path
       sodipodi:type="inkscape:offset"
       inkscape:radius="0.95465976"
       inkscape:original="M 11 8 C 9.8954305 8 9 8.89543 9 10 C 9 11.104569 9.8954305 12 11 12 C 12.104569 12 13 11.104569 13 10 C 13 8.89543 12.104569 8 11 8 z M 11 13 C 11 13 8.057479 12.98823 8 15 C 7.924416 17.645457 9 21 9 21 L 13 21 C 13 21 14 17.825844 14 15 C 14 13.04571 11 13 11 13 z "
       style="color:#000000;fill:#000000;fill-opacity:1;fill-rule:nonzero;stroke:none;stroke-width:1;marker:none;visibility:visible;display:inline;overflow:visible;enable-background:accumulate;opacity:0.25"
       id="path4544"
       d="m 11,7.03125 c -1.6205056,0 -2.96875,1.3482438 -2.96875,2.96875 0,1.005095 0.5985291,1.777724 1.375,2.3125 -0.094855,0.02576 -0.090296,-0.0013 -0.1875,0.03125 -0.4624074,0.154711 -0.9754294,0.38493 -1.40625,0.8125 -0.4308206,0.42757 -0.7602384,1.077093 -0.78125,1.8125 -0.083626,2.926932 1.0625,6.3125 1.0625,6.3125 A 0.95475523,0.95475523 0 0 0 9,21.96875 l 4,0 a 0.95475523,0.95475523 0 0 0 0.90625,-0.6875 c 0,0 1.0625,-3.230185 1.0625,-6.28125 0,-0.73282 -0.320484,-1.386256 -0.75,-1.8125 -0.429516,-0.426244 -0.943363,-0.654678 -1.40625,-0.8125 -0.144511,-0.04927 -0.142646,-0.02731 -0.28125,-0.0625 0.803277,-0.530565 1.4375,-1.286815 1.4375,-2.3125 0,-1.6205065 -1.348245,-2.96875 -2.96875,-2.96875 z" />
    <path
       style="opacity:0.29999999999999999;color:#000000;fill:url(#linearGradient3663);fill-opacity:1.0;stroke:none;stroke-width:1;marker:none;visibility:visible;display:inline;overflow:visible;enable-background:accumulate"
       d="M 21,11 C 21,5.4771525 16.522847,1 11,1 5.477153,1 1,5.4771525 1,11 c 0,5.522847 4.477153,10 10,10 5.522847,0 10,-4.477153 10,-10 z m -1,0 c 0,1.331849 -0.289296,2.596129 -0.808478,3.733429 C 17.773078,17.84062 14.638714,20 11,20 6.029437,20 2,15.970563 2,11 2,6.0294373 6.029437,2 11,2 c 4.970563,0 9,4.0294373 9,9 z"
       id="path2880"
       sodipodi:nodetypes="csssccssssc" />
    <path
       style="opacity:0.29999999999999999;color:#000000;fill:url(#linearGradient3676);fill-opacity:1.0;fill-rule:nonzero;stroke:none;stroke-width:1;marker:none;visibility:visible;display:inline;overflow:visible;enable-background:accumulate"
       d="M 18,10 C 18,6.1340068 14.865993,3 11,3 7.134007,3 4,6.1340068 4,10 c 0,3.865993 3.134007,7 7,7 3.865993,0 7,-3.134007 7,-7 z m -1,0 c 0,3.313709 -2.686291,6 -6,6 -3.313709,0 -6,-2.686291 -6,-6 0,-3.3137085 2.686291,-6 6,-6 3.313709,0 6,2.6862915 6,6 z"
       id="path3665" />
    <path
       style="opacity:0.3;color:#000000;fill:url(#linearGradient3699);fill-opacity:1;fill-rule:nonzero;stroke:none;stroke-width:1;marker:none;visibility:visible;display:inline;overflow:visible;enable-background:accumulate"
       d="M 15,9 C 15,6.790861 13.209139,5 11,5 8.790861,5 7,6.790861 7,9 c 0,2.209139 1.790861,4 4,4 2.209139,0 4,-1.790861 4,-4 z m -1,0 c 0,1.656854 -1.343146,3 -3,3 C 9.343146,12 8,10.656854 8,9 8,7.3431458 9.343146,6 11,6 c 1.656854,0 3,1.3431458 3,3 z"
       id="path3688" />
    <path
       style="color:#000000;fill:url(#linearGradient2888);fill-opacity:1.0;fill-rule:nonzero;stroke:none;stroke-width:1;marker:none;visibility:visible;display:inline;overflow:visible;enable-background:accumulate"
       d="m 11,8 c -1.1045695,0 -2,0.89543 -2,2 0,1.104569 0.8954305,2 2,2 1.104569,0 2,-0.895431 2,-2 0,-1.10457 -0.895431,-2 -2,-2 z m 0,5 c 0,0 -2.942521,-0.01177 -3,2 -0.075584,2.645457 1,6 1,6 l 4,0 c 0,0 1,-3.174156 1,-6 0,-1.95429 -3,-2 -3,-2 z"
       id="path2886" />
    <path
       style="color:#000000;fill:#ffffff;fill-opacity:1;fill-rule:nonzero;stroke:none;stroke-width:1;marker:none;visibility:visible;display:inline;overflow:visible;enable-background:accumulate;opacity:0.6"
       d="M 11 8 C 9.8954305 8 9 8.89543 9 10 C 9 10.172589 9.0213958 10.340241 9.0625 10.5 C 9.2844627 9.6373005 10.068019 9 11 9 C 11.93198 9 12.715537 9.6373005 12.9375 10.5 C 12.978604 10.340241 13 10.172589 13 10 C 13 8.89543 12.104569 8 11 8 z M 11 13 C 11 13 8.057479 12.98823 8 15 C 7.9939845 15.210544 8.0238048 15.438771 8.03125 15.65625 C 8.4018862 13.999896 11 14 11 14 C 11 14 13.63916 14.040943 13.96875 15.65625 C 13.979762 15.435428 14 15.218289 14 15 C 14 13.04571 11 13 11 13 z "
       id="path2890" />
    <path
       style="color:#000000;fill:#000000;fill-opacity:1;fill-rule:nonzero;stroke:none;stroke-width:1;marker:none;visibility:visible;display:inline;overflow:visible;enable-background:accumulate;opacity:0.45"
       d="M 9.0625 10.5 C 9.0213958 10.659759 9 10.827411 9 11 C 9 12.104569 9.8954305 13 11 13 C 12.104569 13 13 12.104569 13 11 C 13 10.827411 12.978604 10.659759 12.9375 10.5 C 12.715537 11.362699 11.93198 12 11 12 C 10.068019 12 9.2844627 11.362699 9.0625 10.5 z M 8.03125 15.75 C 8.0171866 15.833505 8.0026207 15.908275 8 16 C 7.924416 18.645457 9 22 9 22 L 13 22 C 13 22 14 18.825844 14 16 C 14 15.910896 13.980654 15.831346 13.96875 15.75 C 13.822005 18.357455 13 21 13 21 L 9 21 C 9 21 8.1361334 18.241568 8.03125 15.75 z "
       id="path3671" />
  </g>
</svg>
