<?xml version="1.0" encoding="UTF-8" standalone="no"?>
<!-- Created with Inkscape (http://www.inkscape.org/) -->

<svg
   xmlns:dc="http://purl.org/dc/elements/1.1/"
   xmlns:cc="http://creativecommons.org/ns#"
   xmlns:rdf="http://www.w3.org/1999/02/22-rdf-syntax-ns#"
   xmlns:svg="http://www.w3.org/2000/svg"
   xmlns="http://www.w3.org/2000/svg"
   xmlns:xlink="http://www.w3.org/1999/xlink"
   xmlns:sodipodi="http://sodipodi.sourceforge.net/DTD/sodipodi-0.dtd"
   xmlns:inkscape="http://www.inkscape.org/namespaces/inkscape"
   inkscape:output_extension="org.inkscape.output.svg.inkscape"
   sodipodi:docname="system-run.svg"
   version="1.0"
   inkscape:version="0.48.0 r9654"
   sodipodi:version="0.32"
   id="svg2"
   height="22"
   width="22">
  <defs
     id="defs4">
    <linearGradient
       id="StandardGradient-9">
      <stop
         style="stop-color:#000000;stop-opacity:0.86274511;"
         offset="0"
         id="stop3389-8" />
      <stop
         style="stop-color:#000000;stop-opacity:0.47058824;"
         offset="1"
         id="stop3391-3" />
    </linearGradient>
    <linearGradient
       y2="45.017357"
       x2="20.758585"
       y1="1"
       x1="20.758585"
       gradientTransform="matrix(0.41860332,0,0,0.41860332,0.9535131,1.3721447)"
       gradientUnits="userSpaceOnUse"
       id="linearGradient4427"
       xlink:href="#StandardGradient"
       inkscape:collect="always" />
    <filter
       inkscape:collect="always"
       id="filter4465">
      <feGaussianBlur
         inkscape:collect="always"
         stdDeviation="0.53999973"
         id="feGaussianBlur4467" />
    </filter>
    <linearGradient
       id="StandardGradient"
       gradientTransform="matrix(1.0765258,0,0,0.9227364,-0.00801316,0.1584665)"
       x1="10.005832"
       y1="4.1631975"
       x2="10.005832"
       y2="17.168188"
       gradientUnits="userSpaceOnUse">
      <stop
         id="stop3337"
         offset="0"
         style="stop-color:#ebebeb;stop-opacity:1;" />
      <stop
         id="stop3339"
         offset="1"
         style="stop-color:#aaaaaa;stop-opacity:1;" />
    </linearGradient>
    <linearGradient
       y2="17.168188"
       x2="10.005832"
       y1="4.1631975"
       x1="10.005832"
       gradientTransform="matrix(1.0765258,0,0,0.9227364,-33.008013,-6.8415335)"
       gradientUnits="userSpaceOnUse"
       id="linearGradient4353"
       xlink:href="#StandardGradient"
       inkscape:collect="always" />
    <linearGradient
       inkscape:collect="always"
       xlink:href="#StandardGradient"
       id="linearGradient6326"
       gradientUnits="userSpaceOnUse"
       gradientTransform="matrix(0.41860332,0,0,0.41860332,0.9535131,1.3721447)"
       x1="20.758585"
       y1="1"
       x2="20.758585"
       y2="45.017357" />
  </defs>
  <sodipodi:namedview
     id="base"
     pagecolor="#ffffff"
     bordercolor="#e7e7e7"
     borderopacity="1"
     inkscape:pageopacity="0.0"
     inkscape:pageshadow="2"
     inkscape:zoom="12.086289"
     inkscape:cx="-10.581986"
     inkscape:cy="14.495051"
     inkscape:document-units="px"
     inkscape:current-layer="layer1"
     showgrid="true"
     inkscape:showpageshadow="false"
     showguides="true"
     inkscape:guide-bbox="true"
     inkscape:window-width="1920"
     inkscape:window-height="1026"
     inkscape:window-x="0"
     inkscape:window-y="25"
     inkscape:window-maximized="1">
    <sodipodi:guide
       orientation="1,0"
       position="0,112"
       id="guide2383" />
    <sodipodi:guide
       orientation="0,1"
       position="78.156291,0"
       id="guide2389" />
    <inkscape:grid
       type="xygrid"
       id="grid3672"
       visible="true"
       enabled="true" />
    <sodipodi:guide
       orientation="1,0"
       position="22.008699,4.1542523"
       id="guide2950" />
    <sodipodi:guide
       orientation="0,1"
       position="11.22532,22.008699"
       id="guide2952" />
  </sodipodi:namedview>
  <metadata
     id="metadata7">
    <rdf:RDF>
      <cc:Work
         rdf:about="">
        <dc:format>image/svg+xml</dc:format>
        <dc:type
           rdf:resource="http://purl.org/dc/dcmitype/StillImage" />
      </cc:Work>
    </rdf:RDF>
  </metadata>
  <g
     inkscape:label="Calque 1"
     inkscape:groupmode="layer"
     id="layer1">
    <path
       sodipodi:type="inkscape:offset"
       inkscape:radius="0.99286062"
       inkscape:original="M 9.75 2 C 9.395805 2 9.125 2.2960032 9.125 2.65625 L 9.125 3.9375 C 8.4916798 4.106241 7.8661828 4.3342326 7.3125 4.65625 L 6.40625 3.78125 C 6.2788808 3.6538872 6.1335758 3.563895 5.96875 3.5625 C 5.8039245 3.5610858 5.6564755 3.624783 5.53125 3.75 L 3.75 5.53125 C 3.4995497 5.781702 3.5265324 6.1515166 3.78125 6.40625 L 4.65625 7.3125 C 4.33423 7.8661826 4.1062451 8.491679 3.9375 9.125 L 2.65625 9.125 C 2.2960025 9.125 2 9.3958072 2 9.75 L 2 12.25 C 2 12.604192 2.2960033 12.875 2.65625 12.875 L 3.9375 12.875 C 4.1062452 13.508322 4.3342349 14.133819 4.65625 14.6875 L 3.78125 15.59375 C 3.5265172 15.848483 3.4995281 16.218298 3.75 16.46875 L 5.53125 18.25 C 5.7817002 18.500452 6.1515168 18.47348 6.40625 18.21875 L 7.3125 17.34375 C 7.8661828 17.665767 8.4916799 17.893758 9.125 18.0625 L 9.125 19.34375 C 9.125 19.703997 9.395805 20 9.75 20 L 12.25 20 C 12.604194 20 12.875 19.703997 12.875 19.34375 L 12.875 18.0625 C 13.508321 17.893758 14.133818 17.665767 14.6875 17.34375 L 15.59375 18.21875 C 15.84848 18.473481 16.218298 18.500463 16.46875 18.25 L 18.25 16.46875 C 18.50045 16.218297 18.47345 15.848482 18.21875 15.59375 L 17.34375 14.6875 C 17.665766 14.133819 17.893759 13.508322 18.0625 12.875 L 19.34375 12.875 C 19.703993 12.875008 20 12.604193 20 12.25 L 20 9.75 C 20 9.3958086 19.703993 9.125 19.34375 9.125 L 18.0625 9.125 C 17.893759 8.4916804 17.665766 7.8661838 17.34375 7.3125 L 18.21875 6.40625 C 18.47348 6.1515178 18.500482 5.781702 18.25 5.53125 L 16.46875 3.75 C 16.218293 3.4995506 15.848484 3.52655 15.59375 3.78125 L 14.6875 4.65625 C 14.133817 4.3342312 13.508321 4.1062424 12.875 3.9375 L 12.875 2.65625 C 12.875 2.2960006 12.604191 2 12.25 2 L 9.75 2 z M 11 8.28125 C 12.501951 8.28125 13.71875 9.4980513 13.71875 11 C 13.71875 12.501951 12.501948 13.71875 11 13.71875 C 9.498052 13.71875 8.28125 12.501951 8.28125 11 C 8.28125 9.4980513 9.498052 8.28125 11 8.28125 z "
       style="fill:#000000;fill-opacity:1;fill-rule:nonzero;stroke:none;stroke-width:1;marker:none;visibility:visible;display:block;overflow:visible;enable-background:accumulate;opacity:0.25"
       id="path6328"
       d="M 9.75,1 C 8.8426447,1 8.125,1.7984339 8.125,2.65625 l 0,0.625 C 7.9371062,3.3468798 7.7480021,3.4197883 7.5625,3.5 l -0.46875,-0.4375 0,0.03125 c -0.0052,-0.0052 -0.025892,0.00525 -0.03125,0 C 6.8319713,2.8680394 6.4781505,2.5668113 5.96875,2.5625 c -0.4256727,-0.00365 -0.8432632,0.2182823 -1.125,0.5 L 3.0625,4.84375 C 2.4487853,5.4574689 2.5426064,6.4874575 3.09375,7.0625 L 3.0625,7.09375 3.5,7.5625 C 3.4197885,7.7480026 3.3468791,7.9371069 3.28125,8.125 l -0.625,0 C 1.7984301,8.125 1,8.8426448 1,9.75 l 0,2.5 c 0,0.907357 0.7984284,1.625 1.65625,1.625 l 0.625,0 c 0.06563,0.187893 0.1385388,0.376998 0.21875,0.5625 L 3.0625,14.90625 3.09375,14.9375 C 2.5425855,15.512531 2.448744,16.542543 3.0625,17.15625 l 1.78125,1.78125 c 0.6137088,0.613713 1.6437019,0.519925 2.21875,-0.03125 l 0.03125,0 0,0.03125 L 7.5625,18.5 c 0.185502,0.08021 0.3746064,0.15312 0.5625,0.21875 l 0,0.625 C 8.125,20.201566 8.8426451,21 9.75,21 l 2.5,0 c 0.907355,0 1.625,-0.798432 1.625,-1.65625 l 0,-0.625 C 14.062894,18.65312 14.251998,18.580212 14.4375,18.5 l 0.46875,0.4375 0,-0.03125 0.03125,0 c 0.57504,0.551176 1.605039,0.644988 2.21875,0.03125 l 1.78125,-1.78125 c 0.613728,-0.613736 0.519853,-1.643715 -0.03125,-2.21875 -0.0067,-0.007 0.0069,-0.02437 0,-0.03125 l 0.03125,0 L 18.5,14.4375 c 0.08021,-0.185502 0.15312,-0.374606 0.21875,-0.5625 l 0.625,0 C 20.201598,13.875019 21,13.157364 21,12.25 l 0,-2.5 C 21,8.8426356 20.201574,8.125 19.34375,8.125 l -0.625,0 C 18.65312,7.9371063 18.580212,7.7480018 18.5,7.5625 l 0.4375,-0.46875 -0.03125,0 0,-0.03125 C 19.457401,6.4874779 19.551285,5.4574614 18.9375,4.84375 L 17.15625,3.0625 C 16.542518,2.448787 15.512531,2.5426556 14.9375,3.09375 L 14.90625,3.0625 14.4375,3.5 C 14.251998,3.4197884 14.062894,3.3468795 13.875,3.28125 l 0,-0.625 C 13.875,1.7984275 13.157353,1 12.25,1 L 9.75,1 z M 11,9.28125 c 0.965709,0 1.71875,0.753043 1.71875,1.71875 0,0.965709 -0.753044,1.71875 -1.71875,1.71875 -0.965706,0 -1.71875,-0.753041 -1.71875,-1.71875 0,-0.965705 0.753045,-1.71875 1.71875,-1.71875 z" />
    <path
       d="m 9.757265,2.0000515 c -0.354195,0 -0.640989,0.2938192 -0.640989,0.654066 l 0,1.268892 C 8.4829558,4.0917505 7.8778156,4.3466293 7.3241328,4.6686467 L 6.4215182,3.7660341 C 6.294149,3.6386713 6.1415786,3.5712085 5.9767528,3.5698135 5.8119273,3.5683993 5.6441317,3.6277349 5.5189062,3.7529519 L 3.7529228,5.5189333 c -0.2504503,0.250452 -0.2416516,0.6478816 0.013066,0.902615 L 4.668603,7.3241597 C 4.346583,7.8778423 4.0917042,8.4829843 3.9229591,9.1163053 l -1.2688902,0 C 2.2938214,9.1163053 2,9.4031005 2,9.7572933 L 2,12.24275 c 0,0.354192 0.2938214,0.640988 0.6540681,0.640988 l 1.2688902,0 c 0.1687452,0.633322 0.4236241,1.238463 0.7456392,1.792144 L 3.765983,15.578496 c -0.2547328,0.254733 -0.2635319,0.65216 -0.01306,0.902612 l 1.7659834,1.765984 c 0.2504502,0.250452 0.6478788,0.24165 0.902612,-0.01308 L 7.324133,17.331398 c 0.5536828,0.322017 1.158823,0.576896 1.7921431,0.745638 l 0,1.268891 c 0,0.360247 0.286794,0.654068 0.640989,0.654068 l 2.4854559,0 c 0.354194,0 0.640987,-0.293821 0.640987,-0.654068 l 0,-1.268891 c 0.633321,-0.168742 1.238463,-0.423621 1.792145,-0.745638 l 0.902616,0.902615 c 0.25473,0.254731 0.65216,0.263533 0.902612,0.01307 l 1.765982,-1.765984 c 0.25045,-0.250453 0.24165,-0.647881 -0.01305,-0.902613 L 17.331404,14.67587 c 0.322016,-0.553681 0.576895,-1.158823 0.745636,-1.792145 l 1.268894,0 C 19.706177,12.883733 20,12.596939 20,12.242746 L 20,9.7572881 C 20,9.4030967 19.706177,9.1163013 19.345934,9.1163013 l -1.268894,0 C 17.908299,8.4829817 17.65342,7.8778397 17.331404,7.3241559 l 0.902614,-0.9026126 c 0.25473,-0.2547322 0.263532,-0.6521606 0.01305,-0.9026126 l -1.76598,-1.7659852 c -0.250457,-0.2504494 -0.647882,-0.24165 -0.902616,0.01305 L 14.675855,4.6686107 C 14.122172,4.3465919 13.517031,4.0917133 12.88371,3.9229709 l 0,-1.2688894 c 0,-0.3602494 -0.286793,-0.6540686 -0.640984,-0.6540686 l -2.485457,0 z m 1.242728,6.279048 c 1.501951,0 2.720923,1.2189728 2.720923,2.7209215 0,1.501951 -1.218975,2.720921 -2.720923,2.720921 -1.501948,0 -2.7209217,-1.21897 -2.7209217,-2.720921 0,-1.5019487 1.2189737,-2.7209215 2.7209217,-2.7209215 z"
       id="rect3267"
       style="fill:url(#linearGradient4427);fill-opacity:1.0;fill-rule:nonzero;stroke:none;stroke-width:1;marker:none;visibility:visible;display:block;overflow:visible;enable-background:accumulate" />
    <path
       style="opacity:0.6;fill:#ffffff;fill-opacity:1;fill-rule:nonzero;stroke:none;stroke-width:1;marker:none;visibility:visible;display:block;overflow:visible;enable-background:accumulate"
       d="M 9.75,2 C 9.395805,2 9.125,2.2960032 9.125,2.65625 l 0,1 C 9.125,3.2960032 9.395805,3 9.75,3 l 2.5,0 c 0.354191,0 0.625,0.2960006 0.625,0.65625 l 0,-1 C 12.875,2.2960006 12.604191,2 12.25,2 L 9.75,2 z M 5.96875,3.5625 C 5.8039245,3.5610858 5.6564755,3.624783 5.53125,3.75 L 3.75,5.53125 C 3.4995497,5.781702 3.5265324,6.1515166 3.78125,6.40625 L 3.8125,6.46875 5.53125,4.75 C 5.6564755,4.624783 5.8039245,4.5610858 5.96875,4.5625 6.1335758,4.56389 6.2788808,4.653887 6.40625,4.78125 l 0.90625,0.875 C 7.8661828,5.3342326 8.4916798,5.106241 9.125,4.9375 l 0,-1 C 8.4916798,4.106241 7.8661828,4.3342326 7.3125,4.65625 L 6.40625,3.78125 C 6.2788808,3.6538872 6.1335758,3.563895 5.96875,3.5625 z m 10.0625,0 c -0.162505,0.00273 -0.310133,0.0914 -0.4375,0.21875 l -0.90625,0.875 C 14.133817,4.3342312 13.508321,4.1062424 12.875,3.9375 l 0,1 c 0.633321,0.1687424 1.258817,0.3967312 1.8125,0.71875 l 0.90625,-0.875 c 0.254734,-0.2547 0.624543,-0.2816994 0.875,-0.03125 l 1.71875,1.71875 0.03125,-0.0625 C 18.47348,6.1515178 18.500482,5.781702 18.25,5.53125 L 16.46875,3.75 C 16.343522,3.6247753 16.193755,3.5597688 16.03125,3.5625 z M 4.34375,8 C 4.1815247,8.359319 4.040199,8.739558 3.9375,9.125 l -1.28125,0 C 2.2960025,9.125 2,9.3958072 2,9.75 l 0,1 c 0,-0.354192 0.2960025,-0.625 0.65625,-0.625 l 1.28125,0 C 4.1062451,9.4916793 4.33423,8.8661826 4.65625,8.3125 L 4.34375,8 z m 13.3125,0 -0.3125,0.3125 c 0.322016,0.5536838 0.550009,1.1791807 0.71875,1.8125 l 1.28125,0 C 19.703993,10.125 20,10.395809 20,10.75 l 0,-1 C 20,9.3958086 19.703993,9.125 19.34375,9.125 l -1.28125,0 C 17.959803,8.7395589 17.818474,8.3593191 17.65625,8 z m -9.3125,3.5625 C 8.321414,11.702776 8.28125,11.853468 8.28125,12 c 0,1.501951 1.216802,2.71875 2.71875,2.71875 1.501948,0 2.71875,-1.216799 2.71875,-2.71875 0,-0.146532 -0.04016,-0.297224 -0.0625,-0.4375 -0.253854,1.239508 -1.342046,2.15625 -2.65625,2.15625 -1.3142045,0 -2.4023964,-0.916742 -2.65625,-2.15625 z m -4,3.4375 -0.5625,0.59375 C 3.5265172,15.848483 3.4995281,16.218298 3.75,16.46875 l 0.0625,0.0625 0.84375,-0.84375 C 4.5302147,15.470792 4.448077,15.231079 4.34375,15 z m 13.3125,0 c -0.104327,0.231079 -0.186464,0.470792 -0.3125,0.6875 l 0.84375,0.84375 0.0625,-0.0625 c 0.25045,-0.250453 0.22345,-0.620268 -0.03125,-0.875 L 17.65625,15 z"
       id="path4379" />
    <path
       style="opacity:0.45;fill:#000000;fill-opacity:1;fill-rule:nonzero;stroke:none;stroke-width:1;marker:none;visibility:visible;display:block;overflow:visible;enable-background:accumulate"
       d="M 3.8125,6.46875 3.75,6.53125 C 3.4995497,6.781702 3.5265324,7.1515166 3.78125,7.40625 L 4.34375,8 C 4.4480777,7.7689208 4.5302128,7.5292089 4.65625,7.3125 L 3.8125,6.46875 z m 14.375,0 -0.84375,0.84375 C 17.469786,7.5292094 17.551923,7.7689207 17.65625,8 l 0.5625,-0.59375 C 18.47348,7.1515178 18.500482,6.781702 18.25,6.53125 L 18.1875,6.46875 z M 11,8.28125 c -1.501948,0 -2.71875,1.216801 -2.71875,2.71875 0,0.146532 0.040164,0.297224 0.0625,0.4375 C 8.5976036,10.197993 9.6857955,9.28125 11,9.28125 c 1.314207,0 2.402397,0.916743 2.65625,2.15625 C 13.67859,11.297224 13.71875,11.146532 13.71875,11 13.71875,9.498051 12.501951,8.28125 11,8.28125 z M 2,12.25 l 0,1 c 0,0.354192 0.2960033,0.625 0.65625,0.625 l 1.28125,0 C 4.0401991,14.260443 4.1815257,14.640682 4.34375,15 l 0.3125,-0.3125 C 4.3342349,14.133819 4.1062452,13.508322 3.9375,12.875 l -1.28125,0 C 2.2960033,12.875 2,12.604192 2,12.25 z m 18,0 c 0,0.354193 -0.296007,0.625008 -0.65625,0.625 l -1.28125,0 c -0.168741,0.633322 -0.396734,1.258819 -0.71875,1.8125 L 17.65625,15 c 0.162224,-0.359319 0.303553,-0.739557 0.40625,-1.125 l 1.28125,0 C 19.703993,13.875008 20,13.604193 20,13.25 l 0,-1 z M 3.8125,16.53125 3.78125,16.59375 C 3.5265172,16.848483 3.4995281,17.218298 3.75,17.46875 L 5.53125,19.25 c 0.2504502,0.250452 0.6202668,0.22348 0.875,-0.03125 l 0.90625,-0.875 c 0.5536828,0.322017 1.1791799,0.550008 1.8125,0.71875 l 0,-1 C 8.4916799,17.893758 7.8661828,17.665767 7.3125,17.34375 l -0.90625,0.875 C 6.1515168,18.47348 5.7817002,18.500452 5.53125,18.25 L 3.8125,16.53125 z m 14.375,0 -1.71875,1.71875 c -0.250452,0.250463 -0.62027,0.223481 -0.875,-0.03125 l -0.90625,-0.875 c -0.553682,0.322017 -1.179179,0.550008 -1.8125,0.71875 l 0,1 c 0.633321,-0.168742 1.258818,-0.396733 1.8125,-0.71875 l 0.90625,0.875 c 0.25473,0.254731 0.624548,0.281713 0.875,0.03125 L 18.25,17.46875 c 0.25045,-0.250453 0.22345,-0.620268 -0.03125,-0.875 l -0.03125,-0.0625 z m -9.0625,2.8125 0,1 C 9.125,20.703997 9.395805,21 9.75,21 l 2.5,0 c 0.354194,0 0.625,-0.296003 0.625,-0.65625 l 0,-1 C 12.875,19.703997 12.604194,20 12.25,20 l -2.5,0 C 9.395805,20 9.125,19.703997 9.125,19.34375 z"
       id="path4388" />
  </g>
</svg>
