<?xml version="1.0" encoding="UTF-8" standalone="no"?>
<!-- Created with Inkscape (http://www.inkscape.org/) -->

<svg
   xmlns:dc="http://purl.org/dc/elements/1.1/"
   xmlns:cc="http://creativecommons.org/ns#"
   xmlns:rdf="http://www.w3.org/1999/02/22-rdf-syntax-ns#"
   xmlns:svg="http://www.w3.org/2000/svg"
   xmlns="http://www.w3.org/2000/svg"
   xmlns:xlink="http://www.w3.org/1999/xlink"
   xmlns:sodipodi="http://sodipodi.sourceforge.net/DTD/sodipodi-0.dtd"
   xmlns:inkscape="http://www.inkscape.org/namespaces/inkscape"
   width="22"
   height="22"
   id="svg2"
   sodipodi:version="0.32"
   inkscape:version="0.48.0 r9654"
   version="1.0"
   sodipodi:docname="view-sort-descending.svg"
   inkscape:output_extension="org.inkscape.output.svg.inkscape">
  <defs
     id="defs4">
    <linearGradient
       gradientUnits="userSpaceOnUse"
       y2="18.097509"
       x2="11.162445"
       y1="5.6551228"
       x1="11.162445"
       gradientTransform="scale(1.1310246,0.8841541)"
       id="linearGradient4616">
      <stop
         id="stop4618"
         offset="0"
         style="stop-color:#000000;stop-opacity:0.86274511;" />
      <stop
         id="stop4620"
         offset="1"
         style="stop-color:#000000;stop-opacity:0.47058824;" />
    </linearGradient>
    <linearGradient
       inkscape:collect="always"
       xlink:href="#StandardGradient"
       id="linearGradient3786"
       gradientUnits="userSpaceOnUse"
       gradientTransform="scale(1.0598527,0.9435274)"
       x1="11.794092"
       y1="3.2126782"
       x2="11.794092"
       y2="20.137329" />
    <linearGradient
       id="StandardGradient"
       gradientTransform="matrix(1.0765258,0,0,0.9227364,-0.00801316,0.1584665)"
       x1="10.005832"
       y1="4.1631975"
       x2="10.005832"
       y2="17.168188"
       gradientUnits="userSpaceOnUse">
      <stop
         id="stop3337"
         offset="0"
         style="stop-color:#ebebeb;stop-opacity:1;" />
      <stop
         id="stop3339"
         offset="1"
         style="stop-color:#aaaaaa;stop-opacity:1;" />
    </linearGradient>
    <linearGradient
       y2="20.137329"
       x2="11.794092"
       y1="3.2126782"
       x1="11.794092"
       gradientTransform="matrix(1.0598527,0,0,0.9435274,-14,-6)"
       gradientUnits="userSpaceOnUse"
       id="linearGradient3234"
       xlink:href="#StandardGradient"
       inkscape:collect="always" />
    <linearGradient
       inkscape:collect="always"
       xlink:href="#StandardGradient"
       id="linearGradient4643"
       gradientUnits="userSpaceOnUse"
       gradientTransform="scale(1.1310246,0.8841541)"
       x1="11.162445"
       y1="5.6551228"
       x2="11.162445"
       y2="18.097509" />
    <linearGradient
       inkscape:collect="always"
       xlink:href="#StandardGradient"
       id="linearGradient3860"
       gradientUnits="userSpaceOnUse"
       gradientTransform="matrix(0,-1.1310246,0.8841541,0,3,17)"
       x1="13.262311"
       y1="6.7861471"
       x2="-2.6524622"
       y2="6.7861471" />
    <linearGradient
       id="StandardGradient-0"
       gradientTransform="scale(1.1310246,0.8841541)"
       x1="11.162445"
       y1="5.6551228"
       x2="11.162445"
       y2="18.097509"
       gradientUnits="userSpaceOnUse">
      <stop
         style="stop-color:#000000;stop-opacity:0.86274511;"
         offset="0"
         id="stop3280" />
      <stop
         style="stop-color:#000000;stop-opacity:0.47058824;"
         offset="1"
         id="stop3282" />
    </linearGradient>
    <linearGradient
       inkscape:collect="always"
       xlink:href="#StandardGradient"
       id="linearGradient3840"
       gradientUnits="userSpaceOnUse"
       gradientTransform="matrix(0,1.1310246,0.8841541,0,3,5.0000002)"
       x1="13.262311"
       y1="6.7861471"
       x2="-2.6524622"
       y2="6.7861471" />
    <linearGradient
       inkscape:collect="always"
       xlink:href="#StandardGradient"
       id="linearGradient3842"
       gradientUnits="userSpaceOnUse"
       gradientTransform="matrix(0,-1.1310246,0.8841541,0,3,17)"
       x1="13.262311"
       y1="6.7861471"
       x2="-2.6524622"
       y2="6.7861471" />
    <linearGradient
       inkscape:collect="always"
       xlink:href="#StandardGradient"
       id="linearGradient3849"
       gradientUnits="userSpaceOnUse"
       gradientTransform="matrix(0,-1.1310246,0.8841541,0,3,18)"
       x1="13.262311"
       y1="6.7861471"
       x2="-2.6524622"
       y2="6.7861471" />
    <linearGradient
       inkscape:collect="always"
       xlink:href="#StandardGradient"
       id="linearGradient3851"
       gradientUnits="userSpaceOnUse"
       gradientTransform="matrix(0,-1.1310246,0.8841541,0,3,17)"
       x1="13.262311"
       y1="6.7861471"
       x2="-2.6524622"
       y2="6.7861471" />
    <linearGradient
       inkscape:collect="always"
       xlink:href="#StandardGradient"
       id="linearGradient3856"
       gradientUnits="userSpaceOnUse"
       gradientTransform="matrix(0,-1.1310246,0.8841541,0,3,18)"
       x1="13.262311"
       y1="6.7861471"
       x2="-2.6524622"
       y2="6.7861471" />
    <linearGradient
       inkscape:collect="always"
       xlink:href="#StandardGradient"
       id="linearGradient3861"
       gradientUnits="userSpaceOnUse"
       gradientTransform="matrix(0,-1.1310246,0.8841541,0,3,17)"
       x1="13.262311"
       y1="6.7861471"
       x2="-2.6524622"
       y2="6.7861471" />
    <linearGradient
       inkscape:collect="always"
       xlink:href="#StandardGradient"
       id="linearGradient3866"
       gradientUnits="userSpaceOnUse"
       gradientTransform="matrix(0,-1.1310246,0.8841541,0,3,17)"
       x1="13.262311"
       y1="6.7861471"
       x2="-2.6524622"
       y2="6.7861471" />
    <linearGradient
       inkscape:collect="always"
       xlink:href="#StandardGradient"
       id="linearGradient3870"
       gradientUnits="userSpaceOnUse"
       gradientTransform="matrix(0,-1.1310246,0.8841541,0,3,17)"
       x1="13.262311"
       y1="6.7861471"
       x2="-2.6524622"
       y2="6.7861471" />
    <linearGradient
       inkscape:collect="always"
       xlink:href="#StandardGradient"
       id="linearGradient3874"
       gradientUnits="userSpaceOnUse"
       gradientTransform="matrix(0,-1.1310246,0.8841541,0,3,17)"
       x1="13.262311"
       y1="6.7861471"
       x2="-2.6524622"
       y2="6.7861471" />
  </defs>
  <sodipodi:namedview
     id="base"
     pagecolor="#ffffff"
     bordercolor="#9a9a9a"
     borderopacity="1"
     inkscape:pageopacity="0.0"
     inkscape:pageshadow="2"
     inkscape:zoom="18.722996"
     inkscape:cx="-4.8508757"
     inkscape:cy="6.4966956"
     inkscape:document-units="px"
     inkscape:current-layer="layer3"
     showgrid="true"
     inkscape:showpageshadow="false"
     showguides="true"
     inkscape:guide-bbox="true"
     inkscape:window-width="1920"
     inkscape:window-height="1029"
     inkscape:window-x="0"
     inkscape:window-y="25"
     inkscape:window-maximized="1">
    <sodipodi:guide
       orientation="1,0"
       position="0,112"
       id="guide2383" />
    <sodipodi:guide
       orientation="0,1"
       position="26.278146,128"
       id="guide2385" />
    <sodipodi:guide
       orientation="1,0"
       position="128,54.082119"
       id="guide2387" />
    <sodipodi:guide
       orientation="0,1"
       position="78.156291,0"
       id="guide2389" />
    <inkscape:grid
       type="xygrid"
       id="grid3672"
       visible="true"
       enabled="true" />
  </sodipodi:namedview>
  <metadata
     id="metadata7">
    <rdf:RDF>
      <cc:Work
         rdf:about="">
        <dc:format>image/svg+xml</dc:format>
        <dc:type
           rdf:resource="http://purl.org/dc/dcmitype/StillImage" />
        <dc:title></dc:title>
      </cc:Work>
    </rdf:RDF>
  </metadata>
  <g
     inkscape:groupmode="layer"
     id="layer3"
     inkscape:label="Cross"
     style="display:inline">
    <path
       style="fill:#000000;fill-opacity:1;stroke:none;display:inline;opacity:0.25"
       d="M 5.5 1.03125 C 4.1512009 1.03125 3.03125 2.1512008 3.03125 3.5 C 3.03125 4.8487992 4.1512009 5.96875 5.5 5.96875 C 6.8487991 5.96875 7.96875 4.8487992 7.96875 3.5 C 7.96875 2.1512008 6.8487991 1.03125 5.5 1.03125 z M 5.5 2 C 6.328427 2 7 2.6715729 7 3.5 C 7 4.3284271 6.328427 5 5.5 5 C 4.671573 5 4 4.3284271 4 3.5 C 4 2.6715729 4.671573 2 5.5 2 z M 5.5 6.03125 C 4.1512009 6.03125 3.03125 7.1512008 3.03125 8.5 C 3.03125 9.8487992 4.1512009 10.96875 5.5 10.96875 C 6.8487991 10.96875 7.96875 9.8487992 7.96875 8.5 C 7.96875 7.1512008 6.8487991 6.03125 5.5 6.03125 z M 5.5 7 C 6.328427 7 7 7.6715729 7 8.5 C 7 9.3284271 6.328427 10 5.5 10 C 4.671573 10 4 9.3284271 4 8.5 C 4 7.6715729 4.671573 7 5.5 7 z M 14.40625 8.03125 A 0.96296337 0.96296337 0 0 0 13.78125 8.40625 L 9.21875 14.46875 A 0.96296337 0.96296337 0 0 0 10 16.03125 L 12 16.03125 L 12 20 A 0.96296337 0.96296337 0 0 0 12.96875 20.96875 L 16 20.96875 A 0.96296337 0.96296337 0 0 0 16.96875 20 L 16.96875 16.03125 L 19 16.03125 A 0.96296337 0.96296337 0 0 0 19.78125 14.5 L 15.34375 8.4375 A 0.96296337 0.96296337 0 0 0 14.5 8.03125 A 0.96296337 0.96296337 0 0 0 14.40625 8.03125 z M 14.5625 9 L 19 15.0625 L 16 15.0625 L 16 20 L 12.96875 20 L 12.96875 15.0625 L 10 15.0625 L 14.5625 9 z M 5.5 11.03125 C 4.1512008 11.03125 3.03125 12.151201 3.03125 13.5 C 3.03125 14.848799 4.1512008 15.96875 5.5 15.96875 C 6.8487992 15.96875 7.96875 14.848799 7.96875 13.5 C 7.96875 12.151201 6.8487992 11.03125 5.5 11.03125 z M 5.5 12 C 6.328427 12 7 12.671573 7 13.5 C 7 14.328427 6.328427 15 5.5 15 C 4.671573 15 4 14.328427 4 13.5 C 4 12.671573 4.671573 12 5.5 12 z M 5.5 16.03125 C 4.1512008 16.03125 3.03125 17.151201 3.03125 18.5 C 3.03125 19.848799 4.1512008 20.96875 5.5 20.96875 C 6.8487992 20.96875 7.96875 19.848799 7.96875 18.5 C 7.96875 17.151201 6.8487992 16.03125 5.5 16.03125 z M 5.5 17 C 6.328427 17 7 17.671573 7 18.5 C 7 19.328427 6.328427 20 5.5 20 C 4.671573 20 4 19.328427 4 18.5 C 4 17.671573 4.671573 17 5.5 17 z "
       id="path3872" />
    <path
       style="fill:url(#linearGradient3842);fill-opacity:1;stroke:none;display:inline"
       d="M 5.5 2 C 4.671573 2 4 2.6715729 4 3.5 C 4 4.3284271 4.671573 5 5.5 5 C 6.328427 5 7 4.3284271 7 3.5 C 7 2.6715729 6.328427 2 5.5 2 z M 5.5 7 C 4.671573 7 4 7.6715729 4 8.5 C 4 9.3284271 4.671573 10 5.5 10 C 6.328427 10 7 9.3284271 7 8.5 C 7 7.6715729 6.328427 7 5.5 7 z M 14.5625 9 L 10 15.0625 L 12.96875 15.0625 L 12.96875 20 L 16 20 L 16 15.0625 L 19 15.0625 L 14.5625 9 z M 5.5 12 C 4.671573 12 4 12.671573 4 13.5 C 4 14.328427 4.671573 15 5.5 15 C 6.328427 15 7 14.328427 7 13.5 C 7 12.671573 6.328427 12 5.5 12 z M 5.5 17 C 4.671573 17 4 17.671573 4 18.5 C 4 19.328427 4.671573 20 5.5 20 C 6.328427 20 7 19.328427 7 18.5 C 7 17.671573 6.328427 17 5.5 17 z "
       id="path3838" />
    <path
       style="fill:#ffffff;fill-opacity:1;stroke:none;display:inline;opacity:0.6"
       d="M 5.5 2 C 4.671573 2 4 2.6715729 4 3.5 C 4 3.672589 4.0401079 3.845681 4.09375 4 C 4.2975898 3.413588 4.844162 3 5.5 3 C 6.155838 3 6.7024102 3.413588 6.90625 4 C 6.9598921 3.845681 7 3.672589 7 3.5 C 7 2.6715729 6.328427 2 5.5 2 z M 5.5 7 C 4.671573 7 4 7.6715729 4 8.5 C 4 8.672589 4.0401079 8.845681 4.09375 9 C 4.2975898 8.413588 4.844162 8 5.5 8 C 6.155838 8 6.7024102 8.413588 6.90625 9 C 6.9598921 8.845681 7 8.672589 7 8.5 C 7 7.6715729 6.328427 7 5.5 7 z M 14.5625 9 L 10 15.0625 L 10.75 15.0625 L 14.5625 10 L 18.28125 15.0625 L 19 15.0625 L 14.5625 9 z M 5.5 12 C 4.671573 12 4 12.671573 4 13.5 C 4 13.672589 4.0401079 13.845681 4.09375 14 C 4.2975898 13.413588 4.844162 13 5.5 13 C 6.155838 13 6.7024102 13.413588 6.90625 14 C 6.9598921 13.845681 7 13.672589 7 13.5 C 7 12.671573 6.328427 12 5.5 12 z M 5.5 17 C 4.671573 17 4 17.671573 4 18.5 C 4 18.672589 4.0401079 18.845681 4.09375 19 C 4.2975898 18.413588 4.844162 18 5.5 18 C 6.155838 18 6.7024102 18.413588 6.90625 19 C 6.9598921 18.845681 7 18.672589 7 18.5 C 7 17.671573 6.328427 17 5.5 17 z "
       id="path3845" />
    <path
       style="fill:#000000;fill-opacity:1;stroke:none;display:inline;opacity:0.45"
       d="M 4.09375 4 C 4.0401079 4.154319 4 4.327411 4 4.5 C 4 5.3284271 4.671573 6 5.5 6 C 6.328427 6 7 5.3284271 7 4.5 C 7 4.327411 6.9598921 4.154319 6.90625 4 C 6.7024102 4.586412 6.155838 5 5.5 5 C 4.844162 5 4.2975898 4.586412 4.09375 4 z M 4.09375 9 C 4.0401079 9.154319 4 9.327411 4 9.5 C 4 10.328427 4.671573 11 5.5 11 C 6.328427 11 7 10.328427 7 9.5 C 7 9.327411 6.9598921 9.154319 6.90625 9 C 6.7024102 9.586412 6.155838 10 5.5 10 C 4.844162 10 4.2975898 9.586412 4.09375 9 z M 4.09375 14 C 4.0401079 14.154319 4 14.327411 4 14.5 C 4 15.328427 4.671573 16 5.5 16 C 6.328427 16 7 15.328427 7 14.5 C 7 14.327411 6.9598921 14.154319 6.90625 14 C 6.7024102 14.586412 6.155838 15 5.5 15 C 4.844162 15 4.2975898 14.586412 4.09375 14 z M 10.75 15.0625 L 10 16.0625 L 12.96875 16.0625 L 12.96875 15.0625 L 10.75 15.0625 z M 16 15.0625 L 16 16.0625 L 19 16.0625 L 18.28125 15.0625 L 16 15.0625 z M 4.09375 19 C 4.0401079 19.154319 4 19.327411 4 19.5 C 4 20.328427 4.671573 21 5.5 21 C 6.328427 21 7 20.328427 7 19.5 C 7 19.327411 6.9598921 19.154319 6.90625 19 C 6.7024102 19.586412 6.155838 20 5.5 20 C 4.844162 20 4.2975898 19.586412 4.09375 19 z M 12.96875 20 L 12.96875 21 L 16 21 L 16 20 L 12.96875 20 z "
       id="path3854" />
  </g>
</svg>
