<?xml version="1.0" encoding="UTF-8" standalone="no"?>
<!-- Created with Inkscape (http://www.inkscape.org/) -->

<svg
   xmlns:dc="http://purl.org/dc/elements/1.1/"
   xmlns:cc="http://creativecommons.org/ns#"
   xmlns:rdf="http://www.w3.org/1999/02/22-rdf-syntax-ns#"
   xmlns:svg="http://www.w3.org/2000/svg"
   xmlns="http://www.w3.org/2000/svg"
   xmlns:xlink="http://www.w3.org/1999/xlink"
   xmlns:sodipodi="http://sodipodi.sourceforge.net/DTD/sodipodi-0.dtd"
   xmlns:inkscape="http://www.inkscape.org/namespaces/inkscape"
   width="22"
   height="22"
   id="svg2"
   sodipodi:version="0.32"
   inkscape:version="0.48.0 r9654"
   version="1.0"
   sodipodi:docname="visualization.svg"
   inkscape:output_extension="org.inkscape.output.svg.inkscape"
   inkscape:export-filename="/home/matt/.icons/Sirocco/scalable/mimetypes/text-plain.png"
   inkscape:export-xdpi="90"
   inkscape:export-ydpi="90"
   sodipodi:modified="true"
   style="display:inline">
  <sodipodi:namedview
     id="base"
     pagecolor="#ffffff"
     bordercolor="#666666"
     borderopacity="1.0"
     inkscape:pageopacity="0.0"
     inkscape:pageshadow="2"
     inkscape:zoom="18.530287"
     inkscape:cx="5.5458878"
     inkscape:cy="2.2841733"
     inkscape:document-units="px"
     inkscape:current-layer="layer1"
     width="128px"
     height="128px"
     inkscape:showpageshadow="false"
     inkscape:window-width="1920"
     inkscape:window-height="1026"
     inkscape:window-x="0"
     inkscape:window-y="25"
     showguides="true"
     inkscape:guide-bbox="true"
     showgrid="true"
     inkscape:window-maximized="1">
    <sodipodi:guide
       id="guide2226"
       position="32.637397,117.99844"
       orientation="horizontal" />
    <sodipodi:guide
       id="guide2230"
       position="110,57.402344"
       orientation="vertical" />
    <sodipodi:guide
       id="guide2232"
       position="33.760911"
       orientation="horizontal" />
    <sodipodi:guide
       id="guide2231"
       position="46.774696"
       orientation="horizontal" />
    <inkscape:grid
       enabled="true"
       visible="true"
       id="grid3231"
       type="xygrid" />
    <sodipodi:guide
       orientation="1,0"
       position="100,67.625"
       id="guide2713" />
  </sodipodi:namedview>
  <defs
     id="defs4">
    <linearGradient
       gradientUnits="userSpaceOnUse"
       y2="19.387045"
       x2="11.998966"
       y1="0.92195445"
       x1="11.998966"
       gradientTransform="scale(0.9219544,1.0846523)"
       id="linearGradient5079">
      <stop
         id="stop5081"
         offset="0"
         style="stop-color:#000000;stop-opacity:0.86274511;" />
      <stop
         id="stop5083"
         offset="1"
         style="stop-color:#000000;stop-opacity:0.47058824;" />
    </linearGradient>
    <linearGradient
       inkscape:collect="always"
       xlink:href="#StandardGradient"
       id="linearGradient2549"
       gradientUnits="userSpaceOnUse"
       gradientTransform="matrix(0.9247229,0,0,1.0872097,16.939944,2.9976422)"
       x1="11.998966"
       y1="0.92195445"
       x2="11.998966"
       y2="17.478098" />
    <inkscape:perspective
       sodipodi:type="inkscape:persp3d"
       inkscape:vp_x="0 : 11 : 1"
       inkscape:vp_y="0 : 1000 : 0"
       inkscape:vp_z="22 : 11 : 1"
       inkscape:persp3d-origin="11 : 7.3333333 : 1"
       id="perspective19" />
    <linearGradient
       id="StandardGradient"
       gradientTransform="scale(0.9219544,1.0846523)"
       x1="11.998966"
       y1="0.92195445"
       x2="11.998966"
       y2="19.387045"
       gradientUnits="userSpaceOnUse">
      <stop
         style="stop-color:#000000;stop-opacity:0.86274511;"
         offset="0"
         id="stop3283" />
      <stop
         style="stop-color:#000000;stop-opacity:0.47058824;"
         offset="1"
         id="stop2651" />
    </linearGradient>
    <linearGradient
       inkscape:collect="always"
       xlink:href="#StandardGradient"
       id="linearGradient2406"
       gradientUnits="userSpaceOnUse"
       gradientTransform="matrix(0.9219544,0,0,1.0846523,0,-1)"
       x1="11.998966"
       y1="2.7658634"
       x2="11.998966"
       y2="19.387045" />
    <linearGradient
       inkscape:collect="always"
       xlink:href="#StandardGradient"
       id="linearGradient3198"
       gradientUnits="userSpaceOnUse"
       gradientTransform="matrix(0.9219544,0,0,1.0846523,0,-1)"
       x1="11.998966"
       y1="2.7658634"
       x2="11.998966"
       y2="19.387045" />
    <linearGradient
       inkscape:collect="always"
       xlink:href="#StandardGradient"
       id="linearGradient4636"
       gradientUnits="userSpaceOnUse"
       gradientTransform="matrix(0.9219544,0,0,1.0846523,-1.7235065e-2,0.96875)"
       x1="11.998966"
       y1="2.7658634"
       x2="11.998966"
       y2="15.702114" />
    <linearGradient
       inkscape:collect="always"
       xlink:href="#StandardGradient"
       id="linearGradient2397"
       gradientUnits="userSpaceOnUse"
       gradientTransform="matrix(0.9219544,0,0,1.0846523,-1.7235065e-2,0.96875)"
       x1="11.998966"
       y1="2.7658634"
       x2="11.998966"
       y2="15.702114" />
    <linearGradient
       inkscape:collect="always"
       xlink:href="#StandardGradient"
       id="linearGradient2402"
       gradientUnits="userSpaceOnUse"
       gradientTransform="matrix(0.9219544,0,0,1.0846523,-1.7235065e-2,0.96875)"
       x1="11.998966"
       y1="2.7658634"
       x2="11.998966"
       y2="15.702114" />
    <linearGradient
       inkscape:collect="always"
       xlink:href="#StandardGradient"
       id="linearGradient2405"
       gradientUnits="userSpaceOnUse"
       gradientTransform="matrix(0.9219544,0,0,1.0846523,-1.7235065e-2,-3.125e-2)"
       x1="11.998966"
       y1="2.7658634"
       x2="11.998966"
       y2="15.702114" />
    <linearGradient
       inkscape:collect="always"
       xlink:href="#StandardGradient"
       id="linearGradient2415"
       gradientUnits="userSpaceOnUse"
       gradientTransform="matrix(0.9219544,0,0,1.0846523,-1.7235065e-2,-3.125e-2)"
       x1="11.998966"
       y1="2.7658634"
       x2="11.998966"
       y2="15.702114" />
    <linearGradient
       inkscape:collect="always"
       xlink:href="#StandardGradient"
       id="linearGradient2407"
       gradientUnits="userSpaceOnUse"
       gradientTransform="matrix(0.9219544,0,0,1.0846523,-1.7235065e-2,-1.03125)"
       x1="11.998966"
       y1="2.7658634"
       x2="11.998966"
       y2="15.702114" />
    <linearGradient
       inkscape:collect="always"
       xlink:href="#StandardGradient"
       id="linearGradient2542"
       gradientUnits="userSpaceOnUse"
       gradientTransform="matrix(0.9247229,0,0,1.0872097,-2.060056,5.9976422)"
       x1="11.998966"
       y1="0.92195445"
       x2="11.998966"
       y2="17.478098" />
    <linearGradient
       inkscape:collect="always"
       xlink:href="#StandardGradient"
       id="linearGradient2551"
       gradientUnits="userSpaceOnUse"
       gradientTransform="matrix(0.9219544,0,0,1.0846523,-1.7235065e-2,-1.03125)"
       x1="11.998966"
       y1="2.7658634"
       x2="11.998966"
       y2="15.702114" />
    <linearGradient
       inkscape:collect="always"
       xlink:href="#StandardGradient"
       id="linearGradient2554"
       gradientUnits="userSpaceOnUse"
       gradientTransform="matrix(0.9219544,0,0,1.0846523,-1.7235065e-2,-1.03125)"
       x1="11.998966"
       y1="2.7658634"
       x2="11.998966"
       y2="15.702114" />
    <linearGradient
       inkscape:collect="always"
       xlink:href="#StandardGradient"
       id="linearGradient2424"
       gradientUnits="userSpaceOnUse"
       gradientTransform="matrix(0.9219544,0,0,1.0846523,-1.7235065e-2,-3.125e-2)"
       x1="11.998966"
       y1="2.7658634"
       x2="11.998966"
       y2="15.702114" />
    <linearGradient
       inkscape:collect="always"
       xlink:href="#StandardGradient"
       id="linearGradient3208"
       gradientUnits="userSpaceOnUse"
       gradientTransform="matrix(0.9219544,0,0,1.0846523,-1.7235065e-2,-3.125e-2)"
       x1="11.998966"
       y1="2.7658634"
       x2="11.998966"
       y2="15.702114" />
    <linearGradient
       inkscape:collect="always"
       xlink:href="#StandardGradient"
       id="linearGradient3213"
       gradientUnits="userSpaceOnUse"
       gradientTransform="matrix(0.9219544,0,0,1.0846523,-1.7235065e-2,-3.125e-2)"
       x1="11.998966"
       y1="2.7658634"
       x2="11.998966"
       y2="15.702114" />
    <linearGradient
       inkscape:collect="always"
       xlink:href="#StandardGradient"
       id="linearGradient3221"
       gradientUnits="userSpaceOnUse"
       gradientTransform="matrix(0.9219544,0,0,1.0846523,-1.7235065e-2,-3.125e-2)"
       x1="11.998966"
       y1="2.7658634"
       x2="11.998966"
       y2="15.702114" />
    <linearGradient
       inkscape:collect="always"
       xlink:href="#StandardGradient"
       id="linearGradient3227"
       gradientUnits="userSpaceOnUse"
       gradientTransform="matrix(0.9219544,0,0,1.0846523,-1.7235065e-2,-3.125e-2)"
       x1="11.998966"
       y1="2.7658634"
       x2="11.998966"
       y2="15.702114" />
    <inkscape:perspective
       id="perspective2850"
       inkscape:persp3d-origin="0.5 : 0.33333333 : 1"
       inkscape:vp_z="1 : 0.5 : 1"
       inkscape:vp_y="0 : 1000 : 0"
       inkscape:vp_x="0 : 0.5 : 1"
       sodipodi:type="inkscape:persp3d" />
    <linearGradient
       inkscape:collect="always"
       xlink:href="#StandardGradient"
       id="linearGradient3644"
       gradientUnits="userSpaceOnUse"
       gradientTransform="matrix(0.9219544,0,0,1.0846523,-30.017235,-0.03125)"
       x1="11.998966"
       y1="2.7658634"
       x2="11.998966"
       y2="15.702114" />
    <clipPath
       clipPathUnits="userSpaceOnUse"
       id="clipPath3651">
      <path
         style="fill:#ff00ff;fill-opacity:1;stroke:none;display:inline"
         d="m -30,0 0,22 22,0 0,-22 -22,0 z m 4,2 3.96875,0 c 0.554,0 1,0.446 1,1 l 0,1 8.5,0 c 0.669688,0 1.243585,0.3963931 1.4375,1 C -11.04026,5.1544781 -11,5.326875 -11,5.5 l 0,0.5 -5,0 -1,0 -4.21875,0 L -27,6 l 0,-1 0,-2 c 0,-0.554 0.446,-1 1,-1 z m -0.5,5 5,0 8,0 2,0 c 0.831,0 1.5,0.669 1.5,1.5 l 0,8 c 0,0.831 -0.669,1.5 -1.5,1.5 l -0.5,0 0,0.25 0,1.25 c 0,0.831 -0.669,1.5 -1.5,1.5 l -8,0 c -0.831,0 -1.5,-0.669 -1.5,-1.5 l 0,-1.5 -3.5,0 c -0.831,0 -1.5,-0.669 -1.5,-1.5 l 0,-8 C -28,7.669 -27.331,7 -26.5,7 z m 6,2 C -20.777,9 -21,9.223 -21,9.5 l 0,9 c 0,0.277 0.223,0.5 0.5,0.5 l 6,0 c 0.277,0 0.5,-0.223 0.5,-0.5 l 0,-9 C -14,9.223 -14.223,9 -14.5,9 l -2.90625,0 -2.09375,0 -1,0 z"
         id="path3653" />
    </clipPath>
    <linearGradient
       inkscape:collect="always"
       xlink:href="#StandardGradient-0"
       id="linearGradient3677"
       x1="11"
       y1="2"
       x2="11"
       y2="20.027756"
       gradientUnits="userSpaceOnUse" />
    <linearGradient
       inkscape:collect="always"
       xlink:href="#StandardGradient"
       id="linearGradient3681"
       gradientUnits="userSpaceOnUse"
       x1="11"
       y1="2"
       x2="11"
       y2="20.027756"
       gradientTransform="translate(0,1)" />
    <linearGradient
       inkscape:collect="always"
       xlink:href="#StandardGradient"
       id="linearGradient3685"
       gradientUnits="userSpaceOnUse"
       x1="11"
       y1="2"
       x2="11"
       y2="20.027756" />
    <linearGradient
       inkscape:collect="always"
       xlink:href="#StandardGradient"
       id="linearGradient3690"
       gradientUnits="userSpaceOnUse"
       x1="11"
       y1="2"
       x2="11"
       y2="20.027756"
       gradientTransform="translate(-30,0)" />
    <clipPath
       clipPathUnits="userSpaceOnUse"
       id="clipPath3697">
      <path
         style="fill:#ff00ff;fill-opacity:1;stroke:none;display:inline"
         d="m -30,0 0,22 22,0 0,-22 -22,0 z m 11,1.9375 c 0,0 0.522549,3.1535233 1.78125,3.5625 1.258701,0.4089767 3.53125,-1.8125 3.53125,-1.8125 0,0 -1.40292,2.8355352 -0.625,3.90625 0.77792,1.0707148 3.9375,0.59375 3.9375,0.59375 0,0 -2.84375,1.4890236 -2.84375,2.8125 0,1.323476 2.84375,2.8125 2.84375,2.8125 0,0 -3.15958,-0.476965 -3.9375,0.59375 -0.77792,1.070715 0.625,3.90625 0.625,3.90625 0,0 -2.272549,-2.221477 -3.53125,-1.8125 C -18.477451,16.908977 -19,20.0625 -19,20.0625 c 0,0 -0.52255,-3.153523 -1.78125,-3.5625 -1.258701,-0.408977 -3.53125,1.8125 -3.53125,1.8125 0,0 1.40292,-2.835535 0.625,-3.90625 -0.77792,-1.070715 -3.9375,-0.59375 -3.9375,-0.59375 0,0 2.84375,-1.489024 2.84375,-2.8125 0,-1.3234764 -2.84375,-2.8125 -2.84375,-2.8125 0,0 3.15958,0.4769649 3.9375,-0.59375 0.77792,-1.0707149 -0.625,-3.90625 -0.625,-3.90625 0,0 2.272549,2.2214767 3.53125,1.8125 C -19.522549,5.0910233 -19,1.9375 -19,1.9375 z M -19,7 c -2.209139,0 -4,1.790861 -4,4 0,2.209139 1.790861,4 4,4 2.209139,0 4,-1.790861 4,-4 0,-2.209139 -1.790861,-4 -4,-4 z"
         id="path3699" />
    </clipPath>
    <filter
       inkscape:collect="always"
       id="filter3701">
      <feGaussianBlur
         inkscape:collect="always"
         stdDeviation="0.530625"
         id="feGaussianBlur3703" />
    </filter>
    <linearGradient
       id="StandardGradient-0"
       gradientTransform="matrix(1.0765258,0,0,0.9227364,-0.00801316,0.1584665)"
       x1="10.005832"
       y1="4.1631975"
       x2="10.005832"
       y2="17.168188"
       gradientUnits="userSpaceOnUse">
      <stop
         id="stop3337"
         offset="0"
         style="stop-color:#ebebeb;stop-opacity:1;" />
      <stop
         id="stop3339"
         offset="1"
         style="stop-color:#aaaaaa;stop-opacity:1;" />
    </linearGradient>
    <linearGradient
       y2="17.168188"
       x2="10.005832"
       y1="4.1631975"
       x1="10.005832"
       gradientTransform="matrix(1.0765258,0,0,0.9227364,7.9919868,8.1584665)"
       gradientUnits="userSpaceOnUse"
       id="linearGradient4353"
       xlink:href="#StandardGradient-0"
       inkscape:collect="always" />
    <linearGradient
       inkscape:collect="always"
       xlink:href="#StandardGradient-0"
       id="linearGradient5102"
       gradientUnits="userSpaceOnUse"
       x1="11"
       y1="2"
       x2="11"
       y2="20.027756" />
  </defs>
  <metadata
     id="metadata7">
    <rdf:RDF>
      <cc:Work
         rdf:about="">
        <dc:format>image/svg+xml</dc:format>
        <dc:type
           rdf:resource="http://purl.org/dc/dcmitype/StillImage" />
        <dc:title />
      </cc:Work>
    </rdf:RDF>
  </metadata>
  <g
     style="display:inline"
     inkscape:label="Calque 1"
     id="layer1"
     inkscape:groupmode="layer">
    <path
       style="color:#000000;fill:#000000;fill-opacity:1;fill-rule:nonzero;stroke:none;stroke-width:0.30000000999999998;marker:none;visibility:visible;display:inline;overflow:visible;enable-background:accumulate;opacity:0.25"
       d="m 10.90625,1 a 0.93168568,0.93168568 0 0 0 -0.8125,0.78125 c 0,0 -0.1483003,0.7167763 -0.40625,1.46875 C 9.5585252,3.6259868 9.413136,4.0263212 9.25,4.28125 9.086864,4.5361788 8.9355601,4.6256303 8.9375,4.625 8.9369077,4.6251925 8.7503317,4.6400772 8.46875,4.53125 8.1871683,4.4224228 7.8247056,4.1944392 7.5,3.96875 6.8505888,3.5173716 6.34375,3.03125 6.34375,3.03125 a 0.93168568,0.93168568 0 0 0 -1.5,1.0625 c 0,0 0.3357769,0.6525129 0.5625,1.40625 C 5.5196115,5.8768685 5.6090485,6.293588 5.625,6.59375 5.6409515,6.893912 5.5637856,7.0294805 5.5625,7.03125 5.5636166,7.0297132 5.4177701,7.1735937 5.125,7.25 4.8322299,7.3264063 4.4285476,7.3684623 4.03125,7.375 3.2366549,7.3880754 2.5,7.28125 2.5,7.28125 A 0.93168568,0.93168568 0 0 0 1.9375,9 c 0,0 0.6748867,0.3615155 1.3125,0.84375 0.3188066,0.241117 0.6193476,0.514024 0.8125,0.75 0.1931524,0.235976 0.21875,0.408999 0.21875,0.40625 0,-0.0027 -0.025598,0.170274 -0.21875,0.40625 -0.1931524,0.235976 -0.4936934,0.508883 -0.8125,0.75 C 2.6123867,12.638485 1.9375,13 1.9375,13 A 0.93168568,0.93168568 0 0 0 2.5,14.71875 c 0,0 0.7366549,-0.106825 1.53125,-0.09375 0.3972976,0.0065 0.8009799,0.04859 1.09375,0.125 0.2927701,0.07641 0.4386165,0.220287 0.4375,0.21875 0.00129,0.0018 0.078451,0.137338 0.0625,0.4375 -0.015951,0.300162 -0.1053884,0.716881 -0.21875,1.09375 -0.2267231,0.753737 -0.5625,1.40625 -0.5625,1.40625 a 0.93168568,0.93168568 0 0 0 1.5,1.0625 c 0,0 0.5068388,-0.486122 1.15625,-0.9375 0.3247056,-0.225689 0.6871683,-0.453673 0.96875,-0.5625 0.2815817,-0.108827 0.4681577,-0.09394 0.46875,-0.09375 -0.00194,-6.3e-4 0.149364,0.08882 0.3125,0.34375 0.163136,0.254929 0.3085251,0.655263 0.4375,1.03125 0.2579498,0.751974 0.40625,1.46875 0.40625,1.46875 a 0.93168568,0.93168568 0 0 0 1.8125,0 c 0,0 0.1483,-0.716776 0.40625,-1.46875 0.128975,-0.375987 0.274364,-0.776321 0.4375,-1.03125 0.163136,-0.254929 0.31444,-0.34438 0.3125,-0.34375 5.92e-4,-1.92e-4 0.187168,-0.01508 0.46875,0.09375 0.281582,0.108827 0.644044,0.336811 0.96875,0.5625 0.649411,0.451378 1.15625,0.9375 1.15625,0.9375 a 0.93168568,0.93168568 0 0 0 1.5,-1.0625 c 0,0 -0.335777,-0.652513 -0.5625,-1.40625 -0.113362,-0.376869 -0.202799,-0.793588 -0.21875,-1.09375 -0.01595,-0.300162 0.06121,-0.43573 0.0625,-0.4375 -0.0011,0.0015 0.14473,-0.142344 0.4375,-0.21875 0.29277,-0.07641 0.696452,-0.118462 1.09375,-0.125 C 18.763345,14.611925 19.5,14.71875 19.5,14.71875 A 0.93168568,0.93168568 0 0 0 20.0625,13 c 0,0 -0.674887,-0.361515 -1.3125,-0.84375 -0.318807,-0.241117 -0.619348,-0.514024 -0.8125,-0.75 C 17.744348,11.170274 17.71875,10.997251 17.71875,11 c 0,0.0027 0.0256,-0.170274 0.21875,-0.40625 0.193152,-0.235976 0.493693,-0.508883 0.8125,-0.75 C 19.387613,9.3615155 20.0625,9 20.0625,9 A 0.93168568,0.93168568 0 0 0 19.5,7.28125 c 0,0 -0.736655,0.1068254 -1.53125,0.09375 C 17.571452,7.3684623 17.16777,7.3264063 16.875,7.25 16.58223,7.1735937 16.436383,7.0297133 16.4375,7.03125 16.436214,7.0294806 16.359049,6.893912 16.375,6.59375 16.390951,6.293588 16.480388,5.8768685 16.59375,5.5 c 0.226723,-0.7537371 0.5625,-1.40625 0.5625,-1.40625 a 0.93168568,0.93168568 0 0 0 -1.5,-1.0625 c 0,0 -0.506839,0.4861216 -1.15625,0.9375 -0.324706,0.2256892 -0.687168,0.4536728 -0.96875,0.5625 C 13.249668,4.6400772 13.063092,4.6251925 13.0625,4.625 13.06444,4.6256303 12.913136,4.5361788 12.75,4.28125 12.586864,4.0263212 12.441475,3.6259868 12.3125,3.25 12.05455,2.4980263 11.90625,1.78125 11.90625,1.78125 A 0.93168568,0.93168568 0 0 0 10.90625,1 z M 11,7.9375 c 1.705669,0 3.0625,1.356831 3.0625,3.0625 0,1.705669 -1.356831,3.0625 -3.0625,3.0625 C 9.294331,14.0625 7.9375,12.705669 7.9375,11 7.9375,9.294331 9.294331,7.9375 11,7.9375 z"
       id="path5104" />
    <path
       style="opacity:1;color:#000000;fill:url(#linearGradient3677);fill-opacity:1.0;fill-rule:nonzero;stroke:none;stroke-width:0.30000000999999998;marker:none;visibility:visible;display:inline;overflow:visible;enable-background:accumulate"
       d="M 11 1.9375 C 11 1.9375 10.477451 5.0910233 9.21875 5.5 C 7.9600492 5.9089767 5.6875 3.6875 5.6875 3.6875 C 5.6875 3.6875 7.0904198 6.5230351 6.3125 7.59375 C 5.5345802 8.6644649 2.375 8.1875 2.375 8.1875 C 2.375 8.1875 5.2187499 9.6765236 5.21875 11 C 5.2187501 12.323476 2.375 13.8125 2.375 13.8125 C 2.375 13.8125 5.5345801 13.335535 6.3125 14.40625 C 7.0904199 15.476965 5.6875 18.3125 5.6875 18.3125 C 5.6875 18.3125 7.9600492 16.091023 9.21875 16.5 C 10.47745 16.908977 11 20.0625 11 20.0625 C 11 20.0625 11.522549 16.908977 12.78125 16.5 C 14.039951 16.091023 16.3125 18.3125 16.3125 18.3125 C 16.3125 18.3125 14.90958 15.476965 15.6875 14.40625 C 16.46542 13.335535 19.625 13.8125 19.625 13.8125 C 19.625 13.8125 16.78125 12.323476 16.78125 11 C 16.78125 9.6765236 19.625 8.1875 19.625 8.1875 C 19.625 8.1875 16.46542 8.6644648 15.6875 7.59375 C 14.90958 6.5230352 16.3125 3.6875 16.3125 3.6875 C 16.3125 3.6875 14.039951 5.9089767 12.78125 5.5 C 11.522549 5.0910233 11 1.9375 11 1.9375 z M 11 7 C 13.209139 7 15 8.790861 15 11 C 15 13.209139 13.209139 15 11 15 C 8.790861 15 7 13.209139 7 11 C 7 8.790861 8.790861 7 11 7 z "
       id="path2880" />
    <path
       style="opacity:0.6;color:#000000;fill:#ffffff;fill-opacity:1;fill-rule:nonzero;stroke:none;stroke-width:0.30000000999999998;marker:none;visibility:visible;display:inline;overflow:visible;enable-background:accumulate"
       d="M 11 1.9375 C 11 1.9375 10.477451 5.0910233 9.21875 5.5 C 7.9600492 5.9089767 5.6875 3.6875 5.6875 3.6875 C 5.6875 3.6875 5.9988415 4.3782924 6.25 5.1875 C 6.999399 5.8152937 8.3411048 6.7851642 9.21875 6.5 C 10.477451 6.0910233 11 2.9375 11 2.9375 C 11 2.9375 11.522549 6.0910233 12.78125 6.5 C 13.658895 6.7851642 15.000601 5.8152937 15.75 5.1875 C 16.001159 4.3782924 16.3125 3.6875 16.3125 3.6875 C 16.3125 3.6875 14.039951 5.9089767 12.78125 5.5 C 11.522549 5.0910233 11 1.9375 11 1.9375 z M 6.5 7.15625 C 6.4630137 7.3235787 6.40402 7.4677835 6.3125 7.59375 C 5.5345802 8.6644649 2.375 8.1875 2.375 8.1875 C 2.375 8.1875 3.2232694 8.6515529 4 9.28125 C 4.9047241 9.2733128 5.9133114 9.1431861 6.3125 8.59375 C 6.5624832 8.2496776 6.5815012 7.7121519 6.5 7.15625 z M 15.5 7.15625 C 15.418499 7.7121519 15.437517 8.2496776 15.6875 8.59375 C 16.081574 9.1361467 17.072662 9.2699815 17.96875 9.28125 C 18.747497 8.6482072 19.625 8.1875 19.625 8.1875 C 19.625 8.1875 16.46542 8.6644648 15.6875 7.59375 C 15.59598 7.4677836 15.536986 7.3235787 15.5 7.15625 z M 5.09375 11.5 C 4.5494385 12.671634 2.375 13.8125 2.375 13.8125 C 2.375 13.8125 3.1584215 13.707774 4.03125 13.71875 C 4.6576676 13.209536 5.21875 12.590001 5.21875 12 C 5.21875 11.834566 5.1715088 11.667376 5.09375 11.5 z M 7.0625 11.5 C 7.0418868 11.664532 7 11.82988 7 12 C 7 14.209139 8.790861 16 11 16 C 13.209139 16 15 14.209139 15 12 C 15 11.82988 14.958113 11.664532 14.9375 11.5 C 14.690434 13.472046 13.039019 15 11 15 C 8.9609808 15 7.3095659 13.472046 7.0625 11.5 z M 16.90625 11.5 C 16.828491 11.667376 16.78125 11.834566 16.78125 12 C 16.78125 12.590001 17.342332 13.209536 17.96875 13.71875 C 18.841579 13.707774 19.625 13.8125 19.625 13.8125 C 19.625 13.8125 17.450562 12.671634 16.90625 11.5 z M 6.5 15.875 C 6.3212899 17.040964 5.6875 18.3125 5.6875 18.3125 C 5.6875 18.3125 5.9246263 18.085075 6.25 17.8125 C 6.4519386 17.161874 6.612588 16.436579 6.5 15.875 z M 15.5 15.875 C 15.387412 16.436579 15.548061 17.161874 15.75 17.8125 C 16.075374 18.085075 16.3125 18.3125 16.3125 18.3125 C 16.3125 18.3125 15.67871 17.040964 15.5 15.875 z "
       id="path2894" />
    <path
       style="color:#000000;fill:#000000;fill-opacity:1;fill-rule:nonzero;stroke:none;stroke-width:0.30000000999999998;marker:none;visibility:visible;display:inline;overflow:visible;enable-background:accumulate;opacity:0.45"
       d="M 5.6875 4.6875 C 5.6875 4.6875 6.3212899 5.9590357 6.5 7.125 C 6.612588 6.5634215 6.4519386 5.8381261 6.25 5.1875 C 5.9246263 4.9149248 5.6875 4.6875 5.6875 4.6875 z M 16.3125 4.6875 C 16.3125 4.6875 16.075374 4.9149248 15.75 5.1875 C 15.548061 5.8381261 15.387412 6.5634215 15.5 7.125 C 15.67871 5.9590357 16.3125 4.6875 16.3125 4.6875 z M 11 7 C 8.790861 7 7 8.790861 7 11 C 7 11.17012 7.0418868 11.335468 7.0625 11.5 C 7.3095659 9.5279536 8.9609808 8 11 8 C 13.039019 8 14.690434 9.5279536 14.9375 11.5 C 14.958113 11.335468 15 11.17012 15 11 C 15 8.790861 13.209139 7 11 7 z M 2.375 9.1875 C 2.375 9.1875 4.5494384 10.328366 5.09375 11.5 C 5.1715088 11.332624 5.21875 11.165434 5.21875 11 C 5.21875 10.407506 4.6295758 9.7916485 4 9.28125 C 3.1416408 9.2887805 2.375 9.1875 2.375 9.1875 z M 19.625 9.1875 C 19.625 9.1875 18.841579 9.292226 17.96875 9.28125 C 17.342332 9.7904641 16.78125 10.409999 16.78125 11 C 16.78125 11.165434 16.828491 11.332624 16.90625 11.5 C 17.450562 10.328366 19.625 9.1875 19.625 9.1875 z M 4.03125 13.71875 C 3.2525026 14.351793 2.375 14.8125 2.375 14.8125 C 2.375 14.8125 5.5345801 14.335535 6.3125 15.40625 C 6.40402 15.532216 6.4630137 15.676421 6.5 15.84375 C 6.5815012 15.287848 6.5624832 14.750322 6.3125 14.40625 C 5.9184257 13.863853 4.9273376 13.730018 4.03125 13.71875 z M 17.9375 13.71875 C 17.050365 13.733348 16.07646 13.870893 15.6875 14.40625 C 15.437517 14.750322 15.418499 15.287848 15.5 15.84375 C 15.536986 15.676421 15.59598 15.532216 15.6875 15.40625 C 16.46542 14.335535 19.625 14.8125 19.625 14.8125 C 19.625 14.8125 18.747497 14.351793 17.96875 13.71875 C 17.95712 13.718896 17.949165 13.718558 17.9375 13.71875 z M 8.96875 16.4375 C 8.0974782 16.37458 6.9322257 17.240979 6.25 17.8125 C 5.9988415 18.621708 5.6875 19.3125 5.6875 19.3125 C 5.6875 19.3125 7.9600492 17.091023 9.21875 17.5 C 10.47745 17.908977 11 21.0625 11 21.0625 C 11 21.0625 11.522549 17.908977 12.78125 17.5 C 14.039951 17.091023 16.3125 19.3125 16.3125 19.3125 C 16.3125 19.3125 16.001159 18.621708 15.75 17.8125 C 15.000601 17.184706 13.658895 16.214836 12.78125 16.5 C 11.522549 16.908977 11 20.0625 11 20.0625 C 11 20.0625 10.47745 16.908977 9.21875 16.5 C 9.1400812 16.474439 9.0545371 16.443695 8.96875 16.4375 z "
       id="path3679" />
  </g>
</svg>
