<?xml version="1.0" encoding="UTF-8" standalone="no"?>
<!-- Created with Inkscape (http://www.inkscape.org/) -->

<svg
   xmlns:dc="http://purl.org/dc/elements/1.1/"
   xmlns:cc="http://creativecommons.org/ns#"
   xmlns:rdf="http://www.w3.org/1999/02/22-rdf-syntax-ns#"
   xmlns:svg="http://www.w3.org/2000/svg"
   xmlns="http://www.w3.org/2000/svg"
   xmlns:sodipodi="http://sodipodi.sourceforge.net/DTD/sodipodi-0.dtd"
   xmlns:inkscape="http://www.inkscape.org/namespaces/inkscape"
   width="32"
   height="32"
   id="svg5048"
   version="1.1"
   inkscape:version="0.48.4 r9939"
   sodipodi:docname="system-switch-user.svgz">
  <sodipodi:namedview
     id="base"
     pagecolor="#ffffff"
     bordercolor="#666666"
     borderopacity="1.0"
     inkscape:pageopacity="0.0"
     inkscape:pageshadow="2"
     inkscape:zoom="7.9999999"
     inkscape:cx="60.337073"
     inkscape:cy="7.1264977"
     inkscape:document-units="px"
     inkscape:current-layer="layer1"
     showgrid="true"
     inkscape:window-width="1293"
     inkscape:window-height="763"
     inkscape:window-x="297"
     inkscape:window-y="109"
     inkscape:window-maximized="0">
    <inkscape:grid
       type="xygrid"
       id="grid3011"
       empspacing="5"
       visible="true"
       enabled="true"
       snapvisiblegridlinesonly="true" />
  </sodipodi:namedview>
  <metadata
     id="metadata5053">
    <rdf:RDF>
      <cc:Work
         rdf:about="">
        <dc:format>image/svg+xml</dc:format>
        <dc:type
           rdf:resource="http://purl.org/dc/dcmitype/StillImage" />
        <dc:title />
      </cc:Work>
    </rdf:RDF>
  </metadata>
  <g
     inkscape:label="Layer 1"
     inkscape:groupmode="layer"
     id="layer1"
     transform="translate(0,-1020.3622)">
    <g
       id="system-switch-user"
       transform="matrix(-0.2,0,0,0.2,164,947.88976)">
      <rect
         ry="0"
         y="362.36218"
         x="660"
         height="160"
         width="160"
         id="rect3819"
         style="opacity:0;fill:#8b9299;fill-opacity:1;stroke:none" />
      <path
         id="rect3026"
         transform="translate(0,52.36218)"
         d="m 765.90625,322.12738 c -2.5307,0 -5.06085,0.96593 -7,2.90625 -3.87829,3.88065 -3.87829,10.11936 0,14 l 11.1875,11.1875 -85.09375,0 c -5.54,0 -10,4.42198 -10,9.9375 0,5.51552 4.46,9.96875 10,9.96875 l 85.0625,0 L 759,381.22113 c -3.8783,3.88065 -3.8783,10.11935 0,14 3.8783,3.88064 10.1217,3.88064 14,0 l 35,-35.03125 -0.125,-0.0937 0.0312,-0.0312 -35,-35.03125 c -1.93915,-1.94032 -4.4693,-2.90625 -7,-2.90625 z M 717.09375,382 c -2.5307,0 -5.06085,0.96593 -7,2.90625 l -35,35.03125 0.0312,0.0312 -0.125,0.0937 35,35.03125 c 3.8783,3.88064 10.1217,3.88064 14,0 3.8783,-3.88065 3.8783,-10.11935 0,-14 L 712.9375,430 798,430 c 5.54,0 10,-4.45323 10,-9.96875 0,-5.51552 -4.46,-9.9375 -10,-9.9375 l -85.09375,0 11.1875,-11.1875 c 3.87829,-3.88064 3.87829,-10.11935 0,-14 -1.93915,-1.94032 -4.4693,-2.90625 -7,-2.90625 z"
         style="color:#000000;fill:#bebebe;fill-opacity:1"
         inkscape:connector-curvature="0"
         sodipodi:nodetypes="csccsssccscccccccscccccsccsssccss" />
    </g>
  </g>
</svg>
