<?xml version="1.0" encoding="UTF-8" standalone="no"?>
<!-- Created with Inkscape (http://www.inkscape.org/) -->

<svg
   xmlns:dc="http://purl.org/dc/elements/1.1/"
   xmlns:cc="http://creativecommons.org/ns#"
   xmlns:rdf="http://www.w3.org/1999/02/22-rdf-syntax-ns#"
   xmlns:svg="http://www.w3.org/2000/svg"
   xmlns="http://www.w3.org/2000/svg"
   xmlns:xlink="http://www.w3.org/1999/xlink"
   xmlns:sodipodi="http://sodipodi.sourceforge.net/DTD/sodipodi-0.dtd"
   xmlns:inkscape="http://www.inkscape.org/namespaces/inkscape"
   width="96"
   height="96"
   id="svg2408"
   sodipodi:version="0.32"
   inkscape:version="0.48.1 r9760"
   version="1.0"
   sodipodi:docname="avatar-default.svg"
   inkscape:output_extension="org.inkscape.output.svg.inkscape">
  <defs
     id="defs2410">
    <inkscape:perspective
       sodipodi:type="inkscape:persp3d"
       inkscape:vp_x="0 : 48 : 1"
       inkscape:vp_y="0 : 1000 : 0"
       inkscape:vp_z="96 : 48 : 1"
       inkscape:persp3d-origin="48 : 32 : 1"
       id="perspective48" />
    <linearGradient
       id="ButtonShadow"
       gradientTransform="scale(1.0058652,0.994169)"
       x1="45.447727"
       y1="92.539597"
       x2="45.447727"
       y2="7.0165396"
       gradientUnits="userSpaceOnUse">
      <stop
         style="stop-color:#000000;stop-opacity:1;"
         offset="0"
         id="stop3750" />
      <stop
         style="stop-color:#000000;stop-opacity:0.58823532;"
         offset="1"
         id="stop3752" />
    </linearGradient>
    <linearGradient
       inkscape:collect="always"
       id="linearGradient3737">
      <stop
         style="stop-color:#ffffff;stop-opacity:1;"
         offset="0"
         id="stop3739" />
      <stop
         style="stop-color:#ffffff;stop-opacity:0;"
         offset="1"
         id="stop3741" />
    </linearGradient>
    <linearGradient
       id="linearGradient3700">
      <stop
         style="stop-color:#bebebe;stop-opacity:1;"
         offset="0"
         id="stop3702" />
      <stop
         style="stop-color:#dcdcdc;stop-opacity:1;"
         offset="1"
         id="stop3704" />
    </linearGradient>
    <filter
       inkscape:collect="always"
       id="filter3174">
      <feGaussianBlur
         inkscape:collect="always"
         stdDeviation="1.71"
         id="feGaussianBlur3176" />
    </filter>
    <linearGradient
       inkscape:collect="always"
       xlink:href="#linearGradient3737"
       id="linearGradient3188"
       gradientUnits="userSpaceOnUse"
       x1="36.357143"
       y1="6"
       x2="36.357143"
       y2="63.893143" />
    <filter
       inkscape:collect="always"
       id="filter3794"
       x="-0.192"
       width="1.384"
       y="-0.192"
       height="1.384">
      <feGaussianBlur
         inkscape:collect="always"
         stdDeviation="5.28"
         id="feGaussianBlur3796" />
    </filter>
    <linearGradient
       inkscape:collect="always"
       xlink:href="#linearGradient3737"
       id="linearGradient3613"
       x1="48"
       y1="20.220806"
       x2="48"
       y2="138.66119"
       gradientUnits="userSpaceOnUse" />
    <radialGradient
       inkscape:collect="always"
       xlink:href="#linearGradient3737"
       id="radialGradient3619"
       cx="48"
       cy="90.171875"
       fx="48"
       fy="90.171875"
       r="42"
       gradientTransform="matrix(1.1573129,0,0,0.99590774,-7.5510206,0.19713193)"
       gradientUnits="userSpaceOnUse" />
    <clipPath
       clipPathUnits="userSpaceOnUse"
       id="clipPath3613">
      <rect
         ry="6"
         rx="6"
         y="6"
         x="6"
         height="84"
         width="84"
         id="rect3615"
         style="fill:#ffffff;fill-opacity:1;fill-rule:nonzero;stroke:none" />
    </clipPath>
    <linearGradient
       inkscape:collect="always"
       xlink:href="#linearGradient3700"
       id="linearGradient3617"
       gradientUnits="userSpaceOnUse"
       x1="48"
       y1="90"
       x2="48"
       y2="5.9877172" />
    <linearGradient
       id="ButtonShadow-0"
       gradientTransform="matrix(1.0058652,0,0,0.994169,100,0)"
       x1="45.447727"
       y1="92.539597"
       x2="45.447727"
       y2="7.0165396"
       gradientUnits="userSpaceOnUse">
      <stop
         style="stop-color:#000000;stop-opacity:1;"
         offset="0"
         id="stop3750-8" />
      <stop
         style="stop-color:#000000;stop-opacity:0.58823532;"
         offset="1"
         id="stop3752-5" />
    </linearGradient>
    <linearGradient
       inkscape:collect="always"
       xlink:href="#ButtonShadow-0"
       id="linearGradient3780"
       gradientUnits="userSpaceOnUse"
       gradientTransform="matrix(1.0238095,0,0,1.0119048,-1.1428571,-98.071429)"
       x1="32.251034"
       y1="6.1317081"
       x2="32.251034"
       y2="90.238609" />
    <linearGradient
       inkscape:collect="always"
       xlink:href="#ButtonShadow-0"
       id="linearGradient3772"
       gradientUnits="userSpaceOnUse"
       gradientTransform="matrix(1.0238095,0,0,1.0119048,-1.1428571,-98.071429)"
       x1="32.251034"
       y1="6.1317081"
       x2="32.251034"
       y2="90.238609" />
    <linearGradient
       inkscape:collect="always"
       xlink:href="#ButtonShadow-0"
       id="linearGradient3725"
       gradientUnits="userSpaceOnUse"
       gradientTransform="matrix(1.0238095,0,0,1.0119048,-1.1428571,-98.071429)"
       x1="32.251034"
       y1="6.1317081"
       x2="32.251034"
       y2="90.238609" />
    <linearGradient
       inkscape:collect="always"
       xlink:href="#ButtonShadow-0"
       id="linearGradient3721"
       gradientUnits="userSpaceOnUse"
       gradientTransform="translate(0,-97)"
       x1="32.251034"
       y1="6.1317081"
       x2="32.251034"
       y2="90.238609" />
    <linearGradient
       y2="90.238609"
       x2="32.251034"
       y1="6.1317081"
       x1="32.251034"
       gradientTransform="matrix(1.0238095,0,0,1.0119048,-1.1428571,-98.071429)"
       gradientUnits="userSpaceOnUse"
       id="linearGradient3026"
       xlink:href="#ButtonShadow-0"
       inkscape:collect="always" />
    <inkscape:perspective
       id="perspective3151"
       inkscape:persp3d-origin="0.5 : 0.33333333 : 1"
       inkscape:vp_z="1 : 0.5 : 1"
       inkscape:vp_y="0 : 1000 : 0"
       inkscape:vp_x="0 : 0.5 : 1"
       sodipodi:type="inkscape:persp3d" />
    <inkscape:perspective
       id="perspective2867"
       inkscape:persp3d-origin="0.5 : 0.33333333 : 1"
       inkscape:vp_z="1 : 0.5 : 1"
       inkscape:vp_y="0 : 1000 : 0"
       inkscape:vp_x="0 : 0.5 : 1"
       sodipodi:type="inkscape:persp3d" />
    <linearGradient
       inkscape:collect="always"
       xlink:href="#StandardGradient"
       id="linearGradient3227"
       gradientUnits="userSpaceOnUse"
       gradientTransform="matrix(0.9219544,0,0,1.0846523,-0.01723507,-0.03125)"
       x1="11.998966"
       y1="2.7658634"
       x2="11.998966"
       y2="15.702114" />
    <linearGradient
       id="StandardGradient"
       gradientTransform="scale(0.9219544,1.0846523)"
       x1="11.998966"
       y1="0.92195445"
       x2="11.998966"
       y2="19.387045"
       gradientUnits="userSpaceOnUse">
      <stop
         style="stop-color:#000000;stop-opacity:0.86274511;"
         offset="0"
         id="stop3283" />
      <stop
         style="stop-color:#000000;stop-opacity:0.47058824;"
         offset="1"
         id="stop2651" />
    </linearGradient>
    <linearGradient
       y2="15.702114"
       x2="11.998966"
       y1="2.7658634"
       x1="11.998966"
       gradientTransform="matrix(0.9219544,0,0,1.0846523,55.982765,25.96875)"
       gradientUnits="userSpaceOnUse"
       id="linearGradient2876"
       xlink:href="#StandardGradient"
       inkscape:collect="always" />
    <linearGradient
       inkscape:collect="always"
       xlink:href="#StandardGradient"
       id="linearGradient3680"
       x1="56"
       y1="16"
       x2="56"
       y2="80"
       gradientUnits="userSpaceOnUse"
       gradientTransform="matrix(0.94249199,0,0,0.94249199,2.7603835,0.8754023)" />
    <linearGradient
       inkscape:collect="always"
       xlink:href="#StandardGradient"
       id="linearGradient3686"
       gradientUnits="userSpaceOnUse"
       gradientTransform="matrix(0.94249199,0,0,0.94249199,2.7603835,1.8754023)"
       x1="56"
       y1="16"
       x2="56"
       y2="80" />
    <linearGradient
       inkscape:collect="always"
       xlink:href="#StandardGradient"
       id="linearGradient3688"
       gradientUnits="userSpaceOnUse"
       gradientTransform="matrix(0.94249199,0,0,0.94249199,2.7603835,0.8754023)"
       x1="56"
       y1="16"
       x2="56"
       y2="80" />
    <linearGradient
       inkscape:collect="always"
       xlink:href="#StandardGradient"
       id="linearGradient3707"
       gradientUnits="userSpaceOnUse"
       gradientTransform="matrix(0.94249199,0,0,0.94249199,2.7603835,1.8754023)"
       x1="56"
       y1="16"
       x2="56"
       y2="80" />
    <linearGradient
       inkscape:collect="always"
       xlink:href="#StandardGradient"
       id="linearGradient3711"
       gradientUnits="userSpaceOnUse"
       gradientTransform="matrix(0.94249199,0,0,0.94249199,2.7603835,0.8754023)"
       x1="56"
       y1="16"
       x2="56"
       y2="80" />
    <inkscape:perspective
       id="perspective3723"
       inkscape:persp3d-origin="0.5 : 0.33333333 : 1"
       inkscape:vp_z="1 : 0.5 : 1"
       inkscape:vp_y="0 : 1000 : 0"
       inkscape:vp_x="0 : 0.5 : 1"
       sodipodi:type="inkscape:persp3d" />
    <linearGradient
       inkscape:collect="always"
       xlink:href="#StandardGradient-3"
       id="linearGradient3680-3"
       x1="56"
       y1="16"
       x2="56"
       y2="80"
       gradientUnits="userSpaceOnUse"
       gradientTransform="matrix(0.94249199,0,0,0.94249199,2.7603835,0.8754023)" />
    <linearGradient
       id="StandardGradient-3"
       gradientTransform="scale(0.9219544,1.0846523)"
       x1="11.998966"
       y1="0.92195445"
       x2="11.998966"
       y2="19.387045"
       gradientUnits="userSpaceOnUse">
      <stop
         style="stop-color:#000000;stop-opacity:0.86274511;"
         offset="0"
         id="stop3283-5" />
      <stop
         style="stop-color:#000000;stop-opacity:0.47058824;"
         offset="1"
         id="stop2651-2" />
    </linearGradient>
    <linearGradient
       y2="80"
       x2="56"
       y1="16"
       x1="56"
       gradientTransform="matrix(0.94249199,0,0,0.94249199,-97.239616,0.875402)"
       gradientUnits="userSpaceOnUse"
       id="linearGradient3736"
       xlink:href="#StandardGradient-3"
       inkscape:collect="always" />
    <linearGradient
       inkscape:collect="always"
       xlink:href="#StandardGradient"
       id="linearGradient3829"
       x1="49"
       y1="20"
       x2="49"
       y2="76"
       gradientUnits="userSpaceOnUse" />
    <linearGradient
       inkscape:collect="always"
       xlink:href="#StandardGradient"
       id="linearGradient3835"
       gradientUnits="userSpaceOnUse"
       x1="49"
       y1="20"
       x2="49"
       y2="76"
       gradientTransform="translate(0,1)" />
    <linearGradient
       inkscape:collect="always"
       xlink:href="#StandardGradient"
       id="linearGradient3837"
       gradientUnits="userSpaceOnUse"
       x1="49"
       y1="20"
       x2="49"
       y2="76" />
    <linearGradient
       inkscape:collect="always"
       xlink:href="#StandardGradient"
       id="linearGradient3846"
       gradientUnits="userSpaceOnUse"
       x1="49"
       y1="20"
       x2="49"
       y2="76" />
    <linearGradient
       inkscape:collect="always"
       xlink:href="#StandardGradient"
       id="linearGradient3853"
       gradientUnits="userSpaceOnUse"
       x1="49"
       y1="20"
       x2="49"
       y2="76" />
    <linearGradient
       inkscape:collect="always"
       xlink:href="#StandardGradient"
       id="linearGradient3857"
       gradientUnits="userSpaceOnUse"
       x1="49"
       y1="20"
       x2="49"
       y2="76" />
    <linearGradient
       inkscape:collect="always"
       xlink:href="#StandardGradient"
       id="linearGradient3859"
       gradientUnits="userSpaceOnUse"
       x1="49"
       y1="20"
       x2="49"
       y2="76" />
    <linearGradient
       inkscape:collect="always"
       xlink:href="#StandardGradient"
       id="linearGradient3864"
       gradientUnits="userSpaceOnUse"
       x1="49"
       y1="20"
       x2="49"
       y2="76"
       gradientTransform="translate(0,1)" />
    <linearGradient
       inkscape:collect="always"
       xlink:href="#StandardGradient"
       id="linearGradient3868"
       gradientUnits="userSpaceOnUse"
       x1="49"
       y1="20"
       x2="49"
       y2="76" />
  </defs>
  <sodipodi:namedview
     id="base"
     pagecolor="#ffffff"
     bordercolor="#666666"
     borderopacity="1.0"
     inkscape:pageopacity="0.0"
     inkscape:pageshadow="2"
     inkscape:zoom="3.6037918"
     inkscape:cx="-41.785896"
     inkscape:cy="73.335651"
     inkscape:document-units="px"
     inkscape:current-layer="layer4"
     showgrid="true"
     showborder="true"
     inkscape:showpageshadow="false"
     inkscape:window-width="1920"
     inkscape:window-height="1030"
     inkscape:window-x="0"
     inkscape:window-y="25"
     inkscape:window-maximized="1">
    <inkscape:grid
       type="xygrid"
       id="grid3732"
       visible="true"
       enabled="true" />
  </sodipodi:namedview>
  <metadata
     id="metadata2413">
    <rdf:RDF>
      <cc:Work
         rdf:about="">
        <dc:format>image/svg+xml</dc:format>
        <dc:type
           rdf:resource="http://purl.org/dc/dcmitype/StillImage" />
        <dc:title />
      </cc:Work>
    </rdf:RDF>
  </metadata>
  <g
     inkscape:groupmode="layer"
     id="layer2"
     inkscape:label="Blur Shadow"
     style="display:none"
     sodipodi:insensitive="true">
    <rect
       style="opacity:0.9;fill:url(#ButtonShadow);fill-opacity:1;fill-rule:nonzero;stroke:none;filter:url(#filter3174)"
       id="rect3745"
       width="86"
       height="85"
       x="5"
       y="7"
       rx="6"
       ry="6" />
  </g>
  <g
     inkscape:groupmode="layer"
     id="layer3"
     inkscape:label="Shadow"
     sodipodi:insensitive="true">
    <path
       sodipodi:type="inkscape:offset"
       inkscape:radius="0.99097413"
       inkscape:original="M 12 -94.03125 C 7.028367 -94.03125 2.96875 -89.971633 2.96875 -85 L 2.96875 -14 C 2.96875 -9.0283671 7.0283671 -4.96875 12 -4.96875 L 84 -4.96875 C 88.971633 -4.96875 93.03125 -9.028367 93.03125 -14 L 93.03125 -85 C 93.03125 -89.971633 88.971633 -94.03125 84 -94.03125 L 12 -94.03125 z "
       style="opacity:0.07999998;fill:url(#linearGradient3026);fill-opacity:1;fill-rule:nonzero;stroke:none;display:inline"
       id="path3786"
       d="m 12,-95.03125 c -5.5110903,0 -10.03125,4.52016 -10.03125,10.03125 l 0,71 c 0,5.5110902 4.5201598,10.03125 10.03125,10.03125 l 72,0 c 5.51109,0 10.03125,-4.5201597 10.03125,-10.03125 l 0,-71 c 0,-5.51109 -4.52016,-10.03125 -10.03125,-10.03125 l -72,0 z"
       transform="scale(1,-1)" />
    <path
       sodipodi:type="inkscape:offset"
       inkscape:radius="1.0360184"
       inkscape:original="M 12 -93 C 7.5908667 -93 4 -89.409133 4 -85 L 4 -14 C 4 -9.5908667 7.5908667 -6 12 -6 L 84 -6 C 88.409133 -6 92 -9.5908667 92 -14 L 92 -85 C 92 -89.409133 88.409133 -93 84 -93 L 12 -93 z "
       style="opacity:0.1;fill:url(#linearGradient3780);fill-opacity:1;fill-rule:nonzero;stroke:none;display:inline"
       id="path3778"
       d="m 12,-94.03125 c -4.971633,0 -9.03125,4.059617 -9.03125,9.03125 l 0,71 c 0,4.9716329 4.0596171,9.03125 9.03125,9.03125 l 72,0 c 4.971633,0 9.03125,-4.059617 9.03125,-9.03125 l 0,-71 c 0,-4.971633 -4.059617,-9.03125 -9.03125,-9.03125 l -72,0 z"
       transform="scale(1,-1)" />
    <path
       sodipodi:type="inkscape:offset"
       inkscape:radius="0.98962283"
       inkscape:original="M 12 -92 C 8.122 -92 5 -88.878 5 -85 L 5 -14 C 5 -10.122 8.122 -7 12 -7 L 84 -7 C 87.878 -7 91 -10.122 91 -14 L 91 -85 C 91 -88.878 87.878 -92 84 -92 L 12 -92 z "
       style="opacity:0.2;fill:url(#linearGradient3772);fill-opacity:1;fill-rule:nonzero;stroke:none;display:inline"
       id="path3770"
       d="m 12,-93 c -4.4091333,0 -8,3.590867 -8,8 l 0,71 c 0,4.4091333 3.5908667,8 8,8 l 72,0 c 4.409133,0 8,-3.5908667 8,-8 l 0,-71 c 0,-4.409133 -3.590867,-8 -8,-8 l -72,0 z"
       transform="scale(1,-1)" />
    <rect
       style="opacity:0.3;fill:url(#linearGradient3725);fill-opacity:1;fill-rule:nonzero;stroke:none;display:inline"
       id="rect3723"
       width="86"
       height="85"
       x="5"
       y="-92"
       rx="7"
       ry="7"
       transform="scale(1,-1)" />
    <rect
       transform="scale(1,-1)"
       ry="6"
       rx="6"
       y="-91"
       x="6"
       height="84"
       width="84"
       id="rect3716"
       style="opacity:0.45;fill:url(#linearGradient3721);fill-opacity:1;fill-rule:nonzero;stroke:none;display:inline" />
  </g>
  <g
     inkscape:label="Button"
     inkscape:groupmode="layer"
     id="layer1"
     sodipodi:insensitive="true">
    <rect
       style="fill:url(#linearGradient3617);fill-opacity:1;fill-rule:nonzero;stroke:none"
       id="rect2419"
       width="84"
       height="84"
       x="6"
       y="6"
       rx="6"
       ry="6" />
    <path
       style="opacity:0.5;fill:url(#linearGradient3188);fill-opacity:1;fill-rule:nonzero;stroke:none"
       d="M 12,6 C 8.676,6 6,8.676 6,12 l 0,2 0,68 0,2 c 0,0.334721 0.04135,0.6507 0.09375,0.96875 0.0487,0.295596 0.09704,0.596915 0.1875,0.875 0.00988,0.03038 0.020892,0.0636 0.03125,0.09375 0.098865,0.287771 0.2348802,0.547452 0.375,0.8125 0.1445918,0.273507 0.3156161,0.535615 0.5,0.78125 0.1843839,0.245635 0.3737765,0.473472 0.59375,0.6875 0.439947,0.428056 0.94291,0.814526 1.5,1.09375 0.278545,0.139612 0.5734731,0.246947 0.875,0.34375 -0.2562018,-0.100222 -0.4867109,-0.236272 -0.71875,-0.375 -0.00741,-0.0044 -0.023866,0.0045 -0.03125,0 -0.031933,-0.0193 -0.062293,-0.04251 -0.09375,-0.0625 -0.120395,-0.0767 -0.2310226,-0.163513 -0.34375,-0.25 -0.1061728,-0.0808 -0.2132809,-0.161112 -0.3125,-0.25 C 8.4783201,88.557317 8.3087904,88.373362 8.15625,88.1875 8.0486711,88.057245 7.9378561,87.922215 7.84375,87.78125 7.818661,87.74287 7.805304,87.69538 7.78125,87.65625 7.716487,87.553218 7.6510225,87.451733 7.59375,87.34375 7.4927417,87.149044 7.3880752,86.928049 7.3125,86.71875 7.30454,86.69694 7.288911,86.6782 7.28125,86.65625 7.2494249,86.5643 7.2454455,86.469419 7.21875,86.375 7.1884177,86.268382 7.1483606,86.171969 7.125,86.0625 7.0521214,85.720988 7,85.364295 7,85 L 7,83 7,15 7,13 C 7,10.218152 9.2181517,8 12,8 l 2,0 68,0 2,0 c 2.781848,0 5,2.218152 5,5 l 0,2 0,68 0,2 c 0,0.364295 -0.05212,0.720988 -0.125,1.0625 -0.04415,0.206893 -0.08838,0.397658 -0.15625,0.59375 -0.0077,0.02195 -0.0233,0.04069 -0.03125,0.0625 -0.06274,0.173739 -0.138383,0.367449 -0.21875,0.53125 -0.04158,0.0828 -0.07904,0.169954 -0.125,0.25 -0.0546,0.09721 -0.126774,0.18835 -0.1875,0.28125 -0.09411,0.140965 -0.204921,0.275995 -0.3125,0.40625 -0.143174,0.17445 -0.303141,0.346998 -0.46875,0.5 -0.01117,0.0102 -0.01998,0.02115 -0.03125,0.03125 -0.138386,0.125556 -0.285091,0.234436 -0.4375,0.34375 -0.102571,0.07315 -0.204318,0.153364 -0.3125,0.21875 -0.0074,0.0045 -0.02384,-0.0044 -0.03125,0 -0.232039,0.138728 -0.462548,0.274778 -0.71875,0.375 0.301527,-0.0968 0.596455,-0.204138 0.875,-0.34375 0.55709,-0.279224 1.060053,-0.665694 1.5,-1.09375 0.219973,-0.214028 0.409366,-0.441865 0.59375,-0.6875 0.184384,-0.245635 0.355408,-0.507743 0.5,-0.78125 0.14012,-0.265048 0.276135,-0.524729 0.375,-0.8125 0.01041,-0.03078 0.02133,-0.06274 0.03125,-0.09375 0.09046,-0.278085 0.1388,-0.579404 0.1875,-0.875 C 89.95865,84.6507 90,84.334721 90,84 l 0,-2 0,-68 0,-2 C 90,8.676 87.324,6 84,6 L 12,6 z"
       id="rect3728" />
    <path
       id="path3615"
       d="M 12,90 C 8.676,90 6,87.324 6,84 L 6,82 6,14 6,12 c 0,-0.334721 0.04135,-0.6507 0.09375,-0.96875 0.0487,-0.295596 0.09704,-0.596915 0.1875,-0.875 C 6.29113,10.12587 6.302142,10.09265 6.3125,10.0625 6.411365,9.774729 6.5473802,9.515048 6.6875,9.25 6.8320918,8.976493 7.0031161,8.714385 7.1875,8.46875 7.3718839,8.223115 7.5612765,7.995278 7.78125,7.78125 8.221197,7.353194 8.72416,6.966724 9.28125,6.6875 9.559795,6.547888 9.8547231,6.440553 10.15625,6.34375 9.9000482,6.443972 9.6695391,6.580022 9.4375,6.71875 c -0.00741,0.0044 -0.023866,-0.0045 -0.03125,0 -0.031933,0.0193 -0.062293,0.04251 -0.09375,0.0625 -0.120395,0.0767 -0.2310226,0.163513 -0.34375,0.25 -0.1061728,0.0808 -0.2132809,0.161112 -0.3125,0.25 C 8.4783201,7.442683 8.3087904,7.626638 8.15625,7.8125 8.0486711,7.942755 7.9378561,8.077785 7.84375,8.21875 7.818661,8.25713 7.805304,8.30462 7.78125,8.34375 7.716487,8.446782 7.6510225,8.548267 7.59375,8.65625 7.4927417,8.850956 7.3880752,9.071951 7.3125,9.28125 7.30454,9.30306 7.288911,9.3218 7.28125,9.34375 7.2494249,9.4357 7.2454455,9.530581 7.21875,9.625 7.1884177,9.731618 7.1483606,9.828031 7.125,9.9375 7.0521214,10.279012 7,10.635705 7,11 l 0,2 0,68 0,2 c 0,2.781848 2.2181517,5 5,5 l 2,0 68,0 2,0 c 2.781848,0 5,-2.218152 5,-5 l 0,-2 0,-68 0,-2 C 89,10.635705 88.94788,10.279012 88.875,9.9375 88.83085,9.730607 88.78662,9.539842 88.71875,9.34375 88.71105,9.3218 88.69545,9.30306 88.6875,9.28125 88.62476,9.107511 88.549117,8.913801 88.46875,8.75 88.42717,8.6672 88.38971,8.580046 88.34375,8.5 88.28915,8.40279 88.216976,8.31165 88.15625,8.21875 88.06214,8.077785 87.951329,7.942755 87.84375,7.8125 87.700576,7.63805 87.540609,7.465502 87.375,7.3125 87.36383,7.3023 87.35502,7.29135 87.34375,7.28125 87.205364,7.155694 87.058659,7.046814 86.90625,6.9375 86.803679,6.86435 86.701932,6.784136 86.59375,6.71875 c -0.0074,-0.0045 -0.02384,0.0044 -0.03125,0 -0.232039,-0.138728 -0.462548,-0.274778 -0.71875,-0.375 0.301527,0.0968 0.596455,0.204138 0.875,0.34375 0.55709,0.279224 1.060053,0.665694 1.5,1.09375 0.219973,0.214028 0.409366,0.441865 0.59375,0.6875 0.184384,0.245635 0.355408,0.507743 0.5,0.78125 0.14012,0.265048 0.276135,0.524729 0.375,0.8125 0.01041,0.03078 0.02133,0.06274 0.03125,0.09375 0.09046,0.278085 0.1388,0.579404 0.1875,0.875 C 89.95865,11.3493 90,11.665279 90,12 l 0,2 0,68 0,2 c 0,3.324 -2.676,6 -6,6 l -72,0 z"
       style="opacity:0.2;fill:url(#radialGradient3619);fill-opacity:1;fill-rule:nonzero;stroke:none" />
  </g>
  <g
     inkscape:groupmode="layer"
     id="layer5"
     inkscape:label="Highlight"
     sodipodi:insensitive="true"
     style="display:inline">
    <rect
       style="opacity:0.1;fill:url(#linearGradient3613);fill-opacity:1;fill-rule:nonzero;stroke:#ffffff;stroke-width:0.5;stroke-linecap:round;stroke-linejoin:miter;stroke-miterlimit:4;stroke-opacity:1;stroke-dasharray:none;stroke-dashoffset:0;filter:url(#filter3794)"
       id="rect3171"
       width="66"
       height="66"
       x="15"
       y="15"
       rx="12"
       ry="12"
       clip-path="url(#clipPath3613)" />
  </g>
  <g
     inkscape:groupmode="layer"
     id="layer4"
     inkscape:label="Symbol">
    <path
       style="fill:url(#linearGradient3736);fill-opacity:1;stroke:none;display:inline;enable-background:new"
       d="m -52.000013,16.000055 c -6.578084,0 -11.910673,4.933473 -11.910673,11.019222 0.01598,0.697437 0.0261,1.493764 0.09926,2.36126 -1.041033,0.550102 -1.176728,2.701364 -0.24814,4.870099 0.358069,0.836275 0.846451,1.515776 1.339951,2.066101 0.01645,0.0184 0.03308,0.0312 0.04963,0.04913 0.117798,0.573005 0.204935,1.026217 0.347397,1.672559 0.441331,1.3124 2.265031,3.781004 3.870968,5.903154 0.160151,1.637089 0.173325,3.253913 -0.148893,5.116069 -4.622431,3.801433 -16.444509,5.509609 -16.42679,9.445046 l -1.588084,10.232128 c 0,2.09638 3.159367,4.015841 8.188586,5.312838 l 0.694789,2.804 a 1.7295878,1.7144325 0 0 0 1.091813,1.131438 c 0.223226,0.08562 0.380762,0.266676 0.992554,0.442732 C -62.424897,79.353274 -57.517708,80 -52,80 c 5.517709,0 10.474525,-0.646726 13.697272,-1.574169 0.611792,-0.176056 0.769331,-0.357156 0.992554,-0.442732 a 1.7295878,1.7144325 0 0 0 1.042187,-1.082247 l 0.843671,-2.951578 c 4.906344,-1.294943 8.039703,-3.147592 8.039703,-5.214451 l -1.588095,-10.23212 c -0.01886,-3.368207 -11.910674,-5.509608 -16.47643,-9.445053 -0.18486,-1.507492 -0.193385,-2.991749 -0.09928,-4.476547 1.460096,-2.232553 3.382384,-5.08976 3.870967,-6.542667 0.179567,-0.752422 0.257562,-1.272434 0.397022,-1.918525 0.431165,-0.522382 0.823158,-1.125974 1.141439,-1.86933 0.881833,-2.059528 0.799501,-4.053827 -0.09926,-4.722522 0.0628,-0.894886 0.122622,-1.744011 0.148877,-2.50884 C -40.089364,20.933471 -45.421951,16 -52.000034,16 z"
       id="path3798"
       inkscape:connector-curvature="0" />
    <path
       style="opacity:0.1;fill:#000000;fill-opacity:1;stroke:none;display:inline;enable-background:new"
       d="m -62,16 c -6.578084,0 -11.90625,4.945501 -11.90625,11.03125 0.01598,0.697437 0.02059,1.476254 0.09375,2.34375 -1.041033,0.550102 -1.178588,2.706265 -0.25,4.875 0.358069,0.836275 0.85025,1.512175 1.34375,2.0625 0.01645,0.0184 0.04595,0.04457 0.0625,0.0625 0.117798,0.573005 0.201288,1.009908 0.34375,1.65625 0.441331,1.3124 2.269063,3.7841 3.875,5.90625 0.160151,1.637089 0.165968,3.262844 -0.15625,5.125 -4.622431,3.801433 -16.455219,5.502063 -16.4375,9.4375 L -86.625,68.75 c 0,2.09638 3.158281,4.015503 8.1875,5.3125 l 0.71875,2.78125 a 1.7295878,1.7144325 0 0 0 1.09375,1.125 c 0.223226,0.08562 0.356958,0.292694 0.96875,0.46875 C -72.433502,79.364943 -67.517708,80 -62,80 c 5.517709,0 10.464753,-0.635057 13.6875,-1.5625 0.611792,-0.176056 0.776777,-0.383174 1,-0.46875 a 1.7295878,1.7144325 0 0 0 1.03125,-1.0625 l 0.84375,-2.96875 c 4.906344,-1.294943 8.0625,-3.120641 8.0625,-5.1875 L -38.96875,58.5 c -0.01886,-3.368207 -11.902994,-5.502055 -16.46875,-9.4375 -0.18486,-1.507492 -0.219105,-2.983952 -0.125,-4.46875 1.460096,-2.232553 3.386417,-5.109593 3.875,-6.5625 0.179567,-0.752422 0.26679,-1.260159 0.40625,-1.90625 0.431165,-0.522382 0.837969,-1.131644 1.15625,-1.875 0.881833,-2.059528 0.773761,-4.050055 -0.125,-4.71875 0.0628,-0.894886 0.129995,-1.735171 0.15625,-2.5 C -50.093741,20.945502 -55.421917,16 -62,16 z m 0,1.9375 c 5.589056,0 9.931987,4.097552 9.96875,9.03125 1.56e-4,0.02098 0,0.04149 0,0.0625 -0.02545,0.688779 -0.063,1.491583 -0.125,2.375 a 1.9260586,1.9260586 0 0 0 0.625,1.5625 c -0.04866,-0.03591 0.081,0.101771 0.09375,0.46875 0.017,0.489306 -0.127404,1.265284 -0.46875,2.0625 -0.234439,0.54754 -0.533235,0.992182 -0.875,1.40625 a 1.9260586,1.9260586 0 0 0 -0.375,0.8125 c -0.13846,0.641458 -0.229377,1.123605 -0.375,1.75 -0.140365,0.390152 -0.691849,1.41967 -1.375,2.53125 -0.699714,1.13853 -1.546271,2.407434 -2.28125,3.53125 a 1.9260586,1.9260586 0 0 0 -0.3125,0.9375 c -0.101068,1.594663 -0.0436,3.21399 0.15625,4.84375 a 1.9260586,1.9260586 0 0 0 0.65625,1.21875 c 2.778403,2.394839 6.970946,3.82248 10.46875,5.25 1.748902,0.71376 3.325784,1.389438 4.3125,2 0.493358,0.305281 0.830394,0.621172 0.96875,0.78125 0.02661,0.03078 0.02025,0.01685 0.03125,0.03125 0.0028,0.0078 -0.0026,0.02524 0,0.03125 a 1.9260586,1.9260586 0 0 0 0.03125,0.15625 l 1.5625,9.96875 c 0,0.05314 -0.146787,0.540805 -1.28125,1.25 -1.134463,0.709195 -3.007984,1.446016 -5.34375,2.0625 a 1.9260586,1.9260586 0 0 0 -1.34375,1.34375 l -0.78125,2.78125 c -0.668375,0.271611 -0.489908,0.32241 -0.78125,0.40625 -2.94392,0.847202 -7.786312,1.46875 -13.15625,1.46875 -5.369937,0 -10.177899,-0.620633 -13.125,-1.46875 -0.28413,-0.08176 0.01006,-0.09166 -0.78125,-0.40625 l -0.65625,-2.59375 a 1.9260586,1.9260586 0 0 0 -1.40625,-1.40625 c -2.386591,-0.615483 -4.259795,-1.363017 -5.40625,-2.09375 -1.146455,-0.730733 -1.3125,-1.262692 -1.3125,-1.34375 l 1.5625,-9.96875 A 1.9260586,1.9260586 0 0 0 -83.09375,58.5 c -8.2e-5,-0.01817 0.08294,-0.37888 1.03125,-1 0.948312,-0.62112 2.487742,-1.286755 4.21875,-1.96875 3.462017,-1.36399 7.643678,-2.645444 10.46875,-4.96875 a 1.9260586,1.9260586 0 0 0 0.6875,-1.15625 c 0.354991,-2.051555 0.32799,-3.900697 0.15625,-5.65625 a 1.9260586,1.9260586 0 0 0 -0.375,-0.96875 c -0.798009,-1.054521 -1.635807,-2.193362 -2.3125,-3.1875 -0.66528,-0.97737 -1.15615,-1.896071 -1.25,-2.15625 C -70.47035,37.433 -70.49863,37.41032 -70.5,37.40625 -70.606616,36.910433 -70.677182,36.506216 -70.78125,36 A 1.9260586,1.9260586 0 0 0 -71.25,35.0625 c -0.156701,-0.169767 -0.172559,-0.18931 -0.03125,-0.03125 -0.395143,-0.440643 -0.745486,-0.936828 -1,-1.53125 -0.359852,-0.840442 -0.496566,-1.682848 -0.46875,-2.1875 0.01391,-0.252326 0.05994,-0.355372 0.0625,-0.375 a 1.9260586,1.9260586 0 0 0 0.78125,-1.71875 c -0.06469,-0.767115 -0.04649,-1.475745 -0.0625,-2.1875 0,-0.0105 -3.9e-5,-0.02075 0,-0.03125 0.01844,-4.947692 4.367811,-9.0625 9.96875,-9.0625 z"
       id="path3698"
       inkscape:connector-curvature="0" />
    <path
       style="opacity:0.15;fill:#000000;fill-opacity:1;stroke:none;display:inline;enable-background:new"
       d="m -62,16 c -6.578084,0 -11.90625,4.945501 -11.90625,11.03125 0.01598,0.697437 0.02059,1.476254 0.09375,2.34375 -1.041033,0.550102 -1.178588,2.706265 -0.25,4.875 0.358069,0.836275 0.85025,1.512175 1.34375,2.0625 0.01645,0.0184 0.04595,0.04457 0.0625,0.0625 0.117798,0.573005 0.201288,1.009908 0.34375,1.65625 0.441331,1.3124 2.269063,3.7841 3.875,5.90625 0.160151,1.637089 0.165968,3.262844 -0.15625,5.125 -4.622431,3.801433 -16.455219,5.502063 -16.4375,9.4375 L -86.625,68.75 c 0,2.09638 3.158281,4.015503 8.1875,5.3125 l 0.71875,2.78125 a 1.7295878,1.7144325 0 0 0 1.09375,1.125 c 0.223226,0.08562 0.356958,0.292694 0.96875,0.46875 C -72.433502,79.364943 -67.517708,80 -62,80 c 5.517709,0 10.464753,-0.635057 13.6875,-1.5625 0.611792,-0.176056 0.776777,-0.383174 1,-0.46875 a 1.7295878,1.7144325 0 0 0 1.03125,-1.0625 l 0.84375,-2.96875 c 4.906344,-1.294943 8.0625,-3.120641 8.0625,-5.1875 L -38.96875,58.5 c -0.01886,-3.368207 -11.902994,-5.502055 -16.46875,-9.4375 -0.18486,-1.507492 -0.219105,-2.983952 -0.125,-4.46875 1.460096,-2.232553 3.386417,-5.109593 3.875,-6.5625 0.179567,-0.752422 0.26679,-1.260159 0.40625,-1.90625 0.431165,-0.522382 0.837969,-1.131644 1.15625,-1.875 0.881833,-2.059528 0.773761,-4.050055 -0.125,-4.71875 0.0628,-0.894886 0.129995,-1.735171 0.15625,-2.5 C -50.093741,20.945502 -55.421917,16 -62,16 z m 0,1.0625 c 6.039419,0 10.825314,4.479735 10.84375,9.9375 3.6e-5,0.01053 0,0.02072 0,0.03125 -0.02575,0.723069 -0.0938,1.54758 -0.15625,2.4375 a 1.0515944,1.0515944 0 0 0 0.4375,0.90625 c 0.0647,0.04813 0.289992,0.383332 0.3125,1.03125 0.02251,0.647918 -0.144697,1.534703 -0.53125,2.4375 -0.272505,0.636444 -0.617646,1.161756 -1,1.625 a 1.0515944,1.0515944 0 0 0 -0.21875,0.4375 c -0.136962,0.634517 -0.219439,1.116441 -0.375,1.78125 -0.0084,0.03588 -0.02241,0.05671 -0.03125,0.09375 -0.196607,0.546091 -0.748278,1.566042 -1.4375,2.6875 -0.711269,1.157332 -1.54851,2.442107 -2.28125,3.5625 a 1.0515944,1.0515944 0 0 0 -0.1875,0.5 c -0.09791,1.544782 -0.0368,3.082002 0.15625,4.65625 a 1.0515944,1.0515944 0 0 0 0.34375,0.65625 c 2.553426,2.200921 6.699922,3.6889 10.21875,5.125 1.759414,0.71805 3.359339,1.426603 4.4375,2.09375 0.539081,0.333574 0.959556,0.642518 1.1875,0.90625 0.227944,0.263732 0.249372,0.419065 0.25,0.53125 A 1.0515944,1.0515944 0 0 0 -40,58.65625 L -38.4375,68.75 c 0,0.498211 -0.43142,1.214778 -1.6875,2 -1.25608,0.785222 -3.20468,1.525697 -5.59375,2.15625 a 1.0515944,1.0515944 0 0 0 -0.71875,0.75 l -0.8125,2.90625 -0.03125,0.03125 c -0.0095,0.02386 -0.0015,0.03464 0,0.03125 0.0015,-0.0034 -0.0204,-0.02329 -0.03125,0 -0.0217,0.04658 0.02427,0.01721 0,0.0625 -0.02427,0.04529 -0.0045,-0.01261 -0.03125,0.03125 -0.02676,0.04386 -0.0021,-0.01105 -0.03125,0.03125 -0.03147,0.04061 0.0024,-0.0075 -0.03125,0.03125 -0.03367,0.03879 0.0045,-0.0056 -0.03125,0.03125 -0.03578,0.03686 0.0065,-0.0036 -0.03125,0.03125 -0.03776,0.03481 0.0084,-0.0014 -0.03125,0.03125 -0.01982,0.01633 -0.01013,0.03132 0,0.03125 -0.04138,0.03042 0.01175,-0.02808 -0.03125,0 -0.043,0.02808 0.01323,0.0056 -0.03125,0.03125 -0.04448,0.02565 -0.01667,0.0081 -0.0625,0.03125 -0.04583,0.02315 0.01579,-0.02059 -0.03125,0 -0.04704,0.02059 0.01685,-0.01796 -0.03125,0 a 1.0515944,1.0515944 0 0 0 0,0.03125 c -0.591024,0.226578 -0.456797,0.30816 -0.90625,0.4375 -3.070512,0.883633 -7.969221,1.5 -13.40625,1.5 -5.437028,0 -10.302751,-0.615868 -13.375,-1.5 C -75.815352,77.310779 -75.628603,77.238341 -76.25,77 a 1.0515944,1.0515944 0 0 0 -0.03125,-0.03125 c -0.05173,-0.01761 0.01936,0.02062 -0.03125,0 -0.05061,-0.02062 -0.01318,-0.0077 -0.0625,-0.03125 -0.04932,-0.02356 0.0166,0.02642 -0.03125,0 -0.04785,-0.02642 0.01496,-0.0021 -0.03125,-0.03125 -0.04621,-0.02919 0.01317,6.13e-4 -0.03125,-0.03125 -0.04442,-0.03186 0.01121,0.0032 -0.03125,-0.03125 -0.02123,-0.01721 -0.03379,-0.0089 -0.03125,0 -0.04036,-0.03688 0.0069,0.008 -0.03125,-0.03125 -0.03811,-0.0392 0.0045,0.01014 -0.03125,-0.03125 0.0086,0.0028 0.01661,-0.0095 0,-0.03125 -0.03322,-0.04344 -6.63e-4,0.01408 -0.03125,-0.03125 -0.03059,-0.04533 -0.0034,0.01582 -0.03125,-0.03125 -0.02785,-0.04707 0.025,0.01739 0,-0.03125 -0.025,-0.04864 -0.0092,0.0188 -0.03125,-0.03125 -0.01103,-0.02502 -0.0015,-0.0349 0,-0.03125 l 0,-0.03125 c -0.01905,-0.05127 -0.01528,0.02107 -0.03125,-0.03125 l -0.6875,-2.71875 a 1.0515944,1.0515944 0 0 0 -0.78125,-0.78125 c -2.444714,-0.630473 -4.386408,-1.409372 -5.65625,-2.21875 -1.269842,-0.809378 -1.71875,-1.542347 -1.71875,-2.0625 L -84,58.65625 A 1.0515944,1.0515944 0 0 0 -83.96875,58.5 c -0.0021,-0.456611 0.384425,-1.029013 1.4375,-1.71875 1.053075,-0.689737 2.627699,-1.374086 4.375,-2.0625 3.494601,-1.376828 7.626978,-2.712307 10.21875,-4.84375 a 1.0515944,1.0515944 0 0 0 0.375,-0.625 c 0.340111,-1.965565 0.322728,-3.704481 0.15625,-5.40625 a 1.0515944,1.0515944 0 0 0 -0.1875,-0.53125 c -0.800261,-1.057497 -1.650645,-2.200501 -2.34375,-3.21875 -0.693105,-1.018249 -1.230547,-1.976685 -1.375,-2.40625 -0.121357,-0.55822 -0.202286,-0.995134 -0.3125,-1.53125 a 1.0515944,1.0515944 0 0 0 -0.25,-0.5 c -0.02327,-0.02521 -0.04683,-0.0175 -0.0625,-0.03125 -0.439799,-0.49044 -0.85472,-1.077023 -1.15625,-1.78125 -0.407271,-0.951189 -0.568432,-1.919185 -0.53125,-2.59375 0.03718,-0.674565 0.27681,-0.918641 0.3125,-0.9375 a 1.0515944,1.0515944 0 0 0 0.5625,-1.03125 c -0.0681,-0.807473 -0.07798,-1.547924 -0.09375,-2.25 0,-0.01053 -3.6e-5,-0.02072 0,-0.03125 0.01844,-5.457768 4.80433,-9.9375 10.84375,-9.9375 z"
       id="path3691"
       inkscape:connector-curvature="0" />
    <path
       style="opacity:0.5;fill:#000000;fill-opacity:1;stroke:none;display:inline;enable-background:new"
       d="m -62,16 c -6.578084,0 -11.90625,4.945501 -11.90625,11.03125 0.0048,0.209345 0.02565,0.429835 0.03125,0.65625 C -73.676299,21.76281 -68.452215,17 -62,17 c 6.383903,0 11.57293,4.663117 11.875,10.5 0.0071,-0.149119 0.02633,-0.325307 0.03125,-0.46875 C -50.093741,20.945502 -55.421917,16 -62,16 z m -11.875,13.40625 c -0.609597,0.370124 -0.873775,1.329002 -0.78125,2.5 0.09528,-0.722115 0.387821,-1.290328 0.84375,-1.53125 -0.02837,-0.336398 -0.04907,-0.655372 -0.0625,-0.96875 z m 23.6875,0.1875 c -0.0211,0.320759 -0.03894,0.601831 -0.0625,0.9375 0.407828,0.303432 0.629688,0.893433 0.6875,1.625 0.13658,-1.15474 -0.0914,-2.105822 -0.625,-2.5625 z M -68.375,46.75 c -0.02908,0.735547 -0.0793,1.506579 -0.21875,2.3125 -4.622431,3.801433 -16.455219,5.502063 -16.4375,9.4375 L -86.625,68.75 c 0,0.173606 0.0199,0.329073 0.0625,0.5 l 1.53125,-9.75 c -0.01772,-3.935437 11.815069,-5.636067 16.4375,-9.4375 0.203424,-1.175624 0.23527,-2.265609 0.21875,-3.3125 z m 12.78125,0.40625 c -0.0082,0.963601 0.03649,1.929609 0.15625,2.90625 4.565756,3.935445 16.44989,6.069293 16.46875,9.4375 l 1.53125,9.75 c 0.0422,-0.168029 0.0625,-0.328838 0.0625,-0.5 L -38.96875,58.5 c -0.01886,-3.368207 -11.902994,-5.502055 -16.46875,-9.4375 -0.07832,-0.638679 -0.135628,-1.274104 -0.15625,-1.90625 z"
       id="path3682"
       inkscape:connector-curvature="0" />
    <path
       style="opacity:0.5;fill:#ffffff;fill-opacity:1;stroke:none;display:inline;enable-background:new"
       d="m -40.125,27.5 c -0.03069,0.645974 -0.07398,1.304199 -0.125,2.03125 0.02247,0.01672 0.04105,0.04415 0.0625,0.0625 0.03516,-0.534376 0.07734,-1.084556 0.09375,-1.5625 0,-0.179647 -0.02206,-0.353709 -0.03125,-0.53125 z m -23.75,0.1875 c -0.0039,0.115578 -0.03125,0.227302 -0.03125,0.34375 0.0098,0.426984 0.01005,0.880246 0.03125,1.375 0.0193,-0.01172 0.04253,-0.0207 0.0625,-0.03125 -0.0512,-0.607106 -0.04943,-1.159609 -0.0625,-1.6875 z m -0.78125,4.28125 c -0.106491,0.91862 0.0832,2.088843 0.59375,3.28125 0.358069,0.836275 0.85025,1.512175 1.34375,2.0625 0.01645,0.0184 0.04595,0.04457 0.0625,0.0625 0.117798,0.573005 0.201288,1.009908 0.34375,1.65625 0.441331,1.3124 2.269063,3.7841 3.875,5.90625 0.05904,0.603555 0.05285,1.201144 0.0625,1.8125 0.03812,-0.964003 0.02834,-1.883926 -0.0625,-2.8125 -1.605937,-2.12215 -3.433669,-4.59385 -3.875,-5.90625 -0.142462,-0.646342 -0.225952,-1.083245 -0.34375,-1.65625 -0.01655,-0.01793 -0.04605,-0.0441 -0.0625,-0.0625 -0.4935,-0.550325 -0.985681,-1.226225 -1.34375,-2.0625 -0.338697,-0.791032 -0.530521,-1.571715 -0.59375,-2.28125 z m 25.09375,0.1875 c -0.07751,0.65529 -0.251229,1.366774 -0.5625,2.09375 -0.318281,0.743356 -0.725085,1.352618 -1.15625,1.875 -0.13946,0.646091 -0.226683,1.153828 -0.40625,1.90625 -0.488583,1.452907 -2.414904,4.329947 -3.875,6.5625 -0.0212,0.334536 0.0099,0.665247 0,1 1.460096,-2.232553 3.386417,-5.109593 3.875,-6.5625 0.179567,-0.752422 0.26679,-1.260159 0.40625,-1.90625 0.431165,-0.522382 0.837969,-1.131644 1.15625,-1.875 0.481686,-1.124982 0.632092,-2.213108 0.5625,-3.09375 z m -37,37.09375 -0.0625,0.5 c 0,2.09638 3.158281,4.015503 8.1875,5.3125 l 0.71875,2.78125 a 1.7295878,1.7144325 0 0 0 1.09375,1.125 c 0.223226,0.08562 0.356958,0.292694 0.96875,0.46875 C -62.433502,80.364943 -57.517708,81 -52,81 c 5.517709,0 10.464753,-0.635057 13.6875,-1.5625 0.611792,-0.176056 0.776777,-0.383174 1,-0.46875 a 1.7295878,1.7144325 0 0 0 1.03125,-1.0625 l 0.84375,-2.96875 c 4.906344,-1.294943 8.0625,-3.120641 8.0625,-5.1875 l -0.0625,-0.5 c -0.467429,1.860996 -3.499963,3.499794 -8,4.6875 l -0.84375,2.96875 a 1.7295878,1.7144325 0 0 1 -1.03125,1.0625 c -0.223223,0.08558 -0.388208,0.292694 -1,0.46875 C -41.535247,79.364943 -46.482291,80 -52,80 c -5.517708,0 -10.433502,-0.635057 -13.65625,-1.5625 -0.611792,-0.176056 -0.745524,-0.38313 -0.96875,-0.46875 a 1.7295878,1.7144325 0 0 1 -1.09375,-1.125 L -68.4375,74.0625 c -4.612737,-1.189589 -7.653174,-2.919405 -8.125,-4.8125 z"
       id="path3705"
       inkscape:connector-curvature="0" />
    <path
       style="fill:url(#linearGradient3829);fill-opacity:1;stroke:none"
       d="m 48,20 c -8.301477,0 -14.954547,6.251954 -14.954547,13.999997 0.01872,0.825067 0.08037,2.017651 0.159096,3.02273 -1.419601,0.602502 -1.523191,3.365348 -0.318183,6.204543 0.477848,1.125889 1.086452,1.990381 1.75,2.704548 0.161223,0.79793 0.118923,1.156157 0.318179,2.068182 0.556032,1.668092 2.748224,4.937331 4.772727,7.636364 0.198518,2.072813 0.404452,4.164618 0,6.522727 -5.833473,4.839784 -20.863266,6.921433 -20.840907,11.931818 L 18.568182,76 77.431817,76 77.113622,74.090909 C 77.089706,69.802694 62.034664,67.169477 56.272724,62.159091 56.039587,60.241112 55.995145,58.320918 56.113647,56.431818 57.958409,53.584971 60.426146,49.857949 61.045461,48 c 0.222579,-0.940847 0.30359,-1.576251 0.47727,-2.386365 0.552785,-0.669592 1.02461,-1.426909 1.431821,-2.386365 1.144759,-2.697235 1.070764,-5.272078 -0.159077,-6.045453 0.07251,-1.086755 0.127145,-2.243102 0.159077,-3.18182 C 62.954552,26.251954 56.30149,20 48.000007,20 z"
       id="path3159"
       inkscape:connector-curvature="0" />
    <path
       style="fill:#000000;fill-opacity:1;stroke:none;opacity:0.1"
       d="M 48 20 C 39.698523 20 33.03125 26.251957 33.03125 34 C 33.04997 34.825067 33.140024 36.026171 33.21875 37.03125 C 31.799149 37.633752 31.669992 40.379555 32.875 43.21875 C 33.352848 44.344639 33.961452 45.223333 34.625 45.9375 C 34.786223 46.73543 34.769494 47.087975 34.96875 48 C 35.524782 49.668092 37.694247 52.925967 39.71875 55.625 C 39.917268 57.697813 40.123202 59.798141 39.71875 62.15625 C 33.885277 66.996034 18.852641 69.083365 18.875 74.09375 L 18.5625 76 L 77.4375 76 L 77.125 74.09375 C 77.101084 69.805535 62.04319 67.166636 56.28125 62.15625 C 56.048113 60.238271 56.006498 58.3266 56.125 56.4375 C 57.969762 53.590653 60.411935 49.857949 61.03125 48 C 61.253829 47.059153 61.35757 46.435114 61.53125 45.625 C 62.084035 44.955408 62.561539 44.178206 62.96875 43.21875 C 64.113509 40.521515 64.011091 37.960875 62.78125 37.1875 C 62.85376 36.100745 62.936818 34.938718 62.96875 34 C 62.96875 26.251957 56.301483 20 48 20 z M 48 22.03125 C 55.260271 22.03125 60.901311 27.38128 60.9375 33.9375 C 60.936906 33.95496 60.938134 33.982323 60.9375 34 C 60.906298 34.869331 60.821511 35.990712 60.75 37.0625 A 2.0274208 2.0274208 0 0 0 61.59375 38.84375 C 61.57533 38.847187 61.732515 39.044316 61.75 39.5625 C 61.773314 40.253412 61.567498 41.321274 61.09375 42.4375 C 60.755389 43.234735 60.396122 43.826072 59.96875 44.34375 A 2.0274208 2.0274208 0 0 0 59.5625 45.1875 C 59.393332 45.976567 59.271004 46.569957 59.09375 47.34375 C 58.908093 47.900723 58.204622 49.334998 57.3125 50.8125 C 56.420378 52.290002 55.362006 53.917047 54.4375 55.34375 A 2.0274208 2.0274208 0 0 0 54.09375 56.3125 C 53.968041 58.316483 54.03213 60.356783 54.28125 62.40625 A 2.0274208 2.0274208 0 0 0 54.9375 63.6875 C 58.345325 66.650828 63.654178 68.478743 68.09375 70.28125 C 70.313536 71.182504 72.302022 72.04668 73.59375 72.84375 C 74.239614 73.242285 74.720686 73.624 74.9375 73.875 C 75.028327 73.980149 74.978206 73.93122 75 73.96875 L 20.96875 73.96875 C 21.023933 73.699383 21.286459 73.229839 22.40625 72.5 C 23.659282 71.683319 25.638906 70.79942 27.84375 69.9375 C 32.253438 68.213661 37.534916 66.593582 41 63.71875 A 2.0274208 2.0274208 0 0 0 41.71875 62.5 C 42.176488 59.831216 41.948224 57.507238 41.75 55.4375 A 2.0274208 2.0274208 0 0 0 41.34375 54.40625 C 39.371973 51.77751 37.212441 48.262322 36.90625 47.34375 C 36.786761 46.724614 36.79419 46.36861 36.625 45.53125 A 2.0274208 2.0274208 0 0 0 36.125 44.5625 C 35.605112 44.002952 35.134196 43.342729 34.75 42.4375 C 34.249495 41.258228 34.056513 40.109673 34.09375 39.40625 C 34.112369 39.054538 34.148174 38.896173 34.15625 38.84375 C 34.130989 38.857586 34.072337 38.875549 34 38.90625 A 2.0274208 2.0274208 0 0 0 35.25 36.875 C 35.172533 35.885991 35.080202 34.724521 35.0625 34 C 35.062308 33.992158 35.062675 33.976484 35.0625 33.96875 C 35.080634 27.398095 40.728038 22.03125 48 22.03125 z "
       id="path3849" />
    <path
       style="fill:#000000;fill-opacity:1;stroke:none;opacity:0.15"
       d="M 48 20 C 39.698523 20 33.03125 26.251957 33.03125 34 C 33.04997 34.825067 33.140024 36.026171 33.21875 37.03125 C 31.799149 37.633752 31.669992 40.379555 32.875 43.21875 C 33.352848 44.344639 33.961452 45.223333 34.625 45.9375 C 34.786223 46.73543 34.769494 47.087975 34.96875 48 C 35.524782 49.668092 37.694247 52.925967 39.71875 55.625 C 39.917268 57.697813 40.123202 59.798141 39.71875 62.15625 C 33.885277 66.996034 18.852641 69.083365 18.875 74.09375 L 18.5625 76 L 77.4375 76 L 77.125 74.09375 C 77.101084 69.805535 62.04319 67.166636 56.28125 62.15625 C 56.048113 60.238271 56.006498 58.3266 56.125 56.4375 C 57.969762 53.590653 60.411935 49.857949 61.03125 48 C 61.253829 47.059153 61.35757 46.435114 61.53125 45.625 C 62.084035 44.955408 62.561539 44.178206 62.96875 43.21875 C 64.113509 40.521515 64.011091 37.960875 62.78125 37.1875 C 62.85376 36.100745 62.936818 34.938718 62.96875 34 C 62.96875 26.251957 56.301483 20 48 20 z M 48 21 C 55.783097 21 61.950648 26.814429 61.96875 33.96875 C 61.968777 33.979291 61.96875 33.989453 61.96875 34 C 61.937185 34.903446 61.853269 36.045601 61.78125 37.125 A 1.0097464 1.0097464 0 0 0 62.25 38.03125 C 62.450523 38.157347 62.720198 38.648052 62.75 39.53125 C 62.779802 40.414448 62.554507 41.579624 62.03125 42.8125 C 61.658329 43.691163 61.240324 44.374818 60.75 44.96875 A 1.0097464 1.0097464 0 0 0 60.53125 45.40625 C 60.359802 46.205952 60.292127 46.835236 60.09375 47.6875 C 60.093233 47.68972 60.063018 47.685276 60.0625 47.6875 C 59.8146 48.431201 59.092889 49.813026 58.1875 51.3125 C 57.282111 52.811974 56.204689 54.449943 55.28125 55.875 A 1.0097464 1.0097464 0 0 0 55.125 56.375 C 55.002909 58.321317 55.040153 60.297784 55.28125 62.28125 A 1.0097464 1.0097464 0 0 0 55.625 62.90625 C 58.768367 65.639615 64.005017 67.531433 68.46875 69.34375 C 70.700616 70.249908 72.726183 71.105601 74.125 71.96875 C 74.824408 72.400325 75.366045 72.846609 75.6875 73.21875 C 76.008955 73.590891 76.123657 73.852865 76.125 74.09375 A 1.0097464 1.0097464 0 0 0 76.125 74.25 L 76.25 75 L 19.75 75 L 19.875 74.25 A 1.0097464 1.0097464 0 0 0 19.875 74.09375 C 19.871665 73.346324 20.468099 72.552849 21.84375 71.65625 C 23.219401 70.759651 25.245118 69.869264 27.46875 69 C 31.916014 67.261471 37.185162 65.583973 40.375 62.9375 A 1.0097464 1.0097464 0 0 0 40.71875 62.3125 C 41.149741 59.799661 40.917121 57.602532 40.71875 55.53125 A 1.0097464 1.0097464 0 0 0 40.53125 55.03125 C 38.542942 52.380471 36.415357 49.027669 35.96875 47.71875 C 35.966518 47.71221 35.939646 47.693937 35.9375 47.6875 C 35.778788 46.924498 35.792031 46.576674 35.625 45.75 A 1.0097464 1.0097464 0 0 0 35.375 45.25 C 34.783001 44.61284 34.243705 43.828491 33.8125 42.8125 C 33.260796 41.512595 33.014282 40.254601 33.0625 39.34375 C 33.110718 38.432899 33.41282 38.058803 33.625 37.96875 A 1.0097464 1.0097464 0 0 0 34.21875 36.9375 C 34.141056 35.945602 34.05009 34.774512 34.03125 34 C 34.03105 33.991794 34.031434 33.976864 34.03125 33.96875 C 34.049352 26.814429 40.216909 21 48 21 z "
       id="path3840" />
    <path
       style="fill:#000000;fill-opacity:1;stroke:none;opacity:0.5"
       d="M 48 20 C 39.698523 20 33.03125 26.251957 33.03125 34 C 33.034338 34.136099 33.057192 34.346392 33.0625 34.5 C 33.343114 26.986183 39.878958 21 48 21 C 56.132279 21 62.673855 27.00281 62.9375 34.53125 C 62.944061 34.364036 62.963428 34.156453 62.96875 34 C 62.96875 26.251957 56.301483 20 48 20 z M 33.15625 37.0625 C 32.339979 37.45895 31.988732 38.606566 32.09375 40.0625 C 32.185598 39.05794 32.55877 38.311356 33.21875 38.03125 C 33.193586 37.709987 33.17708 37.403952 33.15625 37.0625 z M 62.84375 37.25 C 62.825632 37.574514 62.802586 37.867719 62.78125 38.1875 C 63.332028 38.533852 63.637267 39.238093 63.71875 40.15625 C 63.820319 38.810081 63.528235 37.738444 62.84375 37.25 z M 56.0625 59.28125 C 56.056101 60.565618 56.124136 61.863699 56.28125 63.15625 C 62.04319 68.166636 77.101084 70.805535 77.125 75.09375 L 77.28125 76 L 77.4375 76 L 77.125 74.09375 C 77.101084 69.805535 62.04319 67.166636 56.28125 62.15625 C 56.164682 61.19726 56.08794 60.237183 56.0625 59.28125 z M 39.96875 59.53125 C 39.959209 60.37806 39.875205 61.244056 39.71875 62.15625 C 33.885277 66.996034 18.852641 69.083365 18.875 74.09375 L 18.5625 76 L 18.71875 76 L 18.875 75.09375 C 18.852641 70.083365 33.885277 67.996034 39.71875 63.15625 C 39.936782 61.88504 40.008698 60.686425 39.96875 59.53125 z "
       id="path3831" />
    <path
       style="fill:#ffffff;fill-opacity:1;stroke:none;opacity:0.5"
       d="M 33.0625 34.5 C 33.056265 34.666944 33.03125 34.831594 33.03125 35 C 33.043986 35.561343 33.111912 36.335712 33.15625 37.0625 C 33.177789 37.052039 33.196569 37.040664 33.21875 37.03125 C 33.15301 36.191964 33.089371 35.277604 33.0625 34.5 z M 62.9375 34.53125 C 62.904695 35.367319 62.841675 36.281871 62.78125 37.1875 C 62.805808 37.202943 62.820115 37.233134 62.84375 37.25 C 62.887205 36.471673 62.946214 35.662498 62.96875 35 C 62.96875 34.842077 62.942986 34.68789 62.9375 34.53125 z M 32.09375 40.0625 C 31.988036 41.218724 32.230207 42.699512 32.875 44.21875 C 33.352848 45.344639 33.961452 46.223333 34.625 46.9375 C 34.786223 47.73543 34.769494 48.087975 34.96875 49 C 35.524782 50.668092 37.694247 53.925967 39.71875 56.625 C 39.810251 57.5804 39.934594 58.543563 39.96875 59.53125 C 39.983874 58.188974 39.840475 56.895981 39.71875 55.625 C 37.694247 52.925967 35.524782 49.668092 34.96875 48 C 34.769494 47.087975 34.786223 46.73543 34.625 45.9375 C 33.961452 45.223333 33.352848 44.344639 32.875 43.21875 C 32.402371 42.105158 32.16331 41.026857 32.09375 40.0625 z M 63.71875 40.15625 C 63.648186 41.09148 63.428659 42.135132 62.96875 43.21875 C 62.561539 44.178206 62.084035 44.955408 61.53125 45.625 C 61.35757 46.435114 61.253829 47.059153 61.03125 48 C 60.411935 49.857949 57.969762 53.590653 56.125 56.4375 C 56.074765 57.238314 56.05221 58.034298 56.0625 58.84375 C 56.071355 58.368109 56.095374 57.909775 56.125 57.4375 C 57.969762 54.590653 60.411935 50.857949 61.03125 49 C 61.253829 48.059153 61.35757 47.435114 61.53125 46.625 C 62.084035 45.955408 62.561539 45.178206 62.96875 44.21875 C 63.600835 42.729458 63.819212 41.288261 63.71875 40.15625 z M 18.71875 76 L 18.5625 77 L 77.4375 77 L 77.28125 76 L 18.71875 76 z "
       id="path3862" />
  </g>
</svg>
