<?xml version="1.0" encoding="UTF-8" standalone="no"?>
<!-- Created with Inkscape (http://www.inkscape.org/) -->

<svg
   xmlns:dc="http://purl.org/dc/elements/1.1/"
   xmlns:cc="http://creativecommons.org/ns#"
   xmlns:rdf="http://www.w3.org/1999/02/22-rdf-syntax-ns#"
   xmlns:svg="http://www.w3.org/2000/svg"
   xmlns="http://www.w3.org/2000/svg"
   xmlns:xlink="http://www.w3.org/1999/xlink"
   xmlns:sodipodi="http://sodipodi.sourceforge.net/DTD/sodipodi-0.dtd"
   xmlns:inkscape="http://www.inkscape.org/namespaces/inkscape"
   width="96"
   height="96"
   id="svg2408"
   sodipodi:version="0.32"
   inkscape:version="0.48.1 r9760"
   version="1.0"
   sodipodi:docname="stock_people.svg"
   inkscape:output_extension="org.inkscape.output.svg.inkscape">
  <defs
     id="defs2410">
    <inkscape:perspective
       sodipodi:type="inkscape:persp3d"
       inkscape:vp_x="0 : 48 : 1"
       inkscape:vp_y="0 : 1000 : 0"
       inkscape:vp_z="96 : 48 : 1"
       inkscape:persp3d-origin="48 : 32 : 1"
       id="perspective48" />
    <linearGradient
       id="ButtonShadow"
       gradientTransform="scale(1.0058652,0.994169)"
       x1="45.447727"
       y1="92.539597"
       x2="45.447727"
       y2="7.0165396"
       gradientUnits="userSpaceOnUse">
      <stop
         style="stop-color:#000000;stop-opacity:1;"
         offset="0"
         id="stop3750" />
      <stop
         style="stop-color:#000000;stop-opacity:0.58823532;"
         offset="1"
         id="stop3752" />
    </linearGradient>
    <linearGradient
       inkscape:collect="always"
       id="linearGradient3737">
      <stop
         style="stop-color:#ffffff;stop-opacity:1;"
         offset="0"
         id="stop3739" />
      <stop
         style="stop-color:#ffffff;stop-opacity:0;"
         offset="1"
         id="stop3741" />
    </linearGradient>
    <linearGradient
       id="linearGradient3700">
      <stop
         style="stop-color:#bebebe;stop-opacity:1;"
         offset="0"
         id="stop3702" />
      <stop
         style="stop-color:#dcdcdc;stop-opacity:1;"
         offset="1"
         id="stop3704" />
    </linearGradient>
    <filter
       inkscape:collect="always"
       id="filter3174">
      <feGaussianBlur
         inkscape:collect="always"
         stdDeviation="1.71"
         id="feGaussianBlur3176" />
    </filter>
    <linearGradient
       inkscape:collect="always"
       xlink:href="#linearGradient3737"
       id="linearGradient3188"
       gradientUnits="userSpaceOnUse"
       x1="36.357143"
       y1="6"
       x2="36.357143"
       y2="63.893143" />
    <filter
       inkscape:collect="always"
       id="filter3794"
       x="-0.192"
       width="1.384"
       y="-0.192"
       height="1.384">
      <feGaussianBlur
         inkscape:collect="always"
         stdDeviation="5.28"
         id="feGaussianBlur3796" />
    </filter>
    <linearGradient
       inkscape:collect="always"
       xlink:href="#linearGradient3737"
       id="linearGradient3613"
       x1="48"
       y1="20.220806"
       x2="48"
       y2="138.66119"
       gradientUnits="userSpaceOnUse" />
    <radialGradient
       inkscape:collect="always"
       xlink:href="#linearGradient3737"
       id="radialGradient3619"
       cx="48"
       cy="90.171875"
       fx="48"
       fy="90.171875"
       r="42"
       gradientTransform="matrix(1.1573129,0,0,0.99590774,-7.5510206,0.19713193)"
       gradientUnits="userSpaceOnUse" />
    <clipPath
       clipPathUnits="userSpaceOnUse"
       id="clipPath3613">
      <rect
         ry="6"
         rx="6"
         y="6"
         x="6"
         height="84"
         width="84"
         id="rect3615"
         style="fill:#ffffff;fill-opacity:1;fill-rule:nonzero;stroke:none" />
    </clipPath>
    <linearGradient
       inkscape:collect="always"
       xlink:href="#linearGradient3700"
       id="linearGradient3617"
       gradientUnits="userSpaceOnUse"
       x1="48"
       y1="90"
       x2="48"
       y2="5.9877172" />
    <linearGradient
       id="ButtonShadow-0"
       gradientTransform="matrix(1.0058652,0,0,0.994169,100,0)"
       x1="45.447727"
       y1="92.539597"
       x2="45.447727"
       y2="7.0165396"
       gradientUnits="userSpaceOnUse">
      <stop
         style="stop-color:#000000;stop-opacity:1;"
         offset="0"
         id="stop3750-8" />
      <stop
         style="stop-color:#000000;stop-opacity:0.58823532;"
         offset="1"
         id="stop3752-5" />
    </linearGradient>
    <linearGradient
       inkscape:collect="always"
       xlink:href="#ButtonShadow-0"
       id="linearGradient3780"
       gradientUnits="userSpaceOnUse"
       gradientTransform="matrix(1.0238095,0,0,1.0119048,-1.1428571,-98.071429)"
       x1="32.251034"
       y1="6.1317081"
       x2="32.251034"
       y2="90.238609" />
    <linearGradient
       inkscape:collect="always"
       xlink:href="#ButtonShadow-0"
       id="linearGradient3772"
       gradientUnits="userSpaceOnUse"
       gradientTransform="matrix(1.0238095,0,0,1.0119048,-1.1428571,-98.071429)"
       x1="32.251034"
       y1="6.1317081"
       x2="32.251034"
       y2="90.238609" />
    <linearGradient
       inkscape:collect="always"
       xlink:href="#ButtonShadow-0"
       id="linearGradient3725"
       gradientUnits="userSpaceOnUse"
       gradientTransform="matrix(1.0238095,0,0,1.0119048,-1.1428571,-98.071429)"
       x1="32.251034"
       y1="6.1317081"
       x2="32.251034"
       y2="90.238609" />
    <linearGradient
       inkscape:collect="always"
       xlink:href="#ButtonShadow-0"
       id="linearGradient3721"
       gradientUnits="userSpaceOnUse"
       gradientTransform="translate(0,-97)"
       x1="32.251034"
       y1="6.1317081"
       x2="32.251034"
       y2="90.238609" />
    <linearGradient
       y2="90.238609"
       x2="32.251034"
       y1="6.1317081"
       x1="32.251034"
       gradientTransform="matrix(1.0238095,0,0,1.0119048,-1.1428571,-98.071429)"
       gradientUnits="userSpaceOnUse"
       id="linearGradient3026"
       xlink:href="#ButtonShadow-0"
       inkscape:collect="always" />
    <inkscape:perspective
       id="perspective3151"
       inkscape:persp3d-origin="0.5 : 0.33333333 : 1"
       inkscape:vp_z="1 : 0.5 : 1"
       inkscape:vp_y="0 : 1000 : 0"
       inkscape:vp_x="0 : 0.5 : 1"
       sodipodi:type="inkscape:persp3d" />
    <inkscape:perspective
       id="perspective2867"
       inkscape:persp3d-origin="0.5 : 0.33333333 : 1"
       inkscape:vp_z="1 : 0.5 : 1"
       inkscape:vp_y="0 : 1000 : 0"
       inkscape:vp_x="0 : 0.5 : 1"
       sodipodi:type="inkscape:persp3d" />
    <linearGradient
       inkscape:collect="always"
       xlink:href="#StandardGradient"
       id="linearGradient3227"
       gradientUnits="userSpaceOnUse"
       gradientTransform="matrix(0.9219544,0,0,1.0846523,-0.01723507,-0.03125)"
       x1="11.998966"
       y1="2.7658634"
       x2="11.998966"
       y2="15.702114" />
    <linearGradient
       id="StandardGradient"
       gradientTransform="scale(0.9219544,1.0846523)"
       x1="11.998966"
       y1="0.92195445"
       x2="11.998966"
       y2="19.387045"
       gradientUnits="userSpaceOnUse">
      <stop
         style="stop-color:#000000;stop-opacity:0.86274511;"
         offset="0"
         id="stop3283" />
      <stop
         style="stop-color:#000000;stop-opacity:0.47058824;"
         offset="1"
         id="stop2651" />
    </linearGradient>
    <linearGradient
       y2="15.702114"
       x2="11.998966"
       y1="2.7658634"
       x1="11.998966"
       gradientTransform="matrix(0.9219544,0,0,1.0846523,55.982765,25.96875)"
       gradientUnits="userSpaceOnUse"
       id="linearGradient2876"
       xlink:href="#StandardGradient"
       inkscape:collect="always" />
    <linearGradient
       inkscape:collect="always"
       xlink:href="#StandardGradient"
       id="linearGradient3680"
       x1="56"
       y1="16"
       x2="56"
       y2="80"
       gradientUnits="userSpaceOnUse"
       gradientTransform="matrix(0.94249199,0,0,0.94249199,2.7603835,0.8754023)" />
    <linearGradient
       inkscape:collect="always"
       xlink:href="#StandardGradient"
       id="linearGradient3686"
       gradientUnits="userSpaceOnUse"
       gradientTransform="matrix(0.94249199,0,0,0.94249199,2.7603835,1.8754023)"
       x1="56"
       y1="16"
       x2="56"
       y2="80" />
    <linearGradient
       inkscape:collect="always"
       xlink:href="#StandardGradient"
       id="linearGradient3688"
       gradientUnits="userSpaceOnUse"
       gradientTransform="matrix(0.94249199,0,0,0.94249199,2.7603835,0.8754023)"
       x1="56"
       y1="16"
       x2="56"
       y2="80" />
    <linearGradient
       inkscape:collect="always"
       xlink:href="#StandardGradient"
       id="linearGradient3707"
       gradientUnits="userSpaceOnUse"
       gradientTransform="matrix(0.94249199,0,0,0.94249199,2.7603835,1.8754023)"
       x1="56"
       y1="16"
       x2="56"
       y2="80" />
    <linearGradient
       inkscape:collect="always"
       xlink:href="#StandardGradient"
       id="linearGradient3711"
       gradientUnits="userSpaceOnUse"
       gradientTransform="matrix(0.94249199,0,0,0.94249199,2.7603835,0.8754023)"
       x1="56"
       y1="16"
       x2="56"
       y2="80" />
    <inkscape:perspective
       id="perspective3723"
       inkscape:persp3d-origin="0.5 : 0.33333333 : 1"
       inkscape:vp_z="1 : 0.5 : 1"
       inkscape:vp_y="0 : 1000 : 0"
       inkscape:vp_x="0 : 0.5 : 1"
       sodipodi:type="inkscape:persp3d" />
    <linearGradient
       inkscape:collect="always"
       xlink:href="#StandardGradient-3"
       id="linearGradient3680-3"
       x1="56"
       y1="16"
       x2="56"
       y2="80"
       gradientUnits="userSpaceOnUse"
       gradientTransform="matrix(0.94249199,0,0,0.94249199,2.7603835,0.8754023)" />
    <linearGradient
       id="StandardGradient-3"
       gradientTransform="scale(0.9219544,1.0846523)"
       x1="11.998966"
       y1="0.92195445"
       x2="11.998966"
       y2="19.387045"
       gradientUnits="userSpaceOnUse">
      <stop
         style="stop-color:#000000;stop-opacity:0.86274511;"
         offset="0"
         id="stop3283-5" />
      <stop
         style="stop-color:#000000;stop-opacity:0.47058824;"
         offset="1"
         id="stop2651-2" />
    </linearGradient>
    <linearGradient
       y2="80"
       x2="56"
       y1="16"
       x1="56"
       gradientTransform="matrix(0.94249199,0,0,0.94249199,-88.239616,0.875402)"
       gradientUnits="userSpaceOnUse"
       id="linearGradient3736"
       xlink:href="#StandardGradient-3"
       inkscape:collect="always" />
    <linearGradient
       inkscape:collect="always"
       xlink:href="#StandardGradient-3"
       id="linearGradient2887"
       gradientUnits="userSpaceOnUse"
       gradientTransform="matrix(0.94249199,0,0,0.94249199,82.760384,0.875402)"
       x1="56"
       y1="16"
       x2="56"
       y2="80" />
    <linearGradient
       inkscape:collect="always"
       xlink:href="#StandardGradient-3"
       id="linearGradient2891"
       gradientUnits="userSpaceOnUse"
       gradientTransform="matrix(0.706869,0,0,0.706869,-2.6264818,12.656549)"
       x1="56"
       y1="16"
       x2="56"
       y2="80" />
    <linearGradient
       inkscape:collect="always"
       xlink:href="#StandardGradient-3"
       id="linearGradient2895"
       gradientUnits="userSpaceOnUse"
       gradientTransform="matrix(0.94249199,0,0,0.94249199,10.760384,0.875402)"
       x1="56"
       y1="16"
       x2="56"
       y2="80" />
    <linearGradient
       inkscape:collect="always"
       xlink:href="#StandardGradient-3"
       id="linearGradient2899"
       gradientUnits="userSpaceOnUse"
       gradientTransform="matrix(0.94249199,0,0,0.94249199,10.760384,0.875402)"
       x1="56"
       y1="16"
       x2="56"
       y2="80" />
    <linearGradient
       inkscape:collect="always"
       xlink:href="#StandardGradient-3"
       id="linearGradient2902"
       gradientUnits="userSpaceOnUse"
       gradientTransform="matrix(0.706869,0,0,0.706869,-101.62648,12.656549)"
       x1="56"
       y1="16"
       x2="56"
       y2="80" />
    <linearGradient
       inkscape:collect="always"
       xlink:href="#StandardGradient-3"
       id="linearGradient2908"
       gradientUnits="userSpaceOnUse"
       gradientTransform="matrix(0.706869,0,0,0.706869,-1.6264818,13.656549)"
       x1="56"
       y1="16"
       x2="56"
       y2="80" />
    <linearGradient
       inkscape:collect="always"
       xlink:href="#StandardGradient-3"
       id="linearGradient2910"
       gradientUnits="userSpaceOnUse"
       gradientTransform="matrix(0.706869,0,0,0.706869,-1.6264818,12.656549)"
       x1="56"
       y1="16"
       x2="56"
       y2="80" />
    <linearGradient
       inkscape:collect="always"
       xlink:href="#StandardGradient-3"
       id="linearGradient3687"
       gradientUnits="userSpaceOnUse"
       gradientTransform="matrix(0.706869,0,0,0.706869,-1.6264818,13.656549)"
       x1="56"
       y1="16"
       x2="56"
       y2="80" />
    <linearGradient
       inkscape:collect="always"
       xlink:href="#StandardGradient-3"
       id="linearGradient3691"
       gradientUnits="userSpaceOnUse"
       gradientTransform="matrix(0.706869,0,0,0.706869,-1.6264818,12.656549)"
       x1="56"
       y1="16"
       x2="56"
       y2="80" />
    <linearGradient
       inkscape:collect="always"
       xlink:href="#StandardGradient-5"
       id="linearGradient3829"
       x1="49"
       y1="20"
       x2="49"
       y2="76"
       gradientUnits="userSpaceOnUse" />
    <linearGradient
       id="StandardGradient-5"
       gradientTransform="scale(0.9219544,1.0846523)"
       x1="11.998966"
       y1="0.92195445"
       x2="11.998966"
       y2="19.387045"
       gradientUnits="userSpaceOnUse">
      <stop
         style="stop-color:#000000;stop-opacity:0.86274511;"
         offset="0"
         id="stop3283-0" />
      <stop
         style="stop-color:#000000;stop-opacity:0.47058824;"
         offset="1"
         id="stop2651-4" />
    </linearGradient>
    <linearGradient
       y2="76"
       x2="49"
       y1="20"
       x1="49"
       gradientUnits="userSpaceOnUse"
       id="linearGradient3886"
       xlink:href="#StandardGradient-5"
       inkscape:collect="always"
       gradientTransform="matrix(0.85714286,0,0,0.85714286,14.857143,6.857143)" />
    <linearGradient
       inkscape:collect="always"
       xlink:href="#StandardGradient-5"
       id="linearGradient3081"
       gradientUnits="userSpaceOnUse"
       gradientTransform="matrix(0.57142857,0,0,0.57142857,4.1623373,24.571429)"
       x1="49"
       y1="20"
       x2="49"
       y2="76" />
    <linearGradient
       inkscape:collect="always"
       xlink:href="#StandardGradient-5"
       id="linearGradient3858"
       gradientUnits="userSpaceOnUse"
       gradientTransform="matrix(0.85714286,0,0,0.85714286,14.857143,6.857143)"
       x1="49"
       y1="20"
       x2="49"
       y2="76" />
    <linearGradient
       inkscape:collect="always"
       xlink:href="#StandardGradient-5"
       id="linearGradient3861"
       gradientUnits="userSpaceOnUse"
       gradientTransform="matrix(0.85714286,0,0,0.85714286,14.857143,7.857143)"
       x1="49"
       y1="20"
       x2="49"
       y2="76" />
    <linearGradient
       inkscape:collect="always"
       xlink:href="#StandardGradient-5"
       id="linearGradient3865"
       gradientUnits="userSpaceOnUse"
       gradientTransform="matrix(0.85714286,0,0,0.85714286,14.857143,6.857143)"
       x1="49"
       y1="20"
       x2="49"
       y2="76" />
    <linearGradient
       inkscape:collect="always"
       xlink:href="#StandardGradient-5"
       id="linearGradient3872"
       gradientUnits="userSpaceOnUse"
       gradientTransform="matrix(0.85714286,0,0,0.85714286,14.857143,6.857143)"
       x1="49"
       y1="20"
       x2="49"
       y2="76" />
    <linearGradient
       inkscape:collect="always"
       xlink:href="#StandardGradient-5"
       id="linearGradient3882"
       gradientUnits="userSpaceOnUse"
       gradientTransform="matrix(0.85714286,0,0,0.85714286,14.857143,6.857143)"
       x1="49"
       y1="20"
       x2="49"
       y2="76" />
  </defs>
  <sodipodi:namedview
     id="base"
     pagecolor="#ffffff"
     bordercolor="#666666"
     borderopacity="1.0"
     inkscape:pageopacity="0.0"
     inkscape:pageshadow="2"
     inkscape:zoom="5.5166961"
     inkscape:cx="21.015848"
     inkscape:cy="42.842842"
     inkscape:document-units="px"
     inkscape:current-layer="layer4"
     showgrid="true"
     showborder="true"
     inkscape:showpageshadow="false"
     inkscape:window-width="1920"
     inkscape:window-height="1030"
     inkscape:window-x="0"
     inkscape:window-y="25"
     inkscape:window-maximized="1">
    <inkscape:grid
       type="xygrid"
       id="grid3732"
       visible="true"
       enabled="true" />
  </sodipodi:namedview>
  <metadata
     id="metadata2413">
    <rdf:RDF>
      <cc:Work
         rdf:about="">
        <dc:format>image/svg+xml</dc:format>
        <dc:type
           rdf:resource="http://purl.org/dc/dcmitype/StillImage" />
        <dc:title />
      </cc:Work>
    </rdf:RDF>
  </metadata>
  <g
     inkscape:groupmode="layer"
     id="layer2"
     inkscape:label="Blur Shadow"
     style="display:none"
     sodipodi:insensitive="true">
    <rect
       style="opacity:0.9;fill:url(#ButtonShadow);fill-opacity:1;fill-rule:nonzero;stroke:none;filter:url(#filter3174)"
       id="rect3745"
       width="86"
       height="85"
       x="5"
       y="7"
       rx="6"
       ry="6" />
  </g>
  <g
     inkscape:groupmode="layer"
     id="layer3"
     inkscape:label="Shadow"
     sodipodi:insensitive="true">
    <path
       sodipodi:type="inkscape:offset"
       inkscape:radius="0.99097413"
       inkscape:original="M 12 -94.03125 C 7.028367 -94.03125 2.96875 -89.971633 2.96875 -85 L 2.96875 -14 C 2.96875 -9.0283671 7.0283671 -4.96875 12 -4.96875 L 84 -4.96875 C 88.971633 -4.96875 93.03125 -9.028367 93.03125 -14 L 93.03125 -85 C 93.03125 -89.971633 88.971633 -94.03125 84 -94.03125 L 12 -94.03125 z "
       style="opacity:0.07999998;fill:url(#linearGradient3026);fill-opacity:1;fill-rule:nonzero;stroke:none;display:inline"
       id="path3786"
       d="m 12,-95.03125 c -5.5110903,0 -10.03125,4.52016 -10.03125,10.03125 l 0,71 c 0,5.5110902 4.5201598,10.03125 10.03125,10.03125 l 72,0 c 5.51109,0 10.03125,-4.5201597 10.03125,-10.03125 l 0,-71 c 0,-5.51109 -4.52016,-10.03125 -10.03125,-10.03125 l -72,0 z"
       transform="scale(1,-1)" />
    <path
       sodipodi:type="inkscape:offset"
       inkscape:radius="1.0360184"
       inkscape:original="M 12 -93 C 7.5908667 -93 4 -89.409133 4 -85 L 4 -14 C 4 -9.5908667 7.5908667 -6 12 -6 L 84 -6 C 88.409133 -6 92 -9.5908667 92 -14 L 92 -85 C 92 -89.409133 88.409133 -93 84 -93 L 12 -93 z "
       style="opacity:0.1;fill:url(#linearGradient3780);fill-opacity:1;fill-rule:nonzero;stroke:none;display:inline"
       id="path3778"
       d="m 12,-94.03125 c -4.971633,0 -9.03125,4.059617 -9.03125,9.03125 l 0,71 c 0,4.9716329 4.0596171,9.03125 9.03125,9.03125 l 72,0 c 4.971633,0 9.03125,-4.059617 9.03125,-9.03125 l 0,-71 c 0,-4.971633 -4.059617,-9.03125 -9.03125,-9.03125 l -72,0 z"
       transform="scale(1,-1)" />
    <path
       sodipodi:type="inkscape:offset"
       inkscape:radius="0.98962283"
       inkscape:original="M 12 -92 C 8.122 -92 5 -88.878 5 -85 L 5 -14 C 5 -10.122 8.122 -7 12 -7 L 84 -7 C 87.878 -7 91 -10.122 91 -14 L 91 -85 C 91 -88.878 87.878 -92 84 -92 L 12 -92 z "
       style="opacity:0.2;fill:url(#linearGradient3772);fill-opacity:1;fill-rule:nonzero;stroke:none;display:inline"
       id="path3770"
       d="m 12,-93 c -4.4091333,0 -8,3.590867 -8,8 l 0,71 c 0,4.4091333 3.5908667,8 8,8 l 72,0 c 4.409133,0 8,-3.5908667 8,-8 l 0,-71 c 0,-4.409133 -3.590867,-8 -8,-8 l -72,0 z"
       transform="scale(1,-1)" />
    <rect
       style="opacity:0.3;fill:url(#linearGradient3725);fill-opacity:1;fill-rule:nonzero;stroke:none;display:inline"
       id="rect3723"
       width="86"
       height="85"
       x="5"
       y="-92"
       rx="7"
       ry="7"
       transform="scale(1,-1)" />
    <rect
       transform="scale(1,-1)"
       ry="6"
       rx="6"
       y="-91"
       x="6"
       height="84"
       width="84"
       id="rect3716"
       style="opacity:0.45;fill:url(#linearGradient3721);fill-opacity:1;fill-rule:nonzero;stroke:none;display:inline" />
  </g>
  <g
     inkscape:label="Button"
     inkscape:groupmode="layer"
     id="layer1"
     sodipodi:insensitive="true">
    <rect
       style="fill:url(#linearGradient3617);fill-opacity:1;fill-rule:nonzero;stroke:none"
       id="rect2419"
       width="84"
       height="84"
       x="6"
       y="6"
       rx="6"
       ry="6" />
    <path
       style="opacity:0.5;fill:url(#linearGradient3188);fill-opacity:1;fill-rule:nonzero;stroke:none"
       d="M 12,6 C 8.676,6 6,8.676 6,12 l 0,2 0,68 0,2 c 0,0.334721 0.04135,0.6507 0.09375,0.96875 0.0487,0.295596 0.09704,0.596915 0.1875,0.875 0.00988,0.03038 0.020892,0.0636 0.03125,0.09375 0.098865,0.287771 0.2348802,0.547452 0.375,0.8125 0.1445918,0.273507 0.3156161,0.535615 0.5,0.78125 0.1843839,0.245635 0.3737765,0.473472 0.59375,0.6875 0.439947,0.428056 0.94291,0.814526 1.5,1.09375 0.278545,0.139612 0.5734731,0.246947 0.875,0.34375 -0.2562018,-0.100222 -0.4867109,-0.236272 -0.71875,-0.375 -0.00741,-0.0044 -0.023866,0.0045 -0.03125,0 -0.031933,-0.0193 -0.062293,-0.04251 -0.09375,-0.0625 -0.120395,-0.0767 -0.2310226,-0.163513 -0.34375,-0.25 -0.1061728,-0.0808 -0.2132809,-0.161112 -0.3125,-0.25 C 8.4783201,88.557317 8.3087904,88.373362 8.15625,88.1875 8.0486711,88.057245 7.9378561,87.922215 7.84375,87.78125 7.818661,87.74287 7.805304,87.69538 7.78125,87.65625 7.716487,87.553218 7.6510225,87.451733 7.59375,87.34375 7.4927417,87.149044 7.3880752,86.928049 7.3125,86.71875 7.30454,86.69694 7.288911,86.6782 7.28125,86.65625 7.2494249,86.5643 7.2454455,86.469419 7.21875,86.375 7.1884177,86.268382 7.1483606,86.171969 7.125,86.0625 7.0521214,85.720988 7,85.364295 7,85 L 7,83 7,15 7,13 C 7,10.218152 9.2181517,8 12,8 l 2,0 68,0 2,0 c 2.781848,0 5,2.218152 5,5 l 0,2 0,68 0,2 c 0,0.364295 -0.05212,0.720988 -0.125,1.0625 -0.04415,0.206893 -0.08838,0.397658 -0.15625,0.59375 -0.0077,0.02195 -0.0233,0.04069 -0.03125,0.0625 -0.06274,0.173739 -0.138383,0.367449 -0.21875,0.53125 -0.04158,0.0828 -0.07904,0.169954 -0.125,0.25 -0.0546,0.09721 -0.126774,0.18835 -0.1875,0.28125 -0.09411,0.140965 -0.204921,0.275995 -0.3125,0.40625 -0.143174,0.17445 -0.303141,0.346998 -0.46875,0.5 -0.01117,0.0102 -0.01998,0.02115 -0.03125,0.03125 -0.138386,0.125556 -0.285091,0.234436 -0.4375,0.34375 -0.102571,0.07315 -0.204318,0.153364 -0.3125,0.21875 -0.0074,0.0045 -0.02384,-0.0044 -0.03125,0 -0.232039,0.138728 -0.462548,0.274778 -0.71875,0.375 0.301527,-0.0968 0.596455,-0.204138 0.875,-0.34375 0.55709,-0.279224 1.060053,-0.665694 1.5,-1.09375 0.219973,-0.214028 0.409366,-0.441865 0.59375,-0.6875 0.184384,-0.245635 0.355408,-0.507743 0.5,-0.78125 0.14012,-0.265048 0.276135,-0.524729 0.375,-0.8125 0.01041,-0.03078 0.02133,-0.06274 0.03125,-0.09375 0.09046,-0.278085 0.1388,-0.579404 0.1875,-0.875 C 89.95865,84.6507 90,84.334721 90,84 l 0,-2 0,-68 0,-2 C 90,8.676 87.324,6 84,6 L 12,6 z"
       id="rect3728" />
    <path
       id="path3615"
       d="M 12,90 C 8.676,90 6,87.324 6,84 L 6,82 6,14 6,12 c 0,-0.334721 0.04135,-0.6507 0.09375,-0.96875 0.0487,-0.295596 0.09704,-0.596915 0.1875,-0.875 C 6.29113,10.12587 6.302142,10.09265 6.3125,10.0625 6.411365,9.774729 6.5473802,9.515048 6.6875,9.25 6.8320918,8.976493 7.0031161,8.714385 7.1875,8.46875 7.3718839,8.223115 7.5612765,7.995278 7.78125,7.78125 8.221197,7.353194 8.72416,6.966724 9.28125,6.6875 9.559795,6.547888 9.8547231,6.440553 10.15625,6.34375 9.9000482,6.443972 9.6695391,6.580022 9.4375,6.71875 c -0.00741,0.0044 -0.023866,-0.0045 -0.03125,0 -0.031933,0.0193 -0.062293,0.04251 -0.09375,0.0625 -0.120395,0.0767 -0.2310226,0.163513 -0.34375,0.25 -0.1061728,0.0808 -0.2132809,0.161112 -0.3125,0.25 C 8.4783201,7.442683 8.3087904,7.626638 8.15625,7.8125 8.0486711,7.942755 7.9378561,8.077785 7.84375,8.21875 7.818661,8.25713 7.805304,8.30462 7.78125,8.34375 7.716487,8.446782 7.6510225,8.548267 7.59375,8.65625 7.4927417,8.850956 7.3880752,9.071951 7.3125,9.28125 7.30454,9.30306 7.288911,9.3218 7.28125,9.34375 7.2494249,9.4357 7.2454455,9.530581 7.21875,9.625 7.1884177,9.731618 7.1483606,9.828031 7.125,9.9375 7.0521214,10.279012 7,10.635705 7,11 l 0,2 0,68 0,2 c 0,2.781848 2.2181517,5 5,5 l 2,0 68,0 2,0 c 2.781848,0 5,-2.218152 5,-5 l 0,-2 0,-68 0,-2 C 89,10.635705 88.94788,10.279012 88.875,9.9375 88.83085,9.730607 88.78662,9.539842 88.71875,9.34375 88.71105,9.3218 88.69545,9.30306 88.6875,9.28125 88.62476,9.107511 88.549117,8.913801 88.46875,8.75 88.42717,8.6672 88.38971,8.580046 88.34375,8.5 88.28915,8.40279 88.216976,8.31165 88.15625,8.21875 88.06214,8.077785 87.951329,7.942755 87.84375,7.8125 87.700576,7.63805 87.540609,7.465502 87.375,7.3125 87.36383,7.3023 87.35502,7.29135 87.34375,7.28125 87.205364,7.155694 87.058659,7.046814 86.90625,6.9375 86.803679,6.86435 86.701932,6.784136 86.59375,6.71875 c -0.0074,-0.0045 -0.02384,0.0044 -0.03125,0 -0.232039,-0.138728 -0.462548,-0.274778 -0.71875,-0.375 0.301527,0.0968 0.596455,0.204138 0.875,0.34375 0.55709,0.279224 1.060053,0.665694 1.5,1.09375 0.219973,0.214028 0.409366,0.441865 0.59375,0.6875 0.184384,0.245635 0.355408,0.507743 0.5,0.78125 0.14012,0.265048 0.276135,0.524729 0.375,0.8125 0.01041,0.03078 0.02133,0.06274 0.03125,0.09375 0.09046,0.278085 0.1388,0.579404 0.1875,0.875 C 89.95865,11.3493 90,11.665279 90,12 l 0,2 0,68 0,2 c 0,3.324 -2.676,6 -6,6 l -72,0 z"
       style="opacity:0.2;fill:url(#radialGradient3619);fill-opacity:1;fill-rule:nonzero;stroke:none" />
  </g>
  <g
     inkscape:groupmode="layer"
     id="layer5"
     inkscape:label="Highlight"
     sodipodi:insensitive="true"
     style="display:inline">
    <rect
       style="opacity:0.1;fill:url(#linearGradient3613);fill-opacity:1;fill-rule:nonzero;stroke:#ffffff;stroke-width:0.5;stroke-linecap:round;stroke-linejoin:miter;stroke-miterlimit:4;stroke-opacity:1;stroke-dasharray:none;stroke-dashoffset:0;filter:url(#filter3794)"
       id="rect3171"
       width="66"
       height="66"
       x="15"
       y="15"
       rx="12"
       ry="12"
       clip-path="url(#clipPath3613)" />
  </g>
  <g
     inkscape:groupmode="layer"
     id="layer4"
     inkscape:label="Symbol">
    <path
       style="fill:url(#linearGradient3736);fill-opacity:1;stroke:none;display:inline;enable-background:new"
       d="m -43.000013,16.000055 c -6.578084,0 -11.910673,4.933473 -11.910673,11.019222 0.01598,0.697437 0.0261,1.493764 0.09926,2.36126 -1.041033,0.550102 -1.176728,2.701364 -0.24814,4.870099 0.358069,0.836275 0.846451,1.515776 1.339951,2.066101 0.01645,0.0184 0.03308,0.0312 0.04963,0.04913 0.117798,0.573005 0.204935,1.026217 0.347397,1.672559 0.441331,1.3124 2.265031,3.781004 3.870968,5.903154 0.160151,1.637089 0.173325,3.253913 -0.148893,5.116069 -4.622431,3.801433 -16.444509,5.509609 -16.42679,9.445046 l -1.588084,10.232128 c 0,2.09638 3.159367,4.015841 8.188586,5.312838 l 0.694789,2.804 a 1.7295878,1.7144325 0 0 0 1.091813,1.131438 c 0.223226,0.08562 0.380762,0.266676 0.992554,0.442732 C -53.424897,79.353274 -48.517708,80 -43,80 c 5.517709,0 10.474525,-0.646726 13.697272,-1.574169 0.611792,-0.176056 0.769331,-0.357156 0.992554,-0.442732 a 1.7295878,1.7144325 0 0 0 1.042187,-1.082247 l 0.843671,-2.951578 c 4.906344,-1.294943 8.039703,-3.147592 8.039703,-5.214451 l -1.588095,-10.23212 c -0.01886,-3.368207 -11.910674,-5.509608 -16.47643,-9.445053 -0.18486,-1.507492 -0.193385,-2.991749 -0.09928,-4.476547 1.460096,-2.232553 3.382384,-5.08976 3.870967,-6.542667 0.179567,-0.752422 0.257562,-1.272434 0.397022,-1.918525 0.431165,-0.522382 0.823158,-1.125974 1.141439,-1.86933 0.881833,-2.059528 0.799501,-4.053827 -0.09926,-4.722522 0.0628,-0.894886 0.122622,-1.744011 0.148877,-2.50884 C -31.089364,20.933471 -36.421951,16 -43.000034,16 z"
       id="path3798"
       inkscape:connector-curvature="0" />
    <path
       style="opacity:0.1;fill:#000000;fill-opacity:1;stroke:none;display:inline;enable-background:new"
       d="m -43,16 c -6.578084,0 -11.90625,4.945501 -11.90625,11.03125 0.01598,0.697437 0.02059,1.476254 0.09375,2.34375 -1.041033,0.550102 -1.178588,2.706265 -0.25,4.875 0.358069,0.836275 0.85025,1.512175 1.34375,2.0625 0.01645,0.0184 0.04595,0.04457 0.0625,0.0625 0.117798,0.573005 0.201288,1.009908 0.34375,1.65625 0.441331,1.3124 2.269063,3.7841 3.875,5.90625 0.160151,1.637089 0.165968,3.262844 -0.15625,5.125 -4.622431,3.801433 -16.455219,5.502063 -16.4375,9.4375 L -67.625,68.75 c 0,2.09638 3.158281,4.015503 8.1875,5.3125 l 0.71875,2.78125 a 1.7295878,1.7144325 0 0 0 1.09375,1.125 c 0.223226,0.08562 0.356958,0.292694 0.96875,0.46875 C -53.433502,79.364943 -48.517708,80 -43,80 c 5.517709,0 10.464753,-0.635057 13.6875,-1.5625 0.611792,-0.176056 0.776777,-0.383174 1,-0.46875 a 1.7295878,1.7144325 0 0 0 1.03125,-1.0625 l 0.84375,-2.96875 c 4.906344,-1.294943 8.0625,-3.120641 8.0625,-5.1875 L -19.96875,58.5 c -0.01886,-3.368207 -11.902994,-5.502055 -16.46875,-9.4375 -0.18486,-1.507492 -0.219105,-2.983952 -0.125,-4.46875 1.460096,-2.232553 3.386417,-5.109593 3.875,-6.5625 0.179567,-0.752422 0.26679,-1.260159 0.40625,-1.90625 0.431165,-0.522382 0.837969,-1.131644 1.15625,-1.875 0.881833,-2.059528 0.773761,-4.050055 -0.125,-4.71875 0.0628,-0.894886 0.129995,-1.735171 0.15625,-2.5 C -31.093741,20.945502 -36.421917,16 -43,16 z m 0,1.9375 c 5.589056,0 9.931987,4.097552 9.96875,9.03125 1.56e-4,0.02098 0,0.04149 0,0.0625 -0.02545,0.688779 -0.063,1.491583 -0.125,2.375 a 1.9260586,1.9260586 0 0 0 0.625,1.5625 c -0.04866,-0.03591 0.081,0.101771 0.09375,0.46875 0.017,0.489306 -0.127404,1.265284 -0.46875,2.0625 -0.234439,0.54754 -0.533235,0.992182 -0.875,1.40625 a 1.9260586,1.9260586 0 0 0 -0.375,0.8125 c -0.13846,0.641458 -0.229377,1.123605 -0.375,1.75 -0.140365,0.390152 -0.691849,1.41967 -1.375,2.53125 -0.699714,1.13853 -1.546271,2.407434 -2.28125,3.53125 a 1.9260586,1.9260586 0 0 0 -0.3125,0.9375 c -0.101068,1.594663 -0.0436,3.21399 0.15625,4.84375 a 1.9260586,1.9260586 0 0 0 0.65625,1.21875 c 2.778403,2.394839 6.970946,3.82248 10.46875,5.25 1.748902,0.71376 3.325784,1.389438 4.3125,2 0.493358,0.305281 0.830394,0.621172 0.96875,0.78125 0.02661,0.03078 0.02025,0.01685 0.03125,0.03125 0.0028,0.0078 -0.0026,0.02524 0,0.03125 a 1.9260586,1.9260586 0 0 0 0.03125,0.15625 l 1.5625,9.96875 c 0,0.05314 -0.146787,0.540805 -1.28125,1.25 -1.134463,0.709195 -3.007984,1.446016 -5.34375,2.0625 a 1.9260586,1.9260586 0 0 0 -1.34375,1.34375 l -0.78125,2.78125 c -0.668375,0.271611 -0.489908,0.32241 -0.78125,0.40625 -2.94392,0.847202 -7.786312,1.46875 -13.15625,1.46875 -5.369937,0 -10.177899,-0.620633 -13.125,-1.46875 -0.28413,-0.08176 0.01006,-0.09166 -0.78125,-0.40625 l -0.65625,-2.59375 a 1.9260586,1.9260586 0 0 0 -1.40625,-1.40625 c -2.386591,-0.615483 -4.259795,-1.363017 -5.40625,-2.09375 -1.146455,-0.730733 -1.3125,-1.262692 -1.3125,-1.34375 l 1.5625,-9.96875 A 1.9260586,1.9260586 0 0 0 -64.09375,58.5 c -8.2e-5,-0.01817 0.08294,-0.37888 1.03125,-1 0.948312,-0.62112 2.487742,-1.286755 4.21875,-1.96875 3.462017,-1.36399 7.643678,-2.645444 10.46875,-4.96875 a 1.9260586,1.9260586 0 0 0 0.6875,-1.15625 c 0.354991,-2.051555 0.32799,-3.900697 0.15625,-5.65625 a 1.9260586,1.9260586 0 0 0 -0.375,-0.96875 c -0.798009,-1.054521 -1.635807,-2.193362 -2.3125,-3.1875 -0.66528,-0.97737 -1.15615,-1.896071 -1.25,-2.15625 C -51.47035,37.433 -51.49863,37.41032 -51.5,37.40625 -51.606616,36.910433 -51.677182,36.506216 -51.78125,36 A 1.9260586,1.9260586 0 0 0 -52.25,35.0625 c -0.156701,-0.169767 -0.172559,-0.18931 -0.03125,-0.03125 -0.395143,-0.440643 -0.745486,-0.936828 -1,-1.53125 -0.359852,-0.840442 -0.496566,-1.682848 -0.46875,-2.1875 0.01391,-0.252326 0.05994,-0.355372 0.0625,-0.375 a 1.9260586,1.9260586 0 0 0 0.78125,-1.71875 c -0.06469,-0.767115 -0.04649,-1.475745 -0.0625,-2.1875 0,-0.0105 -3.9e-5,-0.02075 0,-0.03125 0.01844,-4.947692 4.367811,-9.0625 9.96875,-9.0625 z"
       id="path3698"
       inkscape:connector-curvature="0" />
    <path
       style="opacity:0.15;fill:#000000;fill-opacity:1;stroke:none;display:inline;enable-background:new"
       d="m -43,16 c -6.578084,0 -11.90625,4.945501 -11.90625,11.03125 0.01598,0.697437 0.02059,1.476254 0.09375,2.34375 -1.041033,0.550102 -1.178588,2.706265 -0.25,4.875 0.358069,0.836275 0.85025,1.512175 1.34375,2.0625 0.01645,0.0184 0.04595,0.04457 0.0625,0.0625 0.117798,0.573005 0.201288,1.009908 0.34375,1.65625 0.441331,1.3124 2.269063,3.7841 3.875,5.90625 0.160151,1.637089 0.165968,3.262844 -0.15625,5.125 -4.622431,3.801433 -16.455219,5.502063 -16.4375,9.4375 L -67.625,68.75 c 0,2.09638 3.158281,4.015503 8.1875,5.3125 l 0.71875,2.78125 a 1.7295878,1.7144325 0 0 0 1.09375,1.125 c 0.223226,0.08562 0.356958,0.292694 0.96875,0.46875 C -53.433502,79.364943 -48.517708,80 -43,80 c 5.517709,0 10.464753,-0.635057 13.6875,-1.5625 0.611792,-0.176056 0.776777,-0.383174 1,-0.46875 a 1.7295878,1.7144325 0 0 0 1.03125,-1.0625 l 0.84375,-2.96875 c 4.906344,-1.294943 8.0625,-3.120641 8.0625,-5.1875 L -19.96875,58.5 c -0.01886,-3.368207 -11.902994,-5.502055 -16.46875,-9.4375 -0.18486,-1.507492 -0.219105,-2.983952 -0.125,-4.46875 1.460096,-2.232553 3.386417,-5.109593 3.875,-6.5625 0.179567,-0.752422 0.26679,-1.260159 0.40625,-1.90625 0.431165,-0.522382 0.837969,-1.131644 1.15625,-1.875 0.881833,-2.059528 0.773761,-4.050055 -0.125,-4.71875 0.0628,-0.894886 0.129995,-1.735171 0.15625,-2.5 C -31.093741,20.945502 -36.421917,16 -43,16 z m 0,1.0625 c 6.039419,0 10.825314,4.479735 10.84375,9.9375 3.6e-5,0.01053 0,0.02072 0,0.03125 -0.02575,0.723069 -0.0938,1.54758 -0.15625,2.4375 a 1.0515944,1.0515944 0 0 0 0.4375,0.90625 c 0.0647,0.04813 0.289992,0.383332 0.3125,1.03125 0.02251,0.647918 -0.144697,1.534703 -0.53125,2.4375 -0.272505,0.636444 -0.617646,1.161756 -1,1.625 a 1.0515944,1.0515944 0 0 0 -0.21875,0.4375 c -0.136962,0.634517 -0.219439,1.116441 -0.375,1.78125 -0.0084,0.03588 -0.02241,0.05671 -0.03125,0.09375 -0.196607,0.546091 -0.748278,1.566042 -1.4375,2.6875 -0.711269,1.157332 -1.54851,2.442107 -2.28125,3.5625 a 1.0515944,1.0515944 0 0 0 -0.1875,0.5 c -0.09791,1.544782 -0.0368,3.082002 0.15625,4.65625 a 1.0515944,1.0515944 0 0 0 0.34375,0.65625 c 2.553426,2.200921 6.699922,3.6889 10.21875,5.125 1.759414,0.71805 3.359339,1.426603 4.4375,2.09375 0.539081,0.333574 0.959556,0.642518 1.1875,0.90625 0.227944,0.263732 0.249372,0.419065 0.25,0.53125 A 1.0515944,1.0515944 0 0 0 -21,58.65625 L -19.4375,68.75 c 0,0.498211 -0.43142,1.214778 -1.6875,2 -1.25608,0.785222 -3.20468,1.525697 -5.59375,2.15625 a 1.0515944,1.0515944 0 0 0 -0.71875,0.75 l -0.8125,2.90625 -0.03125,0.03125 c -0.0095,0.02386 -0.0015,0.03464 0,0.03125 0.0015,-0.0034 -0.0204,-0.02329 -0.03125,0 -0.0217,0.04658 0.02427,0.01721 0,0.0625 -0.02427,0.04529 -0.0045,-0.01261 -0.03125,0.03125 -0.02676,0.04386 -0.0021,-0.01105 -0.03125,0.03125 -0.03147,0.04061 0.0024,-0.0075 -0.03125,0.03125 -0.03367,0.03879 0.0045,-0.0056 -0.03125,0.03125 -0.03578,0.03686 0.0065,-0.0036 -0.03125,0.03125 -0.03776,0.03481 0.0084,-0.0014 -0.03125,0.03125 -0.01982,0.01633 -0.01013,0.03132 0,0.03125 -0.04138,0.03042 0.01175,-0.02808 -0.03125,0 -0.043,0.02808 0.01323,0.0056 -0.03125,0.03125 -0.04448,0.02565 -0.01667,0.0081 -0.0625,0.03125 -0.04583,0.02315 0.01579,-0.02059 -0.03125,0 -0.04704,0.02059 0.01685,-0.01796 -0.03125,0 a 1.0515944,1.0515944 0 0 0 0,0.03125 c -0.591024,0.226578 -0.456797,0.30816 -0.90625,0.4375 -3.070512,0.883633 -7.969221,1.5 -13.40625,1.5 -5.437028,0 -10.302751,-0.615868 -13.375,-1.5 C -56.815352,77.310779 -56.628603,77.238341 -57.25,77 a 1.0515944,1.0515944 0 0 0 -0.03125,-0.03125 c -0.05173,-0.01761 0.01936,0.02062 -0.03125,0 -0.05061,-0.02062 -0.01318,-0.0077 -0.0625,-0.03125 -0.04932,-0.02356 0.0166,0.02642 -0.03125,0 -0.04785,-0.02642 0.01496,-0.0021 -0.03125,-0.03125 -0.04621,-0.02919 0.01317,6.13e-4 -0.03125,-0.03125 -0.04442,-0.03186 0.01121,0.0032 -0.03125,-0.03125 -0.02123,-0.01721 -0.03379,-0.0089 -0.03125,0 -0.04036,-0.03688 0.0069,0.008 -0.03125,-0.03125 -0.03811,-0.0392 0.0045,0.01014 -0.03125,-0.03125 0.0086,0.0028 0.01661,-0.0095 0,-0.03125 -0.03322,-0.04344 -6.63e-4,0.01408 -0.03125,-0.03125 -0.03059,-0.04533 -0.0034,0.01582 -0.03125,-0.03125 -0.02785,-0.04707 0.025,0.01739 0,-0.03125 -0.025,-0.04864 -0.0092,0.0188 -0.03125,-0.03125 -0.01103,-0.02502 -0.0015,-0.0349 0,-0.03125 l 0,-0.03125 c -0.01905,-0.05127 -0.01528,0.02107 -0.03125,-0.03125 l -0.6875,-2.71875 a 1.0515944,1.0515944 0 0 0 -0.78125,-0.78125 c -2.444714,-0.630473 -4.386408,-1.409372 -5.65625,-2.21875 -1.269842,-0.809378 -1.71875,-1.542347 -1.71875,-2.0625 L -65,58.65625 A 1.0515944,1.0515944 0 0 0 -64.96875,58.5 c -0.0021,-0.456611 0.384425,-1.029013 1.4375,-1.71875 1.053075,-0.689737 2.627699,-1.374086 4.375,-2.0625 3.494601,-1.376828 7.626978,-2.712307 10.21875,-4.84375 a 1.0515944,1.0515944 0 0 0 0.375,-0.625 c 0.340111,-1.965565 0.322728,-3.704481 0.15625,-5.40625 a 1.0515944,1.0515944 0 0 0 -0.1875,-0.53125 c -0.800261,-1.057497 -1.650645,-2.200501 -2.34375,-3.21875 -0.693105,-1.018249 -1.230547,-1.976685 -1.375,-2.40625 -0.121357,-0.55822 -0.202286,-0.995134 -0.3125,-1.53125 a 1.0515944,1.0515944 0 0 0 -0.25,-0.5 c -0.02327,-0.02521 -0.04683,-0.0175 -0.0625,-0.03125 -0.439799,-0.49044 -0.85472,-1.077023 -1.15625,-1.78125 -0.407271,-0.951189 -0.568432,-1.919185 -0.53125,-2.59375 0.03718,-0.674565 0.27681,-0.918641 0.3125,-0.9375 a 1.0515944,1.0515944 0 0 0 0.5625,-1.03125 c -0.0681,-0.807473 -0.07798,-1.547924 -0.09375,-2.25 0,-0.01053 -3.6e-5,-0.02072 0,-0.03125 0.01844,-5.457768 4.80433,-9.9375 10.84375,-9.9375 z"
       id="path3691"
       inkscape:connector-curvature="0" />
    <path
       style="opacity:0.5;fill:#000000;fill-opacity:1;stroke:none;display:inline;enable-background:new"
       d="m -43,16 c -6.578084,0 -11.90625,4.945501 -11.90625,11.03125 0.0048,0.209345 0.02565,0.429835 0.03125,0.65625 C -54.676299,21.76281 -49.452215,17 -43,17 c 6.383903,0 11.57293,4.663117 11.875,10.5 0.0071,-0.149119 0.02633,-0.325307 0.03125,-0.46875 C -31.093741,20.945502 -36.421917,16 -43,16 z m -11.875,13.40625 c -0.609597,0.370124 -0.873775,1.329002 -0.78125,2.5 0.09528,-0.722115 0.387821,-1.290328 0.84375,-1.53125 -0.02837,-0.336398 -0.04907,-0.655372 -0.0625,-0.96875 z m 23.6875,0.1875 c -0.0211,0.320759 -0.03894,0.601831 -0.0625,0.9375 0.407828,0.303432 0.629688,0.893433 0.6875,1.625 0.13658,-1.15474 -0.0914,-2.105822 -0.625,-2.5625 z M -49.375,46.75 c -0.02908,0.735547 -0.0793,1.506579 -0.21875,2.3125 -4.622431,3.801433 -16.455219,5.502063 -16.4375,9.4375 L -67.625,68.75 c 0,0.173606 0.0199,0.329073 0.0625,0.5 l 1.53125,-9.75 c -0.01772,-3.935437 11.815069,-5.636067 16.4375,-9.4375 0.203424,-1.175624 0.23527,-2.265609 0.21875,-3.3125 z m 12.78125,0.40625 c -0.0082,0.963601 0.03649,1.929609 0.15625,2.90625 4.565756,3.935445 16.44989,6.069293 16.46875,9.4375 l 1.53125,9.75 c 0.0422,-0.168029 0.0625,-0.328838 0.0625,-0.5 L -19.96875,58.5 c -0.01886,-3.368207 -11.902994,-5.502055 -16.46875,-9.4375 -0.07832,-0.638679 -0.135628,-1.274104 -0.15625,-1.90625 z"
       id="path3682"
       inkscape:connector-curvature="0" />
    <path
       style="opacity:0.5;fill:#ffffff;fill-opacity:1;stroke:none;display:inline;enable-background:new"
       d="m -31.125,27.5 c -0.03069,0.645974 -0.07398,1.304199 -0.125,2.03125 0.02247,0.01672 0.04105,0.04415 0.0625,0.0625 0.03516,-0.534376 0.07734,-1.084556 0.09375,-1.5625 0,-0.179647 -0.02206,-0.353709 -0.03125,-0.53125 z m -23.75,0.1875 c -0.0039,0.115578 -0.03125,0.227302 -0.03125,0.34375 0.0098,0.426984 0.01005,0.880246 0.03125,1.375 0.0193,-0.01172 0.04253,-0.0207 0.0625,-0.03125 -0.0512,-0.607106 -0.04943,-1.159609 -0.0625,-1.6875 z m -0.78125,4.28125 c -0.106491,0.91862 0.0832,2.088843 0.59375,3.28125 0.358069,0.836275 0.85025,1.512175 1.34375,2.0625 0.01645,0.0184 0.04595,0.04457 0.0625,0.0625 0.117798,0.573005 0.201288,1.009908 0.34375,1.65625 0.441331,1.3124 2.269063,3.7841 3.875,5.90625 0.05904,0.603555 0.05285,1.201144 0.0625,1.8125 0.03812,-0.964003 0.02834,-1.883926 -0.0625,-2.8125 -1.605937,-2.12215 -3.433669,-4.59385 -3.875,-5.90625 -0.142462,-0.646342 -0.225952,-1.083245 -0.34375,-1.65625 -0.01655,-0.01793 -0.04605,-0.0441 -0.0625,-0.0625 -0.4935,-0.550325 -0.985681,-1.226225 -1.34375,-2.0625 -0.338697,-0.791032 -0.530521,-1.571715 -0.59375,-2.28125 z m 25.09375,0.1875 c -0.07751,0.65529 -0.251229,1.366774 -0.5625,2.09375 -0.318281,0.743356 -0.725085,1.352618 -1.15625,1.875 -0.13946,0.646091 -0.226683,1.153828 -0.40625,1.90625 -0.488583,1.452907 -2.414904,4.329947 -3.875,6.5625 -0.0212,0.334536 0.0099,0.665247 0,1 1.460096,-2.232553 3.386417,-5.109593 3.875,-6.5625 0.179567,-0.752422 0.26679,-1.260159 0.40625,-1.90625 0.431165,-0.522382 0.837969,-1.131644 1.15625,-1.875 0.481686,-1.124982 0.632092,-2.213108 0.5625,-3.09375 z m -37,37.09375 -0.0625,0.5 c 0,2.09638 3.158281,4.015503 8.1875,5.3125 l 0.71875,2.78125 a 1.7295878,1.7144325 0 0 0 1.09375,1.125 c 0.223226,0.08562 0.356958,0.292694 0.96875,0.46875 C -53.433502,80.364943 -48.517708,81 -43,81 c 5.517709,0 10.464753,-0.635057 13.6875,-1.5625 0.611792,-0.176056 0.776777,-0.383174 1,-0.46875 a 1.7295878,1.7144325 0 0 0 1.03125,-1.0625 l 0.84375,-2.96875 c 4.906344,-1.294943 8.0625,-3.120641 8.0625,-5.1875 l -0.0625,-0.5 c -0.467429,1.860996 -3.499963,3.499794 -8,4.6875 l -0.84375,2.96875 a 1.7295878,1.7144325 0 0 1 -1.03125,1.0625 c -0.223223,0.08558 -0.388208,0.292694 -1,0.46875 C -32.535247,79.364943 -37.482291,80 -43,80 c -5.517708,0 -10.433502,-0.635057 -13.65625,-1.5625 -0.611792,-0.176056 -0.745524,-0.38313 -0.96875,-0.46875 a 1.7295878,1.7144325 0 0 1 -1.09375,-1.125 L -59.4375,74.0625 c -4.612737,-1.189589 -7.653174,-2.919405 -8.125,-4.8125 z"
       id="path3705"
       inkscape:connector-curvature="0" />
    <path
       style="fill:url(#linearGradient2902);fill-opacity:1;stroke:none;display:inline;enable-background:new"
       d="m -67.6875,24 c -4.933563,0 -8.9375,3.685688 -8.9375,8.25 0.01199,0.523077 0.0076,1.130628 0.0625,1.78125 -0.780775,0.412576 -0.88394,2.029698 -0.1875,3.65625 0.268552,0.627206 0.629875,1.149757 1,1.5625 0.01233,0.0138 0.05009,0.01781 0.0625,0.03125 0.08835,0.429754 0.143153,0.765245 0.25,1.25 0.330998,0.984301 1.701797,2.845887 2.90625,4.4375 0.120114,1.227817 0.116663,2.415883 -0.125,3.8125 -3.466823,2.851074 -12.325789,4.142171 -12.3125,7.09375 l -1.1875,7.6875 c 0,1.572284 2.353085,2.996001 6.125,3.96875 L -79.5,69.625 a 1.2971909,1.2858244 0 0 0 0.8125,0.875 c 0.16742,0.06421 0.291156,0.180459 0.75,0.3125 2.303676,0.662953 5.785982,1.113453 9.6875,1.15625 -0.822865,-0.885806 -1.375,-1.942309 -1.375,-3.21875 a 2.008154,2.008154 0 0 1 0.03125,-0.3125 L -68.03125,58.5 -68,58.1875 l 0.0625,0 c 0.148658,-1.799076 1.385508,-3.095511 2.71875,-3.96875 1.419638,-0.929826 3.133193,-1.632876 4.9375,-2.34375 0.590547,-0.232668 1.18935,-0.48327 1.78125,-0.71875 -1.660729,-0.715005 -3.235377,-1.473512 -4.28125,-2.375 -0.138644,-1.130618 -0.133079,-2.230152 -0.0625,-3.34375 1.095073,-1.674415 2.508563,-3.816571 2.875,-4.90625 0.134675,-0.564317 0.207904,-0.952931 0.3125,-1.4375 0.323373,-0.391786 0.605039,-0.848734 0.84375,-1.40625 0.661375,-1.544647 0.611565,-3.029728 -0.0625,-3.53125 0.0471,-0.671165 0.105312,-1.332628 0.125,-1.90625 3e-6,-4.564313 -4.003938,-8.25 -8.9375,-8.25 z"
       id="path2889"
       inkscape:connector-curvature="0" />
    <path
       style="opacity:0.5;fill:#000000;fill-opacity:1;stroke:none;display:inline;enable-background:new"
       d="m -67.6875,24 c -4.933563,0 -8.9375,3.685688 -8.9375,8.25 0.0034,0.14697 0.02879,0.340611 0.03125,0.5 0.281793,-4.32866 4.155584,-7.75 8.90625,-7.75 4.705047,0 8.55881,3.355466 8.90625,7.625 0.0065,-0.119192 0.02737,-0.262025 0.03125,-0.375 3e-6,-4.564313 -4.003938,-8.25 -8.9375,-8.25 z m -8.90625,10.0625 c -0.482133,0.287543 -0.692531,1.061727 -0.59375,2 0.08435,-0.489691 0.305786,-0.862571 0.625,-1.03125 -0.02985,-0.353812 -0.02429,-0.647071 -0.03125,-0.96875 z m 17.78125,0.15625 c -0.02264,0.316114 -0.03933,0.607395 -0.0625,0.9375 0.240933,0.17926 0.422544,0.486619 0.5,0.875 0.08262,-0.807343 -0.06662,-1.476255 -0.4375,-1.8125 z M -72.46875,46.875 c -0.01837,0.606334 -0.07055,1.230374 -0.1875,1.90625 -3.466823,2.851074 -12.325789,4.142171 -12.3125,7.09375 l -1.1875,7.6875 c 0,0.166299 0.01096,0.337383 0.0625,0.5 l 1.125,-7.1875 c -0.01329,-2.951579 8.845677,-4.242676 12.3125,-7.09375 0.181247,-1.047463 0.225875,-1.988655 0.1875,-2.90625 z m 9.59375,0.5625 c -0.01684,0.774444 -0.003,1.554367 0.09375,2.34375 0.790039,0.680972 1.891078,1.283072 3.09375,1.84375 0.395047,-0.160164 0.794101,-0.312241 1.1875,-0.46875 -1.660729,-0.715005 -3.235377,-1.473512 -4.28125,-2.375 -0.05518,-0.450011 -0.07926,-0.900741 -0.09375,-1.34375 z m -6.6875,21.90625 -0.03125,0.09375 A 2.008154,2.008154 0 0 0 -69.625,69.75 c 0,0.817793 0.245731,1.537315 0.625,2.1875 0.253452,0.0063 0.492683,0.02843 0.75,0.03125 -0.690178,-0.74297 -1.169286,-1.612804 -1.3125,-2.625 z"
       id="path2904"
       inkscape:connector-curvature="0" />
    <path
       style="opacity:0.1;fill:#000000;fill-opacity:1;stroke:none;display:inline;enable-background:new"
       d="m -67.6875,24 c -4.933563,0 -8.9375,3.685688 -8.9375,8.25 0.01199,0.523077 0.0076,1.130628 0.0625,1.78125 -0.780775,0.412576 -0.88394,2.029698 -0.1875,3.65625 0.268552,0.627206 0.629875,1.149757 1,1.5625 0.01233,0.0138 0.05009,0.01781 0.0625,0.03125 0.08835,0.429754 0.143153,0.765245 0.25,1.25 0.330998,0.984301 1.701797,2.845887 2.90625,4.4375 0.120114,1.227817 0.116663,2.415883 -0.125,3.8125 -3.466823,2.851074 -12.325789,4.142171 -12.3125,7.09375 l -1.1875,7.6875 c 0,1.572284 2.353085,2.996001 6.125,3.96875 L -79.5,69.625 a 1.2971909,1.2858244 0 0 0 0.8125,0.875 c 0.16742,0.06421 0.291156,0.180459 0.75,0.3125 2.303676,0.662953 5.785982,1.113453 9.6875,1.15625 -0.822865,-0.885806 -1.375,-1.942309 -1.375,-3.21875 a 2.008154,2.008154 0 0 1 0.03125,-0.3125 L -68.03125,58.5 -68,58.1875 l 0.0625,0 c 0.148658,-1.799076 1.385508,-3.095511 2.71875,-3.96875 1.419638,-0.929826 3.133193,-1.632876 4.9375,-2.34375 0.590547,-0.232668 1.18935,-0.48327 1.78125,-0.71875 -1.660729,-0.715005 -3.235377,-1.473512 -4.28125,-2.375 -0.138644,-1.130618 -0.133079,-2.230152 -0.0625,-3.34375 1.095073,-1.674415 2.508563,-3.816571 2.875,-4.90625 0.134675,-0.564317 0.207904,-0.952931 0.3125,-1.4375 0.323373,-0.391786 0.605039,-0.848734 0.84375,-1.40625 0.661375,-1.544647 0.611565,-3.029728 -0.0625,-3.53125 0.0471,-0.671165 0.105312,-1.332628 0.125,-1.90625 3e-6,-4.564313 -4.003938,-8.25 -8.9375,-8.25 z m 0,1.9375 c 3.946255,0 6.963182,2.844282 7,6.25 2.27e-4,0.02097 0,0.04149 0,0.0625 -0.01886,0.487324 -0.07796,1.111008 -0.125,1.78125 a 1.933781,1.933781 0 0 0 0.5,1.4375 c 0.0018,-0.0028 0.02887,-0.01259 0.03125,0.09375 0.0062,0.278131 -0.07698,0.824944 -0.3125,1.375 -0.172558,0.403015 -0.358084,0.689837 -0.5625,0.9375 a 1.933781,1.933781 0 0 0 -0.375,0.8125 c -0.09577,0.443704 -0.184337,0.796576 -0.28125,1.21875 -0.06582,0.195728 -0.458557,1.005216 -0.96875,1.84375 -0.510193,0.838534 -1.138117,1.784969 -1.6875,2.625 a 1.933781,1.933781 0 0 0 -0.3125,0.9375 c -0.07525,1.187379 -0.06409,2.431604 0.09375,3.71875 a 1.933781,1.933781 0 0 0 0.65625,1.21875 c 0.335076,0.288818 0.723067,0.504486 1.09375,0.75 -1.137595,0.488669 -2.304892,0.913325 -3.34375,1.59375 -1.435231,0.940039 -2.934553,2.493946 -3.40625,4.65625 a 1.933781,1.933781 0 0 0 -0.25,0.75 L -69.96875,58.3125 -71.5,68.125 a 1.933781,1.933781 0 0 0 0,0.625 l -0.0625,0 c 0,0.385986 0.181393,0.701585 0.25,1.0625 -2.435886,-0.18384 -4.662273,-0.431799 -6.09375,-0.84375 -0.137054,-0.03944 -0.262384,-0.124763 -0.3125,-0.15625 l -0.4375,-1.75 a 1.933781,1.933781 0 0 0 -1.40625,-1.40625 c -1.759225,-0.453691 -3.120389,-1.031405 -3.90625,-1.53125 -0.589396,-0.374884 -0.723249,-0.609044 -0.75,-0.625 l 1.15625,-7.34375 a 1.933781,1.933781 0 0 0 0.03125,-0.1875 c 0.0056,0.0361 0.07383,-0.116091 0.5625,-0.4375 0.651561,-0.428545 1.775464,-0.927776 3.0625,-1.4375 2.574071,-1.019447 5.721861,-1.964685 7.96875,-3.8125 A 1.933781,1.933781 0 0 0 -70.75,49.125 c 0.272547,-1.5751 0.288481,-2.99207 0.15625,-4.34375 A 1.933781,1.933781 0 0 0 -71,43.8125 c -0.596329,-0.788013 -1.220398,-1.641045 -1.71875,-2.375 -0.498352,-0.733955 -0.849156,-1.454395 -0.875,-1.53125 -0.06836,-0.331003 -0.10816,-0.614074 -0.1875,-1 a 1.933781,1.933781 0 0 0 -0.5,-0.9375 c -0.01653,-0.0179 -0.01533,0.01675 -0.03125,0 -0.0087,-0.0097 -0.02258,-0.02137 -0.03125,-0.03125 -0.237063,-0.269966 -0.456661,-0.606844 -0.625,-1 -0.24336,-0.568373 -0.328122,-1.154072 -0.3125,-1.4375 a 1.933781,1.933781 0 0 0 0.65625,-1.625 c -0.04483,-0.531318 -0.05027,-1.068075 -0.0625,-1.625 0,-0.01051 -5.7e-5,-0.02076 0,-0.03125 0.01849,-3.419629 3.041595,-6.28125 7,-6.28125 z"
       id="path3699"
       inkscape:connector-curvature="0" />
    <path
       style="opacity:0.5;fill:#ffffff;fill-opacity:1;stroke:none;display:inline;enable-background:new"
       d="m -58.78125,32.625 c -0.02645,0.485999 -0.05593,0.992271 -0.09375,1.53125 0.02407,0.01791 0.04002,0.04212 0.0625,0.0625 0.02339,-0.326605 0.0525,-0.677257 0.0625,-0.96875 0,-0.211412 -0.01438,-0.417637 -0.03125,-0.625 z m -17.8125,0.125 c -0.01085,0.16665 -0.03125,0.330792 -0.03125,0.5 0.0055,0.238625 0.02541,0.542646 0.03125,0.8125 0.01258,-0.0075 0.0183,-0.0244 0.03125,-0.03125 -0.03947,-0.467816 -0.02495,-0.873361 -0.03125,-1.28125 z m -0.59375,3.3125 c -0.121962,0.708058 0.02579,1.663452 0.4375,2.625 0.268552,0.627206 0.629875,1.149757 1,1.5625 0.01233,0.0138 0.05009,0.01781 0.0625,0.03125 0.08835,0.429754 0.143153,0.765245 0.25,1.25 0.330998,0.984301 1.701797,2.845887 2.90625,4.4375 0.02797,0.285885 0.04938,0.559041 0.0625,0.84375 0.01606,-0.625071 -0.0024,-1.229841 -0.0625,-1.84375 -1.204453,-1.591613 -2.575252,-3.453199 -2.90625,-4.4375 -0.106847,-0.484755 -0.16165,-0.820246 -0.25,-1.25 -0.01241,-0.01344 -0.05017,-0.01745 -0.0625,-0.03125 -0.370125,-0.412743 -0.731448,-0.935294 -1,-1.5625 -0.242055,-0.565326 -0.383505,-1.112129 -0.4375,-1.625 z m 18.8125,0.03125 c -0.05765,0.498068 -0.199078,1.036913 -0.4375,1.59375 -0.238711,0.557516 -0.520377,1.014464 -0.84375,1.40625 -0.104596,0.484569 -0.177825,0.873183 -0.3125,1.4375 -0.366437,1.089679 -1.779927,3.231835 -2.875,4.90625 -0.04249,0.670362 -0.05316,1.329983 -0.03125,2 0.0073,-0.334777 0.0099,-0.663902 0.03125,-1 1.095073,-1.674415 2.508563,-3.816571 2.875,-4.90625 0.134675,-0.564317 0.207904,-0.952931 0.3125,-1.4375 0.323373,-0.391786 0.605039,-0.848734 0.84375,-1.40625 0.413359,-0.965404 0.558531,-1.900466 0.4375,-2.59375 z M -59.6875,51.625 c -0.199333,0.08082 -0.395703,0.171972 -0.59375,0.25 -1.804307,0.710874 -3.517862,1.413924 -4.9375,2.34375 -1.333242,0.873239 -2.570092,2.169674 -2.71875,3.96875 l -0.0625,0 -0.03125,0.3125 -1.5625,9.9375 A 2.008154,2.008154 0 0 0 -69.625,68.75 c 0,0.205826 0.03497,0.399155 0.0625,0.59375 L -68.03125,59.5 -68,59.1875 l 0.0625,0 c 0.148658,-1.799076 1.385508,-3.095511 2.71875,-3.96875 1.419638,-0.929826 3.133193,-1.632876 4.9375,-2.34375 0.590547,-0.232668 1.18935,-0.48327 1.78125,-0.71875 -0.406236,-0.1749 -0.798045,-0.349688 -1.1875,-0.53125 z m -26.40625,12.4375 -0.0625,0.5 c 0,1.572284 2.353085,2.996001 6.125,3.96875 L -79.5,70.625 a 1.2971909,1.2858244 0 0 0 0.8125,0.875 c 0.16742,0.06421 0.291156,0.180459 0.75,0.3125 2.303676,0.662953 5.785982,1.113453 9.6875,1.15625 -0.29567,-0.318286 -0.537292,-0.666603 -0.75,-1.03125 -3.589466,-0.08941 -6.785758,-0.505771 -8.9375,-1.125 -0.458844,-0.132041 -0.58258,-0.24829 -0.75,-0.3125 A 1.2971909,1.2858244 0 0 1 -79.5,69.625 l -0.53125,-2.09375 c -3.372962,-0.869862 -5.626727,-2.093894 -6.0625,-3.46875 z"
       id="path3685"
       inkscape:connector-curvature="0" />
    <path
       style="opacity:0.15;fill:#000000;fill-opacity:1;stroke:none;display:inline;enable-background:new"
       d="m -67.6875,24 c -4.933563,0 -8.9375,3.685688 -8.9375,8.25 0.01199,0.523077 0.0076,1.130628 0.0625,1.78125 -0.780775,0.412576 -0.88394,2.029698 -0.1875,3.65625 0.268552,0.627206 0.629875,1.149757 1,1.5625 0.01233,0.0138 0.05009,0.01781 0.0625,0.03125 0.08835,0.429754 0.143153,0.765245 0.25,1.25 0.330998,0.984301 1.701797,2.845887 2.90625,4.4375 0.120114,1.227817 0.116663,2.415883 -0.125,3.8125 -3.466823,2.851074 -12.325789,4.142171 -12.3125,7.09375 l -1.1875,7.6875 c 0,1.572284 2.353085,2.996001 6.125,3.96875 L -79.5,69.625 a 1.2971909,1.2858244 0 0 0 0.8125,0.875 c 0.16742,0.06421 0.291156,0.180459 0.75,0.3125 2.303676,0.662953 5.785982,1.113453 9.6875,1.15625 -0.822865,-0.885806 -1.375,-1.942309 -1.375,-3.21875 a 2.008154,2.008154 0 0 1 0.03125,-0.3125 L -68.03125,58.5 -68,58.1875 l 0.0625,0 c 0.148658,-1.799076 1.385508,-3.095511 2.71875,-3.96875 1.419638,-0.929826 3.133193,-1.632876 4.9375,-2.34375 0.590547,-0.232668 1.18935,-0.48327 1.78125,-0.71875 -1.660729,-0.715005 -3.235377,-1.473512 -4.28125,-2.375 -0.138644,-1.130618 -0.133079,-2.230152 -0.0625,-3.34375 1.095073,-1.674415 2.508563,-3.816571 2.875,-4.90625 0.134675,-0.564317 0.207904,-0.952931 0.3125,-1.4375 0.323373,-0.391786 0.605039,-0.848734 0.84375,-1.40625 0.661375,-1.544647 0.611565,-3.029728 -0.0625,-3.53125 0.0471,-0.671165 0.105312,-1.332628 0.125,-1.90625 3e-6,-4.564313 -4.003938,-8.25 -8.9375,-8.25 z m 0,1 c 4.421507,0 7.919042,3.256214 7.9375,7.21875 4.9e-5,0.01052 0,0.02072 0,0.03125 -0.01921,0.527397 -0.07787,1.172234 -0.125,1.84375 a 1.0046731,1.0046731 0 0 0 0.40625,0.875 c -0.03445,-0.02563 0.11502,0.147981 0.125,0.59375 0.01,0.445769 -0.125006,1.061903 -0.40625,1.71875 -0.204342,0.477247 -0.425929,0.870591 -0.6875,1.1875 A 1.0046731,1.0046731 0 0 0 -60.625,38.875 c -0.100381,0.465041 -0.167279,0.856748 -0.28125,1.34375 -0.0031,0.01319 -0.0281,0.01787 -0.03125,0.03125 -0.0032,0.0091 0.0035,0.05295 0,0.0625 -0.141228,0.383503 -0.561934,1.114788 -1.0625,1.9375 -0.522622,0.858962 -1.139004,1.786326 -1.6875,2.625 a 1.0046731,1.0046731 0 0 0 -0.15625,0.5 c -0.07301,1.15193 -0.08612,2.31931 0.0625,3.53125 a 1.0046731,1.0046731 0 0 0 0.34375,0.625 c 0.700607,0.603887 1.712128,1.005191 2.625,1.46875 -1.756489,0.693502 -3.47876,1.399095 -4.96875,2.375 -1.311609,0.85907 -2.495642,2.257456 -2.90625,4.09375 A 1.0046731,1.0046731 0 0 0 -69,58.09375 l -0.03125,0.25 0,0.0625 -1.5625,9.875 a 1.0046731,1.0046731 0 0 0 0.0625,0.46875 l -0.09375,0 c 0,0.761393 0.190031,1.454949 0.46875,2.09375 -3.002163,-0.149133 -5.726445,-0.489606 -7.5,-1 -0.354383,-0.10198 -0.26484,-0.131134 -0.65625,-0.28125 a 1.0046731,1.0046731 0 0 0 -0.03125,0 c -0.04326,-0.01546 0.01102,0.01802 -0.03125,0 0.01042,-0.003 0.02056,-0.02099 0,-0.03125 -0.04112,-0.02051 0.0086,0.02294 -0.03125,0 -0.03839,-0.02528 0.0056,-0.0037 -0.03125,-0.03125 -0.0351,-0.0297 0.002,0.03176 -0.03125,0 -0.03326,-0.03176 0.0313,0.0025 0,-0.03125 -0.02922,-0.03553 -0.0042,0.006 -0.03125,-0.03125 -0.02236,-0.04023 0.0199,0.01026 0,-0.03125 -0.0099,-0.02076 -0.02809,-0.01052 -0.03125,0 -0.01735,-0.04264 0.01475,0.01237 0,-0.03125 l -0.53125,-2.09375 a 1.0046731,1.0046731 0 0 0 -0.71875,-0.71875 c -1.820115,-0.469394 -3.270041,-1.041452 -4.1875,-1.625 -0.895201,-0.569391 -1.143475,-1.05589 -1.15625,-1.34375 l 1.15625,-7.5625 a 1.0046731,1.0046731 0 0 0 0,-0.15625 c -0.0011,-0.235054 0.206074,-0.623372 0.96875,-1.125 0.762676,-0.501628 1.945581,-1.014642 3.25,-1.53125 2.608838,-1.033217 5.718567,-2.011324 7.71875,-3.65625 a 1.0046731,1.0046731 0 0 0 0.375,-0.625 c 0.257708,-1.489346 0.251409,-2.770331 0.125,-4.0625 a 1.0046731,1.0046731 0 0 0 -0.1875,-0.5 c -0.599162,-0.791758 -1.234217,-1.646624 -1.75,-2.40625 -0.491245,-0.723488 -0.88443,-1.354468 -1,-1.65625 -0.005,-0.02264 0.0048,-0.04048 0,-0.0625 -0.0022,-0.0062 -0.02929,-0.02543 -0.03125,-0.03125 -0.08689,-0.405755 -0.133438,-0.710025 -0.21875,-1.125 a 1.0046731,1.0046731 0 0 0 -0.21875,-0.5 c -0.06865,-0.07435 -0.04352,-0.02163 -0.09375,-0.0625 -0.291215,-0.333471 -0.571467,-0.760049 -0.78125,-1.25 -0.293741,-0.68604 -0.431823,-1.348542 -0.40625,-1.8125 0.02557,-0.463958 0.197807,-0.600972 0.125,-0.5625 a 1.0046731,1.0046731 0 0 0 0.53125,-0.96875 c -0.04921,-0.583155 -0.05075,-1.149749 -0.0625,-1.6875 0,-0.01053 -4.9e-5,-0.02073 0,-0.03125 C -75.606539,28.256214 -72.109008,25 -67.6875,25 z"
       id="path3694"
       inkscape:connector-curvature="0" />
    <path
       style="fill:url(#linearGradient3886);fill-opacity:1;stroke:none"
       d="m 56.000001,24 c -7.115552,0 -12.818184,5.358818 -12.818184,11.999997 0.01605,0.707201 0.06889,1.729416 0.136368,2.590912 -1.2168,0.51643 -1.305592,2.884584 -0.272728,5.31818 0.409584,0.965047 0.931245,1.70604 1.5,2.318184 0.138191,0.68394 0.101934,0.990991 0.272725,1.772727 0.476599,1.429793 2.355621,4.231998 4.090909,6.545455 0.170158,1.776697 0.346673,3.569672 0,5.590909 -5.00012,4.148386 -17.8828,5.932657 -17.863635,10.227272 L 30.772728,72 81.227272,72 80.954534,70.363636 C 80.934034,66.688023 68.029713,64.43098 63.090907,60.136364 62.891075,58.492382 62.852982,56.846501 62.954555,55.227273 64.53578,52.787118 66.650983,49.592528 67.181824,48 c 0.190782,-0.80644 0.26022,-1.351072 0.409089,-2.045456 0.473816,-0.573936 0.878237,-1.223065 1.227275,-2.045455 0.981222,-2.311916 0.917798,-4.518924 -0.136352,-5.181817 0.06215,-0.931505 0.108982,-1.922659 0.136352,-2.727275 C 68.818188,29.358818 63.115563,24 56.000007,24 z"
       id="path3159"
       inkscape:connector-curvature="0" />
    <path
       style="fill:url(#linearGradient3081);fill-opacity:1;stroke:none;opacity:0.6"
       d="M 31.59375 36 C 26.850048 36 23.03125 39.572546 23.03125 44 C 23.04192 44.471466 23.08002 45.144418 23.125 45.71875 C 22.3138 46.063036 22.280174 47.658853 22.96875 49.28125 C 23.241806 49.924616 23.589581 50.404404 23.96875 50.8125 C 24.06088 51.268462 24.011142 51.478843 24.125 52 C 24.442732 52.953196 25.71814 54.832695 26.875 56.375 C 26.98844 57.559464 27.106115 58.746258 26.875 60.09375 C 23.541585 62.859341 14.955973 64.043174 14.96875 66.90625 L 14.78125 68 L 32.5 68 C 34.669385 66.290846 38.906146 64.934352 42.78125 63.375 C 40.396061 62.4187 37.808799 61.39488 36.3125 60.09375 C 36.179279 58.997762 36.151033 57.891986 36.21875 56.8125 C 37.272899 55.185731 38.677356 53.061685 39.03125 52 C 39.158436 51.462373 39.213254 51.087922 39.3125 50.625 C 39.628378 50.242376 39.892308 49.829512 40.125 49.28125 C 40.779148 47.739973 40.734025 46.254428 40.03125 45.8125 C 40.07269 45.191496 40.10674 44.536409 40.125 44 C 40.124999 39.572546 36.337454 36 31.59375 36 z "
       id="path3079" />
    <path
       style="fill:#ffffff;fill-opacity:1;stroke:none;opacity:0.5"
       d="M 43.21875 36.5 C 43.211323 36.668627 43.1875 36.829616 43.1875 37 C 43.19756 37.443268 43.251071 38.050529 43.28125 38.625 C 43.294364 38.618875 43.299115 38.599431 43.3125 38.59375 C 43.258037 37.89844 43.239637 37.155295 43.21875 36.5 z M 68.78125 36.53125 C 68.756109 37.227502 68.737499 37.96937 68.6875 38.71875 C 68.700021 38.726624 68.706512 38.741691 68.71875 38.75 C 68.748054 38.145466 68.794876 37.518094 68.8125 37 C 68.8125 36.840231 68.787785 36.689478 68.78125 36.53125 z M 42.34375 41.375 C 42.25851 42.360206 42.484354 43.617675 43.03125 44.90625 C 43.440834 45.871297 43.962495 46.606606 44.53125 47.21875 C 44.669441 47.90269 44.641709 48.218264 44.8125 49 C 45.289099 50.429793 47.170962 53.217793 48.90625 55.53125 C 48.980716 56.308784 49.061232 57.104102 49.09375 57.90625 C 49.108141 56.747819 49.011171 55.626778 48.90625 54.53125 C 47.170962 52.217793 45.289099 49.429793 44.8125 48 C 44.641709 47.218264 44.669441 46.90269 44.53125 46.21875 C 43.962495 45.606606 43.440834 44.871297 43.03125 43.90625 C 42.657963 43.026726 42.422301 42.152158 42.34375 41.375 z M 69.46875 41.4375 C 69.38976 42.200066 69.180458 43.039282 68.8125 43.90625 C 68.463462 44.72864 68.067566 45.394814 67.59375 45.96875 C 67.444881 46.663134 67.378282 47.19356 67.1875 48 C 66.656659 49.592528 64.549975 52.778595 62.96875 55.21875 C 62.922521 55.955706 62.895099 56.692835 62.90625 57.4375 C 62.914904 57.030074 62.943357 56.623557 62.96875 56.21875 C 64.549975 53.778595 66.656659 50.592528 67.1875 49 C 67.378282 48.19356 67.444881 47.663134 67.59375 46.96875 C 68.067566 46.394814 68.463462 45.72864 68.8125 44.90625 C 69.349967 43.639892 69.546198 42.405924 69.46875 41.4375 z M 23.0625 44.40625 C 23.046827 44.604746 23.03125 44.797675 23.03125 45 C 23.035903 45.205587 23.04912 45.492673 23.0625 45.75 C 23.082278 45.739547 23.1042 45.727578 23.125 45.71875 C 23.090665 45.280334 23.079677 44.826109 23.0625 44.40625 z M 40.09375 44.4375 C 40.074487 44.881029 40.062677 45.341546 40.03125 45.8125 C 40.056349 45.828283 40.07033 45.8566 40.09375 45.875 C 40.108963 45.578176 40.116192 45.258742 40.125 45 C 40.125 44.808302 40.107721 44.625772 40.09375 44.4375 z M 22.53125 47.6875 C 22.421388 48.375131 22.561241 49.321092 22.96875 50.28125 C 23.241806 50.924616 23.589581 51.404404 23.96875 51.8125 C 24.06088 52.268462 24.01114 52.478843 24.125 53 C 24.442732 53.953196 25.71814 55.832695 26.875 57.375 C 26.929773 57.946907 26.982991 58.53418 27 59.125 C 27.059088 58.167219 26.96008 57.263348 26.875 56.375 C 25.71814 54.832695 24.442732 52.953196 24.125 52 C 24.01114 51.478843 24.06088 51.268462 23.96875 50.8125 C 23.589581 50.404404 23.241806 49.924616 22.96875 49.28125 C 22.734572 48.729489 22.596188 48.184929 22.53125 47.6875 z M 40.53125 47.78125 C 40.468284 48.25119 40.346026 48.760477 40.125 49.28125 C 39.892308 49.829512 39.628378 50.242376 39.3125 50.625 C 39.213254 51.087922 39.158436 51.462373 39.03125 52 C 38.677356 53.061685 37.272899 55.185731 36.21875 56.8125 C 36.18108 57.413 36.164227 58.01444 36.1875 58.625 C 36.19229 58.352304 36.201814 58.082471 36.21875 57.8125 C 37.272899 56.185731 38.677356 54.061685 39.03125 53 C 39.158436 52.462373 39.213254 52.087922 39.3125 51.625 C 39.628378 51.242376 39.892308 50.829512 40.125 50.28125 C 40.516671 49.35841 40.632025 48.452077 40.53125 47.78125 z M 14.9375 68 L 14.78125 69 L 31.53125 69 C 31.779828 68.652874 32.097436 68.317161 32.5 68 L 14.9375 68 z M 30.9375 72 L 30.78125 73 L 81.21875 73 L 81.0625 72 L 30.9375 72 z "
       id="path3854" />
    <path
       style="fill:#000000;fill-opacity:1;stroke:none;opacity:0.1"
       d="M 56 24 C 48.884448 24 43.1875 29.358821 43.1875 36 C 43.20355 36.707201 43.245022 37.732254 43.3125 38.59375 C 42.0957 39.11018 41.998386 41.472654 43.03125 43.90625 C 43.440834 44.871297 43.962495 45.606606 44.53125 46.21875 C 44.669441 46.90269 44.641709 47.218264 44.8125 48 C 45.289099 49.429793 47.170962 52.217793 48.90625 54.53125 C 49.076408 56.307947 49.252923 58.103763 48.90625 60.125 C 47.396365 61.377687 45.156384 62.41924 42.78125 63.375 C 40.396061 62.4187 37.808799 61.39488 36.3125 60.09375 C 36.179279 58.997762 36.151033 57.891986 36.21875 56.8125 C 37.272899 55.185731 38.677356 53.061685 39.03125 52 C 39.158436 51.462373 39.213254 51.087922 39.3125 50.625 C 39.628378 50.242376 39.892308 49.829512 40.125 49.28125 C 40.779148 47.739973 40.734025 46.254428 40.03125 45.8125 C 40.07269 45.191496 40.10674 44.536409 40.125 44 C 40.124999 39.572546 36.337454 36 31.59375 36 C 26.850048 36 23.03125 39.572546 23.03125 44 C 23.04192 44.471466 23.08002 45.144418 23.125 45.71875 C 22.3138 46.063036 22.280174 47.658853 22.96875 49.28125 C 23.241806 49.924616 23.589581 50.404404 23.96875 50.8125 C 24.06088 51.268462 24.011142 51.478843 24.125 52 C 24.442732 52.953196 25.71814 54.832695 26.875 56.375 C 26.98844 57.559464 27.106115 58.746258 26.875 60.09375 C 23.541585 62.859341 14.955973 64.043174 14.96875 66.90625 L 14.78125 68 L 32.5 68 C 31.595752 68.712414 31.027314 69.49307 31.03125 70.375 L 30.78125 72 L 81.21875 72 L 80.96875 70.375 C 80.94825 66.699387 68.032556 64.419616 63.09375 60.125 C 62.893918 58.481018 62.867177 56.837978 62.96875 55.21875 C 64.549975 52.778595 66.656659 49.592528 67.1875 48 C 67.378282 47.19356 67.444881 46.663134 67.59375 45.96875 C 68.067566 45.394814 68.463462 44.72864 68.8125 43.90625 C 69.793722 41.594334 69.74165 39.381643 68.6875 38.71875 C 68.74965 37.787245 68.78513 36.804616 68.8125 36 C 68.8125 29.358821 63.115556 24 56 24 z M 56 25.96875 C 62.10881 25.96875 66.807729 30.445122 66.84375 35.9375 C 66.843889 35.958639 66.84375 35.978831 66.84375 36 C 66.816761 36.789811 66.776712 37.725011 66.71875 38.59375 A 1.9585335 1.9585335 0 0 0 67.5 40.28125 C 67.51137 40.328029 67.555808 40.470354 67.5625 40.75 C 67.575883 41.309292 67.397961 42.218591 67 43.15625 C 66.710433 43.838516 66.434879 44.305539 66.09375 44.71875 A 1.9585335 1.9585335 0 0 0 65.6875 45.5625 C 65.531385 46.290682 65.459643 46.78876 65.3125 47.4375 C 65.152223 47.890874 64.56144 49.049306 63.8125 50.28125 C 63.047287 51.539963 62.107427 52.929515 61.3125 54.15625 A 1.9585335 1.9585335 0 0 0 61 55.09375 C 60.8919 56.817025 60.940084 58.596639 61.15625 60.375 A 1.9585335 1.9585335 0 0 0 61.8125 61.59375 C 64.790283 64.183128 69.322743 65.733983 73.125 67.28125 C 75.026129 68.054883 76.758593 68.829423 77.84375 69.5 C 78.181387 69.708644 78.302217 69.862865 78.5 70.03125 L 33.28125 70.03125 C 33.360531 69.896846 33.316361 69.848273 33.71875 69.53125 A 1.9585335 1.9585335 0 0 0 32.5 66.03125 L 18.78125 66.03125 C 19.315803 65.780238 19.699088 65.545004 20.375 65.28125 C 22.864204 64.309913 25.928111 63.416414 28.125 61.59375 A 1.9585335 1.9585335 0 0 0 28.8125 60.4375 C 29.094724 58.792022 28.925522 57.367602 28.8125 56.1875 A 1.9585335 1.9585335 0 0 0 28.4375 55.1875 C 27.88091 54.445464 27.310183 53.630972 26.84375 52.90625 C 26.39577 52.210198 26.054972 51.576066 26 51.4375 C 25.967515 51.202915 25.997984 51.04616 25.875 50.4375 A 1.9585335 1.9585335 0 0 0 25.40625 49.46875 C 25.141616 49.183927 24.95747 48.946455 24.78125 48.53125 C 24.54315 47.970247 24.468655 47.426729 24.46875 47.15625 A 1.9585335 1.9585335 0 0 0 25.0625 45.5625 C 25.020926 45.031662 25.0101 44.409741 25 44 C 25 43.989474 24.999942 43.979264 25 43.96875 C 25.018055 40.681489 27.845271 37.96875 31.59375 37.96875 C 35.330242 37.96875 38.120686 40.655449 38.15625 43.9375 C 38.156478 43.958562 38.15625 43.97889 38.15625 44 C 38.138498 44.498645 38.101165 45.108075 38.0625 45.6875 A 1.9585335 1.9585335 0 0 0 38.625 47.1875 C 38.63212 47.44152 38.544844 47.98381 38.3125 48.53125 C 38.149735 48.914752 38.029019 49.11273 37.8125 49.375 A 1.9585335 1.9585335 0 0 0 37.40625 50.21875 C 37.30327 50.699088 37.246086 51.036634 37.15625 51.4375 C 37.080511 51.638492 36.703353 52.390367 36.21875 53.1875 C 35.717096 54.012679 35.093889 54.929958 34.5625 55.75 A 1.9585335 1.9585335 0 0 0 34.25 56.6875 C 34.174921 57.884347 34.226741 59.124049 34.375 60.34375 A 1.9585335 1.9585335 0 0 0 35.03125 61.5625 C 36.98719 63.263318 39.683219 64.233569 42.0625 65.1875 A 1.9585335 1.9585335 0 0 0 43.5 65.1875 C 45.936655 64.206984 48.324395 63.144812 50.15625 61.625 A 1.9585335 1.9585335 0 0 0 50.84375 60.46875 C 51.241817 58.147867 51.013594 56.117166 50.84375 54.34375 A 1.9585335 1.9585335 0 0 0 50.46875 53.34375 C 48.795415 51.112888 46.946285 48.163265 46.6875 47.4375 C 46.587389 46.914957 46.593524 46.615949 46.4375 45.84375 A 1.9585335 1.9585335 0 0 0 45.96875 44.875 C 45.525845 44.398307 45.15947 43.900137 44.84375 43.15625 C 44.424998 42.169603 44.253527 41.187056 44.28125 40.625 C 44.293964 40.36723 44.3145 40.301647 44.3125 40.28125 C 44.31232 40.27941 44.313307 40.25056 44.3125 40.25 A 1.9585335 1.9585335 0 0 0 45.25 38.4375 C 45.187881 37.644451 45.171994 36.673374 45.15625 36 C 45.15625 35.989415 45.156215 35.979327 45.15625 35.96875 C 45.174307 30.461935 49.879438 25.96875 56 25.96875 z "
       id="path3887" />
    <path
       style="fill:#000000;fill-opacity:1;stroke:none;opacity:0.15"
       d="M 56 24 C 48.884448 24 43.1875 29.358821 43.1875 36 C 43.20355 36.707201 43.245022 37.732254 43.3125 38.59375 C 42.0957 39.11018 41.998386 41.472654 43.03125 43.90625 C 43.440834 44.871297 43.962495 45.606606 44.53125 46.21875 C 44.669441 46.90269 44.641709 47.218264 44.8125 48 C 45.289099 49.429793 47.170962 52.217793 48.90625 54.53125 C 49.076408 56.307947 49.252923 58.103763 48.90625 60.125 C 47.396365 61.377687 45.156384 62.41924 42.78125 63.375 C 40.396061 62.4187 37.808799 61.39488 36.3125 60.09375 C 36.179279 58.997762 36.151033 57.891986 36.21875 56.8125 C 37.272899 55.185731 38.677356 53.061685 39.03125 52 C 39.158436 51.462373 39.213254 51.087922 39.3125 50.625 C 39.628378 50.242376 39.892308 49.829512 40.125 49.28125 C 40.779148 47.739973 40.734025 46.254428 40.03125 45.8125 C 40.07269 45.191496 40.10674 44.536409 40.125 44 C 40.124999 39.572546 36.337454 36 31.59375 36 C 26.850048 36 23.03125 39.572546 23.03125 44 C 23.04192 44.471466 23.08002 45.144418 23.125 45.71875 C 22.3138 46.063036 22.280174 47.658853 22.96875 49.28125 C 23.241806 49.924616 23.589581 50.404404 23.96875 50.8125 C 24.06088 51.268462 24.011142 51.478843 24.125 52 C 24.442732 52.953196 25.71814 54.832695 26.875 56.375 C 26.98844 57.559464 27.106115 58.746258 26.875 60.09375 C 23.541585 62.859341 14.955973 64.043174 14.96875 66.90625 L 14.78125 68 L 32.5 68 C 31.595752 68.712414 31.027314 69.49307 31.03125 70.375 L 30.78125 72 L 81.21875 72 L 80.96875 70.375 C 80.94825 66.699387 68.032556 64.419616 63.09375 60.125 C 62.893918 58.481018 62.867177 56.837978 62.96875 55.21875 C 64.549975 52.778595 66.656659 49.592528 67.1875 48 C 67.378282 47.19356 67.444881 46.663134 67.59375 45.96875 C 68.067566 45.394814 68.463462 44.72864 68.8125 43.90625 C 69.793722 41.594334 69.74165 39.381643 68.6875 38.71875 C 68.74965 37.787245 68.78513 36.804616 68.8125 36 C 68.8125 29.358821 63.115556 24 56 24 z M 56 24.96875 C 62.615391 24.96875 67.82564 29.89871 67.84375 35.96875 C 67.843782 35.979338 67.84375 35.989405 67.84375 36 C 67.816567 36.797524 67.778806 37.756124 67.71875 38.65625 A 0.97330772 0.97330772 0 0 0 68.15625 39.53125 C 68.276356 39.606778 68.513465 39.975479 68.53125 40.71875 C 68.549035 41.462021 68.350818 42.483777 67.90625 43.53125 C 67.586767 44.284004 67.251626 44.849687 66.84375 45.34375 A 0.97330772 0.97330772 0 0 0 66.65625 45.75 C 66.506022 46.450722 66.443071 46.982357 66.28125 47.6875 C 66.280747 47.68969 66.250504 47.685306 66.25 47.6875 C 66.045144 48.30207 65.403024 49.501465 64.625 50.78125 C 63.846976 52.061035 62.949006 53.464114 62.15625 54.6875 A 0.97330772 0.97330772 0 0 0 62 55.15625 C 61.895183 56.827185 61.917051 58.539237 62.125 60.25 A 0.97330772 0.97330772 0 0 0 62.46875 60.875 C 65.190796 63.241998 69.674311 64.818198 73.5 66.375 C 75.412844 67.153401 77.155096 67.921717 78.34375 68.65625 C 78.938077 69.023516 79.391409 69.38075 79.65625 69.6875 C 79.921091 69.99425 79.999025 70.200234 80 70.375 A 0.97330772 0.97330772 0 0 0 80 70.53125 L 80.0625 71.03125 L 31.9375 71.03125 L 32 70.53125 A 0.97330772 0.97330772 0 0 0 32 70.375 C 31.997942 69.913802 32.305238 69.371231 33.09375 68.75 A 0.97330772 0.97330772 0 0 0 32.5 67.03125 L 15.9375 67.03125 A 0.97330772 0.97330772 0 0 0 15.9375 66.90625 C 15.936478 66.677166 16.137237 66.324111 16.875 65.84375 C 17.612763 65.363389 18.768468 64.867763 20.03125 64.375 C 22.556813 63.389475 25.569815 62.445141 27.5 60.84375 A 0.97330772 0.97330772 0 0 0 27.84375 60.25 C 28.100264 58.754422 27.956982 57.463546 27.84375 56.28125 A 0.97330772 0.97330772 0 0 0 27.65625 55.78125 C 27.088673 55.024567 26.484916 54.190941 26 53.4375 C 25.515084 52.684059 25.158513 51.975538 25.0625 51.6875 C 24.999348 51.340112 25.045222 51.158129 24.9375 50.625 A 0.97330772 0.97330772 0 0 0 24.6875 50.15625 C 24.36525 49.809416 24.099933 49.43623 23.875 48.90625 C 23.577772 48.205932 23.452163 47.513127 23.46875 47.0625 C 23.48119 46.72453 23.538687 46.637195 23.53125 46.625 A 0.97330772 0.97330772 0 0 0 24.09375 45.65625 C 24.050857 45.108566 24.010761 44.44 24 44 C 23.999798 43.991724 24.000184 43.976873 24 43.96875 C 24.018222 40.115414 27.350344 36.96875 31.59375 36.96875 C 35.837158 36.96875 39.138198 40.110897 39.15625 43.96875 C 39.1563 43.97936 39.15625 43.989379 39.15625 44 C 39.138242 44.517347 39.102557 45.149715 39.0625 45.75 A 0.97330772 0.97330772 0 0 0 39.5 46.625 C 39.443334 46.589367 39.612729 46.718485 39.625 47.15625 C 39.637271 47.594015 39.498747 48.246531 39.21875 48.90625 C 39.020809 49.372633 38.829001 49.677187 38.5625 50 A 0.97330772 0.97330772 0 0 0 38.375 50.40625 C 38.27604 50.867837 38.226963 51.239511 38.125 51.6875 L 38.09375 51.6875 C 37.977367 52.036649 37.576964 52.841249 37.0625 53.6875 C 36.548036 54.533751 35.935468 55.464557 35.40625 56.28125 A 0.97330772 0.97330772 0 0 0 35.25 56.75 C 35.178624 57.88781 35.203056 59.061282 35.34375 60.21875 A 0.97330772 0.97330772 0 0 0 35.6875 60.84375 C 37.412221 62.343508 40.023997 63.326127 42.40625 64.28125 A 0.97330772 0.97330772 0 0 0 43.15625 64.28125 C 45.561957 63.313187 47.86136 62.260437 49.53125 60.875 A 0.97330772 0.97330772 0 0 0 49.875 60.28125 C 50.247214 58.111102 50.045002 56.212567 49.875 54.4375 A 0.97330772 0.97330772 0 0 0 49.6875 53.9375 C 47.97476 51.654103 46.103583 48.748245 45.75 47.6875 C 45.621148 47.056496 45.646584 46.75673 45.5 46.03125 A 0.97330772 0.97330772 0 0 0 45.25 45.5625 C 44.743787 45.017669 44.300437 44.38639 43.9375 43.53125 C 43.469611 42.428827 43.274919 41.355673 43.3125 40.59375 C 43.350081 39.831827 43.561802 39.553348 43.6875 39.5 A 0.97330772 0.97330772 0 0 0 44.28125 38.53125 C 44.216833 37.708853 44.172349 36.689878 44.15625 36 C 44.156052 35.991503 44.156441 35.977151 44.15625 35.96875 C 44.17436 29.89871 49.384613 24.96875 56 24.96875 z "
       id="path3878" />
    <path
       style="fill:#000000;fill-opacity:1;stroke:none;opacity:0.5"
       d="M 56 24 C 48.884448 24 43.1875 29.358821 43.1875 36 C 43.190596 36.136422 43.213758 36.343378 43.21875 36.5 C 43.500825 30.095931 49.067003 25 56 25 C 62.944374 25 68.516154 30.112359 68.78125 36.53125 C 68.78736 36.362036 68.807149 36.157316 68.8125 36 C 68.8125 29.358821 63.115556 24 56 24 z M 31.59375 36 C 26.850048 36 23.03125 39.572546 23.03125 44 C 23.033775 44.111573 23.057175 44.276086 23.0625 44.40625 C 23.389806 40.261102 27.066825 37 31.59375 37 C 36.132063 37 39.785045 40.277444 40.09375 44.4375 C 40.099887 44.296188 40.120588 44.12961 40.125 44 C 40.124999 39.572546 36.337454 36 31.59375 36 z M 43.28125 38.625 C 42.533055 38.97446 42.207345 40.025459 42.34375 41.375 C 42.419494 40.499552 42.739989 39.836733 43.3125 39.59375 C 43.287316 39.272233 43.299219 38.967054 43.28125 38.625 z M 68.71875 38.75 C 68.702544 39.084326 68.709631 39.387043 68.6875 39.71875 C 69.1518 40.010721 69.395915 40.605665 69.46875 41.375 C 69.582905 40.157512 69.339761 39.171608 68.71875 38.75 z M 23.0625 45.75 C 22.57325 46.008567 22.41014 46.759794 22.53125 47.6875 C 22.607024 47.213227 22.79388 46.859283 23.125 46.71875 C 23.099634 46.39486 23.079804 46.082794 23.0625 45.75 z M 40.09375 45.875 C 40.077424 46.193533 40.052701 46.491043 40.03125 46.8125 C 40.313238 46.989824 40.463716 47.331698 40.53125 47.78125 C 40.647983 46.91003 40.504511 46.19773 40.09375 45.875 z M 62.90625 57.65625 C 62.890732 58.806513 62.952843 59.965782 63.09375 61.125 C 68.032556 65.419616 80.94825 67.699387 80.96875 71.375 L 81.0625 72 L 81.21875 72 L 80.96875 70.375 C 80.94825 66.699387 68.032556 64.419616 63.09375 60.125 C 62.993834 59.303009 62.925218 58.474911 62.90625 57.65625 z M 49.09375 57.90625 C 49.084802 58.626531 49.039161 59.350076 48.90625 60.125 C 47.396365 61.377687 45.156384 62.41924 42.78125 63.375 C 40.396061 62.4187 37.808799 61.39488 36.3125 60.09375 C 36.253388 59.607442 36.206064 59.112011 36.1875 58.625 C 36.173136 59.442684 36.212597 60.27186 36.3125 61.09375 C 37.808799 62.39488 40.396061 63.4187 42.78125 64.375 C 45.156384 63.41924 47.396365 62.377687 48.90625 61.125 C 49.101209 59.988315 49.135536 58.937044 49.09375 57.90625 z M 27 59.1875 C 26.979598 59.487409 26.929112 59.778255 26.875 60.09375 C 23.541585 62.859341 14.955973 64.043174 14.96875 66.90625 L 14.78125 68 L 14.9375 68 L 14.96875 67.90625 C 14.955973 65.043174 23.541585 63.859341 26.875 61.09375 C 26.990558 60.420004 27.014709 59.800693 27 59.1875 z M 31.53125 69 C 31.221467 69.432596 31.029066 69.885698 31.03125 70.375 L 30.78125 72 L 30.9375 72 L 31.03125 71.375 C 31.027314 70.49307 31.595752 69.712414 32.5 69 L 31.53125 69 z "
       id="path3868" />
  </g>
</svg>
