<?xml version="1.0" encoding="UTF-8" standalone="no"?>
<!-- Created with Inkscape (http://www.inkscape.org/) -->

<svg
   xmlns:dc="http://purl.org/dc/elements/1.1/"
   xmlns:cc="http://creativecommons.org/ns#"
   xmlns:rdf="http://www.w3.org/1999/02/22-rdf-syntax-ns#"
   xmlns:svg="http://www.w3.org/2000/svg"
   xmlns="http://www.w3.org/2000/svg"
   xmlns:xlink="http://www.w3.org/1999/xlink"
   xmlns:sodipodi="http://sodipodi.sourceforge.net/DTD/sodipodi-0.dtd"
   xmlns:inkscape="http://www.inkscape.org/namespaces/inkscape"
   width="16"
   height="16"
   id="svg2"
   sodipodi:version="0.32"
   inkscape:version="0.48.0 r9654"
   version="1.0"
   sodipodi:docname="appointment-new.svg"
   inkscape:output_extension="org.inkscape.output.svg.inkscape">
  <defs
     id="defs4">
    <linearGradient
       gradientUnits="userSpaceOnUse"
       y2="18.319494"
       x2="7.1904788"
       y1="6.9551144"
       x1="7.1904788"
       gradientTransform="scale(1.1467263,0.8720476)"
       id="linearGradient4558">
      <stop
         id="stop4560"
         offset="0"
         style="stop-color:#000000;stop-opacity:0.86274511;" />
      <stop
         id="stop4562"
         offset="1"
         style="stop-color:#000000;stop-opacity:0.47058824;" />
    </linearGradient>
    <linearGradient
       inkscape:collect="always"
       xlink:href="#StandardGradient"
       id="linearGradient4564"
       gradientUnits="userSpaceOnUse"
       gradientTransform="scale(1.1467263,0.8720476)"
       x1="7.1904788"
       y1="6.9551144"
       x2="7.1904788"
       y2="18.319494" />
    <linearGradient
       inkscape:collect="always"
       xlink:href="#StandardGradient"
       id="linearGradient3786"
       gradientUnits="userSpaceOnUse"
       gradientTransform="scale(1.0598527,0.9435274)"
       x1="11.794092"
       y1="3.2126782"
       x2="11.794092"
       y2="20.137329" />
    <linearGradient
       id="StandardGradient"
       gradientTransform="matrix(1.0765258,0,0,0.9227364,-0.00801316,0.1584665)"
       x1="10.005832"
       y1="4.1631975"
       x2="10.005832"
       y2="17.168188"
       gradientUnits="userSpaceOnUse">
      <stop
         id="stop3337"
         offset="0"
         style="stop-color:#ebebeb;stop-opacity:1;" />
      <stop
         id="stop3339"
         offset="1"
         style="stop-color:#aaaaaa;stop-opacity:1;" />
    </linearGradient>
    <linearGradient
       y2="20.137329"
       x2="11.794092"
       y1="3.2126782"
       x1="11.794092"
       gradientTransform="matrix(1.0598527,0,0,0.9435274,-9.5357387,-1.8e-5)"
       gradientUnits="userSpaceOnUse"
       id="linearGradient3036"
       xlink:href="#StandardGradient"
       inkscape:collect="always" />
    <linearGradient
       inkscape:collect="always"
       xlink:href="#StandardGradient"
       id="linearGradient4585"
       gradientUnits="userSpaceOnUse"
       gradientTransform="scale(1.1467263,0.8720476)"
       x1="7.1904788"
       y1="6.9551144"
       x2="7.1904788"
       y2="18.319494" />
    <linearGradient
       inkscape:collect="always"
       xlink:href="#StandardGradient"
       id="linearGradient3854"
       gradientUnits="userSpaceOnUse"
       gradientTransform="matrix(0,1,-1,0,17.464261,1.999982)"
       x1="2"
       y1="8"
       x2="16"
       y2="8" />
    <linearGradient
       id="StandardGradient-7"
       gradientTransform="scale(1.1467263,0.8720476)"
       x1="7.1904788"
       y1="6.9551144"
       x2="7.1904788"
       y2="18.319494"
       gradientUnits="userSpaceOnUse">
      <stop
         style="stop-color:#000000;stop-opacity:0.86274511;"
         offset="0"
         id="stop3280" />
      <stop
         style="stop-color:#000000;stop-opacity:0.47058824;"
         offset="1"
         id="stop3282" />
    </linearGradient>
  </defs>
  <sodipodi:namedview
     id="base"
     pagecolor="#ffffff"
     bordercolor="#9a9a9a"
     borderopacity="1"
     inkscape:pageopacity="0.0"
     inkscape:pageshadow="2"
     inkscape:zoom="36.789958"
     inkscape:cx="-1.6573904"
     inkscape:cy="9.1206051"
     inkscape:document-units="px"
     inkscape:current-layer="layer3"
     showgrid="true"
     inkscape:showpageshadow="false"
     showguides="true"
     inkscape:guide-bbox="true"
     inkscape:window-width="1920"
     inkscape:window-height="1029"
     inkscape:window-x="0"
     inkscape:window-y="25"
     inkscape:window-maximized="1">
    <sodipodi:guide
       orientation="1,0"
       position="0,112"
       id="guide2383" />
    <sodipodi:guide
       orientation="0,1"
       position="26.278146,128"
       id="guide2385" />
    <sodipodi:guide
       orientation="1,0"
       position="128,54.082119"
       id="guide2387" />
    <sodipodi:guide
       orientation="0,1"
       position="78.156291,0"
       id="guide2389" />
    <inkscape:grid
       type="xygrid"
       id="grid3672"
       visible="true"
       enabled="true" />
  </sodipodi:namedview>
  <metadata
     id="metadata7">
    <rdf:RDF>
      <cc:Work
         rdf:about="">
        <dc:format>image/svg+xml</dc:format>
        <dc:type
           rdf:resource="http://purl.org/dc/dcmitype/StillImage" />
        <dc:title></dc:title>
      </cc:Work>
    </rdf:RDF>
  </metadata>
  <g
     inkscape:groupmode="layer"
     id="layer3"
     inkscape:label="Cross"
     style="display:inline"
     transform="translate(-0.4642613,-2.999982)">
    <path
       inkscape:connector-curvature="0"
       style="opacity:0.25;color:#000000;fill:#000000;fill-opacity:1;stroke:none;stroke-width:1;marker:none;visibility:visible;display:inline;overflow:visible;enable-background:accumulate"
       d="m 9.4642613,2.999982 c -3.8564486,0 -7,3.1435514 -7,7 0,0.41732 0.034566,0.800705 0.09375,1.15625 a 1.0043562,1.0043562 0 0 0 0.09375,0.28125 1.0043562,1.0043562 0 0 0 -0.1875,0.5625 l 0,1 -1,0 a 1.0043562,1.0043562 0 0 0 -1,1 l 0,2 a 1.0043562,1.0043562 0 0 0 1,1 l 1,0 0,1 a 1.0043562,1.0043562 0 0 0 1,1 l 2,0 a 1.0043562,1.0043562 0 0 0 1,-1 l 0,-1 1,0 a 1.0043562,1.0043562 0 0 0 0.5625,-0.15625 1.0043562,1.0043562 0 0 0 0.03125,0 1.0043562,1.0043562 0 0 0 0.25,0.0625 c 0.3555435,0.05918 0.7389298,0.09375 1.15625,0.09375 3.8564477,0 6.9999997,-3.143552 6.9999997,-7 0,-3.8564487 -3.143552,-7 -6.9999997,-7 z m 0,1 c 3.3137077,0 5.9999997,2.6862915 5.9999997,6 0,3.313708 -2.686292,6 -5.9999997,6 -0.3380878,0 -0.677161,-0.04001 -1,-0.09375 l 0,-2.90625 -2,0 0,-2 -2.90625,0 c -0.053739,-0.322839 -0.09375,-0.661912 -0.09375,-1 0,-3.3137085 2.6862915,-6 6,-6 z m 0,1.5 c -0.554,0 -1,0.446 -1,1 l 0,3.5 c 0,0.554 0.446,1 1,1 l 2.9999997,0 c 0.554,0 1,-0.446 1,-1 0,-0.554 -0.446,-1 -1,-1 l -2,0 0,-2.5 c 0,-0.554 -0.446,-1 -0.9999997,-1 z m 0,3.6875 a 1.0043562,1.0043562 0 0 0 0.8124997,0.8125 l -0.8124997,0 0,-0.8125 z m -6,2.8125 2,0 0,2 2,0 0,2 -2,0 0,2 -2,0 0,-2 -2,0 0,-2 2,0 0,-2 z"
       id="path3880" />
    <path
       inkscape:connector-curvature="0"
       style="color:#000000;fill:url(#linearGradient3854);fill-opacity:1.0;stroke:none;stroke-width:1;marker:none;visibility:visible;display:inline;overflow:visible;enable-background:accumulate"
       d="m 9.4642613,3.999982 c -3.3137085,0 -6,2.6862915 -6,6 0,0.338088 0.040011,0.677161 0.09375,1 l 2.90625,0 0,2 2,0 0,2.90625 c 0.322839,0.05374 0.6619122,0.09375 1,0.09375 3.3137077,0 5.9999997,-2.686292 5.9999997,-6 0,-3.3137085 -2.686292,-6 -5.9999997,-6 z m 0,1.5 c 0.5539997,0 0.9999997,0.446 0.9999997,1 l 0,2.5 2,0 c 0.554,0 1,0.446 1,1 0,0.554 -0.446,1 -1,1 l -2.9999997,0 c -0.554,0 -1,-0.446 -1,-1 l 0,-3.5 c 0,-0.554 0.446,-1 1,-1 z m -6,6.5 0,2 -2,0 0,2 2,0 0,2 2,0 0,-2 2,0 0,-2 -2,0 0,-2 -2,0 z"
       id="path2926" />
    <path
       inkscape:connector-curvature="0"
       style="opacity:0.6;color:#000000;fill:#ffffff;fill-opacity:1;stroke:none;stroke-width:1;marker:none;visibility:visible;display:inline;overflow:visible;enable-background:accumulate"
       d="m 9.4642613,3.999982 c -3.3137085,0 -6,2.6862915 -6,6 0,0.12666 0.021401,0.248969 0.03125,0.375 0.30726,-3.0255365 2.8621483,-5.375 5.96875,-5.375 3.1066007,0 5.6614897,2.3494635 5.9687497,5.375 0.0075,-0.122591 0.03125,-0.250529 0.03125,-0.375 0,-3.3137085 -2.686292,-6 -5.9999997,-6 z m -1,6 0,1 c 0,0.554 0.446,1 1,1 l 2.9999997,0 c 0.554,0 1,-0.446 1,-1 0,-0.187901 -0.06682,-0.350135 -0.15625,-0.5 -0.174233,0.291991 -0.477651,0.5 -0.84375,0.5 l -2.9999997,0 c -0.554,0 -1,-0.446 -1,-1 z m -5,2 0,1 2,0 0,-1 -1.90625,0 -0.09375,0 z m -2,2 0,1 2,0 0,-1 -2,0 z m 4,0 0,1 2,0 0,-1 -1,0 -1,0 z"
       id="path3856" />
    <path
       inkscape:connector-curvature="0"
       style="opacity:0.45;color:#000000;fill:#000000;fill-opacity:1;stroke:none;stroke-width:1;marker:none;visibility:visible;display:inline;overflow:visible;enable-background:accumulate"
       d="m 9.4642613,5.499982 c -0.554,0 -1,0.446 -1,1 l 0,1 c 0,-0.554 0.446,-1 1,-1 0.5539997,0 0.9999997,0.446 0.9999997,1 l 0,-1 c 0,-0.554 -0.446,-1 -0.9999997,-1 z m 0.9999997,3.5 0,1 2,0 c 0.366099,0 0.669517,0.208009 0.84375,0.5 0.08943,-0.149865 0.15625,-0.312099 0.15625,-0.5 0,-0.554 -0.446,-1 -1,-1 l -2,0 z m -6.9687497,1.375 c -0.020484,0.201702 -0.03125,0.417893 -0.03125,0.625 0,0.338088 0.040011,0.677161 0.09375,1 l 1.90625,0 1,0 0,-1 -2.90625,0 c -0.033606,-0.201892 -0.046059,-0.414622 -0.0625,-0.625 z m 11.9374997,0.25 c -0.30726,3.025536 -2.862149,5.375 -5.9687497,5.375 -0.3380878,0 -0.677161,-0.04001 -1,-0.09375 l 0,1 c 0.322839,0.05374 0.6619122,0.09375 1,0.09375 3.3137077,0 5.9999997,-2.686292 5.9999997,-6 0,-0.124471 -0.02378,-0.252409 -0.03125,-0.375 z m -8.9687497,2.375 0,1 1,0 1,0 0,-1 -2,0 z m -5,3 0,1 2,0 0,-1 -2,0 z m 4,0 0,1 2,0 0,-1 -2,0 z m -2,2 0,1 2,0 0,-1 -2,0 z"
       id="path3865" />
  </g>
</svg>
