<?xml version="1.0" encoding="UTF-8" standalone="no"?>
<!-- Created with Inkscape (http://www.inkscape.org/) -->

<svg
   xmlns:dc="http://purl.org/dc/elements/1.1/"
   xmlns:cc="http://creativecommons.org/ns#"
   xmlns:rdf="http://www.w3.org/1999/02/22-rdf-syntax-ns#"
   xmlns:svg="http://www.w3.org/2000/svg"
   xmlns="http://www.w3.org/2000/svg"
   xmlns:xlink="http://www.w3.org/1999/xlink"
   xmlns:sodipodi="http://sodipodi.sourceforge.net/DTD/sodipodi-0.dtd"
   xmlns:inkscape="http://www.inkscape.org/namespaces/inkscape"
   width="16"
   height="16"
   id="svg2"
   sodipodi:version="0.32"
   inkscape:version="0.48.0 r9654"
   version="1.0"
   sodipodi:docname="document-open.svg"
   inkscape:output_extension="org.inkscape.output.svg.inkscape"
   inkscape:export-filename="/home/matt/.icons/Sirocco/scalable/mimetypes/text-plain.png"
   inkscape:export-xdpi="90"
   inkscape:export-ydpi="90"
   sodipodi:modified="true"
   style="display:inline">
  <sodipodi:namedview
     id="base"
     pagecolor="#ffffff"
     bordercolor="#666666"
     borderopacity="1.0"
     inkscape:pageopacity="0.0"
     inkscape:pageshadow="2"
     inkscape:zoom="17.143672"
     inkscape:cx="-9.6699954"
     inkscape:cy="1.5043594"
     inkscape:document-units="px"
     inkscape:current-layer="layer1"
     width="128px"
     height="128px"
     inkscape:showpageshadow="false"
     inkscape:window-width="1920"
     inkscape:window-height="1026"
     inkscape:window-x="0"
     inkscape:window-y="25"
     showguides="true"
     inkscape:guide-bbox="true"
     showgrid="true"
     inkscape:window-maximized="1">
    <sodipodi:guide
       id="guide2226"
       position="32.637397,117.99844"
       orientation="horizontal" />
    <sodipodi:guide
       id="guide2230"
       position="110,57.402344"
       orientation="vertical" />
    <sodipodi:guide
       id="guide2232"
       position="33.760911"
       orientation="horizontal" />
    <sodipodi:guide
       id="guide2231"
       position="46.774696"
       orientation="horizontal" />
    <inkscape:grid
       enabled="true"
       visible="true"
       id="grid3231"
       type="xygrid" />
    <sodipodi:guide
       orientation="1,0"
       position="100,67.625"
       id="guide2713" />
  </sodipodi:namedview>
  <defs
     id="defs4">
    <linearGradient
       gradientUnits="userSpaceOnUse"
       y2="19.387045"
       x2="11.998966"
       y1="0.92195445"
       x1="11.998966"
       gradientTransform="scale(0.9219544,1.0846523)"
       id="linearGradient5048">
      <stop
         id="stop5050"
         offset="0"
         style="stop-color:#000000;stop-opacity:0.86274511;" />
      <stop
         id="stop5052"
         offset="1"
         style="stop-color:#000000;stop-opacity:0.47058824;" />
    </linearGradient>
    <linearGradient
       inkscape:collect="always"
       xlink:href="#StandardGradient"
       id="linearGradient2423"
       gradientUnits="userSpaceOnUse"
       gradientTransform="matrix(0.9247229,0,0,1.0872097,-6.0600562,-2.0023583)"
       x1="11.998966"
       y1="2.7615263"
       x2="11.998966"
       y2="15.638639" />
    <filter
       inkscape:collect="always"
       id="filter3725">
      <feGaussianBlur
         inkscape:collect="always"
         stdDeviation="0.42"
         id="feGaussianBlur3727" />
    </filter>
    <linearGradient
       inkscape:collect="always"
       xlink:href="#StandardGradient"
       id="linearGradient3786"
       gradientUnits="userSpaceOnUse"
       gradientTransform="scale(1.0598527,0.9435274)"
       x1="11.794092"
       y1="3.2126782"
       x2="11.794092"
       y2="20.137329" />
    <linearGradient
       id="StandardGradient"
       gradientTransform="matrix(1.0765258,0,0,0.9227364,-0.00801316,0.1584665)"
       x1="10.005832"
       y1="4.1631975"
       x2="10.005832"
       y2="17.168188"
       gradientUnits="userSpaceOnUse">
      <stop
         id="stop3337"
         offset="0"
         style="stop-color:#ebebeb;stop-opacity:1;" />
      <stop
         id="stop3339"
         offset="1"
         style="stop-color:#aaaaaa;stop-opacity:1;" />
    </linearGradient>
    <linearGradient
       y2="20.137329"
       x2="11.794092"
       y1="3.2126782"
       x1="11.794092"
       gradientTransform="matrix(1.0598527,0,0,0.9435274,-8,1)"
       gradientUnits="userSpaceOnUse"
       id="linearGradient3036"
       xlink:href="#StandardGradient"
       inkscape:collect="always" />
    <linearGradient
       inkscape:collect="always"
       xlink:href="#StandardGradient"
       id="linearGradient5073"
       gradientUnits="userSpaceOnUse"
       gradientTransform="matrix(0.9247229,0,0,1.0872097,-6.0600562,-2.0023583)"
       x1="11.998966"
       y1="2.7615263"
       x2="11.998966"
       y2="15.638639" />
  </defs>
  <metadata
     id="metadata7">
    <rdf:RDF>
      <cc:Work
         rdf:about="">
        <dc:format>image/svg+xml</dc:format>
        <dc:type
           rdf:resource="http://purl.org/dc/dcmitype/StillImage" />
      </cc:Work>
    </rdf:RDF>
  </metadata>
  <g
     style="display:inline"
     inkscape:label="Calque 1"
     id="layer1"
     inkscape:groupmode="layer">
    <path
       sodipodi:type="inkscape:offset"
       inkscape:radius="0.99161953"
       inkscape:original="M 3 1 C 2.446 1 2 1.446 2 2 L 2 3 L 14 3 C 14 2.446 13.554 2 13 2 L 7 2 C 7 1.446 6.554 1 6 1 L 3 1 z M 2.5 4 C 1.669 4 1 4.669 1 5.5 L 1 10 L 1 11.5 C 1 12.331 1.669 13 2.5 13 L 5 13 L 5 13.5 C 5 14.331 5.669 15 6.5 15 L 12.5 15 C 13.331 15 14 14.331 14 13.5 L 14 13.0625 L 14.03125 13.0625 L 14.03125 12.90625 C 14.603723 12.695291 15 12.147488 15 11.5 L 15 10 L 15 5.5 C 15 4.669 14.331 4 13.5 4 L 12.5 4 L 6.5 4 L 2.5 4 z M 7.5 6 L 11.5 6 C 11.777 6 12 6.223 12 6.5 L 12 12.5 C 12 12.777 11.777 13 11.5 13 L 7.5 13 C 7.223 13 7 12.777 7 12.5 L 7 6.5 C 7 6.223 7.223 6 7.5 6 z "
       style="fill:#000000;fill-opacity:1;stroke:none;display:inline;opacity:0.25"
       id="path5075"
       d="M 3,0 C 1.9137951,0 1,0.91379506 1,2 L 1,3 A 0.99171869,0.99171869 0 0 0 1.1875,3.5625 C 0.52409608,4.0129031 0,4.6479969 0,5.5 L 0,10 0,11.5 C 0,12.863205 1.1367951,14 2.5,14 l 1.71875,0 C 4.4801157,15.094453 5.3321682,16 6.5,16 l 6,0 c 1.363205,0 2.5,-1.136795 2.5,-2.5 l 0,-0.15625 C 15.55901,12.882357 16,12.265498 16,11.5 L 16,10 16,5.5 C 16,4.6479969 15.475904,4.0129031 14.8125,3.5625 A 0.99171869,0.99171869 0 0 0 15,3 C 15,1.9137951 14.086205,1 13,1 L 7.5625,1 C 7.2060662,0.44467204 6.6978844,0 6,0 L 3,0 z m 5,7 3,0 0,5 -3,0 0,-5 z" />
    <path
       style="fill:url(#linearGradient2423);fill-opacity:1.0;stroke:none;stroke-width:1.00000024000000010;stroke-linecap:round;stroke-linejoin:miter;stroke-miterlimit:4;stroke-dasharray:none;stroke-opacity:1;display:inline"
       d="M 3 1 C 2.446 1 2 1.446 2 2 L 2 3 L 14 3 C 14 2.446 13.554 2 13 2 L 7 2 C 7 1.446 6.554 1 6 1 L 3 1 z M 2.5 4 C 1.669 4 1 4.669 1 5.5 L 1 10 L 1 11.5 C 1 12.331 1.669 13 2.5 13 L 5 13 L 5 13.5 C 5 14.331 5.669 15 6.5 15 L 12.5 15 C 13.331 15 14 14.331 14 13.5 L 14 13.0625 L 14.03125 13.0625 L 14.03125 12.90625 C 14.603723 12.695291 15 12.147488 15 11.5 L 15 10 L 15 5.5 C 15 4.669 14.331 4 13.5 4 L 12.5 4 L 6.5 4 L 2.5 4 z M 7.5 6 L 11.5 6 C 11.777 6 12 6.223 12 6.5 L 12 12.5 C 12 12.777 11.777 13 11.5 13 L 7.5 13 C 7.223 13 7 12.777 7 12.5 L 7 6.5 C 7 6.223 7.223 6 7.5 6 z "
       id="Symbol" />
    <path
       style="opacity:0.6;fill:#ffffff;fill-opacity:1;stroke:none;stroke-width:1.00000024000000010;stroke-linecap:round;stroke-linejoin:miter;stroke-miterlimit:4;stroke-dasharray:none;stroke-opacity:1;display:inline"
       d="M 3,1 C 2.446,1 2,1.446 2,2 L 2,3 C 2,2.446 2.446,2 3,2 L 6,2 C 6.554,2 7,2.446 7,3 L 13,3 L 14,3 C 14,2.446 13.554,2 13,2 L 7,2 C 7,1.446 6.554,1 6,1 L 3,1 z M 2.5,4 C 1.669,4 1,4.669 1,5.5 L 1,6.5 C 1,5.669 1.669,5 2.5,5 L 6.5,5 L 12.5,5 L 13.5,5 C 14.331,5 15,5.669 15,6.5 L 15,5.5 C 15,4.669 14.331,4 13.5,4 L 2.5,4 z M 7,12.5 L 7,13.5 C 7,13.777 7.223,14 7.5,14 L 11.5,14 C 11.777,14 12,13.777 12,13.5 L 12,12.5 C 12,12.777 11.777,13 11.5,13 L 7.5,13 C 7.223,13 7,12.777 7,12.5 z"
       id="BevelShadow"
       sodipodi:nodetypes="cccccccccccccccccccccccccccccccc" />
    <path
       style="opacity:0.45;fill:#000000;fill-opacity:1;stroke:none;stroke-width:1.00000024000000010;stroke-linecap:round;stroke-linejoin:miter;stroke-miterlimit:4;stroke-dasharray:none;stroke-opacity:1;display:inline"
       d="M 2,3 L 2,4 L 2.5,4 L 6.5,4 L 12.5,4 L 13.5,4 L 14,4 L 14,3 L 2,3 z M 7.5,6 C 7.223,6 7,6.223 7,6.5 L 7,7.5 C 7,7.223 7.223,7 7.5,7 L 11.5,7 C 11.777,7 12,7.223 12,7.5 L 12,6.5 C 12,6.223 11.777,6 11.5,6 L 7.5,6 z M 1,11.5 L 1,12.5 C 1,13.331 1.669,14 2.5,14 L 5,14 L 5,14.5 C 5,15.331 5.669,16 6.5,16 L 12.5,16 C 13.331,16 14,15.331 14,14.5 L 14,14.0625 L 14.03125,14.0625 L 14.03125,13.90625 C 14.603723,13.695291 15,13.147488 15,12.5 L 15,11.5 C 15,12.147488 14.603723,12.695291 14.03125,12.90625 L 14.03125,13.0625 L 14,13.0625 L 14,13.5 C 14,14.331 13.331,15 12.5,15 L 6.5,15 C 5.669,15 5,14.331 5,13.5 L 5,13 L 2.5,13 C 1.669,13 1,12.331 1,11.5 z"
       id="BevelHighlight"
       sodipodi:nodetypes="ccccccccccccccccccccccccccccccccccccccccc" />
  </g>
</svg>
