<?xml version="1.0" encoding="UTF-8" standalone="no"?>
<!-- Created with Inkscape (http://www.inkscape.org/) -->

<svg
   xmlns:dc="http://purl.org/dc/elements/1.1/"
   xmlns:cc="http://creativecommons.org/ns#"
   xmlns:rdf="http://www.w3.org/1999/02/22-rdf-syntax-ns#"
   xmlns:svg="http://www.w3.org/2000/svg"
   xmlns="http://www.w3.org/2000/svg"
   xmlns:xlink="http://www.w3.org/1999/xlink"
   xmlns:sodipodi="http://sodipodi.sourceforge.net/DTD/sodipodi-0.dtd"
   xmlns:inkscape="http://www.inkscape.org/namespaces/inkscape"
   width="16"
   height="16"
   id="svg2"
   sodipodi:version="0.32"
   inkscape:version="0.48.0 r9654"
   version="1.0"
   sodipodi:docname="document-print.svg"
   inkscape:output_extension="org.inkscape.output.svg.inkscape"
   inkscape:export-filename="/home/matt/.icons/Sirocco/scalable/mimetypes/text-plain.png"
   inkscape:export-xdpi="90"
   inkscape:export-ydpi="90"
   sodipodi:modified="true"
   style="display:inline">
  <sodipodi:namedview
     id="base"
     pagecolor="#ffffff"
     bordercolor="#666666"
     borderopacity="1.0"
     inkscape:pageopacity="0.0"
     inkscape:pageshadow="2"
     inkscape:zoom="17.143672"
     inkscape:cx="-7.0604979"
     inkscape:cy="2.3079226"
     inkscape:document-units="px"
     inkscape:current-layer="layer1"
     width="128px"
     height="128px"
     inkscape:showpageshadow="false"
     inkscape:window-width="1920"
     inkscape:window-height="1026"
     inkscape:window-x="0"
     inkscape:window-y="25"
     showguides="true"
     inkscape:guide-bbox="true"
     showgrid="true"
     inkscape:window-maximized="1">
    <sodipodi:guide
       id="guide2226"
       position="32.637397,117.99844"
       orientation="horizontal" />
    <sodipodi:guide
       id="guide2230"
       position="110,57.402344"
       orientation="vertical" />
    <sodipodi:guide
       id="guide2232"
       position="33.760911"
       orientation="horizontal" />
    <sodipodi:guide
       id="guide2231"
       position="46.774696"
       orientation="horizontal" />
    <inkscape:grid
       enabled="true"
       visible="true"
       id="grid3231"
       type="xygrid" />
    <sodipodi:guide
       orientation="1,0"
       position="100,67.625"
       id="guide2713" />
  </sodipodi:namedview>
  <defs
     id="defs4">
    <linearGradient
       gradientUnits="userSpaceOnUse"
       y2="19.387045"
       x2="11.998966"
       y1="0.92195445"
       x1="11.998966"
       gradientTransform="scale(0.9219544,1.0846523)"
       id="linearGradient6228">
      <stop
         id="stop6230"
         offset="0"
         style="stop-color:#000000;stop-opacity:0.86274511;" />
      <stop
         id="stop6232"
         offset="1"
         style="stop-color:#000000;stop-opacity:0.47058824;" />
    </linearGradient>
    <linearGradient
       inkscape:collect="always"
       xlink:href="#StandardGradient"
       id="linearGradient2419"
       gradientUnits="userSpaceOnUse"
       gradientTransform="matrix(0.9247229,0,0,1.0872097,-5.0600562,-3.0023583)"
       x1="11.998966"
       y1="3.6813121"
       x2="11.998966"
       y2="16.529612" />
    <filter
       inkscape:collect="always"
       id="filter3649">
      <feGaussianBlur
         inkscape:collect="always"
         stdDeviation="0.4209375"
         id="feGaussianBlur3651" />
    </filter>
    <linearGradient
       inkscape:collect="always"
       xlink:href="#StandardGradient"
       id="linearGradient3786"
       gradientUnits="userSpaceOnUse"
       gradientTransform="scale(1.0598527,0.9435274)"
       x1="11.794092"
       y1="3.2126782"
       x2="11.794092"
       y2="20.137329" />
    <linearGradient
       id="StandardGradient"
       gradientTransform="matrix(1.0765258,0,0,0.9227364,-0.00801316,0.1584665)"
       x1="10.005832"
       y1="4.1631975"
       x2="10.005832"
       y2="17.168188"
       gradientUnits="userSpaceOnUse">
      <stop
         id="stop3337"
         offset="0"
         style="stop-color:#ebebeb;stop-opacity:1;" />
      <stop
         id="stop3339"
         offset="1"
         style="stop-color:#aaaaaa;stop-opacity:1;" />
    </linearGradient>
    <linearGradient
       y2="20.137329"
       x2="11.794092"
       y1="3.2126782"
       x1="11.794092"
       gradientTransform="matrix(1.0598527,0,0,0.9435274,-4,-1)"
       gradientUnits="userSpaceOnUse"
       id="linearGradient3036"
       xlink:href="#StandardGradient"
       inkscape:collect="always" />
    <linearGradient
       inkscape:collect="always"
       xlink:href="#StandardGradient"
       id="linearGradient6253"
       gradientUnits="userSpaceOnUse"
       gradientTransform="matrix(0.9247229,0,0,1.0872097,-5.0600562,-3.0023583)"
       x1="11.998966"
       y1="3.6813121"
       x2="11.998966"
       y2="16.529612" />
  </defs>
  <metadata
     id="metadata7">
    <rdf:RDF>
      <cc:Work
         rdf:about="">
        <dc:format>image/svg+xml</dc:format>
        <dc:type
           rdf:resource="http://purl.org/dc/dcmitype/StillImage" />
      </cc:Work>
    </rdf:RDF>
  </metadata>
  <g
     style="display:inline"
     inkscape:label="Calque 1"
     id="layer1"
     inkscape:groupmode="layer">
    <path
       sodipodi:type="inkscape:offset"
       inkscape:radius="0.9933337"
       inkscape:original="M 4.5 1 C 3.669 1 3 1.669 3 2.5 L 3 3.5625 L 3 7.03125 L 2.46875 7.03125 C 1.63775 7.03125 0.96875 7.70025 0.96875 8.53125 L 0.96875 11.5625 C 0.96875 12.3935 1.63775 13.0625 2.46875 13.0625 L 3 13.0625 L 3 13.1875 L 3 13.5 C 3 14.331 3.669 15 4.5 15 L 11.5 15 C 12.331 15 13 14.331 13 13.5 L 13 13.1875 L 13 13.0625 L 13.53125 13.0625 C 14.36225 13.0625 15.03125 12.3935 15.03125 11.5625 L 15.03125 8.5 C 15.03125 7.6689999 14.36225 7 13.53125 7 L 13 7 L 13 5.6875 L 13 2.5 C 13 1.669 12.331 1 11.5 1 L 4.5 1 z M 5.5 3 L 10.5 3 C 10.777 3 11 3.223 11 3.5 L 11 8 L 5 8 L 5 3.5 C 5 3.223 5.223 3 5.5 3 z M 6 4 L 6 5 L 10 5 L 10 4 L 6 4 z M 6 6 L 6 7 L 9 7 L 9 6 L 6 6 z M 13.5 9 C 13.776 8.9999998 14 9.224 14 9.5 C 14 9.7759998 13.776 10 13.5 10 C 13.224 9.9999998 13 9.776 13 9.5 C 13 9.2239998 13.224 9 13.5 9 z M 5 12 L 11 12 L 11 12.5 C 11 12.777 10.777 13 10.5 13 L 5.5 13 C 5.223 13 5 12.777 5 12.5 L 5 12 z "
       style="fill:#000000;fill-opacity:1;stroke:none;display:inline;opacity:0.25"
       id="path6255"
       d="M 4.5,0 C 3.1358751,0 2,1.1358751 2,2.5 l 0,1.0625 0,2.65625 c -1.11567211,0.2460342 -2.03125,1.1291804 -2.03125,2.3125 l 0,3.03125 c 0,1.253878 1.00514395,2.212598 2.21875,2.375 C 2.4222878,15.067495 3.3063907,16 4.5,16 l 7,0 c 1.193609,0 2.077712,-0.932505 2.3125,-2.0625 1.213606,-0.162402 2.21875,-1.121122 2.21875,-2.375 l 0,-3.0625 C 16.03125,7.3166804 15.115672,6.4335342 14,6.1875 l 0,-0.5 L 14,2.5 C 14,1.1358751 12.864125,0 11.5,0 l -7,0 z m 9,9 c 0.261455,2e-7 0.5,0.2385441 0.5,0.5 C 14,9.7614553 13.761455,10 13.5,10 13.238543,10 13,9.7614559 13,9.5 13,9.2385435 13.238544,9 13.5,9 z" />
    <path
       style="fill:url(#linearGradient2419);fill-opacity:1.0;stroke:none;stroke-width:1.00000024000000010;stroke-linecap:round;stroke-linejoin:miter;stroke-miterlimit:4;stroke-dasharray:none;stroke-opacity:1;display:inline"
       d="M 4.5,1 C 3.669,1 3,1.669 3,2.5 L 3,3.5625 L 3,7.03125 L 2.46875,7.03125 C 1.63775,7.03125 0.96875,7.70025 0.96875,8.53125 L 0.96875,11.5625 C 0.96875,12.3935 1.63775,13.0625 2.46875,13.0625 L 3,13.0625 L 3,13.1875 L 3,13.5 C 3,14.331 3.669,15 4.5,15 L 11.5,15 C 12.331,15 13,14.331 13,13.5 L 13,13.1875 L 13,13.0625 L 13.53125,13.0625 C 14.36225,13.0625 15.03125,12.3935 15.03125,11.5625 L 15.03125,8.5 C 15.03125,7.6689999 14.36225,7 13.53125,7 L 13,7 L 13,5.6875 L 13,2.5 C 13,1.669 12.331,1 11.5,1 L 4.5,1 z M 5.5,3 L 10.5,3 C 10.777,3 11,3.223 11,3.5 L 11,8 L 5,8 L 5,3.5 C 5,3.223 5.223,3 5.5,3 z M 6,4 L 6,5 L 10.010835,5 L 10.010835,4 L 6,4 z M 6,6 L 6,7 L 9,7 L 9,6 L 6,6 z M 13.5,9 C 13.776,8.9999998 14,9.224 14,9.5 C 14,9.7759998 13.776,10 13.5,10 C 13.224,9.9999998 13,9.776 13,9.5 C 13,9.2239998 13.224,9 13.5,9 z M 5,12 L 11,12 L 11,12.5 C 11,12.777 10.777,13 10.5,13 L 5.5,13 C 5.223,13 5,12.777 5,12.5 L 5,12 z"
       id="Symbol"
       sodipodi:nodetypes="cccccccccccccccccccccccccccccccccccccccccccssscccccccc" />
    <path
       style="opacity:0.6;fill:#ffffff;fill-opacity:1;stroke:none;stroke-width:1.00000024000000010;stroke-linecap:round;stroke-linejoin:miter;stroke-miterlimit:4;stroke-dasharray:none;stroke-opacity:1;display:inline"
       d="M 4.5,1 C 3.669,1 3,1.669 3,2.5 L 3,3.5 C 3,2.669 3.669,2 4.5,2 L 11.5,2 C 12.331,2 13,2.669 13,3.5 L 13,2.5 C 13,1.669 12.331,1 11.5,1 L 4.5,1 z M 6,4 L 6,5 L 10,5 L 10,4 L 6,4 z M 6,6 L 6,7 L 9,7 L 9,6 L 6,6 z M 13,7 L 13,8 L 13.53125,8 C 14.36225,8 15.03125,8.6689999 15.03125,9.5 L 15.03125,8.5 C 15.03125,7.6689999 14.36225,7 13.53125,7 L 13,7 z M 2.46875,7.03125 C 1.63775,7.03125 0.96875,7.70025 0.96875,8.53125 L 0.96875,9.53125 C 0.96875,8.70025 1.63775,8.03125 2.46875,8.03125 L 3,8.03125 L 3,7.03125 L 2.46875,7.03125 z M 5,8 L 5,9 L 11,9 L 11,8 L 9,8 L 6,8 L 5,8 z M 13.5,10 C 13.224,10 13,10.224 13,10.5 C 13,10.776 13.224,11 13.5,11 C 13.776,11 14,10.776 14,10.5 C 14,10.224 13.776,9.9999998 13.5,10 z M 5,13 L 5,13.5 C 5,13.777 5.223,14 5.5,14 L 10.5,14 C 10.777,14 11,13.777 11,13.5 L 11,13 L 10.5,13 L 5.5,13 L 5,13 z"
       id="BevelShadow"
       sodipodi:nodetypes="cccccccccccccccccccccccccccccccccccccccccssscccccccccc" />
    <path
       style="opacity:0.45;fill:#000000;fill-opacity:1;stroke:none;stroke-width:1.00000024000000010;stroke-linecap:round;stroke-linejoin:miter;stroke-miterlimit:4;stroke-dasharray:none;stroke-opacity:1;display:inline"
       d="M 5.5,3 C 5.223,3 5,3.223 5,3.5 L 5,4.5 C 5,4.223 5.223,4 5.5,4 L 6,4 L 10,4 L 10.5,4 C 10.777,4 11,4.223 11,4.5 L 11,3.5 C 11,3.223 10.777,3 10.5,3 L 5.5,3 z M 6,5 L 6,6 L 9,6 L 10,6 L 10,5 L 6,5 z M 6,7 L 6,8 L 9,8 L 9,7 L 6,7 z M 13.5,9 C 13.224,9 13,9.2239998 13,9.5 C 13,9.776 13.224,9.9999998 13.5,10 C 13.776,10 14,9.7759998 14,9.5 C 14,9.224 13.776,8.9999998 13.5,9 z M 0.96875,11.5625 L 0.96875,12.5625 C 0.96875,13.3935 1.63775,14.0625 2.46875,14.0625 L 3,14.0625 L 3,14.1875 L 3,14.5 C 3,15.331 3.669,16 4.5,16 L 11.5,16 C 12.331,16 13,15.331 13,14.5 L 13,14.1875 L 13,14.0625 L 13.53125,14.0625 C 14.36225,14.0625 15.03125,13.3935 15.03125,12.5625 L 15.03125,11.5625 C 15.03125,12.3935 14.36225,13.0625 13.53125,13.0625 L 13,13.0625 L 13,13.1875 L 13,13.5 C 13,14.331 12.331,15 11.5,15 L 4.5,15 C 3.669,15 3,14.331 3,13.5 L 3,13.1875 L 3,13.0625 L 2.46875,13.0625 C 1.63775,13.0625 0.96875,12.3935 0.96875,11.5625 z M 5,12 L 5,12.5 C 5,12.777 5.223,13 5.5,13 L 10.5,13 C 10.777,13 11,12.777 11,12.5 L 11,12 L 5,12 z"
       id="BevelHighlight"
       sodipodi:nodetypes="cccccccccccccccccccccccsssccccccccccccccccccccccccccccccccc" />
  </g>
</svg>
