<?xml version="1.0" encoding="UTF-8" standalone="no"?>
<!-- Created with Inkscape (http://www.inkscape.org/) -->

<svg
   xmlns:dc="http://purl.org/dc/elements/1.1/"
   xmlns:cc="http://creativecommons.org/ns#"
   xmlns:rdf="http://www.w3.org/1999/02/22-rdf-syntax-ns#"
   xmlns:svg="http://www.w3.org/2000/svg"
   xmlns="http://www.w3.org/2000/svg"
   xmlns:xlink="http://www.w3.org/1999/xlink"
   xmlns:sodipodi="http://sodipodi.sourceforge.net/DTD/sodipodi-0.dtd"
   xmlns:inkscape="http://www.inkscape.org/namespaces/inkscape"
   width="16"
   height="16"
   id="svg2"
   sodipodi:version="0.32"
   inkscape:version="0.48.0 r9654"
   version="1.0"
   sodipodi:docname="edit-redo.svg"
   inkscape:output_extension="org.inkscape.output.svg.inkscape">
  <defs
     id="defs4">
    <linearGradient
       gradientUnits="userSpaceOnUse"
       y2="15.573743"
       x2="5.5256395"
       y1="5.6568542"
       x1="5.5256395"
       gradientTransform="scale(1.4142136,0.7071068)"
       id="linearGradient4519">
      <stop
         id="stop4521"
         offset="0"
         style="stop-color:#000000;stop-opacity:0.86274511;" />
      <stop
         id="stop4523"
         offset="1"
         style="stop-color:#000000;stop-opacity:0.47058824;" />
    </linearGradient>
    <filter
       inkscape:collect="always"
       id="filter3634"
       x="-0.054"
       width="1.108"
       y="-0.108"
       height="1.216">
      <feGaussianBlur
         inkscape:collect="always"
         stdDeviation="0.315"
         id="feGaussianBlur3636" />
    </filter>
    <linearGradient
       inkscape:collect="always"
       xlink:href="#StandardGradient"
       id="linearGradient4525"
       gradientUnits="userSpaceOnUse"
       gradientTransform="scale(1.4142136,0.7071068)"
       x1="5.5256395"
       y1="5.6568542"
       x2="5.5256395"
       y2="15.573743" />
    <linearGradient
       inkscape:collect="always"
       xlink:href="#StandardGradient"
       id="linearGradient3786"
       gradientUnits="userSpaceOnUse"
       gradientTransform="scale(1.0598527,0.9435274)"
       x1="11.794092"
       y1="3.2126782"
       x2="11.794092"
       y2="20.137329" />
    <linearGradient
       id="StandardGradient"
       gradientTransform="matrix(1.0765258,0,0,0.9227364,-0.00801316,0.1584665)"
       x1="10.005832"
       y1="4.1631975"
       x2="10.005832"
       y2="17.168188"
       gradientUnits="userSpaceOnUse">
      <stop
         id="stop3337"
         offset="0"
         style="stop-color:#ebebeb;stop-opacity:1;" />
      <stop
         id="stop3339"
         offset="1"
         style="stop-color:#aaaaaa;stop-opacity:1;" />
    </linearGradient>
    <linearGradient
       y2="20.137329"
       x2="11.794092"
       y1="3.2126782"
       x1="11.794092"
       gradientTransform="matrix(1.0598527,0,0,0.9435274,-31,-6)"
       gradientUnits="userSpaceOnUse"
       id="linearGradient3053"
       xlink:href="#StandardGradient"
       inkscape:collect="always" />
    <linearGradient
       inkscape:collect="always"
       xlink:href="#StandardGradient"
       id="linearGradient4546"
       gradientUnits="userSpaceOnUse"
       gradientTransform="scale(1.4142136,0.7071068)"
       x1="5.5256395"
       y1="5.6568542"
       x2="5.5256395"
       y2="15.573743" />
  </defs>
  <sodipodi:namedview
     id="base"
     pagecolor="#ffffff"
     bordercolor="#9a9a9a"
     borderopacity="1"
     inkscape:pageopacity="0.0"
     inkscape:pageshadow="2"
     inkscape:zoom="13.047304"
     inkscape:cx="-27.518547"
     inkscape:cy="2.1204006"
     inkscape:document-units="px"
     inkscape:current-layer="layer3"
     showgrid="true"
     inkscape:showpageshadow="false"
     showguides="true"
     inkscape:guide-bbox="true"
     inkscape:window-width="1920"
     inkscape:window-height="1026"
     inkscape:window-x="0"
     inkscape:window-y="25"
     inkscape:window-maximized="1">
    <inkscape:grid
       type="xygrid"
       id="grid3672"
       visible="true"
       enabled="true" />
  </sodipodi:namedview>
  <metadata
     id="metadata7">
    <rdf:RDF>
      <cc:Work
         rdf:about="">
        <dc:format>image/svg+xml</dc:format>
        <dc:type
           rdf:resource="http://purl.org/dc/dcmitype/StillImage" />
      </cc:Work>
    </rdf:RDF>
  </metadata>
  <g
     inkscape:groupmode="layer"
     id="layer3"
     inkscape:label="Arrow"
     style="display:inline">
    <path
       sodipodi:type="inkscape:offset"
       inkscape:radius="0.97460049"
       inkscape:original="M 15 4 L 8.5 5.21875 L 10.25 7.03125 C 8.6640685 8.573614 6.1409029 8.5393581 4.59375 6.9375 C 4.1450179 6.4728993 3.8494348 5.92626 3.65625 5.34375 L 1 6.0625 C 1.3126765 7.1250534 1.8766995 8.129281 2.6875 8.96875 C 5.290377 11.663661 9.5297502 11.653962 12.1875 9.03125 L 13.8125 10.71875 L 15 4 z "
       style="fill:#000000;fill-opacity:1;stroke:none;display:inline;opacity:0.25"
       id="path4548"
       d="M 14.8125,3.03125 8.3125,4.25 a 0.97469795,0.97469795 0 0 0 -0.5,1.65625 l 0.78125,0.8125 C 7.4773255,7.2069026 6.1963917,7.1974999 5.28125,6.25 4.9493259,5.906338 4.7507813,5.5047463 4.59375,5.03125 a 0.97469795,0.97469795 0 0 0 -1.1875,-0.625 L 0.75,5.125 A 0.97469795,0.97469795 0 0 0 0.0625,6.34375 C 0.41783331,7.551262 1.0762805,8.6998694 2,9.65625 c 2.7255736,2.821946 6.996783,2.912465 10.03125,0.625 l 1.09375,1.125 A 0.97469795,0.97469795 0 0 0 14.78125,10.875 l 1.1875,-6.71875 a 0.97469795,0.97469795 0 0 0 -1.15625,-1.125 z" />
    <path
       style="opacity:1;fill:url(#linearGradient4525);fill-opacity:1.0;stroke:none;stroke-width:1.00000024000000010;stroke-linecap:round;stroke-linejoin:miter;stroke-miterlimit:4;stroke-dasharray:none;stroke-opacity:1;display:inline"
       d="M 13.817301,10.729952 L 15,4 L 8.4998876,5.224518 L 10.234514,7.0204791 C 8.6485825,8.5628431 6.1551742,8.5309064 4.6080213,6.9290483 C 4.1592892,6.4644476 3.8361235,5.918051 3.6429387,5.335541 L 1,6.0669861 C 1.3126765,7.1295395 1.8733634,8.1337092 2.6841639,8.9731782 C 5.2870409,11.668089 9.5258502,11.661196 12.1836,9.038484 L 13.817301,10.729952 z"
       id="Shadow"
       inkscape:label="#path3268" />
    <path
       style="opacity:0.6;fill:#ffffff;fill-opacity:1;stroke:none;stroke-width:1.00000024000000010;stroke-linecap:round;stroke-linejoin:miter;stroke-miterlimit:4;stroke-dasharray:none;stroke-opacity:1;display:inline"
       d="M 15 4 L 8.5 5.21875 L 9.3125 6.0625 L 14.8125 5.03125 L 15 4 z M 3.65625 5.34375 L 1 6.0625 C 1.0911973 6.3724114 1.2103043 6.6714099 1.34375 6.96875 L 3.65625 6.34375 C 3.8494348 6.92626 4.1450179 7.4728993 4.59375 7.9375 C 6.1350067 9.5332535 8.6317736 9.5557652 10.21875 8.03125 L 10.21875 8 L 10.21875 7.03125 L 9.6875 7.46875 C 8.1172717 8.5414101 5.9738681 8.3664172 4.59375 6.9375 C 4.1450179 6.4728991 3.8494348 5.92626 3.65625 5.34375 z "
       id="BevelShadow"
       inkscape:label="#path3181" />
    <path
       style="opacity:0.45;fill:#000000;fill-opacity:1;stroke:none;stroke-width:1.00000024000000010;stroke-linecap:round;stroke-linejoin:miter;stroke-miterlimit:4;stroke-dasharray:none;stroke-opacity:1;display:inline"
       d="M 15 4 L 13.8125 10.71875 L 12.1875 9.03125 C 9.5297502 11.653962 5.2903771 11.663661 2.6875 8.96875 C 1.8766995 8.129281 1.3126765 7.1250534 1 6.0625 L 1 7.0625 C 1.3126765 8.1250536 1.8766995 9.129281 2.6875 9.96875 C 5.2903771 12.66366 9.5297502 12.653962 12.1875 10.03125 L 13.8125 11.71875 L 15 5 L 15 4 z M 8.5 5.21875 L 8.5 6.21875 L 9.6875 7.46875 C 9.8775437 7.3389266 10.078779 7.1977678 10.25 7.03125 L 8.5 5.21875 z M 3.65625 5.34375 C 3.7528424 5.635005 3.870219 5.920012 4.03125 6.1875 C 3.8771146 5.9199514 3.7528424 5.635005 3.65625 5.34375 z "
       id="BevelHighlight"
       inkscape:label="#path3191" />
  </g>
</svg>
