<?xml version="1.0" encoding="UTF-8" standalone="no"?>
<!-- Created with Inkscape (http://www.inkscape.org/) -->

<svg
   xmlns:dc="http://purl.org/dc/elements/1.1/"
   xmlns:cc="http://creativecommons.org/ns#"
   xmlns:rdf="http://www.w3.org/1999/02/22-rdf-syntax-ns#"
   xmlns:svg="http://www.w3.org/2000/svg"
   xmlns="http://www.w3.org/2000/svg"
   xmlns:xlink="http://www.w3.org/1999/xlink"
   xmlns:sodipodi="http://sodipodi.sourceforge.net/DTD/sodipodi-0.dtd"
   xmlns:inkscape="http://www.inkscape.org/namespaces/inkscape"
   width="16"
   height="16"
   id="svg2"
   sodipodi:version="0.32"
   inkscape:version="0.48.0 r9654"
   version="1.0"
   sodipodi:docname="go-bottom.svg"
   inkscape:output_extension="org.inkscape.output.svg.inkscape">
  <defs
     id="defs4">
    <linearGradient
       gradientUnits="userSpaceOnUse"
       y2="12.802542"
       x2="8.7384996"
       y1="1.8452826"
       x1="8.7384996"
       gradientTransform="scale(0.915489,1.0923124)"
       id="linearGradient4543">
      <stop
         style="stop-color:#000000;stop-opacity:0.86274511;"
         offset="0"
         id="stop4545" />
      <stop
         style="stop-color:#000000;stop-opacity:0.47058824;"
         offset="1"
         id="stop4547" />
    </linearGradient>
    <linearGradient
       inkscape:collect="always"
       xlink:href="#StandardGradient"
       id="linearGradient2849"
       gradientUnits="userSpaceOnUse"
       gradientTransform="matrix(0.915489,0,0,1.0923124,0,-1)"
       x1="8.7384996"
       y1="1.8452826"
       x2="8.7384996"
       y2="14.647824" />
    <filter
       inkscape:collect="always"
       id="filter3647">
      <feGaussianBlur
         inkscape:collect="always"
         stdDeviation="0.35953125"
         id="feGaussianBlur3649" />
    </filter>
    <linearGradient
       inkscape:collect="always"
       xlink:href="#StandardGradient"
       id="linearGradient3786"
       gradientUnits="userSpaceOnUse"
       gradientTransform="scale(1.0598527,0.9435274)"
       x1="11.794092"
       y1="3.2126782"
       x2="11.794092"
       y2="20.137329" />
    <linearGradient
       id="StandardGradient"
       gradientTransform="matrix(1.0765258,0,0,0.9227364,-0.00801316,0.1584665)"
       x1="10.005832"
       y1="4.1631975"
       x2="10.005832"
       y2="17.168188"
       gradientUnits="userSpaceOnUse">
      <stop
         id="stop3337"
         offset="0"
         style="stop-color:#ebebeb;stop-opacity:1;" />
      <stop
         id="stop3339"
         offset="1"
         style="stop-color:#aaaaaa;stop-opacity:1;" />
    </linearGradient>
    <linearGradient
       y2="20.137329"
       x2="11.794092"
       y1="3.2126782"
       x1="11.794092"
       gradientTransform="matrix(1.0598527,0,0,0.9435274,-26,-9)"
       gradientUnits="userSpaceOnUse"
       id="linearGradient3053"
       xlink:href="#StandardGradient"
       inkscape:collect="always" />
    <linearGradient
       inkscape:collect="always"
       xlink:href="#StandardGradient"
       id="linearGradient4568"
       gradientUnits="userSpaceOnUse"
       gradientTransform="matrix(0.915489,0,0,1.0923124,0,-1)"
       x1="8.7384996"
       y1="1.8452826"
       x2="8.7384996"
       y2="14.647824" />
  </defs>
  <sodipodi:namedview
     id="base"
     pagecolor="#ffffff"
     bordercolor="#9a9a9a"
     borderopacity="1"
     inkscape:pageopacity="0.0"
     inkscape:pageshadow="2"
     inkscape:zoom="24.172576"
     inkscape:cx="1.4047815"
     inkscape:cy="6.912296"
     inkscape:document-units="px"
     inkscape:current-layer="layer4"
     showgrid="true"
     inkscape:showpageshadow="false"
     showguides="true"
     inkscape:guide-bbox="true"
     inkscape:window-width="1920"
     inkscape:window-height="1026"
     inkscape:window-x="0"
     inkscape:window-y="25"
     inkscape:window-maximized="1">
    <sodipodi:guide
       orientation="1,0"
       position="0,112"
       id="guide2383" />
    <sodipodi:guide
       orientation="0,1"
       position="26.278146,128"
       id="guide2385" />
    <sodipodi:guide
       orientation="1,0"
       position="128,54.082119"
       id="guide2387" />
    <sodipodi:guide
       orientation="0,1"
       position="78.156291,0"
       id="guide2389" />
    <inkscape:grid
       type="xygrid"
       id="grid3672"
       visible="true"
       enabled="true" />
  </sodipodi:namedview>
  <metadata
     id="metadata7">
    <rdf:RDF>
      <cc:Work
         rdf:about="">
        <dc:format>image/svg+xml</dc:format>
        <dc:type
           rdf:resource="http://purl.org/dc/dcmitype/StillImage" />
      </cc:Work>
    </rdf:RDF>
  </metadata>
  <g
     inkscape:groupmode="layer"
     id="layer4"
     inkscape:label="Arrow"
     style="display:inline">
    <path
       sodipodi:type="inkscape:offset"
       inkscape:radius="1.0465671"
       inkscape:original="M 5.96875 1.03125 L 5.96875 4.96875 L 3 4.96875 L 8 13 L 13 4.96875 L 10.03125 4.96875 L 10.03125 1.03125 L 5.96875 1.03125 z M 8 13 L 3 13 L 3 15 L 13 15 L 13 13 L 8 13 z "
       style="fill:#000000;fill-opacity:1;stroke:none;display:inline;opacity:0.25"
       id="path4570"
       d="M 5.75,0 A 1.0466717,1.0466717 0 0 0 4.9375,1.03125 l 0,2.90625 -1.9375,0 A 1.0466717,1.0466717 0 0 0 2.125,5.53125 l 4,6.4375 -3.125,0 A 1.0466717,1.0466717 0 0 0 1.96875,13 l 0,2 A 1.0466717,1.0466717 0 0 0 3,16.03125 l 10,0 A 1.0466717,1.0466717 0 0 0 14.03125,15 l 0,-2 A 1.0466717,1.0466717 0 0 0 13,11.96875 l -3.125,0 4,-6.4375 A 1.0466717,1.0466717 0 0 0 13,3.9375 l -1.9375,0 0,-2.90625 A 1.0466717,1.0466717 0 0 0 10.03125,0 L 5.96875,0 A 1.0466717,1.0466717 0 0 0 5.75,0 z" />
    <path
       style="fill:url(#linearGradient2849);fill-opacity:1.0;stroke:none;display:inline"
       d="M 5.96875 1.03125 L 5.96875 4.96875 L 3 4.96875 L 8 13 L 13 4.96875 L 10.03125 4.96875 L 10.03125 1.03125 L 5.96875 1.03125 z M 8 13 L 3 13 L 3 15 L 13 15 L 13 13 L 8 13 z "
       id="Symbol" />
    <path
       style="opacity:0.6;fill:#ffffff;fill-opacity:1;stroke:none;display:inline"
       d="M 5.96875 1 L 5.96875 2.03125 L 10.03125 2.03125 L 10.03125 1 L 5.96875 1 z M 3 4.96875 L 3.65625 6 L 5.96875 6 L 5.96875 4.96875 L 3 4.96875 z M 10 4.96875 L 10 6 L 12.34375 6 L 13 4.96875 L 10 4.96875 z M 3 13 L 3 14 L 13 14 L 13 13 L 3 13 z "
       id="BevelShadow" />
    <path
       style="fill:#000000;fill-opacity:1;stroke:none;display:inline;opacity:0.45"
       d="M 3 5.96875 L 7.375 13 L 8 13 L 3.625 5.96875 L 3 5.96875 z M 8 13 L 8.625 13 L 13 5.96875 L 12.375 5.96875 L 8 13 z M 3 15 L 3 16 L 13 16 L 13 15 L 3 15 z "
       id="path3623" />
  </g>
</svg>
