<?xml version="1.0" encoding="UTF-8" standalone="no"?>
<!-- Created with Inkscape (http://www.inkscape.org/) -->

<svg
   xmlns:dc="http://purl.org/dc/elements/1.1/"
   xmlns:cc="http://creativecommons.org/ns#"
   xmlns:rdf="http://www.w3.org/1999/02/22-rdf-syntax-ns#"
   xmlns:svg="http://www.w3.org/2000/svg"
   xmlns="http://www.w3.org/2000/svg"
   xmlns:xlink="http://www.w3.org/1999/xlink"
   xmlns:sodipodi="http://sodipodi.sourceforge.net/DTD/sodipodi-0.dtd"
   xmlns:inkscape="http://www.inkscape.org/namespaces/inkscape"
   width="16"
   height="16"
   id="svg2"
   sodipodi:version="0.32"
   inkscape:version="0.48.0 r9654"
   version="1.0"
   sodipodi:docname="go-home.svg"
   inkscape:output_extension="org.inkscape.output.svg.inkscape">
  <defs
     id="defs4">
    <linearGradient
       gradientUnits="userSpaceOnUse"
       y2="15.167372"
       x2="6.1236782"
       y1="2.171978"
       x1="6.1236782"
       gradientTransform="matrix(1.0781072,0,0,0.9240919,2.7412861e-2,-7.1073046e-3)"
       id="linearGradient5563">
      <stop
         id="stop5565"
         offset="0"
         style="stop-color:#000000;stop-opacity:0.86274511;" />
      <stop
         id="stop5567"
         offset="1"
         style="stop-color:#646464;stop-opacity:1;" />
    </linearGradient>
    <filter
       inkscape:collect="always"
       id="filter3638">
      <feGaussianBlur
         inkscape:collect="always"
         stdDeviation="0.39"
         id="feGaussianBlur3640" />
    </filter>
    <linearGradient
       inkscape:collect="always"
       xlink:href="#StandardGradient"
       id="linearGradient5569"
       gradientUnits="userSpaceOnUse"
       gradientTransform="matrix(1.0781072,0,0,0.9240919,0.02741286,-0.0071073)"
       x1="6.1236782"
       y1="2.171978"
       x2="6.1236782"
       y2="15.167372" />
    <linearGradient
       inkscape:collect="always"
       xlink:href="#StandardGradient"
       id="linearGradient3786"
       gradientUnits="userSpaceOnUse"
       gradientTransform="scale(1.0598527,0.9435274)"
       x1="11.794092"
       y1="3.2126782"
       x2="11.794092"
       y2="20.137329" />
    <linearGradient
       id="StandardGradient"
       gradientTransform="matrix(1.0765258,0,0,0.9227364,-0.00801316,0.1584665)"
       x1="10.005832"
       y1="4.1631975"
       x2="10.005832"
       y2="17.168188"
       gradientUnits="userSpaceOnUse">
      <stop
         id="stop3337"
         offset="0"
         style="stop-color:#ebebeb;stop-opacity:1;" />
      <stop
         id="stop3339"
         offset="1"
         style="stop-color:#aaaaaa;stop-opacity:1;" />
    </linearGradient>
    <linearGradient
       y2="20.137329"
       x2="11.794092"
       y1="3.2126782"
       x1="11.794092"
       gradientTransform="matrix(1.0598527,0,0,0.9435274,-27,-10)"
       gradientUnits="userSpaceOnUse"
       id="linearGradient3070"
       xlink:href="#StandardGradient"
       inkscape:collect="always" />
    <linearGradient
       inkscape:collect="always"
       xlink:href="#StandardGradient"
       id="linearGradient5590"
       gradientUnits="userSpaceOnUse"
       gradientTransform="matrix(1.0781072,0,0,0.9240919,0.02741286,-0.0071073)"
       x1="6.1236782"
       y1="2.171978"
       x2="6.1236782"
       y2="15.167372" />
  </defs>
  <sodipodi:namedview
     id="base"
     pagecolor="#ffffff"
     bordercolor="#e7e7e7"
     borderopacity="1"
     inkscape:pageopacity="0.0"
     inkscape:pageshadow="2"
     inkscape:zoom="24.100556"
     inkscape:cx="11.66721"
     inkscape:cy="4.8543647"
     inkscape:document-units="px"
     inkscape:current-layer="layer1"
     showgrid="true"
     inkscape:showpageshadow="false"
     showguides="true"
     inkscape:guide-bbox="true"
     inkscape:window-width="1920"
     inkscape:window-height="1026"
     inkscape:window-x="0"
     inkscape:window-y="25"
     inkscape:window-maximized="1">
    <sodipodi:guide
       orientation="1,0"
       position="0,112"
       id="guide2383" />
    <sodipodi:guide
       orientation="0,1"
       position="78.156291,0"
       id="guide2389" />
    <inkscape:grid
       type="xygrid"
       id="grid3672"
       visible="true"
       enabled="true" />
    <sodipodi:guide
       orientation="1,0"
       position="22.008699,4.1542523"
       id="guide2950" />
    <sodipodi:guide
       orientation="0,1"
       position="11.22532,22.008699"
       id="guide2952" />
  </sodipodi:namedview>
  <metadata
     id="metadata7">
    <rdf:RDF>
      <cc:Work
         rdf:about="">
        <dc:format>image/svg+xml</dc:format>
        <dc:type
           rdf:resource="http://purl.org/dc/dcmitype/StillImage" />
      </cc:Work>
    </rdf:RDF>
  </metadata>
  <g
     inkscape:label="Calque 1"
     inkscape:groupmode="layer"
     id="layer1">
    <path
       sodipodi:type="inkscape:offset"
       inkscape:radius="1.0035774"
       inkscape:original="M 8 2 L 1 9.03125 L 3 9.03125 L 3 14 L 12.9375 14 L 12.9375 9.0625 L 15 9.0625 L 12 6 L 12 4.03125 L 11 4.03125 L 11 5.0625 L 8 2 z "
       style="fill:#000000;fill-opacity:1;stroke:none;display:inline;opacity:0.25"
       id="path5592"
       d="m 7.90625,1 a 1.0036777,1.0036777 0 0 0 -0.625,0.28125 l -7,7.03125 A 1.0036777,1.0036777 0 0 0 1,10.03125 l 1,0 L 2,14 a 1.0036777,1.0036777 0 0 0 1,1 l 9.9375,0 a 1.0036777,1.0036777 0 0 0 1,-1 l 0,-3.9375 1.0625,0 A 1.0036777,1.0036777 0 0 0 15.71875,8.375 L 13,5.59375 13,4.03125 a 1.0036777,1.0036777 0 0 0 -1,-1 l -1,0 a 1.0036777,1.0036777 0 0 0 -0.46875,0.125 L 8.71875,1.3125 A 1.0036777,1.0036777 0 0 0 7.90625,1 z" />
    <path
       style="opacity:1;fill:url(#linearGradient5569);fill-opacity:1.0;stroke:none;stroke-width:1;stroke-linecap:round;stroke-linejoin:miter;stroke-miterlimit:4;stroke-dasharray:none;stroke-opacity:1;display:inline"
       d="M 7.9885788,2 L 1,9.0361458 L 2.9900011,9.0361458 L 2.9900011,14 L 12.941492,14 L 12.941492,9.0587933 L 15,9.0587933 L 12.003219,5.9996719 L 12.012544,4.0304965 L 11.002238,4.0304965 L 11.002238,5.0532121 L 7.9885788,2 z"
       id="Symbol"
       sodipodi:nodetypes="cccccccccccc"
       inkscape:label="#rect2236" />
    <path
       style="opacity:0.6;fill:#ffffff;fill-opacity:1;stroke:none;stroke-width:1;stroke-linecap:round;stroke-linejoin:miter;stroke-miterlimit:4;stroke-dasharray:none;stroke-opacity:1;display:inline"
       d="M 8 2 L 1 9.03125 L 2 9.03125 L 8 3 L 11 6.0625 L 11 5.0625 L 11 5.03125 L 8 2 z M 11 5.03125 L 12 5.03125 L 12 4.03125 L 11 4.03125 L 11 5.03125 z M 12 6 L 12 7 L 14.03125 9.0625 L 15 9.0625 L 12 6 z "
       id="BevelShadow"
       inkscape:label="#path3354" />
    <path
       style="opacity:0.45;fill:#000000;fill-opacity:1;stroke:none;stroke-width:1;stroke-linecap:round;stroke-linejoin:miter;stroke-miterlimit:4;stroke-dasharray:none;stroke-opacity:1;display:inline"
       d="M 1 9.03125 L 1 10.03125 L 3 10.03125 L 3 9.03125 L 1 9.03125 z M 12.9375 9.0625 L 12.9375 10.0625 L 15 10.0625 L 15 9.0625 L 12.9375 9.0625 z M 3 14 L 3 15 L 12.9375 15 L 12.9375 14 L 3 14 z "
       id="BevelHighlight"
       inkscape:label="#path3361" />
  </g>
</svg>
