<?xml version="1.0" encoding="UTF-8" standalone="no"?>
<!-- Created with Inkscape (http://www.inkscape.org/) -->

<svg
   xmlns:dc="http://purl.org/dc/elements/1.1/"
   xmlns:cc="http://creativecommons.org/ns#"
   xmlns:rdf="http://www.w3.org/1999/02/22-rdf-syntax-ns#"
   xmlns:svg="http://www.w3.org/2000/svg"
   xmlns="http://www.w3.org/2000/svg"
   xmlns:xlink="http://www.w3.org/1999/xlink"
   xmlns:sodipodi="http://sodipodi.sourceforge.net/DTD/sodipodi-0.dtd"
   xmlns:inkscape="http://www.inkscape.org/namespaces/inkscape"
   width="16"
   height="16"
   id="svg2"
   sodipodi:version="0.32"
   inkscape:version="0.48.0 r9654"
   version="1.0"
   sodipodi:docname="go-top.svg"
   inkscape:output_extension="org.inkscape.output.svg.inkscape">
  <defs
     id="defs4">
    <linearGradient
       gradientUnits="userSpaceOnUse"
       y2="1.8236783"
       x2="6.5538745"
       y1="12.745323"
       x1="6.5538745"
       gradientTransform="matrix(0.915489,0,0,-1.0923124,0,16)"
       id="linearGradient5578">
      <stop
         style="stop-color:#000000;stop-opacity:0.86274511;"
         offset="0"
         id="stop5580" />
      <stop
         style="stop-color:#000000;stop-opacity:0.47058824;"
         offset="1"
         id="stop5582" />
    </linearGradient>
    <linearGradient
       inkscape:collect="always"
       xlink:href="#StandardGradient"
       id="linearGradient2857"
       gradientUnits="userSpaceOnUse"
       gradientTransform="matrix(0.915489,0,0,-1.0923124,0,17)"
       x1="6.5538745"
       y1="14.647824"
       x2="6.5538745"
       y2="1.8236783" />
    <filter
       inkscape:collect="always"
       id="filter3644">
      <feGaussianBlur
         inkscape:collect="always"
         stdDeviation="0.36"
         id="feGaussianBlur3646" />
    </filter>
    <linearGradient
       inkscape:collect="always"
       xlink:href="#StandardGradient"
       id="linearGradient3786"
       gradientUnits="userSpaceOnUse"
       gradientTransform="scale(1.0598527,0.9435274)"
       x1="11.794092"
       y1="3.2126782"
       x2="11.794092"
       y2="20.137329" />
    <linearGradient
       id="StandardGradient"
       gradientTransform="matrix(1.0765258,0,0,0.9227364,-0.00801316,0.1584665)"
       x1="10.005832"
       y1="4.1631975"
       x2="10.005832"
       y2="17.168188"
       gradientUnits="userSpaceOnUse">
      <stop
         id="stop3337"
         offset="0"
         style="stop-color:#ebebeb;stop-opacity:1;" />
      <stop
         id="stop3339"
         offset="1"
         style="stop-color:#aaaaaa;stop-opacity:1;" />
    </linearGradient>
    <linearGradient
       y2="20.137329"
       x2="11.794092"
       y1="3.2126782"
       x1="11.794092"
       gradientTransform="matrix(1.0598527,0,0,0.9435274,16,-9)"
       gradientUnits="userSpaceOnUse"
       id="linearGradient3070"
       xlink:href="#StandardGradient"
       inkscape:collect="always" />
    <linearGradient
       inkscape:collect="always"
       xlink:href="#StandardGradient"
       id="linearGradient5603"
       gradientUnits="userSpaceOnUse"
       gradientTransform="matrix(0.915489,0,0,-1.0923124,0,17)"
       x1="6.5538745"
       y1="14.647824"
       x2="6.5538745"
       y2="1.8236783" />
  </defs>
  <sodipodi:namedview
     id="base"
     pagecolor="#ffffff"
     bordercolor="#9a9a9a"
     borderopacity="1"
     inkscape:pageopacity="0.0"
     inkscape:pageshadow="2"
     inkscape:zoom="24.172576"
     inkscape:cx="1.528954"
     inkscape:cy="8.6311263"
     inkscape:document-units="px"
     inkscape:current-layer="layer4"
     showgrid="true"
     inkscape:showpageshadow="false"
     showguides="true"
     inkscape:guide-bbox="true"
     inkscape:window-width="1920"
     inkscape:window-height="1026"
     inkscape:window-x="0"
     inkscape:window-y="25"
     inkscape:window-maximized="1">
    <sodipodi:guide
       orientation="1,0"
       position="0,112"
       id="guide2383" />
    <sodipodi:guide
       orientation="0,1"
       position="26.278146,128"
       id="guide2385" />
    <sodipodi:guide
       orientation="1,0"
       position="128,54.082119"
       id="guide2387" />
    <sodipodi:guide
       orientation="0,1"
       position="78.156291,0"
       id="guide2389" />
    <inkscape:grid
       type="xygrid"
       id="grid3672"
       visible="true"
       enabled="true" />
  </sodipodi:namedview>
  <metadata
     id="metadata7">
    <rdf:RDF>
      <cc:Work
         rdf:about="">
        <dc:format>image/svg+xml</dc:format>
        <dc:type
           rdf:resource="http://purl.org/dc/dcmitype/StillImage" />
      </cc:Work>
    </rdf:RDF>
  </metadata>
  <g
     inkscape:groupmode="layer"
     id="layer4"
     inkscape:label="Arrow"
     style="display:inline">
    <path
       sodipodi:type="inkscape:offset"
       inkscape:radius="0.99458289"
       inkscape:original="M 3 1 L 3 3 L 8 3 L 13 3 L 13 1 L 3 1 z M 8 3 L 3 11.03125 L 5.96875 11.03125 L 5.96875 15 L 10.03125 15 L 10.03125 11.03125 L 13 11.03125 L 8 3 z "
       style="fill:#000000;fill-opacity:1;stroke:none;display:inline;opacity:0.25"
       id="path5605"
       d="M 2.90625,0 A 0.99468235,0.99468235 0 0 0 2,1 L 2,3 A 0.99468235,0.99468235 0 0 0 3,4 L 6.1875,4 2.15625,10.5 A 0.99468235,0.99468235 0 0 0 3,12.03125 l 1.96875,0 0,2.96875 a 0.99468235,0.99468235 0 0 0 1,1 l 4.0625,0 a 0.99468235,0.99468235 0 0 0 1,-1 l 0,-2.96875 1.96875,0 A 0.99468235,0.99468235 0 0 0 13.84375,10.5 L 9.8125,4 13,4 A 0.99468235,0.99468235 0 0 0 14,3 L 14,1 A 0.99468235,0.99468235 0 0 0 13,0 L 3,0 A 0.99468235,0.99468235 0 0 0 2.90625,0 z" />
    <path
       style="fill:url(#linearGradient2857);fill-opacity:1.0;stroke:none;display:inline"
       d="M 3 1 L 3 3 L 8 3 L 13 3 L 13 1 L 3 1 z M 8 3 L 3 11.03125 L 5.96875 11.03125 L 5.96875 15 L 10.03125 15 L 10.03125 11.03125 L 13 11.03125 L 8 3 z "
       id="Symbol" />
    <path
       style="opacity:0.6;fill:#ffffff;fill-opacity:1;stroke:none;display:inline"
       d="M 3 1 L 3 2 L 13 2 L 13 1 L 3 1 z M 8 3 L 3 11.03125 L 3.625 11.03125 L 8 4.03125 L 12.375 11.03125 L 13 11.03125 L 8 3 z "
       id="BevelShadow" />
    <path
       style="opacity:0.45;fill:#000000;fill-opacity:1;stroke:none;display:inline"
       d="M 3 3 L 3 4 L 7.375 4 L 8 3 L 3 3 z M 8 3 L 8.625 4 L 13 4 L 13 3 L 8 3 z M 3 11.03125 L 3 12.03125 L 5.96875 12.03125 L 5.96875 11.03125 L 3 11.03125 z M 10.03125 11.03125 L 10.03125 12.03125 L 13 12.03125 L 13 11.03125 L 10.03125 11.03125 z M 5.96875 15 L 5.96875 16 L 10.03125 16 L 10.03125 15 L 5.96875 15 z "
       id="BevelHighlight" />
  </g>
</svg>
