<?xml version="1.0" encoding="UTF-8" standalone="no"?>
<!-- Created with Inkscape (http://www.inkscape.org/) -->

<svg
   xmlns:dc="http://purl.org/dc/elements/1.1/"
   xmlns:cc="http://creativecommons.org/ns#"
   xmlns:rdf="http://www.w3.org/1999/02/22-rdf-syntax-ns#"
   xmlns:svg="http://www.w3.org/2000/svg"
   xmlns="http://www.w3.org/2000/svg"
   xmlns:xlink="http://www.w3.org/1999/xlink"
   xmlns:sodipodi="http://sodipodi.sourceforge.net/DTD/sodipodi-0.dtd"
   xmlns:inkscape="http://www.inkscape.org/namespaces/inkscape"
   width="16"
   height="16"
   id="svg2"
   sodipodi:version="0.32"
   inkscape:version="0.48.0 r9654"
   version="1.0"
   sodipodi:docname="lock.svg"
   inkscape:output_extension="org.inkscape.output.svg.inkscape"
   style="display:inline">
  <defs
     id="defs4">
    <inkscape:perspective
       sodipodi:type="inkscape:persp3d"
       inkscape:vp_x="0 : 11 : 1"
       inkscape:vp_y="0 : 1000 : 0"
       inkscape:vp_z="22 : 11 : 1"
       inkscape:persp3d-origin="11 : 7.3333333 : 1"
       id="perspective29" />
    <linearGradient
       id="linearGradient4081">
      <stop
         style="stop-color:#aaaaaa;stop-opacity:1;"
         offset="0"
         id="stop4083" />
      <stop
         style="stop-color:#ebebeb;stop-opacity:1;"
         offset="1"
         id="stop4085" />
    </linearGradient>
    <linearGradient
       inkscape:collect="always"
       xlink:href="#linearGradient4081"
       id="linearGradient3527"
       gradientUnits="userSpaceOnUse"
       gradientTransform="translate(-39,0)"
       x1="6.8391123"
       y1="16.300354"
       x2="6.8391123"
       y2="6.0528178" />
    <linearGradient
       inkscape:collect="always"
       xlink:href="#linearGradient4081"
       id="linearGradient3538"
       gradientUnits="userSpaceOnUse"
       gradientTransform="translate(-39,0)"
       x1="16.5"
       y1="19.542921"
       x2="16.5"
       y2="2.5" />
    <linearGradient
       inkscape:collect="always"
       xlink:href="#linearGradient4081"
       id="linearGradient3540"
       gradientUnits="userSpaceOnUse"
       gradientTransform="translate(-39,0)"
       x1="14.524625"
       y1="17.41902"
       x2="14.524625"
       y2="4.625" />
    <linearGradient
       inkscape:collect="always"
       xlink:href="#linearGradient4081"
       id="linearGradient3542"
       gradientUnits="userSpaceOnUse"
       gradientTransform="translate(-39,0)"
       x1="10.50519"
       y1="15.28125"
       x2="10.50519"
       y2="6.7458849" />
    <linearGradient
       inkscape:collect="always"
       xlink:href="#linearGradient4081"
       id="linearGradient3266"
       x1="9"
       y1="4.5"
       x2="14"
       y2="4.5"
       gradientUnits="userSpaceOnUse"
       gradientTransform="matrix(0,-1,1,0,6,16)" />
    <linearGradient
       inkscape:collect="always"
       xlink:href="#linearGradient4081"
       id="linearGradient3274"
       x1="11.984375"
       y1="20"
       x2="11.984375"
       y2="7.96875"
       gradientUnits="userSpaceOnUse" />
    <linearGradient
       inkscape:collect="always"
       xlink:href="#linearGradient4081"
       id="linearGradient3280"
       gradientUnits="userSpaceOnUse"
       gradientTransform="matrix(0,-1,1,0,7,16)"
       x1="9"
       y1="4.5"
       x2="14"
       y2="4.5" />
    <linearGradient
       inkscape:collect="always"
       xlink:href="#linearGradient4081"
       id="linearGradient3287"
       gradientUnits="userSpaceOnUse"
       gradientTransform="matrix(0,-1,1,0,7,16)"
       x1="9"
       y1="4.5"
       x2="14"
       y2="4.5" />
    <linearGradient
       inkscape:collect="always"
       xlink:href="#linearGradient4081"
       id="linearGradient3293"
       gradientUnits="userSpaceOnUse"
       x1="11.984375"
       y1="20"
       x2="11.984375"
       y2="7.96875"
       gradientTransform="translate(-1,0)" />
    <linearGradient
       inkscape:collect="always"
       xlink:href="#linearGradient4081"
       id="linearGradient3180"
       x1="-13"
       y1="17.008953"
       x2="-13"
       y2="-0.70032859"
       gradientUnits="userSpaceOnUse" />
    <linearGradient
       inkscape:collect="always"
       xlink:href="#linearGradient4081"
       id="linearGradient3196"
       x1="10.568904"
       y1="14"
       x2="10.568904"
       y2="0.9765659"
       gradientUnits="userSpaceOnUse"
       gradientTransform="translate(33.861161,-2.0000001)" />
    <inkscape:perspective
       id="perspective2939"
       inkscape:persp3d-origin="0.5 : 0.33333333 : 1"
       inkscape:vp_z="1 : 0.5 : 1"
       inkscape:vp_y="0 : 1000 : 0"
       inkscape:vp_x="0 : 0.5 : 1"
       sodipodi:type="inkscape:persp3d" />
    <linearGradient
       inkscape:collect="always"
       xlink:href="#linearGradient4081"
       id="linearGradient3739"
       x1="11.86116"
       y1="12"
       x2="11.86116"
       y2="-1.0000001"
       gradientUnits="userSpaceOnUse"
       gradientTransform="translate(-3,3)" />
    <linearGradient
       inkscape:collect="always"
       xlink:href="#linearGradient4081"
       id="linearGradient3760"
       gradientUnits="userSpaceOnUse"
       x1="11.86116"
       y1="12"
       x2="11.86116"
       y2="-1.0000001" />
    <linearGradient
       inkscape:collect="always"
       xlink:href="#linearGradient4081"
       id="linearGradient3770"
       gradientUnits="userSpaceOnUse"
       x1="11.86116"
       y1="12"
       x2="11.86116"
       y2="-1.0000001"
       gradientTransform="translate(0,1)" />
    <linearGradient
       inkscape:collect="always"
       xlink:href="#linearGradient4081"
       id="linearGradient3772"
       gradientUnits="userSpaceOnUse"
       x1="11.86116"
       y1="12"
       x2="11.86116"
       y2="-1.0000001"
       gradientTransform="translate(-0.8611607,5.0000001)" />
    <linearGradient
       inkscape:collect="always"
       xlink:href="#linearGradient4081"
       id="linearGradient4974"
       gradientUnits="userSpaceOnUse"
       x1="11.86116"
       y1="12"
       x2="11.86116"
       y2="-1.0000001"
       gradientTransform="translate(-0.8611607,6.0000001)" />
    <linearGradient
       inkscape:collect="always"
       xlink:href="#linearGradient4081"
       id="linearGradient4978"
       gradientUnits="userSpaceOnUse"
       x1="11.86116"
       y1="12"
       x2="11.86116"
       y2="-1.0000001" />
  </defs>
  <sodipodi:namedview
     id="base"
     pagecolor="#ffffff"
     bordercolor="#e7e7e7"
     borderopacity="1"
     inkscape:pageopacity="0.0"
     inkscape:pageshadow="2"
     inkscape:zoom="18.512812"
     inkscape:cx="-11.805866"
     inkscape:cy="4.8449048"
     inkscape:document-units="px"
     inkscape:current-layer="layer1"
     showgrid="true"
     inkscape:showpageshadow="false"
     showguides="false"
     inkscape:guide-bbox="true"
     inkscape:window-width="1920"
     inkscape:window-height="1029"
     inkscape:window-x="0"
     inkscape:window-y="25"
     inkscape:window-maximized="1">
    <sodipodi:guide
       orientation="1,0"
       position="0,112"
       id="guide2383" />
    <sodipodi:guide
       orientation="0,1"
       position="26.278146,128"
       id="guide2385" />
    <sodipodi:guide
       orientation="1,0"
       position="128,54.082119"
       id="guide2387" />
    <sodipodi:guide
       orientation="0,1"
       position="78.156291,0"
       id="guide2389" />
    <sodipodi:guide
       orientation="0,1"
       position="60.863576,64.084768"
       id="guide2391" />
    <inkscape:grid
       type="xygrid"
       id="grid3672"
       visible="true"
       enabled="true"
       empspacing="8"
       snapvisiblegridlinesonly="true" />
  </sodipodi:namedview>
  <metadata
     id="metadata7">
    <rdf:RDF>
      <cc:Work
         rdf:about="">
        <dc:format>image/svg+xml</dc:format>
        <dc:type
           rdf:resource="http://purl.org/dc/dcmitype/StillImage" />
      </cc:Work>
    </rdf:RDF>
  </metadata>
  <g
     inkscape:label="Icon"
     inkscape:groupmode="layer"
     id="layer1"
     style="display:inline"
     transform="translate(-0.8611607,-0.9999999)">
    <path
       sodipodi:type="inkscape:offset"
       inkscape:radius="0.99944419"
       inkscape:original="M 9.875 -1 C 9.321 -1 8.875 -0.554 8.875 0 L 8.875 4 L 7.875 4 C 7.321 4 6.875 4.446 6.875 5 L 6.875 11 C 6.875 11.554 7.321 12 7.875 12 L 15.875 12 C 16.429 12 16.875 11.554 16.875 11 L 16.875 5 C 16.875 4.446 16.429 4 15.875 4 L 14.875 4 L 14.875 0 C 14.875 -0.554 14.429 -1 13.875 -1 L 9.875 -1 z M 10.375 0 L 13.375 0 C 13.652 0 13.875 0.223 13.875 0.5 L 13.875 4 L 9.875 4 L 9.875 0.5 C 9.875 0.223 10.098 0 10.375 0 z "
       style="opacity:0.25;fill:#000000;fill-opacity:1;stroke:none"
       id="path3762"
       d="m 9.875,-2 c -1.0904045,0 -2,0.9095955 -2,2 l 0,3 c -1.0904045,0 -2,0.9095955 -2,2 l 0,6 c 0,1.090404 0.9095955,2 2,2 l 8,0 c 1.090404,0 2,-0.909596 2,-2 l 0,-6 c 0,-1.0904045 -0.909596,-2 -2,-2 l 0,-3 c 0,-1.0904045 -0.909596,-2 -2,-2 l -4,0 z m 1,3 2,0 0,2 -2,0 0,-2 z"
       transform="translate(-3,3)" />
    <path
       id="path3198"
       d="m 41.361161,-1.0000001 c -0.277,0 -0.5,0.223 -0.5,0.5 l 0,5 c 0,0.277 0.223,0.5000001 0.5,0.5 l 1,0 c 0.277,0 0.5,-0.2229999 0.5,-0.5 l 0,-5 c 0,-0.277 -0.223,-0.5 -0.5,-0.5 l -1,0 z m -1.5,1.34375 c -2.330779,0.8236389 -4,3.0446 -4,5.65625 0,3.3120001 2.688,6.0000001 6,6.0000001 3.312,0 6,-2.688 6,-6.0000001 0,-2.61165 -1.669221,-4.8326111 -4,-5.65625 l 0,2.21875 c 1.193787,0.6923393 2,1.9590541 2,3.4375 0,2.2080001 -1.792,4.0000001 -4,4.0000001 -2.208,0 -4,-1.792 -4,-4.0000001 0,-1.4784461 0.806213,-2.7451607 2,-3.4375 l 0,-2.21875 z"
       style="opacity:0.2;fill:#000000;fill-opacity:1;fill-rule:nonzero;stroke:#000000;stroke-width:2;stroke-linecap:square;stroke-linejoin:round;stroke-miterlimit:4;stroke-opacity:1;stroke-dasharray:none;stroke-dashoffset:0"
       inkscape:connector-curvature="0" />
    <path
       style="fill:url(#linearGradient3196);fill-opacity:1;fill-rule:nonzero;stroke:none"
       d="m 41.361161,-1.0000001 c -0.277,0 -0.5,0.223 -0.5,0.5 l 0,5 c 0,0.277 0.223,0.5000001 0.5,0.5 l 1,0 c 0.277,0 0.5,-0.2229999 0.5,-0.5 l 0,-5 c 0,-0.277 -0.223,-0.5 -0.5,-0.5 l -1,0 z m -1.5,1.34375 c -2.330779,0.8236389 -4,3.0446 -4,5.65625 0,3.3120001 2.688,6.0000001 6,6.0000001 3.312,0 6,-2.688 6,-6.0000001 0,-2.61165 -1.669221,-4.8326111 -4,-5.65625 l 0,2.21875 c 1.193787,0.6923393 2,1.9590541 2,3.4375 0,2.2080001 -1.792,4.0000001 -4,4.0000001 -2.208,0 -4,-1.792 -4,-4.0000001 0,-1.4784461 0.806213,-2.7451607 2,-3.4375 l 0,-2.21875 z"
       id="path2401"
       inkscape:connector-curvature="0" />
    <path
       style="opacity:0.6;fill:#ffffff;fill-opacity:1;fill-rule:nonzero;stroke:none"
       d="m 41.361161,-1.0000001 c -0.277,0 -0.5,0.223 -0.5,0.5 l 0,1 c 0,-0.277 0.223,-0.5 0.5,-0.5 l 1,0 c 0.277,0 0.5,0.223 0.5,0.5 l 0,-1 c 0,-0.277 -0.223,-0.5 -0.5,-0.5 l -1,0 z m -1.5,1.34375 c -2.330779,0.8236389 -4,3.0446 -4,5.65625 0,0.1863516 0.0146,0.380467 0.03125,0.5625 0.174863,-2.4194859 1.769606,-4.4416275 3.96875,-5.21875 l 0,-1 z m 4,0 0,1 c 2.199144,0.7771225 3.793887,2.7992641 3.96875,5.21875 0.01665,-0.182033 0.03125,-0.3761484 0.03125,-0.5625 0,-2.61165 -1.669221,-4.8326111 -4,-5.65625 z m -5.96875,6.0625 c -0.03,0.1962605 -0.03125,0.3883429 -0.03125,0.59375 0,2.2080001 1.792,4.0000001 4,4.0000001 2.208,0 4,-1.792 4,-4.0000001 0,-0.205407 -0.0012,-0.3974895 -0.03125,-0.59375 C 45.625766,8.423307 43.931765,10 41.861161,10 39.790556,10 38.096556,8.423307 37.892411,6.4062499 z"
       id="path3200"
       inkscape:connector-curvature="0" />
    <path
       style="fill:#4d4d4d;fill-opacity:1;stroke:none;display:inline"
       d="m -8.138839,1.9999999 c -1.099352,0 -2,0.9006486 -2,2 l 0,1 c -0.554,0 -1,0.446 -1,1 l 0,3 c 0,0.554 0.446,1 1,1 l 4,0 c 0.554,0 1,-0.446 1,-1 l 0,-3 c 0,-0.554 -0.446,-1 -1,-1 l 0,-1 c 0,-1.0993514 -0.900649,-2 -2,-2 z m 0,1 c 0.562649,0 1,0.4373514 1,1 l 0,1 -2,0 0,-1 c 0,-0.5626486 0.437351,-1 1,-1 z"
       id="rect3705"
       inkscape:connector-curvature="0" />
    <path
       style="fill:url(#linearGradient3739);fill-opacity:1;stroke:none"
       d="m 6.861161,1.9999999 c -0.554,0 -1,0.446 -1,1 l 0,4 -1,0 c -0.554,0 -1,0.446 -1,1 l 0,6.0000001 c 0,0.554 0.446,1 1,1 l 8,0 c 0.554,0 1,-0.446 1,-1 l 0,-6.0000001 c 0,-0.554 -0.446,-1 -1,-1 l -1,0 0,-4 c 0,-0.554 -0.446,-1 -1,-1 l -4,0 z m 0.5,1 3,0 c 0.277,0 0.5,0.223 0.5,0.5 l 0,3.5 -4,0 0,-3.5 c 0,-0.277 0.223,-0.5 0.5,-0.5 z"
       id="rect2953"
       sodipodi:nodetypes="cccccccccccccccccccccc"
       inkscape:connector-curvature="0" />
    <path
       style="opacity:0.6;fill:#ffffff;fill-opacity:1;stroke:none"
       d="m 6.8611607,1.9999999 c -0.554,0 -1,0.446 -1,1 l 0,1 c 0,-0.554 0.446,-1 1,-1 l 0.5,0 3.0000003,0 0.5,0 c 0.554,0 1,0.446 1,1 l 0,-1 c 0,-0.554 -0.446,-1 -1,-1 l -4.0000003,0 z m -2,5 c -0.554,0 -1,0.446 -1,1 l 0,1 c 0,-0.554 0.446,-1 1,-1 l 1,0 0,-1 -1,0 z m 2,0 0,1 4.0000003,0 0,-1 -4.0000003,0 z m 5.0000003,0 0,1 1,0 c 0.554,0 1,0.446 1,1 l 0,-1 c 0,-0.554 -0.446,-1 -1,-1 l -1,0 z"
       id="path3766"
       inkscape:connector-curvature="0" />
    <path
       style="opacity:0.45;fill:#000000;fill-opacity:1;stroke:none"
       d="m 7.3611607,2.9999999 c -0.277,0 -0.5,0.223 -0.5,0.5 l 0,1 c 0,-0.277 0.223,-0.5 0.5,-0.5 l 3.0000003,0 c 0.277,0 0.5,0.223 0.5,0.5 l 0,-1 c 0,-0.277 -0.223,-0.5 -0.5,-0.5 l -3.0000003,0 z M 3.8611607,14 l 0,1 c 0,0.554 0.446,1 1,1 l 8.0000003,0 c 0.554,0 1,-0.446 1,-1 l 0,-1 c 0,0.554 -0.446,1 -1,1 l -8.0000003,0 c -0.554,0 -1,-0.446 -1,-1 z"
       id="path4972"
       inkscape:connector-curvature="0" />
  </g>
</svg>
