<?xml version="1.0" encoding="UTF-8" standalone="no"?>
<!-- Created with Inkscape (http://www.inkscape.org/) -->

<svg
   xmlns:dc="http://purl.org/dc/elements/1.1/"
   xmlns:cc="http://creativecommons.org/ns#"
   xmlns:rdf="http://www.w3.org/1999/02/22-rdf-syntax-ns#"
   xmlns:svg="http://www.w3.org/2000/svg"
   xmlns="http://www.w3.org/2000/svg"
   xmlns:xlink="http://www.w3.org/1999/xlink"
   xmlns:sodipodi="http://sodipodi.sourceforge.net/DTD/sodipodi-0.dtd"
   xmlns:inkscape="http://www.inkscape.org/namespaces/inkscape"
   width="16"
   height="16"
   id="svg2"
   sodipodi:version="0.32"
   inkscape:version="0.48.0 r9654"
   version="1.0"
   sodipodi:docname="media-skip-forward.svg"
   inkscape:output_extension="org.inkscape.output.svg.inkscape">
  <defs
     id="defs4">
    <linearGradient
       gradientUnits="userSpaceOnUse"
       y2="13.168831"
       x2="5.8043289"
       y1="4.7809148"
       x1="5.8043289"
       gradientTransform="scale(1.1952286,0.83666)"
       id="linearGradient3991">
      <stop
         id="stop3993"
         offset="0"
         style="stop-color:#000000;stop-opacity:0.86274511;" />
      <stop
         id="stop3995"
         offset="1"
         style="stop-color:#000000;stop-opacity:0.47058824;" />
    </linearGradient>
    <linearGradient
       inkscape:collect="always"
       xlink:href="#StandardGradient"
       id="linearGradient2399"
       gradientUnits="userSpaceOnUse"
       gradientTransform="matrix(-1.1952286,0,0,0.83666,-5,0)"
       x1="5.8043289"
       y1="4.7809148"
       x2="5.8043289"
       y2="13.168831" />
    <linearGradient
       inkscape:collect="always"
       xlink:href="#StandardGradient"
       id="linearGradient5569"
       gradientUnits="userSpaceOnUse"
       gradientTransform="matrix(1.0781072,0,0,0.9240919,0.02741286,-0.0071073)"
       x1="6.1236782"
       y1="2.171978"
       x2="6.1236782"
       y2="15.167372" />
    <linearGradient
       id="StandardGradient"
       gradientTransform="matrix(1.0765258,0,0,0.9227364,-0.00801316,0.1584665)"
       x1="10.005832"
       y1="4.1631975"
       x2="10.005832"
       y2="17.168188"
       gradientUnits="userSpaceOnUse">
      <stop
         id="stop3337"
         offset="0"
         style="stop-color:#ebebeb;stop-opacity:1;" />
      <stop
         id="stop3339"
         offset="1"
         style="stop-color:#aaaaaa;stop-opacity:1;" />
    </linearGradient>
    <linearGradient
       inkscape:collect="always"
       xlink:href="#StandardGradient"
       id="linearGradient4016"
       gradientUnits="userSpaceOnUse"
       gradientTransform="matrix(-1.1952286,0,0,0.83666,-5,0)"
       x1="5.8043289"
       y1="4.7809148"
       x2="5.8043289"
       y2="13.168831" />
  </defs>
  <sodipodi:namedview
     id="base"
     pagecolor="#ffffff"
     bordercolor="#e7e7e7"
     borderopacity="1"
     inkscape:pageopacity="0.0"
     inkscape:pageshadow="2"
     inkscape:zoom="24.172577"
     inkscape:cx="7.1339823"
     inkscape:cy="6.5236124"
     inkscape:document-units="px"
     inkscape:current-layer="layer1"
     showgrid="true"
     inkscape:showpageshadow="false"
     showguides="true"
     inkscape:guide-bbox="true"
     inkscape:window-width="1920"
     inkscape:window-height="1026"
     inkscape:window-x="0"
     inkscape:window-y="25"
     inkscape:window-maximized="1">
    <sodipodi:guide
       orientation="1,0"
       position="0,112"
       id="guide2383" />
    <sodipodi:guide
       orientation="0,1"
       position="78.156291,0"
       id="guide2389" />
    <inkscape:grid
       type="xygrid"
       id="grid3672"
       visible="true"
       enabled="true" />
    <sodipodi:guide
       orientation="1,0"
       position="22.008699,4.1542523"
       id="guide2950" />
    <sodipodi:guide
       orientation="0,1"
       position="11.22532,22.008699"
       id="guide2952" />
  </sodipodi:namedview>
  <metadata
     id="metadata7">
    <rdf:RDF>
      <cc:Work
         rdf:about="">
        <dc:format>image/svg+xml</dc:format>
        <dc:type
           rdf:resource="http://purl.org/dc/dcmitype/StillImage" />
      </cc:Work>
    </rdf:RDF>
  </metadata>
  <g
     inkscape:label="Calque 1"
     inkscape:groupmode="layer"
     id="layer1">
    <path
       sodipodi:type="inkscape:offset"
       inkscape:radius="0.99372214"
       inkscape:original="M 2 4 L 2 12 L 7 8.65625 L 7 12 L 12 8.65625 L 12 12 L 14 12 L 14 4 L 12 4 L 12 7.34375 L 7 4 L 7 7.34375 L 2 4 z "
       style="fill:#000000;fill-opacity:1;fill-rule:nonzero;stroke:none;opacity:0.25"
       id="path4018"
       d="M 1.875,3 A 0.99382151,0.99382151 0 0 0 1,4 l 0,8 a 0.99382151,0.99382151 0 0 0 1.5625,0.8125 L 6,10.5 6,12 a 0.99382151,0.99382151 0 0 0 1.5625,0.8125 L 11,10.5 11,12 a 0.99382151,0.99382151 0 0 0 1,1 l 2,0 a 0.99382151,0.99382151 0 0 0 1,-1 L 15,4 A 0.99382151,0.99382151 0 0 0 14,3 L 12,3 A 0.99382151,0.99382151 0 0 0 11,4 L 11,5.5 7.5625,3.1875 A 0.99382151,0.99382151 0 0 0 6,4 L 6,5.5 2.5625,3.1875 A 0.99382151,0.99382151 0 0 0 1.875,3 z" />
    <path
       style="opacity:1;fill:url(#linearGradient2399);fill-opacity:1.0;fill-rule:nonzero;stroke:none;stroke-width:1;stroke-linecap:square;stroke-linejoin:round;stroke-miterlimit:4;stroke-dasharray:none;stroke-dashoffset:0;stroke-opacity:1"
       d="M 14,4 L 14,12 L 12,12 L 12,8.65625 L 7,12 L 7,8.65625 L 2,12 L 2,4 L 7,7.34375 L 7,4 L 12,7.34375 L 12,4 L 14,4 z"
       id="Symbol"
       sodipodi:nodetypes="ccccccccccccc" />
    <path
       style="opacity:0.6;fill:#ffffff;fill-opacity:1;fill-rule:nonzero;stroke:none;stroke-width:1;stroke-linecap:square;stroke-linejoin:round;stroke-miterlimit:4;stroke-dasharray:none;stroke-dashoffset:0;stroke-opacity:1"
       d="M 14,4 L 14,5 L 12,5 L 12,4 L 14,4 z M 7,4 L 12,7.34375 L 12,8.34375 L 7,5 L 7,4 z M 2,4 L 7,7.34375 L 7,8.34375 L 2,5 L 2,4 z"
       id="BevelShadow"
       inkscape:label="#path2401" />
    <path
       style="opacity:0.45;fill:#000000;fill-opacity:1;fill-rule:nonzero;stroke:none;stroke-width:1;stroke-linecap:square;stroke-linejoin:round;stroke-miterlimit:4;stroke-dasharray:none;stroke-dashoffset:0;stroke-opacity:1"
       d="M 12,8.65625 L 12,9.65625 L 7,13 L 7,12 L 12,8.65625 z M 7,8.65625 L 7,9.65625 L 2,13 L 2,12 L 7,8.65625 z M 14,12 L 14,13 L 12,13 L 12,12 L 14,12 z"
       id="BevelHighlight"
       inkscape:label="#path3178" />
  </g>
</svg>
