<?xml version="1.0" encoding="UTF-8" standalone="no"?>
<!-- Created with Inkscape (http://www.inkscape.org/) -->

<svg
   xmlns:dc="http://purl.org/dc/elements/1.1/"
   xmlns:cc="http://creativecommons.org/ns#"
   xmlns:rdf="http://www.w3.org/1999/02/22-rdf-syntax-ns#"
   xmlns:svg="http://www.w3.org/2000/svg"
   xmlns="http://www.w3.org/2000/svg"
   xmlns:xlink="http://www.w3.org/1999/xlink"
   xmlns:sodipodi="http://sodipodi.sourceforge.net/DTD/sodipodi-0.dtd"
   xmlns:inkscape="http://www.inkscape.org/namespaces/inkscape"
   width="16"
   height="16"
   id="svg2"
   sodipodi:version="0.32"
   inkscape:version="0.48.0 r9654"
   version="1.0"
   sodipodi:docname="object-rotate-left.svg"
   inkscape:output_extension="org.inkscape.output.svg.inkscape">
  <defs
     id="defs4">
    <inkscape:perspective
       sodipodi:type="inkscape:persp3d"
       inkscape:vp_x="0 : 8 : 1"
       inkscape:vp_y="0 : 1000 : 0"
       inkscape:vp_z="16 : 8 : 1"
       inkscape:persp3d-origin="8 : 5.3333333 : 1"
       id="perspective16" />
    <linearGradient
       id="StandardGradient"
       gradientTransform="scale(1.0784122,0.9272892)"
       x1="9.0752506"
       y1="2.2159534"
       x2="9.0752506"
       y2="13.952041"
       gradientUnits="userSpaceOnUse">
      <stop
         style="stop-color:#000000;stop-opacity:0.86274511;"
         offset="0"
         id="stop3280" />
      <stop
         style="stop-color:#000000;stop-opacity:0.47058824;"
         offset="1"
         id="stop3282" />
    </linearGradient>
    <inkscape:perspective
       id="perspective3697"
       inkscape:persp3d-origin="0.5 : 0.33333333 : 1"
       inkscape:vp_z="1 : 0.5 : 1"
       inkscape:vp_y="0 : 1000 : 0"
       inkscape:vp_x="0 : 0.5 : 1"
       sodipodi:type="inkscape:persp3d" />
    <linearGradient
       inkscape:collect="always"
       xlink:href="#StandardGradient"
       id="linearGradient3625"
       gradientUnits="userSpaceOnUse"
       gradientTransform="matrix(1.0784122,0,0,0.9272892,-20,0)"
       x1="9.0752506"
       y1="2.2159534"
       x2="9.0752506"
       y2="13.952041" />
    <clipPath
       clipPathUnits="userSpaceOnUse"
       id="clipPath3632">
      <path
         style="fill:#ff00ff;fill-opacity:1;stroke:none;display:inline"
         d="m -20,0 0,16 16,0 0,-16 -16,0 z m 8.09375,2.0625 c 0.173909,-0.017258 0.321577,0 0.5,0 2.967459,0 5.375001,2.4264215 5.375,5.4375 0,2.864578 -2.17034,5.215497 -4.9375,5.4375 l 0,-1.84375 C -9.191791,10.880677 -7.8125,9.3611571 -7.8125,7.5 c 0,-2.0073863 -1.615444,-3.624999 -3.59375,-3.625 -1.86764,0 -3.365967,1.4304651 -3.53125,3.28125 l 1.875,0 -2.90625,4.09375 -2.71875,-4.09375 1.9375,0 c 0.162577,-2.6743762 2.235116,-4.834874 4.84375,-5.09375 z"
         id="path3634" />
    </clipPath>
    <linearGradient
       inkscape:collect="always"
       xlink:href="#StandardGradient"
       id="linearGradient2846"
       gradientUnits="userSpaceOnUse"
       gradientTransform="matrix(1.0784122,0,0,0.9272892,0,-10)"
       x1="9.0752506"
       y1="2.2159534"
       x2="9.0752506"
       y2="13.952041" />
    <linearGradient
       inkscape:collect="always"
       xlink:href="#StandardGradient"
       id="linearGradient3634"
       x1="8"
       y1="1"
       x2="8"
       y2="15"
       gradientUnits="userSpaceOnUse" />
    <linearGradient
       inkscape:collect="always"
       xlink:href="#StandardGradient"
       id="linearGradient3640"
       gradientUnits="userSpaceOnUse"
       x1="8"
       y1="1"
       x2="8"
       y2="15"
       gradientTransform="translate(0,1)" />
    <linearGradient
       inkscape:collect="always"
       xlink:href="#StandardGradient"
       id="linearGradient3642"
       gradientUnits="userSpaceOnUse"
       x1="8"
       y1="1"
       x2="8"
       y2="15" />
    <linearGradient
       inkscape:collect="always"
       xlink:href="#StandardGradient"
       id="linearGradient3647"
       gradientUnits="userSpaceOnUse"
       x1="8"
       y1="1"
       x2="8"
       y2="15"
       gradientTransform="translate(0,1)" />
    <linearGradient
       inkscape:collect="always"
       xlink:href="#StandardGradient"
       id="linearGradient3651"
       gradientUnits="userSpaceOnUse"
       x1="8"
       y1="1"
       x2="8"
       y2="15" />
    <linearGradient
       inkscape:collect="always"
       xlink:href="#StandardGradient"
       id="linearGradient3666"
       gradientUnits="userSpaceOnUse"
       x1="8"
       y1="1"
       x2="8"
       y2="15"
       gradientTransform="translate(0,1)" />
    <linearGradient
       inkscape:collect="always"
       xlink:href="#StandardGradient"
       id="linearGradient3668"
       gradientUnits="userSpaceOnUse"
       x1="8"
       y1="1"
       x2="8"
       y2="15" />
    <linearGradient
       inkscape:collect="always"
       xlink:href="#StandardGradient"
       id="linearGradient3674"
       gradientUnits="userSpaceOnUse"
       x1="8"
       y1="1"
       x2="8"
       y2="15"
       gradientTransform="translate(-20,0)" />
    <clipPath
       clipPathUnits="userSpaceOnUse"
       id="clipPath3681">
      <path
         style="fill:#ff00ff;fill-opacity:1;stroke:none;display:inline"
         d="m -20,0 0,16 16,0 0,-16 -16,0 z m 8,1 0,2 c 2.071823,0.00176 4.077089,1.0767117 5.1875,3 0.517767,0.8967987 0.78738,1.8765729 0.8125,2.84375 0.055263,2.12779 -1.027043,4.204663 -3,5.34375 -2.869755,1.656854 -6.530646,0.682256 -8.1875,-2.1875 l 1.71875,-1 c 1.10457,1.91317 3.555579,2.573319 5.46875,1.46875 C -8.08683,11.36418 -7.426681,8.9131705 -8.53125,7 -9.270854,5.7189679 -10.620099,5.0337176 -12,5.03125 L -12,7 -16,4 -12,1 z m 0,6.5 c 0.828427,0 1.5,0.6715729 1.5,1.5 0,0.8284271 -0.671573,1.5 -1.5,1.5 -0.828427,0 -1.5,-0.6715729 -1.5,-1.5 0,-0.8284271 0.671573,-1.5 1.5,-1.5 z"
         id="path3683" />
    </clipPath>
    <filter
       inkscape:collect="always"
       id="filter3685">
      <feGaussianBlur
         inkscape:collect="always"
         stdDeviation="0.37776101"
         id="feGaussianBlur3687" />
    </filter>
    <linearGradient
       inkscape:collect="always"
       xlink:href="#StandardGradient-2"
       id="linearGradient3634-2"
       x1="8"
       y1="1"
       x2="8"
       y2="15"
       gradientUnits="userSpaceOnUse"
       gradientTransform="translate(-0.96874986,-2.1204703e-7)" />
    <linearGradient
       id="StandardGradient-2"
       gradientTransform="matrix(1.0765258,0,0,0.9227364,-0.00801316,0.1584665)"
       x1="10.005832"
       y1="4.1631975"
       x2="10.005832"
       y2="17.168188"
       gradientUnits="userSpaceOnUse">
      <stop
         id="stop3337"
         offset="0"
         style="stop-color:#ebebeb;stop-opacity:1;" />
      <stop
         id="stop3339"
         offset="1"
         style="stop-color:#aaaaaa;stop-opacity:1;" />
    </linearGradient>
  </defs>
  <sodipodi:namedview
     id="base"
     pagecolor="#ffffff"
     bordercolor="#9a9a9a"
     borderopacity="1"
     inkscape:pageopacity="0.0"
     inkscape:pageshadow="2"
     inkscape:zoom="26.016861"
     inkscape:cx="-12.207921"
     inkscape:cy="2.9200842"
     inkscape:document-units="px"
     inkscape:current-layer="layer3"
     showgrid="true"
     inkscape:showpageshadow="false"
     showguides="true"
     inkscape:guide-bbox="true"
     inkscape:window-width="1920"
     inkscape:window-height="1026"
     inkscape:window-x="0"
     inkscape:window-y="25"
     inkscape:window-maximized="1">
    <sodipodi:guide
       orientation="0,1"
       position="26.278146,128"
       id="guide2385" />
    <sodipodi:guide
       orientation="1,0"
       position="128,54.082119"
       id="guide2387" />
    <inkscape:grid
       type="xygrid"
       id="grid3672"
       visible="true"
       enabled="true" />
  </sodipodi:namedview>
  <metadata
     id="metadata7">
    <rdf:RDF>
      <cc:Work
         rdf:about="">
        <dc:format>image/svg+xml</dc:format>
        <dc:type
           rdf:resource="http://purl.org/dc/dcmitype/StillImage" />
      </cc:Work>
    </rdf:RDF>
  </metadata>
  <g
     inkscape:groupmode="layer"
     id="layer3"
     inkscape:label="Arrow"
     style="display:inline">
    <path
       sodipodi:type="inkscape:offset"
       inkscape:radius="0.98820227"
       inkscape:original="M 8 1 L 8 3 C 5.928177 3.0017616 3.922911 4.0767117 2.8125 6 C 2.294733 6.8967987 2.02512 7.8765729 2 8.84375 C 1.944737 10.97154 3.027043 13.048413 5 14.1875 C 7.8697553 15.844354 11.530646 14.869756 13.1875 12 L 11.46875 11 C 10.36418 12.91317 7.9131705 13.573319 6 12.46875 C 4.08683 11.36418 3.426681 8.9131705 4.53125 7 C 5.270854 5.7189679 6.6200994 5.0337176 8 5.03125 L 8 7 L 12 4 L 8 1 z M 8 7.5 C 7.1715728 7.5 6.5 8.1715729 6.5 9 C 6.5 9.8284271 7.1715728 10.5 8 10.5 C 8.8284272 10.5 9.5 9.8284271 9.5 9 C 9.5 8.1715729 8.8284272 7.5 8 7.5 z "
       style="opacity:0.25;fill:#000000;fill-opacity:1;stroke:none;display:inline"
       id="path5178"
       d="M 7.9375,0 A 0.98830109,0.98830109 0 0 0 7,1 L 7,2.28125 C 4.9743928,2.5912298 3.0692311,3.5939108 1.96875,5.5 1.3694243,6.5380626 1.0294353,7.6791753 1,8.8125 c -0.0643908,2.479236 1.2121256,4.897845 3.5,6.21875 3.3302335,1.922711 7.607679,0.800474 9.53125,-2.53125 A 0.98830109,0.98830109 0 0 0 13.6875,11.15625 l -1.71875,-1 A 0.98830109,0.98830109 0 0 0 10.625,10.5 C 9.7877158,11.950218 7.9490175,12.46159 6.5,11.625 5.0497822,10.787716 4.5384097,8.9490175 5.375,7.5 5.7454644,6.8583367 6.3487596,6.5042957 7,6.28125 L 7,6.9375 C 6.1769834,7.3457623 5.5,8.0280505 5.5,9 c 0,1.362491 1.1375087,2.5 2.5,2.5 1.3624913,0 2.5,-1.137509 2.5,-2.5 0,-0.7913607 -0.445908,-1.417572 -1.03125,-1.875 l 3.125,-2.34375 a 0.98830109,0.98830109 0 0 0 0,-1.5625 l -4,-3 A 0.98830109,0.98830109 0 0 0 7.9375,0 z"
       transform="matrix(-1,0,0,1,15.033267,0)" />
    <path
       inkscape:connector-curvature="0"
       style="fill:url(#linearGradient3634-2);fill-opacity:1;stroke:none;display:inline"
       d="m 7.03125,0.9999998 -3.9999999,3 3.9999999,3 0,-1.96875 C 8.4111506,5.0337198 9.760396,5.7189677 10.5,6.9999998 11.604569,8.9131703 10.94442,11.36418 9.03125,12.46875 7.1180795,13.573319 4.6670701,12.91317 3.5625001,11 l -1.71875,1 c 1.656854,2.869756 5.3177446,3.844354 8.1874999,2.1875 1.972957,-1.139087 3.055263,-3.21596 3,-5.3437502 -0.02512,-0.9671771 -0.294733,-1.9469513 -0.8125,-2.84375 -1.110411,-1.9232883 -3.115677,-2.9982384 -5.1875,-3 l 0,-2 z m 0,6.5 c -0.8284272,0 -1.4999999,0.6715729 -1.4999999,1.5 0,0.8284271 0.6715727,1.5000002 1.4999999,1.5000002 0.8284272,0 1.5,-0.6715731 1.5,-1.5000002 0,-0.8284271 -0.6715728,-1.5 -1.5,-1.5 z"
       id="path2839" />
    <path
       inkscape:connector-curvature="0"
       style="opacity:0.6;fill:#ffffff;fill-opacity:1;stroke:none;display:inline"
       d="m 7.03125,0.9999998 -3.9999999,3 0.65625,0.5 3.3437499,-2.5 0,-1 z m 0,2 0,1 c 2.071823,0.00176 4.077089,1.0767117 5.1875,3 0.461425,0.7992108 0.711405,1.6678845 0.78125,2.53125 0.02113,-0.231694 0.03733,-0.4533921 0.03125,-0.6875 -0.02512,-0.9671771 -0.294733,-1.9469513 -0.8125,-2.84375 -1.110411,-1.9232883 -3.115677,-2.9982384 -5.1875,-3 z m 0,4.5 c -0.1829443,0 -0.3691476,0.033792 -0.53125,0.09375 -0.021645,0.00801 -0.041369,0.02229 -0.0625,0.03125 -0.103452,0.043756 -0.1911997,0.091482 -0.28125,0.15625 -0.04405,0.03107 -0.084739,0.058183 -0.125,0.09375 -0.02194,0.019518 -0.041742,0.041742 -0.0625,0.0625 -0.060864,0.061036 -0.1067392,0.1166009 -0.1562499,0.1875 -0.07038,0.097861 -0.110837,0.1989697 -0.15625,0.3125 -0.02475,0.061804 -0.04596,0.1218784 -0.0625,0.1875 -0.0057,0.022395 -0.02659,0.039716 -0.03125,0.0625 -0.02084,0.1007061 -0.03125,0.2053893 -0.03125,0.3125 0,0.172589 0.04011,0.345681 0.09375,0.5 0.20384,-0.586412 0.7504117,-1 1.4062499,-1 0.6558382,0 1.2024102,0.413588 1.40625,1 0.053642,-0.154319 0.09375,-0.327411 0.09375,-0.5 0,-0.8284271 -0.6715728,-1.5 -1.5,-1.5 z m 3.96875,2 C 10.846601,10.699046 10.1575,11.818509 9.03125,12.46875 7.1180795,13.573319 4.6670701,12.91317 3.5625001,11 l -1.71875,1 c 0.145648,0.25227 0.325278,0.49627 0.5,0.71875 L 3.5625001,12 c 1.10457,1.91317 3.5555794,2.573319 5.4687499,1.46875 C 10.466127,12.640322 11.190643,11.048242 11,9.4999998 z"
       id="path3636" />
    <path
       inkscape:connector-curvature="0"
       style="opacity:0.45;fill:#000000;fill-opacity:1;stroke:none;display:inline"
       d="m 3.6875001,4.4999998 -0.65625,0.5 L 6.5,7.5937498 c 0.01835,-0.00679 0.04382,0.00608 0.0625,0 0.146337,-0.047645 0.306516,-0.09375 0.46875,-0.09375 l 0,-0.5 -3.3437499,-2.5 z m 3.3437499,0.53125 0,1 c 1.379901,0.00247 2.729146,0.6877179 3.46875,1.96875 0.270628,0.4687427 0.433927,0.9633896 0.5,1.46875 0.01638,-0.1364717 0.02884,-0.2684174 0.03125,-0.40625 0.0011,-0.061733 0.0018,-0.1256327 0,-0.1875 -0.0036,-0.1211026 -0.01649,-0.2540172 -0.03125,-0.375 -0.0013,-0.010304 0.0014,-0.020949 0,-0.03125 -0.02543,-0.1939999 -0.07016,-0.3714121 -0.125,-0.5625 -0.01422,-0.050782 -0.0149,-0.1058009 -0.03125,-0.15625 -0.0171,-0.051396 -0.04319,-0.1052775 -0.0625,-0.15625 C 10.7047,7.3879398 10.613582,7.19673 10.5,6.9999998 9.760396,5.7189677 8.411151,5.0337174 7.03125,5.0312498 z m -1.4062499,4.46875 c -0.05364,0.154319 -0.09375,0.327411 -0.09375,0.5000002 0,0.828427 0.6715729,1.5 1.4999999,1.5 0.828427,0 1.5,-0.671573 1.5,-1.5 0,-0.1725892 -0.04011,-0.3456812 -0.09375,-0.5000002 -0.01075,0.030935 -0.01862,0.063813 -0.03125,0.09375 C 8.35669,9.710925 8.295004,9.8065299 8.21875,9.9062498 8.065737,10.112021 7.862572,10.271526 7.625,10.375 7.58313,10.39271 7.54372,10.42359 7.5,10.4375 7.45069,10.45362 7.395292,10.45777 7.34375,10.46875 7.246104,10.48873 7.134803,10.5 7.03125,10.5 6.872468,10.5 6.706133,10.48322 6.5625,10.4375 6.5181,10.42299 6.47988,10.39346 6.4375,10.375 6.334048,10.33124 6.2463,10.28352 6.15625,10.21875 6.08912,10.17016 6.026726,10.12155 5.96875,10.0625 5.92165,10.0154 5.88428,9.9592541 5.8437501,9.9062498 c -0.07625,-0.09972 -0.137939,-0.1953248 -0.1875,-0.3125 -0.01265,-0.02991 -0.02052,-0.062886 -0.03125,-0.09375 z M 13,9.6249998 c -0.02464,0.2298191 -0.07418,0.4623692 -0.125,0.6875002 -0.05056,0.222678 -0.111893,0.440801 -0.1875,0.65625 -0.0218,0.06212 -0.03865,0.126097 -0.0625,0.1875 -0.01173,0.03031 -0.01903,0.06362 -0.03125,0.09375 -0.08758,0.215947 -0.199942,0.41977 -0.3125,0.625 -0.06373,0.116199 -0.115932,0.231608 -0.1875,0.34375 -0.02781,0.04355 -0.06476,0.08211 -0.09375,0.125 -0.08829,0.130627 -0.182171,0.250987 -0.28125,0.375 -0.01458,0.01826 -0.01644,0.04439 -0.03125,0.0625 -0.108428,0.132576 -0.223065,0.251095 -0.34375,0.375 -0.04997,0.05169 -0.1042,0.106172 -0.15625,0.15625 -0.145155,0.13872 -0.307735,0.280893 -0.46875,0.40625 -0.02384,0.01852 -0.03832,0.04429 -0.0625,0.0625 -0.198207,0.149788 -0.404121,0.278725 -0.625,0.40625 -0.163593,0.09445 -0.331919,0.172469 -0.5,0.25 C 9.51828,14.4434 9.51299,14.4629 9.5,14.46875 9.344319,14.53927 9.189866,14.599963 9.03125,14.65625 9.00044,14.66711 8.96841,14.67717 8.9375,14.6875 8.622514,14.79276 8.290163,14.855267 7.96875,14.90625 7.90447,14.91645 7.845638,14.92943 7.78125,14.9375 7.534594,14.9684 7.277661,14.9999 7.03125,15 c -0.107471,4.2e-5 -0.205464,-0.02553 -0.3125,-0.03125 -0.03041,-0.0016 -0.06339,0.0021 -0.09375,0 C 6.380074,14.95174 6.115234,14.92162 5.875,14.875 5.8524,14.8706 5.83504,14.84843 5.8125,14.84375 5.510994,14.78172 5.226094,14.73245 4.9375001,14.625 c -0.182771,-0.06808 -0.355505,-0.164059 -0.53125,-0.25 -0.164279,-0.07985 -0.311795,-0.154995 -0.46875,-0.25 -0.0072,-0.0044 -0.02408,0.0044 -0.03125,0 -0.284965,-0.174387 -0.557481,-0.401884 -0.8125,-0.625 -0.274878,-0.240491 -0.518435,-0.48639 -0.75,-0.78125 l -0.5,0.28125 c 1.656854,2.869756 5.3177448,3.844354 8.1874999,2.1875 1.972957,-1.139087 3.055263,-3.21596 3,-5.3437502 C 13.02935,9.7698048 13.00478,9.6990489 13,9.6249998 z"
       id="path3645" />
  </g>
</svg>
