<?xml version="1.0" encoding="UTF-8" standalone="no"?>
<!-- Created with Inkscape (http://www.inkscape.org/) -->

<svg
   xmlns:dc="http://purl.org/dc/elements/1.1/"
   xmlns:cc="http://creativecommons.org/ns#"
   xmlns:rdf="http://www.w3.org/1999/02/22-rdf-syntax-ns#"
   xmlns:svg="http://www.w3.org/2000/svg"
   xmlns="http://www.w3.org/2000/svg"
   xmlns:xlink="http://www.w3.org/1999/xlink"
   xmlns:sodipodi="http://sodipodi.sourceforge.net/DTD/sodipodi-0.dtd"
   xmlns:inkscape="http://www.inkscape.org/namespaces/inkscape"
   width="16"
   height="16"
   id="svg2"
   sodipodi:version="0.32"
   inkscape:version="0.48.0 r9654"
   version="1.0"
   sodipodi:docname="visualization.svg"
   inkscape:output_extension="org.inkscape.output.svg.inkscape"
   inkscape:export-filename="/home/matt/.icons/Sirocco/scalable/mimetypes/text-plain.png"
   inkscape:export-xdpi="90"
   inkscape:export-ydpi="90"
   sodipodi:modified="true"
   style="display:inline">
  <sodipodi:namedview
     id="base"
     pagecolor="#ffffff"
     bordercolor="#666666"
     borderopacity="1.0"
     inkscape:pageopacity="0.0"
     inkscape:pageshadow="2"
     inkscape:zoom="18.585663"
     inkscape:cx="-12.96929"
     inkscape:cy="1.9123241"
     inkscape:document-units="px"
     inkscape:current-layer="layer1"
     width="128px"
     height="128px"
     inkscape:showpageshadow="false"
     inkscape:window-width="1920"
     inkscape:window-height="1026"
     inkscape:window-x="0"
     inkscape:window-y="25"
     showguides="true"
     inkscape:guide-bbox="true"
     showgrid="true"
     inkscape:window-maximized="1">
    <sodipodi:guide
       id="guide2226"
       position="32.637397,117.99844"
       orientation="horizontal" />
    <sodipodi:guide
       id="guide2230"
       position="110,57.402344"
       orientation="vertical" />
    <sodipodi:guide
       id="guide2232"
       position="33.760911"
       orientation="horizontal" />
    <sodipodi:guide
       id="guide2231"
       position="46.774696"
       orientation="horizontal" />
    <inkscape:grid
       enabled="true"
       visible="true"
       id="grid3231"
       type="xygrid" />
    <sodipodi:guide
       orientation="1,0"
       position="100,67.625"
       id="guide2713" />
  </sodipodi:namedview>
  <defs
     id="defs4">
    <linearGradient
       id="StandardGradient-9"
       gradientTransform="scale(0.9219544,1.0846523)"
       x1="11.998966"
       y1="0.92195445"
       x2="11.998966"
       y2="19.387045"
       gradientUnits="userSpaceOnUse">
      <stop
         style="stop-color:#000000;stop-opacity:0.86274511;"
         offset="0"
         id="stop3283-8" />
      <stop
         style="stop-color:#000000;stop-opacity:0.47058824;"
         offset="1"
         id="stop2651-0" />
    </linearGradient>
    <linearGradient
       gradientTransform="matrix(0.77241379,0,0,0.77241379,-0.49655176,-0.49655172)"
       y2="20.027756"
       x2="11"
       y1="2"
       x1="11"
       gradientUnits="userSpaceOnUse"
       id="linearGradient3722"
       xlink:href="#StandardGradient"
       inkscape:collect="always" />
    <filter
       inkscape:collect="always"
       id="filter3692">
      <feGaussianBlur
         inkscape:collect="always"
         stdDeviation="0.40986207"
         id="feGaussianBlur3694" />
    </filter>
    <linearGradient
       inkscape:collect="always"
       xlink:href="#StandardGradient"
       id="linearGradient5569"
       gradientUnits="userSpaceOnUse"
       gradientTransform="matrix(1.0781072,0,0,0.9240919,0.02741286,-0.0071073)"
       x1="6.1236782"
       y1="2.171978"
       x2="6.1236782"
       y2="15.167372" />
    <linearGradient
       id="StandardGradient"
       gradientTransform="matrix(1.0765258,0,0,0.9227364,-0.00801316,0.1584665)"
       x1="10.005832"
       y1="4.1631975"
       x2="10.005832"
       y2="17.168188"
       gradientUnits="userSpaceOnUse">
      <stop
         id="stop3337"
         offset="0"
         style="stop-color:#ebebeb;stop-opacity:1;" />
      <stop
         id="stop3339"
         offset="1"
         style="stop-color:#aaaaaa;stop-opacity:1;" />
    </linearGradient>
    <linearGradient
       y2="15.167372"
       x2="6.1236782"
       y1="2.171978"
       x1="6.1236782"
       gradientTransform="matrix(1.0781072,0,0,0.9240919,-21.972587,-7.0071073)"
       gradientUnits="userSpaceOnUse"
       id="linearGradient3052"
       xlink:href="#StandardGradient"
       inkscape:collect="always" />
    <linearGradient
       inkscape:collect="always"
       xlink:href="#StandardGradient"
       id="linearGradient5070"
       gradientUnits="userSpaceOnUse"
       gradientTransform="matrix(0.77241379,0,0,0.77241379,-0.49655176,-0.49655172)"
       x1="11"
       y1="2"
       x2="11"
       y2="20.027756" />
    <linearGradient
       inkscape:collect="always"
       xlink:href="#StandardGradient"
       id="linearGradient5074"
       gradientUnits="userSpaceOnUse"
       gradientTransform="matrix(0.77241379,0,0,0.77241379,-0.49655176,-0.49655172)"
       x1="12.294643"
       y1="1.9375"
       x2="11"
       y2="20.027756" />
  </defs>
  <metadata
     id="metadata7">
    <rdf:RDF>
      <cc:Work
         rdf:about="">
        <dc:format>image/svg+xml</dc:format>
        <dc:type
           rdf:resource="http://purl.org/dc/dcmitype/StillImage" />
        <dc:title />
      </cc:Work>
    </rdf:RDF>
  </metadata>
  <g
     style="display:inline"
     inkscape:label="Calque 1"
     id="layer1"
     inkscape:groupmode="layer">
    <path
       style="color:#000000;fill:#000000;fill-opacity:1;fill-rule:nonzero;stroke:none;stroke-width:0.30000000999999998;marker:none;visibility:visible;display:inline;overflow:visible;enable-background:accumulate;opacity:0.25"
       d="m 7.90625,0.03125 a 0.97007891,0.97007891 0 0 0 -0.875,0.8125 c 0,0 -0.090308,0.5369465 -0.28125,1.09375 C 6.6545288,2.2159018 6.5464942,2.4859495 6.4375,2.65625 6.3285058,2.8265505 6.2261037,2.8405719 6.3125,2.8125 6.3969495,2.7850607 6.3433168,2.8228627 6.15625,2.75 5.9691832,2.6771373 5.7081679,2.5427381 5.46875,2.375 4.9899143,2.0395237 4.59375,1.65625 4.59375,1.65625 a 0.97007891,0.97007891 0 0 0 -1.5625,1.125 c 0,0 0.2410026,0.4688733 0.40625,1.03125 0.082624,0.2811884 0.1463317,0.5782558 0.15625,0.78125 0.00992,0.2029942 -0.050648,0.2884617 0,0.21875 0.05383,-0.074091 0.00594,-0.01816 -0.1875,0.03125 C 3.2128106,4.8931605 2.9177092,4.9349294 2.625,4.9375 2.0395816,4.9426413 1.5,4.84375 1.5,4.84375 a 0.97007891,0.97007891 0 0 0 -0.625,1.8125 c 0,0 0.4974334,0.2638122 0.96875,0.625 0.2356583,0.1805939 0.4641277,0.4025899 0.59375,0.5625 0.1296223,0.1599101 0.125,0.2466169 0.125,0.15625 0,-0.090367 0.00462,-0.00366 -0.125,0.15625 C 2.3078777,8.31616 2.0794083,8.5381561 1.84375,8.71875 1.3724334,9.0799379 0.875,9.34375 0.875,9.34375 a 0.97007891,0.97007891 0 0 0 0.625,1.8125 c 0,0 0.5395816,-0.09889 1.125,-0.09375 0.2927092,0.0026 0.5878105,0.04434 0.78125,0.09375 0.1934395,0.04941 0.24133,0.105341 0.1875,0.03125 -0.050648,-0.06971 0.00992,0.01576 0,0.21875 -0.00992,0.202994 -0.073626,0.500062 -0.15625,0.78125 -0.1652474,0.562377 -0.40625,1.03125 -0.40625,1.03125 a 0.97007891,0.97007891 0 0 0 1.5625,1.125 c 0,0 0.3961643,-0.383274 0.875,-0.71875 0.2394178,-0.167738 0.5004333,-0.302137 0.6875,-0.375 0.1870667,-0.07286 0.2406996,-0.03506 0.15625,-0.0625 -0.086397,-0.02807 0.016006,-0.01405 0.125,0.15625 0.1089942,0.170301 0.2170288,0.440348 0.3125,0.71875 0.1909424,0.556804 0.28125,1.09375 0.28125,1.09375 a 0.97007891,0.97007891 0 0 0 1.9375,0 c 0,0 0.090308,-0.536946 0.28125,-1.09375 0.095471,-0.278402 0.2035058,-0.548449 0.3125,-0.71875 0.1089942,-0.170301 0.2113964,-0.184322 0.125,-0.15625 -0.08445,0.02744 -0.030817,-0.01036 0.15625,0.0625 0.187067,0.07286 0.448082,0.207262 0.6875,0.375 0.478836,0.335476 0.875,0.71875 0.875,0.71875 a 0.97007891,0.97007891 0 0 0 1.5625,-1.125 c 0,0 -0.241003,-0.468874 -0.40625,-1.03125 -0.08262,-0.281188 -0.146332,-0.578256 -0.15625,-0.78125 -0.0099,-0.202994 0.05065,-0.288461 0,-0.21875 -0.05383,0.07409 -0.0059,0.01816 0.1875,-0.03125 0.193439,-0.04941 0.488541,-0.09118 0.78125,-0.09375 0.585418,-0.0051 1.125,0.09375 1.125,0.09375 a 0.97007891,0.97007891 0 0 0 0.625,-1.8125 c 0,0 -0.497433,-0.2638121 -0.96875,-0.625 C 13.920592,8.5381561 13.692122,8.3161601 13.5625,8.15625 13.432878,7.9963399 13.4375,7.9096329 13.4375,8 c 0,0.090367 -0.0046,0.00366 0.125,-0.15625 0.129622,-0.1599101 0.358092,-0.3819061 0.59375,-0.5625 0.471317,-0.3611878 0.96875,-0.625 0.96875,-0.625 A 0.97007891,0.97007891 0 0 0 14.5,4.84375 c 0,0 -0.539582,0.098891 -1.125,0.09375 -0.292709,-0.00257 -0.587811,-0.04434 -0.78125,-0.09375 -0.193439,-0.04941 -0.24133,-0.1053406 -0.1875,-0.03125 0.05065,0.069712 -0.0099,-0.015756 0,-0.21875 0.0099,-0.202994 0.07363,-0.5000617 0.15625,-0.78125 0.165247,-0.5623766 0.40625,-1.03125 0.40625,-1.03125 a 0.97007891,0.97007891 0 0 0 -1.5625,-1.125 c 0,0 -0.396164,0.3832737 -0.875,0.71875 C 10.291832,2.5427381 10.030817,2.6771373 9.84375,2.75 9.6566832,2.8228627 9.6030505,2.7850607 9.6875,2.8125 9.7738963,2.8405719 9.6714942,2.8265505 9.5625,2.65625 9.4535058,2.4859495 9.3454712,2.2159018 9.25,1.9375 9.0590577,1.3806965 8.96875,0.84375 8.96875,0.84375 A 0.97007891,0.97007891 0 0 0 7.90625,0.03125 z M 8,5.875 c 1.1806004,0 2.125,0.9443996 2.125,2.125 0,1.1806004 -0.9443996,2.125 -2.125,2.125 C 6.8193994,10.125 5.875,9.1806005 5.875,8 5.875,6.8193995 6.8193994,5.875 8,5.875 z"
       id="path5072" />
    <path
       style="color:#000000;fill:url(#linearGradient3722);fill-opacity:1.0;fill-rule:nonzero;stroke:none;stroke-width:0.30000000999999998;marker:none;visibility:visible;display:inline;overflow:visible;enable-background:accumulate"
       d="m 8,1 c 0,0 -0.4036241,2.4358249 -1.3758621,2.7517241 -0.9722379,0.3158993 -2.7275862,-1.4 -2.7275862,-1.4 0,0 1.0836346,2.1902065 0.4827586,3.0172414 -0.600876,0.827035 -3.0413793,0.4586207 -3.0413793,0.4586207 0,0 2.1965516,1.1501424 2.1965517,2.1724138 1e-7,1.0222711 -2.1965517,2.172414 -2.1965517,2.172414 0,0 2.4405032,-0.3684146 3.0413793,0.45862 0.6008761,0.827036 -0.4827586,3.017242 -0.4827586,3.017242 0,0 1.7553483,-1.7159 2.7275862,-1.4 C 7.5963751,12.564175 8,15 8,15 c 0,0 0.403624,-2.435825 1.375862,-2.751724 0.972238,-0.3159 2.727586,1.4 2.727586,1.4 0,0 -1.083635,-2.190206 -0.482758,-3.017242 0.600876,-0.8270346 3.041379,-0.45862 3.041379,-0.45862 0,0 -2.196552,-1.1501429 -2.196552,-2.172414 0,-1.0222714 2.196552,-2.1724138 2.196552,-2.1724138 0,0 -2.440503,0.3684142 -3.041379,-0.4586207 -0.600877,-0.8270349 0.482758,-3.0172414 0.482758,-3.0172414 0,0 -1.755348,1.7158993 -2.727586,1.4 C 8.403624,3.4358249 8,1 8,1 z m 0,3.9103448 c 1.7063694,0 3.089655,1.3832858 3.089655,3.0896552 0,1.7063694 -1.3832856,3.089655 -3.089655,3.089655 C 6.2936305,11.089655 4.9103448,9.7063694 4.9103448,8 4.9103448,6.2936306 6.2936305,4.9103448 8,4.9103448 z"
       id="path2880" />
    <path
       style="color:#000000;fill:#ffffff;fill-opacity:1;fill-rule:nonzero;stroke:none;stroke-width:0.30000000999999998;marker:none;visibility:visible;display:inline;overflow:visible;enable-background:accumulate;opacity:0.6"
       d="M 8 1 C 8 1 7.597238 3.4341008 6.625 3.75 C 5.6527621 4.0658993 3.90625 2.34375 3.90625 2.34375 C 3.90625 2.34375 4.2444329 3.0589349 4.4375 3.8125 C 5.0308833 4.2970288 5.9808032 4.9593123 6.625 4.75 C 7.597238 4.4341008 8 2 8 2 C 8 2 8.402762 4.4341008 9.375 4.75 C 10.019197 4.9593123 10.969117 4.2970288 11.5625 3.8125 C 11.755567 3.0589349 12.09375 2.34375 12.09375 2.34375 C 12.09375 2.34375 10.347238 4.0658993 9.375 3.75 C 8.402762 3.4341008 8 1 8 1 z M 4.5 5.0625 C 4.4708304 5.1734279 4.4372209 5.2893603 4.375 5.375 C 3.774124 6.202035 1.34375 5.8125 1.34375 5.8125 C 1.34375 5.8125 2.2280817 6.304075 2.875 6.90625 C 3.4889525 6.8725255 4.1097858 6.7400361 4.375 6.375 C 4.6003285 6.0648619 4.6024637 5.5686449 4.5 5.0625 z M 11.5 5.0625 C 11.397536 5.5686449 11.399671 6.0648619 11.625 6.375 C 11.890214 6.7400361 12.511048 6.8725255 13.125 6.90625 C 13.771918 6.304075 14.65625 5.8125 14.65625 5.8125 C 14.65625 5.8125 12.225876 6.2020349 11.625 5.375 C 11.562779 5.2893603 11.52917 5.1734279 11.5 5.0625 z M 3.375 8.5 C 2.8762096 9.3638788 1.34375 10.1875 1.34375 10.1875 C 1.34375 10.1875 2.0979663 10.051068 2.875 10.09375 C 3.2446676 9.74965 3.53125 9.3717349 3.53125 9 C 3.53125 8.8349229 3.4710563 8.6663644 3.375 8.5 z M 4.96875 8.5 C 4.9420153 8.6634975 4.90625 8.8289407 4.90625 9 C 4.90625 10.706369 6.2936305 12.09375 8 12.09375 C 9.7063694 12.09375 11.09375 10.706369 11.09375 9 C 11.09375 8.8289407 11.057985 8.6634975 11.03125 8.5 C 10.791297 9.9674406 9.5353101 11.09375 8 11.09375 C 6.4646898 11.09375 5.2087026 9.9674406 4.96875 8.5 z M 12.625 8.5 C 12.528944 8.6663644 12.46875 8.8349229 12.46875 9 C 12.46875 9.3717349 12.755332 9.74965 13.125 10.09375 C 13.902034 10.051068 14.65625 10.1875 14.65625 10.1875 C 14.65625 10.1875 13.123791 9.3638788 12.625 8.5 z M 4.5 11.9375 C 4.3292272 12.781075 3.90625 13.65625 3.90625 13.65625 C 3.90625 13.65625 4.1353343 13.434234 4.4375 13.1875 C 4.5521217 12.740117 4.5940719 12.295243 4.5 11.9375 z M 11.5 11.9375 C 11.405928 12.295243 11.447878 12.740117 11.5625 13.1875 C 11.864666 13.434234 12.09375 13.65625 12.09375 13.65625 C 12.09375 13.65625 11.670773 12.781075 11.5 11.9375 z "
       id="path2889" />
    <path
       style="color:#000000;fill:#000000;fill-opacity:1;fill-rule:nonzero;stroke:none;stroke-width:0.30000000999999998;marker:none;visibility:visible;display:inline;overflow:visible;enable-background:accumulate;opacity:0.45"
       d="M 3.90625 3.34375 C 3.90625 3.34375 4.3292272 4.2189251 4.5 5.0625 C 4.5940719 4.7047574 4.5521217 4.2598828 4.4375 3.8125 C 4.1353343 3.5657658 3.90625 3.34375 3.90625 3.34375 z M 12.09375 3.34375 C 12.09375 3.34375 11.864666 3.5657658 11.5625 3.8125 C 11.447878 4.2598828 11.405928 4.7047574 11.5 5.0625 C 11.670773 4.2189251 12.09375 3.34375 12.09375 3.34375 z M 8 4.90625 C 6.2936305 4.90625 4.90625 6.2936306 4.90625 8 C 4.90625 8.1710593 4.9420153 8.3365025 4.96875 8.5 C 5.2087026 7.0325593 6.4646898 5.90625 8 5.90625 C 9.5353101 5.90625 10.791297 7.0325593 11.03125 8.5 C 11.057985 8.3365025 11.09375 8.1710593 11.09375 8 C 11.09375 6.2936306 9.7063694 4.90625 8 4.90625 z M 1.34375 6.8125 C 1.34375 6.8125 2.8762095 7.6361211 3.375 8.5 C 3.4710563 8.3336356 3.53125 8.165077 3.53125 8 C 3.53125 7.6282649 3.2446676 7.25035 2.875 6.90625 C 2.0979663 6.9489325 1.34375 6.8125 1.34375 6.8125 z M 14.65625 6.8125 C 14.65625 6.8125 13.902034 6.9489325 13.125 6.90625 C 12.755332 7.25035 12.46875 7.6282649 12.46875 8 C 12.46875 8.165077 12.528944 8.3336356 12.625 8.5 C 13.123791 7.6361211 14.65625 6.8125 14.65625 6.8125 z M 2.875 10.09375 C 2.2280817 10.695925 1.34375 11.1875 1.34375 11.1875 C 1.34375 11.1875 3.7741239 10.797965 4.375 11.625 C 4.4372209 11.71064 4.4708304 11.826572 4.5 11.9375 C 4.6024637 11.431355 4.6003285 10.935139 4.375 10.625 C 4.1097857 10.259964 3.4889525 10.127474 2.875 10.09375 z M 13.125 10.09375 C 12.511048 10.127474 11.890214 10.259964 11.625 10.625 C 11.399671 10.935139 11.397536 11.431355 11.5 11.9375 C 11.52917 11.826572 11.562779 11.71064 11.625 11.625 C 12.225876 10.797965 14.65625 11.1875 14.65625 11.1875 C 14.65625 11.1875 13.771918 10.695925 13.125 10.09375 z M 6.21875 12.21875 C 5.6121573 12.290514 4.9189397 12.794379 4.4375 13.1875 C 4.2444328 13.941065 3.90625 14.65625 3.90625 14.65625 C 3.90625 14.65625 5.6527621 12.9341 6.625 13.25 C 7.5972372 13.565899 8 16 8 16 C 8 16 8.402762 13.565899 9.375 13.25 C 10.347238 12.9341 12.09375 14.65625 12.09375 14.65625 C 12.09375 14.65625 11.755567 13.941065 11.5625 13.1875 C 10.969117 12.702971 10.019197 12.040687 9.375 12.25 C 8.402762 12.565899 8 15 8 15 C 8 15 7.5972372 12.565899 6.625 12.25 C 6.5034703 12.210513 6.359794 12.202063 6.21875 12.21875 z "
       id="path3670" />
  </g>
</svg>
