<svg height="16" width="16" xmlns="http://www.w3.org/2000/svg"><title>Gnome Symbolic Icon Theme</title><path d="M8 1a7 7 0 1 0 0 14A7 7 0 0 0 8 1zM6 5c.558 0 1.03.473 1.03 1.03V7c0 .558-.472 1-1.03 1s-1-.442-1-1v-.97C5 5.474 5.442 5 6 5zm4 0c.558 0 1 .473 1 1.03V7c0 .558-.442 1-1 1s-1-.442-1-1v-.97C9 5.474 9.442 5 10 5zM4 9l4 1 4-1c.083.59-.16 1.054-.67 1.168L10 10.5l1.31.327c.714.192.69.75.69 1.173l-4-1-4 1c-.065-.63.037-.983.52-1.13L6 10.5l-1.504-.335C4.02 10.037 3.916 9.485 4 9z" fill="#babdb6"/></svg>