<svg height="16" width="16" xmlns="http://www.w3.org/2000/svg"><title>Gnome Symbolic Icon Theme</title><path d="M8 1a6.992 6.992 0 0 0-4.375 1.53C2.49 2.088 1.532 1.583.937 1.064l-.093.593C.81 1.926.947 3.17 2 4.406A6.952 6.952 0 0 0 1 8a7 7 0 0 0 14 0 6.95 6.95 0 0 0-.97-3.53c1.012-1.22 1.19-2.39 1.158-2.657l-.094-.594c-.58.505-1.5.97-2.594 1.405-.006-.005-.026.005-.03 0A6.925 6.925 0 0 0 8 1zM6 5c.558 0 1.03.473 1.03 1.03V7c0 .558-.472 1-1.03 1s-1-.442-1-1v-.97C5 5.474 5.442 5 6 5zm4 0c.558 0 1 .473 1 1.03V7c0 .558-.442 1-1 1s-1-.442-1-1v-.97C9 5.474 9.442 5 10 5zm2 4.978c-.03.344-.925 3.003-4 3.01-2.79.006-4-2.56-4-2.985z" fill="#babdb6"/></svg>