<svg height="16" width="16" xmlns="http://www.w3.org/2000/svg"><title>Gnome Symbolic Icon Theme</title><path d="M8 1a7 7 0 1 0 0 14A7 7 0 0 0 8 1zM6 5c.558 0 1.03.473 1.03 1.03V7c0 .558-.472 1-1.03 1s-1-.442-1-1v-.97C5 5.474 5.442 5 6 5zm4 0c.558 0 1 .473 1 1.03V7c0 .558-.442 1-1 1s-1-.442-1-1v-.97C9 5.474 9.442 5 10 5zM3 9.063c.997.636 4.016.937 5 .937.492 0 1.43.015 2.406-.094.978-.108 1.996-.36 2.594-.843v.5c0 .44-.753.92-2.156 1.187l.25.53c.28.605.083 1.277-.438 1.533l-.25.125c-.52.255-1.175-.03-1.47-.625l-.623-1.282c-.018-.033-.02-.034-.032-.06H8c-3.256 0-5-.875-5-1.407v-.5z" fill="#babdb6"/></svg>