<svg height="16" width="16" xmlns="http://www.w3.org/2000/svg"><title>Gnome Symbolic Icon Theme</title><path d="M8 1a7 7 0 1 0 0 14A7 7 0 0 0 8 1zM6 5c.558 0 1.03.473 1.03 1.03V7c0 .558-.472 1-1.03 1s-1-.442-1-1v-.97C5 5.474 5.442 5 6 5zm4 0c.558 0 1 .473 1 1.03V7c0 .558-.442 1-1 1s-1-.442-1-1v-.97C9 5.474 9.442 5 10 5zM4.594 8.812c.064-.01-.28.014-.213.032 4.482-.032 1.45 2.58 6.59 2.643a.506.506 0 0 1 .342.625.474.474 0 0 1-.593.344C5.77 12.442 7.81 9.75 4.53 9.812a.506.506 0 0 1-.343-.625.5.5 0 0 1 .407-.375z" fill="#babdb6"/></svg>