<?xml version="1.0" encoding="UTF-8" standalone="no"?>
<!-- Created with Inkscape (http://www.inkscape.org/) -->

<svg
   xmlns:dc="http://purl.org/dc/elements/1.1/"
   xmlns:cc="http://creativecommons.org/ns#"
   xmlns:rdf="http://www.w3.org/1999/02/22-rdf-syntax-ns#"
   xmlns:svg="http://www.w3.org/2000/svg"
   xmlns="http://www.w3.org/2000/svg"
   xmlns:xlink="http://www.w3.org/1999/xlink"
   xmlns:sodipodi="http://sodipodi.sourceforge.net/DTD/sodipodi-0.dtd"
   xmlns:inkscape="http://www.inkscape.org/namespaces/inkscape"
   width="96"
   height="96"
   id="svg2"
   sodipodi:version="0.32"
   inkscape:version="0.48.1 r9760"
   version="1.0"
   sodipodi:docname="emblem-default.svg"
   inkscape:output_extension="org.inkscape.output.svg.inkscape">
  <defs
     id="defs4">
    <linearGradient
       id="linearGradient3625">
      <stop
         id="stop3627"
         offset="0"
         style="stop-color:#787878;stop-opacity:1;" />
      <stop
         id="stop3629"
         offset="1"
         style="stop-color:#323232;stop-opacity:1;" />
    </linearGradient>
    <inkscape:perspective
       sodipodi:type="inkscape:persp3d"
       inkscape:vp_x="0 : 11 : 1"
       inkscape:vp_y="0 : 1000 : 0"
       inkscape:vp_z="22 : 11 : 1"
       inkscape:persp3d-origin="11 : 7.3333333 : 1"
       id="perspective22" />
    <linearGradient
       inkscape:collect="always"
       id="linearGradient3368">
      <stop
         style="stop-color:#000000;stop-opacity:1;"
         offset="0"
         id="stop3370" />
      <stop
         style="stop-color:#000000;stop-opacity:0;"
         offset="1"
         id="stop3372" />
    </linearGradient>
    <radialGradient
       inkscape:collect="always"
       xlink:href="#linearGradient3368"
       id="radialGradient3374"
       cx="10.672893"
       cy="20.477903"
       fx="10.672893"
       fy="20.477903"
       r="6.6954174"
       gradientTransform="matrix(1,0,0,0.2207335,0,15.957744)"
       gradientUnits="userSpaceOnUse" />
    <linearGradient
       id="linearGradient3278">
      <stop
         style="stop-color:#646464;stop-opacity:1;"
         offset="0"
         id="stop3280" />
      <stop
         style="stop-color:#000000;stop-opacity:1;"
         offset="1"
         id="stop3282" />
    </linearGradient>
    <radialGradient
       inkscape:collect="always"
       xlink:href="#linearGradient3278"
       id="radialGradient2406"
       gradientUnits="userSpaceOnUse"
       gradientTransform="matrix(0.225246,0,0,0.2857144,-3.4157483,-16.343092)"
       cx="64"
       cy="120.20078"
       fx="64"
       fy="120.20078"
       r="56" />
    <inkscape:perspective
       id="perspective2850"
       inkscape:persp3d-origin="0.5 : 0.33333333 : 1"
       inkscape:vp_z="1 : 0.5 : 1"
       inkscape:vp_y="0 : 1000 : 0"
       inkscape:vp_x="0 : 0.5 : 1"
       sodipodi:type="inkscape:persp3d" />
    <radialGradient
       inkscape:collect="always"
       xlink:href="#linearGradient3278"
       id="radialGradient2861"
       gradientUnits="userSpaceOnUse"
       gradientTransform="matrix(0.225246,0,0,0.2857144,-3.4157483,-15.343092)"
       cx="64"
       cy="120.20078"
       fx="64"
       fy="120.20078"
       r="56" />
    <radialGradient
       inkscape:collect="always"
       xlink:href="#linearGradient3278"
       id="radialGradient2863"
       gradientUnits="userSpaceOnUse"
       gradientTransform="matrix(0.225246,0,0,0.2857144,-3.4157483,-16.343092)"
       cx="64"
       cy="120.20078"
       fx="64"
       fy="120.20078"
       r="56" />
    <radialGradient
       inkscape:collect="always"
       xlink:href="#linearGradient3278"
       id="radialGradient2871"
       gradientUnits="userSpaceOnUse"
       gradientTransform="matrix(0.225246,0,0,0.2857144,-3.4157483,-15.343092)"
       cx="64"
       cy="120.20078"
       fx="64"
       fy="120.20078"
       r="56" />
    <radialGradient
       inkscape:collect="always"
       xlink:href="#linearGradient3278"
       id="radialGradient2873"
       gradientUnits="userSpaceOnUse"
       gradientTransform="matrix(0.225246,0,0,0.2857144,-3.4157483,-16.343092)"
       cx="64"
       cy="120.20078"
       fx="64"
       fy="120.20078"
       r="56" />
    <radialGradient
       inkscape:collect="always"
       xlink:href="#linearGradient3278"
       id="radialGradient3652"
       gradientUnits="userSpaceOnUse"
       gradientTransform="matrix(0.225246,0,0,0.2857144,-3.4157483,-15.343092)"
       cx="64"
       cy="120.20078"
       fx="64"
       fy="120.20078"
       r="56" />
    <radialGradient
       inkscape:collect="always"
       xlink:href="#linearGradient3278"
       id="radialGradient3663"
       gradientUnits="userSpaceOnUse"
       gradientTransform="matrix(0.225246,0,0,0.2857144,-33.415748,-15.343092)"
       cx="64"
       cy="120.20078"
       fx="64"
       fy="120.20078"
       r="56" />
    <radialGradient
       inkscape:collect="always"
       xlink:href="#linearGradient3278"
       id="radialGradient3665"
       gradientUnits="userSpaceOnUse"
       gradientTransform="matrix(0.225246,0,0,0.2857144,-2.4157483,-16.343092)"
       cx="64"
       cy="120.20078"
       fx="64"
       fy="120.20078"
       r="56" />
    <radialGradient
       inkscape:collect="always"
       xlink:href="#linearGradient3278"
       id="radialGradient3667"
       gradientUnits="userSpaceOnUse"
       gradientTransform="matrix(0.225246,0,0,0.2857144,-2.4157483,-16.343092)"
       cx="64"
       cy="120.20078"
       fx="64"
       fy="120.20078"
       r="56" />
    <radialGradient
       inkscape:collect="always"
       xlink:href="#linearGradient3278"
       id="radialGradient3672"
       gradientUnits="userSpaceOnUse"
       gradientTransform="matrix(0.225246,0,0,0.2857144,-33.415748,-15.343092)"
       cx="64"
       cy="120.20078"
       fx="64"
       fy="120.20078"
       r="56" />
    <clipPath
       clipPathUnits="userSpaceOnUse"
       id="clipPath3680">
      <path
         style="fill:#ff00ff;fill-opacity:1;stroke:none;display:inline"
         d="m -30,0 0,22 22,0 0,-22 -22,0 z m 11,3 c 4.416,0 8,3.583999 8,8 10e-7,4.416002 -3.584,8 -8,8 -4.416,0 -8,-3.583999 -8,-8 0,-4.416001 3.584,-8 8,-8 z m 3.03125,4.03125 -4.0625,4.71875 -2,-1.8125 -1.9375,2.09375 3.9375,3.90625 6,-6.8125 -1.9375,-2.09375 z"
         id="path3682" />
    </clipPath>
    <radialGradient
       inkscape:collect="always"
       xlink:href="#linearGradient3278"
       id="radialGradient2862"
       gradientUnits="userSpaceOnUse"
       gradientTransform="matrix(0.225246,0,0,0.2857144,-2.4157483,-16.343092)"
       cx="64"
       cy="120.20078"
       fx="64"
       fy="120.20078"
       r="56" />
    <radialGradient
       inkscape:collect="always"
       xlink:href="#linearGradient3278"
       id="radialGradient2864"
       gradientUnits="userSpaceOnUse"
       gradientTransform="matrix(0.225246,0,0,0.2857144,-2.4157483,-16.343092)"
       cx="64"
       cy="120.20078"
       fx="64"
       fy="120.20078"
       r="56" />
    <radialGradient
       inkscape:collect="always"
       xlink:href="#linearGradient3625"
       id="radialGradient2872"
       gradientUnits="userSpaceOnUse"
       gradientTransform="matrix(0.900984,0,0,1.1428576,-9.6629932,-131.37237)"
       cx="64"
       cy="120.20078"
       fx="64"
       fy="120.20078"
       r="56" />
    <radialGradient
       inkscape:collect="always"
       xlink:href="#linearGradient3278"
       id="radialGradient2876"
       gradientUnits="userSpaceOnUse"
       gradientTransform="matrix(0.900984,0,0,1.1428576,-109.66299,-131.37237)"
       cx="64"
       cy="120.20078"
       fx="64"
       fy="120.20078"
       r="56" />
    <clipPath
       clipPathUnits="userSpaceOnUse"
       id="clipPath2883">
      <path
         style="opacity:0.3;color:#000000;fill:#ff0000;fill-opacity:1;fill-rule:nonzero;stroke:none;stroke-width:4;marker:none;visibility:visible;display:inline;overflow:visible;enable-background:accumulate"
         d="m -100,-74 0,96 96,0 0,-96 -96,0 z m 48,16 c 17.664,0 32,14.335995 32,32 4e-6,17.664008 -14.336,32 -32,32 -17.664002,0 -32,-14.335996 -32,-32 0,-17.664005 14.335998,-32 32,-32 z m 12.125,16.125 -16.25,18.875 -8,-7.25 -7.75,8.375 15.75,15.625 24,-27.25 -7.75,-8.375 z"
         id="path2885" />
    </clipPath>
    <filter
       inkscape:collect="always"
       id="filter3663">
      <feGaussianBlur
         inkscape:collect="always"
         stdDeviation="0.96"
         id="feGaussianBlur3665" />
    </filter>
    <clipPath
       clipPathUnits="userSpaceOnUse"
       id="clipPath3266">
      <path
         style="opacity:0.3;color:#000000;fill:#ff0000;fill-opacity:1;fill-rule:nonzero;stroke:none;stroke-width:4;marker:none;visibility:visible;display:inline;overflow:visible;enable-background:accumulate"
         d="M 0,0 0,96 96,96 96,0 0,0 z m 12,6 72,0 c 3.324,0 6,2.676 6,6 l 0,72 c 0,3.324 -2.676,6 -6,6 L 12,90 C 8.676,90 6,87.324 6,84 L 6,12 C 6,8.676 8.676,6 12,6 z"
         id="path3268"
         inkscape:connector-curvature="0" />
    </clipPath>
    <linearGradient
       y2="90.238609"
       x2="32.251034"
       y1="6.1317081"
       x1="32.251034"
       gradientTransform="matrix(1.0238095,0,0,1.0119048,-1.1428571,-98.071429)"
       gradientUnits="userSpaceOnUse"
       id="linearGradient3101"
       xlink:href="#ButtonShadow-0"
       inkscape:collect="always" />
    <linearGradient
       id="ButtonShadow-0"
       gradientTransform="matrix(1.0058652,0,0,0.994169,100,0)"
       x1="45.447727"
       y1="92.539597"
       x2="45.447727"
       y2="7.0165396"
       gradientUnits="userSpaceOnUse">
      <stop
         style="stop-color:#000000;stop-opacity:1;"
         offset="0"
         id="stop3750-8" />
      <stop
         style="stop-color:#000000;stop-opacity:0.58823532;"
         offset="1"
         id="stop3752-5" />
    </linearGradient>
    <linearGradient
       inkscape:collect="always"
       xlink:href="#ButtonShadow-0"
       id="linearGradient3780"
       gradientUnits="userSpaceOnUse"
       gradientTransform="matrix(1.0238095,0,0,1.0119048,-1.1428571,-98.071429)"
       x1="32.251034"
       y1="6.1317081"
       x2="32.251034"
       y2="90.238609" />
    <linearGradient
       id="linearGradient4205"
       gradientTransform="matrix(1.0058652,0,0,0.994169,100,0)"
       x1="45.447727"
       y1="92.539597"
       x2="45.447727"
       y2="7.0165396"
       gradientUnits="userSpaceOnUse">
      <stop
         style="stop-color:#000000;stop-opacity:1;"
         offset="0"
         id="stop4207" />
      <stop
         style="stop-color:#000000;stop-opacity:0.58823532;"
         offset="1"
         id="stop4209" />
    </linearGradient>
    <linearGradient
       inkscape:collect="always"
       xlink:href="#ButtonShadow-0"
       id="linearGradient3772"
       gradientUnits="userSpaceOnUse"
       gradientTransform="matrix(1.0238095,0,0,1.0119048,-1.1428571,-98.071429)"
       x1="32.251034"
       y1="6.1317081"
       x2="32.251034"
       y2="90.238609" />
    <linearGradient
       id="linearGradient4212"
       gradientTransform="matrix(1.0058652,0,0,0.994169,100,0)"
       x1="45.447727"
       y1="92.539597"
       x2="45.447727"
       y2="7.0165396"
       gradientUnits="userSpaceOnUse">
      <stop
         style="stop-color:#000000;stop-opacity:1;"
         offset="0"
         id="stop4214" />
      <stop
         style="stop-color:#000000;stop-opacity:0.58823532;"
         offset="1"
         id="stop4216" />
    </linearGradient>
    <linearGradient
       inkscape:collect="always"
       xlink:href="#ButtonShadow-0"
       id="linearGradient3725"
       gradientUnits="userSpaceOnUse"
       gradientTransform="matrix(1.0238095,0,0,1.0119048,-1.1428571,-98.071429)"
       x1="32.251034"
       y1="6.1317081"
       x2="32.251034"
       y2="90.238609" />
    <linearGradient
       id="linearGradient4219"
       gradientTransform="matrix(1.0058652,0,0,0.994169,100,0)"
       x1="45.447727"
       y1="92.539597"
       x2="45.447727"
       y2="7.0165396"
       gradientUnits="userSpaceOnUse">
      <stop
         style="stop-color:#000000;stop-opacity:1;"
         offset="0"
         id="stop4221" />
      <stop
         style="stop-color:#000000;stop-opacity:0.58823532;"
         offset="1"
         id="stop4223" />
    </linearGradient>
    <linearGradient
       inkscape:collect="always"
       xlink:href="#ButtonShadow-0"
       id="linearGradient3721"
       gradientUnits="userSpaceOnUse"
       gradientTransform="translate(0,-97)"
       x1="32.251034"
       y1="6.1317081"
       x2="32.251034"
       y2="90.238609" />
    <linearGradient
       id="linearGradient4226"
       gradientTransform="matrix(1.0058652,0,0,0.994169,100,0)"
       x1="45.447727"
       y1="92.539597"
       x2="45.447727"
       y2="7.0165396"
       gradientUnits="userSpaceOnUse">
      <stop
         style="stop-color:#000000;stop-opacity:1;"
         offset="0"
         id="stop4228" />
      <stop
         style="stop-color:#000000;stop-opacity:0.58823532;"
         offset="1"
         id="stop4230" />
    </linearGradient>
    <linearGradient
       y2="5.9877172"
       x2="48"
       y1="90"
       x1="48"
       gradientUnits="userSpaceOnUse"
       id="linearGradient3052"
       xlink:href="#ButtonColor-6"
       inkscape:collect="always" />
    <linearGradient
       id="ButtonColor-6"
       x1="10.31979"
       y1="21"
       x2="10.31979"
       y2="0.99929649"
       gradientUnits="userSpaceOnUse">
      <stop
         style="stop-color:#c8c8c8;stop-opacity:1;"
         offset="0"
         id="stop3189-4" />
      <stop
         style="stop-color:#e6e6e6;stop-opacity:1;"
         offset="1"
         id="stop3191-0" />
    </linearGradient>
    <linearGradient
       inkscape:collect="always"
       xlink:href="#linearGradient3737"
       id="linearGradient3188"
       gradientUnits="userSpaceOnUse"
       x1="36.357143"
       y1="6"
       x2="36.357143"
       y2="63.893143" />
    <linearGradient
       inkscape:collect="always"
       id="linearGradient3737">
      <stop
         style="stop-color:#ffffff;stop-opacity:1;"
         offset="0"
         id="stop3739" />
      <stop
         style="stop-color:#ffffff;stop-opacity:0;"
         offset="1"
         id="stop3741" />
    </linearGradient>
    <radialGradient
       inkscape:collect="always"
       xlink:href="#linearGradient3737"
       id="radialGradient3619"
       cx="48"
       cy="90.171875"
       fx="48"
       fy="90.171875"
       r="42"
       gradientTransform="matrix(1.1573129,0,0,0.99590774,-7.551021,0.1971319)"
       gradientUnits="userSpaceOnUse" />
    <linearGradient
       y2="90.238609"
       x2="32.251034"
       y1="6.1317081"
       x1="32.251034"
       gradientTransform="translate(0,-97)"
       gradientUnits="userSpaceOnUse"
       id="linearGradient4256"
       xlink:href="#ButtonShadow-0"
       inkscape:collect="always" />
    <radialGradient
       inkscape:collect="always"
       xlink:href="#linearGradient3625"
       id="radialGradient3905"
       gradientUnits="userSpaceOnUse"
       gradientTransform="matrix(0.900984,0,0,1.1428576,-9.6629932,-130.37237)"
       cx="64"
       cy="120.20078"
       fx="64"
       fy="120.20078"
       r="56" />
    <radialGradient
       inkscape:collect="always"
       xlink:href="#linearGradient3625"
       id="radialGradient3907"
       gradientUnits="userSpaceOnUse"
       gradientTransform="matrix(0.900984,0,0,1.1428576,-9.6629932,-57.37237)"
       cx="64"
       cy="120.20078"
       fx="64"
       fy="120.20078"
       r="56" />
    <radialGradient
       inkscape:collect="always"
       xlink:href="#linearGradient3625"
       id="radialGradient3912"
       gradientUnits="userSpaceOnUse"
       gradientTransform="matrix(0.900984,0,0,1.1428576,-9.6629932,-56.37237)"
       cx="64"
       cy="120.20078"
       fx="64"
       fy="120.20078"
       r="56" />
    <radialGradient
       inkscape:collect="always"
       xlink:href="#linearGradient3625"
       id="radialGradient3916"
       gradientUnits="userSpaceOnUse"
       gradientTransform="matrix(0.900984,0,0,1.1428576,-9.6629932,-131.37237)"
       cx="64"
       cy="120.20078"
       fx="64"
       fy="120.20078"
       r="56" />
  </defs>
  <sodipodi:namedview
     id="base"
     pagecolor="#ffffff"
     bordercolor="#9a9a9a"
     borderopacity="1"
     inkscape:pageopacity="0.0"
     inkscape:pageshadow="2"
     inkscape:zoom="5.1507665"
     inkscape:cx="-24.482603"
     inkscape:cy="66.748827"
     inkscape:document-units="px"
     inkscape:current-layer="layer3"
     showgrid="true"
     inkscape:showpageshadow="false"
     showguides="true"
     inkscape:guide-bbox="true"
     inkscape:window-width="1920"
     inkscape:window-height="1030"
     inkscape:window-x="0"
     inkscape:window-y="25"
     inkscape:window-maximized="1">
    <sodipodi:guide
       orientation="1,0"
       position="0,112"
       id="guide2383" />
    <sodipodi:guide
       orientation="0,1"
       position="26.278146,128"
       id="guide2385" />
    <sodipodi:guide
       orientation="1,0"
       position="128,54.082119"
       id="guide2387" />
    <sodipodi:guide
       orientation="0,1"
       position="78.156291,0"
       id="guide2389" />
    <inkscape:grid
       type="xygrid"
       id="grid3672"
       visible="true"
       enabled="true"
       empspacing="8"
       snapvisiblegridlinesonly="true" />
  </sodipodi:namedview>
  <metadata
     id="metadata7">
    <rdf:RDF>
      <cc:Work
         rdf:about="">
        <dc:format>image/svg+xml</dc:format>
        <dc:type
           rdf:resource="http://purl.org/dc/dcmitype/StillImage" />
        <dc:title />
      </cc:Work>
    </rdf:RDF>
  </metadata>
  <g
     inkscape:groupmode="layer"
     id="layer1"
     inkscape:label="Button"
     sodipodi:insensitive="true">
    <g
       style="display:inline"
       id="g3202"
       clip-path="url(#clipPath3266)">
      <path
         transform="scale(1,-1)"
         d="m 12,-95.03125 c -5.5110903,0 -10.03125,4.52016 -10.03125,10.03125 l 0,71 c 0,5.5110902 4.5201598,10.03125 10.03125,10.03125 l 72,0 c 5.51109,0 10.03125,-4.5201597 10.03125,-10.03125 l 0,-71 c 0,-5.51109 -4.52016,-10.03125 -10.03125,-10.03125 l -72,0 z"
         id="path3786"
         style="opacity:0.07999998;fill:url(#linearGradient3101);fill-opacity:1;fill-rule:nonzero;stroke:none;display:inline"
         inkscape:original="M 12 -94.03125 C 7.028367 -94.03125 2.96875 -89.971633 2.96875 -85 L 2.96875 -14 C 2.96875 -9.0283671 7.0283671 -4.96875 12 -4.96875 L 84 -4.96875 C 88.971633 -4.96875 93.03125 -9.028367 93.03125 -14 L 93.03125 -85 C 93.03125 -89.971633 88.971633 -94.03125 84 -94.03125 L 12 -94.03125 z "
         inkscape:radius="0.99097413"
         sodipodi:type="inkscape:offset" />
      <path
         transform="scale(1,-1)"
         d="m 12,-94.03125 c -4.971633,0 -9.03125,4.059617 -9.03125,9.03125 l 0,71 c 0,4.9716329 4.0596171,9.03125 9.03125,9.03125 l 72,0 c 4.971633,0 9.03125,-4.059617 9.03125,-9.03125 l 0,-71 c 0,-4.971633 -4.059617,-9.03125 -9.03125,-9.03125 l -72,0 z"
         id="path3778"
         style="opacity:0.1;fill:url(#linearGradient3780);fill-opacity:1;fill-rule:nonzero;stroke:none;display:inline"
         inkscape:original="M 12 -93 C 7.5908667 -93 4 -89.409133 4 -85 L 4 -14 C 4 -9.5908667 7.5908667 -6 12 -6 L 84 -6 C 88.409133 -6 92 -9.5908667 92 -14 L 92 -85 C 92 -89.409133 88.409133 -93 84 -93 L 12 -93 z "
         inkscape:radius="1.0360184"
         sodipodi:type="inkscape:offset" />
      <path
         transform="scale(1,-1)"
         d="m 12,-93 c -4.4091333,0 -8,3.590867 -8,8 l 0,71 c 0,4.4091333 3.5908667,8 8,8 l 72,0 c 4.409133,0 8,-3.5908667 8,-8 l 0,-71 c 0,-4.409133 -3.590867,-8 -8,-8 l -72,0 z"
         id="path3770"
         style="opacity:0.2;fill:url(#linearGradient3772);fill-opacity:1;fill-rule:nonzero;stroke:none;display:inline"
         inkscape:original="M 12 -92 C 8.122 -92 5 -88.878 5 -85 L 5 -14 C 5 -10.122 8.122 -7 12 -7 L 84 -7 C 87.878 -7 91 -10.122 91 -14 L 91 -85 C 91 -88.878 87.878 -92 84 -92 L 12 -92 z "
         inkscape:radius="0.98962283"
         sodipodi:type="inkscape:offset" />
      <rect
         transform="scale(1,-1)"
         ry="7"
         rx="7"
         y="-92"
         x="5"
         height="85"
         width="86"
         id="rect3723"
         style="opacity:0.3;fill:url(#linearGradient3725);fill-opacity:1;fill-rule:nonzero;stroke:none;display:inline" />
      <rect
         style="opacity:0.45;fill:url(#linearGradient4256);fill-opacity:1;fill-rule:nonzero;stroke:none;display:inline"
         id="rect3716"
         width="84"
         height="84"
         x="6"
         y="-91"
         rx="6"
         ry="6"
         transform="scale(1,-1)" />
    </g>
    <rect
       style="opacity:0.75;fill:url(#linearGradient3052);fill-opacity:1;fill-rule:nonzero;stroke:none;display:inline"
       id="rect2419"
       width="84"
       height="84"
       x="6"
       y="6"
       rx="6"
       ry="6" />
    <path
       inkscape:connector-curvature="0"
       style="opacity:0.5;fill:url(#linearGradient3188);fill-opacity:1;fill-rule:nonzero;stroke:none;display:inline"
       d="M 12,6 C 8.676,6 6,8.676 6,12 l 0,2 0,68 0,2 c 0,0.334721 0.04135,0.6507 0.09375,0.96875 0.0487,0.295596 0.09704,0.596915 0.1875,0.875 0.00988,0.03038 0.020892,0.0636 0.03125,0.09375 0.098865,0.287771 0.2348802,0.547452 0.375,0.8125 0.1445918,0.273507 0.3156161,0.535615 0.5,0.78125 0.1843839,0.245635 0.3737765,0.473472 0.59375,0.6875 0.439947,0.428056 0.94291,0.814526 1.5,1.09375 0.278545,0.139612 0.5734731,0.246947 0.875,0.34375 -0.2562018,-0.100222 -0.4867109,-0.236272 -0.71875,-0.375 -0.00741,-0.0044 -0.023866,0.0045 -0.03125,0 -0.031933,-0.0193 -0.062293,-0.04251 -0.09375,-0.0625 -0.120395,-0.0767 -0.2310226,-0.163513 -0.34375,-0.25 -0.1061728,-0.0808 -0.2132809,-0.161112 -0.3125,-0.25 C 8.4783201,88.557317 8.3087904,88.373362 8.15625,88.1875 8.0486711,88.057245 7.9378561,87.922215 7.84375,87.78125 7.818661,87.74287 7.805304,87.69538 7.78125,87.65625 7.716487,87.553218 7.6510225,87.451733 7.59375,87.34375 7.4927417,87.149044 7.3880752,86.928049 7.3125,86.71875 7.30454,86.69694 7.288911,86.6782 7.28125,86.65625 7.2494249,86.5643 7.2454455,86.469419 7.21875,86.375 7.188418,86.268382 7.148361,86.171969 7.125,86.0625 7.052121,85.720988 7,85.364295 7,85 L 7,83 7,15 7,13 C 7,10.218152 9.2181517,8 12,8 l 2,0 68,0 2,0 c 2.781848,0 5,2.218152 5,5 l 0,2 0,68 0,2 c 0,0.364295 -0.05212,0.720988 -0.125,1.0625 -0.04415,0.206893 -0.08838,0.397658 -0.15625,0.59375 -0.0077,0.02195 -0.0233,0.04069 -0.03125,0.0625 -0.06274,0.173739 -0.138383,0.367449 -0.21875,0.53125 -0.04158,0.0828 -0.07904,0.169954 -0.125,0.25 -0.0546,0.09721 -0.126774,0.18835 -0.1875,0.28125 -0.09411,0.140965 -0.204921,0.275995 -0.3125,0.40625 -0.143174,0.17445 -0.303141,0.346998 -0.46875,0.5 -0.01117,0.0102 -0.01998,0.02115 -0.03125,0.03125 -0.138386,0.125556 -0.285091,0.234436 -0.4375,0.34375 -0.102571,0.07315 -0.204318,0.153364 -0.3125,0.21875 -0.0074,0.0045 -0.02384,-0.0044 -0.03125,0 -0.232039,0.138728 -0.462548,0.274778 -0.71875,0.375 0.301527,-0.0968 0.596455,-0.204138 0.875,-0.34375 0.55709,-0.279224 1.060053,-0.665694 1.5,-1.09375 0.219973,-0.214028 0.409366,-0.441865 0.59375,-0.6875 0.184384,-0.245635 0.355408,-0.507743 0.5,-0.78125 0.14012,-0.265048 0.276135,-0.524729 0.375,-0.8125 0.01041,-0.03078 0.02133,-0.06274 0.03125,-0.09375 0.09046,-0.278085 0.1388,-0.579404 0.1875,-0.875 C 89.95865,84.6507 90,84.334721 90,84 l 0,-2 0,-68 0,-2 C 90,8.676 87.324,6 84,6 L 12,6 z"
       id="rect3728" />
    <path
       inkscape:connector-curvature="0"
       id="path3615"
       d="M 12,90 C 8.676,90 6,87.324 6,84 L 6,82 6,14 6,12 c 0,-0.334721 0.04135,-0.6507 0.09375,-0.96875 0.0487,-0.295596 0.09704,-0.596915 0.1875,-0.875 C 6.29113,10.12587 6.302142,10.09265 6.3125,10.0625 6.411365,9.774729 6.5473802,9.515048 6.6875,9.25 6.8320918,8.976493 7.0031161,8.714385 7.1875,8.46875 7.3718839,8.223115 7.5612765,7.995278 7.78125,7.78125 8.221197,7.353194 8.72416,6.966724 9.28125,6.6875 9.559795,6.547888 9.8547231,6.440553 10.15625,6.34375 9.9000482,6.443972 9.6695391,6.580022 9.4375,6.71875 c -0.00741,0.0044 -0.023866,-0.0045 -0.03125,0 -0.031933,0.0193 -0.062293,0.04251 -0.09375,0.0625 -0.120395,0.0767 -0.2310226,0.163513 -0.34375,0.25 -0.1061728,0.0808 -0.2132809,0.161112 -0.3125,0.25 C 8.4783201,7.442683 8.3087904,7.626638 8.15625,7.8125 8.0486711,7.942755 7.9378561,8.077785 7.84375,8.21875 7.818661,8.25713 7.805304,8.30462 7.78125,8.34375 7.716487,8.446782 7.6510225,8.548267 7.59375,8.65625 7.4927417,8.850956 7.3880752,9.071951 7.3125,9.28125 7.30454,9.30306 7.288911,9.3218 7.28125,9.34375 7.2494249,9.4357 7.2454455,9.530581 7.21875,9.625 7.188418,9.731618 7.148361,9.828031 7.125,9.9375 7.052121,10.279012 7,10.635705 7,11 l 0,2 0,68 0,2 c 0,2.781848 2.2181517,5 5,5 l 2,0 68,0 2,0 c 2.781848,0 5,-2.218152 5,-5 l 0,-2 0,-68 0,-2 C 89,10.635705 88.94788,10.279012 88.875,9.9375 88.83085,9.730607 88.78662,9.539842 88.71875,9.34375 88.71105,9.3218 88.69545,9.30306 88.6875,9.28125 88.62476,9.107511 88.549117,8.913801 88.46875,8.75 88.42717,8.6672 88.38971,8.580046 88.34375,8.5 88.28915,8.40279 88.216976,8.31165 88.15625,8.21875 88.06214,8.077785 87.951329,7.942755 87.84375,7.8125 87.700576,7.63805 87.540609,7.465502 87.375,7.3125 87.36383,7.3023 87.35502,7.29135 87.34375,7.28125 87.205364,7.155694 87.058659,7.046814 86.90625,6.9375 86.803679,6.86435 86.701932,6.784136 86.59375,6.71875 c -0.0074,-0.0045 -0.02384,0.0044 -0.03125,0 -0.232039,-0.138728 -0.462548,-0.274778 -0.71875,-0.375 0.301527,0.0968 0.596455,0.204138 0.875,0.34375 0.55709,0.279224 1.060053,0.665694 1.5,1.09375 0.219973,0.214028 0.409366,0.441865 0.59375,0.6875 0.184384,0.245635 0.355408,0.507743 0.5,0.78125 0.14012,0.265048 0.276135,0.524729 0.375,0.8125 0.01041,0.03078 0.02133,0.06274 0.03125,0.09375 0.09046,0.278085 0.1388,0.579404 0.1875,0.875 C 89.95865,11.3493 90,11.665279 90,12 l 0,2 0,68 0,2 c 0,3.324 -2.676,6 -6,6 l -72,0 z"
       style="opacity:0.2;fill:url(#radialGradient3619);fill-opacity:1;fill-rule:nonzero;stroke:none;display:inline" />
  </g>
  <g
     inkscape:groupmode="layer"
     id="layer3"
     inkscape:label="Emblem"
     style="display:inline"
     transform="translate(0,74)">
    <path
       id="path2874"
       d="m -52,-58 c -17.664002,0 -32,14.335995 -32,32 0,17.664004 14.335998,32 32,32 17.664,0 32.000004,-14.335992 32,-32 0,-17.664005 -14.336,-32 -32,-32 z m 12.125,16.125 7.75,8.375 -24,27.25 -15.75,-15.625 7.75,-8.375 8,7.25 16.25,-18.875 z"
       style="opacity:0.2;fill:none;stroke:#ffffff;stroke-width:4;stroke-miterlimit:4;stroke-dasharray:none;filter:url(#filter3663)"
       clip-path="url(#clipPath2883)"
       transform="translate(100,0)"
       inkscape:connector-curvature="0" />
    <path
       style="fill:url(#radialGradient2872);fill-opacity:1;stroke:none"
       d="M 48,-58 C 30.335998,-58 16,-43.664005 16,-26 16,-8.335996 30.335998,6 48,6 65.664,6 80.000004,-8.335992 80,-26 80,-43.664005 65.664,-58 48,-58 z m 12.125,16.125 7.75,8.375 -24,27.25 -15.75,-15.625 7.75,-8.375 8,7.25 16.25,-18.875 z"
       id="path2505"
       inkscape:connector-curvature="0" />
    <rect
       style="opacity:0.3;color:#000000;fill:#ff0000;fill-opacity:1;fill-rule:nonzero;stroke:none;stroke-width:4;marker:none;visibility:visible;display:inline;overflow:visible;enable-background:accumulate"
       id="rect2854"
       width="96"
       height="96"
       x="-100"
       y="-74" />
    <path
       style="fill:#000000;fill-opacity:1;stroke:none;opacity:0.1"
       d="M 48 16 C 30.335998 16 16 30.335995 16 48 C 16 65.664004 30.335998 80 48 80 C 65.664 80 80.000004 65.664008 80 48 C 80 30.335995 65.664 16 48 16 z M 48 18.03125 C 64.572405 18.03125 77.96875 31.42759 77.96875 48 C 77.968754 64.572413 64.572406 77.96875 48 77.96875 C 31.427593 77.96875 18.03125 64.572409 18.03125 48 C 18.03125 31.427589 31.427592 18.03125 48 18.03125 z M 60 30.09375 A 2.0177031 2.0177031 0 0 0 58.59375 30.8125 L 43.6875 48.125 L 37.21875 42.25 A 2.0177031 2.0177031 0 0 0 34.40625 42.375 L 26.65625 50.75 A 2.0177031 2.0177031 0 0 0 26.71875 53.5625 L 42.46875 69.1875 A 2.0177031 2.0177031 0 0 0 45.375 69.09375 L 69.375 41.84375 A 2.0177031 2.0177031 0 0 0 69.34375 39.125 L 61.59375 30.75 A 2.0177031 2.0177031 0 0 0 60.21875 30.09375 A 2.0177031 2.0177031 0 0 0 60 30.09375 z M 60.125 32.125 L 67.875 40.5 L 43.875 67.75 L 28.125 52.125 L 35.875 43.75 L 43.875 51 L 60.125 32.125 z "
       transform="translate(0,-74)"
       id="path3891" />
    <path
       style="fill:#000000;fill-opacity:1;stroke:none;opacity:0.2"
       d="M 48 16 C 30.335998 16 16 30.335995 16 48 C 16 65.664004 30.335998 80 48 80 C 65.664 80 80.000004 65.664008 80 48 C 80 30.335995 65.664 16 48 16 z M 48 17.03125 C 65.108769 17.03125 78.96875 30.891226 78.96875 48 C 78.968754 65.108777 65.108769 78.96875 48 78.96875 C 30.891229 78.96875 17.03125 65.108773 17.03125 48 C 17.03125 30.891226 30.891229 17.03125 48 17.03125 z M 59.9375 31.09375 A 1.0262885 1.0262885 0 0 0 59.34375 31.46875 L 43.78125 49.53125 L 36.5625 43 A 1.0262885 1.0262885 0 0 0 35.125 43.0625 L 27.375 51.4375 A 1.0262885 1.0262885 0 0 0 27.40625 52.84375 L 43.15625 68.46875 A 1.0262885 1.0262885 0 0 0 44.65625 68.4375 L 68.65625 41.1875 A 1.0262885 1.0262885 0 0 0 68.625 39.8125 L 60.875 31.4375 A 1.0262885 1.0262885 0 0 0 60.0625 31.09375 A 1.0262885 1.0262885 0 0 0 59.9375 31.09375 z M 60.125 32.125 L 67.875 40.5 L 43.875 67.75 L 28.125 52.125 L 35.875 43.75 L 43.875 51 L 60.125 32.125 z "
       transform="translate(0,-74)"
       id="path3119" />
    <path
       style="fill:#000000;fill-opacity:1;stroke:none;opacity:0.3"
       d="M 48 16 C 30.335998 16 16 30.335995 16 48 C 16 48.166582 15.997459 48.334019 16 48.5 C 16.266875 31.065725 30.50258 17 48 17 C 65.497418 17 79.733125 31.065725 80 48.5 C 80.002541 48.334019 80 48.166582 80 48 C 80 30.335995 65.664 16 48 16 z M 67.4375 41 L 43.875 67.75 L 28.59375 52.59375 L 28.125 53.125 L 43.875 68.75 L 67.875 41.5 L 67.4375 41 z "
       transform="translate(0,-74)"
       id="path3901" />
    <path
       style="fill:#ffffff;fill-opacity:1;stroke:none;opacity:0.5"
       d="M 60.125 32.125 L 43.875 51 L 35.875 43.75 L 28.125 52.125 L 28.59375 52.59375 L 35.875 44.75 L 43.875 52 L 60.125 33.125 L 67.4375 41 L 67.875 40.5 L 60.125 32.125 z M 16 48.5 C 15.997459 48.665981 16 48.833418 16 49 C 16 66.664004 30.335998 81 48 81 C 65.664 81 80.000004 66.664008 80 49 C 80 48.833418 80.002541 48.665981 80 48.5 C 79.733129 65.934277 65.497418 80 48 80 C 30.50258 80 16.266875 65.934274 16 48.5 z "
       transform="translate(0,-74)"
       id="path3910" />
  </g>
</svg>
