<?xml version="1.0" encoding="UTF-8" standalone="no"?>
<!-- Created with Inkscape (http://www.inkscape.org/) -->

<svg
   xmlns:dc="http://purl.org/dc/elements/1.1/"
   xmlns:cc="http://creativecommons.org/ns#"
   xmlns:rdf="http://www.w3.org/1999/02/22-rdf-syntax-ns#"
   xmlns:svg="http://www.w3.org/2000/svg"
   xmlns="http://www.w3.org/2000/svg"
   xmlns:xlink="http://www.w3.org/1999/xlink"
   xmlns:sodipodi="http://sodipodi.sourceforge.net/DTD/sodipodi-0.dtd"
   xmlns:inkscape="http://www.inkscape.org/namespaces/inkscape"
   width="22"
   height="22"
   id="svg2"
   sodipodi:version="0.32"
   inkscape:version="0.48.0 r9654"
   version="1.0"
   sodipodi:docname="call-start.svg"
   inkscape:output_extension="org.inkscape.output.svg.inkscape">
  <defs
     id="defs4">
    <linearGradient
       id="StandardGradient"
       gradientTransform="scale(1.1310246,0.8841541)"
       x1="11.162445"
       y1="5.6551228"
       x2="11.162445"
       y2="18.097509"
       gradientUnits="userSpaceOnUse">
      <stop
         style="stop-color:#000000;stop-opacity:0.86274511;"
         offset="0"
         id="stop3280" />
      <stop
         style="stop-color:#000000;stop-opacity:0.47058824;"
         offset="1"
         id="stop3282" />
    </linearGradient>
    <linearGradient
       y2="349.2926"
       x2="627.67029"
       y1="347.86285"
       x1="652.021"
       gradientTransform="matrix(0.03851176,-0.65608659,0.65590557,0.03850112,-241.27566,417.35789)"
       gradientUnits="userSpaceOnUse"
       id="linearGradient4343"
       xlink:href="#StandardGradient"
       inkscape:collect="always" />
    <linearGradient
       inkscape:collect="always"
       xlink:href="#StandardGradient"
       id="linearGradient3637"
       gradientUnits="userSpaceOnUse"
       gradientTransform="matrix(0.03851176,-0.65608659,0.65590557,0.03850112,-241.27566,418.35789)"
       x1="652.021"
       y1="347.86285"
       x2="627.67029"
       y2="349.2926" />
    <linearGradient
       inkscape:collect="always"
       xlink:href="#StandardGradient"
       id="linearGradient3639"
       gradientUnits="userSpaceOnUse"
       gradientTransform="matrix(0.03851176,-0.65608659,0.65590557,0.03850112,-241.27566,417.35789)"
       x1="652.021"
       y1="347.86285"
       x2="627.67029"
       y2="349.2926" />
    <linearGradient
       inkscape:collect="always"
       xlink:href="#StandardGradient"
       id="linearGradient3644"
       gradientUnits="userSpaceOnUse"
       gradientTransform="matrix(0.03851176,-0.65608659,0.65590557,0.03850112,-241.27566,418.35789)"
       x1="652.021"
       y1="347.86285"
       x2="627.67029"
       y2="349.2926" />
    <linearGradient
       inkscape:collect="always"
       xlink:href="#StandardGradient"
       id="linearGradient3648"
       gradientUnits="userSpaceOnUse"
       gradientTransform="matrix(0.03851176,-0.65608659,0.65590557,0.03850112,-241.27566,417.35789)"
       x1="652.021"
       y1="347.86285"
       x2="627.67029"
       y2="349.2926" />
    <linearGradient
       inkscape:collect="always"
       xlink:href="#StandardGradient"
       id="linearGradient3653"
       gradientUnits="userSpaceOnUse"
       gradientTransform="matrix(0.03851176,-0.65608659,0.65590557,0.03850112,-271.27566,417.35789)"
       x1="652.021"
       y1="347.86285"
       x2="627.67029"
       y2="349.2926" />
    <clipPath
       clipPathUnits="userSpaceOnUse"
       id="clipPath3660">
      <path
         style="fill:#ff00ff;fill-opacity:1;stroke:none;display:inline"
         d="m -30,0 0,22 22,0 0,-22 -22,0 z m 15.71875,2.96875 c 0.473287,0.012983 1.318187,0.1802241 1.65625,0.375 0.457421,0.2634888 1.060326,1.1079511 1.3125,1.78125 0.262657,0.701272 0.410568,1.9035449 0.28125,2.5 -0.07568,0.3486518 -0.599112,1.8683032 -0.84375,2.46875 -0.339831,0.834114 -1.098256,2.177649 -1.65625,2.90625 -0.666825,0.8707 -1.30179,1.527895 -2.5,2.5625 -1.839356,1.588211 -3.646068,2.657091 -5.5,3.25 -0.85446,0.273249 -1.179038,0.321244 -1.875,0.28125 -1.389901,-0.07942 -2.869811,-0.915032 -3.375,-1.90625 -0.143308,-0.281193 -0.172397,-0.3921 -0.15625,-1.09375 0.02054,-0.892635 0.06729,-1.032097 0.5,-1.21875 0.691177,-0.298085 3.553483,-1.2597 3.71875,-1.25 0.272752,0.01601 0.940067,0.482519 1.46875,1.03125 0.586932,0.609178 0.693121,0.630467 1.5,0.1875 1.647676,-0.904672 2.94591,-2.08013 3.96875,-3.5625 0.530601,-0.768966 1.080731,-1.809453 1.09375,-2.03125 0.0185,-0.3150893 -0.03777,-0.4369827 -0.5625,-0.875 -0.616676,-0.5147355 -1.308177,-1.1945556 -1.40625,-1.40625 -0.09997,-0.2158281 -0.0742,-0.2490027 0.75,-1.71875 0.386356,-0.6889675 0.799082,-1.4356856 0.9375,-1.6875 0.138385,-0.2518339 0.31344,-0.5172162 0.375,-0.5625 0.0502,-0.036924 0.154738,-0.035578 0.3125,-0.03125 z"
         id="path3662" />
    </clipPath>
    <filter
       inkscape:collect="always"
       id="filter3664">
      <feGaussianBlur
         inkscape:collect="always"
         stdDeviation="0.48133304"
         id="feGaussianBlur3666" />
    </filter>
    <linearGradient
       inkscape:collect="always"
       xlink:href="#StandardGradient"
       id="linearGradient5743"
       gradientUnits="userSpaceOnUse"
       gradientTransform="matrix(0.03851176,-0.65608659,0.65590557,0.03850112,-241.27566,417.35789)"
       x1="652.021"
       y1="347.86285"
       x2="627.67029"
       y2="349.2926" />
    <linearGradient
       inkscape:collect="always"
       xlink:href="#StandardGradient"
       id="linearGradient5747"
       gradientUnits="userSpaceOnUse"
       gradientTransform="matrix(0.03851176,-0.65608659,0.65590557,0.03850112,-241.27566,417.35789)"
       x1="652.021"
       y1="347.86285"
       x2="627.67029"
       y2="349.2926" />
  </defs>
  <sodipodi:namedview
     id="base"
     pagecolor="#ffffff"
     bordercolor="#9a9a9a"
     borderopacity="1"
     inkscape:pageopacity="0.0"
     inkscape:pageshadow="2"
     inkscape:zoom="16.540628"
     inkscape:cx="-9.4919718"
     inkscape:cy="6.4966956"
     inkscape:document-units="px"
     inkscape:current-layer="layer3"
     showgrid="true"
     inkscape:showpageshadow="false"
     showguides="true"
     inkscape:guide-bbox="true"
     inkscape:window-width="1920"
     inkscape:window-height="1029"
     inkscape:window-x="0"
     inkscape:window-y="25"
     inkscape:window-maximized="1">
    <sodipodi:guide
       orientation="1,0"
       position="0,112"
       id="guide2383" />
    <sodipodi:guide
       orientation="0,1"
       position="26.278146,128"
       id="guide2385" />
    <sodipodi:guide
       orientation="1,0"
       position="128,54.082119"
       id="guide2387" />
    <sodipodi:guide
       orientation="0,1"
       position="78.156291,0"
       id="guide2389" />
    <inkscape:grid
       type="xygrid"
       id="grid3672"
       visible="true"
       enabled="true" />
  </sodipodi:namedview>
  <metadata
     id="metadata7">
    <rdf:RDF>
      <cc:Work
         rdf:about="">
        <dc:format>image/svg+xml</dc:format>
        <dc:type
           rdf:resource="http://purl.org/dc/dcmitype/StillImage" />
      </cc:Work>
    </rdf:RDF>
  </metadata>
  <g
     inkscape:groupmode="layer"
     id="layer3"
     inkscape:label="Cross"
     style="display:inline">
    <path
       style="fill:#ffffff;fill-opacity:1;display:inline;opacity:0.15"
       d="M 15.40625 2 C 15.271468 2.0175127 15.121301 2.0145854 14.84375 2.21875 C 14.640991 2.3679007 14.611342 2.4056453 14.5625 2.46875 C 14.513658 2.5318547 14.480929 2.5908856 14.4375 2.65625 C 14.350642 2.7869788 14.27056 2.9425961 14.1875 3.09375 C 14.051235 3.3416479 13.634257 4.0960257 13.25 4.78125 C 12.838484 5.515079 12.643031 5.8644909 12.5 6.1875 C 12.428485 6.3490045 12.349512 6.5181041 12.34375 6.78125 C 12.337988 7.0443959 12.433104 7.2980436 12.46875 7.375 C 12.592708 7.6425686 12.669648 7.7153425 12.78125 7.84375 C 12.892852 7.9721575 13.013463 8.1080085 13.15625 8.25 C 13.441823 8.533983 13.792335 8.8473265 14.125 9.125 C 14.238253 9.2195375 14.203527 9.2039157 14.25 9.25 C 14.203857 9.3485901 14.16632 9.4581468 14.09375 9.59375 C 13.905606 9.9453138 13.644422 10.373582 13.40625 10.71875 C 12.465109 12.082716 11.306731 13.162421 9.78125 14 C 9.675291 14.05817 9.6544568 14.068452 9.59375 14.09375 C 9.5540353 14.057288 9.5208804 14.055291 9.4375 13.96875 C 9.127008 13.646484 8.7944144 13.384598 8.46875 13.15625 C 8.1430856 12.927902 7.9836925 12.693813 7.34375 12.65625 C 7.0588174 12.639526 7.0573111 12.675012 7 12.6875 C 6.9426889 12.699988 6.900929 12.703203 6.84375 12.71875 C 6.7293921 12.749844 6.5948197 12.795134 6.4375 12.84375 C 6.1228607 12.940983 5.7292953 13.078683 5.3125 13.21875 C 4.4789094 13.498885 3.6318186 13.808378 3.1875 14 C 2.9021915 14.12307 2.424802 14.409515 2.25 14.84375 C 2.075198 15.277985 2.1043818 15.600436 2.09375 16.0625 C 2.0853416 16.427882 2.083974 16.670841 2.125 16.9375 C 2.166026 17.204159 2.2607348 17.462111 2.34375 17.625 C 3.0966025 19.10215 4.7939101 19.963222 6.53125 20.0625 C 7.2887824 20.106032 7.8590767 20.03491 8.75 19.75 C 10.751822 19.109794 12.679583 17.934057 14.59375 16.28125 C 15.81743 15.224653 16.545733 14.513339 17.25 13.59375 C 17.899932 12.745101 18.638517 11.432713 19.03125 10.46875 C 19.170234 10.127624 19.356467 9.6036338 19.53125 9.09375 C 19.706033 8.5838662 19.832074 8.1854719 19.90625 7.84375 C 20.125141 6.834157 19.942109 5.7113395 19.59375 4.78125 C 19.42536 4.3316513 19.1934 3.8936365 18.90625 3.5 C 18.6191 3.1063635 18.300925 2.7633468 17.84375 2.5 C 17.372579 2.228534 16.947828 2.1464047 16.46875 2.0625 C 16.229211 2.0205477 16.009091 2.0071955 15.78125 2 C 15.66733 1.9964022 15.541032 1.9824873 15.40625 2 z M 15.71875 2.96875 C 16.192037 2.9817333 17.036937 3.1489741 17.375 3.34375 C 17.832421 3.6072388 18.435326 4.4517011 18.6875 5.125 C 18.950157 5.826272 19.098068 7.0285449 18.96875 7.625 C 18.89307 7.9736518 18.369638 9.4933032 18.125 10.09375 C 17.785169 10.927864 17.026744 12.271399 16.46875 13 C 15.801925 13.8707 15.16696 14.527895 13.96875 15.5625 C 12.129394 17.150711 10.322682 18.219591 8.46875 18.8125 C 7.6142896 19.085749 7.2897121 19.133744 6.59375 19.09375 C 5.2038496 19.014326 3.7239396 18.178718 3.21875 17.1875 C 3.0754421 16.906307 3.0463532 16.7954 3.0625 16.09375 C 3.083039 15.201115 3.1297897 15.061653 3.5625 14.875 C 4.2536771 14.576915 7.1159829 13.6153 7.28125 13.625 C 7.5540023 13.64101 8.2213175 14.107519 8.75 14.65625 C 9.3369326 15.265428 9.4431212 15.286717 10.25 14.84375 C 11.897676 13.939078 13.19591 12.76362 14.21875 11.28125 C 14.749351 10.512284 15.299481 9.471797 15.3125 9.25 C 15.331 8.9349107 15.274731 8.8130173 14.75 8.375 C 14.133324 7.8602645 13.441823 7.1804444 13.34375 6.96875 C 13.24378 6.7529219 13.269546 6.7197473 14.09375 5.25 C 14.480106 4.5610325 14.892832 3.8143144 15.03125 3.5625 C 15.169635 3.3106661 15.34469 3.0452838 15.40625 3 C 15.456447 2.9630756 15.560988 2.9644222 15.71875 2.96875 z "
       id="path5745" />
    <path
       style="fill:url(#linearGradient4343);fill-opacity:1;display:inline"
       d="m 18.961332,7.6361716 c -0.07568,0.3486518 -0.58957,1.8720316 -0.834208,2.4724784 -0.339831,0.834114 -1.106853,2.169145 -1.664847,2.897746 -0.666825,0.8707 -1.291263,1.508613 -2.489473,2.543218 -1.839356,1.588211 -3.651258,2.658245 -5.5051899,3.251154 C 7.6131537,19.074017 7.2772758,19.124554 6.5813137,19.08456 5.1914133,19.005136 3.7106292,18.167728 3.2054396,17.17651 3.0621317,16.895317 3.0475172,16.782361 3.063664,16.080711 3.084203,15.188076 3.13907,15.057629 3.5717803,14.870976 c 0.6911771,-0.298085 3.5514042,-1.261167 3.7166713,-1.251467 0.2727523,0.01601 0.9350887,0.482734 1.4637712,1.031465 0.5869326,0.609178 0.6829944,0.620627 1.4898732,0.17766 1.647676,-0.904672 2.950192,-2.068921 3.973032,-3.551291 0.530601,-0.768966 1.098793,-1.8045378 1.111812,-2.0263348 0.0185,-0.3150893 -0.06582,-0.4404373 -0.590551,-0.8784546 -0.616676,-0.5147355 -1.286922,-1.1959558 -1.384995,-1.4076502 -0.09997,-0.2158281 -0.09156,-0.2353792 0.732644,-1.7051265 0.386356,-0.6889675 0.81569,-1.4587103 0.954108,-1.7105247 0.138385,-0.2518339 0.301979,-0.4949118 0.363539,-0.5401956 0.200787,-0.1476977 1.507279,0.076728 1.95803,0.3364292 0.457421,0.2634888 1.090759,1.0995977 1.342933,1.7728966 0.262657,0.701272 0.387998,1.9213703 0.25868,2.5178254 z"
       id="path4609"
       sodipodi:nodetypes="cssssssssssssssssssssc"
       inkscape:export-filename="/home/matthieu/Interne/Communication/Site Web/Version 3.0/Accueil temporaire/images/phone_square.png"
       inkscape:export-xdpi="90"
       inkscape:export-ydpi="90" />
    <path
       style="fill:#000000;fill-opacity:1;display:inline;opacity:0.5"
       d="M 15.71875 2.96875 C 15.560988 2.9644222 15.456447 2.9630756 15.40625 3 C 15.34469 3.0452838 15.169635 3.3106661 15.03125 3.5625 C 14.892832 3.8143144 14.480106 4.5610325 14.09375 5.25 C 13.269546 6.7197473 13.24378 6.7529219 13.34375 6.96875 C 13.364732 7.0140396 13.495269 7.1367081 13.5625 7.21875 C 13.680571 6.9886671 13.794985 6.7827679 14.09375 6.25 C 14.480106 5.5610325 14.892832 4.8143144 15.03125 4.5625 C 15.169635 4.3106661 15.34469 4.0452838 15.40625 4 C 15.607037 3.8523023 16.924249 4.0840488 17.375 4.34375 C 17.832421 4.6072388 18.435326 5.4517011 18.6875 6.125 C 18.818829 6.475636 18.920747 6.9390095 18.96875 7.40625 C 19.039021 6.7669448 18.923212 5.7543312 18.6875 5.125 C 18.435326 4.4517011 17.832421 3.6072388 17.375 3.34375 C 17.036937 3.1489741 16.192037 2.9817333 15.71875 2.96875 z M 15.125 9.71875 C 14.913823 10.148339 14.573589 10.767004 14.21875 11.28125 C 13.19591 12.76362 11.897676 13.939078 10.25 14.84375 C 9.4431212 15.286717 9.3369326 15.265428 8.75 14.65625 C 8.2213175 14.107519 7.5540023 13.64101 7.28125 13.625 C 7.1159829 13.6153 4.2536771 14.576915 3.5625 14.875 C 3.1297897 15.061653 3.083039 15.201115 3.0625 16.09375 C 3.0538856 16.468084 3.0387323 16.658343 3.0625 16.8125 C 3.0926387 16.186265 3.1837121 16.038393 3.5625 15.875 C 4.2536771 15.576915 7.1159829 14.6153 7.28125 14.625 C 7.5540023 14.64101 8.2213175 15.107519 8.75 15.65625 C 9.3369326 16.265428 9.4431212 16.286717 10.25 15.84375 C 11.897676 14.939078 13.19591 13.76362 14.21875 12.28125 C 14.749351 11.512284 15.299481 10.471797 15.3125 10.25 C 15.324135 10.051841 15.27867 9.8917871 15.125 9.71875 z "
       id="path3633" />
    <path
       style="fill:#ffffff;fill-opacity:1;display:inline;opacity:0.3"
       d="M 13.5625 7.21875 C 13.354848 7.623397 13.280018 7.8311573 13.34375 7.96875 C 13.441823 8.1804444 14.133324 8.8602645 14.75 9.375 C 14.944729 9.537549 15.034322 9.6166438 15.125 9.71875 C 15.229602 9.5059628 15.308187 9.3234703 15.3125 9.25 C 15.331 8.9349109 15.274731 8.8130173 14.75 8.375 C 14.265255 7.9703862 13.809522 7.5201918 13.5625 7.21875 z M 18.96875 7.625 C 18.89307 7.9736518 18.369638 9.493303 18.125 10.09375 C 17.785169 10.927864 17.026744 12.271399 16.46875 13 C 15.801925 13.8707 15.16696 14.527895 13.96875 15.5625 C 12.129394 17.150711 10.322682 18.219591 8.46875 18.8125 C 7.6142896 19.085749 7.2897121 19.133744 6.59375 19.09375 C 5.2038496 19.014326 3.7239396 18.178718 3.21875 17.1875 C 3.1518976 17.056325 3.0832824 16.947294 3.0625 16.8125 C 3.0582096 16.901648 3.0650595 16.982514 3.0625 17.09375 C 3.0463532 17.7954 3.0754421 17.906307 3.21875 18.1875 C 3.7239396 19.178718 5.2038496 20.014326 6.59375 20.09375 C 7.2897121 20.133744 7.6142896 20.085749 8.46875 19.8125 C 10.322682 19.219591 12.129394 18.150711 13.96875 16.5625 C 15.16696 15.527895 15.801925 14.8707 16.46875 14 C 17.026744 13.271399 17.785169 11.927864 18.125 11.09375 C 18.369638 10.493303 18.89307 8.9736518 18.96875 8.625 C 19.023144 8.3741199 18.995733 8.0115321 18.96875 7.625 z "
       id="path3642" />
  </g>
</svg>
