<?xml version="1.0" encoding="UTF-8" standalone="no"?>
<!-- Created with Inkscape (http://www.inkscape.org/) -->

<svg
   xmlns:dc="http://purl.org/dc/elements/1.1/"
   xmlns:cc="http://creativecommons.org/ns#"
   xmlns:rdf="http://www.w3.org/1999/02/22-rdf-syntax-ns#"
   xmlns:svg="http://www.w3.org/2000/svg"
   xmlns="http://www.w3.org/2000/svg"
   xmlns:xlink="http://www.w3.org/1999/xlink"
   xmlns:sodipodi="http://sodipodi.sourceforge.net/DTD/sodipodi-0.dtd"
   xmlns:inkscape="http://www.inkscape.org/namespaces/inkscape"
   width="22"
   height="22"
   id="svg2"
   sodipodi:version="0.32"
   inkscape:version="0.48.1 r9760"
   version="1.0"
   sodipodi:docname="folder-new.svg"
   inkscape:output_extension="org.inkscape.output.svg.inkscape"
   inkscape:export-filename="/home/matt/.icons/Sirocco/scalable/mimetypes/text-plain.png"
   inkscape:export-xdpi="90"
   inkscape:export-ydpi="90"
   sodipodi:modified="true"
   style="display:inline">
  <sodipodi:namedview
     id="base"
     pagecolor="#ffffff"
     bordercolor="#666666"
     borderopacity="1.0"
     inkscape:pageopacity="0.0"
     inkscape:pageshadow="2"
     inkscape:zoom="16.442211"
     inkscape:cx="5.474669"
     inkscape:cy="9.1717991"
     inkscape:document-units="px"
     inkscape:current-layer="layer1"
     width="128px"
     height="128px"
     inkscape:showpageshadow="false"
     inkscape:window-width="1920"
     inkscape:window-height="1030"
     inkscape:window-x="0"
     inkscape:window-y="25"
     showguides="true"
     inkscape:guide-bbox="true"
     showgrid="true"
     inkscape:window-maximized="1">
    <sodipodi:guide
       id="guide2226"
       position="32.637397,117.99844"
       orientation="horizontal" />
    <sodipodi:guide
       id="guide2230"
       position="110,57.402344"
       orientation="vertical" />
    <sodipodi:guide
       id="guide2232"
       position="33.760911"
       orientation="horizontal" />
    <sodipodi:guide
       id="guide2231"
       position="46.774696"
       orientation="horizontal" />
    <inkscape:grid
       enabled="true"
       visible="true"
       id="grid3231"
       type="xygrid" />
    <sodipodi:guide
       orientation="1,0"
       position="100,67.625"
       id="guide2713" />
  </sodipodi:namedview>
  <defs
     id="defs4">
    <inkscape:perspective
       sodipodi:type="inkscape:persp3d"
       inkscape:vp_x="0 : 11 : 1"
       inkscape:vp_y="0 : 1000 : 0"
       inkscape:vp_z="22 : 11 : 1"
       inkscape:persp3d-origin="11 : 7.3333333 : 1"
       id="perspective19" />
    <linearGradient
       id="StandardGradient"
       gradientTransform="scale(0.9219544,1.0846523)"
       x1="11.998966"
       y1="0.92195445"
       x2="11.998966"
       y2="19.387045"
       gradientUnits="userSpaceOnUse">
      <stop
         style="stop-color:#000000;stop-opacity:0.86274511;"
         offset="0"
         id="stop3283" />
      <stop
         style="stop-color:#000000;stop-opacity:0.47058824;"
         offset="1"
         id="stop2651" />
    </linearGradient>
    <linearGradient
       inkscape:collect="always"
       xlink:href="#StandardGradient"
       id="linearGradient2406"
       gradientUnits="userSpaceOnUse"
       gradientTransform="matrix(0.9219544,0,0,1.0846523,0,-1)"
       x1="11.998966"
       y1="2.7658634"
       x2="11.998966"
       y2="19.387045" />
    <linearGradient
       inkscape:collect="always"
       xlink:href="#StandardGradient"
       id="linearGradient3198"
       gradientUnits="userSpaceOnUse"
       gradientTransform="matrix(0.9219544,0,0,1.0846523,0,-1)"
       x1="11.998966"
       y1="2.7658634"
       x2="11.998966"
       y2="19.387045" />
    <linearGradient
       inkscape:collect="always"
       xlink:href="#StandardGradient"
       id="linearGradient4636"
       gradientUnits="userSpaceOnUse"
       gradientTransform="matrix(0.9219544,0,0,1.0846523,-1.7235065e-2,0.96875)"
       x1="11.998966"
       y1="2.7658634"
       x2="11.998966"
       y2="15.702114" />
    <linearGradient
       inkscape:collect="always"
       xlink:href="#StandardGradient"
       id="linearGradient2397"
       gradientUnits="userSpaceOnUse"
       gradientTransform="matrix(0.9219544,0,0,1.0846523,-1.7235065e-2,0.96875)"
       x1="11.998966"
       y1="2.7658634"
       x2="11.998966"
       y2="15.702114" />
    <linearGradient
       inkscape:collect="always"
       xlink:href="#StandardGradient"
       id="linearGradient2402"
       gradientUnits="userSpaceOnUse"
       gradientTransform="matrix(0.9219544,0,0,1.0846523,-1.7235065e-2,0.96875)"
       x1="11.998966"
       y1="2.7658634"
       x2="11.998966"
       y2="15.702114" />
    <linearGradient
       inkscape:collect="always"
       xlink:href="#StandardGradient"
       id="linearGradient2405"
       gradientUnits="userSpaceOnUse"
       gradientTransform="matrix(0.9219544,0,0,1.0846523,-1.7235065e-2,-3.125e-2)"
       x1="11.998966"
       y1="2.7658634"
       x2="11.998966"
       y2="15.702114" />
    <linearGradient
       inkscape:collect="always"
       xlink:href="#StandardGradient"
       id="linearGradient2415"
       gradientUnits="userSpaceOnUse"
       gradientTransform="matrix(0.9219544,0,0,1.0846523,-1.7235065e-2,-3.125e-2)"
       x1="11.998966"
       y1="2.7658634"
       x2="11.998966"
       y2="15.702114" />
    <linearGradient
       inkscape:collect="always"
       xlink:href="#StandardGradient"
       id="linearGradient2418"
       gradientUnits="userSpaceOnUse"
       gradientTransform="matrix(0.9219544,0,0,1.0846523,-0.01723507,-1.03125)"
       x1="11.998966"
       y1="2.7658634"
       x2="11.998966"
       y2="15.702114" />
    <linearGradient
       inkscape:collect="always"
       xlink:href="#StandardGradient"
       id="linearGradient2403"
       gradientUnits="userSpaceOnUse"
       gradientTransform="matrix(0.9219544,0,0,1.0846523,-1.7235065e-2,-1.03125)"
       x1="11.998966"
       y1="2.7658634"
       x2="11.998966"
       y2="15.702114" />
    <linearGradient
       inkscape:collect="always"
       xlink:href="#StandardGradient"
       id="linearGradient2407"
       gradientUnits="userSpaceOnUse"
       gradientTransform="matrix(0.9219544,0,0,1.0846523,-1.0172351,-4.03125)"
       x1="11.998966"
       y1="2.7658634"
       x2="11.998966"
       y2="15.702114" />
    <inkscape:perspective
       id="perspective2850"
       inkscape:persp3d-origin="0.5 : 0.33333333 : 1"
       inkscape:vp_z="1 : 0.5 : 1"
       inkscape:vp_y="0 : 1000 : 0"
       inkscape:vp_x="0 : 0.5 : 1"
       sodipodi:type="inkscape:persp3d" />
    <linearGradient
       inkscape:collect="always"
       xlink:href="#StandardGradient"
       id="linearGradient3637"
       gradientUnits="userSpaceOnUse"
       gradientTransform="matrix(0.9219544,0,0,1.0846523,-30.017235,-1.03125)"
       x1="11.998966"
       y1="2.7658634"
       x2="11.998966"
       y2="15.702114" />
    <clipPath
       clipPathUnits="userSpaceOnUse"
       id="clipPath3644">
      <path
         style="fill:#ff00ff;fill-opacity:1;stroke:none;display:inline"
         d="m -30,0 0,22 22,0 0,-22 -22,0 z m 4,1 3.96875,0 c 0.554,0 1,0.446 1,1 l 0,1 8.5,0 c 0.655338,0 1.200682,0.4168202 1.40625,1 0.0015,0.00426 0.02975,-0.00428 0.03125,0 0.0032,0.00933 -0.0031,0.0218 0,0.03125 C -11.04509,4.1783754 -11,4.3373278 -11,4.5 L -11,5 -27,5 -27,4.03125 -27,4 -27,2 c 0,-0.554 0.446,-1.00000001 1,-1 z m -0.5,5 15,0 c 0.831,0 1.5,0.669 1.5,1.5 l 0,8.03125 c 0,0.831 -0.669,1.5 -1.5,1.5 l -6.46875,0 0,-4 -3.03125,0 0,-3.0625 -5,0 0,3.03125 -2,0 0,-5.5 C -28,6.669 -27.331,6 -26.5,6 z m 1.5,5 3,0 0,3 3,0 0,3 -3,0 0,3 -3,0 0,-3 -3,0 0,-3 3,0 0,-3 z"
         id="path3646" />
    </clipPath>
    <linearGradient
       inkscape:collect="always"
       xlink:href="#StandardGradient"
       id="linearGradient3959"
       gradientUnits="userSpaceOnUse"
       gradientTransform="matrix(0.9219544,0,0,1.0846523,-0.01723507,-1.03125)"
       x1="11.998966"
       y1="2.7658634"
       x2="11.998966"
       y2="15.702114" />
    <linearGradient
       inkscape:collect="always"
       xlink:href="#StandardGradient"
       id="linearGradient3963"
       gradientUnits="userSpaceOnUse"
       gradientTransform="matrix(0.9219544,0,0,1.0846523,-0.01723507,-1.03125)"
       x1="11.998966"
       y1="2.7658634"
       x2="11.998966"
       y2="15.702114" />
    <linearGradient
       inkscape:collect="always"
       xlink:href="#StandardGradient"
       id="linearGradient3019"
       gradientUnits="userSpaceOnUse"
       gradientTransform="matrix(0.9219544,0,0,1.0846523,-0.01723507,-1.03125)"
       x1="11.998966"
       y1="2.7658634"
       x2="11.998966"
       y2="15.702114" />
    <linearGradient
       inkscape:collect="always"
       xlink:href="#StandardGradient"
       id="linearGradient3030"
       gradientUnits="userSpaceOnUse"
       gradientTransform="matrix(0.9219544,0,0,1.0846523,-0.01723507,-0.03125)"
       x1="11.998966"
       y1="2.7658634"
       x2="11.998966"
       y2="15.702114" />
    <linearGradient
       inkscape:collect="always"
       xlink:href="#StandardGradient"
       id="linearGradient3033"
       gradientUnits="userSpaceOnUse"
       gradientTransform="matrix(0.9219544,0,0,1.0846523,-0.01723507,-1.03125)"
       x1="11.998966"
       y1="2.7658634"
       x2="11.998966"
       y2="15.702114" />
    <linearGradient
       inkscape:collect="always"
       xlink:href="#StandardGradient"
       id="linearGradient3036"
       gradientUnits="userSpaceOnUse"
       gradientTransform="matrix(0.9219544,0,0,1.0846523,-0.01723507,-0.03125)"
       x1="11.998966"
       y1="2.7658634"
       x2="11.998966"
       y2="15.702114" />
    <linearGradient
       inkscape:collect="always"
       xlink:href="#StandardGradient"
       id="linearGradient3043"
       gradientUnits="userSpaceOnUse"
       gradientTransform="matrix(0.9219544,0,0,1.0846523,-0.01723507,0.96875)"
       x1="11.998966"
       y1="2.7658634"
       x2="11.998966"
       y2="15.702114" />
    <linearGradient
       inkscape:collect="always"
       xlink:href="#StandardGradient"
       id="linearGradient3045"
       gradientUnits="userSpaceOnUse"
       gradientTransform="matrix(0.9219544,0,0,1.0846523,-0.01723507,-0.03125)"
       x1="11.998966"
       y1="2.7658634"
       x2="11.998966"
       y2="15.702114" />
    <linearGradient
       inkscape:collect="always"
       xlink:href="#StandardGradient"
       id="linearGradient3818"
       gradientUnits="userSpaceOnUse"
       gradientTransform="matrix(0.9219544,0,0,1.0846523,-0.01723507,0.96875)"
       x1="11.998966"
       y1="2.7658634"
       x2="11.998966"
       y2="15.702114" />
    <linearGradient
       inkscape:collect="always"
       xlink:href="#StandardGradient"
       id="linearGradient3822"
       gradientUnits="userSpaceOnUse"
       gradientTransform="matrix(0.9219544,0,0,1.0846523,-0.01723507,-0.03125)"
       x1="11.998966"
       y1="2.7658634"
       x2="11.998966"
       y2="15.702114" />
    <linearGradient
       inkscape:collect="always"
       xlink:href="#StandardGradient"
       id="linearGradient3829"
       gradientUnits="userSpaceOnUse"
       gradientTransform="matrix(0.9219544,0,0,1.0846523,-0.01723507,-0.03125)"
       x1="11.998966"
       y1="2.7658634"
       x2="11.998966"
       y2="15.702114" />
    <linearGradient
       inkscape:collect="always"
       xlink:href="#StandardGradient"
       id="linearGradient3833"
       gradientUnits="userSpaceOnUse"
       gradientTransform="matrix(0.9219544,0,0,1.0846523,-0.01723507,-0.03125)"
       x1="11.998966"
       y1="2.7658634"
       x2="11.998966"
       y2="15.702114" />
  </defs>
  <metadata
     id="metadata7">
    <rdf:RDF>
      <cc:Work
         rdf:about="">
        <dc:format>image/svg+xml</dc:format>
        <dc:type
           rdf:resource="http://purl.org/dc/dcmitype/StillImage" />
      </cc:Work>
    </rdf:RDF>
  </metadata>
  <g
     style="display:inline"
     inkscape:label="Calque 1"
     id="layer1"
     inkscape:groupmode="layer">
    <path
       style="fill:#ffffff;fill-opacity:1;stroke:none;display:inline;opacity:0.15"
       d="M 4 1 C 2.9067764 1 2 1.9067765 2 3 L 2 4 A 1.0047973 1.0047973 0 0 0 2.15625 4.53125 A 1.0047973 1.0047973 0 0 0 2.15625 4.5625 C 1.4967804 5.016393 1 5.6493226 1 6.5 L 1 13 A 1.0047973 1.0047973 0 0 0 1.125 13.46875 A 1.0047973 1.0047973 0 0 0 1.125 13.5 A 1.0047973 1.0047973 0 0 0 1 14 L 1 17 A 1.0047973 1.0047973 0 0 0 2 18 L 4 18 L 4 20 A 1.0047973 1.0047973 0 0 0 5 21 L 8 21 A 1.0047973 1.0047973 0 0 0 9 20 L 9 18 L 11 18 A 1.0047973 1.0047973 0 0 0 11.46875 17.875 A 1.0047973 1.0047973 0 0 0 11.5 17.875 A 1.0047973 1.0047973 0 0 0 12.03125 18.03125 L 18.5 18.03125 C 19.870224 18.03125 21 16.901474 21 15.53125 L 21 6.5 C 21 5.6099712 20.461004 4.9447959 19.75 4.5 A 1.0047973 1.0047973 0 0 0 19.8125 3.65625 C 19.47162 2.6892011 18.550105 2 17.46875 2 L 10 2 L 9.53125 2 C 9.1724516 1.4410224 8.6711439 1 7.96875 1 L 4 1 z M 4 2 L 7.96875 2 C 8.52275 2 8.9687497 2.446 8.96875 3 L 10 3 L 17.46875 3 C 18.124088 3 18.669432 3.4168202 18.875 4 L 3 4 L 3 3 C 3 2.446 3.4459999 2 4 2 z M 3.5 5 L 18.5 5 C 19.331 5 20 5.669 20 6.5 L 20 15.53125 C 20 16.36225 19.331 17.03125 18.5 17.03125 L 12.03125 17.03125 L 12.03125 13.03125 L 9 13.03125 L 9 9.96875 L 4 9.96875 L 4 13 L 2 13 L 2 6.5 C 2 5.669 2.669 5 3.5 5 z M 5 11 L 8 11 L 8 14 L 11 14 L 11 17 L 8 17 L 8 20 L 5 20 L 5 17 L 2 17 L 2 14 L 5 14 L 5 11 z "
       id="path3831" />
    <path
       style="fill:url(#linearGradient3036);fill-opacity:1;stroke:none;display:inline"
       d="M 4 2 C 3.4459999 2 3 2.446 3 3 L 3 4 L 18.875 4 C 18.669432 3.4168202 18.124088 3 17.46875 3 L 10 3 L 8.96875 3 C 8.9687497 2.446 8.52275 2 7.96875 2 L 4 2 z M 3.5 5 C 2.669 5 2 5.669 2 6.5 L 2 13 L 4 13 L 4 9.96875 L 9 9.96875 L 9 13.03125 L 12.03125 13.03125 L 12.03125 17.03125 L 18.5 17.03125 C 19.331 17.03125 20 16.36225 20 15.53125 L 20 6.5 C 20 5.669 19.331 5 18.5 5 L 3.5 5 z M 5 11 L 5 14 L 2 14 L 2 17 L 5 17 L 5 20 L 8 20 L 8 17 L 11 17 L 11 14 L 8 14 L 8 11 L 5 11 z "
       id="path3028" />
    <path
       style="fill:#000000;fill-opacity:1;stroke:none;display:inline;opacity:0.5"
       d="M 4 2 C 3.4459999 2 3 2.446 3 3 L 3 4 C 3 3.446 3.4459999 3 4 3 L 7.96875 3 C 8.52275 3 8.9687497 3.446 8.96875 4 L 17.46875 4 L 18.875 4 C 18.669432 3.4168202 18.124088 3 17.46875 3 L 10 3 L 8.96875 3 C 8.9687497 2.446 8.52275 2 7.96875 2 L 4 2 z M 3.5 5 C 2.669 5 2 5.669 2 6.5 L 2 7.5 C 2 6.669 2.669 6 3.5 6 L 18.5 6 C 19.331 6 20 6.669 20 7.5 L 20 6.5 C 20 5.669 19.331 5 18.5 5 L 3.5 5 z M 5 11 L 5 12 L 8 12 L 8 11 L 5 11 z M 2 14 L 2 15 L 5 15 L 5 14 L 4 14 L 2 14 z M 8 14 L 8 15 L 11 15 L 11 14.03125 L 9 14.03125 L 9 14 L 8 14 z "
       id="path3039" />
    <path
       style="fill:#ffffff;fill-opacity:1;stroke:none;display:inline;opacity:0.3"
       d="M 3 4 L 3 5 L 3.5 5 L 18.5 5 L 18.875 5 C 18.669432 4.4168202 18.124088 4 17.46875 4 L 8.96875 4 L 3 4 z M 4 9.96875 L 4 10.96875 L 9 10.96875 L 9 9.96875 L 4 9.96875 z M 2 13 L 2 14 L 4 14 L 4 13 L 2 13 z M 9 13.03125 L 9 14 L 11 14 L 11 14.03125 L 12.03125 14.03125 L 12.03125 13.03125 L 9 13.03125 z M 20 15.53125 C 20 16.36225 19.331 17.03125 18.5 17.03125 L 12.03125 17.03125 L 12.03125 18.03125 L 18.5 18.03125 C 19.331 18.03125 20 17.36225 20 16.53125 L 20 15.53125 z M 2 17 L 2 18 L 5 18 L 5 17 L 2 17 z M 8 17 L 8 18 L 11 18 L 11 17 L 8 17 z M 5 20 L 5 21 L 8 21 L 8 20 L 5 20 z "
       id="path3816" />
  </g>
</svg>
