<?xml version="1.0" encoding="UTF-8" standalone="no"?>
<!-- Created with Inkscape (http://www.inkscape.org/) -->

<svg
   xmlns:dc="http://purl.org/dc/elements/1.1/"
   xmlns:cc="http://creativecommons.org/ns#"
   xmlns:rdf="http://www.w3.org/1999/02/22-rdf-syntax-ns#"
   xmlns:svg="http://www.w3.org/2000/svg"
   xmlns="http://www.w3.org/2000/svg"
   xmlns:xlink="http://www.w3.org/1999/xlink"
   xmlns:sodipodi="http://sodipodi.sourceforge.net/DTD/sodipodi-0.dtd"
   xmlns:inkscape="http://www.inkscape.org/namespaces/inkscape"
   width="22"
   height="22"
   id="svg2"
   sodipodi:version="0.32"
   inkscape:version="0.48.0 r9654"
   version="1.0"
   sodipodi:docname="format-text-bold.svg"
   inkscape:output_extension="org.inkscape.output.svg.inkscape"
   inkscape:export-filename="/home/matt/.icons/Sirocco/scalable/mimetypes/text-plain.png"
   inkscape:export-xdpi="90"
   inkscape:export-ydpi="90"
   sodipodi:modified="true"
   style="display:inline">
  <sodipodi:namedview
     id="base"
     pagecolor="#ffffff"
     bordercolor="#666666"
     borderopacity="1.0"
     inkscape:pageopacity="0.0"
     inkscape:pageshadow="2"
     inkscape:zoom="11.765997"
     inkscape:cx="-33.259311"
     inkscape:cy="0.70768784"
     inkscape:document-units="px"
     inkscape:current-layer="layer1"
     width="128px"
     height="128px"
     inkscape:showpageshadow="false"
     inkscape:window-width="1920"
     inkscape:window-height="1029"
     inkscape:window-x="0"
     inkscape:window-y="25"
     showguides="true"
     inkscape:guide-bbox="true"
     showgrid="true"
     inkscape:window-maximized="1">
    <sodipodi:guide
       id="guide2226"
       position="32.637397,117.99844"
       orientation="horizontal" />
    <sodipodi:guide
       id="guide2230"
       position="110,57.402344"
       orientation="vertical" />
    <sodipodi:guide
       id="guide2232"
       position="33.760911"
       orientation="horizontal" />
    <sodipodi:guide
       id="guide2231"
       position="46.774696"
       orientation="horizontal" />
    <inkscape:grid
       enabled="true"
       visible="true"
       id="grid3231"
       type="xygrid" />
    <sodipodi:guide
       orientation="1,0"
       position="100,67.625"
       id="guide2713" />
  </sodipodi:namedview>
  <defs
     id="defs4">
    <inkscape:perspective
       sodipodi:type="inkscape:persp3d"
       inkscape:vp_x="0 : 11 : 1"
       inkscape:vp_y="0 : 1000 : 0"
       inkscape:vp_z="22 : 11 : 1"
       inkscape:persp3d-origin="11 : 7.3333333 : 1"
       id="perspective19" />
    <linearGradient
       id="StandardGradient"
       gradientTransform="matrix(0.9984539,0,0,0.9984539,-4.5977599e-2,5.7675578e-2)"
       x1="10.710332"
       y1="1.9963325"
       x2="10.710332"
       y2="18.974037"
       gradientUnits="userSpaceOnUse">
      <stop
         style="stop-color:#000000;stop-opacity:0.86274511;"
         offset="0"
         id="stop3277" />
      <stop
         style="stop-color:#000000;stop-opacity:0.47058824;"
         offset="1"
         id="stop3279" />
    </linearGradient>
    <inkscape:perspective
       id="perspective3675"
       inkscape:persp3d-origin="0.5 : 0.33333333 : 1"
       inkscape:vp_z="1 : 0.5 : 1"
       inkscape:vp_y="0 : 1000 : 0"
       inkscape:vp_x="0 : 0.5 : 1"
       sodipodi:type="inkscape:persp3d" />
    <linearGradient
       inkscape:collect="always"
       xlink:href="#StandardGradient"
       id="linearGradient3627"
       gradientUnits="userSpaceOnUse"
       gradientTransform="matrix(0.9984539,0,0,0.9984539,-30.045978,0.05767558)"
       x1="10.710332"
       y1="1.9963325"
       x2="10.710332"
       y2="18.974037" />
    <clipPath
       clipPathUnits="userSpaceOnUse"
       id="clipPath3634">
      <path
         style="fill:#ff00ff;fill-opacity:1;stroke:none"
         d="m -30,0 0,22 22,0 0,-22 -22,0 z m 9,2 c 1.536279,0 3.078693,0.5829855 4.25,1.75 2.042235,2.0347517 2.299759,5.181761 0.78125,7.5 0.01984,0.394051 0.08665,1.024202 0.34375,1.25 0.350063,0.307445 1.153972,-0.120878 1.6875,0.46875 l 3.6875,3.71875 c 0,0 0.750914,0.690483 -0.3125,1.75 -1.063413,1.059517 -1.75,0.3125 -1.75,0.3125 L -16,15.03125 c -0.591796,-0.531572 -0.160173,-1.338719 -0.46875,-1.6875 -0.226629,-0.256157 -0.854501,-0.32398 -1.25,-0.34375 -2.326765,1.512945 -5.489015,1.253503 -7.53125,-0.78125 -2.342612,-2.3340289 -2.342612,-6.134721 0,-8.46875 C -24.078693,2.5829856 -22.536279,2 -21,2 z m 0.03125,2 c -1.104318,1e-7 -2.119541,0.4034447 -2.84375,1.125 -0.724209,0.7215553 -1.15625,1.7434783 -1.15625,2.84375 0,2.200545 1.791365,4.000001 4,4 2.208637,0 4,-1.799455 4,-4 0,-2.2005437 -1.791364,-3.9687501 -4,-3.96875 z"
         id="path3636" />
    </clipPath>
    <linearGradient
       inkscape:collect="always"
       xlink:href="#StandardGradient"
       id="linearGradient3628"
       x1="12.028171"
       y1="4.5631547"
       x2="12.028171"
       y2="11.477665"
       gradientUnits="userSpaceOnUse" />
    <linearGradient
       inkscape:collect="always"
       xlink:href="#StandardGradient"
       id="linearGradient3639"
       gradientUnits="userSpaceOnUse"
       x1="12.028171"
       y1="4.5631547"
       x2="12.028171"
       y2="11.477665" />
    <linearGradient
       inkscape:collect="always"
       xlink:href="#StandardGradient"
       id="linearGradient3641"
       gradientUnits="userSpaceOnUse"
       x1="12.028171"
       y1="4.5631547"
       x2="12.028171"
       y2="11.477665" />
    <linearGradient
       inkscape:collect="always"
       xlink:href="#StandardGradient"
       id="linearGradient3651"
       gradientUnits="userSpaceOnUse"
       x1="12.028171"
       y1="4.5631547"
       x2="12.028171"
       y2="11.477665" />
    <linearGradient
       inkscape:collect="always"
       xlink:href="#StandardGradient"
       id="linearGradient3653"
       gradientUnits="userSpaceOnUse"
       x1="12.028171"
       y1="4.5631547"
       x2="12.028171"
       y2="11.477665" />
    <linearGradient
       inkscape:collect="always"
       xlink:href="#StandardGradient"
       id="linearGradient3655"
       gradientUnits="userSpaceOnUse"
       x1="12.028171"
       y1="4.5631547"
       x2="12.028171"
       y2="11.477665" />
    <linearGradient
       inkscape:collect="always"
       xlink:href="#StandardGradient"
       id="linearGradient3657"
       gradientUnits="userSpaceOnUse"
       x1="12.028171"
       y1="4.5631547"
       x2="12.028171"
       y2="11.477665" />
    <linearGradient
       inkscape:collect="always"
       xlink:href="#StandardGradient"
       id="linearGradient3660"
       gradientUnits="userSpaceOnUse"
       x1="12.028171"
       y1="4.5631547"
       x2="12.028171"
       y2="11.477665"
       gradientTransform="matrix(1.7414965,0,0,1.7414965,-8.9470177,-1.9467179)" />
    <linearGradient
       inkscape:collect="always"
       xlink:href="#StandardGradient"
       id="linearGradient3666"
       gradientUnits="userSpaceOnUse"
       gradientTransform="matrix(1.7414965,0,0,1.7414965,-8.9470177,-0.9467179)"
       x1="12.028171"
       y1="4.5631547"
       x2="12.028171"
       y2="11.477665" />
    <linearGradient
       inkscape:collect="always"
       xlink:href="#StandardGradient"
       id="linearGradient3668"
       gradientUnits="userSpaceOnUse"
       gradientTransform="matrix(1.7414965,0,0,1.7414965,-8.9470177,-1.9467179)"
       x1="12.028171"
       y1="4.5631547"
       x2="12.028171"
       y2="11.477665" />
    <linearGradient
       inkscape:collect="always"
       xlink:href="#StandardGradient"
       id="linearGradient3673"
       gradientUnits="userSpaceOnUse"
       gradientTransform="matrix(1.7414965,0,0,1.7414965,-8.9470177,-0.9467179)"
       x1="12.028171"
       y1="4.5631547"
       x2="12.028171"
       y2="11.477665" />
    <linearGradient
       inkscape:collect="always"
       xlink:href="#StandardGradient"
       id="linearGradient3677"
       gradientUnits="userSpaceOnUse"
       gradientTransform="matrix(1.7414965,0,0,1.7414965,-8.9470177,-1.9467179)"
       x1="12.028171"
       y1="4.5631547"
       x2="12.028171"
       y2="11.477665" />
    <linearGradient
       inkscape:collect="always"
       xlink:href="#StandardGradient"
       id="linearGradient3682"
       gradientUnits="userSpaceOnUse"
       gradientTransform="matrix(1.7414965,0,0,1.7414965,-38.947018,-1.9467179)"
       x1="12.028171"
       y1="4.5631547"
       x2="12.028171"
       y2="11.477665" />
    <clipPath
       clipPathUnits="userSpaceOnUse"
       id="clipPath3689">
      <path
         style="fill:#ff00ff;fill-opacity:1;stroke:none"
         d="m -30,0 0,22 22,0 0,-22 -22,0 z m 10.9375,6 c 2.061216,1.17e-5 3.557174,0.4024349 4.46875,1.21875 0.918354,0.8095335 1.374987,2.1388268 1.375,3.96875 l 0,6.8125 -3.6875,0 0,-2 c -0.489805,0.693879 -1.044013,1.211521 -1.65625,1.53125 C -19.17475,17.844174 -19.903705,18 -20.78125,18 c -1.183677,0 -2.164756,-0.344173 -2.90625,-1.03125 -0.734695,-0.693874 -1.093751,-1.585457 -1.09375,-2.6875 -1e-6,-1.340132 0.456632,-2.342894 1.375,-2.96875 0.925167,-0.625843 2.370957,-0.937493 4.34375,-0.9375 l 2.15625,0 0,-0.28125 c -9e-6,-0.5782226 -0.231726,-0.9846853 -0.6875,-1.25 -0.45579,-0.2720996 -1.15902,-0.4062406 -2.125,-0.40625 -0.782317,9.4e-6 -1.514036,0.062297 -2.1875,0.21875 -0.673472,0.1564716 -1.296771,0.4058335 -1.875,0.71875 l 0,-2.78125 c 0.78231,-0.1904649 1.554631,-0.3422504 2.34375,-0.4375 0.789111,-0.1020291 1.585878,-0.1562378 2.375,-0.15625 z m 0.25,6.5625 c -0.76191,5e-6 -1.331,0.116502 -1.71875,0.375 -0.380957,0.258508 -0.562505,0.652853 -0.5625,1.15625 -5e-6,0.462588 0.162626,0.828446 0.46875,1.09375 0.312919,0.258506 0.730225,0.375002 1.28125,0.375 0.687067,2e-6 1.280604,-0.228952 1.75,-0.71875 0.469379,-0.496595 0.687491,-1.133499 0.6875,-1.875 l 0,-0.40625 -1.90625,0 z"
         id="path3691" />
    </clipPath>
    <filter
       inkscape:collect="always"
       id="filter3693">
      <feGaussianBlur
         inkscape:collect="always"
         stdDeviation="0.35341836"
         id="feGaussianBlur3695" />
    </filter>
    <linearGradient
       inkscape:collect="always"
       xlink:href="#StandardGradient"
       id="linearGradient5636"
       gradientUnits="userSpaceOnUse"
       gradientTransform="matrix(1.7414965,0,0,1.7414965,-8.9470177,-1.9467179)"
       x1="12.028171"
       y1="4.5631547"
       x2="12.028171"
       y2="11.477665" />
    <linearGradient
       inkscape:collect="always"
       xlink:href="#StandardGradient"
       id="linearGradient5640"
       gradientUnits="userSpaceOnUse"
       gradientTransform="matrix(1.7414965,0,0,1.7414965,-8.9470177,-1.9467179)"
       x1="12.028171"
       y1="4.5631547"
       x2="12.028171"
       y2="11.477665" />
  </defs>
  <metadata
     id="metadata7">
    <rdf:RDF>
      <cc:Work
         rdf:about="">
        <dc:format>image/svg+xml</dc:format>
        <dc:type
           rdf:resource="http://purl.org/dc/dcmitype/StillImage" />
      </cc:Work>
    </rdf:RDF>
  </metadata>
  <g
     style="display:inline"
     inkscape:label="Calque 1"
     id="layer1"
     inkscape:groupmode="layer">
    <path
       style="font-size:12px;font-style:normal;font-variant:normal;font-weight:bold;font-stretch:normal;text-align:start;line-height:125%;writing-mode:lr-tb;text-anchor:start;fill:#ffffff;fill-opacity:1;stroke:none;font-family:Sans;-inkscape-font-specification:Abandoned Bitplane Bold;opacity:0.14999999999999999"
       d="M 10.9375 5.03125 C 10.104643 5.0312629 9.2650321 5.1117531 8.4375 5.21875 C 7.6021356 5.3195815 6.8093738 5.4591961 6 5.65625 A 0.95529393 0.95529393 0 0 0 5.25 6.59375 L 5.25 9.375 A 0.95529393 0.95529393 0 0 0 6.375 10.34375 C 6.2707407 10.404816 6.1613173 10.464403 6.0625 10.53125 C 4.8735343 11.341514 4.249999 12.724137 4.25 14.28125 C 4.2499989 15.590768 4.7375452 16.78859 5.65625 17.65625 C 6.5892088 18.520741 7.8499135 18.96875 9.21875 18.96875 C 10.209372 18.96875 11.10359 18.769272 11.875 18.375 C 11.9834 18.31839 12.052369 18.190226 12.15625 18.125 A 0.95529393 0.95529393 0 0 0 13.09375 18.96875 L 16.78125 18.96875 A 0.95529393 0.95529393 0 0 0 17.75 18 L 17.75 11.1875 C 17.749986 9.1986754 17.220882 7.5486661 16.03125 6.5 C 14.849003 5.4412994 13.123039 5.0312624 10.9375 5.03125 z M 10.9375 6 C 12.998716 6.0000117 14.494674 6.4024349 15.40625 7.21875 C 16.324604 8.0282835 16.781237 9.3575768 16.78125 11.1875 L 16.78125 18 L 13.09375 18 L 13.09375 16 C 12.603945 16.693879 12.049737 17.211521 11.4375 17.53125 C 10.82525 17.844174 10.096295 18 9.21875 18 C 8.035073 18 7.0539939 17.655827 6.3125 16.96875 C 5.5778048 16.274876 5.2187491 15.383293 5.21875 14.28125 C 5.2187491 12.941118 5.6753814 11.938356 6.59375 11.3125 C 7.5189169 10.686657 8.9647068 10.375007 10.9375 10.375 L 13.09375 10.375 L 13.09375 10.09375 C 13.093741 9.5155274 12.862024 9.1090647 12.40625 8.84375 C 11.95046 8.5716504 11.24723 8.4375094 10.28125 8.4375 C 9.498933 8.4375094 8.7672143 8.4997968 8.09375 8.65625 C 7.4202776 8.8127216 6.796979 9.0620835 6.21875 9.375 L 6.21875 6.59375 C 7.0010602 6.4032851 7.7733806 6.2514996 8.5625 6.15625 C 9.3516104 6.0542209 10.148378 6.0000122 10.9375 6 z M 10.28125 9.40625 C 10.415673 9.4062513 10.412081 9.4311046 10.53125 9.4375 C 9.6740272 9.4566168 8.850069 9.5066885 8.15625 9.65625 C 8.2117726 9.6416892 8.256239 9.6068214 8.3125 9.59375 C 8.8918495 9.4591607 9.5496272 9.4062588 10.28125 9.40625 z M 11.1875 12.5625 C 10.42559 12.562505 9.8564994 12.679002 9.46875 12.9375 C 9.0877924 13.196008 8.9062448 13.590353 8.90625 14.09375 C 8.9062448 14.556338 9.0688763 14.922196 9.375 15.1875 C 9.6879191 15.446006 10.105225 15.562502 10.65625 15.5625 C 11.343317 15.562502 11.936854 15.333548 12.40625 14.84375 C 12.875629 14.347155 13.093741 13.710251 13.09375 12.96875 L 13.09375 12.5625 L 11.1875 12.5625 z M 11.1875 13.53125 L 11.9375 13.53125 C 11.867829 13.748615 11.875327 14.021844 11.71875 14.1875 C 11.424783 14.494244 11.131112 14.593751 10.65625 14.59375 C 10.257854 14.593751 10.100776 14.515732 10 14.4375 C 9.9976496 14.435386 9.9710175 14.439582 9.96875 14.4375 C 9.8871197 14.362563 9.8749976 14.308583 9.875 14.09375 C 9.8749972 13.820016 9.8758464 13.802997 10 13.71875 C 10.139045 13.626054 10.522954 13.531254 11.1875 13.53125 z "
       id="path5638" />
    <path
       style="font-size:12px;font-style:normal;font-variant:normal;font-weight:bold;font-stretch:normal;text-align:start;line-height:125%;writing-mode:lr-tb;text-anchor:start;fill:url(#linearGradient3660);fill-opacity:1;stroke:none;font-family:Sans;-inkscape-font-specification:Abandoned Bitplane Bold"
       id="path2847"
       d="m 11.19898,12.561225 c -0.76191,5e-6 -1.3367401,0.129257 -1.7244895,0.387755 -0.3809576,0.258508 -0.5714338,0.63946 -0.5714286,1.142857 -5.2e-6,0.462588 0.1530602,0.826533 0.4591839,1.091837 0.3129191,0.258506 0.7448922,0.387757 1.2959172,0.387755 0.687067,2e-6 1.265298,-0.244896 1.734694,-0.734694 0.469379,-0.496595 0.704073,-1.115642 0.704082,-1.857143 l 0,-0.418367 -1.897959,0 m 5.581632,-1.377551 0,6.816326 -3.683673,0 0,-1.989796 c -0.489805,0.693879 -1.040825,1.20068 -1.653062,1.520409 C 10.831627,17.843537 10.086729,18 9.2091839,18 8.0255069,18 7.0629229,17.656464 6.321429,16.969387 5.5867338,16.275513 5.2193874,15.377554 5.2193883,14.275511 c -9e-7,-1.340132 0.4591823,-2.323124 1.3775509,-2.94898 0.9251669,-0.625843 2.3741456,-0.938768 4.3469388,-0.938775 l 2.153061,0 0,-0.285715 C 13.09693,9.5238184 12.86904,9.1020501 12.413266,8.8367354 11.957476,8.5646358 11.246592,8.4285815 10.280612,8.4285721 9.498295,8.4285815 8.7704034,8.5068127 8.0969391,8.6632659 7.4234667,8.8197375 6.7976171,9.0544311 6.2193881,9.3673476 l 0,-2.7857142 C 7.0016983,6.3911685 7.7874119,6.2483117 8.5765313,6.1530621 9.3656417,6.051033 10.154756,6.0000124 10.943878,6.0000002 c 2.061216,1.17e-5 3.547608,0.4081746 4.459184,1.2244897 0.918354,0.8095335 1.377537,2.1292599 1.37755,3.9591831"
       sodipodi:nodetypes="cssssscccccccssssscccsssccsscc" />
    <path
       style="font-size:12px;font-style:normal;font-variant:normal;font-weight:bold;font-stretch:normal;text-align:start;line-height:125%;writing-mode:lr-tb;text-anchor:start;fill:#000000;fill-opacity:1;stroke:none;font-family:Sans;-inkscape-font-specification:Abandoned Bitplane Bold;opacity:0.5"
       d="M 10.9375 6 C 10.148378 6.0000122 9.3516104 6.0542209 8.5625 6.15625 C 7.7733806 6.2514996 7.0010602 6.4032851 6.21875 6.59375 L 6.21875 7.59375 C 7.0010602 7.4032851 7.7733806 7.2514996 8.5625 7.15625 C 9.3516104 7.0542209 10.148378 7.0000122 10.9375 7 C 12.998716 7.0000117 14.494674 7.4024349 15.40625 8.21875 C 16.324604 9.0282835 16.781237 10.357577 16.78125 12.1875 L 16.78125 11.1875 C 16.781237 9.3575768 16.324604 8.0282835 15.40625 7.21875 C 14.494674 6.4024349 12.998716 6.0000117 10.9375 6 z M 10.9375 10.375 C 8.9647068 10.375007 7.5189169 10.686657 6.59375 11.3125 C 5.6753814 11.938356 5.2187491 12.941118 5.21875 14.28125 C 5.2187498 14.479232 5.2262885 14.658941 5.25 14.84375 C 5.3444097 13.732954 5.7822213 12.865546 6.59375 12.3125 C 7.5189169 11.686657 8.9647068 11.375007 10.9375 11.375 L 13.09375 11.375 L 13.09375 11.09375 C 13.093746 10.816245 13.04248 10.580432 12.9375 10.375 L 10.9375 10.375 z M 13.03125 13.5625 C 12.93602 14.044531 12.742833 14.487651 12.40625 14.84375 C 11.936854 15.333548 11.343317 15.562502 10.65625 15.5625 C 10.105225 15.562502 9.6879191 15.446006 9.375 15.1875 C 9.1847259 15.022598 9.0720072 14.80362 9 14.5625 C 8.9386279 14.725099 8.9062479 14.891698 8.90625 15.09375 C 8.9062448 15.556338 9.0688763 15.922196 9.375 16.1875 C 9.6879191 16.446006 10.105225 16.562502 10.65625 16.5625 C 11.343317 16.562502 11.936854 16.333548 12.40625 15.84375 C 12.875629 15.347155 13.093741 14.710251 13.09375 13.96875 L 13.09375 13.5625 L 13.03125 13.5625 z "
       id="path3662" />
    <path
       style="font-size:12px;font-style:normal;font-variant:normal;font-weight:bold;font-stretch:normal;text-align:start;line-height:125%;writing-mode:lr-tb;text-anchor:start;fill:#ffffff;fill-opacity:1;stroke:none;font-family:Sans;-inkscape-font-specification:Abandoned Bitplane Bold;opacity:0.3"
       d="M 10.28125 8.4375 C 9.498933 8.4375094 8.7672143 8.4997968 8.09375 8.65625 C 7.4202776 8.8127216 6.796979 9.062083 6.21875 9.375 L 6.21875 10.375 C 6.796979 10.062083 7.4202776 9.8127216 8.09375 9.65625 C 8.7672143 9.4997968 9.498933 9.4375094 10.28125 9.4375 C 11.24723 9.4375094 11.95046 9.5716504 12.40625 9.84375 C 12.643286 9.981733 12.823738 10.152383 12.9375 10.375 L 13.09375 10.375 L 13.09375 10.09375 C 13.093741 9.515527 12.862024 9.1090646 12.40625 8.84375 C 11.95046 8.5716504 11.24723 8.4375094 10.28125 8.4375 z M 11.1875 12.5625 C 10.42559 12.562505 9.8564994 12.679002 9.46875 12.9375 C 9.0877924 13.196008 8.9062448 13.590353 8.90625 14.09375 C 8.906248 14.268812 8.956158 14.415693 9 14.5625 C 9.0915321 14.319995 9.2406997 14.092249 9.46875 13.9375 C 9.8564994 13.679002 10.42559 13.562505 11.1875 13.5625 L 13.03125 13.5625 C 13.068822 13.372319 13.093747 13.178534 13.09375 12.96875 L 13.09375 12.5625 L 11.1875 12.5625 z M 5.25 14.84375 C 5.2375707 14.989989 5.2187499 15.125344 5.21875 15.28125 C 5.2187491 16.383293 5.5778048 17.274876 6.3125 17.96875 C 7.0539939 18.655827 8.035073 19 9.21875 19 C 10.096295 19 10.82525 18.844174 11.4375 18.53125 C 12.049737 18.211521 12.603945 17.693879 13.09375 17 L 13.09375 16 C 12.603945 16.693879 12.049737 17.211521 11.4375 17.53125 C 10.82525 17.844174 10.096295 18 9.21875 18 C 8.035073 18 7.0539939 17.655827 6.3125 16.96875 C 5.709793 16.399531 5.3582757 15.687657 5.25 14.84375 z M 13.09375 18 L 13.09375 19 L 16.78125 19 L 16.78125 18 L 13.09375 18 z "
       id="path3671" />
  </g>
</svg>
