<?xml version="1.0" encoding="UTF-8" standalone="no"?>
<!-- Created with Inkscape (http://www.inkscape.org/) -->

<svg
   xmlns:dc="http://purl.org/dc/elements/1.1/"
   xmlns:cc="http://creativecommons.org/ns#"
   xmlns:rdf="http://www.w3.org/1999/02/22-rdf-syntax-ns#"
   xmlns:svg="http://www.w3.org/2000/svg"
   xmlns="http://www.w3.org/2000/svg"
   xmlns:xlink="http://www.w3.org/1999/xlink"
   xmlns:sodipodi="http://sodipodi.sourceforge.net/DTD/sodipodi-0.dtd"
   xmlns:inkscape="http://www.inkscape.org/namespaces/inkscape"
   width="22"
   height="22"
   id="svg2"
   sodipodi:version="0.32"
   inkscape:version="0.48.0 r9654"
   version="1.0"
   sodipodi:docname="mail-send-receive.svg"
   inkscape:output_extension="org.inkscape.output.svg.inkscape">
  <defs
     id="defs4">
    <inkscape:perspective
       sodipodi:type="inkscape:persp3d"
       inkscape:vp_x="0 : 11 : 1"
       inkscape:vp_y="0 : 1000 : 0"
       inkscape:vp_z="22 : 11 : 1"
       inkscape:persp3d-origin="11 : 7.3333333 : 1"
       id="perspective17" />
    <linearGradient
       id="StandardGradient"
       gradientTransform="matrix(0.8458416,0,0,1.0765258,-1.4962477,-3.0220357)"
       x1="12.80275"
       y1="3.7361259"
       x2="12.80275"
       y2="16.759111"
       gradientUnits="userSpaceOnUse">
      <stop
         id="stop3337"
         offset="0"
         style="stop-color:#000000;stop-opacity:0.86274511;" />
      <stop
         id="stop3339"
         offset="1"
         style="stop-color:#000000;stop-opacity:0.47058824;" />
    </linearGradient>
    <linearGradient
       inkscape:collect="always"
       xlink:href="#StandardGradient"
       id="linearGradient2392"
       gradientUnits="userSpaceOnUse"
       gradientTransform="matrix(-0.8458416,0,0,-1.0765258,24.746754,28.01555)"
       x1="12.80275"
       y1="3.7361259"
       x2="12.80275"
       y2="16.759111" />
    <linearGradient
       inkscape:collect="always"
       xlink:href="#StandardGradient"
       id="linearGradient2394"
       gradientUnits="userSpaceOnUse"
       gradientTransform="matrix(0.8458416,0,0,1.0765258,-1.4962477,-3.0220357)"
       x1="12.80275"
       y1="3.7361259"
       x2="12.80275"
       y2="16.759111" />
    <linearGradient
       inkscape:collect="always"
       xlink:href="#StandardGradient"
       id="linearGradient2397"
       gradientUnits="userSpaceOnUse"
       gradientTransform="matrix(0.8458416,0,0,1.0765258,-1.4962477,-3.0220357)"
       x1="12.80275"
       y1="3.7361259"
       x2="12.80275"
       y2="22.314453" />
    <linearGradient
       inkscape:collect="always"
       xlink:href="#StandardGradient"
       id="linearGradient2404"
       gradientUnits="userSpaceOnUse"
       gradientTransform="matrix(0.8458416,0,0,1.0765258,-1.4962477,-3.0220357)"
       x1="12.80275"
       y1="3.7361259"
       x2="12.80275"
       y2="22.314453" />
    <linearGradient
       inkscape:collect="always"
       xlink:href="#StandardGradient"
       id="linearGradient2439"
       gradientUnits="userSpaceOnUse"
       gradientTransform="matrix(0.8458416,0,0,1.0765258,-1.4962477,-3.0220357)"
       x1="12.80275"
       y1="3.7361259"
       x2="12.80275"
       y2="22.314453" />
    <linearGradient
       inkscape:collect="always"
       xlink:href="#StandardGradient"
       id="linearGradient2442"
       gradientUnits="userSpaceOnUse"
       gradientTransform="matrix(0.8458416,0,0,1.0765258,-0.4962477,-3.0220357)"
       x1="12.80275"
       y1="3.7361259"
       x2="12.80275"
       y2="22.314453" />
    <inkscape:perspective
       id="perspective2881"
       inkscape:persp3d-origin="0.5 : 0.33333333 : 1"
       inkscape:vp_z="1 : 0.5 : 1"
       inkscape:vp_y="0 : 1000 : 0"
       inkscape:vp_x="0 : 0.5 : 1"
       sodipodi:type="inkscape:persp3d" />
    <linearGradient
       inkscape:collect="always"
       xlink:href="#StandardGradient"
       id="linearGradient3635"
       gradientUnits="userSpaceOnUse"
       gradientTransform="matrix(0.8458416,0,0,1.0765258,-0.4962477,-3.0220357)"
       x1="12.80275"
       y1="3.7361259"
       x2="12.80275"
       y2="22.314453" />
    <linearGradient
       inkscape:collect="always"
       xlink:href="#StandardGradient"
       id="linearGradient3638"
       gradientUnits="userSpaceOnUse"
       gradientTransform="matrix(0.8458416,0,0,1.0765258,0.5037523,-3.0220357)"
       x1="12.80275"
       y1="3.7361259"
       x2="12.80275"
       y2="22.314453" />
    <linearGradient
       inkscape:collect="always"
       xlink:href="#StandardGradient"
       id="linearGradient3640"
       gradientUnits="userSpaceOnUse"
       gradientTransform="matrix(0.8458416,0,0,1.0765258,-1.4962477,-3.0220357)"
       x1="12.80275"
       y1="3.7361259"
       x2="12.80275"
       y2="22.314453" />
    <linearGradient
       inkscape:collect="always"
       xlink:href="#StandardGradient"
       id="linearGradient3644"
       gradientUnits="userSpaceOnUse"
       gradientTransform="matrix(0.8458416,0,0,-1.0765258,7.5037523,25.053286)"
       x1="12.80275"
       y1="3.7361259"
       x2="12.80275"
       y2="22.314453" />
    <linearGradient
       inkscape:collect="always"
       xlink:href="#StandardGradient"
       id="linearGradient3648"
       gradientUnits="userSpaceOnUse"
       gradientTransform="matrix(0.8458416,0,0,-1.0765258,7.5037523,25.053286)"
       x1="12.80275"
       y1="3.7361259"
       x2="12.80275"
       y2="22.314453" />
    <linearGradient
       inkscape:collect="always"
       xlink:href="#StandardGradient"
       id="linearGradient3654"
       gradientUnits="userSpaceOnUse"
       gradientTransform="matrix(0.8458416,0,0,1.0765258,-1.4962477,-3.0220357)"
       x1="12.80275"
       y1="4.6649389"
       x2="12.80275"
       y2="21.328344" />
    <linearGradient
       inkscape:collect="always"
       xlink:href="#StandardGradient"
       id="linearGradient3660"
       gradientUnits="userSpaceOnUse"
       gradientTransform="matrix(0.8458416,0,0,1.0765258,-1.4962477,-2.0220357)"
       x1="12.80275"
       y1="4.6649389"
       x2="12.80275"
       y2="21.328344" />
    <linearGradient
       inkscape:collect="always"
       xlink:href="#StandardGradient"
       id="linearGradient3662"
       gradientUnits="userSpaceOnUse"
       gradientTransform="matrix(0.8458416,0,0,1.0765258,-1.4962477,-3.0220357)"
       x1="12.80275"
       y1="4.6649389"
       x2="12.80275"
       y2="21.328344" />
    <linearGradient
       inkscape:collect="always"
       xlink:href="#StandardGradient"
       id="linearGradient3667"
       gradientUnits="userSpaceOnUse"
       gradientTransform="matrix(0.8458416,0,0,1.0765258,-1.4962477,-2.0220357)"
       x1="12.80275"
       y1="4.6649389"
       x2="12.80275"
       y2="21.328344" />
    <linearGradient
       inkscape:collect="always"
       xlink:href="#StandardGradient"
       id="linearGradient3671"
       gradientUnits="userSpaceOnUse"
       gradientTransform="matrix(0.8458416,0,0,1.0765258,-1.4962477,-3.0220357)"
       x1="12.80275"
       y1="4.6649389"
       x2="12.80275"
       y2="21.328344" />
    <linearGradient
       inkscape:collect="always"
       xlink:href="#StandardGradient"
       id="linearGradient3676"
       gradientUnits="userSpaceOnUse"
       gradientTransform="matrix(0.8458416,0,0,1.0765258,-31.496248,-3.0220357)"
       x1="12.80275"
       y1="4.6649389"
       x2="12.80275"
       y2="21.328344" />
    <clipPath
       clipPathUnits="userSpaceOnUse"
       id="clipPath3683">
      <path
         style="fill:#ff00ff;fill-opacity:1;stroke:none;display:inline"
         d="m -30,0 0,22 22,0 0,-22 -22,0 z M -23.4375,2.03125 -18,10 l -2.96875,0 0,7 L -26,17 -25.96875,10 -29,10 -23.4375,2.03125 z m 6.4375,3 5.03125,0 0,7 2.96875,0 L -14.4375,20 -20,12.03125 l 3.03125,0 -0.03125,-7 z M -15,7 l 0,6.5 -1.5,0 2,3.15625 L -12.46875,13.5 -14,13.5 -14,7 -15,7 z"
         id="path3685" />
    </clipPath>
    <inkscape:perspective
       id="perspective2881-4"
       inkscape:persp3d-origin="0.5 : 0.33333333 : 1"
       inkscape:vp_z="1 : 0.5 : 1"
       inkscape:vp_y="0 : 1000 : 0"
       inkscape:vp_x="0 : 0.5 : 1"
       sodipodi:type="inkscape:persp3d" />
    <linearGradient
       inkscape:collect="always"
       xlink:href="#StandardGradient"
       id="linearGradient3719"
       x1="11"
       y1="4"
       x2="11"
       y2="18.035669"
       gradientUnits="userSpaceOnUse" />
    <linearGradient
       inkscape:collect="always"
       xlink:href="#StandardGradient"
       id="linearGradient3725"
       gradientUnits="userSpaceOnUse"
       x1="11"
       y1="4"
       x2="11"
       y2="18.035669"
       gradientTransform="translate(0,1)" />
    <linearGradient
       inkscape:collect="always"
       xlink:href="#StandardGradient"
       id="linearGradient3727"
       gradientUnits="userSpaceOnUse"
       x1="11"
       y1="4"
       x2="11"
       y2="18.035669" />
    <linearGradient
       inkscape:collect="always"
       xlink:href="#StandardGradient"
       id="linearGradient3732"
       gradientUnits="userSpaceOnUse"
       x1="11"
       y1="4"
       x2="11"
       y2="18.035669"
       gradientTransform="translate(0,1)" />
    <linearGradient
       inkscape:collect="always"
       xlink:href="#StandardGradient"
       id="linearGradient3736"
       gradientUnits="userSpaceOnUse"
       x1="11"
       y1="4"
       x2="11"
       y2="18.035669" />
    <linearGradient
       inkscape:collect="always"
       xlink:href="#StandardGradient"
       id="linearGradient3741"
       gradientUnits="userSpaceOnUse"
       x1="11"
       y1="4"
       x2="11"
       y2="18.035669"
       gradientTransform="translate(-30,0)" />
    <clipPath
       clipPathUnits="userSpaceOnUse"
       id="clipPath3748">
      <path
         style="fill:#ff00ff;fill-opacity:1;stroke:none;display:inline"
         d="m -30,0 0,22 22,0 0,-22 -22,0 z m 11,1 4,0 0,3 2,0 -4,4 -4,-4 2,0 0,-3 z m -7.5,3 3.5,0 2,2 -4,0 6,6 6,-6 1.9375,-1.9375 C -10.441396,4.2459152 -10,4.8178875 -10,5.5 l 0,11 c 0,0.831 -0.669,1.5 -1.5,1.5 l -3.5,0 -2,-2 4,0 -4,-4 -2,2 -2,-2 -4,4 -1.9375,1.9375 C -27.558604,17.754085 -28,17.182112 -28,16.5 l 0,-11 C -28,4.669 -27.331,4 -26.5,4 z m 0.5,3 0,8 4,-4 -4,-4 z m 14,0 -4,4 4,4 0,-8 z m -9,7 4,4 -2,0 0,3 -4,0 0,-3 -2,0 4,-4 z"
         id="path3750" />
    </clipPath>
    <linearGradient
       inkscape:collect="always"
       xlink:href="#StandardGradient"
       id="linearGradient2878"
       gradientUnits="userSpaceOnUse"
       x1="11"
       y1="4"
       x2="11"
       y2="18.035669"
       gradientTransform="translate(-3,-4)" />
    <linearGradient
       inkscape:collect="always"
       xlink:href="#StandardGradient"
       id="linearGradient2882"
       gradientUnits="userSpaceOnUse"
       gradientTransform="matrix(-1,0,0,-1,25,26)"
       x1="11"
       y1="4"
       x2="11"
       y2="18.035669" />
    <linearGradient
       inkscape:collect="always"
       xlink:href="#StandardGradient"
       id="linearGradient2886"
       gradientUnits="userSpaceOnUse"
       gradientTransform="translate(-3,-4)"
       x1="11"
       y1="6"
       x2="11"
       y2="24" />
    <linearGradient
       inkscape:collect="always"
       xlink:href="#StandardGradient"
       id="linearGradient2892"
       gradientUnits="userSpaceOnUse"
       gradientTransform="translate(-3,-3)"
       x1="11"
       y1="6"
       x2="11"
       y2="24" />
    <linearGradient
       inkscape:collect="always"
       xlink:href="#StandardGradient"
       id="linearGradient2894"
       gradientUnits="userSpaceOnUse"
       gradientTransform="translate(-3,-4)"
       x1="11"
       y1="6"
       x2="11"
       y2="24" />
    <linearGradient
       inkscape:collect="always"
       xlink:href="#StandardGradient"
       id="linearGradient3672"
       gradientUnits="userSpaceOnUse"
       gradientTransform="translate(-3,-3)"
       x1="11"
       y1="6"
       x2="11"
       y2="24" />
    <linearGradient
       inkscape:collect="always"
       xlink:href="#StandardGradient"
       id="linearGradient3677"
       gradientUnits="userSpaceOnUse"
       gradientTransform="translate(-3,-4)"
       x1="11"
       y1="6"
       x2="11"
       y2="24" />
    <linearGradient
       inkscape:collect="always"
       xlink:href="#StandardGradient"
       id="linearGradient3682"
       gradientUnits="userSpaceOnUse"
       gradientTransform="translate(-33,-4)"
       x1="11"
       y1="6"
       x2="11"
       y2="24" />
    <clipPath
       clipPathUnits="userSpaceOnUse"
       id="clipPath3689">
      <path
         style="fill:#ff00ff;fill-opacity:1;stroke:none;display:inline"
         d="m -30,0 0,22 22,0 0,-22 -22,0 z m 12,2 6,0 0,6 2,0 -5,5 -5,-5 2,0 0,-6 z m -5,7 5,5 -2,0 0,6 -6,0 0,-6 -2,0 5,-5 z"
         id="path3691" />
    </clipPath>
    <linearGradient
       inkscape:collect="always"
       xlink:href="#StandardGradient"
       id="linearGradient2883"
       gradientUnits="userSpaceOnUse"
       gradientTransform="translate(-3,-3)"
       x1="11"
       y1="6"
       x2="11"
       y2="24" />
    <linearGradient
       inkscape:collect="always"
       xlink:href="#StandardGradient"
       id="linearGradient2885"
       gradientUnits="userSpaceOnUse"
       gradientTransform="translate(-3,-4)"
       x1="11"
       y1="6"
       x2="11"
       y2="24" />
    <linearGradient
       inkscape:collect="always"
       xlink:href="#StandardGradient"
       id="linearGradient3663"
       gradientUnits="userSpaceOnUse"
       gradientTransform="translate(-3,-3)"
       x1="11"
       y1="6"
       x2="11"
       y2="24" />
    <linearGradient
       inkscape:collect="always"
       xlink:href="#StandardGradient"
       id="linearGradient3668"
       gradientUnits="userSpaceOnUse"
       gradientTransform="translate(-3,-4)"
       x1="11"
       y1="6"
       x2="11"
       y2="24" />
    <linearGradient
       inkscape:collect="always"
       xlink:href="#StandardGradient"
       id="linearGradient3673"
       gradientUnits="userSpaceOnUse"
       gradientTransform="translate(-33,-4)"
       x1="11"
       y1="6"
       x2="11"
       y2="24" />
    <clipPath
       clipPathUnits="userSpaceOnUse"
       id="clipPath3680">
      <path
         style="fill:#ff00ff;fill-opacity:1;stroke:none;display:inline"
         d="m -30,0 0,22 22,0 0,-22 -22,0 z m 12,2 6,0 0,5 3,0 -6,6 -6,-6 3,0 0,-5 z m -5,7 6,6 -3,0 0,5 -6,0 0,-5 -3,0 6,-6 z"
         id="path3682" />
    </clipPath>
    <filter
       inkscape:collect="always"
       id="filter3684">
      <feGaussianBlur
         inkscape:collect="always"
         stdDeviation="0.57"
         id="feGaussianBlur3686" />
    </filter>
    <linearGradient
       inkscape:collect="always"
       xlink:href="#StandardGradient"
       id="linearGradient4556"
       gradientUnits="userSpaceOnUse"
       gradientTransform="translate(-3,-4)"
       x1="11"
       y1="6"
       x2="11"
       y2="24" />
    <linearGradient
       inkscape:collect="always"
       xlink:href="#StandardGradient"
       id="linearGradient4560"
       gradientUnits="userSpaceOnUse"
       gradientTransform="translate(-3,-4)"
       x1="11"
       y1="6"
       x2="11"
       y2="24" />
  </defs>
  <sodipodi:namedview
     id="base"
     pagecolor="#ffffff"
     bordercolor="#9a9a9a"
     borderopacity="1"
     inkscape:pageopacity="0.0"
     inkscape:pageshadow="2"
     inkscape:zoom="16.442211"
     inkscape:cx="-11.985816"
     inkscape:cy="4.7064436"
     inkscape:document-units="px"
     inkscape:current-layer="layer1"
     showgrid="true"
     inkscape:showpageshadow="false"
     showguides="true"
     inkscape:guide-bbox="true"
     inkscape:window-width="1920"
     inkscape:window-height="1029"
     inkscape:window-x="0"
     inkscape:window-y="25"
     inkscape:window-maximized="1"
     inkscape:snap-global="true">
    <sodipodi:guide
       orientation="1,0"
       position="0,112"
       id="guide2383" />
    <sodipodi:guide
       orientation="0,1"
       position="26.278146,128"
       id="guide2385" />
    <sodipodi:guide
       orientation="1,0"
       position="128,54.082119"
       id="guide2387" />
    <inkscape:grid
       type="xygrid"
       id="grid3672"
       visible="true"
       enabled="true" />
  </sodipodi:namedview>
  <metadata
     id="metadata7">
    <rdf:RDF>
      <cc:Work
         rdf:about="">
        <dc:format>image/svg+xml</dc:format>
        <dc:type
           rdf:resource="http://purl.org/dc/dcmitype/StillImage" />
      </cc:Work>
    </rdf:RDF>
  </metadata>
  <g
     inkscape:label="Calque 1"
     inkscape:groupmode="layer"
     id="layer1"
     style="display:inline">
    <path
       style="fill:#ffffff;fill-opacity:1;stroke:none;display:inline;opacity:0.15"
       d="M 11.8125 1.03125 A 0.98266044 0.98266044 0 0 0 11.03125 2 L 11.03125 6.03125 L 9 6.03125 A 0.98266044 0.98266044 0 0 0 8.3125 7.6875 L 14.3125 13.6875 A 0.98266044 0.98266044 0 0 0 15.6875 13.6875 L 21.6875 7.6875 A 0.98266044 0.98266044 0 0 0 21 6.03125 L 18.96875 6.03125 L 18.96875 2 A 0.98266044 0.98266044 0 0 0 18 1.03125 L 12 1.03125 A 0.98266044 0.98266044 0 0 0 11.8125 1.03125 z M 12 2 L 18 2 L 18 7 L 21 7 L 15 13 L 9 7 L 12 7 L 12 2 z M 6.875 8 A 0.98266044 0.98266044 0 0 0 6.78125 8.03125 A 0.98266044 0.98266044 0 0 0 6.3125 8.3125 L 0.3125 14.3125 A 0.98266044 0.98266044 0 0 0 1 15.96875 L 3.03125 15.96875 L 3.03125 20 A 0.98266044 0.98266044 0 0 0 4 20.96875 L 10 20.96875 A 0.98266044 0.98266044 0 0 0 10.96875 20 L 10.96875 15.96875 L 13 15.96875 A 0.98266044 0.98266044 0 0 0 13.6875 14.3125 L 7.6875 8.3125 A 0.98266044 0.98266044 0 0 0 6.875 8 z M 7 9 L 13 15 L 10 15 L 10 20 L 4 20 L 4 15 L 1 15 L 7 9 z "
       id="path4558" />
    <path
       style="fill:url(#linearGradient2886);fill-opacity:1;stroke:none;display:inline"
       d="m 12,2 0,5 -3,0 6,6 6,-6 -3,0 0,-5 -6,0 z m -5,7 -6,6 3,0 0,5 6,0 0,-5 3,0 -6,-6 z"
       id="path2957"
       sodipodi:nodetypes="cccccccccccccccc" />
    <path
       style="fill:#ff0000;stroke:none"
       d="m 9,-6 4,4 4,-4 -2,0 0,-3 -4,0 0,3 -2,0 z"
       id="path3710"
       sodipodi:nodetypes="cccccccc" />
    <path
       style="fill:#000000;fill-opacity:1;stroke:none;display:inline;opacity:0.5"
       d="M 12 2 L 12 3 L 18 3 L 18 2 L 12 2 z M 9 7 L 10 8 L 12 8 L 12 7 L 9 7 z M 18 7 L 18 8 L 20 8 L 21 7 L 18 7 z M 7 9 L 1 15 L 2 15 L 7 10 L 12 15 L 13 15 L 7 9 z "
       id="path2878" />
    <path
       style="fill:#ffffff;fill-opacity:1;stroke:none;display:inline;opacity:0.3"
       d="M 9 8 L 15 14 L 21 8 L 20 8 L 15 13 L 10 8 L 9 8 z M 2 15 L 1 16 L 4 16 L 4 15 L 2 15 z M 10 15 L 10 16 L 13 16 L 12 15 L 10 15 z M 4 20 L 4 21 L 10 21 L 10 20 L 4 20 z "
       id="path3660" />
  </g>
</svg>
