<?xml version="1.0" encoding="UTF-8" standalone="no"?>
<!-- Created with Inkscape (http://www.inkscape.org/) -->

<svg
   xmlns:dc="http://purl.org/dc/elements/1.1/"
   xmlns:cc="http://creativecommons.org/ns#"
   xmlns:rdf="http://www.w3.org/1999/02/22-rdf-syntax-ns#"
   xmlns:svg="http://www.w3.org/2000/svg"
   xmlns="http://www.w3.org/2000/svg"
   xmlns:xlink="http://www.w3.org/1999/xlink"
   xmlns:sodipodi="http://sodipodi.sourceforge.net/DTD/sodipodi-0.dtd"
   xmlns:inkscape="http://www.inkscape.org/namespaces/inkscape"
   width="16"
   height="16"
   id="svg2"
   sodipodi:version="0.32"
   inkscape:version="0.48.0 r9654"
   version="1.0"
   sodipodi:docname="add-folder-to-archive.svg"
   inkscape:output_extension="org.inkscape.output.svg.inkscape"
   inkscape:export-filename="/home/matt/.icons/Sirocco/scalable/mimetypes/text-plain.png"
   inkscape:export-xdpi="90"
   inkscape:export-ydpi="90"
   sodipodi:modified="true"
   style="display:inline">
  <sodipodi:namedview
     id="base"
     pagecolor="#ffffff"
     bordercolor="#666666"
     borderopacity="1.0"
     inkscape:pageopacity="0.0"
     inkscape:pageshadow="2"
     inkscape:zoom="17.526183"
     inkscape:cx="-11.300357"
     inkscape:cy="5.4224484"
     inkscape:document-units="px"
     inkscape:current-layer="layer1"
     width="128px"
     height="128px"
     inkscape:showpageshadow="false"
     inkscape:window-width="1920"
     inkscape:window-height="1029"
     inkscape:window-x="0"
     inkscape:window-y="25"
     showguides="true"
     inkscape:guide-bbox="true"
     showgrid="true"
     inkscape:window-maximized="1">
    <sodipodi:guide
       id="guide2226"
       position="32.637397,117.99844"
       orientation="horizontal" />
    <sodipodi:guide
       id="guide2230"
       position="110,57.402344"
       orientation="vertical" />
    <sodipodi:guide
       id="guide2232"
       position="33.760911"
       orientation="horizontal" />
    <sodipodi:guide
       id="guide2231"
       position="46.774696"
       orientation="horizontal" />
    <inkscape:grid
       enabled="true"
       visible="true"
       id="grid3231"
       type="xygrid" />
    <sodipodi:guide
       orientation="1,0"
       position="100,67.625"
       id="guide2713" />
  </sodipodi:namedview>
  <defs
     id="defs4">
    <inkscape:perspective
       sodipodi:type="inkscape:persp3d"
       inkscape:vp_x="0 : 11 : 1"
       inkscape:vp_y="0 : 1000 : 0"
       inkscape:vp_z="22 : 11 : 1"
       inkscape:persp3d-origin="11 : 7.3333333 : 1"
       id="perspective19" />
    <linearGradient
       id="StandardGradient"
       gradientTransform="scale(0.9219544,1.0846523)"
       x1="11.998966"
       y1="0.92195445"
       x2="11.998966"
       y2="19.387045"
       gradientUnits="userSpaceOnUse">
      <stop
         style="stop-color:#000000;stop-opacity:0.86274511;"
         offset="0"
         id="stop3283" />
      <stop
         style="stop-color:#000000;stop-opacity:0.47058824;"
         offset="1"
         id="stop2651" />
    </linearGradient>
    <linearGradient
       inkscape:collect="always"
       xlink:href="#StandardGradient"
       id="linearGradient2549"
       gradientUnits="userSpaceOnUse"
       gradientTransform="matrix(0.9247229,0,0,1.0872097,-2.0600562,0.9976422)"
       x1="11.998966"
       y1="0.92195445"
       x2="11.998966"
       y2="17.478098" />
    <linearGradient
       inkscape:collect="always"
       xlink:href="#StandardGradient"
       id="linearGradient2418"
       gradientUnits="userSpaceOnUse"
       gradientTransform="matrix(0.9247229,0,0,1.0872097,-4.0600562,-3.0023583)"
       x1="11.998966"
       y1="0.92195445"
       x2="11.998966"
       y2="17.478098" />
    <linearGradient
       inkscape:collect="always"
       xlink:href="#StandardGradient"
       id="linearGradient2422"
       gradientUnits="userSpaceOnUse"
       gradientTransform="matrix(0.9247229,0,0,1.0872097,-5.0600562,-1.0023583)"
       x1="11.998966"
       y1="0.92195445"
       x2="11.998966"
       y2="17.478098" />
    <linearGradient
       inkscape:collect="always"
       xlink:href="#StandardGradient"
       id="linearGradient2403"
       gradientUnits="userSpaceOnUse"
       gradientTransform="matrix(0.9247229,0,0,1.0872097,-4.0600562,-3.0023583)"
       x1="11.998966"
       y1="0.92195445"
       x2="11.998966"
       y2="17.478098" />
    <linearGradient
       inkscape:collect="always"
       xlink:href="#StandardGradient"
       id="linearGradient2406"
       gradientUnits="userSpaceOnUse"
       gradientTransform="matrix(0.9247229,0,0,1.0872097,-4.0600562,-3.0023583)"
       x1="11.998966"
       y1="0.92195445"
       x2="11.998966"
       y2="17.478098" />
    <linearGradient
       inkscape:collect="always"
       xlink:href="#StandardGradient"
       id="linearGradient2409"
       gradientUnits="userSpaceOnUse"
       gradientTransform="matrix(0.9247229,0,0,1.0872097,-6.0600562,-2.0023583)"
       x1="11.998966"
       y1="3.6800685"
       x2="11.998966"
       y2="15.638639" />
    <linearGradient
       inkscape:collect="always"
       xlink:href="#StandardGradient"
       id="linearGradient2416"
       gradientUnits="userSpaceOnUse"
       gradientTransform="matrix(0.9247229,0,0,1.0872097,-6.0600562,-2.0023583)"
       x1="11.998966"
       y1="2.7615263"
       x2="11.998966"
       y2="15.638639" />
    <inkscape:perspective
       id="perspective3648"
       inkscape:persp3d-origin="0.5 : 0.33333333 : 1"
       inkscape:vp_z="1 : 0.5 : 1"
       inkscape:vp_y="0 : 1000 : 0"
       inkscape:vp_x="0 : 0.5 : 1"
       sodipodi:type="inkscape:persp3d" />
    <linearGradient
       inkscape:collect="always"
       xlink:href="#StandardGradient"
       id="linearGradient3634"
       gradientUnits="userSpaceOnUse"
       gradientTransform="matrix(0.9247229,0,0,1.0872097,-26.060056,-2.0023583)"
       x1="11.998966"
       y1="2.7615263"
       x2="11.998966"
       y2="15.638639" />
    <clipPath
       clipPathUnits="userSpaceOnUse"
       id="clipPath3641">
      <path
         style="fill:#ff00ff;fill-opacity:1;stroke:none;display:inline"
         d="m -20,0 0,16 16,0 0,-16 -16,0 z m 3,1 3,0 c 0.554,0 1,0.446 1,1 l 6,0 c 0.554,0 1,0.446 1,1 l -12,0 0,-1 c 0,-0.554 0.446,-1 1,-1 z m -0.5,3 11,0 C -5.669,4 -5,4.669 -5,5.5 l 0,6 c 0,0.831 -0.669,1.5 -1.5,1.5 l -5.5,0 0,-3 -2,0 0,-2 -4,0 0,2 -1,0 0,-4.5 C -19,4.669 -18.331,4 -17.5,4 z m 0.5,5 2,0 0,2 2,0 0,2 -2,0 0,2 -2,0 0,-2 -2,0 0,-2 2,0 0,-2 z"
         id="path3643" />
    </clipPath>
    <linearGradient
       inkscape:collect="always"
       xlink:href="#StandardGradient"
       id="linearGradient2857"
       gradientUnits="userSpaceOnUse"
       gradientTransform="matrix(0.9247229,0,0,-1.0872097,-6.0600562,19.002358)"
       x1="11.998966"
       y1="2.7615263"
       x2="11.998966"
       y2="15.638639" />
    <linearGradient
       inkscape:collect="always"
       xlink:href="#StandardGradient"
       id="linearGradient2859"
       gradientUnits="userSpaceOnUse"
       gradientTransform="matrix(0.9247229,0,0,1.0872097,-6.0600562,-2.0023583)"
       x1="11.998966"
       y1="2.7615263"
       x2="11.998966"
       y2="15.638639" />
    <inkscape:perspective
       id="perspective3691"
       inkscape:persp3d-origin="0.5 : 0.33333333 : 1"
       inkscape:vp_z="1 : 0.5 : 1"
       inkscape:vp_y="0 : 1000 : 0"
       inkscape:vp_x="0 : 0.5 : 1"
       sodipodi:type="inkscape:persp3d" />
    <linearGradient
       inkscape:collect="always"
       xlink:href="#StandardGradient-5"
       id="linearGradient2873"
       gradientUnits="userSpaceOnUse"
       gradientTransform="matrix(0.9247229,0,0,1.0872097,-8.0600562,-4.0023583)"
       x1="11.998966"
       y1="3.6813121"
       x2="11.998966"
       y2="16.529612" />
    <linearGradient
       id="StandardGradient-5"
       gradientTransform="scale(0.9219544,1.0846523)"
       x1="11.998966"
       y1="0.92195445"
       x2="11.998966"
       y2="19.387045"
       gradientUnits="userSpaceOnUse">
      <stop
         style="stop-color:#000000;stop-opacity:0.86274511;"
         offset="0"
         id="stop3283-6" />
      <stop
         style="stop-color:#000000;stop-opacity:0.47058824;"
         offset="1"
         id="stop2651-9" />
    </linearGradient>
    <linearGradient
       y2="16.529612"
       x2="11.998966"
       y1="3.6813121"
       x1="11.998966"
       gradientTransform="matrix(0.9247229,0,0,1.0872097,-8.0600562,15.997642)"
       gradientUnits="userSpaceOnUse"
       id="linearGradient3700"
       xlink:href="#StandardGradient-5"
       inkscape:collect="always" />
    <linearGradient
       inkscape:collect="always"
       xlink:href="#StandardGradient-5"
       id="linearGradient2889"
       gradientUnits="userSpaceOnUse"
       gradientTransform="matrix(0.9247229,0,0,1.0872097,-8.0600562,-4.002358)"
       x1="11.998966"
       y1="3.6813121"
       x2="11.998966"
       y2="16.529612" />
    <linearGradient
       inkscape:collect="always"
       xlink:href="#StandardGradient"
       id="linearGradient2891"
       gradientUnits="userSpaceOnUse"
       gradientTransform="matrix(0.9247229,0,0,1.0872097,-6.0600562,-1.0023583)"
       x1="11.960401"
       y1="0.92195487"
       x2="11.960401"
       y2="14.718741" />
    <linearGradient
       inkscape:collect="always"
       xlink:href="#StandardGradient"
       id="linearGradient2893"
       gradientUnits="userSpaceOnUse"
       gradientTransform="matrix(0.9247229,0,0,1.0872097,-6.0600562,-1.0023583)"
       x1="11.998966"
       y1="2.7615263"
       x2="11.998966"
       y2="15.638639" />
    <linearGradient
       inkscape:collect="always"
       xlink:href="#StandardGradient"
       id="linearGradient2896"
       gradientUnits="userSpaceOnUse"
       gradientTransform="matrix(0.9247229,0,0,1.0872097,-6.0600562,-1.0023583)"
       x1="11.998966"
       y1="0.92191833"
       x2="11.998966"
       y2="15.638639" />
    <linearGradient
       inkscape:collect="always"
       xlink:href="#StandardGradient"
       id="linearGradient2902"
       gradientUnits="userSpaceOnUse"
       gradientTransform="matrix(0.9247229,0,0,1.0872097,-6.0600562,-0.0023583)"
       x1="11.998966"
       y1="0.92191833"
       x2="11.998966"
       y2="15.638639" />
    <linearGradient
       inkscape:collect="always"
       xlink:href="#StandardGradient"
       id="linearGradient2904"
       gradientUnits="userSpaceOnUse"
       gradientTransform="matrix(0.9247229,0,0,1.0872097,-6.0600562,-1.0023583)"
       x1="11.998966"
       y1="0.92191833"
       x2="11.998966"
       y2="15.638639" />
    <linearGradient
       inkscape:collect="always"
       xlink:href="#StandardGradient"
       id="linearGradient3681"
       gradientUnits="userSpaceOnUse"
       gradientTransform="matrix(0.9247229,0,0,1.0872097,-6.0600562,-0.0023583)"
       x1="11.998966"
       y1="0.92191833"
       x2="11.998966"
       y2="15.638639" />
    <linearGradient
       inkscape:collect="always"
       xlink:href="#StandardGradient"
       id="linearGradient3685"
       gradientUnits="userSpaceOnUse"
       gradientTransform="matrix(0.9247229,0,0,1.0872097,-6.0600562,-1.0023583)"
       x1="11.998966"
       y1="0.92191833"
       x2="11.998966"
       y2="15.638639" />
    <linearGradient
       inkscape:collect="always"
       xlink:href="#StandardGradient"
       id="linearGradient3690"
       gradientUnits="userSpaceOnUse"
       gradientTransform="matrix(0.9247229,0,0,1.0872097,-26.060056,-1.0023583)"
       x1="11.998966"
       y1="0.92191833"
       x2="11.998966"
       y2="15.638639" />
    <clipPath
       clipPathUnits="userSpaceOnUse"
       id="clipPath3697">
      <path
         style="fill:#ff00ff;fill-opacity:1;stroke:none;display:inline"
         d="m -20,0 0,16 16,0 0,-16 -2.5,0 C -5.669,0 -5,0.669 -5,1.5 l 0,11 c 0,0.831 -0.669,1.5 -1.5,1.5 l -1.5,0 0,1 -3,0 0,-1 -1.5,0 c -0.831,0 -1.5,-0.669 -1.5,-1.5 l 0,-0.5 6,0 c 0.554,0 1,-0.446 1,-1 L -7,3 C -7,2.446 -7.446,2 -8,2 l -6,0 0,-0.5 C -14,0.669 -13.331,0 -12.5,0 L -20,0 z m 3,2 1,0 c 0.554,0 1,0.446 1,1 l 3,0 c 0.554,0 1,0.446 1,1 l -7,0 0,-1 c 0,-0.554 0.446,-1 1,-1 z m -0.5,3 6,0 c 0.831,0 1.5,0.669 1.5,1.5 l 0,3 c 0,0.727125 -0.502744,1.329338 -1.1875,1.46875 C -11.285322,10.98867 -11.396125,11 -11.5,11 l -6,0 C -18.331,11 -19,10.331 -19,9.5 l 0,-3 C -19,5.669 -18.331,5 -17.5,5 z"
         id="path3699" />
    </clipPath>
    <filter
       inkscape:collect="always"
       id="filter3701">
      <feGaussianBlur
         inkscape:collect="always"
         stdDeviation="0.435"
         id="feGaussianBlur3703" />
    </filter>
    <linearGradient
       inkscape:collect="always"
       xlink:href="#StandardGradient"
       id="linearGradient4493"
       gradientUnits="userSpaceOnUse"
       gradientTransform="matrix(0.9247229,0,0,1.0872097,-6.0600562,-1.0023583)"
       x1="11.998966"
       y1="0.92191833"
       x2="11.998966"
       y2="15.638639" />
    <linearGradient
       inkscape:collect="always"
       xlink:href="#StandardGradient"
       id="linearGradient4497"
       gradientUnits="userSpaceOnUse"
       gradientTransform="matrix(0.9247229,0,0,1.0872097,-6.0600562,-1.0023583)"
       x1="11.998966"
       y1="0.92191833"
       x2="11.998966"
       y2="15.638639" />
  </defs>
  <metadata
     id="metadata7">
    <rdf:RDF>
      <cc:Work
         rdf:about="">
        <dc:format>image/svg+xml</dc:format>
        <dc:type
           rdf:resource="http://purl.org/dc/dcmitype/StillImage" />
      </cc:Work>
    </rdf:RDF>
  </metadata>
  <g
     style="display:inline"
     inkscape:label="Calque 1"
     id="layer1"
     inkscape:groupmode="layer">
    <path
       style="fill:#ffffff;fill-opacity:1;stroke:none;display:inline;opacity:0.15"
       d="M 7.5 -1.03125 C 6.1676557 -1.03125 5.1097379 0.060305526 5.03125 1.375 C 4.7174389 1.1743737 4.3937626 0.96875 4 0.96875 L 3 0.96875 C 1.8947876 0.96875 0.96875 1.8947876 0.96875 3 L 0.96875 4 A 1.0271375 1.0271375 0 0 0 1.125 4.5625 C 0.47445075 5.0224649 -0.03125 5.6533272 -0.03125 6.5 L -0.03125 9.5 C -0.03125 10.882212 1.1177876 12.03125 2.5 12.03125 L 4.96875 12.03125 L 4.96875 12.5 C 4.96875 13.882212 6.1177876 15.03125 7.5 15.03125 L 7.96875 15.03125 A 1.0271375 1.0271375 0 0 0 9 16.03125 L 12 16.03125 A 1.0271375 1.0271375 0 0 0 13.03125 15.03125 L 13.5 15.03125 C 14.882212 15.03125 16.03125 13.882212 16.03125 12.5 L 16.03125 1.5 C 16.03125 0.1177876 14.882212 -1.03125 13.5 -1.03125 L 7.5 -1.03125 z M 7.5 0 L 13.5 0 C 14.331 0 15 0.669 15 1.5 L 15 12.5 C 15 13.331 14.331 14 13.5 14 L 12 14 L 12 15 L 9 15 L 9 14 L 7.5 14 C 6.669 14 6 13.331 6 12.5 L 6 12 L 12 12 C 12.554 12 13 11.554 13 11 L 13 3 C 13 2.446 12.554 2 12 2 L 6 2 L 6 1.5 C 6 0.669 6.669 0 7.5 0 z M 3 2 L 4 2 C 4.554 2 5 2.446 5 3 L 8 3 C 8.554 3 9 3.446 9 4 L 2 4 L 2 3 C 2 2.446 2.446 2 3 2 z M 9.625 3.03125 L 11.96875 3.03125 L 11.96875 10.96875 L 10.5 10.96875 C 10.810237 10.54627 11.03125 10.054706 11.03125 9.5 L 11.03125 6.5 C 11.03125 5.6533272 10.525549 5.0224649 9.875 4.5625 A 1.0271375 1.0271375 0 0 0 10.03125 4 C 10.03125 3.6267621 9.8068202 3.334218 9.625 3.03125 z M 2.5 5 L 8.5 5 C 9.331 5 10 5.669 10 6.5 L 10 9.5 C 10 10.227125 9.497256 10.829338 8.8125 10.96875 C 8.714678 10.98867 8.603875 11 8.5 11 L 2.5 11 C 1.669 11 1 10.331 1 9.5 L 1 6.5 C 1 5.669 1.669 5 2.5 5 z "
       id="path4495" />
    <path
       style="fill:url(#linearGradient2896);fill-opacity:1;stroke:none;display:inline"
       d="M 7.5 0 C 6.669 0 6 0.669 6 1.5 L 6 2 L 12 2 C 12.554 2 13 2.446 13 3 L 13 11 C 13 11.554 12.554 12 12 12 L 6 12 L 6 12.5 C 6 13.331 6.669 14 7.5 14 L 9 14 L 9 15 L 12 15 L 12 14 L 13.5 14 C 14.331 14 15 13.331 15 12.5 L 15 1.5 C 15 0.669 14.331 0 13.5 0 L 7.5 0 z M 3 2 C 2.446 2 2 2.446 2 3 L 2 4 L 9 4 C 9 3.446 8.554 3 8 3 L 5 3 C 5 2.446 4.554 2 4 2 L 3 2 z M 2.5 5 C 1.669 5 1 5.669 1 6.5 L 1 9.5 C 1 10.331 1.669 11 2.5 11 L 8.5 11 C 8.603875 11 8.714678 10.98867 8.8125 10.96875 C 9.497256 10.829338 10 10.227125 10 9.5 L 10 6.5 C 10 5.669 9.331 5 8.5 5 L 2.5 5 z "
       id="path2853" />
    <path
       style="fill:#000000;fill-opacity:1;stroke:none;display:inline;opacity:0.5"
       d="M 7.5 0 C 6.669 0 6 0.669 6 1.5 L 6 2 L 6.09375 2 C 6.2970063 1.4129833 6.842125 1 7.5 1 L 13.5 1 C 14.331 1 15 1.669 15 2.5 L 15 1.5 C 15 0.669 14.331 0 13.5 0 L 7.5 0 z M 3 2 C 2.446 2 2 2.446 2 3 L 2 4 C 2 3.446 2.446 3 3 3 L 4 3 C 4.554 3 5 3.446 5 4 L 8 4 L 9 4 C 9 3.446 8.554 3 8 3 L 6 3 L 5 3 C 5 2.446 4.554 2 4 2 L 3 2 z M 2.5 5 C 1.669 5 1 5.669 1 6.5 L 1 7.5 C 1 6.669 1.669 6 2.5 6 L 8.5 6 C 9.331 6 10 6.669 10 7.5 L 10 6.5 C 10 5.669 9.331 5 8.5 5 L 2.5 5 z M 13 11 C 13 11.554 12.554 12 12 12 L 8.5 12 L 6 12 L 6 12.5 C 6 12.673125 6.0402615 12.845522 6.09375 13 L 12 13 C 12.554 13 13 12.554 13 12 L 13 11 z "
       id="path2898" />
    <path
       style="fill:#ffffff;fill-opacity:1;stroke:none;display:inline;opacity:0.3"
       d="M 6.09375 2 C 6.0402615 2.1544781 6 2.326875 6 2.5 L 6 3 L 8 3 L 12 3 C 12.554 3 13 3.446 13 4 L 13 3 C 13 2.446 12.554 2 12 2 L 6.09375 2 z M 2 4 L 2 5 L 2.5 5 L 8.5 5 L 9 5 C 9 4.446 8.554 4 8 4 L 5 4 L 2 4 z M 1 9.5 L 1 10.5 C 1 11.331 1.669 12 2.5 12 L 6 12 L 8.5 12 C 8.603875 12 8.714678 11.98867 8.8125 11.96875 C 9.497256 11.829338 10 11.227125 10 10.5 L 10 9.5 C 10 10.227125 9.497256 10.829338 8.8125 10.96875 C 8.714678 10.98867 8.603875 11 8.5 11 L 2.5 11 C 1.669 11 1 10.331 1 9.5 z M 15 12.5 C 15 13.331 14.331 14 13.5 14 L 12 14 L 12 15 L 13.5 15 C 14.331 15 15 14.331 15 13.5 L 15 12.5 z M 12 15 L 9 15 L 9 16 L 12 16 L 12 15 z M 9 15 L 9 14 L 7.5 14 C 6.842125 14 6.2970063 13.587017 6.09375 13 L 6 13 L 6 13.5 C 6 14.331 6.669 15 7.5 15 L 9 15 z "
       id="path3679" />
  </g>
</svg>
