<?xml version="1.0" encoding="UTF-8" standalone="no"?>
<!-- Created with Inkscape (http://www.inkscape.org/) -->

<svg
   xmlns:dc="http://purl.org/dc/elements/1.1/"
   xmlns:cc="http://creativecommons.org/ns#"
   xmlns:rdf="http://www.w3.org/1999/02/22-rdf-syntax-ns#"
   xmlns:svg="http://www.w3.org/2000/svg"
   xmlns="http://www.w3.org/2000/svg"
   xmlns:xlink="http://www.w3.org/1999/xlink"
   xmlns:sodipodi="http://sodipodi.sourceforge.net/DTD/sodipodi-0.dtd"
   xmlns:inkscape="http://www.inkscape.org/namespaces/inkscape"
   version="1.0"
   width="16"
   height="16"
   id="svg3196"
   sodipodi:version="0.32"
   inkscape:version="0.48.0 r9654"
   sodipodi:docname="view-list-details-symbolic.svg"
   inkscape:output_extension="org.inkscape.output.svg.inkscape">
  <metadata
     id="metadata11">
    <rdf:RDF>
      <cc:Work
         rdf:about="">
        <dc:format>image/svg+xml</dc:format>
        <dc:type
           rdf:resource="http://purl.org/dc/dcmitype/StillImage" />
        <dc:title />
      </cc:Work>
    </rdf:RDF>
  </metadata>
  <sodipodi:namedview
     inkscape:window-height="1029"
     inkscape:window-width="1920"
     inkscape:pageshadow="2"
     inkscape:pageopacity="0.0"
     guidetolerance="10.0"
     gridtolerance="10.0"
     objecttolerance="10.0"
     borderopacity="1.0"
     bordercolor="#666666"
     pagecolor="#ffffff"
     id="base"
     showgrid="true"
     inkscape:zoom="20.565082"
     inkscape:cx="9.1482637"
     inkscape:cy="4.0606541"
     inkscape:window-x="0"
     inkscape:window-y="25"
     inkscape:current-layer="svg3196"
     inkscape:window-maximized="1">
    <inkscape:grid
       type="xygrid"
       id="grid3019" />
  </sodipodi:namedview>
  <defs
     id="defs3198">
    <linearGradient
       id="linearGradient3587-6-5">
      <stop
         id="stop3589-9-2"
         style="stop-color:#000000;stop-opacity:1"
         offset="0" />
      <stop
         id="stop3591-7-4"
         style="stop-color:#363636;stop-opacity:1"
         offset="1" />
    </linearGradient>
    <linearGradient
       x1="1.3333321"
       y1="6.6666665"
       x2="1.3333321"
       y2="33.333332"
       id="linearGradient2422"
       xlink:href="#linearGradient3587-6-5"
       gradientUnits="userSpaceOnUse"
       gradientTransform="matrix(0.4090909,0,0,0.375,7.4545459,0.5)" />
    <linearGradient
       inkscape:collect="always"
       xlink:href="#linearGradient3587-6-5"
       id="linearGradient2999"
       gradientUnits="userSpaceOnUse"
       gradientTransform="matrix(0.4090909,0,0,0.75,7.4545459,-6)"
       x1="1.3333321"
       y1="6.6666665"
       x2="1.3333321"
       y2="33.333332" />
    <linearGradient
       inkscape:collect="always"
       xlink:href="#linearGradient3587-6-5"
       id="linearGradient3005"
       gradientUnits="userSpaceOnUse"
       gradientTransform="matrix(0.4090909,0,0,0.375,7.4545459,0.5)"
       x1="1.3333321"
       y1="6.6666665"
       x2="1.3333321"
       y2="33.333332" />
    <linearGradient
       inkscape:collect="always"
       xlink:href="#linearGradient3587-6-5"
       id="linearGradient3011"
       gradientUnits="userSpaceOnUse"
       gradientTransform="matrix(0.4090909,0,0,0.75,7.4545459,-2)"
       x1="1.3333321"
       y1="6.6666665"
       x2="1.3333321"
       y2="33.333332" />
    <linearGradient
       inkscape:collect="always"
       xlink:href="#linearGradient3587-6-5"
       id="linearGradient3017"
       gradientUnits="userSpaceOnUse"
       gradientTransform="matrix(0.4090909,0,0,0.75,7.4545459,-4)"
       x1="1.3333321"
       y1="6.6666665"
       x2="1.3333321"
       y2="33.333332" />
    <linearGradient
       inkscape:collect="always"
       xlink:href="#StandardGradient"
       id="linearGradient3112"
       gradientUnits="userSpaceOnUse"
       gradientTransform="matrix(0.3,0,0,0.3,7.4,1.8)"
       x1="22"
       y1="4"
       x2="22"
       y2="37.333332" />
    <linearGradient
       id="StandardGradient"
       gradientTransform="matrix(1.0765258,0,0,0.9227364,-20.008013,0.1584665)"
       x1="10.005832"
       y1="4.1631975"
       x2="10.005832"
       y2="17.168188"
       gradientUnits="userSpaceOnUse">
      <stop
         id="stop3337"
         offset="0"
         style="stop-color:#000000;stop-opacity:0.86274511;" />
      <stop
         id="stop3339"
         offset="1"
         style="stop-color:#000000;stop-opacity:0.47058824;" />
    </linearGradient>
    <linearGradient
       y2="37.333332"
       x2="22"
       y1="4"
       x1="22"
       gradientTransform="matrix(0.3,0,0,0.3,16.4,3.8)"
       gradientUnits="userSpaceOnUse"
       id="linearGradient4465"
       xlink:href="#StandardGradient"
       inkscape:collect="always" />
    <linearGradient
       inkscape:collect="always"
       xlink:href="#StandardGradient"
       id="linearGradient3807"
       gradientUnits="userSpaceOnUse"
       gradientTransform="matrix(0.4090909,0,0,0.75,7.4545459,-4)"
       x1="1.3333321"
       y1="9.333333"
       x2="1.3333321"
       y2="22.666666" />
    <linearGradient
       inkscape:collect="always"
       xlink:href="#StandardGradient"
       id="linearGradient3813"
       gradientUnits="userSpaceOnUse"
       gradientTransform="matrix(0.4090909,0,0,0.75,7.4545459,-3)"
       x1="1.3333321"
       y1="9.333333"
       x2="1.3333321"
       y2="22.666666" />
    <linearGradient
       inkscape:collect="always"
       xlink:href="#StandardGradient"
       id="linearGradient3815"
       gradientUnits="userSpaceOnUse"
       gradientTransform="matrix(0.4090909,0,0,0.75,7.4545459,-4)"
       x1="1.3333321"
       y1="9.333333"
       x2="1.3333321"
       y2="22.666666" />
    <linearGradient
       inkscape:collect="always"
       xlink:href="#StandardGradient"
       id="linearGradient3824"
       gradientUnits="userSpaceOnUse"
       gradientTransform="matrix(0.4090909,0,0,0.75,7.4545459,-4)"
       x1="1.3333321"
       y1="9.333333"
       x2="1.3333321"
       y2="22.666666" />
    <linearGradient
       inkscape:collect="always"
       xlink:href="#StandardGradient"
       id="linearGradient3828"
       gradientUnits="userSpaceOnUse"
       gradientTransform="matrix(0.4090909,0,0,0.75,7.4545459,-4)"
       x1="1.3333321"
       y1="9.333333"
       x2="1.3333321"
       y2="22.666666" />
  </defs>
  <path
     style="font-size:medium;font-style:normal;font-variant:normal;font-weight:normal;font-stretch:normal;text-indent:0;text-align:start;text-decoration:none;line-height:normal;letter-spacing:normal;word-spacing:normal;text-transform:none;direction:ltr;block-progression:tb;writing-mode:lr-tb;text-anchor:start;baseline-shift:baseline;color:#000000;fill:#ffffff;fill-opacity:1;stroke:none;stroke-width:1;marker:none;visibility:visible;display:inline;overflow:visible;enable-background:accumulate;font-family:Sans;-inkscape-font-specification:Sans;opacity:0.15"
     d="M 1.8125 2.0625 A 0.93543549 0.93543549 0 0 0 1.0625 3 L 1.0625 5 A 0.93543549 0.93543549 0 0 0 2 5.9375 L 14 5.9375 A 0.93543549 0.93543549 0 0 0 14.9375 5 L 14.9375 3 A 0.93543549 0.93543549 0 0 0 14 2.0625 L 2 2.0625 A 0.93543549 0.93543549 0 0 0 1.90625 2.0625 A 0.93543549 0.93543549 0 0 0 1.8125 2.0625 z M 2 3 L 14 3 L 14 5 L 2 5 L 2 3 z M 1.8125 6.0625 A 0.93543549 0.93543549 0 0 0 1.0625 7 L 1.0625 9 A 0.93543549 0.93543549 0 0 0 2 9.9375 L 14 9.9375 A 0.93543549 0.93543549 0 0 0 14.9375 9 L 14.9375 7 A 0.93543549 0.93543549 0 0 0 14 6.0625 L 2 6.0625 A 0.93543549 0.93543549 0 0 0 1.90625 6.0625 A 0.93543549 0.93543549 0 0 0 1.8125 6.0625 z M 2 7 L 14 7 L 14 9 L 2 9 L 2 7 z M 1.8125 10.0625 A 0.93543549 0.93543549 0 0 0 1.0625 11 L 1.0625 13 A 0.93543549 0.93543549 0 0 0 2 13.9375 L 14 13.9375 A 0.93543549 0.93543549 0 0 0 14.9375 13 L 14.9375 11 A 0.93543549 0.93543549 0 0 0 14 10.0625 L 2 10.0625 A 0.93543549 0.93543549 0 0 0 1.90625 10.0625 A 0.93543549 0.93543549 0 0 0 1.8125 10.0625 z M 2 11 L 14 11 L 14 13 L 2 13 L 2 11 z "
     id="path3826" />
  <path
     style="font-size:medium;font-style:normal;font-variant:normal;font-weight:normal;font-stretch:normal;text-indent:0;text-align:start;text-decoration:none;line-height:normal;letter-spacing:normal;word-spacing:normal;text-transform:none;direction:ltr;block-progression:tb;writing-mode:lr-tb;text-anchor:start;baseline-shift:baseline;opacity:1;color:#000000;fill:url(#linearGradient3807);fill-opacity:1;stroke:none;stroke-width:1;marker:none;visibility:visible;display:inline;overflow:visible;enable-background:accumulate;font-family:Sans;-inkscape-font-specification:Sans"
     d="M 2 3 L 2 5 L 14 5 L 14 3 L 2 3 z M 2 7 L 2 9 L 14 9 L 14 7 L 2 7 z M 2 11 L 2 13 L 14 13 L 14 11 L 2 11 z "
     id="path2993" />
  <path
     style="font-size:medium;font-style:normal;font-variant:normal;font-weight:normal;font-stretch:normal;text-indent:0;text-align:start;text-decoration:none;line-height:normal;letter-spacing:normal;word-spacing:normal;text-transform:none;direction:ltr;block-progression:tb;writing-mode:lr-tb;text-anchor:start;baseline-shift:baseline;opacity:0.5;color:#000000;fill:#000000;fill-opacity:1;stroke:none;stroke-width:1;marker:none;visibility:visible;display:inline;overflow:visible;enable-background:accumulate;font-family:Sans;-inkscape-font-specification:Sans"
     d="M 2 3 L 2 4 L 14 4 L 14 3 L 2 3 z M 2 7 L 2 8 L 14 8 L 14 7 L 2 7 z M 2 11 L 2 12 L 14 12 L 14 11 L 2 11 z "
     id="path3809" />
  <path
     id="path3818"
     d="M 2,5 2,6 14,6 14,5 2,5 z m 0,4 0,1 12,0 0,-1 -12,0 z m 0,4 0,1 12,0 0,-1 -12,0 z"
     style="font-size:medium;font-style:normal;font-variant:normal;font-weight:normal;font-stretch:normal;text-indent:0;text-align:start;text-decoration:none;line-height:normal;letter-spacing:normal;word-spacing:normal;text-transform:none;direction:ltr;block-progression:tb;writing-mode:lr-tb;text-anchor:start;baseline-shift:baseline;opacity:0.3;color:#000000;fill:#ffffff;fill-opacity:1;stroke:none;stroke-width:1;marker:none;visibility:visible;display:inline;overflow:visible;enable-background:accumulate;font-family:Sans;-inkscape-font-specification:Sans"
     inkscape:connector-curvature="0" />
</svg>
