<?xml version="1.0" encoding="UTF-8" standalone="no"?>
<!-- Created with Inkscape (http://www.inkscape.org/) -->

<svg
   xmlns:dc="http://purl.org/dc/elements/1.1/"
   xmlns:cc="http://creativecommons.org/ns#"
   xmlns:rdf="http://www.w3.org/1999/02/22-rdf-syntax-ns#"
   xmlns:svg="http://www.w3.org/2000/svg"
   xmlns="http://www.w3.org/2000/svg"
   xmlns:xlink="http://www.w3.org/1999/xlink"
   xmlns:sodipodi="http://sodipodi.sourceforge.net/DTD/sodipodi-0.dtd"
   xmlns:inkscape="http://www.inkscape.org/namespaces/inkscape"
   width="22"
   height="22"
   id="svg2"
   sodipodi:version="0.32"
   inkscape:version="0.48.0 r9654"
   version="1.0"
   sodipodi:docname="empty_offline.svg"
   inkscape:output_extension="org.inkscape.output.svg.inkscape"
   style="display:inline">
  <defs
     id="defs4">
    <linearGradient
       inkscape:collect="always"
       xlink:href="#linearGradient2841"
       id="linearGradient3181"
       x1="-3.0607977"
       y1="27.258198"
       x2="-3.0607977"
       y2="7.2536583"
       gradientUnits="userSpaceOnUse"
       gradientTransform="translate(11.119372,-6.2581977)" />
    <inkscape:perspective
       sodipodi:type="inkscape:persp3d"
       inkscape:vp_x="0 : 11 : 1"
       inkscape:vp_y="0 : 1000 : 0"
       inkscape:vp_z="22 : 11 : 1"
       inkscape:persp3d-origin="11 : 7.3333333 : 1"
       id="perspective2531" />
    <linearGradient
       id="ButtonShadow"
       gradientTransform="scale(0.9883037,1.0118347)"
       x1="9.3550024"
       y1="21.742682"
       x2="9.3550024"
       y2="0.49362123"
       gradientUnits="userSpaceOnUse">
      <stop
         id="stop3277"
         offset="0"
         style="stop-color:#000000;stop-opacity:0.70588237;" />
      <stop
         id="stop3279"
         offset="1"
         style="stop-color:#000000;stop-opacity:0.15686275;" />
    </linearGradient>
    <linearGradient
       inkscape:collect="always"
       id="linearGradient3232">
      <stop
         style="stop-color:#000000;stop-opacity:1;"
         offset="0"
         id="stop3234" />
      <stop
         style="stop-color:#000000;stop-opacity:0;"
         offset="1"
         id="stop3236" />
    </linearGradient>
    <linearGradient
       gradientUnits="userSpaceOnUse"
       y2="-6.0004225"
       x2="11"
       y1="14.805666"
       x1="11"
       id="linearGradient3221"
       xlink:href="#linearGradient3232"
       inkscape:collect="always" />
    <linearGradient
       id="ButtonColor"
       x1="10.31979"
       y1="21"
       x2="10.31979"
       y2="0.99929649"
       gradientUnits="userSpaceOnUse">
      <stop
         style="stop-color:#29669f;stop-opacity:1;"
         offset="0"
         id="stop3189" />
      <stop
         style="stop-color:#88b6e0;stop-opacity:1;"
         offset="1"
         id="stop3191" />
    </linearGradient>
    <linearGradient
       inkscape:collect="always"
       xlink:href="#ButtonShadow"
       id="linearGradient38042"
       gradientUnits="userSpaceOnUse"
       gradientTransform="scale(0.9883037,1.0118347)"
       x1="9.3550024"
       y1="21.742682"
       x2="9.3550024"
       y2="0.49362123" />
    <clipPath
       clipPathUnits="userSpaceOnUse"
       id="clipPath2849">
      <rect
         ry="2"
         rx="2"
         y="1"
         x="1"
         height="20"
         width="20"
         id="rect2851"
         style="fill:#ffffff;fill-opacity:1;fill-rule:evenodd;stroke:none;display:inline" />
    </clipPath>
    <inkscape:perspective
       id="perspective3799"
       inkscape:persp3d-origin="0.5 : 0.33333333 : 1"
       inkscape:vp_z="1 : 0.5 : 1"
       inkscape:vp_y="0 : 1000 : 0"
       inkscape:vp_x="0 : 0.5 : 1"
       sodipodi:type="inkscape:persp3d" />
    <linearGradient
       inkscape:collect="always"
       xlink:href="#linearGradient2841"
       id="linearGradient3617"
       gradientUnits="userSpaceOnUse"
       x1="48"
       y1="90"
       x2="48"
       y2="5.9877172" />
    <linearGradient
       id="linearGradient2841">
      <stop
         id="stop2843"
         offset="0"
         style="stop-color:#d4530d;stop-opacity:1" />
      <stop
         id="stop2845"
         offset="1"
         style="stop-color:#f7ad25;stop-opacity:1" />
    </linearGradient>
    <linearGradient
       gradientTransform="translate(-76,-35)"
       y2="5.9877172"
       x2="48"
       y1="90"
       x1="48"
       gradientUnits="userSpaceOnUse"
       id="linearGradient3808"
       xlink:href="#linearGradient2841"
       inkscape:collect="always" />
    <inkscape:perspective
       id="perspective3838"
       inkscape:persp3d-origin="0.5 : 0.33333333 : 1"
       inkscape:vp_z="1 : 0.5 : 1"
       inkscape:vp_y="0 : 1000 : 0"
       inkscape:vp_x="0 : 0.5 : 1"
       sodipodi:type="inkscape:persp3d" />
    <linearGradient
       inkscape:collect="always"
       xlink:href="#linearGradient2841"
       id="linearGradient3658"
       gradientUnits="userSpaceOnUse"
       gradientTransform="translate(-18.880628,-4.2581977)"
       x1="-3.0607977"
       y1="27.258198"
       x2="-3.0607977"
       y2="7.2536583" />
    <clipPath
       clipPathUnits="userSpaceOnUse"
       id="clipPath3663">
      <path
         style="fill:#ff00ff;fill-opacity:1;fill-rule:evenodd;stroke:none;display:inline"
         d="m -27,1 c -1.108,0 -2,0.892 -2,2 l 0,16 c 0,1.108 0.892,2 2,2 l 16,0 c 1.108,0 2,-0.892 2,-2 L -9,3 C -9,1.892 -9.892,1 -11,1 l -16,0 z m 0,2 a 16,16 0 0 1 16,16 l -3.1875,0 A 12.8,12.8 0 0 0 -27,6.1875 L -27,3 z m 0,5.40625 A 10.605714,10.605714 0 0 1 -16.40625,19 L -19.5,19 A 7.4971427,7.4971427 0 0 0 -27,11.5 l 0,-3.09375 z m 2.1875,6.21875 c 1.211871,0 2.1875,0.97563 2.1875,2.1875 0,1.211871 -0.975629,2.1875 -2.1875,2.1875 C -26.02437,19 -27,18.024371 -27,16.8125 c 0,-1.21187 0.97563,-2.1875 2.1875,-2.1875 z"
         id="path3665" />
    </clipPath>
    <inkscape:perspective
       id="perspective2910"
       inkscape:persp3d-origin="0.5 : 0.33333333 : 1"
       inkscape:vp_z="1 : 0.5 : 1"
       inkscape:vp_y="0 : 1000 : 0"
       inkscape:vp_x="0 : 0.5 : 1"
       sodipodi:type="inkscape:persp3d" />
    <linearGradient
       inkscape:collect="always"
       xlink:href="#linearGradient4081"
       id="linearGradient3527"
       gradientUnits="userSpaceOnUse"
       gradientTransform="translate(1,0)"
       x1="6.8391123"
       y1="16.300354"
       x2="6.8391123"
       y2="6.0528178" />
    <linearGradient
       id="linearGradient4081">
      <stop
         style="stop-color:#aaaaaa;stop-opacity:1;"
         offset="0"
         id="stop4083" />
      <stop
         style="stop-color:#f0f0f0;stop-opacity:1;"
         offset="1"
         id="stop4085" />
    </linearGradient>
    <inkscape:perspective
       id="perspective2918"
       inkscape:persp3d-origin="0.5 : 0.33333333 : 1"
       inkscape:vp_z="1 : 0.5 : 1"
       inkscape:vp_y="0 : 1000 : 0"
       inkscape:vp_x="0 : 0.5 : 1"
       sodipodi:type="inkscape:persp3d" />
    <linearGradient
       inkscape:collect="always"
       xlink:href="#linearGradient3183"
       id="linearGradient7193"
       gradientUnits="userSpaceOnUse"
       gradientTransform="matrix(0,-0.8456457,0.8456457,0,5.6846841,23.700311)"
       x1="11"
       y1="11.015625"
       x2="19"
       y2="11.015625" />
    <linearGradient
       id="linearGradient3183">
      <stop
         style="stop-color:#c80000;stop-opacity:1;"
         offset="0"
         id="stop3185" />
      <stop
         style="stop-color:#f3604d;stop-opacity:1;"
         offset="1"
         id="stop3187" />
    </linearGradient>
    <linearGradient
       y2="11.015625"
       x2="19"
       y1="11.015625"
       x1="11"
       gradientTransform="matrix(0,-0.8456457,0.8456457,0,7.6846841,39.700311)"
       gradientUnits="userSpaceOnUse"
       id="linearGradient2927"
       xlink:href="#linearGradient3183"
       inkscape:collect="always" />
    <inkscape:perspective
       id="perspective2918-2"
       inkscape:persp3d-origin="0.5 : 0.33333333 : 1"
       inkscape:vp_z="1 : 0.5 : 1"
       inkscape:vp_y="0 : 1000 : 0"
       inkscape:vp_x="0 : 0.5 : 1"
       sodipodi:type="inkscape:persp3d" />
    <linearGradient
       inkscape:collect="always"
       xlink:href="#linearGradient3183-3"
       id="linearGradient7193-8"
       gradientUnits="userSpaceOnUse"
       gradientTransform="matrix(0,-0.8456457,0.8456457,0,5.6846841,23.700311)"
       x1="11"
       y1="11.015625"
       x2="19"
       y2="11.015625" />
    <linearGradient
       id="linearGradient3183-3">
      <stop
         style="stop-color:#c80000;stop-opacity:1;"
         offset="0"
         id="stop3185-1" />
      <stop
         style="stop-color:#f3604d;stop-opacity:1;"
         offset="1"
         id="stop3187-0" />
    </linearGradient>
    <linearGradient
       y2="11.015625"
       x2="19"
       y1="11.015625"
       x1="11"
       gradientTransform="matrix(0,-0.8456457,0.8456457,0,7.6846841,29.700311)"
       gradientUnits="userSpaceOnUse"
       id="linearGradient2927-1"
       xlink:href="#linearGradient3183-3"
       inkscape:collect="always" />
    <inkscape:perspective
       id="perspective2969"
       inkscape:persp3d-origin="0.5 : 0.33333333 : 1"
       inkscape:vp_z="1 : 0.5 : 1"
       inkscape:vp_y="0 : 1000 : 0"
       inkscape:vp_x="0 : 0.5 : 1"
       sodipodi:type="inkscape:persp3d" />
    <linearGradient
       inkscape:collect="always"
       xlink:href="#SpecificGradient"
       id="linearGradient7193-83"
       gradientUnits="userSpaceOnUse"
       gradientTransform="matrix(0,0.8456457,0.8456457,0,8.6846841,5.330938)"
       x1="11"
       y1="11.015625"
       x2="19"
       y2="11.015625" />
    <linearGradient
       id="SpecificGradient"
       x1="10.761708"
       y1="3.9999998"
       x2="10.761708"
       y2="18.011395"
       gradientUnits="userSpaceOnUse">
      <stop
         style="stop-color:#ad0707;stop-opacity:1;"
         offset="0"
         id="stop3292" />
      <stop
         style="stop-color:#f75535;stop-opacity:1;"
         offset="1"
         id="stop3294" />
    </linearGradient>
    <linearGradient
       inkscape:collect="always"
       xlink:href="#SpecificGradient"
       id="linearGradient2977"
       gradientUnits="userSpaceOnUse"
       gradientTransform="matrix(0,0.8456457,0.8456457,0,8.6846841,5.330938)"
       x1="11"
       y1="11.015625"
       x2="19"
       y2="11.015625" />
    <linearGradient
       id="linearGradient2979"
       x1="10.761708"
       y1="3.9999998"
       x2="10.761708"
       y2="18.011395"
       gradientUnits="userSpaceOnUse">
      <stop
         style="stop-color:#a50000;stop-opacity:1;"
         offset="0"
         id="stop2981" />
      <stop
         style="stop-color:#e73800;stop-opacity:1;"
         offset="1"
         id="stop2983" />
    </linearGradient>
    <clipPath
       clipPathUnits="userSpaceOnUse"
       id="clipPath3777">
      <path
         style="fill:#ff00ff;fill-opacity:1;stroke:none;display:inline"
         d="m -30,0 0,22 22,0 0,-22 -22,0 z M -13.71875,14.625 -12,16.3125 -10.34375,14.625 -8.5625,16.40625 -10.25,18 -8.5625,19.625 -10.34375,21.40625 -12,19.71875 -13.71875,21.40625 -15.4375,19.6875 -13.75,18 -15.4375,16.34375 -13.71875,14.625 z"
         id="path3779" />
    </clipPath>
    <linearGradient
       inkscape:collect="always"
       xlink:href="#SpecificGradient"
       id="linearGradient2989"
       gradientUnits="userSpaceOnUse"
       gradientTransform="matrix(0,0.8456457,0.8456457,0,8.6846841,5.330938)"
       x1="11"
       y1="11.015625"
       x2="19"
       y2="11.015625" />
    <linearGradient
       id="linearGradient2991"
       x1="10.761708"
       y1="3.9999998"
       x2="10.761708"
       y2="18.011395"
       gradientUnits="userSpaceOnUse">
      <stop
         style="stop-color:#a50000;stop-opacity:1;"
         offset="0"
         id="stop2993" />
      <stop
         style="stop-color:#e73800;stop-opacity:1;"
         offset="1"
         id="stop2995" />
    </linearGradient>
    <linearGradient
       y2="3.5"
       x2="59"
       y1="3.5"
       x1="54"
       gradientTransform="translate(-45,53)"
       gradientUnits="userSpaceOnUse"
       id="linearGradient3829"
       xlink:href="#SpecificGradient"
       inkscape:collect="always" />
    <linearGradient
       id="linearGradient2998"
       x1="10.761708"
       y1="3.9999998"
       x2="10.761708"
       y2="18.011395"
       gradientUnits="userSpaceOnUse">
      <stop
         style="stop-color:#a50000;stop-opacity:1;"
         offset="0"
         id="stop3000" />
      <stop
         style="stop-color:#e73800;stop-opacity:1;"
         offset="1"
         id="stop3002" />
    </linearGradient>
    <linearGradient
       inkscape:collect="always"
       xlink:href="#StandardGradient"
       id="linearGradient3833"
       x1="54"
       y1="3.5"
       x2="59"
       y2="3.5"
       gradientUnits="userSpaceOnUse"
       gradientTransform="translate(-53,53)" />
    <linearGradient
       id="StandardGradient"
       gradientTransform="matrix(0.9984539,0,0,0.9984539,-0.0459776,0.05767558)"
       x1="10.710332"
       y1="1.9963325"
       x2="10.710332"
       y2="18.974037"
       gradientUnits="userSpaceOnUse">
      <stop
         style="stop-color:#000000;stop-opacity:0.86274511;"
         offset="0"
         id="stop3277-7" />
      <stop
         style="stop-color:#000000;stop-opacity:0.47058824;"
         offset="1"
         id="stop3279-3" />
    </linearGradient>
    <linearGradient
       y2="11.015625"
       x2="19"
       y1="11.015625"
       x1="11"
       gradientTransform="matrix(0,0.8456457,0.8456457,0,8.684684,5.330938)"
       gradientUnits="userSpaceOnUse"
       id="linearGradient3027"
       xlink:href="#SpecificGradient"
       inkscape:collect="always" />
    <linearGradient
       y2="11.015625"
       x2="19"
       y1="11.015625"
       x1="11"
       gradientTransform="matrix(0,0.8456457,0.8456457,0,8.684684,5.330938)"
       gradientUnits="userSpaceOnUse"
       id="linearGradient3029"
       xlink:href="#SpecificGradient"
       inkscape:collect="always" />
    <linearGradient
       y2="11.015625"
       x2="19"
       y1="11.015625"
       x1="11"
       gradientTransform="matrix(0,0.8456457,0.8456457,0,8.684684,5.330938)"
       gradientUnits="userSpaceOnUse"
       id="linearGradient3031"
       xlink:href="#SpecificGradient"
       inkscape:collect="always" />
    <linearGradient
       inkscape:collect="always"
       xlink:href="#SpecificGradient"
       id="linearGradient3276"
       gradientUnits="userSpaceOnUse"
       gradientTransform="matrix(0,0.8456457,0.8456457,0,8.684684,5.330938)"
       x1="11"
       y1="11.015625"
       x2="19"
       y2="11.015625" />
    <linearGradient
       inkscape:collect="always"
       xlink:href="#SpecificGradient"
       id="linearGradient3280"
       gradientUnits="userSpaceOnUse"
       gradientTransform="matrix(0,0.8456457,0.8456457,0,8.684684,5.330938)"
       x1="11"
       y1="11.015625"
       x2="19"
       y2="11.015625" />
  </defs>
  <sodipodi:namedview
     id="base"
     pagecolor="#ffffff"
     bordercolor="#e7e7e7"
     borderopacity="1"
     inkscape:pageopacity="0.0"
     inkscape:pageshadow="2"
     inkscape:zoom="13.342799"
     inkscape:cx="-23.862144"
     inkscape:cy="7.6795121"
     inkscape:document-units="px"
     inkscape:current-layer="layer3"
     showgrid="true"
     inkscape:showpageshadow="false"
     showguides="false"
     inkscape:guide-bbox="true"
     inkscape:window-width="1920"
     inkscape:window-height="1029"
     inkscape:window-x="0"
     inkscape:window-y="25"
     inkscape:window-maximized="1">
    <sodipodi:guide
       orientation="1,0"
       position="0,112"
       id="guide2383" />
    <sodipodi:guide
       orientation="0,1"
       position="26.278146,128"
       id="guide2385" />
    <sodipodi:guide
       orientation="1,0"
       position="128,54.082119"
       id="guide2387" />
    <sodipodi:guide
       orientation="0,1"
       position="78.156291,0"
       id="guide2389" />
    <sodipodi:guide
       orientation="0,1"
       position="60.863576,64.084768"
       id="guide2391" />
    <inkscape:grid
       type="xygrid"
       id="grid3672"
       visible="true"
       enabled="true"
       empspacing="8"
       snapvisiblegridlinesonly="true" />
  </sodipodi:namedview>
  <metadata
     id="metadata7">
    <rdf:RDF>
      <cc:Work
         rdf:about="">
        <dc:format>image/svg+xml</dc:format>
        <dc:type
           rdf:resource="http://purl.org/dc/dcmitype/StillImage" />
        <dc:title />
      </cc:Work>
    </rdf:RDF>
  </metadata>
  <g
     inkscape:groupmode="layer"
     id="layer3"
     inkscape:label="Symbol">
    <path
       style="fill:#ffffff;fill-opacity:1;fill-rule:evenodd;stroke:none;display:inline;opacity:0.15"
       d="M 16.28125 13.6875 A 0.91493367 0.91493367 0 0 0 16.09375 13.71875 A 0.91493367 0.91493367 0 0 0 15.625 13.96875 L 13.90625 15.6875 A 0.91493367 0.91493367 0 0 0 13.90625 17 L 14.9375 18 L 13.90625 19.03125 A 0.91493367 0.91493367 0 0 0 13.90625 20.34375 L 15.625 22.0625 A 0.91493367 0.91493367 0 0 0 16.9375 22.0625 L 18 21.03125 L 19 22.0625 A 0.91493367 0.91493367 0 0 0 20.3125 22.0625 L 22.09375 20.28125 A 0.91493367 0.91493367 0 0 0 22.0625 18.96875 L 21.0625 18 L 22.0625 17.0625 A 0.91493367 0.91493367 0 0 0 22.09375 15.75 L 20.3125 13.96875 A 0.91493367 0.91493367 0 0 0 19 13.96875 L 18 15 L 16.9375 13.96875 A 0.91493367 0.91493367 0 0 0 16.28125 13.6875 z M 16.28125 14.625 L 18 16.3125 L 19.65625 14.625 L 21.4375 16.40625 L 19.75 18 L 21.4375 19.625 L 19.65625 21.40625 L 18 19.71875 L 16.28125 21.40625 L 14.5625 19.6875 L 16.25 18 L 14.5625 16.34375 L 16.28125 14.625 z "
       id="path3278" />
    <path
       style="fill:#000000;fill-opacity:1;opacity:0.3"
       d="M 4,4 4,6.8 A 11.2,11.2 0 0 1 15.2,18 L 18,18 A 14,14 0 0 0 4,4 z M 4,8.7200003 4,11.44 A 6.5599999,6.5599999 0 0 1 10.56,18 l 2.72,0 A 9.2799998,9.2799998 0 0 0 4,8.7200003 z M 5.9199998,14.16 C 4.8596131,14.16 4,15.019614 4,16.08 4,17.140387 4.8596131,18 5.9199998,18 c 1.0603867,0 1.9200003,-0.859613 1.9200003,-1.92 0,-1.060386 -0.8596136,-1.92 -1.9200003,-1.92 z"
       id="circle3643" />
    <path
       style="fill:url(#linearGradient2927);fill-opacity:1;fill-rule:evenodd;stroke:none;display:inline"
       d="m 13.577777,28.68049 1.717718,1.717717 1.691292,-1.664864 1.664864,1.664864 1.770572,-1.77057 -1.664866,-1.612012 1.664866,-1.612012 -1.770572,-1.770571 -1.664864,1.664865 -1.691292,-1.664865 -1.717718,1.717718 1.664866,1.664865 -1.664866,1.664865 z"
       id="path7165" />
    <path
       style="fill:url(#linearGradient3027);fill-opacity:1;fill-rule:evenodd;stroke:none;display:inline"
       d="m 14.577777,16.350759 1.717718,-1.717717 1.691292,1.664864 1.664864,-1.664864 1.770572,1.77057 -1.664866,1.612012 1.664866,1.612012 -1.770572,1.770571 -1.664864,-1.664865 -1.691292,1.664865 -1.717718,-1.717718 1.664866,-1.664865 -1.664866,-1.664865 z"
       id="path7165-7" />
    <rect
       y="54"
       x="1"
       height="5"
       width="5"
       id="rect3825"
       style="fill:url(#linearGradient3833);fill-opacity:1;stroke:none;display:inline"
       transform="matrix(0,1,1,0,0,0)" />
    <rect
       transform="matrix(0,1,1,0,0,0)"
       style="fill:url(#linearGradient3829);fill-opacity:1;stroke:none;display:inline"
       id="rect3808"
       width="5"
       height="5"
       x="9"
       y="54" />
    <path
       id="path3748"
       d="m 14.577777,16.350759 1.717718,-1.717717 1.691292,1.664864 1.664864,-1.664864 1.770572,1.77057 -1.664866,1.612012 1.664866,1.612012 -1.770572,1.770571 -1.664864,-1.664865 -1.691292,1.664865 -1.717718,-1.717718 1.664866,-1.664865 -1.664866,-1.664865 z"
       style="fill:url(#linearGradient3029);fill-opacity:1;fill-rule:evenodd;stroke:none;display:inline" />
    <path
       style="fill:url(#linearGradient3031);fill-opacity:1;fill-rule:evenodd;stroke:none;display:inline"
       d="m 14.577777,16.350759 1.717718,-1.717717 1.691292,1.664864 1.664864,-1.664864 1.770572,1.77057 -1.664866,1.612012 1.664866,1.612012 -1.770572,1.770571 -1.664864,-1.664865 -1.691292,1.664865 -1.717718,-1.717718 1.664866,-1.664865 -1.664866,-1.664865 z"
       id="path3750" />
    <path
       style="opacity:0.5;fill:#550000;fill-opacity:1;fill-rule:evenodd;stroke:none;display:inline"
       d="m 16.28125,14.625 -1.71875,1.71875 0.5,0.5 L 16.28125,15.625 18,17.3125 l 1.65625,-1.6875 1.28125,1.28125 0.5,-0.5 L 19.65625,14.625 18,16.3125 16.28125,14.625 z M 15.75,18.5 l -1.1875,1.1875 0.5,0.5 L 16.25,19 15.75,18.5 z m 4.53125,0 -0.53125,0.5 1.1875,1.125 0.5,-0.5 -1.15625,-1.125 z"
       id="path3752" />
    <path
       style="opacity:0.3;fill:#ffffff;fill-opacity:1;fill-rule:evenodd;stroke:none;display:inline"
       d="m 15.0625,16.84375 -0.5,0.5 L 15.75,18.5 16.25,18 15.0625,16.84375 z m 5.875,0.0625 L 19.75,18 l 0.53125,0.5 1.15625,-1.09375 -0.5,-0.5 z M 18,19.71875 l -1.71875,1.6875 -1.21875,-1.21875 -0.5,0.5 1.71875,1.71875 1.71875,-1.6875 1.65625,1.6875 1.78125,-1.78125 -0.5,-0.5 -1.28125,1.28125 L 18,19.71875 z"
       id="path3761" />
  </g>
</svg>
