<?xml version="1.0" encoding="UTF-8" standalone="no"?>
<!-- Created with Inkscape (http://www.inkscape.org/) -->

<svg
   xmlns:dc="http://purl.org/dc/elements/1.1/"
   xmlns:cc="http://creativecommons.org/ns#"
   xmlns:rdf="http://www.w3.org/1999/02/22-rdf-syntax-ns#"
   xmlns:svg="http://www.w3.org/2000/svg"
   xmlns="http://www.w3.org/2000/svg"
   xmlns:xlink="http://www.w3.org/1999/xlink"
   xmlns:sodipodi="http://sodipodi.sourceforge.net/DTD/sodipodi-0.dtd"
   xmlns:inkscape="http://www.inkscape.org/namespaces/inkscape"
   width="16"
   height="16"
   id="svg2"
   sodipodi:version="0.32"
   inkscape:version="0.48.1 r9760"
   version="1.0"
   sodipodi:docname="cheese.svg"
   inkscape:output_extension="org.inkscape.output.svg.inkscape"
   style="display:inline">
  <defs
     id="defs4">
    <inkscape:perspective
       sodipodi:type="inkscape:persp3d"
       inkscape:vp_x="0 : 8 : 1"
       inkscape:vp_y="0 : 1000 : 0"
       inkscape:vp_z="16 : 8 : 1"
       inkscape:persp3d-origin="8 : 5.3333333 : 1"
       id="perspective35" />
    <linearGradient
       id="linearGradient3327">
      <stop
         style="stop-color:#884000;stop-opacity:1;"
         offset="0"
         id="stop3330" />
      <stop
         style="stop-color:#884000;stop-opacity:0.19083969;"
         offset="1"
         id="stop3333" />
    </linearGradient>
    <linearGradient
       id="ButtonColor"
       x1="10.31979"
       y1="21"
       x2="10.31979"
       y2="0.99929649"
       gradientUnits="userSpaceOnUse">
      <stop
         style="stop-color:#29669f;stop-opacity:1;"
         offset="0"
         id="stop3189" />
      <stop
         style="stop-color:#88b6e0;stop-opacity:1;"
         offset="1"
         id="stop3191" />
    </linearGradient>
    <linearGradient
       inkscape:collect="always"
       xlink:href="#linearGradient2841"
       id="linearGradient3204"
       x1="1"
       y1="9"
       x2="15"
       y2="9"
       gradientUnits="userSpaceOnUse"
       gradientTransform="translate(-17,-2)" />
    <linearGradient
       inkscape:collect="always"
       xlink:href="#linearGradient3327"
       id="linearGradient3629"
       x1="0"
       y1="8"
       x2="29.017237"
       y2="8"
       gradientUnits="userSpaceOnUse"
       gradientTransform="matrix(0,-1,1,0,0,16)" />
    <linearGradient
       inkscape:collect="always"
       xlink:href="#SVGID_1_-4"
       id="linearGradient3765"
       gradientUnits="userSpaceOnUse"
       gradientTransform="matrix(0.09341072,0,0,0.04108075,-26.756456,8.0246654)"
       x1="383.28857"
       y1="0"
       x2="383.28857"
       y2="218.48047" />
    <linearGradient
       id="SVGID_1_-4"
       gradientUnits="userSpaceOnUse"
       x1="383.28857"
       y1="0"
       x2="383.28857"
       y2="218.48047">
      <stop
         offset="0.005618"
         style="stop-color:#ED2828"
         id="stop3143-2" />
      <stop
         offset="0.5"
         style="stop-color:#EF3B39"
         id="stop3145-1" />
      <stop
         offset="0.994382"
         style="stop-color:#C02126"
         id="stop3147-3" />
    </linearGradient>
    <linearGradient
       y2="180.6748"
       x2="175.30762"
       y1="73.254395"
       x1="175.30762"
       gradientUnits="userSpaceOnUse"
       id="linearGradient3749-5">
      <stop
         id="stop3751-8"
         style="stop-color:#000000;stop-opacity:1;"
         offset="0" />
      <stop
         id="stop3753-7"
         style="stop-color:#000000;stop-opacity:0.4728682;"
         offset="0.99438202" />
    </linearGradient>
    <linearGradient
       inkscape:collect="always"
       xlink:href="#linearGradient3749-5"
       id="linearGradient3754"
       gradientUnits="userSpaceOnUse"
       gradientTransform="matrix(0.04164302,0,0,0.03408859,1.9444673,0.78644322)"
       x1="175.30762"
       y1="73.254395"
       x2="175.30762"
       y2="180.6748" />
    <linearGradient
       inkscape:collect="always"
       xlink:href="#linearGradient3749-5"
       id="linearGradient3756"
       gradientUnits="userSpaceOnUse"
       gradientTransform="matrix(0.04998763,0,0,0.03408859,2.4795353,0.78644322)"
       x1="175.30762"
       y1="73.254395"
       x2="175.30762"
       y2="180.6748" />
    <linearGradient
       y2="180.6748"
       x2="175.30762"
       y1="73.254395"
       x1="175.30762"
       gradientTransform="matrix(0.04859283,0,0,0.03408859,3.115962,0.78644322)"
       gradientUnits="userSpaceOnUse"
       id="linearGradient3809"
       xlink:href="#linearGradient3749-5"
       inkscape:collect="always" />
    <inkscape:perspective
       id="perspective3729"
       inkscape:persp3d-origin="0.5 : 0.33333333 : 1"
       inkscape:vp_z="1 : 0.5 : 1"
       inkscape:vp_y="0 : 1000 : 0"
       inkscape:vp_x="0 : 0.5 : 1"
       sodipodi:type="inkscape:persp3d" />
    <linearGradient
       inkscape:collect="always"
       xlink:href="#linearGradient3696"
       id="linearGradient4163"
       x1="6"
       y1="48"
       x2="90"
       y2="48"
       gradientUnits="userSpaceOnUse"
       gradientTransform="translate(-96,0)" />
    <linearGradient
       id="linearGradient3696">
      <stop
         id="stop3698"
         offset="0"
         style="stop-color:#2458a6;stop-opacity:1;" />
      <stop
         id="stop3700"
         offset="1"
         style="stop-color:#598ad4;stop-opacity:1;" />
    </linearGradient>
    <linearGradient
       y2="48"
       x2="90"
       y1="48"
       x1="6"
       gradientTransform="translate(-52.867199,-57.252856)"
       gradientUnits="userSpaceOnUse"
       id="linearGradient3738"
       xlink:href="#linearGradient3696"
       inkscape:collect="always" />
    <inkscape:perspective
       id="perspective3703"
       inkscape:persp3d-origin="0.5 : 0.33333333 : 1"
       inkscape:vp_z="1 : 0.5 : 1"
       inkscape:vp_y="0 : 1000 : 0"
       inkscape:vp_x="0 : 0.5 : 1"
       sodipodi:type="inkscape:persp3d" />
    <linearGradient
       gradientTransform="matrix(0.19388162,0,0,0.19388162,-1.4007219,-1.9461429)"
       inkscape:collect="always"
       xlink:href="#linearGradient4099"
       id="linearGradient4113"
       x1="22.111456"
       y1="62.983868"
       x2="40"
       y2="32"
       gradientUnits="userSpaceOnUse" />
    <linearGradient
       id="linearGradient4099">
      <stop
         style="stop-color:#9ede27;stop-opacity:1;"
         offset="0"
         id="stop4101" />
      <stop
         style="stop-color:#c8f16b;stop-opacity:1;"
         offset="1"
         id="stop4103" />
    </linearGradient>
    <linearGradient
       gradientTransform="matrix(0.19388162,0,0,0.19388162,-1.5256152,-1.9461429)"
       inkscape:collect="always"
       xlink:href="#linearGradient4099"
       id="linearGradient4105"
       x1="38"
       y1="74"
       x2="70"
       y2="49"
       gradientUnits="userSpaceOnUse" />
    <linearGradient
       id="linearGradient3712">
      <stop
         style="stop-color:#9ede27;stop-opacity:1;"
         offset="0"
         id="stop3714" />
      <stop
         style="stop-color:#c8f16b;stop-opacity:1;"
         offset="1"
         id="stop3716" />
    </linearGradient>
    <linearGradient
       inkscape:collect="always"
       xlink:href="#linearGradient3799-3"
       id="linearGradient3746"
       gradientUnits="userSpaceOnUse"
       x1="56.037025"
       y1="49.333305"
       x2="56.037025"
       y2="13.593002"
       gradientTransform="matrix(0.26518093,0,0,0.26518093,-0.34872536,-3.7081516)" />
    <linearGradient
       id="linearGradient3799-3">
      <stop
         style="stop-color:#1a1a1a;stop-opacity:1;"
         offset="0"
         id="stop3801-3" />
      <stop
         style="stop-color:#000000;stop-opacity:1;"
         offset="1"
         id="stop3803-2" />
    </linearGradient>
    <linearGradient
       y2="13.593002"
       x2="56.037025"
       y1="49.333305"
       x1="56.037025"
       gradientTransform="matrix(0.19388162,0,0,0.19388162,-1.3401963,-1.8843368)"
       gradientUnits="userSpaceOnUse"
       id="linearGradient3726"
       xlink:href="#linearGradient3799-3"
       inkscape:collect="always" />
    <inkscape:perspective
       id="perspective3736"
       inkscape:persp3d-origin="0.5 : 0.33333333 : 1"
       inkscape:vp_z="1 : 0.5 : 1"
       inkscape:vp_y="0 : 1000 : 0"
       inkscape:vp_x="0 : 0.5 : 1"
       sodipodi:type="inkscape:persp3d" />
    <radialGradient
       inkscape:collect="always"
       xlink:href="#linearGradient3784-2"
       id="radialGradient3758"
       gradientUnits="userSpaceOnUse"
       gradientTransform="matrix(1.0456205,0.08243661,-0.05194947,0.90987799,0.84943041,1.3399685)"
       cx="49.580967"
       cy="67.04126"
       fx="49.580967"
       fy="67.04126"
       r="10" />
    <linearGradient
       id="linearGradient3784-2">
      <stop
         id="stop3786-4"
         offset="0"
         style="stop-color:#a0a0a0;stop-opacity:1;" />
      <stop
         id="stop3790-2"
         offset="1"
         style="stop-color:#1a1a1a;stop-opacity:1;" />
    </linearGradient>
    <radialGradient
       r="10"
       fy="67.04126"
       fx="49.580967"
       cy="67.04126"
       cx="49.580967"
       gradientTransform="matrix(1.0456205,0.08243661,-0.05194947,0.90987799,0.84943041,1.3399685)"
       gradientUnits="userSpaceOnUse"
       id="radialGradient3745"
       xlink:href="#linearGradient3784-2"
       inkscape:collect="always" />
    <radialGradient
       inkscape:collect="always"
       xlink:href="#linearGradient3784-2"
       id="radialGradient3698"
       cx="10.116978"
       cy="6.5340972"
       fx="10.116978"
       fy="6.5340972"
       r="2.6487656"
       gradientTransform="matrix(0.60548597,-0.18291744,0.13322228,0.44098703,0.81853832,7.6996387)"
       gradientUnits="userSpaceOnUse" />
    <radialGradient
       inkscape:collect="always"
       xlink:href="#linearGradient3853"
       id="radialGradient4299"
       gradientUnits="userSpaceOnUse"
       cx="6.2506075"
       cy="6.6265192"
       fx="6.2506075"
       fy="6.6265192"
       r="2" />
    <linearGradient
       id="linearGradient3853">
      <stop
         id="stop3855"
         offset="0"
         style="stop-color:#e88d01;stop-opacity:0.18431373;" />
      <stop
         style="stop-color:#e58907;stop-opacity:0.55038762;"
         offset="0.5"
         id="stop3863" />
      <stop
         id="stop4325"
         offset="0.75"
         style="stop-color:#e4870a;stop-opacity:0.80620158;" />
      <stop
         id="stop3859"
         offset="1"
         style="stop-color:#d47c0d;stop-opacity:1;" />
    </linearGradient>
    <radialGradient
       inkscape:collect="always"
       xlink:href="#linearGradient3853"
       id="radialGradient4301"
       gradientUnits="userSpaceOnUse"
       cx="16.250608"
       cy="16.00243"
       fx="16.250608"
       fy="16.00243"
       r="3" />
    <linearGradient
       id="linearGradient3111">
      <stop
         id="stop3113"
         offset="0"
         style="stop-color:#e88d01;stop-opacity:0.18431373;" />
      <stop
         style="stop-color:#e58907;stop-opacity:0.55038762;"
         offset="0.5"
         id="stop3115" />
      <stop
         id="stop3117"
         offset="0.75"
         style="stop-color:#e4870a;stop-opacity:0.80620158;" />
      <stop
         id="stop3119"
         offset="1"
         style="stop-color:#d47c0d;stop-opacity:1;" />
    </linearGradient>
    <radialGradient
       inkscape:collect="always"
       xlink:href="#linearGradient3698"
       id="radialGradient4303"
       gradientUnits="userSpaceOnUse"
       cx="16.6"
       cy="15.900729"
       fx="16.6"
       fy="15.900729"
       r="3" />
    <linearGradient
       id="linearGradient3698">
      <stop
         style="stop-color:#f0a801;stop-opacity:0.18604651;"
         offset="0"
         id="stop3700-2" />
      <stop
         id="stop3711"
         offset="0.5"
         style="stop-color:#f0a801;stop-opacity:0.46511629;" />
      <stop
         style="stop-color:#f0a801;stop-opacity:0.74418604;"
         offset="0.75"
         id="stop4327" />
      <stop
         style="stop-color:#f09201;stop-opacity:1;"
         offset="1"
         id="stop3703" />
    </linearGradient>
    <radialGradient
       inkscape:collect="always"
       xlink:href="#linearGradient3698"
       id="radialGradient4305"
       gradientUnits="userSpaceOnUse"
       cx="1.2506077"
       cy="2.1253037"
       fx="1.2506077"
       fy="2.1253037"
       r="1" />
    <linearGradient
       id="linearGradient3128">
      <stop
         style="stop-color:#f0a801;stop-opacity:0.18604651;"
         offset="0"
         id="stop3130" />
      <stop
         id="stop3132"
         offset="0.5"
         style="stop-color:#f0a801;stop-opacity:0.46511629;" />
      <stop
         style="stop-color:#f0a801;stop-opacity:0.74418604;"
         offset="0.75"
         id="stop3134" />
      <stop
         style="stop-color:#f09201;stop-opacity:1;"
         offset="1"
         id="stop3136" />
    </linearGradient>
    <radialGradient
       inkscape:collect="always"
       xlink:href="#linearGradient3698"
       id="radialGradient4307"
       gradientUnits="userSpaceOnUse"
       cx="4.6879559"
       cy="15.938563"
       fx="4.6879559"
       fy="15.938563"
       r="1.5" />
    <linearGradient
       id="linearGradient3139">
      <stop
         style="stop-color:#f0a801;stop-opacity:0.18604651;"
         offset="0"
         id="stop3141" />
      <stop
         id="stop3143"
         offset="0.5"
         style="stop-color:#f0a801;stop-opacity:0.46511629;" />
      <stop
         style="stop-color:#f0a801;stop-opacity:0.74418604;"
         offset="0.75"
         id="stop3145" />
      <stop
         style="stop-color:#f09201;stop-opacity:1;"
         offset="1"
         id="stop3147" />
    </linearGradient>
    <radialGradient
       inkscape:collect="always"
       xlink:href="#linearGradient3698"
       id="radialGradient4309"
       gradientUnits="userSpaceOnUse"
       cx="6.3132596"
       cy="6.6265192"
       fx="6.3132596"
       fy="6.6265192"
       r="2" />
    <linearGradient
       id="linearGradient3150">
      <stop
         style="stop-color:#f0a801;stop-opacity:0.18604651;"
         offset="0"
         id="stop3152" />
      <stop
         id="stop3154"
         offset="0.5"
         style="stop-color:#f0a801;stop-opacity:0.46511629;" />
      <stop
         style="stop-color:#f0a801;stop-opacity:0.74418604;"
         offset="0.75"
         id="stop3156" />
      <stop
         style="stop-color:#f09201;stop-opacity:1;"
         offset="1"
         id="stop3158" />
    </linearGradient>
    <radialGradient
       inkscape:collect="always"
       xlink:href="#linearGradient3698"
       id="radialGradient4311"
       gradientUnits="userSpaceOnUse"
       cx="1.1879557"
       cy="2.3132596"
       fx="1.1879557"
       fy="2.3132596"
       r="1" />
    <linearGradient
       id="linearGradient3161">
      <stop
         style="stop-color:#f0a801;stop-opacity:0.18604651;"
         offset="0"
         id="stop3163" />
      <stop
         id="stop3165"
         offset="0.5"
         style="stop-color:#f0a801;stop-opacity:0.46511629;" />
      <stop
         style="stop-color:#f0a801;stop-opacity:0.74418604;"
         offset="0.75"
         id="stop3167" />
      <stop
         style="stop-color:#f09201;stop-opacity:1;"
         offset="1"
         id="stop3169" />
    </linearGradient>
    <radialGradient
       inkscape:collect="always"
       xlink:href="#linearGradient3853"
       id="radialGradient4313"
       gradientUnits="userSpaceOnUse"
       cx="4.6879559"
       cy="15.938563"
       fx="4.6879559"
       fy="15.938563"
       r="1.5" />
    <linearGradient
       id="linearGradient3172">
      <stop
         id="stop3174"
         offset="0"
         style="stop-color:#e88d01;stop-opacity:0.18431373;" />
      <stop
         style="stop-color:#e58907;stop-opacity:0.55038762;"
         offset="0.5"
         id="stop3176" />
      <stop
         id="stop3178"
         offset="0.75"
         style="stop-color:#e4870a;stop-opacity:0.80620158;" />
      <stop
         id="stop3180"
         offset="1"
         style="stop-color:#d47c0d;stop-opacity:1;" />
    </linearGradient>
    <radialGradient
       inkscape:collect="always"
       xlink:href="#linearGradient3698"
       id="radialGradient4315"
       gradientUnits="userSpaceOnUse"
       cx="1.1879557"
       cy="2.2506077"
       fx="1.1879557"
       fy="2.2506077"
       r="1" />
    <linearGradient
       id="linearGradient3183">
      <stop
         style="stop-color:#f0a801;stop-opacity:0.18604651;"
         offset="0"
         id="stop3185" />
      <stop
         id="stop3187"
         offset="0.5"
         style="stop-color:#f0a801;stop-opacity:0.46511629;" />
      <stop
         style="stop-color:#f0a801;stop-opacity:0.74418604;"
         offset="0.75"
         id="stop3189-6" />
      <stop
         style="stop-color:#f09201;stop-opacity:1;"
         offset="1"
         id="stop3191-1" />
    </linearGradient>
    <radialGradient
       inkscape:collect="always"
       xlink:href="#linearGradient3853"
       id="radialGradient4317"
       gradientUnits="userSpaceOnUse"
       cx="6.1253037"
       cy="6.6265192"
       fx="6.1253037"
       fy="6.6265192"
       r="2" />
    <linearGradient
       id="linearGradient3194">
      <stop
         id="stop3196"
         offset="0"
         style="stop-color:#e88d01;stop-opacity:0.18431373;" />
      <stop
         style="stop-color:#e58907;stop-opacity:0.55038762;"
         offset="0.5"
         id="stop3198" />
      <stop
         id="stop3200"
         offset="0.75"
         style="stop-color:#e4870a;stop-opacity:0.80620158;" />
      <stop
         id="stop3202"
         offset="1"
         style="stop-color:#d47c0d;stop-opacity:1;" />
    </linearGradient>
    <radialGradient
       inkscape:collect="always"
       xlink:href="#linearGradient3698"
       id="radialGradient4319"
       gradientUnits="userSpaceOnUse"
       cx="4.6879559"
       cy="15.875912"
       fx="4.6879559"
       fy="15.875912"
       r="1.5" />
    <linearGradient
       id="linearGradient3205">
      <stop
         style="stop-color:#f0a801;stop-opacity:0.18604651;"
         offset="0"
         id="stop3207" />
      <stop
         id="stop3209"
         offset="0.5"
         style="stop-color:#f0a801;stop-opacity:0.46511629;" />
      <stop
         style="stop-color:#f0a801;stop-opacity:0.74418604;"
         offset="0.75"
         id="stop3211" />
      <stop
         style="stop-color:#f09201;stop-opacity:1;"
         offset="1"
         id="stop3213" />
    </linearGradient>
    <radialGradient
       inkscape:collect="always"
       xlink:href="#linearGradient3698"
       id="radialGradient4321"
       gradientUnits="userSpaceOnUse"
       cx="1.0626519"
       cy="2.2506077"
       fx="1.0626519"
       fy="2.2506077"
       r="1" />
    <linearGradient
       id="linearGradient3216">
      <stop
         style="stop-color:#f0a801;stop-opacity:0.18604651;"
         offset="0"
         id="stop3218" />
      <stop
         id="stop3220"
         offset="0.5"
         style="stop-color:#f0a801;stop-opacity:0.46511629;" />
      <stop
         style="stop-color:#f0a801;stop-opacity:0.74418604;"
         offset="0.75"
         id="stop3222" />
      <stop
         style="stop-color:#f09201;stop-opacity:1;"
         offset="1"
         id="stop3224" />
    </linearGradient>
    <radialGradient
       inkscape:collect="always"
       xlink:href="#linearGradient3698"
       id="radialGradient4323"
       gradientUnits="userSpaceOnUse"
       cx="4.6879559"
       cy="16.001215"
       fx="4.6879559"
       fy="16.001215"
       r="1.5" />
    <linearGradient
       id="linearGradient3227">
      <stop
         style="stop-color:#f0a801;stop-opacity:0.18604651;"
         offset="0"
         id="stop3229" />
      <stop
         id="stop3231"
         offset="0.5"
         style="stop-color:#f0a801;stop-opacity:0.46511629;" />
      <stop
         style="stop-color:#f0a801;stop-opacity:0.74418604;"
         offset="0.75"
         id="stop3233" />
      <stop
         style="stop-color:#f09201;stop-opacity:1;"
         offset="1"
         id="stop3235" />
    </linearGradient>
    <linearGradient
       inkscape:collect="always"
       xlink:href="#linearGradient2841"
       id="linearGradient4297"
       gradientUnits="userSpaceOnUse"
       gradientTransform="translate(11.119372,-6.2581977)"
       x1="-3.0607977"
       y1="27.258198"
       x2="-3.0607977"
       y2="7.2536583" />
    <linearGradient
       id="linearGradient2841">
      <stop
         id="stop2843"
         offset="0"
         style="stop-color:#f0bf39;stop-opacity:1" />
      <stop
         id="stop2845"
         offset="1"
         style="stop-color:#f8e699;stop-opacity:1" />
    </linearGradient>
    <linearGradient
       y2="7.2536583"
       x2="-3.0607977"
       y1="27.258198"
       x1="-3.0607977"
       gradientTransform="translate(-8.0063829,-11.749196)"
       gradientUnits="userSpaceOnUse"
       id="linearGradient3267"
       xlink:href="#linearGradient2841"
       inkscape:collect="always" />
    <clipPath
       clipPathUnits="userSpaceOnUse"
       id="clipPath4056">
      <rect
         transform="matrix(0,-1,1,0,0,0)"
         style="fill:#ff00ff;fill-opacity:1;fill-rule:nonzero;stroke:none"
         id="rect4058"
         width="20"
         height="20"
         x="-21"
         y="1"
         rx="2.5"
         ry="2.5" />
    </clipPath>
  </defs>
  <sodipodi:namedview
     id="base"
     pagecolor="#ffffff"
     bordercolor="#e7e7e7"
     borderopacity="1"
     inkscape:pageopacity="0.0"
     inkscape:pageshadow="2"
     inkscape:zoom="26.212949"
     inkscape:cx="2.8763851"
     inkscape:cy="9.5944622"
     inkscape:document-units="px"
     inkscape:current-layer="layer1"
     showgrid="true"
     inkscape:showpageshadow="false"
     showguides="false"
     inkscape:guide-bbox="true"
     inkscape:window-width="1920"
     inkscape:window-height="1028"
     inkscape:window-x="0"
     inkscape:window-y="25"
     inkscape:window-maximized="1"
     inkscape:snap-global="false">
    <sodipodi:guide
       orientation="1,0"
       position="0,112"
       id="guide2383" />
    <sodipodi:guide
       orientation="0,1"
       position="26.278146,128"
       id="guide2385" />
    <sodipodi:guide
       orientation="1,0"
       position="128,54.082119"
       id="guide2387" />
    <sodipodi:guide
       orientation="0,1"
       position="78.156291,0"
       id="guide2389" />
    <sodipodi:guide
       orientation="0,1"
       position="60.863576,64.084768"
       id="guide2391" />
    <inkscape:grid
       type="xygrid"
       id="grid3672"
       visible="true"
       enabled="true" />
  </sodipodi:namedview>
  <metadata
     id="metadata7">
    <rdf:RDF>
      <cc:Work
         rdf:about="">
        <dc:format>image/svg+xml</dc:format>
        <dc:type
           rdf:resource="http://purl.org/dc/dcmitype/StillImage" />
        <dc:title></dc:title>
      </cc:Work>
    </rdf:RDF>
  </metadata>
  <g
     inkscape:label="Button"
     inkscape:groupmode="layer"
     id="layer1">
    <rect
       ry="2"
       rx="2"
       y="0"
       x="-16"
       height="16"
       width="16"
       id="rect3196"
       style="fill:url(#linearGradient3204);fill-opacity:1.0;fill-rule:nonzero;stroke:none"
       transform="matrix(0,-1,1,0,0,0)" />
    <g
       transform="matrix(0.8,0,0,0.8,-0.8,-0.8)"
       style="display:inline"
       id="g4273"
       clip-path="url(#clipPath4056)">
      <path
         transform="translate(0,-1)"
         d="M 8,6 C 8,7.1045695 7.1045695,8 6,8 4.8954305,8 4,7.1045695 4,6 4,4.8954305 4.8954305,4 6,4 7.1045695,4 8,4.8954305 8,6 z"
         sodipodi:ry="2"
         sodipodi:rx="2"
         sodipodi:cy="6"
         sodipodi:cx="6"
         id="path3978"
         style="opacity:0.8;fill:url(#radialGradient4299);fill-opacity:1;stroke:none"
         sodipodi:type="arc" />
      <path
         d="m 19,15 c 0,1.656854 -1.343146,3 -3,3 -1.656854,0 -3,-1.343146 -3,-3 0,-1.656854 1.343146,-3 3,-3 1.656854,0 3,1.343146 3,3 z"
         sodipodi:ry="3"
         sodipodi:rx="3"
         sodipodi:cy="15"
         sodipodi:cx="16"
         id="path3980"
         style="opacity:0.8;fill:url(#radialGradient4301);fill-opacity:1;stroke:none"
         sodipodi:type="arc" />
      <path
         transform="matrix(0.83333333,0,0,0.83333333,-12.833333,-0.99999994)"
         sodipodi:type="arc"
         style="opacity:0.8;fill:url(#radialGradient4303);fill-opacity:1;stroke:none"
         id="path3982"
         sodipodi:cx="16"
         sodipodi:cy="15"
         sodipodi:rx="3"
         sodipodi:ry="3"
         d="m 19,15 c 0,1.656854 -1.343146,3 -3,3 -1.656854,0 -3,-1.343146 -3,-3 0,-1.656854 1.343146,-3 3,-3 1.656854,0 3,1.343146 3,3 z" />
      <path
         d="M 2,2 C 2,2.5522847 1.5522847,3 1,3 0.44771525,3 0,2.5522847 0,2 0,1.4477153 0.44771525,1 1,1 1.5522847,1 2,1.4477153 2,2 z"
         sodipodi:ry="1"
         sodipodi:rx="1"
         sodipodi:cy="2"
         sodipodi:cx="1"
         id="path3984"
         style="opacity:0.8;fill:url(#radialGradient4305);fill-opacity:1;stroke:none"
         sodipodi:type="arc" />
      <path
         d="M 6,15.5 C 6,16.328427 5.3284271,17 4.5,17 3.6715729,17 3,16.328427 3,15.5 3,14.671573 3.6715729,14 4.5,14 5.3284271,14 6,14.671573 6,15.5 z"
         sodipodi:ry="1.5"
         sodipodi:rx="1.5"
         sodipodi:cy="15.5"
         sodipodi:cx="4.5"
         id="path3986"
         style="opacity:0.8;fill:url(#radialGradient4307);fill-opacity:1;stroke:none"
         sodipodi:type="arc" />
      <path
         sodipodi:type="arc"
         style="opacity:0.8;fill:url(#radialGradient4309);fill-opacity:1;stroke:none"
         id="path3988"
         sodipodi:cx="6"
         sodipodi:cy="6"
         sodipodi:rx="2"
         sodipodi:ry="2"
         d="M 8,6 C 8,7.1045695 7.1045695,8 6,8 4.8954305,8 4,7.1045695 4,6 4,4.8954305 4.8954305,4 6,4 7.1045695,4 8,4.8954305 8,6 z"
         transform="translate(12,1)" />
      <path
         transform="translate(20,9)"
         sodipodi:type="arc"
         style="opacity:0.8;fill:url(#radialGradient4311);fill-opacity:1;stroke:none"
         id="path3990"
         sodipodi:cx="1"
         sodipodi:cy="2"
         sodipodi:rx="1"
         sodipodi:ry="1"
         d="M 2,2 C 2,2.5522847 1.5522847,3 1,3 0.44771525,3 0,2.5522847 0,2 0,1.4477153 0.44771525,1 1,1 1.5522847,1 2,1.4477153 2,2 z" />
      <path
         transform="translate(11,-14)"
         sodipodi:type="arc"
         style="opacity:0.8;fill:url(#radialGradient4313);fill-opacity:1;stroke:none"
         id="path3992"
         sodipodi:cx="4.5"
         sodipodi:cy="15.5"
         sodipodi:rx="1.5"
         sodipodi:ry="1.5"
         d="M 6,15.5 C 6,16.328427 5.3284271,17 4.5,17 3.6715729,17 3,16.328427 3,15.5 3,14.671573 3.6715729,14 4.5,14 5.3284271,14 6,14.671573 6,15.5 z" />
      <path
         transform="translate(12,3)"
         sodipodi:type="arc"
         style="opacity:0.8;fill:url(#radialGradient4315);fill-opacity:1;stroke:none"
         id="path3994"
         sodipodi:cx="1"
         sodipodi:cy="2"
         sodipodi:rx="1"
         sodipodi:ry="1"
         d="M 2,2 C 2,2.5522847 1.5522847,3 1,3 0.44771525,3 0,2.5522847 0,2 0,1.4477153 0.44771525,1 1,1 1.5522847,1 2,1.4477153 2,2 z" />
      <path
         sodipodi:type="arc"
         style="opacity:0.8;fill:url(#radialGradient4317);fill-opacity:1;stroke:none"
         id="path3996"
         sodipodi:cx="6"
         sodipodi:cy="6"
         sodipodi:rx="2"
         sodipodi:ry="2"
         d="M 8,6 C 8,7.1045695 7.1045695,8 6,8 4.8954305,8 4,7.1045695 4,6 4,4.8954305 4.8954305,4 6,4 7.1045695,4 8,4.8954305 8,6 z"
         transform="translate(0,15)" />
      <path
         transform="translate(10,6)"
         sodipodi:type="arc"
         style="opacity:0.8;fill:url(#radialGradient4319);fill-opacity:1;stroke:none"
         id="path3998"
         sodipodi:cx="4.5"
         sodipodi:cy="15.5"
         sodipodi:rx="1.5"
         sodipodi:ry="1.5"
         d="M 6,15.5 C 6,16.328427 5.3284271,17 4.5,17 3.6715729,17 3,16.328427 3,15.5 3,14.671573 3.6715729,14 4.5,14 5.3284271,14 6,14.671573 6,15.5 z" />
      <path
         d="M 2,2 C 2,2.5522847 1.5522847,3 1,3 0.44771525,3 0,2.5522847 0,2 0,1.4477153 0.44771525,1 1,1 1.5522847,1 2,1.4477153 2,2 z"
         sodipodi:ry="1"
         sodipodi:rx="1"
         sodipodi:cy="2"
         sodipodi:cx="1"
         id="path4135"
         style="opacity:0.8;fill:url(#radialGradient4321);fill-opacity:1;stroke:none"
         sodipodi:type="arc"
         transform="translate(8,10)" />
      <path
         transform="translate(8,-5.5)"
         sodipodi:type="arc"
         style="opacity:0.8;fill:url(#radialGradient4323);fill-opacity:1;stroke:none"
         id="path4137"
         sodipodi:cx="4.5"
         sodipodi:cy="15.5"
         sodipodi:rx="1.5"
         sodipodi:ry="1.5"
         d="M 6,15.5 C 6,16.328427 5.3284271,17 4.5,17 3.6715729,17 3,16.328427 3,15.5 3,14.671573 3.6715729,14 4.5,14 5.3284271,14 6,14.671573 6,15.5 z" />
      <path
         id="path4139"
         transform="translate(0,-2)"
         d="M 14.09375,4 C 14.040108,4.154319 14,4.327411 14,4.5 14,5.3284271 14.671573,6 15.5,6 16.328427,6 17,5.3284271 17,4.5 17,4.327411 16.959892,4.154319 16.90625,4 16.70241,4.586412 16.155838,5 15.5,5 14.844162,5 14.29759,4.586412 14.09375,4 z M 0.15625,4.5 C 0.0666305,4.649872 0,4.8126805 0,5 0,5.5522847 0.44771525,6 1,6 1.5522847,6 2,5.5522847 2,5 2,4.8126805 1.9333695,4.649872 1.84375,4.5 1.6691392,4.792004 1.3649652,5 1,5 0.63503476,5 0.33086076,4.792004 0.15625,4.5 z m 3.90625,3 C 4.0213958,7.6597591 4,7.827411 4,8 4,9.1045695 4.8954305,10 6,10 7.1045695,10 8,9.1045695 8,8 8,7.827411 7.9786042,7.6597591 7.9375,7.5 7.7155373,8.3626993 6.9319805,9 6,9 5.0680195,9 4.2844627,8.3626993 4.0625,7.5 z m 8.09375,0 C 12.066631,7.649872 12,7.8126805 12,8 12,8.5522847 12.447715,9 13,9 13.552285,9 14,8.5522847 14,8 14,7.8126805 13.933369,7.649872 13.84375,7.5 13.669139,7.792004 13.364965,8 13,8 12.635035,8 12.330861,7.792004 12.15625,7.5 z m 3.90625,2 C 16.021396,9.6597591 16,9.827411 16,10 c 0,1.104569 0.895431,2 2,2 1.104569,0 2,-0.895431 2,-2 C 20,9.827411 19.978604,9.6597591 19.9375,9.5 19.715537,10.362699 18.93198,11 18,11 17.06802,11 16.284463,10.362699 16.0625,9.5 z m -4.96875,3 C 11.040108,12.654319 11,12.827411 11,13 c 0,0.828427 0.671573,1.5 1.5,1.5 0.828427,0 1.5,-0.671573 1.5,-1.5 0,-0.172589 -0.04011,-0.345681 -0.09375,-0.5 -0.20384,0.586412 -0.750412,1 -1.40625,1 -0.655838,0 -1.20241,-0.413588 -1.40625,-1 z m 9.0625,1 C 20.066631,13.649872 20,13.81268 20,14 c 0,0.552285 0.447715,1 1,1 0.552285,0 1,-0.447715 1,-1 0,-0.18732 -0.06663,-0.350128 -0.15625,-0.5 C 21.669139,13.792004 21.364965,14 21,14 20.635035,14 20.330861,13.792004 20.15625,13.5 z M -1.9375,14 C -1.9708022,14.162744 -2,14.327411 -2,14.5 -2,15.880712 -0.88071187,17 0.5,17 1.8807119,17 3,15.880712 3,14.5 3,14.327411 2.9708022,14.162744 2.9375,14 2.7043843,15.139208 1.7081229,16 0.5,16 -0.70812289,16 -1.7043843,15.139208 -1.9375,14 z M 8.15625,14.5 C 8.0666305,14.649872 8,14.81268 8,15 c 0,0.552285 0.4477153,1 1,1 0.5522847,0 1,-0.447715 1,-1 C 10,14.81268 9.9333695,14.649872 9.84375,14.5 9.6691392,14.792004 9.3649652,15 9,15 8.6350348,15 8.3308608,14.792004 8.15625,14.5 z m 4.90625,3 C 13.033821,17.666575 13,17.825236 13,18 c 0,1.656854 1.343146,3 3,3 1.656854,0 3,-1.343146 3,-3 0,-0.174764 -0.03382,-0.333425 -0.0625,-0.5 C 18.694284,18.912646 17.48209,20 16,20 14.51791,20 13.305716,18.912646 13.0625,17.5 z M 3.09375,18 C 3.040108,18.154319 3,18.327411 3,18.5 3,19.328427 3.6715729,20 4.5,20 5.3284271,20 6,19.328427 6,18.5 6,18.327411 5.959892,18.154319 5.90625,18 5.7024102,18.586412 5.1558381,19 4.5,19 3.8441619,19 3.2975898,18.586412 3.09375,18 z M 4.0625,23.5 C 4.0213958,23.659759 4,23.827411 4,24 4,25.104569 4.8954305,26 6,26 7.1045695,26 8,25.104569 8,24 8,23.827411 7.9786042,23.659759 7.9375,23.5 7.7155373,24.362699 6.9319805,25 6,25 5.0680195,25 4.2844627,24.362699 4.0625,23.5 z M 13.09375,24 C 13.040108,24.154319 13,24.327411 13,24.5 13,25.328427 13.671573,26 14.5,26 15.328427,26 16,25.328427 16,24.5 16,24.327411 15.95989,24.154319 15.90625,24 15.70241,24.586412 15.155838,25 14.5,25 13.844162,25 13.29759,24.586412 13.09375,24 z"
         style="opacity:0.5;fill:#ffffff;fill-opacity:1;stroke:none"
         inkscape:connector-curvature="0" />
    </g>
    <path
       style="opacity:0.4;fill:url(#linearGradient3629);fill-opacity:1;fill-rule:nonzero;stroke:none"
       d="m 0,14 c 0,1.108 0.892,2 2,2 l 12,0 c 1.108,0 2,-0.892 2,-2 L 16,2 C 16,0.892 15.108,0 14,0 L 2,0 C 0.892,0 0,0.892 0,2 l 0,12 z m 0.96875,0 0,-12 C 0.96875,1.416801 1.4168007,0.96875 2,0.96875 l 12,0 c 0.583199,0 1.03125,0.448051 1.03125,1.03125 l 0,12 c 0,0.583199 -0.448051,1.03125 -1.03125,1.03125 l -12,0 C 1.4168007,15.03125 0.96875,14.583199 0.96875,14 z"
       id="rect2835" />
    <path
       style="fill:#ffffff;fill-opacity:1;fill-rule:nonzero;stroke:none;opacity:0.35"
       d="M 2 0.96875 C 1.4168007 0.96875 0.96875 1.4168007 0.96875 2 L 0.96875 3 C 0.96875 2.4168007 1.4168007 1.96875 2 1.96875 L 14 1.96875 C 14.583199 1.96875 15.03125 2.4168007 15.03125 3 L 15.03125 2 C 15.03125 1.4168007 14.583199 0.96875 14 0.96875 L 2 0.96875 z "
       id="path2843" />
  </g>
</svg>
