<?xml version="1.0" encoding="UTF-8" standalone="no"?>
<!-- Created with Inkscape (http://www.inkscape.org/) -->

<svg
   xmlns:dc="http://purl.org/dc/elements/1.1/"
   xmlns:cc="http://creativecommons.org/ns#"
   xmlns:rdf="http://www.w3.org/1999/02/22-rdf-syntax-ns#"
   xmlns:svg="http://www.w3.org/2000/svg"
   xmlns="http://www.w3.org/2000/svg"
   xmlns:xlink="http://www.w3.org/1999/xlink"
   xmlns:sodipodi="http://sodipodi.sourceforge.net/DTD/sodipodi-0.dtd"
   xmlns:inkscape="http://www.inkscape.org/namespaces/inkscape"
   width="16"
   height="16"
   id="svg2"
   sodipodi:version="0.32"
   inkscape:version="0.48.0 r9654"
   version="1.0"
   sodipodi:docname="deja-dup.svg"
   inkscape:output_extension="org.inkscape.output.svg.inkscape"
   style="display:inline">
  <defs
     id="defs4">
    <linearGradient
       id="linearGradient3877">
      <stop
         id="stop3879"
         offset="0"
         style="stop-color:#3f3f3f;stop-opacity:0.70731705;" />
      <stop
         id="stop3881"
         offset="1"
         style="stop-color:#4d4d4d;stop-opacity:0.42857143;" />
    </linearGradient>
    <linearGradient
       id="linearGradient3313">
      <stop
         style="stop-color:#4dbeff;stop-opacity:1;"
         offset="0"
         id="stop3315" />
      <stop
         id="stop4186"
         offset="0.67213112"
         style="stop-color:#1379ff;stop-opacity:0.902439;" />
      <stop
         style="stop-color:#0066ff;stop-opacity:0;"
         offset="1"
         id="stop3317" />
    </linearGradient>
    <radialGradient
       inkscape:collect="always"
       xlink:href="#linearGradient3313"
       id="radialGradient4138"
       gradientUnits="userSpaceOnUse"
       gradientTransform="matrix(0.2338446,0,0,4.1572724e-2,-3.2398802,9.3076558)"
       cx="48"
       cy="84"
       fx="48"
       fy="84"
       r="30" />
    <linearGradient
       id="linearGradient3531">
      <stop
         style="stop-color:#020202;stop-opacity:1;"
         offset="0"
         id="stop3533" />
      <stop
         style="stop-color:#a8a8a8;stop-opacity:1;"
         offset="1"
         id="stop3535" />
    </linearGradient>
    <linearGradient
       id="linearGradient3322">
      <stop
         id="stop3324"
         offset="0"
         style="stop-color:#7a7a7a;stop-opacity:1;" />
      <stop
         style="stop-color:#f9f9f9;stop-opacity:1"
         offset="0.2032043"
         id="stop3326" />
      <stop
         id="stop3328"
         offset="0.42969123"
         style="stop-color:#c9c9c9;stop-opacity:1" />
      <stop
         id="stop3632"
         offset="1"
         style="stop-color:#dedede;stop-opacity:0;" />
    </linearGradient>
    <linearGradient
       id="linearGradient4327">
      <stop
         style="stop-color:#f0f0f0;stop-opacity:1;"
         offset="0"
         id="stop4329" />
      <stop
         id="stop4331"
         offset="1"
         style="stop-color:#b4b4b4;stop-opacity:1;" />
    </linearGradient>
    <linearGradient
       id="linearGradient3220">
      <stop
         style="stop-color:#ffffff;stop-opacity:1;"
         offset="0"
         id="stop3222" />
      <stop
         style="stop-color:#bfbfbf;stop-opacity:0;"
         offset="1"
         id="stop3224" />
    </linearGradient>
    <clipPath
       clipPathUnits="userSpaceOnUse"
       id="clipPath3824">
      <path
         style="opacity:1;fill:#ffffff;fill-opacity:1;fill-rule:nonzero;stroke:none;stroke-width:1;stroke-linecap:square;stroke-linejoin:round;stroke-miterlimit:4;stroke-dasharray:none;stroke-dashoffset:0;stroke-opacity:0.69658119;display:inline"
         d="M 16,12 C 13.784,12 12,13.784 12,16 L 12,68 C 12,70.216 13.784,72 16,72 L 80,72 C 82.216,72 84,70.216 84,68 L 84,16 C 84,13.784 82.216,12 80,12 L 16,12 z M 48,20 L 50.65625,22.25 L 69.34375,37.875 L 72,40.125 L 69.34375,42.34375 L 55.375,54.0625 L 55.375,45.1875 L 61.40625,40.125 L 48,28.875 L 34.59375,40.125 L 40.625,45.1875 L 40.625,54.0625 L 26.65625,42.34375 L 24,40.125 L 26.65625,37.875 L 45.34375,22.25 L 48,20 z M 44.25,40.03125 L 51.75,40.03125 L 51.75,62 L 44.25,62 L 44.25,40.03125 z"
         id="path3826" />
    </clipPath>
    <linearGradient
       id="linearGradient3767">
      <stop
         style="stop-color:#4d4d4d;stop-opacity:0.70731705;"
         offset="0"
         id="stop3769" />
      <stop
         style="stop-color:#4d4d4d;stop-opacity:0.25203252;"
         offset="1"
         id="stop3771" />
    </linearGradient>
    <inkscape:perspective
       sodipodi:type="inkscape:persp3d"
       inkscape:vp_x="0 : 8 : 1"
       inkscape:vp_y="0 : 1000 : 0"
       inkscape:vp_z="16 : 8 : 1"
       inkscape:persp3d-origin="8 : 5.3333333 : 1"
       id="perspective26" />
    <linearGradient
       id="ButtonColor"
       x1="10.31979"
       y1="21"
       x2="10.31979"
       y2="0.99929649"
       gradientUnits="userSpaceOnUse">
      <stop
         style="stop-color:#29669f;stop-opacity:1;"
         offset="0"
         id="stop3189" />
      <stop
         style="stop-color:#88b6e0;stop-opacity:1;"
         offset="1"
         id="stop3191" />
    </linearGradient>
    <linearGradient
       inkscape:collect="always"
       xlink:href="#ButtonColor"
       id="linearGradient3204"
       x1="1"
       y1="9"
       x2="15"
       y2="9"
       gradientUnits="userSpaceOnUse"
       gradientTransform="translate(-16,-1)" />
    <linearGradient
       inkscape:collect="always"
       xlink:href="#ButtonColor"
       id="linearGradient3173"
       gradientUnits="userSpaceOnUse"
       gradientTransform="translate(-16,-1)"
       x1="1"
       y1="9"
       x2="15"
       y2="9" />
    <linearGradient
       inkscape:collect="always"
       xlink:href="#ButtonColor"
       id="linearGradient3177"
       gradientUnits="userSpaceOnUse"
       gradientTransform="translate(-16,-1)"
       x1="1"
       y1="9"
       x2="15"
       y2="9" />
    <linearGradient
       inkscape:collect="always"
       xlink:href="#ButtonColor"
       id="linearGradient3179"
       gradientUnits="userSpaceOnUse"
       gradientTransform="matrix(0,-1,1,0,-1,16)"
       x1="1"
       y1="9"
       x2="15"
       y2="9" />
    <linearGradient
       inkscape:collect="always"
       xlink:href="#linearGradient4327"
       id="linearGradient2707"
       gradientUnits="userSpaceOnUse"
       gradientTransform="translate(10.101705,-23.277632)"
       x1="-3.0607977"
       y1="23.258198"
       x2="-3.0607977"
       y2="12.157126" />
    <linearGradient
       inkscape:collect="always"
       xlink:href="#linearGradient3322"
       id="linearGradient3507"
       x1="0"
       y1="10"
       x2="5.3533568"
       y2="10"
       gradientUnits="userSpaceOnUse" />
    <linearGradient
       inkscape:collect="always"
       xlink:href="#linearGradient3322"
       id="linearGradient3511"
       gradientUnits="userSpaceOnUse"
       x1="0"
       y1="10"
       x2="5.3533568"
       y2="10"
       gradientTransform="matrix(-1,0,0,1,16,0)" />
    <linearGradient
       inkscape:collect="always"
       xlink:href="#linearGradient3531"
       id="linearGradient3537"
       x1="6.6837831"
       y1="16"
       x2="6.6837831"
       y2="-0.0038814719"
       gradientUnits="userSpaceOnUse" />
    <linearGradient
       inkscape:collect="always"
       xlink:href="#linearGradient4327"
       id="linearGradient3547"
       gradientUnits="userSpaceOnUse"
       gradientTransform="translate(10.101705,-23.277632)"
       x1="-3.0607977"
       y1="27.258198"
       x2="-3.0607977"
       y2="7.2536583" />
    <linearGradient
       inkscape:collect="always"
       xlink:href="#linearGradient3220"
       id="linearGradient3563"
       gradientUnits="userSpaceOnUse"
       gradientTransform="matrix(1,0,0,-1,10.101705,23.277632)"
       x1="-5.7468042"
       y1="12.246382"
       x2="-0.93697876"
       y2="22.745043" />
    <linearGradient
       inkscape:collect="always"
       xlink:href="#linearGradient3767"
       id="linearGradient3573"
       gradientUnits="userSpaceOnUse"
       gradientTransform="matrix(0.1867824,0,0,0.1867824,-20.957252,-1.9419949)"
       x1="48"
       y1="62"
       x2="48"
       y2="21.554564" />
    <clipPath
       clipPathUnits="userSpaceOnUse"
       id="clipPath3587">
      <path
         style="opacity:1;fill:#ffffff;fill-opacity:1;fill-rule:evenodd;stroke:none;stroke-width:0.25;stroke-linecap:round;stroke-linejoin:miter;stroke-miterlimit:4;stroke-dasharray:none;stroke-dashoffset:0;stroke-opacity:1;display:inline"
         d="M 1.96875,10.03125 C 0.86075,10.03125 -0.03125,10.92325 -0.03125,12.03125 L -0.03125,19.03125 C -0.03125,20.13925 0.86075,21.03125 1.96875,21.03125 L 13.96875,21.03125 C 15.07675,21.03125 15.96875,20.13925 15.96875,19.03125 L 15.96875,12.03125 C 15.96875,10.92325 15.07675,10.03125 13.96875,10.03125 L 1.96875,10.03125 z M 8,11.53125 L 12.875,15.53125 L 9.96875,17.875 L 9.96875,15.96875 L 10.5,15.53125 L 8,13.4375 L 5.5,15.53125 L 6.03125,15.96875 L 6.03125,17.84375 L 3.125,15.53125 L 8,11.53125 z M 7.09375,15.90625 L 8.9375,15.90625 L 8.9375,19 L 7.09375,19 L 7.09375,15.90625 z"
         id="path3589" />
    </clipPath>
    <linearGradient
       inkscape:collect="always"
       xlink:href="#linearGradient3877"
       id="linearGradient3852"
       x1="9"
       y1="10"
       x2="9"
       y2="1"
       gradientUnits="userSpaceOnUse" />
    <linearGradient
       inkscape:collect="always"
       xlink:href="#linearGradient3767"
       id="linearGradient3862"
       gradientUnits="userSpaceOnUse"
       x1="9"
       y1="10"
       x2="9"
       y2="1"
       gradientTransform="translate(10,0)" />
    <clipPath
       clipPathUnits="userSpaceOnUse"
       id="clipPath3869">
      <path
         style="fill:#ff00ff;fill-opacity:1;fill-rule:evenodd;stroke:none;display:inline"
         d="m 11.96875,0.03125 c -1.108,0 -2,0.892 -2,2 l 0,7 c 0,1.108 0.892,2 2,2 l 12,0 c 1.108,0 2,-0.892 2,-2 l 0,-7 c 0,-1.108 -0.892,-2 -2,-2 l -12,0 z M 18.53125,1 C 21.012274,1 23,3.0189749 23,5.5 23,7.981024 21.012274,10 18.53125,10 17.712988,10 16.942017,9.788494 16.28125,9.40625 L 16.875,8.34375 c 0.477852,0.272744 1.035402,0.4375 1.625,0.4375 1.808242,0 3.28125,-1.473008 3.28125,-3.28125 0,-1.808242 -1.473008,-3.28125 -3.28125,-3.28125 -1.808242,0 -3.28125,1.473008 -3.28125,3.28125 l 1.53125,0 -2,3.375 -2.03125,-3.375 1.3125,0 c 0,-2.4810251 2.018974,-4.5 4.5,-4.5 z M 18,3 l 1,0 0,2 1.46875,0 0,1 L 18,6 18,5 18,3 z"
         id="path3871"
         inkscape:connector-curvature="0" />
    </clipPath>
    <filter
       inkscape:collect="always"
       id="filter3873"
       x="-0.12377508"
       width="1.2475502"
       y="-0.14139583"
       height="1.2827917">
      <feGaussianBlur
         inkscape:collect="always"
         stdDeviation="0.53023438"
         id="feGaussianBlur3875" />
    </filter>
  </defs>
  <sodipodi:namedview
     id="base"
     pagecolor="#ffffff"
     bordercolor="#e7e7e7"
     borderopacity="1"
     inkscape:pageopacity="0.0"
     inkscape:pageshadow="2"
     inkscape:zoom="24.557909"
     inkscape:cx="8.036402"
     inkscape:cy="9.4550303"
     inkscape:document-units="px"
     inkscape:current-layer="layer3"
     showgrid="true"
     inkscape:showpageshadow="false"
     showguides="true"
     inkscape:guide-bbox="true"
     inkscape:window-width="1920"
     inkscape:window-height="1026"
     inkscape:window-x="0"
     inkscape:window-y="25"
     inkscape:window-maximized="1">
    <sodipodi:guide
       orientation="1,0"
       position="0,112"
       id="guide2383" />
    <sodipodi:guide
       orientation="0,1"
       position="26.278146,128"
       id="guide2385" />
    <sodipodi:guide
       orientation="1,0"
       position="128,54.082119"
       id="guide2387" />
    <sodipodi:guide
       orientation="0,1"
       position="78.156291,0"
       id="guide2389" />
    <sodipodi:guide
       orientation="0,1"
       position="60.863576,64.084768"
       id="guide2391" />
    <inkscape:grid
       type="xygrid"
       id="grid3672"
       visible="true"
       enabled="true" />
  </sodipodi:namedview>
  <metadata
     id="metadata7">
    <rdf:RDF>
      <cc:Work
         rdf:about="">
        <dc:format>image/svg+xml</dc:format>
        <dc:type
           rdf:resource="http://purl.org/dc/dcmitype/StillImage" />
        <dc:title></dc:title>
      </cc:Work>
    </rdf:RDF>
  </metadata>
  <g
     inkscape:label="Facade"
     inkscape:groupmode="layer"
     id="layer1">
    <rect
       ry="2"
       rx="2"
       y="1"
       x="-15"
       height="14"
       width="14"
       id="rect3196"
       style="opacity:1;fill:url(#linearGradient3204);fill-opacity:1;fill-rule:nonzero;stroke:none;stroke-width:0.5;stroke-linecap:round;stroke-linejoin:round;stroke-miterlimit:4;stroke-dasharray:none;stroke-dashoffset:0;stroke-opacity:1"
       transform="matrix(0,-1,1,0,0,0)" />
    <path
       style="opacity:1;fill:#2b6090;fill-opacity:1;fill-rule:nonzero;stroke:none;stroke-width:0.5;stroke-linecap:round;stroke-linejoin:round;stroke-miterlimit:4;stroke-dasharray:none;stroke-dashoffset:0;stroke-opacity:1"
       d="M 3,1 C 1.892,1 1,1.892 1,3 L 1,13 C 1,14.108 1.892,15 3,15 L 13,15 C 14.108,15 15,14.108 15,13 L 15,3 C 15,1.892 14.108,1 13,1 L 3,1 z M 3,2 L 13,2 C 13.575975,2 14,2.4240247 14,3 L 14,13 C 14,13.575975 13.575975,14 13,14 L 3,14 C 2.4240247,14 2,13.575975 2,13 L 2,3 C 2,2.4240247 2.4240247,2 3,2 z"
       id="rect2401" />
    <path
       style="opacity:0.5;fill:#ffffff;fill-opacity:1;fill-rule:nonzero;stroke:none;stroke-width:0.5;stroke-linecap:round;stroke-linejoin:round;stroke-miterlimit:4;stroke-dasharray:none;stroke-dashoffset:0;stroke-opacity:1"
       d="M 3,1 C 1.892,1 1,1.892 1,3 L 1,4 C 1,2.892 1.892,2 3,2 L 13,2 C 14.108,2 15,2.892 15,4 L 15,3 C 15,1.892 14.108,1 13,1 L 3,1 z"
       id="rect2411" />
    <path
       style="opacity:0.25;fill:#ffffff;fill-opacity:1;fill-rule:evenodd;stroke:none;stroke-width:0.25;stroke-linecap:round;stroke-linejoin:miter;stroke-miterlimit:4;stroke-dasharray:none;stroke-dashoffset:0;stroke-opacity:1;display:inline"
       d="M -25.0053,6.9982331 C -26.1133,6.9982331 -27.0053,7.8902331 -27.0053,8.9982331 L -27.0053,9.9982331 C -27.0053,8.8902331 -26.1133,7.9982331 -25.0053,7.9982331 L -9.0053003,7.9982331 C -7.8973003,7.9982331 -7.0053003,8.8902331 -7.0053003,9.9982331 L -7.0053003,8.9982331 C -7.0053003,7.8902331 -7.8973003,6.9982331 -9.0053003,6.9982331 L -25.0053,6.9982331 z"
       id="rect3183" />
    <rect
       transform="scale(1,-1)"
       ry="2"
       rx="2"
       y="-16"
       x="0"
       height="12"
       width="16"
       id="rect4177"
       style="opacity:1;fill:#cacaca;fill-opacity:1;fill-rule:evenodd;stroke:none;stroke-width:0.25;stroke-linecap:round;stroke-linejoin:miter;stroke-miterlimit:4;stroke-dasharray:none;stroke-dashoffset:0;stroke-opacity:1;display:inline" />
    <path
       style="opacity:1;fill:url(#linearGradient3507);fill-opacity:1;fill-rule:evenodd;stroke:none;stroke-width:0.25;stroke-linecap:round;stroke-linejoin:miter;stroke-miterlimit:4;stroke-dasharray:none;stroke-dashoffset:0;stroke-opacity:1;display:inline"
       d="M 2,4 C 0.892,4 0,4.892 0,6 L 0,14 C 0,15.108 0.892,16 2,16 L 5,16 L 5,4 L 2,4 z"
       id="rect2726" />
    <path
       id="path3509"
       d="M 14,4 C 15.108,4 16,4.892 16,6 L 16,14 C 16,15.108 15.108,16 14,16 L 11,16 L 11,4 L 14,4 z"
       style="opacity:1;fill:url(#linearGradient3511);fill-opacity:1;fill-rule:evenodd;stroke:none;stroke-width:0.25;stroke-linecap:round;stroke-linejoin:miter;stroke-miterlimit:4;stroke-dasharray:none;stroke-dashoffset:0;stroke-opacity:1;display:inline" />
    <path
       style="opacity:1;fill:#282828;fill-opacity:1;fill-rule:evenodd;stroke:none;stroke-width:0.25;stroke-linecap:round;stroke-linejoin:miter;stroke-miterlimit:4;stroke-dasharray:none;stroke-dashoffset:0;stroke-opacity:1;display:inline"
       d="M 0,10 L 0,12 C 0,13.108 0.892,14 2,14 L 14,14 C 15.108,14 16,13.108 16,12 L 16,10 C 16,11.108 15.108,12 14,12 L 2,12 C 0.892,12 0,11.108 0,10 z"
       id="rect3513" />
    <path
       style="opacity:1;fill:#0f0f0f;fill-opacity:1;fill-rule:evenodd;stroke:none;stroke-width:0.25000000000000000;stroke-linecap:round;stroke-linejoin:miter;stroke-miterlimit:4;stroke-dasharray:none;stroke-dashoffset:0;stroke-opacity:1;display:inline"
       d="M 0,10 L 0,11 C 0,12.108 0.892,13 2,13 L 14,13 C 15.108,13 16,12.108 16,11 L 16,10 C 16,11.108 15.108,12 14,12 L 2,12 C 0.892,12 0,11.108 0,10 z"
       id="path3518" />
  </g>
  <g
     inkscape:groupmode="layer"
     id="layer2"
     inkscape:label="Top"
     sodipodi:insensitive="true">
    <rect
       style="fill:url(#linearGradient2707);fill-opacity:1;fill-rule:evenodd;stroke:none;display:inline"
       id="rect3173"
       width="16"
       height="11"
       x="-0.017668013"
       y="-11.019435"
       rx="2"
       ry="2"
       transform="scale(1,-1)" />
    <path
       style="fill:url(#linearGradient3563);fill-opacity:1;fill-rule:evenodd;stroke:none;display:inline"
       d="m 1.96875,0.03125 c -1.108,0 -2,0.892 -2,2 l 0,7 c 0,1.108 0.892,2 2,2 l 12,0 c 1.108,0 2,-0.892 2,-2 l 0,-7 c 0,-1.108 -0.892,-2 -2,-2 l -12,0 z m 0.78125,1 10.4375,0 c 0.497913,0 0.875,0.4284045 0.875,1 l 0,7 c 0,0.5715955 -0.377086,1 -0.875,1 l -10.4375,0 c -0.4979132,0 -0.875,-0.4284045 -0.875,-1 l 0,-7 c -1e-7,-0.5715955 0.3770867,-1 0.875,-1 z"
       id="rect3539"
       inkscape:connector-curvature="0" />
  </g>
  <g
     inkscape:groupmode="layer"
     id="layer5"
     inkscape:label="Border"
     sodipodi:insensitive="true">
    <path
       style="opacity:0.5;fill:url(#linearGradient3537);fill-opacity:1;fill-rule:nonzero;stroke:none"
       d="M 2,0 C 0.892,0 0,0.892 0,2 l 0,12 c 0,1.108 0.892,2 2,2 l 12,0 c 1.108,0 2,-0.892 2,-2 L 16,2 C 16,0.892 15.108,0 14,0 L 2,0 z m 0,1 12,0 c 0.574616,0 1,0.4253839 1,1 l 0,12 c 0,0.574616 -0.425384,1 -1,1 L 2,15 C 1.4253839,15 1,14.574616 1,14 L 1,2 C 1,1.4253839 1.4253839,1 2,1 z"
       id="rect3524"
       inkscape:connector-curvature="0" />
  </g>
  <g
     inkscape:groupmode="layer"
     id="layer4"
     inkscape:label="Light"
     sodipodi:insensitive="true"
     style="display:inline">
    <rect
       style="fill:url(#radialGradient4138);fill-opacity:1;fill-rule:nonzero;stroke:none;display:inline"
       id="rect3311"
       width="14.030677"
       height="2.4943635"
       x="0.96932316"
       y="11.552585"
       rx="1.275516"
       ry="2.4943635" />
  </g>
  <g
     inkscape:groupmode="layer"
     id="layer3"
     inkscape:label="Symbol"
     style="display:inline">
    <path
       inkscape:connector-curvature="0"
       id="path3865"
       d="m 18.53125,1 c -2.481026,0 -4.5,2.0189749 -4.5,4.5 l -1.3125,0 2.03125,3.375 2,-3.375 -1.53125,0 c 0,-1.808242 1.473008,-3.28125 3.28125,-3.28125 1.808242,0 3.28125,1.473008 3.28125,3.28125 0,1.808242 -1.473008,3.28125 -3.28125,3.28125 -0.589598,0 -1.147148,-0.164756 -1.625,-0.4375 l -0.59375,1.0625 C 16.942017,9.788494 17.712988,10 18.53125,10 21.012274,10 23,7.981024 23,5.5 23,3.0189749 21.012274,1 18.53125,1 z M 18,3 l 0,2 0,1 2.46875,0 0,-1 L 19,5 19,3 18,3 z m -2.65625,5.65625 c 0.105386,0.106218 0.196999,0.217181 0.3125,0.3125 -0.113804,-0.09381 -0.209208,-0.208746 -0.3125,-0.3125 z"
       style="opacity:0.3;color:#000000;fill:none;stroke:#ffffff;stroke-width:1;stroke-miterlimit:4;stroke-dasharray:none;marker:none;visibility:visible;display:inline;overflow:visible;filter:url(#filter3873);enable-background:accumulate"
       clip-path="url(#clipPath3869)"
       transform="translate(-10,0)" />
    <path
       style="color:#000000;fill:url(#linearGradient3852);fill-opacity:1.0;fill-rule:nonzero;stroke:none;stroke-width:3;marker:none;visibility:visible;display:inline;overflow:visible;enable-background:accumulate"
       d="m 8.53125,1 c -2.481026,0 -4.5,2.0189749 -4.5,4.5 l -1.3125,0 2.03125,3.375 2,-3.375 -1.53125,0 c 0,-1.808242 1.473008,-3.28125 3.28125,-3.28125 1.808242,0 3.28125,1.473008 3.28125,3.28125 0,1.808242 -1.473008,3.28125 -3.28125,3.28125 -0.589598,0 -1.147148,-0.164756 -1.625,-0.4375 L 6.28125,9.40625 C 6.942017,9.788494 7.712988,10 8.53125,10 11.012274,10 13,7.981024 13,5.5 13,3.0189749 11.012274,1 8.53125,1 z M 8,3 l 0,2 0,1 2.46875,0 0,-1 L 9,5 9,3 8,3 z M 5.34375,8.65625 C 5.449136,8.762468 5.540749,8.873431 5.65625,8.96875 5.542446,8.87494 5.447042,8.760004 5.34375,8.65625 z"
       id="path3876"
       inkscape:connector-curvature="0" />
  </g>
</svg>
