<?xml version="1.0" encoding="UTF-8" standalone="no"?>
<!-- Created with Inkscape (http://www.inkscape.org/) -->

<svg
   xmlns:dc="http://purl.org/dc/elements/1.1/"
   xmlns:cc="http://creativecommons.org/ns#"
   xmlns:rdf="http://www.w3.org/1999/02/22-rdf-syntax-ns#"
   xmlns:svg="http://www.w3.org/2000/svg"
   xmlns="http://www.w3.org/2000/svg"
   xmlns:xlink="http://www.w3.org/1999/xlink"
   xmlns:sodipodi="http://sodipodi.sourceforge.net/DTD/sodipodi-0.dtd"
   xmlns:inkscape="http://www.inkscape.org/namespaces/inkscape"
   width="16"
   height="16"
   id="svg2"
   sodipodi:version="0.32"
   inkscape:version="0.48.0 r9654"
   version="1.0"
   sodipodi:docname="dvdrip.svg"
   inkscape:output_extension="org.inkscape.output.svg.inkscape"
   style="display:inline">
  <defs
     id="defs4">
    <linearGradient
       inkscape:collect="always"
       id="linearGradient3899">
      <stop
         style="stop-color:#000000;stop-opacity:1;"
         offset="0"
         id="stop3901" />
      <stop
         style="stop-color:#000000;stop-opacity:0;"
         offset="1"
         id="stop3903" />
    </linearGradient>
    <inkscape:perspective
       sodipodi:type="inkscape:persp3d"
       inkscape:vp_x="0 : 8 : 1"
       inkscape:vp_y="0 : 1000 : 0"
       inkscape:vp_z="16 : 8 : 1"
       inkscape:persp3d-origin="8 : 5.3333333 : 1"
       id="perspective26" />
    <linearGradient
       inkscape:collect="always"
       id="linearGradient3327">
      <stop
         style="stop-color:#000000;stop-opacity:1;"
         offset="0"
         id="stop3330" />
      <stop
         style="stop-color:#000000;stop-opacity:0;"
         offset="1"
         id="stop3333" />
    </linearGradient>
    <linearGradient
       id="ButtonColor"
       x1="10.31979"
       y1="21"
       x2="10.31979"
       y2="0.99929649"
       gradientUnits="userSpaceOnUse">
      <stop
         style="stop-color:#29669f;stop-opacity:1;"
         offset="0"
         id="stop3189" />
      <stop
         style="stop-color:#88b6e0;stop-opacity:1;"
         offset="1"
         id="stop3191" />
    </linearGradient>
    <linearGradient
       inkscape:collect="always"
       xlink:href="#linearGradient3327"
       id="linearGradient3192"
       x1="9.0574636"
       y1="10.202822"
       x2="9.0574636"
       y2="-12.198761"
       gradientUnits="userSpaceOnUse"
       gradientTransform="translate(0,5.8006549)" />
    <linearGradient
       inkscape:collect="always"
       xlink:href="#ButtonColor"
       id="linearGradient3204"
       x1="1"
       y1="9"
       x2="15"
       y2="9"
       gradientUnits="userSpaceOnUse"
       gradientTransform="translate(-16,-1)" />
    <linearGradient
       inkscape:collect="always"
       xlink:href="#ButtonColor"
       id="linearGradient3173"
       gradientUnits="userSpaceOnUse"
       gradientTransform="translate(-16,-1)"
       x1="1"
       y1="9"
       x2="15"
       y2="9" />
    <linearGradient
       inkscape:collect="always"
       xlink:href="#ButtonColor"
       id="linearGradient3177"
       gradientUnits="userSpaceOnUse"
       gradientTransform="translate(-16,-1)"
       x1="1"
       y1="9"
       x2="15"
       y2="9" />
    <linearGradient
       inkscape:collect="always"
       xlink:href="#ButtonColor"
       id="linearGradient3179"
       gradientUnits="userSpaceOnUse"
       gradientTransform="matrix(0,-1,1,0,-1,16)"
       x1="1"
       y1="9"
       x2="15"
       y2="9" />
    <linearGradient
       inkscape:collect="always"
       xlink:href="#linearGradient3327"
       id="linearGradient3612"
       x1="8"
       y1="15"
       x2="8"
       y2="-1"
       gradientUnits="userSpaceOnUse" />
    <linearGradient
       inkscape:collect="always"
       xlink:href="#linearGradient3327"
       id="linearGradient3616"
       gradientUnits="userSpaceOnUse"
       gradientTransform="translate(0,5.8006549)"
       x1="9.0574636"
       y1="10.202822"
       x2="9.0574636"
       y2="-12.198761" />
    <inkscape:perspective
       id="perspective2943"
       inkscape:persp3d-origin="0.5 : 0.33333333 : 1"
       inkscape:vp_z="1 : 0.5 : 1"
       inkscape:vp_y="0 : 1000 : 0"
       inkscape:vp_x="0 : 0.5 : 1"
       sodipodi:type="inkscape:persp3d" />
    <linearGradient
       inkscape:collect="always"
       xlink:href="#linearGradient4578-8"
       id="linearGradient3806"
       gradientUnits="userSpaceOnUse"
       gradientTransform="translate(11.119372,-4.2581977)"
       x1="-3.0607977"
       y1="27.258198"
       x2="-3.0607977"
       y2="7.2536583" />
    <linearGradient
       id="linearGradient4578-8">
      <stop
         style="stop-color:#a0a0a0;stop-opacity:0.5411765;"
         offset="0"
         id="stop4580-5" />
      <stop
         style="stop-color:#a0a0a0;stop-opacity:0.34509805;"
         offset="1"
         id="stop4582-6" />
    </linearGradient>
    <linearGradient
       y2="7.2536583"
       x2="-3.0607977"
       y1="27.258198"
       x1="-3.0607977"
       gradientTransform="translate(-12.880628,-14.258198)"
       gradientUnits="userSpaceOnUse"
       id="linearGradient2954"
       xlink:href="#linearGradient4578-8"
       inkscape:collect="always" />
    <linearGradient
       inkscape:collect="always"
       xlink:href="#linearGradient4578-8"
       id="linearGradient3648"
       gradientUnits="userSpaceOnUse"
       gradientTransform="translate(-16,-11)"
       x1="1"
       y1="9"
       x2="15"
       y2="9" />
    <linearGradient
       inkscape:collect="always"
       xlink:href="#linearGradient4578-8"
       id="linearGradient3659"
       gradientUnits="userSpaceOnUse"
       gradientTransform="translate(4,-1)"
       x1="1"
       y1="9"
       x2="15"
       y2="9" />
    <inkscape:perspective
       id="perspective2964"
       inkscape:persp3d-origin="0.5 : 0.33333333 : 1"
       inkscape:vp_z="1 : 0.5 : 1"
       inkscape:vp_y="0 : 1000 : 0"
       inkscape:vp_x="0 : 0.5 : 1"
       sodipodi:type="inkscape:persp3d" />
    <clipPath
       clipPathUnits="userSpaceOnUse"
       id="clipPath4187">
      <path
         style="fill:#bbb1bf;fill-opacity:1;stroke:none"
         d="m 48,102 c -19.88225,0 -36,16.11775 -36,36 0,19.88225 16.11775,36 36,36 19.88225,0 36,-16.11775 36,-36 0,-19.88225 -16.11775,-36 -36,-36 z m 0,24 c 6.62742,0 12,5.37258 12,12 0,6.62742 -5.37258,12 -12,12 -6.62742,0 -12,-5.37258 -12,-12 0,-6.62742 5.37258,-12 12,-12 z"
         id="path4189"
         inkscape:connector-curvature="0" />
    </clipPath>
    <filter
       inkscape:collect="always"
       id="filter4195"
       x="-0.18000001"
       width="1.36"
       y="-0.18000001"
       height="1.36"
       color-interpolation-filters="sRGB">
      <feGaussianBlur
         inkscape:collect="always"
         stdDeviation="5.2159999"
         id="feGaussianBlur4197" />
    </filter>
    <clipPath
       clipPathUnits="userSpaceOnUse"
       id="clipPath4031">
      <path
         id="path4033"
         d="M 48,32 C 28.117749,32 12,48.117749 12,68 12,87.882251 28.117749,104 48,104 67.882251,104 84,87.882251 84,68 84,48.117749 67.882251,32 48,32 z m 0,24 c 6.627417,0 12,5.372583 12,12 0,6.627417 -5.372583,12 -12,12 -6.627417,0 -12,-5.372583 -12,-12 0,-6.627417 5.372583,-12 12,-12 z"
         style="fill:#bbb1bf;fill-opacity:1;stroke:none"
         inkscape:connector-curvature="0" />
    </clipPath>
    <filter
       inkscape:collect="always"
       id="filter4035"
       x="-0.19037074"
       width="1.3807415"
       y="-0.1707008"
       height="1.3414016"
       color-interpolation-filters="sRGB">
      <feGaussianBlur
         inkscape:collect="always"
         stdDeviation="4.9476562"
         id="feGaussianBlur4037" />
    </filter>
    <linearGradient
       inkscape:collect="always"
       xlink:href="#linearGradient3362"
       id="linearGradient4004"
       gradientUnits="userSpaceOnUse"
       x1="25.220379"
       y1="61.92226"
       x2="94.567612"
       y2="61.92226" />
    <linearGradient
       id="linearGradient3362">
      <stop
         id="stop3364"
         offset="0"
         style="stop-color:#4d4d4d;stop-opacity:1;" />
      <stop
         id="stop3366"
         offset="1"
         style="stop-color:#ffffff;stop-opacity:1;" />
    </linearGradient>
    <linearGradient
       inkscape:collect="always"
       xlink:href="#linearGradient3958"
       id="linearGradient3911"
       gradientUnits="userSpaceOnUse"
       gradientTransform="translate(12.119372,-7.258198)"
       x1="-3.0607977"
       y1="30.322872"
       x2="-3.0607977"
       y2="20.35194" />
    <linearGradient
       inkscape:collect="always"
       id="linearGradient3958">
      <stop
         style="stop-color:#002e93;stop-opacity:1;"
         offset="0"
         id="stop3960" />
      <stop
         style="stop-color:#2f62c6;stop-opacity:1"
         offset="1"
         id="stop3962" />
    </linearGradient>
    <linearGradient
       y2="20.35194"
       x2="-3.0607977"
       y1="30.322872"
       x1="-3.0607977"
       gradientTransform="translate(11.119372,-2.258198)"
       gradientUnits="userSpaceOnUse"
       id="linearGradient4134"
       xlink:href="#linearGradient3958"
       inkscape:collect="always" />
    <linearGradient
       inkscape:collect="always"
       xlink:href="#linearGradient3327-0"
       id="linearGradient3629"
       x1="0"
       y1="8"
       x2="29.017237"
       y2="8"
       gradientUnits="userSpaceOnUse"
       gradientTransform="matrix(0,-1,1,0,0,16)" />
    <linearGradient
       inkscape:collect="always"
       id="linearGradient3327-0">
      <stop
         style="stop-color:#000000;stop-opacity:1;"
         offset="0"
         id="stop3330-7" />
      <stop
         style="stop-color:#000000;stop-opacity:0;"
         offset="1"
         id="stop3333-7" />
    </linearGradient>
    <linearGradient
       inkscape:collect="always"
       xlink:href="#ButtonColor-8"
       id="linearGradient3204-9"
       x1="1"
       y1="9"
       x2="15"
       y2="9"
       gradientUnits="userSpaceOnUse"
       gradientTransform="translate(-17,-2)" />
    <linearGradient
       id="ButtonColor-8"
       x1="10.31979"
       y1="21"
       x2="10.31979"
       y2="0.99929649"
       gradientUnits="userSpaceOnUse">
      <stop
         style="stop-color:#29669f;stop-opacity:1;"
         offset="0"
         id="stop3189-9" />
      <stop
         style="stop-color:#88b6e0;stop-opacity:1;"
         offset="1"
         id="stop3191-7" />
    </linearGradient>
    <linearGradient
       y2="9"
       x2="17"
       y1="9"
       x1="1"
       gradientTransform="translate(-17,-22)"
       gradientUnits="userSpaceOnUse"
       id="linearGradient3059"
       xlink:href="#linearGradient4578-8"
       inkscape:collect="always" />
    <linearGradient
       inkscape:collect="always"
       xlink:href="#linearGradient4578-8"
       id="linearGradient3894"
       gradientUnits="userSpaceOnUse"
       gradientTransform="translate(-17,-2)"
       x1="1"
       y1="9"
       x2="17"
       y2="9" />
    <linearGradient
       inkscape:collect="always"
       xlink:href="#linearGradient3899"
       id="linearGradient3905"
       x1="1"
       y1="8"
       x2="22"
       y2="8"
       gradientUnits="userSpaceOnUse"
       gradientTransform="matrix(0,1,-1,0,16,0)" />
    <linearGradient
       y2="20.35194"
       x2="-3.0607977"
       y1="30.322872"
       x1="-3.0607977"
       gradientTransform="translate(11.119372,-2.258198)"
       gradientUnits="userSpaceOnUse"
       id="linearGradient4134-6"
       xlink:href="#linearGradient3958-4"
       inkscape:collect="always" />
    <linearGradient
       inkscape:collect="always"
       id="linearGradient3958-4">
      <stop
         style="stop-color:#002e93;stop-opacity:1;"
         offset="0"
         id="stop3960-5" />
      <stop
         style="stop-color:#2f62c6;stop-opacity:1"
         offset="1"
         id="stop3962-7" />
    </linearGradient>
    <linearGradient
       y2="20.35194"
       x2="-3.0607977"
       y1="30.322872"
       x1="-3.0607977"
       gradientTransform="translate(10.119372,-11.258198)"
       gradientUnits="userSpaceOnUse"
       id="linearGradient3923"
       xlink:href="#linearGradient3958-4"
       inkscape:collect="always" />
    <linearGradient
       inkscape:collect="always"
       xlink:href="#linearGradient3327-0"
       id="linearGradient3946"
       gradientUnits="userSpaceOnUse"
       gradientTransform="matrix(0,-1,1,0,0,16)"
       x1="0"
       y1="8"
       x2="29.017237"
       y2="8" />
  </defs>
  <sodipodi:namedview
     id="base"
     pagecolor="#ffffff"
     bordercolor="#e7e7e7"
     borderopacity="1"
     inkscape:pageopacity="0.0"
     inkscape:pageshadow="2"
     inkscape:zoom="24.01046"
     inkscape:cx="-3.9119693"
     inkscape:cy="7.6501936"
     inkscape:document-units="px"
     inkscape:current-layer="layer1"
     showgrid="true"
     inkscape:showpageshadow="false"
     showguides="true"
     inkscape:guide-bbox="true"
     inkscape:window-width="1920"
     inkscape:window-height="1026"
     inkscape:window-x="0"
     inkscape:window-y="25"
     inkscape:window-maximized="1">
    <sodipodi:guide
       orientation="1,0"
       position="0,112"
       id="guide2383" />
    <sodipodi:guide
       orientation="0,1"
       position="26.278146,128"
       id="guide2385" />
    <sodipodi:guide
       orientation="1,0"
       position="128,54.082119"
       id="guide2387" />
    <sodipodi:guide
       orientation="0,1"
       position="78.156291,0"
       id="guide2389" />
    <sodipodi:guide
       orientation="0,1"
       position="60.863576,64.084768"
       id="guide2391" />
    <inkscape:grid
       type="xygrid"
       id="grid3672"
       visible="true"
       enabled="true" />
  </sodipodi:namedview>
  <metadata
     id="metadata7">
    <rdf:RDF>
      <cc:Work
         rdf:about="">
        <dc:format>image/svg+xml</dc:format>
        <dc:type
           rdf:resource="http://purl.org/dc/dcmitype/StillImage" />
        <dc:title></dc:title>
      </cc:Work>
    </rdf:RDF>
  </metadata>
  <g
     inkscape:groupmode="layer"
     id="layer3"
     inkscape:label="Box"
     sodipodi:insensitive="true">
    <rect
       ry="2"
       rx="2"
       y="0"
       x="-16"
       height="16"
       width="16"
       id="rect3196"
       style="fill:url(#linearGradient3894);fill-opacity:1;fill-rule:nonzero;stroke:none;display:inline"
       transform="matrix(0,-1,1,0,0,0)" />
    <path
       style="opacity:0.4;fill:#000000;fill-opacity:1;stroke:none"
       d="M 8,6 C 6.89543,6 6,6.8954305 6,8 6,8.085279 6.02089,8.1675298 6.03125,8.25 6.155065,7.264285 6.98071,6.5 8,6.5 9.01929,6.5 9.844935,7.264285 9.96875,8.25 9.979109,8.1675298 10,8.0852793 10,8 10,6.8954305 9.104569,6 8,6 z"
       id="path3730"
       inkscape:connector-curvature="0" />
    <path
       style="opacity:0.4;fill:#ffffff;fill-opacity:1;stroke:none;display:inline"
       d="M 4.125,1 C 2.812604,1.727861 1.727861,2.812604 1,4.125 L 1,8 C 1,4.134007 4.134007,1 8,1 L 4.125,1 z M 8,1 c 3.865993,0 7,3.134007 7,7 L 15,4.125 C 14.272139,2.812604 13.187396,1.727861 11.875,1 L 8,1 z m 7,7 c 0,3.865993 -3.134007,7 -7,7 l 3.875,0 C 13.187396,14.272139 14.272139,13.187396 15,11.875 L 15,8 z M 8,15 C 4.134007,15 1,11.865993 1,8 l 0,3.875 C 1.727861,13.187396 2.812604,14.272139 4.125,15 L 8,15 z"
       id="path3652"
       inkscape:connector-curvature="0" />
    <path
       style="opacity:0.35;fill:url(#linearGradient3905);fill-opacity:1;stroke:none;display:inline"
       d="M 15,8 C 15,4.134007 11.865993,1 8,1 4.134007,1 1,4.134007 1,8 c 0,3.865993 3.134007,7 7,7 3.865993,0 7,-3.134007 7,-7 z M 10,8 C 10,9.104569 9.104569,10 8,10 6.89543,10 6,9.104569 6,8 6,6.89543 6.89543,6 8,6 c 1.104569,0 2,0.89543 2,2 z"
       id="path3650"
       inkscape:connector-curvature="0" />
  </g>
  <g
     inkscape:groupmode="layer"
     id="layer4"
     inkscape:label="Disc"
     style="display:inline"
     sodipodi:insensitive="true">
    <path
       style="fill:#ccbb98;fill-opacity:1;stroke:none;display:inline"
       d="M 7.999751,2.0004981 C 4.686181,2.0004981 2,4.6866776 2,8.0002487 c 0,3.3135693 2.686181,5.9997503 5.999751,5.9997503 3.313573,0 5.999751,-2.686181 5.999751,-5.9997503 0,-3.3135711 -2.686179,-5.9997506 -5.999751,-5.9997506 z m 0,3.9998339 c 1.104524,0 1.999917,0.8953923 1.999917,1.9999167 0,1.1045225 -0.895393,1.9999173 -1.999917,1.9999173 -1.104524,0 -1.999917,-0.8953948 -1.999917,-1.9999173 0,-1.1045244 0.895393,-1.9999167 1.999917,-1.9999167 z"
       id="path3978"
       inkscape:connector-curvature="0" />
    <path
       style="opacity:0.3;fill:#ffffff;fill-opacity:1;stroke:none;display:inline"
       d="m 7.999751,6.000332 c -1.104524,0 -1.999917,0.8953923 -1.999917,1.9999167 0,1.1045225 0.895393,1.9999173 1.999917,1.9999173 1.104524,0 1.999917,-0.8953948 1.999917,-1.9999173 0,-1.1045244 -0.895393,-1.9999167 -1.999917,-1.9999167 z m 0,1.1666179 c 0.46022,0 0.833298,0.3730797 0.833298,0.8332988 0,0.460217 -0.373078,0.8332975 -0.833298,0.8332975 -0.460217,0 -0.833299,-0.3730805 -0.833299,-0.8332975 0,-0.4602191 0.373082,-0.8332988 0.833299,-0.8332988 z"
       id="path3992"
       inkscape:connector-curvature="0" />
    <path
       transform="matrix(0,0.03313286,-0.03980247,0,10.464409,6.0157889)"
       d="m 92.579506,61.92226 a 32.685513,27.208481 0 1 1 -65.371025,0 32.685513,27.208481 0 1 1 65.371025,0 z"
       sodipodi:ry="27.208481"
       sodipodi:rx="32.685513"
       sodipodi:cy="61.92226"
       sodipodi:cx="59.893993"
       id="path4002"
       style="opacity:0.6;fill:none;stroke:url(#linearGradient4004);stroke-width:13.76846504;stroke-linecap:round;stroke-linejoin:miter;stroke-miterlimit:4;stroke-opacity:1;stroke-dasharray:none;stroke-dashoffset:0;display:inline"
       sodipodi:type="arc" />
    <path
       style="opacity:0.8;fill:#ffffff;fill-opacity:1;stroke:none;display:inline;filter:url(#filter4035)"
       d="M 57.3125,33.21875 48,68 79.1875,50 C 74.413603,41.731368 66.53496,35.689901 57.3125,33.21875 z M 48,68 16.8125,86 c 4.773897,8.268632 12.65254,14.3101 21.875,16.78125 L 48,68 z"
       id="path4018"
       clip-path="url(#clipPath4031)"
       transform="matrix(0.16665976,0,0,0.16665974,8.3e-5,-3.3326135)"
       inkscape:connector-curvature="0" />
    <g
       id="g4175"
       clip-path="url(#clipPath4187)"
       transform="matrix(0.16665976,0,0,0.16665974,8.3e-5,-14.998795)"
       style="opacity:0.6;display:inline;filter:url(#filter4195)">
      <path
         inkscape:transform-center-y="17.386667"
         inkscape:transform-center-x="-8.9999982"
         sodipodi:end="0.78539816"
         sodipodi:start="0.58554744"
         transform="matrix(1.5055399,0.86922388,-0.95672979,1.6571045,27.560302,21.500167)"
         d="m 60.947452,57.784124 a 20.708128,18.814091 0 0 1 -2.615496,2.905857 L 43.689098,47.38641 z"
         sodipodi:ry="18.814091"
         sodipodi:rx="20.708128"
         sodipodi:cy="47.38641"
         sodipodi:cx="43.689098"
         id="path4039"
         style="fill:#7137c8;fill-opacity:1;stroke:none"
         sodipodi:type="arc" />
      <path
         sodipodi:type="arc"
         style="fill:#00ccff;fill-opacity:1;stroke:none"
         id="path4041"
         sodipodi:cx="43.689098"
         sodipodi:cy="47.38641"
         sodipodi:rx="20.708128"
         sodipodi:ry="18.814091"
         d="m 60.779363,58.010828 a 20.708128,18.814091 0 0 1 -3.384016,3.478847 L 43.689098,47.38641 z"
         transform="matrix(1.6792116,0.4499434,-0.49523981,1.8482599,-1.8956092,30.759984)"
         sodipodi:start="0.60007623"
         sodipodi:end="0.84747542"
         inkscape:transform-center-x="-12.727923"
         inkscape:transform-center-y="15.588458" />
      <path
         inkscape:transform-center-y="12.727924"
         inkscape:transform-center-x="-15.58846"
         sodipodi:end="0.62652852"
         sodipodi:start="0.40478161"
         transform="matrix(1.7384478,0,-6.0266211e-8,1.9134595,-27.951218,47.328031)"
         d="m 62.72377,54.795738 a 20.708128,18.814091 0 0 1 -2.259683,3.622054 L 43.689098,47.38641 z"
         sodipodi:ry="18.814091"
         sodipodi:rx="20.708128"
         sodipodi:cy="47.38641"
         sodipodi:cx="43.689098"
         id="path4043"
         style="fill:#ffcc00;fill-opacity:1;stroke:none"
         sodipodi:type="arc" />
      <path
         sodipodi:type="arc"
         style="fill:#ff0000;fill-opacity:1;stroke:none"
         id="path4045"
         sodipodi:cx="43.689098"
         sodipodi:cy="47.38641"
         sodipodi:rx="20.708128"
         sodipodi:ry="18.814091"
         d="m 61.622863,56.793455 a 20.708128,18.814091 0 0 1 -1.699251,2.272761 L 43.689098,47.38641 z"
         transform="matrix(1.6792116,-0.4499434,0.4952397,1.84826,-48.830877,70.075223)"
         sodipodi:start="0.52359878"
         sodipodi:end="0.66976404"
         inkscape:transform-center-x="-17.386666"
         inkscape:transform-center-y="9.0000026" />
      <path
         inkscape:transform-center-y="15.588458"
         inkscape:transform-center-x="-12.727923"
         sodipodi:end="0.60230229"
         sodipodi:start="0.35258858"
         transform="matrix(1.6792116,0.4499434,-0.49523981,1.8482599,-1.8956092,30.759984)"
         d="m 63.123303,53.883448 a 20.708128,18.814091 0 0 1 -2.370014,4.161918 L 43.689098,47.38641 z"
         sodipodi:ry="18.814091"
         sodipodi:rx="20.708128"
         sodipodi:cy="47.38641"
         sodipodi:cx="43.689098"
         id="path4144"
         style="fill:#00ff00;fill-opacity:1;stroke:none"
         sodipodi:type="arc" />
      <path
         sodipodi:type="arc"
         style="fill:#7137c8;fill-opacity:1;stroke:none"
         id="path4155"
         sodipodi:cx="43.689098"
         sodipodi:cy="47.38641"
         sodipodi:rx="20.708128"
         sodipodi:ry="18.814091"
         d="m 60.947452,57.784124 a 20.708128,18.814091 0 0 1 -2.615496,2.905857 L 43.689098,47.38641 z"
         transform="matrix(-1.5055399,-0.86922388,0.95672979,-1.6571045,68.439684,254.49984)"
         sodipodi:start="0.58554744"
         sodipodi:end="0.78539816"
         inkscape:transform-center-x="-8.9999982"
         inkscape:transform-center-y="17.386667" />
      <path
         inkscape:transform-center-y="15.588458"
         inkscape:transform-center-x="-12.727923"
         sodipodi:end="0.84747542"
         sodipodi:start="0.60007623"
         transform="matrix(-1.6792116,-0.4499434,0.49523981,-1.8482599,97.895595,245.24003)"
         d="m 60.779363,58.010828 a 20.708128,18.814091 0 0 1 -3.384016,3.478847 L 43.689098,47.38641 z"
         sodipodi:ry="18.814091"
         sodipodi:rx="20.708128"
         sodipodi:cy="47.38641"
         sodipodi:cx="43.689098"
         id="path4157"
         style="fill:#00ccff;fill-opacity:1;stroke:none"
         sodipodi:type="arc" />
      <path
         sodipodi:type="arc"
         style="fill:#ffcc00;fill-opacity:1;stroke:none"
         id="path4159"
         sodipodi:cx="43.689098"
         sodipodi:cy="47.38641"
         sodipodi:rx="20.708128"
         sodipodi:ry="18.814091"
         d="m 62.72377,54.795738 a 20.708128,18.814091 0 0 1 -2.259683,3.622054 L 43.689098,47.38641 z"
         transform="matrix(-1.7384478,0,6.0266211e-8,-1.9134595,123.9512,228.67198)"
         sodipodi:start="0.40478161"
         sodipodi:end="0.62652852"
         inkscape:transform-center-x="-15.58846"
         inkscape:transform-center-y="12.727924" />
      <path
         inkscape:transform-center-y="9.0000026"
         inkscape:transform-center-x="-17.386666"
         sodipodi:end="0.66976404"
         sodipodi:start="0.52359878"
         transform="matrix(-1.6792116,0.4499434,-0.4952397,-1.84826,144.83086,205.92479)"
         d="m 61.622863,56.793455 a 20.708128,18.814091 0 0 1 -1.699251,2.272761 L 43.689098,47.38641 z"
         sodipodi:ry="18.814091"
         sodipodi:rx="20.708128"
         sodipodi:cy="47.38641"
         sodipodi:cx="43.689098"
         id="path4161"
         style="fill:#ff0000;fill-opacity:1;stroke:none"
         sodipodi:type="arc" />
      <path
         sodipodi:type="arc"
         style="fill:#00ff00;fill-opacity:1;stroke:none"
         id="path4163"
         sodipodi:cx="43.689098"
         sodipodi:cy="47.38641"
         sodipodi:rx="20.708128"
         sodipodi:ry="18.814091"
         d="m 63.123303,53.883448 a 20.708128,18.814091 0 0 1 -2.370014,4.161918 L 43.689098,47.38641 z"
         transform="matrix(-1.6792116,-0.4499434,0.49523981,-1.8482599,97.895595,245.24003)"
         sodipodi:start="0.35258858"
         sodipodi:end="0.60230229"
         inkscape:transform-center-x="-12.727923"
         inkscape:transform-center-y="15.588458" />
    </g>
    <path
       style="opacity:0.2;fill:#000000;fill-opacity:1;stroke:none;display:inline"
       d="m 7.999751,5.5836823 c -1.334632,0 -2.416566,1.0819338 -2.416566,2.4165664 0,1.3346325 1.081934,2.4165663 2.416566,2.4165663 1.334633,0 2.416567,-1.0819338 2.416567,-2.4165663 0,-1.3346326 -1.081934,-2.4165664 -2.416567,-2.4165664 z m 0,0.4166497 c 1.104524,0 1.999917,0.8953923 1.999917,1.9999167 0,1.1045225 -0.895393,1.9999173 -1.999917,1.9999173 -1.104524,0 -1.999917,-0.8953948 -1.999917,-1.9999173 0,-1.1045244 0.895393,-1.9999167 1.999917,-1.9999167 z"
       id="path3986"
       inkscape:connector-curvature="0" />
    <path
       style="opacity:0.4;fill:#ffffff;fill-opacity:1;stroke:none;display:inline"
       d="M 7.999751,2.0004981 C 4.686181,2.0004981 2,4.6866776 2,8.0002487 2,8.0564247 2.0037,8.1111017 2.0052,8.1669086 2.09416,4.9310072 4.74235,2.3338174 7.999746,2.3338174 c 3.257395,0 5.90559,2.5971898 5.994543,5.8330912 0.0015,-0.055811 0.0053,-0.1104845 0.0053,-0.1666599 0,-3.3135711 -2.68618,-5.9997506 -5.999749,-5.9997506 z"
       id="path4199"
       sodipodi:nodetypes="cscscsc"
       inkscape:connector-curvature="0" />
  </g>
  <g
     inkscape:label="Button"
     inkscape:groupmode="layer"
     id="layer1"
     style="display:inline">
    <path
       style="fill:url(#linearGradient3923);fill-opacity:1;fill-rule:evenodd;stroke:none;display:inline"
       d="m 0,10 0,4 c 0,1.108 0.892,2 2,2 l 12,0 c 1.108,0 2.217297,-0.913517 2,-2 l 0,-4 z"
       id="rect3134"
       inkscape:connector-curvature="0"
       sodipodi:nodetypes="csssscc" />
    <path
       inkscape:connector-curvature="0"
       style="opacity:0.4;fill:url(#linearGradient3946);fill-opacity:1;fill-rule:nonzero;stroke:none;display:inline"
       d="m 0,14 c 0,1.108 0.892,2 2,2 l 12,0 c 1.108,0 2,-0.892 2,-2 L 16,2 C 16,0.892 15.108,0 14,0 L 2,0 C 0.892,0 0,0.892 0,2 l 0,12 z m 0.96875,0 0,-12 C 0.96875,1.416801 1.416801,0.96875 2,0.96875 l 12,0 c 0.583199,0 1.03125,0.448051 1.03125,1.03125 l 0,12 c 0,0.583199 -0.448051,1.03125 -1.03125,1.03125 l -12,0 C 1.416801,15.03125 0.96875,14.583199 0.96875,14 z"
       id="rect2835" />
    <path
       inkscape:connector-curvature="0"
       style="opacity:0.35;fill:#ffffff;fill-opacity:1;fill-rule:nonzero;stroke:none;display:inline"
       d="M 2,0.96875 C 1.416801,0.96875 0.96875,1.4168007 0.96875,2 l 0,1 C 0.96875,2.4168007 1.416801,1.96875 2,1.96875 l 12,0 c 0.583199,0 1.03125,0.4480507 1.03125,1.03125 l 0,-1 C 15.03125,1.4168007 14.583199,0.96875 14,0.96875 l -12,0 z"
       id="path2843" />
    <path
       inkscape:connector-curvature="0"
       style="font-size:22.99892998px;font-style:normal;font-variant:normal;font-weight:normal;font-stretch:normal;text-align:start;line-height:125%;letter-spacing:0px;word-spacing:0px;writing-mode:lr-tb;text-anchor:start;fill:#f2f2f2;fill-opacity:1;stroke:none;display:inline;font-family:Arial Black;-inkscape-font-specification:'Arial Black,'"
       d="m 8.875,10.15625 0,0.78125 1.21875,0 0,-0.78125 -1.21875,0 z M 7.90625,11.8125 c -0.173671,4e-6 -0.318358,0.0411 -0.4375,0.125 -0.117127,0.08195 -0.232684,0.248265 -0.34375,0.46875 l 0,-0.53125 -1.15625,0 0,3.125 1.25,0 0,-1.03125 c -1e-6,-0.497558 0.06028,-0.849785 0.1875,-1.03125 0.08885,-0.128778 0.213446,-0.187498 0.375,-0.1875 0.08482,2e-6 0.198351,0.03522 0.34375,0.09375 L 8.5,11.96875 C 8.283922,11.859486 8.087993,11.812504 7.90625,11.8125 z m 5.125,0 c -0.179487,3e-6 -0.352094,0.03363 -0.5,0.125 -0.109682,0.06802 -0.212464,0.213828 -0.34375,0.40625 l 0,-0.46875 -1.15625,0 0,4.09375 1.25,0 0,-1.28125 c 0.101374,0.122453 0.215782,0.219052 0.34375,0.28125 0.129622,0.06219 0.250031,0.09375 0.40625,0.09375 0.322401,0 0.60144,-0.136077 0.8125,-0.40625 0.211058,-0.272119 0.312496,-0.672418 0.3125,-1.1875 -4e-6,-0.466486 -0.08681,-0.870674 -0.28125,-1.1875 -0.19278,-0.31682 -0.489774,-0.468751 -0.84375,-0.46875 z M 2,12 l 0,1 1,0 0,-1 -1,0 z m 2,0 0,1 1,0 0,-1 -1,0 z m 4.875,0.0625 0,2.9375 1.21875,0 0,-2.9375 -1.21875,0 z m 3.84375,0.59375 c 0.119654,2e-6 0.198153,0.100195 0.28125,0.21875 0.08309,0.116623 0.156248,0.280515 0.15625,0.53125 C 13.156248,13.678367 13.07976,13.885323 13,14 c -0.07977,0.112736 -0.163259,0.15625 -0.28125,0.15625 -0.134614,0 -0.224422,-0.03767 -0.3125,-0.15625 -0.08808,-0.118566 -0.156251,-0.317591 -0.15625,-0.5625 -10e-7,-0.266284 0.03859,-0.443932 0.125,-0.5625 0.08642,-0.118562 0.214121,-0.218748 0.34375,-0.21875 z M 2,14 l 0,1 1,0 0,-1 -1,0 z m 2,0 0,1 1,0 0,-1 -1,0 z"
       id="path3954" />
  </g>
</svg>
