<?xml version="1.0" encoding="UTF-8" standalone="no"?>
<!-- Created with Inkscape (http://www.inkscape.org/) -->

<svg
   xmlns:dc="http://purl.org/dc/elements/1.1/"
   xmlns:cc="http://creativecommons.org/ns#"
   xmlns:rdf="http://www.w3.org/1999/02/22-rdf-syntax-ns#"
   xmlns:svg="http://www.w3.org/2000/svg"
   xmlns="http://www.w3.org/2000/svg"
   xmlns:xlink="http://www.w3.org/1999/xlink"
   xmlns:sodipodi="http://sodipodi.sourceforge.net/DTD/sodipodi-0.dtd"
   xmlns:inkscape="http://www.inkscape.org/namespaces/inkscape"
   width="16"
   height="16"
   id="svg2"
   sodipodi:version="0.32"
   inkscape:version="0.47 r22583"
   version="1.0"
   sodipodi:docname="emerald-theme-manager-icon.svg"
   inkscape:output_extension="org.inkscape.output.svg.inkscape"
   style="display:inline">
  <defs
     id="defs4">
    <inkscape:perspective
       sodipodi:type="inkscape:persp3d"
       inkscape:vp_x="0 : 8 : 1"
       inkscape:vp_y="0 : 1000 : 0"
       inkscape:vp_z="16 : 8 : 1"
       inkscape:persp3d-origin="8 : 5.3333333 : 1"
       id="perspective26" />
    <linearGradient
       inkscape:collect="always"
       id="linearGradient3327">
      <stop
         style="stop-color:#000000;stop-opacity:1;"
         offset="0"
         id="stop3330" />
      <stop
         style="stop-color:#000000;stop-opacity:0;"
         offset="1"
         id="stop3333" />
    </linearGradient>
    <linearGradient
       id="ButtonColor"
       x1="10.31979"
       y1="21"
       x2="10.31979"
       y2="0.99929649"
       gradientUnits="userSpaceOnUse">
      <stop
         style="stop-color:#29669f;stop-opacity:1;"
         offset="0"
         id="stop3189" />
      <stop
         style="stop-color:#88b6e0;stop-opacity:1;"
         offset="1"
         id="stop3191" />
    </linearGradient>
    <linearGradient
       inkscape:collect="always"
       xlink:href="#linearGradient3327"
       id="linearGradient3192"
       x1="9.0574636"
       y1="10.202822"
       x2="9.0574636"
       y2="-12.198761"
       gradientUnits="userSpaceOnUse"
       gradientTransform="translate(0,5.8006549)" />
    <linearGradient
       inkscape:collect="always"
       xlink:href="#linearGradient3700-4"
       id="linearGradient3204"
       x1="1"
       y1="9"
       x2="15"
       y2="9"
       gradientUnits="userSpaceOnUse"
       gradientTransform="translate(-17,-2)" />
    <linearGradient
       inkscape:collect="always"
       xlink:href="#ButtonColor"
       id="linearGradient3173"
       gradientUnits="userSpaceOnUse"
       gradientTransform="translate(-16,-1)"
       x1="1"
       y1="9"
       x2="15"
       y2="9" />
    <linearGradient
       inkscape:collect="always"
       xlink:href="#ButtonColor"
       id="linearGradient3177"
       gradientUnits="userSpaceOnUse"
       gradientTransform="translate(-16,-1)"
       x1="1"
       y1="9"
       x2="15"
       y2="9" />
    <linearGradient
       inkscape:collect="always"
       xlink:href="#ButtonColor"
       id="linearGradient3179"
       gradientUnits="userSpaceOnUse"
       gradientTransform="matrix(0,-1,1,0,-1,16)"
       x1="1"
       y1="9"
       x2="15"
       y2="9" />
    <linearGradient
       inkscape:collect="always"
       xlink:href="#linearGradient3327"
       id="linearGradient3612"
       x1="8"
       y1="15"
       x2="8"
       y2="-1"
       gradientUnits="userSpaceOnUse" />
    <linearGradient
       inkscape:collect="always"
       xlink:href="#linearGradient3327"
       id="linearGradient3629"
       x1="0"
       y1="8"
       x2="29.017237"
       y2="8"
       gradientUnits="userSpaceOnUse"
       gradientTransform="matrix(0,-1,1,0,0,16)" />
    <inkscape:perspective
       id="perspective2912"
       inkscape:persp3d-origin="0.5 : 0.33333333 : 1"
       inkscape:vp_z="1 : 0.5 : 1"
       inkscape:vp_y="0 : 1000 : 0"
       inkscape:vp_x="0 : 0.5 : 1"
       sodipodi:type="inkscape:persp3d" />
    <linearGradient
       inkscape:collect="always"
       xlink:href="#linearGradient3700-4"
       id="linearGradient3237"
       x1="10.61965"
       y1="21"
       x2="10.61965"
       y2="0.9999969"
       gradientUnits="userSpaceOnUse" />
    <linearGradient
       id="linearGradient3700-4">
      <stop
         style="stop-color:#2b930b;stop-opacity:1;"
         offset="0"
         id="stop3702-4" />
      <stop
         style="stop-color:#67d441;stop-opacity:1;"
         offset="1"
         id="stop3704-4" />
    </linearGradient>
    <linearGradient
       gradientTransform="translate(-25,-1)"
       y2="0.9999969"
       x2="10.61965"
       y1="21"
       x1="10.61965"
       gradientUnits="userSpaceOnUse"
       id="linearGradient2921"
       xlink:href="#linearGradient3700-4"
       inkscape:collect="always" />
    <inkscape:perspective
       id="perspective2931"
       inkscape:persp3d-origin="0.5 : 0.33333333 : 1"
       inkscape:vp_z="1 : 0.5 : 1"
       inkscape:vp_y="0 : 1000 : 0"
       inkscape:vp_x="0 : 0.5 : 1"
       sodipodi:type="inkscape:persp3d" />
    <clipPath
       clipPathUnits="userSpaceOnUse"
       id="clipPath3728">
      <rect
         style="fill:url(#linearGradient3732);fill-opacity:1;fill-rule:evenodd;stroke:none;display:inline"
         id="rect3730"
         width="84"
         height="84"
         x="5.9999981"
         y="-90"
         rx="8.3999996"
         ry="8.3999996"
         transform="scale(1,-1)" />
    </clipPath>
    <inkscape:perspective
       id="perspective2962"
       inkscape:persp3d-origin="0.5 : 0.33333333 : 1"
       inkscape:vp_z="1 : 0.5 : 1"
       inkscape:vp_y="0 : 1000 : 0"
       inkscape:vp_x="0 : 0.5 : 1"
       sodipodi:type="inkscape:persp3d" />
  </defs>
  <sodipodi:namedview
     id="base"
     pagecolor="#ffffff"
     bordercolor="#e7e7e7"
     borderopacity="1"
     inkscape:pageopacity="0.0"
     inkscape:pageshadow="2"
     inkscape:zoom="36.991261"
     inkscape:cx="0.41336016"
     inkscape:cy="6.0642114"
     inkscape:document-units="px"
     inkscape:current-layer="layer4"
     showgrid="true"
     inkscape:showpageshadow="false"
     showguides="false"
     inkscape:guide-bbox="true"
     inkscape:window-width="1920"
     inkscape:window-height="1023"
     inkscape:window-x="0"
     inkscape:window-y="24"
     inkscape:window-maximized="1"
     inkscape:snap-global="false">
    <sodipodi:guide
       orientation="1,0"
       position="0,112"
       id="guide2383" />
    <sodipodi:guide
       orientation="0,1"
       position="26.278146,128"
       id="guide2385" />
    <sodipodi:guide
       orientation="1,0"
       position="128,54.082119"
       id="guide2387" />
    <sodipodi:guide
       orientation="0,1"
       position="78.156291,0"
       id="guide2389" />
    <sodipodi:guide
       orientation="0,1"
       position="60.863576,64.084768"
       id="guide2391" />
    <inkscape:grid
       type="xygrid"
       id="grid3672"
       visible="true"
       enabled="true" />
  </sodipodi:namedview>
  <metadata
     id="metadata7">
    <rdf:RDF>
      <cc:Work
         rdf:about="">
        <dc:format>image/svg+xml</dc:format>
        <dc:type
           rdf:resource="http://purl.org/dc/dcmitype/StillImage" />
        <dc:title></dc:title>
      </cc:Work>
    </rdf:RDF>
  </metadata>
  <g
     inkscape:label="Button"
     inkscape:groupmode="layer"
     id="layer1"
     sodipodi:insensitive="true">
    <rect
       style="opacity:0.3;fill:url(#linearGradient3192);fill-opacity:1;fill-rule:nonzero;stroke:none"
       id="rect2410"
       width="15"
       height="15.5"
       x="0.49972209"
       y="0.5"
       rx="2"
       ry="2" />
    <rect
       style="opacity:0.4;fill:#000000;fill-opacity:1;fill-rule:nonzero;stroke:none"
       id="rect3194"
       width="14"
       height="14"
       x="1"
       y="2"
       rx="2"
       ry="2" />
    <rect
       ry="2"
       rx="2"
       y="0"
       x="-16"
       height="16"
       width="16"
       id="rect3196"
       style="fill:url(#linearGradient3204);fill-opacity:1;fill-rule:nonzero;stroke:none"
       transform="matrix(0,-1,1,0,0,0)" />
  </g>
  <g
     inkscape:groupmode="layer"
     id="layer2"
     inkscape:label="Rays"
     sodipodi:insensitive="true">
    <g
       transform="matrix(0.19047619,0,0,0.19047619,-1.1428568,-1.1428569)"
       style="opacity:0.9;fill:#e8ffba;fill-opacity:1;display:inline"
       id="g3855"
       clip-path="url(#clipPath3728)">
      <path
         inkscape:transform-center-y="-28"
         inkscape:transform-center-x="-20"
         id="path3819"
         d="M 48,48 72,-8 88,-8 48,48 z"
         style="opacity:0.15;fill:#e8ffba;fill-opacity:1;stroke:none" />
      <path
         style="opacity:0.15;fill:#e8ffba;fill-opacity:1;stroke:none"
         d="M 48,48 103.25122,73.67688 102.769,89.669611 48,48 z"
         id="path3821"
         inkscape:transform-center-x="-27.62561"
         inkscape:transform-center-y="20.834806" />
      <path
         inkscape:transform-center-y="4.8909875"
         inkscape:transform-center-x="34.398376"
         id="path3823"
         d="M 48,47.999999 -11.82794,59.515947 -20.796753,46.266027 48,47.999999 z"
         style="opacity:0.15;fill:#e8ffba;fill-opacity:1;stroke:none" />
      <path
         style="opacity:0.15;fill:#e8ffba;fill-opacity:1;stroke:none"
         d="M 48,48 -1.3111997,12.217252 2.2248524,-3.3871168 48,48 z"
         id="path3825"
         inkscape:transform-center-x="24.655599"
         inkscape:transform-center-y="-25.693558" />
      <path
         sodipodi:nodetypes="cccc"
         style="opacity:0.15;fill:#e8ffba;fill-opacity:1;stroke:none"
         d="M 48,48 65.519239,-14.073153 95.955194,-1.3588835 48,48 z"
         id="path3827"
         inkscape:transform-center-x="-23.977597"
         inkscape:transform-center-y="-31.036577" />
      <path
         inkscape:transform-center-y="-2.7707725"
         inkscape:transform-center-x="-33.74475"
         id="path3829"
         d="M 48,48 109.6356,28.998609 115.4895,61.459846 48,48 z"
         style="opacity:0.15;fill:#e8ffba;fill-opacity:1;stroke:none"
         sodipodi:nodetypes="cccc" />
      <path
         sodipodi:nodetypes="cccc"
         style="opacity:0.15;fill:#e8ffba;fill-opacity:1;stroke:none"
         d="M 48,48 16.754067,104.42421 -9.9692451,85.088633 48,48 z"
         id="path3831"
         inkscape:transform-center-x="28.984623"
         inkscape:transform-center-y="28.212105" />
      <path
         inkscape:transform-center-y="-22.819354"
         inkscape:transform-center-x="31.405984"
         id="path3833"
         d="M 48,48 -14.811967,33.348835 -3.5083336,2.3612922 48,48 z"
         style="opacity:0.15;fill:#e8ffba;fill-opacity:1;stroke:none"
         sodipodi:nodetypes="cccc" />
      <path
         sodipodi:nodetypes="cccc"
         inkscape:transform-center-y="27.212505"
         inkscape:transform-center-x="-22.904818"
         id="path3835"
         d="M 48,48 93.809637,93.403493 90.117903,102.42501 48,48 z"
         style="opacity:0.15;fill:#e8ffba;fill-opacity:1;stroke:none" />
      <path
         style="opacity:0.15;fill:#e8ffba;fill-opacity:1;stroke:none"
         d="m 48,48 -2.970052,64.42964 -9.168463,3.30998 L 48,48 z"
         id="path3837"
         inkscape:transform-center-x="6.069258"
         inkscape:transform-center-y="33.86981"
         sodipodi:nodetypes="cccc" />
      <path
         sodipodi:nodetypes="cccc"
         inkscape:transform-center-y="23.171276"
         inkscape:transform-center-x="26.961952"
         id="path3839"
         d="M 48,48 3.1405789,94.342551 -5.923902,90.757601 48,48 z"
         style="opacity:0.15;fill:#e8ffba;fill-opacity:1;stroke:none" />
      <path
         style="opacity:0.15;fill:#e8ffba;fill-opacity:1;stroke:none"
         d="M 48,47.999999 -14.116138,65.366204 -20.132068,57.696441 48,47.999999 z"
         id="path3841"
         inkscape:transform-center-x="34.066035"
         inkscape:transform-center-y="8.683102"
         sodipodi:nodetypes="cccc" />
      <path
         sodipodi:nodetypes="cccc"
         inkscape:transform-center-y="-32.466447"
         inkscape:transform-center-x="14.573314"
         id="path3843"
         d="M 48.000001,47.999998 18.853372,-9.5367177 25.202646,-16.932892 48.000001,47.999998 z"
         style="opacity:0.15;fill:#e8ffba;fill-opacity:1;stroke:none" />
      <path
         style="opacity:0.15;fill:#e8ffba;fill-opacity:1;stroke:none"
         d="m 48.000003,48.000001 59.481677,-24.938521 6.921,6.864135 -66.402677,18.074386 z"
         id="path3845"
         inkscape:transform-center-x="-33.201341"
         inkscape:transform-center-y="-12.46926"
         sodipodi:nodetypes="cccc" />
      <path
         style="opacity:0.15;fill:#e8ffba;fill-opacity:1;stroke:none"
         d="M 47.999999,47.999999 88.186743,93.793286 81.290444,108.23077 47.999999,47.999999 z"
         id="path3849"
         inkscape:transform-center-x="-20.093371"
         inkscape:transform-center-y="30.115385" />
      <path
         inkscape:transform-center-y="-31.475519"
         inkscape:transform-center-x="17.978983"
         id="path3851"
         d="M 48.000001,48 12.042033,-1.1835747 20.194136,-14.95104 48.000001,48 z"
         style="opacity:0.15;fill:#e8ffba;fill-opacity:1;stroke:none" />
    </g>
  </g>
  <g
     inkscape:groupmode="layer"
     id="layer4"
     inkscape:label="Symbol">
    <path
       sodipodi:nodetypes="cccccccccccccccccccccccccccccccc"
       d="M 2,6.5947351 3.7142858,3.5947337 5,6.5947351 l -3,0 z m 4,0 2,-3.0000014 2,3.0000014 -4,0 z m 5,0 L 12.285714,3.5947337 14,6.5947351 l -3,0 z m -4.9285714,1 L 8,13.88045 9.928571,7.5947351 l -3.8571424,0 z M 4.1428571,3.594734 5.5674654,5.5947351 7.5714286,3.594734 l -3.4285715,0 z m 4.2857139,0 2.173854,2.0000011 1.254718,-2.0000011 -3.428572,0 z M 11,7.5947351 8.333543,13.880449 14,7.5947351 l -3,0 z m -6,0 L 7.6664566,13.880449 2,7.5947351 l 3,0 z"
       style="fill:#000000;fill-opacity:1;fill-rule:nonzero;stroke:none;display:inline;opacity:0.3"
       id="path3713" />
    <path
       id="path3985"
       style="fill:#ffffff;fill-opacity:1;fill-rule:nonzero;stroke:none;display:inline"
       d="M 2,6 3.7142858,2.9999986 5,6 2,6 z M 6,6 8,2.9999986 10,6 6,6 z M 11,6 12.285714,2.9999986 14,6 11,6 z M 6.0714286,7 8,13.285715 9.928571,7 6.0714286,7 z M 4.1428571,2.9999989 5.5674654,5 7.5714286,2.9999989 l -3.4285715,0 z m 4.2857139,0 L 10.602425,5 l 1.254718,-2.0000011 -3.428572,0 z M 11,7 8.333543,13.285714 14,7 11,7 z M 5,7 7.6664566,13.285714 2,7 5,7 z"
       sodipodi:nodetypes="cccccccccccccccccccccccccccccccc" />
  </g>
  <g
     inkscape:groupmode="layer"
     id="layer3"
     inkscape:label="Border"
     sodipodi:insensitive="true">
    <path
       style="opacity:0.3;fill:url(#linearGradient3629);fill-opacity:1;fill-rule:nonzero;stroke:none;display:inline"
       d="m 0,14 c 0,1.108 0.892,2 2,2 l 12,0 c 1.108,0 2,-0.892 2,-2 L 16,2 C 16,0.892 15.108,0 14,0 L 2,0 C 0.892,0 0,0.892 0,2 l 0,12 z m 0.96875,0 0,-12 C 0.96875,1.416801 1.4168007,0.96875 2,0.96875 l 12,0 c 0.583199,0 1.03125,0.448051 1.03125,1.03125 l 0,12 c 0,0.583199 -0.448051,1.03125 -1.03125,1.03125 l -12,0 C 1.4168007,15.03125 0.96875,14.583199 0.96875,14 z"
       id="rect2835" />
    <path
       style="opacity:0.3;fill:#ffffff;fill-opacity:1;fill-rule:nonzero;stroke:none;display:inline"
       d="M 2,0.96875 C 1.4168007,0.96875 0.96875,1.4168007 0.96875,2 l 0,1 C 0.96875,2.4168007 1.4168007,1.96875 2,1.96875 l 12,0 c 0.583199,0 1.03125,0.4480507 1.03125,1.03125 l 0,-1 C 15.03125,1.4168007 14.583199,0.96875 14,0.96875 l -12,0 z"
       id="path2843" />
  </g>
</svg>
