<?xml version="1.0" encoding="UTF-8" standalone="no"?>
<!-- Created with Inkscape (http://www.inkscape.org/) -->

<svg
   xmlns:dc="http://purl.org/dc/elements/1.1/"
   xmlns:cc="http://creativecommons.org/ns#"
   xmlns:rdf="http://www.w3.org/1999/02/22-rdf-syntax-ns#"
   xmlns:svg="http://www.w3.org/2000/svg"
   xmlns="http://www.w3.org/2000/svg"
   xmlns:xlink="http://www.w3.org/1999/xlink"
   xmlns:sodipodi="http://sodipodi.sourceforge.net/DTD/sodipodi-0.dtd"
   xmlns:inkscape="http://www.inkscape.org/namespaces/inkscape"
   width="16"
   height="16"
   id="svg2"
   sodipodi:version="0.32"
   inkscape:version="0.47 r22583"
   version="1.0"
   sodipodi:docname="evolution.svg"
   inkscape:output_extension="org.inkscape.output.svg.inkscape"
   style="display:inline">
  <defs
     id="defs4">
    <linearGradient
       id="linearGradient3885">
      <stop
         style="stop-color:#7c612e;stop-opacity:1;"
         offset="0"
         id="stop3887" />
      <stop
         style="stop-color:#b99044;stop-opacity:1;"
         offset="1"
         id="stop3889" />
    </linearGradient>
    <linearGradient
       gradientUnits="userSpaceOnUse"
       y2="0.99929649"
       x2="10.31979"
       y1="21"
       x1="10.31979"
       id="linearGradient3943">
      <stop
         id="stop3945"
         offset="0"
         style="stop-color:#e6e6e6;stop-opacity:1;" />
      <stop
         id="stop3947"
         offset="1"
         style="stop-color:#ffffff;stop-opacity:1;" />
    </linearGradient>
    <inkscape:perspective
       sodipodi:type="inkscape:persp3d"
       inkscape:vp_x="0 : 8 : 1"
       inkscape:vp_y="0 : 1000 : 0"
       inkscape:vp_z="16 : 8 : 1"
       inkscape:persp3d-origin="8 : 5.3333333 : 1"
       id="perspective26" />
    <linearGradient
       inkscape:collect="always"
       id="linearGradient3327">
      <stop
         style="stop-color:#000000;stop-opacity:1;"
         offset="0"
         id="stop3330" />
      <stop
         style="stop-color:#000000;stop-opacity:0;"
         offset="1"
         id="stop3333" />
    </linearGradient>
    <linearGradient
       id="ButtonColor"
       x1="10.31979"
       y1="21"
       x2="10.31979"
       y2="0.99929649"
       gradientUnits="userSpaceOnUse">
      <stop
         style="stop-color:#29669f;stop-opacity:1;"
         offset="0"
         id="stop3189" />
      <stop
         style="stop-color:#88b6e0;stop-opacity:1;"
         offset="1"
         id="stop3191" />
    </linearGradient>
    <linearGradient
       inkscape:collect="always"
       xlink:href="#linearGradient3327"
       id="linearGradient3192"
       x1="9.0574636"
       y1="10.202822"
       x2="9.0574636"
       y2="-12.198761"
       gradientUnits="userSpaceOnUse"
       gradientTransform="translate(0,5.8006549)" />
    <linearGradient
       inkscape:collect="always"
       xlink:href="#ButtonColor-8"
       id="linearGradient3204"
       x1="1"
       y1="9"
       x2="15"
       y2="9"
       gradientUnits="userSpaceOnUse"
       gradientTransform="translate(-17,-2)" />
    <linearGradient
       inkscape:collect="always"
       xlink:href="#ButtonColor"
       id="linearGradient3173"
       gradientUnits="userSpaceOnUse"
       gradientTransform="translate(-16,-1)"
       x1="1"
       y1="9"
       x2="15"
       y2="9" />
    <linearGradient
       inkscape:collect="always"
       xlink:href="#ButtonColor"
       id="linearGradient3177"
       gradientUnits="userSpaceOnUse"
       gradientTransform="translate(-16,-1)"
       x1="1"
       y1="9"
       x2="15"
       y2="9" />
    <linearGradient
       inkscape:collect="always"
       xlink:href="#ButtonColor"
       id="linearGradient3179"
       gradientUnits="userSpaceOnUse"
       gradientTransform="matrix(0,-1,1,0,-1,16)"
       x1="1"
       y1="9"
       x2="15"
       y2="9" />
    <linearGradient
       inkscape:collect="always"
       xlink:href="#linearGradient3327"
       id="linearGradient3612"
       x1="8"
       y1="15"
       x2="8"
       y2="-1"
       gradientUnits="userSpaceOnUse" />
    <inkscape:perspective
       id="perspective2880"
       inkscape:persp3d-origin="0.5 : 0.33333333 : 1"
       inkscape:vp_z="1 : 0.5 : 1"
       inkscape:vp_y="0 : 1000 : 0"
       inkscape:vp_x="0 : 0.5 : 1"
       sodipodi:type="inkscape:persp3d" />
    <linearGradient
       inkscape:collect="always"
       xlink:href="#ButtonColor-1"
       id="linearGradient3181"
       x1="-3.0607977"
       y1="27.258198"
       x2="-3.0607977"
       y2="7.2536583"
       gradientUnits="userSpaceOnUse"
       gradientTransform="translate(11.119372,-6.2581977)" />
    <linearGradient
       id="ButtonColor-1"
       x1="10.31979"
       y1="21"
       x2="10.31979"
       y2="0.99929649"
       gradientUnits="userSpaceOnUse">
      <stop
         style="stop-color:#dcdcdc;stop-opacity:1;"
         offset="0"
         id="stop3189-4" />
      <stop
         style="stop-color:#f0f0f0;stop-opacity:1;"
         offset="1"
         id="stop3191-9" />
    </linearGradient>
    <linearGradient
       inkscape:collect="always"
       xlink:href="#ButtonColor-1"
       id="linearGradient3617"
       gradientUnits="userSpaceOnUse"
       gradientTransform="translate(-17,-22)"
       x1="1"
       y1="9"
       x2="15"
       y2="9" />
    <linearGradient
       inkscape:collect="always"
       xlink:href="#ButtonColor-1"
       id="linearGradient3638"
       gradientUnits="userSpaceOnUse"
       gradientTransform="matrix(0,-1,1,0,-42,17)"
       x1="1"
       y1="9"
       x2="15"
       y2="9" />
    <linearGradient
       inkscape:collect="always"
       xlink:href="#ButtonColor-1"
       id="linearGradient3643"
       gradientUnits="userSpaceOnUse"
       gradientTransform="matrix(0,-1,1,0,-22,17)"
       x1="1"
       y1="9"
       x2="15"
       y2="9" />
    <linearGradient
       inkscape:collect="always"
       xlink:href="#ButtonColor-1"
       id="linearGradient3649"
       gradientUnits="userSpaceOnUse"
       gradientTransform="matrix(0,-1,1,0,-22,18)"
       x1="1"
       y1="9"
       x2="15"
       y2="9" />
    <linearGradient
       inkscape:collect="always"
       xlink:href="#ButtonColor-1"
       id="linearGradient3651"
       gradientUnits="userSpaceOnUse"
       gradientTransform="matrix(0,-1,1,0,-22,17)"
       x1="1"
       y1="9"
       x2="15"
       y2="9" />
    <linearGradient
       inkscape:collect="always"
       xlink:href="#ButtonColor-1"
       id="linearGradient3656"
       gradientUnits="userSpaceOnUse"
       gradientTransform="matrix(0,-1,1,0,-2,17)"
       x1="1"
       y1="9"
       x2="15"
       y2="9" />
    <linearGradient
       inkscape:collect="always"
       xlink:href="#ButtonColor-1"
       id="linearGradient3667"
       gradientUnits="userSpaceOnUse"
       gradientTransform="matrix(0,-1,1,0,-2,17)"
       x1="1"
       y1="9"
       x2="15"
       y2="9" />
    <inkscape:perspective
       id="perspective2894"
       inkscape:persp3d-origin="0.5 : 0.33333333 : 1"
       inkscape:vp_z="1 : 0.5 : 1"
       inkscape:vp_y="0 : 1000 : 0"
       inkscape:vp_x="0 : 0.5 : 1"
       sodipodi:type="inkscape:persp3d" />
    <linearGradient
       inkscape:collect="always"
       xlink:href="#ButtonColor-8"
       id="linearGradient3181-7"
       x1="-3.0607977"
       y1="27.258198"
       x2="-3.0607977"
       y2="7.2536583"
       gradientUnits="userSpaceOnUse"
       gradientTransform="translate(11.119372,-6.258198)" />
    <linearGradient
       id="ButtonColor-8"
       x1="10.31979"
       y1="21"
       x2="10.31979"
       y2="0.99929649"
       gradientUnits="userSpaceOnUse">
      <stop
         style="stop-color:#f7d687;stop-opacity:1;"
         offset="0"
         id="stop3189-6" />
      <stop
         style="stop-color:#fbe9bf;stop-opacity:1;"
         offset="1"
         id="stop3191-8" />
    </linearGradient>
    <inkscape:perspective
       id="perspective2913"
       inkscape:persp3d-origin="0.5 : 0.33333333 : 1"
       inkscape:vp_z="1 : 0.5 : 1"
       inkscape:vp_y="0 : 1000 : 0"
       inkscape:vp_x="0 : 0.5 : 1"
       sodipodi:type="inkscape:persp3d" />
    <inkscape:perspective
       id="perspective2930"
       inkscape:persp3d-origin="0.5 : 0.33333333 : 1"
       inkscape:vp_z="1 : 0.5 : 1"
       inkscape:vp_y="0 : 1000 : 0"
       inkscape:vp_x="0 : 0.5 : 1"
       sodipodi:type="inkscape:persp3d" />
    <linearGradient
       id="linearGradient3740">
      <stop
         style="stop-color:#536d98;stop-opacity:1;"
         offset="0"
         id="stop3742" />
      <stop
         style="stop-color:#7990b6;stop-opacity:1;"
         offset="1"
         id="stop3744" />
    </linearGradient>
    <linearGradient
       inkscape:collect="always"
       xlink:href="#linearGradient3740"
       id="linearGradient3877"
       x1="11"
       y1="3"
       x2="11"
       y2="7"
       gradientUnits="userSpaceOnUse" />
    <linearGradient
       inkscape:collect="always"
       xlink:href="#linearGradient3327"
       id="linearGradient3933"
       x1="-8.5"
       y1="11.5"
       x2="-2.5"
       y2="11.5"
       gradientUnits="userSpaceOnUse"
       gradientTransform="matrix(0.83333333,0,0,0.83333333,-0.4166667,1.4166667)" />
    <linearGradient
       inkscape:collect="always"
       xlink:href="#linearGradient3943"
       id="linearGradient3941"
       x1="12"
       y1="7"
       x2="12"
       y2="2"
       gradientUnits="userSpaceOnUse" />
    <linearGradient
       inkscape:collect="always"
       xlink:href="#linearGradient3885"
       id="linearGradient3891"
       x1="0"
       y1="8"
       x2="16"
       y2="8"
       gradientUnits="userSpaceOnUse"
       gradientTransform="matrix(0,-1,1,0,0,16)" />
  </defs>
  <sodipodi:namedview
     id="base"
     pagecolor="#ffffff"
     bordercolor="#e7e7e7"
     borderopacity="1"
     inkscape:pageopacity="0.0"
     inkscape:pageshadow="2"
     inkscape:zoom="31.9224"
     inkscape:cx="9.212454"
     inkscape:cy="8.3570243"
     inkscape:document-units="px"
     inkscape:current-layer="layer1"
     showgrid="true"
     inkscape:showpageshadow="false"
     showguides="true"
     inkscape:guide-bbox="true"
     inkscape:window-width="1920"
     inkscape:window-height="1027"
     inkscape:window-x="0"
     inkscape:window-y="25"
     inkscape:window-maximized="1"
     inkscape:snap-global="true">
    <sodipodi:guide
       orientation="1,0"
       position="0,112"
       id="guide2383" />
    <sodipodi:guide
       orientation="0,1"
       position="26.278146,128"
       id="guide2385" />
    <sodipodi:guide
       orientation="1,0"
       position="128,54.082119"
       id="guide2387" />
    <sodipodi:guide
       orientation="0,1"
       position="78.156291,0"
       id="guide2389" />
    <sodipodi:guide
       orientation="0,1"
       position="60.863576,64.084768"
       id="guide2391" />
    <inkscape:grid
       type="xygrid"
       id="grid3672"
       visible="true"
       enabled="true" />
  </sodipodi:namedview>
  <metadata
     id="metadata7">
    <rdf:RDF>
      <cc:Work
         rdf:about="">
        <dc:format>image/svg+xml</dc:format>
        <dc:type
           rdf:resource="http://purl.org/dc/dcmitype/StillImage" />
      </cc:Work>
    </rdf:RDF>
  </metadata>
  <g
     inkscape:label="Button"
     inkscape:groupmode="layer"
     id="layer1">
    <rect
       ry="2"
       rx="2"
       y="0"
       x="-16"
       height="16"
       width="16"
       id="rect3196"
       style="fill:url(#linearGradient3204);fill-opacity:1.0;fill-rule:nonzero;stroke:none"
       transform="matrix(0,-1,1,0,0,0)" />
    <path
       style="fill:#c83737;fill-opacity:1;fill-rule:nonzero;stroke:none"
       d="m 3,-9 c -1.108,0 -2,0.892 -2,2 l 0,3 14,0 0,-3 c 0,-1.108 -0.892,-2 -2,-2 L 3,-9 z"
       id="rect3626"
       sodipodi:nodetypes="ccccccc" />
    <rect
       transform="matrix(0,-1,1,0,0,0)"
       style="fill:url(#linearGradient3617);fill-opacity:1;fill-rule:nonzero;stroke:none"
       id="rect3615"
       width="16"
       height="16"
       x="-16"
       y="-20"
       rx="2"
       ry="2" />
    <path
       style="fill:#ff0000;fill-opacity:1;fill-rule:nonzero;stroke:none"
       d="M -18 0 C -19.108 0 -20 0.892 -20 2 L -20 14 C -20 15.108 -19.108 16 -18 16 L -6 16 C -4.892 16 -4 15.108 -4 14 L -4 2 C -4 0.892 -4.892 3.0947467e-18 -6 0 L -18 0 z M -17.96875 1 L -6.03125 1 C -5.4473874 1 -5 1.4473874 -5 2.03125 L -5 13.96875 C -5 14.552612 -5.4473874 15 -6.03125 15 L -17.96875 15 C -18.552612 15 -19 14.552612 -19 13.96875 L -19 2.03125 C -19 1.4473874 -18.552612 1 -17.96875 1 z "
       id="rect3619" />
    <path
       style="fill:url(#linearGradient3643);fill-opacity:1;fill-rule:nonzero;stroke:none"
       d="M -17.96875,1 C -18.552612,1 -19,1.4473874 -19,2.03125 l 0,11.9375 C -19,14.552612 -18.552612,15 -17.96875,15 l 11.9375,0 C -5.447387,15 -5,14.552612 -5,13.96875 L -5,2.03125 C -5,1.4473874 -5.447387,1 -6.03125,1 l -11.9375,0 z"
       id="rect3636" />
    <g
       style="display:inline"
       id="g5064"
       transform="matrix(0,-1,-1,0,22.5,13)">
      <path
         style="fill:#ca1818;fill-opacity:1;fill-rule:evenodd;stroke:none;display:inline"
         d="M 3.4982944,1 6.3786176,1 5.8968297,2.5 3,2.5 3.4982944,1 z"
         id="path5066" />
      <path
         style="fill:#2c74c4;fill-opacity:1;fill-rule:evenodd;stroke:none;display:inline"
         d="M 7.7041873,1 10.584511,1 10.102722,2.5 7.2058928,2.5 7.7041873,1 z"
         id="path5068" />
      <path
         style="fill:#ca1818;fill-opacity:1;fill-rule:evenodd;stroke:none;display:inline"
         d="m 11.91008,1 2.880323,0 -0.481788,1.5 -2.896829,0 L 11.91008,1 z"
         id="path5070" />
      <path
         style="fill:#2c74c4;fill-opacity:1;fill-rule:evenodd;stroke:none;display:inline"
         d="m 16.115973,1 2.880323,0 -0.481788,1.5 -2.896829,0 0.498294,-1.5 z"
         id="path5072" />
    </g>
    <rect
       style="opacity:0.3;fill:url(#linearGradient3933);fill-opacity:1;stroke:none"
       id="rect3909"
       width="5"
       height="5"
       x="-7.5"
       y="8.5"
       transform="matrix(0,-1,1,0,0,0)" />
    <rect
       y="2"
       x="9"
       height="5"
       width="4"
       id="rect3879"
       style="fill:url(#linearGradient3941);fill-opacity:1;stroke:none" />
    <rect
       style="fill:url(#linearGradient3877);fill-opacity:1;stroke:none"
       id="rect3869"
       width="2"
       height="3"
       x="10"
       y="3" />
    <rect
       style="opacity:0.15;fill:#214478;fill-opacity:1;stroke:none"
       id="rect3883"
       width="7"
       height="1"
       x="3"
       y="8" />
    <rect
       y="10"
       x="3"
       height="1"
       width="8"
       id="rect3885"
       style="opacity:0.15;fill:#214478;fill-opacity:1;stroke:none" />
    <rect
       style="opacity:0.15;fill:#214478;fill-opacity:1;stroke:none"
       id="rect3887"
       width="5"
       height="1"
       x="3"
       y="12" />
    <rect
       y="8"
       x="3"
       height="1"
       width="3"
       id="rect3889"
       style="opacity:0.15;fill:#214478;fill-opacity:1;stroke:none" />
    <rect
       style="opacity:0.15;fill:#214478;fill-opacity:1;stroke:none"
       id="rect3891"
       width="2"
       height="1"
       x="7"
       y="8" />
    <rect
       style="opacity:0.15;fill:#214478;fill-opacity:1;stroke:none"
       id="rect3893"
       width="3"
       height="1"
       x="4"
       y="10" />
    <rect
       y="10"
       x="6"
       height="1"
       width="2"
       id="rect3895"
       style="opacity:0.15;fill:#214478;fill-opacity:1;stroke:none" />
    <rect
       style="opacity:0.15;fill:#214478;fill-opacity:1;stroke:none"
       id="rect3897"
       width="2"
       height="1"
       x="9"
       y="10" />
    <rect
       y="12"
       x="3"
       height="1"
       width="2"
       id="rect3899"
       style="opacity:0.15;fill:#214478;fill-opacity:1;stroke:none" />
    <rect
       style="opacity:0.15;fill:#214478;fill-opacity:1;stroke:none"
       id="rect3901"
       width="1"
       height="1"
       x="6"
       y="12" />
    <rect
       y="12"
       x="3"
       height="1"
       width="1"
       id="rect3903"
       style="opacity:0.15;fill:#214478;fill-opacity:1;stroke:none" />
    <rect
       style="opacity:0.15;fill:#214478;fill-opacity:1;stroke:none"
       id="rect3905"
       width="1"
       height="1"
       x="4"
       y="8" />
    <rect
       y="8"
       x="7"
       height="1"
       width="1"
       id="rect3907"
       style="opacity:0.15;fill:#214478;fill-opacity:1;stroke:none" />
    <g
       id="g3699"
       transform="translate(0.5,0)">
      <rect
         y="1"
         x="2"
         height="1"
         width="1.5"
         id="rect2911"
         style="fill:#ca1818;fill-opacity:1;stroke:none" />
      <rect
         style="fill:#2c74c4;fill-opacity:1;stroke:none"
         id="rect3693"
         width="1.5"
         height="1"
         x="5"
         y="1" />
      <rect
         y="1"
         x="8"
         height="1"
         width="1.5"
         id="rect3695"
         style="fill:#ca1818;fill-opacity:1;stroke:none" />
      <rect
         style="fill:#2c74c4;fill-opacity:1;stroke:none"
         id="rect3697"
         width="1.5"
         height="1"
         x="11"
         y="1" />
    </g>
    <g
       id="g3705"
       transform="matrix(-1,0,0,1,15.5,13)">
      <rect
         style="fill:#ca1818;fill-opacity:1;stroke:none"
         id="rect3707"
         width="1.5"
         height="1"
         x="2"
         y="1" />
      <rect
         y="1"
         x="5"
         height="1"
         width="1.5"
         id="rect3709"
         style="fill:#2c74c4;fill-opacity:1;stroke:none" />
      <rect
         style="fill:#ca1818;fill-opacity:1;stroke:none"
         id="rect3711"
         width="1.5"
         height="1"
         x="8"
         y="1" />
      <rect
         y="1"
         x="11"
         height="1"
         width="1.5"
         id="rect3713"
         style="fill:#2c74c4;fill-opacity:1;stroke:none" />
    </g>
    <g
       id="g3715"
       transform="matrix(0,1,-1,0,16,0.5)">
      <rect
         style="fill:#ca1818;fill-opacity:1;stroke:none"
         id="rect3717"
         width="1.5"
         height="1"
         x="2"
         y="1" />
      <rect
         y="1"
         x="5"
         height="1"
         width="1.5"
         id="rect3719"
         style="fill:#2c74c4;fill-opacity:1;stroke:none" />
      <rect
         style="fill:#ca1818;fill-opacity:1;stroke:none"
         id="rect3721"
         width="1.5"
         height="1"
         x="8"
         y="1" />
      <rect
         y="1"
         x="11"
         height="1"
         width="1.5"
         id="rect3723"
         style="fill:#2c74c4;fill-opacity:1;stroke:none" />
    </g>
    <g
       transform="matrix(0,-1,-1,0,3,15.5)"
       id="g3725">
      <rect
         y="1"
         x="2"
         height="1"
         width="1.5"
         id="rect3727"
         style="fill:#ca1818;fill-opacity:1;stroke:none" />
      <rect
         style="fill:#2c74c4;fill-opacity:1;stroke:none"
         id="rect3729"
         width="1.5"
         height="1"
         x="5"
         y="1" />
      <rect
         y="1"
         x="8"
         height="1"
         width="1.5"
         id="rect3731"
         style="fill:#ca1818;fill-opacity:1;stroke:none" />
      <rect
         style="fill:#2c74c4;fill-opacity:1;stroke:none"
         id="rect3733"
         width="1.5"
         height="1"
         x="11"
         y="1" />
    </g>
    <path
       id="path3626"
       d="m 0,14 c 0,1.108 0.892,2 2,2 l 12,0 c 1.108,0 2,-0.892 2,-2 L 16,2 C 16,0.892 15.108,0 14,0 L 2,0 C 0.892,0 0,0.892 0,2 L 0,14 z M 1,13.96875 1,2.03125 C 1,1.447387 1.4473874,1 2.03125,1 l 11.9375,0 C 14.552612,1 15,1.447387 15,2.03125 l 0,11.9375 C 15,14.552612 14.552612,15 13.96875,15 L 2.03125,15 C 1.4473874,15 1,14.552612 1,13.96875 z"
       style="opacity:0.8;fill:url(#linearGradient3891);fill-opacity:1;fill-rule:nonzero;stroke:none" />
    <g
       id="g3867"
       style="opacity:0.3">
      <rect
         style="opacity:1;fill:#ca1818;fill-opacity:1;stroke:none"
         id="rect3737"
         width="1.5"
         height="1"
         x="2.5"
         y="0" />
      <rect
         y="0"
         x="5.5"
         height="1"
         width="1.5"
         id="rect3739"
         style="opacity:1;fill:#2c74c4;fill-opacity:1;stroke:none" />
      <rect
         style="opacity:1;fill:#ca1818;fill-opacity:1;stroke:none"
         id="rect3741"
         width="1.5"
         height="1"
         x="8.5"
         y="0" />
      <rect
         y="0"
         x="11.5"
         height="1"
         width="1.5"
         id="rect3743"
         style="opacity:1;fill:#2c74c4;fill-opacity:1;stroke:none" />
      <rect
         transform="matrix(0,1,-1,0,0,0)"
         y="-16"
         x="2.5"
         height="1"
         width="1.5"
         id="rect3747"
         style="opacity:1;fill:#ca1818;fill-opacity:1;stroke:none" />
      <rect
         transform="matrix(0,1,-1,0,0,0)"
         style="opacity:1;fill:#2c74c4;fill-opacity:1;stroke:none"
         id="rect3749"
         width="1.5"
         height="1"
         x="5.5"
         y="-16" />
      <rect
         transform="matrix(0,1,-1,0,0,0)"
         y="-16"
         x="8.5"
         height="1"
         width="1.5"
         id="rect3751"
         style="opacity:1;fill:#ca1818;fill-opacity:1;stroke:none" />
      <rect
         transform="matrix(0,1,-1,0,0,0)"
         style="opacity:1;fill:#2c74c4;fill-opacity:1;stroke:none"
         id="rect3753"
         width="1.5"
         height="1"
         x="11.5"
         y="-16" />
      <rect
         transform="scale(-1,1)"
         y="15"
         x="-13.5"
         height="1"
         width="1.5"
         id="rect3757"
         style="opacity:1;fill:#ca1818;fill-opacity:1;stroke:none" />
      <rect
         transform="scale(-1,1)"
         style="opacity:1;fill:#2c74c4;fill-opacity:1;stroke:none"
         id="rect3759"
         width="1.5"
         height="1"
         x="-10.5"
         y="15" />
      <rect
         transform="scale(-1,1)"
         y="15"
         x="-7.5"
         height="1"
         width="1.5"
         id="rect3761"
         style="opacity:1;fill:#ca1818;fill-opacity:1;stroke:none" />
      <rect
         transform="scale(-1,1)"
         style="opacity:1;fill:#2c74c4;fill-opacity:1;stroke:none"
         id="rect3763"
         width="1.5"
         height="1"
         x="-4.5"
         y="15" />
      <rect
         transform="matrix(0,-1,-1,0,0,0)"
         style="opacity:1;fill:#ca1818;fill-opacity:1;stroke:none"
         id="rect3767"
         width="1.5"
         height="1"
         x="-13.5"
         y="-1" />
      <rect
         transform="matrix(0,-1,-1,0,0,0)"
         y="-1"
         x="-10.5"
         height="1"
         width="1.5"
         id="rect3769"
         style="opacity:1;fill:#2c74c4;fill-opacity:1;stroke:none" />
      <rect
         transform="matrix(0,-1,-1,0,0,0)"
         style="opacity:1;fill:#ca1818;fill-opacity:1;stroke:none"
         id="rect3771"
         width="1.5"
         height="1"
         x="-7.5"
         y="-1" />
      <rect
         transform="matrix(0,-1,-1,0,0,0)"
         y="-1"
         x="-4.5"
         height="1"
         width="1.5"
         id="rect3773"
         style="opacity:1;fill:#2c74c4;fill-opacity:1;stroke:none" />
    </g>
    <path
       style="fill:#ffffff;fill-opacity:1;fill-rule:nonzero;stroke:none;opacity:0.5"
       d="M 2.03125,1 C 1.447388,1 1,1.4473874 1,2.03125 l 0,1 C 1,2.4473874 1.447388,2 2.03125,2 l 11.9375,0 C 14.552613,2 15,2.4473874 15,3.03125 l 0,-1 C 15,1.4473874 14.552613,1 13.96875,1 L 2.03125,1 z"
       id="path3645" />
  </g>
</svg>
