<?xml version="1.0" encoding="UTF-8" standalone="no"?>
<!-- Created with Inkscape (http://www.inkscape.org/) -->

<svg
   xmlns:dc="http://purl.org/dc/elements/1.1/"
   xmlns:cc="http://creativecommons.org/ns#"
   xmlns:rdf="http://www.w3.org/1999/02/22-rdf-syntax-ns#"
   xmlns:svg="http://www.w3.org/2000/svg"
   xmlns="http://www.w3.org/2000/svg"
   xmlns:xlink="http://www.w3.org/1999/xlink"
   xmlns:sodipodi="http://sodipodi.sourceforge.net/DTD/sodipodi-0.dtd"
   xmlns:inkscape="http://www.inkscape.org/namespaces/inkscape"
   width="16"
   height="16"
   id="svg2"
   sodipodi:version="0.32"
   inkscape:version="0.48.2 r9819"
   version="1.0"
   sodipodi:docname="gajim.svg"
   inkscape:output_extension="org.inkscape.output.svg.inkscape"
   style="display:inline">
  <defs
     id="defs4">
    <linearGradient
       inkscape:collect="always"
       id="linearGradient3327">
      <stop
         style="stop-color:#000000;stop-opacity:1;"
         offset="0"
         id="stop3330" />
      <stop
         style="stop-color:#000000;stop-opacity:0;"
         offset="1"
         id="stop3333" />
    </linearGradient>
    <linearGradient
       inkscape:collect="always"
       xlink:href="#ButtonColor"
       id="linearGradient3204"
       x1="-2"
       y1="9"
       x2="14"
       y2="9"
       gradientUnits="userSpaceOnUse"
       gradientTransform="matrix(0,-1,1,0,-2,14)" />
    <linearGradient
       inkscape:collect="always"
       xlink:href="#linearGradient3327"
       id="linearGradient3629"
       x1="0"
       y1="8"
       x2="29.017237"
       y2="8"
       gradientUnits="userSpaceOnUse"
       gradientTransform="matrix(0,-1,1,0,30,16)" />
    <linearGradient
       inkscape:collect="always"
       xlink:href="#linearGradient3327"
       id="linearGradient3674"
       x1="8"
       y1="16"
       x2="8"
       y2="-12.071338"
       gradientUnits="userSpaceOnUse" />
    <linearGradient
       id="ButtonColor-1-6"
       x1="10.31979"
       y1="21"
       x2="10.31979"
       y2="0.99929649"
       gradientUnits="userSpaceOnUse">
      <stop
         style="stop-color:#95c2e6;stop-opacity:1;"
         offset="0"
         id="stop3189-4-4" />
      <stop
         style="stop-color:#d9ecfd;stop-opacity:1;"
         offset="1"
         id="stop3191-8-9" />
    </linearGradient>
    <linearGradient
       inkscape:collect="always"
       xlink:href="#linearGradient4341-5"
       id="linearGradient3534-0"
       gradientUnits="userSpaceOnUse"
       gradientTransform="translate(-30,0)"
       x1="72.557053"
       y1="47.439873"
       x2="98.41127"
       y2="49.746658" />
    <linearGradient
       id="linearGradient4341-5">
      <stop
         style="stop-color:#5aa6c8;stop-opacity:1"
         offset="0"
         id="stop4343-3" />
      <stop
         id="stop4351-6"
         offset="0.21075311"
         style="stop-color:#8bcae9;stop-opacity:1" />
      <stop
         id="stop4349-1"
         offset="0.40000001"
         style="stop-color:#8ad2eb;stop-opacity:1" />
      <stop
         style="stop-color:#4e91bb;stop-opacity:1"
         offset="0.63987231"
         id="stop4353-8" />
      <stop
         style="stop-color:#27649a;stop-opacity:1"
         offset="1"
         id="stop4345-0" />
    </linearGradient>
    <linearGradient
       inkscape:collect="always"
       xlink:href="#linearGradient4363-6"
       id="linearGradient4348-4"
       gradientUnits="userSpaceOnUse"
       x1="69.537895"
       y1="53.947376"
       x2="42.846367"
       y2="37.499023" />
    <linearGradient
       id="linearGradient4363-6">
      <stop
         style="stop-color:#1c508a;stop-opacity:1;"
         offset="0"
         id="stop4365-1" />
      <stop
         style="stop-color:#438dc6;stop-opacity:1;"
         offset="1"
         id="stop4367-1" />
    </linearGradient>
    <linearGradient
       inkscape:collect="always"
       xlink:href="#linearGradient4355-6"
       id="linearGradient4342-8"
       gradientUnits="userSpaceOnUse"
       x1="55.475563"
       y1="59.935955"
       x2="54.16576"
       y2="39.576107" />
    <linearGradient
       inkscape:collect="always"
       id="linearGradient4355-6">
      <stop
         style="stop-color:#1a4a7f;stop-opacity:1;"
         offset="0"
         id="stop4357-6" />
      <stop
         style="stop-color:#1a4a7f;stop-opacity:0;"
         offset="1"
         id="stop4359-8" />
    </linearGradient>
    <radialGradient
       inkscape:collect="always"
       xlink:href="#linearGradient4391-1"
       id="radialGradient3540-9"
       gradientUnits="userSpaceOnUse"
       gradientTransform="matrix(1.2075346e-7,2.2032292,-2.0090302,1.2802398e-7,141.0249,-84.46424)"
       cx="56.270916"
       cy="42.18652"
       fx="56.270916"
       fy="42.18652"
       r="9.7675409" />
    <linearGradient
       inkscape:collect="always"
       id="linearGradient4391-1">
      <stop
         style="stop-color:#ffffff;stop-opacity:1;"
         offset="0"
         id="stop4393-0" />
      <stop
         style="stop-color:#ffffff;stop-opacity:0;"
         offset="1"
         id="stop4395-8" />
    </linearGradient>
    <radialGradient
       inkscape:collect="always"
       xlink:href="#linearGradient4391-1"
       id="radialGradient3542-1"
       gradientUnits="userSpaceOnUse"
       gradientTransform="matrix(1.2075346e-7,2.2032292,-2.0090302,1.2802398e-7,141.0249,-84.46424)"
       cx="56.270916"
       cy="42.18652"
       fx="56.270916"
       fy="42.18652"
       r="9.7675409" />
    <radialGradient
       inkscape:collect="always"
       xlink:href="#linearGradient4391-1"
       id="radialGradient3544-7"
       gradientUnits="userSpaceOnUse"
       gradientTransform="matrix(1.2075346e-7,2.2032292,-2.0090302,1.2802398e-7,141.0249,-84.46424)"
       cx="56.270916"
       cy="42.18652"
       fx="56.270916"
       fy="42.18652"
       r="9.7675409" />
    <radialGradient
       inkscape:collect="always"
       xlink:href="#linearGradient4295-1"
       id="radialGradient3546-6"
       gradientUnits="userSpaceOnUse"
       gradientTransform="matrix(1.1980038,-2.1543406e-8,2.1342168e-8,1.1868132,-10.245158,-4.5772777)"
       cx="51.742218"
       cy="24.501904"
       fx="51.742218"
       fy="24.501904"
       r="9.5280094" />
    <linearGradient
       id="linearGradient4295-1">
      <stop
         style="stop-color:#d8effd;stop-opacity:1"
         offset="0"
         id="stop4297-5" />
      <stop
         id="stop4303-9"
         offset="0.40000001"
         style="stop-color:#80bee7;stop-opacity:1" />
      <stop
         style="stop-color:#276296;stop-opacity:1"
         offset="1"
         id="stop4299-7" />
    </linearGradient>
    <linearGradient
       inkscape:collect="always"
       xlink:href="#linearGradient4466-7"
       id="linearGradient3548-9"
       gradientUnits="userSpaceOnUse"
       x1="70.929146"
       y1="33.646538"
       x2="57.423737"
       y2="20.141127" />
    <linearGradient
       inkscape:collect="always"
       id="linearGradient4466-7">
      <stop
         style="stop-color:#1f669e;stop-opacity:1;"
         offset="0"
         id="stop4468-3" />
      <stop
         style="stop-color:#1f669e;stop-opacity:0;"
         offset="1"
         id="stop4470-6" />
    </linearGradient>
    <linearGradient
       inkscape:collect="always"
       xlink:href="#linearGradient4383-5"
       id="linearGradient3550-0"
       gradientUnits="userSpaceOnUse"
       x1="71.872765"
       y1="32.917397"
       x2="58.630184"
       y2="20.280247" />
    <linearGradient
       id="linearGradient4383-5">
      <stop
         style="stop-color:#1b528b;stop-opacity:1;"
         offset="0"
         id="stop4385-3" />
      <stop
         style="stop-color:#267bc4;stop-opacity:0.2248062;"
         offset="1"
         id="stop4387-5" />
    </linearGradient>
    <linearGradient
       inkscape:collect="always"
       xlink:href="#linearGradient4537-7"
       id="linearGradient4350-3"
       gradientUnits="userSpaceOnUse"
       x1="23.29822"
       y1="46.910316"
       x2="48.157101"
       y2="48.890137"
       gradientTransform="matrix(0.27077999,0,0,0.27077999,-11.122975,48.523477)" />
    <linearGradient
       id="linearGradient4537-7">
      <stop
         style="stop-color:#59af3f;stop-opacity:1"
         offset="0"
         id="stop4539-5" />
      <stop
         id="stop4547-6"
         offset="0.28080305"
         style="stop-color:#7dd06e;stop-opacity:1" />
      <stop
         id="stop4545-3"
         offset="0.42996103"
         style="stop-color:#95db83;stop-opacity:1" />
      <stop
         style="stop-color:#73b661;stop-opacity:1"
         offset="0.60335064"
         id="stop4549-2" />
      <stop
         style="stop-color:#2f7829;stop-opacity:1"
         offset="1"
         id="stop4541-7" />
    </linearGradient>
    <radialGradient
       inkscape:collect="always"
       xlink:href="#linearGradient4581-0"
       id="radialGradient3556-4"
       gradientUnits="userSpaceOnUse"
       gradientTransform="matrix(0.1643922,0,0,0.24512621,-6.0482482,49.730878)"
       cx="44.895283"
       cy="57.701195"
       fx="44.895283"
       fy="57.701195"
       r="13.272889" />
    <linearGradient
       inkscape:collect="always"
       id="linearGradient4581-0">
      <stop
         style="stop-color:#2b6028;stop-opacity:1;"
         offset="0"
         id="stop4583-3" />
      <stop
         style="stop-color:#2b6028;stop-opacity:0;"
         offset="1"
         id="stop4585-1" />
    </linearGradient>
    <radialGradient
       inkscape:collect="always"
       xlink:href="#linearGradient4391-1"
       id="radialGradient3522-0"
       gradientUnits="userSpaceOnUse"
       gradientTransform="matrix(-0.30999533,0,0,-0.39912787,9.2293693,74.273614)"
       cx="36.155109"
       cy="38.148655"
       fx="36.155109"
       fy="38.148655"
       r="11.34092" />
    <radialGradient
       inkscape:collect="always"
       xlink:href="#linearGradient4391-1"
       id="radialGradient3524-2"
       gradientUnits="userSpaceOnUse"
       gradientTransform="matrix(-1.1448236,0,0,-1.4739932,75.161918,95.096158)"
       cx="36.155109"
       cy="38.148655"
       fx="36.155109"
       fy="38.148655"
       r="11.34092" />
    <radialGradient
       inkscape:collect="always"
       xlink:href="#linearGradient4391-1"
       id="radialGradient3526-4"
       gradientUnits="userSpaceOnUse"
       gradientTransform="matrix(-1.1448236,0,0,-1.4739932,75.161918,95.096158)"
       cx="36.155109"
       cy="38.148655"
       fx="36.155109"
       fy="38.148655"
       r="11.34092" />
    <linearGradient
       inkscape:collect="always"
       xlink:href="#linearGradient4529-3"
       id="linearGradient3564-0"
       gradientUnits="userSpaceOnUse"
       x1="45.076241"
       y1="55.112427"
       x2="29.773056"
       y2="34.607147"
       gradientTransform="matrix(0.27077999,0,0,0.27077999,-11.122975,48.523477)" />
    <linearGradient
       inkscape:collect="always"
       id="linearGradient4529-3">
      <stop
         style="stop-color:#2b6128;stop-opacity:1;"
         offset="0"
         id="stop4531-5" />
      <stop
         style="stop-color:#59a24c;stop-opacity:1"
         offset="1"
         id="stop4533-9" />
    </linearGradient>
    <radialGradient
       inkscape:collect="always"
       xlink:href="#linearGradient4504-8"
       id="radialGradient3528-1"
       gradientUnits="userSpaceOnUse"
       gradientTransform="matrix(1.173057,7.7333582e-8,-7.8642098e-8,1.1929056,-6.1229775,-5.1046256)"
       cx="35.381287"
       cy="26.461763"
       fx="35.381287"
       fy="26.461763"
       r="7.2122016" />
    <linearGradient
       id="linearGradient4504-8">
      <stop
         style="stop-color:#c7fbb5;stop-opacity:1"
         offset="0"
         id="stop4506-4" />
      <stop
         id="stop4512-2"
         offset="0.40000001"
         style="stop-color:#7dd067;stop-opacity:1" />
      <stop
         style="stop-color:#387633;stop-opacity:1"
         offset="1"
         id="stop4508-6" />
    </linearGradient>
    <linearGradient
       inkscape:collect="always"
       xlink:href="#linearGradient4521-9"
       id="linearGradient3530-6"
       gradientUnits="userSpaceOnUse"
       x1="42.437229"
       y1="33.534683"
       x2="31.990175"
       y2="23.087629"
       gradientTransform="matrix(0.27077999,0,0,0.27077999,-11.122975,48.523477)" />
    <linearGradient
       inkscape:collect="always"
       id="linearGradient4521-9">
      <stop
         style="stop-color:#2b6028;stop-opacity:1;"
         offset="0"
         id="stop4523-9" />
      <stop
         style="stop-color:#2b6028;stop-opacity:0;"
         offset="1"
         id="stop4525-2" />
    </linearGradient>
    <radialGradient
       inkscape:collect="always"
       xlink:href="#linearGradient4391-1"
       id="radialGradient4009"
       gradientUnits="userSpaceOnUse"
       gradientTransform="matrix(-1.1448236,0,0,-1.4739932,75.161918,95.096158)"
       cx="36.155109"
       cy="38.148655"
       fx="36.155109"
       fy="38.148655"
       r="11.34092" />
    <radialGradient
       inkscape:collect="always"
       xlink:href="#linearGradient4391-1"
       id="radialGradient4011"
       gradientUnits="userSpaceOnUse"
       gradientTransform="matrix(-1.1448236,0,0,-1.4739932,75.161918,95.096158)"
       cx="36.155109"
       cy="38.148655"
       fx="36.155109"
       fy="38.148655"
       r="11.34092" />
    <radialGradient
       inkscape:collect="always"
       xlink:href="#linearGradient4391-1"
       id="radialGradient4027"
       gradientUnits="userSpaceOnUse"
       gradientTransform="matrix(1.2075346e-7,2.2032292,-2.0090302,1.2802398e-7,141.0249,-84.46424)"
       cx="56.270916"
       cy="42.18652"
       fx="56.270916"
       fy="42.18652"
       r="9.7675409" />
    <radialGradient
       inkscape:collect="always"
       xlink:href="#linearGradient4391-1"
       id="radialGradient4029"
       gradientUnits="userSpaceOnUse"
       gradientTransform="matrix(1.2075346e-7,2.2032292,-2.0090302,1.2802398e-7,141.0249,-84.46424)"
       cx="56.270916"
       cy="42.18652"
       fx="56.270916"
       fy="42.18652"
       r="9.7675409" />
    <linearGradient
       inkscape:collect="always"
       xlink:href="#ButtonColor"
       id="linearGradient3181"
       x1="-3.0607977"
       y1="27.258198"
       x2="-3.0607977"
       y2="7.2536583"
       gradientUnits="userSpaceOnUse"
       gradientTransform="translate(12.119372,-7.2581977)" />
    <linearGradient
       id="ButtonColor"
       x1="10.31979"
       y1="21"
       x2="10.31979"
       y2="0.99929649"
       gradientUnits="userSpaceOnUse">
      <stop
         style="stop-color:#5a9b0f;stop-opacity:1"
         offset="0"
         id="stop3189" />
      <stop
         style="stop-color:#8fe02f;stop-opacity:1"
         offset="1"
         id="stop3191" />
    </linearGradient>
    <linearGradient
       y2="7.2536583"
       x2="-3.0607977"
       y1="27.258198"
       x1="-3.0607977"
       gradientTransform="translate(18.416684,-14.681492)"
       gradientUnits="userSpaceOnUse"
       id="linearGradient4189"
       xlink:href="#ButtonColor"
       inkscape:collect="always" />
  </defs>
  <sodipodi:namedview
     id="base"
     pagecolor="#ffffff"
     bordercolor="#e7e7e7"
     borderopacity="1"
     inkscape:pageopacity="0.0"
     inkscape:pageshadow="2"
     inkscape:zoom="18.636617"
     inkscape:cx="-6.287634"
     inkscape:cy="8.1981088"
     inkscape:document-units="px"
     inkscape:current-layer="layer1"
     showgrid="true"
     inkscape:showpageshadow="false"
     showguides="false"
     inkscape:guide-bbox="true"
     inkscape:window-width="1920"
     inkscape:window-height="1030"
     inkscape:window-x="0"
     inkscape:window-y="22"
     inkscape:window-maximized="1"
     inkscape:snap-global="false">
    <sodipodi:guide
       orientation="1,0"
       position="0,112"
       id="guide2383" />
    <sodipodi:guide
       orientation="0,1"
       position="26.278146,128"
       id="guide2385" />
    <sodipodi:guide
       orientation="1,0"
       position="128,54.082119"
       id="guide2387" />
    <sodipodi:guide
       orientation="0,1"
       position="78.156291,0"
       id="guide2389" />
    <sodipodi:guide
       orientation="0,1"
       position="60.863576,64.084768"
       id="guide2391" />
    <inkscape:grid
       type="xygrid"
       id="grid3672"
       visible="true"
       enabled="true" />
  </sodipodi:namedview>
  <metadata
     id="metadata7">
    <rdf:RDF>
      <cc:Work
         rdf:about="">
        <dc:format>image/svg+xml</dc:format>
        <dc:type
           rdf:resource="http://purl.org/dc/dcmitype/StillImage" />
        <dc:title></dc:title>
      </cc:Work>
    </rdf:RDF>
  </metadata>
  <g
     inkscape:label="Button"
     inkscape:groupmode="layer"
     id="layer1">
    <path
       style="fill:url(#linearGradient3204);fill-opacity:1.0;fill-rule:nonzero;stroke:none"
       d="M 2,0 C 0.892,0 0,0.892 0,2 l 0,9 c 0,1.108 0.892,2 2,2 l 2,0 0,3 4,-3 6,0 c 1.108,0 2,-0.892 2,-2 L 16,2 C 16,0.892 15.108,0 14,0 L 2,0 z"
       id="rect3196"
       sodipodi:nodetypes="cccccccccccc" />
    <path
       style="opacity:0.4;fill:url(#linearGradient3629);fill-opacity:1;fill-rule:nonzero;stroke:none"
       d="m 30,14 c 0,1.108 0.892,2 2,2 l 12,0 c 1.108,0 2,-0.892 2,-2 L 46,2 C 46,0.892 45.108,0 44,0 L 32,0 c -1.108,0 -2,0.892 -2,2 l 0,12 z m 0.96875,0 0,-12 c 0,-0.583199 0.448051,-1.03125 1.03125,-1.03125 l 12,0 c 0.583199,0 1.03125,0.448051 1.03125,1.03125 l 0,12 c 0,0.583199 -0.448051,1.03125 -1.03125,1.03125 l -12,0 c -0.583199,0 -1.03125,-0.448051 -1.03125,-1.03125 z"
       id="rect2835" />
    <path
       style="opacity:0.2;fill:#ffffff;fill-opacity:1;fill-rule:nonzero;stroke:none"
       d="M 2,0.96875 C 1.416801,0.96875 0.96875,1.4168007 0.96875,2 l 0,1 C 0.96875,2.4168007 1.416801,1.96875 2,1.96875 l 12,0 c 0.583199,0 1.03125,0.4480507 1.03125,1.03125 l 0,-1 C 15.03125,1.4168007 14.583199,0.96875 14,0.96875 l -12,0 z"
       id="path2843" />
    <path
       style="opacity:0.4;fill:url(#linearGradient3674);fill-opacity:1;fill-rule:nonzero;stroke:none"
       d="M 2,0 C 0.892,0 0,0.892 0,2 l 0,9 c 0,1.108 0.892,2 2,2 l 2,0 0,3 4,-3 6,0 c 1.108,0 2,-0.892 2,-2 L 16,2 C 16,0.892 15.108,0 14,0 L 2,0 z m 0,0.96875 12,0 c 0.586131,0 1.03125,0.445119 1.03125,1.03125 l 0,9 c 0,0.586131 -0.445119,1.03125 -1.03125,1.03125 l -6,0 a 0.97245844,0.97245844 0 0 0 -0.59375,0.1875 l -2.4375,1.84375 0,-1.0625 A 0.97245844,0.97245844 0 0 0 4,12.03125 l -2,0 C 1.413869,12.03125 0.96875,11.586131 0.96875,11 l 0,-9 C 0.96875,1.413869 1.413869,0.96875 2,0.96875 z"
       id="path3661" />
    <path
       d="m 35.375,36.4375 c -0.808532,0.01273 -1.535549,0.120469 -1.9375,0.28125 -0.0573,0.02657 -2.194242,1.000157 -4.28125,3.4375 -2.053894,2.39867 -3.985285,6.199235 -3.71875,11.78125 l 0.375,0.03125 c 0.02641,-0.46083 0.08152,-1.873215 0.4375,-3.9375 0.20481,-1.187684 0.511536,-2.414928 0.90625,-3.5 0.394714,-1.085072 0.880617,-2.046245 1.65625,-2.59375 a 0.56322144,0.56322144 0 0 1 0.375,-0.09375 c 0.406795,0.03698 0.731615,0.361932 0.875,0.6875 0.143385,0.325568 0.191999,0.679587 0.21875,1.09375 0.0535,0.828327 -0.01074,1.905539 -0.0625,3.15625 -0.100292,2.423253 -0.14461,5.493597 0.65625,8.34375 0.24315,0.137111 2.445401,1.308796 5.65625,0.625 -0.05386,-4.123823 0.381244,-7.086623 1.15625,-9.15625 0.810669,-2.164863 1.968301,-3.428598 3.1875,-4.0625 2.067051,-1.074729 3.851586,-0.424054 4.4375,-0.1875 l 1.40625,-1.6875 c -0.339689,-0.262523 -1.087524,-0.8463 -2.28125,-1.6875 -0.719132,-0.506761 -1.466129,-1.004816 -2.09375,-1.375 -0.313811,-0.185092 -0.592164,-0.339492 -0.8125,-0.4375 -0.220336,-0.09801 -0.403404,-0.125 -0.375,-0.125 a 0.56322144,0.56322144 0 0 1 -0.09375,0 c 0,0 -3.263664,-0.63192 -5.6875,-0.59375 z"
       id="path3951"
       style="opacity:0.3;fill:url(#radialGradient4009);fill-opacity:1;stroke:none"
       inkscape:original="M 35.375 35.875 C 34.533135 35.888258 33.749059 35.975376 33.21875 36.1875 C 33.21875 36.1875 24.026506 40.417164 24.875 52.4375 L 26.3125 52.59375 C 26.3125 52.59375 26.720932 44.103239 29.125 42.40625 C 30.680573 42.547666 28.567846 49.481625 30.40625 55.5625 C 30.40625 55.5625 33.244276 57.23991 37.0625 56.25 C 36.638253 38.714451 45.53125 42.96875 45.53125 42.96875 L 47.53125 40.5625 C 47.53125 40.5625 42.287576 36.46875 41.15625 36.46875 C 41.15625 36.46875 37.900596 35.835227 35.375 35.875 z "
       inkscape:radius="-0.56316513"
       sodipodi:type="inkscape:offset"
       transform="matrix(0.27077999,0,0,0.27077999,-11.122975,48.523477)" />
    <path
       sodipodi:type="inkscape:offset"
       inkscape:radius="-1.9165975"
       inkscape:original="M 35.375 35.875 C 34.533135 35.888258 33.749059 35.975376 33.21875 36.1875 C 33.21875 36.1875 24.026506 40.417164 24.875 52.4375 L 26.3125 52.59375 C 26.3125 52.59375 26.720932 44.103239 29.125 42.40625 C 30.680573 42.547666 28.567846 49.481625 30.40625 55.5625 C 30.40625 55.5625 33.244276 57.23991 37.0625 56.25 C 36.638253 38.714451 45.53125 42.96875 45.53125 42.96875 L 47.53125 40.5625 C 47.53125 40.5625 42.287576 36.46875 41.15625 36.46875 C 41.15625 36.46875 37.900596 35.835227 35.375 35.875 z "
       style="opacity:0.3;fill:url(#radialGradient4011);fill-opacity:1;stroke:none"
       id="path3953"
       d="m 35.40625,37.78125 c -0.697926,0.01099 -1.27263,0.144846 -1.40625,0.1875 -0.0011,5.01e-4 -0.06007,-0.0011 -0.0625,0 -0.12032,0.05632 -1.810019,0.910835 -3.625,2.96875 0.463991,0.310557 0.843272,0.706635 1,1.0625 0.260401,0.591264 0.280831,1.040942 0.3125,1.53125 0.06334,0.980617 -0.01123,2.07363 -0.0625,3.3125 -0.09254,2.236006 -0.02075,4.889697 0.5625,7.34375 0.590518,0.254038 1.506607,0.499243 3.09375,0.375 0.04962,-3.563927 0.420264,-6.419874 1.1875,-8.46875 0.898654,-2.399822 2.3023,-3.948549 3.84375,-4.75 1.54145,-0.801451 3.077935,-0.8333 4.21875,-0.65625 -0.370111,-0.273145 -0.388262,-0.294796 -0.8125,-0.59375 -0.702224,-0.494846 -1.427812,-1.006261 -2,-1.34375 -0.286094,-0.168744 -0.542428,-0.27922 -0.6875,-0.34375 -0.145072,-0.06453 -0.249025,-0.03125 0.1875,-0.03125 a 1.9167891,1.9167891 0 0 1 -0.375,-0.03125 c 0,0 -3.195721,-0.596819 -5.375,-0.5625 z"
       transform="matrix(0.27077999,0,0,0.27077999,-11.122975,48.523477)" />
    <path
       d="m 56.5625,37.46875 c -1.588023,-0.09552 -3.403911,0.05355 -5,0.34375 a 0.7817783,0.7817783 0 0 1 -0.03125,0 c -0.277615,0.0347 -0.607571,0.263223 -0.96875,0.875 -0.361179,0.611777 -0.697996,1.547348 -0.96875,2.6875 -0.541508,2.280303 -0.821627,5.347952 -0.96875,8.40625 -0.273727,5.690076 -0.06644,10.896535 -0.03125,11.65625 1.640065,0.77521 2.79128,0.885134 3.46875,0.75 0.367918,-0.07339 0.596427,-0.187988 0.75,-0.28125 0.153573,-0.09326 0.1875,-0.125 0.1875,-0.125 a 0.7817783,0.7817783 0 0 1 0.03125,-0.0625 c -0.10486,0.09321 0.211731,-0.333759 0.375,-1.03125 0.163269,-0.697491 0.293708,-1.675411 0.4375,-2.78125 0.287583,-2.211678 0.565181,-5.003906 0.875,-7.71875 0.309819,-2.714844 0.657048,-5.32629 1.1875,-7.21875 0.265226,-0.94623 0.565811,-1.73321 1.03125,-2.3125 0.23272,-0.289645 0.508149,-0.541804 0.90625,-0.65625 0.254929,-0.07329 0.521762,0.03006 0.78125,0.09375 l 0,-0.03125 c 0.79167,-0.07917 1.491033,0.321211 2.03125,0.875 0.540217,0.553789 0.973389,1.296931 1.375,2.15625 0.803221,1.718638 1.451336,3.943118 1.96875,6.1875 0.966739,4.193415 1.40457,7.869817 1.46875,8.40625 0.08846,-0.0042 0.261063,0.05634 0.3125,0.03125 0.118172,-0.05764 0.265659,-0.207202 0.375,-0.4375 0.218681,-0.460596 0.25,-1.125 0.25,-1.125 a 0.7817783,0.7817783 0 0 1 0,-0.03125 c 0,0 0.261106,-3.500969 -0.40625,-7.5 -0.667356,-3.999031 -2.275486,-8.353516 -5.6875,-10.21875 A 0.7817783,0.7817783 0 0 1 60.25,38.375 c -0.681238,-0.454159 -2.094522,-0.810432 -3.6875,-0.90625 z"
       id="path3983"
       style="opacity:0.3;fill:url(#radialGradient4027);fill-opacity:1;stroke:none"
       inkscape:original="M 56.625 36.6875 C 54.957599 36.587205 53.092365 36.730365 51.4375 37.03125 C 46.623348 37.633019 47.84375 62 47.84375 62 C 51.855544 64.106192 53.5625 62.3125 53.5625 62.3125 C 55.367807 60.707783 55.177181 38.938148 58.6875 40.84375 C 62.699294 40.442571 64.78125 58.375 64.78125 58.375 C 67.088031 59.277654 67.1875 56.1875 67.1875 56.1875 C 67.1875 56.1875 68.209613 41.830838 60.6875 37.71875 C 59.784847 37.116981 58.292401 36.787795 56.625 36.6875 z "
       inkscape:radius="-0.78170013"
       sodipodi:type="inkscape:offset" />
    <path
       sodipodi:type="inkscape:offset"
       inkscape:radius="-1.6502429"
       inkscape:original="M 56.625 36.6875 C 54.957599 36.587205 53.092365 36.730365 51.4375 37.03125 C 46.623348 37.633019 47.84375 62 47.84375 62 C 51.855544 64.106192 53.5625 62.3125 53.5625 62.3125 C 55.367807 60.707783 55.177181 38.938148 58.6875 40.84375 C 62.699294 40.442571 64.78125 58.375 64.78125 58.375 C 67.088031 59.277654 67.1875 56.1875 67.1875 56.1875 C 67.1875 56.1875 68.209613 41.830838 60.6875 37.71875 C 59.784847 37.116981 58.292401 36.787795 56.625 36.6875 z "
       style="opacity:0.3;fill:url(#radialGradient4029);fill-opacity:1;stroke:none"
       id="path3985"
       d="m 56.53125,38.34375 c -1.499827,-0.09022 -3.281716,0.03417 -4.8125,0.3125 a 1.6504079,1.6504079 0 0 1 -0.0625,0 c 0.08255,-0.01032 -0.0561,-0.01848 -0.34375,0.46875 -0.287646,0.487225 -0.615951,1.346639 -0.875,2.4375 -0.518097,2.181722 -0.822974,5.219686 -0.96875,8.25 -0.265939,5.528173 -0.01053,10.106132 0.03125,11.03125 1.149023,0.446369 1.961434,0.551243 2.375,0.46875 0.211808,-0.04225 0.319474,-0.07881 0.40625,-0.125 0.06118,-0.122906 0.205809,-0.396463 0.28125,-0.71875 0.150882,-0.644573 0.295523,-1.564363 0.4375,-2.65625 0.283955,-2.183774 0.532353,-5.021328 0.84375,-7.75 0.311397,-2.728672 0.658881,-5.346339 1.21875,-7.34375 0.279935,-0.998706 0.57631,-1.833058 1.1875,-2.59375 0.305595,-0.380346 0.74776,-0.788431 1.375,-0.96875 0.3084,-0.08866 0.58812,0.08295 0.90625,0.125 l 0,-0.09375 c 1.114104,-0.11141 2.099399,0.489304 2.75,1.15625 0.650601,0.666946 1.105262,1.463522 1.53125,2.375 0.851976,1.822956 1.506689,4.099616 2.03125,6.375 0.446865,1.938361 0.399737,2.289364 0.65625,3.875 -0.04522,-1.234202 -0.108686,-2.591651 -0.375,-4.1875 -0.648046,-3.883316 -2.194556,-7.971774 -5.21875,-9.625 a 1.6504079,1.6504079 0 0 1 -0.125,-0.0625 c -0.435226,-0.290151 -1.739713,-0.659155 -3.25,-0.75 z" />
    <path
       sodipodi:type="inkscape:offset"
       inkscape:radius="0.097313464"
       inkscape:original="M 6.34375 0.90625 C 6.2275635 0.90248496 6.1009566 0.92839752 6.03125 0.9375 C 5.7933962 0.96876082 5.5544538 0.95780082 5.28125 1 C 4.7772207 1.0778393 4.3080061 1.2517594 3.84375 1.4375 C 3.6745253 1.5051952 3.5094994 1.5760343 3.34375 1.65625 C 3.3082639 1.6734236 3.2183465 1.6910953 3.125 1.78125 C 3.0642972 1.8399985 3.0688558 1.8704495 3.0625 1.90625 C 3.0561442 1.9420505 3.0322994 1.9888342 3.03125 2 C 3.0232289 2.086411 3.0093183 2.1850046 3 2.28125 C 2.9653091 2.6394613 2.9467482 3.0034628 3 3.375 C 3.0082544 3.4325018 3.0259262 3.5014098 3.0625 3.59375 C 3.0990738 3.6860902 3.1724588 3.8218887 3.3125 3.84375 C 3.4842034 3.8706195 3.6256913 3.7837419 3.71875 3.6875 C 3.8118087 3.5912581 3.8901306 3.4718439 3.9375 3.40625 C 4.178243 3.0728767 4.4497997 2.7619015 4.8125 2.625 C 5.2652566 2.4541105 5.7823349 2.4092192 6.28125 2.375 C 7.6703894 2.2797932 9.1876694 2.5315479 10.1875 3.53125 C 10.333681 3.6774101 10.451299 3.8388763 10.5625 4 C 11.013979 4.6537361 11.258643 5.3973857 11.375 6.1875 C 11.429841 6.5593783 11.454616 6.9337097 11.375 7.28125 C 11.233532 7.8986987 10.84779 8.4635367 10.40625 8.9375 C 10.105207 9.2606438 9.7967462 9.5107176 9.4375 9.78125 C 9.2414842 9.9288259 9.0147732 10.072948 8.8125 10.25 C 8.5762824 10.456783 8.3948362 10.732387 8.25 11 C 7.859392 11.722108 7.729977 12.576766 7.84375 13.375 C 7.8673954 13.540929 7.9017439 13.688125 7.9375 13.84375 C 7.93525 13.83395 7.9342722 13.863083 7.9375 13.90625 C 7.9407278 13.949417 7.9391719 14.016933 8 14.09375 C 8.0615427 14.171443 8.1501367 14.20042 8.21875 14.21875 C 8.2873633 14.23708 8.3563941 14.247587 8.40625 14.25 C 8.4976647 14.254379 8.5692642 14.206285 8.625 14.15625 C 8.6807358 14.106215 8.7307782 14.03907 8.75 13.96875 C 8.7967968 13.797424 8.7723163 13.64189 8.75 13.5 C 8.7045346 13.211043 8.6447206 12.918721 8.65625 12.65625 C 8.6781211 12.157394 8.8431911 11.703772 9.1875 11.34375 C 9.534942 10.980446 10.052671 10.782301 10.5 10.4375 C 11.376959 9.761558 12.191737 8.8276081 12.5 7.71875 C 12.610892 7.3196035 12.644733 6.8823621 12.59375 6.46875 C 12.529908 5.9503188 12.358188 5.4665446 12.1875 5 C 11.658485 3.5538498 10.717809 2.1738252 9.25 1.5 C 8.668748 1.2332 8.0851273 1.085829 7.46875 1 C 7.172227 0.9587175 6.849021 0.95006265 6.5625 0.9375 C 6.5108971 0.93523898 6.4549785 0.90985421 6.34375 0.90625 z M 5.4375 6.8125 C 5.2859952 6.8271369 5.1668628 6.9052372 5.0625 6.96875 A 0.15025807 0.15025807 0 0 0 5.03125 6.96875 C 4.8068463 7.1054121 4.6880859 7.342848 4.625 7.5625 C 4.5006662 7.9954607 4.5769497 8.4472108 4.65625 8.84375 C 4.6824868 8.9750557 4.7143564 9.0940349 4.75 9.21875 C 4.7497893 9.2180134 4.77739 9.2502546 4.78125 9.28125 C 4.78511 9.3122454 4.7749667 9.3582387 4.8125 9.40625 C 4.8648897 9.4733759 4.9340467 9.5073389 5 9.53125 C 5.0659533 9.5551611 5.140943 9.5755976 5.21875 9.5625 C 5.3186069 9.5457184 5.3949096 9.4805892 5.4375 9.40625 C 5.4800904 9.3319108 5.4929401 9.2304223 5.5 9.15625 C 5.5141198 9.0079054 5.5031901 8.8781164 5.5 8.8125 C 5.4810667 8.4231858 5.4074218 8.0725422 5.5 7.75 C 5.538928 7.6144452 5.5880222 7.5115312 5.6875 7.46875 C 5.7285129 7.4510918 5.759658 7.4611403 5.78125 7.46875 C 5.802842 7.4763597 5.8303086 7.4980926 5.84375 7.53125 C 5.9145228 7.7058183 5.8712881 7.9790762 5.9375 8.25 C 5.9544672 8.3194503 5.983804 8.401945 6.03125 8.5 C 6.0371048 8.5120762 6.0379636 8.5316503 6.0625 8.5625 C 6.0870364 8.5933497 6.1284646 8.6643214 6.21875 8.65625 C 6.3413216 8.6450249 6.3926306 8.5780799 6.4375 8.53125 C 6.4823694 8.4844201 6.5291937 8.4391978 6.53125 8.4375 C 6.7088542 8.2907315 6.877169 8.1296864 7.0625 8.03125 C 7.1000103 8.0113263 7.1730015 8.008082 7.21875 8 C 7.2644985 7.991918 7.2809763 7.999758 7.28125 8 C 7.3145728 8.0294825 7.3106047 8.0282857 7.3125 8.03125 C 7.3458809 8.083541 7.332157 8.1003512 7.3125 8.15625 C 7.292843 8.2121488 7.2630203 8.2735557 7.21875 8.375 C 7.124353 8.5912342 7.0080619 8.7807732 6.875 8.96875 C 6.7619952 9.1284407 6.6096789 9.3193321 6.5 9.53125 C 6.4270706 9.6722023 6.374076 9.8303436 6.40625 10 C 6.4226288 10.086163 6.4901568 10.164508 6.5625 10.21875 C 6.6348432 10.272992 6.7183867 10.302886 6.8125 10.28125 C 6.960352 10.247247 7.0430919 10.13278 7.09375 10.0625 C 7.1850406 9.9357531 7.2651951 9.7976812 7.34375 9.6875 C 7.499138 9.4696172 7.6940763 9.2370154 7.84375 8.96875 C 8.0221504 8.648946 8.1251955 8.3008717 8.125 7.9375 C 8.1249396 7.7783965 8.0819019 7.5789206 8 7.40625 C 7.9180981 7.2335794 7.7820499 7.0707625 7.5625 7.03125 C 7.4825208 7.0169303 7.3906481 7.0176184 7.3125 7.03125 C 7.2335504 7.0449923 7.1524264 7.0814775 7.0625 7.125 C 6.8539984 7.225866 6.6738289 7.3736275 6.53125 7.53125 C 6.5204179 7.5432114 6.5109804 7.5503664 6.5 7.5625 C 6.4722778 7.4465224 6.4158546 7.3228255 6.34375 7.21875 C 6.1650467 6.9608682 5.8628152 6.8234099 5.5625 6.8125 C 5.5253044 6.8111506 5.4937341 6.8070029 5.4375 6.8125 z M 3.84375 10.125 C 3.6707739 10.149756 3.542114 10.24459 3.46875 10.375 C 3.395386 10.50541 3.3757104 10.663015 3.40625 10.8125 C 3.4832282 11.189035 3.766441 11.483382 4.03125 11.6875 C 4.6977421 12.201223 5.5341305 12.474314 6.375 12.4375 C 6.7064853 12.422992 7.0929088 12.332364 7.40625 12.1875 C 7.5288243 12.130857 7.6097374 12.038835 7.65625 11.90625 C 7.6795063 11.839958 7.7131432 11.766828 7.6875 11.6875 C 7.6618568 11.608172 7.5802657 11.541999 7.5 11.5 C 7.4402077 11.468724 7.3978765 11.465073 7.375 11.46875 C 7.2432922 11.447203 7.1265546 11.472636 7.03125 11.5 C 6.8717934 11.545784 6.7019101 11.602629 6.5625 11.625 C 6.1296518 11.694522 5.6676015 11.597873 5.3125 11.34375 C 5.0194222 11.133942 4.7720651 10.832252 4.53125 10.53125 C 4.4702374 10.454992 4.3955664 10.359662 4.3125 10.28125 C 4.2294336 10.202838 4.1097389 10.135855 3.96875 10.125 C 3.9392463 10.122686 3.8969361 10.117462 3.84375 10.125 z M 3.46875 11.6875 C 3.4021647 11.69631 3.2963191 11.701363 3.1875 11.78125 C 3.126848 11.825771 3.0989644 11.899434 3.09375 11.96875 C 3.0885356 12.038066 3.1028077 12.11031 3.125 12.15625 C 3.1693845 12.24813 3.2218786 12.30798 3.25 12.34375 C 3.4547641 12.603927 3.7104112 12.817204 3.96875 13 C 4.6912466 13.511063 5.5241127 13.814524 6.40625 13.875 C 6.6623316 13.892547 6.9302408 13.886594 7.1875 13.84375 C 7.2665336 13.830554 7.3796021 13.806229 7.5 13.75 C 7.6874839 13.662324 7.7644457 13.453574 7.75 13.28125 C 7.7355543 13.108926 7.6426213 12.956813 7.46875 12.875 C 7.3809408 12.833713 7.2925167 12.839431 7.21875 12.84375 C 7.1449833 12.848069 7.0749475 12.837677 7.03125 12.84375 C 6.8185594 12.873404 6.5959652 12.880389 6.375 12.875 C 5.8084602 12.861133 5.212163 12.712729 4.71875 12.4375 C 4.5278245 12.330922 4.3558999 12.179484 4.1875 12.03125 C 4.151296 11.999384 4.0923755 11.941687 4.03125 11.875 C 3.9701245 11.808313 3.9236697 11.72563 3.8125 11.6875 C 3.7059797 11.650949 3.6428185 11.687312 3.625 11.6875 C 3.5960486 11.687799 3.5355718 11.678663 3.46875 11.6875 z M 3.625 13 C 3.4646453 13.017961 3.357773 13.132423 3.28125 13.21875 C 3.2487198 13.255441 3.2008995 13.295665 3.15625 13.40625 C 3.0613289 13.64104 3.1219572 13.892911 3.25 14.0625 C 3.3780428 14.232089 3.5461533 14.347817 3.6875 14.4375 C 3.9929529 14.631248 4.3491917 14.817111 4.6875 14.9375 C 5.4419648 15.206009 6.310279 15.374611 7.125 15.125 C 7.3768174 15.047913 7.6250222 14.882581 7.8125 14.6875 C 7.8720386 14.625539 7.9500704 14.549126 7.96875 14.4375 C 7.9780898 14.381687 7.9745678 14.309544 7.9375 14.25 C 7.9004322 14.190456 7.8460883 14.148557 7.78125 14.125 C 7.6744807 14.086247 7.5679104 14.126774 7.5 14.15625 C 7.4320896 14.185726 7.3699667 14.239442 7.34375 14.25 C 7.1352292 14.334095 6.9027082 14.380219 6.6875 14.40625 C 6.4089066 14.440028 6.1676876 14.385735 5.875 14.3125 C 5.6225161 14.249373 5.3907497 14.181168 5.15625 14.09375 C 4.9594807 14.020386 4.7650509 13.933698 4.59375 13.8125 C 4.5129278 13.755322 4.4407253 13.722377 4.4375 13.71875 C 4.3039831 13.56853 4.1739282 13.392331 4 13.21875 C 3.9718368 13.190638 3.9320872 13.138296 3.875 13.09375 C 3.8179128 13.049204 3.7285251 12.988454 3.625 13 z "
       style="fill:#ffffff;fill-opacity:1;stroke:none;display:inline"
       id="path4039"
       d="m 6.34375,0.8125 c -0.1329199,-0.004307 -0.2513046,0.0232589 -0.3125,0.03125 -0.2265919,0.0297807 -0.4658245,0.0186061 -0.75,0.0625 C 4.7646153,0.986036 4.2783,1.1573917 3.8125,1.34375 3.6417952,1.4120373 3.4808261,1.4810373 3.3125,1.5625 3.3119864,1.5627486 3.2646019,1.5725564 3.21875,1.59375 3.1728981,1.6149436 3.1181187,1.665033 3.0625,1.71875 2.9879724,1.7908782 2.9720458,1.8564357 2.96875,1.875 c -7.92e-4,0.00446 0.00625,0.046554 0,0.0625 -0.00313,0.00797 -0.028072,-0.00834 -0.03125,0 -0.00159,0.00417 0.00172,0.025804 0,0.03125 -9.556e-4,0.00394 6.56e-5,0.030552 0,0.03125 -0.00769,0.082884 -0.021651,0.1821032 -0.03125,0.28125 -0.03498,0.3611921 -0.054969,0.7102329 0,1.09375 0.00948,0.066015 0.023775,0.1522275 0.0625,0.25 0.020478,0.051703 0.043014,0.126972 0.09375,0.1875 0.050736,0.060528 0.1521995,0.1097327 0.25,0.125 0.2114265,0.033086 0.3617709,-0.076862 0.46875,-0.1875 0.1020533,-0.1055442 0.2056426,-0.2198269 0.25,-0.28125 0.2372245,-0.328501 0.4803365,-0.6246246 0.8125,-0.75 0.4351229,-0.1642338 0.939802,-0.2158643 1.4375,-0.25 1.3726418,-0.094076 2.8729528,0.1543276 3.84375,1.125 0.139297,0.1392768 0.233506,0.3090136 0.34375,0.46875 0.441211,0.6388685 0.697725,1.3456313 0.8125,2.125 0.05408,0.3667386 0.07524,0.7340683 0,1.0625 -0.135753,0.5925058 -0.502976,1.1585678 -0.9375,1.625 C 10.048238,9.192207 9.7326089,9.4494505 9.375,9.71875 9.183467,9.8629509 8.9596959,10.003951 8.75,10.1875 c -0.2498788,0.218742 -0.4460325,0.508313 -0.59375,0.78125 -0.3328313,0.615298 -0.4630515,1.310612 -0.4375,2 C 7.664306,12.898865 7.5883867,12.822839 7.5,12.78125 7.3862948,12.727787 7.2920435,12.745709 7.21875,12.75 c -0.061086,0.0036 -0.1147684,-0.01011 -0.1875,0 C 6.8256863,12.77866 6.5923238,12.78655 6.375,12.78125 5.8237691,12.767758 5.2585299,12.60998 4.78125,12.34375 4.6836156,12.289249 4.5930746,12.20021 4.5,12.125 c 0.5706749,0.299666 1.226478,0.434643 1.875,0.40625 0.345871,-0.01514 0.7355295,-0.09883 1.0625,-0.25 0.1442033,-0.06664 0.2589735,-0.191172 0.3125,-0.34375 0.020954,-0.05973 0.069938,-0.161568 0.03125,-0.28125 -0.039354,-0.121742 -0.1565331,-0.201094 -0.25,-0.25 -0.059568,-0.03116 -0.080556,-0.03175 -0.125,-0.03125 -0.010914,-0.0018 -0.02054,0.0012 -0.03125,0 -0.1392312,-0.01618 -0.281965,0.0045 -0.375,0.03125 -0.1623711,0.04662 -0.3113419,0.104756 -0.4375,0.125 C 6.1543007,11.596813 5.7071094,11.487669 5.375,11.25 5.0967517,11.050808 4.8340732,10.769137 4.59375,10.46875 4.5332561,10.39314 4.4655274,10.304205 4.375,10.21875 c -0.096883,-0.09145 -0.2389142,-0.174617 -0.40625,-0.1875 -0.025352,-0.002 -0.05853,-0.0094 -0.125,0 -0.2007794,0.02873 -0.3814328,0.126037 -0.46875,0.28125 -0.086146,0.153131 -0.097365,0.360591 -0.0625,0.53125 0.065768,0.321701 0.2546697,0.551589 0.46875,0.75 -0.042092,-0.0071 -0.095421,-0.03554 -0.125,-0.03125 -0.021889,0.0032 -0.01979,0.028 -0.03125,0.03125 -0.00708,7.3e-5 -0.07322,-0.01098 -0.15625,0 -0.058088,0.0077 -0.2122435,-0.0028 -0.34375,0.09375 -0.09046,0.0664 -0.1182258,0.191199 -0.125,0.28125 -0.00659,0.0876 -0.00122,0.151544 0.03125,0.21875 0.050257,0.104037 0.1318984,0.187775 0.15625,0.21875 0.1502354,0.190892 0.3177145,0.354094 0.5,0.5 -0.021916,-0.0019 -0.038658,-0.0027 -0.0625,0 -0.201052,0.02252 -0.3282169,0.161969 -0.40625,0.25 -0.024545,0.02768 -0.1056366,0.09339 -0.15625,0.21875 -0.1093822,0.27056 -0.022061,0.555222 0.125,0.75 0.1398957,0.185288 0.2936489,0.314978 0.4375,0.40625 0.3105814,0.197001 0.6834655,0.376239 1.03125,0.5 0.7645619,0.272103 1.6550274,0.446379 2.5,0.1875 0.2719426,-0.08325 0.5205725,-0.262535 0.71875,-0.46875 0.057801,-0.06015 0.1627324,-0.133243 0.1875,-0.28125 0.00966,-0.05772 0.026846,-0.148562 0,-0.21875 0.048029,0.02419 0.08843,0.05273 0.125,0.0625 0.075379,0.02014 0.159602,0.02839 0.21875,0.03125 0.1278549,0.0061 0.2177527,-0.068 0.28125,-0.125 0.066394,-0.0596 0.1298556,-0.12219 0.15625,-0.21875 0.053014,-0.194089 0.022315,-0.358118 0,-0.5 C 8.797814,13.208052 8.7392572,12.900815 8.75,12.65625 c 0.021046,-0.48003 0.1731736,-0.908258 0.5,-1.25 0.3262829,-0.341179 0.850694,-0.55029 1.3125,-0.90625 0.888204,-0.6846094 1.714912,-1.6120942 2.03125,-2.75 0.114432,-0.4118871 0.146391,-0.8541841 0.09375,-1.28125 -0.06553,-0.5321517 -0.23534,-1.0328483 -0.40625,-1.5 -0.534939,-1.4623456 -1.500733,-2.8742335 -3,-3.5625 C 8.6899005,1.1348152 8.0918873,0.99302031 7.46875,0.90625 7.1645014,0.86389193 6.8477756,0.85625804 6.5625,0.84375 6.5396479,0.84274872 6.4687061,0.81654903 6.34375,0.8125 z M 5.4375,6.71875 C 5.26985,6.7349467 5.1306939,6.8138592 5.03125,6.875 c -0.0071,0.00437 -0.024437,-0.00415 -0.03125,0 a 0.09732319,0.09732319 0 0 0 -0.03125,0 C 4.7146073,7.0297732 4.5981446,7.298337 4.53125,7.53125 4.3990449,7.9916205 4.482766,8.4762922 4.5625,8.875 4.5894905,9.0100776 4.6203243,9.1242978 4.65625,9.25 L 4.75,9.21875 c 0,0 -0.0625,0.09375 -0.0625,0.09375 -1.73e-5,0.030033 0.016491,0.097397 0.0625,0.15625 0.06815,0.08732 0.1455303,0.1297045 0.21875,0.15625 0.071471,0.025911 0.1770091,0.048797 0.28125,0.03125 0.132449,-0.022259 0.225925,-0.090933 0.28125,-0.1875 0.057385,-0.1001619 0.055178,-0.2355752 0.0625,-0.3125 0.015076,-0.1583903 0.00297,-0.282685 0,-0.34375 -0.01939,-0.3987114 -0.083643,-0.7398388 0,-1.03125 0.036543,-0.1272512 0.06688,-0.1937552 0.125,-0.21875 0.012261,-0.00528 0.011997,-0.00679 0.03125,0 0.052303,0.1290113 0.021636,0.423677 0.09375,0.71875 0.018888,0.077314 0.043833,0.1468393 0.09375,0.25 C 5.9269763,8.5095437 5.9636692,8.5793212 6,8.625 6.0124936,8.6407082 6.0754427,8.7628115 6.21875,8.75 6.3738575,8.7357953 6.4615434,8.6338869 6.5,8.59375 6.5431229,8.5487429 6.5916937,8.5016978 6.59375,8.5 c 0.1812773,-0.1498039 0.331945,-0.2857395 0.5,-0.375 -0.00241,0.00128 0.037425,-0.027477 0.0625,-0.03125 0.016717,-0.00252 0.043283,0.00259 0.0625,0 -0.00239,0.00702 0.00558,0.015372 0,0.03125 C 7.2019125,8.1728809 7.1699202,8.2408164 7.125,8.34375 7.0339854,8.5522362 6.9119372,8.721628 6.78125,8.90625 6.6709398,9.0621329 6.5218688,9.2766053 6.40625,9.5 6.3285107,9.6502484 6.2746187,9.8314987 6.3125,10.03125 c 0.023522,0.123739 0.1024283,0.186214 0.1875,0.25 0.087383,0.06552 0.2183065,0.122589 0.34375,0.09375 0.1866137,-0.04292 0.2930096,-0.179606 0.34375,-0.25 C 7.2825907,9.9929771 7.363089,9.854369 7.4375,9.75 7.5895585,9.5367858 7.781971,9.31001 7.9375,9.03125 8.1227688,8.6991337 8.2189554,8.3193026 8.21875,7.9375 8.2186829,7.7608784 8.1824316,7.5619641 8.09375,7.375 8.0041165,7.1860292 7.8522678,6.9840256 7.59375,6.9375 c -0.093238,-0.016693 -0.222179,-0.015755 -0.3125,0 -0.096523,0.016801 -0.1586125,0.04952 -0.25,0.09375 -0.1944747,0.09408 -0.3605102,0.2329179 -0.5,0.375 C 6.4983486,7.321393 6.4894707,7.2312644 6.4375,7.15625 6.2387605,6.8694546 5.8900838,6.7306505 5.5625,6.71875 c -0.031969,-0.00116 -0.060539,-0.0063 -0.125,0 z m -1.3125,6.5 c 0.6873625,0.43765 1.4637576,0.693956 2.28125,0.75 0.2621973,0.01797 0.5458824,0.01315 0.8125,-0.03125 0.083324,-0.01391 0.1806868,-0.03219 0.3125,-0.09375 0.1159591,-0.05423 0.2003778,-0.148239 0.25,-0.25 0.012244,0.06079 0.04896,0.128055 0.0625,0.1875 -2.7e-5,4.4e-5 2.61e-5,0.03119 0,0.03125 0.00214,0.0093 -0.00215,0.0219 0,0.03125 -8.39e-5,0.0079 -3.772e-4,0.02136 0,0.03125 a 0.09732319,0.09732319 0 0 0 0,0.03125 c 0.00202,0.02695 0.020309,0.106976 0.0625,0.1875 -0.030372,-0.02154 -0.058878,-0.04983 -0.09375,-0.0625 -0.1467438,-0.05326 -0.271615,-6e-5 -0.34375,0.03125 -0.043819,0.01902 -0.096141,0.04301 -0.125,0.0625 -0.028859,0.01949 -0.046482,0.03738 -0.03125,0.03125 -0.1966951,0.07933 -0.4151007,0.130861 -0.625,0.15625 C 6.4279391,14.34397 6.1977106,14.291678 5.90625,14.21875 5.6561727,14.156225 5.4178587,14.085874 5.1875,14 4.9945811,13.928072 4.8170692,13.832532 4.65625,13.71875 c -0.044371,-0.03139 -0.094446,-0.04556 -0.125,-0.0625 -0.015277,-0.0085 -0.022923,0.0044 -0.03125,0 -0.00416,-0.0022 9.074e-4,-0.03074 0,-0.03125 C 4.3922551,13.502073 4.2648705,13.367621 4.125,13.21875 z"
       transform="matrix(0.62756217,0,0,0.62756217,0.13823511,1.4315047)" />
  </g>
  <g
     inkscape:groupmode="layer"
     id="layer2"
     inkscape:label="Symbol" />
</svg>
