<?xml version="1.0" encoding="UTF-8" standalone="no"?>
<!-- Created with Inkscape (http://www.inkscape.org/) -->

<svg
   xmlns:dc="http://purl.org/dc/elements/1.1/"
   xmlns:cc="http://creativecommons.org/ns#"
   xmlns:rdf="http://www.w3.org/1999/02/22-rdf-syntax-ns#"
   xmlns:svg="http://www.w3.org/2000/svg"
   xmlns="http://www.w3.org/2000/svg"
   xmlns:xlink="http://www.w3.org/1999/xlink"
   xmlns:sodipodi="http://sodipodi.sourceforge.net/DTD/sodipodi-0.dtd"
   xmlns:inkscape="http://www.inkscape.org/namespaces/inkscape"
   width="16"
   height="16"
   id="svg2"
   sodipodi:version="0.32"
   inkscape:version="0.48.1 r9760"
   version="1.0"
   sodipodi:docname="gnome-klotski.svg"
   inkscape:output_extension="org.inkscape.output.svg.inkscape"
   style="display:inline">
  <defs
     id="defs4">
    <inkscape:perspective
       sodipodi:type="inkscape:persp3d"
       inkscape:vp_x="0 : 8 : 1"
       inkscape:vp_y="0 : 1000 : 0"
       inkscape:vp_z="16 : 8 : 1"
       inkscape:persp3d-origin="8 : 5.3333333 : 1"
       id="perspective35" />
    <linearGradient
       inkscape:collect="always"
       id="linearGradient3327">
      <stop
         style="stop-color:#000000;stop-opacity:1;"
         offset="0"
         id="stop3330" />
      <stop
         style="stop-color:#000000;stop-opacity:0;"
         offset="1"
         id="stop3333" />
    </linearGradient>
    <linearGradient
       id="ButtonColor"
       x1="10.31979"
       y1="21"
       x2="10.31979"
       y2="0.99929649"
       gradientUnits="userSpaceOnUse">
      <stop
         style="stop-color:#29669f;stop-opacity:1;"
         offset="0"
         id="stop3189" />
      <stop
         style="stop-color:#88b6e0;stop-opacity:1;"
         offset="1"
         id="stop3191" />
    </linearGradient>
    <linearGradient
       inkscape:collect="always"
       xlink:href="#ButtonColor"
       id="linearGradient3204"
       x1="1"
       y1="9"
       x2="15"
       y2="9"
       gradientUnits="userSpaceOnUse"
       gradientTransform="translate(-17,26)" />
    <linearGradient
       inkscape:collect="always"
       xlink:href="#linearGradient3327"
       id="linearGradient3629"
       x1="0"
       y1="8"
       x2="29.017237"
       y2="8"
       gradientUnits="userSpaceOnUse"
       gradientTransform="matrix(0,-1,1,0,28,16)" />
    <linearGradient
       inkscape:collect="always"
       xlink:href="#SVGID_1_-4"
       id="linearGradient3765"
       gradientUnits="userSpaceOnUse"
       gradientTransform="matrix(0.09341072,0,0,0.04108075,-26.756456,8.0246654)"
       x1="383.28857"
       y1="0"
       x2="383.28857"
       y2="218.48047" />
    <linearGradient
       id="SVGID_1_-4"
       gradientUnits="userSpaceOnUse"
       x1="383.28857"
       y1="0"
       x2="383.28857"
       y2="218.48047">
      <stop
         offset="0.005618"
         style="stop-color:#ED2828"
         id="stop3143-2" />
      <stop
         offset="0.5"
         style="stop-color:#EF3B39"
         id="stop3145-1" />
      <stop
         offset="0.994382"
         style="stop-color:#C02126"
         id="stop3147-3" />
    </linearGradient>
    <linearGradient
       y2="180.6748"
       x2="175.30762"
       y1="73.254395"
       x1="175.30762"
       gradientUnits="userSpaceOnUse"
       id="linearGradient3749-5">
      <stop
         id="stop3751-8"
         style="stop-color:#000000;stop-opacity:1;"
         offset="0" />
      <stop
         id="stop3753-7"
         style="stop-color:#000000;stop-opacity:0.4728682;"
         offset="0.99438202" />
    </linearGradient>
    <linearGradient
       inkscape:collect="always"
       xlink:href="#linearGradient3749-5"
       id="linearGradient3754"
       gradientUnits="userSpaceOnUse"
       gradientTransform="matrix(0.04164302,0,0,0.03408859,1.9444673,0.78644322)"
       x1="175.30762"
       y1="73.254395"
       x2="175.30762"
       y2="180.6748" />
    <linearGradient
       inkscape:collect="always"
       xlink:href="#linearGradient3749-5"
       id="linearGradient3756"
       gradientUnits="userSpaceOnUse"
       gradientTransform="matrix(0.04998763,0,0,0.03408859,2.4795353,0.78644322)"
       x1="175.30762"
       y1="73.254395"
       x2="175.30762"
       y2="180.6748" />
    <linearGradient
       y2="180.6748"
       x2="175.30762"
       y1="73.254395"
       x1="175.30762"
       gradientTransform="matrix(0.04859283,0,0,0.03408859,3.115962,0.78644322)"
       gradientUnits="userSpaceOnUse"
       id="linearGradient3809"
       xlink:href="#linearGradient3749-5"
       inkscape:collect="always" />
    <inkscape:perspective
       id="perspective3729"
       inkscape:persp3d-origin="0.5 : 0.33333333 : 1"
       inkscape:vp_z="1 : 0.5 : 1"
       inkscape:vp_y="0 : 1000 : 0"
       inkscape:vp_x="0 : 0.5 : 1"
       sodipodi:type="inkscape:persp3d" />
    <linearGradient
       inkscape:collect="always"
       xlink:href="#linearGradient3696"
       id="linearGradient4163"
       x1="6"
       y1="48"
       x2="90"
       y2="48"
       gradientUnits="userSpaceOnUse"
       gradientTransform="translate(-96,0)" />
    <linearGradient
       id="linearGradient3696">
      <stop
         id="stop3698"
         offset="0"
         style="stop-color:#2458a6;stop-opacity:1;" />
      <stop
         id="stop3700"
         offset="1"
         style="stop-color:#598ad4;stop-opacity:1;" />
    </linearGradient>
    <linearGradient
       y2="48"
       x2="90"
       y1="48"
       x1="6"
       gradientTransform="translate(-52.867199,-57.252856)"
       gradientUnits="userSpaceOnUse"
       id="linearGradient3738"
       xlink:href="#linearGradient3696"
       inkscape:collect="always" />
    <inkscape:perspective
       id="perspective3703"
       inkscape:persp3d-origin="0.5 : 0.33333333 : 1"
       inkscape:vp_z="1 : 0.5 : 1"
       inkscape:vp_y="0 : 1000 : 0"
       inkscape:vp_x="0 : 0.5 : 1"
       sodipodi:type="inkscape:persp3d" />
    <linearGradient
       gradientTransform="matrix(0.19388162,0,0,0.19388162,-1.4007219,-1.9461429)"
       inkscape:collect="always"
       xlink:href="#linearGradient4099"
       id="linearGradient4113"
       x1="22.111456"
       y1="62.983868"
       x2="40"
       y2="32"
       gradientUnits="userSpaceOnUse" />
    <linearGradient
       id="linearGradient4099">
      <stop
         style="stop-color:#9ede27;stop-opacity:1;"
         offset="0"
         id="stop4101" />
      <stop
         style="stop-color:#c8f16b;stop-opacity:1;"
         offset="1"
         id="stop4103" />
    </linearGradient>
    <linearGradient
       gradientTransform="matrix(0.19388162,0,0,0.19388162,-1.5256152,-1.9461429)"
       inkscape:collect="always"
       xlink:href="#linearGradient4099"
       id="linearGradient4105"
       x1="38"
       y1="74"
       x2="70"
       y2="49"
       gradientUnits="userSpaceOnUse" />
    <linearGradient
       id="linearGradient3712">
      <stop
         style="stop-color:#9ede27;stop-opacity:1;"
         offset="0"
         id="stop3714" />
      <stop
         style="stop-color:#c8f16b;stop-opacity:1;"
         offset="1"
         id="stop3716" />
    </linearGradient>
    <linearGradient
       inkscape:collect="always"
       xlink:href="#linearGradient3799-3"
       id="linearGradient3746"
       gradientUnits="userSpaceOnUse"
       x1="56.037025"
       y1="49.333305"
       x2="56.037025"
       y2="13.593002"
       gradientTransform="matrix(0.26518093,0,0,0.26518093,-0.34872536,-3.7081516)" />
    <linearGradient
       id="linearGradient3799-3">
      <stop
         style="stop-color:#1a1a1a;stop-opacity:1;"
         offset="0"
         id="stop3801-3" />
      <stop
         style="stop-color:#000000;stop-opacity:1;"
         offset="1"
         id="stop3803-2" />
    </linearGradient>
    <linearGradient
       y2="13.593002"
       x2="56.037025"
       y1="49.333305"
       x1="56.037025"
       gradientTransform="matrix(0.19388162,0,0,0.19388162,-1.3401963,-1.8843368)"
       gradientUnits="userSpaceOnUse"
       id="linearGradient3726"
       xlink:href="#linearGradient3799-3"
       inkscape:collect="always" />
    <inkscape:perspective
       id="perspective3736"
       inkscape:persp3d-origin="0.5 : 0.33333333 : 1"
       inkscape:vp_z="1 : 0.5 : 1"
       inkscape:vp_y="0 : 1000 : 0"
       inkscape:vp_x="0 : 0.5 : 1"
       sodipodi:type="inkscape:persp3d" />
    <radialGradient
       inkscape:collect="always"
       xlink:href="#linearGradient3784-2"
       id="radialGradient3758"
       gradientUnits="userSpaceOnUse"
       gradientTransform="matrix(1.0456205,0.08243661,-0.05194947,0.90987799,0.84943041,1.3399685)"
       cx="49.580967"
       cy="67.04126"
       fx="49.580967"
       fy="67.04126"
       r="10" />
    <linearGradient
       id="linearGradient3784-2">
      <stop
         id="stop3786-4"
         offset="0"
         style="stop-color:#a0a0a0;stop-opacity:1;" />
      <stop
         id="stop3790-2"
         offset="1"
         style="stop-color:#1a1a1a;stop-opacity:1;" />
    </linearGradient>
    <radialGradient
       r="10"
       fy="67.04126"
       fx="49.580967"
       cy="67.04126"
       cx="49.580967"
       gradientTransform="matrix(1.0456205,0.08243661,-0.05194947,0.90987799,0.84943041,1.3399685)"
       gradientUnits="userSpaceOnUse"
       id="radialGradient3745"
       xlink:href="#linearGradient3784-2"
       inkscape:collect="always" />
    <radialGradient
       inkscape:collect="always"
       xlink:href="#linearGradient3784-2"
       id="radialGradient3698"
       cx="10.116978"
       cy="6.5340972"
       fx="10.116978"
       fy="6.5340972"
       r="2.6487656"
       gradientTransform="matrix(0.60548597,-0.18291744,0.13322228,0.44098703,0.81853832,7.6996387)"
       gradientUnits="userSpaceOnUse" />
    <linearGradient
       inkscape:collect="always"
       xlink:href="#linearGradient3831"
       id="linearGradient5524"
       gradientUnits="userSpaceOnUse"
       spreadMethod="reflect"
       x1="7"
       y1="18.5"
       x2="12"
       y2="18.5"
       gradientTransform="translate(-20,-16)" />
    <linearGradient
       id="linearGradient3831">
      <stop
         style="stop-color:#ffffff;stop-opacity:1;"
         offset="0"
         id="stop3833" />
      <stop
         id="stop3821"
         offset="0.75"
         style="stop-color:#ffffff;stop-opacity:0.49803922;" />
      <stop
         style="stop-color:#ffffff;stop-opacity:0;"
         offset="1"
         id="stop3835" />
    </linearGradient>
    <linearGradient
       inkscape:collect="always"
       xlink:href="#linearGradient3823"
       id="linearGradient5522"
       gradientUnits="userSpaceOnUse"
       gradientTransform="matrix(1,0,0,-1,-7.880628,21.258198)"
       x1="-3.0607977"
       y1="27.258198"
       x2="-3.0607977"
       y2="20.258198" />
    <linearGradient
       id="linearGradient3823">
      <stop
         id="stop3825"
         offset="0"
         style="stop-color:#ffffff;stop-opacity:1;" />
      <stop
         id="stop3829"
         offset="1"
         style="stop-color:#ffffff;stop-opacity:0;" />
    </linearGradient>
    <linearGradient
       gradientTransform="translate(-30,-6)"
       inkscape:collect="always"
       xlink:href="#linearGradient3831"
       id="linearGradient5516"
       x1="7"
       y1="18.5"
       x2="12"
       y2="18.5"
       gradientUnits="userSpaceOnUse"
       spreadMethod="reflect" />
    <linearGradient
       id="linearGradient3108">
      <stop
         style="stop-color:#ffffff;stop-opacity:1;"
         offset="0"
         id="stop3110" />
      <stop
         id="stop3112"
         offset="0.75"
         style="stop-color:#ffffff;stop-opacity:0.49803922;" />
      <stop
         style="stop-color:#ffffff;stop-opacity:0;"
         offset="1"
         id="stop3114" />
    </linearGradient>
    <linearGradient
       inkscape:collect="always"
       xlink:href="#linearGradient3823"
       id="linearGradient5508"
       gradientUnits="userSpaceOnUse"
       gradientTransform="matrix(1,0,0,-1,-17.880628,31.258198)"
       x1="-3.0607977"
       y1="27.258198"
       x2="-3.0607977"
       y2="20.258198" />
    <linearGradient
       id="linearGradient3117">
      <stop
         id="stop3119"
         offset="0"
         style="stop-color:#ffffff;stop-opacity:1;" />
      <stop
         id="stop3121"
         offset="1"
         style="stop-color:#ffffff;stop-opacity:0;" />
    </linearGradient>
    <linearGradient
       inkscape:collect="always"
       xlink:href="#linearGradient3715"
       id="linearGradient3745"
       gradientUnits="userSpaceOnUse"
       gradientTransform="matrix(0,1,-1,0,4,-8)"
       x1="4"
       y1="17"
       x2="10"
       y2="17" />
    <linearGradient
       inkscape:collect="always"
       id="linearGradient3715">
      <stop
         style="stop-color:#ffffff;stop-opacity:1;"
         offset="0"
         id="stop3717" />
      <stop
         style="stop-color:#ffffff;stop-opacity:0;"
         offset="1"
         id="stop3719" />
    </linearGradient>
    <linearGradient
       inkscape:collect="always"
       xlink:href="#linearGradient3769"
       id="linearGradient3743"
       gradientUnits="userSpaceOnUse"
       gradientTransform="translate(-7.880628,-23.258198)"
       x1="-3.0607977"
       y1="27.258198"
       x2="-3.0607977"
       y2="17.202324" />
    <linearGradient
       id="linearGradient3769">
      <stop
         id="stop3771"
         offset="0"
         style="stop-color:#ea880b;stop-opacity:1;" />
      <stop
         id="stop3773"
         offset="1"
         style="stop-color:#f7cc2e;stop-opacity:1;" />
    </linearGradient>
    <linearGradient
       inkscape:collect="always"
       xlink:href="#linearGradient3715"
       id="linearGradient3721"
       x1="4"
       y1="17"
       x2="10"
       y2="17"
       gradientUnits="userSpaceOnUse"
       gradientTransform="matrix(0,0.66666667,-0.66666667,0,15.333333,7.3333333)" />
    <linearGradient
       inkscape:collect="always"
       xlink:href="#linearGradient3678"
       id="linearGradient3692"
       gradientUnits="userSpaceOnUse"
       x1="7"
       y1="4"
       x2="7"
       y2="9"
       gradientTransform="translate(-20,2)" />
    <linearGradient
       inkscape:collect="always"
       id="linearGradient3678">
      <stop
         style="stop-color:#ffffff;stop-opacity:1;"
         offset="0"
         id="stop3680" />
      <stop
         style="stop-color:#ffffff;stop-opacity:0;"
         offset="1"
         id="stop3682" />
    </linearGradient>
    <linearGradient
       inkscape:collect="always"
       xlink:href="#linearGradient3881"
       id="linearGradient3690"
       gradientUnits="userSpaceOnUse"
       gradientTransform="translate(-5.880628,-15.258198)"
       x1="-3.0607977"
       y1="27.258198"
       x2="-3.0607977"
       y2="21.257912" />
    <linearGradient
       id="linearGradient3881">
      <stop
         id="stop3883"
         offset="0"
         style="stop-color:#1d56a5;stop-opacity:1;" />
      <stop
         id="stop3885"
         offset="1"
         style="stop-color:#5e97ea;stop-opacity:1;" />
    </linearGradient>
    <linearGradient
       gradientTransform="translate(-30,-8)"
       inkscape:collect="always"
       xlink:href="#linearGradient3678"
       id="linearGradient3684"
       x1="7"
       y1="4"
       x2="7"
       y2="9"
       gradientUnits="userSpaceOnUse" />
    <linearGradient
       inkscape:collect="always"
       xlink:href="#linearGradient3881"
       id="linearGradient2878"
       gradientUnits="userSpaceOnUse"
       gradientTransform="translate(-16.880628,-24.258198)"
       x1="-3.0607977"
       y1="27.258198"
       x2="-3.0607977"
       y2="21.257912" />
    <linearGradient
       id="linearGradient3154">
      <stop
         id="stop3156"
         offset="0"
         style="stop-color:#1d56a5;stop-opacity:1;" />
      <stop
         id="stop3158"
         offset="1"
         style="stop-color:#5e97ea;stop-opacity:1;" />
    </linearGradient>
    <linearGradient
       inkscape:collect="always"
       xlink:href="#linearGradient3769"
       id="linearGradient3181"
       x1="-3.0607977"
       y1="27.258198"
       x2="-3.0607977"
       y2="17.202324"
       gradientUnits="userSpaceOnUse"
       gradientTransform="translate(12.119372,-7.2581977)" />
    <linearGradient
       id="linearGradient3161">
      <stop
         id="stop3163"
         offset="0"
         style="stop-color:#ea880b;stop-opacity:1;" />
      <stop
         id="stop3165"
         offset="1"
         style="stop-color:#f7cc2e;stop-opacity:1;" />
    </linearGradient>
    <linearGradient
       y2="17.202324"
       x2="-3.0607977"
       y1="27.258198"
       x1="-3.0607977"
       gradientTransform="translate(10.119372,-9.258198)"
       gradientUnits="userSpaceOnUse"
       id="linearGradient3185"
       xlink:href="#linearGradient3769"
       inkscape:collect="always" />
    <linearGradient
       inkscape:collect="always"
       xlink:href="#linearGradient3769"
       id="linearGradient3210"
       gradientUnits="userSpaceOnUse"
       gradientTransform="translate(-9.880628,-21.258198)"
       x1="-3.0607977"
       y1="27.258198"
       x2="-3.0607977"
       y2="17.202324" />
    <linearGradient
       inkscape:collect="always"
       xlink:href="#linearGradient3715"
       id="linearGradient3212"
       gradientUnits="userSpaceOnUse"
       gradientTransform="matrix(0,0.66666667,-0.66666667,0,23.333333,-0.6666667)"
       x1="4"
       y1="17"
       x2="10"
       y2="17" />
    <linearGradient
       inkscape:collect="always"
       xlink:href="#linearGradient3881"
       id="linearGradient3216"
       gradientUnits="userSpaceOnUse"
       gradientTransform="translate(-8.880628,-16.258198)"
       x1="-3.0607977"
       y1="27.258198"
       x2="-3.0607977"
       y2="21.257912" />
    <linearGradient
       inkscape:collect="always"
       xlink:href="#linearGradient3769"
       id="linearGradient3226"
       gradientUnits="userSpaceOnUse"
       gradientTransform="translate(-17.880628,-13.258198)"
       x1="-3.0607977"
       y1="27.258198"
       x2="-3.0607977"
       y2="17.202324" />
    <linearGradient
       inkscape:collect="always"
       xlink:href="#linearGradient3769"
       id="linearGradient3231"
       gradientUnits="userSpaceOnUse"
       gradientTransform="translate(-17.880628,-13.258198)"
       x1="-3.0607977"
       y1="27.258198"
       x2="-3.0607977"
       y2="17.202324" />
    <linearGradient
       inkscape:collect="always"
       xlink:href="#linearGradient3769"
       id="linearGradient3235"
       gradientUnits="userSpaceOnUse"
       gradientTransform="translate(-17.880628,-13.258198)"
       x1="-3.0607977"
       y1="27.258198"
       x2="-3.0607977"
       y2="17.202324" />
    <linearGradient
       inkscape:collect="always"
       xlink:href="#linearGradient3769"
       id="linearGradient3237"
       gradientUnits="userSpaceOnUse"
       gradientTransform="translate(-17.880628,-13.258198)"
       x1="-3.0607977"
       y1="27.258198"
       x2="-3.0607977"
       y2="17.202324" />
    <linearGradient
       inkscape:collect="always"
       xlink:href="#linearGradient3327"
       id="linearGradient4008"
       gradientUnits="userSpaceOnUse"
       gradientTransform="translate(10.119372,-9.258198)"
       x1="-3.1193719"
       y1="25.258198"
       x2="-3.1193719"
       y2="-4.7418022" />
    <linearGradient
       inkscape:collect="always"
       xlink:href="#linearGradient3881"
       id="linearGradient4010"
       gradientUnits="userSpaceOnUse"
       gradientTransform="translate(19.119372,-12.258198)"
       x1="-3.0607977"
       y1="27.258198"
       x2="-3.0607977"
       y2="21.257912" />
    <linearGradient
       inkscape:collect="always"
       xlink:href="#linearGradient3769"
       id="linearGradient4012"
       gradientUnits="userSpaceOnUse"
       gradientTransform="translate(18.119372,-17.258198)"
       x1="-3.0607977"
       y1="27.258198"
       x2="-3.0607977"
       y2="17.202324" />
    <linearGradient
       inkscape:collect="always"
       xlink:href="#linearGradient3881"
       id="linearGradient4014"
       gradientUnits="userSpaceOnUse"
       gradientTransform="translate(11.119372,-20.258198)"
       x1="-3.0607977"
       y1="27.258198"
       x2="-3.0607977"
       y2="21.257912" />
    <linearGradient
       inkscape:collect="always"
       xlink:href="#linearGradient3769"
       id="linearGradient4024"
       gradientUnits="userSpaceOnUse"
       gradientTransform="translate(10.119372,-9.258198)"
       x1="-3.0607977"
       y1="27.258198"
       x2="-3.0607977"
       y2="17.202324" />
  </defs>
  <sodipodi:namedview
     id="base"
     pagecolor="#ffffff"
     bordercolor="#e7e7e7"
     borderopacity="1"
     inkscape:pageopacity="0.0"
     inkscape:pageshadow="2"
     inkscape:zoom="18.590744"
     inkscape:cx="-5.5885645"
     inkscape:cy="7.0506069"
     inkscape:document-units="px"
     inkscape:current-layer="layer1"
     showgrid="true"
     inkscape:showpageshadow="false"
     showguides="false"
     inkscape:guide-bbox="true"
     inkscape:window-width="1920"
     inkscape:window-height="1028"
     inkscape:window-x="0"
     inkscape:window-y="25"
     inkscape:window-maximized="1"
     inkscape:snap-global="true">
    <sodipodi:guide
       orientation="1,0"
       position="0,112"
       id="guide2383" />
    <sodipodi:guide
       orientation="0,1"
       position="26.278146,128"
       id="guide2385" />
    <sodipodi:guide
       orientation="1,0"
       position="128,54.082119"
       id="guide2387" />
    <sodipodi:guide
       orientation="0,1"
       position="78.156291,0"
       id="guide2389" />
    <sodipodi:guide
       orientation="0,1"
       position="60.863576,64.084768"
       id="guide2391" />
    <inkscape:grid
       type="xygrid"
       id="grid3672"
       visible="true"
       enabled="true" />
  </sodipodi:namedview>
  <metadata
     id="metadata7">
    <rdf:RDF>
      <cc:Work
         rdf:about="">
        <dc:format>image/svg+xml</dc:format>
        <dc:type
           rdf:resource="http://purl.org/dc/dcmitype/StillImage" />
        <dc:title></dc:title>
      </cc:Work>
    </rdf:RDF>
  </metadata>
  <g
     inkscape:label="Button"
     inkscape:groupmode="layer"
     id="layer1">
    <rect
       ry="2"
       rx="2"
       y="28"
       x="-16"
       height="16"
       width="16"
       id="rect3196"
       style="fill:url(#linearGradient3204);fill-opacity:1;fill-rule:nonzero;stroke:none"
       transform="matrix(0,-1,1,0,0,0)" />
    <path
       style="opacity:0.4;fill:url(#linearGradient3629);fill-opacity:1;fill-rule:nonzero;stroke:none"
       d="m 28,14 c 0,1.108 0.892,2 2,2 l 12,0 c 1.108,0 2,-0.892 2,-2 L 44,2 C 44,0.892 43.108,0 42,0 L 30,0 c -1.108,0 -2,0.892 -2,2 l 0,12 z m 0.96875,0 0,-12 c 0,-0.583199 0.448051,-1.03125 1.03125,-1.03125 l 12,0 c 0.583199,0 1.03125,0.448051 1.03125,1.03125 l 0,12 c 0,0.583199 -0.448051,1.03125 -1.03125,1.03125 l -12,0 c -0.583199,0 -1.03125,-0.448051 -1.03125,-1.03125 z"
       id="rect2835"
       inkscape:connector-curvature="0" />
    <path
       style="opacity:0.35;fill:#ffffff;fill-opacity:1;fill-rule:nonzero;stroke:none"
       d="m 30,0.96875 c -0.583199,0 -1.03125,0.4480507 -1.03125,1.03125 l 0,1 c 0,-0.5831993 0.448051,-1.03125 1.03125,-1.03125 l 12,0 c 0.583199,0 1.03125,0.4480507 1.03125,1.03125 l 0,-1 C 43.03125,1.4168007 42.583199,0.96875 42,0.96875 l -12,0 z"
       id="path2843"
       inkscape:connector-curvature="0" />
    <rect
       style="fill:url(#linearGradient3185);fill-opacity:1;fill-rule:evenodd;stroke:none;display:inline"
       id="rect3173"
       width="8"
       height="8"
       x="0"
       y="8"
       rx="2"
       ry="2" />
    <rect
       style="fill:url(#linearGradient4014);fill-opacity:1;fill-rule:evenodd;stroke:none;display:inline"
       id="rect2876"
       width="6"
       height="5.9999948"
       x="1"
       y="1"
       rx="1"
       ry="1" />
    <path
       inkscape:connector-curvature="0"
       style="opacity:0.5;fill:url(#linearGradient3721);fill-opacity:1;stroke:none;display:inline"
       d="m 6,10 -4,0 0,4 4,0 0,-4 z"
       id="path3713" />
    <path
       inkscape:connector-curvature="0"
       style="opacity:0.15;fill:#ffffff;stroke:none;display:inline"
       d="M 2,8 C 1.446,8 0.95525,8.23225 0.59375,8.59375 L 2,10 6,10 7.40625,8.59375 C 7.04475,8.23225 6.554,8 6,8 z"
       id="path3723"
       sodipodi:nodetypes="sccccss" />
    <path
       inkscape:connector-curvature="0"
       id="path3729"
       d="M 8,10 C 8,9.446 7.76775,8.95525 7.40625,8.59375 L 6,10 6,14 7.40625,15.40625 C 7.76775,15.04475 8,14.554 8,14 z"
       style="opacity:0.1;fill:#803300;stroke:none;display:inline"
       inkscape:transform-center-x="-4"
       sodipodi:nodetypes="sccccss" />
    <path
       inkscape:connector-curvature="0"
       style="opacity:0.2;fill:#803300;stroke:none;display:inline"
       d="m 6,16 c 0.554,0 1.04475,-0.23225 1.40625,-0.59375 L 6,14 2,14 0.59375,15.40625 C 0.95525,15.76775 1.446,16 2,16 z"
       id="path3731"
       inkscape:transform-center-y="4"
       sodipodi:nodetypes="sccccss" />
    <rect
       ry="2"
       rx="2"
       y="0"
       x="8"
       height="8"
       width="8"
       id="rect3200"
       style="fill:url(#linearGradient4012);fill-opacity:1;fill-rule:evenodd;stroke:none;display:inline" />
    <path
       id="path3202"
       d="m 14,2 -4,0 0,4 4,0 0,-4 z"
       style="opacity:0.5;fill:url(#linearGradient3212);fill-opacity:1;stroke:none;display:inline"
       inkscape:connector-curvature="0" />
    <path
       sodipodi:nodetypes="sccccss"
       id="path3204"
       d="M 10,0 C 9.446,0 8.95525,0.23225 8.59375,0.59375 L 10,2 14,2 15.40625,0.59375 C 15.04475,0.23225 14.554,0 14,0 z"
       style="opacity:0.15;fill:#ffffff;stroke:none;display:inline"
       inkscape:connector-curvature="0" />
    <path
       sodipodi:nodetypes="sccccss"
       inkscape:transform-center-x="-4"
       style="opacity:0.1;fill:#803300;stroke:none;display:inline"
       d="M 16,2 C 16,1.446 15.76775,0.95525 15.40625,0.59375 L 14,2 14,6 15.40625,7.40625 C 15.76775,7.04475 16,6.554 16,6 z"
       id="path3206"
       inkscape:connector-curvature="0" />
    <path
       sodipodi:nodetypes="sccccss"
       inkscape:transform-center-y="4"
       id="path3208"
       d="m 14,8 c 0.554,0 1.04475,-0.23225 1.40625,-0.59375 L 14,6 10,6 8.59375,7.40625 C 8.95525,7.76775 9.446,8 10,8 z"
       style="opacity:0.2;fill:#803300;stroke:none;display:inline"
       inkscape:connector-curvature="0" />
    <rect
       ry="1"
       rx="1"
       y="9"
       x="9"
       height="5.9999948"
       width="6"
       id="rect3214"
       style="fill:url(#linearGradient4010);fill-opacity:1;fill-rule:evenodd;stroke:none;display:inline" />
    <path
       style="opacity:0.4;fill:url(#linearGradient4008);fill-opacity:1;fill-rule:evenodd;stroke:none;display:inline"
       d="M 10,0 C 8.892,0 8,0.892 8,2 l 0,4 c 0,1.108 0.892,2 2,2 l 4,0 c 1.108,0 2,-0.892 2,-2 L 16,2 C 16,0.892 15.108,0 14,0 L 10,0 z M 2,1 C 1.446,1 1,1.446 1,2 L 1,6 C 1,6.554 1.446,7 2,7 L 6,7 C 6.554,7 7,6.554 7,6 L 7,2 C 7,1.446 6.554,1 6,1 L 2,1 z m 8,0 4,0 c 0.575657,0 1,0.4243427 1,1 l 0,4 c 0,0.5756573 -0.424343,1 -1,1 L 10,7 C 9.424343,7 9,6.5756573 9,6 L 9,2 C 9,1.4243427 9.424343,1 10,1 z M 2,2 6,2 6,6 2,6 2,2 z M 2,8 C 0.892,8 0,8.892 0,10 l 0,4 c 0,1.108 0.892,2 2,2 l 4,0 c 1.108,0 2,-0.892 2,-2 L 8,10 C 8,8.892 7.108,8 6,8 L 2,8 z m 0,1 4,0 c 0.575657,0 1,0.4243427 1,1 l 0,4 c 0,0.575657 -0.424343,1 -1,1 L 2,15 C 1.424343,15 1,14.575657 1,14 L 1,10 C 1,9.4243427 1.424343,9 2,9 z m 8,0 C 9.446,9 9,9.446 9,10 l 0,4 c 0,0.554 0.446,1 1,1 l 4,0 c 0.554,0 1,-0.446 1,-1 l 0,-4 C 15,9.446 14.554,9 14,9 l -4,0 z m 0,1 4,0 0,4 -4,0 0,-4 z"
       id="rect3218"
       inkscape:connector-curvature="0" />
    <path
       style="fill:#ffffff;fill-opacity:1;fill-rule:evenodd;stroke:none;display:inline;opacity:0.2"
       d="M 10 1.0625 C 9.4693871 1.0625 9.0625 1.4693871 9.0625 2 L 9.0625 3 C 9.0625 2.4693871 9.4693871 2.0625 10 2.0625 L 14 2.0625 C 14.530613 2.0625 14.9375 2.4693871 14.9375 3 L 14.9375 2 C 14.9375 1.4693871 14.530613 1.0625 14 1.0625 L 10 1.0625 z M 2.0625 2.0625 L 2.0625 3.0625 L 5.9375 3.0625 L 5.9375 2.0625 L 2.0625 2.0625 z M 2 9.0625 C 1.4693871 9.0625 1.0625 9.4693871 1.0625 10 L 1.0625 11 C 1.0625 10.469387 1.4693871 10.0625 2 10.0625 L 6 10.0625 C 6.5306129 10.0625 6.9375 10.469387 6.9375 11 L 6.9375 10 C 6.9375 9.4693871 6.5306129 9.0625 6 9.0625 L 2 9.0625 z M 10.0625 10.0625 L 10.0625 11.0625 L 13.9375 11.0625 L 13.9375 10.0625 L 10.0625 10.0625 z "
       id="path4027" />
  </g>
</svg>
