<?xml version="1.0" encoding="UTF-8" standalone="no"?>
<!-- Created with Inkscape (http://www.inkscape.org/) -->

<svg
   xmlns:dc="http://purl.org/dc/elements/1.1/"
   xmlns:cc="http://creativecommons.org/ns#"
   xmlns:rdf="http://www.w3.org/1999/02/22-rdf-syntax-ns#"
   xmlns:svg="http://www.w3.org/2000/svg"
   xmlns="http://www.w3.org/2000/svg"
   xmlns:xlink="http://www.w3.org/1999/xlink"
   xmlns:sodipodi="http://sodipodi.sourceforge.net/DTD/sodipodi-0.dtd"
   xmlns:inkscape="http://www.inkscape.org/namespaces/inkscape"
   width="16"
   height="16"
   id="svg2"
   sodipodi:version="0.32"
   inkscape:version="0.47 r22583"
   version="1.0"
   sodipodi:docname="inkscape.svg"
   inkscape:output_extension="org.inkscape.output.svg.inkscape"
   style="display:inline">
  <defs
     id="defs4">
    <inkscape:perspective
       sodipodi:type="inkscape:persp3d"
       inkscape:vp_x="0 : 8 : 1"
       inkscape:vp_y="0 : 1000 : 0"
       inkscape:vp_z="16 : 8 : 1"
       inkscape:persp3d-origin="8 : 5.3333333 : 1"
       id="perspective26" />
    <linearGradient
       inkscape:collect="always"
       id="linearGradient3327">
      <stop
         style="stop-color:#000000;stop-opacity:1;"
         offset="0"
         id="stop3330" />
      <stop
         style="stop-color:#000000;stop-opacity:0;"
         offset="1"
         id="stop3333" />
    </linearGradient>
    <linearGradient
       id="ButtonColor"
       x1="10.31979"
       y1="21"
       x2="10.31979"
       y2="0.99929649"
       gradientUnits="userSpaceOnUse">
      <stop
         style="stop-color:#29669f;stop-opacity:1;"
         offset="0"
         id="stop3189" />
      <stop
         style="stop-color:#88b6e0;stop-opacity:1;"
         offset="1"
         id="stop3191" />
    </linearGradient>
    <linearGradient
       inkscape:collect="always"
       xlink:href="#linearGradient3327"
       id="linearGradient3192"
       x1="9.0574636"
       y1="10.202822"
       x2="9.0574636"
       y2="-12.198761"
       gradientUnits="userSpaceOnUse"
       gradientTransform="translate(0,5.8006549)" />
    <linearGradient
       inkscape:collect="always"
       xlink:href="#ButtonColor-1"
       id="linearGradient3204"
       x1="1"
       y1="9"
       x2="15"
       y2="9"
       gradientUnits="userSpaceOnUse"
       gradientTransform="translate(-17,-2)" />
    <linearGradient
       inkscape:collect="always"
       xlink:href="#ButtonColor"
       id="linearGradient3173"
       gradientUnits="userSpaceOnUse"
       gradientTransform="translate(-16,-1)"
       x1="1"
       y1="9"
       x2="15"
       y2="9" />
    <linearGradient
       inkscape:collect="always"
       xlink:href="#ButtonColor"
       id="linearGradient3177"
       gradientUnits="userSpaceOnUse"
       gradientTransform="translate(-16,-1)"
       x1="1"
       y1="9"
       x2="15"
       y2="9" />
    <linearGradient
       inkscape:collect="always"
       xlink:href="#ButtonColor"
       id="linearGradient3179"
       gradientUnits="userSpaceOnUse"
       gradientTransform="matrix(0,-1,1,0,-1,16)"
       x1="1"
       y1="9"
       x2="15"
       y2="9" />
    <linearGradient
       inkscape:collect="always"
       xlink:href="#linearGradient3327"
       id="linearGradient3612"
       x1="8"
       y1="15"
       x2="8"
       y2="-1"
       gradientUnits="userSpaceOnUse" />
    <linearGradient
       inkscape:collect="always"
       xlink:href="#linearGradient3327"
       id="linearGradient3629"
       x1="0"
       y1="8"
       x2="29.017237"
       y2="8"
       gradientUnits="userSpaceOnUse"
       gradientTransform="matrix(0,-1,1,0,0,16)" />
    <inkscape:perspective
       id="perspective2930"
       inkscape:persp3d-origin="0.5 : 0.33333333 : 1"
       inkscape:vp_z="1 : 0.5 : 1"
       inkscape:vp_y="0 : 1000 : 0"
       inkscape:vp_x="0 : 0.5 : 1"
       sodipodi:type="inkscape:persp3d" />
    <linearGradient
       inkscape:collect="always"
       xlink:href="#ButtonColor-1"
       id="linearGradient3181"
       x1="-3.0607977"
       y1="27.258198"
       x2="-3.0607977"
       y2="7.2536583"
       gradientUnits="userSpaceOnUse"
       gradientTransform="translate(11.119372,-6.2581974)" />
    <linearGradient
       id="ButtonColor-1"
       x1="10.31979"
       y1="21"
       x2="10.31979"
       y2="0.99929649"
       gradientUnits="userSpaceOnUse">
      <stop
         style="stop-color:#bd9c5b;stop-opacity:1;"
         offset="0"
         id="stop3189-2" />
      <stop
         style="stop-color:#fbdd96;stop-opacity:1;"
         offset="1"
         id="stop3191-1" />
    </linearGradient>
    <linearGradient
       y2="7.2536583"
       x2="-3.0607977"
       y1="27.258198"
       x1="-3.0607977"
       gradientTransform="translate(6.119372,-18.258197)"
       gradientUnits="userSpaceOnUse"
       id="linearGradient2939"
       xlink:href="#ButtonColor-1"
       inkscape:collect="always" />
    <inkscape:perspective
       id="perspective2949"
       inkscape:persp3d-origin="0.5 : 0.33333333 : 1"
       inkscape:vp_z="1 : 0.5 : 1"
       inkscape:vp_y="0 : 1000 : 0"
       inkscape:vp_x="0 : 0.5 : 1"
       sodipodi:type="inkscape:persp3d" />
    <linearGradient
       inkscape:collect="always"
       xlink:href="#linearGradient3599"
       id="linearGradient4082"
       gradientUnits="userSpaceOnUse"
       gradientTransform="matrix(0.06536386,0.13532328,0.14984186,-0.02798763,-6.4645687,2.5870695)"
       x1="62.75"
       y1="96.26342"
       x2="49"
       y2="82.75" />
    <linearGradient
       id="linearGradient3599">
      <stop
         style="stop-color:#000000;stop-opacity:0.41960785;"
         offset="0"
         id="stop3601" />
      <stop
         style="stop-color:#98713b;stop-opacity:0;"
         offset="1"
         id="stop3603" />
    </linearGradient>
    <linearGradient
       inkscape:collect="always"
       xlink:href="#linearGradient3599"
       id="linearGradient4085"
       gradientUnits="userSpaceOnUse"
       gradientTransform="matrix(0.12998086,0,0,0.12997919,-0.39791611,0.0611436)"
       x1="62.75"
       y1="96.26342"
       x2="49"
       y2="82.75" />
    <linearGradient
       id="linearGradient2958">
      <stop
         style="stop-color:#000000;stop-opacity:0.41960785;"
         offset="0"
         id="stop2960" />
      <stop
         style="stop-color:#98713b;stop-opacity:0;"
         offset="1"
         id="stop2962" />
    </linearGradient>
    <linearGradient
       inkscape:collect="always"
       xlink:href="#linearGradient3581"
       id="linearGradient4092"
       gradientUnits="userSpaceOnUse"
       gradientTransform="matrix(0.15350278,0,0,0.15350081,-1.9962842,-0.3874339)"
       x1="59.710438"
       y1="23.204762"
       x2="74.153046"
       y2="43.247578" />
    <linearGradient
       inkscape:collect="always"
       id="linearGradient3581">
      <stop
         style="stop-color:#ffffff;stop-opacity:1;"
         offset="0"
         id="stop3583" />
      <stop
         style="stop-color:#ffffff;stop-opacity:0;"
         offset="1"
         id="stop3585" />
    </linearGradient>
    <linearGradient
       inkscape:collect="always"
       xlink:href="#linearGradient3599"
       id="linearGradient4095"
       gradientUnits="userSpaceOnUse"
       gradientTransform="matrix(0.12998086,0,0,0.12997919,-0.39791611,0.0611436)"
       x1="41.530895"
       y1="65.389084"
       x2="62.394035"
       y2="68.389084" />
    <linearGradient
       id="linearGradient2969">
      <stop
         style="stop-color:#000000;stop-opacity:0.41960785;"
         offset="0"
         id="stop2971" />
      <stop
         style="stop-color:#98713b;stop-opacity:0;"
         offset="1"
         id="stop2973" />
    </linearGradient>
    <linearGradient
       inkscape:collect="always"
       xlink:href="#linearGradient3599"
       id="linearGradient4098"
       gradientUnits="userSpaceOnUse"
       gradientTransform="matrix(0.1689653,0,0,0.1689653,0.08334327,-0.06292667)"
       x1="66.300034"
       y1="62.345222"
       x2="83.323959"
       y2="117.09522" />
    <linearGradient
       id="linearGradient2976">
      <stop
         style="stop-color:#000000;stop-opacity:0.41960785;"
         offset="0"
         id="stop2978" />
      <stop
         style="stop-color:#98713b;stop-opacity:0;"
         offset="1"
         id="stop2980" />
    </linearGradient>
    <linearGradient
       y2="117.09522"
       x2="83.323959"
       y1="62.345222"
       x1="66.300034"
       gradientTransform="matrix(0.12998086,0,0,0.12997919,-0.39791611,0.0611436)"
       gradientUnits="userSpaceOnUse"
       id="linearGradient2991"
       xlink:href="#linearGradient3599"
       inkscape:collect="always" />
    <inkscape:perspective
       id="perspective3001"
       inkscape:persp3d-origin="0.5 : 0.33333333 : 1"
       inkscape:vp_z="1 : 0.5 : 1"
       inkscape:vp_y="0 : 1000 : 0"
       inkscape:vp_x="0 : 0.5 : 1"
       sodipodi:type="inkscape:persp3d" />
    <linearGradient
       inkscape:collect="always"
       xlink:href="#linearGradient3674"
       id="linearGradient4186"
       gradientUnits="userSpaceOnUse"
       gradientTransform="matrix(0.12426056,0,0,0.12426056,0.5459417,0.06686927)"
       x1="72.679977"
       y1="102.18961"
       x2="116.20734"
       y2="92.561302" />
    <linearGradient
       inkscape:collect="always"
       id="linearGradient3674">
      <stop
         style="stop-color:#000000;stop-opacity:1;"
         offset="0"
         id="stop3676" />
      <stop
         style="stop-color:#000000;stop-opacity:0;"
         offset="1"
         id="stop3678" />
    </linearGradient>
    <linearGradient
       inkscape:collect="always"
       xlink:href="#linearGradient3581-7"
       id="linearGradient4190"
       gradientUnits="userSpaceOnUse"
       gradientTransform="matrix(1,0,0,1.1160733,0.0625,-9.9986727)"
       x1="144.82578"
       y1="95.798721"
       x2="144.82578"
       y2="108.34345" />
    <linearGradient
       inkscape:collect="always"
       id="linearGradient3581-7">
      <stop
         style="stop-color:#ffffff;stop-opacity:1;"
         offset="0"
         id="stop3583-6" />
      <stop
         style="stop-color:#ffffff;stop-opacity:0;"
         offset="1"
         id="stop3585-3" />
    </linearGradient>
    <linearGradient
       inkscape:collect="always"
       xlink:href="#linearGradient3581-7"
       id="linearGradient4192"
       gradientUnits="userSpaceOnUse"
       gradientTransform="matrix(-1,0,0,1.1160733,289.71406,-9.9986727)"
       x1="144.82578"
       y1="95.798721"
       x2="144.82578"
       y2="108.34345" />
    <linearGradient
       inkscape:collect="always"
       xlink:href="#BlackTransparent"
       id="linearGradient4194"
       gradientUnits="userSpaceOnUse"
       x1="144.87347"
       y1="97.697334"
       x2="144.87347"
       y2="99.774651" />
    <linearGradient
       id="BlackTransparent"
       gradientUnits="userSpaceOnUse">
      <stop
         style="stop-color:black;stop-opacity:1"
         offset="0"
         id="stop12" />
      <stop
         style="stop-color:black;stop-opacity:0"
         offset="1"
         id="stop14" />
    </linearGradient>
    <linearGradient
       inkscape:collect="always"
       xlink:href="#linearGradient3501"
       id="linearGradient4249"
       gradientUnits="userSpaceOnUse"
       x1="131.29102"
       y1="77.089378"
       x2="153.84979"
       y2="77.089378" />
    <linearGradient
       id="linearGradient3501">
      <stop
         style="stop-color:#e32020;stop-opacity:1;"
         offset="0"
         id="stop3503" />
      <stop
         style="stop-color:#6c0b0b;stop-opacity:1;"
         offset="1"
         id="stop3505" />
    </linearGradient>
    <filter
       color-interpolation-filters="sRGB"
       inkscape:collect="always"
       id="filter3526"
       x="-0.66366285"
       width="2.3273256"
       y="-0.038064804"
       height="1.0761296">
      <feGaussianBlur
         inkscape:collect="always"
         stdDeviation="0.98809091"
         id="feGaussianBlur3528" />
    </filter>
    <linearGradient
       inkscape:collect="always"
       xlink:href="#linearGradient3411"
       id="linearGradient4200"
       gradientUnits="userSpaceOnUse"
       x1="140"
       y1="88"
       x2="150"
       y2="88" />
    <linearGradient
       id="linearGradient3411">
      <stop
         style="stop-color:#8c8c8c;stop-opacity:1;"
         offset="0"
         id="stop3413" />
      <stop
         id="stop3423"
         offset="0.21906407"
         style="stop-color:#b4b4b4;stop-opacity:1;" />
      <stop
         id="stop3419"
         offset="0.34999999"
         style="stop-color:#dcdcdc;stop-opacity:1;" />
      <stop
         style="stop-color:#b4b4b4;stop-opacity:1;"
         offset="0.47209707"
         id="stop3421" />
      <stop
         style="stop-color:#505050;stop-opacity:1;"
         offset="1"
         id="stop3415" />
    </linearGradient>
    <linearGradient
       inkscape:collect="always"
       xlink:href="#linearGradient3411"
       id="linearGradient4202"
       gradientUnits="userSpaceOnUse"
       x1="140"
       y1="88"
       x2="150"
       y2="88" />
    <linearGradient
       id="linearGradient3038">
      <stop
         style="stop-color:#8c8c8c;stop-opacity:1;"
         offset="0"
         id="stop3040" />
      <stop
         id="stop3042"
         offset="0.21906407"
         style="stop-color:#b4b4b4;stop-opacity:1;" />
      <stop
         id="stop3044"
         offset="0.34999999"
         style="stop-color:#dcdcdc;stop-opacity:1;" />
      <stop
         style="stop-color:#b4b4b4;stop-opacity:1;"
         offset="0.47209707"
         id="stop3046" />
      <stop
         style="stop-color:#505050;stop-opacity:1;"
         offset="1"
         id="stop3048" />
    </linearGradient>
    <linearGradient
       inkscape:collect="always"
       xlink:href="#BlackTransparent"
       id="linearGradient4212"
       gradientUnits="userSpaceOnUse"
       gradientTransform="matrix(1.247211,0,0,1,-35.862183,0)"
       x1="141"
       y1="81.75"
       x2="149"
       y2="81.75" />
    <linearGradient
       id="linearGradient3051"
       gradientUnits="userSpaceOnUse">
      <stop
         style="stop-color:black;stop-opacity:1"
         offset="0"
         id="stop3053" />
      <stop
         style="stop-color:black;stop-opacity:0"
         offset="1"
         id="stop3055" />
    </linearGradient>
    <linearGradient
       inkscape:collect="always"
       xlink:href="#linearGradient3581-7"
       id="linearGradient4214"
       gradientUnits="userSpaceOnUse"
       gradientTransform="matrix(1.247211,0,0,-1,-35.862183,164.98438)"
       x1="141"
       y1="81.75"
       x2="149"
       y2="81.75" />
    <linearGradient
       inkscape:collect="always"
       xlink:href="#BlackTransparent"
       id="linearGradient3064"
       gradientUnits="userSpaceOnUse"
       gradientTransform="matrix(1.247211,0,0,1,-35.862183,0)"
       x1="141"
       y1="81.75"
       x2="149"
       y2="81.75" />
    <linearGradient
       id="linearGradient3066"
       gradientUnits="userSpaceOnUse">
      <stop
         style="stop-color:black;stop-opacity:1"
         offset="0"
         id="stop3068" />
      <stop
         style="stop-color:black;stop-opacity:0"
         offset="1"
         id="stop3070" />
    </linearGradient>
    <linearGradient
       inkscape:collect="always"
       xlink:href="#linearGradient3581-7"
       id="linearGradient3072"
       gradientUnits="userSpaceOnUse"
       gradientTransform="matrix(1.247211,0,0,-1,-35.862183,164.98438)"
       x1="141"
       y1="81.75"
       x2="149"
       y2="81.75" />
    <linearGradient
       inkscape:collect="always"
       xlink:href="#BlackTransparent"
       id="linearGradient3080"
       gradientUnits="userSpaceOnUse"
       gradientTransform="matrix(1.247211,0,0,1,-35.862183,0)"
       x1="141"
       y1="81.75"
       x2="149"
       y2="81.75" />
    <linearGradient
       id="linearGradient3082"
       gradientUnits="userSpaceOnUse">
      <stop
         style="stop-color:black;stop-opacity:1"
         offset="0"
         id="stop3084" />
      <stop
         style="stop-color:black;stop-opacity:0"
         offset="1"
         id="stop3086" />
    </linearGradient>
    <linearGradient
       inkscape:collect="always"
       xlink:href="#linearGradient3581-7"
       id="linearGradient3088"
       gradientUnits="userSpaceOnUse"
       gradientTransform="matrix(1.247211,0,0,-1,-35.862183,164.98438)"
       x1="141"
       y1="81.75"
       x2="149"
       y2="81.75" />
    <linearGradient
       inkscape:collect="always"
       xlink:href="#BlackTransparent"
       id="linearGradient3914"
       gradientUnits="userSpaceOnUse"
       gradientTransform="matrix(1.247211,0,0,1,-35.862183,0)"
       x1="141"
       y1="81.75"
       x2="149"
       y2="81.75" />
    <linearGradient
       inkscape:collect="always"
       xlink:href="#linearGradient3581-7"
       id="linearGradient3916"
       gradientUnits="userSpaceOnUse"
       gradientTransform="matrix(1.247211,0,0,-1,-35.862183,164.98438)"
       x1="141"
       y1="81.75"
       x2="149"
       y2="81.75" />
  </defs>
  <sodipodi:namedview
     id="base"
     pagecolor="#ffffff"
     bordercolor="#e7e7e7"
     borderopacity="1"
     inkscape:pageopacity="0.0"
     inkscape:pageshadow="2"
     inkscape:zoom="20.568488"
     inkscape:cx="-2.4826512"
     inkscape:cy="8.6002043"
     inkscape:document-units="px"
     inkscape:current-layer="layer1"
     showgrid="true"
     inkscape:showpageshadow="false"
     showguides="false"
     inkscape:guide-bbox="true"
     inkscape:window-width="1920"
     inkscape:window-height="1023"
     inkscape:window-x="0"
     inkscape:window-y="24"
     inkscape:window-maximized="1"
     inkscape:snap-global="false">
    <sodipodi:guide
       orientation="1,0"
       position="0,112"
       id="guide2383" />
    <sodipodi:guide
       orientation="0,1"
       position="26.278146,128"
       id="guide2385" />
    <sodipodi:guide
       orientation="1,0"
       position="128,54.082119"
       id="guide2387" />
    <sodipodi:guide
       orientation="0,1"
       position="78.156291,0"
       id="guide2389" />
    <sodipodi:guide
       orientation="0,1"
       position="60.863576,64.084768"
       id="guide2391" />
    <inkscape:grid
       type="xygrid"
       id="grid3672"
       visible="true"
       enabled="true" />
  </sodipodi:namedview>
  <metadata
     id="metadata7">
    <rdf:RDF>
      <cc:Work
         rdf:about="">
        <dc:format>image/svg+xml</dc:format>
        <dc:type
           rdf:resource="http://purl.org/dc/dcmitype/StillImage" />
        <dc:title></dc:title>
      </cc:Work>
    </rdf:RDF>
  </metadata>
  <g
     inkscape:label="Button"
     inkscape:groupmode="layer"
     id="layer1">
    <rect
       ry="2"
       rx="2"
       y="0"
       x="-16"
       height="16"
       width="16"
       id="rect3196"
       style="fill:url(#linearGradient3204);fill-opacity:1.0;fill-rule:nonzero;stroke:none"
       transform="matrix(0,-1,1,0,0,0)" />
    <path
       style="opacity:0.4;fill:url(#linearGradient3629);fill-opacity:1;fill-rule:nonzero;stroke:none"
       d="m 0,14 c 0,1.108 0.892,2 2,2 l 12,0 c 1.108,0 2,-0.892 2,-2 L 16,2 C 16,0.892 15.108,0 14,0 L 2,0 C 0.892,0 0,0.892 0,2 l 0,12 z m 0.96875,0 0,-12 C 0.96875,1.416801 1.4168007,0.96875 2,0.96875 l 12,0 c 0.583199,0 1.03125,0.448051 1.03125,1.03125 l 0,12 c 0,0.583199 -0.448051,1.03125 -1.03125,1.03125 l -12,0 C 1.4168007,15.03125 0.96875,14.583199 0.96875,14 z"
       id="rect2835" />
    <path
       style="fill:#ffffff;fill-opacity:1;fill-rule:nonzero;stroke:none;opacity:0.4"
       d="M 2 0.96875 C 1.4168007 0.96875 0.96875 1.4168007 0.96875 2 L 0.96875 3 C 0.96875 2.4168007 1.4168007 1.96875 2 1.96875 L 14 1.96875 C 14.583199 1.96875 15.03125 2.4168007 15.03125 3 L 15.03125 2 C 15.03125 1.4168007 14.583199 0.96875 14 0.96875 L 2 0.96875 z "
       id="path2843" />
    <path
       style="opacity:0.47131148;fill:url(#linearGradient2991);fill-opacity:1;fill-rule:evenodd;stroke:none;display:inline"
       d="M 6.5235651,6.3651346 C 5.8915726,6.5041114 5.1430893,6.5994456 4.5519934,6.8590907 4.042438,7.0829183 3.2081423,7.5849802 2.8325502,8.0204103 c -0.1529045,0.7696972 2.2657784,0.9357232 2.9324422,1.078622 0.7653037,0.1310305 1.6298803,0.038502 2.2793457,0.5413298 0.3399136,0.3300065 0.47696,0.8901049 0.3078448,1.3338729 -0.2249631,0.53608 -0.8421381,0.177108 -1.2296737,0.413756 -0.3742889,0.248303 -0.2780381,0.824012 -0.1099668,1.170288 0.2339732,0.338136 0.7121056,0.375736 0.8019593,0.834735 0.4377677,0.34531 0.8719691,-0.361396 0.9817616,-0.675891 0.3583827,-0.525363 0.8732427,-0.739348 1.4681207,-0.645984 0.494553,0.01939 0.800962,-0.750234 0.274714,-0.961973 C 10.208614,10.909296 9.908404,10.732776 9.881611,10.285282 9.807961,9.7400516 10.838424,9.562237 11.105537,9.1516762 11.549149,8.3266273 10.502384,7.1298164 9.982581,6.4234649 9.682611,5.9648896 9.265839,6.3982021 8.924958,6.6831878 8.3332326,6.5530101 8.1882688,6.7872308 7.8492275,7.2303059 7.3717998,7.1962081 7.258404,6.6064559 6.8390612,6.4632914 6.7386471,6.4173304 6.6323845,6.3840542 6.5235651,6.3651346 z"
       id="path3589"
       sodipodi:nodetypes="csccccccccccccccccc" />
    <path
       style="fill:url(#linearGradient4095);fill-opacity:1;fill-rule:evenodd;stroke:none;display:inline"
       d="M 6.6210508,7.7949058 C 6.2682636,8.4515237 4.8134432,7.9887489 5.0203529,9.0421389 5.4225218,9.6522104 6.4242939,9.7893936 7.0737325,9.5506058 7.7144874,9.2006523 8.2152388,8.2274959 7.5832821,7.634663 7.2972901,7.3168062 6.8247022,7.4677519 6.6210508,7.7949058 z"
       id="path3611" />
    <path
       style="fill:url(#linearGradient4092);fill-opacity:1;fill-rule:evenodd;stroke:none;display:inline"
       d="M 7.4007029,3.3102687 C 6.0827545,3.9096078 5.6089224,4.8344737 4.7044089,5.8741973 3.5341545,7.268737 5.2776025,6.4981013 5.9303423,5.9515678 6.180027,5.7398272 6.4130944,5.4944995 6.7194771,5.3641634 7.0082588,5.3636767 7.2770778,5.6865484 7.5641696,5.4695267 7.7820712,5.2723107 8.0592615,5.2535341 8.3342569,5.2235937 8.626042,5.1790916 8.6529087,4.7608611 8.994166,4.8344766 9.2860827,4.8921969 9.5020432,4.5863286 9.3186738,4.3404458 9.1516358,4.071135 8.8654656,3.9102348 8.6497952,3.6843188 8.0990523,3.1829712 8.1421709,3.0373063 7.4007029,3.3102687 z"
       id="path3555"
       sodipodi:nodetypes="cccccccccc" />
    <path
       sodipodi:type="inkscape:offset"
       inkscape:radius="0.06479913"
       inkscape:original="M 10.28125 2.8125 C 9.912088 2.8678812 9.6158077 3.0567216 9.34375 3.28125 C 8.9810064 3.5806212 8.6691828 3.9696399 8.375 4.25 C 7.5819415 4.9680125 7.0036316 5.8244548 6.28125 6.53125 C 5.6170185 7.2547854 4.7487514 7.8242313 4 8.53125 C 3.6832835 8.8781881 3.3457563 9.3256288 3.15625 9.8125 C 2.9667437 10.299371 2.9230435 10.8365 3.25 11.34375 A 0.18702066 0.18702066 0 0 0 3.25 11.375 C 3.3469621 11.490032 3.4951385 11.527933 3.59375 11.5625 C 3.6923615 11.597067 3.7644267 11.626685 3.8125 11.65625 C 4.4513232 12.049125 5.1722311 12.265934 5.84375 12.5 C 5.672593 12.662223 5.4445522 12.859605 5.25 13.09375 C 5.0635205 13.318179 4.922608 13.566187 4.875 13.84375 C 4.8744112 13.844283 4.84405 13.905551 4.84375 13.90625 C 4.84345 13.906949 4.8125103 13.967848 4.8125 13.96875 C 4.8124897 13.969652 4.8094311 14.018741 4.8125 14.03125 C 4.8140344 14.037504 4.8421547 14.02647 4.84375 14.03125 C 4.8453453 14.03603 4.842248 14.058768 4.84375 14.0625 C 4.8497578 14.077426 4.8394898 14.086061 4.84375 14.09375 C 4.8522705 14.109128 4.8660528 14.110183 4.875 14.125 C 4.916197 14.346869 5.0338518 14.582676 5.34375 14.75 A 0.18702066 0.18702066 0 0 0 5.375 14.78125 A 0.18702066 0.18702066 0 0 0 5.40625 14.78125 C 6.308108 14.993686 7.2045645 15.216486 8.0625 15.53125 A 0.18702066 0.18702066 0 0 0 8.09375 15.53125 A 0.18702066 0.18702066 0 0 0 8.125 15.53125 C 8.1017016 15.53235 8.2339726 15.5696 8.34375 15.625 C 8.3514414 15.628882 8.3671667 15.620938 8.375 15.625 C 8.3633367 15.712491 8.3676195 15.804871 8.34375 15.875 C 8.3139868 15.962444 8.2730381 15.979291 8.21875 16 A 0.18702066 0.18702066 0 0 0 8.1875 16.03125 C 7.9474168 16.174735 7.7787209 16.332518 7.71875 16.53125 C 7.6587791 16.729982 7.7163232 16.958335 7.8125 17.125 C 8.0048537 17.45833 8.3729769 17.69525 8.75 17.8125 A 0.18702066 0.18702066 0 0 0 8.78125 17.8125 A 0.18702066 0.18702066 0 0 0 8.8125 17.8125 A 0.18702066 0.18702066 0 0 0 8.84375 17.8125 C 8.9181562 17.804219 9.1225077 17.826456 9.34375 17.84375 C 9.5017802 17.856103 9.6597375 17.848198 9.8125 17.84375 C 9.8335078 18.032939 9.8679867 18.236213 9.9375 18.4375 C 10.02603 18.693852 10.18563 18.943632 10.4375 19.0625 C 10.823964 19.234504 11.206431 19.216602 11.5625 19.09375 C 11.918569 18.970898 12.249793 18.753099 12.53125 18.59375 A 0.18702066 0.18702066 0 0 0 12.5625 18.5625 A 0.18702066 0.18702066 0 0 0 12.59375 18.53125 A 0.18702066 0.18702066 0 0 0 12.625 18.5 A 0.18702066 0.18702066 0 0 0 12.625 18.46875 A 0.18702066 0.18702066 0 0 0 12.625 18.4375 A 0.18702066 0.18702066 0 0 0 12.625 18.40625 A 0.18702066 0.18702066 0 0 0 12.625 18.375 A 0.18702066 0.18702066 0 0 0 12.59375 18.34375 A 0.18702066 0.18702066 0 0 0 12.5625 18.3125 A 0.18702066 0.18702066 0 0 0 12.53125 18.28125 A 0.18702066 0.18702066 0 0 0 12.5 18.25 A 0.18702066 0.18702066 0 0 0 12.46875 18.25 A 0.18702066 0.18702066 0 0 0 12.4375 18.25 A 0.18702066 0.18702066 0 0 0 12.40625 18.25 C 11.675739 18.415266 12.05989 18.474517 10.875 18.34375 C 10.883896 18.11209 10.852097 17.852634 10.75 17.59375 C 10.620058 17.264261 10.383546 16.937262 10 16.875 C 9.6799203 16.836465 9.3897046 16.82905 9.09375 16.8125 C 9.3222417 16.535941 9.436692 16.193928 9.375 15.875 C 9.2874561 15.422425 8.9268293 15.018259 8.40625 14.84375 C 7.6309334 14.518613 6.8163935 14.251606 6 14.03125 C 6.179232 13.884175 6.3622826 13.743677 6.5625 13.5625 C 6.7080214 13.430818 6.8317288 13.284985 6.90625 13.09375 C 6.9807712 12.902515 6.9978354 12.674247 6.90625 12.4375 A 0.18702066 0.18702066 0 0 0 6.875 12.40625 C 6.7749737 12.240793 6.6303264 12.12829 6.5 12.0625 C 6.3696736 11.99671 6.2406055 11.964353 6.15625 11.90625 C 5.521977 11.469374 4.8064298 11.212498 4.09375 11 C 4.0795645 10.759054 4.1355782 10.505515 4.28125 10.25 C 4.4512004 9.9518997 4.7102106 9.6759754 4.90625 9.40625 C 5.6861484 8.6723769 6.6538846 8.0803927 7.40625 7.21875 A 0.18702066 0.18702066 0 0 0 7.40625 7.1875 C 8.1266837 6.1829282 8.9545505 5.2680153 9.875 4.4375 A 0.18702066 0.18702066 0 0 0 9.90625 4.4375 C 10.364539 3.8283749 11.338027 3.6873093 11.84375 4.3125 L 11.875 4.3125 C 12.310339 4.7851156 12.750621 5.2666316 13.21875 5.71875 C 13.242029 5.7444845 13.256724 5.7573722 13.25 5.75 C 13.268538 5.7684949 13.293532 5.7624501 13.3125 5.78125 A 0.18702066 0.18702066 0 0 0 13.3125 5.8125 A 0.18702066 0.18702066 0 0 0 13.34375 5.84375 A 0.18702066 0.18702066 0 0 0 13.34375 5.875 C 13.423784 5.95381 13.526123 6.0271987 13.5625 6.0625 C 13.572158 6.0723519 13.583989 6.0838547 13.59375 6.09375 C 14.833749 7.3507442 16.86521 8.9543814 18.0625 9.9375 L 18.09375 9.90625 C 18.215801 10.013721 18.263814 10.090952 18.3125 10.125 C 18.319049 10.12958 18.330171 10.148978 18.34375 10.15625 C 18.35054 10.159886 18.374403 10.156054 18.375 10.15625 C 18.375299 10.156348 18.40603 10.187474 18.40625 10.1875 C 18.406316 10.187508 18.427704 10.188395 18.4375 10.1875 C 18.518439 10.255287 18.601769 10.309445 18.6875 10.375 A 0.18702066 0.18702066 0 0 0 18.71875 10.375 A 0.18702066 0.18702066 0 0 0 18.78125 10.40625 A 0.18702066 0.18702066 0 0 0 18.8125 10.40625 A 0.18702066 0.18702066 0 0 0 18.84375 10.40625 A 0.18702066 0.18702066 0 0 0 18.875 10.40625 A 0.18702066 0.18702066 0 0 0 18.90625 10.375 A 0.18702066 0.18702066 0 0 0 18.9375 10.34375 A 0.18702066 0.18702066 0 0 0 18.96875 10.3125 A 0.18702066 0.18702066 0 0 0 19 10.25 A 0.18702066 0.18702066 0 0 0 19 10.21875 A 0.18702066 0.18702066 0 0 0 19 10.1875 A 0.18702066 0.18702066 0 0 0 19 10.15625 A 0.18702066 0.18702066 0 0 0 18.96875 10.125 A 0.18702066 0.18702066 0 0 0 18.96875 10.09375 C 18.166828 9.1672608 16.188274 7.6341631 15.28125 6.90625 A 0.18702066 0.18702066 0 0 0 15.25 6.90625 C 15.226707 6.8927388 15.065702 6.7644733 14.90625 6.625 C 14.746798 6.4855267 14.558799 6.3271396 14.40625 6.1875 C 14.383368 6.1665541 14.364894 6.1756554 14.34375 6.15625 C 14.343454 6.1554768 14.316611 6.1319127 14.3125 6.125 C 14.304278 6.1111746 14.286633 6.1006859 14.28125 6.09375 C 14.270484 6.0798783 14.262245 6.0760634 14.25 6.0625 C 14.225509 6.0353732 14.195839 5.9779635 14.15625 5.9375 C 14.135252 5.9160387 14.087335 5.8999662 14.0625 5.875 C 14.056736 5.871328 14.031471 5.843833 14.03125 5.84375 C 13.969045 5.781511 13.920663 5.7319753 13.84375 5.65625 C 13.599517 5.415789 13.307962 5.1192714 13.09375 4.90625 C 12.777636 4.5796335 12.407423 4.3527719 12.125 4.0625 C 12.109831 4.0460328 12.104413 4.0414857 12.09375 4.03125 A 0.18702066 0.18702066 0 0 0 12.0625 4 C 11.670161 3.6033992 11.302517 3.0973141 10.71875 2.84375 A 0.18702066 0.18702066 0 0 0 10.6875 2.8125 C 10.552593 2.798864 10.404304 2.7940396 10.28125 2.8125 z "
       style="opacity:0.8;fill:#000000;fill-opacity:1;fill-rule:nonzero;stroke:none;display:inline"
       id="path3920"
       d="M 10.28125,2.75 C 9.8957459,2.8078328 9.5886138,2.9908741 9.3125,3.21875 8.9425623,3.5240584 8.6328163,3.912016 8.34375,4.1875 7.5433051,4.9121999 6.9660351,5.7994143 6.25,6.5 a 0.06480561,0.06480561 0 0 0 -0.03125,0 C 5.5620887,7.2152893 4.7230549,7.7564873 3.96875,8.46875 A 0.06480561,0.06480561 0 0 0 3.9375,8.5 C 3.6175353,8.8504963 3.2878224,9.2826478 3.09375,9.78125 c -0.1910506,0.490839 -0.2285598,1.042751 0.09375,1.5625 -1.78e-5,8.52e-4 0,0.0304 0,0.03125 a 0.06480561,0.06480561 0 0 0 0,0.03125 c 0.1134085,0.134543 0.2815578,0.185995 0.375,0.21875 0.097008,0.03401 0.178842,0.06921 0.21875,0.09375 0.6191106,0.380752 1.293412,0.590568 1.9375,0.8125 -0.1570056,0.145566 -0.3635684,0.329444 -0.53125,0.53125 -0.1767895,0.212767 -0.2840802,0.453312 -0.34375,0.71875 -0.00274,0.01219 -0.028851,0.01894 -0.03125,0.03125 -0.00302,0.006 0.00387,0.02347 0,0.03125 -0.00775,0.01556 -0.0311,0.0309 -0.03125,0.03125 -1.5e-4,3.49e-4 0.00782,0.01573 0,0.03125 -0.00391,0.0078 -0.028236,0.02519 -0.03125,0.03125 0,0 0,0.03125 0,0.03125 -5.1e-6,4.51e-4 4.183e-4,0.01599 0,0.03125 -2.092e-4,0.0076 -1.848e-4,0.0231 0,0.03125 5.75e-5,2.35e-4 0.025541,0.02169 0.03125,0.03125 6.02e-5,3.73e-4 -9.39e-5,0.03102 0,0.03125 1.387e-4,0.001 -5.325e-4,0.03029 0,0.03125 0.00557,0.01005 0.024808,-0.0062 0.03125,0 0.00164,0.0088 -0.00189,0.02236 0,0.03125 0.046541,0.218608 0.1823352,0.456594 0.46875,0.625 0.012594,0.0074 0.018023,0.02411 0.03125,0.03125 4.568e-4,3.94e-4 0.030787,-3.87e-4 0.03125,0 4.626e-4,3.87e-4 -4.683e-4,0.03087 0,0.03125 a 0.06480561,0.06480561 0 0 0 0.03125,0 c 8.519e-4,0 0.030398,1.8e-5 0.03125,0 0.901344,0.212315 1.7714849,0.436858 2.625,0.75 a 0.06480561,0.06480561 0 0 0 0.03125,0 c 8.519e-4,0 0.030398,1.8e-5 0.03125,0 8.517e-4,1.8e-5 0.030398,0 0.03125,0 0.010055,0.0038 0.018228,0.02639 0.03125,0.03125 0.043408,0.0162 0.1054916,0.03688 0.15625,0.0625 -0.00519,0.06489 -0.018639,0.1192 -0.03125,0.15625 -0.01237,0.03634 -0.020534,0.05334 -0.03125,0.0625 -0.010716,0.0092 -0.035754,0.02105 -0.0625,0.03125 -4.683e-4,3.8e-4 4.626e-4,0.03086 0,0.03125 -4.626e-4,3.87e-4 -0.030793,-3.94e-4 -0.03125,0 -0.00601,0.0036 0.00594,0.02763 0,0.03125 -0.2375445,0.144754 -0.4346925,0.283584 -0.5,0.5 -0.067249,0.222851 -0.00964,0.477083 0.09375,0.65625 0.2035985,0.352816 0.5795121,0.597701 0.96875,0.71875 a 0.06480561,0.06480561 0 0 0 0.03125,0 c 8.519e-4,0 0.030398,1.8e-5 0.03125,0 8.517e-4,1.8e-5 0.030398,0 0.03125,0 8.519e-4,0 0.030398,1.8e-5 0.03125,0 0.024385,-0.0027 0.1003332,-0.0066 0.1875,0 0.087167,0.0066 0.2012729,0.02256 0.3125,0.03125 0.1417139,0.01108 0.27278,0.0043 0.40625,0 0.021858,0.175619 0.060355,0.375309 0.125,0.5625 0.092134,0.266789 0.257249,0.526938 0.53125,0.65625 0.4025,0.179141 0.819741,0.158135 1.1875,0.03125 0.366679,-0.126513 0.690355,-0.342385 0.96875,-0.5 4.68e-4,-3.8e-4 -4.63e-4,-0.03086 0,-0.03125 4.63e-4,-3.87e-4 0.03079,3.94e-4 0.03125,0 l 0,-0.03125 c 4.63e-4,-3.87e-4 0.03079,3.94e-4 0.03125,0 l 0,-0.03125 c 4.63e-4,-3.87e-4 0.03079,3.94e-4 0.03125,0 3.94e-4,-4.57e-4 -3.87e-4,-0.03079 0,-0.03125 3.87e-4,-4.63e-4 0.03087,4.68e-4 0.03125,0 a 0.06480561,0.06480561 0 0 0 0,-0.03125 c 0,-8.52e-4 1.8e-5,-0.0304 0,-0.03125 1.8e-5,-8.52e-4 0,-0.0304 0,-0.03125 0,-8.52e-4 1.8e-5,-0.0304 0,-0.03125 1.8e-5,-8.52e-4 0,-0.0304 0,-0.03125 a 0.06480561,0.06480561 0 0 0 0,-0.03125 c -3.8e-4,-4.68e-4 -0.03086,4.63e-4 -0.03125,0 -3.87e-4,-4.63e-4 3.94e-4,-0.03079 0,-0.03125 l -0.03125,0 0,-0.03125 -0.03125,0 0,-0.03125 -0.03125,0 0,-0.03125 c -4.57e-4,-3.94e-4 -0.03079,3.87e-4 -0.03125,0 -4.63e-4,-3.87e-4 4.68e-4,-0.03087 0,-0.03125 a 0.06480561,0.06480561 0 0 0 -0.03125,0 c -8.52e-4,0 -0.0304,-1.8e-5 -0.03125,0 -8.52e-4,-1.8e-5 -0.0304,0 -0.03125,0 -8.52e-4,0 -0.0304,-1.8e-5 -0.03125,0 -0.72025,0.162945 -0.38925,0.212239 -1.46875,0.09375 0.0019,-0.223841 -0.02792,-0.472601 -0.125,-0.71875 C 10.678081,17.221659 10.414808,16.879837 10,16.8125 9.7207238,16.778877 9.472895,16.762729 9.21875,16.75 9.4097829,16.479051 9.4967404,16.181254 9.4375,15.875 9.3450206,15.39691 8.978116,14.962476 8.4375,14.78125 7.6982039,14.471219 6.9333612,14.214334 6.15625,14 c 0.1426729,-0.115099 0.2782115,-0.23086 0.4375,-0.375 0.1496228,-0.135393 0.2957165,-0.296544 0.375,-0.5 0.07964,-0.204371 0.097619,-0.466405 0,-0.71875 -3.801e-4,-4.68e-4 -0.030863,4.63e-4 -0.03125,0 -3.87e-4,-4.63e-4 3.938e-4,-0.03079 0,-0.03125 -0.0038,-0.0063 -0.027339,0.0061 -0.03125,0 -4.626e-4,-3.87e-4 4.683e-4,-0.03087 0,-0.03125 C 6.800646,12.187565 6.660209,12.0651 6.53125,12 6.3931895,11.930306 6.2556817,11.890713 6.1875,11.84375 5.5529561,11.406687 4.8617583,11.149046 4.15625,10.9375 4.1549956,10.727899 4.2163029,10.504798 4.34375,10.28125 4.501387,10.004748 4.7418118,9.732084 4.9375,9.46875 4.945947,9.4573831 4.960489,9.4488661 4.96875,9.4375 5.73661,8.7232886 6.7181633,8.1096056 7.46875,7.25 a 0.06480561,0.06480561 0 0 0 0,-0.03125 c 0.00484,-0.00674 -0.00485,-0.024513 0,-0.03125 C 8.1784492,6.2010689 8.9708258,5.317893 9.875,4.5 c 8.519e-4,0 0.030398,1.78e-5 0.03125,0 a 0.06480561,0.06480561 0 0 0 0.03125,0 0.06480561,0.06480561 0 0 0 0.03125,-0.03125 c 0.217337,-0.2888689 0.56053,-0.4684011 0.90625,-0.5 0.34572,-0.031599 0.667673,0.080064 0.90625,0.375 a 0.06480561,0.06480561 0 0 0 0.03125,0 0.06480561,0.06480561 0 0 0 0,0.03125 c 0.0047,0.00513 0.02652,-0.00514 0.03125,0 0.425829,0.4624173 0.884128,0.931098 1.34375,1.375 0.005,0.00522 -0.0036,0.027766 0,0.03125 0.0018,0.00174 0.02865,-0.00222 0.03125,0 0.0026,0.00222 -3.98e-4,0.030963 0,0.03125 0.01061,0.00483 0.02582,-0.00156 0.03125,0 a 0.06480561,0.06480561 0 0 0 0,0.03125 c 3.8e-4,4.683e-4 0.03086,-4.626e-4 0.03125,0 3.87e-4,4.626e-4 -3.94e-4,0.030793 0,0.03125 a 0.06480561,0.06480561 0 0 0 0,0.03125 0.06480561,0.06480561 0 0 0 0.03125,0 c 0.08538,0.084075 0.193751,0.1632403 0.21875,0.1875 0.01053,0.010737 0.02224,0.022118 0.03125,0.03125 1.245497,1.2625679 3.272533,2.8927626 4.46875,3.875 a 0.06480561,0.06480561 0 0 0 0.03125,0 c 0.0076,0.007 0.02436,-0.00672 0.03125,0 0.08269,0.08062 0.127498,0.145538 0.1875,0.1875 0.0068,0.0082 0.0098,0.01977 0.03125,0.03125 0.0036,0.0011 0.02856,-5.02e-4 0.03125,0 0.001,0.001 0.03125,0 0.03125,0 0,0 -0.0019,-0.01516 0,-0.03125 l 0.03125,0 0,0.0625 c 0.0068,0.0057 0.02448,-0.0055 0.03125,0 0.07785,0.06301 0.142099,0.128888 0.21875,0.1875 a 0.06480561,0.06480561 0 0 0 0.03125,0 c 8.52e-4,0 0.0304,1.8e-5 0.03125,0 8.56e-4,4.28e-4 -8.66e-4,0.03084 0,0.03125 8.75e-4,3.87e-4 0.03037,-3.67e-4 0.03125,0 a 0.06480561,0.06480561 0 0 0 0.03125,0 c 8.52e-4,1.8e-5 0.0304,0 0.03125,0 8.52e-4,0 0.0304,1.8e-5 0.03125,0 8.52e-4,1.8e-5 0.0304,0 0.03125,0 a 0.06480561,0.06480561 0 0 0 0.03125,0 c 4.68e-4,-3.8e-4 -4.63e-4,-0.03086 0,-0.03125 4.63e-4,-3.87e-4 0.03079,3.94e-4 0.03125,0 l 0,-0.03125 c 4.63e-4,-3.87e-4 0.03079,3.94e-4 0.03125,0 l 0,-0.03125 c 3.87e-4,-4.63e-4 0.03087,4.68e-4 0.03125,0 3.94e-4,-4.57e-4 -3.87e-4,-0.03079 0,-0.03125 3.87e-4,-4.63e-4 0.03087,4.68e-4 0.03125,0 5.06e-4,-8.12e-4 -4.87e-4,-0.03043 0,-0.03125 4.28e-4,-8.56e-4 0.03084,8.66e-4 0.03125,0 3.87e-4,-8.75e-4 -3.67e-4,-0.03037 0,-0.03125 a 0.06480561,0.06480561 0 0 0 0,-0.03125 c 0,-8.52e-4 1.8e-5,-0.0304 0,-0.03125 1.8e-5,-8.52e-4 0,-0.0304 0,-0.03125 0,-8.52e-4 1.8e-5,-0.0304 0,-0.03125 a 0.06480561,0.06480561 0 0 0 0,-0.03125 c -3.8e-4,-4.68e-4 -0.03086,4.63e-4 -0.03125,0 0,-8.52e-4 1.8e-5,-0.0304 0,-0.03125 a 0.06480561,0.06480561 0 0 0 0,-0.03125 c -0.0042,-0.0049 -0.02695,0.0049 -0.03125,0 C 18.17895,9.1217011 16.213569,7.5668843 15.3125,6.84375 a 0.06480561,0.06480561 0 0 0 -0.03125,0 c 0.0023,0.00135 -0.02469,0.0047 -0.03125,0 -0.0066,-0.0047 0.01013,-0.023432 0,-0.03125 C 15.229744,6.7968634 15.187487,6.7753428 15.15625,6.75 15.093777,6.6993144 15.0165,6.6316017 14.9375,6.5625 14.777348,6.4224147 14.588492,6.2632141 14.4375,6.125 c -0.01065,-0.00975 -0.0206,0.00493 -0.03125,0 -0.01065,-0.00493 0.0053,-0.029796 0,-0.03125 -0.01063,-0.00291 -0.03132,-6.66e-5 -0.03125,0 -0.01084,-0.018229 -0.0234,-0.024551 -0.03125,-0.03125 -0.01706,-0.021976 -0.02464,-0.023932 -0.03125,-0.03125 -0.01146,-0.012695 -0.0753,-0.074205 -0.125,-0.125 -0.02207,-0.022562 -0.01382,-0.052834 -0.03125,-0.0625 -0.01743,-0.00967 -0.05987,0.00264 -0.0625,0 a 0.06480561,0.06480561 0 0 0 0,-0.03125 l -0.03125,0 C 14.000572,5.7505377 13.952299,5.7011056 13.875,5.625 13.631373,5.3851354 13.339685,5.0884921 13.125,4.875 12.808302,4.5477797 12.460167,4.3055001 12.1875,4.03125 c -0.0065,-0.0071 -0.02674,0.00451 -0.03125,0 -0.0023,-0.00225 0.002,-0.029336 0,-0.03125 -3.8e-4,-4.683e-4 -0.03086,4.626e-4 -0.03125,0 -3.87e-4,-4.626e-4 3.94e-4,-0.030793 0,-0.03125 -4.57e-4,-3.938e-4 -0.03079,3.87e-4 -0.03125,0 C 11.715285,3.5861734 11.361175,3.0797666 10.78125,2.8125 l -0.03125,0 0,-0.03125 c -4.57e-4,-3.938e-4 -0.03079,3.87e-4 -0.03125,0 -4.63e-4,-3.87e-4 4.68e-4,-0.03087 0,-0.03125 a 0.06480561,0.06480561 0 0 0 -0.03125,0 c -0.138112,-0.01396 -0.274005,-0.019839 -0.40625,0 z"
       transform="matrix(0.75029844,0,0,0.7502888,-0.25764312,0.3162414)" />
    <path
       style="opacity:0.8;fill:#000000;fill-opacity:1;fill-rule:nonzero;stroke:none;display:inline"
       id="path3459"
       d="M 10.450973,6.6084096 C 10.277947,6.4936014 10.109743,6.3713432 9.941531,6.2495604 9.809816,6.1625376 9.694363,6.0491747 9.556023,5.9723158 c -0.0759,-0.037739 -0.126266,0.00399 -0.172734,0.063493 -0.03639,0.073666 -0.0605,0.1546833 -0.08188,0.2342693 -0.03315,0.071827 -0.0566,0.1473119 -0.09539,0.2164124 -0.04131,0.082824 -0.126612,0.1320768 -0.201123,0.1823674 -0.08591,0.055897 -0.172269,0.064889 -0.2637279,0.019595 -0.013529,-0.00991 -0.028646,-0.017962 -0.040593,-0.029728 C 8.5302971,6.4911075 8.361805,6.3216603 8.1948838,6.1506996 c -0.030156,-0.030884 -0.03381,-0.051875 -0.057465,-0.087158 -0.01477,-0.022026 -0.043787,-0.054633 -0.060996,-0.074676 0.1454808,0.1472623 0.2909616,0.2945246 0.4364416,0.441787 -0.01707,-0.013101 -0.044018,-0.049713 -0.070458,-0.046611 -0.024078,0.00282 -0.045972,0.032208 -0.059534,0.04571 C 8.3155454,6.5381297 8.255115,6.6506049 8.1832831,6.7561697 8.1323186,6.8333952 8.0814156,6.9101456 8.0344352,6.9898971 7.9854016,7.0651098 7.9075509,7.0905884 7.823433,7.1048616 7.7072878,7.1175506 7.6150632,7.0548455 7.5299174,6.9841143 7.2393306,6.7186198 6.9814759,6.5582255 6.9330231,6.1965649 6.9100098,6.1047982 6.9072975,6.0115827 6.8347302,5.9441615 6.9822111,6.0941387 7.1309948,6.2428458 7.2771728,6.3940933 7.285781,6.4029999 7.258287,6.3778888 7.2477018,6.3714569 7.2032822,6.344467 7.1501837,6.337738 7.0994378,6.3362892 7.0296866,6.3438225 6.9597642,6.354685 6.89687,6.3869938 6.8404515,6.427636 6.7812206,6.4681261 6.7412632,6.5259344 6.6990812,6.5830368 6.657279,6.6392965 6.6054387,6.6881329 6.3042177,6.8903052 5.9179041,6.9440817 5.5719288,7.0233512 4.8055275,7.1936016 4.0758558,7.4872636 3.3475768,7.7735506 L 3.0193792,7.418342 C 3.72855,7.1133101 4.4361422,6.7973536 5.1818523,6.589842 5.5043594,6.4925192 5.8538525,6.4164689 6.1262931,6.2073699 6.1738851,6.1600225 6.2136971,6.1068736 6.2539135,6.0532686 6.3026255,5.9896094 6.3665891,5.9421245 6.4297882,5.8935475 c 0.069697,-0.041495 0.14659,-0.056771 0.2259447,-0.069928 0.3339295,-0.046002 0.5127295,0.298115 0.7213595,0.5263023 0.04478,0.085898 0.056819,0.1822046 0.07642,0.2761944 0.06385,0.3034382 0.4142749,0.5369413 -0.3197038,-0.1837114 0.065416,0.070118 0.1439298,0.1402078 0.2425547,0.1532825 0.065373,-0.00663 0.1291152,-0.013631 0.1672098,-0.073922 0.049795,-0.078785 0.1026728,-0.1550509 0.1555405,-0.2317276 0.073443,-0.1087713 0.1383496,-0.2226723 0.2062989,-0.3348009 0.044664,-0.049924 0.097822,-0.1162328 0.1731516,-0.089293 0.012847,0.00459 0.026848,0.00878 0.036625,0.018298 0.1706492,0.1662072 0.3354572,0.3383081 0.5031862,0.5074621 0.029571,0.039355 0.055819,0.081259 0.086702,0.1196009 0.010808,0.013422 0.04618,0.05112 0.03384,0.039091 C 8.6026094,6.4175573 8.1282964,5.9470897 8.3328722,6.1489461 c 0.070943,0.064288 0.1150843,0.081359 0.2033102,0.031628 0.066958,-0.042631 0.1415359,-0.085038 0.1767395,-0.1592534 0.033894,-0.066233 0.056342,-0.1375441 0.085802,-0.2057857 0.026902,-0.08635 0.05198,-0.1758353 0.1010618,-0.2524275 0.06044,-0.07474 0.13561,-0.1460264 0.239442,-0.1228976 0.157575,0.05842 0.270236,0.1987533 0.410455,0.2871375 0.158793,0.1172257 0.323747,0.2257627 0.4827403,0.3423208 l 0.418551,0.5387411 z" />
    <g
       style="display:inline"
       id="g3635"
       transform="matrix(0.12002649,0.03216099,-0.03216099,0.12002649,-2.8383116,-5.5325253)">
      <g
         id="g3405">
        <path
           style="fill:#000000;fill-opacity:1;fill-rule:evenodd;stroke:none"
           d="M 136.49219,126.38198 C 144.75532,118.57975 140,117.74383 140,100.06288 c 0,-6.447951 10,-5.528806 10,-0.3125 0,15.8668 -2.76896,19.86054 -13.50781,26.6316 z"
           id="path3286"
           sodipodi:nodetypes="cssc" />
        <path
           style="opacity:0.3;fill:url(#linearGradient4190);fill-opacity:1;fill-rule:evenodd;stroke:none"
           d="m 140.4232,97.122268 c 0.52381,3.835232 0.83937,5.946262 0.99168,14.065012 0.24348,-3.42757 0.19447,-12.237972 0.85157,-13.029333 0.15349,4.532093 0,9.317753 0,13.950413 0,3.18283 0.70574,-8.30441 0.70574,-8.55026 0,-1.60762 0.10068,-3.21393 0.10068,-4.821558 0,-0.95835 0.35431,1.877708 0.46081,2.828648 0.52487,4.68637 0.17666,9.35164 -0.34561,14.01471 -0.72211,6.44745 0.17467,2.0343 0.46082,-1.47862 0.24521,-3.01053 0.92162,-5.703 0.92162,-8.74312 0,-2.62603 -0.50656,-9.590237 0.11521,-6.814487 1.20366,5.373527 1.15751,11.406447 0.34561,16.843357 -0.0675,0.45187 -0.15361,0.90003 -0.23041,1.35003 -0.14085,0.8253 0.14594,-1.67239 0.23041,-2.5072 0.496,-4.90258 0.57601,-8.7278 0.57601,-13.62898 1.46356,-4.948032 1.1742,11.78631 0.80642,14.0147 0.65244,-4.55631 0.6795,-7.65958 0.86403,-11.50749 0,-2.04545 -0.75049,-7.240594 -0.23041,-5.46444 0.57452,1.962085 1.13832,7.29625 1.13832,11.18605 0,5.66609 0,-4.23161 0,-4.82157 0,-0.11088 0,-11.445791 0,-5.850183 0,3.690063 1.07735,0.723285 0.37024,13.129083 0.85777,-3.93035 0.7955,-11.05674 0.7955,-13.257654 0,-0.547803 0.0535,-0.902334 -0.40321,-1.157179 -3.18031,-0.779318 -5.87939,-2.275995 -8.52503,0.250071 z"
           id="path3358"
           sodipodi:nodetypes="ccccsssssssssscccsssscccc" />
        <path
           transform="matrix(1,0,0,1.3658701,0,-35.053921)"
           style="opacity:0.40540538;fill:url(#linearGradient4192);fill-opacity:1;fill-rule:evenodd;stroke:none"
           d="m 145.8125,95.8125 c -0.17067,0.0052 -0.35807,0.01202 -0.53125,0.03125 -1.13983,0.126595 -2.32171,0.545592 -3.59375,0.90625 0,0.302255 0,1.144049 0,2.1875 0,2.14653 0,5.00734 0,5.0625 0,0.0328 0,0.44515 0,0.53125 0.20675,-2.83547 0.55483,-5.599379 0.9375,-6.90625 0.0329,-0.112462 0.0689,-0.186494 0.0937,-0.25 0.0248,-0.06351 0.044,-0.114767 0.0937,-0.15625 0.0124,-0.01037 0.004,-0.02827 0.0312,-0.03125 0.0276,-0.003 0.0762,0.01645 0.0937,0.03125 0.035,0.02959 0.0256,0.07115 0.0312,0.09375 0.0113,0.04521 0.0302,0.08666 0.0312,0.15625 0.004,0.278344 -0.0339,0.805402 -0.0937,1.46875 -0.11979,1.3267 -0.3125,3.14441 -0.3125,4.15625 0.43739,5.24352 0.29647,11.49436 0.40625,1.8125 0.0292,-1.92578 0.10793,-3.60722 0.28125,-4.53125 0.0433,-0.23101 0.0972,-0.430614 0.15625,-0.5625 0.0295,-0.06594 0.0517,-0.114294 0.0937,-0.15625 0.042,-0.04196 0.0932,-0.06788 0.15625,-0.0625 0.0631,0.0054 0.11144,0.04688 0.15625,0.09375 0.0448,0.04687 0.0835,0.108519 0.125,0.1875 0.0829,0.15796 0.18886,0.37513 0.28125,0.6875 0.002,0.0103 0.002,0.0209 0,0.0312 0,0.95558 0.0431,1.84855 0.0937,2.71875 0.11643,-1.63269 0.30985,-3.26606 0.65625,-4.8125 0.0392,-0.174825 0.0934,-0.302001 0.125,-0.40625 0.0316,-0.104249 0.0284,-0.166738 0.0625,-0.21875 0.017,-0.02601 0.0434,-0.05018 0.0937,-0.0625 0.0252,-0.0062 0.0719,-0.01194 0.0937,0 0.0218,0.01194 0.0218,0.01741 0.0312,0.03125 0.0376,0.05537 0.0516,0.106958 0.0625,0.1875 0.0434,0.32217 0.0233,1.013039 0,1.875 -0.0465,1.72392 -0.15625,4.13019 -0.15625,5.4375 2.97799,20.51516 -0.34889,11.7317 0.84375,-3.78125 0.0534,-0.47691 0.17711,-1.41913 0.28125,-2.125 0.0521,-0.352934 0.0872,-0.659069 0.125,-0.8125 0.009,-0.03836 0.0195,-0.06696 0.0312,-0.09375 0.006,-0.0134 0.006,-0.0094 0.0312,-0.03125 0.003,-0.0027 0.0309,-0.03101 0.0312,-0.03125 7.3e-4,-3.04e-4 0.0618,-5.8e-5 0.0625,0 7e-4,5.8e-5 0.0306,-4.25e-4 0.0312,0 3.3e-4,2.12e-4 -3.2e-4,0.03095 0,0.03125 3.2e-4,3.05e-4 0.0285,-0.0034 0.0312,0 0.0217,0.02737 0.0281,0.04734 0.0312,0.0625 0.003,0.01516 -0.002,0.01312 0,0.03125 0.003,0.03625 0,0.09493 0,0.15625 0.23631,3.48243 0.14784,6.89582 -0.53477,10.34375 0.23363,7.17134 1.11129,-10.15946 1.12852,-10.9375 -0.002,-0.01034 -0.002,-0.02091 0,-0.03125 0.008,-0.01284 0.0184,-0.02358 0.0312,-0.03125 0.008,-0.01284 0.0184,-0.02358 0.0312,-0.03125 0.0103,-0.0018 0.0209,-0.0018 0.0312,0 0.0103,-0.0018 0.0209,-0.0018 0.0312,0 0.0128,0.0077 0.0236,0.01841 0.0312,0.03125 0.10858,0.130768 0.18638,0.359165 0.25,0.6875 0.70064,3.28565 -0.39318,6.58079 -0.17586,9.87168 0.73895,-5.86544 1.1549,-8.14002 1.61336,-11.49668 -1.13103,-1.065418 -2.25449,-1.380058 -3.4375,-1.34375 z M 141.5,96.78125 c -0.21401,0.05926 -0.40538,0.133683 -0.625,0.1875 -0.21156,0.118058 -0.27258,0.236879 -0.3125,0.40625 -0.0399,0.169371 -0.0313,0.379575 -0.0312,0.65625 0,1.949501 0.48393,7.70099 1.06158,11.71764 -0.71526,-3.8759 -0.21564,-7.72275 -0.0928,-11.59264 0,-0.699451 0,-1.149463 0,-1.375 z"
           id="path3380"
           sodipodi:nodetypes="cscsscssssssssccsssssssscssssssssccssssssssssscccssssssccccccssccc" />
        <path
           sodipodi:nodetypes="cssc"
           id="path3394"
           d="M 136.49219,126.38198 C 144.75532,118.57975 140,117.74383 140,100.06288 c 0,-6.447951 10,-5.528806 10,-0.3125 0,15.8668 -2.76896,19.86054 -13.50781,26.6316 z"
           style="fill:url(#linearGradient4194);fill-opacity:1;fill-rule:evenodd;stroke:none" />
      </g>
      <g
         id="g3538">
        <path
           sodipodi:type="inkscape:offset"
           inkscape:radius="0.24918392"
           inkscape:original="M 142.5625 66.3125 C 137.3178 66.3125 129.4714 79.92671 132.09375 84.46875 C 134.7161 89.01079 150.44015 89.010791 153.0625 84.46875 C 155.68485 79.92671 147.8072 66.312499 142.5625 66.3125 z "
           style="fill:url(#linearGradient4249);fill-opacity:1;fill-rule:evenodd;stroke:none"
           id="path4247"
           d="m 142.5625,66.0625 c -1.41898,0 -2.91883,0.911367 -4.375,2.28125 -1.45617,1.369883 -2.87628,3.215271 -4.03125,5.21875 -1.15497,2.003479 -2.04371,4.146648 -2.5,6.09375 -0.45629,1.947102 -0.49069,3.708709 0.21875,4.9375 0.7095,1.228894 2.24086,2.078995 4.15625,2.65625 1.91539,0.577255 4.21739,0.875 6.53125,0.875 2.31386,0 4.64711,-0.297745 6.5625,-0.875 1.91539,-0.577255 3.44675,-1.427355 4.15625,-2.65625 0.70955,-1.228976 0.67802,-2.990378 0.21875,-4.9375 -0.45927,-1.947122 -1.37235,-4.090301 -2.53125,-6.09375 -1.1589,-2.003449 -2.54093,-3.848936 -4,-5.21875 -1.45907,-1.369814 -2.98727,-2.28125 -4.40625,-2.28125 z"
           transform="matrix(0.4227683,0,0,3.8920276,84.725753,-249.77347)" />
        <path
           style="opacity:0.6;fill:#ffbb93;fill-opacity:1;fill-rule:evenodd;stroke:none;filter:url(#filter3526)"
           d="m 143.67443,22.398152 c -0.0922,0 -0.32253,1.821635 -0.56854,5.943768 -0.24601,4.122133 -0.50641,10.11869 -0.71685,16.620539 -0.21044,6.501848 -0.37402,13.511641 -0.45112,19.372282 -0.0771,5.86064 -0.0462,10.353002 0,11.777468 0.0461,1.421597 0.24485,4.096191 0.56853,5.833698 0.32369,1.737507 0.75253,2.751745 1.17416,2.751745 0.42163,0 0.84429,-1.014238 1.16797,-2.751745 0.32369,-1.737507 0.52246,-4.412101 0.56854,-5.833698 0.046,-1.419341 0.0776,-5.917363 0,-11.777468 -0.0776,-5.860105 -0.24612,-12.869595 -0.4573,-19.372282 -0.21119,-6.502688 -0.47023,-12.496493 -0.71685,-16.620539 -0.24663,-4.124045 -0.47634,-5.943768 -0.56854,-5.943768 z"
           id="path3519" />
      </g>
      <g
         id="g3530">
        <path
           style="fill:url(#linearGradient4200);fill-opacity:1;fill-rule:evenodd;stroke:url(#linearGradient4202);stroke-width:2.01190162;stroke-linecap:square;stroke-linejoin:miter;stroke-miterlimit:4;stroke-opacity:1;stroke-dasharray:none;stroke-dashoffset:0"
           d="m 140.5,78.5 0,2.875 c 0.30889,0.274816 0.5,0.679341 0.5,1.125 0,0.445659 -0.19111,0.850184 -0.5,1.125 l 0,3.75 c 0.30889,0.274816 0.5,0.679341 0.5,1.125 0,0.445659 -0.19111,0.850184 -0.5,1.125 l 0,3.75 c 0.30889,0.274816 0.5,0.679341 0.5,1.125 0,0.445659 -0.19111,0.850184 -0.5,1.125 l 0,1.875 9,0 0,-1.875 C 149.1911,95.350184 149,94.945659 149,94.5 c 0,-0.445659 0.1911,-0.850184 0.5,-1.125 l 0,-3.75 C 149.1911,89.350184 149,88.945659 149,88.5 c 0,-0.445659 0.1911,-0.850184 0.5,-1.125 l 0,-3.75 C 149.1911,83.350184 149,82.945659 149,82.5 c 0,-0.445659 0.1911,-0.850184 0.5,-1.125 l 0,-2.875 -9,0 z"
           id="rect2478" />
        <g
           id="g3493">
          <path
             sodipodi:nodetypes="ccccccc"
             id="path3463"
             d="m 139.99458,81 0,0.579723 c 0.338,0.322181 0.46459,0.420277 0.5076,0.920277 l 8.99492,0 c 0.0372,-0.48902 0.12747,-0.578546 0.49861,-0.90625 l 0,-0.59375 -10.00113,0 z"
             style="opacity:0.2;fill:url(#linearGradient3914);fill-opacity:1;fill-rule:evenodd;stroke:none" />
          <path
             style="opacity:0.3;fill:url(#linearGradient3916);fill-opacity:1;fill-rule:evenodd;stroke:none"
             d="m 139.99458,83.984375 0,-0.579723 c 0.338,-0.322181 0.46459,-0.420277 0.5076,-0.920277 l 8.99492,0 c 0.0372,0.48902 0.12747,0.578546 0.49861,0.90625 l 0,0.59375 -10.00113,0 z"
             id="path3489"
             sodipodi:nodetypes="ccccccc" />
        </g>
        <use
           x="0"
           y="0"
           xlink:href="#g3493"
           id="use3497"
           transform="translate(0,6)"
           width="128"
           height="128" />
        <use
           x="0"
           y="0"
           xlink:href="#g3493"
           id="use3499"
           transform="translate(0,12)"
           width="128"
           height="128" />
      </g>
    </g>
    <path
       style="opacity:0.6;fill:url(#linearGradient4186);fill-opacity:1;fill-rule:evenodd;stroke:none;display:inline"
       d="m 20.387395,3.9806906 c -0.05334,-0.053335 -0.415358,0.1933369 -0.936317,0.6013293 -0.520959,0.407992 -1.203328,0.9802614 -1.930295,1.6172737 -0.726967,0.6370125 -1.491281,1.3344749 -2.169179,1.9769729 -0.630644,0.5977133 -1.181425,1.1442359 -1.559612,1.5651033 -0.01675,-0.00178 -0.03465,8.876e-4 -0.04668,0.013729 l -0.252614,0.2526132 c -0.01178,0.01144 -0.01783,0.02756 -0.01647,0.04393 0.0021,0.0358 -0.01038,0.07079 -0.03844,0.09885 -0.02806,0.02806 -0.06305,0.04053 -0.09885,0.03844 -0.01637,-0.0013 -0.03249,0.0047 -0.04393,0.01647 l -0.329496,0.329495 c -0.01178,0.01144 -0.01783,0.02756 -0.01647,0.04393 0.0021,0.0358 -0.01039,0.07079 -0.03844,0.09885 -0.02806,0.02806 -0.06305,0.04053 -0.09885,0.03844 -0.01637,-0.0013 -0.03249,0.0047 -0.04393,0.01647 l -0.329495,0.329496 c -0.01178,0.01144 -0.01783,0.02756 -0.01647,0.04393 0.0021,0.0358 -0.01038,0.07079 -0.03844,0.09885 -0.02806,0.02806 -0.06304,0.04053 -0.09885,0.03844 -0.01637,-0.0013 -0.03249,0.0047 -0.04393,0.01647 l -0.164749,0.164748 c -0.01992,0.02033 -0.02075,0.05269 -0.0027,0.07414 -0.0769,0.02678 -0.155459,0.07308 -0.227901,0.145527 -1.553545,1.553545 -1.221453,1.627528 -2.2680293,2.355894 1.2666993,-0.187241 1.7799973,-0.110553 3.1741413,-1.504698 0.0596,-0.05961 0.09769,-0.128341 0.11807,-0.200442 0.02144,0.018 0.05381,0.01718 0.07414,-0.0027 l 0.164749,-0.164748 c 0.01178,-0.01144 0.01783,-0.02756 0.01647,-0.04393 -0.0021,-0.0358 0.01038,-0.07079 0.03844,-0.09885 0.02806,-0.02806 0.06304,-0.04053 0.09885,-0.03844 0.01637,0.0013 0.03249,-0.0047 0.04393,-0.01647 l 0.329496,-0.329495 c 0.01178,-0.01144 0.01783,-0.02756 0.01647,-0.04393 -0.0021,-0.0358 0.01039,-0.07079 0.03844,-0.09885 0.02806,-0.02806 0.06304,-0.04054 0.09885,-0.03844 0.01637,0.0013 0.03249,-0.0047 0.04393,-0.01647 l 0.329495,-0.329495 c 0.01178,-0.01144 0.01783,-0.02756 0.01647,-0.04393 -0.0021,-0.0358 0.01039,-0.07079 0.03844,-0.09885 0.02806,-0.02806 0.06304,-0.04053 0.09885,-0.03844 0.01637,0.0013 0.03249,-0.0047 0.04393,-0.01647 l 0.252613,-0.252613 c 0.01169,-0.01193 0.01785,-0.02846 0.01647,-0.04393 0.420903,-0.378192 0.967495,-0.9288572 1.565104,-1.5596116 0.642387,-0.6780172 1.34012,-1.4420628 1.976974,-2.169179 0.636854,-0.7271162 1.209407,-1.4092327 1.617274,-1.9302945 0.407865,-0.5210627 0.651919,-0.8857269 0.598584,-0.9390621 z"
       id="path3544"
       sodipodi:nodetypes="cssscccsssccsssccssscccscscccsssccsssccssscccsssc" />
  </g>
</svg>
