<?xml version="1.0" encoding="UTF-8" standalone="no"?>
<!-- Created with Inkscape (http://www.inkscape.org/) -->

<svg
   xmlns:dc="http://purl.org/dc/elements/1.1/"
   xmlns:cc="http://creativecommons.org/ns#"
   xmlns:rdf="http://www.w3.org/1999/02/22-rdf-syntax-ns#"
   xmlns:svg="http://www.w3.org/2000/svg"
   xmlns="http://www.w3.org/2000/svg"
   xmlns:xlink="http://www.w3.org/1999/xlink"
   xmlns:sodipodi="http://sodipodi.sourceforge.net/DTD/sodipodi-0.dtd"
   xmlns:inkscape="http://www.inkscape.org/namespaces/inkscape"
   width="16"
   height="16"
   id="svg2"
   sodipodi:version="0.32"
   inkscape:version="0.48.1 r9760"
   version="1.0"
   sodipodi:docname="internet-archive.svg"
   inkscape:output_extension="org.inkscape.output.svg.inkscape"
   style="display:inline">
  <defs
     id="defs4">
    <inkscape:perspective
       sodipodi:type="inkscape:persp3d"
       inkscape:vp_x="0 : 8 : 1"
       inkscape:vp_y="0 : 1000 : 0"
       inkscape:vp_z="16 : 8 : 1"
       inkscape:persp3d-origin="8 : 5.3333333 : 1"
       id="perspective35" />
    <linearGradient
       inkscape:collect="always"
       id="linearGradient3327">
      <stop
         style="stop-color:#000000;stop-opacity:1;"
         offset="0"
         id="stop3330" />
      <stop
         style="stop-color:#000000;stop-opacity:0;"
         offset="1"
         id="stop3333" />
    </linearGradient>
    <linearGradient
       id="ButtonColor"
       x1="10.31979"
       y1="21"
       x2="10.31979"
       y2="0.99929649"
       gradientUnits="userSpaceOnUse">
      <stop
         style="stop-color:#29669f;stop-opacity:1;"
         offset="0"
         id="stop3189" />
      <stop
         style="stop-color:#88b6e0;stop-opacity:1;"
         offset="1"
         id="stop3191" />
    </linearGradient>
    <linearGradient
       inkscape:collect="always"
       xlink:href="#ButtonColor-0"
       id="linearGradient3204"
       x1="1"
       y1="9"
       x2="15"
       y2="9"
       gradientUnits="userSpaceOnUse"
       gradientTransform="translate(-17,-2)" />
    <linearGradient
       inkscape:collect="always"
       xlink:href="#linearGradient3327"
       id="linearGradient3629"
       x1="0"
       y1="8"
       x2="29.017237"
       y2="8"
       gradientUnits="userSpaceOnUse"
       gradientTransform="matrix(0,-1,1,0,0,16)" />
    <linearGradient
       inkscape:collect="always"
       xlink:href="#SVGID_1_-4"
       id="linearGradient3765"
       gradientUnits="userSpaceOnUse"
       gradientTransform="matrix(0.09341072,0,0,0.04108075,-26.756456,8.0246654)"
       x1="383.28857"
       y1="0"
       x2="383.28857"
       y2="218.48047" />
    <linearGradient
       id="SVGID_1_-4"
       gradientUnits="userSpaceOnUse"
       x1="383.28857"
       y1="0"
       x2="383.28857"
       y2="218.48047">
      <stop
         offset="0.005618"
         style="stop-color:#ED2828"
         id="stop3143-2" />
      <stop
         offset="0.5"
         style="stop-color:#EF3B39"
         id="stop3145-1" />
      <stop
         offset="0.994382"
         style="stop-color:#C02126"
         id="stop3147-3" />
    </linearGradient>
    <linearGradient
       y2="180.6748"
       x2="175.30762"
       y1="73.254395"
       x1="175.30762"
       gradientUnits="userSpaceOnUse"
       id="linearGradient3749-5">
      <stop
         id="stop3751-8"
         style="stop-color:#000000;stop-opacity:1;"
         offset="0" />
      <stop
         id="stop3753-7"
         style="stop-color:#000000;stop-opacity:0.4728682;"
         offset="0.99438202" />
    </linearGradient>
    <linearGradient
       inkscape:collect="always"
       xlink:href="#linearGradient3749-5"
       id="linearGradient3754"
       gradientUnits="userSpaceOnUse"
       gradientTransform="matrix(0.04164302,0,0,0.03408859,1.9444673,0.78644322)"
       x1="175.30762"
       y1="73.254395"
       x2="175.30762"
       y2="180.6748" />
    <linearGradient
       inkscape:collect="always"
       xlink:href="#linearGradient3749-5"
       id="linearGradient3756"
       gradientUnits="userSpaceOnUse"
       gradientTransform="matrix(0.04998763,0,0,0.03408859,2.4795353,0.78644322)"
       x1="175.30762"
       y1="73.254395"
       x2="175.30762"
       y2="180.6748" />
    <linearGradient
       y2="180.6748"
       x2="175.30762"
       y1="73.254395"
       x1="175.30762"
       gradientTransform="matrix(0.04859283,0,0,0.03408859,3.115962,0.78644322)"
       gradientUnits="userSpaceOnUse"
       id="linearGradient3809"
       xlink:href="#linearGradient3749-5"
       inkscape:collect="always" />
    <inkscape:perspective
       id="perspective3729"
       inkscape:persp3d-origin="0.5 : 0.33333333 : 1"
       inkscape:vp_z="1 : 0.5 : 1"
       inkscape:vp_y="0 : 1000 : 0"
       inkscape:vp_x="0 : 0.5 : 1"
       sodipodi:type="inkscape:persp3d" />
    <linearGradient
       inkscape:collect="always"
       xlink:href="#linearGradient3696"
       id="linearGradient4163"
       x1="6"
       y1="48"
       x2="90"
       y2="48"
       gradientUnits="userSpaceOnUse"
       gradientTransform="translate(-96,0)" />
    <linearGradient
       id="linearGradient3696">
      <stop
         id="stop3698"
         offset="0"
         style="stop-color:#2458a6;stop-opacity:1;" />
      <stop
         id="stop3700"
         offset="1"
         style="stop-color:#598ad4;stop-opacity:1;" />
    </linearGradient>
    <linearGradient
       y2="48"
       x2="90"
       y1="48"
       x1="6"
       gradientTransform="translate(-52.867199,-57.252856)"
       gradientUnits="userSpaceOnUse"
       id="linearGradient3738"
       xlink:href="#linearGradient3696"
       inkscape:collect="always" />
    <inkscape:perspective
       id="perspective3703"
       inkscape:persp3d-origin="0.5 : 0.33333333 : 1"
       inkscape:vp_z="1 : 0.5 : 1"
       inkscape:vp_y="0 : 1000 : 0"
       inkscape:vp_x="0 : 0.5 : 1"
       sodipodi:type="inkscape:persp3d" />
    <linearGradient
       gradientTransform="matrix(0.19388162,0,0,0.19388162,-1.4007219,-1.9461429)"
       inkscape:collect="always"
       xlink:href="#linearGradient4099"
       id="linearGradient4113"
       x1="22.111456"
       y1="62.983868"
       x2="40"
       y2="32"
       gradientUnits="userSpaceOnUse" />
    <linearGradient
       id="linearGradient4099">
      <stop
         style="stop-color:#9ede27;stop-opacity:1;"
         offset="0"
         id="stop4101" />
      <stop
         style="stop-color:#c8f16b;stop-opacity:1;"
         offset="1"
         id="stop4103" />
    </linearGradient>
    <linearGradient
       gradientTransform="matrix(0.19388162,0,0,0.19388162,-1.5256152,-1.9461429)"
       inkscape:collect="always"
       xlink:href="#linearGradient4099"
       id="linearGradient4105"
       x1="38"
       y1="74"
       x2="70"
       y2="49"
       gradientUnits="userSpaceOnUse" />
    <linearGradient
       id="linearGradient3712">
      <stop
         style="stop-color:#9ede27;stop-opacity:1;"
         offset="0"
         id="stop3714" />
      <stop
         style="stop-color:#c8f16b;stop-opacity:1;"
         offset="1"
         id="stop3716" />
    </linearGradient>
    <linearGradient
       inkscape:collect="always"
       xlink:href="#linearGradient3799-3"
       id="linearGradient3746"
       gradientUnits="userSpaceOnUse"
       x1="56.037025"
       y1="49.333305"
       x2="56.037025"
       y2="13.593002"
       gradientTransform="matrix(0.26518093,0,0,0.26518093,-0.34872536,-3.7081516)" />
    <linearGradient
       id="linearGradient3799-3">
      <stop
         style="stop-color:#1a1a1a;stop-opacity:1;"
         offset="0"
         id="stop3801-3" />
      <stop
         style="stop-color:#000000;stop-opacity:1;"
         offset="1"
         id="stop3803-2" />
    </linearGradient>
    <linearGradient
       y2="13.593002"
       x2="56.037025"
       y1="49.333305"
       x1="56.037025"
       gradientTransform="matrix(0.19388162,0,0,0.19388162,-1.3401963,-1.8843368)"
       gradientUnits="userSpaceOnUse"
       id="linearGradient3726"
       xlink:href="#linearGradient3799-3"
       inkscape:collect="always" />
    <inkscape:perspective
       id="perspective3736"
       inkscape:persp3d-origin="0.5 : 0.33333333 : 1"
       inkscape:vp_z="1 : 0.5 : 1"
       inkscape:vp_y="0 : 1000 : 0"
       inkscape:vp_x="0 : 0.5 : 1"
       sodipodi:type="inkscape:persp3d" />
    <radialGradient
       inkscape:collect="always"
       xlink:href="#linearGradient3784-2"
       id="radialGradient3758"
       gradientUnits="userSpaceOnUse"
       gradientTransform="matrix(1.0456205,0.08243661,-0.05194947,0.90987799,0.84943041,1.3399685)"
       cx="49.580967"
       cy="67.04126"
       fx="49.580967"
       fy="67.04126"
       r="10" />
    <linearGradient
       id="linearGradient3784-2">
      <stop
         id="stop3786-4"
         offset="0"
         style="stop-color:#a0a0a0;stop-opacity:1;" />
      <stop
         id="stop3790-2"
         offset="1"
         style="stop-color:#1a1a1a;stop-opacity:1;" />
    </linearGradient>
    <radialGradient
       r="10"
       fy="67.04126"
       fx="49.580967"
       cy="67.04126"
       cx="49.580967"
       gradientTransform="matrix(1.0456205,0.08243661,-0.05194947,0.90987799,0.84943041,1.3399685)"
       gradientUnits="userSpaceOnUse"
       id="radialGradient3745"
       xlink:href="#linearGradient3784-2"
       inkscape:collect="always" />
    <radialGradient
       inkscape:collect="always"
       xlink:href="#linearGradient3784-2"
       id="radialGradient3698"
       cx="10.116978"
       cy="6.5340972"
       fx="10.116978"
       fy="6.5340972"
       r="2.6487656"
       gradientTransform="matrix(0.60548597,-0.18291744,0.13322228,0.44098703,0.81853832,7.6996387)"
       gradientUnits="userSpaceOnUse" />
    <linearGradient
       inkscape:collect="always"
       xlink:href="#ButtonColor-0"
       id="linearGradient3181"
       x1="-3.0607977"
       y1="27.258198"
       x2="-3.0607977"
       y2="7.2536583"
       gradientUnits="userSpaceOnUse"
       gradientTransform="translate(12.119372,-7.2581977)" />
    <linearGradient
       id="ButtonColor-0"
       x1="10.31979"
       y1="21"
       x2="10.31979"
       y2="0.99929649"
       gradientUnits="userSpaceOnUse">
      <stop
         style="stop-color:#623c27;stop-opacity:1"
         offset="0"
         id="stop3189-9" />
      <stop
         style="stop-color:#845639;stop-opacity:1;"
         offset="1"
         id="stop3191-0" />
    </linearGradient>
    <linearGradient
       gradientTransform="matrix(0.79780985,0,0,1,-1.584669,-3)"
       inkscape:collect="always"
       xlink:href="#linearGradient3675"
       id="linearGradient3681"
       x1="12"
       y1="8"
       x2="12"
       y2="6"
       gradientUnits="userSpaceOnUse" />
    <linearGradient
       inkscape:collect="always"
       id="linearGradient3675">
      <stop
         style="stop-color:#c6aa9e;stop-opacity:1;"
         offset="0"
         id="stop3677" />
      <stop
         style="stop-color:#c6aa9e;stop-opacity:0;"
         offset="1"
         id="stop3679" />
    </linearGradient>
    <linearGradient
       y2="7.2536583"
       x2="-3.0607977"
       y1="27.258198"
       x1="-3.0607977"
       gradientTransform="translate(-17.880628,-13.258198)"
       gradientUnits="userSpaceOnUse"
       id="linearGradient3060"
       xlink:href="#ButtonColor-0"
       inkscape:collect="always" />
    <linearGradient
       inkscape:collect="always"
       xlink:href="#ButtonColor-0"
       id="linearGradient3884"
       gradientUnits="userSpaceOnUse"
       gradientTransform="translate(-17,-22)"
       x1="1"
       y1="9"
       x2="15"
       y2="9" />
    <linearGradient
       inkscape:collect="always"
       xlink:href="#linearGradient3327"
       id="linearGradient3886"
       gradientUnits="userSpaceOnUse"
       gradientTransform="matrix(0,-1,1,0,-20,16)"
       x1="0"
       y1="8"
       x2="29.017237"
       y2="8" />
    <linearGradient
       inkscape:collect="always"
       xlink:href="#linearGradient3675"
       id="linearGradient3888"
       gradientUnits="userSpaceOnUse"
       gradientTransform="matrix(0.79780985,0,0,1,-21.584669,-3)"
       x1="12"
       y1="8"
       x2="12"
       y2="6" />
    <linearGradient
       inkscape:collect="always"
       xlink:href="#linearGradient3675"
       id="linearGradient3905"
       gradientUnits="userSpaceOnUse"
       gradientTransform="matrix(0.79780985,0,0,1,-1.584669,-3)"
       x1="12"
       y1="8"
       x2="12"
       y2="6" />
    <linearGradient
       inkscape:collect="always"
       xlink:href="#linearGradient3675"
       id="linearGradient3914"
       gradientUnits="userSpaceOnUse"
       gradientTransform="matrix(0.79780985,0,0,1,-21.584669,-3)"
       x1="12"
       y1="8"
       x2="12"
       y2="6" />
  </defs>
  <sodipodi:namedview
     id="base"
     pagecolor="#ffffff"
     bordercolor="#e7e7e7"
     borderopacity="1"
     inkscape:pageopacity="0.0"
     inkscape:pageshadow="2"
     inkscape:zoom="26.212949"
     inkscape:cx="-2.4088927"
     inkscape:cy="9.5563131"
     inkscape:document-units="px"
     inkscape:current-layer="layer1"
     showgrid="true"
     inkscape:showpageshadow="false"
     showguides="false"
     inkscape:guide-bbox="true"
     inkscape:window-width="1920"
     inkscape:window-height="1056"
     inkscape:window-x="0"
     inkscape:window-y="24"
     inkscape:window-maximized="1"
     inkscape:snap-global="false">
    <sodipodi:guide
       orientation="1,0"
       position="0,112"
       id="guide2383" />
    <sodipodi:guide
       orientation="0,1"
       position="26.278146,128"
       id="guide2385" />
    <sodipodi:guide
       orientation="1,0"
       position="128,54.082119"
       id="guide2387" />
    <sodipodi:guide
       orientation="0,1"
       position="78.156291,0"
       id="guide2389" />
    <sodipodi:guide
       orientation="0,1"
       position="60.863576,64.084768"
       id="guide2391" />
    <inkscape:grid
       type="xygrid"
       id="grid3672"
       visible="true"
       enabled="true" />
  </sodipodi:namedview>
  <metadata
     id="metadata7">
    <rdf:RDF>
      <cc:Work
         rdf:about="">
        <dc:format>image/svg+xml</dc:format>
        <dc:type
           rdf:resource="http://purl.org/dc/dcmitype/StillImage" />
        <dc:title></dc:title>
      </cc:Work>
    </rdf:RDF>
  </metadata>
  <g
     inkscape:label="Button"
     inkscape:groupmode="layer"
     id="layer1">
    <rect
       ry="2"
       rx="2"
       y="0"
       x="-16"
       height="16"
       width="16"
       id="rect3196"
       style="fill:url(#linearGradient3204);fill-opacity:1.0;fill-rule:nonzero;stroke:none"
       transform="matrix(0,-1,1,0,0,0)" />
    <path
       style="opacity:0.4;fill:url(#linearGradient3629);fill-opacity:1;fill-rule:nonzero;stroke:none"
       d="m 0,14 c 0,1.108 0.892,2 2,2 l 12,0 c 1.108,0 2,-0.892 2,-2 L 16,2 C 16,0.892 15.108,0 14,0 L 2,0 C 0.892,0 0,0.892 0,2 l 0,12 z m 0.96875,0 0,-12 C 0.96875,1.416801 1.4168007,0.96875 2,0.96875 l 12,0 c 0.583199,0 1.03125,0.448051 1.03125,1.03125 l 0,12 c 0,0.583199 -0.448051,1.03125 -1.03125,1.03125 l -12,0 C 1.4168007,15.03125 0.96875,14.583199 0.96875,14 z"
       id="rect2835" />
    <path
       style="fill:#ffffff;fill-opacity:1;fill-rule:nonzero;stroke:none;opacity:0.15"
       d="M 2 0.96875 C 1.4168007 0.96875 0.96875 1.4168007 0.96875 2 L 0.96875 3 C 0.96875 2.4168007 1.4168007 1.96875 2 1.96875 L 14 1.96875 C 14.583199 1.96875 15.03125 2.4168007 15.03125 3 L 15.03125 2 C 15.03125 1.4168007 14.583199 0.96875 14 0.96875 L 2 0.96875 z "
       id="path2843" />
    <g
       id="g3899"
       transform="translate(20,0)">
      <path
         d="M 7.9375,2 A 0.49745294,0.49745294 0 0 0 7.78125,2.0625 l -6,3 A 0.49745294,0.49745294 0 0 0 1.5,5.5 l 0,1 A 0.49745294,0.49745294 0 0 0 2,7 L 3.90625,7 A 0.49745294,0.49745294 0 0 0 3.5,7.5 l 0,3 A 0.49745294,0.49745294 0 0 0 3.90625,11 L 3,11 a 0.49745294,0.49745294 0 0 0 -0.5,0.5 l 0,1 A 0.49745294,0.49745294 0 0 0 2.90625,13 L 1.9375,13 a 0.49745294,0.49745294 0 0 0 -0.5,0.5 l 0,1 a 0.49745294,0.49745294 0 0 0 0.5,0.5 l 12.125,0 a 0.49745294,0.49745294 0 0 0 0.5,-0.5 l 0,-1 a 0.49745294,0.49745294 0 0 0 -0.5,-0.5 l -0.96875,0 A 0.49745294,0.49745294 0 0 0 13.5,12.5 l 0,-1 A 0.49745294,0.49745294 0 0 0 13,11 l -0.90625,0 A 0.49745294,0.49745294 0 0 0 12.5,10.5 l 0,-3 A 0.49745294,0.49745294 0 0 0 12.09375,7 L 14,7 a 0.49745294,0.49745294 0 0 0 0.5,-0.5 l 0,-1 A 0.49745294,0.49745294 0 0 0 14.21875,5.0625 l -6,-3 A 0.49745294,0.49745294 0 0 0 7.9375,2 z M 6.09375,7 6.90625,7 A 0.49745294,0.49745294 0 0 0 6.5,7.40625 0.49745294,0.49745294 0 0 0 6.09375,7 z m 3,0 0.8125,0 A 0.49745294,0.49745294 0 0 0 9.5,7.40625 0.49745294,0.49745294 0 0 0 9.09375,7 z M 6.5,10.59375 A 0.49745294,0.49745294 0 0 0 6.90625,11 l -0.8125,0 A 0.49745294,0.49745294 0 0 0 6.5,10.59375 z m 3,0 A 0.49745294,0.49745294 0 0 0 9.90625,11 l -0.8125,0 A 0.49745294,0.49745294 0 0 0 9.5,10.59375 z"
         id="path3897"
         style="opacity:0.15;color:#000000;fill:#000000;fill-opacity:1;fill-rule:nonzero;stroke:none;stroke-width:0.30000001;marker:none;visibility:visible;display:inline;overflow:visible;enable-background:accumulate"
         inkscape:original="M 8 2.5 L 2 5.5 L 2 6.5 L 14 6.5 L 14 5.5 L 8 2.5 z M 4 7.5 L 4 10.5 L 6 10.5 L 6 7.5 L 4 7.5 z M 7 7.5 L 7 10.5 L 9 10.5 L 9 7.5 L 7 7.5 z M 10 7.5 L 10 10.5 L 12 10.5 L 12 7.5 L 10 7.5 z M 3 11.5 L 3 12.5 L 13 12.5 L 13 11.5 L 3 11.5 z M 1.9375 13.5 L 1.9375 14.5 L 14.0625 14.5 L 14.0625 13.5 L 1.9375 13.5 z "
         inkscape:radius="0.4974032"
         sodipodi:type="inkscape:offset" />
      <path
         inkscape:connector-curvature="0"
         style="opacity:0.3;color:#000000;fill:#000000;fill-opacity:1;fill-rule:nonzero;stroke:none;stroke-width:0.30000001;marker:none;visibility:visible;display:inline;overflow:visible;enable-background:accumulate"
         d="m 8,2.5 -6,3 0,1 12,0 0,-1 -6,-3 z m -4,5 0,3 2,0 0,-3 -2,0 z m 3,0 0,3 2,0 0,-3 -2,0 z m 3,0 0,3 2,0 0,-3 -2,0 z m -7,4 0,1 10,0 0,-1 -10,0 z m -1.0625,2 0,1 12.125,0 0,-1 -12.125,0 z"
         id="path3893" />
      <path
         id="rect3654"
         d="M 8,2 2,5 2,6 14,6 14,5 8,2 z M 4,7 4,10 6,10 6,7 4,7 z m 3,0 0,3 2,0 0,-3 -2,0 z m 3,0 0,3 2,0 0,-3 -2,0 z m -7,4 0,1 10,0 0,-1 -10,0 z m -1.0625,2 0,1 12.125,0 0,-1 -12.125,0 z"
         style="color:#000000;fill:#fff0e0;fill-opacity:1;fill-rule:nonzero;stroke:none;stroke-width:0.30000001;marker:none;visibility:visible;display:inline;overflow:visible;enable-background:accumulate"
         inkscape:connector-curvature="0" />
      <path
         inkscape:connector-curvature="0"
         id="path3673"
         d="M 7.9890493,3 4,5 11.978099,5 7.9890493,3 z"
         style="fill:url(#linearGradient3905);fill-opacity:1;stroke:none;display:inline" />
    </g>
    <g
       id="g3907"
       transform="translate(20,0)">
      <path
         style="opacity:0.05;color:#000000;fill:#000000;fill-opacity:1;fill-rule:nonzero;stroke:none;stroke-width:0.30000001;marker:none;visibility:visible;display:inline;overflow:visible;enable-background:accumulate"
         d="m -12.125,1.4375 c -0.413815,0.1206059 -0.844835,0.3905471 -1.271866,0.5890579 -1.732295,0.8661474 -3.464589,1.7322947 -5.196884,2.5984421 -0.343635,0.2616036 -0.484961,0.6872715 -0.4375,1.1055922 0.02966,0.502495 -0.124328,1.083867 0.28125,1.4569078 0.27068,0.3381275 0.688517,0.3693466 1.095888,0.34375 0.183462,0.04978 0.567402,-0.1009179 0.622862,0.076864 0,1.2868786 0,2.573757 0,3.860636 -0.440121,-0.0048 -0.859207,0.368788 -0.96875,0.78125 -0.06757,0.455257 -0.01438,0.939023 -0.03125,1.40625 0.07559,0.379695 0.400498,0.750149 0.78125,0.84375 0.607482,0.0693 1.244608,0.01302 1.864146,0.03125 2.847368,0 5.694736,0 8.542104,0 C -6.464055,14.455666 -6.093601,14.130752 -6,13.75 -5.932426,13.294743 -5.98562,12.810977 -5.96875,12.34375 -6.044334,11.964055 -6.369248,11.593601 -6.75,11.5 c -0.353982,0.0513 -0.177461,-0.345438 -0.21875,-0.569299 0,-1.13315 0,-2.2663005 0,-3.399451 C -6.542151,7.5187807 -6.102605,7.5611595 -5.6875,7.5 -5.275222,7.3134194 -4.913997,6.9013987 -4.96875,6.4231359 -4.984681,6.0229757 -4.934087,5.607111 -5,5.21875 -5.106977,4.7854088 -5.491806,4.5530708 -5.874997,4.3906267 -7.800477,3.427969 -9.739049,2.4584893 -11.65625,1.5 -11.791487,1.4342587 -11.960954,1.433967 -12.125,1.4375 z"
         id="path3874"
         inkscape:connector-curvature="0" />
      <path
         transform="translate(-20,0)"
         sodipodi:type="inkscape:offset"
         inkscape:radius="0.50897229"
         inkscape:original="M 8 2.5 L 2 5.5 L 2 6.5 L 14 6.5 L 14 5.5 L 8 2.5 z M 4 7.5 L 4 11.5 L 6 11.5 L 6 7.5 L 4 7.5 z M 7 7.5 L 7 11.5 L 9 11.5 L 9 7.5 L 7 7.5 z M 10 7.5 L 10 11.5 L 12 11.5 L 12 7.5 L 10 7.5 z M 3 12.5 L 3 13.5 L 13 13.5 L 13 12.5 L 3 12.5 z "
         style="opacity:0.15;color:#000000;fill:#000000;fill-opacity:1;fill-rule:nonzero;stroke:none;stroke-width:0.30000001;marker:none;visibility:visible;display:inline;overflow:visible;enable-background:accumulate"
         id="path3876"
         d="M 7.875,2 A 0.50902318,0.50902318 0 0 0 7.78125,2.03125 l -6,3 A 0.50902318,0.50902318 0 0 0 1.5,5.5 l 0,1 A 0.50902318,0.50902318 0 0 0 2,7 L 3.84375,7 A 0.50902318,0.50902318 0 0 0 3.5,7.5 l 0,4 A 0.50902318,0.50902318 0 0 0 3.875,12 L 3,12 a 0.50902318,0.50902318 0 0 0 -0.5,0.5 l 0,1 A 0.50902318,0.50902318 0 0 0 3,14 l 10,0 a 0.50902318,0.50902318 0 0 0 0.5,-0.5 l 0,-1 A 0.50902318,0.50902318 0 0 0 13,12 l -0.84375,0 A 0.50902318,0.50902318 0 0 0 12.5,11.5 l 0,-4 A 0.50902318,0.50902318 0 0 0 12.125,7 L 14,7 a 0.50902318,0.50902318 0 0 0 0.5,-0.5 l 0,-1 A 0.50902318,0.50902318 0 0 0 14.21875,5.03125 l -6,-3 A 0.50902318,0.50902318 0 0 0 7.875,2 z M 6.125,7 6.84375,7 A 0.50902318,0.50902318 0 0 0 6.5,7.34375 0.50902318,0.50902318 0 0 0 6.125,7 z m 3,0 0.71875,0 A 0.50902318,0.50902318 0 0 0 9.5,7.34375 0.50902318,0.50902318 0 0 0 9.125,7 z M 6.5,11.65625 A 0.50902318,0.50902318 0 0 0 6.875,12 L 6.15625,12 A 0.50902318,0.50902318 0 0 0 6.5,11.65625 z m 3,0 A 0.50902318,0.50902318 0 0 0 9.875,12 L 9.15625,12 A 0.50902318,0.50902318 0 0 0 9.5,11.65625 z" />
      <path
         sodipodi:nodetypes="cccccccccccccccccccccccccc"
         inkscape:connector-curvature="0"
         id="path3878"
         d="m -12,2.5 -6,3 0,1 12,0 0,-1 z m -4,5 0,4 2,0 0,-4 z m 3,0 0,4 2,0 0,-4 z m 3,0 0,4 2,0 0,-4 z m -7,5 0,1 10,0 0,-1 z"
         style="opacity:0.3;color:#000000;fill:#000000;fill-opacity:1;fill-rule:nonzero;stroke:none;stroke-width:0.30000001;marker:none;visibility:visible;display:inline;overflow:visible;enable-background:accumulate" />
      <path
         style="color:#000000;fill:#fff0e0;fill-opacity:1;fill-rule:nonzero;stroke:none;stroke-width:0.30000001;marker:none;visibility:visible;display:inline;overflow:visible;enable-background:accumulate"
         d="m -12,2 -6,3 0,1 12,0 0,-1 z m -4,5 0,4 2,0 0,-4 z m 3,0 0,4 2,0 0,-4 z m 3,0 0,4 2,0 0,-4 z m -7,5 0,1 10,0 0,-1 z"
         id="path3880"
         inkscape:connector-curvature="0"
         sodipodi:nodetypes="cccccccccccccccccccccccccc" />
      <path
         style="fill:url(#linearGradient3914);fill-opacity:1;stroke:none;display:inline"
         d="M -12.010951,3 -16,5 l 7.978099,0 -3.98905,-2 z"
         id="path3882"
         inkscape:connector-curvature="0" />
    </g>
  </g>
</svg>
