<?xml version="1.0" encoding="UTF-8" standalone="no"?>
<!-- Created with Inkscape (http://www.inkscape.org/) -->

<svg
   xmlns:dc="http://purl.org/dc/elements/1.1/"
   xmlns:cc="http://creativecommons.org/ns#"
   xmlns:rdf="http://www.w3.org/1999/02/22-rdf-syntax-ns#"
   xmlns:svg="http://www.w3.org/2000/svg"
   xmlns="http://www.w3.org/2000/svg"
   xmlns:xlink="http://www.w3.org/1999/xlink"
   xmlns:sodipodi="http://sodipodi.sourceforge.net/DTD/sodipodi-0.dtd"
   xmlns:inkscape="http://www.inkscape.org/namespaces/inkscape"
   width="16"
   height="16"
   id="svg2"
   sodipodi:version="0.32"
   inkscape:version="0.48.1 r9760"
   version="1.0"
   sodipodi:docname="nvidia-settings.svg"
   inkscape:output_extension="org.inkscape.output.svg.inkscape"
   style="display:inline">
  <defs
     id="defs4">
    <inkscape:perspective
       sodipodi:type="inkscape:persp3d"
       inkscape:vp_x="0 : 8 : 1"
       inkscape:vp_y="0 : 1000 : 0"
       inkscape:vp_z="16 : 8 : 1"
       inkscape:persp3d-origin="8 : 5.3333333 : 1"
       id="perspective35" />
    <linearGradient
       inkscape:collect="always"
       id="linearGradient3327">
      <stop
         style="stop-color:#000000;stop-opacity:1;"
         offset="0"
         id="stop3330" />
      <stop
         style="stop-color:#000000;stop-opacity:0;"
         offset="1"
         id="stop3333" />
    </linearGradient>
    <linearGradient
       id="ButtonColor"
       x1="10.31979"
       y1="21"
       x2="10.31979"
       y2="0.99929649"
       gradientUnits="userSpaceOnUse">
      <stop
         style="stop-color:#29669f;stop-opacity:1;"
         offset="0"
         id="stop3189" />
      <stop
         style="stop-color:#88b6e0;stop-opacity:1;"
         offset="1"
         id="stop3191" />
    </linearGradient>
    <linearGradient
       inkscape:collect="always"
       xlink:href="#ButtonColor"
       id="linearGradient3204"
       x1="1"
       y1="9"
       x2="15"
       y2="9"
       gradientUnits="userSpaceOnUse"
       gradientTransform="translate(-17,28)" />
    <linearGradient
       inkscape:collect="always"
       xlink:href="#linearGradient3327"
       id="linearGradient3629"
       x1="0"
       y1="8"
       x2="29.017237"
       y2="8"
       gradientUnits="userSpaceOnUse"
       gradientTransform="matrix(0,-1,1,0,0,16)" />
    <linearGradient
       inkscape:collect="always"
       xlink:href="#SVGID_1_-4"
       id="linearGradient3765"
       gradientUnits="userSpaceOnUse"
       gradientTransform="matrix(0.09341072,0,0,0.04108075,-26.756456,8.0246654)"
       x1="383.28857"
       y1="0"
       x2="383.28857"
       y2="218.48047" />
    <linearGradient
       id="SVGID_1_-4"
       gradientUnits="userSpaceOnUse"
       x1="383.28857"
       y1="0"
       x2="383.28857"
       y2="218.48047">
      <stop
         offset="0.005618"
         style="stop-color:#ED2828"
         id="stop3143-2" />
      <stop
         offset="0.5"
         style="stop-color:#EF3B39"
         id="stop3145-1" />
      <stop
         offset="0.994382"
         style="stop-color:#C02126"
         id="stop3147-3" />
    </linearGradient>
    <linearGradient
       y2="180.6748"
       x2="175.30762"
       y1="73.254395"
       x1="175.30762"
       gradientUnits="userSpaceOnUse"
       id="linearGradient3749-5">
      <stop
         id="stop3751-8"
         style="stop-color:#000000;stop-opacity:1;"
         offset="0" />
      <stop
         id="stop3753-7"
         style="stop-color:#000000;stop-opacity:0.4728682;"
         offset="0.99438202" />
    </linearGradient>
    <linearGradient
       inkscape:collect="always"
       xlink:href="#linearGradient3749-5"
       id="linearGradient3754"
       gradientUnits="userSpaceOnUse"
       gradientTransform="matrix(0.04164302,0,0,0.03408859,1.9444673,0.78644322)"
       x1="175.30762"
       y1="73.254395"
       x2="175.30762"
       y2="180.6748" />
    <linearGradient
       inkscape:collect="always"
       xlink:href="#linearGradient3749-5"
       id="linearGradient3756"
       gradientUnits="userSpaceOnUse"
       gradientTransform="matrix(0.04998763,0,0,0.03408859,2.4795353,0.78644322)"
       x1="175.30762"
       y1="73.254395"
       x2="175.30762"
       y2="180.6748" />
    <linearGradient
       y2="180.6748"
       x2="175.30762"
       y1="73.254395"
       x1="175.30762"
       gradientTransform="matrix(0.04859283,0,0,0.03408859,3.115962,0.78644322)"
       gradientUnits="userSpaceOnUse"
       id="linearGradient3809"
       xlink:href="#linearGradient3749-5"
       inkscape:collect="always" />
    <inkscape:perspective
       id="perspective3729"
       inkscape:persp3d-origin="0.5 : 0.33333333 : 1"
       inkscape:vp_z="1 : 0.5 : 1"
       inkscape:vp_y="0 : 1000 : 0"
       inkscape:vp_x="0 : 0.5 : 1"
       sodipodi:type="inkscape:persp3d" />
    <linearGradient
       inkscape:collect="always"
       xlink:href="#linearGradient3696"
       id="linearGradient4163"
       x1="6"
       y1="48"
       x2="90"
       y2="48"
       gradientUnits="userSpaceOnUse"
       gradientTransform="translate(-96,0)" />
    <linearGradient
       id="linearGradient3696">
      <stop
         id="stop3698"
         offset="0"
         style="stop-color:#2458a6;stop-opacity:1;" />
      <stop
         id="stop3700"
         offset="1"
         style="stop-color:#598ad4;stop-opacity:1;" />
    </linearGradient>
    <linearGradient
       y2="48"
       x2="90"
       y1="48"
       x1="6"
       gradientTransform="translate(-52.867199,-57.252856)"
       gradientUnits="userSpaceOnUse"
       id="linearGradient3738"
       xlink:href="#linearGradient3696"
       inkscape:collect="always" />
    <inkscape:perspective
       id="perspective3703"
       inkscape:persp3d-origin="0.5 : 0.33333333 : 1"
       inkscape:vp_z="1 : 0.5 : 1"
       inkscape:vp_y="0 : 1000 : 0"
       inkscape:vp_x="0 : 0.5 : 1"
       sodipodi:type="inkscape:persp3d" />
    <linearGradient
       gradientTransform="matrix(0.19388162,0,0,0.19388162,-1.4007219,-1.9461429)"
       inkscape:collect="always"
       xlink:href="#linearGradient4099"
       id="linearGradient4113"
       x1="22.111456"
       y1="62.983868"
       x2="40"
       y2="32"
       gradientUnits="userSpaceOnUse" />
    <linearGradient
       id="linearGradient4099">
      <stop
         style="stop-color:#9ede27;stop-opacity:1;"
         offset="0"
         id="stop4101" />
      <stop
         style="stop-color:#c8f16b;stop-opacity:1;"
         offset="1"
         id="stop4103" />
    </linearGradient>
    <linearGradient
       gradientTransform="matrix(0.19388162,0,0,0.19388162,-1.5256152,-1.9461429)"
       inkscape:collect="always"
       xlink:href="#linearGradient4099"
       id="linearGradient4105"
       x1="38"
       y1="74"
       x2="70"
       y2="49"
       gradientUnits="userSpaceOnUse" />
    <linearGradient
       id="linearGradient3712">
      <stop
         style="stop-color:#9ede27;stop-opacity:1;"
         offset="0"
         id="stop3714" />
      <stop
         style="stop-color:#c8f16b;stop-opacity:1;"
         offset="1"
         id="stop3716" />
    </linearGradient>
    <linearGradient
       inkscape:collect="always"
       xlink:href="#linearGradient3799-3"
       id="linearGradient3746"
       gradientUnits="userSpaceOnUse"
       x1="56.037025"
       y1="49.333305"
       x2="56.037025"
       y2="13.593002"
       gradientTransform="matrix(0.26518093,0,0,0.26518093,-0.34872536,-3.7081516)" />
    <linearGradient
       id="linearGradient3799-3">
      <stop
         style="stop-color:#1a1a1a;stop-opacity:1;"
         offset="0"
         id="stop3801-3" />
      <stop
         style="stop-color:#000000;stop-opacity:1;"
         offset="1"
         id="stop3803-2" />
    </linearGradient>
    <linearGradient
       y2="13.593002"
       x2="56.037025"
       y1="49.333305"
       x1="56.037025"
       gradientTransform="matrix(0.19388162,0,0,0.19388162,-1.3401963,-1.8843368)"
       gradientUnits="userSpaceOnUse"
       id="linearGradient3726"
       xlink:href="#linearGradient3799-3"
       inkscape:collect="always" />
    <inkscape:perspective
       id="perspective3736"
       inkscape:persp3d-origin="0.5 : 0.33333333 : 1"
       inkscape:vp_z="1 : 0.5 : 1"
       inkscape:vp_y="0 : 1000 : 0"
       inkscape:vp_x="0 : 0.5 : 1"
       sodipodi:type="inkscape:persp3d" />
    <radialGradient
       inkscape:collect="always"
       xlink:href="#linearGradient3784-2"
       id="radialGradient3758"
       gradientUnits="userSpaceOnUse"
       gradientTransform="matrix(1.0456205,0.08243661,-0.05194947,0.90987799,0.84943041,1.3399685)"
       cx="49.580967"
       cy="67.04126"
       fx="49.580967"
       fy="67.04126"
       r="10" />
    <linearGradient
       id="linearGradient3784-2">
      <stop
         id="stop3786-4"
         offset="0"
         style="stop-color:#a0a0a0;stop-opacity:1;" />
      <stop
         id="stop3790-2"
         offset="1"
         style="stop-color:#1a1a1a;stop-opacity:1;" />
    </linearGradient>
    <radialGradient
       r="10"
       fy="67.04126"
       fx="49.580967"
       cy="67.04126"
       cx="49.580967"
       gradientTransform="matrix(1.0456205,0.08243661,-0.05194947,0.90987799,0.84943041,1.3399685)"
       gradientUnits="userSpaceOnUse"
       id="radialGradient3745"
       xlink:href="#linearGradient3784-2"
       inkscape:collect="always" />
    <radialGradient
       inkscape:collect="always"
       xlink:href="#linearGradient3784-2"
       id="radialGradient3698"
       cx="10.116978"
       cy="6.5340972"
       fx="10.116978"
       fy="6.5340972"
       r="2.6487656"
       gradientTransform="matrix(0.60548597,-0.18291744,0.13322228,0.44098703,0.81853832,7.6996387)"
       gradientUnits="userSpaceOnUse" />
    <linearGradient
       gradientTransform="translate(-30,-6)"
       inkscape:collect="always"
       xlink:href="#linearGradient3831"
       id="linearGradient4011"
       gradientUnits="userSpaceOnUse"
       spreadMethod="reflect"
       x1="11"
       y1="19.5"
       x2="21"
       y2="19.5" />
    <linearGradient
       id="linearGradient3831">
      <stop
         style="stop-color:#ffffff;stop-opacity:1;"
         offset="0"
         id="stop3833" />
      <stop
         id="stop3821"
         offset="0.75"
         style="stop-color:#ffffff;stop-opacity:0.49803922;" />
      <stop
         style="stop-color:#ffffff;stop-opacity:0;"
         offset="1"
         id="stop3835" />
    </linearGradient>
    <linearGradient
       gradientTransform="translate(-30,-6)"
       inkscape:collect="always"
       xlink:href="#linearGradient3823"
       id="linearGradient3238"
       gradientUnits="userSpaceOnUse"
       x1="10"
       y1="1"
       x2="10"
       y2="16" />
    <linearGradient
       id="linearGradient3823">
      <stop
         id="stop3825"
         offset="0"
         style="stop-color:#ffffff;stop-opacity:1;" />
      <stop
         id="stop3829"
         offset="1"
         style="stop-color:#ffffff;stop-opacity:0;" />
    </linearGradient>
    <linearGradient
       gradientTransform="translate(-30,-6)"
       inkscape:collect="always"
       xlink:href="#linearGradient3831"
       id="linearGradient3845"
       x1="11"
       y1="19.5"
       x2="21"
       y2="19.5"
       gradientUnits="userSpaceOnUse"
       spreadMethod="reflect" />
    <linearGradient
       id="linearGradient3069">
      <stop
         style="stop-color:#ffffff;stop-opacity:1;"
         offset="0"
         id="stop3071" />
      <stop
         id="stop3073"
         offset="0.75"
         style="stop-color:#ffffff;stop-opacity:0.49803922;" />
      <stop
         style="stop-color:#ffffff;stop-opacity:0;"
         offset="1"
         id="stop3075" />
    </linearGradient>
    <linearGradient
       gradientTransform="translate(-30,-6)"
       y2="16"
       x2="10"
       y1="1"
       x1="10"
       gradientUnits="userSpaceOnUse"
       id="linearGradient3938"
       xlink:href="#linearGradient3823"
       inkscape:collect="always" />
    <linearGradient
       id="linearGradient3078">
      <stop
         id="stop3080"
         offset="0"
         style="stop-color:#ffffff;stop-opacity:1;" />
      <stop
         id="stop3082"
         offset="1"
         style="stop-color:#ffffff;stop-opacity:0;" />
    </linearGradient>
    <linearGradient
       inkscape:collect="always"
       xlink:href="#linearGradient3756-7"
       id="linearGradient3670"
       gradientUnits="userSpaceOnUse"
       gradientTransform="matrix(0.18215654,0,0,0.18215654,-29.208677,-1.3940909)"
       x1="65.928574"
       y1="6"
       x2="65.928574"
       y2="90.001488" />
    <linearGradient
       inkscape:collect="always"
       id="linearGradient3756-7">
      <stop
         style="stop-color:#dbff9a;stop-opacity:1"
         offset="0"
         id="stop3758" />
      <stop
         id="stop3772"
         offset="0.17644246"
         style="stop-color:#dfffa7;stop-opacity:1" />
      <stop
         style="stop-color:#c1ff53;stop-opacity:1"
         offset="0.29336214"
         id="stop3774" />
      <stop
         id="stop3776"
         offset="0.49318853"
         style="stop-color:#82c50c;stop-opacity:1" />
      <stop
         id="stop3764"
         offset="0.75466347"
         style="stop-color:#609501;stop-opacity:1" />
      <stop
         style="stop-color:#7cbf06;stop-opacity:1"
         offset="1"
         id="stop3760" />
    </linearGradient>
    <linearGradient
       inkscape:collect="always"
       xlink:href="#ButtonColor-2"
       id="linearGradient3181"
       x1="-3.0607977"
       y1="27.258198"
       x2="-3.0607977"
       y2="7.2536583"
       gradientUnits="userSpaceOnUse"
       gradientTransform="translate(11.119372,-6.2581977)" />
    <linearGradient
       id="ButtonColor-2"
       x1="10.31979"
       y1="21"
       x2="10.31979"
       y2="0.99929649"
       gradientUnits="userSpaceOnUse">
      <stop
         style="stop-color:#222222;stop-opacity:1;"
         offset="0"
         id="stop3189-2" />
      <stop
         style="stop-color:#333333;stop-opacity:1;"
         offset="1"
         id="stop3191-6" />
    </linearGradient>
    <linearGradient
       y2="7.2536583"
       x2="-3.0607977"
       y1="27.258198"
       x1="-3.0607977"
       gradientTransform="matrix(0.8,0,0,0.8,-20.904502,-6.8065584)"
       gradientUnits="userSpaceOnUse"
       id="linearGradient3105"
       xlink:href="#ButtonColor-2"
       inkscape:collect="always" />
    <linearGradient
       inkscape:collect="always"
       xlink:href="#ButtonColor"
       id="linearGradient3144"
       gradientUnits="userSpaceOnUse"
       gradientTransform="translate(-16,-31)"
       x1="1"
       y1="9"
       x2="15"
       y2="9" />
    <linearGradient
       inkscape:collect="always"
       xlink:href="#linearGradient3756-7"
       id="linearGradient3150"
       gradientUnits="userSpaceOnUse"
       gradientTransform="matrix(0.18215654,0,0,0.18215654,-0.208677,-0.3940909)"
       x1="65.928574"
       y1="6"
       x2="65.928574"
       y2="90.001488" />
    <linearGradient
       inkscape:collect="always"
       xlink:href="#ButtonColor-2"
       id="linearGradient3152"
       gradientUnits="userSpaceOnUse"
       gradientTransform="matrix(0.8,0,0,0.8,8.095498,-5.8065584)"
       x1="-3.0607977"
       y1="27.258198"
       x2="-3.0607977"
       y2="7.2536583" />
  </defs>
  <sodipodi:namedview
     id="base"
     pagecolor="#ffffff"
     bordercolor="#e7e7e7"
     borderopacity="1"
     inkscape:pageopacity="0.0"
     inkscape:pageshadow="2"
     inkscape:zoom="26.212949"
     inkscape:cx="-9.5134686"
     inkscape:cy="9.5563131"
     inkscape:document-units="px"
     inkscape:current-layer="layer1"
     showgrid="true"
     inkscape:showpageshadow="false"
     showguides="false"
     inkscape:guide-bbox="true"
     inkscape:window-width="1920"
     inkscape:window-height="1028"
     inkscape:window-x="0"
     inkscape:window-y="25"
     inkscape:window-maximized="1"
     inkscape:snap-global="false">
    <sodipodi:guide
       orientation="1,0"
       position="0,112"
       id="guide2383" />
    <sodipodi:guide
       orientation="0,1"
       position="26.278146,128"
       id="guide2385" />
    <sodipodi:guide
       orientation="1,0"
       position="128,54.082119"
       id="guide2387" />
    <sodipodi:guide
       orientation="0,1"
       position="78.156291,0"
       id="guide2389" />
    <sodipodi:guide
       orientation="0,1"
       position="60.863576,64.084768"
       id="guide2391" />
    <inkscape:grid
       type="xygrid"
       id="grid3672"
       visible="true"
       enabled="true" />
  </sodipodi:namedview>
  <metadata
     id="metadata7">
    <rdf:RDF>
      <cc:Work
         rdf:about="">
        <dc:format>image/svg+xml</dc:format>
        <dc:type
           rdf:resource="http://purl.org/dc/dcmitype/StillImage" />
        <dc:title></dc:title>
      </cc:Work>
    </rdf:RDF>
  </metadata>
  <g
     inkscape:label="Button"
     inkscape:groupmode="layer"
     id="layer1">
    <path
       style="fill:url(#linearGradient3152);fill-opacity:1;fill-rule:evenodd;stroke:none;display:inline"
       d="M 2,0 C 0.892,0 0,0.892 0,2 l 0,12 c 0,1.108 0.892,2 2,2 l 12,0 c 1.108,0 2,-0.892 2,-2 L 16,2 C 16,0.892 15.108,0 14,0 L 2,0 z"
       id="rect3173"
       inkscape:connector-curvature="0" />
    <path
       inkscape:connector-curvature="0"
       sodipodi:nodetypes="ccscsccsccsccccccccccccccccsccccscscccccccc"
       id="path3680"
       d="m 7.2,0.4 0,4.9 c 0.0834,-0.00645 0.166142,0.00286 0.25,0 3.229943,-0.1088598 5.325,2.65 5.325,2.65 0,0 -2.406782,2.95 -4.925,2.95 -0.230791,0 -0.447065,-0.03908 -0.65,-0.075 l 0,0.8 c 0.173538,0.02203 0.36225,0.025 0.55,0.025 2.343369,0 4.034053,-1.208568 5.675,-2.625 0.272063,0.2178904 1.371034,0.7678944 1.6,1 -1.560229,1.30626 -5.163514,2.35 -7.225,2.35 -0.198711,0 -0.41242,-0.0319 -0.6,-0.05 l 0,3.275 7.2,0 C 15.2864,15.6 16,14.8864 16,14 L 16,2 C 16,1.1136 15.2864,0.4 14.4,0.4 l -7.2,0 z m 0,11.925 0,-0.7 C 4.332199,11.264169 3.35,8.1 3.35,8.1 3.35,8.1 4.635033,6.1960275 7.2,6 l 0,-0.7 C 4.358972,5.528166 1.9,7.95 1.9,7.95 c 0,0 1.39218,4.006178 5.3,4.375 z M 7.2,6 7.2,6.85 C 7.351902,6.833728 7.513166,6.825 7.675,6.825 c 1.487788,0 2.375,1.15 2.375,1.15 L 8.85,9 C 8.306386,8.0937856 8.104217,7.6842584 7.2,7.575 l 0,2.575 c 0.204934,0.0689 0.421032,0.125 0.675,0.125 1.764706,0 3.425,-2.3 3.425,-2.3 C 11.3,7.975 9.772646,5.9270464 7.45,6 7.36506,6.00269 7.282545,5.99424 7.2,6 z m 0,4.15 C 5.978054,9.7394496 5.6,8.325 5.6,8.325 c 0,0 0.692874,-0.85886 1.6,-0.75 L 7.2,6.85 C 5.471659,7.0368936 4.45,8.2 4.45,8.2 c 0,0 0.582624,2.238596 2.75,2.625 l 0,-0.675 z"
       style="fill:#000000;fill-opacity:1;fill-rule:nonzero;stroke-width:0;stroke-linecap:butt;stroke-linejoin:miter;stroke-miterlimit:10;display:inline" />
    <path
       style="fill:url(#linearGradient3150);fill-opacity:1;fill-rule:nonzero;stroke-width:0;stroke-linecap:butt;stroke-linejoin:miter;stroke-miterlimit:10;display:inline"
       d="m 7.1875,0 0,4.90625 c 0.0834,-0.00645 0.166142,0.00286 0.25,0 3.229943,-0.1088598 5.34375,2.65625 5.34375,2.65625 0,0 -2.419282,2.9375 -4.9375,2.9375 -0.230791,0 -0.453315,-0.02658 -0.65625,-0.0625 l 0,0.78125 C 7.361038,11.24078 7.56225,11.25 7.75,11.25 c 2.343369,0 4.046553,-1.208568 5.6875,-2.625 0.272063,0.2178904 1.364784,0.7678944 1.59375,1 -1.560229,1.30626 -5.157264,2.34375 -7.21875,2.34375 -0.198711,0 -0.43742,-0.01315 -0.625,-0.03125 L 7.1875,16 14,16 c 1.108,0 2,-0.892 2,-2 L 16,2 C 16,0.892 15.108,0 14,0 L 7.1875,0 z m 0,11.9375 0,-0.71875 C 4.319699,10.857919 3.34375,7.6875 3.34375,7.6875 c 0,0 1.278783,-1.8977225 3.84375,-2.09375 l 0,-0.6875 C 4.346472,5.134416 1.90625,7.5625 1.90625,7.5625 c 0,0 1.37343,4.006178 5.28125,4.375 z m 0,-6.34375 0,0.84375 c 0.151902,-0.01627 0.338166,0 0.5,0 1.487788,0 2.375,1.125 2.375,1.125 L 8.84375,8.59375 C 8.300136,7.6875356 8.091717,7.2967584 7.1875,7.1875 l 0,2.5625 c 0.204934,0.068904 0.433532,0.125 0.6875,0.125 1.764706,0 3.4375,-2.3125 3.4375,-2.3125 0,0 -1.552354,-2.0417036 -3.875,-1.96875 -0.08494,0.00269 -0.167455,-0.00576 -0.25,0 z m 0,4.15625 C 5.965554,9.3394496 5.59375,7.9375 5.59375,7.9375 c 0,0 0.686624,-0.8588598 1.59375,-0.75 l 0,-0.75 c -1.728341,0.186894 -2.75,1.375 -2.75,1.375 0,0 0.582624,2.238596 2.75,2.625 l 0,-0.6875 z"
       id="path21"
       inkscape:connector-curvature="0" />
    <rect
       style="opacity:0.2;fill:#000000;fill-opacity:1;stroke:none;display:inline"
       id="rect3673"
       width="0.80000001"
       height="16"
       x="6.3999996"
       y="0" />
    <path
       inkscape:connector-curvature="0"
       style="opacity:0.2;fill:#ffffff;fill-opacity:1;stroke:none;display:inline"
       d="m 7.2,0 0,4.9 C 7.2834,4.89355 7.366142,4.90286 7.45,4.9 7.635049,4.89376 7.822582,4.88847 8,4.9 L 8,0 7.2,0 z m 0,5.6 0,0.85 C 7.351902,6.43373 7.513166,6.425 7.675,6.425 7.789927,6.425 7.892372,6.437336 8,6.45 L 8,5.625 C 7.820487,5.604718 7.640632,5.594012 7.45,5.6 7.36506,5.60269 7.282545,5.59424 7.2,5.6 z m 0,1.575 0,2.575 c 0.204934,0.068904 0.421032,0.125 0.675,0.125 0.04217,0 0.08297,0.00256 0.125,0 L 8,7.45 C 7.798206,7.3024824 7.555228,7.2179232 7.2,7.175 z m 0,3.25 0,0.8 c 0.173538,0.02203 0.36225,0.025 0.55,0.025 0.08636,0 0.165382,-0.02177 0.25,-0.025 L 8,10.5 c -0.04946,0.0022 -0.100436,0 -0.15,0 -0.230791,0 -0.447065,-0.03908 -0.65,-0.075 z m 0,1.5 0,4.075 0.8,0 0,-4.025 c -0.06298,0.0018 -0.139577,0 -0.2,0 -0.198711,0 -0.41242,-0.0319 -0.6,-0.05 z"
       id="rect3675" />
    <rect
       ry="2"
       rx="2"
       y="30"
       x="-16"
       height="16"
       width="16"
       id="rect3196"
       style="fill:url(#linearGradient3204);fill-opacity:1;fill-rule:nonzero;stroke:none"
       transform="matrix(0,-1,1,0,0,0)" />
    <path
       style="opacity:0.4;fill:url(#linearGradient3629);fill-opacity:1;fill-rule:nonzero;stroke:none"
       d="m 0,14 c 0,1.108 0.892,2 2,2 l 12,0 c 1.108,0 2,-0.892 2,-2 L 16,2 C 16,0.892 15.108,0 14,0 L 2,0 C 0.892,0 0,0.892 0,2 l 0,12 z m 0.96875,0 0,-12 C 0.96875,1.416801 1.4168007,0.96875 2,0.96875 l 12,0 c 0.583199,0 1.03125,0.448051 1.03125,1.03125 l 0,12 c 0,0.583199 -0.448051,1.03125 -1.03125,1.03125 l -12,0 C 1.4168007,15.03125 0.96875,14.583199 0.96875,14 z"
       id="rect2835" />
    <path
       style="fill:#ffffff;fill-opacity:1;fill-rule:nonzero;stroke:none;opacity:0.15"
       d="M 2 0.96875 C 1.4168007 0.96875 0.96875 1.4168007 0.96875 2 L 0.96875 3 C 0.96875 2.4168007 1.4168007 1.96875 2 1.96875 L 14 1.96875 C 14.583199 1.96875 15.03125 2.4168007 15.03125 3 L 15.03125 2 C 15.03125 1.4168007 14.583199 0.96875 14 0.96875 L 2 0.96875 z "
       id="path2843" />
  </g>
</svg>
