<?xml version="1.0" encoding="UTF-8" standalone="no"?>
<!-- Created with Inkscape (http://www.inkscape.org/) -->

<svg
   xmlns:dc="http://purl.org/dc/elements/1.1/"
   xmlns:cc="http://creativecommons.org/ns#"
   xmlns:rdf="http://www.w3.org/1999/02/22-rdf-syntax-ns#"
   xmlns:svg="http://www.w3.org/2000/svg"
   xmlns="http://www.w3.org/2000/svg"
   xmlns:xlink="http://www.w3.org/1999/xlink"
   xmlns:sodipodi="http://sodipodi.sourceforge.net/DTD/sodipodi-0.dtd"
   xmlns:inkscape="http://www.inkscape.org/namespaces/inkscape"
   width="16"
   height="16"
   id="svg2"
   sodipodi:version="0.32"
   inkscape:version="0.48.1 r9760"
   version="1.0"
   sodipodi:docname="opera-widget-manager.svg"
   inkscape:output_extension="org.inkscape.output.svg.inkscape"
   style="display:inline">
  <defs
     id="defs4">
    <inkscape:perspective
       sodipodi:type="inkscape:persp3d"
       inkscape:vp_x="0 : 8 : 1"
       inkscape:vp_y="0 : 1000 : 0"
       inkscape:vp_z="16 : 8 : 1"
       inkscape:persp3d-origin="8 : 5.3333333 : 1"
       id="perspective26" />
    <linearGradient
       inkscape:collect="always"
       id="linearGradient3327">
      <stop
         style="stop-color:#000000;stop-opacity:1;"
         offset="0"
         id="stop3330" />
      <stop
         style="stop-color:#000000;stop-opacity:0;"
         offset="1"
         id="stop3333" />
    </linearGradient>
    <linearGradient
       id="ButtonColor"
       x1="10.31979"
       y1="21"
       x2="10.31979"
       y2="0.99929649"
       gradientUnits="userSpaceOnUse">
      <stop
         style="stop-color:#29669f;stop-opacity:1;"
         offset="0"
         id="stop3189" />
      <stop
         style="stop-color:#88b6e0;stop-opacity:1;"
         offset="1"
         id="stop3191" />
    </linearGradient>
    <linearGradient
       inkscape:collect="always"
       xlink:href="#linearGradient3327"
       id="linearGradient3192"
       x1="9.0574636"
       y1="10.202822"
       x2="9.0574636"
       y2="-12.198761"
       gradientUnits="userSpaceOnUse"
       gradientTransform="translate(0,5.8006549)" />
    <linearGradient
       inkscape:collect="always"
       xlink:href="#linearGradient3700"
       id="linearGradient3204"
       x1="1"
       y1="9"
       x2="15"
       y2="9"
       gradientUnits="userSpaceOnUse"
       gradientTransform="translate(-17,-2)" />
    <linearGradient
       inkscape:collect="always"
       xlink:href="#ButtonColor"
       id="linearGradient3173"
       gradientUnits="userSpaceOnUse"
       gradientTransform="translate(-16,-1)"
       x1="1"
       y1="9"
       x2="15"
       y2="9" />
    <linearGradient
       inkscape:collect="always"
       xlink:href="#ButtonColor"
       id="linearGradient3177"
       gradientUnits="userSpaceOnUse"
       gradientTransform="translate(-16,-1)"
       x1="1"
       y1="9"
       x2="15"
       y2="9" />
    <linearGradient
       inkscape:collect="always"
       xlink:href="#ButtonColor"
       id="linearGradient3179"
       gradientUnits="userSpaceOnUse"
       gradientTransform="matrix(0,-1,1,0,-1,16)"
       x1="1"
       y1="9"
       x2="15"
       y2="9" />
    <linearGradient
       inkscape:collect="always"
       xlink:href="#linearGradient3327"
       id="linearGradient3612"
       x1="8"
       y1="15"
       x2="8"
       y2="-1"
       gradientUnits="userSpaceOnUse" />
    <linearGradient
       inkscape:collect="always"
       xlink:href="#linearGradient3327"
       id="linearGradient3629"
       x1="0"
       y1="8"
       x2="29.017237"
       y2="8"
       gradientUnits="userSpaceOnUse"
       gradientTransform="matrix(0,-1,1,0,0,16)" />
    <inkscape:perspective
       id="perspective2931"
       inkscape:persp3d-origin="0.5 : 0.33333333 : 1"
       inkscape:vp_z="1 : 0.5 : 1"
       inkscape:vp_y="0 : 1000 : 0"
       inkscape:vp_x="0 : 0.5 : 1"
       sodipodi:type="inkscape:persp3d" />
    <linearGradient
       inkscape:collect="always"
       xlink:href="#linearGradient3545"
       id="linearGradient4422"
       gradientUnits="userSpaceOnUse"
       gradientTransform="matrix(0.16511867,0,0,0.16231826,-4.6315794,-3.2227858)"
       x1="68.46875"
       y1="32.1875"
       x2="68.46875"
       y2="106.10139" />
    <linearGradient
       id="linearGradient3545">
      <stop
         style="stop-color:#ffffff;stop-opacity:1;"
         offset="0"
         id="stop3547" />
      <stop
         style="stop-color:#dcdcdc;stop-opacity:1;"
         offset="1"
         id="stop3549" />
    </linearGradient>
    <linearGradient
       inkscape:collect="always"
       xlink:href="#ButtonColor-7"
       id="linearGradient3181"
       x1="-3.0607977"
       y1="27.258198"
       x2="-3.0607977"
       y2="7.2536583"
       gradientUnits="userSpaceOnUse"
       gradientTransform="translate(11.119372,-6.2581979)" />
    <linearGradient
       id="ButtonColor-7"
       x1="10.31979"
       y1="21"
       x2="10.31979"
       y2="0.99929649"
       gradientUnits="userSpaceOnUse">
      <stop
         style="stop-color:#770000;stop-opacity:1;"
         offset="0"
         id="stop3189-0" />
      <stop
         style="stop-color:#e72929;stop-opacity:1;"
         offset="1"
         id="stop3191-6" />
    </linearGradient>
    <linearGradient
       y2="7.2536583"
       x2="-3.0607977"
       y1="27.258198"
       x1="-3.0607977"
       gradientTransform="translate(-17.880628,-11.258198)"
       gradientUnits="userSpaceOnUse"
       id="linearGradient2945"
       xlink:href="#ButtonColor-7"
       inkscape:collect="always" />
    <inkscape:perspective
       id="perspective2955"
       inkscape:persp3d-origin="0.5 : 0.33333333 : 1"
       inkscape:vp_z="1 : 0.5 : 1"
       inkscape:vp_y="0 : 1000 : 0"
       inkscape:vp_x="0 : 0.5 : 1"
       sodipodi:type="inkscape:persp3d" />
    <clipPath
       clipPathUnits="userSpaceOnUse"
       id="clipPath2849">
      <rect
         ry="2"
         rx="2"
         y="1"
         x="1"
         height="20"
         width="20"
         id="rect2851"
         style="fill:#ffffff;fill-opacity:1;fill-rule:evenodd;stroke:none;display:inline" />
    </clipPath>
    <inkscape:perspective
       id="perspective2972"
       inkscape:persp3d-origin="0.5 : 0.33333333 : 1"
       inkscape:vp_z="1 : 0.5 : 1"
       inkscape:vp_y="0 : 1000 : 0"
       inkscape:vp_x="0 : 0.5 : 1"
       sodipodi:type="inkscape:persp3d" />
    <radialGradient
       inkscape:collect="always"
       xlink:href="#linearGradient5226"
       id="radialGradient5232"
       cx="63.98003"
       cy="61.948856"
       fx="63.98003"
       fy="61.948856"
       r="58.01997"
       gradientTransform="matrix(0.2595267,0,0,0.2002062,-5.6045244,-1.763888)"
       gradientUnits="userSpaceOnUse" />
    <linearGradient
       inkscape:collect="always"
       id="linearGradient5226">
      <stop
         style="stop-color:#ffffff;stop-opacity:1;"
         offset="0"
         id="stop5228" />
      <stop
         style="stop-color:#ffffff;stop-opacity:0;"
         offset="1"
         id="stop5230" />
    </linearGradient>
    <radialGradient
       r="58.01997"
       fy="61.948856"
       fx="63.98003"
       cy="61.948856"
       cx="63.98003"
       gradientTransform="matrix(0.20762136,0,0,0.16016496,-5.2836195,-2.1894718)"
       gradientUnits="userSpaceOnUse"
       id="radialGradient2981"
       xlink:href="#linearGradient5226"
       inkscape:collect="always" />
    <linearGradient
       gradientTransform="matrix(0.18571464,0,0,0.18577825,-0.91426954,-0.91732011)"
       inkscape:collect="always"
       xlink:href="#linearGradient5888"
       id="linearGradient5894"
       x1="48"
       y1="80"
       x2="48"
       y2="16"
       gradientUnits="userSpaceOnUse" />
    <linearGradient
       id="linearGradient5888">
      <stop
         style="stop-color:#2167a8;stop-opacity:1;"
         offset="0"
         id="stop5890" />
      <stop
         style="stop-color:#2167a8;stop-opacity:0.37209302;"
         offset="1"
         id="stop5892" />
    </linearGradient>
    <linearGradient
       inkscape:collect="always"
       xlink:href="#linearGradient3700"
       id="linearGradient3181-9"
       x1="-3.0607977"
       y1="27.258198"
       x2="-3.0607977"
       y2="7.2536583"
       gradientUnits="userSpaceOnUse"
       gradientTransform="translate(12.119372,-7.2581979)" />
    <linearGradient
       id="linearGradient3700">
      <stop
         style="stop-color:#2276c5;stop-opacity:1;"
         offset="0"
         id="stop3702" />
      <stop
         style="stop-color:#69a9e6;stop-opacity:1;"
         offset="1"
         id="stop3704" />
    </linearGradient>
    <linearGradient
       y2="7.2536583"
       x2="-3.0607977"
       y1="27.258198"
       x1="-3.0607977"
       gradientTransform="translate(-17.880628,-13.258198)"
       gradientUnits="userSpaceOnUse"
       id="linearGradient3151"
       xlink:href="#linearGradient3700"
       inkscape:collect="always" />
  </defs>
  <sodipodi:namedview
     id="base"
     pagecolor="#ffffff"
     bordercolor="#e7e7e7"
     borderopacity="1"
     inkscape:pageopacity="0.0"
     inkscape:pageshadow="2"
     inkscape:zoom="20.568488"
     inkscape:cx="-7.7310195"
     inkscape:cy="8.6002043"
     inkscape:document-units="px"
     inkscape:current-layer="layer1"
     showgrid="true"
     inkscape:showpageshadow="false"
     showguides="false"
     inkscape:guide-bbox="true"
     inkscape:window-width="1920"
     inkscape:window-height="1028"
     inkscape:window-x="0"
     inkscape:window-y="25"
     inkscape:window-maximized="1"
     inkscape:snap-global="true">
    <sodipodi:guide
       orientation="1,0"
       position="0,112"
       id="guide2383" />
    <sodipodi:guide
       orientation="0,1"
       position="26.278146,128"
       id="guide2385" />
    <sodipodi:guide
       orientation="1,0"
       position="128,54.082119"
       id="guide2387" />
    <sodipodi:guide
       orientation="0,1"
       position="78.156291,0"
       id="guide2389" />
    <sodipodi:guide
       orientation="0,1"
       position="60.863576,64.084768"
       id="guide2391" />
    <inkscape:grid
       type="xygrid"
       id="grid3672"
       visible="true"
       enabled="true" />
  </sodipodi:namedview>
  <metadata
     id="metadata7">
    <rdf:RDF>
      <cc:Work
         rdf:about="">
        <dc:format>image/svg+xml</dc:format>
        <dc:type
           rdf:resource="http://purl.org/dc/dcmitype/StillImage" />
        <dc:title></dc:title>
      </cc:Work>
    </rdf:RDF>
  </metadata>
  <g
     inkscape:label="Button"
     inkscape:groupmode="layer"
     id="layer1">
    <rect
       ry="2"
       rx="2"
       y="0"
       x="-16"
       height="16"
       width="16"
       id="rect3196"
       style="fill:url(#linearGradient3204);fill-opacity:1.0;fill-rule:nonzero;stroke:none"
       transform="matrix(0,-1,1,0,0,0)" />
    <path
       style="fill:url(#linearGradient5894);fill-opacity:1;display:inline"
       d="m 8.1741412,1.3120191 c -0.3742978,-7.43e-4 -0.7549523,0.00327 -1.1258948,0.063864 L 6.7232447,3.3323596 C 6.3337547,3.4458522 5.9595781,3.5961536 5.6089575,3.8026109 L 4.0013652,2.653108 C 3.50513,3.0500345 3.0294286,3.4832652 2.6549333,4 L 3.804043,5.6023377 C 3.6098895,5.9584076 3.4359622,6.3286495 3.3339529,6.722813 L 1.3781455,7.0479245 c -0.071035,0.6308197 -0.1039825,1.2687866 0,1.8984218 L 3.3339522,9.2714586 C 3.4476038,9.6610817 3.5978539,10.041193 3.804043,10.391933 l -1.1491097,1.608143 c 0.3967911,0.496603 0.8300708,0.972072 1.3464319,1.346892 l 1.6075923,-1.149502 c 0.3557495,0.194418 0.7204567,0.368207 1.1142872,0.470251 l 0.3250017,1.950672 c 0.2756423,0.03336 0.5577059,0.0667 0.8357149,0.06967 0.3565395,0 0.7148722,-0.01479 1.0678595,-0.06967 L 9.276821,12.667717 c 0.3896878,-0.113887 0.763668,-0.263991 1.114289,-0.470251 l 1.607592,1.149502 c 0.496038,-0.396926 0.971936,-0.82996 1.346431,-1.346892 l -1.14911,-1.608143 c 0.194351,-0.355871 0.367883,-0.7263117 0.47009,-1.1204744 l 1.955808,-0.3251123 c 0.07084,-0.6310166 0.103977,-1.2687866 0,-1.8984218 L 12.666113,6.722813 c -0.11365,-0.3898215 -0.2639,-0.7695374 -0.47009,-1.1204753 L 13.345133,4 C 12.948343,3.503793 12.515062,3.0277313 11.998702,2.653108 L 10.39111,3.8026109 C 10.035359,3.6079967 9.6714415,3.4344038 9.276821,3.3323596 L 8.9518208,1.3758827 C 8.6935416,1.3439063 8.4349842,1.3143897 8.1741412,1.3120191 z M 8.0000333,6.5138098 c 0.8205389,0 1.4857174,0.6654065 1.4857174,1.4862263 0,0.8208199 -0.6651785,1.4862257 -1.4857174,1.4862257 -0.8205391,0 -1.4857166,-0.6654058 -1.4857166,-1.4862257 0,-0.8208198 0.6651775,-1.4862263 1.4857166,-1.4862263 z"
       id="path4867"
       inkscape:connector-curvature="0" />
    <path
       style="fill:#ffffff;fill-opacity:1;fill-rule:nonzero;stroke:none;opacity:0.2"
       d="M 2 0.96875 C 1.4168007 0.96875 0.96875 1.4168007 0.96875 2 L 0.96875 3 C 0.96875 2.4168007 1.4168007 1.96875 2 1.96875 L 14 1.96875 C 14.583199 1.96875 15.03125 2.4168007 15.03125 3 L 15.03125 2 C 15.03125 1.4168007 14.583199 0.96875 14 0.96875 L 2 0.96875 z "
       id="path2843" />
    <path
       style="fill:url(#linearGradient4422);fill-opacity:1;fill-rule:nonzero;stroke:none;display:inline"
       d="M 8.0000001,2 C 5.2409842,2.0000002 3,4.6848203 3,7.9952 3,11.305579 5.240985,14 8.0000001,14 10.759016,14 13,11.305579 13,7.9952 13,4.6848204 10.759016,2 8.0000001,2 z m 0,0.768 c 2.2856689,0 2.5048839,2.3396181 2.5048839,5.2272 0,2.887581 -0.303828,5.232 -2.5048839,5.232 -2.2398875,0 -2.5048825,-2.344419 -2.5048825,-5.232 0,-2.8875819 0.2579283,-5.2272 2.5048825,-5.2272 z"
       id="path3539" />
    <path
       style="opacity:0.4;fill:url(#linearGradient3629);fill-opacity:1;fill-rule:nonzero;stroke:none"
       d="m 0,14 c 0,1.108 0.892,2 2,2 l 12,0 c 1.108,0 2,-0.892 2,-2 L 16,2 C 16,0.892 15.108,0 14,0 L 2,0 C 0.892,0 0,0.892 0,2 l 0,12 z m 0.96875,0 0,-12 C 0.96875,1.416801 1.4168007,0.96875 2,0.96875 l 12,0 c 0.583199,0 1.03125,0.448051 1.03125,1.03125 l 0,12 c 0,0.583199 -0.448051,1.03125 -1.03125,1.03125 l -12,0 C 1.4168007,15.03125 0.96875,14.583199 0.96875,14 z"
       id="rect2835" />
  </g>
</svg>
