<?xml version="1.0" encoding="UTF-8" standalone="no"?>
<!-- Created with Inkscape (http://www.inkscape.org/) -->

<svg
   xmlns:dc="http://purl.org/dc/elements/1.1/"
   xmlns:cc="http://creativecommons.org/ns#"
   xmlns:rdf="http://www.w3.org/1999/02/22-rdf-syntax-ns#"
   xmlns:svg="http://www.w3.org/2000/svg"
   xmlns="http://www.w3.org/2000/svg"
   xmlns:xlink="http://www.w3.org/1999/xlink"
   xmlns:sodipodi="http://sodipodi.sourceforge.net/DTD/sodipodi-0.dtd"
   xmlns:inkscape="http://www.inkscape.org/namespaces/inkscape"
   width="16"
   height="16"
   id="svg2"
   sodipodi:version="0.32"
   inkscape:version="0.48.1 r9760"
   version="1.0"
   sodipodi:docname="skype.svg"
   inkscape:output_extension="org.inkscape.output.svg.inkscape"
   style="display:inline">
  <defs
     id="defs4">
    <linearGradient
       inkscape:collect="always"
       id="linearGradient3892">
      <stop
         style="stop-color:#00aff0;stop-opacity:1;"
         offset="0"
         id="stop3894" />
      <stop
         style="stop-color:#00aff0;stop-opacity:0;"
         offset="1"
         id="stop3896" />
    </linearGradient>
    <inkscape:perspective
       sodipodi:type="inkscape:persp3d"
       inkscape:vp_x="0 : 8 : 1"
       inkscape:vp_y="0 : 1000 : 0"
       inkscape:vp_z="16 : 8 : 1"
       inkscape:persp3d-origin="8 : 5.3333333 : 1"
       id="perspective35" />
    <linearGradient
       id="ButtonColor"
       x1="10.31979"
       y1="21"
       x2="10.31979"
       y2="0.99929649"
       gradientUnits="userSpaceOnUse">
      <stop
         style="stop-color:#29669f;stop-opacity:1;"
         offset="0"
         id="stop3189" />
      <stop
         style="stop-color:#88b6e0;stop-opacity:1;"
         offset="1"
         id="stop3191" />
    </linearGradient>
    <linearGradient
       inkscape:collect="always"
       xlink:href="#linearGradient3752"
       id="linearGradient3204"
       x1="1"
       y1="9"
       x2="15"
       y2="9"
       gradientUnits="userSpaceOnUse"
       gradientTransform="translate(-17,-2)" />
    <linearGradient
       inkscape:collect="always"
       xlink:href="#SVGID_1_-4"
       id="linearGradient3765"
       gradientUnits="userSpaceOnUse"
       gradientTransform="matrix(0.09341072,0,0,0.04108075,-26.756456,8.0246654)"
       x1="383.28857"
       y1="0"
       x2="383.28857"
       y2="218.48047" />
    <linearGradient
       id="SVGID_1_-4"
       gradientUnits="userSpaceOnUse"
       x1="383.28857"
       y1="0"
       x2="383.28857"
       y2="218.48047">
      <stop
         offset="0.005618"
         style="stop-color:#ED2828"
         id="stop3143-2" />
      <stop
         offset="0.5"
         style="stop-color:#EF3B39"
         id="stop3145-1" />
      <stop
         offset="0.994382"
         style="stop-color:#C02126"
         id="stop3147-3" />
    </linearGradient>
    <linearGradient
       y2="180.6748"
       x2="175.30762"
       y1="73.254395"
       x1="175.30762"
       gradientUnits="userSpaceOnUse"
       id="linearGradient3749-5">
      <stop
         id="stop3751-8"
         style="stop-color:#000000;stop-opacity:1;"
         offset="0" />
      <stop
         id="stop3753-7"
         style="stop-color:#000000;stop-opacity:0.4728682;"
         offset="0.99438202" />
    </linearGradient>
    <linearGradient
       inkscape:collect="always"
       xlink:href="#linearGradient3749-5"
       id="linearGradient3754"
       gradientUnits="userSpaceOnUse"
       gradientTransform="matrix(0.04164302,0,0,0.03408859,1.9444673,0.78644322)"
       x1="175.30762"
       y1="73.254395"
       x2="175.30762"
       y2="180.6748" />
    <linearGradient
       inkscape:collect="always"
       xlink:href="#linearGradient3749-5"
       id="linearGradient3756"
       gradientUnits="userSpaceOnUse"
       gradientTransform="matrix(0.04998763,0,0,0.03408859,2.4795353,0.78644322)"
       x1="175.30762"
       y1="73.254395"
       x2="175.30762"
       y2="180.6748" />
    <linearGradient
       y2="180.6748"
       x2="175.30762"
       y1="73.254395"
       x1="175.30762"
       gradientTransform="matrix(0.04859283,0,0,0.03408859,3.115962,0.78644322)"
       gradientUnits="userSpaceOnUse"
       id="linearGradient3809"
       xlink:href="#linearGradient3749-5"
       inkscape:collect="always" />
    <inkscape:perspective
       id="perspective3729"
       inkscape:persp3d-origin="0.5 : 0.33333333 : 1"
       inkscape:vp_z="1 : 0.5 : 1"
       inkscape:vp_y="0 : 1000 : 0"
       inkscape:vp_x="0 : 0.5 : 1"
       sodipodi:type="inkscape:persp3d" />
    <linearGradient
       inkscape:collect="always"
       xlink:href="#linearGradient3696"
       id="linearGradient4163"
       x1="6"
       y1="48"
       x2="90"
       y2="48"
       gradientUnits="userSpaceOnUse"
       gradientTransform="translate(-96,0)" />
    <linearGradient
       id="linearGradient3696">
      <stop
         id="stop3698"
         offset="0"
         style="stop-color:#2458a6;stop-opacity:1;" />
      <stop
         id="stop3700"
         offset="1"
         style="stop-color:#598ad4;stop-opacity:1;" />
    </linearGradient>
    <linearGradient
       y2="48"
       x2="90"
       y1="48"
       x1="6"
       gradientTransform="translate(-52.867199,-57.252856)"
       gradientUnits="userSpaceOnUse"
       id="linearGradient3738"
       xlink:href="#linearGradient3696"
       inkscape:collect="always" />
    <inkscape:perspective
       id="perspective3703"
       inkscape:persp3d-origin="0.5 : 0.33333333 : 1"
       inkscape:vp_z="1 : 0.5 : 1"
       inkscape:vp_y="0 : 1000 : 0"
       inkscape:vp_x="0 : 0.5 : 1"
       sodipodi:type="inkscape:persp3d" />
    <linearGradient
       gradientTransform="matrix(0.19388162,0,0,0.19388162,-1.4007219,-1.9461429)"
       inkscape:collect="always"
       xlink:href="#linearGradient4099"
       id="linearGradient4113"
       x1="22.111456"
       y1="62.983868"
       x2="40"
       y2="32"
       gradientUnits="userSpaceOnUse" />
    <linearGradient
       id="linearGradient4099">
      <stop
         style="stop-color:#9ede27;stop-opacity:1;"
         offset="0"
         id="stop4101" />
      <stop
         style="stop-color:#c8f16b;stop-opacity:1;"
         offset="1"
         id="stop4103" />
    </linearGradient>
    <linearGradient
       gradientTransform="matrix(0.19388162,0,0,0.19388162,-1.5256152,-1.9461429)"
       inkscape:collect="always"
       xlink:href="#linearGradient4099"
       id="linearGradient4105"
       x1="38"
       y1="74"
       x2="70"
       y2="49"
       gradientUnits="userSpaceOnUse" />
    <linearGradient
       id="linearGradient3712">
      <stop
         style="stop-color:#9ede27;stop-opacity:1;"
         offset="0"
         id="stop3714" />
      <stop
         style="stop-color:#c8f16b;stop-opacity:1;"
         offset="1"
         id="stop3716" />
    </linearGradient>
    <linearGradient
       inkscape:collect="always"
       xlink:href="#linearGradient3799-3"
       id="linearGradient3746"
       gradientUnits="userSpaceOnUse"
       x1="56.037025"
       y1="49.333305"
       x2="56.037025"
       y2="13.593002"
       gradientTransform="matrix(0.26518093,0,0,0.26518093,-0.34872536,-3.7081516)" />
    <linearGradient
       id="linearGradient3799-3">
      <stop
         style="stop-color:#1a1a1a;stop-opacity:1;"
         offset="0"
         id="stop3801-3" />
      <stop
         style="stop-color:#000000;stop-opacity:1;"
         offset="1"
         id="stop3803-2" />
    </linearGradient>
    <linearGradient
       y2="13.593002"
       x2="56.037025"
       y1="49.333305"
       x1="56.037025"
       gradientTransform="matrix(0.19388162,0,0,0.19388162,-1.3401963,-1.8843368)"
       gradientUnits="userSpaceOnUse"
       id="linearGradient3726"
       xlink:href="#linearGradient3799-3"
       inkscape:collect="always" />
    <inkscape:perspective
       id="perspective3736"
       inkscape:persp3d-origin="0.5 : 0.33333333 : 1"
       inkscape:vp_z="1 : 0.5 : 1"
       inkscape:vp_y="0 : 1000 : 0"
       inkscape:vp_x="0 : 0.5 : 1"
       sodipodi:type="inkscape:persp3d" />
    <radialGradient
       inkscape:collect="always"
       xlink:href="#linearGradient3784-2"
       id="radialGradient3758"
       gradientUnits="userSpaceOnUse"
       gradientTransform="matrix(1.0456205,0.08243661,-0.05194947,0.90987799,0.84943041,1.3399685)"
       cx="49.580967"
       cy="67.04126"
       fx="49.580967"
       fy="67.04126"
       r="10" />
    <linearGradient
       id="linearGradient3784-2">
      <stop
         id="stop3786-4"
         offset="0"
         style="stop-color:#a0a0a0;stop-opacity:1;" />
      <stop
         id="stop3790-2"
         offset="1"
         style="stop-color:#1a1a1a;stop-opacity:1;" />
    </linearGradient>
    <radialGradient
       r="10"
       fy="67.04126"
       fx="49.580967"
       cy="67.04126"
       cx="49.580967"
       gradientTransform="matrix(1.0456205,0.08243661,-0.05194947,0.90987799,0.84943041,1.3399685)"
       gradientUnits="userSpaceOnUse"
       id="radialGradient3745"
       xlink:href="#linearGradient3784-2"
       inkscape:collect="always" />
    <radialGradient
       inkscape:collect="always"
       xlink:href="#linearGradient3784-2"
       id="radialGradient3698"
       cx="10.116978"
       cy="6.5340972"
       fx="10.116978"
       fy="6.5340972"
       r="2.6487656"
       gradientTransform="matrix(0.60548597,-0.18291744,0.13322228,0.44098703,0.81853832,7.6996387)"
       gradientUnits="userSpaceOnUse" />
    <linearGradient
       inkscape:collect="always"
       xlink:href="#linearGradient3737"
       id="linearGradient3748"
       gradientUnits="userSpaceOnUse"
       gradientTransform="matrix(0.18216319,0,0,0.18216319,-0.7438335,-0.7438327)"
       x1="32"
       y1="24"
       x2="64"
       y2="64" />
    <linearGradient
       inkscape:collect="always"
       id="linearGradient3737">
      <stop
         style="stop-color:#ffffff;stop-opacity:1;"
         offset="0"
         id="stop3739" />
      <stop
         style="stop-color:#ffffff;stop-opacity:0;"
         offset="1"
         id="stop3741" />
    </linearGradient>
    <linearGradient
       inkscape:collect="always"
       xlink:href="#linearGradient3740"
       id="linearGradient3751"
       gradientUnits="userSpaceOnUse"
       gradientTransform="matrix(0.18216319,0,0,0.18216319,-0.7438335,-0.7438327)"
       x1="56"
       y1="80"
       x2="51.524998"
       y2="53.767857" />
    <linearGradient
       id="linearGradient3740">
      <stop
         style="stop-color:#9ee1f9;stop-opacity:1"
         offset="0"
         id="stop3742" />
      <stop
         style="stop-color:#00aff0;stop-opacity:1"
         offset="1"
         id="stop3744" />
    </linearGradient>
    <linearGradient
       inkscape:collect="always"
       xlink:href="#linearGradient3831"
       id="linearGradient3845"
       x1="11"
       y1="19.5"
       x2="21"
       y2="19.5"
       gradientUnits="userSpaceOnUse"
       spreadMethod="reflect"
       gradientTransform="translate(-31,-5)" />
    <linearGradient
       id="linearGradient3831">
      <stop
         style="stop-color:#ffffff;stop-opacity:1;"
         offset="0"
         id="stop3833" />
      <stop
         id="stop3821"
         offset="0.75"
         style="stop-color:#ffffff;stop-opacity:0.49803922;" />
      <stop
         style="stop-color:#ffffff;stop-opacity:0;"
         offset="1"
         id="stop3835" />
    </linearGradient>
    <linearGradient
       y2="16"
       x2="10"
       y1="1"
       x1="10"
       gradientTransform="translate(-31,-5)"
       gradientUnits="userSpaceOnUse"
       id="linearGradient4007"
       xlink:href="#linearGradient3823"
       inkscape:collect="always" />
    <linearGradient
       id="linearGradient3823">
      <stop
         id="stop3825"
         offset="0"
         style="stop-color:#ffffff;stop-opacity:1;" />
      <stop
         id="stop3829"
         offset="1"
         style="stop-color:#ffffff;stop-opacity:0;" />
    </linearGradient>
    <linearGradient
       inkscape:collect="always"
       xlink:href="#linearGradient3752"
       id="linearGradient3181"
       x1="-3.0607977"
       y1="27.258198"
       x2="-3.0607977"
       y2="7.2536583"
       gradientUnits="userSpaceOnUse"
       gradientTransform="translate(12.119372,-7.2581977)" />
    <linearGradient
       id="linearGradient3752">
      <stop
         style="stop-color:#6bd0f5;stop-opacity:1;"
         offset="0"
         id="stop3754" />
      <stop
         style="stop-color:#c6eefd;stop-opacity:1;"
         offset="1"
         id="stop3756" />
    </linearGradient>
    <linearGradient
       y2="7.2536583"
       x2="-3.0607977"
       y1="27.258198"
       x1="-3.0607977"
       gradientTransform="translate(-19.880628,-11.258198)"
       gradientUnits="userSpaceOnUse"
       id="linearGradient3095"
       xlink:href="#linearGradient3752"
       inkscape:collect="always" />
    <linearGradient
       inkscape:collect="always"
       xlink:href="#linearGradient3892"
       id="linearGradient3898"
       x1="7.0575805"
       y1="15.973159"
       x2="6.9968162"
       y2="-9.6630259"
       gradientUnits="userSpaceOnUse" />
  </defs>
  <sodipodi:namedview
     id="base"
     pagecolor="#ffffff"
     bordercolor="#e7e7e7"
     borderopacity="1"
     inkscape:pageopacity="0.0"
     inkscape:pageshadow="2"
     inkscape:zoom="26.212949"
     inkscape:cx="-2.1554325"
     inkscape:cy="9.8908977"
     inkscape:document-units="px"
     inkscape:current-layer="layer1"
     showgrid="true"
     inkscape:showpageshadow="false"
     showguides="false"
     inkscape:guide-bbox="true"
     inkscape:window-width="1920"
     inkscape:window-height="1028"
     inkscape:window-x="0"
     inkscape:window-y="25"
     inkscape:window-maximized="1"
     inkscape:snap-global="false">
    <sodipodi:guide
       orientation="1,0"
       position="0,112"
       id="guide2383" />
    <sodipodi:guide
       orientation="0,1"
       position="26.278146,128"
       id="guide2385" />
    <sodipodi:guide
       orientation="1,0"
       position="128,54.082119"
       id="guide2387" />
    <sodipodi:guide
       orientation="0,1"
       position="78.156291,0"
       id="guide2389" />
    <sodipodi:guide
       orientation="0,1"
       position="60.863576,64.084768"
       id="guide2391" />
    <inkscape:grid
       type="xygrid"
       id="grid3672"
       visible="true"
       enabled="true" />
  </sodipodi:namedview>
  <metadata
     id="metadata7">
    <rdf:RDF>
      <cc:Work
         rdf:about="">
        <dc:format>image/svg+xml</dc:format>
        <dc:type
           rdf:resource="http://purl.org/dc/dcmitype/StillImage" />
        <dc:title></dc:title>
      </cc:Work>
    </rdf:RDF>
  </metadata>
  <g
     inkscape:label="Button"
     inkscape:groupmode="layer"
     id="layer1">
    <rect
       ry="2"
       rx="2"
       y="0"
       x="-16"
       height="16"
       width="16"
       id="rect3196"
       style="fill:url(#linearGradient3204);fill-opacity:1.0;fill-rule:nonzero;stroke:none"
       transform="matrix(0,-1,1,0,0,0)" />
    <path
       style="opacity:0.8;fill:url(#linearGradient3898);fill-opacity:1;fill-rule:nonzero;stroke:none"
       d="m 0,14 c 0,1.108 0.892,2 2,2 l 12,0 c 1.108,0 2,-0.892 2,-2 L 16,2 C 16,0.892 15.108,0 14,0 L 2,0 C 0.892,0 0,0.892 0,2 l 0,12 z m 0.96875,0 0,-12 C 0.96875,1.416801 1.4168007,0.96875 2,0.96875 l 12,0 c 0.583199,0 1.03125,0.448051 1.03125,1.03125 l 0,12 c 0,0.583199 -0.448051,1.03125 -1.03125,1.03125 l -12,0 C 1.4168007,15.03125 0.96875,14.583199 0.96875,14 z"
       id="rect2835" />
    <path
       style="fill:#ffffff;fill-opacity:1;fill-rule:nonzero;stroke:none;opacity:0.4"
       d="M 2 0.96875 C 1.4168007 0.96875 0.96875 1.4168007 0.96875 2 L 0.96875 3 C 0.96875 2.4168007 1.4168007 1.96875 2 1.96875 L 14 1.96875 C 14.583199 1.96875 15.03125 2.4168007 15.03125 3 L 15.03125 2 C 15.03125 1.4168007 14.583199 0.96875 14 0.96875 L 2 0.96875 z "
       id="path2843" />
    <path
       style="fill:url(#linearGradient3751);fill-opacity:1;fill-rule:nonzero;stroke:none;display:inline"
       d="m 5.3415558,2.1707782 c -1.7487668,0 -3.1707779,1.4220115 -3.1707779,3.1707781 0,0.5401426 0.1313271,1.0462966 0.3700183,1.4914606 -0.079689,0.3751233 -0.1138517,0.7682213 -0.1138517,1.1669833 0,3.0778298 2.4952259,5.5730548 5.5730553,5.5730548 0.3987617,0 0.7918594,-0.03417 1.1669828,-0.113852 0.446688,0.24083 0.9487264,0.370019 1.4914614,0.370019 1.748767,0 3.170778,-1.422011 3.170778,-3.170778 0,-0.542736 -0.129187,-1.044773 -0.370019,-1.491461 0.07969,-0.3751228 0.113851,-0.7682208 0.113851,-1.1669828 0,-3.0778293 -2.495225,-5.573055 -5.5730542,-5.573055 -0.3988569,0 -0.7917771,0.045512 -1.1669828,0.1252372 C 6.3878127,2.3134375 5.8817641,2.1707782 5.3415558,2.1707782 z"
       id="path3818"
       sodipodi:nodetypes="cscsscsscsscc"
       inkscape:connector-curvature="0" />
    <path
       style="opacity:0.6;fill:url(#linearGradient3748);fill-opacity:1;stroke:none;display:inline"
       d="m 5.3415558,2.1707782 c -1.7487668,0 -3.1707779,1.4220115 -3.1707779,3.1707781 0,0.5401426 0.1313271,1.0462966 0.3700183,1.4914606 -0.079689,0.3751233 -0.1138517,0.7682213 -0.1138517,1.1669833 0,0.798182 0.1699474,1.5561538 0.4724862,2.2428838 C 5.915227,7.7451189 10.772903,6.9367835 13.419354,6.6736242 12.823952,4.235094 10.621073,2.4269452 7.9999998,2.4269452 c -0.3988569,0 -0.7917771,0.045512 -1.1669828,0.1252372 C 6.3878127,2.3134375 5.8817641,2.1707782 5.3415558,2.1707782 z"
       id="path3727"
       inkscape:connector-curvature="0" />
    <path
       d="m 33.40625,-59.875 c -10.614165,0 -19.28125,8.667085 -19.28125,19.28125 0,3.059169 0.757955,5.932358 2.03125,8.5 -0.37451,1.986395 -0.625,4.021765 -0.625,6.09375 0,17.9066387 14.562113,32.46875 32.46875,32.46875 2.071984,0 4.107358,-0.2504901 6.09375,-0.625 2.573218,1.2821477 5.43369,2.03125 8.5,2.03125 10.614165,0 19.28125,-8.66708377 19.28125,-19.28125 0,-3.066308 -0.749086,-5.926777 -2.03125,-8.5 0.374509,-1.986391 0.625,-4.021761 0.625,-6.09375 0,-17.906636 -14.562113,-32.46875 -32.46875,-32.46875 -2.115081,0 -4.154727,0.303486 -6.125,0.6875 -2.54244,-1.264413 -5.396324,-2.09375 -8.46875,-2.09375 z m 0,4.75 c 2.45528,0 4.778606,0.642547 6.84375,1.75 a 0.93910011,0.93910011 0 0 0 0,0.03125 c 0.02575,0.01372 0.191904,0.08232 0.21875,0.09375 0.02685,0.01143 0.222263,0.08469 0.25,0.09375 0.02774,0.0091 0.190332,0.05588 0.21875,0.0625 0.02842,0.0066 0.221115,0.02712 0.25,0.03125 0.02889,0.0041 0.220866,0.02965 0.25,0.03125 0.02913,0.0016 0.220836,9.29e-4 0.25,0 0.02916,-9.29e-4 0.221027,0.0035 0.25,0 0.02897,-0.0035 0.221436,-0.05654 0.25,-0.0625 1.880877,-0.399655 3.846049,-0.625 5.8125,-0.625 15.337793,0 27.71875,12.380953 27.71875,27.71875 0,2.020552 -0.174669,3.986828 -0.5625,5.8125 -0.0064,0.02919 -0.05867,0.220356 -0.0625,0.25 -0.0038,0.02964 0.0012,0.220134 0,0.25 -0.0012,0.02987 -0.0015,0.220147 0,0.25 0.0015,0.02985 -0.0041,0.220397 0,0.25 0.0041,0.0296 0.05576,0.220882 0.0625,0.25 0.0067,0.02912 0.05319,0.221596 0.0625,0.25 0.0093,0.0284 0.08196,0.222536 0.09375,0.25 0.01179,0.02746 0.110812,0.192443 0.125,0.21875 1.101369,2.042774 1.6875,4.29236 1.6875,6.8125 0,8.037594 -6.493652,14.53125 -14.53125,14.53125 -2.520129,0 -4.769723,-0.5861417 -6.8125,-1.6875 -0.02631,-0.014188 -0.191286,-0.1132062 -0.21875,-0.125 -0.02746,-0.011794 -0.221596,-0.084444 -0.25,-0.09375 -0.0284,-0.00931 -0.220882,-0.055755 -0.25,-0.0625 -0.02912,-0.00675 -0.220397,-0.058369 -0.25,-0.0625 -0.0296,-0.00413 -0.220147,0.00148 -0.25,0 -0.02985,-0.00148 -0.220134,-0.00118 -0.25,0 -0.02987,0.00118 -0.220356,-0.00383 -0.25,0 -0.02964,0.00383 -0.220814,0.056055 -0.25,0.0625 C 51.986833,1.5440792 50.020548,1.71875 48,1.71875 32.662207,1.71875 20.28125,-10.6622 20.28125,-26 c 0,-2.02055 0.174671,-3.986831 0.5625,-5.8125 0.006,-0.02856 0.05904,-0.221027 0.0625,-0.25 0.0035,-0.02897 -9.29e-4,-0.220836 0,-0.25 9.29e-4,-0.02916 0.0016,-0.220866 0,-0.25 -0.0016,-0.02913 -0.02712,-0.221115 -0.03125,-0.25 -0.0041,-0.02889 -0.02463,-0.221582 -0.03125,-0.25 -0.0066,-0.02842 -0.05344,-0.191013 -0.0625,-0.21875 -0.0091,-0.02774 -0.08232,-0.223154 -0.09375,-0.25 -0.01143,-0.02685 -0.08003,-0.192997 -0.09375,-0.21875 a 0.93910011,0.93910011 0 0 0 -0.03125,0 c -1.089246,-2.031468 -1.6875,-4.348134 -1.6875,-6.84375 0,-8.037593 6.493652,-14.53125 14.53125,-14.53125 z"
       id="path3730"
       style="fill:#00aff0;fill-opacity:1;fill-rule:nonzero;stroke:none;display:inline"
       inkscape:original="M 33.40625 -58.9375 C 23.30263 -58.9375 15.0625 -50.69737 15.0625 -40.59375 C 15.0625 -37.596568 15.810233 -34.786193 17.09375 -32.28125 C 16.685109 -30.239306 16.46875 -28.135832 16.46875 -26 C 16.46875 -8.601888 30.60189 5.53125 48 5.53125 C 50.13583 5.53125 52.23931 5.314891 54.28125 4.90625 C 56.79224 6.199304 59.58671 6.9375 62.59375 6.9375 C 72.69737 6.9375 80.9375 -1.302629 80.9375 -11.40625 C 80.9375 -14.413291 80.19932 -17.207759 78.90625 -19.71875 C 79.31489 -21.76069 79.53125 -23.864164 79.53125 -26 C 79.53125 -43.398109 65.39811 -57.53125 48 -57.53125 C 45.84679 -57.53125 43.74594 -57.25506 41.71875 -56.84375 C 39.22372 -58.126783 36.41577 -58.9375 33.40625 -58.9375 z M 33.40625 -56.0625 C 36.0291 -56.0625 38.50029 -55.360412 40.6875 -54.1875 A 1.9466111 1.9466111 0 0 0 42 -54 C 43.9368 -54.411538 45.95851 -54.65625 48 -54.65625 C 63.84401 -54.65625 76.65625 -41.844014 76.65625 -26 C 76.65625 -23.922137 76.46602 -21.899525 76.0625 -20 A 1.9466111 1.9466111 0 0 0 76.25 -18.65625 C 77.42095 -16.484419 78.0625 -14.076777 78.0625 -11.40625 C 78.0625 -2.861404 71.1386 4.0625 62.59375 4.0625 C 59.92323 4.0625 57.51558 3.420937 55.34375 2.25 A 1.9466111 1.9466111 0 0 0 54 2.0625 C 52.10048 2.466018 50.07786 2.65625 48 2.65625 C 32.15599 2.65625 19.34375 -10.155983 19.34375 -26 C 19.34375 -28.077862 19.533982 -30.100478 19.9375 -32 A 1.9466111 1.9466111 0 0 0 19.75 -33.3125 C 18.589532 -35.476798 17.9375 -37.944086 17.9375 -40.59375 C 17.9375 -49.138595 24.8614 -56.0625 33.40625 -56.0625 z "
       inkscape:radius="0.93900621"
       sodipodi:type="inkscape:offset"
       transform="matrix(0.17712177,0,0,0.17712177,-0.5018458,12.605166)" />
    <path
       sodipodi:type="inkscape:offset"
       inkscape:radius="0.13019903"
       inkscape:original="M 7.90625 4.375 C 6.1183391 4.375 5.0625 5.1809321 5.0625 6.5625 C 5.0625 8.065388 7.008262 8.4599346 8.21875 8.625 C 9.3517857 8.9285966 9.375 9.098821 9.375 9.59375 C 9.375 10.210596 8.6232225 10.46875 8.09375 10.46875 C 6.4951366 10.46875 6.6018328 9.28125 5.75 9.28125 C 5.3111488 9.28125 5.09375 9.447373 5.09375 10 C 5.09375 10.552627 6.2433383 11.625 8.03125 11.625 C 9.8191608 11.625 10.9375 10.912818 10.9375 9.53125 C 10.9375 8.1089569 9.7725803 7.6975974 8.21875 7.28125 C 7.1852003 7.0303273 6.625 6.8386807 6.625 6.34375 C 6.625 5.726904 7.2517774 5.5 7.78125 5.5 C 9.3798634 5.5 9.0544171 6.53125 9.90625 6.53125 C 10.345102 6.53125 10.59375 6.4276266 10.59375 5.875 C 10.59375 5.322373 9.6941617 4.375 7.90625 4.375 z "
       style="fill:#ffffff;fill-opacity:1;fill-rule:evenodd;stroke:none;display:inline"
       id="path3890"
       d="M 7.90625,4.25 C 6.9927314,4.25 6.2680454,4.4460841 5.75,4.84375 5.2319546,5.2414159 4.9375,5.8385486 4.9375,6.5625 c 0,0.8076328 0.5258497,1.3376099 1.1875,1.65625 0.6616503,0.3186401 1.4527494,0.4481028 2.0625,0.53125 0.5608564,0.1502813 0.8252804,0.2666328 0.9375,0.375 0.05611,0.054184 0.078073,0.1162881 0.09375,0.1875 0.015677,0.071212 0.03125,0.1585356 0.03125,0.28125 0,0.2555299 -0.14682,0.435319 -0.375,0.5625 -0.22818,0.127181 -0.5376741,0.1875 -0.78125,0.1875 -0.7670681,0 -1.0740341,-0.276152 -1.34375,-0.5625 C 6.6151421,9.6380761 6.4939255,9.499059 6.34375,9.375 6.1935745,9.250941 5.9932089,9.15625 5.75,9.15625 c -0.2358541,0 -0.4501872,0.042093 -0.59375,0.1875 C 5.0126872,9.4891572 4.96875,9.7066134 4.96875,10 c 0,0.183297 0.072196,0.370009 0.21875,0.5625 0.1465537,0.192491 0.3588606,0.386855 0.625,0.5625 0.5322788,0.35129 1.2987634,0.625 2.21875,0.625 0.9112429,0 1.6531388,-0.189945 2.1875,-0.5625 0.534361,-0.372555 0.84375,-0.930335 0.84375,-1.65625 0,-0.7466928 -0.301063,-1.2745282 -0.8125,-1.625 C 9.7385634,7.5557782 9.0294127,7.3650929 8.25,7.15625 7.7353693,7.0313092 7.3409932,6.9108601 7.09375,6.78125 6.8465068,6.6516399 6.75,6.5420923 6.75,6.34375 6.75,6.0794254 6.8682956,5.9291139 7.0625,5.8125 7.2567044,5.6958861 7.5351125,5.625 7.78125,5.625 c 0.77131,0 1.0367871,0.2243829 1.25,0.46875 0.1066065,0.1221835 0.1801681,0.2630258 0.3125,0.375 0.1323319,0.1119742 0.3232714,0.1875 0.5625,0.1875 C 10.135924,6.65625 10.343541,6.6269984 10.5,6.5 10.656459,6.3730016 10.71875,6.1708405 10.71875,5.875 10.71875,5.5280388 10.472562,5.1349159 10,4.8125 9.5274384,4.4900841 8.8232023,4.25 7.90625,4.25 z" />
  </g>
</svg>
