<?xml version="1.0" encoding="UTF-8" standalone="no"?>
<!-- Created with Inkscape (http://www.inkscape.org/) -->

<svg
   xmlns:dc="http://purl.org/dc/elements/1.1/"
   xmlns:cc="http://creativecommons.org/ns#"
   xmlns:rdf="http://www.w3.org/1999/02/22-rdf-syntax-ns#"
   xmlns:svg="http://www.w3.org/2000/svg"
   xmlns="http://www.w3.org/2000/svg"
   xmlns:xlink="http://www.w3.org/1999/xlink"
   xmlns:sodipodi="http://sodipodi.sourceforge.net/DTD/sodipodi-0.dtd"
   xmlns:inkscape="http://www.inkscape.org/namespaces/inkscape"
   width="16"
   height="16"
   id="svg2"
   sodipodi:version="0.32"
   inkscape:version="0.48.1 r9760"
   version="1.0"
   sodipodi:docname="truecrypt.svg"
   inkscape:output_extension="org.inkscape.output.svg.inkscape"
   style="display:inline">
  <defs
     id="defs4">
    <linearGradient
       inkscape:collect="always"
       id="linearGradient3327">
      <stop
         style="stop-color:#000000;stop-opacity:1;"
         offset="0"
         id="stop3330" />
      <stop
         style="stop-color:#000000;stop-opacity:0;"
         offset="1"
         id="stop3333" />
    </linearGradient>
    <linearGradient
       inkscape:collect="always"
       xlink:href="#linearGradient3700"
       id="linearGradient3204"
       x1="1"
       y1="9"
       x2="15"
       y2="9"
       gradientUnits="userSpaceOnUse"
       gradientTransform="translate(-17,-2)" />
    <linearGradient
       inkscape:collect="always"
       xlink:href="#linearGradient3327"
       id="linearGradient3629"
       x1="0"
       y1="8"
       x2="29.017237"
       y2="8"
       gradientUnits="userSpaceOnUse"
       gradientTransform="matrix(0,-1,1,0,0,16)" />
    <radialGradient
       inkscape:collect="always"
       xlink:href="#linearGradient4989-6"
       id="radialGradient3196-7"
       gradientUnits="userSpaceOnUse"
       cx="5"
       cy="16"
       fx="5"
       fy="16"
       r="1" />
    <linearGradient
       id="linearGradient4989-6">
      <stop
         id="stop4991-6"
         offset="0"
         style="stop-color:#90b7ff;stop-opacity:1;" />
      <stop
         id="stop4993-4"
         offset="1"
         style="stop-color:#105ace;stop-opacity:1" />
    </linearGradient>
    <radialGradient
       inkscape:collect="always"
       xlink:href="#linearGradient5101-4"
       id="radialGradient3194-7"
       gradientUnits="userSpaceOnUse"
       cx="5"
       cy="16"
       fx="5"
       fy="16"
       r="1" />
    <linearGradient
       id="linearGradient5101-4">
      <stop
         style="stop-color:#ffffff;stop-opacity:1;"
         offset="0"
         id="stop5103-8" />
      <stop
         id="stop5109-2"
         offset="0.796875"
         style="stop-color:#ffffff;stop-opacity:1;" />
      <stop
         style="stop-color:#ffffff;stop-opacity:0;"
         offset="1"
         id="stop5105-5" />
    </linearGradient>
    <radialGradient
       inkscape:collect="always"
       xlink:href="#linearGradient5101-4"
       id="radialGradient3192-2"
       gradientUnits="userSpaceOnUse"
       cx="5"
       cy="16"
       fx="5"
       fy="16"
       r="1" />
    <radialGradient
       inkscape:collect="always"
       xlink:href="#linearGradient5101-4"
       id="radialGradient3190-7"
       gradientUnits="userSpaceOnUse"
       cx="5"
       cy="16"
       fx="5"
       fy="16"
       r="1" />
    <radialGradient
       inkscape:collect="always"
       xlink:href="#linearGradient4989-6"
       id="radialGradient3188-6"
       gradientUnits="userSpaceOnUse"
       cx="5"
       cy="16"
       fx="5"
       fy="16"
       r="1" />
    <radialGradient
       inkscape:collect="always"
       xlink:href="#linearGradient4989-6"
       id="radialGradient3186-5"
       gradientUnits="userSpaceOnUse"
       cx="5"
       cy="16"
       fx="5"
       fy="16"
       r="1" />
    <radialGradient
       inkscape:collect="always"
       xlink:href="#linearGradient4989-6"
       id="radialGradient3184-9"
       gradientUnits="userSpaceOnUse"
       cx="5"
       cy="16"
       fx="5"
       fy="16"
       r="1" />
    <radialGradient
       inkscape:collect="always"
       xlink:href="#linearGradient4989-6"
       id="radialGradient3182-6"
       gradientUnits="userSpaceOnUse"
       cx="5"
       cy="16"
       fx="5"
       fy="16"
       r="1" />
    <radialGradient
       inkscape:collect="always"
       xlink:href="#linearGradient4989-6"
       id="radialGradient3180-6"
       gradientUnits="userSpaceOnUse"
       cx="5"
       cy="16"
       fx="5"
       fy="16"
       r="1" />
    <radialGradient
       inkscape:collect="always"
       xlink:href="#linearGradient4989-6"
       id="radialGradient5670"
       gradientUnits="userSpaceOnUse"
       cx="5"
       cy="16"
       fx="5"
       fy="16"
       r="1" />
    <radialGradient
       inkscape:collect="always"
       xlink:href="#linearGradient5101-4"
       id="radialGradient3156-9"
       gradientUnits="userSpaceOnUse"
       cx="5"
       cy="16"
       fx="5"
       fy="16"
       r="1" />
    <radialGradient
       inkscape:collect="always"
       xlink:href="#linearGradient4989-6"
       id="radialGradient3154-7"
       gradientUnits="userSpaceOnUse"
       cx="5"
       cy="16"
       fx="5"
       fy="16"
       r="1" />
    <radialGradient
       inkscape:collect="always"
       xlink:href="#linearGradient4989-6"
       id="radialGradient3152-2"
       gradientUnits="userSpaceOnUse"
       cx="5"
       cy="16"
       fx="5"
       fy="16"
       r="1" />
    <linearGradient
       gradientUnits="userSpaceOnUse"
       y2="0.49415185"
       x2="21.754447"
       y1="0.49415185"
       x1="0.50591737"
       gradientTransform="scale(0.98830369,1.0118347)"
       id="linearGradient3335">
      <stop
         id="stop3337"
         offset="0"
         style="stop-color:#90b7ff;stop-opacity:1;" />
      <stop
         id="stop3339"
         offset="1"
         style="stop-color:#105ace;stop-opacity:1" />
    </linearGradient>
    <radialGradient
       inkscape:collect="always"
       xlink:href="#linearGradient4989-6"
       id="radialGradient5668"
       gradientUnits="userSpaceOnUse"
       cx="5"
       cy="16"
       fx="5"
       fy="16"
       r="1" />
    <radialGradient
       inkscape:collect="always"
       xlink:href="#linearGradient5101-4"
       id="radialGradient5666"
       gradientUnits="userSpaceOnUse"
       cx="5"
       cy="16"
       fx="5"
       fy="16"
       r="1" />
    <radialGradient
       inkscape:collect="always"
       xlink:href="#linearGradient4989-6"
       id="radialGradient3146-2"
       gradientUnits="userSpaceOnUse"
       cx="5"
       cy="16"
       fx="5"
       fy="16"
       r="1" />
    <radialGradient
       inkscape:collect="always"
       xlink:href="#linearGradient4989-6"
       id="radialGradient3144-6"
       gradientUnits="userSpaceOnUse"
       cx="5"
       cy="16"
       fx="5"
       fy="16"
       r="1" />
    <radialGradient
       inkscape:collect="always"
       xlink:href="#linearGradient4989-6"
       id="radialGradient3142-2"
       gradientUnits="userSpaceOnUse"
       cx="5"
       cy="16"
       fx="5"
       fy="16"
       r="1" />
    <radialGradient
       inkscape:collect="always"
       xlink:href="#linearGradient4989-6"
       id="radialGradient3140-9"
       gradientUnits="userSpaceOnUse"
       cx="5"
       cy="16"
       fx="5"
       fy="16"
       r="1" />
    <radialGradient
       inkscape:collect="always"
       xlink:href="#linearGradient4989-6"
       id="radialGradient3138-1"
       gradientUnits="userSpaceOnUse"
       cx="5"
       cy="16"
       fx="5"
       fy="16"
       r="1" />
    <radialGradient
       inkscape:collect="always"
       xlink:href="#linearGradient4989-6"
       id="radialGradient3136-3"
       gradientUnits="userSpaceOnUse"
       cx="5"
       cy="16"
       fx="5"
       fy="16"
       r="1" />
    <radialGradient
       inkscape:collect="always"
       xlink:href="#linearGradient5101-4"
       id="radialGradient3134-6"
       gradientUnits="userSpaceOnUse"
       cx="5"
       cy="16"
       fx="5"
       fy="16"
       r="1" />
    <radialGradient
       inkscape:collect="always"
       xlink:href="#linearGradient5101-4"
       id="radialGradient3132-0"
       gradientUnits="userSpaceOnUse"
       cx="5"
       cy="16"
       fx="5"
       fy="16"
       r="1" />
    <radialGradient
       inkscape:collect="always"
       xlink:href="#linearGradient5101-4"
       id="radialGradient3130-3"
       gradientUnits="userSpaceOnUse"
       cx="5"
       cy="16"
       fx="5"
       fy="16"
       r="1" />
    <radialGradient
       inkscape:collect="always"
       xlink:href="#linearGradient4989-6"
       id="radialGradient3128-3"
       gradientUnits="userSpaceOnUse"
       cx="5"
       cy="16"
       fx="5"
       fy="16"
       r="1" />
    <radialGradient
       inkscape:collect="always"
       xlink:href="#linearGradient4989-6"
       id="radialGradient3126-7"
       gradientUnits="userSpaceOnUse"
       cx="5"
       cy="16"
       fx="5"
       fy="16"
       r="1" />
    <radialGradient
       inkscape:collect="always"
       xlink:href="#linearGradient4989-6"
       id="radialGradient3124-1"
       gradientUnits="userSpaceOnUse"
       cx="5"
       cy="16"
       fx="5"
       fy="16"
       r="1" />
    <radialGradient
       inkscape:collect="always"
       xlink:href="#linearGradient4989-6"
       id="radialGradient3122-9"
       gradientUnits="userSpaceOnUse"
       cx="5"
       cy="16"
       fx="5"
       fy="16"
       r="1" />
    <radialGradient
       inkscape:collect="always"
       xlink:href="#linearGradient4989-6"
       id="radialGradient3120-6"
       gradientUnits="userSpaceOnUse"
       cx="5"
       cy="16"
       fx="5"
       fy="16"
       r="1" />
    <radialGradient
       inkscape:collect="always"
       xlink:href="#linearGradient4989-6"
       id="radialGradient3118-7"
       gradientUnits="userSpaceOnUse"
       cx="5"
       cy="16"
       fx="5"
       fy="16"
       r="1" />
    <radialGradient
       inkscape:collect="always"
       xlink:href="#linearGradient4989-6"
       id="radialGradient3076-9"
       gradientUnits="userSpaceOnUse"
       cx="5"
       cy="16"
       fx="5"
       fy="16"
       r="1" />
    <radialGradient
       inkscape:collect="always"
       xlink:href="#linearGradient4989-6"
       id="radialGradient5664"
       gradientUnits="userSpaceOnUse"
       cx="5"
       cy="16"
       fx="5"
       fy="16"
       r="1" />
    <radialGradient
       inkscape:collect="always"
       xlink:href="#linearGradient5101-4"
       id="radialGradient3072-3"
       gradientUnits="userSpaceOnUse"
       cx="5"
       cy="16"
       fx="5"
       fy="16"
       r="1" />
    <radialGradient
       inkscape:collect="always"
       xlink:href="#linearGradient4989-6"
       id="radialGradient3070-3"
       gradientUnits="userSpaceOnUse"
       cx="5"
       cy="16"
       fx="5"
       fy="16"
       r="1" />
    <radialGradient
       inkscape:collect="always"
       xlink:href="#linearGradient4989-6"
       id="radialGradient5662"
       gradientUnits="userSpaceOnUse"
       cx="5"
       cy="16"
       fx="5"
       fy="16"
       r="1" />
    <radialGradient
       inkscape:collect="always"
       xlink:href="#linearGradient4989-6"
       id="radialGradient3066-1"
       gradientUnits="userSpaceOnUse"
       cx="5"
       cy="16"
       fx="5"
       fy="16"
       r="1" />
    <radialGradient
       inkscape:collect="always"
       xlink:href="#linearGradient4989-6"
       id="radialGradient3064-1"
       gradientUnits="userSpaceOnUse"
       cx="5"
       cy="16"
       fx="5"
       fy="16"
       r="1" />
    <radialGradient
       inkscape:collect="always"
       xlink:href="#linearGradient4989-6"
       id="radialGradient3062-8"
       gradientUnits="userSpaceOnUse"
       cx="5"
       cy="16"
       fx="5"
       fy="16"
       r="1" />
    <radialGradient
       inkscape:collect="always"
       xlink:href="#linearGradient4989-6"
       id="radialGradient3060-7"
       gradientUnits="userSpaceOnUse"
       cx="5"
       cy="16"
       fx="5"
       fy="16"
       r="1" />
    <radialGradient
       inkscape:collect="always"
       xlink:href="#linearGradient4989-6"
       id="radialGradient3058-7"
       gradientUnits="userSpaceOnUse"
       cx="5"
       cy="16"
       fx="5"
       fy="16"
       r="1" />
    <radialGradient
       inkscape:collect="always"
       xlink:href="#linearGradient4989-6"
       id="radialGradient3028-4"
       gradientUnits="userSpaceOnUse"
       cx="5"
       cy="16"
       fx="5"
       fy="16"
       r="1" />
    <radialGradient
       inkscape:collect="always"
       xlink:href="#linearGradient4989-6"
       id="radialGradient3030-6"
       gradientUnits="userSpaceOnUse"
       cx="5"
       cy="16"
       fx="5"
       fy="16"
       r="1" />
    <radialGradient
       inkscape:collect="always"
       xlink:href="#linearGradient5101-4"
       id="radialGradient3032-6"
       gradientUnits="userSpaceOnUse"
       cx="5"
       cy="16"
       fx="5"
       fy="16"
       r="1" />
    <radialGradient
       inkscape:collect="always"
       xlink:href="#linearGradient5101-4"
       id="radialGradient3034-7"
       gradientUnits="userSpaceOnUse"
       cx="5"
       cy="16"
       fx="5"
       fy="16"
       r="1" />
    <radialGradient
       inkscape:collect="always"
       xlink:href="#linearGradient4989-6"
       id="radialGradient3036-2"
       gradientUnits="userSpaceOnUse"
       cx="5"
       cy="16"
       fx="5"
       fy="16"
       r="1" />
    <radialGradient
       inkscape:collect="always"
       xlink:href="#linearGradient4989-6"
       id="radialGradient3016-9"
       gradientUnits="userSpaceOnUse"
       cx="5"
       cy="16"
       fx="5"
       fy="16"
       r="1" />
    <radialGradient
       inkscape:collect="always"
       xlink:href="#linearGradient4989-6"
       id="radialGradient3012-9"
       gradientUnits="userSpaceOnUse"
       cx="5"
       cy="16"
       fx="5"
       fy="16"
       r="1" />
    <radialGradient
       inkscape:collect="always"
       xlink:href="#linearGradient4989-6"
       id="radialGradient5660"
       gradientUnits="userSpaceOnUse"
       cx="5"
       cy="16"
       fx="5"
       fy="16"
       r="1" />
    <radialGradient
       inkscape:collect="always"
       xlink:href="#linearGradient4989-6"
       id="radialGradient2988-1"
       gradientUnits="userSpaceOnUse"
       cx="5"
       cy="16"
       fx="5"
       fy="16"
       r="1" />
    <radialGradient
       inkscape:collect="always"
       xlink:href="#linearGradient4989-6"
       id="radialGradient5658"
       gradientUnits="userSpaceOnUse"
       cx="5"
       cy="16"
       fx="5"
       fy="16"
       r="1" />
    <linearGradient
       inkscape:collect="always"
       xlink:href="#linearGradient3831"
       id="linearGradient3845"
       x1="11"
       y1="19.5"
       x2="21"
       y2="19.5"
       gradientUnits="userSpaceOnUse"
       spreadMethod="reflect"
       gradientTransform="translate(-29,-7)" />
    <linearGradient
       id="linearGradient3831">
      <stop
         style="stop-color:#ffffff;stop-opacity:1;"
         offset="0"
         id="stop3833" />
      <stop
         id="stop3821"
         offset="0.75"
         style="stop-color:#ffffff;stop-opacity:0.49803922;" />
      <stop
         style="stop-color:#ffffff;stop-opacity:0;"
         offset="1"
         id="stop3835" />
    </linearGradient>
    <linearGradient
       y2="16"
       x2="10"
       y1="1"
       x1="10"
       gradientTransform="translate(-29,-7)"
       gradientUnits="userSpaceOnUse"
       id="linearGradient4007"
       xlink:href="#linearGradient3823"
       inkscape:collect="always" />
    <linearGradient
       id="linearGradient3823">
      <stop
         id="stop3825"
         offset="0"
         style="stop-color:#ffffff;stop-opacity:1;" />
      <stop
         id="stop3829"
         offset="1"
         style="stop-color:#ffffff;stop-opacity:0;" />
    </linearGradient>
    <linearGradient
       inkscape:collect="always"
       xlink:href="#linearGradient3700"
       id="linearGradient3181"
       x1="-3.0607977"
       y1="27.258198"
       x2="-3.0607977"
       y2="7.2536583"
       gradientUnits="userSpaceOnUse"
       gradientTransform="translate(-17.880628,-13.258198)" />
    <linearGradient
       id="linearGradient3700">
      <stop
         style="stop-color:#013289;stop-opacity:1"
         offset="0"
         id="stop3702" />
      <stop
         style="stop-color:#1044a3;stop-opacity:1"
         offset="1"
         id="stop3704" />
    </linearGradient>
  </defs>
  <sodipodi:namedview
     id="base"
     pagecolor="#ffffff"
     bordercolor="#e7e7e7"
     borderopacity="1"
     inkscape:pageopacity="0.0"
     inkscape:pageshadow="2"
     inkscape:zoom="26.212949"
     inkscape:cx="-9.5516177"
     inkscape:cy="9.5563131"
     inkscape:document-units="px"
     inkscape:current-layer="layer1"
     showgrid="true"
     inkscape:showpageshadow="false"
     showguides="false"
     inkscape:guide-bbox="true"
     inkscape:window-width="1920"
     inkscape:window-height="1028"
     inkscape:window-x="0"
     inkscape:window-y="25"
     inkscape:window-maximized="1"
     inkscape:snap-global="false">
    <sodipodi:guide
       orientation="1,0"
       position="0,112"
       id="guide2383" />
    <sodipodi:guide
       orientation="0,1"
       position="26.278146,128"
       id="guide2385" />
    <sodipodi:guide
       orientation="1,0"
       position="128,54.082119"
       id="guide2387" />
    <sodipodi:guide
       orientation="0,1"
       position="78.156291,0"
       id="guide2389" />
    <sodipodi:guide
       orientation="0,1"
       position="60.863576,64.084768"
       id="guide2391" />
    <inkscape:grid
       type="xygrid"
       id="grid3672"
       visible="true"
       enabled="true" />
  </sodipodi:namedview>
  <metadata
     id="metadata7">
    <rdf:RDF>
      <cc:Work
         rdf:about="">
        <dc:format>image/svg+xml</dc:format>
        <dc:type
           rdf:resource="http://purl.org/dc/dcmitype/StillImage" />
        <dc:title></dc:title>
      </cc:Work>
    </rdf:RDF>
  </metadata>
  <g
     inkscape:label="Button"
     inkscape:groupmode="layer"
     id="layer1">
    <rect
       ry="2"
       rx="2"
       y="0"
       x="-16"
       height="16"
       width="16"
       id="rect3196"
       style="fill:url(#linearGradient3204);fill-opacity:1.0;fill-rule:nonzero;stroke:none"
       transform="matrix(0,-1,1,0,0,0)" />
    <path
       style="opacity:0.4;fill:url(#linearGradient3629);fill-opacity:1;fill-rule:nonzero;stroke:none"
       d="m 0,14 c 0,1.108 0.892,2 2,2 l 12,0 c 1.108,0 2,-0.892 2,-2 L 16,2 C 16,0.892 15.108,0 14,0 L 2,0 C 0.892,0 0,0.892 0,2 l 0,12 z m 0.96875,0 0,-12 C 0.96875,1.416801 1.4168007,0.96875 2,0.96875 l 12,0 c 0.583199,0 1.03125,0.448051 1.03125,1.03125 l 0,12 c 0,0.583199 -0.448051,1.03125 -1.03125,1.03125 l -12,0 C 1.4168007,15.03125 0.96875,14.583199 0.96875,14 z"
       id="rect2835" />
    <path
       transform="matrix(1.2352941,0,0,1.2352941,-3.9411764,-5.9999997)"
       d="m 6,16 a 1,1 0 1 1 -2,0 1,1 0 1 1 2,0 z"
       sodipodi:ry="1"
       sodipodi:rx="1"
       sodipodi:cy="16"
       sodipodi:cx="5"
       id="path2982"
       style="color:#000000;fill:url(#radialGradient5658);fill-opacity:1;fill-rule:nonzero;stroke:none;stroke-width:1;marker:none;visibility:visible;display:inline;overflow:visible;enable-background:accumulate"
       sodipodi:type="arc" />
    <path
       sodipodi:type="arc"
       style="color:#000000;fill:url(#radialGradient2988-1);fill-opacity:1;fill-rule:nonzero;stroke:none;stroke-width:1;marker:none;visibility:visible;display:inline;overflow:visible;enable-background:accumulate"
       id="path2986"
       sodipodi:cx="5"
       sodipodi:cy="16"
       sodipodi:rx="1"
       sodipodi:ry="1"
       d="m 6,16 a 1,1 0 1 1 -2,0 1,1 0 1 1 2,0 z"
       transform="matrix(1.2352941,0,0,1.2352941,-1.0588244,-5.9999997)" />
    <path
       sodipodi:type="arc"
       style="color:#000000;fill:url(#radialGradient5660);fill-opacity:1;fill-rule:nonzero;stroke:none;stroke-width:1;marker:none;visibility:visible;display:inline;overflow:visible;enable-background:accumulate"
       id="path3006"
       sodipodi:cx="5"
       sodipodi:cy="16"
       sodipodi:rx="1"
       sodipodi:ry="1"
       d="m 6,16 a 1,1 0 1 1 -2,0 1,1 0 1 1 2,0 z"
       transform="matrix(1.2352941,0,0,1.2352941,1.8235286,-5.9999997)" />
    <path
       transform="matrix(1.2352941,0,0,1.2352941,4.7058816,-5.9999997)"
       d="m 6,16 a 1,1 0 1 1 -2,0 1,1 0 1 1 2,0 z"
       sodipodi:ry="1"
       sodipodi:rx="1"
       sodipodi:cy="16"
       sodipodi:cx="5"
       id="path3008"
       style="color:#000000;fill:url(#radialGradient3012-9);fill-opacity:1;fill-rule:nonzero;stroke:none;stroke-width:1;marker:none;visibility:visible;display:inline;overflow:visible;enable-background:accumulate"
       sodipodi:type="arc" />
    <path
       transform="matrix(1.2352941,0,0,1.2352941,7.5882346,-5.9999997)"
       d="m 6,16 a 1,1 0 1 1 -2,0 1,1 0 1 1 2,0 z"
       sodipodi:ry="1"
       sodipodi:rx="1"
       sodipodi:cy="16"
       sodipodi:cx="5"
       id="path3014"
       style="color:#000000;fill:url(#radialGradient3016-9);fill-opacity:1;fill-rule:nonzero;stroke:none;stroke-width:1;marker:none;visibility:visible;display:inline;overflow:visible;enable-background:accumulate"
       sodipodi:type="arc" />
    <path
       sodipodi:type="arc"
       style="color:#000000;fill:url(#radialGradient3036-2);fill-opacity:1;fill-rule:nonzero;stroke:none;stroke-width:1;marker:none;visibility:visible;display:inline;overflow:visible;enable-background:accumulate"
       id="path3018"
       sodipodi:cx="5"
       sodipodi:cy="16"
       sodipodi:rx="1"
       sodipodi:ry="1"
       d="m 6,16 a 1,1 0 1 1 -2,0 1,1 0 1 1 2,0 z"
       transform="matrix(1.2352941,0,0,1.2352941,-3.9411764,-5.9999997)" />
    <path
       transform="matrix(1.2352941,0,0,1.2352941,-1.0588244,-5.9999997)"
       d="m 6,16 a 1,1 0 1 1 -2,0 1,1 0 1 1 2,0 z"
       sodipodi:ry="1"
       sodipodi:rx="1"
       sodipodi:cy="16"
       sodipodi:cx="5"
       id="path3020"
       style="color:#000000;fill:url(#radialGradient3034-7);fill-opacity:1;fill-rule:nonzero;stroke:none;stroke-width:1;marker:none;visibility:visible;display:inline;overflow:visible;enable-background:accumulate"
       sodipodi:type="arc" />
    <path
       transform="matrix(1.2352941,0,0,1.2352941,1.8235286,-5.9999997)"
       d="m 6,16 a 1,1 0 1 1 -2,0 1,1 0 1 1 2,0 z"
       sodipodi:ry="1"
       sodipodi:rx="1"
       sodipodi:cy="16"
       sodipodi:cx="5"
       id="path3022"
       style="color:#000000;fill:url(#radialGradient3032-6);fill-opacity:1;fill-rule:nonzero;stroke:none;stroke-width:1;marker:none;visibility:visible;display:inline;overflow:visible;enable-background:accumulate"
       sodipodi:type="arc" />
    <path
       sodipodi:type="arc"
       style="color:#000000;fill:url(#radialGradient3030-6);fill-opacity:1;fill-rule:nonzero;stroke:none;stroke-width:1;marker:none;visibility:visible;display:inline;overflow:visible;enable-background:accumulate"
       id="path3024"
       sodipodi:cx="5"
       sodipodi:cy="16"
       sodipodi:rx="1"
       sodipodi:ry="1"
       d="m 6,16 a 1,1 0 1 1 -2,0 1,1 0 1 1 2,0 z"
       transform="matrix(1.2352941,0,0,1.2352941,4.7058816,-5.9999997)" />
    <path
       sodipodi:type="arc"
       style="color:#000000;fill:url(#radialGradient3028-4);fill-opacity:1;fill-rule:nonzero;stroke:none;stroke-width:1;marker:none;visibility:visible;display:inline;overflow:visible;enable-background:accumulate"
       id="path3026"
       sodipodi:cx="5"
       sodipodi:cy="16"
       sodipodi:rx="1"
       sodipodi:ry="1"
       d="m 6,16 a 1,1 0 1 1 -2,0 1,1 0 1 1 2,0 z"
       transform="matrix(1.2352941,0,0,1.2352941,7.5882346,-5.9999997)" />
    <path
       sodipodi:type="arc"
       style="color:#000000;fill:url(#radialGradient3058-7);fill-opacity:1;fill-rule:nonzero;stroke:none;stroke-width:1;marker:none;visibility:visible;display:inline;overflow:visible;enable-background:accumulate"
       id="path3038"
       sodipodi:cx="5"
       sodipodi:cy="16"
       sodipodi:rx="1"
       sodipodi:ry="1"
       d="m 6,16 a 1,1 0 1 1 -2,0 1,1 0 1 1 2,0 z"
       transform="matrix(1.2352941,0,0,1.2352941,-3.9411764,-8.8823527)" />
    <path
       transform="matrix(1.2352941,0,0,1.2352941,-1.0588244,-8.8823527)"
       d="m 6,16 a 1,1 0 1 1 -2,0 1,1 0 1 1 2,0 z"
       sodipodi:ry="1"
       sodipodi:rx="1"
       sodipodi:cy="16"
       sodipodi:cx="5"
       id="path3040"
       style="color:#000000;fill:url(#radialGradient3060-7);fill-opacity:1;fill-rule:nonzero;stroke:none;stroke-width:1;marker:none;visibility:visible;display:inline;overflow:visible;enable-background:accumulate"
       sodipodi:type="arc" />
    <path
       transform="matrix(1.2352941,0,0,1.2352941,1.8235286,-8.8823527)"
       d="m 6,16 a 1,1 0 1 1 -2,0 1,1 0 1 1 2,0 z"
       sodipodi:ry="1"
       sodipodi:rx="1"
       sodipodi:cy="16"
       sodipodi:cx="5"
       id="path3042"
       style="color:#000000;fill:url(#radialGradient3062-8);fill-opacity:1;fill-rule:nonzero;stroke:none;stroke-width:1;marker:none;visibility:visible;display:inline;overflow:visible;enable-background:accumulate"
       sodipodi:type="arc" />
    <path
       sodipodi:type="arc"
       style="color:#000000;fill:url(#radialGradient3064-1);fill-opacity:1;fill-rule:nonzero;stroke:none;stroke-width:1;marker:none;visibility:visible;display:inline;overflow:visible;enable-background:accumulate"
       id="path3044"
       sodipodi:cx="5"
       sodipodi:cy="16"
       sodipodi:rx="1"
       sodipodi:ry="1"
       d="m 6,16 a 1,1 0 1 1 -2,0 1,1 0 1 1 2,0 z"
       transform="matrix(1.2352941,0,0,1.2352941,4.7058816,-8.8823527)" />
    <path
       sodipodi:type="arc"
       style="color:#000000;fill:url(#radialGradient3066-1);fill-opacity:1;fill-rule:nonzero;stroke:none;stroke-width:1;marker:none;visibility:visible;display:inline;overflow:visible;enable-background:accumulate"
       id="path3046"
       sodipodi:cx="5"
       sodipodi:cy="16"
       sodipodi:rx="1"
       sodipodi:ry="1"
       d="m 6,16 a 1,1 0 1 1 -2,0 1,1 0 1 1 2,0 z"
       transform="matrix(1.2352941,0,0,1.2352941,7.5882346,-8.8823527)" />
    <path
       transform="matrix(1.2352941,0,0,1.2352941,-3.9411764,-8.8823527)"
       d="m 6,16 a 1,1 0 1 1 -2,0 1,1 0 1 1 2,0 z"
       sodipodi:ry="1"
       sodipodi:rx="1"
       sodipodi:cy="16"
       sodipodi:cx="5"
       id="path3048"
       style="color:#000000;fill:url(#radialGradient5662);fill-opacity:1;fill-rule:nonzero;stroke:none;stroke-width:1;marker:none;visibility:visible;display:inline;overflow:visible;enable-background:accumulate"
       sodipodi:type="arc" />
    <path
       sodipodi:type="arc"
       style="color:#000000;fill:url(#radialGradient3070-3);fill-opacity:1;fill-rule:nonzero;stroke:none;stroke-width:1;marker:none;visibility:visible;display:inline;overflow:visible;enable-background:accumulate"
       id="path3050"
       sodipodi:cx="5"
       sodipodi:cy="16"
       sodipodi:rx="1"
       sodipodi:ry="1"
       d="m 6,16 a 1,1 0 1 1 -2,0 1,1 0 1 1 2,0 z"
       transform="matrix(1.2352941,0,0,1.2352941,-1.0588244,-8.8823527)" />
    <path
       sodipodi:type="arc"
       style="color:#000000;fill:url(#radialGradient3072-3);fill-opacity:1;fill-rule:nonzero;stroke:none;stroke-width:1;marker:none;visibility:visible;display:inline;overflow:visible;enable-background:accumulate"
       id="path3052"
       sodipodi:cx="5"
       sodipodi:cy="16"
       sodipodi:rx="1"
       sodipodi:ry="1"
       d="m 6,16 a 1,1 0 1 1 -2,0 1,1 0 1 1 2,0 z"
       transform="matrix(1.2352941,0,0,1.2352941,1.8235286,-8.8823527)" />
    <path
       transform="matrix(1.2352941,0,0,1.2352941,4.7058816,-8.8823527)"
       d="m 6,16 a 1,1 0 1 1 -2,0 1,1 0 1 1 2,0 z"
       sodipodi:ry="1"
       sodipodi:rx="1"
       sodipodi:cy="16"
       sodipodi:cx="5"
       id="path3054"
       style="color:#000000;fill:url(#radialGradient5664);fill-opacity:1;fill-rule:nonzero;stroke:none;stroke-width:1;marker:none;visibility:visible;display:inline;overflow:visible;enable-background:accumulate"
       sodipodi:type="arc" />
    <path
       transform="matrix(1.2352941,0,0,1.2352941,7.5882346,-8.8823527)"
       d="m 6,16 a 1,1 0 1 1 -2,0 1,1 0 1 1 2,0 z"
       sodipodi:ry="1"
       sodipodi:rx="1"
       sodipodi:cy="16"
       sodipodi:cx="5"
       id="path3056"
       style="color:#000000;fill:url(#radialGradient3076-9);fill-opacity:1;fill-rule:nonzero;stroke:none;stroke-width:1;marker:none;visibility:visible;display:inline;overflow:visible;enable-background:accumulate"
       sodipodi:type="arc" />
    <path
       sodipodi:type="arc"
       style="color:#000000;fill:url(#radialGradient3118-7);fill-opacity:1;fill-rule:nonzero;stroke:none;stroke-width:1;marker:none;visibility:visible;display:inline;overflow:visible;enable-background:accumulate"
       id="path3078"
       sodipodi:cx="5"
       sodipodi:cy="16"
       sodipodi:rx="1"
       sodipodi:ry="1"
       d="m 6,16 a 1,1 0 1 1 -2,0 1,1 0 1 1 2,0 z"
       transform="matrix(1.2352941,0,0,1.2352941,-3.9411764,-11.764706)" />
    <path
       transform="matrix(1.2352941,0,0,1.2352941,-1.0588244,-11.764706)"
       d="m 6,16 a 1,1 0 1 1 -2,0 1,1 0 1 1 2,0 z"
       sodipodi:ry="1"
       sodipodi:rx="1"
       sodipodi:cy="16"
       sodipodi:cx="5"
       id="path3080"
       style="color:#000000;fill:url(#radialGradient3120-6);fill-opacity:1;fill-rule:nonzero;stroke:none;stroke-width:1;marker:none;visibility:visible;display:inline;overflow:visible;enable-background:accumulate"
       sodipodi:type="arc" />
    <path
       transform="matrix(1.2352941,0,0,1.2352941,1.8235286,-11.764706)"
       d="m 6,16 a 1,1 0 1 1 -2,0 1,1 0 1 1 2,0 z"
       sodipodi:ry="1"
       sodipodi:rx="1"
       sodipodi:cy="16"
       sodipodi:cx="5"
       id="path3082"
       style="color:#000000;fill:url(#radialGradient3122-9);fill-opacity:1;fill-rule:nonzero;stroke:none;stroke-width:1;marker:none;visibility:visible;display:inline;overflow:visible;enable-background:accumulate"
       sodipodi:type="arc" />
    <path
       sodipodi:type="arc"
       style="color:#000000;fill:url(#radialGradient3124-1);fill-opacity:1;fill-rule:nonzero;stroke:none;stroke-width:1;marker:none;visibility:visible;display:inline;overflow:visible;enable-background:accumulate"
       id="path3084"
       sodipodi:cx="5"
       sodipodi:cy="16"
       sodipodi:rx="1"
       sodipodi:ry="1"
       d="m 6,16 a 1,1 0 1 1 -2,0 1,1 0 1 1 2,0 z"
       transform="matrix(1.2352941,0,0,1.2352941,4.7058816,-11.764706)" />
    <path
       sodipodi:type="arc"
       style="color:#000000;fill:url(#radialGradient3126-7);fill-opacity:1;fill-rule:nonzero;stroke:none;stroke-width:1;marker:none;visibility:visible;display:inline;overflow:visible;enable-background:accumulate"
       id="path3086"
       sodipodi:cx="5"
       sodipodi:cy="16"
       sodipodi:rx="1"
       sodipodi:ry="1"
       d="m 6,16 a 1,1 0 1 1 -2,0 1,1 0 1 1 2,0 z"
       transform="matrix(1.2352941,0,0,1.2352941,7.5882346,-11.764706)" />
    <path
       transform="matrix(1.2352941,0,0,1.2352941,-3.9411764,-11.764706)"
       d="m 6,16 a 1,1 0 1 1 -2,0 1,1 0 1 1 2,0 z"
       sodipodi:ry="1"
       sodipodi:rx="1"
       sodipodi:cy="16"
       sodipodi:cx="5"
       id="path3088"
       style="color:#000000;fill:url(#radialGradient3128-3);fill-opacity:1;fill-rule:nonzero;stroke:none;stroke-width:1;marker:none;visibility:visible;display:inline;overflow:visible;enable-background:accumulate"
       sodipodi:type="arc" />
    <path
       sodipodi:type="arc"
       style="color:#000000;fill:url(#radialGradient3130-3);fill-opacity:1;fill-rule:nonzero;stroke:none;stroke-width:1;marker:none;visibility:visible;display:inline;overflow:visible;enable-background:accumulate"
       id="path3090"
       sodipodi:cx="5"
       sodipodi:cy="16"
       sodipodi:rx="1"
       sodipodi:ry="1"
       d="m 6,16 a 1,1 0 1 1 -2,0 1,1 0 1 1 2,0 z"
       transform="matrix(1.2352941,0,0,1.2352941,-1.0588244,-11.764706)" />
    <path
       sodipodi:type="arc"
       style="color:#000000;fill:url(#radialGradient3132-0);fill-opacity:1;fill-rule:nonzero;stroke:none;stroke-width:1;marker:none;visibility:visible;display:inline;overflow:visible;enable-background:accumulate"
       id="path3092"
       sodipodi:cx="5"
       sodipodi:cy="16"
       sodipodi:rx="1"
       sodipodi:ry="1"
       d="m 6,16 a 1,1 0 1 1 -2,0 1,1 0 1 1 2,0 z"
       transform="matrix(1.2352941,0,0,1.2352941,1.8235286,-11.764706)" />
    <path
       transform="matrix(1.2352941,0,0,1.2352941,4.7058816,-11.764706)"
       d="m 6,16 a 1,1 0 1 1 -2,0 1,1 0 1 1 2,0 z"
       sodipodi:ry="1"
       sodipodi:rx="1"
       sodipodi:cy="16"
       sodipodi:cx="5"
       id="path3094"
       style="color:#000000;fill:url(#radialGradient3134-6);fill-opacity:1;fill-rule:nonzero;stroke:none;stroke-width:1;marker:none;visibility:visible;display:inline;overflow:visible;enable-background:accumulate"
       sodipodi:type="arc" />
    <path
       transform="matrix(1.2352941,0,0,1.2352941,7.5882346,-11.764706)"
       d="m 6,16 a 1,1 0 1 1 -2,0 1,1 0 1 1 2,0 z"
       sodipodi:ry="1"
       sodipodi:rx="1"
       sodipodi:cy="16"
       sodipodi:cx="5"
       id="path3096"
       style="color:#000000;fill:url(#radialGradient3136-3);fill-opacity:1;fill-rule:nonzero;stroke:none;stroke-width:1;marker:none;visibility:visible;display:inline;overflow:visible;enable-background:accumulate"
       sodipodi:type="arc" />
    <path
       transform="matrix(1.2352941,0,0,1.2352941,-3.9411764,-14.647059)"
       d="m 6,16 a 1,1 0 1 1 -2,0 1,1 0 1 1 2,0 z"
       sodipodi:ry="1"
       sodipodi:rx="1"
       sodipodi:cy="16"
       sodipodi:cx="5"
       id="path3098"
       style="color:#000000;fill:url(#radialGradient3138-1);fill-opacity:1;fill-rule:nonzero;stroke:none;stroke-width:1;marker:none;visibility:visible;display:inline;overflow:visible;enable-background:accumulate"
       sodipodi:type="arc" />
    <path
       sodipodi:type="arc"
       style="color:#000000;fill:url(#radialGradient3140-9);fill-opacity:1;fill-rule:nonzero;stroke:none;stroke-width:1;marker:none;visibility:visible;display:inline;overflow:visible;enable-background:accumulate"
       id="path3100"
       sodipodi:cx="5"
       sodipodi:cy="16"
       sodipodi:rx="1"
       sodipodi:ry="1"
       d="m 6,16 a 1,1 0 1 1 -2,0 1,1 0 1 1 2,0 z"
       transform="matrix(1.2352941,0,0,1.2352941,-1.0588244,-14.647059)" />
    <path
       sodipodi:type="arc"
       style="color:#000000;fill:url(#radialGradient3142-2);fill-opacity:1;fill-rule:nonzero;stroke:none;stroke-width:1;marker:none;visibility:visible;display:inline;overflow:visible;enable-background:accumulate"
       id="path3102"
       sodipodi:cx="5"
       sodipodi:cy="16"
       sodipodi:rx="1"
       sodipodi:ry="1"
       d="m 6,16 a 1,1 0 1 1 -2,0 1,1 0 1 1 2,0 z"
       transform="matrix(1.2352941,0,0,1.2352941,1.8235286,-14.647059)" />
    <path
       transform="matrix(1.2352941,0,0,1.2352941,4.7058816,-14.647059)"
       d="m 6,16 a 1,1 0 1 1 -2,0 1,1 0 1 1 2,0 z"
       sodipodi:ry="1"
       sodipodi:rx="1"
       sodipodi:cy="16"
       sodipodi:cx="5"
       id="path3104"
       style="color:#000000;fill:url(#radialGradient3144-6);fill-opacity:1;fill-rule:nonzero;stroke:none;stroke-width:1;marker:none;visibility:visible;display:inline;overflow:visible;enable-background:accumulate"
       sodipodi:type="arc" />
    <path
       transform="matrix(1.2352941,0,0,1.2352941,7.5882346,-14.647059)"
       d="m 6,16 a 1,1 0 1 1 -2,0 1,1 0 1 1 2,0 z"
       sodipodi:ry="1"
       sodipodi:rx="1"
       sodipodi:cy="16"
       sodipodi:cx="5"
       id="path3106"
       style="color:#000000;fill:url(#radialGradient3146-2);fill-opacity:1;fill-rule:nonzero;stroke:none;stroke-width:1;marker:none;visibility:visible;display:inline;overflow:visible;enable-background:accumulate"
       sodipodi:type="arc" />
    <path
       sodipodi:type="arc"
       style="color:#000000;fill:url(#radialGradient5666);fill-opacity:1;fill-rule:nonzero;stroke:none;stroke-width:1;marker:none;visibility:visible;display:inline;overflow:visible;enable-background:accumulate"
       id="path3108"
       sodipodi:cx="5"
       sodipodi:cy="16"
       sodipodi:rx="1"
       sodipodi:ry="1"
       d="m 6,16 a 1,1 0 1 1 -2,0 1,1 0 1 1 2,0 z"
       transform="matrix(1.2352941,0,0,1.2352941,-3.9411764,-14.647059)" />
    <path
       transform="matrix(1.2352941,0,0,1.2352941,-1.0588244,-14.647059)"
       d="m 6,16 a 1,1 0 1 1 -2,0 1,1 0 1 1 2,0 z"
       sodipodi:ry="1"
       sodipodi:rx="1"
       sodipodi:cy="16"
       sodipodi:cx="5"
       id="path3110"
       style="color:#000000;fill:url(#radialGradient5668);fill-opacity:1;fill-rule:nonzero;stroke:none;stroke-width:1;marker:none;visibility:visible;display:inline;overflow:visible;enable-background:accumulate"
       sodipodi:type="arc" />
    <path
       transform="matrix(1.2352941,0,0,1.2352941,1.8235286,-14.647059)"
       d="m 6,16 a 1,1 0 1 1 -2,0 1,1 0 1 1 2,0 z"
       sodipodi:ry="1"
       sodipodi:rx="1"
       sodipodi:cy="16"
       sodipodi:cx="5"
       id="path3112"
       style="color:#000000;fill:url(#radialGradient3152-2);fill-opacity:1;fill-rule:nonzero;stroke:none;stroke-width:1;marker:none;visibility:visible;display:inline;overflow:visible;enable-background:accumulate"
       sodipodi:type="arc" />
    <path
       sodipodi:type="arc"
       style="color:#000000;fill:url(#radialGradient3154-7);fill-opacity:1;fill-rule:nonzero;stroke:none;stroke-width:1;marker:none;visibility:visible;display:inline;overflow:visible;enable-background:accumulate"
       id="path3114"
       sodipodi:cx="5"
       sodipodi:cy="16"
       sodipodi:rx="1"
       sodipodi:ry="1"
       d="m 6,16 a 1,1 0 1 1 -2,0 1,1 0 1 1 2,0 z"
       transform="matrix(1.2352941,0,0,1.2352941,4.7058816,-14.647059)" />
    <path
       sodipodi:type="arc"
       style="color:#000000;fill:url(#radialGradient3156-9);fill-opacity:1;fill-rule:nonzero;stroke:none;stroke-width:1;marker:none;visibility:visible;display:inline;overflow:visible;enable-background:accumulate"
       id="path3116"
       sodipodi:cx="5"
       sodipodi:cy="16"
       sodipodi:rx="1"
       sodipodi:ry="1"
       d="m 6,16 a 1,1 0 1 1 -2,0 1,1 0 1 1 2,0 z"
       transform="matrix(1.2352941,0,0,1.2352941,7.5882346,-14.647059)" />
    <path
       transform="matrix(1.2352941,0,0,1.2352941,-3.9411764,-17.529412)"
       d="m 6,16 a 1,1 0 1 1 -2,0 1,1 0 1 1 2,0 z"
       sodipodi:ry="1"
       sodipodi:rx="1"
       sodipodi:cy="16"
       sodipodi:cx="5"
       id="path3158"
       style="color:#000000;fill:url(#radialGradient5670);fill-opacity:1;fill-rule:nonzero;stroke:none;stroke-width:1;marker:none;visibility:visible;display:inline;overflow:visible;enable-background:accumulate"
       sodipodi:type="arc" />
    <path
       sodipodi:type="arc"
       style="color:#000000;fill:url(#radialGradient3180-6);fill-opacity:1;fill-rule:nonzero;stroke:none;stroke-width:1;marker:none;visibility:visible;display:inline;overflow:visible;enable-background:accumulate"
       id="path3160"
       sodipodi:cx="5"
       sodipodi:cy="16"
       sodipodi:rx="1"
       sodipodi:ry="1"
       d="m 6,16 a 1,1 0 1 1 -2,0 1,1 0 1 1 2,0 z"
       transform="matrix(1.2352941,0,0,1.2352941,-1.0588244,-17.529412)" />
    <path
       sodipodi:type="arc"
       style="color:#000000;fill:url(#radialGradient3182-6);fill-opacity:1;fill-rule:nonzero;stroke:none;stroke-width:1;marker:none;visibility:visible;display:inline;overflow:visible;enable-background:accumulate"
       id="path3162"
       sodipodi:cx="5"
       sodipodi:cy="16"
       sodipodi:rx="1"
       sodipodi:ry="1"
       d="m 6,16 a 1,1 0 1 1 -2,0 1,1 0 1 1 2,0 z"
       transform="matrix(1.2352941,0,0,1.2352941,1.8235286,-17.529412)" />
    <path
       transform="matrix(1.2352941,0,0,1.2352941,4.7058816,-17.529412)"
       d="m 6,16 a 1,1 0 1 1 -2,0 1,1 0 1 1 2,0 z"
       sodipodi:ry="1"
       sodipodi:rx="1"
       sodipodi:cy="16"
       sodipodi:cx="5"
       id="path3164"
       style="color:#000000;fill:url(#radialGradient3184-9);fill-opacity:1;fill-rule:nonzero;stroke:none;stroke-width:1;marker:none;visibility:visible;display:inline;overflow:visible;enable-background:accumulate"
       sodipodi:type="arc" />
    <path
       transform="matrix(1.2352941,0,0,1.2352941,7.5882346,-17.529412)"
       d="m 6,16 a 1,1 0 1 1 -2,0 1,1 0 1 1 2,0 z"
       sodipodi:ry="1"
       sodipodi:rx="1"
       sodipodi:cy="16"
       sodipodi:cx="5"
       id="path3166"
       style="color:#000000;fill:url(#radialGradient3186-5);fill-opacity:1;fill-rule:nonzero;stroke:none;stroke-width:1;marker:none;visibility:visible;display:inline;overflow:visible;enable-background:accumulate"
       sodipodi:type="arc" />
    <path
       sodipodi:type="arc"
       style="color:#000000;fill:url(#radialGradient3188-6);fill-opacity:1;fill-rule:nonzero;stroke:none;stroke-width:1;marker:none;visibility:visible;display:inline;overflow:visible;enable-background:accumulate"
       id="path3168"
       sodipodi:cx="5"
       sodipodi:cy="16"
       sodipodi:rx="1"
       sodipodi:ry="1"
       d="m 6,16 a 1,1 0 1 1 -2,0 1,1 0 1 1 2,0 z"
       transform="matrix(1.2352941,0,0,1.2352941,-3.9411764,-17.529412)" />
    <path
       transform="matrix(1.2352941,0,0,1.2352941,-1.0588244,-17.529412)"
       d="m 6,16 a 1,1 0 1 1 -2,0 1,1 0 1 1 2,0 z"
       sodipodi:ry="1"
       sodipodi:rx="1"
       sodipodi:cy="16"
       sodipodi:cx="5"
       id="path3170"
       style="color:#000000;fill:url(#radialGradient3190-7);fill-opacity:1;fill-rule:nonzero;stroke:none;stroke-width:1;marker:none;visibility:visible;display:inline;overflow:visible;enable-background:accumulate"
       sodipodi:type="arc" />
    <path
       transform="matrix(1.2352941,0,0,1.2352941,1.8235286,-17.529412)"
       d="m 6,16 a 1,1 0 1 1 -2,0 1,1 0 1 1 2,0 z"
       sodipodi:ry="1"
       sodipodi:rx="1"
       sodipodi:cy="16"
       sodipodi:cx="5"
       id="path3172"
       style="color:#000000;fill:url(#radialGradient3192-2);fill-opacity:1;fill-rule:nonzero;stroke:none;stroke-width:1;marker:none;visibility:visible;display:inline;overflow:visible;enable-background:accumulate"
       sodipodi:type="arc" />
    <path
       sodipodi:type="arc"
       style="color:#000000;fill:url(#radialGradient3194-7);fill-opacity:1;fill-rule:nonzero;stroke:none;stroke-width:1;marker:none;visibility:visible;display:inline;overflow:visible;enable-background:accumulate"
       id="path3174"
       sodipodi:cx="5"
       sodipodi:cy="16"
       sodipodi:rx="1"
       sodipodi:ry="1"
       d="m 6,16 a 1,1 0 1 1 -2,0 1,1 0 1 1 2,0 z"
       transform="matrix(1.2352941,0,0,1.2352941,4.7058816,-17.529412)" />
    <path
       sodipodi:type="arc"
       style="color:#000000;fill:url(#radialGradient3196-7);fill-opacity:1;fill-rule:nonzero;stroke:none;stroke-width:1;marker:none;visibility:visible;display:inline;overflow:visible;enable-background:accumulate"
       id="path3176"
       sodipodi:cx="5"
       sodipodi:cy="16"
       sodipodi:rx="1"
       sodipodi:ry="1"
       d="m 6,16 a 1,1 0 1 1 -2,0 1,1 0 1 1 2,0 z"
       transform="matrix(1.2352941,0,0,1.2352941,7.5882346,-17.529412)" />
    <path
       style="fill:#ffffff;fill-opacity:1;fill-rule:nonzero;stroke:none;opacity:0.25"
       d="M 2 0.96875 C 1.4168007 0.96875 0.96875 1.4168007 0.96875 2 L 0.96875 3 C 0.96875 2.4168007 1.4168007 1.96875 2 1.96875 L 14 1.96875 C 14.583199 1.96875 15.03125 2.4168007 15.03125 3 L 15.03125 2 C 15.03125 1.4168007 14.583199 0.96875 14 0.96875 L 2 0.96875 z "
       id="path2843" />
  </g>
</svg>
