<?xml version="1.0" encoding="UTF-8" standalone="no"?>
<!-- Created with Inkscape (http://www.inkscape.org/) -->

<svg
   xmlns:dc="http://purl.org/dc/elements/1.1/"
   xmlns:cc="http://creativecommons.org/ns#"
   xmlns:rdf="http://www.w3.org/1999/02/22-rdf-syntax-ns#"
   xmlns:svg="http://www.w3.org/2000/svg"
   xmlns="http://www.w3.org/2000/svg"
   xmlns:xlink="http://www.w3.org/1999/xlink"
   xmlns:sodipodi="http://sodipodi.sourceforge.net/DTD/sodipodi-0.dtd"
   xmlns:inkscape="http://www.inkscape.org/namespaces/inkscape"
   width="16"
   height="16"
   id="svg2"
   sodipodi:version="0.32"
   inkscape:version="0.47 r22583"
   version="1.0"
   sodipodi:docname="totem.svg"
   inkscape:output_extension="org.inkscape.output.svg.inkscape"
   style="display:inline">
  <defs
     id="defs4">
    <inkscape:perspective
       sodipodi:type="inkscape:persp3d"
       inkscape:vp_x="0 : 8 : 1"
       inkscape:vp_y="0 : 1000 : 0"
       inkscape:vp_z="16 : 8 : 1"
       inkscape:persp3d-origin="8 : 5.3333333 : 1"
       id="perspective26" />
    <linearGradient
       inkscape:collect="always"
       id="linearGradient3327">
      <stop
         style="stop-color:#000000;stop-opacity:1;"
         offset="0"
         id="stop3330" />
      <stop
         style="stop-color:#000000;stop-opacity:0;"
         offset="1"
         id="stop3333" />
    </linearGradient>
    <linearGradient
       id="ButtonColor"
       x1="10.31979"
       y1="21"
       x2="10.31979"
       y2="0.99929649"
       gradientUnits="userSpaceOnUse">
      <stop
         style="stop-color:#29669f;stop-opacity:1;"
         offset="0"
         id="stop3189" />
      <stop
         style="stop-color:#88b6e0;stop-opacity:1;"
         offset="1"
         id="stop3191" />
    </linearGradient>
    <linearGradient
       inkscape:collect="always"
       xlink:href="#linearGradient3327"
       id="linearGradient3192"
       x1="9.0574636"
       y1="10.202822"
       x2="9.0574636"
       y2="-12.198761"
       gradientUnits="userSpaceOnUse"
       gradientTransform="translate(0,5.8006549)" />
    <linearGradient
       inkscape:collect="always"
       xlink:href="#linearGradient3224"
       id="linearGradient3204"
       x1="1"
       y1="9"
       x2="15"
       y2="9"
       gradientUnits="userSpaceOnUse"
       gradientTransform="translate(-17,-2)" />
    <linearGradient
       inkscape:collect="always"
       xlink:href="#ButtonColor"
       id="linearGradient3173"
       gradientUnits="userSpaceOnUse"
       gradientTransform="translate(-16,-1)"
       x1="1"
       y1="9"
       x2="15"
       y2="9" />
    <linearGradient
       inkscape:collect="always"
       xlink:href="#ButtonColor"
       id="linearGradient3177"
       gradientUnits="userSpaceOnUse"
       gradientTransform="translate(-16,-1)"
       x1="1"
       y1="9"
       x2="15"
       y2="9" />
    <linearGradient
       inkscape:collect="always"
       xlink:href="#ButtonColor"
       id="linearGradient3179"
       gradientUnits="userSpaceOnUse"
       gradientTransform="matrix(0,-1,1,0,-1,16)"
       x1="1"
       y1="9"
       x2="15"
       y2="9" />
    <linearGradient
       inkscape:collect="always"
       xlink:href="#linearGradient3327"
       id="linearGradient3612"
       x1="8"
       y1="15"
       x2="8"
       y2="-1"
       gradientUnits="userSpaceOnUse" />
    <linearGradient
       inkscape:collect="always"
       xlink:href="#linearGradient3327"
       id="linearGradient3629"
       x1="0"
       y1="8"
       x2="29.017237"
       y2="8"
       gradientUnits="userSpaceOnUse"
       gradientTransform="matrix(0,-1,1,0,0,16)" />
    <inkscape:perspective
       id="perspective2959"
       inkscape:persp3d-origin="0.5 : 0.33333333 : 1"
       inkscape:vp_z="1 : 0.5 : 1"
       inkscape:vp_y="0 : 1000 : 0"
       inkscape:vp_x="0 : 0.5 : 1"
       sodipodi:type="inkscape:persp3d" />
    <linearGradient
       inkscape:collect="always"
       xlink:href="#linearGradient3670"
       id="linearGradient3181"
       x1="-3.0607977"
       y1="27.258198"
       x2="-3.0607977"
       y2="7.2536583"
       gradientUnits="userSpaceOnUse"
       gradientTransform="translate(11.119372,-6.2581977)" />
    <linearGradient
       id="linearGradient3670">
      <stop
         id="stop3672"
         offset="0"
         style="stop-color:#673c1c;stop-opacity:1;" />
      <stop
         id="stop3674"
         offset="1"
         style="stop-color:#b87443;stop-opacity:1;" />
    </linearGradient>
    <linearGradient
       inkscape:collect="always"
       xlink:href="#linearGradient3224"
       id="linearGradient3877"
       x1="3"
       y1="11"
       x2="25"
       y2="11"
       gradientUnits="userSpaceOnUse"
       gradientTransform="translate(-19,-20)" />
    <linearGradient
       id="linearGradient3224">
      <stop
         style="stop-color:#e0d8b8;stop-opacity:1"
         offset="0"
         id="stop3226" />
      <stop
         style="stop-color:#b6a357;stop-opacity:1"
         offset="1"
         id="stop3228" />
    </linearGradient>
    <linearGradient
       y2="7.2536583"
       x2="-3.0607977"
       y1="27.258198"
       x1="-3.0607977"
       gradientTransform="translate(-8.880628,-9.2581977)"
       gradientUnits="userSpaceOnUse"
       id="linearGradient2973"
       xlink:href="#linearGradient3670"
       inkscape:collect="always" />
    <linearGradient
       inkscape:collect="always"
       xlink:href="#linearGradient3670"
       id="linearGradient3658"
       gradientUnits="userSpaceOnUse"
       gradientTransform="matrix(0,-1,1,0,-2,17)"
       x1="1"
       y1="9"
       x2="15"
       y2="9" />
    <linearGradient
       inkscape:collect="always"
       xlink:href="#linearGradient3670"
       id="linearGradient3662"
       gradientUnits="userSpaceOnUse"
       gradientTransform="translate(-17,-2)"
       x1="1"
       y1="9"
       x2="15"
       y2="9" />
    <linearGradient
       inkscape:collect="always"
       xlink:href="#linearGradient3670"
       id="linearGradient3666"
       gradientUnits="userSpaceOnUse"
       gradientTransform="translate(-17,-2)"
       x1="1"
       y1="9"
       x2="15"
       y2="9" />
    <inkscape:perspective
       id="perspective3021"
       inkscape:persp3d-origin="0.5 : 0.33333333 : 1"
       inkscape:vp_z="1 : 0.5 : 1"
       inkscape:vp_y="0 : 1000 : 0"
       inkscape:vp_x="0 : 0.5 : 1"
       sodipodi:type="inkscape:persp3d" />
    <linearGradient
       inkscape:collect="always"
       xlink:href="#linearGradient3737-7"
       id="linearGradient3904"
       gradientUnits="userSpaceOnUse"
       gradientTransform="matrix(0.15244105,0,0,0.07840319,0.6718099,0.77405941)"
       x1="48.714283"
       y1="16.321428"
       x2="48.714283"
       y2="77.289909" />
    <linearGradient
       inkscape:collect="always"
       id="linearGradient3737-7">
      <stop
         style="stop-color:#ffffff;stop-opacity:1;"
         offset="0"
         id="stop3739-2" />
      <stop
         style="stop-color:#ffffff;stop-opacity:0;"
         offset="1"
         id="stop3741-7" />
    </linearGradient>
    <linearGradient
       inkscape:collect="always"
       xlink:href="#linearGradient3777"
       id="linearGradient3907"
       gradientUnits="userSpaceOnUse"
       gradientTransform="matrix(0.14549206,0,0,0.13236504,1.6885103,1.8227813)"
       x1="59.236748"
       y1="94.689583"
       x2="59.236748"
       y2="20" />
    <linearGradient
       id="linearGradient3777">
      <stop
         id="stop3779"
         offset="0"
         style="stop-color:#536c5d;stop-opacity:1" />
      <stop
         id="stop3781"
         offset="1"
         style="stop-color:#93ac9d;stop-opacity:1" />
    </linearGradient>
    <linearGradient
       y2="20"
       x2="59.236748"
       y1="94.689583"
       x1="59.236748"
       gradientTransform="matrix(0.10369386,0,0,0.09433808,1.3525747,0.44827122)"
       gradientUnits="userSpaceOnUse"
       id="linearGradient3035"
       xlink:href="#linearGradient3777"
       inkscape:collect="always" />
    <inkscape:perspective
       id="perspective3045"
       inkscape:persp3d-origin="0.5 : 0.33333333 : 1"
       inkscape:vp_z="1 : 0.5 : 1"
       inkscape:vp_y="0 : 1000 : 0"
       inkscape:vp_x="0 : 0.5 : 1"
       sodipodi:type="inkscape:persp3d" />
    <linearGradient
       inkscape:collect="always"
       xlink:href="#linearGradient3237"
       id="linearGradient3934"
       gradientUnits="userSpaceOnUse"
       x1="26.360342"
       y1="112.60857"
       x2="26.360342"
       y2="99.665756" />
    <linearGradient
       id="linearGradient3237">
      <stop
         style="stop-color:#6a3d0d;stop-opacity:1;"
         offset="0"
         id="stop3239" />
      <stop
         style="stop-color:#ddb34b;stop-opacity:1;"
         offset="1"
         id="stop3241" />
    </linearGradient>
    <linearGradient
       y2="99.665756"
       x2="26.360342"
       y1="112.60857"
       x1="26.360342"
       gradientUnits="userSpaceOnUse"
       id="linearGradient3054"
       xlink:href="#linearGradient3237"
       inkscape:collect="always" />
    <linearGradient
       inkscape:collect="always"
       xlink:href="#linearGradient3237"
       id="linearGradient3719"
       gradientUnits="userSpaceOnUse"
       x1="26.360342"
       y1="112.60857"
       x2="26.360342"
       y2="99.665756" />
    <linearGradient
       inkscape:collect="always"
       xlink:href="#linearGradient3777"
       id="linearGradient3727"
       gradientUnits="userSpaceOnUse"
       gradientTransform="matrix(0.10369386,0,0,0.09433808,1.3525747,-0.30863848)"
       x1="59.236748"
       y1="94.689583"
       x2="59.236748"
       y2="20" />
    <linearGradient
       inkscape:collect="always"
       xlink:href="#linearGradient3777"
       id="linearGradient3729"
       gradientUnits="userSpaceOnUse"
       gradientTransform="matrix(0.10369386,0,0,0.09433808,1.3525747,0.44827122)"
       x1="59.236748"
       y1="94.689583"
       x2="59.236748"
       y2="20" />
  </defs>
  <sodipodi:namedview
     id="base"
     pagecolor="#ffffff"
     bordercolor="#e7e7e7"
     borderopacity="1"
     inkscape:pageopacity="0.0"
     inkscape:pageshadow="2"
     inkscape:zoom="20.568488"
     inkscape:cx="-12.347598"
     inkscape:cy="8.6002043"
     inkscape:document-units="px"
     inkscape:current-layer="layer1"
     showgrid="true"
     inkscape:showpageshadow="false"
     showguides="false"
     inkscape:guide-bbox="true"
     inkscape:window-width="1920"
     inkscape:window-height="1023"
     inkscape:window-x="0"
     inkscape:window-y="24"
     inkscape:window-maximized="1"
     inkscape:snap-global="false">
    <sodipodi:guide
       orientation="1,0"
       position="0,112"
       id="guide2383" />
    <sodipodi:guide
       orientation="0,1"
       position="26.278146,128"
       id="guide2385" />
    <sodipodi:guide
       orientation="1,0"
       position="128,54.082119"
       id="guide2387" />
    <sodipodi:guide
       orientation="0,1"
       position="78.156291,0"
       id="guide2389" />
    <sodipodi:guide
       orientation="0,1"
       position="60.863576,64.084768"
       id="guide2391" />
    <inkscape:grid
       type="xygrid"
       id="grid3672"
       visible="true"
       enabled="true" />
  </sodipodi:namedview>
  <metadata
     id="metadata7">
    <rdf:RDF>
      <cc:Work
         rdf:about="">
        <dc:format>image/svg+xml</dc:format>
        <dc:type
           rdf:resource="http://purl.org/dc/dcmitype/StillImage" />
        <dc:title></dc:title>
      </cc:Work>
    </rdf:RDF>
  </metadata>
  <g
     inkscape:label="Button"
     inkscape:groupmode="layer"
     id="layer1">
    <rect
       ry="2"
       rx="2"
       y="0"
       x="-16"
       height="16"
       width="16"
       id="rect3196"
       style="fill:url(#linearGradient3204);fill-opacity:1.0;fill-rule:nonzero;stroke:none"
       transform="matrix(0,-1,1,0,0,0)" />
    <path
       style="fill:url(#linearGradient3658);fill-opacity:1;fill-rule:nonzero;stroke:none"
       d="M 2 0 C 0.892 0 3.0947467e-18 0.892 0 2 L 0 14 C 0 15.108 0.892 16 2 16 L 14 16 C 15.108 16 16 15.108 16 14 L 16 2 C 16 0.892 15.108 3.0947467e-18 14 0 L 2 0 z M 2 2 L 14 2 L 14 14 L 2 14 L 2 2 z "
       id="rect3656" />
    <path
       style="opacity:0.4;fill:url(#linearGradient3629);fill-opacity:1;fill-rule:nonzero;stroke:none"
       d="m 0,14 c 0,1.108 0.892,2 2,2 l 12,0 c 1.108,0 2,-0.892 2,-2 L 16,2 C 16,0.892 15.108,0 14,0 L 2,0 C 0.892,0 0,0.892 0,2 l 0,12 z m 0.96875,0 0,-12 C 0.96875,1.416801 1.4168007,0.96875 2,0.96875 l 12,0 c 0.583199,0 1.03125,0.448051 1.03125,1.03125 l 0,12 c 0,0.583199 -0.448051,1.03125 -1.03125,1.03125 l -12,0 C 1.4168007,15.03125 0.96875,14.583199 0.96875,14 z"
       id="rect2835" />
    <path
       style="fill:#ffffff;fill-opacity:1;fill-rule:nonzero;stroke:none;opacity:0.2"
       d="M 2 0.96875 C 1.4168007 0.96875 0.96875 1.4168007 0.96875 2 L 0.96875 3 C 0.96875 2.4168007 1.4168007 1.96875 2 1.96875 L 14 1.96875 C 14.583199 1.96875 15.03125 2.4168007 15.03125 3 L 15.03125 2 C 15.03125 1.4168007 14.583199 0.96875 14 0.96875 L 2 0.96875 z "
       id="path2843" />
    <path
       style="fill:url(#linearGradient3035);fill-opacity:1;stroke:none;display:inline"
       d="m 7.9889804,2.0000001 c -0.1005393,0 -0.1983725,0.00225 -0.2962207,0.00471 -0.00235,2.2e-5 -0.00805,-2.27e-5 -0.010391,0 -1.3878285,0.01341 -2.0315478,0.1173786 -2.8063029,0.3062436 -1.8794676,0.3876789 -1.8760654,1.1457205 -1.8760654,3.6089626 0,2.4363217 -0.00491,3.0854907 1.8760654,3.608963 0.7747551,0.188865 1.4184744,0.2928325 2.8063007,0.3062429 0.00235,2.28e-5 0.00805,-2.14e-5 0.010391,0 0.097848,0.00249 0.1956813,0.0047 0.2962207,0.0047 0.1005393,0 0.1983725,-0.00228 0.2962207,-0.0047 0.00235,-2.14e-5 0.00805,2.28e-5 0.010391,0 1.3878261,-0.013406 2.0315447,-0.1173779 2.8063017,-0.3062429 1.880974,-0.5234723 1.876064,-1.1726413 1.876064,-3.608963 0,-2.4632421 0.0034,-3.2212837 -1.876064,-3.6089626 C 10.327135,2.1220897 9.6834164,2.0181215 8.2955903,2.004711 c -0.00235,-2.26e-5 -0.00805,2.2e-5 -0.010391,0 C 8.1873508,2.002254 8.0895176,2 7.9889783,2 z"
       id="rect3202" />
    <path
       id="path3902"
       d="m 7.9889804,2.1853166 c -0.092161,0 -0.1818419,0.00118 -0.2715352,0.00245 -0.00214,1.16e-5 -0.00738,-1.16e-5 -0.00953,0 -1.2721724,0.00697 -1.8622477,0.061039 -2.5724425,0.1592556 -1.7228455,0.2016056 -1.719725,0.5958115 -1.719725,1.8767763 0,1.266965 -0.0045,1.6045542 1.719725,1.8767757 0.7101926,0.098217 1.3002701,0.1522837 2.5724425,0.1592576 0.00214,1.14e-5 0.00738,-1.15e-5 0.00953,0 0.089694,0.00128 0.1793745,0.00249 0.2715352,0.00249 0.092162,0 0.1818419,-0.00114 0.271536,-0.00249 0.00214,-1.15e-5 0.00738,1.14e-5 0.00953,0 1.2721736,-0.00698 1.8622497,-0.061037 2.5724427,-0.1592576 1.724228,-0.2722215 1.719726,-0.6098107 1.719726,-1.8767757 0,-1.2809648 0.0031,-1.6751707 -1.719726,-1.8767763 -0.710193,-0.098216 -1.3002691,-0.1522827 -2.5724427,-0.1592566 -0.00214,-1.17e-5 -0.00738,1.16e-5 -0.00953,0 -0.089694,-0.00129 -0.1793752,-0.00245 -0.271536,-0.00245 z"
       style="opacity:0.58874459;fill:url(#linearGradient3904);fill-opacity:1;stroke:none;display:inline" />
    <path
       transform="matrix(0.21635666,0,0,0.21635666,-1.2031421,-11.463575)"
       d="m 30.982771,106.13716 a 4.6224294,4.6224294 0 1 1 -9.244858,0 4.6224294,4.6224294 0 1 1 9.244858,0 z"
       sodipodi:ry="4.6224294"
       sodipodi:rx="4.6224294"
       sodipodi:cy="106.13716"
       sodipodi:cx="26.360342"
       id="path3797"
       style="fill:#efcb73;fill-opacity:1;stroke:url(#linearGradient3054);stroke-width:4.62199831;stroke-linecap:square;stroke-miterlimit:4;stroke-opacity:1;stroke-dasharray:none;display:inline"
       sodipodi:type="arc" />
    <path
       sodipodi:type="arc"
       style="fill:#efcb73;fill-opacity:1;stroke:url(#linearGradient3719);stroke-width:4.62199831;stroke-linecap:square;stroke-miterlimit:4;stroke-opacity:1;stroke-dasharray:none;display:inline"
       id="path3717"
       sodipodi:cx="26.360342"
       sodipodi:cy="106.13716"
       sodipodi:rx="4.6224294"
       sodipodi:ry="4.6224294"
       d="m 30.982771,106.13716 a 4.6224294,4.6224294 0 1 1 -9.244858,0 4.6224294,4.6224294 0 1 1 9.244858,0 z"
       transform="matrix(0.21635666,0,0,0.21635666,5.7968579,-11.463575)" />
    <rect
       style="opacity:0.4;color:#000000;fill:#000000;fill-opacity:1;fill-rule:nonzero;stroke:none;stroke-width:0.50000000000000000;marker:none;visibility:visible;display:inline;overflow:visible;enable-background:accumulate"
       id="rect3721"
       width="1.7988682"
       height="0.97236121"
       x="7.0982366"
       y="10.99234"
       rx="2"
       ry="0.97236121" />
    <path
       style="fill:#000000;fill-opacity:1;stroke:none;display:inline;opacity:0.3"
       d="M 3.03125 6.6875 C 3.0570149 8.4386518 3.2340408 9.0745738 4.875 9.53125 C 5.6497551 9.720115 6.2996737 9.8303396 7.6875 9.84375 C 7.785348 9.84624 7.8994606 9.84375 8 9.84375 C 8.1005393 9.84375 8.1834018 9.84617 8.28125 9.84375 C 9.6690761 9.830344 10.318993 9.720115 11.09375 9.53125 C 12.734708 9.0745738 12.911735 8.4386518 12.9375 6.6875 C 12.85071 7.9224398 12.50448 8.3886458 11.09375 8.78125 C 10.318993 8.970115 9.6690761 9.080344 8.28125 9.09375 C 8.1834018 9.09617 8.1005393 9.09375 8 9.09375 C 7.8994606 9.09375 7.785348 9.09624 7.6875 9.09375 C 6.2996737 9.0803396 5.6497551 8.970115 4.875 8.78125 C 3.4642684 8.3886458 3.1180398 7.9224398 3.03125 6.6875 z "
       id="path3723" />
  </g>
</svg>
