<?xml version="1.0" encoding="UTF-8" standalone="no"?>
<!-- Created with Inkscape (http://www.inkscape.org/) -->

<svg
   xmlns:dc="http://purl.org/dc/elements/1.1/"
   xmlns:cc="http://creativecommons.org/ns#"
   xmlns:rdf="http://www.w3.org/1999/02/22-rdf-syntax-ns#"
   xmlns:svg="http://www.w3.org/2000/svg"
   xmlns="http://www.w3.org/2000/svg"
   xmlns:xlink="http://www.w3.org/1999/xlink"
   xmlns:sodipodi="http://sodipodi.sourceforge.net/DTD/sodipodi-0.dtd"
   xmlns:inkscape="http://www.inkscape.org/namespaces/inkscape"
   width="16"
   height="16"
   id="svg2"
   sodipodi:version="0.32"
   inkscape:version="0.48.1 r9760"
   version="1.0"
   sodipodi:docname="wireshark.svg"
   inkscape:output_extension="org.inkscape.output.svg.inkscape"
   style="display:inline">
  <defs
     id="defs4">
    <inkscape:perspective
       sodipodi:type="inkscape:persp3d"
       inkscape:vp_x="0 : 8 : 1"
       inkscape:vp_y="0 : 1000 : 0"
       inkscape:vp_z="16 : 8 : 1"
       inkscape:persp3d-origin="8 : 5.3333333 : 1"
       id="perspective35" />
    <linearGradient
       inkscape:collect="always"
       id="linearGradient3327">
      <stop
         style="stop-color:#000000;stop-opacity:1;"
         offset="0"
         id="stop3330" />
      <stop
         style="stop-color:#000000;stop-opacity:0;"
         offset="1"
         id="stop3333" />
    </linearGradient>
    <linearGradient
       id="ButtonColor"
       x1="10.31979"
       y1="21"
       x2="10.31979"
       y2="0.99929649"
       gradientUnits="userSpaceOnUse">
      <stop
         style="stop-color:#29669f;stop-opacity:1;"
         offset="0"
         id="stop3189" />
      <stop
         style="stop-color:#88b6e0;stop-opacity:1;"
         offset="1"
         id="stop3191" />
    </linearGradient>
    <linearGradient
       inkscape:collect="always"
       xlink:href="#linearGradient3700"
       id="linearGradient3204"
       x1="1"
       y1="9"
       x2="15"
       y2="9"
       gradientUnits="userSpaceOnUse"
       gradientTransform="translate(-17,-2)" />
    <linearGradient
       inkscape:collect="always"
       xlink:href="#linearGradient3327"
       id="linearGradient3629"
       x1="0"
       y1="8"
       x2="29.017237"
       y2="8"
       gradientUnits="userSpaceOnUse"
       gradientTransform="matrix(0,-1,1,0,0,16)" />
    <linearGradient
       inkscape:collect="always"
       xlink:href="#SVGID_1_-4"
       id="linearGradient3765"
       gradientUnits="userSpaceOnUse"
       gradientTransform="matrix(0.09341072,0,0,0.04108075,-26.756456,8.0246654)"
       x1="383.28857"
       y1="0"
       x2="383.28857"
       y2="218.48047" />
    <linearGradient
       id="SVGID_1_-4"
       gradientUnits="userSpaceOnUse"
       x1="383.28857"
       y1="0"
       x2="383.28857"
       y2="218.48047">
      <stop
         offset="0.005618"
         style="stop-color:#ED2828"
         id="stop3143-2" />
      <stop
         offset="0.5"
         style="stop-color:#EF3B39"
         id="stop3145-1" />
      <stop
         offset="0.994382"
         style="stop-color:#C02126"
         id="stop3147-3" />
    </linearGradient>
    <linearGradient
       y2="180.6748"
       x2="175.30762"
       y1="73.254395"
       x1="175.30762"
       gradientUnits="userSpaceOnUse"
       id="linearGradient3749-5">
      <stop
         id="stop3751-8"
         style="stop-color:#000000;stop-opacity:1;"
         offset="0" />
      <stop
         id="stop3753-7"
         style="stop-color:#000000;stop-opacity:0.4728682;"
         offset="0.99438202" />
    </linearGradient>
    <linearGradient
       inkscape:collect="always"
       xlink:href="#linearGradient3749-5"
       id="linearGradient3754"
       gradientUnits="userSpaceOnUse"
       gradientTransform="matrix(0.04164302,0,0,0.03408859,1.9444673,0.78644322)"
       x1="175.30762"
       y1="73.254395"
       x2="175.30762"
       y2="180.6748" />
    <linearGradient
       inkscape:collect="always"
       xlink:href="#linearGradient3749-5"
       id="linearGradient3756"
       gradientUnits="userSpaceOnUse"
       gradientTransform="matrix(0.04998763,0,0,0.03408859,2.4795353,0.78644322)"
       x1="175.30762"
       y1="73.254395"
       x2="175.30762"
       y2="180.6748" />
    <linearGradient
       y2="180.6748"
       x2="175.30762"
       y1="73.254395"
       x1="175.30762"
       gradientTransform="matrix(0.04859283,0,0,0.03408859,3.115962,0.78644322)"
       gradientUnits="userSpaceOnUse"
       id="linearGradient3809"
       xlink:href="#linearGradient3749-5"
       inkscape:collect="always" />
    <inkscape:perspective
       id="perspective3729"
       inkscape:persp3d-origin="0.5 : 0.33333333 : 1"
       inkscape:vp_z="1 : 0.5 : 1"
       inkscape:vp_y="0 : 1000 : 0"
       inkscape:vp_x="0 : 0.5 : 1"
       sodipodi:type="inkscape:persp3d" />
    <linearGradient
       inkscape:collect="always"
       xlink:href="#linearGradient3696"
       id="linearGradient4163"
       x1="6"
       y1="48"
       x2="90"
       y2="48"
       gradientUnits="userSpaceOnUse"
       gradientTransform="translate(-96,0)" />
    <linearGradient
       id="linearGradient3696">
      <stop
         id="stop3698"
         offset="0"
         style="stop-color:#2458a6;stop-opacity:1;" />
      <stop
         id="stop3700"
         offset="1"
         style="stop-color:#598ad4;stop-opacity:1;" />
    </linearGradient>
    <linearGradient
       y2="48"
       x2="90"
       y1="48"
       x1="6"
       gradientTransform="translate(-52.867199,-57.252856)"
       gradientUnits="userSpaceOnUse"
       id="linearGradient3738"
       xlink:href="#linearGradient3696"
       inkscape:collect="always" />
    <inkscape:perspective
       id="perspective3703"
       inkscape:persp3d-origin="0.5 : 0.33333333 : 1"
       inkscape:vp_z="1 : 0.5 : 1"
       inkscape:vp_y="0 : 1000 : 0"
       inkscape:vp_x="0 : 0.5 : 1"
       sodipodi:type="inkscape:persp3d" />
    <linearGradient
       gradientTransform="matrix(0.19388162,0,0,0.19388162,-1.4007219,-1.9461429)"
       inkscape:collect="always"
       xlink:href="#linearGradient4099"
       id="linearGradient4113"
       x1="22.111456"
       y1="62.983868"
       x2="40"
       y2="32"
       gradientUnits="userSpaceOnUse" />
    <linearGradient
       id="linearGradient4099">
      <stop
         style="stop-color:#9ede27;stop-opacity:1;"
         offset="0"
         id="stop4101" />
      <stop
         style="stop-color:#c8f16b;stop-opacity:1;"
         offset="1"
         id="stop4103" />
    </linearGradient>
    <linearGradient
       gradientTransform="matrix(0.19388162,0,0,0.19388162,-1.5256152,-1.9461429)"
       inkscape:collect="always"
       xlink:href="#linearGradient4099"
       id="linearGradient4105"
       x1="38"
       y1="74"
       x2="70"
       y2="49"
       gradientUnits="userSpaceOnUse" />
    <linearGradient
       id="linearGradient3712">
      <stop
         style="stop-color:#9ede27;stop-opacity:1;"
         offset="0"
         id="stop3714" />
      <stop
         style="stop-color:#c8f16b;stop-opacity:1;"
         offset="1"
         id="stop3716" />
    </linearGradient>
    <linearGradient
       inkscape:collect="always"
       xlink:href="#linearGradient3799-3"
       id="linearGradient3746"
       gradientUnits="userSpaceOnUse"
       x1="56.037025"
       y1="49.333305"
       x2="56.037025"
       y2="13.593002"
       gradientTransform="matrix(0.26518093,0,0,0.26518093,-0.34872536,-3.7081516)" />
    <linearGradient
       id="linearGradient3799-3">
      <stop
         style="stop-color:#1a1a1a;stop-opacity:1;"
         offset="0"
         id="stop3801-3" />
      <stop
         style="stop-color:#000000;stop-opacity:1;"
         offset="1"
         id="stop3803-2" />
    </linearGradient>
    <linearGradient
       y2="13.593002"
       x2="56.037025"
       y1="49.333305"
       x1="56.037025"
       gradientTransform="matrix(0.19388162,0,0,0.19388162,-1.3401963,-1.8843368)"
       gradientUnits="userSpaceOnUse"
       id="linearGradient3726"
       xlink:href="#linearGradient3799-3"
       inkscape:collect="always" />
    <inkscape:perspective
       id="perspective3736"
       inkscape:persp3d-origin="0.5 : 0.33333333 : 1"
       inkscape:vp_z="1 : 0.5 : 1"
       inkscape:vp_y="0 : 1000 : 0"
       inkscape:vp_x="0 : 0.5 : 1"
       sodipodi:type="inkscape:persp3d" />
    <radialGradient
       inkscape:collect="always"
       xlink:href="#linearGradient3784-2"
       id="radialGradient3758"
       gradientUnits="userSpaceOnUse"
       gradientTransform="matrix(1.0456205,0.08243661,-0.05194947,0.90987799,0.84943041,1.3399685)"
       cx="49.580967"
       cy="67.04126"
       fx="49.580967"
       fy="67.04126"
       r="10" />
    <linearGradient
       id="linearGradient3784-2">
      <stop
         id="stop3786-4"
         offset="0"
         style="stop-color:#a0a0a0;stop-opacity:1;" />
      <stop
         id="stop3790-2"
         offset="1"
         style="stop-color:#1a1a1a;stop-opacity:1;" />
    </linearGradient>
    <radialGradient
       r="10"
       fy="67.04126"
       fx="49.580967"
       cy="67.04126"
       cx="49.580967"
       gradientTransform="matrix(1.0456205,0.08243661,-0.05194947,0.90987799,0.84943041,1.3399685)"
       gradientUnits="userSpaceOnUse"
       id="radialGradient3745"
       xlink:href="#linearGradient3784-2"
       inkscape:collect="always" />
    <radialGradient
       inkscape:collect="always"
       xlink:href="#linearGradient3784-2"
       id="radialGradient3698"
       cx="10.116978"
       cy="6.5340972"
       fx="10.116978"
       fy="6.5340972"
       r="2.6487656"
       gradientTransform="matrix(0.60548597,-0.18291744,0.13322228,0.44098703,0.81853832,7.6996387)"
       gradientUnits="userSpaceOnUse" />
    <linearGradient
       inkscape:collect="always"
       xlink:href="#linearGradient3700"
       id="linearGradient3181"
       x1="-3.0607977"
       y1="27.258198"
       x2="-3.0607977"
       y2="7.2536583"
       gradientUnits="userSpaceOnUse"
       gradientTransform="translate(12.119372,-7.2581977)" />
    <linearGradient
       id="linearGradient3700">
      <stop
         style="stop-color:#146d96;stop-opacity:0.97254902;"
         offset="0"
         id="stop3702" />
      <stop
         style="stop-color:#3cade2;stop-opacity:0.99607843"
         offset="1"
         id="stop3704" />
    </linearGradient>
    <linearGradient
       inkscape:collect="always"
       xlink:href="#linearGradient3666"
       id="linearGradient3694"
       gradientUnits="userSpaceOnUse"
       gradientTransform="matrix(0.19047619,0,0,0.18850565,-1.142857,-1.8435386)"
       x1="46.796001"
       y1="71.448395"
       x2="46.796001"
       y2="22.992983" />
    <linearGradient
       id="linearGradient3666">
      <stop
         style="stop-color:#14648a;stop-opacity:1;"
         offset="0"
         id="stop3668" />
      <stop
         style="stop-color:#1c8abd;stop-opacity:1;"
         offset="1"
         id="stop3670" />
    </linearGradient>
    <linearGradient
       y2="7.2536583"
       x2="-3.0607977"
       y1="27.258198"
       x1="-3.0607977"
       gradientTransform="translate(-17.880628,-13.258198)"
       gradientUnits="userSpaceOnUse"
       id="linearGradient3072"
       xlink:href="#linearGradient3700"
       inkscape:collect="always" />
  </defs>
  <sodipodi:namedview
     id="base"
     pagecolor="#ffffff"
     bordercolor="#e7e7e7"
     borderopacity="1"
     inkscape:pageopacity="0.0"
     inkscape:pageshadow="2"
     inkscape:zoom="26.212949"
     inkscape:cx="-9.5516177"
     inkscape:cy="9.5563131"
     inkscape:document-units="px"
     inkscape:current-layer="layer1"
     showgrid="true"
     inkscape:showpageshadow="false"
     showguides="false"
     inkscape:guide-bbox="true"
     inkscape:window-width="1920"
     inkscape:window-height="1028"
     inkscape:window-x="0"
     inkscape:window-y="25"
     inkscape:window-maximized="1"
     inkscape:snap-global="false">
    <sodipodi:guide
       orientation="1,0"
       position="0,112"
       id="guide2383" />
    <sodipodi:guide
       orientation="0,1"
       position="26.278146,128"
       id="guide2385" />
    <sodipodi:guide
       orientation="1,0"
       position="128,54.082119"
       id="guide2387" />
    <sodipodi:guide
       orientation="0,1"
       position="78.156291,0"
       id="guide2389" />
    <sodipodi:guide
       orientation="0,1"
       position="60.863576,64.084768"
       id="guide2391" />
    <inkscape:grid
       type="xygrid"
       id="grid3672"
       visible="true"
       enabled="true" />
  </sodipodi:namedview>
  <metadata
     id="metadata7">
    <rdf:RDF>
      <cc:Work
         rdf:about="">
        <dc:format>image/svg+xml</dc:format>
        <dc:type
           rdf:resource="http://purl.org/dc/dcmitype/StillImage" />
        <dc:title></dc:title>
      </cc:Work>
    </rdf:RDF>
  </metadata>
  <g
     inkscape:label="Button"
     inkscape:groupmode="layer"
     id="layer1">
    <rect
       ry="2"
       rx="2"
       y="0"
       x="-16"
       height="16"
       width="16"
       id="rect3196"
       style="fill:url(#linearGradient3204);fill-opacity:1.0;fill-rule:nonzero;stroke:none"
       transform="matrix(0,-1,1,0,0,0)" />
    <path
       style="fill:#ffffff;fill-opacity:1;fill-rule:nonzero;stroke:none;opacity:0.3"
       d="M 2 0.96875 C 1.4168007 0.96875 0.96875 1.4168007 0.96875 2 L 0.96875 3 C 0.96875 2.4168007 1.4168007 1.96875 2 1.96875 L 14 1.96875 C 14.583199 1.96875 15.03125 2.4168007 15.03125 3 L 15.03125 2 C 15.03125 1.4168007 14.583199 0.96875 14 0.96875 L 2 0.96875 z "
       id="path2843" />
    <path
       inkscape:connector-curvature="0"
       style="font-size:medium;font-style:normal;font-variant:normal;font-weight:normal;font-stretch:normal;text-indent:0;text-align:start;text-decoration:none;line-height:normal;letter-spacing:normal;word-spacing:normal;text-transform:none;direction:ltr;block-progression:tb;writing-mode:lr-tb;text-anchor:start;color:#000000;fill:url(#linearGradient3694);fill-opacity:1;stroke:none;stroke-width:6;marker:none;visibility:visible;display:inline;overflow:visible;enable-background:accumulate;font-family:Abandoned Bitplane;-inkscape-font-specification:Abandoned Bitplane"
       d="M 11.35,2.4013648 C 7.569646,2.6803736 5.553853,4.9727996 4.625,7.077483 3.98453,8.5287178 3.844669,9.6375634 3.8,10.318602 l -3.8,0 0,1.682413 4.575,0 c 0.005,3e-5 0.04504,2.13e-4 0.05,0 0.005,-2.13e-4 0.02006,4.55e-4 0.025,0 0.005,-4.55e-4 0.04509,-0.02404 0.05,-0.02474 0.0049,-6.96e-4 0.04513,8.8e-4 0.05,0 0.0049,-8.8e-4 0.02018,0.0012 0.025,0 0.0048,-0.0012 0.04525,-0.02334 0.05,-0.02474 0.0047,-0.0014 0.02032,0.0017 0.025,0 0.0047,-0.0017 0.04541,-0.02287 0.05,-0.02474 0.0046,-0.0019 0.0205,0.0021 0.025,0 0.0045,-0.0021 0.04562,-0.02244 0.05,-0.02474 0.0044,-0.0023 0.02074,-0.02222 0.025,-0.02474 0.0042,-0.0026 0.04587,-0.02202 0.05,-0.02474 0.0042,-0.0026 0.02101,-0.02182 0.025,-0.02474 0.004,-0.0029 0.02116,-0.02162 0.025,-0.02474 0.0038,-0.003 0.04632,-0.02145 0.05,-0.02474 0.0037,-0.0034 0.02149,-0.02127 0.025,-0.02474 0.0035,-0.0035 0.02167,-0.0211 0.025,-0.02474 0.0034,-0.0037 0.02186,-0.04568 0.025,-0.04948 0.0031,-0.0038 0.02205,-0.02079 0.025,-0.02474 0.003,-0.004 0.02225,-0.02066 0.025,-0.02474 0.0027,-0.0042 0.02246,-0.04526 0.025,-0.04948 0.0026,-0.0042 0.02267,-0.02041 0.025,-0.02474 0.0023,-0.0043 0.02289,-0.04504 0.025,-0.04948 0.0021,-0.0044 -0.0019,-0.0202 0,-0.02474 0.0019,-0.0045 0.02334,-0.04485 0.025,-0.04948 0.0017,-0.0046 -0.0014,-0.02004 0,-0.02474 0.0014,-0.0046 0.02382,-0.04472 0.025,-0.04948 0.0012,-0.0047 -9.6e-4,-0.01993 0,-0.02474 9.6e-4,-0.0048 -7.04e-4,-0.04462 0,-0.04948 7.03e-4,-0.0048 0.02454,-0.04458 0.025,-0.04948 4.6e-4,-0.0049 -2.15e-4,-0.01983 0,-0.02474 2.15e-4,-0.0049 3e-5,-0.04457 0,-0.04948 0,0 -0.01322,-1.7096954 0.75,-3.4390506 0.63939,-1.4488368 1.764935,-2.7985619 3.95,-3.3648723 -1.22851,3.8565971 0.55,7.1997379 0.55,7.1997379 0.0016,0.0029 0.0233,0.02187 0.025,0.02474 0.0017,0.0028 0.02321,0.02194 0.025,0.02474 0.0018,0.0028 -0.0019,0.02199 0,0.02474 0.0019,0.0027 0.02302,0.02206 0.025,0.02474 0.002,0.0026 0.02294,0.02212 0.025,0.02474 0.0021,0.0026 -0.0022,0.02219 0,0.02474 0.0022,0.0026 0.02276,0.02226 0.025,0.02474 0.0022,0.0025 0.02268,-0.0024 0.025,0 0.0023,0.0024 0.0226,0.02242 0.025,0.02474 0.0024,0.0023 -0.0025,0.0225 0,0.02474 0.0025,0.0022 0.02245,0.02258 0.025,0.02474 0.0026,0.0022 0.02238,-0.0021 0.025,0 0.0026,0.0021 0.02231,0.02275 0.025,0.02474 0.0027,0.002 0.02224,0.02285 0.025,0.02474 0.0027,0.0019 0.02218,-0.0018 0.025,0 0.0028,0.0018 0.02212,0.02302 0.025,0.02474 0.0029,0.0018 0.02206,0.02313 0.025,0.02474 0.003,0.0016 0.02202,-0.0015 0.025,0 0.003,0.0015 0.02196,0.02333 0.025,0.02474 0.003,0.0014 0.02192,-0.0014 0.025,0 0.0031,0.0014 0.02187,0.02353 0.025,0.02474 0.0031,0.0012 0.02183,-0.001 0.025,0 0.0032,0.0011 0.0218,-9.6e-4 0.025,0 0.0032,9.6e-4 0.02177,0.02385 0.025,0.02474 0.0032,8.8e-4 0.02174,-7.65e-4 0.025,0 0.0033,7.64e-4 0.02171,-6.78e-4 0.025,0 0.0033,6.78e-4 0.0217,-5.7e-4 0.025,0 0.0033,5.7e-4 0.02167,-4.6e-4 0.025,0 0.0034,4.6e-4 0.04666,0.0244 0.05,0.02474 0.0034,3.5e-4 0.02166,-2.39e-4 0.025,0 0.0034,2.39e-4 0.02165,-1.29e-4 0.025,0 0.0034,1.28e-4 0.02164,-1.7e-5 0.025,0 l 4.575,0 0,-1.682412 -4,0 c -0.382304,-0.8127928 -1.487241,-3.5746536 0.175,-6.6801692 0.003,-0.00549 -7.87e-4,-0.023244 0,-0.024742 0.0016,-0.00299 -0.0014,-0.021696 0,-0.024742 0.0014,-0.00305 0.02363,-0.021647 0.025,-0.024742 0.0014,-0.0031 -0.0013,-0.021604 0,-0.024742 0.0013,-0.00314 0.02385,-0.021562 0.025,-0.024742 0.0011,-0.00318 -10e-4,-0.021526 0,-0.024742 0.001,-0.00321 0.02407,-0.021493 0.025,-0.024742 9.6e-4,-0.00325 -8e-4,-0.021464 0,-0.024742 8e-4,-0.00328 -7.04e-4,-0.021437 0,-0.024742 7.04e-4,-0.0033 -5.9e-4,-0.021416 0,-0.024742 5.9e-4,-0.00333 -4.75e-4,-0.046139 0,-0.049483 4.75e-4,-0.00334 0.02464,-0.021385 0.025,-0.024742 3.6e-4,-0.00336 -2.45e-4,-0.021374 0,-0.024742 2.45e-4,-0.00336 -1.29e-4,-0.021368 0,-0.024742 1.29e-4,-0.00337 -1.3e-5,-0.021366 0,-0.024742 1.3e-5,-0.00337 1.03e-4,-0.021367 0,-0.024742 -1.03e-4,-0.00337 2.19e-4,-0.021372 0,-0.024742 -2.19e-4,-0.00337 3.34e-4,-0.046123 0,-0.049483 -3.34e-4,-0.00336 -0.02455,-0.021394 -0.025,-0.024742 -4.5e-4,-0.00335 5.65e-4,-0.021412 0,-0.024742 -5.65e-4,-0.00334 6.78e-4,-0.021433 0,-0.024742 -6.78e-4,-0.00331 7.92e-4,-0.021457 0,-0.024742 -7.92e-4,-0.00329 8.8e-4,-0.021486 0,-0.024742 -8.8e-4,-0.00326 -0.02398,-0.021518 -0.025,-0.024742 -10e-4,-0.00322 0.0011,-0.021555 0,-0.024742 -0.0011,-0.00319 -0.02377,-0.021594 -0.025,-0.024742 -0.0012,-0.00315 0.0014,-0.021637 0,-0.024742 -0.0014,-0.0031 0.0014,-0.046426 0,-0.049483 -0.0014,-0.00306 -0.02345,-0.021735 -0.025,-0.024742 -0.0015,-0.00302 0.0017,-0.021789 0,-0.024742 -0.0017,-0.00295 -0.02325,-0.021847 -0.025,-0.024742 -0.0018,-0.0029 -0.02314,-0.021906 -0.025,-0.024742 -0.0019,-0.00277 -0.02296,-0.022038 -0.025,-0.024742 -0.0021,-0.0027 -0.02286,-0.022108 -0.025,-0.024742 -0.0022,-0.00264 0.0022,-0.022182 0,-0.024742 -0.0022,-0.00255 -0.02269,-0.022258 -0.025,-0.024742 -0.0023,-0.00249 -0.02261,-0.022337 -0.025,-0.024742 -0.0024,-0.00242 -0.02253,-0.022423 -0.025,-0.024746 -0.0025,-0.00232 -0.02245,0.00224 -0.025,0 -0.0026,-0.00224 0.0026,-0.022591 0,-0.024742 -0.0026,-0.00215 -0.0223,-0.02268 -0.025,-0.024742 -0.0027,-0.00206 -0.02223,-0.022773 -0.025,-0.024742 -0.0028,-0.00198 -0.02216,0.00187 -0.025,0 -0.0028,-0.00187 -0.0221,-0.022964 -0.025,-0.024742 -0.0029,-0.00178 -0.02204,0.00168 -0.025,0 -0.003,-0.00168 -0.02198,-0.023163 -0.025,-0.024742 -0.003,-0.00158 -0.02194,-0.023266 -0.025,-0.024742 -0.003,-0.00147 -0.02188,0.00137 -0.025,0 -0.0031,-0.00137 -0.02184,0.00127 -0.025,0 -0.0032,-0.00127 -0.0218,-0.023582 -0.025,-0.024742 -0.0032,-0.00115 -0.02176,0.00106 -0.025,0 -0.0033,-0.00106 -0.04673,-0.023801 -0.05,-0.024742 -0.0033,-9.44e-4 -0.0217,8.32e-4 -0.025,0 -0.0033,-8.32e-4 -0.02166,7.182e-4 -0.025,0 -0.0034,-7.182e-4 -0.02165,6.056e-4 -0.025,0 -0.0034,-6.056e-4 -0.02162,-0.024249 -0.025,-0.024742 -0.0034,-4.923e-4 -0.02161,3.786e-4 -0.025,0 -0.0034,-3.785e-4 -0.0216,2.642e-4 -0.025,0 -0.0034,-2.642e-4 -0.02159,1.496e-4 -0.025,0 -0.0034,-1.496e-4 -0.04659,3.5e-5 -0.05,0 -0.0034,-3.5e-5 -0.02159,-7.99e-5 -0.025,0 -0.0034,7.99e-5 -0.02159,-1.946e-4 -0.025,0 -0.0034,1.946e-4 -0.0216,-3.091e-4 -0.025,0 z"
       id="path3687" />
    <path
       inkscape:connector-curvature="0"
       style="font-size:medium;font-style:normal;font-variant:normal;font-weight:normal;font-stretch:normal;text-indent:0;text-align:start;text-decoration:none;line-height:normal;letter-spacing:normal;word-spacing:normal;text-transform:none;direction:ltr;block-progression:tb;writing-mode:lr-tb;text-anchor:start;opacity:0.2;color:#000000;fill:#ffffff;fill-opacity:1;stroke:none;stroke-width:6;marker:none;visibility:visible;display:inline;overflow:visible;enable-background:accumulate;font-family:Abandoned Bitplane;-inkscape-font-specification:Abandoned Bitplane"
       d="m 12.175,3.6511714 c -0.754765,1.4195872 -0.915825,2.75418 -0.85,3.875 0.05011,-0.9411256 0.26229,-2.001998 0.85,-3.1 0.0016,-0.00299 -0.0014,-0.021954 0,-0.025 0.0014,-0.00305 0.02363,-0.021906 0.025,-0.025 0.0014,-0.0031 -0.0013,-0.021862 0,-0.025 0.0013,-0.00314 0.02385,-0.021821 0.025,-0.025 0.0011,-0.00318 -10e-4,-0.021784 0,-0.025 0.001,-0.00321 0.02407,-0.021751 0.025,-0.025 9.6e-4,-0.00325 -8e-4,-0.021722 0,-0.025 8e-4,-0.00328 -7.04e-4,-0.021695 0,-0.025 7.04e-4,-0.0033 -5.9e-4,-0.021674 0,-0.025 5.9e-4,-0.00333 -4.75e-4,-0.046656 0,-0.05 4.75e-4,-0.00334 0.02464,-0.021643 0.025,-0.025 3.6e-4,-0.00336 -2.45e-4,-0.021633 0,-0.025 2.45e-4,-0.00336 -1.29e-4,-0.021626 0,-0.025 1.29e-4,-0.00337 -1.3e-5,-0.021624 0,-0.025 1.3e-5,-0.00337 1.03e-4,-0.021626 0,-0.025 -1.03e-4,-0.00337 2.19e-4,-0.02163 0,-0.025 -2.19e-4,-0.00337 3.34e-4,-0.04664 0,-0.05 -3.34e-4,-0.00336 -0.02455,-0.021653 -0.025,-0.025 -4.5e-4,-0.00335 5.65e-4,-0.02167 0,-0.025 -5.65e-4,-0.00334 6.78e-4,-0.021691 0,-0.025 -6.78e-4,-0.00331 7.92e-4,-0.021715 0,-0.025 -7.92e-4,-0.00329 8.8e-4,-0.021745 0,-0.025 -8.8e-4,-0.00326 -0.02398,-0.021777 -0.025,-0.025 -10e-4,-0.00322 0.0011,-0.021814 0,-0.025 -0.0011,-0.00319 -0.02377,-0.021853 -0.025,-0.025 -0.0012,-0.00315 0.0014,-0.021895 0,-0.025 -0.0014,-0.0031 0.0014,-0.046942 0,-0.05 -0.0014,-0.00306 -0.02345,-0.021994 -0.025,-0.025 z m -2.05,0.7 c -2.185065,0.5663104 -3.31061,1.9261632 -3.95,3.375 -0.763214,1.7293552 -0.75,3.4250006 -0.75,3.4250006 3e-5,0.0049 2.15e-4,0.04512 0,0.05 -2.15e-4,0.0049 4.6e-4,0.02012 0,0.025 -4.6e-4,0.0049 -0.0243,0.0452 -0.025,0.05 -7.04e-4,0.0049 9.6e-4,0.0452 0,0.05 -9.6e-4,0.0048 0.0012,0.02028 0,0.025 -0.0012,0.0047 -0.02358,0.04536 -0.025,0.05 -0.0014,0.0047 0.0017,0.02044 0,0.025 -0.0017,0.0046 -0.02311,0.04552 -0.025,0.05 -0.0019,0.0046 0.0021,0.0206 0,0.025 -0.0021,0.0044 -0.02267,0.04568 -0.025,0.05 -0.0023,0.0043 -0.02246,0.02076 -0.025,0.025 -0.0026,0.0042 -0.02225,0.04584 -0.025,0.05 -0.0027,0.0041 -0.02205,0.021 -0.025,0.025 -0.003,0.0039 -0.02186,0.02116 -0.025,0.025 -0.0031,0.0038 -0.02167,0.04632 -0.025,0.05 -0.0034,0.0036 -0.02149,0.02148 -0.025,0.025 -0.0035,0.0034 -0.02132,0.02164 -0.025,0.025 -0.0037,0.0033 -0.04616,0.02196 -0.05,0.025 -0.0038,0.0031 -0.02101,0.02212 -0.025,0.025 -0.004,0.003 -0.02087,0.02236 -0.025,0.025 -0.0042,0.0027 -0.04574,0.02244 -0.05,0.025 -0.0042,0.0025 -0.02062,0.02268 -0.025,0.025 -0.0044,0.0023 -0.0455,0.02292 -0.05,0.025 -0.0045,0.0021 -0.02041,-0.0019 -0.025,0 -0.0046,0.0018 -0.04532,0.02332 -0.05,0.025 -0.0047,0.0017 -0.02025,-0.0014 -0.025,0 -0.0047,0.0014 -0.04518,0.0238 -0.05,0.025 -0.0048,0.0012 -0.02013,-8.8e-4 -0.025,0 -0.0049,8.8e-4 -0.04509,-6.96e-4 -0.05,0 -0.0049,6.96e-4 -0.04506,0.02454 -0.05,0.025 -0.005,4.55e-4 -0.02004,-2.13e-4 -0.025,0 -0.005,2.13e-4 -0.04504,3e-5 -0.05,0 l -4.575,0 0,0.8 4.575,0 c 0.005,3e-5 0.04504,2.13e-4 0.05,0 0.005,-2.13e-4 0.02006,4.55e-4 0.025,0 0.005,-4.55e-4 0.04509,-0.0243 0.05,-0.025 0.0049,-6.96e-4 0.04513,8.8e-4 0.05,0 0.0049,-8.8e-4 0.02018,0.0012 0.025,0 0.0048,-0.0012 0.04525,-0.0236 0.05,-0.025 0.0047,-0.0014 0.02032,0.0017 0.025,0 0.0047,-0.0017 0.04541,-0.02314 0.05,-0.025 0.0046,-0.0019 0.0205,0.0021 0.025,0 0.0045,-0.0021 0.04562,-0.0227 0.05,-0.025 0.0044,-0.0023 0.02074,-0.02249 0.025,-0.025 0.0042,-0.0026 0.04587,-0.02228 0.05,-0.025 0.0042,-0.0026 0.02101,-0.02208 0.025,-0.025 0.004,-0.0029 0.02116,-0.02189 0.025,-0.025 0.0038,-0.003 0.04632,-0.02171 0.05,-0.025 0.0037,-0.0034 0.02149,-0.02154 0.025,-0.025 0.0035,-0.0035 0.02167,-0.02137 0.025,-0.025 0.0034,-0.0037 0.02186,-0.0462 0.025,-0.05 0.0031,-0.0038 0.02205,-0.02106 0.025,-0.025 0.003,-0.004 0.02225,-0.02092 0.025,-0.025 0.0027,-0.0042 0.02246,-0.04578 0.025,-0.05 0.0026,-0.0042 0.02267,-0.02067 0.025,-0.025 0.0023,-0.0043 0.02289,-0.04556 0.025,-0.05 0.0021,-0.0044 -0.0019,-0.02046 0,-0.025 0.0019,-0.0045 0.02334,-0.04537 0.025,-0.05 0.0017,-0.0046 -0.0014,-0.0203 0,-0.025 0.0014,-0.0046 0.02382,-0.04524 0.025,-0.05 0.0012,-0.0047 -9.6e-4,-0.02019 0,-0.025 9.6e-4,-0.0048 -7.04e-4,-0.04514 0,-0.05 7.03e-4,-0.0048 0.02454,-0.0451 0.025,-0.05 4.6e-4,-0.0049 -2.15e-4,-0.02009 0,-0.025 2.15e-4,-0.0049 3e-5,-0.04509 0,-0.05 0,0 -0.01322,-1.695648 0.75,-3.425003 0.616114,-1.3960928 1.693082,-2.7002168 3.725,-3.3 0.06068,-0.2854357 0.131798,-0.5824182 0.225,-0.875 z m -0.4,3.15 c -0.134514,2.7698486 0.95,4.8500006 0.95,4.8500006 0.0016,0.0029 0.0233,0.02213 0.025,0.025 0.0017,0.0028 0.02321,0.0222 0.025,0.025 0.0018,0.0028 -0.0019,0.02226 0,0.025 0.0019,0.0027 0.02302,0.02232 0.025,0.025 0.002,0.0026 0.02294,0.02238 0.025,0.025 0.0021,0.0026 -0.0022,0.02246 0,0.025 0.0022,0.0026 0.02276,0.02253 0.025,0.025 0.0022,0.0025 0.02268,-0.0024 0.025,0 0.0023,0.0024 0.0226,0.02268 0.025,0.025 0.0024,0.0023 -0.0025,0.02276 0,0.025 0.0025,0.0022 0.02245,0.02284 0.025,0.025 0.0026,0.0022 0.02238,-0.0021 0.025,0 0.0026,0.0021 0.02231,0.02302 0.025,0.025 0.0027,0.002 0.02224,0.02311 0.025,0.025 0.0027,0.0019 0.02218,-0.0018 0.025,0 0.0028,0.0018 0.02212,0.02329 0.025,0.025 0.0029,0.0018 0.02206,0.02339 0.025,0.025 0.003,0.0016 0.02202,-0.0015 0.025,0 0.003,0.0015 0.02196,0.02358 0.025,0.025 0.003,0.0014 0.02192,-0.0014 0.025,0 0.0031,0.0014 0.02187,0.02379 0.025,0.025 0.0031,0.0012 0.02183,-0.001 0.025,0 0.0032,0.0011 0.0218,-9.6e-4 0.025,0 0.0032,9.6e-4 0.02177,0.02411 0.025,0.025 0.0032,8.8e-4 0.02174,-7.65e-4 0.025,0 0.0033,7.64e-4 0.02171,-6.79e-4 0.025,0 0.0033,6.78e-4 0.0217,-5.7e-4 0.025,0 0.0033,5.7e-4 0.02167,-4.6e-4 0.025,0 0.0034,4.6e-4 0.04666,0.02466 0.05,0.025 0.0034,3.5e-4 0.02166,-2.4e-4 0.025,0 0.0034,2.39e-4 0.02165,-1.29e-4 0.025,0 0.0034,1.28e-4 0.02164,-1.7e-5 0.025,0 l 4.575,0 0,-0.8 -4.575,0 c -0.0034,-1.7e-5 -0.02164,1.28e-4 -0.025,0 -0.0034,-1.29e-4 -0.02164,2.39e-4 -0.025,0 -0.0034,-2.4e-4 -0.02164,3.5e-4 -0.025,0 -0.0034,-3.36e-4 -0.04664,-0.02454 -0.05,-0.025 -0.0034,-4.6e-4 -0.02172,5.7e-4 -0.025,0 -0.0033,-5.7e-4 -0.02172,6.78e-4 -0.025,0 -0.0033,-6.79e-4 -0.02172,7.64e-4 -0.025,0 -0.0033,-7.65e-4 -0.0218,8.8e-4 -0.025,0 -0.0032,-8.8e-4 -0.0218,-0.02404 -0.025,-0.025 -0.0032,-9.6e-4 -0.0218,0.0011 -0.025,0 -0.0032,-10e-4 -0.02188,0.0012 -0.025,0 -0.0031,-0.0012 -0.02188,-0.02364 -0.025,-0.025 -0.003,-0.0014 -0.02196,0.0014 -0.025,0 -0.003,-0.0014 -0.02204,-0.02348 -0.025,-0.025 -0.003,-0.0015 -0.02204,0.0016 -0.025,0 -0.003,-0.0016 -0.02212,-0.02324 -0.025,-0.025 -0.0029,-0.0017 -0.0222,-0.02316 -0.025,-0.025 -0.0028,-0.0018 -0.02228,0.0019 -0.025,0 -0.0028,-0.0019 -0.02228,-0.023 -0.025,-0.025 -0.0027,-0.002 -0.02236,-0.02292 -0.025,-0.025 -0.0026,-0.0021 -0.02244,0.0022 -0.025,0 -0.0026,-0.0022 -0.02252,-0.02276 -0.025,-0.025 -0.0025,-0.0022 0.0024,-0.02268 0,-0.025 -0.0024,-0.0023 -0.02268,-0.0226 -0.025,-0.025 -0.0023,-0.0024 -0.02276,0.0025 -0.025,0 -0.0022,-0.0025 -0.02284,-0.02244 -0.025,-0.025 -0.0022,-0.0026 0.0021,-0.02244 0,-0.025 -0.0021,-0.0026 -0.023,-0.02236 -0.025,-0.025 -0.002,-0.0027 -0.02308,-0.02228 -0.025,-0.025 -0.0019,-0.0027 0.0018,-0.0222 0,-0.025 -0.0018,-0.0028 -0.02332,-0.0222 -0.025,-0.025 -0.0017,-0.0029 -0.0234,-0.02212 -0.025,-0.025 0,0 -0.867842,-1.6966658 -0.95,-4.0500002 z"
       id="path3696" />
    <path
       inkscape:connector-curvature="0"
       style="font-size:medium;font-style:normal;font-variant:normal;font-weight:normal;font-stretch:normal;text-indent:0;text-align:start;text-decoration:none;line-height:normal;letter-spacing:normal;word-spacing:normal;text-transform:none;direction:ltr;block-progression:tb;writing-mode:lr-tb;text-anchor:start;opacity:0.2;color:#000000;fill:#000000;fill-opacity:1;stroke:none;stroke-width:6;marker:none;visibility:visible;display:inline;overflow:visible;enable-background:accumulate;font-family:Abandoned Bitplane;-inkscape-font-specification:Abandoned Bitplane"
       d="M 11.35,2.4011714 C 7.569646,2.6801802 5.553853,4.9714881 4.625,7.0761714 3.98453,8.5274066 3.844669,9.645133 3.8,10.326171 l -3.8,0 0,0.800001 3.8,0 c 0.04467,-0.681039 0.18453,-1.7987654 0.825,-3.2500006 0.928853,-2.1046832 2.944646,-4.3959912 6.725,-4.675 0.0034,-3.091e-4 0.02156,1.946e-4 0.025,0 0.0034,-1.946e-4 0.02156,8e-5 0.025,0 0.0034,-7.99e-5 0.02156,-3.49e-5 0.025,0 0.0034,3.5e-5 0.04656,-1.496e-4 0.05,0 0.0034,1.496e-4 0.02156,-2.642e-4 0.025,0 0.0034,2.643e-4 0.02164,-3.784e-4 0.025,0 0.0034,3.786e-4 0.02164,-4.923e-4 0.025,0 0.0034,4.928e-4 0.02164,0.024394 0.025,0.025 0.0034,6.056e-4 0.02164,-7.181e-4 0.025,0 0.0034,7.183e-4 0.02172,-8.32e-4 0.025,0 0.0033,8.32e-4 0.02172,-9.44e-4 0.025,0 0.0033,9.44e-4 0.04672,0.023944 0.05,0.025 0.0032,0.00106 0.0218,-0.00115 0.025,0 0.0032,0.00116 0.0218,0.023728 0.025,0.025 0.0031,0.00127 0.02188,-0.00137 0.025,0 0.0031,0.00137 0.02196,-0.00147 0.025,0 0.003,0.00147 0.02196,0.023424 0.025,0.025 0.003,0.00158 0.02204,0.02332 0.025,0.025 0.003,0.00168 0.02212,-0.00178 0.025,0 0.0029,0.00178 0.0222,0.023128 0.025,0.025 0.0029,0.00187 0.0222,-0.00198 0.025,0 0.0028,0.00197 0.02228,0.022944 0.025,0.025 0.0027,0.00206 0.02236,0.022848 0.025,0.025 0.0026,0.00215 -0.0026,0.02276 0,0.025 0.0026,0.00224 0.02252,-0.00232 0.025,0 0.0025,0.00232 0.0226,0.022587 0.025,0.025 0.0024,0.00241 0.02268,0.022512 0.025,0.025 0.0023,0.00248 0.02276,0.022448 0.025,0.025 0.0022,0.00256 -0.0022,0.02236 0,0.025 0.0022,0.00263 0.02292,0.022304 0.025,0.025 0.002,0.0027 0.02308,0.022232 0.025,0.025 0.0018,0.00283 0.02324,0.022104 0.025,0.025 8.8e-4,0.00145 0.01918,-0.00546 0.025,0 0.0014,-0.00305 0.02363,-0.021906 0.025,-0.025 0.0014,-0.0031 -0.0013,-0.021862 0,-0.025 0.0013,-0.00314 0.02385,-0.021821 0.025,-0.025 0.0011,-0.00318 -10e-4,-0.021784 0,-0.025 0.001,-0.00321 0.02407,-0.021751 0.025,-0.025 9.6e-4,-0.00325 -8e-4,-0.021722 0,-0.025 8e-4,-0.00328 -7.04e-4,-0.021695 0,-0.025 7.04e-4,-0.0033 -5.9e-4,-0.021674 0,-0.025 5.9e-4,-0.00333 -4.75e-4,-0.046656 0,-0.05 4.75e-4,-0.00334 0.02464,-0.021643 0.025,-0.025 3.6e-4,-0.00336 -2.45e-4,-0.021633 0,-0.025 2.45e-4,-0.00336 -1.29e-4,-0.021626 0,-0.025 1.29e-4,-0.00337 -1.3e-5,-0.021624 0,-0.025 1.3e-5,-0.00337 1.03e-4,-0.021626 0,-0.025 -1.03e-4,-0.00337 2.19e-4,-0.02163 0,-0.025 -2.19e-4,-0.00337 3.34e-4,-0.04664 0,-0.05 -3.34e-4,-0.00336 -0.02455,-0.021653 -0.025,-0.025 -4.5e-4,-0.00335 5.65e-4,-0.02167 0,-0.025 -5.65e-4,-0.00334 6.78e-4,-0.021691 0,-0.025 -6.78e-4,-0.00331 7.92e-4,-0.021715 0,-0.025 -7.92e-4,-0.00329 8.8e-4,-0.021745 0,-0.025 -8.8e-4,-0.00326 -0.02398,-0.021777 -0.025,-0.025 -10e-4,-0.00322 0.0011,-0.021814 0,-0.025 -0.0011,-0.00319 -0.02377,-0.021853 -0.025,-0.025 -0.0012,-0.00315 0.0014,-0.021895 0,-0.025 -0.0014,-0.0031 0.0014,-0.046942 0,-0.05 -0.0014,-0.00306 -0.02345,-0.021994 -0.025,-0.025 -0.0015,-0.00302 0.0017,-0.022047 0,-0.025 -0.0017,-0.00295 -0.02325,-0.022105 -0.025,-0.025 -0.0018,-0.0029 -0.02314,-0.022165 -0.025,-0.025 -0.0019,-0.00277 -0.02296,-0.022297 -0.025,-0.025 -0.0021,-0.0027 -0.02286,-0.022366 -0.025,-0.025 -0.0022,-0.00264 0.0022,-0.02244 0,-0.025 -0.0022,-0.00255 -0.02269,-0.022516 -0.025,-0.025 -0.0023,-0.00249 -0.02261,-0.022595 -0.025,-0.025 -0.0024,-0.00242 -0.02253,-0.022678 -0.025,-0.025 -0.0025,-0.00232 -0.02245,0.00224 -0.025,0 -0.0026,-0.00224 0.0026,-0.02285 0,-0.025 -0.0026,-0.00215 -0.0223,-0.022938 -0.025,-0.025 -0.0027,-0.00206 -0.02223,-0.023031 -0.025,-0.025 -0.0028,-0.00198 -0.02216,0.00187 -0.025,0 -0.0028,-0.00187 -0.0221,-0.023222 -0.025,-0.025 -0.0029,-0.00178 -0.02204,0.00168 -0.025,0 -0.003,-0.00168 -0.02198,-0.023422 -0.025,-0.025 -0.003,-0.00158 -0.02194,-0.023525 -0.025,-0.025 -0.003,-0.00147 -0.02188,0.00137 -0.025,0 -0.0031,-0.00137 -0.02184,0.00127 -0.025,0 -0.0032,-0.00127 -0.0218,-0.023841 -0.025,-0.025 -0.0032,-0.00115 -0.02176,0.00106 -0.025,0 -0.0033,-0.00106 -0.04673,-0.024059 -0.05,-0.025 -0.0033,-9.44e-4 -0.0217,8.32e-4 -0.025,0 -0.0033,-8.32e-4 -0.02166,7.182e-4 -0.025,0 -0.0034,-7.182e-4 -0.02165,6.056e-4 -0.025,0 -0.0034,-6.056e-4 -0.02162,-0.024507 -0.025,-0.025 -0.0034,-4.923e-4 -0.02161,3.786e-4 -0.025,0 -0.0034,-3.785e-4 -0.0216,2.642e-4 -0.025,0 -0.0034,-2.642e-4 -0.02159,1.496e-4 -0.025,0 -0.0034,-1.496e-4 -0.04659,3.5e-5 -0.05,0 -0.0034,-3.5e-5 -0.02159,-7.99e-5 -0.025,0 -0.0034,7.99e-5 -0.02159,-1.946e-4 -0.025,0 -0.0034,1.946e-4 -0.0216,-3.091e-4 -0.025,0 z m -1.225,2.75 c -0.07954,0.020616 -0.148235,0.05234 -0.225,0.075 -0.171946,0.808868 -0.199907,1.5615568 -0.175,2.275 0.03608,-0.742972 0.140166,-1.5343184 0.4,-2.35 z m 1.2,2.375 C 11.23337,9.2468626 11.752866,10.600754 12,11.126172 l 4,0 0,-0.800001 -4,0 C 11.793361,9.8868482 11.402796,8.8508306 11.325,7.5261714 z"
       id="path3705" />
    <path
       style="opacity:0.4;fill:url(#linearGradient3629);fill-opacity:1;fill-rule:nonzero;stroke:none"
       d="m 0,14 c 0,1.108 0.892,2 2,2 l 12,0 c 1.108,0 2,-0.892 2,-2 L 16,2 C 16,0.892 15.108,0 14,0 L 2,0 C 0.892,0 0,0.892 0,2 l 0,12 z m 0.96875,0 0,-12 C 0.96875,1.416801 1.4168007,0.96875 2,0.96875 l 12,0 c 0.583199,0 1.03125,0.448051 1.03125,1.03125 l 0,12 c 0,0.583199 -0.448051,1.03125 -1.03125,1.03125 l -12,0 C 1.4168007,15.03125 0.96875,14.583199 0.96875,14 z"
       id="rect2835" />
  </g>
</svg>
