<svg xmlns="http://www.w3.org/2000/svg" width="32" height="32">
    <g transform="matrix(-.2 0 0 .2 164 -72.472)">
        <rect ry="0" y="362.362" x="660" height="160" width="160" style="opacity:0;fill:#8b9299;fill-opacity:1;stroke:none"/>
        <path transform="translate(0 52.362)" d="m 765.90625,322.12738 c -2.5307,0 -5.06085,0.96593 -7,2.90625 -3.87829,3.88065 -3.87829,10.11936 0,14 l 11.1875,11.1875 -85.09375,0 c -5.54,0 -10,4.42198 -10,9.9375 0,5.51552 4.46,9.96875 10,9.96875 l 85.0625,0 L 759,381.22113 c -3.8783,3.88065 -3.8783,10.11935 0,14 3.8783,3.88064 10.1217,3.88064 14,0 l 35,-35.03125 -0.125,-0.0937 0.0312,-0.0312 -35,-35.03125 c -1.93915,-1.94032 -4.4693,-2.90625 -7,-2.90625 z M 717.09375,382 c -2.5307,0 -5.06085,0.96593 -7,2.90625 l -35,35.03125 0.0312,0.0312 -0.125,0.0937 35,35.03125 c 3.8783,3.88064 10.1217,3.88064 14,0 3.8783,-3.88065 3.8783,-10.11935 0,-14 L 712.9375,430 798,430 c 5.54,0 10,-4.45323 10,-9.96875 0,-5.51552 -4.46,-9.9375 -10,-9.9375 l -85.09375,0 11.1875,-11.1875 c 3.87829,-3.88064 3.87829,-10.11935 0,-14 -1.93915,-1.94032 -4.4693,-2.90625 -7,-2.90625 z" style="color:#000;fill:#bebebe;fill-opacity:1"/>
    </g>
</svg>
