<svg height="16" width="16" xmlns="http://www.w3.org/2000/svg"><title>Gnome Symbolic Icon Theme</title><g fill="#bebebe"><path d="M4.183 0C2.385 0 1.03 1.338 1.03 3v10c0 1.662 1.355 3 3.153 3h7.572C13.553 16 15 14.662 15 13V6.41L13.024 9.29V13c0 .554-.482 1-1.082 1H4.026c-.6 0-1.02-.446-1.02-1V3c0-.554.42-1 1.02-1h7.66l1.32-1.75a3.577 3.577 0 0 0-1.25-.25z"/><path d="M14.04 1.03S11.52 4.538 10 7L8.594 8.167l.038 1.574-.764 1.246h.696l.74-.584 1.675-.462.594-1.48 4.185-6.366z" style="text-indent:0;text-align:start;line-height:normal;text-transform:none;block-progression:tb;-inkscape-font-specification:Sans" font-weight="400" color="#000" overflow="visible" font-family="Sans"/></g></svg>