<?xml version="1.0" encoding="UTF-8" standalone="no"?>
<!-- Created with Inkscape (http://www.inkscape.org/) -->

<svg
   xmlns:dc="http://purl.org/dc/elements/1.1/"
   xmlns:cc="http://creativecommons.org/ns#"
   xmlns:rdf="http://www.w3.org/1999/02/22-rdf-syntax-ns#"
   xmlns:svg="http://www.w3.org/2000/svg"
   xmlns="http://www.w3.org/2000/svg"
   xmlns:xlink="http://www.w3.org/1999/xlink"
   xmlns:sodipodi="http://sodipodi.sourceforge.net/DTD/sodipodi-0.dtd"
   xmlns:inkscape="http://www.inkscape.org/namespaces/inkscape"
   width="22"
   height="22"
   id="svg2"
   sodipodi:version="0.32"
   inkscape:version="0.48.0 r9654"
   version="1.0"
   sodipodi:docname="available.svg"
   inkscape:output_extension="org.inkscape.output.svg.inkscape"
   style="display:inline">
  <defs
     id="defs4">
    <linearGradient
       inkscape:collect="always"
       id="linearGradient3327">
      <stop
         style="stop-color:#000000;stop-opacity:1;"
         offset="0"
         id="stop3330" />
      <stop
         style="stop-color:#000000;stop-opacity:0;"
         offset="1"
         id="stop3333" />
    </linearGradient>
    <linearGradient
       inkscape:collect="always"
       xlink:href="#linearGradient3327"
       id="linearGradient3335"
       x1="11.375"
       y1="22"
       x2="11.375"
       y2="-9.817296"
       gradientUnits="userSpaceOnUse" />
    <linearGradient
       inkscape:collect="always"
       xlink:href="#linearGradient2841"
       id="linearGradient3181"
       x1="-3.0607977"
       y1="27.258198"
       x2="-3.0607977"
       y2="7.2536583"
       gradientUnits="userSpaceOnUse"
       gradientTransform="translate(11.119372,-6.2581977)" />
    <inkscape:perspective
       sodipodi:type="inkscape:persp3d"
       inkscape:vp_x="0 : 11 : 1"
       inkscape:vp_y="0 : 1000 : 0"
       inkscape:vp_z="22 : 11 : 1"
       inkscape:persp3d-origin="11 : 7.3333333 : 1"
       id="perspective2531" />
    <linearGradient
       id="ButtonShadow"
       gradientTransform="scale(0.9883037,1.0118347)"
       x1="9.3550024"
       y1="21.742682"
       x2="9.3550024"
       y2="0.49362123"
       gradientUnits="userSpaceOnUse">
      <stop
         id="stop3277"
         offset="0"
         style="stop-color:#000000;stop-opacity:0.70588237;" />
      <stop
         id="stop3279"
         offset="1"
         style="stop-color:#000000;stop-opacity:0.15686275;" />
    </linearGradient>
    <linearGradient
       inkscape:collect="always"
       id="linearGradient3232">
      <stop
         style="stop-color:#000000;stop-opacity:1;"
         offset="0"
         id="stop3234" />
      <stop
         style="stop-color:#000000;stop-opacity:0;"
         offset="1"
         id="stop3236" />
    </linearGradient>
    <linearGradient
       gradientUnits="userSpaceOnUse"
       y2="-6.0004225"
       x2="11"
       y1="14.805666"
       x1="11"
       id="linearGradient3221"
       xlink:href="#linearGradient3232"
       inkscape:collect="always" />
    <linearGradient
       id="ButtonColor"
       x1="10.31979"
       y1="21"
       x2="10.31979"
       y2="0.99929649"
       gradientUnits="userSpaceOnUse">
      <stop
         style="stop-color:#29669f;stop-opacity:1;"
         offset="0"
         id="stop3189" />
      <stop
         style="stop-color:#88b6e0;stop-opacity:1;"
         offset="1"
         id="stop3191" />
    </linearGradient>
    <linearGradient
       inkscape:collect="always"
       xlink:href="#ButtonShadow"
       id="linearGradient38042"
       gradientUnits="userSpaceOnUse"
       gradientTransform="scale(0.9883037,1.0118347)"
       x1="9.3550024"
       y1="21.742682"
       x2="9.3550024"
       y2="0.49362123" />
    <clipPath
       clipPathUnits="userSpaceOnUse"
       id="clipPath2849">
      <rect
         ry="2"
         rx="2"
         y="1"
         x="1"
         height="20"
         width="20"
         id="rect2851"
         style="fill:#ffffff;fill-opacity:1;fill-rule:evenodd;stroke:none;display:inline" />
    </clipPath>
    <inkscape:perspective
       id="perspective3799"
       inkscape:persp3d-origin="0.5 : 0.33333333 : 1"
       inkscape:vp_z="1 : 0.5 : 1"
       inkscape:vp_y="0 : 1000 : 0"
       inkscape:vp_x="0 : 0.5 : 1"
       sodipodi:type="inkscape:persp3d" />
    <linearGradient
       inkscape:collect="always"
       xlink:href="#linearGradient2841"
       id="linearGradient3617"
       gradientUnits="userSpaceOnUse"
       x1="48"
       y1="90"
       x2="48"
       y2="5.9877172" />
    <linearGradient
       id="linearGradient2841">
      <stop
         id="stop2843"
         offset="0"
         style="stop-color:#d4530d;stop-opacity:1" />
      <stop
         id="stop2845"
         offset="1"
         style="stop-color:#f7ad25;stop-opacity:1" />
    </linearGradient>
    <linearGradient
       gradientTransform="translate(-76,-35)"
       y2="5.9877172"
       x2="48"
       y1="90"
       x1="48"
       gradientUnits="userSpaceOnUse"
       id="linearGradient3808"
       xlink:href="#linearGradient2841"
       inkscape:collect="always" />
    <inkscape:perspective
       id="perspective3838"
       inkscape:persp3d-origin="0.5 : 0.33333333 : 1"
       inkscape:vp_z="1 : 0.5 : 1"
       inkscape:vp_y="0 : 1000 : 0"
       inkscape:vp_x="0 : 0.5 : 1"
       sodipodi:type="inkscape:persp3d" />
    <linearGradient
       inkscape:collect="always"
       xlink:href="#linearGradient2841"
       id="linearGradient3658"
       gradientUnits="userSpaceOnUse"
       gradientTransform="translate(-18.880628,-4.2581977)"
       x1="-3.0607977"
       y1="27.258198"
       x2="-3.0607977"
       y2="7.2536583" />
    <clipPath
       clipPathUnits="userSpaceOnUse"
       id="clipPath3663">
      <path
         style="fill:#ff00ff;fill-opacity:1;fill-rule:evenodd;stroke:none;display:inline"
         d="m -27,1 c -1.108,0 -2,0.892 -2,2 l 0,16 c 0,1.108 0.892,2 2,2 l 16,0 c 1.108,0 2,-0.892 2,-2 L -9,3 C -9,1.892 -9.892,1 -11,1 l -16,0 z m 0,2 a 16,16 0 0 1 16,16 l -3.1875,0 A 12.8,12.8 0 0 0 -27,6.1875 L -27,3 z m 0,5.40625 A 10.605714,10.605714 0 0 1 -16.40625,19 L -19.5,19 A 7.4971427,7.4971427 0 0 0 -27,11.5 l 0,-3.09375 z m 2.1875,6.21875 c 1.211871,0 2.1875,0.97563 2.1875,2.1875 0,1.211871 -0.975629,2.1875 -2.1875,2.1875 C -26.02437,19 -27,18.024371 -27,16.8125 c 0,-1.21187 0.97563,-2.1875 2.1875,-2.1875 z"
         id="path3665" />
    </clipPath>
    <linearGradient
       inkscape:collect="always"
       xlink:href="#linearGradient2841"
       id="linearGradient3679"
       gradientUnits="userSpaceOnUse"
       gradientTransform="translate(11.119372,-6.2581977)"
       x1="-3.0607977"
       y1="27.258198"
       x2="-3.0607977"
       y2="7.2536583" />
    <inkscape:perspective
       id="perspective2910"
       inkscape:persp3d-origin="0.5 : 0.33333333 : 1"
       inkscape:vp_z="1 : 0.5 : 1"
       inkscape:vp_y="0 : 1000 : 0"
       inkscape:vp_x="0 : 0.5 : 1"
       sodipodi:type="inkscape:persp3d" />
    <linearGradient
       inkscape:collect="always"
       xlink:href="#linearGradient4081"
       id="linearGradient3527"
       gradientUnits="userSpaceOnUse"
       gradientTransform="translate(1,0)"
       x1="6.8391123"
       y1="16.300354"
       x2="6.8391123"
       y2="6.0528178" />
    <linearGradient
       id="linearGradient4081">
      <stop
         style="stop-color:#aaaaaa;stop-opacity:1;"
         offset="0"
         id="stop4083" />
      <stop
         style="stop-color:#f0f0f0;stop-opacity:1;"
         offset="1"
         id="stop4085" />
    </linearGradient>
    <linearGradient
       y2="6.0528178"
       x2="6.8391123"
       y1="16.300354"
       x1="6.8391123"
       gradientTransform="translate(-30,0)"
       gradientUnits="userSpaceOnUse"
       id="linearGradient2919"
       xlink:href="#linearGradient4081"
       inkscape:collect="always" />
    <linearGradient
       inkscape:collect="always"
       xlink:href="#linearGradient4081"
       id="linearGradient3660"
       x1="12"
       y1="18"
       x2="12"
       y2="3.9643312"
       gradientUnits="userSpaceOnUse" />
    <linearGradient
       inkscape:collect="always"
       xlink:href="#linearGradient4081-2"
       id="linearGradient3660-2"
       x1="12"
       y1="18"
       x2="12"
       y2="3.9643312"
       gradientUnits="userSpaceOnUse" />
    <linearGradient
       id="linearGradient4081-2">
      <stop
         style="stop-color:#bebebe;stop-opacity:1;"
         offset="0"
         id="stop4083-8" />
      <stop
         style="stop-color:#f5f5f5;stop-opacity:1;"
         offset="1"
         id="stop4085-0" />
    </linearGradient>
  </defs>
  <sodipodi:namedview
     id="base"
     pagecolor="#ffffff"
     bordercolor="#e7e7e7"
     borderopacity="1"
     inkscape:pageopacity="0.0"
     inkscape:pageshadow="2"
     inkscape:zoom="13.291248"
     inkscape:cx="-35.152434"
     inkscape:cy="4.7173331"
     inkscape:document-units="px"
     inkscape:current-layer="layer3"
     showgrid="true"
     inkscape:showpageshadow="false"
     showguides="false"
     inkscape:guide-bbox="true"
     inkscape:window-width="1920"
     inkscape:window-height="1026"
     inkscape:window-x="0"
     inkscape:window-y="25"
     inkscape:window-maximized="1">
    <sodipodi:guide
       orientation="1,0"
       position="0,112"
       id="guide2383" />
    <sodipodi:guide
       orientation="0,1"
       position="26.278146,128"
       id="guide2385" />
    <sodipodi:guide
       orientation="1,0"
       position="128,54.082119"
       id="guide2387" />
    <sodipodi:guide
       orientation="0,1"
       position="78.156291,0"
       id="guide2389" />
    <sodipodi:guide
       orientation="0,1"
       position="60.863576,64.084768"
       id="guide2391" />
    <inkscape:grid
       type="xygrid"
       id="grid3672"
       visible="true"
       enabled="true"
       empspacing="8"
       snapvisiblegridlinesonly="true" />
  </sodipodi:namedview>
  <metadata
     id="metadata7">
    <rdf:RDF>
      <cc:Work
         rdf:about="">
        <dc:format>image/svg+xml</dc:format>
        <dc:type
           rdf:resource="http://purl.org/dc/dcmitype/StillImage" />
      </cc:Work>
    </rdf:RDF>
  </metadata>
  <g
     inkscape:groupmode="layer"
     id="layer3"
     inkscape:label="Symbol">
    <path
       sodipodi:type="inkscape:offset"
       inkscape:radius="1.0072221"
       inkscape:original="M 4 4 L 4 6.8125 C 10.017284 6.637345 15.294928 12.103789 15.21875 18 L 18 18 C 18.149607 10.465521 11.539155 3.8512925 4 4 z M 4 8.71875 L 4 11.4375 C 7.5917018 11.288016 10.604154 14.653374 10.65625 18 L 13.28125 18 C 13.381154 13.00481 8.9982957 8.6194438 4 8.71875 z M 5.90625 14.15625 C 4.6929194 14.116477 3.7255441 15.407329 4.0625 16.5625 C 4.3122863 17.702904 5.7199575 18.344261 6.75 17.8125 C 7.7936885 17.366049 8.1725748 15.916561 7.5 15 C 7.1474801 14.474266 6.5414369 14.15155 5.90625 14.15625 z "
       style="opacity:0.25;fill:#000000;fill-opacity:1;display:inline"
       id="path3674"
       d="M 3.875,3 A 1.0073228,1.0073228 0 0 0 3,4 L 3,6.8125 A 1.0073228,1.0073228 0 0 0 3.65625,7.75 1.0073228,1.0073228 0 0 0 3,8.71875 l 0,2.71875 a 1.0073228,1.0073228 0 0 0 1.03125,1 c 1.0346446,-0.04306 1.9862021,0.394982 2.84375,0.96875 -0.3064779,-0.109561 -0.6022479,-0.248877 -0.9375,-0.25 -0.010477,-3.5e-5 -0.020757,-7.8e-5 -0.03125,0 -1.9056245,-0.04107 -3.2980596,1.808702 -2.8125,3.625 0.0056,0.02095 -0.00611,0.04156 0,0.0625 l 0.03125,0 c 0.4345443,1.76465 2.4086718,2.69343 4.03125,1.90625 0.011928,-0.0058 0.019363,-0.02528 0.03125,-0.03125 0.00803,-0.0036 0.023273,0.0037 0.03125,0 1.3516518,-0.619133 1.8726563,-2.163245 1.4375,-3.5 0.5592241,0.875991 0.9848651,1.840242 1,2.8125 a 1.0073228,1.0073228 0 0 0 1,0.96875 l 2.625,0 A 1.0073228,1.0073228 0 0 0 14.25,18.28125 1.0073228,1.0073228 0 0 0 15.21875,19 L 18,19 a 1.0073228,1.0073228 0 0 0 1,-0.96875 C 19.16153,9.8962905 12.10827,2.8394505 3.96875,3 A 1.0073228,1.0073228 0 0 0 3.875,3 z" />
    <path
       inkscape:connector-curvature="0"
       style="fill:url(#linearGradient3660-2);fill-opacity:1;display:inline"
       d="m 4,4.0000001 0,2.8 A 11.2,11.2 0 0 1 15.2,18 L 18,18 A 14,14 0 0 0 4,4.0000001 z M 4,8.7200004 4,11.44 A 6.5599999,6.5599999 0 0 1 10.56,18 l 2.72,0 A 9.2799998,9.2799998 0 0 0 4,8.7200004 z M 5.9199998,14.16 C 4.8596131,14.16 4,15.019614 4,16.08 4,17.140387 4.8596131,18 5.9199998,18 c 1.0603867,0 1.9200003,-0.859613 1.9200003,-1.92 0,-1.060386 -0.8596136,-1.92 -1.9200003,-1.92 z"
       id="circle3643" />
    <path
       inkscape:connector-curvature="0"
       style="opacity:0.6;fill:#ffffff;fill-opacity:1;display:inline"
       d="m 4,4.0000001 0,1 A 14,14 0 0 1 17.96875,18 L 18,18 A 14,14 0 0 0 4,4.0000001 z m 0,4.71875 0,1 A 9.2799998,9.2799998 0 0 1 13.21875,18 l 0.0625,0 A 9.2799998,9.2799998 0 0 0 4,8.7187501 z M 5.90625,14.15625 C 4.8458633,14.15625 4,15.033364 4,16.09375 c 0,0.168346 0.021804,0.313161 0.0625,0.46875 0.2256107,-0.809456 0.9623519,-1.40625 1.84375,-1.40625 0.8813981,0 1.6493892,0.596794 1.875,1.40625 0.040696,-0.155589 0.0625,-0.300404 0.0625,-0.46875 0,-1.060386 -0.8771133,-1.9375 -1.9375,-1.9375 z"
       id="path3662" />
    <path
       inkscape:connector-curvature="0"
       style="opacity:0.45;fill:#000000;fill-opacity:1;display:inline"
       d="m 4,6.8125001 0,1 A 11.2,11.2 0 0 1 15.1875,19 L 18,19 A 14,14 0 0 0 17.96875,18 L 15.1875,18 A 11.2,11.2 0 0 0 4,6.8125001 z m 0,4.6249999 0,1 A 6.5599999,6.5599999 0 0 1 10.5625,19 l 2.71875,0 a 9.2799998,9.2799998 0 0 0 -0.0625,-1 L 10.5625,18 A 6.5599999,6.5599999 0 0 0 4,11.4375 z m 0.0625,5.125 C 4.016684,16.726879 4,16.914761 4,17.09375 4,18.154137 4.8458633,19 5.90625,19 c 1.0603867,0 1.9375,-0.845863 1.9375,-1.90625 0,-0.178989 -0.016684,-0.366871 -0.0625,-0.53125 C 7.5656086,17.386943 6.7982906,18 5.90625,18 5.0142094,18 4.2781413,17.386943 4.0625,16.5625 z"
       id="path4967" />
  </g>
</svg>
