<?xml version="1.0" encoding="UTF-8" standalone="no"?>
<!-- Created with Inkscape (http://www.inkscape.org/) -->

<svg
   xmlns:dc="http://purl.org/dc/elements/1.1/"
   xmlns:cc="http://creativecommons.org/ns#"
   xmlns:rdf="http://www.w3.org/1999/02/22-rdf-syntax-ns#"
   xmlns:svg="http://www.w3.org/2000/svg"
   xmlns="http://www.w3.org/2000/svg"
   xmlns:xlink="http://www.w3.org/1999/xlink"
   xmlns:sodipodi="http://sodipodi.sourceforge.net/DTD/sodipodi-0.dtd"
   xmlns:inkscape="http://www.inkscape.org/namespaces/inkscape"
   width="22"
   height="22"
   id="svg2"
   sodipodi:version="0.32"
   inkscape:version="0.48.0 r9654"
   version="1.0"
   sodipodi:docname="system-shutdown-restart-panel.svg"
   inkscape:output_extension="org.inkscape.output.svg.inkscape"
   style="display:inline">
  <defs
     id="defs4">
    <inkscape:perspective
       sodipodi:type="inkscape:persp3d"
       inkscape:vp_x="0 : 11 : 1"
       inkscape:vp_y="0 : 1000 : 0"
       inkscape:vp_z="22 : 11 : 1"
       inkscape:persp3d-origin="11 : 7.3333333 : 1"
       id="perspective29" />
    <linearGradient
       id="linearGradient4081">
      <stop
         style="stop-color:#aaaaaa;stop-opacity:1;"
         offset="0"
         id="stop4083" />
      <stop
         style="stop-color:#ebebeb;stop-opacity:1;"
         offset="1"
         id="stop4085" />
    </linearGradient>
    <linearGradient
       inkscape:collect="always"
       xlink:href="#linearGradient4081"
       id="linearGradient3527"
       gradientUnits="userSpaceOnUse"
       gradientTransform="translate(-39,0)"
       x1="6.8391123"
       y1="16.300354"
       x2="6.8391123"
       y2="6.0528178" />
    <linearGradient
       inkscape:collect="always"
       xlink:href="#linearGradient4081"
       id="linearGradient3538"
       gradientUnits="userSpaceOnUse"
       gradientTransform="translate(-39,0)"
       x1="16.5"
       y1="19.542921"
       x2="16.5"
       y2="2.5" />
    <linearGradient
       inkscape:collect="always"
       xlink:href="#linearGradient4081"
       id="linearGradient3540"
       gradientUnits="userSpaceOnUse"
       gradientTransform="translate(-39,0)"
       x1="14.524625"
       y1="17.41902"
       x2="14.524625"
       y2="4.625" />
    <linearGradient
       inkscape:collect="always"
       xlink:href="#linearGradient4081"
       id="linearGradient3542"
       gradientUnits="userSpaceOnUse"
       gradientTransform="translate(-39,0)"
       x1="10.50519"
       y1="15.28125"
       x2="10.50519"
       y2="6.7458849" />
    <linearGradient
       inkscape:collect="always"
       xlink:href="#linearGradient4081"
       id="linearGradient3266"
       x1="9"
       y1="4.5"
       x2="14"
       y2="4.5"
       gradientUnits="userSpaceOnUse"
       gradientTransform="matrix(0,-1,1,0,6,16)" />
    <linearGradient
       inkscape:collect="always"
       xlink:href="#linearGradient4081"
       id="linearGradient3274"
       x1="11.984375"
       y1="20"
       x2="11.984375"
       y2="7.96875"
       gradientUnits="userSpaceOnUse" />
    <linearGradient
       inkscape:collect="always"
       xlink:href="#linearGradient4081"
       id="linearGradient3280"
       gradientUnits="userSpaceOnUse"
       gradientTransform="matrix(0,-1,1,0,7,16)"
       x1="9"
       y1="4.5"
       x2="14"
       y2="4.5" />
    <linearGradient
       inkscape:collect="always"
       xlink:href="#linearGradient4081"
       id="linearGradient3287"
       gradientUnits="userSpaceOnUse"
       gradientTransform="matrix(0,-1,1,0,7,16)"
       x1="9"
       y1="4.5"
       x2="14"
       y2="4.5" />
    <linearGradient
       inkscape:collect="always"
       xlink:href="#linearGradient4081"
       id="linearGradient3293"
       gradientUnits="userSpaceOnUse"
       x1="11.984375"
       y1="20"
       x2="11.984375"
       y2="7.96875"
       gradientTransform="translate(-1,0)" />
    <linearGradient
       inkscape:collect="always"
       xlink:href="#linearGradient4081"
       id="linearGradient3180"
       x1="-13"
       y1="17.008953"
       x2="-13"
       y2="-0.70032859"
       gradientUnits="userSpaceOnUse" />
    <linearGradient
       inkscape:collect="always"
       xlink:href="#SpecificGradient"
       id="linearGradient3196"
       x1="6"
       y1="1"
       x2="6"
       y2="14"
       gradientUnits="userSpaceOnUse"
       gradientTransform="translate(3.8611607,-2.0000001)" />
    <inkscape:perspective
       id="perspective2918"
       inkscape:persp3d-origin="0.5 : 0.33333333 : 1"
       inkscape:vp_z="1 : 0.5 : 1"
       inkscape:vp_y="0 : 1000 : 0"
       inkscape:vp_x="0 : 0.5 : 1"
       sodipodi:type="inkscape:persp3d" />
    <linearGradient
       inkscape:collect="always"
       xlink:href="#linearGradient3183"
       id="linearGradient7193"
       gradientUnits="userSpaceOnUse"
       gradientTransform="matrix(0,-0.8456457,0.8456457,0,5.6846841,23.700311)"
       x1="11"
       y1="11.015625"
       x2="19"
       y2="11.015625" />
    <linearGradient
       id="linearGradient3183">
      <stop
         style="stop-color:#c80000;stop-opacity:1;"
         offset="0"
         id="stop3185" />
      <stop
         style="stop-color:#f3604d;stop-opacity:1;"
         offset="1"
         id="stop3187" />
    </linearGradient>
    <linearGradient
       y2="11.015625"
       x2="19"
       y1="11.015625"
       x1="11"
       gradientTransform="matrix(0,-0.8456457,0.8456457,0,-27.454155,15.700311)"
       gradientUnits="userSpaceOnUse"
       id="linearGradient2927"
       xlink:href="#linearGradient3183"
       inkscape:collect="always" />
    <linearGradient
       inkscape:collect="always"
       xlink:href="#linearGradient3183"
       id="linearGradient3634"
       x1="7"
       y1="11"
       x2="15"
       y2="11"
       gradientUnits="userSpaceOnUse" />
    <linearGradient
       inkscape:collect="always"
       xlink:href="#linearGradient4081"
       id="linearGradient3882"
       gradientUnits="userSpaceOnUse"
       gradientTransform="translate(3,4)"
       x1="10.568904"
       y1="14"
       x2="10.568904"
       y2="0.9765659" />
    <linearGradient
       inkscape:collect="always"
       xlink:href="#linearGradient4081"
       id="linearGradient3886"
       gradientUnits="userSpaceOnUse"
       gradientTransform="translate(3.8611607,-2.0000001)"
       x1="10.568904"
       y1="14"
       x2="10.568904"
       y2="0.9765659" />
    <linearGradient
       inkscape:collect="always"
       xlink:href="#SpecificGradient"
       id="linearGradient4411"
       gradientUnits="userSpaceOnUse"
       x1="10.761708"
       y1="3.9999998"
       x2="10.761708"
       y2="18.011395" />
    <linearGradient
       id="SpecificGradient">
      <stop
         style="stop-color:#f3604d;stop-opacity:1;"
         offset="0"
         id="stop3185-7" />
      <stop
         style="stop-color:#c81700;stop-opacity:1;"
         offset="1"
         id="stop3187-4" />
    </linearGradient>
    <linearGradient
       gradientTransform="translate(-22.138839,6.0000001)"
       y2="18.011395"
       x2="10.761708"
       y1="3.9999998"
       x1="10.761708"
       gradientUnits="userSpaceOnUse"
       id="linearGradient3018"
       xlink:href="#SpecificGradient"
       inkscape:collect="always" />
  </defs>
  <sodipodi:namedview
     id="base"
     pagecolor="#ffffff"
     bordercolor="#e7e7e7"
     borderopacity="1"
     inkscape:pageopacity="0.0"
     inkscape:pageshadow="2"
     inkscape:zoom="19.792055"
     inkscape:cx="-8.1673966"
     inkscape:cy="4.9386027"
     inkscape:document-units="px"
     inkscape:current-layer="layer1"
     showgrid="true"
     inkscape:showpageshadow="false"
     showguides="false"
     inkscape:guide-bbox="true"
     inkscape:window-width="1920"
     inkscape:window-height="1029"
     inkscape:window-x="0"
     inkscape:window-y="25"
     inkscape:window-maximized="1">
    <sodipodi:guide
       orientation="1,0"
       position="0,112"
       id="guide2383" />
    <sodipodi:guide
       orientation="0,1"
       position="26.278146,128"
       id="guide2385" />
    <sodipodi:guide
       orientation="1,0"
       position="128,54.082119"
       id="guide2387" />
    <sodipodi:guide
       orientation="0,1"
       position="78.156291,0"
       id="guide2389" />
    <sodipodi:guide
       orientation="0,1"
       position="60.863576,64.084768"
       id="guide2391" />
    <inkscape:grid
       type="xygrid"
       id="grid3672"
       visible="true"
       enabled="true"
       empspacing="8"
       snapvisiblegridlinesonly="true" />
  </sodipodi:namedview>
  <metadata
     id="metadata7">
    <rdf:RDF>
      <cc:Work
         rdf:about="">
        <dc:format>image/svg+xml</dc:format>
        <dc:type
           rdf:resource="http://purl.org/dc/dcmitype/StillImage" />
      </cc:Work>
    </rdf:RDF>
  </metadata>
  <g
     inkscape:label="Icon"
     inkscape:groupmode="layer"
     id="layer1"
     style="display:inline"
     transform="translate(-0.8611607,5.0000001)">
    <path
       id="path3198"
       d="m 11.361161,-1.0000001 c -0.277,0 -0.5,0.223 -0.5,0.5 l 0,5 c 0,0.277 0.223,0.5000001 0.5,0.5 l 1,0 c 0.277,0 0.5,-0.2229999 0.5,-0.5 l 0,-5 c 0,-0.277 -0.223,-0.5 -0.5,-0.5 l -1,0 z m -1.5000003,1.34375 c -2.3307785,0.8236389 -4,3.0446 -4,5.65625 C 5.8611607,9.312 8.5491609,12 11.861161,12 c 3.312,0 6,-2.688 6,-6.0000001 0,-2.61165 -1.669221,-4.8326111 -4,-5.65625 l 0,2.21875 c 1.193787,0.6923393 2,1.9590541 2,3.4375 0,2.2080001 -1.792,4.0000001 -4,4.0000001 -2.2080002,0 -4.0000003,-1.792 -4.0000003,-4.0000001 0,-1.4784461 0.8062133,-2.7451607 2,-3.4375 l 0,-2.21875 z"
       style="opacity:0.1;fill:#000000;fill-opacity:1;fill-rule:nonzero;stroke:#000000;stroke-width:2;stroke-linecap:square;stroke-linejoin:round;stroke-miterlimit:4;stroke-opacity:1;stroke-dasharray:none;stroke-dashoffset:0" />
    <path
       style="fill:url(#linearGradient3196);fill-opacity:1;fill-rule:nonzero;stroke:none"
       d="m 11.361161,-1.0000001 c -0.277,0 -0.5,0.223 -0.5,0.5 l 0,5 c 0,0.277 0.223,0.5000001 0.5,0.5 l 1,0 c 0.277,0 0.5,-0.2229999 0.5,-0.5 l 0,-5 c 0,-0.277 -0.223,-0.5 -0.5,-0.5 l -1,0 z m -1.5000003,1.34375 c -2.3307785,0.8236389 -4,3.0446 -4,5.65625 C 5.8611607,9.312 8.5491609,12 11.861161,12 c 3.312,0 6,-2.688 6,-6.0000001 0,-2.61165 -1.669221,-4.8326111 -4,-5.65625 l 0,2.21875 c 1.193787,0.6923393 2,1.9590541 2,3.4375 0,2.2080001 -1.792,4.0000001 -4,4.0000001 -2.2080002,0 -4.0000003,-1.792 -4.0000003,-4.0000001 0,-1.4784461 0.8062133,-2.7451607 2,-3.4375 l 0,-2.21875 z"
       id="path2401" />
    <path
       style="opacity:0.3;fill:#ffffff;fill-opacity:1;fill-rule:nonzero;stroke:none"
       d="m 11.361161,-1.0000001 c -0.277,0 -0.5,0.223 -0.5,0.5 l 0,1 c 0,-0.277 0.223,-0.5 0.5,-0.5 l 1,0 c 0.277,0 0.5,0.223 0.5,0.5 l 0,-1 c 0,-0.277 -0.223,-0.5 -0.5,-0.5 l -1,0 z m -1.5000003,1.34375 c -2.3307785,0.8236389 -4,3.0446 -4,5.65625 0,0.1863516 0.014598,0.380467 0.03125,0.5625 0.1748633,-2.4194859 1.7696061,-4.4416275 3.96875,-5.21875 l 0,-1 z m 4.0000003,0 0,1 c 2.199144,0.7771225 3.793887,2.7992641 3.96875,5.21875 0.01665,-0.182033 0.03125,-0.3761484 0.03125,-0.5625 0,-2.61165 -1.669221,-4.8326111 -4,-5.65625 z m -5.9687503,6.0625 c -0.030002,0.1962605 -0.03125,0.3883429 -0.03125,0.59375 C 7.8611607,9.208 9.6531608,11 11.861161,11 c 2.208,0 4,-1.792 4,-4.0000001 0,-0.205407 -0.0012,-0.3974895 -0.03125,-0.59375 C 15.625766,8.423307 13.931765,10 11.861161,10 9.7905564,10 8.0965556,8.423307 7.8924107,6.4062499 z"
       id="path3200" />
    <path
       style="fill:#000000;fill-opacity:1;fill-rule:nonzero;stroke:none;opacity:0.55"
       d="M 9 7.5625 C 7.8062133 8.2548393 7 9.5215539 7 11 C 7 11.137396 7.0177039 11.272408 7.03125 11.40625 C 7.2171891 10.189898 7.9720714 9.1586495 9 8.5625 L 9 7.5625 z M 13 7.5625 L 13 8.5625 C 14.027929 9.1586495 14.782811 10.189898 14.96875 11.40625 C 14.982296 11.272408 15 11.137396 15 11 C 15 9.5215541 14.193787 8.2548393 13 7.5625 z M 10 9.5 L 10 10.5 C 10 10.777 10.223 11 10.5 11 L 11.5 11 C 11.777 11 12 10.777 12 10.5 L 12 9.5 C 12 9.7770001 11.777 10 11.5 10 L 10.5 10 C 10.223 10 10 9.777 10 9.5 z M 5.03125 11.625 C 5.0235293 11.749575 5 11.873477 5 12 C 5 15.312 7.6879999 18 11 18 C 14.312 18 17 15.312 17 12 C 17 11.873477 16.976471 11.749575 16.96875 11.625 C 16.661309 14.649316 14.105 17 11 17 C 7.8949999 17 5.3386914 14.649316 5.03125 11.625 z "
       transform="translate(0.8611607,-5.0000001)"
       id="path3880" />
  </g>
</svg>
