<?xml version="1.0" encoding="UTF-8" standalone="no"?>
<!-- Created with Inkscape (http://www.inkscape.org/) -->

<svg
   xmlns:dc="http://purl.org/dc/elements/1.1/"
   xmlns:cc="http://creativecommons.org/ns#"
   xmlns:rdf="http://www.w3.org/1999/02/22-rdf-syntax-ns#"
   xmlns:svg="http://www.w3.org/2000/svg"
   xmlns="http://www.w3.org/2000/svg"
   xmlns:xlink="http://www.w3.org/1999/xlink"
   xmlns:sodipodi="http://sodipodi.sourceforge.net/DTD/sodipodi-0.dtd"
   xmlns:inkscape="http://www.inkscape.org/namespaces/inkscape"
   width="22"
   height="22"
   id="svg2"
   sodipodi:version="0.32"
   inkscape:version="0.48.0 r9654"
   version="1.0"
   sodipodi:docname="gnome-session-reboot.svg"
   inkscape:output_extension="org.inkscape.output.svg.inkscape"
   style="display:inline">
  <defs
     id="defs4">
    <linearGradient
       id="StandardGradient-1"
       gradientTransform="matrix(0.9984539,0,0,0.9984539,-0.0459776,0.05767558)"
       x1="10.710332"
       y1="1.9963325"
       x2="10.710332"
       y2="18.974037"
       gradientUnits="userSpaceOnUse">
      <stop
         style="stop-color:#000000;stop-opacity:0.86274511;"
         offset="0"
         id="stop3277-4" />
      <stop
         style="stop-color:#000000;stop-opacity:0.47058824;"
         offset="1"
         id="stop3279-3" />
    </linearGradient>
    <linearGradient
       inkscape:collect="always"
       xlink:href="#linearGradient4081"
       id="linearGradient3983"
       x1="1"
       y1="8"
       x2="15"
       y2="8"
       gradientUnits="userSpaceOnUse"
       gradientTransform="matrix(0,-1,-1,0,19.861161,14)" />
    <linearGradient
       inkscape:collect="always"
       xlink:href="#linearGradient4081"
       id="linearGradient3739"
       x1="11.86116"
       y1="12"
       x2="11.86116"
       y2="-1.0000001"
       gradientUnits="userSpaceOnUse" />
    <linearGradient
       id="linearGradient4081">
      <stop
         style="stop-color:#aaaaaa;stop-opacity:1;"
         offset="0"
         id="stop4083" />
      <stop
         style="stop-color:#ebebeb;stop-opacity:1;"
         offset="1"
         id="stop4085" />
    </linearGradient>
  </defs>
  <sodipodi:namedview
     id="base"
     pagecolor="#ffffff"
     bordercolor="#e7e7e7"
     borderopacity="1"
     inkscape:pageopacity="0.0"
     inkscape:pageshadow="2"
     inkscape:zoom="33.738966"
     inkscape:cx="-1.8990956"
     inkscape:cy="10.525739"
     inkscape:document-units="px"
     inkscape:current-layer="layer1"
     showgrid="true"
     inkscape:showpageshadow="false"
     showguides="false"
     inkscape:guide-bbox="true"
     inkscape:window-width="1920"
     inkscape:window-height="1029"
     inkscape:window-x="0"
     inkscape:window-y="25"
     inkscape:window-maximized="1">
    <sodipodi:guide
       orientation="1,0"
       position="0,112"
       id="guide2383" />
    <sodipodi:guide
       orientation="0,1"
       position="26.278146,128"
       id="guide2385" />
    <sodipodi:guide
       orientation="1,0"
       position="128,54.082119"
       id="guide2387" />
    <sodipodi:guide
       orientation="0,1"
       position="78.156291,0"
       id="guide2389" />
    <sodipodi:guide
       orientation="0,1"
       position="60.863576,64.084768"
       id="guide2391" />
    <inkscape:grid
       type="xygrid"
       id="grid3672"
       visible="true"
       enabled="true"
       empspacing="8"
       snapvisiblegridlinesonly="true" />
  </sodipodi:namedview>
  <metadata
     id="metadata7">
    <rdf:RDF>
      <cc:Work
         rdf:about="">
        <dc:format>image/svg+xml</dc:format>
        <dc:type
           rdf:resource="http://purl.org/dc/dcmitype/StillImage" />
        <dc:title></dc:title>
      </cc:Work>
    </rdf:RDF>
  </metadata>
  <g
     inkscape:label="Icon"
     inkscape:groupmode="layer"
     id="layer1"
     style="display:inline"
     transform="translate(-0.8611607,5.0000001)">
    <path
       style="opacity:0.25;color:#000000;fill:#000000;fill-opacity:1;fill-rule:nonzero;stroke:none;stroke-width:2;marker:none;visibility:visible;display:inline;overflow:visible;enable-background:accumulate"
       d="m 10.673661,-2.0000001 a 0.99736548,0.99736548 0 0 0 -0.8125003,1 l 0,2.15625 -1.5625,-1.53125 a 0.99736548,0.99736548 0 0 0 -1.40625,0 l -1.40625,1.40625 a 0.99736548,0.99736548 0 0 0 0,1.40625 l 1.53125,1.5625 -2.15625,0 a 0.99736548,0.99736548 0 0 0 -1,1 l 0,2 a 0.99736548,0.99736548 0 0 0 1,1.0000001 l 2.15625,0 -1.53125,1.5625 a 0.99736548,0.99736548 0 0 0 0,1.40625 l 1.40625,1.40625 a 0.99736548,0.99736548 0 0 0 1.40625,0 l 1.5625,-1.53125 0,2.15625 a 0.99736548,0.99736548 0 0 0 1.0000003,1 l 2,0 a 0.99736548,0.99736548 0 0 0 1,-1 l 0,-2.15625 1.5625,1.53125 a 0.99736548,0.99736548 0 0 0 1.40625,0 l 1.40625,-1.40625 a 0.99736548,0.99736548 0 0 0 0,-1.40625 L 16.704911,8 l 2.15625,0 a 0.99736548,0.99736548 0 0 0 1,-1.0000001 l 0,-2 a 0.99736548,0.99736548 0 0 0 -1,-1 l -2.15625,0 1.53125,-1.5625 a 0.99736548,0.99736548 0 0 0 0,-1.40625 l -1.40625,-1.40625 a 0.99736548,0.99736548 0 0 0 -1.40625,0 l -1.5625,1.53125 0,-2.15625 a 0.99736548,0.99736548 0 0 0 -1,-1 l -2,0 a 0.99736548,0.99736548 0 0 0 -0.09375,0 0.99736548,0.99736548 0 0 0 -0.09375,0 z m 0.1875,1 2,0 0,4 -2,0 0,-4 z m -3.2500003,1.34375 2.8437503,2.8125 -1.4375003,1.4375 -2.8125,-2.84375 1.40625,-1.40625 z m 8.5000003,0 1.40625,1.40625 -2.8125,2.84375 -1.4375,-1.4375 2.84375,-2.8125 z m -5.0625,3.65625 1.625,0 1.1875,1.1875 0,1.625 L 12.673661,8 l -1.625,0 -1.1875003,-1.1875001 0,-1.625 1.1875003,-1.1875 z m -6.1875003,1 4,0 0,2 -4,0 0,-2 z m 10.0000003,0 4,0 0,2 -4,0 0,-2 z M 9.0174107,7.40625 l 1.4375003,1.4375 -2.8437503,2.8125 -1.40625,-1.40625 2.8125,-2.84375 z m 5.6875003,0 2.8125,2.84375 -1.40625,1.40625 -2.84375,-2.8125 1.4375,-1.4375 z M 10.861161,9 l 2,0 0,4 -2,0 0,-4 z"
       id="path3840"
       inkscape:connector-curvature="0" />
    <path
       style="color:#000000;fill:url(#linearGradient3983);fill-opacity:1;fill-rule:nonzero;stroke:none;stroke-width:2;marker:none;visibility:visible;display:inline;overflow:visible;enable-background:accumulate"
       d="m 10.861161,13 0,-4 2,0 0,4 -2,0 z M 7.6111607,11.65625 6.2049107,10.25 l 2.8125,-2.84375 1.4375003,1.4375 -2.8437503,2.8125 z m 8.5000003,0 -2.84375,-2.8125 1.4375,-1.4375 2.8125,2.84375 -1.40625,1.40625 z M 4.8611607,7 l 0,-2 4,0 0,2 -4,0 z m 10.0000003,0 0,-2 4,0 0,2 -4,0 z m -5.8437503,-2.4062501 -2.8125,-2.84375 1.40625,-1.40625 2.8437503,2.8125 -1.4375003,1.4375 z m 5.6875003,0 -1.4375,-1.4375 2.84375,-2.8125 1.40625,1.40625 -2.8125,2.84375 z m -3.84375,-1.59375 0,-4 2,0 0,4 -2,0 z"
       id="rect3937"
       inkscape:connector-curvature="0" />
    <path
       style="opacity:0.6;color:#000000;fill:#ffffff;fill-opacity:1;fill-rule:nonzero;stroke:none;stroke-width:2;marker:none;visibility:visible;display:inline;overflow:visible;enable-background:accumulate"
       d="m 10.861161,-1.0000001 0,1 2,0 0,-1 -2,0 z m -3.2500003,1.34375 -1.40625,1.40625 0.5,0.5 0.90625,-0.90625 2.34375,2.3125 0.5000003,-0.5 -2.8437503,-2.8125 z m 8.5000003,0 -2.84375,2.8125 0.5,0.5 2.34375,-2.3125 0.90625,0.90625 0.5,-0.5 -1.40625,-1.40625 z m -11.2500003,4.65625 0,1 4,0 0,-0.5625 -0.4375,-0.4375 -3.5625,0 z m 10.4375003,0 -0.4375,0.4375 0,0.5625 4,0 0,-1 -3.5625,0 z M 9.0174107,7.40625 l -0.15625,0.15625 0,0.4375 -0.4375,0 -2.21875,2.25 0.5,0.5 2.3125,-2.34375 0.9375,0.9375 0.5000003,-0.5 -1.4375003,-1.4375 z m 5.6875003,0 -1.4375,1.4375 0.5,0.5 0.9375,-0.9375 2.3125,2.34375 0.5,-0.5 -2.21875,-2.25 -0.4375,0 0,-0.4375 -0.15625,-0.15625 z M 10.861161,9 l 0,1 2,0 0,-1 -2,0 z"
       id="path3050"
       inkscape:connector-curvature="0" />
    <path
       style="opacity:0.45;color:#000000;fill:#000000;fill-opacity:1;fill-rule:nonzero;stroke:none;stroke-width:2;marker:none;visibility:visible;display:inline;overflow:visible;enable-background:accumulate"
       d="m 6.7049107,2.2499999 -0.5,0.5 2.21875,2.25 0.4375,0 0,0.4375 0.15625,0.15625 1.4375003,-1.4375 -0.5000003,-0.5 -0.9375,0.9375 -2.3125,-2.34375 z m 10.3125003,0 -2.3125,2.34375 -0.9375,-0.9375 -0.5,0.5 1.4375,1.4375 0.15625,-0.15625 0,-0.4375 0.4375,0 2.21875,-2.25 -0.5,-0.5 z m -6.15625,0.75 0,1 2,0 0,-1 -2,0 z m -6.0000003,4 0,1.0000001 3.5625,0 0.4375,-0.4375 0,-0.5625001 -4,0 z m 10.0000003,0 0,0.5625001 0.4375,0.4375 3.5625,0 0,-1.0000001 -4,0 z M 9.9549107,9.34375 l -2.34375,2.3125 -0.90625,-0.90625 -0.5,0.5 1.40625,1.40625 2.8437503,-2.8125 -0.5000003,-0.5 z m 3.8125003,0 -0.5,0.5 2.84375,2.8125 1.40625,-1.40625 -0.5,-0.5 -0.90625,0.90625 -2.34375,-2.3125 z M 10.861161,13 l 0,1 2,0 0,-1 -2,0 z"
       id="path3827"
       inkscape:connector-curvature="0" />
  </g>
</svg>
