<?xml version="1.0" encoding="UTF-8" standalone="no"?>
<!-- Created with Inkscape (http://www.inkscape.org/) -->

<svg
   xmlns:dc="http://purl.org/dc/elements/1.1/"
   xmlns:cc="http://creativecommons.org/ns#"
   xmlns:rdf="http://www.w3.org/1999/02/22-rdf-syntax-ns#"
   xmlns:svg="http://www.w3.org/2000/svg"
   xmlns="http://www.w3.org/2000/svg"
   xmlns:xlink="http://www.w3.org/1999/xlink"
   xmlns:sodipodi="http://sodipodi.sourceforge.net/DTD/sodipodi-0.dtd"
   xmlns:inkscape="http://www.inkscape.org/namespaces/inkscape"
   width="22"
   height="22"
   id="svg2"
   sodipodi:version="0.32"
   inkscape:version="0.48.0 r9654"
   version="1.0"
   sodipodi:docname="covergloobus-panel.svg"
   inkscape:output_extension="org.inkscape.output.svg.inkscape"
   style="display:inline">
  <defs
     id="defs4">
    <linearGradient
       id="linearGradient3295">
      <stop
         style="stop-color:#559829;stop-opacity:1;"
         offset="0"
         id="stop3297" />
      <stop
         style="stop-color:#86c837;stop-opacity:1;"
         offset="1"
         id="stop3299" />
    </linearGradient>
    <linearGradient
       id="linearGradient3287">
      <stop
         style="stop-color:#cd0000;stop-opacity:1;"
         offset="0"
         id="stop3289" />
      <stop
         style="stop-color:#e55300;stop-opacity:1;"
         offset="1"
         id="stop3291" />
    </linearGradient>
    <linearGradient
       id="linearGradient3279">
      <stop
         style="stop-color:#f08e00;stop-opacity:1;"
         offset="0"
         id="stop3281" />
      <stop
         style="stop-color:#ffd200;stop-opacity:1;"
         offset="1"
         id="stop3283" />
    </linearGradient>
    <linearGradient
       id="linearGradient3271">
      <stop
         style="stop-color:#395d93;stop-opacity:1;"
         offset="0"
         id="stop3273" />
      <stop
         style="stop-color:#6e92c7;stop-opacity:1;"
         offset="1"
         id="stop3275" />
    </linearGradient>
    <linearGradient
       inkscape:collect="always"
       id="linearGradient3327">
      <stop
         style="stop-color:#000000;stop-opacity:1;"
         offset="0"
         id="stop3330" />
      <stop
         style="stop-color:#000000;stop-opacity:0;"
         offset="1"
         id="stop3333" />
    </linearGradient>
    <linearGradient
       inkscape:collect="always"
       xlink:href="#linearGradient3327"
       id="linearGradient3335"
       x1="11.375"
       y1="22"
       x2="11.375"
       y2="-9.817296"
       gradientUnits="userSpaceOnUse" />
    <inkscape:perspective
       sodipodi:type="inkscape:persp3d"
       inkscape:vp_x="0 : 11 : 1"
       inkscape:vp_y="0 : 1000 : 0"
       inkscape:vp_z="22 : 11 : 1"
       inkscape:persp3d-origin="11 : 7.3333333 : 1"
       id="perspective102" />
    <linearGradient
       id="linearGradient4081">
      <stop
         style="stop-color:#aaaaaa;stop-opacity:1;"
         offset="0"
         id="stop4083" />
      <stop
         style="stop-color:#f0f0f0;stop-opacity:1;"
         offset="1"
         id="stop4085" />
    </linearGradient>
    <linearGradient
       id="linearGradient4057">
      <stop
         style="stop-color:#816647;stop-opacity:1;"
         offset="0"
         id="stop4059" />
      <stop
         style="stop-color:#a6845d;stop-opacity:1;"
         offset="1"
         id="stop4061" />
    </linearGradient>
    <linearGradient
       id="linearGradient3929">
      <stop
         style="stop-color:#000000;stop-opacity:1;"
         offset="0"
         id="stop3931" />
      <stop
         style="stop-color:#000000;stop-opacity:0;"
         offset="1"
         id="stop3933" />
    </linearGradient>
    <linearGradient
       inkscape:collect="always"
       xlink:href="#linearGradient3929"
       id="linearGradient4051"
       x1="9.494998"
       y1="15.516565"
       x2="9.494998"
       y2="-4.1786065"
       gradientUnits="userSpaceOnUse" />
    <linearGradient
       inkscape:collect="always"
       xlink:href="#linearGradient4057"
       id="linearGradient4063"
       x1="9.17138"
       y1="21.000002"
       x2="9.17138"
       y2="0.97239029"
       gradientUnits="userSpaceOnUse" />
    <linearGradient
       inkscape:collect="always"
       xlink:href="#linearGradient4081"
       id="linearGradient4089"
       x1="6.101758"
       y1="154.58195"
       x2="6.101758"
       y2="36.995476"
       gradientUnits="userSpaceOnUse" />
    <linearGradient
       inkscape:collect="always"
       xlink:href="#linearGradient4081"
       id="linearGradient4103"
       gradientUnits="userSpaceOnUse"
       x1="6.101758"
       y1="154.58195"
       x2="6.101758"
       y2="36.995476" />
    <linearGradient
       inkscape:collect="always"
       xlink:href="#linearGradient4081"
       id="linearGradient4105"
       gradientUnits="userSpaceOnUse"
       x1="6.101758"
       y1="154.58195"
       x2="6.101758"
       y2="36.995476" />
    <linearGradient
       inkscape:collect="always"
       xlink:href="#linearGradient4081"
       id="linearGradient4107"
       gradientUnits="userSpaceOnUse"
       x1="6.101758"
       y1="154.58195"
       x2="6.101758"
       y2="36.995476" />
    <linearGradient
       inkscape:collect="always"
       xlink:href="#linearGradient4081"
       id="linearGradient4109"
       gradientUnits="userSpaceOnUse"
       x1="6.101758"
       y1="154.58195"
       x2="6.101758"
       y2="36.995476" />
    <linearGradient
       inkscape:collect="always"
       xlink:href="#linearGradient4081"
       id="linearGradient4111"
       gradientUnits="userSpaceOnUse"
       x1="6.101758"
       y1="154.58195"
       x2="6.101758"
       y2="36.995476" />
    <linearGradient
       inkscape:collect="always"
       xlink:href="#linearGradient4081"
       id="linearGradient4113"
       gradientUnits="userSpaceOnUse"
       x1="6.101758"
       y1="154.58195"
       x2="6.101758"
       y2="36.995476" />
    <linearGradient
       inkscape:collect="always"
       xlink:href="#linearGradient4081"
       id="linearGradient4115"
       gradientUnits="userSpaceOnUse"
       x1="6.101758"
       y1="154.58195"
       x2="6.101758"
       y2="36.995476" />
    <linearGradient
       inkscape:collect="always"
       xlink:href="#linearGradient4081"
       id="linearGradient4117"
       gradientUnits="userSpaceOnUse"
       x1="6.101758"
       y1="154.58195"
       x2="6.101758"
       y2="36.995476" />
    <linearGradient
       inkscape:collect="always"
       xlink:href="#linearGradient4081"
       id="linearGradient4119"
       gradientUnits="userSpaceOnUse"
       x1="6.101758"
       y1="154.58195"
       x2="6.101758"
       y2="36.995476" />
    <linearGradient
       inkscape:collect="always"
       xlink:href="#linearGradient4081"
       id="linearGradient4121"
       gradientUnits="userSpaceOnUse"
       x1="6.101758"
       y1="154.58195"
       x2="6.101758"
       y2="36.995476" />
    <linearGradient
       inkscape:collect="always"
       xlink:href="#linearGradient4081"
       id="linearGradient4123"
       gradientUnits="userSpaceOnUse"
       x1="6.101758"
       y1="154.58195"
       x2="6.101758"
       y2="36.995476" />
    <linearGradient
       inkscape:collect="always"
       xlink:href="#linearGradient4081"
       id="linearGradient4125"
       gradientUnits="userSpaceOnUse"
       x1="6.101758"
       y1="154.58195"
       x2="6.101758"
       y2="36.995476" />
    <linearGradient
       inkscape:collect="always"
       xlink:href="#linearGradient4081"
       id="linearGradient4127"
       gradientUnits="userSpaceOnUse"
       x1="6.101758"
       y1="154.58195"
       x2="6.101758"
       y2="36.995476" />
    <linearGradient
       inkscape:collect="always"
       xlink:href="#linearGradient4081"
       id="linearGradient4129"
       gradientUnits="userSpaceOnUse"
       x1="6.101758"
       y1="154.58195"
       x2="6.101758"
       y2="36.995476" />
    <linearGradient
       inkscape:collect="always"
       xlink:href="#linearGradient4081"
       id="linearGradient4132"
       gradientUnits="userSpaceOnUse"
       x1="6.101758"
       y1="154.58195"
       x2="6.101758"
       y2="36.995476"
       gradientTransform="matrix(0.1317916,0,0,0.1317916,11.619896,-1.9882468)" />
    <linearGradient
       inkscape:collect="always"
       xlink:href="#linearGradient4081"
       id="linearGradient4141"
       gradientUnits="userSpaceOnUse"
       x1="6.101758"
       y1="154.58195"
       x2="6.101758"
       y2="36.995476"
       gradientTransform="matrix(0.1317916,0,0,0.1317916,11.619896,-1.9882468)" />
    <linearGradient
       inkscape:collect="always"
       xlink:href="#linearGradient4081"
       id="linearGradient4148"
       gradientUnits="userSpaceOnUse"
       x1="6.101758"
       y1="154.58195"
       x2="6.101758"
       y2="36.995476"
       gradientTransform="matrix(0.1317916,0,0,0.1317916,11.619896,-1.9882468)" />
    <linearGradient
       inkscape:collect="always"
       xlink:href="#linearGradient4081"
       id="linearGradient4158"
       gradientUnits="userSpaceOnUse"
       x1="6.101758"
       y1="154.58195"
       x2="6.101758"
       y2="36.995476"
       gradientTransform="matrix(0.1317916,0,0,0.1317916,11.619896,-1.9882468)" />
    <linearGradient
       inkscape:collect="always"
       xlink:href="#linearGradient4081"
       id="linearGradient4180"
       gradientUnits="userSpaceOnUse"
       x1="6.101758"
       y1="154.58195"
       x2="6.101758"
       y2="36.995476" />
    <linearGradient
       inkscape:collect="always"
       xlink:href="#linearGradient4081"
       id="linearGradient4182"
       gradientUnits="userSpaceOnUse"
       gradientTransform="matrix(0.1317916,0,0,0.1317916,11.619896,-1.9882468)"
       x1="6.101758"
       y1="154.58195"
       x2="6.101758"
       y2="36.995476" />
    <linearGradient
       inkscape:collect="always"
       xlink:href="#linearGradient4081"
       id="linearGradient4184"
       gradientUnits="userSpaceOnUse"
       x1="6.101758"
       y1="154.58195"
       x2="6.101758"
       y2="36.995476" />
    <linearGradient
       inkscape:collect="always"
       xlink:href="#linearGradient4081"
       id="linearGradient4186"
       gradientUnits="userSpaceOnUse"
       gradientTransform="matrix(0.1317916,0,0,0.1317916,11.619896,-1.9882468)"
       x1="6.101758"
       y1="154.58195"
       x2="6.101758"
       y2="36.995476" />
    <linearGradient
       inkscape:collect="always"
       xlink:href="#linearGradient4081"
       id="linearGradient2480"
       gradientUnits="userSpaceOnUse"
       gradientTransform="matrix(0.1256322,0,0,0.1256322,11.921746,-1.0005124)"
       x1="6.101758"
       y1="154.58195"
       x2="6.101758"
       y2="36.995476" />
    <linearGradient
       inkscape:collect="always"
       xlink:href="#linearGradient4081"
       id="linearGradient2483"
       gradientUnits="userSpaceOnUse"
       gradientTransform="matrix(0.1256322,0,0,0.1256322,11.921746,-1.0005124)"
       x1="6.101758"
       y1="154.58195"
       x2="6.101758"
       y2="36.995476" />
    <linearGradient
       inkscape:collect="always"
       xlink:href="#linearGradient4081"
       id="linearGradient2489"
       gradientUnits="userSpaceOnUse"
       gradientTransform="matrix(0.1256322,0,0,0.1256322,11.921746,-1.0005124)"
       x1="6.101758"
       y1="154.58195"
       x2="6.101758"
       y2="36.995476" />
    <linearGradient
       inkscape:collect="always"
       xlink:href="#linearGradient4081"
       id="linearGradient2495"
       gradientUnits="userSpaceOnUse"
       gradientTransform="matrix(0.1256322,0,0,0.1256322,11.921746,-1.0005124)"
       x1="6.101758"
       y1="154.58195"
       x2="6.101758"
       y2="36.995476" />
    <linearGradient
       inkscape:collect="always"
       xlink:href="#linearGradient4081"
       id="linearGradient2498"
       gradientUnits="userSpaceOnUse"
       gradientTransform="matrix(0.1256322,0,0,0.1256322,11.921746,-1.0005124)"
       x1="6.101758"
       y1="154.58195"
       x2="6.101758"
       y2="36.995476" />
    <linearGradient
       inkscape:collect="always"
       xlink:href="#linearGradient4081"
       id="linearGradient2501"
       gradientUnits="userSpaceOnUse"
       gradientTransform="matrix(0.1256322,0,0,0.1256322,11.921746,-1.0005124)"
       x1="6.101758"
       y1="154.58195"
       x2="6.101758"
       y2="36.995476" />
    <linearGradient
       inkscape:collect="always"
       xlink:href="#linearGradient4081"
       id="linearGradient2504"
       gradientUnits="userSpaceOnUse"
       gradientTransform="matrix(0.1256322,0,0,0.1256322,11.921746,-1.0005124)"
       x1="6.101758"
       y1="154.58195"
       x2="6.101758"
       y2="36.995476" />
    <linearGradient
       inkscape:collect="always"
       xlink:href="#linearGradient4081"
       id="linearGradient2506"
       gradientUnits="userSpaceOnUse"
       x1="6.101758"
       y1="154.58195"
       x2="6.101758"
       y2="36.995476" />
    <linearGradient
       inkscape:collect="always"
       xlink:href="#linearGradient4081"
       id="linearGradient2508"
       gradientUnits="userSpaceOnUse"
       gradientTransform="matrix(0.1317916,0,0,0.1317916,11.619896,-1.9882468)"
       x1="6.101758"
       y1="154.58195"
       x2="6.101758"
       y2="36.995476" />
    <linearGradient
       inkscape:collect="always"
       xlink:href="#linearGradient4081"
       id="linearGradient2510"
       gradientUnits="userSpaceOnUse"
       gradientTransform="matrix(0.1317916,0,0,0.1317916,11.619896,-1.9882468)"
       x1="6.101758"
       y1="154.58195"
       x2="6.101758"
       y2="36.995476" />
    <clipPath
       clipPathUnits="userSpaceOnUse"
       id="clipPath4974">
      <path
         id="path4976"
         d="M 16.625,2 C 15.93281,2.046173 15.13978,2.350316 14.5,2.875 C 13.716105,3.517873 13.079371,5.1522168 13.25,6.0625 C 13.337976,6.531842 13.692147,7.1029241 14.03125,7.28125 C 14.662734,7.613335 15.813682,7.0624791 16.875,5.9375 C 18.021489,4.722239 18.547995,3.383178 18.15625,2.625 C 17.915497,2.159052 17.31719,1.953827 16.625,2 z M 10.96875,2.71875 C 10.005789,2.719616 9.496306,3.3967078 9.5,4.6875 C 9.502528,5.57142 9.81322,6.3666318 10.21875,6.5625 C 10.520262,6.708131 10.527801,6.6945361 10.90625,6.5625 C 11.533114,6.343793 12.122053,4.8839409 12,3.90625 C 11.900109,3.106091 11.556193,2.7182209 10.96875,2.71875 z M 7.15625,4.03125 C 6.976067,4.0573035 6.795347,4.173262 6.625,4.34375 C 6.281636,4.687396 6.277056,4.8747068 6.28125,5.53125 C 6.286196,6.305553 6.475145,6.7277249 7,7.28125 C 7.392601,7.695296 7.675716,7.7200481 8.03125,7.34375 C 8.416388,6.936117 8.535971,6.296057 8.40625,5.59375 C 8.208416,4.5226825 7.696799,3.9530895 7.15625,4.03125 z M 4.46875,6.375 C 4.281799,6.4054104 4.1133,6.5115553 3.9375,6.6875 C 3.476154,7.14923 3.798831,8.4188978 4.53125,9.0625 C 5.405425,9.830669 6.111327,9.1273309 5.8125,7.78125 C 5.599846,6.8233425 5.029603,6.2837687 4.46875,6.375 z M 12.5,8.0625 C 11.88094,8.0518483 11.187196,8.1034691 10.46875,8.25 C 8.61799,8.627471 7.13709,9.3254488 6.1875,10.28125 C 5.640611,10.831715 5.327697,11.341306 5.0625,12.125 C 4.420581,14.021963 5.609396,16.720678 7.875,18.5625 C 8.719088,19.248703 9.234152,19.555813 10.09375,19.84375 C 10.539486,19.993058 10.892913,20.027742 11.71875,20 C 12.665466,19.968192 12.858002,19.925916 13.46875,19.625 C 14.363786,19.184011 15.378303,18.163965 15.8125,17.28125 C 16.077385,16.74275 16.119821,16.512622 16.09375,16.0625 C 16.049227,15.293922 15.751092,15.084744 14.78125,15.09375 C 13.39673,15.106604 12.815494,15.427682 12.53125,16.40625 C 12.31656,17.145368 12.079212,17.40625 11.59375,17.40625 C 10.824382,17.40625 10.03125,16.794459 10.03125,16.15625 C 10.03125,15.712256 10.746563,15.05048 12.53125,13.84375 C 15.045366,12.14381 15.909739,11.109639 15.78125,9.96875 C 15.64852,8.7901993 14.35718,8.0944552 12.5,8.0625 z"
         style="fill:#ffffff;fill-opacity:1;stroke:none;stroke-width:0.5;stroke-miterlimit:4;stroke-dasharray:none;stroke-opacity:1" />
    </clipPath>
    <clipPath
       clipPathUnits="userSpaceOnUse"
       id="clipPath4995">
      <path
         style="opacity:1;fill:#ffffff;fill-opacity:1;fill-rule:nonzero;stroke:none;stroke-width:1;stroke-linecap:square;stroke-linejoin:miter;stroke-miterlimit:4;stroke-dasharray:none;stroke-dashoffset:0;stroke-opacity:0;display:inline"
         d="M 30,0 L 30,22 L 52,22 L 52,0 L 30,0 z M 46.625,2 C 47.31719,1.953827 47.915497,2.159052 48.15625,2.625 C 48.547995,3.383178 48.021489,4.722239 46.875,5.9375 C 45.813682,7.0624791 44.662734,7.613335 44.03125,7.28125 C 43.692147,7.1029241 43.337976,6.531842 43.25,6.0625 C 43.079371,5.1522168 43.716105,3.517873 44.5,2.875 C 45.13978,2.350316 45.93281,2.046173 46.625,2 z M 40.96875,2.71875 C 41.556193,2.7182209 41.900109,3.106091 42,3.90625 C 42.122053,4.8839409 41.533114,6.343793 40.90625,6.5625 C 40.527801,6.6945361 40.520262,6.708131 40.21875,6.5625 C 39.81322,6.3666318 39.502528,5.57142 39.5,4.6875 C 39.496306,3.3967078 40.005789,2.719616 40.96875,2.71875 z M 37.15625,4.03125 C 37.696799,3.9530895 38.208416,4.5226825 38.40625,5.59375 C 38.535971,6.296057 38.416388,6.936117 38.03125,7.34375 C 37.675716,7.7200481 37.392601,7.695296 37,7.28125 C 36.475145,6.7277249 36.286196,6.305553 36.28125,5.53125 C 36.277056,4.8747068 36.281636,4.687396 36.625,4.34375 C 36.795347,4.173262 36.976067,4.0573035 37.15625,4.03125 z M 34.46875,6.375 C 35.029603,6.2837687 35.599846,6.8233425 35.8125,7.78125 C 36.111327,9.1273309 35.405425,9.830669 34.53125,9.0625 C 33.798831,8.4188978 33.476154,7.14923 33.9375,6.6875 C 34.1133,6.5115553 34.281799,6.4054104 34.46875,6.375 z M 42.5,8.0625 C 44.35718,8.0944552 45.64852,8.7901993 45.78125,9.96875 C 45.909739,11.109639 45.045366,12.14381 42.53125,13.84375 C 40.746563,15.05048 40.03125,15.712256 40.03125,16.15625 C 40.03125,16.794459 40.824382,17.40625 41.59375,17.40625 C 42.079212,17.40625 42.31656,17.145368 42.53125,16.40625 C 42.815494,15.427682 43.39673,15.106604 44.78125,15.09375 C 45.751092,15.084744 46.049227,15.293922 46.09375,16.0625 C 46.119821,16.512622 46.077385,16.74275 45.8125,17.28125 C 45.378303,18.163965 44.363786,19.184011 43.46875,19.625 C 42.858002,19.925916 42.665466,19.968192 41.71875,20 C 40.892913,20.027742 40.539486,19.993058 40.09375,19.84375 C 39.234152,19.555813 38.719088,19.248703 37.875,18.5625 C 35.609396,16.720678 34.420581,14.021963 35.0625,12.125 C 35.327697,11.341306 35.640611,10.831715 36.1875,10.28125 C 37.13709,9.3254488 38.61799,8.627471 40.46875,8.25 C 41.187196,8.1034691 41.88094,8.0518483 42.5,8.0625 z"
         id="path4997" />
    </clipPath>
    <linearGradient
       inkscape:collect="always"
       xlink:href="#linearGradient4081"
       id="linearGradient5065"
       gradientUnits="userSpaceOnUse"
       x1="11.508813"
       y1="6.667244"
       x2="11.508813"
       y2="2.6882501"
       gradientTransform="translate(-30,-30)" />
    <linearGradient
       inkscape:collect="always"
       xlink:href="#linearGradient4081"
       id="linearGradient5068"
       gradientUnits="userSpaceOnUse"
       x1="17.212025"
       y1="7.3808393"
       x2="17.212025"
       y2="1.9877422"
       gradientTransform="translate(-30,-30)" />
    <linearGradient
       inkscape:collect="always"
       xlink:href="#linearGradient4081"
       id="linearGradient5071"
       gradientUnits="userSpaceOnUse"
       x1="7.3737612"
       y1="7.6049061"
       x2="7.3737612"
       y2="4.0347266"
       gradientTransform="translate(-30,-30)" />
    <linearGradient
       inkscape:collect="always"
       xlink:href="#linearGradient4081"
       id="linearGradient5074"
       gradientUnits="userSpaceOnUse"
       x1="4.9496975"
       y1="9.3934212"
       x2="4.9496975"
       y2="6.3640523"
       gradientTransform="translate(-30,-30)" />
    <linearGradient
       inkscape:collect="always"
       xlink:href="#linearGradient4081"
       id="linearGradient5077"
       gradientUnits="userSpaceOnUse"
       x1="13"
       y1="20"
       x2="13"
       y2="7.9960599"
       gradientTransform="translate(-30,-30)" />
    <linearGradient
       inkscape:collect="always"
       xlink:href="#linearGradient4081"
       id="linearGradient3345"
       gradientUnits="userSpaceOnUse"
       x1="6.8391123"
       y1="16.300354"
       x2="6.8391123"
       y2="6.0528178" />
    <linearGradient
       inkscape:collect="always"
       xlink:href="#linearGradient4081"
       id="linearGradient3355"
       gradientUnits="userSpaceOnUse"
       x1="12.316144"
       y1="18.468353"
       x2="12.316144"
       y2="3.4817097" />
    <linearGradient
       inkscape:collect="always"
       xlink:href="#linearGradient4081"
       id="linearGradient3357"
       gradientUnits="userSpaceOnUse"
       x1="18.764908"
       y1="21"
       x2="18.764908"
       y2="0.96705598" />
    <linearGradient
       inkscape:collect="always"
       xlink:href="#linearGradient4081"
       id="linearGradient3522"
       gradientUnits="userSpaceOnUse"
       x1="6.8391123"
       y1="16.300354"
       x2="6.8391123"
       y2="6.0528178"
       gradientTransform="translate(1,0)" />
    <linearGradient
       inkscape:collect="always"
       xlink:href="#linearGradient4081"
       id="linearGradient3527"
       gradientUnits="userSpaceOnUse"
       gradientTransform="translate(1,0)"
       x1="6.8391123"
       y1="16.300354"
       x2="6.8391123"
       y2="6.0528178" />
    <linearGradient
       inkscape:collect="always"
       xlink:href="#linearGradient4081"
       id="linearGradient3540"
       gradientUnits="userSpaceOnUse"
       gradientTransform="translate(1,0)"
       x1="14.524625"
       y1="17.41902"
       x2="14.524625"
       y2="4.625" />
    <linearGradient
       inkscape:collect="always"
       xlink:href="#linearGradient4081"
       id="linearGradient3542"
       gradientUnits="userSpaceOnUse"
       gradientTransform="translate(1,0)"
       x1="10.50519"
       y1="15.28125"
       x2="10.50519"
       y2="6.7458849" />
    <linearGradient
       inkscape:collect="always"
       xlink:href="#linearGradient4081"
       id="linearGradient3552"
       gradientUnits="userSpaceOnUse"
       gradientTransform="translate(1,0)"
       x1="16.5"
       y1="19.542921"
       x2="16.5"
       y2="2.5" />
    <linearGradient
       inkscape:collect="always"
       xlink:href="#linearGradient4081"
       id="linearGradient3680"
       gradientUnits="userSpaceOnUse"
       gradientTransform="translate(1,0)"
       x1="14.524625"
       y1="17.41902"
       x2="14.524625"
       y2="4.625" />
    <inkscape:perspective
       id="perspective2862"
       inkscape:persp3d-origin="0.5 : 0.33333333 : 1"
       inkscape:vp_z="1 : 0.5 : 1"
       inkscape:vp_y="0 : 1000 : 0"
       inkscape:vp_x="0 : 0.5 : 1"
       sodipodi:type="inkscape:persp3d" />
    <linearGradient
       inkscape:collect="always"
       xlink:href="#StandardGradient"
       id="linearGradient3690"
       x1="29"
       y1="3"
       x2="29"
       y2="19.031219"
       gradientUnits="userSpaceOnUse"
       gradientTransform="translate(-20,0)" />
    <inkscape:perspective
       id="perspective4085"
       inkscape:persp3d-origin="0.5 : 0.33333333 : 1"
       inkscape:vp_z="1 : 0.5 : 1"
       inkscape:vp_y="0 : 1000 : 0"
       inkscape:vp_x="0 : 0.5 : 1"
       sodipodi:type="inkscape:persp3d" />
    <linearGradient
       y2="3.5"
       x2="59"
       y1="3.5"
       x1="54"
       gradientTransform="translate(-45,53)"
       gradientUnits="userSpaceOnUse"
       id="linearGradient3829"
       xlink:href="#SpecificGradient"
       inkscape:collect="always" />
    <linearGradient
       id="SpecificGradient"
       x1="10.761708"
       y1="3.9999998"
       x2="10.761708"
       y2="18.011395"
       gradientUnits="userSpaceOnUse">
      <stop
         style="stop-color:#a50000;stop-opacity:1;"
         offset="0"
         id="stop3292" />
      <stop
         style="stop-color:#e73800;stop-opacity:1;"
         offset="1"
         id="stop3294" />
    </linearGradient>
    <linearGradient
       inkscape:collect="always"
       xlink:href="#StandardGradient"
       id="linearGradient3833"
       x1="54"
       y1="3.5"
       x2="59"
       y2="3.5"
       gradientUnits="userSpaceOnUse"
       gradientTransform="translate(-53,53)" />
    <linearGradient
       id="StandardGradient"
       gradientTransform="matrix(0.9984539,0,0,0.9984539,-0.0459776,0.05767558)"
       x1="10.710332"
       y1="1.9963325"
       x2="10.710332"
       y2="18.974037"
       gradientUnits="userSpaceOnUse">
      <stop
         style="stop-color:#000000;stop-opacity:0.86274511;"
         offset="0"
         id="stop3277" />
      <stop
         style="stop-color:#000000;stop-opacity:0.47058824;"
         offset="1"
         id="stop3279" />
    </linearGradient>
    <linearGradient
       inkscape:collect="always"
       xlink:href="#StandardGradient"
       id="linearGradient3726"
       gradientUnits="userSpaceOnUse"
       gradientTransform="translate(-20,1)"
       x1="29"
       y1="3"
       x2="29"
       y2="19.031219" />
    <linearGradient
       inkscape:collect="always"
       xlink:href="#StandardGradient"
       id="linearGradient3730"
       gradientUnits="userSpaceOnUse"
       gradientTransform="translate(-20,0)"
       x1="29"
       y1="3"
       x2="29"
       y2="19.031219" />
    <linearGradient
       inkscape:collect="always"
       xlink:href="#StandardGradient"
       id="linearGradient3735"
       gradientUnits="userSpaceOnUse"
       gradientTransform="translate(-50,0)"
       x1="29"
       y1="3"
       x2="29"
       y2="19.031219" />
    <clipPath
       clipPathUnits="userSpaceOnUse"
       id="clipPath3740">
      <path
         style="fill:#ff00ff;fill-opacity:1;stroke:none;display:inline"
         d="m -30,0 0,22 22,0 0,-22 -22,0 z m 9.96875,3 4.78125,4.71875 -3.21875,3.21875 3.25,3.25 -4.8125,4.8125 0,-6.4375 -2.71875,2.71875 -0.96875,-0.96875 3.3125,-3.3125 -3.28125,-3.3125 0.96875,-1 2.6875,2.71875 0,-6.40625 z m 1.25,3.0625 0,3.34375 L -17.125,7.75 -18.78125,6.0625 z m 0,6.375 0,3.375 1.65625,-1.65625 -1.65625,-1.71875 z"
         id="path3742" />
    </clipPath>
    <linearGradient
       inkscape:collect="always"
       xlink:href="#StandardGradient"
       id="linearGradient3717"
       x1="13"
       y1="3"
       x2="13"
       y2="19.124516"
       gradientUnits="userSpaceOnUse"
       gradientTransform="matrix(0.83333333,0,0,0.83333333,1,2.1666667)" />
    <linearGradient
       inkscape:collect="always"
       xlink:href="#StandardGradient"
       id="linearGradient3723"
       gradientUnits="userSpaceOnUse"
       x1="13"
       y1="3"
       x2="13"
       y2="19.124516"
       gradientTransform="translate(0,1)" />
    <linearGradient
       inkscape:collect="always"
       xlink:href="#StandardGradient"
       id="linearGradient3725"
       gradientUnits="userSpaceOnUse"
       x1="13"
       y1="3"
       x2="13"
       y2="19.124516" />
    <linearGradient
       inkscape:collect="always"
       xlink:href="#StandardGradient"
       id="linearGradient3731"
       gradientUnits="userSpaceOnUse"
       x1="13"
       y1="3"
       x2="13"
       y2="19.124516"
       gradientTransform="translate(0,1)" />
    <linearGradient
       inkscape:collect="always"
       xlink:href="#StandardGradient"
       id="linearGradient3736"
       gradientUnits="userSpaceOnUse"
       x1="13"
       y1="3"
       x2="13"
       y2="19.124516" />
    <linearGradient
       inkscape:collect="always"
       xlink:href="#StandardGradient"
       id="linearGradient3741"
       gradientUnits="userSpaceOnUse"
       x1="13"
       y1="3"
       x2="13"
       y2="19.124516"
       gradientTransform="translate(-31,0)" />
    <clipPath
       clipPathUnits="userSpaceOnUse"
       id="clipPath3748">
      <path
         style="fill:#ff00ff;fill-opacity:1;stroke:none;display:inline"
         d="m -30,0 0,22 22,0 0,-22 -22,0 z m 11,3 c 0.965403,2.3062413 6,6.0715507 6,10 0,3.313708 -2.686292,6 -6,6 -3.313709,0 -6,-2.686292 -6,-6 0,-3.8616134 4.820063,-7.7473922 6,-10 z"
         id="path3750" />
    </clipPath>
    <linearGradient
       inkscape:collect="always"
       xlink:href="#StandardGradient"
       id="linearGradient2945"
       gradientUnits="userSpaceOnUse"
       gradientTransform="matrix(0.83333333,0,0,0.83333333,1,3.1666667)"
       x1="13"
       y1="3"
       x2="13"
       y2="19.124516" />
    <linearGradient
       inkscape:collect="always"
       xlink:href="#StandardGradient"
       id="linearGradient2947"
       gradientUnits="userSpaceOnUse"
       gradientTransform="matrix(0.83333333,0,0,0.83333333,1,2.1666667)"
       x1="13"
       y1="3"
       x2="13"
       y2="19.124516" />
    <linearGradient
       inkscape:collect="always"
       xlink:href="#StandardGradient"
       id="linearGradient3724"
       gradientUnits="userSpaceOnUse"
       gradientTransform="matrix(0.83333333,0,0,0.83333333,1,3.1666667)"
       x1="13"
       y1="3"
       x2="13"
       y2="19.124516" />
    <linearGradient
       inkscape:collect="always"
       xlink:href="#StandardGradient"
       id="linearGradient3728"
       gradientUnits="userSpaceOnUse"
       gradientTransform="matrix(0.83333333,0,0,0.83333333,1,2.1666667)"
       x1="13"
       y1="3"
       x2="13"
       y2="19.124516" />
    <linearGradient
       inkscape:collect="always"
       xlink:href="#StandardGradient"
       id="linearGradient3733"
       gradientUnits="userSpaceOnUse"
       gradientTransform="matrix(0.83333333,0,0,0.83333333,-29,2.1666667)"
       x1="13"
       y1="3"
       x2="13"
       y2="19.124516" />
    <clipPath
       clipPathUnits="userSpaceOnUse"
       id="clipPath3741">
      <path
         style="fill:#ff00ff;fill-opacity:1;stroke:none;display:inline"
         d="m -30,0 0,22 22,0 0,-22 -22,0 z m 11,3 c 0.804503,1.9218677 5,6.726292 5,10 0,2.761423 -2.238577,5 -5,5 -2.761424,0 -5,-2.238577 -5,-5 0,-3.218011 4.016719,-8.1228269 5,-10 z"
         id="path3743" />
    </clipPath>
    <linearGradient
       y2="7.429738"
       x2="20.56768"
       y1="42.956509"
       x1="23.999987"
       gradientTransform="matrix(0.38315663,0,0,0.38341901,1.8042464,1.7979443)"
       gradientUnits="userSpaceOnUse"
       id="linearGradient3816"
       xlink:href="#linearGradient3176"
       inkscape:collect="always" />
    <linearGradient
       id="linearGradient3176">
      <stop
         id="stop3178"
         offset="0"
         style="stop-color:#005693;stop-opacity:1;" />
      <stop
         style="stop-color:#1d96dc;stop-opacity:1;"
         offset="0.64838707"
         id="stop3365" />
      <stop
         id="stop3180"
         offset="1"
         style="stop-color:#3cc1ff;stop-opacity:1;" />
    </linearGradient>
    <linearGradient
       y2="44.864902"
       x2="23.999985"
       y1="3.1350977"
       x1="23.999985"
       gradientTransform="matrix(0.38315663,0,0,0.38341901,1.8042464,1.7979439)"
       gradientUnits="userSpaceOnUse"
       id="linearGradient3064"
       xlink:href="#StandardGradient"
       inkscape:collect="always" />
    <linearGradient
       inkscape:collect="always"
       xlink:href="#StandardGradient"
       id="linearGradient3930"
       gradientUnits="userSpaceOnUse"
       gradientTransform="matrix(0.38315663,0,0,0.38341901,1.8042464,2.7979439)"
       x1="23.999985"
       y1="3.1350977"
       x2="23.999985"
       y2="44.864902" />
    <linearGradient
       inkscape:collect="always"
       xlink:href="#StandardGradient"
       id="linearGradient3932"
       gradientUnits="userSpaceOnUse"
       gradientTransform="matrix(0.38315663,0,0,0.38341901,1.8042464,1.7979439)"
       x1="23.999985"
       y1="3.1350977"
       x2="23.999985"
       y2="44.864902" />
    <linearGradient
       inkscape:collect="always"
       xlink:href="#StandardGradient"
       id="linearGradient3937"
       gradientUnits="userSpaceOnUse"
       gradientTransform="matrix(0.38315663,0,0,0.38341901,1.8042464,2.7979439)"
       x1="23.999985"
       y1="3.1350977"
       x2="23.999985"
       y2="44.864902" />
    <linearGradient
       inkscape:collect="always"
       xlink:href="#StandardGradient"
       id="linearGradient3941"
       gradientUnits="userSpaceOnUse"
       gradientTransform="matrix(0.38315663,0,0,0.38341901,1.8042464,1.7979439)"
       x1="23.999985"
       y1="3.1350977"
       x2="23.999985"
       y2="44.864902" />
    <linearGradient
       inkscape:collect="always"
       xlink:href="#StandardGradient"
       id="linearGradient3946"
       gradientUnits="userSpaceOnUse"
       gradientTransform="matrix(0.38315663,0,0,0.38341901,-28.195754,1.7979439)"
       x1="23.999985"
       y1="3.1350977"
       x2="23.999985"
       y2="44.864902" />
    <clipPath
       clipPathUnits="userSpaceOnUse"
       id="clipPath3953">
      <path
         style="fill:#ff00ff;fill-opacity:1;stroke:none;display:inline"
         d="m -30,0 0,22 22,0 0,-22 -22,0 z m 12.28125,3 -0.3125,2.59375 c 0.865215,-0.019572 1.738911,0.1381015 2.5625,0.5 3.31427,1.4563422 4.703622,5.491108 3.25,8.75 -1.617751,3.626849 -6.057311,5.115109 -9.625,3.5 C -25.778288,16.562568 -27.399525,11.756311 -25.625,7.875 -24.233582,4.8316329 -21.047383,2.9137271 -17.71875,3 z m -0.3125,2.59375 c -2.2292,0.050427 -4.381261,1.3030103 -5.3125,3.46875 -1.133494,2.636107 -0.0069,5.869566 2.6875,7 2.322893,0.974563 5.190134,-0.0199 6.15625,-2.40625 0.814814,-2.012615 -0.08095,-4.4789227 -2.15625,-5.28125 -0.556494,-0.2151463 -1.145553,-0.2622413 -1.71875,-0.1875 l -0.375,2.875 c 0.156906,-0.291901 0.590053,-0.447549 0.90625,-0.40625 0.843571,0.11018 1.256749,1.055543 1.0625,1.8125 -0.295384,1.151069 -1.614657,1.657274 -2.6875,1.3125 -1.457809,-0.468502 -2.093153,-2.143707 -1.59375,-3.53125 0.427808,-1.1886209 1.510478,-1.9090236 2.6875,-2.0625 l 0.34375,-2.59375 z m -0.71875,5.5 c -0.04915,0.10183 -0.0615,0.212029 -0.03125,0.34375 L -18.75,11.09375 z"
         id="path3955"
         inkscape:connector-curvature="0" />
    </clipPath>
    <filter
       inkscape:collect="always"
       id="filter3957">
      <feGaussianBlur
         inkscape:collect="always"
         stdDeviation="0.46029247"
         id="feGaussianBlur3959" />
    </filter>
    <linearGradient
       inkscape:collect="always"
       xlink:href="#StandardGradient"
       id="linearGradient5764"
       gradientUnits="userSpaceOnUse"
       gradientTransform="matrix(0.38315663,0,0,0.38341901,1.8042464,1.7979439)"
       x1="23.999985"
       y1="3.1350977"
       x2="23.999985"
       y2="44.864902" />
    <linearGradient
       inkscape:collect="always"
       xlink:href="#StandardGradient"
       id="linearGradient5768"
       gradientUnits="userSpaceOnUse"
       gradientTransform="matrix(0.38315663,0,0,0.38341901,1.8042464,1.7979439)"
       x1="23.999985"
       y1="3.1350977"
       x2="23.999985"
       y2="44.864902" />
    <linearGradient
       inkscape:collect="always"
       xlink:href="#StandardGradient"
       id="linearGradient5780"
       gradientUnits="userSpaceOnUse"
       gradientTransform="matrix(0.38315663,0,0,0.38341901,1.8042464,1.7979439)"
       x1="23.999985"
       y1="3.1350977"
       x2="23.999985"
       y2="44.864902" />
  </defs>
  <sodipodi:namedview
     id="base"
     pagecolor="#ffffff"
     bordercolor="#e7e7e7"
     borderopacity="1"
     inkscape:pageopacity="0.0"
     inkscape:pageshadow="2"
     inkscape:zoom="16.284523"
     inkscape:cx="1.4097523"
     inkscape:cy="15.588149"
     inkscape:document-units="px"
     inkscape:current-layer="layer1"
     showgrid="true"
     inkscape:showpageshadow="false"
     showguides="false"
     inkscape:guide-bbox="true"
     inkscape:window-width="1920"
     inkscape:window-height="1029"
     inkscape:window-x="0"
     inkscape:window-y="25"
     inkscape:window-maximized="1">
    <sodipodi:guide
       orientation="1,0"
       position="0,112"
       id="guide2383" />
    <sodipodi:guide
       orientation="0,1"
       position="26.278146,128"
       id="guide2385" />
    <sodipodi:guide
       orientation="1,0"
       position="128,54.082119"
       id="guide2387" />
    <sodipodi:guide
       orientation="0,1"
       position="78.156291,0"
       id="guide2389" />
    <sodipodi:guide
       orientation="0,1"
       position="60.863576,64.084768"
       id="guide2391" />
    <inkscape:grid
       type="xygrid"
       id="grid3672"
       visible="true"
       enabled="true" />
  </sodipodi:namedview>
  <metadata
     id="metadata7">
    <rdf:RDF>
      <cc:Work
         rdf:about="">
        <dc:format>image/svg+xml</dc:format>
        <dc:type
           rdf:resource="http://purl.org/dc/dcmitype/StillImage" />
        <dc:title />
      </cc:Work>
    </rdf:RDF>
  </metadata>
  <g
     inkscape:label="Icon"
     inkscape:groupmode="layer"
     id="layer1"
     style="display:inline">
    <path
       style="fill:#ffffff;fill-opacity:1;fill-rule:evenodd;stroke:none;display:inline;opacity:0.15"
       d="M 11.625 2 C 8.1573396 2.1682731 4.935978 4.2595697 3.46875 7.46875 C 1.4691082 11.842446 3.2948317 17.233127 7.75 19.25 C 11.810888 21.088382 16.83442 19.404436 18.6875 15.25 C 20.362328 11.495184 18.779244 6.8756227 14.9375 5.1875 C 14.309326 4.9114698 13.687897 4.9074318 13.0625 4.84375 L 13.28125 3.125 A 0.99807801 0.99807801 0 0 0 12.3125 2 C 12.079495 1.9939609 11.856177 1.9887818 11.625 2 z M 12.28125 3 L 11.96875 5.59375 C 12.833965 5.574178 13.707661 5.7318515 14.53125 6.09375 C 17.84552 7.5500922 19.234872 11.584858 17.78125 14.84375 C 16.163499 18.470599 11.723939 19.958859 8.15625 18.34375 C 4.2217114 16.562568 2.6004756 11.75631 4.375 7.875 C 5.7664187 4.8316329 8.9526165 2.9137271 12.28125 3 z M 11.96875 5.59375 C 9.7395497 5.6441766 7.5874892 6.8967603 6.65625 9.0625 C 5.5227567 11.698607 6.6493473 14.932066 9.34375 16.0625 C 11.666643 17.037063 14.533884 16.042599 15.5 13.65625 C 16.314814 11.643635 15.419049 9.1773273 13.34375 8.375 C 12.787256 8.1598537 12.198197 8.1127587 11.625 8.1875 L 11.25 11.0625 C 11.406906 10.770599 11.840053 10.614951 12.15625 10.65625 C 12.999821 10.76643 13.412999 11.711793 13.21875 12.46875 C 12.923366 13.619819 11.604093 14.126024 10.53125 13.78125 C 9.0734411 13.312748 8.4380972 11.637543 8.9375 10.25 C 9.3653086 9.0613791 10.447978 8.3409764 11.625 8.1875 L 11.96875 5.59375 z M 10.75 7 L 10.6875 7.53125 C 9.5302429 7.9101179 8.4584034 8.6326246 8 9.90625 C 7.3225833 11.788388 8.1816205 14.064069 10.21875 14.71875 C 11.789366 15.223491 13.731797 14.494561 14.1875 12.71875 C 14.351833 12.07837 14.27566 11.417328 13.96875 10.84375 C 13.685487 10.314365 13.118955 9.8672142 12.4375 9.71875 L 12.5 9.28125 C 12.651338 9.301874 12.830908 9.2592089 12.96875 9.3125 C 14.492555 9.9016154 15.175417 11.767326 14.5625 13.28125 C 13.817932 15.120367 11.548141 15.923766 9.71875 15.15625 C 7.5588861 14.250081 6.6407836 11.612338 7.5625 9.46875 C 8.1437221 8.1170287 9.3867444 7.3681964 10.75 7 z M 11.25 11.09375 C 11.200852 11.19558 11.188503 11.305779 11.21875 11.4375 L 11.25 11.09375 z "
       id="path5766" />
    <path
       inkscape:connector-curvature="0"
       inkscape:export-filename="E:\back up Escritorio\Mis Documentos\Diseño Web\Gloobus-web\path3266.png"
       inkscape:export-ydpi="251.89999"
       inkscape:export-xdpi="251.89999"
       style="fill:url(#linearGradient3064);fill-opacity:1;fill-rule:evenodd;stroke:none;display:inline"
       d="m 11.213075,11.430236 c -0.12099,-0.526884 0.512811,-0.832139 0.944366,-0.775773 0.843571,0.11018 1.243551,1.05486 1.049302,1.811817 -0.295384,1.151069 -1.603954,1.66904 -2.676797,1.324266 C 9.0721371,13.322044 8.4331299,11.632657 8.9325327,10.245114 9.5686793,8.477648 11.642531,7.7154266 13.34175,8.3723618 15.417049,9.1746891 16.302091,11.638789 15.487277,13.651404 14.521161,16.037753 11.66853,17.047209 9.3456367,16.072646 6.651234,14.942212 5.5185033,11.696096 6.6519966,9.0599893 7.9446757,6.0536657 11.580526,4.7959395 14.526068,6.0902587 c 3.31427,1.4563422 4.695374,5.4873753 3.241752,8.7462673 -1.617751,3.626849 -6.038804,5.133328 -9.6064927,3.518219 C 4.2267887,16.573563 2.5969291,11.756178 4.3714535,7.8748675 5.7628722,4.8315004 8.9436855,2.9165253 12.272319,3.0027982"
       id="path3239" />
    <path
       style="fill:#000000;fill-opacity:1;fill-rule:evenodd;stroke:none;display:inline;opacity:0.5"
       d="M 12.28125 3 C 8.9526165 2.9137271 5.7664187 4.8316329 4.375 7.875 C 3.8073411 9.1166061 3.5631541 10.446847 3.65625 11.75 C 3.7082734 10.775477 3.9534094 9.7971198 4.375 8.875 C 5.7490693 5.8695801 8.873013 3.963953 12.15625 4 L 12.28125 3 z M 12.09375 5.59375 L 11.96875 6.59375 C 12.833965 6.574178 13.707661 6.7318515 14.53125 7.09375 C 16.799556 8.0904793 18.144254 10.289181 18.3125 12.625 C 18.512946 9.9401933 17.120523 7.2315173 14.53125 6.09375 C 13.746418 5.7488821 12.919216 5.5914553 12.09375 5.59375 z M 11.96875 6.59375 C 11.928034 6.594671 11.884404 6.5920249 11.84375 6.59375 L 11.625 8.1875 C 11.667339 8.1819792 11.70743 8.1602626 11.75 8.15625 L 11.96875 6.59375 z M 11.625 8.1875 C 10.447978 8.3409764 9.3653086 9.0613791 8.9375 10.25 C 8.7647117 10.730076 8.7572202 11.229476 8.84375 11.71875 C 8.8715537 11.561683 8.8828522 11.401834 8.9375 11.25 C 9.3499677 10.104002 10.372714 9.4067077 11.5 9.21875 L 11.625 8.1875 z M 12.15625 10.65625 C 11.913812 10.624585 11.606667 10.703235 11.40625 10.875 L 11.25 12.0625 C 11.406906 11.770599 11.840053 11.614951 12.15625 11.65625 C 12.673698 11.723835 13.038632 12.102863 13.1875 12.5625 C 13.197475 12.53089 13.210376 12.501383 13.21875 12.46875 C 13.412999 11.711793 12.999821 10.76643 12.15625 10.65625 z M 6.25 11.59375 C 5.9994017 13.843591 7.1545478 16.144022 9.34375 17.0625 C 11.666643 18.037063 14.533884 17.042599 15.5 14.65625 C 15.768798 13.992311 15.832886 13.280089 15.75 12.59375 C 15.707263 12.951846 15.638609 13.313881 15.5 13.65625 C 14.533884 16.042599 11.666643 17.037063 9.34375 16.0625 C 7.4862638 15.283193 6.3922677 13.491001 6.25 11.59375 z M 11.25 12.09375 C 11.200852 12.19558 11.188503 12.305779 11.21875 12.4375 L 11.25 12.09375 z "
       id="path3925" />
    <path
       style="fill:#ffffff;fill-opacity:1;fill-rule:evenodd;stroke:none;display:inline;opacity:0.3"
       d="M 12.15625 4 L 11.96875 5.59375 C 12.009466 5.592829 12.052986 5.5938633 12.09375 5.59375 L 12.28125 4 C 12.239746 3.9989243 12.197705 4.0004551 12.15625 4 z M 11.96875 5.59375 C 9.7395497 5.6441766 7.5874892 6.8967605 6.65625 9.0625 C 6.3041723 9.8813091 6.1858993 10.738917 6.25 11.59375 C 6.3078304 11.074556 6.44372 10.55677 6.65625 10.0625 C 7.5704803 7.9363174 9.6585753 6.6864735 11.84375 6.59375 L 11.96875 5.59375 z M 12.03125 8.125 C 11.936719 8.1264273 11.843811 8.1474074 11.75 8.15625 L 11.625 9.1875 C 12.198197 9.1127587 12.787256 9.1598537 13.34375 9.375 C 14.734431 9.9126485 15.581631 11.199573 15.75 12.59375 C 15.958494 10.846778 15.066017 9.0408423 13.34375 8.375 C 12.918945 8.2107662 12.474566 8.1183066 12.03125 8.125 z M 11.625 9.1875 C 11.582793 9.1930036 11.541927 9.2117593 11.5 9.21875 L 11.25 11.0625 C 11.286601 10.994408 11.345275 10.927258 11.40625 10.875 L 11.625 9.1875 z M 11.25 11.09375 C 11.200852 11.19558 11.188503 11.305779 11.21875 11.4375 L 11.25 11.09375 z M 8.84375 11.71875 C 8.6174677 12.997052 9.2329636 14.364014 10.53125 14.78125 C 11.604093 15.126024 12.923366 14.619819 13.21875 13.46875 C 13.291593 13.184891 13.27384 12.8765 13.1875 12.59375 C 12.832898 13.65745 11.564691 14.113362 10.53125 13.78125 C 9.5778281 13.474845 9.0073138 12.643605 8.84375 11.71875 z M 3.65625 11.75 C 3.4893009 14.87736 5.1564771 17.98574 8.15625 19.34375 C 11.723939 20.958859 16.163499 19.470599 17.78125 15.84375 C 18.235507 14.825346 18.384387 13.723325 18.3125 12.65625 C 18.253647 13.397303 18.094732 14.140951 17.78125 14.84375 C 16.163499 18.470599 11.723939 19.958859 8.15625 18.34375 C 5.4803449 17.132357 3.8541757 14.520555 3.65625 11.75 z "
       id="path3935" />
  </g>
</svg>
