<?xml version="1.0" encoding="UTF-8" standalone="no"?>
<!-- Created with Inkscape (http://www.inkscape.org/) -->

<svg
   xmlns:dc="http://purl.org/dc/elements/1.1/"
   xmlns:cc="http://creativecommons.org/ns#"
   xmlns:rdf="http://www.w3.org/1999/02/22-rdf-syntax-ns#"
   xmlns:svg="http://www.w3.org/2000/svg"
   xmlns="http://www.w3.org/2000/svg"
   xmlns:xlink="http://www.w3.org/1999/xlink"
   xmlns:sodipodi="http://sodipodi.sourceforge.net/DTD/sodipodi-0.dtd"
   xmlns:inkscape="http://www.inkscape.org/namespaces/inkscape"
   width="22"
   height="22"
   id="svg2"
   sodipodi:version="0.32"
   inkscape:version="0.48.0 r9654"
   version="1.0"
   sodipodi:docname="gtg-panel.svg"
   inkscape:output_extension="org.inkscape.output.svg.inkscape"
   inkscape:export-filename="/home/matt/.icons/Sirocco/scalable/mimetypes/text-plain.png"
   inkscape:export-xdpi="90"
   inkscape:export-ydpi="90"
   sodipodi:modified="true"
   style="display:inline">
  <sodipodi:namedview
     id="base"
     pagecolor="#ffffff"
     bordercolor="#666666"
     borderopacity="1.0"
     inkscape:pageopacity="0.0"
     inkscape:pageshadow="2"
     inkscape:zoom="17.39763"
     inkscape:cx="-1.6831253"
     inkscape:cy="2.8219203"
     inkscape:document-units="px"
     inkscape:current-layer="layer1"
     width="128px"
     height="128px"
     inkscape:showpageshadow="false"
     inkscape:window-width="1920"
     inkscape:window-height="1029"
     inkscape:window-x="0"
     inkscape:window-y="25"
     showguides="true"
     inkscape:guide-bbox="true"
     showgrid="true"
     inkscape:window-maximized="1">
    <sodipodi:guide
       id="guide2226"
       position="32.637397,117.99844"
       orientation="horizontal" />
    <sodipodi:guide
       id="guide2230"
       position="110,57.402344"
       orientation="vertical" />
    <sodipodi:guide
       id="guide2232"
       position="33.760911"
       orientation="horizontal" />
    <sodipodi:guide
       id="guide2231"
       position="46.774696"
       orientation="horizontal" />
    <inkscape:grid
       enabled="true"
       visible="true"
       id="grid3231"
       type="xygrid" />
    <sodipodi:guide
       orientation="1,0"
       position="100,67.625"
       id="guide2713" />
  </sodipodi:namedview>
  <defs
     id="defs4">
    <inkscape:perspective
       sodipodi:type="inkscape:persp3d"
       inkscape:vp_x="0 : 11 : 1"
       inkscape:vp_y="0 : 1000 : 0"
       inkscape:vp_z="22 : 11 : 1"
       inkscape:persp3d-origin="11 : 7.3333333 : 1"
       id="perspective19" />
    <linearGradient
       id="StandardGradient"
       gradientTransform="scale(0.9219544,1.0846523)"
       x1="11.998966"
       y1="0.92195445"
       x2="11.998966"
       y2="19.387045"
       gradientUnits="userSpaceOnUse">
      <stop
         style="stop-color:#000000;stop-opacity:0.86274511;"
         offset="0"
         id="stop3283" />
      <stop
         style="stop-color:#000000;stop-opacity:0.47058824;"
         offset="1"
         id="stop2651" />
    </linearGradient>
    <linearGradient
       inkscape:collect="always"
       xlink:href="#StandardGradient"
       id="linearGradient2452"
       gradientUnits="userSpaceOnUse"
       gradientTransform="matrix(0.9247229,0,0,1.0872097,-6.00562e-2,5.997642)"
       x1="11.998966"
       y1="0.92195445"
       x2="11.998966"
       y2="17.478098" />
    <linearGradient
       inkscape:collect="always"
       xlink:href="#StandardGradient"
       id="linearGradient3900"
       gradientUnits="userSpaceOnUse"
       gradientTransform="matrix(0.9247229,0,0,1.0872097,-1.0600562,4.997642)"
       x1="11.998966"
       y1="0.92195445"
       x2="11.998966"
       y2="17.478098" />
    <linearGradient
       inkscape:collect="always"
       xlink:href="#StandardGradient"
       id="linearGradient3906"
       gradientUnits="userSpaceOnUse"
       gradientTransform="matrix(0.9247229,0,0,1.0872097,-6.00562e-2,5.997642)"
       x1="11.998966"
       y1="0.92195445"
       x2="11.998966"
       y2="17.478098" />
    <linearGradient
       inkscape:collect="always"
       xlink:href="#StandardGradient"
       id="linearGradient3340"
       gradientUnits="userSpaceOnUse"
       gradientTransform="matrix(0.9247229,0,0,1.0872097,-6.00562e-2,5.997642)"
       x1="11.998966"
       y1="-4.5990243"
       x2="11.998966"
       y2="13.799045" />
    <linearGradient
       inkscape:collect="always"
       xlink:href="#StandardGradient"
       id="linearGradient2402"
       gradientUnits="userSpaceOnUse"
       gradientTransform="matrix(0.9247229,0,0,1.0872097,-6.00562e-2,5.997642)"
       x1="11.998966"
       y1="-4.5990243"
       x2="11.998966"
       y2="13.799045" />
    <linearGradient
       inkscape:collect="always"
       xlink:href="#StandardGradient"
       id="linearGradient2410"
       gradientUnits="userSpaceOnUse"
       gradientTransform="matrix(0.9247229,0,0,1.0872097,-6.00562e-2,5.997642)"
       x1="11.998966"
       y1="-4.5990243"
       x2="11.998966"
       y2="13.799045" />
    <linearGradient
       inkscape:collect="always"
       xlink:href="#StandardGradient"
       id="linearGradient2413"
       gradientUnits="userSpaceOnUse"
       gradientTransform="matrix(0.9247229,0,0,1.0872097,-0.0600562,6.997642)"
       x1="11.998966"
       y1="-4.5990243"
       x2="11.998966"
       y2="11.959416" />
    <inkscape:perspective
       id="perspective2850"
       inkscape:persp3d-origin="0.5 : 0.33333333 : 1"
       inkscape:vp_z="1 : 0.5 : 1"
       inkscape:vp_y="0 : 1000 : 0"
       inkscape:vp_x="0 : 0.5 : 1"
       sodipodi:type="inkscape:persp3d" />
    <linearGradient
       inkscape:collect="always"
       xlink:href="#StandardGradient"
       id="linearGradient3634"
       gradientUnits="userSpaceOnUse"
       gradientTransform="matrix(0.9247229,0,0,1.0872097,-30.060056,5.997642)"
       x1="11.998966"
       y1="-4.5990243"
       x2="11.998966"
       y2="13.799045" />
    <clipPath
       clipPathUnits="userSpaceOnUse"
       id="clipPath3641">
      <path
         style="fill:#ff00ff;fill-opacity:1;stroke:none;display:inline"
         d="m -30,0 0,22 22,0 0,-22 -22,0 z m 8,1 6,0 0,1 1,0 0,1 1.5,0 c 0.831,0 1.5,0.669 1.5,1.5 l 0,2.59375 c 0.587017,0.2032563 1,0.748375 1,1.40625 l 0,1.5 0,9 0,0.5 c 0,0.831 -0.669,1.5 -1.5,1.5 l -9,0 c -0.831,0 -1.5,-0.669 -1.5,-1.5 l 0,-0.5 -1.5,0 c -0.831,0 -1.5,-0.669 -1.5,-1.5 l 0,-13 C -26,3.669 -25.331,3 -24.5,3 l 1.5,0 0,-1 1,0 0,-1 z m 1,2.03125 0,2 4.03125,0 -0.03125,-2 -4,0 z M -20.5,9 C -20.776999,9 -21,9.223 -21,9.5 l 0,9 c 0,0.277 0.223001,0.5 0.5,0.5 l 7,0 c 0.277,0 0.5,-0.223 0.5,-0.5 l 0,-9 C -13,9.223 -13.223,9 -13.5,9 l -7,0 z"
         id="path3643" />
    </clipPath>
    <linearGradient
       inkscape:collect="always"
       xlink:href="#StandardGradient"
       id="linearGradient2875"
       gradientUnits="userSpaceOnUse"
       gradientTransform="matrix(0.9247229,0,0,1.0872097,-0.0600562,6.997642)"
       x1="11.998966"
       y1="-4.5990243"
       x2="11.998966"
       y2="11.959416" />
    <linearGradient
       inkscape:collect="always"
       xlink:href="#StandardGradient"
       id="linearGradient2901"
       gradientUnits="userSpaceOnUse"
       gradientTransform="matrix(0.9247229,0,0,1.0872097,-0.0600562,7.997642)"
       x1="11.998966"
       y1="-4.5990243"
       x2="11.998966"
       y2="11.959416" />
    <linearGradient
       inkscape:collect="always"
       xlink:href="#StandardGradient"
       id="linearGradient2903"
       gradientUnits="userSpaceOnUse"
       gradientTransform="matrix(0.9247229,0,0,1.0872097,-0.0600562,6.997642)"
       x1="11.998966"
       y1="-4.5990243"
       x2="11.998966"
       y2="11.959416" />
    <linearGradient
       inkscape:collect="always"
       xlink:href="#StandardGradient"
       id="linearGradient3680"
       gradientUnits="userSpaceOnUse"
       gradientTransform="matrix(0.9247229,0,0,1.0872097,-0.0600562,7.997642)"
       x1="11.998966"
       y1="-4.5990243"
       x2="11.998966"
       y2="11.959416" />
    <linearGradient
       inkscape:collect="always"
       xlink:href="#StandardGradient"
       id="linearGradient3684"
       gradientUnits="userSpaceOnUse"
       gradientTransform="matrix(0.9247229,0,0,1.0872097,-0.0600562,6.997642)"
       x1="11.998966"
       y1="-4.5990243"
       x2="11.998966"
       y2="11.959416" />
    <linearGradient
       inkscape:collect="always"
       xlink:href="#StandardGradient"
       id="linearGradient3691"
       gradientUnits="userSpaceOnUse"
       gradientTransform="matrix(0.9247229,0,0,1.0872097,-30.060056,6.997642)"
       x1="11.998966"
       y1="-4.5990243"
       x2="11.998966"
       y2="11.959416" />
    <clipPath
       clipPathUnits="userSpaceOnUse"
       id="clipPath3698">
      <path
         style="fill:#ff00ff;fill-opacity:1;stroke:none;display:inline"
         d="m -30,0 0,22 22,0 0,-22 -22,0 z m 8,2 6,0 0,1 1,0 0,1 1.5,0 c 0.831,0 1.5,0.669 1.5,1.5 l 0,12.5 0,0.5 c 0,0.831 -0.669,1.5 -1.5,1.5 l -11,0 c -0.831,0 -1.5,-0.669 -1.5,-1.5 l 0,-13 C -26,4.669 -25.331,4 -24.5,4 l 1.5,0 0,-1 1,0 0,-1 z m 1,2.03125 0,2 4.03125,0 -0.03125,-2 -4,0 z M -23,7 c -0.554,0 -1,0.446 -1,1 l 0,9 c 0,0.554 0.446,1 1,1 l 8,0 c 0.554,0 1,-0.446 1,-1 l 0,-9 c 0,-0.554 -0.446,-1 -1,-1 l -8,0 z m 7,3 0,2 -4,4 -2,-2 0,-2 2,2 4,-4 z"
         id="path3700" />
    </clipPath>
    <filter
       inkscape:collect="always"
       id="filter3702">
      <feGaussianBlur
         inkscape:collect="always"
         stdDeviation="0.48"
         id="feGaussianBlur3704" />
    </filter>
    <linearGradient
       inkscape:collect="always"
       xlink:href="#StandardGradient"
       id="linearGradient5320"
       gradientUnits="userSpaceOnUse"
       gradientTransform="matrix(0.9247229,0,0,1.0872097,-0.0600562,6.997642)"
       x1="11.998966"
       y1="-4.5990243"
       x2="11.998966"
       y2="11.959416" />
    <linearGradient
       inkscape:collect="always"
       xlink:href="#StandardGradient"
       id="linearGradient5324"
       gradientUnits="userSpaceOnUse"
       gradientTransform="matrix(0.9247229,0,0,1.0872097,-0.0600562,6.997642)"
       x1="11.998966"
       y1="-4.5990243"
       x2="11.998966"
       y2="11.959416" />
  </defs>
  <metadata
     id="metadata7">
    <rdf:RDF>
      <cc:Work
         rdf:about="">
        <dc:format>image/svg+xml</dc:format>
        <dc:type
           rdf:resource="http://purl.org/dc/dcmitype/StillImage" />
        <dc:title />
      </cc:Work>
    </rdf:RDF>
  </metadata>
  <g
     style="display:inline"
     inkscape:label="Calque 1"
     id="layer1"
     inkscape:groupmode="layer">
    <path
       style="fill:#ffffff;fill-opacity:1;stroke:none;display:inline;opacity:0.15"
       d="M 7.8125 1.03125 A 0.98398201 0.98398201 0 0 0 7.03125 2 L 7.03125 2.03125 L 7 2.03125 A 0.98398201 0.98398201 0 0 0 6.03125 3 L 6.03125 3.03125 L 5.5 3.03125 C 4.1409469 3.03125 3.03125 4.1409469 3.03125 5.5 L 3.03125 18.5 C 3.03125 19.859053 4.1409469 20.96875 5.5 20.96875 L 16.5 20.96875 C 17.859053 20.96875 18.96875 19.859053 18.96875 18.5 L 18.96875 18 L 18.96875 5.5 C 18.96875 4.1409469 17.859053 3.03125 16.5 3.03125 L 15.96875 3.03125 L 15.96875 3 A 0.98398201 0.98398201 0 0 0 15 2.03125 L 14.96875 2.03125 L 14.96875 2 A 0.98398201 0.98398201 0 0 0 14 1.03125 L 8 1.03125 A 0.98398201 0.98398201 0 0 0 7.8125 1.03125 z M 8 2 L 14 2 L 14 3 L 15 3 L 15 4 L 16.5 4 C 17.331 4 18 4.669 18 5.5 L 18 18 L 18 18.5 C 18 19.331 17.331 20 16.5 20 L 5.5 20 C 4.669 20 4 19.331 4 18.5 L 4 5.5 C 4 4.669 4.669 4 5.5 4 L 7 4 L 7 3 L 8 3 L 8 2 z M 9 4.03125 L 9 6.03125 L 13.03125 6.03125 L 13 4.03125 L 9 4.03125 z M 9.96875 5 L 12.03125 5 L 12.0625 5.0625 L 9.96875 5.0625 L 9.96875 5 z M 7 7 C 6.446 7 6 7.446 6 8 L 6 17 C 6 17.554 6.446 18 7 18 L 15 18 C 15.554 18 16 17.554 16 17 L 16 8 C 16 7.446 15.554 7 15 7 L 7 7 z M 7 7.96875 L 15 7.96875 C 15.025947 7.96875 15.03125 7.9740531 15.03125 8 L 15.03125 17 C 15.03125 17.025947 15.025947 17.03125 15 17.03125 L 7 17.03125 C 6.9740531 17.03125 6.96875 17.025947 6.96875 17 L 6.96875 8 C 6.96875 7.9740531 6.9740531 7.96875 7 7.96875 z M 13.96875 9 A 0.98398201 0.98398201 0 0 0 13.78125 9.03125 A 0.98398201 0.98398201 0 0 0 13.3125 9.3125 L 10 12.625 L 8.6875 11.3125 A 0.98398201 0.98398201 0 0 0 7.03125 12 L 7.03125 14 A 0.98398201 0.98398201 0 0 0 7.3125 14.6875 L 9.3125 16.6875 A 0.98398201 0.98398201 0 0 0 10.6875 16.6875 L 14.6875 12.6875 A 0.98398201 0.98398201 0 0 0 14.96875 12 L 14.96875 10 A 0.98398201 0.98398201 0 0 0 13.96875 9 z M 14 10 L 14 12 L 10 16 L 8 14 L 8 12 L 10 14 L 14 10 z "
       id="path5322" />
    <path
       style="fill:url(#linearGradient2875);fill-opacity:1;stroke:none;display:inline"
       d="M 8 2 L 8 3 L 7 3 L 7 4 L 5.5 4 C 4.669 4 4 4.669 4 5.5 L 4 18.5 C 4 19.331 4.669 20 5.5 20 L 16.5 20 C 17.331 20 18 19.331 18 18.5 L 18 18 L 18 5.5 C 18 4.669 17.331 4 16.5 4 L 15 4 L 15 3 L 14 3 L 14 2 L 8 2 z M 9 4.03125 L 13 4.03125 L 13.03125 6.03125 L 9 6.03125 L 9 4.03125 z M 7 7 L 15 7 C 15.554 7 16 7.446 16 8 L 16 17 C 16 17.554 15.554 18 15 18 L 7 18 C 6.446 18 6 17.554 6 17 L 6 8 C 6 7.446 6.446 7 7 7 z M 14 10 L 10 14 L 8 12 L 8 14 L 10 16 L 14 12 L 14 10 z "
       id="Symbol" />
    <path
       style="fill:#000000;fill-opacity:1;stroke:none;display:inline;opacity:0.5"
       d="M 8 2 L 8 3 L 14 3 L 14 2 L 8 2 z M 14 3 L 14 4 L 15 4 L 15 3 L 14 3 z M 15 4 L 15 5 L 16.5 5 C 17.331 5 18 5.669 18 6.5 L 18 5.5 C 18 4.669 17.331 4 16.5 4 L 15 4 z M 8 3 L 7 3 L 7 4 L 8 4 L 8 3 z M 7 4 L 5.5 4 C 4.669 4 4 4.669 4 5.5 L 4 6.5 C 4 5.669 4.669 5 5.5 5 L 7 5 L 7 4 z M 9 6.03125 L 9 7 L 13.03125 7 L 13.03125 6.03125 L 13 6.03125 L 9 6.03125 z M 14 10 L 10 14 L 8 12 L 8 13 L 10 15 L 14 11 L 14 10 z M 6 17 L 6 18 C 6 18.554 6.446 19 7 19 L 15 19 C 15.554 19 16 18.554 16 18 L 16 17 C 16 17.554 15.554 18 15 18 L 7 18 C 6.446 18 6 17.554 6 17 z "
       id="path2897" />
    <path
       style="fill:#ffffff;fill-opacity:1;stroke:none;display:inline;opacity:0.3"
       d="M 9 4.03125 L 9 5.03125 L 13 5.03125 L 13 4.03125 L 9 4.03125 z M 13 5.03125 L 13 6.03125 L 13.03125 6.03125 L 13 5.03125 z M 7 7 C 6.446 7 6 7.446 6 8 L 6 9 C 6 8.446 6.446 8 7 8 L 15 8 C 15.554 8 16 8.446 16 9 L 16 8 C 16 7.446 15.554 7 15 7 L 13.03125 7 L 13.03125 7.03125 L 9 7.03125 L 9 7 L 7 7 z M 14 12 L 10 16 L 8 14 L 8 15 L 10 17 L 14 13 L 14 12 z M 4 18.5 L 4 19.5 C 4 20.331 4.669 21 5.5 21 L 16.5 21 C 17.331 21 18 20.331 18 19.5 L 18 19 L 18 18.5 C 18 19.331 17.331 20 16.5 20 L 5.5 20 C 4.669 20 4 19.331 4 18.5 z "
       id="path3678" />
  </g>
</svg>
