<?xml version="1.0" encoding="UTF-8" standalone="no"?>
<!-- Created with Inkscape (http://www.inkscape.org/) -->

<svg
   xmlns:dc="http://purl.org/dc/elements/1.1/"
   xmlns:cc="http://creativecommons.org/ns#"
   xmlns:rdf="http://www.w3.org/1999/02/22-rdf-syntax-ns#"
   xmlns:svg="http://www.w3.org/2000/svg"
   xmlns="http://www.w3.org/2000/svg"
   xmlns:xlink="http://www.w3.org/1999/xlink"
   xmlns:sodipodi="http://sodipodi.sourceforge.net/DTD/sodipodi-0.dtd"
   xmlns:inkscape="http://www.inkscape.org/namespaces/inkscape"
   width="22"
   height="22"
   id="svg2"
   sodipodi:version="0.32"
   inkscape:version="0.48.0 r9654"
   version="1.0"
   sodipodi:docname="haguichi-connecting-2.svg"
   inkscape:output_extension="org.inkscape.output.svg.inkscape"
   style="display:inline">
  <defs
     id="defs4">
    <linearGradient
       id="SpecificGradient"
       x1="10.761708"
       y1="3.9999998"
       x2="10.761708"
       y2="18.011395"
       gradientUnits="userSpaceOnUse">
      <stop
         style="stop-color:#a50000;stop-opacity:1;"
         offset="0"
         id="stop3292" />
      <stop
         style="stop-color:#e73800;stop-opacity:1;"
         offset="1"
         id="stop3294" />
    </linearGradient>
    <linearGradient
       id="StandardGradient"
       gradientTransform="matrix(0.9984539,0,0,0.9984539,-0.0459776,0.05767558)"
       x1="10.710332"
       y1="1.9963325"
       x2="10.710332"
       y2="18.974037"
       gradientUnits="userSpaceOnUse">
      <stop
         style="stop-color:#000000;stop-opacity:0.86274511;"
         offset="0"
         id="stop3277" />
      <stop
         style="stop-color:#000000;stop-opacity:0.47058824;"
         offset="1"
         id="stop3279" />
    </linearGradient>
    <linearGradient
       inkscape:collect="always"
       xlink:href="#StandardGradient"
       id="linearGradient4087"
       x1="12"
       y1="3"
       x2="12"
       y2="20"
       gradientUnits="userSpaceOnUse" />
    <linearGradient
       inkscape:collect="always"
       xlink:href="#StandardGradient"
       id="linearGradient4150"
       x1="9"
       y1="3"
       x2="9"
       y2="20"
       gradientUnits="userSpaceOnUse" />
    <linearGradient
       inkscape:collect="always"
       xlink:href="#StandardGradient"
       id="linearGradient4156"
       gradientUnits="userSpaceOnUse"
       x1="9"
       y1="3"
       x2="9"
       y2="20"
       gradientTransform="translate(0,1)" />
    <linearGradient
       inkscape:collect="always"
       xlink:href="#StandardGradient"
       id="linearGradient4158"
       gradientUnits="userSpaceOnUse"
       x1="9"
       y1="3"
       x2="9"
       y2="20" />
    <linearGradient
       inkscape:collect="always"
       xlink:href="#StandardGradient"
       id="linearGradient4163"
       gradientUnits="userSpaceOnUse"
       x1="9"
       y1="3"
       x2="9"
       y2="20"
       gradientTransform="translate(0,1)" />
    <linearGradient
       inkscape:collect="always"
       xlink:href="#StandardGradient"
       id="linearGradient4167"
       gradientUnits="userSpaceOnUse"
       x1="9"
       y1="3"
       x2="9"
       y2="20" />
    <linearGradient
       inkscape:collect="always"
       xlink:href="#StandardGradient"
       id="linearGradient4177"
       gradientUnits="userSpaceOnUse"
       x1="9"
       y1="3"
       x2="9"
       y2="20" />
    <linearGradient
       inkscape:collect="always"
       xlink:href="#StandardGradient"
       id="linearGradient4181"
       gradientUnits="userSpaceOnUse"
       x1="9"
       y1="3"
       x2="9"
       y2="20" />
    <linearGradient
       inkscape:collect="always"
       xlink:href="#StandardGradient"
       id="linearGradient4186"
       gradientUnits="userSpaceOnUse"
       x1="9"
       y1="3"
       x2="9"
       y2="20" />
  </defs>
  <sodipodi:namedview
     id="base"
     pagecolor="#ffffff"
     bordercolor="#e7e7e7"
     borderopacity="1"
     inkscape:pageopacity="0.0"
     inkscape:pageshadow="2"
     inkscape:zoom="10.8901"
     inkscape:cx="10.734715"
     inkscape:cy="3.8206202"
     inkscape:document-units="px"
     inkscape:current-layer="layer1"
     showgrid="true"
     inkscape:showpageshadow="false"
     showguides="false"
     inkscape:guide-bbox="true"
     inkscape:window-width="1920"
     inkscape:window-height="1029"
     inkscape:window-x="0"
     inkscape:window-y="25"
     inkscape:window-maximized="1">
    <sodipodi:guide
       orientation="1,0"
       position="0,112"
       id="guide2383" />
    <sodipodi:guide
       orientation="0,1"
       position="26.278146,128"
       id="guide2385" />
    <sodipodi:guide
       orientation="1,0"
       position="128,54.082119"
       id="guide2387" />
    <sodipodi:guide
       orientation="0,1"
       position="78.156291,0"
       id="guide2389" />
    <sodipodi:guide
       orientation="0,1"
       position="60.863576,64.084768"
       id="guide2391" />
    <inkscape:grid
       type="xygrid"
       id="grid3672"
       visible="true"
       enabled="true" />
  </sodipodi:namedview>
  <metadata
     id="metadata7">
    <rdf:RDF>
      <cc:Work
         rdf:about="">
        <dc:format>image/svg+xml</dc:format>
        <dc:type
           rdf:resource="http://purl.org/dc/dcmitype/StillImage" />
        <dc:title />
      </cc:Work>
    </rdf:RDF>
  </metadata>
  <g
     inkscape:label="Icon"
     inkscape:groupmode="layer"
     id="layer1"
     style="display:inline">
    <path
       style="fill:#ffffff;fill-opacity:1;stroke:none;display:inline;enable-background:new;opacity:0.15"
       d="M 10.21875 7.03125 A 1.0267544 1.0267544 0 0 0 9.71875 7.28125 C 9.1266424 7.7697068 8.5935177 7.9598095 8.09375 8 C 7.119969 7.9489719 5.9724155 8.1038199 5.0625 8.9375 C 4.4265292 9.520212 4.0900575 10.285002 4 11 C 3.9892735 11.085396 3.9679902 11.249702 3.96875 11.46875 C 3.9688509 11.497842 3.9674283 11.499736 3.96875 11.53125 C 3.968923 11.552423 3.96875 11.589461 3.96875 11.59375 A 1.0267544 1.0267544 0 0 0 3.96875 11.6875 C 3.9727313 11.733783 3.9801572 11.867408 4 12 C 4.0016348 12.012969 4.0294649 12.018247 4.03125 12.03125 C 4.0336064 12.048414 4.0286295 12.076533 4.03125 12.09375 C 4.13607 12.782442 4.4532698 13.504289 5.0625 14.0625 C 6.0242052 14.943616 7.2222618 14.992279 8.09375 14.96875 C 8.5648072 15.006637 9.1129649 15.219012 9.71875 15.71875 A 1.0267544 1.0267544 0 0 0 11.03125 15.71875 C 11.045525 15.706807 11.071642 15.675591 11.09375 15.65625 C 10.97315 15.482753 10.823276 15.306667 10.625 15.125 C 10.545689 15.052333 10.45474 15.003281 10.375 14.9375 C 10.249253 14.833766 10.126602 14.744793 10 14.65625 C 9.8835052 14.575649 9.7734349 14.503968 9.65625 14.4375 C 9.53518 14.366721 9.402914 14.306194 9.28125 14.25 C 9.1651653 14.196383 9.0540446 14.164961 8.9375 14.125 C 8.8712023 14.103792 8.8164134 14.048185 8.75 14.03125 C 8.5664231 13.980972 8.3718515 13.952327 8.1875 13.9375 C 8.1661 13.9355 8.1464 13.93685 8.125 13.9375 C 7.422195 13.958658 6.6194062 13.914448 6 13.5 C 5.9113181 13.441901 5.830625 13.386369 5.75 13.3125 C 5.6463778 13.217556 5.5488925 13.105454 5.46875 13 C 5.4636034 12.992994 5.4737978 12.975798 5.46875 12.96875 C 5.3853687 12.856656 5.30913 12.746069 5.25 12.625 C 5.1916788 12.503141 5.1612297 12.37793 5.125 12.25 C 5.0881637 12.122662 5.04775 12.0059 5.03125 11.875 C 5.01185 11.78316 5.008 11.68675 5 11.59375 C 5 11.56295 4.999 11.5309 5 11.5 C 4.9948 11.37601 5.01575 11.2484 5.03125 11.125 C 5.0465334 11.00366 5.0922949 10.868364 5.125 10.75 C 5.1277171 10.740405 5.1221648 10.728319 5.125 10.71875 C 5.1590714 10.600962 5.1969115 10.487511 5.25 10.375 C 5.2536264 10.367423 5.2462834 10.351297 5.25 10.34375 C 5.3682662 10.101611 5.53082 9.888325 5.75 9.6875 C 6.0725 9.39202 6.4679388 9.22208 6.875 9.125 C 7.2795287 9.0286425 7.700745 9.0037 8.125 9.03125 C 8.1449 9.03225 8.168 9.02725 8.1875 9.03125 C 8.3718515 9.0164248 8.5664231 8.9848477 8.75 8.9375 C 8.8787863 8.9042838 8.9967232 8.8619382 9.125 8.8125 C 9.1781312 8.7922529 9.228217 8.7730414 9.28125 8.75 C 9.3218047 8.7321365 9.365758 8.7070105 9.40625 8.6875 C 9.6089631 8.5903613 9.7992155 8.4826703 10 8.34375 C 10.120471 8.2603978 10.25539 8.1611716 10.375 8.0625 C 10.45474 7.9967189 10.545689 7.947667 10.625 7.875 C 10.832386 7.6849856 10.967778 7.4919468 11.09375 7.3125 C 11.047573 7.2778714 10.994115 7.2372541 10.96875 7.21875 A 1.0267544 1.0267544 0 0 0 10.3125 7.03125 A 1.0267544 1.0267544 0 0 0 10.21875 7.03125 z M 12.125 8.46875 C 11.85735 8.5703084 11.598635 8.7013487 11.375 8.90625 C 11.322522 8.9543338 11.298454 8.9852771 11.25 9.03125 C 11.013656 9.2554901 10.807997 9.4714711 10.65625 9.65625 C 10.640048 9.6761848 10.609126 9.6991276 10.59375 9.71875 C 10.443131 9.9112242 10.329195 10.109796 10.25 10.28125 C 10.160413 10.475201 10.091134 10.678511 10.0625 10.875 C 10.033456 11.066935 10.03125 11.279519 10.03125 11.5 C 10.03125 11.710126 10.06845 11.920385 10.125 12.125 C 10.175429 12.307468 10.252382 12.477525 10.34375 12.65625 C 10.358694 12.685483 10.35902 12.720858 10.375 12.75 C 10.476881 12.94207 10.606279 13.124357 10.75 13.3125 C 10.90357 13.508644 11.087209 13.713066 11.28125 13.90625 C 11.355677 13.980348 11.419883 14.051595 11.5 14.125 C 11.694007 14.302756 11.899472 14.455995 12.09375 14.5625 C 12.11694 14.530048 12.143622 14.488546 12.15625 14.46875 A 1.0267544 1.0267544 0 0 0 12 13.1875 C 11.324662 12.515146 11.0625 11.954653 11.0625 11.5 C 11.0625 11.108711 11.066606 10.951065 11.15625 10.75 C 11.245894 10.548935 11.474945 10.249766 11.96875 9.78125 A 1.0267544 1.0267544 0 0 0 12.125 8.46875 z "
       id="path4179" />
    <path
       style="fill:#000000;fill-opacity:1;stroke:none;display:inline;enable-background:new;opacity:0.3"
       d="M 14.375 3 C 13.6987 3 12.93045 3.19416 12.46875 3.71875 C 11.05413 5.3261 12.21121 6.42166 10.625 7.875 C 10.545689 7.947667 10.45474 7.9967189 10.375 8.0625 A 4.5000058 4.4999945 0.013749325 0 1 10.6875 8.3125 A 4.5000058 4.4999945 0.013749325 0 1 11.25 9.03125 C 11.298454 8.9852771 11.322522 8.9543338 11.375 8.90625 C 12.60885 7.77576 14.60697 8.60177 16.21875 7.125 C 17.25074 6.17946 17.25075 4.66429 16.21875 3.71875 C 15.70276 3.24597 15.05129 3 14.375 3 z M 10 8.34375 C 9.7992155 8.4826703 9.6089631 8.5903613 9.40625 8.6875 C 9.6024772 8.5929507 9.8054744 8.4773676 10 8.34375 z M 10.25 10.28125 C 10.156167 10.482307 10.093327 10.671282 10.0625 10.875 C 10.091134 10.678511 10.160413 10.475201 10.25 10.28125 z M 11.28125 13.9375 A 4.5000058 4.4999945 0.013749325 0 1 10.375 14.9375 C 10.45474 15.003281 10.545689 15.052333 10.625 15.125 C 12.21121 16.57834 10.94452 17.7357 12.46875 19.28125 C 13.4509 20.27713 15.18676 20.22679 16.21875 19.28125 C 17.25075 18.33571 17.25074 16.78929 16.21875 15.84375 C 14.60697 14.36698 13.05206 15.54705 11.5 14.125 C 11.425606 14.056838 11.350746 14.00626 11.28125 13.9375 z M 9.65625 14.4375 C 9.7734349 14.503968 9.8835052 14.575649 10 14.65625 C 9.8857562 14.576349 9.7711079 14.504647 9.65625 14.4375 z "
       id="path12817-5-7-1-4-3" />
    <use
       style="display:inline;enable-background:new"
       x="0"
       y="0"
       xlink:href="#use14525"
       id="use14527"
       transform="translate(60,0)"
       width="400"
       height="300" />
    <use
       style="display:inline;enable-background:new"
       x="0"
       y="0"
       xlink:href="#use14525"
       id="use14527-1"
       transform="translate(20,0)"
       width="400"
       height="300" />
    <use
       style="display:inline;enable-background:new"
       x="0"
       y="0"
       xlink:href="#use14525"
       id="use14527-6"
       transform="translate(20,0)"
       width="400"
       height="300" />
    <path
       inkscape:connector-curvature="0"
       style="fill:url(#linearGradient4150);fill-opacity:1;stroke:none;display:inline;enable-background:new"
       d="M 10.375,8.0625 C 9.657341,8.6545299 8.924906,8.971949 8.1875,9.03125 8.168,9.02725 8.1449,9.03225 8.125,9.03125 7.27649,8.97615 6.395,9.09654 5.75,9.6875 5.31164,10.08915 5.0972,10.6014 5.03125,11.125 5.01575,11.2484 4.9948,11.37601 5,11.5 c -0.001,0.0309 0,0.06295 0,0.09375 0.008,0.093 0.01185,0.18941 0.03125,0.28125 0.066,0.5236 0.28039,1.03585 0.71875,1.4375 0.645,0.59095 1.57347,0.64913 2.375,0.625 0.0214,-6.5e-4 0.0411,-0.002 0.0625,0 0.737406,0.05931 1.469841,0.407972 2.1875,1 a 4.5000058,4.4999945 0.78777832 0 0 0.90625,-1.03125 c -0.776165,-0.772736 -1.25,-1.565746 -1.25,-2.40625 0,-0.881922 0.12801,-1.433871 1.21875,-2.46875 A 4.5000058,4.4999945 0.78777832 0 0 10.6875,8.3125 4.5000058,4.4999945 0.78777832 0 0 10.375,8.0625 z"
       id="path5804" />
    <path
       style="fill:#000000;fill-opacity:1;stroke:none;display:inline;enable-background:new;opacity:0.5"
       d="M 10.375 8.0625 C 9.657341 8.6545299 8.924906 8.971949 8.1875 9.03125 C 8.168 9.02725 8.1449 9.03225 8.125 9.03125 C 7.27649 8.97615 6.395 9.09654 5.75 9.6875 C 5.31164 10.08915 5.0972 10.6014 5.03125 11.125 C 5.01575 11.2484 4.9948 11.37601 5 11.5 C 4.999 11.5309 5 11.56295 5 11.59375 C 5.008 11.68675 5.01185 11.78316 5.03125 11.875 C 5.03675 11.918633 5.0548953 11.956582 5.0625 12 C 5.1461203 11.522399 5.34817 11.055679 5.75 10.6875 C 6.395 10.09654 7.27649 9.97615 8.125 10.03125 C 8.1449 10.03225 8.168 10.02725 8.1875 10.03125 C 8.924906 9.971949 9.657341 9.6545299 10.375 9.0625 A 4.5000058 4.4999945 0.013749325 0 1 10.6875 9.3125 A 4.5000058 4.4999945 0.013749325 0 1 10.84375 9.46875 C 10.970781 9.3269142 11.078724 9.193754 11.25 9.03125 A 4.5000058 4.4999945 0.013749325 0 0 10.6875 8.3125 A 4.5000058 4.4999945 0.013749325 0 0 10.375 8.0625 z M 10.09375 11.8125 C 10.055568 12.0251 10.03125 12.253618 10.03125 12.5 C 10.03125 13.176929 10.349895 13.807964 10.875 14.4375 A 4.5000058 4.4999945 0.013749325 0 0 11.28125 13.90625 C 10.602817 13.230814 10.195675 12.537093 10.09375 11.8125 z "
       id="path4152" />
    <path
       style="fill:#ffffff;fill-opacity:1;stroke:none;display:inline;enable-background:new;opacity:0.3"
       d="M 10.84375 9.46875 C 10.673265 9.6591052 10.545638 9.8319596 10.4375 10 C 10.329362 10.16804 10.246441 10.340147 10.1875 10.5 C 10.128559 10.659853 10.085395 10.802958 10.0625 10.96875 C 10.043542 11.138448 10.03125 11.30418 10.03125 11.5 C 10.03125 11.605834 10.079067 11.708118 10.09375 11.8125 C 10.19224 11.264102 10.46398 10.777015 11.25 10.03125 A 4.5000058 4.4999945 0.00023997099 0 0 10.84375 9.46875 z M 5.0625 12 C 5.0548982 12.043418 5.0367458 12.081367 5.03125 12.125 C 5.01575 12.2484 4.9948 12.37601 5 12.5 C 4.999 12.5309 5 12.56295 5 12.59375 C 5.008 12.68675 5.01185 12.78316 5.03125 12.875 C 5.09725 13.3986 5.31164 13.91085 5.75 14.3125 C 6.395 14.90345 7.32347 14.96163 8.125 14.9375 C 8.1464 14.93685 8.1661 14.9355 8.1875 14.9375 C 8.924906 14.99681 9.657341 15.345472 10.375 15.9375 A 4.5000058 4.4999945 0.00023997099 0 0 10.875 15.40625 C 10.793052 15.312248 10.73031 15.221489 10.625 15.125 C 10.545689 15.052333 10.45474 15.003281 10.375 14.9375 C 10.25539 14.838829 10.120471 14.739602 10 14.65625 C 9.8835052 14.575649 9.7734349 14.503968 9.65625 14.4375 C 9.53518 14.366721 9.402914 14.306194 9.28125 14.25 C 9.1651653 14.196383 9.0540446 14.164961 8.9375 14.125 C 8.8712023 14.103792 8.8164134 14.048185 8.75 14.03125 C 8.5664231 13.980972 8.3718515 13.952327 8.1875 13.9375 C 8.1661 13.9355 8.1464 13.93685 8.125 13.9375 C 7.422195 13.958658 6.6194062 13.914448 6 13.5 C 5.9113181 13.441901 5.830625 13.386369 5.75 13.3125 C 5.6572283 13.227497 5.5738824 13.124773 5.5 13.03125 C 5.4869067 13.013681 5.4811968 12.986591 5.46875 12.96875 C 5.3995926 12.875778 5.3336095 12.786805 5.28125 12.6875 C 5.2767862 12.678571 5.2855863 12.665222 5.28125 12.65625 C 5.2285233 12.553333 5.1923906 12.451612 5.15625 12.34375 C 5.146009 12.311441 5.1339382 12.282594 5.125 12.25 C 5.1004425 12.165108 5.0778742 12.086676 5.0625 12 z "
       id="path4161" />
    <path
       inkscape:connector-curvature="0"
       style="opacity:0.3;fill:#000000;fill-opacity:1;stroke:none;display:inline;enable-background:new"
       id="path3082"
       d="m -5.63435,3.00005 c -0.6763,0 -1.4302,0.191 -1.8919,0.71559 -1.41462,1.60735 -0.27414,2.69351 -1.86035,4.14685 -0.79311,0.72667 -1.60859,1.1075 -2.42793,1.17339 -0.0195,-0.004 -0.0432,10e-4 -0.0631,0 -0.84851,-0.0551 -1.71987,0.0624 -2.36487,0.65336 -0.43836,0.40165 -0.65927,0.90758 -0.72522,1.43118 -0.0155,0.1234 -0.0367,0.24936 -0.0315,0.37335 -0.001,0.0309 0,0.0625 0,0.0933 0.008,0.093 0.0121,0.18817 0.0315,0.28001 0.066,0.5236 0.28686,1.02953 0.72522,1.43118 0.645,0.59095 1.56334,0.67749 2.36487,0.65336 0.0214,-6.5e-4 0.0417,-0.002 0.0631,0 0.81934,0.0659 1.63482,0.44672 2.42793,1.17339 1.58621,1.45334 0.33612,2.6013 1.86035,4.14685 0.98215,0.99588 2.72026,0.94554 3.75225,0 1.032,-0.94554 1.03199,-2.47684 0,-3.42238 -1.61178,-1.47677 -3.16946,-0.28914 -4.72152,-1.71119 -0.91562,-0.83892 -1.46792,-1.72346 -1.46792,-2.64456 0,-0.9211 0.0998,-1.44692 1.33359,-2.5774 C -7.396,7.78584 -5.38578,8.61475 -3.774,7.13798 -2.74201,6.19244 -2.742,4.66114 -3.774,3.7156 -4.28999,3.24282 -4.95806,3 -5.63435,3 l 0,5e-5 z" />
  </g>
</svg>
