<?xml version="1.0" encoding="UTF-8" standalone="no"?>
<!-- Created with Inkscape (http://www.inkscape.org/) -->

<svg
   xmlns:dc="http://purl.org/dc/elements/1.1/"
   xmlns:cc="http://creativecommons.org/ns#"
   xmlns:rdf="http://www.w3.org/1999/02/22-rdf-syntax-ns#"
   xmlns:svg="http://www.w3.org/2000/svg"
   xmlns="http://www.w3.org/2000/svg"
   xmlns:xlink="http://www.w3.org/1999/xlink"
   xmlns:sodipodi="http://sodipodi.sourceforge.net/DTD/sodipodi-0.dtd"
   xmlns:inkscape="http://www.inkscape.org/namespaces/inkscape"
   width="22"
   height="22"
   id="svg2"
   sodipodi:version="0.32"
   inkscape:version="0.48.0 r9654"
   version="1.0"
   sodipodi:docname="radiotray_connecting.svg"
   inkscape:output_extension="org.inkscape.output.svg.inkscape"
   style="display:inline">
  <defs
     id="defs4">
    <inkscape:perspective
       sodipodi:type="inkscape:persp3d"
       inkscape:vp_x="0 : 11 : 1"
       inkscape:vp_y="0 : 1000 : 0"
       inkscape:vp_z="22 : 11 : 1"
       inkscape:persp3d-origin="11 : 7.3333333 : 1"
       id="perspective24" />
    <linearGradient
       id="linearGradient4081">
      <stop
         style="stop-color:#aaaaaa;stop-opacity:1;"
         offset="0"
         id="stop4083" />
      <stop
         style="stop-color:#f0f0f0;stop-opacity:1;"
         offset="1"
         id="stop4085" />
    </linearGradient>
    <linearGradient
       inkscape:collect="always"
       xlink:href="#linearGradient4081"
       id="linearGradient3643"
       gradientUnits="userSpaceOnUse"
       gradientTransform="matrix(0.93103448,0,0,0.93103448,-28.607759,0.1594828)"
       x1="10"
       y1="2.4281847"
       x2="10"
       y2="20.110771" />
    <linearGradient
       inkscape:collect="always"
       xlink:href="#linearGradient4081"
       id="linearGradient3648"
       gradientUnits="userSpaceOnUse"
       gradientTransform="matrix(0,1,-1,0,22.000002,2e-6)"
       x1="4"
       y1="11.000002"
       x2="18"
       y2="11.000002" />
    <linearGradient
       inkscape:collect="always"
       xlink:href="#linearGradient4081"
       id="linearGradient3653"
       gradientUnits="userSpaceOnUse"
       gradientTransform="matrix(0,-1,-1,0,22.000002,22.000002)"
       x1="4"
       y1="11.000002"
       x2="18"
       y2="11.000002" />
    <inkscape:perspective
       id="perspective4085"
       inkscape:persp3d-origin="0.5 : 0.33333333 : 1"
       inkscape:vp_z="1 : 0.5 : 1"
       inkscape:vp_y="0 : 1000 : 0"
       inkscape:vp_x="0 : 0.5 : 1"
       sodipodi:type="inkscape:persp3d" />
    <linearGradient
       y2="3.5"
       x2="59"
       y1="3.5"
       x1="54"
       gradientTransform="translate(-45,53)"
       gradientUnits="userSpaceOnUse"
       id="linearGradient3829"
       xlink:href="#SpecificGradient"
       inkscape:collect="always" />
    <linearGradient
       id="SpecificGradient"
       x1="10.761708"
       y1="3.9999998"
       x2="10.761708"
       y2="18.011395"
       gradientUnits="userSpaceOnUse">
      <stop
         style="stop-color:#a50000;stop-opacity:1;"
         offset="0"
         id="stop3292" />
      <stop
         style="stop-color:#e73800;stop-opacity:1;"
         offset="1"
         id="stop3294" />
    </linearGradient>
    <linearGradient
       inkscape:collect="always"
       xlink:href="#StandardGradient"
       id="linearGradient3833"
       x1="54"
       y1="3.5"
       x2="59"
       y2="3.5"
       gradientUnits="userSpaceOnUse"
       gradientTransform="translate(-53,53)" />
    <linearGradient
       id="StandardGradient"
       gradientTransform="matrix(0.9984539,0,0,0.9984539,-0.0459776,0.05767558)"
       x1="10.710332"
       y1="1.9963325"
       x2="10.710332"
       y2="18.974037"
       gradientUnits="userSpaceOnUse">
      <stop
         style="stop-color:#000000;stop-opacity:0.86274511;"
         offset="0"
         id="stop3277" />
      <stop
         style="stop-color:#000000;stop-opacity:0.47058824;"
         offset="1"
         id="stop3279" />
    </linearGradient>
    <linearGradient
       inkscape:collect="always"
       xlink:href="#StandardGradient"
       id="linearGradient3655"
       gradientUnits="userSpaceOnUse"
       gradientTransform="matrix(0,-1,-1,0,22.000002,23.000002)"
       x1="18.004087"
       y1="14.34689"
       x2="3.9078364"
       y2="14.34689" />
    <linearGradient
       inkscape:collect="always"
       xlink:href="#StandardGradient"
       id="linearGradient3659"
       gradientUnits="userSpaceOnUse"
       gradientTransform="matrix(0,-1,-1,0,22.000002,22.000002)"
       x1="18.004087"
       y1="14.34689"
       x2="3.9078364"
       y2="14.34689" />
    <linearGradient
       inkscape:collect="always"
       xlink:href="#StandardGradient"
       id="linearGradient3664"
       gradientUnits="userSpaceOnUse"
       gradientTransform="matrix(0,-1,-1,0,-7.999998,22.000002)"
       x1="18.004087"
       y1="14.34689"
       x2="3.9078364"
       y2="14.34689" />
    <clipPath
       clipPathUnits="userSpaceOnUse"
       id="clipPath3669">
      <path
         style="fill:#ff00ff;fill-opacity:1;stroke:none;display:inline"
         d="m -30,0 0,22 22,0 0,-22 -22,0 z m 10.03125,4 1.9375,0 c 0.275482,0 0.5,0.219811 0.5,0.5 l 0,1 c 0.492582,0.131243 0.944357,0.312043 1.375,0.5625 L -15.4375,5.375 c 0.198125,-0.198124 0.492704,-0.19482 0.6875,0 l 1.375,1.375 c 0.194794,0.194799 0.1981,0.489374 0,0.6875 l -0.6875,0.71875 c 0.250459,0.430642 0.431256,0.882417 0.5625,1.375 l 1,0 c 0.280194,0 0.5,0.224518 0.5,0.5 l 0,1.9375 c 0,0.275485 -0.219808,0.5 -0.5,0.5 l -1,0 c -0.131243,0.492582 -0.312042,0.944357 -0.5625,1.375 l 0.6875,0.71875 c 0.09906,0.09906 0.155165,0.215552 0.15625,0.34375 0.0011,0.128198 -0.05886,0.246352 -0.15625,0.34375 l -1.375,1.375 c -0.194796,0.194795 -0.489374,0.198122 -0.6875,0 l -0.71875,-0.6875 c -0.430642,0.25046 -0.882417,0.431254 -1.375,0.5625 l 0,1 c 0,0.280196 -0.224517,0.5 -0.5,0.5 l -1.9375,0 c -0.275483,0 -0.5,-0.219807 -0.5,-0.5 l 0,-1 c -0.492584,-0.131247 -0.944359,-0.312043 -1.375,-0.5625 l -0.71875,0.6875 c -0.198126,0.198125 -0.492704,0.194809 -0.6875,0 l -1.375,-1.375 c -0.194796,-0.194795 -0.19812,-0.489374 0,-0.6875 l 0.6875,-0.71875 c -0.250457,-0.430643 -0.431256,-0.882418 -0.5625,-1.375 l -1,0 c -0.280193,0 -0.5,-0.224515 -0.5,-0.5 l 0,-1.9375 c 0,-0.275484 0.219807,-0.5 0.5,-0.5 l 1,0 c 0.131244,-0.492583 0.312043,-0.944358 0.5625,-1.375 L -24.625,7.4375 c -0.198125,-0.198124 -0.194801,-0.492704 0,-0.6875 l 1.375,-1.375 c 0.194797,-0.194794 0.489376,-0.1981 0.6875,0 l 0.71875,0.6875 c 0.430641,-0.250457 0.882416,-0.431257 1.375,-0.5625 l 0,-1 c -3e-6,-0.280189 0.224516,-0.5 0.5,-0.5 z M -19,8.875 c -1.168184,0 -2.125,0.956819 -2.125,2.125 0,1.168182 0.956816,2.125 2.125,2.125 1.168182,0 2.125,-0.956818 2.125,-2.125 0,-1.168184 -0.956818,-2.125 -2.125,-2.125 z"
         id="path3671" />
    </clipPath>
    <linearGradient
       inkscape:collect="always"
       xlink:href="#StandardGradient"
       id="linearGradient3694"
       x1="12"
       y1="7"
       x2="12"
       y2="20.038404"
       gradientUnits="userSpaceOnUse" />
    <linearGradient
       inkscape:collect="always"
       xlink:href="#StandardGradient"
       id="linearGradient3716"
       gradientUnits="userSpaceOnUse"
       x1="12"
       y1="7"
       x2="12"
       y2="20.038404"
       gradientTransform="translate(0,1)" />
    <linearGradient
       inkscape:collect="always"
       xlink:href="#StandardGradient"
       id="linearGradient3718"
       gradientUnits="userSpaceOnUse"
       x1="12"
       y1="7"
       x2="12"
       y2="20.038404" />
    <linearGradient
       inkscape:collect="always"
       xlink:href="#StandardGradient"
       id="linearGradient3723"
       gradientUnits="userSpaceOnUse"
       x1="12"
       y1="7"
       x2="12"
       y2="20.038404"
       gradientTransform="translate(0,1)" />
    <linearGradient
       inkscape:collect="always"
       xlink:href="#StandardGradient"
       id="linearGradient3727"
       gradientUnits="userSpaceOnUse"
       x1="12"
       y1="7"
       x2="12"
       y2="20.038404" />
    <linearGradient
       inkscape:collect="always"
       xlink:href="#StandardGradient"
       id="linearGradient3732"
       gradientUnits="userSpaceOnUse"
       x1="12"
       y1="7"
       x2="12"
       y2="20.038404"
       gradientTransform="translate(-30,0)" />
    <clipPath
       clipPathUnits="userSpaceOnUse"
       id="clipPath3740">
      <path
         style="fill:#ff00ff;fill-opacity:1;stroke:none;display:inline"
         d="m -30,0 0,22 22,0 0,-22 -22,0 z m 11,7 c 1.104569,0 2,0.8954305 2,2 0,1.104569 -0.895431,2 -2,2 -1.10457,0 -2,-0.895431 -2,-2 0,-1.1045695 0.89543,-2 2,-2 z m 0,6 c 0.554,0 1,0.446 1,1 l 0,5 c 0,0.554 -0.446,1 -1,1 -0.554,0 -1,-0.446 -1,-1 l 0,-5 c 0,-0.554 0.446,-1 1,-1 z"
         id="path3742" />
    </clipPath>
    <filter
       inkscape:collect="always"
       id="filter3744"
       x="-0.153"
       width="1.306"
       y="-0.047076923"
       height="1.0941538">
      <feGaussianBlur
         inkscape:collect="always"
         stdDeviation="0.255"
         id="feGaussianBlur3746" />
    </filter>
    <linearGradient
       inkscape:collect="always"
       xlink:href="#StandardGradient"
       id="linearGradient4696"
       gradientUnits="userSpaceOnUse"
       x1="12"
       y1="7"
       x2="12"
       y2="20.038404" />
    <linearGradient
       inkscape:collect="always"
       xlink:href="#StandardGradient"
       id="linearGradient4700"
       gradientUnits="userSpaceOnUse"
       x1="12"
       y1="7"
       x2="12"
       y2="20.038404" />
  </defs>
  <sodipodi:namedview
     id="base"
     pagecolor="#ffffff"
     bordercolor="#e7e7e7"
     borderopacity="1"
     inkscape:pageopacity="0.0"
     inkscape:pageshadow="2"
     inkscape:zoom="13.382671"
     inkscape:cx="-21.902181"
     inkscape:cy="4.1421417"
     inkscape:document-units="px"
     inkscape:current-layer="layer1"
     showgrid="true"
     inkscape:showpageshadow="false"
     showguides="false"
     inkscape:guide-bbox="true"
     inkscape:window-width="1920"
     inkscape:window-height="1029"
     inkscape:window-x="0"
     inkscape:window-y="25"
     inkscape:window-maximized="1"
     inkscape:snap-global="true">
    <sodipodi:guide
       orientation="1,0"
       position="0,112"
       id="guide2383" />
    <sodipodi:guide
       orientation="0,1"
       position="26.278146,128"
       id="guide2385" />
    <sodipodi:guide
       orientation="1,0"
       position="128,54.082119"
       id="guide2387" />
    <sodipodi:guide
       orientation="0,1"
       position="78.156291,0"
       id="guide2389" />
    <sodipodi:guide
       orientation="0,1"
       position="60.863576,64.084768"
       id="guide2391" />
    <inkscape:grid
       type="xygrid"
       id="grid3672"
       visible="true"
       enabled="true" />
  </sodipodi:namedview>
  <metadata
     id="metadata7">
    <rdf:RDF>
      <cc:Work
         rdf:about="">
        <dc:format>image/svg+xml</dc:format>
        <dc:type
           rdf:resource="http://purl.org/dc/dcmitype/StillImage" />
        <dc:title />
      </cc:Work>
    </rdf:RDF>
  </metadata>
  <g
     inkscape:label="Icon"
     inkscape:groupmode="layer"
     id="layer1"
     style="display:inline">
    <path
       style="color:#000000;fill:#ffffff;fill-opacity:1;fill-rule:nonzero;stroke:none;stroke-width:1;marker:none;visibility:visible;display:inline;overflow:visible;enable-background:accumulate;opacity:0.15"
       d="M 11 5.96875 C 9.3461545 5.96875 7.96875 7.3461545 7.96875 9 C 7.96875 10.628879 9.3175246 11.959725 10.9375 12 C 9.8714235 12.040278 8.96875 12.925459 8.96875 14 L 8.96875 19 C 8.96875 20.099478 9.9005224 21.03125 11 21.03125 C 12.099478 21.03125 13.03125 20.099478 13.03125 19 L 13.03125 14 C 13.03125 12.925459 12.128577 12.040278 11.0625 12 C 12.682475 11.959725 14.03125 10.628879 14.03125 9 C 14.03125 7.3461542 12.653845 5.96875 11 5.96875 z M 11 7 C 12.104569 7 13 7.8954305 13 9 C 13 10.104569 12.104569 11 11 11 C 9.8954305 11 9 10.104569 9 9 C 9 7.8954305 9.8954305 7 11 7 z M 11 13 C 11.554 13 12 13.446 12 14 L 12 19 C 12 19.554 11.554 20 11 20 C 10.446 20 10 19.554 10 19 L 10 14 C 10 13.446 10.446 13 11 13 z "
       id="path4698" />
    <path
       style="opacity:1;color:#000000;fill:url(#linearGradient3694);fill-opacity:1;fill-rule:nonzero;stroke:none;stroke-width:1;marker:none;visibility:visible;display:inline;overflow:visible;enable-background:accumulate"
       d="M 11 7 C 9.8954305 7 9 7.8954305 9 9 C 9 10.104569 9.8954305 11 11 11 C 12.104569 11 13 10.104569 13 9 C 13 7.8954305 12.104569 7 11 7 z M 11 13 C 10.446 13 10 13.446 10 14 L 10 19 C 10 19.554 10.446 20 11 20 C 11.554 20 12 19.554 12 19 L 12 14 C 12 13.446 11.554 13 11 13 z "
       id="path2882" />
    <path
       style="font-size:medium;font-style:normal;font-variant:normal;font-weight:normal;font-stretch:normal;text-indent:0;text-align:start;text-decoration:none;line-height:normal;letter-spacing:normal;word-spacing:normal;text-transform:none;direction:ltr;block-progression:tb;writing-mode:lr-tb;text-anchor:start;opacity:0.3;color:#000000;fill:#000000;fill-opacity:1;stroke:none;stroke-width:0.80000001;marker:none;visibility:visible;display:inline;overflow:visible;enable-background:accumulate;font-family:Abandoned Bitplane;-inkscape-font-specification:Abandoned Bitplane"
       d="m 13.651652,4.9120388 a 1.0001001,1.0001001 0 0 0 0.165728,1.2705825 c 1.570472,1.5704726 1.570471,4.0642857 0,5.6347577 a 1.015625,1.015625 0 1 0 1.43631,1.43631 c 2.334772,-2.334771 2.334772,-6.1726071 0,-8.5073783 a 1.0001001,1.0001001 0 0 0 -1.602038,0.1657281 z"
       id="path3658" />
    <path
       style="font-size:medium;font-style:normal;font-variant:normal;font-weight:normal;font-stretch:normal;text-indent:0;text-align:start;text-decoration:none;line-height:normal;letter-spacing:normal;word-spacing:normal;text-transform:none;direction:ltr;block-progression:tb;writing-mode:lr-tb;text-anchor:start;opacity:0.3;color:#000000;fill:#000000;fill-opacity:1;stroke:none;stroke-width:0.44444445;marker:none;visibility:visible;display:inline;overflow:visible;enable-background:accumulate;font-family:Abandoned Bitplane;-inkscape-font-specification:Abandoned Bitplane"
       d="m 16.369592,2.2382914 a 1.0001,1.0001 0 0 0 0,0.1988738 1.0001,1.0001 0 0 0 0,0.1988738 1.0001,1.0001 0 0 0 0,0.1988738 1.0001,1.0001 0 0 0 0.298311,0.4971844 c 3.13257,3.1325698 3.13257,8.2032348 0,11.3358058 a 1.0001,1.0001 0 0 0 -0.09944,0.09944 1.0001,1.0001 0 0 0 -0.198874,0.795495 1.0001,1.0001 0 0 0 0.198874,0.397747 1.0001,1.0001 0 0 0 0.298311,0.298311 1.0001,1.0001 0 0 0 0.29831,0.09944 1.0001,1.0001 0 0 0 0.198874,0 1.0001,1.0001 0 0 0 0.198874,0 1.0001,1.0001 0 0 0 0.497184,-0.298311 c 3.896867,-3.896866 3.896867,-10.2231717 0,-14.1200382 a 1.0001,1.0001 0 0 0 -0.09944,-0.099437 1.0001,1.0001 0 0 0 -0.795495,-0.1988738 1.0001,1.0001 0 0 0 -0.397747,0.1988738 1.0001,1.0001 0 0 0 -0.298311,0.2983106 1.0001,1.0001 0 0 0 -0.09944,0.099437 z"
       id="path3660" />
    <path
       style="font-size:medium;font-style:normal;font-variant:normal;font-weight:normal;font-stretch:normal;text-indent:0;text-align:start;text-decoration:none;line-height:normal;letter-spacing:normal;word-spacing:normal;text-transform:none;direction:ltr;block-progression:tb;writing-mode:lr-tb;text-anchor:start;opacity:0.3;color:#000000;fill:#000000;fill-opacity:1;stroke:none;stroke-width:0.80000001;marker:none;visibility:visible;display:inline;overflow:visible;enable-background:accumulate;font-family:Abandoned Bitplane;-inkscape-font-specification:Abandoned Bitplane"
       d="M 8.3483485,4.9120388 A 1.0001001,1.0001001 0 0 1 8.1826203,6.1826213 c -1.5704725,1.5704726 -1.5704718,4.0642857 0,5.6347577 a 1.015625,1.015625 0 0 1 -1.4363106,1.43631 c -2.3347712,-2.334771 -2.3347712,-6.1726071 0,-8.5073783 a 1.0001001,1.0001001 0 0 1 1.6020388,0.1657281 z"
       id="path3662" />
    <path
       style="font-size:medium;font-style:normal;font-variant:normal;font-weight:normal;font-stretch:normal;text-indent:0;text-align:start;text-decoration:none;line-height:normal;letter-spacing:normal;word-spacing:normal;text-transform:none;direction:ltr;block-progression:tb;writing-mode:lr-tb;text-anchor:start;opacity:0.3;color:#000000;fill:#000000;fill-opacity:1;stroke:none;stroke-width:0.44444445;marker:none;visibility:visible;display:inline;overflow:visible;enable-background:accumulate;font-family:Abandoned Bitplane;-inkscape-font-specification:Abandoned Bitplane"
       d="m 5.6304079,2.2382914 a 1.0001,1.0001 0 0 1 0,0.1988738 1.0001,1.0001 0 0 1 0,0.1988738 1.0001,1.0001 0 0 1 0,0.1988738 1.0001,1.0001 0 0 1 -0.2983107,0.4971844 c -3.1325697,3.1325698 -3.1325707,8.2032348 0,11.3358058 a 1.0001,1.0001 0 0 1 0.099437,0.09944 1.0001,1.0001 0 0 1 0.1988738,0.795495 1.0001,1.0001 0 0 1 -0.1988738,0.397747 1.0001,1.0001 0 0 1 -0.2983106,0.298311 1.0001,1.0001 0 0 1 -0.2983107,0.09944 1.0001,1.0001 0 0 1 -0.1988738,0 1.0001,1.0001 0 0 1 -0.1988738,0 1.0001,1.0001 0 0 1 -0.4971844,-0.298311 c -3.89686655,-3.896866 -3.89686655,-10.2231717 0,-14.1200382 a 1.0001,1.0001 0 0 1 0.099437,-0.099437 1.0001,1.0001 0 0 1 0.7954951,-0.1988738 1.0001,1.0001 0 0 1 0.3977475,0.1988738 1.0001,1.0001 0 0 1 0.2983107,0.2983106 1.0001,1.0001 0 0 1 0.099437,0.099437 z"
       id="path3664" />
    <path
       style="opacity:0.5;color:#000000;fill:#000000;fill-opacity:1;fill-rule:nonzero;stroke:none;stroke-width:1;marker:none;visibility:visible;display:inline;overflow:visible;enable-background:accumulate"
       d="M 11 7 C 9.8954305 7 9 7.8954305 9 9 C 9 9.1725889 9.0213958 9.3402409 9.0625 9.5 C 9.2844627 8.6373007 10.068019 8 11 8 C 11.93198 8 12.715537 8.6373007 12.9375 9.5 C 12.978604 9.3402409 13 9.1725889 13 9 C 13 7.8954305 12.104569 7 11 7 z M 11 13 C 10.446 13 10 13.446 10 14 L 10 15 C 10 14.446 10.446 14 11 14 C 11.554 14 12 14.446 12 15 L 12 14 C 12 13.446 11.554 13 11 13 z "
       id="path3712" />
    <path
       style="color:#000000;fill:#ffffff;fill-opacity:1;fill-rule:nonzero;stroke:none;stroke-width:1;marker:none;visibility:visible;display:inline;overflow:visible;enable-background:accumulate;opacity:0.3"
       d="M 9.0625 9.5 C 9.0213958 9.6597591 9 9.827411 9 10 C 9 11.104569 9.8954305 12 11 12 C 12.104569 12 13 11.104569 13 10 C 13 9.827411 12.978604 9.6597591 12.9375 9.5 C 12.715537 10.362699 11.93198 11 11 11 C 10.068019 11 9.2844627 10.362699 9.0625 9.5 z M 10 19 L 10 20 C 10 20.554 10.446 21 11 21 C 11.554 21 12 20.554 12 20 L 12 19 C 12 19.554 11.554 20 11 20 C 10.446 20 10 19.554 10 19 z "
       id="path3721" />
  </g>
</svg>
