<?xml version="1.0" encoding="UTF-8" standalone="no"?>
<!-- Created with Inkscape (http://www.inkscape.org/) -->

<svg
   xmlns:dc="http://purl.org/dc/elements/1.1/"
   xmlns:cc="http://creativecommons.org/ns#"
   xmlns:rdf="http://www.w3.org/1999/02/22-rdf-syntax-ns#"
   xmlns:svg="http://www.w3.org/2000/svg"
   xmlns="http://www.w3.org/2000/svg"
   xmlns:xlink="http://www.w3.org/1999/xlink"
   xmlns:sodipodi="http://sodipodi.sourceforge.net/DTD/sodipodi-0.dtd"
   xmlns:inkscape="http://www.inkscape.org/namespaces/inkscape"
   width="22"
   height="22"
   id="svg2"
   sodipodi:version="0.32"
   inkscape:version="0.48.2 r9819"
   version="1.0"
   sodipodi:docname="system-devices-panel-informations.svg"
   inkscape:output_extension="org.inkscape.output.svg.inkscape"
   style="display:inline">
  <defs
     id="defs4">
    <inkscape:perspective
       sodipodi:type="inkscape:persp3d"
       inkscape:vp_x="0 : 11 : 1"
       inkscape:vp_y="0 : 1000 : 0"
       inkscape:vp_z="22 : 11 : 1"
       inkscape:persp3d-origin="11 : 7.3333333 : 1"
       id="perspective24" />
    <linearGradient
       id="linearGradient4081">
      <stop
         style="stop-color:#aaaaaa;stop-opacity:1;"
         offset="0"
         id="stop4083" />
      <stop
         style="stop-color:#f0f0f0;stop-opacity:1;"
         offset="1"
         id="stop4085" />
    </linearGradient>
    <linearGradient
       inkscape:collect="always"
       xlink:href="#linearGradient4081"
       id="linearGradient3643"
       gradientUnits="userSpaceOnUse"
       gradientTransform="matrix(0.93103448,0,0,0.93103448,-28.607759,0.1594828)"
       x1="10"
       y1="2.4281847"
       x2="10"
       y2="20.110771" />
    <linearGradient
       inkscape:collect="always"
       xlink:href="#StandardGradient"
       id="linearGradient3642"
       x1="18.004087"
       y1="14.34689"
       x2="3.9078364"
       y2="14.34689"
       gradientUnits="userSpaceOnUse"
       gradientTransform="matrix(0,-1,-1,0,22.000002,22.000002)" />
    <linearGradient
       inkscape:collect="always"
       xlink:href="#linearGradient4081"
       id="linearGradient3648"
       gradientUnits="userSpaceOnUse"
       gradientTransform="matrix(0,1,-1,0,22.000002,2e-6)"
       x1="4"
       y1="11.000002"
       x2="18"
       y2="11.000002" />
    <linearGradient
       inkscape:collect="always"
       xlink:href="#linearGradient4081"
       id="linearGradient3653"
       gradientUnits="userSpaceOnUse"
       gradientTransform="matrix(0,-1,-1,0,22.000002,22.000002)"
       x1="4"
       y1="11.000002"
       x2="18"
       y2="11.000002" />
    <inkscape:perspective
       id="perspective4085"
       inkscape:persp3d-origin="0.5 : 0.33333333 : 1"
       inkscape:vp_z="1 : 0.5 : 1"
       inkscape:vp_y="0 : 1000 : 0"
       inkscape:vp_x="0 : 0.5 : 1"
       sodipodi:type="inkscape:persp3d" />
    <linearGradient
       y2="3.5"
       x2="59"
       y1="3.5"
       x1="54"
       gradientTransform="translate(-45,53)"
       gradientUnits="userSpaceOnUse"
       id="linearGradient3829"
       xlink:href="#SpecificGradient"
       inkscape:collect="always" />
    <linearGradient
       id="SpecificGradient"
       x1="10.761708"
       y1="3.9999998"
       x2="10.761708"
       y2="18.011395"
       gradientUnits="userSpaceOnUse">
      <stop
         style="stop-color:#a50000;stop-opacity:1;"
         offset="0"
         id="stop3292" />
      <stop
         style="stop-color:#e73800;stop-opacity:1;"
         offset="1"
         id="stop3294" />
    </linearGradient>
    <linearGradient
       inkscape:collect="always"
       xlink:href="#StandardGradient"
       id="linearGradient3833"
       x1="54"
       y1="3.5"
       x2="59"
       y2="3.5"
       gradientUnits="userSpaceOnUse"
       gradientTransform="translate(-53,53)" />
    <linearGradient
       id="StandardGradient"
       gradientTransform="matrix(0.9984539,0,0,0.9984539,-0.0459776,0.05767558)"
       x1="10.710332"
       y1="1.9963325"
       x2="10.710332"
       y2="18.974037"
       gradientUnits="userSpaceOnUse">
      <stop
         style="stop-color:#000000;stop-opacity:0.86274511;"
         offset="0"
         id="stop3277" />
      <stop
         style="stop-color:#000000;stop-opacity:0.47058824;"
         offset="1"
         id="stop3279" />
    </linearGradient>
    <linearGradient
       inkscape:collect="always"
       xlink:href="#StandardGradient"
       id="linearGradient3655"
       gradientUnits="userSpaceOnUse"
       gradientTransform="matrix(0,-1,-1,0,22.000002,23.000002)"
       x1="18.004087"
       y1="14.34689"
       x2="3.9078364"
       y2="14.34689" />
    <linearGradient
       inkscape:collect="always"
       xlink:href="#StandardGradient"
       id="linearGradient3659"
       gradientUnits="userSpaceOnUse"
       gradientTransform="matrix(0,-1,-1,0,22.000002,22.000002)"
       x1="18.004087"
       y1="14.34689"
       x2="3.9078364"
       y2="14.34689" />
    <linearGradient
       inkscape:collect="always"
       xlink:href="#StandardGradient"
       id="linearGradient3664"
       gradientUnits="userSpaceOnUse"
       gradientTransform="matrix(0,-1,-1,0,-7.999998,22.000002)"
       x1="18.004087"
       y1="14.34689"
       x2="3.9078364"
       y2="14.34689" />
    <clipPath
       clipPathUnits="userSpaceOnUse"
       id="clipPath3669">
      <path
         style="fill:#ff00ff;fill-opacity:1;stroke:none;display:inline"
         d="m -30,0 0,22 22,0 0,-22 -22,0 z m 10.03125,4 1.9375,0 c 0.275482,0 0.5,0.219811 0.5,0.5 l 0,1 c 0.492582,0.131243 0.944357,0.312043 1.375,0.5625 L -15.4375,5.375 c 0.198125,-0.198124 0.492704,-0.19482 0.6875,0 l 1.375,1.375 c 0.194794,0.194799 0.1981,0.489374 0,0.6875 l -0.6875,0.71875 c 0.250459,0.430642 0.431256,0.882417 0.5625,1.375 l 1,0 c 0.280194,0 0.5,0.224518 0.5,0.5 l 0,1.9375 c 0,0.275485 -0.219808,0.5 -0.5,0.5 l -1,0 c -0.131243,0.492582 -0.312042,0.944357 -0.5625,1.375 l 0.6875,0.71875 c 0.09906,0.09906 0.155165,0.215552 0.15625,0.34375 0.0011,0.128198 -0.05886,0.246352 -0.15625,0.34375 l -1.375,1.375 c -0.194796,0.194795 -0.489374,0.198122 -0.6875,0 l -0.71875,-0.6875 c -0.430642,0.25046 -0.882417,0.431254 -1.375,0.5625 l 0,1 c 0,0.280196 -0.224517,0.5 -0.5,0.5 l -1.9375,0 c -0.275483,0 -0.5,-0.219807 -0.5,-0.5 l 0,-1 c -0.492584,-0.131247 -0.944359,-0.312043 -1.375,-0.5625 l -0.71875,0.6875 c -0.198126,0.198125 -0.492704,0.194809 -0.6875,0 l -1.375,-1.375 c -0.194796,-0.194795 -0.19812,-0.489374 0,-0.6875 l 0.6875,-0.71875 c -0.250457,-0.430643 -0.431256,-0.882418 -0.5625,-1.375 l -1,0 c -0.280193,0 -0.5,-0.224515 -0.5,-0.5 l 0,-1.9375 c 0,-0.275484 0.219807,-0.5 0.5,-0.5 l 1,0 c 0.131244,-0.492583 0.312043,-0.944358 0.5625,-1.375 L -24.625,7.4375 c -0.198125,-0.198124 -0.194801,-0.492704 0,-0.6875 l 1.375,-1.375 c 0.194797,-0.194794 0.489376,-0.1981 0.6875,0 l 0.71875,0.6875 c 0.430641,-0.250457 0.882416,-0.431257 1.375,-0.5625 l 0,-1 c -3e-6,-0.280189 0.224516,-0.5 0.5,-0.5 z M -19,8.875 c -1.168184,0 -2.125,0.956819 -2.125,2.125 0,1.168182 0.956816,2.125 2.125,2.125 1.168182,0 2.125,-0.956818 2.125,-2.125 0,-1.168184 -0.956818,-2.125 -2.125,-2.125 z"
         id="path3671" />
    </clipPath>
    <linearGradient
       inkscape:collect="always"
       xlink:href="#StandardGradient"
       id="linearGradient4958"
       gradientUnits="userSpaceOnUse"
       gradientTransform="matrix(0,-1,-1,0,22.000002,22.000002)"
       x1="18.004087"
       y1="14.34689"
       x2="3.9078364"
       y2="14.34689" />
    <linearGradient
       inkscape:collect="always"
       xlink:href="#StandardGradient"
       id="linearGradient4962"
       gradientUnits="userSpaceOnUse"
       gradientTransform="matrix(0,-1,-1,0,22.000002,22.000002)"
       x1="18.004087"
       y1="14.34689"
       x2="3.9078364"
       y2="14.34689" />
    <linearGradient
       inkscape:collect="always"
       xlink:href="#SpecificGradient"
       id="linearGradient3854"
       x1="8.6314497"
       y1="11.078573"
       x2="13.035251"
       y2="11.078573"
       gradientUnits="userSpaceOnUse" />
    <linearGradient
       inkscape:collect="always"
       xlink:href="#SpecificGradient"
       id="linearGradient3878"
       x1="10"
       y1="11"
       x2="12"
       y2="11"
       gradientUnits="userSpaceOnUse" />
    <linearGradient
       inkscape:collect="always"
       xlink:href="#SpecificGradient"
       id="linearGradient3880"
       x1="10"
       y1="6.5"
       x2="12"
       y2="6.5"
       gradientUnits="userSpaceOnUse" />
    <linearGradient
       inkscape:collect="always"
       xlink:href="#SpecificGradient"
       id="linearGradient3889"
       gradientUnits="userSpaceOnUse"
       x1="11"
       y1="4"
       x2="11"
       y2="12"
       gradientTransform="translate(0,1)" />
    <linearGradient
       inkscape:collect="always"
       xlink:href="#SpecificGradient"
       id="linearGradient3891"
       gradientUnits="userSpaceOnUse"
       x1="11"
       y1="4"
       x2="11"
       y2="12" />
    <linearGradient
       inkscape:collect="always"
       xlink:href="#StandardGradient"
       id="linearGradient3898"
       gradientUnits="userSpaceOnUse"
       gradientTransform="matrix(0,-1,-1,0,22.000002,23.000002)"
       x1="18.004087"
       y1="14.34689"
       x2="3.9078364"
       y2="14.34689" />
    <linearGradient
       inkscape:collect="always"
       xlink:href="#StandardGradient"
       id="linearGradient3900"
       gradientUnits="userSpaceOnUse"
       gradientTransform="matrix(0,-1,-1,0,22.000002,22.000002)"
       x1="18.004087"
       y1="14.34689"
       x2="3.9078364"
       y2="14.34689" />
    <linearGradient
       inkscape:collect="always"
       xlink:href="#StandardGradient"
       id="linearGradient3905"
       gradientUnits="userSpaceOnUse"
       gradientTransform="matrix(0,-1,-1,0,22.000002,23.000002)"
       x1="18.004087"
       y1="14.34689"
       x2="3.9078364"
       y2="14.34689" />
    <linearGradient
       inkscape:collect="always"
       xlink:href="#StandardGradient"
       id="linearGradient3909"
       gradientUnits="userSpaceOnUse"
       gradientTransform="matrix(0,-1,-1,0,22.000002,22.000002)"
       x1="18.004087"
       y1="14.34689"
       x2="3.9078364"
       y2="14.34689" />
    <linearGradient
       inkscape:collect="always"
       xlink:href="#StandardGradient"
       id="linearGradient3916"
       gradientUnits="userSpaceOnUse"
       gradientTransform="matrix(0,-1,-1,0,22.000002,22.000002)"
       x1="18.004087"
       y1="14.34689"
       x2="3.9078364"
       y2="14.34689" />
    <linearGradient
       inkscape:collect="always"
       xlink:href="#StandardGradient"
       id="linearGradient3919"
       gradientUnits="userSpaceOnUse"
       gradientTransform="matrix(0,-1,-1,0,22.000002,23.000002)"
       x1="18.004087"
       y1="14.34689"
       x2="3.9078364"
       y2="14.34689" />
    <linearGradient
       inkscape:collect="always"
       xlink:href="#StandardGradient"
       id="linearGradient3923"
       gradientUnits="userSpaceOnUse"
       gradientTransform="matrix(0,-1,-1,0,22.000002,22.000002)"
       x1="18.004087"
       y1="14.34689"
       x2="3.9078364"
       y2="14.34689" />
    <linearGradient
       inkscape:collect="always"
       xlink:href="#StandardGradient"
       id="linearGradient3930"
       gradientUnits="userSpaceOnUse"
       gradientTransform="matrix(0,-1,-1,0,22.000002,22.000002)"
       x1="18.004087"
       y1="14.34689"
       x2="3.9078364"
       y2="14.34689" />
    <linearGradient
       inkscape:collect="always"
       xlink:href="#StandardGradient"
       id="linearGradient3935"
       gradientUnits="userSpaceOnUse"
       gradientTransform="matrix(0,-1,-1,0,22.000002,22.000002)"
       x1="18.004087"
       y1="14.34689"
       x2="3.9078364"
       y2="14.34689" />
    <linearGradient
       inkscape:collect="always"
       xlink:href="#StandardGradient"
       id="linearGradient3939"
       gradientUnits="userSpaceOnUse"
       gradientTransform="matrix(0,-1,-1,0,22.000002,22.000002)"
       x1="18.004087"
       y1="14.34689"
       x2="3.9078364"
       y2="14.34689" />
    <linearGradient
       id="StandardGradient-50"
       gradientTransform="scale(0.9219544,1.0846523)"
       x1="11.998966"
       y1="0.92195445"
       x2="11.998966"
       y2="19.387045"
       gradientUnits="userSpaceOnUse">
      <stop
         style="stop-color:#000000;stop-opacity:0.23529412;"
         offset="0"
         id="stop3283-1-4" />
      <stop
         id="stop3850-8"
         offset="0.69999999"
         style="stop-color:#000000;stop-opacity:0.39215686;" />
      <stop
         style="stop-color:#000000;stop-opacity:0.55;"
         offset="1"
         id="stop2651-7" />
    </linearGradient>
    <linearGradient
       inkscape:collect="always"
       xlink:href="#SpecificGradient"
       id="linearGradient4018"
       gradientUnits="userSpaceOnUse"
       x1="11"
       y1="3"
       x2="11"
       y2="12" />
    <linearGradient
       id="SpecificGradient-5"
       x1="10.406627"
       y1="2"
       x2="10.406627"
       y2="18.000771"
       gradientUnits="userSpaceOnUse">
      <stop
         style="stop-color:#e64b36;stop-opacity:1;"
         offset="0"
         id="stop3292-0" />
      <stop
         style="stop-color:#a31414;stop-opacity:1;"
         offset="1"
         id="stop3294-4" />
    </linearGradient>
    <radialGradient
       inkscape:collect="always"
       xlink:href="#StandardGradient-50"
       id="radialGradient3094"
       gradientUnits="userSpaceOnUse"
       gradientTransform="matrix(2.1428593,0,0,1.1428583,-14.607164,-1.571462)"
       cx="12.88333"
       cy="11.875017"
       fx="12.88333"
       fy="11.875017"
       r="6.9999928" />
    <linearGradient
       id="linearGradient3096"
       gradientTransform="scale(0.9219544,1.0846523)"
       x1="11.998966"
       y1="0.92195445"
       x2="11.998966"
       y2="19.387045"
       gradientUnits="userSpaceOnUse">
      <stop
         style="stop-color:#000000;stop-opacity:0.23529412;"
         offset="0"
         id="stop3098" />
      <stop
         id="stop3100"
         offset="0.69999999"
         style="stop-color:#000000;stop-opacity:0.39215686;" />
      <stop
         style="stop-color:#000000;stop-opacity:0.55;"
         offset="1"
         id="stop3102" />
    </linearGradient>
    <linearGradient
       inkscape:collect="always"
       xlink:href="#SpecificGradient-5"
       id="linearGradient3104"
       gradientUnits="userSpaceOnUse"
       x1="11"
       y1="3"
       x2="11"
       y2="12" />
    <linearGradient
       id="linearGradient3106"
       x1="10.406627"
       y1="2"
       x2="10.406627"
       y2="18.000771"
       gradientUnits="userSpaceOnUse">
      <stop
         style="stop-color:#e64b36;stop-opacity:1;"
         offset="0"
         id="stop3108" />
      <stop
         style="stop-color:#a31414;stop-opacity:1;"
         offset="1"
         id="stop3110" />
    </linearGradient>
    <linearGradient
       y2="12"
       x2="11"
       y1="3"
       x1="11"
       gradientUnits="userSpaceOnUse"
       id="linearGradient3121"
       xlink:href="#SpecificGradient-5"
       inkscape:collect="always" />
    <linearGradient
       inkscape:collect="always"
       xlink:href="#StandardGradient"
       id="linearGradient3869"
       x1="11"
       y1="5"
       x2="11"
       y2="19"
       gradientUnits="userSpaceOnUse" />
    <linearGradient
       inkscape:collect="always"
       xlink:href="#SpecificGradient"
       id="linearGradient3875"
       gradientUnits="userSpaceOnUse"
       x1="11"
       y1="3"
       x2="11"
       y2="12"
       gradientTransform="translate(0,1)" />
    <linearGradient
       inkscape:collect="always"
       xlink:href="#SpecificGradient"
       id="linearGradient3877"
       gradientUnits="userSpaceOnUse"
       x1="11"
       y1="3"
       x2="11"
       y2="12" />
    <linearGradient
       inkscape:collect="always"
       xlink:href="#StandardGradient"
       id="linearGradient3068"
       gradientUnits="userSpaceOnUse"
       x1="11"
       y1="5"
       x2="11"
       y2="19"
       gradientTransform="translate(0,1)" />
    <linearGradient
       inkscape:collect="always"
       xlink:href="#StandardGradient"
       id="linearGradient3070"
       gradientUnits="userSpaceOnUse"
       x1="11"
       y1="5"
       x2="11"
       y2="19" />
    <linearGradient
       inkscape:collect="always"
       xlink:href="#StandardGradient"
       id="linearGradient3843"
       gradientUnits="userSpaceOnUse"
       x1="11"
       y1="5"
       x2="11"
       y2="19"
       gradientTransform="translate(0,1)" />
    <linearGradient
       inkscape:collect="always"
       xlink:href="#StandardGradient"
       id="linearGradient3847"
       gradientUnits="userSpaceOnUse"
       x1="11"
       y1="5"
       x2="11"
       y2="19" />
    <linearGradient
       inkscape:collect="always"
       xlink:href="#StandardGradient"
       id="linearGradient3855"
       gradientUnits="userSpaceOnUse"
       x1="11"
       y1="5"
       x2="11"
       y2="19" />
    <linearGradient
       inkscape:collect="always"
       xlink:href="#StandardGradient"
       id="linearGradient3859"
       gradientUnits="userSpaceOnUse"
       x1="11"
       y1="5"
       x2="11"
       y2="19" />
  </defs>
  <sodipodi:namedview
     id="base"
     pagecolor="#ffffff"
     bordercolor="#e7e7e7"
     borderopacity="1"
     inkscape:pageopacity="0.0"
     inkscape:pageshadow="2"
     inkscape:zoom="22.572546"
     inkscape:cx="6.7963462"
     inkscape:cy="9.3036364"
     inkscape:document-units="px"
     inkscape:current-layer="layer1"
     showgrid="true"
     inkscape:showpageshadow="false"
     showguides="false"
     inkscape:guide-bbox="true"
     inkscape:window-width="1680"
     inkscape:window-height="1026"
     inkscape:window-x="0"
     inkscape:window-y="24"
     inkscape:window-maximized="1"
     inkscape:snap-global="true">
    <sodipodi:guide
       orientation="1,0"
       position="0,112"
       id="guide2383" />
    <sodipodi:guide
       orientation="0,1"
       position="26.278146,128"
       id="guide2385" />
    <sodipodi:guide
       orientation="1,0"
       position="128,54.082119"
       id="guide2387" />
    <sodipodi:guide
       orientation="0,1"
       position="78.156291,0"
       id="guide2389" />
    <sodipodi:guide
       orientation="0,1"
       position="60.863576,64.084768"
       id="guide2391" />
    <inkscape:grid
       type="xygrid"
       id="grid3672"
       visible="true"
       enabled="true" />
  </sodipodi:namedview>
  <metadata
     id="metadata7">
    <rdf:RDF>
      <cc:Work
         rdf:about="">
        <dc:format>image/svg+xml</dc:format>
        <dc:type
           rdf:resource="http://purl.org/dc/dcmitype/StillImage" />
        <dc:title />
      </cc:Work>
    </rdf:RDF>
  </metadata>
  <g
     inkscape:label="Icon"
     inkscape:groupmode="layer"
     id="layer1"
     style="display:inline">
    <path
       style="fill:url(#linearGradient3869);fill-opacity:1;fill-rule:nonzero;stroke:none;stroke-width:1;marker:none;visibility:visible;display:block;overflow:visible;enable-background:accumulate"
       d="M 6.53125 4.40625 C 6.386801 4.4038208 6.236312 4.4511805 6.125 4.5625 L 4.5625 6.125 C 4.339876 6.3476231 4.336077 6.7110701 4.5625 6.9375 L 5.375 7.71875 C 5.088763 8.2109139 4.868743 8.7495486 4.71875 9.3125 L 3.59375 9.3125 C 3.273529 9.3125 3 9.5914097 3 9.90625 L 3 12.09375 C 3 12.408589 3.273529 12.6875 3.59375 12.6875 L 4.71875 12.6875 C 4.868743 13.250452 5.088763 13.789088 5.375 14.28125 L 4.5625 15.0625 C 4.336071 15.288927 4.33987 15.652376 4.5625 15.875 L 6.125 17.4375 C 6.347625 17.660122 6.711072 17.6639 6.9375 17.4375 L 7.71875 16.625 C 8.210912 16.911237 8.749547 17.131258 9.3125 17.28125 L 9.3125 18.40625 C 9.312497 18.726467 9.591411 19 9.90625 19 L 12.09375 19 C 12.408587 19 12.6875 18.726467 12.6875 18.40625 L 12.6875 17.28125 C 13.250451 17.131258 13.789086 16.911237 14.28125 16.625 L 15.0625 17.4375 C 15.288929 17.663928 15.652376 17.660152 15.875 17.4375 L 17.4375 15.875 C 17.660122 15.652372 17.6639 15.28893 17.4375 15.0625 L 16.625 14.28125 C 16.911239 13.789087 17.131257 13.250452 17.28125 12.6875 L 18.40625 12.6875 C 18.726472 12.6875 19 12.408587 19 12.09375 L 19 9.90625 C 19 9.5914097 18.72647 9.3125 18.40625 9.3125 L 17.28125 9.3125 C 17.131258 8.7495486 16.911238 8.2109139 16.625 7.71875 L 17.4375 6.9375 C 17.550711 6.8242885 17.59251 6.6777621 17.59375 6.53125 C 17.595007 6.3847378 17.548805 6.2363121 17.4375 6.125 L 15.875 4.5625 C 15.652376 4.339877 15.28893 4.3360746 15.0625 4.5625 L 14.28125 5.375 C 13.882384 5.1430206 13.447938 4.957095 13 4.8125 L 13 8.78125 C 13.608905 9.3303238 14 10.115532 14 11 C 14 12.656854 12.656854 14 11 14 C 9.3431458 14 8 12.656854 8 11 C 8 10.115532 8.3910945 9.3303238 9 8.78125 L 9 4.8125 C 8.552061 4.9570952 8.117615 5.1430234 7.71875 5.375 L 6.9375 4.5625 C 6.824285 4.4492856 6.675699 4.4086792 6.53125 4.40625 z "
       id="path2862" />
    <path
       d="m 39.757265,32.000052 c -0.354195,0 -0.640989,0.293819 -0.640989,0.654066 l 0,1.268892 c -0.63332,0.168741 -1.23846,0.423619 -1.792143,0.745637 l -0.902615,-0.902613 c -0.127369,-0.127363 -0.279939,-0.194825 -0.444765,-0.19622 -0.164826,-0.0014 -0.332621,0.05792 -0.457847,0.183138 l -1.765983,1.765981 c -0.25045,0.250452 -0.241652,0.647882 0.01307,0.902615 l 0.902614,0.902612 c -0.32202,0.553682 -0.576899,1.158824 -0.745644,1.792145 l -1.26889,0 C 32.293821,39.116305 32,39.403101 32,39.757293 l 0,2.485457 c 0,0.354192 0.293821,0.640988 0.654068,0.640988 l 1.26889,0 c 0.168746,0.633322 0.423624,1.238463 0.74564,1.792144 l -0.902615,0.902614 c -0.254733,0.254733 -0.263532,0.65216 -0.01306,0.902612 l 1.765983,1.765984 c 0.250451,0.250452 0.647879,0.24165 0.902612,-0.01308 l 0.902615,-0.902614 c 0.553683,0.322017 1.158823,0.576896 1.792143,0.745638 l 0,1.268891 c 0,0.360247 0.286794,0.654068 0.640989,0.654068 l 2.485456,0 c 0.354194,0 0.640987,-0.293821 0.640987,-0.654068 l 0,-1.268891 c 0.633321,-0.168742 1.238463,-0.423621 1.792145,-0.745638 l 0.902616,0.902615 c 0.25473,0.254731 0.65216,0.263533 0.902612,0.01307 l 1.765982,-1.765984 c 0.25045,-0.250453 0.24165,-0.647881 -0.01305,-0.902613 L 47.331404,44.67587 c 0.322016,-0.553681 0.576895,-1.158823 0.745636,-1.792145 l 1.268894,0 C 49.706177,42.883733 50,42.596939 50,42.242746 l 0,-2.485458 c 0,-0.354191 -0.293823,-0.640987 -0.654066,-0.640987 l -1.268894,0 C 47.908299,38.482982 47.65342,37.87784 47.331404,37.324156 l 0.902614,-0.902613 c 0.25473,-0.254732 0.263532,-0.65216 0.01305,-0.902612 l -1.76598,-1.765985 c -0.250457,-0.25045 -0.647882,-0.24165 -0.902616,0.01305 l -0.902617,0.902615 c -0.553683,-0.322019 -1.158824,-0.576898 -1.792145,-0.74564 l 0,-1.268889 c 0,-0.36025 -0.286793,-0.654069 -0.640984,-0.654069 l -2.485457,0 z m 1.242728,6.279048 c 1.501951,0 2.720923,1.218972 2.720923,2.720921 0,1.501951 -1.218975,2.720921 -2.720923,2.720921 -1.501948,0 -2.720922,-1.21897 -2.720922,-2.720921 0,-1.501949 1.218974,-2.720921 2.720922,-2.720921 z"
       id="rect3267"
       style="fill:#000000;fill-opacity:1;fill-rule:nonzero;stroke:none;stroke-width:1;marker:none;visibility:visible;display:block;overflow:visible;enable-background:accumulate" />
    <rect
       y="54"
       x="1"
       height="5"
       width="5"
       id="rect3825"
       style="fill:url(#linearGradient3833);fill-opacity:1;stroke:none;display:inline"
       transform="matrix(0,1,1,0,0,0)" />
    <rect
       transform="matrix(0,1,1,0,0,0)"
       style="fill:url(#linearGradient3829);fill-opacity:1;stroke:none;display:inline"
       id="rect3808"
       width="5"
       height="5"
       x="9"
       y="54" />
    <path
       inkscape:connector-curvature="0"
       style="color:#000000;fill:url(#linearGradient3121);fill-opacity:1;fill-rule:nonzero;stroke:none;stroke-width:1.5;marker:none;visibility:visible;display:inline;overflow:visible;enable-background:accumulate"
       d="M 10.5,3 C 10.223,3 10,3.223 10,3.5 l 0,5 C 10,8.777 10.223,9 10.5,9 l 1,0 C 11.777,9 12,8.777 12,8.5 l 0,-5 C 12,3.223 11.777,3 11.5,3 z m 0.5,7 c -0.552285,0 -1,0.447715 -1,1 0,0.552285 0.447715,1 1,1 0.552285,0 1,-0.447715 1,-1 0,-0.552285 -0.447715,-1 -1,-1 z"
       id="path3856"
       sodipodi:nodetypes="ssssssssssssss" />
    <path
       inkscape:connector-curvature="0"
       style="opacity:0.25;color:#000000;fill:#000000;fill-opacity:1;fill-rule:nonzero;stroke:none;stroke-width:1.5;marker:none;visibility:visible;display:inline;overflow:visible;enable-background:accumulate"
       d="M 10.5,3 C 10.223,3 10,3.223 10,3.5 l 0,1 C 10,4.223 10.223,4 10.5,4 l 1,0 C 11.777,4 12,4.223 12,4.5 l 0,-1 C 12,3.5 11.777,3 11.5,3 z m 0.5,7 c -0.552285,0 -1,0.447715 -1,1 0,0.18732 0.06663,0.350128 0.15625,0.5 C 10.330861,11.207996 10.635035,11 11,11 c 0.364965,0 0.669139,0.207996 0.84375,0.5 C 11.933369,11.350128 12,11.18732 12,11 12,10.447715 11.552285,10 11,10 z"
       id="path3885"
       sodipodi:nodetypes="sscsscssssscscss" />
    <path
       sodipodi:nodetypes="ssssssssssssss"
       id="path3882"
       d="M 10.5,3 C 10.223,3 10,3.223 10,3.5 l 0,5 C 10,8.777 10.223,9 10.5,9 l 1,0 C 11.777,9 12,8.777 12,8.5 l 0,-5 C 12,3.223 11.777,3 11.5,3 z m 0.5,7 c -0.552285,0 -1,0.447715 -1,1 0,0.552285 0.447715,1 1,1 0.552285,0 1,-0.447715 1,-1 0,-0.552285 -0.447715,-1 -1,-1 z"
       style="color:#000000;fill:url(#linearGradient4018);fill-opacity:1.0;fill-rule:nonzero;stroke:none;stroke-width:1.50000000000000000;marker:none;visibility:visible;display:inline;overflow:visible;enable-background:accumulate"
       inkscape:connector-curvature="0" />
    <path
       style="color:#000000;fill:#550000;fill-opacity:1;fill-rule:nonzero;stroke:none;stroke-width:1.50000000000000000;marker:none;visibility:visible;display:inline;overflow:visible;enable-background:accumulate;opacity:0.5"
       d="M 10.5 3 C 10.223 3 10 3.223 10 3.5 L 10 4.5 C 10 4.223 10.223 4 10.5 4 L 11.5 4 C 11.777 4 12 4.223 12 4.5 L 12 3.5 C 12 3.223 11.777 3 11.5 3 L 10.5 3 z M 11 10 C 10.447715 10 10 10.447715 10 11 C 10 11.18732 10.066631 11.350128 10.15625 11.5 C 10.330861 11.207996 10.635035 11 11 11 C 11.364965 11 11.669139 11.207996 11.84375 11.5 C 11.933369 11.350128 12 11.18732 12 11 C 12 10.447715 11.552285 10 11 10 z "
       id="path3871" />
    <path
       style="fill:#000000;fill-opacity:1;fill-rule:nonzero;stroke:none;stroke-width:1;marker:none;visibility:visible;display:block;overflow:visible;enable-background:accumulate;opacity:0.5"
       d="M 6.53125 4.40625 C 6.386801 4.4038208 6.236312 4.4511805 6.125 4.5625 L 4.5625 6.125 C 4.339876 6.3476231 4.336077 6.7110701 4.5625 6.9375 L 4.65625 7.03125 L 6.125 5.5625 C 6.236312 5.4511805 6.386801 5.4038208 6.53125 5.40625 C 6.675699 5.4086792 6.824285 5.4492856 6.9375 5.5625 L 7.71875 6.375 C 8.117615 6.1430234 8.552061 5.9570952 9 5.8125 L 9 4.8125 C 8.552061 4.9570952 8.117615 5.1430234 7.71875 5.375 L 6.9375 4.5625 C 6.824285 4.4492856 6.675699 4.4086792 6.53125 4.40625 z M 15.46875 4.40625 C 15.321757 4.4057747 15.175715 4.4492873 15.0625 4.5625 L 14.28125 5.375 C 13.882384 5.1430206 13.447938 4.957095 13 4.8125 L 13 5.8125 C 13.447938 5.957095 13.882384 6.1430206 14.28125 6.375 L 15.0625 5.5625 C 15.28893 5.3360746 15.652376 5.339877 15.875 5.5625 L 17.34375 7.03125 L 17.4375 6.9375 C 17.550711 6.8242885 17.59251 6.6777621 17.59375 6.53125 C 17.595007 6.3847378 17.548805 6.2363121 17.4375 6.125 L 15.875 4.5625 C 15.763688 4.4511885 15.615743 4.4067253 15.46875 4.40625 z M 5.03125 8.40625 C 4.9050416 8.7006856 4.8022311 8.9991798 4.71875 9.3125 L 3.59375 9.3125 C 3.273529 9.3125 3 9.5914097 3 9.90625 L 3 10.90625 C 3 10.59141 3.273529 10.3125 3.59375 10.3125 L 4.71875 10.3125 C 4.868743 9.7495486 5.088763 9.2109139 5.375 8.71875 L 5.03125 8.40625 z M 16.96875 8.40625 L 16.625 8.71875 C 16.911238 9.2109139 17.131258 9.7495486 17.28125 10.3125 L 18.40625 10.3125 C 18.72647 10.3125 19 10.59141 19 10.90625 L 19 9.90625 C 19 9.5914097 18.72647 9.3125 18.40625 9.3125 L 17.28125 9.3125 C 17.197769 8.9991798 17.094958 8.7006856 16.96875 8.40625 z M 8.0625 11.46875 C 8.0317729 11.638821 8 11.820622 8 12 C 8 13.656854 9.3431458 15 11 15 C 12.656854 15 14 13.656854 14 12 C 14 11.820622 13.968227 11.638821 13.9375 11.46875 C 13.70703 12.896584 12.492871 14 11 14 C 9.507129 14 8.2929696 12.896584 8.0625 11.46875 z M 5.03125 14.59375 L 4.5625 15.0625 C 4.336071 15.288927 4.33987 15.652376 4.5625 15.875 L 4.65625 15.96875 L 5.375 15.28125 C 5.2480731 15.063009 5.1318039 14.828335 5.03125 14.59375 z M 16.96875 14.59375 C 16.868196 14.828335 16.751928 15.063009 16.625 15.28125 L 17.34375 15.96875 L 17.4375 15.875 C 17.660122 15.652372 17.6639 15.28893 17.4375 15.0625 L 16.96875 14.59375 z "
       id="path3064" />
    <path
       inkscape:connector-curvature="0"
       style="opacity:0.15;fill:#ffffff;fill-opacity:1;fill-rule:nonzero;stroke:none;stroke-width:1;marker:none;visibility:visible;display:block;overflow:visible;enable-background:accumulate"
       d="M 10.5,2 C 9.6783107,2 9,2.6783107 9,3.5 L 9,3.8125 A 1.0149821,1.0149821 0 0 0 8.6875,3.84375 C 8.4403028,3.9235455 8.2101212,4.0517462 7.96875,4.15625 L 7.65625,3.84375 C 7.314887,3.5023888 6.8853663,3.4116796 6.5625,3.40625 6.1844673,3.3998926 5.7391864,3.5107911 5.40625,3.84375 l -1.5625,1.5625 c -0.6090684,0.609066 -0.6143907,1.6355906 0,2.25 L 4.1875,8 C 4.142568,8.1032308 4.102792,8.2072502 4.0625,8.3125 l -0.46875,0 C 2.6842275,8.3125 2,9.0036 2,9.90625 l 0,2.1875 c 0,0.902651 0.6842248,1.59375 1.59375,1.59375 l 0.46875,0 C 4.102792,13.79275 4.142568,13.896769 4.1875,14 l -0.34375,0.34375 c -0.6144112,0.614406 -0.6090795,1.640937 0,2.25 l 1.5625,1.5625 c 0.6090904,0.609082 1.635593,0.614331 2.25,0 L 8,17.8125 c 0.1032309,0.04493 0.2072499,0.08471 0.3125,0.125 l 0,0.46875 C 8.3124915,19.31579 9.0035902,20 9.90625,20 l 2.1875,0 c 0.902661,0 1.59375,-0.684217 1.59375,-1.59375 l 0,-0.46875 C 13.79275,17.89721 13.896769,17.85743 14,17.8125 l 0.34375,0.34375 c 0.614381,0.614378 1.640933,0.609144 2.25,0 l 1.5625,-1.5625 c 0.609069,-0.609085 0.614321,-1.635598 0,-2.25 L 17.8125,14 c 0.04493,-0.103231 0.08471,-0.20725 0.125,-0.3125 l 0.46875,0 C 19.315779,13.6875 20,12.996401 20,12.09375 l 0,-2.1875 C 20,9.0035978 19.315773,8.3125 18.40625,8.3125 l -0.46875,0 C 17.897208,8.20725 17.857433,8.103231 17.8125,8 l 0.34375,-0.34375 c 0.334493,-0.3344948 0.434675,-0.7912087 0.4375,-1.125 0.0032,-0.3661485 -0.106647,-0.7941112 -0.4375,-1.125 l -1.5625,-1.5625 c -0.609062,-0.6090594 -1.63559,-0.6143974 -2.25,0 l -0.3125,0.3125 C 13.789878,4.0517464 13.559695,3.9235449 13.3125,3.84375 A 1.0149821,1.0149821 0 0 0 13,3.8125 L 13,3.5 C 13,2.6783107 12.321689,2 11.5,2 l -1,0 z m 0,1 1,0 C 11.777,3 12,3.223 12,3.5 l 0,5 C 12,8.777 11.777,9 11.5,9 l -1,0 C 10.223,9 10,8.777 10,8.5 l 0,-5 C 10,3.223 10.223,3 10.5,3 z M 6.53125,4.40625 C 6.675699,4.40868 6.824285,4.449286 6.9375,4.5625 L 7.71875,5.375 C 8.117615,5.1430234 8.552061,4.9570952 9,4.8125 L 9,8.78125 C 8.3910945,9.3303238 8,10.115532 8,11 c 0,1.656854 1.3431458,3 3,3 1.656854,0 3,-1.343146 3,-3 0,-0.884468 -0.391095,-1.6696762 -1,-2.21875 L 13,4.8125 c 0.447938,0.144595 0.882384,0.3305206 1.28125,0.5625 L 15.0625,4.5625 c 0.22643,-0.2264254 0.589876,-0.222623 0.8125,0 l 1.5625,1.5625 c 0.1113,0.1113121 0.15755,0.2597378 0.15625,0.40625 -0.0012,0.1465121 -0.04304,0.2930385 -0.15625,0.40625 L 16.625,7.71875 c 0.286238,0.4921639 0.506258,1.0307986 0.65625,1.59375 l 1.125,0 C 18.72647,9.3125 19,9.5914097 19,9.90625 l 0,2.1875 c 0,0.314837 -0.273528,0.59375 -0.59375,0.59375 l -1.125,0 c -0.149993,0.562952 -0.370011,1.101587 -0.65625,1.59375 l 0.8125,0.78125 c 0.2264,0.22643 0.222622,0.589872 0,0.8125 l -1.5625,1.5625 c -0.222624,0.222652 -0.586071,0.226428 -0.8125,0 L 14.28125,16.625 c -0.492164,0.286237 -1.030799,0.506258 -1.59375,0.65625 l 0,1.125 C 12.6875,18.726467 12.408587,19 12.09375,19 l -2.1875,0 C 9.591411,19 9.312497,18.726467 9.3125,18.40625 l 0,-1.125 C 8.749547,17.131258 8.210912,16.911237 7.71875,16.625 L 6.9375,17.4375 c -0.226428,0.2264 -0.589875,0.222622 -0.8125,0 L 4.5625,15.875 c -0.22263,-0.222624 -0.226429,-0.586073 0,-0.8125 L 5.375,14.28125 C 5.088763,13.789088 4.868743,13.250452 4.71875,12.6875 l -1.125,0 C 3.273529,12.6875 3,12.408589 3,12.09375 L 3,9.90625 C 3,9.5914097 3.273529,9.3125 3.59375,9.3125 l 1.125,0 C 4.868743,8.7495486 5.088763,8.2109139 5.375,7.71875 L 4.5625,6.9375 C 4.336077,6.7110701 4.339876,6.3476231 4.5625,6.125 L 6.125,4.5625 C 6.236312,4.4511805 6.386801,4.4038208 6.53125,4.40625 z M 11,10 c 0.552285,0 1,0.447715 1,1 0,0.552285 -0.447715,1 -1,1 -0.552285,0 -1,-0.447715 -1,-1 0,-0.552285 0.447715,-1 1,-1 z"
       id="path3829" />
    <path
       inkscape:connector-curvature="0"
       style="opacity:0.3;fill:#ffffff;fill-opacity:1;fill-rule:nonzero;stroke:none;stroke-width:1;marker:none;visibility:visible;display:block;overflow:visible;enable-background:accumulate"
       d="M 4.65625,7.03125 4.5625,7.125 c -0.222624,0.2226231 -0.226423,0.5860701 0,0.8125 L 5.03125,8.40625 C 5.1318039,8.1716646 5.2480731,7.9369917 5.375,7.71875 L 4.65625,7.03125 z m 12.6875,0 -0.71875,0.6875 c 0.126927,0.2182417 0.243196,0.4529146 0.34375,0.6875 L 17.4375,7.9375 C 17.550711,7.8242885 17.59251,7.6777621 17.59375,7.53125 17.59505,7.3847378 17.5488,7.2363121 17.4375,7.125 L 17.34375,7.03125 z M 10,8.5 l 0,1 c 0,0.277 0.223,0.5 0.5,0.5 l 0.5,0 0.5,0 C 11.777,10 12,9.777 12,9.5 l 0,-1 C 12,8.777 11.777,9 11.5,9 l -1,0 C 10.223,9 10,8.777 10,8.5 z M 9,8.78125 C 8.3910945,9.330324 8,10.115532 8,11 8,11.163983 8.0371843,11.311911 8.0625,11.46875 8.1832805,10.800244 8.514586,10.218967 9,9.78125 l 0,-1 z m 4,0 0,1 c 0.485414,0.437717 0.816719,1.018994 0.9375,1.6875 C 13.962816,11.311911 14,11.163983 14,11 14,10.115532 13.608905,9.330324 13,8.78125 z M 10.15625,11.5 C 10.066631,11.649872 10,11.81268 10,12 c 0,0.552285 0.447715,1 1,1 0.552285,0 1,-0.447715 1,-1 0,-0.18732 -0.06663,-0.350128 -0.15625,-0.5 C 11.669139,11.792004 11.364965,12 11,12 10.635035,12 10.330861,11.792004 10.15625,11.5 z M 3,12.09375 l 0,1 c 0,0.314839 0.273529,0.59375 0.59375,0.59375 l 1.125,0 c 0.083481,0.31332 0.1862916,0.611814 0.3125,0.90625 L 5.375,14.28125 C 5.088763,13.789088 4.868743,13.250452 4.71875,12.6875 l -1.125,0 C 3.273529,12.6875 3,12.408589 3,12.09375 z m 16,0 c 0,0.314837 -0.273528,0.59375 -0.59375,0.59375 l -1.125,0 c -0.149993,0.562952 -0.370011,1.101587 -0.65625,1.59375 l 0.34375,0.3125 c 0.126208,-0.294436 0.229019,-0.59293 0.3125,-0.90625 l 1.125,0 C 18.726472,13.6875 19,13.408587 19,13.09375 l 0,-1 z M 4.65625,15.96875 4.5625,16.0625 c -0.226429,0.226427 -0.22263,0.589876 0,0.8125 l 1.5625,1.5625 c 0.222625,0.222622 0.586072,0.2264 0.8125,0 L 7.71875,17.625 c 0.492162,0.286237 1.030797,0.506258 1.59375,0.65625 l 0,-1 C 8.749547,17.131258 8.210912,16.911237 7.71875,16.625 L 6.9375,17.4375 c -0.226428,0.2264 -0.589875,0.222622 -0.8125,0 L 4.65625,15.96875 z m 12.6875,0 -1.46875,1.46875 c -0.222624,0.222652 -0.586071,0.226428 -0.8125,0 L 14.28125,16.625 c -0.492164,0.286237 -1.030799,0.506258 -1.59375,0.65625 l 0,1 c 0.562951,-0.149992 1.101586,-0.370013 1.59375,-0.65625 l 0.78125,0.8125 c 0.226429,0.226428 0.589876,0.222652 0.8125,0 l 1.5625,-1.5625 c 0.222622,-0.222628 0.2264,-0.58607 0,-0.8125 l -0.09375,-0.09375 z m -8.03125,2.4375 0,1 C 9.312497,19.726467 9.591411,20 9.90625,20 l 2.1875,0 c 0.314837,0 0.59375,-0.273533 0.59375,-0.59375 l 0,-1 C 12.6875,18.726467 12.408587,19 12.09375,19 l -2.1875,0 C 9.591411,19 9.312497,18.726467 9.3125,18.40625 z"
       id="path3804" />
  </g>
</svg>
