<?xml version="1.0" encoding="UTF-8" standalone="no"?>
<!-- Created with Inkscape (http://www.inkscape.org/) -->

<svg
   xmlns:dc="http://purl.org/dc/elements/1.1/"
   xmlns:cc="http://creativecommons.org/ns#"
   xmlns:rdf="http://www.w3.org/1999/02/22-rdf-syntax-ns#"
   xmlns:svg="http://www.w3.org/2000/svg"
   xmlns="http://www.w3.org/2000/svg"
   xmlns:xlink="http://www.w3.org/1999/xlink"
   xmlns:sodipodi="http://sodipodi.sourceforge.net/DTD/sodipodi-0.dtd"
   xmlns:inkscape="http://www.inkscape.org/namespaces/inkscape"
   width="96"
   height="96"
   id="svg2408"
   sodipodi:version="0.32"
   inkscape:version="0.47 r22583"
   version="1.0"
   sodipodi:docname="abiword.svg"
   inkscape:output_extension="org.inkscape.output.svg.inkscape">
  <defs
     id="defs2410">
    <linearGradient
       id="linearGradient3719">
      <stop
         style="stop-color:#eaedf1;stop-opacity:1;"
         offset="0"
         id="stop3721" />
      <stop
         style="stop-color:#c1ccdb;stop-opacity:1;"
         offset="1"
         id="stop3723" />
    </linearGradient>
    <inkscape:perspective
       sodipodi:type="inkscape:persp3d"
       inkscape:vp_x="0 : 48 : 1"
       inkscape:vp_y="0 : 1000 : 0"
       inkscape:vp_z="96 : 48 : 1"
       inkscape:persp3d-origin="48 : 32 : 1"
       id="perspective48" />
    <linearGradient
       id="ButtonShadow"
       gradientTransform="scale(1.0058652,0.994169)"
       x1="45.447727"
       y1="92.539597"
       x2="45.447727"
       y2="7.0165396"
       gradientUnits="userSpaceOnUse">
      <stop
         style="stop-color:#000000;stop-opacity:1;"
         offset="0"
         id="stop3750" />
      <stop
         style="stop-color:#000000;stop-opacity:0.58823532;"
         offset="1"
         id="stop3752" />
    </linearGradient>
    <linearGradient
       inkscape:collect="always"
       id="linearGradient3737">
      <stop
         style="stop-color:#ffffff;stop-opacity:1;"
         offset="0"
         id="stop3739" />
      <stop
         style="stop-color:#ffffff;stop-opacity:0;"
         offset="1"
         id="stop3741" />
    </linearGradient>
    <linearGradient
       id="linearGradient3700">
      <stop
         style="stop-color:#2276c5;stop-opacity:1;"
         offset="0"
         id="stop3702" />
      <stop
         style="stop-color:#68baf4;stop-opacity:1;"
         offset="1"
         id="stop3704" />
    </linearGradient>
    <filter
       inkscape:collect="always"
       id="filter3174">
      <feGaussianBlur
         inkscape:collect="always"
         stdDeviation="1.71"
         id="feGaussianBlur3176" />
    </filter>
    <linearGradient
       inkscape:collect="always"
       xlink:href="#linearGradient3737"
       id="linearGradient3188"
       gradientUnits="userSpaceOnUse"
       x1="36.357143"
       y1="6"
       x2="36.357143"
       y2="63.893143" />
    <filter
       inkscape:collect="always"
       id="filter3794"
       x="-0.192"
       width="1.384"
       y="-0.192"
       height="1.384">
      <feGaussianBlur
         inkscape:collect="always"
         stdDeviation="5.28"
         id="feGaussianBlur3796" />
    </filter>
    <linearGradient
       inkscape:collect="always"
       xlink:href="#linearGradient3737"
       id="linearGradient3613"
       x1="48"
       y1="20.220806"
       x2="48"
       y2="138.66119"
       gradientUnits="userSpaceOnUse" />
    <radialGradient
       inkscape:collect="always"
       xlink:href="#linearGradient3737"
       id="radialGradient3619"
       cx="48"
       cy="90.171875"
       fx="48"
       fy="90.171875"
       r="42"
       gradientTransform="matrix(1.1573129,0,0,0.99590774,-7.5510206,0.19713193)"
       gradientUnits="userSpaceOnUse" />
    <clipPath
       clipPathUnits="userSpaceOnUse"
       id="clipPath3613">
      <rect
         ry="6"
         rx="6"
         y="6"
         x="6"
         height="84"
         width="84"
         id="rect3615"
         style="fill:#ffffff;fill-opacity:1;fill-rule:nonzero;stroke:none" />
    </clipPath>
    <linearGradient
       inkscape:collect="always"
       xlink:href="#linearGradient7668"
       id="linearGradient3617"
       gradientUnits="userSpaceOnUse"
       x1="48"
       y1="90"
       x2="48"
       y2="5.9877172"
       gradientTransform="translate(0,-96)" />
    <linearGradient
       id="ButtonShadow-0"
       gradientTransform="matrix(1.0058652,0,0,0.994169,100,0)"
       x1="45.447727"
       y1="92.539597"
       x2="45.447727"
       y2="7.0165396"
       gradientUnits="userSpaceOnUse">
      <stop
         style="stop-color:#000000;stop-opacity:1;"
         offset="0"
         id="stop3750-8" />
      <stop
         style="stop-color:#000000;stop-opacity:0.58823532;"
         offset="1"
         id="stop3752-5" />
    </linearGradient>
    <linearGradient
       inkscape:collect="always"
       xlink:href="#ButtonShadow-0"
       id="linearGradient3780"
       gradientUnits="userSpaceOnUse"
       gradientTransform="matrix(1.0238095,0,0,1.0119048,-1.1428571,-98.071429)"
       x1="32.251034"
       y1="6.1317081"
       x2="32.251034"
       y2="90.238609" />
    <linearGradient
       inkscape:collect="always"
       xlink:href="#ButtonShadow-0"
       id="linearGradient3772"
       gradientUnits="userSpaceOnUse"
       gradientTransform="matrix(1.0238095,0,0,1.0119048,-1.1428571,-98.071429)"
       x1="32.251034"
       y1="6.1317081"
       x2="32.251034"
       y2="90.238609" />
    <linearGradient
       inkscape:collect="always"
       xlink:href="#ButtonShadow-0"
       id="linearGradient3725"
       gradientUnits="userSpaceOnUse"
       gradientTransform="matrix(1.0238095,0,0,1.0119048,-1.1428571,-98.071429)"
       x1="32.251034"
       y1="6.1317081"
       x2="32.251034"
       y2="90.238609" />
    <linearGradient
       inkscape:collect="always"
       xlink:href="#ButtonShadow-0"
       id="linearGradient3721"
       gradientUnits="userSpaceOnUse"
       gradientTransform="translate(0,-97)"
       x1="32.251034"
       y1="6.1317081"
       x2="32.251034"
       y2="90.238609" />
    <linearGradient
       y2="90.238609"
       x2="32.251034"
       y1="6.1317081"
       x1="32.251034"
       gradientTransform="matrix(1.0238095,0,0,1.0119048,-1.1428571,-98.071429)"
       gradientUnits="userSpaceOnUse"
       id="linearGradient3026"
       xlink:href="#ButtonShadow-0"
       inkscape:collect="always" />
    <radialGradient
       r="4.3310289"
       fy="20.123863"
       fx="5.4549971"
       cy="20.123863"
       cx="5.4549971"
       gradientTransform="matrix(0.941776,0,0,0.274284,0.317611,14.4024)"
       gradientUnits="userSpaceOnUse"
       id="radialGradient10960"
       xlink:href="#linearGradient10950"
       inkscape:collect="always" />
    <linearGradient
       id="linearGradient10950"
       inkscape:collect="always">
      <stop
         id="stop10952"
         offset="0"
         style="stop-color:black;stop-opacity:1;" />
      <stop
         id="stop10954"
         offset="1"
         style="stop-color:black;stop-opacity:0;" />
    </linearGradient>
    <radialGradient
       gradientUnits="userSpaceOnUse"
       gradientTransform="matrix(0.941776,0,0,0.274284,0.317611,14.4024)"
       r="4.3310289"
       fy="20.123863"
       fx="5.4549971"
       cy="20.123863"
       cx="5.4549971"
       id="radialGradient10956"
       xlink:href="#linearGradient10950"
       inkscape:collect="always" />
    <linearGradient
       gradientTransform="translate(-3.9798921e-4,-3.7137712e-6)"
       gradientUnits="userSpaceOnUse"
       y2="44.5"
       x2="35.09507"
       y1="4.7142863"
       x1="25.071428"
       id="linearGradient7674"
       xlink:href="#linearGradient7668"
       inkscape:collect="always" />
    <linearGradient
       id="linearGradient7668"
       inkscape:collect="always">
      <stop
         id="stop7670"
         offset="0"
         style="stop-color:#94b6db;stop-opacity:1" />
      <stop
         id="stop7672"
         offset="1"
         style="stop-color:#3465a4;stop-opacity:1" />
    </linearGradient>
    <linearGradient
       gradientTransform="translate(1.079483e-8,-3.7137712e-6)"
       gradientUnits="userSpaceOnUse"
       y2="68.068893"
       x2="25"
       y1="-0.12132034"
       x1="24.898985"
       id="linearGradient8574"
       xlink:href="#linearGradient8568"
       inkscape:collect="always" />
    <linearGradient
       id="linearGradient8568"
       inkscape:collect="always">
      <stop
         id="stop8570"
         offset="0"
         style="stop-color:#ffffff;stop-opacity:1;" />
      <stop
         id="stop8572"
         offset="1"
         style="stop-color:#ffffff;stop-opacity:0;" />
    </linearGradient>
    <inkscape:perspective
       id="perspective2918"
       inkscape:persp3d-origin="24 : 16 : 1"
       inkscape:vp_z="48 : 24 : 1"
       inkscape:vp_y="0 : 1000 : 0"
       inkscape:vp_x="0 : 24 : 1"
       sodipodi:type="inkscape:persp3d" />
    <linearGradient
       inkscape:collect="always"
       xlink:href="#linearGradient8568"
       id="linearGradient3712"
       gradientUnits="userSpaceOnUse"
       gradientTransform="translate(-45.02195,3.8774041)"
       x1="24.898985"
       y1="-0.12132034"
       x2="25"
       y2="68.068893" />
    <linearGradient
       inkscape:collect="always"
       xlink:href="#linearGradient3719"
       id="linearGradient3715"
       gradientUnits="userSpaceOnUse"
       gradientTransform="matrix(1.5026823,0,0,1.5189631,11.130641,11.16563)"
       x1="25.071428"
       y1="4.7142863"
       x2="35.09507"
       y2="44.5" />
    <linearGradient
       inkscape:collect="always"
       xlink:href="#linearGradient3719"
       id="linearGradient3747"
       gradientUnits="userSpaceOnUse"
       gradientTransform="matrix(1.5026823,0,0,1.5189631,11.130641,11.16563)"
       x1="25.071428"
       y1="4.7142863"
       x2="35.09507"
       y2="44.5" />
    <linearGradient
       inkscape:collect="always"
       xlink:href="#linearGradient3719"
       id="linearGradient3751"
       gradientUnits="userSpaceOnUse"
       gradientTransform="matrix(1.5026823,0,0,1.5189631,11.130641,11.16563)"
       x1="25.071428"
       y1="4.7142863"
       x2="35.09507"
       y2="44.5" />
    <linearGradient
       inkscape:collect="always"
       xlink:href="#linearGradient3719"
       id="linearGradient3753"
       gradientUnits="userSpaceOnUse"
       gradientTransform="matrix(1.5026823,0,0,1.5189631,11.130641,11.16563)"
       x1="25.071428"
       y1="4.7142863"
       x2="35.09507"
       y2="44.5" />
    <inkscape:perspective
       id="perspective2960"
       inkscape:persp3d-origin="0.5 : 0.33333333 : 1"
       inkscape:vp_z="1 : 0.5 : 1"
       inkscape:vp_y="0 : 1000 : 0"
       inkscape:vp_x="0 : 0.5 : 1"
       sodipodi:type="inkscape:persp3d" />
    <linearGradient
       inkscape:collect="always"
       xlink:href="#linearGradient11508"
       id="linearGradient10458"
       gradientUnits="userSpaceOnUse"
       gradientTransform="matrix(1.0642506,0.22253363,-0.33932139,0.69795647,25.389673,15.671146)"
       x1="43.700191"
       y1="82.473648"
       x2="77.923637"
       y2="16.211916" />
    <linearGradient
       id="linearGradient11508"
       inkscape:collect="always">
      <stop
         id="stop11510"
         offset="0"
         style="stop-color: rgb(0, 0, 0); stop-opacity: 1;" />
      <stop
         id="stop11512"
         offset="1"
         style="stop-color: rgb(0, 0, 0); stop-opacity: 0;" />
    </linearGradient>
    <linearGradient
       inkscape:collect="always"
       xlink:href="#linearGradient11508"
       id="linearGradient10454"
       x1="43.700191"
       y1="82.473648"
       x2="87.732079"
       y2="6.208179"
       gradientUnits="userSpaceOnUse"
       gradientTransform="matrix(0.84442773,0.12130865,-0.12943075,0.79143776,26.341674,12.197185)" />
    <linearGradient
       inkscape:collect="always"
       xlink:href="#linearGradient8204"
       id="linearGradient8202"
       x1="39.479939"
       y1="81.5"
       x2="39.479939"
       y2="6.2799916"
       gradientUnits="userSpaceOnUse"
       gradientTransform="translate(0.75761471,1.7677667)" />
    <linearGradient
       id="linearGradient8204">
      <stop
         id="stop8206"
         offset="0.0000000"
         style="stop-color: rgb(255, 255, 255); stop-opacity: 1;" />
      <stop
         id="stop8208"
         offset="1.0000000"
         style="stop-color:rgb(80, 202, 255);stop-opacity:0" />
    </linearGradient>
    <linearGradient
       inkscape:collect="always"
       xlink:href="#linearGradient10394"
       id="linearGradient10400"
       x1="60.899021"
       y1="35.60585"
       x2="68.2229"
       y2="39.53442"
       gradientUnits="userSpaceOnUse"
       gradientTransform="matrix(0.81423351,0,0,0.81423351,16.895076,15.45345)" />
    <linearGradient
       id="linearGradient10394">
      <stop
         style="stop-color:#1a1a1a;stop-opacity:1;"
         offset="0"
         id="stop10396" />
      <stop
         id="stop10404"
         offset="0.35185185"
         style="stop-color:#636363;stop-opacity:1;" />
      <stop
         id="stop10402"
         offset="0.5"
         style="stop-color:#c7c7c7;stop-opacity:1;" />
      <stop
         style="stop-color:#636363;stop-opacity:1;"
         offset="0.64999998"
         id="stop10406" />
      <stop
         style="stop-color:#000000;stop-opacity:1;"
         offset="1"
         id="stop10398" />
    </linearGradient>
    <linearGradient
       inkscape:collect="always"
       xlink:href="#linearGradient6531"
       id="linearGradient8183"
       gradientUnits="userSpaceOnUse"
       gradientTransform="matrix(0.59071981,-0.15821626,0.15862362,0.59174222,38.27202,30.327666)"
       x1="24.248737"
       y1="77.502068"
       x2="13.405647"
       y2="67.6745" />
    <linearGradient
       id="linearGradient6531">
      <stop
         id="stop6533"
         offset="0.0000000"
         style="stop-color: rgb(195, 129, 37); stop-opacity: 1;" />
      <stop
         style="stop-color:#c68d31;stop-opacity:1;"
         offset="0.62962961"
         id="stop10377" />
      <stop
         id="stop6535"
         offset="1"
         style="stop-color:#fffce6;stop-opacity:1;" />
    </linearGradient>
    <linearGradient
       inkscape:collect="always"
       xlink:href="#linearGradient10386"
       id="linearGradient10392"
       x1="58.651787"
       y1="68.171875"
       x2="47.450871"
       y2="57.993305"
       gradientUnits="userSpaceOnUse"
       gradientTransform="matrix(0.81423351,0,0,0.81423351,16.895076,15.45345)" />
    <linearGradient
       inkscape:collect="always"
       id="linearGradient10386">
      <stop
         style="stop-color:#ffffff;stop-opacity:1;"
         offset="0"
         id="stop10388" />
      <stop
         style="stop-color:#ffffff;stop-opacity:0;"
         offset="1"
         id="stop10390" />
    </linearGradient>
    <radialGradient
       inkscape:collect="always"
       xlink:href="#linearGradient10410"
       id="radialGradient10416"
       cx="59.85154"
       cy="41.7043"
       fx="59.85154"
       fy="41.7043"
       r="18.182745"
       gradientTransform="matrix(1,0,0,0.125,0,36.491262)"
       gradientUnits="userSpaceOnUse" />
    <linearGradient
       inkscape:collect="always"
       id="linearGradient10410">
      <stop
         style="stop-color:#ffffff;stop-opacity:1;"
         offset="0"
         id="stop10412" />
      <stop
         style="stop-color:#ffffff;stop-opacity:0;"
         offset="1"
         id="stop10414" />
    </linearGradient>
    <linearGradient
       y2="16.211916"
       x2="77.923637"
       y1="82.473648"
       x1="43.700191"
       gradientTransform="matrix(0.8665485,0.18119434,-0.27628685,0.56829955,37.568198,28.213422)"
       gradientUnits="userSpaceOnUse"
       id="linearGradient3010"
       xlink:href="#linearGradient11508"
       inkscape:collect="always" />
  </defs>
  <sodipodi:namedview
     id="base"
     pagecolor="#ffffff"
     bordercolor="#666666"
     borderopacity="1.0"
     inkscape:pageopacity="0.0"
     inkscape:pageshadow="2"
     inkscape:zoom="4.6928835"
     inkscape:cx="41.894913"
     inkscape:cy="38.999352"
     inkscape:document-units="px"
     inkscape:current-layer="layer1"
     showgrid="true"
     showborder="true"
     inkscape:showpageshadow="false"
     inkscape:window-width="1920"
     inkscape:window-height="1023"
     inkscape:window-x="0"
     inkscape:window-y="24"
     inkscape:window-maximized="1">
    <inkscape:grid
       type="xygrid"
       id="grid3732"
       visible="true"
       enabled="true" />
  </sodipodi:namedview>
  <metadata
     id="metadata2413">
    <rdf:RDF>
      <cc:Work
         rdf:about="">
        <dc:format>image/svg+xml</dc:format>
        <dc:type
           rdf:resource="http://purl.org/dc/dcmitype/StillImage" />
        <dc:title></dc:title>
      </cc:Work>
    </rdf:RDF>
  </metadata>
  <g
     inkscape:groupmode="layer"
     id="layer2"
     inkscape:label="Blur Shadow"
     style="display:none"
     sodipodi:insensitive="true">
    <rect
       style="opacity:0.9;fill:url(#ButtonShadow);fill-opacity:1;fill-rule:nonzero;stroke:none;filter:url(#filter3174)"
       id="rect3745"
       width="86"
       height="85"
       x="5"
       y="7"
       rx="6"
       ry="6" />
  </g>
  <g
     inkscape:groupmode="layer"
     id="layer3"
     inkscape:label="Shadow"
     sodipodi:insensitive="true">
    <path
       sodipodi:type="inkscape:offset"
       inkscape:radius="0.99097413"
       inkscape:original="M 12 -94.03125 C 7.028367 -94.03125 2.96875 -89.971633 2.96875 -85 L 2.96875 -14 C 2.96875 -9.0283671 7.0283671 -4.96875 12 -4.96875 L 84 -4.96875 C 88.971633 -4.96875 93.03125 -9.028367 93.03125 -14 L 93.03125 -85 C 93.03125 -89.971633 88.971633 -94.03125 84 -94.03125 L 12 -94.03125 z "
       style="opacity:0.07999998;fill:url(#linearGradient3026);fill-opacity:1;fill-rule:nonzero;stroke:none;display:inline"
       id="path3786"
       d="m 12,-95.03125 c -5.5110903,0 -10.03125,4.52016 -10.03125,10.03125 l 0,71 c 0,5.5110902 4.5201598,10.03125 10.03125,10.03125 l 72,0 c 5.51109,0 10.03125,-4.5201597 10.03125,-10.03125 l 0,-71 c 0,-5.51109 -4.52016,-10.03125 -10.03125,-10.03125 l -72,0 z"
       transform="scale(1,-1)" />
    <path
       sodipodi:type="inkscape:offset"
       inkscape:radius="1.0360184"
       inkscape:original="M 12 -93 C 7.5908667 -93 4 -89.409133 4 -85 L 4 -14 C 4 -9.5908667 7.5908667 -6 12 -6 L 84 -6 C 88.409133 -6 92 -9.5908667 92 -14 L 92 -85 C 92 -89.409133 88.409133 -93 84 -93 L 12 -93 z "
       style="opacity:0.1;fill:url(#linearGradient3780);fill-opacity:1;fill-rule:nonzero;stroke:none;display:inline"
       id="path3778"
       d="m 12,-94.03125 c -4.971633,0 -9.03125,4.059617 -9.03125,9.03125 l 0,71 c 0,4.9716329 4.0596171,9.03125 9.03125,9.03125 l 72,0 c 4.971633,0 9.03125,-4.059617 9.03125,-9.03125 l 0,-71 c 0,-4.971633 -4.059617,-9.03125 -9.03125,-9.03125 l -72,0 z"
       transform="scale(1,-1)" />
    <path
       sodipodi:type="inkscape:offset"
       inkscape:radius="0.98962283"
       inkscape:original="M 12 -92 C 8.122 -92 5 -88.878 5 -85 L 5 -14 C 5 -10.122 8.122 -7 12 -7 L 84 -7 C 87.878 -7 91 -10.122 91 -14 L 91 -85 C 91 -88.878 87.878 -92 84 -92 L 12 -92 z "
       style="opacity:0.2;fill:url(#linearGradient3772);fill-opacity:1;fill-rule:nonzero;stroke:none;display:inline"
       id="path3770"
       d="m 12,-93 c -4.4091333,0 -8,3.590867 -8,8 l 0,71 c 0,4.4091333 3.5908667,8 8,8 l 72,0 c 4.409133,0 8,-3.5908667 8,-8 l 0,-71 c 0,-4.409133 -3.590867,-8 -8,-8 l -72,0 z"
       transform="scale(1,-1)" />
    <rect
       style="opacity:0.3;fill:url(#linearGradient3725);fill-opacity:1;fill-rule:nonzero;stroke:none;display:inline"
       id="rect3723"
       width="86"
       height="85"
       x="5"
       y="-92"
       rx="7"
       ry="7"
       transform="scale(1,-1)" />
    <rect
       transform="scale(1,-1)"
       ry="6"
       rx="6"
       y="-91"
       x="6"
       height="84"
       width="84"
       id="rect3716"
       style="opacity:0.45;fill:url(#linearGradient3721);fill-opacity:1;fill-rule:nonzero;stroke:none;display:inline" />
  </g>
  <g
     inkscape:label="Button"
     inkscape:groupmode="layer"
     id="layer1">
    <rect
       style="fill:url(#linearGradient3617);fill-opacity:1;fill-rule:nonzero;stroke:none"
       id="rect2419"
       width="84"
       height="84"
       x="6"
       y="-90"
       rx="6"
       ry="6"
       transform="scale(1,-1)" />
    <path
       style="opacity:0.40000000000000002;fill:url(#linearGradient3188);fill-opacity:1;fill-rule:nonzero;stroke:none;"
       d="M 12,6 C 8.676,6 6,8.676 6,12 l 0,2 0,68 0,2 c 0,0.334721 0.04135,0.6507 0.09375,0.96875 0.0487,0.295596 0.09704,0.596915 0.1875,0.875 0.00988,0.03038 0.020892,0.0636 0.03125,0.09375 0.098865,0.287771 0.2348802,0.547452 0.375,0.8125 0.1445918,0.273507 0.3156161,0.535615 0.5,0.78125 0.1843839,0.245635 0.3737765,0.473472 0.59375,0.6875 0.439947,0.428056 0.94291,0.814526 1.5,1.09375 0.278545,0.139612 0.5734731,0.246947 0.875,0.34375 -0.2562018,-0.100222 -0.4867109,-0.236272 -0.71875,-0.375 -0.00741,-0.0044 -0.023866,0.0045 -0.03125,0 -0.031933,-0.0193 -0.062293,-0.04251 -0.09375,-0.0625 -0.120395,-0.0767 -0.2310226,-0.163513 -0.34375,-0.25 -0.1061728,-0.0808 -0.2132809,-0.161112 -0.3125,-0.25 C 8.4783201,88.557317 8.3087904,88.373362 8.15625,88.1875 8.0486711,88.057245 7.9378561,87.922215 7.84375,87.78125 7.818661,87.74287 7.805304,87.69538 7.78125,87.65625 7.716487,87.553218 7.6510225,87.451733 7.59375,87.34375 7.4927417,87.149044 7.3880752,86.928049 7.3125,86.71875 7.30454,86.69694 7.288911,86.6782 7.28125,86.65625 7.2494249,86.5643 7.2454455,86.469419 7.21875,86.375 7.1884177,86.268382 7.1483606,86.171969 7.125,86.0625 7.0521214,85.720988 7,85.364295 7,85 L 7,83 7,15 7,13 C 7,10.218152 9.2181517,8 12,8 l 2,0 68,0 2,0 c 2.781848,0 5,2.218152 5,5 l 0,2 0,68 0,2 c 0,0.364295 -0.05212,0.720988 -0.125,1.0625 -0.04415,0.206893 -0.08838,0.397658 -0.15625,0.59375 -0.0077,0.02195 -0.0233,0.04069 -0.03125,0.0625 -0.06274,0.173739 -0.138383,0.367449 -0.21875,0.53125 -0.04158,0.0828 -0.07904,0.169954 -0.125,0.25 -0.0546,0.09721 -0.126774,0.18835 -0.1875,0.28125 -0.09411,0.140965 -0.204921,0.275995 -0.3125,0.40625 -0.143174,0.17445 -0.303141,0.346998 -0.46875,0.5 -0.01117,0.0102 -0.01998,0.02115 -0.03125,0.03125 -0.138386,0.125556 -0.285091,0.234436 -0.4375,0.34375 -0.102571,0.07315 -0.204318,0.153364 -0.3125,0.21875 -0.0074,0.0045 -0.02384,-0.0044 -0.03125,0 -0.232039,0.138728 -0.462548,0.274778 -0.71875,0.375 0.301527,-0.0968 0.596455,-0.204138 0.875,-0.34375 0.55709,-0.279224 1.060053,-0.665694 1.5,-1.09375 0.219973,-0.214028 0.409366,-0.441865 0.59375,-0.6875 0.184384,-0.245635 0.355408,-0.507743 0.5,-0.78125 0.14012,-0.265048 0.276135,-0.524729 0.375,-0.8125 0.01041,-0.03078 0.02133,-0.06274 0.03125,-0.09375 0.09046,-0.278085 0.1388,-0.579404 0.1875,-0.875 C 89.95865,84.6507 90,84.334721 90,84 l 0,-2 0,-68 0,-2 C 90,8.676 87.324,6 84,6 L 12,6 z"
       id="rect3728" />
    <path
       id="path3615"
       d="M 12,90 C 8.676,90 6,87.324 6,84 L 6,82 6,14 6,12 c 0,-0.334721 0.04135,-0.6507 0.09375,-0.96875 0.0487,-0.295596 0.09704,-0.596915 0.1875,-0.875 C 6.29113,10.12587 6.302142,10.09265 6.3125,10.0625 6.411365,9.774729 6.5473802,9.515048 6.6875,9.25 6.8320918,8.976493 7.0031161,8.714385 7.1875,8.46875 7.3718839,8.223115 7.5612765,7.995278 7.78125,7.78125 8.221197,7.353194 8.72416,6.966724 9.28125,6.6875 9.559795,6.547888 9.8547231,6.440553 10.15625,6.34375 9.9000482,6.443972 9.6695391,6.580022 9.4375,6.71875 c -0.00741,0.0044 -0.023866,-0.0045 -0.03125,0 -0.031933,0.0193 -0.062293,0.04251 -0.09375,0.0625 -0.120395,0.0767 -0.2310226,0.163513 -0.34375,0.25 -0.1061728,0.0808 -0.2132809,0.161112 -0.3125,0.25 C 8.4783201,7.442683 8.3087904,7.626638 8.15625,7.8125 8.0486711,7.942755 7.9378561,8.077785 7.84375,8.21875 7.818661,8.25713 7.805304,8.30462 7.78125,8.34375 7.716487,8.446782 7.6510225,8.548267 7.59375,8.65625 7.4927417,8.850956 7.3880752,9.071951 7.3125,9.28125 7.30454,9.30306 7.288911,9.3218 7.28125,9.34375 7.2494249,9.4357 7.2454455,9.530581 7.21875,9.625 7.1884177,9.731618 7.1483606,9.828031 7.125,9.9375 7.0521214,10.279012 7,10.635705 7,11 l 0,2 0,68 0,2 c 0,2.781848 2.2181517,5 5,5 l 2,0 68,0 2,0 c 2.781848,0 5,-2.218152 5,-5 l 0,-2 0,-68 0,-2 C 89,10.635705 88.94788,10.279012 88.875,9.9375 88.83085,9.730607 88.78662,9.539842 88.71875,9.34375 88.71105,9.3218 88.69545,9.30306 88.6875,9.28125 88.62476,9.107511 88.549117,8.913801 88.46875,8.75 88.42717,8.6672 88.38971,8.580046 88.34375,8.5 88.28915,8.40279 88.216976,8.31165 88.15625,8.21875 88.06214,8.077785 87.951329,7.942755 87.84375,7.8125 87.700576,7.63805 87.540609,7.465502 87.375,7.3125 87.36383,7.3023 87.35502,7.29135 87.34375,7.28125 87.205364,7.155694 87.058659,7.046814 86.90625,6.9375 86.803679,6.86435 86.701932,6.784136 86.59375,6.71875 c -0.0074,-0.0045 -0.02384,0.0044 -0.03125,0 -0.232039,-0.138728 -0.462548,-0.274778 -0.71875,-0.375 0.301527,0.0968 0.596455,0.204138 0.875,0.34375 0.55709,0.279224 1.060053,0.665694 1.5,1.09375 0.219973,0.214028 0.409366,0.441865 0.59375,0.6875 0.184384,0.245635 0.355408,0.507743 0.5,0.78125 0.14012,0.265048 0.276135,0.524729 0.375,0.8125 0.01041,0.03078 0.02133,0.06274 0.03125,0.09375 0.09046,0.278085 0.1388,0.579404 0.1875,0.875 C 89.95865,11.3493 90,11.665279 90,12 l 0,2 0,68 0,2 c 0,3.324 -2.676,6 -6,6 l -72,0 z"
       style="opacity:0.2;fill:url(#radialGradient3619);fill-opacity:1;fill-rule:nonzero;stroke:none" />
    <path
       sodipodi:type="arc"
       style="opacity:0.3;fill:url(#radialGradient10960);fill-opacity:1;stroke:none"
       id="path10958"
       sodipodi:cx="5.4358835"
       sodipodi:cy="19.812387"
       sodipodi:rx="4.3310289"
       sodipodi:ry="1.524699"
       d="m 9.7669125,19.812387 a 4.3310289,1.524699 0 1 1 -8.6620579,0 4.3310289,1.524699 0 1 1 8.6620579,0 z"
       transform="matrix(0.692676,0,0,0.9838008,-4.787255,26.885961)" />
    <path
       style="opacity:0.6;fill:none;stroke:url(#linearGradient3712);stroke-width:0.9999997px;stroke-linecap:butt;stroke-linejoin:miter;stroke-opacity:1"
       d="m -39.415179,45.009157 c 0.405911,-8.907831 13.059559,-35.4948049 19.198736,-35.6311499 6.140317,-0.13637 15.970931,20.7884789 17.97979,31.8851549 0,0 -13.317577,-25.94385 -17.843832,-25.885596 -4.561969,0.05825 -16.380591,22.518059 -14.297447,25.227422 2.065843,2.686863 18.293613,-2.308953 18.293613,-2.308953 -0.868706,0.614807 -10.129051,5.978191 -18.97334,8.367736 -2.095769,0.133449 -4.221564,0.691724 -4.35752,-1.654614 z"
       id="path6760"
       sodipodi:nodetypes="czczzccc" />
  </g>
  <g
     inkscape:groupmode="layer"
     id="layer5"
     inkscape:label="Highlight"
     sodipodi:insensitive="true">
    <rect
       style="opacity:0.1;fill:url(#linearGradient3613);fill-opacity:1;fill-rule:nonzero;stroke:#ffffff;stroke-width:0.5;stroke-linecap:round;stroke-linejoin:miter;stroke-miterlimit:4;stroke-opacity:1;stroke-dasharray:none;stroke-dashoffset:0;filter:url(#filter3794)"
       id="rect3171"
       width="66"
       height="66"
       x="15"
       y="15"
       rx="12"
       ry="12"
       clip-path="url(#clipPath3613)" />
  </g>
  <g
     inkscape:groupmode="layer"
     id="layer4"
     inkscape:label="Symbol">
    <path
       sodipodi:type="inkscape:offset"
       inkscape:radius="0.86412919"
       inkscape:original="M 48.4375 17.90625 C 46.83986 17.942273 45.283614 18.766618 43.6875 20.03125 C 42.091386 21.295882 40.440655 23.037182 38.75 25.15625 C 35.36869 29.394386 31.853292 35.126671 28.625 41.28125 C 25.396708 47.435829 22.462414 54.014902 20.34375 60 C 18.225086 65.985098 16.89665 71.324313 16.90625 75.1875 A 1.0931349 1.0931349 0 0 0 16.90625 75.25 C 17.034858 77.503359 18.485482 78.931736 20.0625 79.5 C 21.639518 80.068264 23.355297 80.058099 24.625 80.09375 A 1.0931349 1.0931349 0 0 0 24.875 80.0625 C 33.614984 78.24741 43.629337 73.565327 51.59375 69.1875 C 55.575957 66.998586 59.033609 64.894677 61.5625 63.25 C 62.826945 62.427662 63.843644 61.702101 64.59375 61.15625 C 64.968803 60.883325 65.292132 60.665721 65.53125 60.46875 C 65.770368 60.271779 65.882443 60.217366 66.125 59.84375 A 1.0931349 1.0931349 0 0 0 64.875 58.21875 C 64.875 58.21875 56.18917 61.045719 47.28125 63.4375 C 42.82729 64.63339 38.302886 65.722699 34.84375 66.28125 C 33.114182 66.560525 31.666249 66.711196 30.65625 66.6875 C 30.151251 66.675652 29.736364 66.594452 29.53125 66.53125 C 29.326136 66.468048 29.392702 66.450988 29.46875 66.59375 C 29.537038 66.721945 29.374438 65.895665 29.625 64.75 C 29.875562 63.604335 30.374515 62.084098 31.03125 60.34375 C 32.344721 56.863054 34.341715 52.480946 36.59375 48.25 C 38.845785 44.019054 41.358997 39.906851 43.625 36.90625 C 44.758002 35.40595 45.833949 34.205942 46.75 33.40625 C 47.666051 32.606558 48.412259 32.306945 48.65625 32.3125 C 48.683328 32.313128 49.707594 32.772091 50.84375 33.96875 C 51.979906 35.165409 53.350164 36.962283 54.84375 39.09375 C 57.830921 43.356684 61.303883 49.062467 64.59375 54.78125 C 71.173483 66.218815 77.03125 77.65625 77.03125 77.65625 A 1.0931349 1.0931349 0 0 0 79.09375 77.125 C 78.854271 66.138538 73.821222 51.507369 67.65625 39.5 C 64.573617 33.496025 61.203153 28.153094 57.9375 24.28125 C 54.671847 20.409406 51.565336 17.83572 48.4375 17.90625 z "
       style="opacity:0.05;fill:#000000;fill-opacity:1;fill-rule:evenodd;stroke:none"
       id="path3766"
       d="m 48.40625,17.03125 c -1.882017,0.04244 -3.582857,0.99159 -5.25,2.3125 -1.671435,1.32431 -3.376006,3.128229 -5.09375,5.28125 -3.436115,4.306828 -6.941865,10.062358 -10.1875,16.25 -3.245909,6.188165 -6.207807,12.80984 -8.34375,18.84375 -2.130013,6.017157 -3.504072,11.377369 -3.5,15.4375 9e-6,0.0089 -2.2e-5,0.02234 0,0.03125 -4.7e-5,0.03106 -9.4e-5,0.09048 0,0.09375 a 0.8642156,0.8642156 0 0 0 0,0.03125 c 0.148488,2.601675 1.897504,4.33247 3.75,5 1.76817,0.637144 3.569236,0.621341 4.8125,0.65625 a 0.8642156,0.8642156 0 0 0 0.03125,0 c 0.0044,-3.9e-5 0.120602,2.93e-4 0.125,0 0.0044,-2.93e-4 0.08938,-0.0307 0.09375,-0.03125 0.0044,-5.47e-4 0.120665,7.98e-4 0.125,0 0.0033,-6.1e-4 0.06361,-0.02474 0.09375,-0.03125 0.0095,-0.002 0.0218,0.002 0.03125,0 C 33.987727,79.053608 44.004046,74.332664 52,69.9375 c 4.002003,-2.199795 7.482927,-4.311435 10.03125,-5.96875 1.281716,-0.83357 2.306593,-1.574927 3.0625,-2.125 0.360696,-0.262477 0.706892,-0.477305 1,-0.71875 0.165633,-0.136439 0.385899,-0.372311 0.625,-0.6875 5.159013,9.257366 9.53125,17.625 9.53125,17.625 0.003,0.0057 0.09033,0.119584 0.09375,0.125 0.0034,0.0054 0.08988,0.15114 0.09375,0.15625 0.0039,0.0051 0.08947,0.120232 0.09375,0.125 0.0043,0.0048 0.120334,0.08936 0.125,0.09375 0.0047,0.0044 0.119983,0.121015 0.125,0.125 0.005,0.004 0.119666,0.0902 0.125,0.09375 0.0053,0.0036 0.150637,0.09066 0.15625,0.09375 0.0056,0.0031 0.150398,0.05989 0.15625,0.0625 0.0059,0.0026 0.11895,0.06039 0.125,0.0625 0.0061,0.0021 0.150044,0.06091 0.15625,0.0625 0.0062,0.0016 0.181182,0.03018 0.1875,0.03125 0.0063,0.0011 0.149865,-5.35e-4 0.15625,0 0.0064,5.35e-4 0.149842,2e-6 0.15625,0 0.0064,-2e-6 0.149865,5.39e-4 0.15625,0 0.0064,-5.39e-4 0.181183,0.0011 0.1875,0 0.0063,-0.0011 0.150045,-0.02965 0.15625,-0.03125 0.0062,-0.0016 0.150201,-0.06039 0.15625,-0.0625 0.006,-0.0021 0.150399,-0.05989 0.15625,-0.0625 0.0059,-0.0026 0.119389,-0.05941 0.125,-0.0625 0.0056,-0.0031 0.150918,-0.0902 0.15625,-0.09375 0.0053,-0.0036 0.119985,-0.08976 0.125,-0.09375 0.005,-0.004 0.120337,-0.120605 0.125,-0.125 0.0047,-0.0044 0.120722,-0.08898 0.125,-0.09375 0.0043,-0.0048 0.08989,-0.119888 0.09375,-0.125 0.0039,-0.0051 0.09033,-0.150832 0.09375,-0.15625 0.0034,-0.0054 0.09079,-0.119314 0.09375,-0.125 0.003,-0.0057 0.06003,-0.150337 0.0625,-0.15625 0.0025,-0.0059 0.06054,-0.150151 0.0625,-0.15625 0.002,-0.0061 0.0298,-0.150007 0.03125,-0.15625 0.0014,-0.0062 0.03033,-0.149908 0.03125,-0.15625 9.16e-4,-0.0063 0.03087,-0.149854 0.03125,-0.15625 3.82e-4,-0.0064 1.56e-4,-0.181094 0,-0.1875 -0.244863,-11.233476 -5.323286,-25.908896 -11.53125,-38 -3.104387,-6.046345 -6.514423,-11.427662 -9.84375,-15.375 -3.318106,-3.934034 -6.573111,-6.769001 -10.1875,-6.6875 z m 0.125,16.1875 c 0.08788,0.04886 0.177731,0.09874 0.3125,0.1875 0.352823,0.232363 0.858218,0.611948 1.375,1.15625 1.077623,1.135009 2.424224,2.916281 3.90625,5.03125 2.959851,4.223947 6.436076,9.91872 9.71875,15.625 0.43789,0.761184 0.726242,1.335866 1.15625,2.09375 -0.04105,0.0045 -0.09031,-5.17e-4 -0.09375,0 -0.0057,8.61e-4 -0.150594,0.02996 -0.15625,0.03125 -0.0057,0.0013 -0.119459,0.06078 -0.125,0.0625 a 0.8642156,0.8642156 0 0 0 -0.03125,0 c 0,0 -8.652158,2.803459 -17.53125,5.1875 -4.439338,1.191964 -8.942097,2.294481 -12.34375,2.84375 -1.702928,0.274973 -3.12648,0.396227 -4.03125,0.375 -0.145997,-0.0034 -0.18746,-0.01613 -0.3125,-0.03125 0.01257,-0.25575 0.01914,-0.50259 0.09375,-0.84375 0.233494,-1.067623 0.725909,-2.561159 1.375,-4.28125 1.295908,-3.434153 3.264691,-7.800477 5.5,-12 2.235864,-4.200565 4.746385,-8.275934 6.96875,-11.21875 1.107992,-1.467182 2.154049,-2.636504 3,-3.375 0.410732,-0.35856 0.767836,-0.611626 1.03125,-0.75 0.17923,-0.09415 0.169214,-0.08177 0.1875,-0.09375 z" />
    <path
       sodipodi:type="inkscape:offset"
       inkscape:radius="1.0930256"
       inkscape:original="M 48.46875 19 C 38.775307 19.218563 17.96423 60.793517 18 75.1875 C 18.214669 78.948737 22.080225 78.92767 24.65625 79 C 41.722428 75.455754 64.46741 60.407305 65.21875 59.25 C 65.21875 59.25 30.378352 70.619915 28.5 67.09375 C 26.576691 63.483191 42.730438 31.083122 48.6875 31.21875 C 54.537227 31.354372 78 77.15625 78 77.15625 C 77.767443 66.487343 72.7967 51.898743 66.6875 40 C 60.578303 28.101255 53.31637 18.89069 48.46875 19 z "
       style="opacity:0.1;fill:#000000;fill-opacity:1;fill-rule:evenodd;stroke:none"
       id="path3762"
       d="m 48.4375,17.90625 c -1.59764,0.03602 -3.153886,0.860368 -4.75,2.125 -1.596114,1.264632 -3.246845,3.005932 -4.9375,5.125 -3.38131,4.238136 -6.896708,9.970421 -10.125,16.125 C 25.396708,47.435829 22.462414,54.014902 20.34375,60 c -2.118664,5.985098 -3.4471,11.324313 -3.4375,15.1875 a 1.0931349,1.0931349 0 0 0 0,0.0625 c 0.128608,2.253359 1.579232,3.681736 3.15625,4.25 1.577018,0.568264 3.292797,0.558099 4.5625,0.59375 a 1.0931349,1.0931349 0 0 0 0.25,-0.03125 c 8.739984,-1.81509 18.754337,-6.497173 26.71875,-10.875 3.982207,-2.188914 7.439859,-4.292823 9.96875,-5.9375 1.264445,-0.822338 2.281144,-1.547899 3.03125,-2.09375 0.375053,-0.272925 0.698382,-0.490529 0.9375,-0.6875 0.239118,-0.196971 0.351193,-0.251384 0.59375,-0.625 a 1.0931349,1.0931349 0 0 0 -1.25,-1.625 c 0,0 -8.68583,2.826969 -17.59375,5.21875 -4.45396,1.19589 -8.978364,2.285199 -12.4375,2.84375 -1.729568,0.279275 -3.177501,0.429946 -4.1875,0.40625 -0.504999,-0.01185 -0.919886,-0.09305 -1.125,-0.15625 -0.205114,-0.0632 -0.138548,-0.08026 -0.0625,0.0625 0.06829,0.128195 -0.09431,-0.698085 0.15625,-1.84375 0.250562,-1.145665 0.749515,-2.665902 1.40625,-4.40625 1.313471,-3.480696 3.310465,-7.862804 5.5625,-12.09375 2.252035,-4.230946 4.765247,-8.343149 7.03125,-11.34375 1.133002,-1.5003 2.208949,-2.700308 3.125,-3.5 0.916051,-0.799692 1.662259,-1.099305 1.90625,-1.09375 0.02708,6.28e-4 1.051344,0.459591 2.1875,1.65625 1.136156,1.196659 2.506414,2.993533 4,5.125 2.987171,4.262934 6.460133,9.968717 9.75,15.6875 6.579733,11.437565 12.4375,22.875 12.4375,22.875 A 1.0931349,1.0931349 0 0 0 79.09375,77.125 C 78.854271,66.138538 73.821222,51.507369 67.65625,39.5 64.573617,33.496025 61.203153,28.153094 57.9375,24.28125 c -3.265653,-3.871844 -6.372164,-6.44553 -9.5,-6.375 z" />
    <path
       sodipodi:nodetypes="czsczzccc"
       id="path3756"
       d="M 18.000046,75.202593 C 17.964276,60.80861 38.789585,19.219527 48.483028,19.000964 53.330648,18.891654 60.593613,28.095853 66.70281,39.994598 72.81201,51.893341 77.767443,66.486637 78,77.155544 c 0,0 -23.452575,-45.813006 -29.302302,-45.948628 C 42.740636,31.071288 26.571705,63.484253 28.495014,67.094812 30.373366,70.620977 65.227201,59.253481 65.227201,59.253481 64.475861,60.410786 41.720959,75.455754 24.654781,79 22.078756,78.92767 18.214715,78.96383 18.000046,75.202593 z"
       style="fill:#000000;fill-opacity:1;fill-rule:evenodd;stroke:none;opacity:0.3" />
    <path
       style="fill:url(#linearGradient3715);fill-opacity:1;fill-rule:evenodd;stroke:none"
       d="M 18.000046,74.202593 C 17.964276,59.80861 38.789585,18.219527 48.483028,18.000964 53.330648,17.891654 60.593613,27.095853 66.70281,38.994598 72.81201,50.893341 77.767443,65.486637 78,76.155544 c 0,0 -23.452575,-45.813006 -29.302302,-45.948628 C 42.740636,30.071288 26.571705,62.484253 28.495014,66.094812 30.373366,69.620977 65.227201,58.253481 65.227201,58.253481 64.475861,59.410786 41.720959,74.455754 24.654781,78 22.078756,77.92767 18.214715,77.96383 18.000046,74.202593 z"
       id="path5556"
       sodipodi:nodetypes="czsczzccc" />
    <path
       style="fill:#ffffff;fill-opacity:1;fill-rule:evenodd;stroke:none;opacity:0.6"
       d="M 47.5 20.03125 C 47.009897 20.042301 45.96702 20.461451 44.65625 21.5 C 43.34548 22.538549 41.812284 24.127663 40.21875 26.125 C 37.031681 30.119674 33.567673 35.691654 30.40625 41.71875 C 27.244827 47.745846 24.370341 54.249223 22.3125 60.0625 C 20.270245 65.831747 19.04196 70.981932 19.03125 74.09375 C 19.101544 75.230665 19.310277 75.268922 20.125 75.5625 C 20.893265 75.839337 22.227834 75.898059 23.46875 75.9375 C 23.593487 75.910936 23.718253 75.871623 23.84375 75.84375 C 23.175411 75.790584 22.55459 75.717299 22.125 75.5625 C 21.310277 75.268922 21.101544 75.230665 21.03125 74.09375 C 21.04196 70.981932 22.270245 65.831747 24.3125 60.0625 C 26.370341 54.249223 29.244827 47.745846 32.40625 41.71875 C 35.567673 35.691654 39.031681 30.119674 42.21875 26.125 C 43.812284 24.127663 45.34548 22.538549 46.65625 21.5 C 47.390151 20.918515 48.015315 20.542723 48.53125 20.3125 C 48.103732 20.130258 47.756607 20.025464 47.5 20.03125 z M 49.71875 28.1875 C 49.34345 28.178955 48.986465 28.208946 48.65625 28.28125 C 50.11242 28.608864 50.984455 29.644132 52.09375 30.8125 C 53.41712 32.206343 54.86233 34.077952 56.40625 36.28125 C 59.49409 40.687846 62.99799 46.457129 66.3125 52.21875 C 69.952899 58.546864 70.848365 60.435281 73.1875 64.84375 C 72.5537 62.197848 71.748533 59.469698 70.84375 56.71875 C 70.149466 55.464277 69.363675 54.046009 68.3125 52.21875 C 64.99799 46.457129 61.49409 40.687846 58.40625 36.28125 C 56.86233 34.077952 55.41712 32.206343 54.09375 30.8125 C 52.77038 29.418657 51.797648 28.234973 49.75 28.1875 A 2.0436869 2.0436869 0 0 0 49.71875 28.1875 z M 50.9375 64.3125 C 49.095348 64.844415 49.047478 64.944173 47.09375 65.46875 C 42.586742 66.678884 38.007469 67.783415 34.34375 68.375 C 33.130708 68.570871 32.035437 68.716728 31.03125 68.78125 C 31.209586 68.79491 31.375935 68.808123 31.5625 68.8125 C 32.923827 68.844439 34.51189 68.670792 36.34375 68.375 C 39.957729 67.791447 44.458675 66.690802 48.90625 65.5 C 48.954117 65.473753 49.014783 65.463729 49.0625 65.4375 C 49.813734 65.024567 50.22633 64.717331 50.9375 64.3125 z "
       id="path3738" />
    <path
       style="fill:#000000;fill-opacity:1;fill-rule:evenodd;stroke:none;opacity:0.10000000000000001"
       d="M 48.46875 18 C 38.775307 18.218563 17.96423 59.793517 18 74.1875 C 18.214669 77.948737 22.080225 77.92767 24.65625 78 C 41.722428 74.455754 64.46741 59.407305 65.21875 58.25 C 65.21875 58.25 30.378352 69.619915 28.5 66.09375 C 26.576691 62.483191 42.730438 30.083122 48.6875 30.21875 C 54.537227 30.354372 78 76.15625 78 76.15625 C 77.767443 65.487343 72.7967 50.898743 66.6875 39 C 60.578303 27.101255 53.31637 17.89069 48.46875 18 z M 48.5 18.9375 C 50.326918 18.896304 53.289472 20.898416 56.40625 24.59375 C 59.523028 28.289084 62.84417 33.534421 65.875 39.4375 C 71.064438 49.544845 75.211988 61.509795 76.5 71.3125 C 74.333777 67.176365 70.919138 60.734658 66.34375 52.78125 C 63.038014 47.034882 59.551996 41.292944 56.5 36.9375 C 54.974002 34.759778 53.569211 32.917383 52.3125 31.59375 C 51.055789 30.270117 50.046953 29.312043 48.71875 29.28125 C 47.54966 29.254633 46.492312 29.926892 45.40625 30.875 C 44.320188 31.823108 43.184806 33.118601 42 34.6875 C 39.630388 37.825298 37.100185 42.014578 34.8125 46.3125 C 32.524815 50.610422 30.482 55.028952 29.125 58.625 C 28.4465 60.423024 27.941385 62.008751 27.65625 63.3125 C 27.371115 64.616249 27.185361 65.588603 27.6875 66.53125 C 27.968905 67.059521 28.449214 67.318293 28.9375 67.46875 C 29.425786 67.619207 29.975634 67.672998 30.59375 67.6875 C 31.829983 67.716504 33.392062 67.571161 35.1875 67.28125 C 38.778376 66.701427 43.32438 65.580062 47.8125 64.375 C 54.138409 62.676491 57.170559 61.670881 60.28125 60.6875 C 57.809639 62.289477 54.451688 64.285644 50.59375 66.40625 C 42.76994 70.706792 32.951514 75.303417 24.625 77.0625 C 23.335088 77.026348 21.82616 76.981534 20.75 76.59375 C 19.675149 76.206438 19.043804 75.691127 18.9375 74.1875 C 18.93748 74.179306 18.937505 74.164466 18.9375 74.15625 C 18.936668 74.143218 18.938252 74.138181 18.9375 74.125 C 18.941391 70.749094 20.180602 65.533423 22.25 59.6875 C 24.329498 53.813044 27.221018 47.291238 30.40625 41.21875 C 33.591482 35.146262 37.08752 29.518861 40.34375 25.4375 C 41.971865 23.396819 43.52513 21.744048 44.9375 20.625 C 46.34987 19.505952 47.615546 18.957442 48.5 18.9375 z "
       id="path3743" />
    <path
       style="opacity:0.3;fill:url(#linearGradient3010);fill-opacity:1;stroke:none"
       d="m 90.176092,53.595201 c -3.68576,2.000634 -7.284708,3.988326 -10.534146,6.20853 -4.365043,2.982449 -7.424399,5.968755 -8.829345,8.244115 -0.0064,0.01041 -0.01909,0.01507 -0.02544,0.02544 -0.855248,0.51272 -6.987278,4.21247 -10.101584,6.3612 -3.399982,2.345831 -9.134682,8.345893 -9.134682,8.345893 l 0.661564,0.407117 c 5.635631,-2.627661 16.97168,-5.241628 16.97168,-5.241628 l 0.381672,-0.101779 -0.101779,-0.254448 c 0,0 -0.04964,-0.106177 0,-0.432562 0.04965,-0.326383 0.217618,-0.839764 0.63612,-1.526688 0.909359,-1.492626 3.206874,-3.067916 4.758177,-4.020278 3.577895,-0.883217 8.639595,-3.238736 13.358518,-6.462978 0.670255,-0.457957 1.31324,-0.925417 1.95925,-1.399464 l 0,-10.152474 z"
       id="path10456" />
    <path
       style="opacity:0.2;fill:url(#linearGradient10454);fill-opacity:1;stroke:none"
       d="m 90.176092,28.175848 c -5.829787,7.272351 -12.578119,13.15294 -17.760469,20.126835 -3.383813,4.553597 -5.540367,8.952846 -6.335754,12.162613 -0.0036,0.01466 -0.02187,0.03627 -0.02545,0.05089 -0.678991,0.797208 -5.529202,6.494316 -7.938777,9.770802 C 55.485037,73.864029 51.5,82.60227 51.5,82.60227 l 0.712454,0.458006 C 56.854322,78.802698 66.766878,73.79837 66.766878,73.79837 l 0.330783,-0.178114 -0.127224,-0.330782 c 0,0 -0.07497,-0.145659 -0.101779,-0.58523 -0.02682,-0.439571 -0.0059,-1.143674 0.229003,-2.111919 0.510378,-2.103906 2.310223,-4.503853 3.536827,-5.979527 3.122276,-1.662158 7.28312,-5.458711 10.941262,-10.381477 3.144413,-4.231437 5.76624,-8.827173 8.600342,-13.562077 l 0,-12.493396 z"
       id="path10430" />
    <path
       sodipodi:nodetypes="czzszsz"
       id="path10375"
       d="m 75.064672,49.547205 c -4.049599,8.250949 -9.764083,14.11871 -11.844527,13.001 -2.219108,-1.192242 -1.146289,-8.796381 3.008907,-17.262474 4.154218,-8.464108 10.627331,-15.800098 14.881728,-25.250423 0.810787,-1.801005 2.380901,-4.461769 4.610055,-3.33162 2.310558,1.171419 1.683681,3.363479 0.462943,5.853374 -4.714241,9.615464 -7.0695,18.73919 -11.119106,26.990143 z"
       style="fill:url(#linearGradient10400);fill-opacity:1;stroke:#000000;stroke-width:1" />
    <path
       transform="matrix(0.51543413,-0.13805202,0.18764958,0.34818878,22.034792,39.12119)"
       d="m 60.457628,78.05204 a 5.4800777,7.7781744 0 1 1 -10.960155,0 5.4800777,7.7781744 0 1 1 10.960155,0 z"
       sodipodi:ry="7.7781744"
       sodipodi:rx="5.4800777"
       sodipodi:cy="78.05204"
       sodipodi:cx="54.977551"
       id="path4343"
       style="fill:none;stroke:#2e3436;stroke-width:4.3448329;stroke-linecap:round;stroke-miterlimit:4;stroke-opacity:1;stroke-dasharray:none"
       sodipodi:type="arc" />
    <path
       sodipodi:nodetypes="cscscscc"
       id="path4341"
       d="m 51.861559,82.693444 c 0,0 2.407526,-9.38992 4.281362,-13.2553 1.873833,-3.865379 6.304136,-11.55474 6.304136,-11.55474 0,0 1.278234,-1.91199 3.341616,-0.895006 2.063381,1.016983 1.467782,2.970373 1.467782,2.970373 0,0 -3.111695,4.686438 -3.370572,8.302459 -0.149227,2.084416 0.339404,2.936243 0.339404,2.936243 0,0 -8.56963,6.443574 -12.363728,11.495971 z"
       style="fill:url(#linearGradient8183);fill-opacity:1;fill-rule:evenodd;stroke:#c17d11;stroke-width:1;stroke-linecap:butt;stroke-linejoin:miter;stroke-miterlimit:4;stroke-opacity:1;stroke-dasharray:none" />
    <path
       transform="matrix(0.40562096,0.17374134,-0.18617242,0.36893017,82.843384,47.705805)"
       d="m -27.930719,71.864853 a 1.2374369,3.0052037 0 1 1 -2.474874,0 1.2374369,3.0052037 0 1 1 2.474874,0 z"
       sodipodi:ry="3.0052037"
       sodipodi:rx="1.2374369"
       sodipodi:cy="71.864853"
       sodipodi:cx="-29.168156"
       id="path6537"
       style="fill:#000000;fill-opacity:0.6;stroke:#c17d11;stroke-width:0.78447628;stroke-linecap:round;stroke-miterlimit:4;stroke-opacity:1;stroke-dasharray:none"
       sodipodi:type="arc" />
    <path
       sodipodi:nodetypes="cc"
       id="path8007"
       d="m 51.909903,82.456262 c 1.69882,-4.379088 2.911293,-8.067331 5.035554,-12.111901"
       style="fill:#c17d11;fill-opacity:1;fill-rule:evenodd;stroke:#c17d11;stroke-width:0.34297702;stroke-linecap:butt;stroke-linejoin:miter;stroke-miterlimit:4;stroke-opacity:1;stroke-dasharray:none" />
    <path
       style="fill:url(#linearGradient10392);fill-opacity:1;fill-rule:evenodd;stroke:none"
       d="m 65.494638,58.327933 c -0.178208,0.144702 -0.296829,0.295173 -0.305337,0.305338 -5e-5,8.7e-5 -0.02539,-1.01e-4 -0.02544,0 -0.06143,0.106624 -4.405005,7.678924 -6.20853,11.399269 -0.614506,1.267612 -1.345489,3.313606 -2.010139,5.419742 2.749351,-2.47473 5.108113,-4.248228 5.750524,-4.732733 -0.122669,-0.603229 -0.207655,-1.446458 -0.127224,-2.569924 0.15355,-2.144791 1.06338,-4.307571 1.90836,-6.004972 0.764839,-1.536417 1.36704,-2.440336 1.501243,-2.646259 0.009,-0.03587 0.0442,-0.171917 0,-0.432562 -0.04097,-0.241605 -0.08618,-0.47758 -0.483452,-0.737899 z"
       id="path10381" />
    <path
       sodipodi:type="arc"
       style="fill:url(#radialGradient10416);fill-opacity:1;stroke:none"
       id="path10408"
       sodipodi:cx="59.85154"
       sodipodi:cy="41.7043"
       sodipodi:rx="18.182745"
       sodipodi:ry="2.2728431"
       d="m 78.034285,41.7043 a 18.182745,2.2728431 0 1 1 -36.36549,0 18.182745,2.2728431 0 1 1 36.36549,0 z"
       transform="matrix(0.37707103,-0.72166035,0.72166035,0.37707103,17.69296,71.942488)" />
  </g>
</svg>
