<?xml version="1.0" encoding="UTF-8" standalone="no"?>
<!-- Created with Inkscape (http://www.inkscape.org/) -->

<svg
   xmlns:dc="http://purl.org/dc/elements/1.1/"
   xmlns:cc="http://creativecommons.org/ns#"
   xmlns:rdf="http://www.w3.org/1999/02/22-rdf-syntax-ns#"
   xmlns:svg="http://www.w3.org/2000/svg"
   xmlns="http://www.w3.org/2000/svg"
   xmlns:xlink="http://www.w3.org/1999/xlink"
   xmlns:sodipodi="http://sodipodi.sourceforge.net/DTD/sodipodi-0.dtd"
   xmlns:inkscape="http://www.inkscape.org/namespaces/inkscape"
   width="96"
   height="96"
   id="svg2408"
   sodipodi:version="0.32"
   inkscape:version="0.48.1 r9760"
   version="1.0"
   sodipodi:docname="autoplus.svg"
   inkscape:output_extension="org.inkscape.output.svg.inkscape">
  <defs
     id="defs2410">
    <linearGradient
       id="ButtonShadow"
       gradientTransform="scale(1.0058652,0.994169)"
       x1="45.447727"
       y1="92.539597"
       x2="45.447727"
       y2="7.0165396"
       gradientUnits="userSpaceOnUse">
      <stop
         style="stop-color:#000000;stop-opacity:1;"
         offset="0"
         id="stop3750" />
      <stop
         style="stop-color:#000000;stop-opacity:0.58823532;"
         offset="1"
         id="stop3752" />
    </linearGradient>
    <linearGradient
       inkscape:collect="always"
       id="linearGradient3737">
      <stop
         style="stop-color:#ffffff;stop-opacity:1;"
         offset="0"
         id="stop3739" />
      <stop
         style="stop-color:#ffffff;stop-opacity:0;"
         offset="1"
         id="stop3741" />
    </linearGradient>
    <filter
       inkscape:collect="always"
       id="filter3174">
      <feGaussianBlur
         inkscape:collect="always"
         stdDeviation="1.71"
         id="feGaussianBlur3176" />
    </filter>
    <linearGradient
       inkscape:collect="always"
       xlink:href="#linearGradient3737"
       id="linearGradient3188"
       gradientUnits="userSpaceOnUse"
       x1="36.357143"
       y1="6"
       x2="36.357143"
       y2="63.893143" />
    <filter
       inkscape:collect="always"
       id="filter3794"
       x="-0.192"
       width="1.384"
       y="-0.192"
       height="1.384">
      <feGaussianBlur
         inkscape:collect="always"
         stdDeviation="5.28"
         id="feGaussianBlur3796" />
    </filter>
    <linearGradient
       inkscape:collect="always"
       xlink:href="#linearGradient3737"
       id="linearGradient3613"
       x1="48"
       y1="20.220806"
       x2="48"
       y2="138.66119"
       gradientUnits="userSpaceOnUse" />
    <radialGradient
       inkscape:collect="always"
       xlink:href="#linearGradient3737"
       id="radialGradient3619"
       cx="48"
       cy="90.171875"
       fx="48"
       fy="90.171875"
       r="42"
       gradientTransform="matrix(1.1573129,0,0,0.99590774,-7.5510206,0.19713193)"
       gradientUnits="userSpaceOnUse" />
    <clipPath
       clipPathUnits="userSpaceOnUse"
       id="clipPath3613">
      <rect
         ry="6"
         rx="6"
         y="6"
         x="6"
         height="84"
         width="84"
         id="rect3615"
         style="fill:#ffffff;fill-opacity:1;fill-rule:nonzero;stroke:none" />
    </clipPath>
    <linearGradient
       id="ButtonShadow-0"
       gradientTransform="matrix(1.0058652,0,0,0.994169,100,0)"
       x1="45.447727"
       y1="92.539597"
       x2="45.447727"
       y2="7.0165396"
       gradientUnits="userSpaceOnUse">
      <stop
         style="stop-color:#000000;stop-opacity:1;"
         offset="0"
         id="stop3750-8" />
      <stop
         style="stop-color:#000000;stop-opacity:0.58823532;"
         offset="1"
         id="stop3752-5" />
    </linearGradient>
    <linearGradient
       inkscape:collect="always"
       xlink:href="#ButtonShadow-0"
       id="linearGradient3780"
       gradientUnits="userSpaceOnUse"
       gradientTransform="matrix(1.0238095,0,0,1.0119048,-1.1428571,-98.071429)"
       x1="32.251034"
       y1="6.1317081"
       x2="32.251034"
       y2="90.238609" />
    <linearGradient
       inkscape:collect="always"
       xlink:href="#ButtonShadow-0"
       id="linearGradient3772"
       gradientUnits="userSpaceOnUse"
       gradientTransform="matrix(1.0238095,0,0,1.0119048,-1.1428571,-98.071429)"
       x1="32.251034"
       y1="6.1317081"
       x2="32.251034"
       y2="90.238609" />
    <linearGradient
       inkscape:collect="always"
       xlink:href="#ButtonShadow-0"
       id="linearGradient3725"
       gradientUnits="userSpaceOnUse"
       gradientTransform="matrix(1.0238095,0,0,1.0119048,-1.1428571,-98.071429)"
       x1="32.251034"
       y1="6.1317081"
       x2="32.251034"
       y2="90.238609" />
    <linearGradient
       inkscape:collect="always"
       xlink:href="#ButtonShadow-0"
       id="linearGradient3721"
       gradientUnits="userSpaceOnUse"
       gradientTransform="translate(0,-97)"
       x1="32.251034"
       y1="6.1317081"
       x2="32.251034"
       y2="90.238609" />
    <linearGradient
       y2="90.238609"
       x2="32.251034"
       y1="6.1317081"
       x1="32.251034"
       gradientTransform="matrix(1.0238095,0,0,1.0119048,-1.1428571,-98.071429)"
       gradientUnits="userSpaceOnUse"
       id="linearGradient3026"
       xlink:href="#ButtonShadow-0"
       inkscape:collect="always" />
    <linearGradient
       id="linearGradient3700-6">
      <stop
         style="stop-color:#1972ce;stop-opacity:1;"
         offset="0"
         id="stop3702-4" />
      <stop
         style="stop-color:#69a7e6;stop-opacity:1;"
         offset="1"
         id="stop3704-9" />
    </linearGradient>
    <radialGradient
       cx="115.8989"
       cy="133.10451"
       r="154.62019"
       fx="115.8989"
       fy="133.10451"
       id="radialGradient4127"
       gradientUnits="userSpaceOnUse">
      <stop
         style="stop-color:#6fb6ff;stop-opacity:1;"
         offset="0"
         id="stop4129" />
      <stop
         style="stop-color:#006bce;stop-opacity:1;"
         offset="1"
         id="stop4131" />
    </radialGradient>
    <linearGradient
       inkscape:collect="always"
       xlink:href="#linearGradient3925-3"
       id="linearGradient3121"
       gradientUnits="userSpaceOnUse"
       x1="48"
       y1="90"
       x2="48"
       y2="5.9877172" />
    <radialGradient
       inkscape:collect="always"
       xlink:href="#radialGradient3897"
       id="radialGradient3891"
       cx="48"
       cy="48"
       fx="48"
       fy="48"
       r="35.25"
       gradientUnits="userSpaceOnUse" />
    <radialGradient
       r="154.62019"
       fy="133.10451"
       fx="115.8989"
       cy="133.10451"
       cx="115.8989"
       gradientTransform="matrix(0.25364919,0,0,0.25365619,106,16.000007)"
       gradientUnits="userSpaceOnUse"
       id="radialGradient2877"
       xlink:href="#radialGradient3897"
       inkscape:collect="always" />
    <radialGradient
       gradientUnits="userSpaceOnUse"
       id="radialGradient3897"
       fy="133.10451"
       fx="115.8989"
       r="154.62019"
       cy="133.10451"
       cx="115.8989">
      <stop
         id="stop3899"
         offset="0"
         style="stop-color:#294172;stop-opacity:0.37404579;" />
      <stop
         id="stop3901"
         offset="1"
         style="stop-color:#294172;stop-opacity:1" />
    </radialGradient>
    <linearGradient
       y2="8"
       x2="64"
       y1="88"
       x1="64"
       gradientUnits="userSpaceOnUse"
       id="linearGradient3983"
       xlink:href="#linearGradient3925-3"
       inkscape:collect="always" />
    <linearGradient
       id="linearGradient3925-3">
      <stop
         style="stop-color:#3c6eb4;stop-opacity:1;"
         offset="0"
         id="stop3927-9" />
      <stop
         style="stop-color:#81a4d5;stop-opacity:1;"
         offset="1"
         id="stop3929-8" />
    </linearGradient>
    <linearGradient
       y2="8"
       x2="64"
       y1="88"
       x1="64"
       gradientUnits="userSpaceOnUse"
       id="linearGradient3121-6"
       xlink:href="#linearGradient3925-3"
       inkscape:collect="always"
       gradientTransform="translate(90,0)" />
  </defs>
  <sodipodi:namedview
     id="base"
     pagecolor="#ffffff"
     bordercolor="#666666"
     borderopacity="1.0"
     inkscape:pageopacity="0.0"
     inkscape:pageshadow="2"
     inkscape:zoom="5.6"
     inkscape:cx="92.771008"
     inkscape:cy="34.881884"
     inkscape:document-units="px"
     inkscape:current-layer="layer4"
     showgrid="true"
     showborder="true"
     inkscape:showpageshadow="false"
     inkscape:window-width="1920"
     inkscape:window-height="1028"
     inkscape:window-x="0"
     inkscape:window-y="25"
     inkscape:window-maximized="1"
     inkscape:snap-global="false"
     showguides="true"
     inkscape:guide-bbox="true">
    <inkscape:grid
       type="xygrid"
       id="grid3732"
       visible="true"
       enabled="true" />
  </sodipodi:namedview>
  <metadata
     id="metadata2413">
    <rdf:RDF>
      <cc:Work
         rdf:about="">
        <dc:format>image/svg+xml</dc:format>
        <dc:type
           rdf:resource="http://purl.org/dc/dcmitype/StillImage" />
        <dc:title />
      </cc:Work>
    </rdf:RDF>
  </metadata>
  <g
     inkscape:groupmode="layer"
     id="layer2"
     inkscape:label="Blur Shadow"
     style="display:none"
     sodipodi:insensitive="true">
    <rect
       style="opacity:0.9;fill:url(#ButtonShadow);fill-opacity:1;fill-rule:nonzero;stroke:none;filter:url(#filter3174)"
       id="rect3745"
       width="86"
       height="85"
       x="5"
       y="7"
       rx="6"
       ry="6" />
  </g>
  <g
     inkscape:groupmode="layer"
     id="layer3"
     inkscape:label="Shadow"
     sodipodi:insensitive="true">
    <path
       sodipodi:type="inkscape:offset"
       inkscape:radius="0.99097413"
       inkscape:original="M 12 -94.03125 C 7.028367 -94.03125 2.96875 -89.971633 2.96875 -85 L 2.96875 -14 C 2.96875 -9.0283671 7.0283671 -4.96875 12 -4.96875 L 84 -4.96875 C 88.971633 -4.96875 93.03125 -9.028367 93.03125 -14 L 93.03125 -85 C 93.03125 -89.971633 88.971633 -94.03125 84 -94.03125 L 12 -94.03125 z "
       style="opacity:0.07999998;fill:url(#linearGradient3026);fill-opacity:1;fill-rule:nonzero;stroke:none;display:inline"
       id="path3786"
       d="m 12,-95.03125 c -5.5110903,0 -10.03125,4.52016 -10.03125,10.03125 l 0,71 c 0,5.5110902 4.5201598,10.03125 10.03125,10.03125 l 72,0 c 5.51109,0 10.03125,-4.5201597 10.03125,-10.03125 l 0,-71 c 0,-5.51109 -4.52016,-10.03125 -10.03125,-10.03125 l -72,0 z"
       transform="scale(1,-1)" />
    <path
       sodipodi:type="inkscape:offset"
       inkscape:radius="1.0360184"
       inkscape:original="M 12 -93 C 7.5908667 -93 4 -89.409133 4 -85 L 4 -14 C 4 -9.5908667 7.5908667 -6 12 -6 L 84 -6 C 88.409133 -6 92 -9.5908667 92 -14 L 92 -85 C 92 -89.409133 88.409133 -93 84 -93 L 12 -93 z "
       style="opacity:0.1;fill:url(#linearGradient3780);fill-opacity:1;fill-rule:nonzero;stroke:none;display:inline"
       id="path3778"
       d="m 12,-94.03125 c -4.971633,0 -9.03125,4.059617 -9.03125,9.03125 l 0,71 c 0,4.9716329 4.0596171,9.03125 9.03125,9.03125 l 72,0 c 4.971633,0 9.03125,-4.059617 9.03125,-9.03125 l 0,-71 c 0,-4.971633 -4.059617,-9.03125 -9.03125,-9.03125 l -72,0 z"
       transform="scale(1,-1)" />
    <path
       sodipodi:type="inkscape:offset"
       inkscape:radius="0.98962283"
       inkscape:original="M 12 -92 C 8.122 -92 5 -88.878 5 -85 L 5 -14 C 5 -10.122 8.122 -7 12 -7 L 84 -7 C 87.878 -7 91 -10.122 91 -14 L 91 -85 C 91 -88.878 87.878 -92 84 -92 L 12 -92 z "
       style="opacity:0.2;fill:url(#linearGradient3772);fill-opacity:1;fill-rule:nonzero;stroke:none;display:inline"
       id="path3770"
       d="m 12,-93 c -4.4091333,0 -8,3.590867 -8,8 l 0,71 c 0,4.4091333 3.5908667,8 8,8 l 72,0 c 4.409133,0 8,-3.5908667 8,-8 l 0,-71 c 0,-4.409133 -3.590867,-8 -8,-8 l -72,0 z"
       transform="scale(1,-1)" />
    <rect
       style="opacity:0.3;fill:url(#linearGradient3725);fill-opacity:1;fill-rule:nonzero;stroke:none;display:inline"
       id="rect3723"
       width="86"
       height="85"
       x="5"
       y="-92"
       rx="7"
       ry="7"
       transform="scale(1,-1)" />
    <rect
       transform="scale(1,-1)"
       ry="6"
       rx="6"
       y="-91"
       x="6"
       height="84"
       width="84"
       id="rect3716"
       style="opacity:0.45;fill:url(#linearGradient3721);fill-opacity:1;fill-rule:nonzero;stroke:none;display:inline" />
  </g>
  <g
     inkscape:label="Button"
     inkscape:groupmode="layer"
     id="layer1">
    <rect
       style="fill:url(#linearGradient3121);fill-opacity:1.0;fill-rule:nonzero;stroke:none;display:inline"
       id="rect2419-5"
       width="84"
       height="84"
       x="6"
       y="6"
       rx="6"
       ry="6" />
    <path
       style="opacity:0.35;fill:url(#linearGradient3188);fill-opacity:1;fill-rule:nonzero;stroke:none"
       d="M 12,6 C 8.676,6 6,8.676 6,12 l 0,2 0,68 0,2 c 0,0.334721 0.04135,0.6507 0.09375,0.96875 0.0487,0.295596 0.09704,0.596915 0.1875,0.875 0.00988,0.03038 0.020892,0.0636 0.03125,0.09375 0.098865,0.287771 0.2348802,0.547452 0.375,0.8125 0.1445918,0.273507 0.3156161,0.535615 0.5,0.78125 0.1843839,0.245635 0.3737765,0.473472 0.59375,0.6875 0.439947,0.428056 0.94291,0.814526 1.5,1.09375 0.278545,0.139612 0.5734731,0.246947 0.875,0.34375 -0.2562018,-0.100222 -0.4867109,-0.236272 -0.71875,-0.375 -0.00741,-0.0044 -0.023866,0.0045 -0.03125,0 -0.031933,-0.0193 -0.062293,-0.04251 -0.09375,-0.0625 -0.120395,-0.0767 -0.2310226,-0.163513 -0.34375,-0.25 -0.1061728,-0.0808 -0.2132809,-0.161112 -0.3125,-0.25 C 8.4783201,88.557317 8.3087904,88.373362 8.15625,88.1875 8.0486711,88.057245 7.9378561,87.922215 7.84375,87.78125 7.818661,87.74287 7.805304,87.69538 7.78125,87.65625 7.716487,87.553218 7.6510225,87.451733 7.59375,87.34375 7.4927417,87.149044 7.3880752,86.928049 7.3125,86.71875 7.30454,86.69694 7.288911,86.6782 7.28125,86.65625 7.2494249,86.5643 7.2454455,86.469419 7.21875,86.375 7.1884177,86.268382 7.1483606,86.171969 7.125,86.0625 7.0521214,85.720988 7,85.364295 7,85 L 7,83 7,15 7,13 C 7,10.218152 9.2181517,8 12,8 l 2,0 68,0 2,0 c 2.781848,0 5,2.218152 5,5 l 0,2 0,68 0,2 c 0,0.364295 -0.05212,0.720988 -0.125,1.0625 -0.04415,0.206893 -0.08838,0.397658 -0.15625,0.59375 -0.0077,0.02195 -0.0233,0.04069 -0.03125,0.0625 -0.06274,0.173739 -0.138383,0.367449 -0.21875,0.53125 -0.04158,0.0828 -0.07904,0.169954 -0.125,0.25 -0.0546,0.09721 -0.126774,0.18835 -0.1875,0.28125 -0.09411,0.140965 -0.204921,0.275995 -0.3125,0.40625 -0.143174,0.17445 -0.303141,0.346998 -0.46875,0.5 -0.01117,0.0102 -0.01998,0.02115 -0.03125,0.03125 -0.138386,0.125556 -0.285091,0.234436 -0.4375,0.34375 -0.102571,0.07315 -0.204318,0.153364 -0.3125,0.21875 -0.0074,0.0045 -0.02384,-0.0044 -0.03125,0 -0.232039,0.138728 -0.462548,0.274778 -0.71875,0.375 0.301527,-0.0968 0.596455,-0.204138 0.875,-0.34375 0.55709,-0.279224 1.060053,-0.665694 1.5,-1.09375 0.219973,-0.214028 0.409366,-0.441865 0.59375,-0.6875 0.184384,-0.245635 0.355408,-0.507743 0.5,-0.78125 0.14012,-0.265048 0.276135,-0.524729 0.375,-0.8125 0.01041,-0.03078 0.02133,-0.06274 0.03125,-0.09375 0.09046,-0.278085 0.1388,-0.579404 0.1875,-0.875 C 89.95865,84.6507 90,84.334721 90,84 l 0,-2 0,-68 0,-2 C 90,8.676 87.324,6 84,6 L 12,6 z"
       id="rect3728"
       inkscape:connector-curvature="0" />
    <path
       id="path3615"
       d="M 12,90 C 8.676,90 6,87.324 6,84 L 6,82 6,14 6,12 c 0,-0.334721 0.04135,-0.6507 0.09375,-0.96875 0.0487,-0.295596 0.09704,-0.596915 0.1875,-0.875 C 6.29113,10.12587 6.302142,10.09265 6.3125,10.0625 6.411365,9.774729 6.5473802,9.515048 6.6875,9.25 6.8320918,8.976493 7.0031161,8.714385 7.1875,8.46875 7.3718839,8.223115 7.5612765,7.995278 7.78125,7.78125 8.221197,7.353194 8.72416,6.966724 9.28125,6.6875 9.559795,6.547888 9.8547231,6.440553 10.15625,6.34375 9.9000482,6.443972 9.6695391,6.580022 9.4375,6.71875 c -0.00741,0.0044 -0.023866,-0.0045 -0.03125,0 -0.031933,0.0193 -0.062293,0.04251 -0.09375,0.0625 -0.120395,0.0767 -0.2310226,0.163513 -0.34375,0.25 -0.1061728,0.0808 -0.2132809,0.161112 -0.3125,0.25 C 8.4783201,7.442683 8.3087904,7.626638 8.15625,7.8125 8.0486711,7.942755 7.9378561,8.077785 7.84375,8.21875 7.818661,8.25713 7.805304,8.30462 7.78125,8.34375 7.716487,8.446782 7.6510225,8.548267 7.59375,8.65625 7.4927417,8.850956 7.3880752,9.071951 7.3125,9.28125 7.30454,9.30306 7.288911,9.3218 7.28125,9.34375 7.2494249,9.4357 7.2454455,9.530581 7.21875,9.625 7.1884177,9.731618 7.1483606,9.828031 7.125,9.9375 7.0521214,10.279012 7,10.635705 7,11 l 0,2 0,68 0,2 c 0,2.781848 2.2181517,5 5,5 l 2,0 68,0 2,0 c 2.781848,0 5,-2.218152 5,-5 l 0,-2 0,-68 0,-2 C 89,10.635705 88.94788,10.279012 88.875,9.9375 88.83085,9.730607 88.78662,9.539842 88.71875,9.34375 88.71105,9.3218 88.69545,9.30306 88.6875,9.28125 88.62476,9.107511 88.549117,8.913801 88.46875,8.75 88.42717,8.6672 88.38971,8.580046 88.34375,8.5 88.28915,8.40279 88.216976,8.31165 88.15625,8.21875 88.06214,8.077785 87.951329,7.942755 87.84375,7.8125 87.700576,7.63805 87.540609,7.465502 87.375,7.3125 87.36383,7.3023 87.35502,7.29135 87.34375,7.28125 87.205364,7.155694 87.058659,7.046814 86.90625,6.9375 86.803679,6.86435 86.701932,6.784136 86.59375,6.71875 c -0.0074,-0.0045 -0.02384,0.0044 -0.03125,0 -0.232039,-0.138728 -0.462548,-0.274778 -0.71875,-0.375 0.301527,0.0968 0.596455,0.204138 0.875,0.34375 0.55709,0.279224 1.060053,0.665694 1.5,1.09375 0.219973,0.214028 0.409366,0.441865 0.59375,0.6875 0.184384,0.245635 0.355408,0.507743 0.5,0.78125 0.14012,0.265048 0.276135,0.524729 0.375,0.8125 0.01041,0.03078 0.02133,0.06274 0.03125,0.09375 0.09046,0.278085 0.1388,0.579404 0.1875,0.875 C 89.95865,11.3493 90,11.665279 90,12 l 0,2 0,68 0,2 c 0,3.324 -2.676,6 -6,6 l -72,0 z"
       style="opacity:0.2;fill:url(#radialGradient3619);fill-opacity:1;fill-rule:nonzero;stroke:none"
       inkscape:connector-curvature="0" />
  </g>
  <g
     inkscape:groupmode="layer"
     id="layer5"
     inkscape:label="Highlight"
     sodipodi:insensitive="true"
     style="display:inline">
    <rect
       style="opacity:0.1;fill:url(#linearGradient3613);fill-opacity:1;fill-rule:nonzero;stroke:#ffffff;stroke-width:0.5;stroke-linecap:round;stroke-linejoin:miter;stroke-miterlimit:4;stroke-opacity:1;stroke-dasharray:none;stroke-dashoffset:0;filter:url(#filter3794)"
       id="rect3171"
       width="66"
       height="66"
       x="15"
       y="15"
       rx="12"
       ry="12"
       clip-path="url(#clipPath3613)" />
  </g>
  <g
     inkscape:groupmode="layer"
     id="layer4"
     inkscape:label="Symbol">
    <path
       style="color:#000000;fill:url(#radialGradient3891);fill-opacity:1.0;fill-rule:nonzero;stroke:none;stroke-width:1;marker:none;visibility:visible;display:inline;overflow:visible;enable-background:accumulate"
       d="m 40.625,12.75 c -4.47894,0.933301 -8.644572,2.72742 -12.34375,5.15625 0.107811,2.695429 -0.851192,5.413692 -2.90625,7.46875 -2.055058,2.055058 -4.773321,3.014061 -7.46875,2.90625 C 15.47742,31.980428 13.683301,36.14606 12.75,40.625 14.748159,42.453374 16,45.078115 16,48 c 0,2.921885 -1.251841,5.546626 -3.25,7.375 0.933301,4.47894 2.72742,8.644572 5.15625,12.34375 2.695429,-0.107811 5.413692,0.851192 7.46875,2.90625 2.055058,2.055058 3.014061,4.773321 2.90625,7.46875 C 31.980428,80.52258 36.14606,82.316699 40.625,83.25 42.453374,81.251841 45.078115,80 48,80 c 2.921885,0 5.546626,1.251841 7.375,3.25 4.464448,-0.930281 8.622233,-2.708308 12.3125,-5.125 -0.0063,-0.144349 0,-0.293178 0,-0.4375 0,-2.559223 0.984879,-5.109879 2.9375,-7.0625 2.055058,-2.055058 4.773321,-3.014061 7.46875,-2.90625 C 80.52258,64.019572 82.316699,59.85394 83.25,55.375 81.251841,53.546626 80,50.921885 80,48 80,45.078115 81.251841,42.453374 83.25,40.625 82.316699,36.14606 80.52258,31.980428 78.09375,28.28125 75.398321,28.389061 72.680058,27.430058 70.625,25.375 c -1.952621,-1.952621 -2.9375,-4.503277 -2.9375,-7.0625 0,-0.144322 -0.0063,-0.293151 0,-0.4375 C 63.997233,15.458308 59.839448,13.680281 55.375,12.75 53.546626,14.748159 50.921885,16 48,16 45.078115,16 42.453374,14.748159 40.625,12.75 z"
       id="path3683"
       inkscape:connector-curvature="0"
       sodipodi:nodetypes="ccsccsccsccsccssccsccssccsc" />
    <path
       style="color:#000000;fill:#000000;fill-opacity:1;fill-rule:nonzero;stroke:none;stroke-width:1;marker:none;visibility:visible;display:inline;overflow:visible;enable-background:accumulate;opacity:0.05"
       d="M 40.625 12.75 C 36.14606 13.683301 31.980428 15.47742 28.28125 17.90625 C 28.389061 20.601679 27.430058 23.319942 25.375 25.375 C 23.319942 27.430058 20.601679 28.389061 17.90625 28.28125 C 15.47742 31.980428 13.683301 36.14606 12.75 40.625 C 14.748159 42.453374 16 45.078115 16 48 C 16 50.921885 14.748159 53.546626 12.75 55.375 C 13.683301 59.85394 15.47742 64.019572 17.90625 67.71875 C 20.601679 67.610939 23.319942 68.569942 25.375 70.625 C 27.430058 72.680058 28.389061 75.398321 28.28125 78.09375 C 31.980428 80.52258 36.14606 82.316699 40.625 83.25 C 42.453374 81.251841 45.078115 80 48 80 C 50.921885 80 53.546626 81.251841 55.375 83.25 C 59.839448 82.319719 63.997233 80.541692 67.6875 78.125 C 67.6812 77.980651 67.6875 77.831822 67.6875 77.6875 C 67.6875 75.128277 68.672379 72.577621 70.625 70.625 C 72.680058 68.569942 75.398321 67.610939 78.09375 67.71875 C 80.52258 64.019572 82.316699 59.85394 83.25 55.375 C 81.251841 53.546626 80 50.921885 80 48 C 80 45.078115 81.251841 42.453374 83.25 40.625 C 82.316699 36.14606 80.52258 31.980428 78.09375 28.28125 C 75.398321 28.389061 72.680058 27.430058 70.625 25.375 C 68.672379 23.422379 67.6875 20.871723 67.6875 18.3125 C 67.6875 18.168178 67.6812 18.019349 67.6875 17.875 C 63.997233 15.458308 59.839448 13.680281 55.375 12.75 C 53.546626 14.748159 50.921885 16 48 16 C 45.078115 16 42.453374 14.748159 40.625 12.75 z M 40 15.59375 C 42.176519 17.410835 44.956334 18.53125 48 18.53125 C 51.043666 18.53125 53.823481 17.410835 56 15.59375 C 59.34935 16.424484 62.531149 17.73815 65.40625 19.5 C 65.680463 22.294605 66.718815 25.031315 68.84375 27.15625 C 70.985236 29.297736 73.72721 30.458168 76.53125 30.71875 C 78.269018 33.570908 79.583176 36.687857 80.40625 40 C 78.589165 42.176519 77.46875 44.956334 77.46875 48 C 77.46875 51.043666 78.589165 53.823481 80.40625 56 C 79.583176 59.312143 78.269018 62.429092 76.53125 65.28125 C 73.72721 65.541832 70.985236 66.702264 68.84375 68.84375 C 66.718815 70.968685 65.680463 73.705395 65.40625 76.5 C 62.531149 78.26185 59.34935 79.575516 56 80.40625 C 53.823481 78.589165 51.043666 77.46875 48 77.46875 C 44.956334 77.46875 42.176519 78.589165 40 80.40625 C 36.687857 79.583176 33.570908 78.269018 30.71875 76.53125 C 30.458168 73.72721 29.297736 70.985236 27.15625 68.84375 C 25.014764 66.702264 22.27279 65.541832 19.46875 65.28125 C 17.730982 62.429092 16.416824 59.312143 15.59375 56 C 17.410835 53.823481 18.53125 51.043666 18.53125 48 C 18.53125 44.956334 17.410835 42.176519 15.59375 40 C 16.416824 36.687857 17.730982 33.570908 19.46875 30.71875 C 22.27279 30.458168 25.014764 29.297736 27.15625 27.15625 C 29.297736 25.014764 30.458168 22.27279 30.71875 19.46875 C 33.570908 17.730982 36.687857 16.416824 40 15.59375 z "
       id="path3937" />
    <path
       sodipodi:type="inkscape:offset"
       inkscape:radius="0.85390621"
       inkscape:original="M 58.40625 25 C 50.891148 25 44.78125 31.079108 44.78125 38.59375 L 44.78125 38.625 L 44.78125 45.8125 L 37.59375 45.8125 C 30.078878 45.8125 24 51.892068 24 59.40625 C 24 66.921581 30.079108 73 37.59375 73 C 45.107702 73 51.21875 66.921581 51.21875 59.40625 L 51.21875 59.375 L 51.21875 52.15625 L 58.40625 52.15625 C 65.920203 52.15625 72 46.107933 72 38.59375 C 72 31.079108 65.920203 25 58.40625 25 z M 58.40625 31.4375 C 62.372221 31.4375 65.59375 34.627089 65.59375 38.59375 C 65.59375 42.559952 62.372221 45.8125 58.40625 45.8125 L 58.375 45.8125 L 52.21875 45.8125 C 51.658518 45.8125 51.21875 45.373191 51.21875 44.8125 L 51.21875 38.59375 C 51.22545 34.631914 54.444184 31.4375 58.40625 31.4375 z M 37.59375 52.15625 L 37.625 52.15625 L 43.78125 52.15625 C 44.341482 52.15625 44.78125 52.596937 44.78125 53.15625 L 44.78125 59.40625 C 44.77555 63.365788 41.555585 66.5625 37.59375 66.5625 C 33.627778 66.5625 30.40625 63.372222 30.40625 59.40625 C 30.40625 55.4389 33.627778 52.15625 37.59375 52.15625 z "
       style="opacity:0.1;fill:#0a57a4"
       id="path3903"
       d="m 58.40625,24.15625 c -7.975596,0 -14.46875,6.460003 -14.46875,14.4375 l 0,0.03125 0,6.34375 -6.34375,0 c -7.975415,0 -14.4375,6.462785 -14.4375,14.4375 0,7.975811 6.462388,14.4375 14.4375,14.4375 7.974464,0 14.46875,-6.45927 14.46875,-14.4375 l 0,-0.03125 0,-6.375 6.34375,0 c 7.972185,0 14.4375,-6.431465 14.4375,-14.40625 0,-7.975216 -6.462983,-14.4375 -14.4375,-14.4375 z m 0,8.125 c 3.508141,0 6.34375,2.808173 6.34375,6.3125 0,3.503814 -2.844646,6.375 -6.34375,6.375 l -0.03125,0 -6.15625,0 c -0.113835,0 -0.15625,-0.04206 -0.15625,-0.15625 l 0,-6.21875 c 0.0059,-3.500119 2.840658,-6.3125 6.34375,-6.3125 z M 37.59375,53 l 0.03125,0 6.15625,0 c 0.112435,0 0.15625,0.04453 0.15625,0.15625 l 0,6.25 c -0.005,3.49726 -2.841246,6.3125 -6.34375,6.3125 -3.508043,0 -6.34375,-2.808942 -6.34375,-6.3125 C 31.25,55.901154 34.098966,53 37.59375,53 z" />
    <path
       inkscape:connector-curvature="0"
       d="m 58.394275,24.999799 c -7.515102,0 -13.606645,6.091773 -13.606645,13.606415 0,0.0025 0,0.006 0,0.0094 l 0,7.201436 -7.179376,0 c -0.0011,0 -0.0011,0 -0.0018,0 -7.514872,0 -13.606415,6.06213 -13.606415,13.576312 0,7.515331 6.091773,13.606874 13.606415,13.606874 7.513952,0 13.605725,-6.091543 13.605725,-13.606874 0,-0.0028 0,-0.0053 0,-0.0094 l 0,-7.231309 7.179147,0 c 0.0016,0 0.0023,0 0.003,0 7.513953,0 13.605726,-6.032257 13.605726,-13.54644 0,-7.514642 -6.091773,-13.606415 -13.605726,-13.606415 z M 44.78763,59.406252 c -0.0057,3.959538 -3.219379,7.169495 -7.181214,7.169495 -3.965972,0 -7.210858,-3.215242 -7.210858,-7.181214 0,-3.96735 3.244886,-7.242109 7.210858,-7.242109 0.0032,0 0.0064,0 0.0094,0 l 6.153587,0 c 0.0021,0 0.0032,0 0.0046,0 0.560232,0 1.014529,0.453378 1.014529,1.012691 0,0.0011 -6.89e-4,0.0011 -6.89e-4,0.0025 l 0,6.238609 -2.3e-4,0 z m 13.605956,-13.58918 c -0.0023,0 -0.0046,0 -0.0067,0 l -6.157723,0 c -0.0014,0 -0.003,0 -0.0037,0 -0.560232,0 -1.013381,-0.453149 -1.013381,-1.01384 l 0,-2.3e-4 0,-6.208507 c 0.0067,-3.961836 3.219379,-7.170644 7.181445,-7.170644 3.965971,0 7.211547,3.215472 7.211547,7.182133 0,3.966202 -3.245576,7.211088 -7.211547,7.211088 z"
       style="fill:#0a57a4;opacity:0.3"
       id="path3898" />
    <g
       id="f-script"
       transform="matrix(0.22979151,0,0,0.22979151,20.891841,17.128114)"
       style="fill:#5484c6;fill-opacity:1">
      <path
         inkscape:connector-curvature="0"
         d="m 163.202,29.904 c -32.704,0 -59.213,26.51 -59.213,59.212 0,0.011 0,0.026 0,0.041 l 0,31.339 -31.243,0 c -0.005,0 -0.005,0 -0.008,0 -32.703,0 -59.212,26.381 -59.212,59.081 0,32.705 26.51,59.214 59.212,59.214 32.699,0 59.209,-26.509 59.209,-59.214 0,-0.012 0,-0.023 0,-0.041 l 0,-31.469 31.242,0 c 0.007,0 0.01,0 0.013,0 32.699,0 59.209,-26.251 59.209,-58.951 0,-32.702 -26.51,-59.212 -59.209,-59.212 z m -59.213,149.729 c -0.025,17.231 -14.01,31.2 -31.251,31.2 -17.259,0 -31.38,-13.992 -31.38,-31.251 0,-17.265 14.121,-31.516 31.38,-31.516 0.014,0 0.028,0 0.041,0 l 26.779,0 c 0.009,0 0.014,0 0.02,0 2.438,0 4.415,1.973 4.415,4.407 0,0.005 -0.003,0.005 -0.003,0.011 l 0,27.149 -10e-4,0 z m 59.21,-59.137 c -0.01,0 -0.02,0 -0.029,0 l -26.797,0 c -0.006,0 -0.013,0 -0.016,0 -2.438,0 -4.41,-1.972 -4.41,-4.412 l 0,-0.001 0,-27.018 c 0.029,-17.241 14.01,-31.205 31.252,-31.205 17.259,0 31.383,13.993 31.383,31.255 0,17.26 -14.124,31.381 -31.383,31.381 z"
         style="fill:#5484c6;fill-opacity:1"
         id="f-script-path" />
    </g>
    <path
       inkscape:connector-curvature="0"
       d="m 44.78763,44.817072 0,-7.201666 c 0,-0.0032 0,-0.0067 0,-0.0094 0,-7.514642 6.091543,-13.606415 13.606645,-13.606415 1.139996,0 1.950011,0.128454 3.005213,0.404663 1.538914,0.403514 2.795644,1.66415 2.796333,3.131599 6.9e-4,1.77399 -1.287062,3.06358 -3.211566,3.06358 -0.916868,0 -1.248227,-0.17556 -2.590669,-0.17556 -3.962066,0 -7.174781,3.208808 -7.181445,7.170644 l 0,6.208277 0,2.3e-4 c 0,0.560691 0.453149,1.01384 1.013381,1.01384 6.89e-4,0 0.0023,0 0.0037,0 l 4.715781,0 c 1.757445,0 3.176638,1.407013 3.178017,3.169055 0,1.76273 -1.421261,3.166527 -3.178017,3.166527 l -5.732839,0 0,7.231308 c 0,0.0041 0,0.0067 0,0.0108 0,7.513952 -6.091773,13.605496 -13.605725,13.605496 -1.140226,0 -1.950241,-0.128454 -3.005443,-0.404893 -1.538914,-0.403284 -2.796103,-1.66461 -2.796793,-3.131599 0,-1.773531 1.286833,-3.06358 3.212256,-3.06358 0.915949,0 1.248227,0.17579 2.58998,0.17579 3.962065,0 7.175699,-3.209038 7.181904,-7.169495 0,0 0,-6.239757 0,-6.240906 0,-0.559543 -0.454298,-1.012692 -1.01453,-1.012692 -6.89e-4,0 -0.0014,0 -0.0025,0 l -4.715552,0 c -1.757905,0 -3.178246,-1.402417 -3.178246,-3.165607 -4.6e-4,-1.773072 1.435048,-3.169745 3.211566,-3.169745 l 5.698599,0 0,-2.29e-4 z"
       style="fill:#ffffff"
       id="blue-inifity-connectors" />
    <path
       style="color:#000000;fill:#000000;fill-opacity:1;fill-rule:nonzero;stroke:none;stroke-width:1;marker:none;visibility:visible;display:inline;overflow:visible;enable-background:accumulate;opacity:0.1"
       d="M 40.625 12.75 C 36.14606 13.683301 31.980428 15.47742 28.28125 17.90625 C 28.389061 20.601679 27.430058 23.319942 25.375 25.375 C 23.319942 27.430058 20.601679 28.389061 17.90625 28.28125 C 15.47742 31.980428 13.683301 36.14606 12.75 40.625 C 14.748159 42.453374 16 45.078115 16 48 C 16 50.921885 14.748159 53.546626 12.75 55.375 C 13.683301 59.85394 15.47742 64.019572 17.90625 67.71875 C 20.601679 67.610939 23.319942 68.569942 25.375 70.625 C 27.430058 72.680058 28.389061 75.398321 28.28125 78.09375 C 31.980428 80.52258 36.14606 82.316699 40.625 83.25 C 42.453374 81.251841 45.078115 80 48 80 C 50.921885 80 53.546626 81.251841 55.375 83.25 C 59.839448 82.319719 63.997233 80.541692 67.6875 78.125 C 67.6812 77.980651 67.6875 77.831822 67.6875 77.6875 C 67.6875 75.128277 68.672379 72.577621 70.625 70.625 C 72.680058 68.569942 75.398321 67.610939 78.09375 67.71875 C 80.52258 64.019572 82.316699 59.85394 83.25 55.375 C 81.251841 53.546626 80 50.921885 80 48 C 80 45.078115 81.251841 42.453374 83.25 40.625 C 82.316699 36.14606 80.52258 31.980428 78.09375 28.28125 C 75.398321 28.389061 72.680058 27.430058 70.625 25.375 C 68.672379 23.422379 67.6875 20.871723 67.6875 18.3125 C 67.6875 18.168178 67.6812 18.019349 67.6875 17.875 C 63.997233 15.458308 59.839448 13.680281 55.375 12.75 C 53.546626 14.748159 50.921885 16 48 16 C 45.078115 16 42.453374 14.748159 40.625 12.75 z M 40.34375 14.75 C 42.423353 16.566844 45.030835 17.8125 48 17.8125 C 50.969165 17.8125 53.576647 16.566844 55.65625 14.75 C 59.383116 15.608824 62.873429 17.088387 66.03125 19.0625 C 66.213002 21.829023 67.240631 24.553131 69.34375 26.65625 C 71.436705 28.749205 74.132374 29.716612 76.875 29.90625 C 78.873156 33.08356 80.384274 36.591322 81.25 40.34375 C 79.433156 42.423353 78.1875 45.030835 78.1875 48 C 78.1875 50.969165 79.433156 53.576647 81.25 55.65625 C 80.384274 59.408678 78.873156 62.91644 76.875 66.09375 C 74.132374 66.283388 71.436705 67.250795 69.34375 69.34375 C 67.240631 71.446869 66.213002 74.170977 66.03125 76.9375 C 62.873429 78.911613 59.383116 80.391176 55.65625 81.25 C 53.576647 79.433156 50.969165 78.1875 48 78.1875 C 45.030835 78.1875 42.423353 79.433156 40.34375 81.25 C 36.591322 80.384274 33.08356 78.873156 29.90625 76.875 C 29.716612 74.132374 28.749205 71.436705 26.65625 69.34375 C 24.563295 67.250795 21.867626 66.283388 19.125 66.09375 C 17.126844 62.91644 15.615726 59.408678 14.75 55.65625 C 16.566844 53.576647 17.8125 50.969165 17.8125 48 C 17.8125 45.030835 16.566844 42.423353 14.75 40.34375 C 15.615726 36.591322 17.126844 33.08356 19.125 29.90625 C 21.867626 29.716612 24.563295 28.749205 26.65625 26.65625 C 28.749205 24.563295 29.716612 21.867626 29.90625 19.125 C 33.08356 17.126844 36.591322 15.615726 40.34375 14.75 z "
       id="path3927" />
    <path
       style="color:#000000;fill:#000000;fill-opacity:1;fill-rule:nonzero;stroke:none;stroke-width:1;marker:none;visibility:visible;display:inline;overflow:visible;enable-background:accumulate;opacity:0.3"
       d="M 40.625 12.75 C 36.14606 13.683301 31.980428 15.47742 28.28125 17.90625 C 28.294726 18.243179 28.301169 18.569948 28.28125 18.90625 C 31.980428 16.47742 36.14606 14.683301 40.625 13.75 C 42.453374 15.748159 45.078115 17 48 17 C 50.921885 17 53.546626 15.748159 55.375 13.75 C 59.839448 14.680281 63.997233 16.458308 67.6875 18.875 C 67.6812 19.019349 67.6875 19.168178 67.6875 19.3125 C 67.6875 21.871723 68.672379 24.422379 70.625 26.375 C 72.680058 28.430058 75.398321 29.389061 78.09375 29.28125 C 80.373503 32.753379 82.088098 36.645111 83.0625 40.8125 C 83.126053 40.751203 83.184843 40.684621 83.25 40.625 C 82.316699 36.14606 80.52258 31.980428 78.09375 28.28125 C 75.398321 28.389061 72.680058 27.430058 70.625 25.375 C 68.672379 23.422379 67.6875 20.871723 67.6875 18.3125 C 67.6875 18.168178 67.6812 18.019349 67.6875 17.875 C 63.997233 15.458308 59.839448 13.680281 55.375 12.75 C 53.546626 14.748159 50.921885 16 48 16 C 45.078115 16 42.453374 14.748159 40.625 12.75 z M 28.28125 18.90625 C 28.141819 21.260366 27.173176 23.576824 25.375 25.375 C 23.319942 27.430058 20.601679 28.389061 17.90625 28.28125 C 15.47742 31.980428 13.683301 36.14606 12.75 40.625 C 12.815157 40.684621 12.873947 40.751203 12.9375 40.8125 C 13.911902 36.645111 15.626497 32.753379 17.90625 29.28125 C 20.601679 29.389061 23.319942 28.430058 25.375 26.375 C 27.430058 24.319942 28.389061 21.601679 28.28125 18.90625 z M 15.96875 48.5 C 15.835376 51.221303 14.633944 53.651136 12.75 55.375 C 12.807284 55.64991 12.873782 55.914987 12.9375 56.1875 C 14.822896 54.369017 16 51.826606 16 49 C 16 48.832984 15.976836 48.664981 15.96875 48.5 z M 80.03125 48.5 C 80.023164 48.664981 80 48.832984 80 49 C 80 51.826606 81.177104 54.369017 83.0625 56.1875 C 83.126218 55.914987 83.192716 55.64991 83.25 55.375 C 81.366056 53.651136 80.164624 51.221303 80.03125 48.5 z "
       id="path3914" />
    <path
       style="color:#000000;fill:#000000;fill-opacity:1;fill-rule:nonzero;stroke:none;stroke-width:1;marker:none;visibility:visible;display:inline;overflow:visible;enable-background:accumulate;opacity:0.15"
       d="M 40.625 12.75 C 36.14606 13.683301 31.980428 15.47742 28.28125 17.90625 C 28.389061 20.601679 27.430058 23.319942 25.375 25.375 C 23.319942 27.430058 20.601679 28.389061 17.90625 28.28125 C 15.47742 31.980428 13.683301 36.14606 12.75 40.625 C 14.748159 42.453374 16 45.078115 16 48 C 16 50.921885 14.748159 53.546626 12.75 55.375 C 13.683301 59.85394 15.47742 64.019572 17.90625 67.71875 C 20.601679 67.610939 23.319942 68.569942 25.375 70.625 C 27.430058 72.680058 28.389061 75.398321 28.28125 78.09375 C 31.980428 80.52258 36.14606 82.316699 40.625 83.25 C 42.453374 81.251841 45.078115 80 48 80 C 50.921885 80 53.546626 81.251841 55.375 83.25 C 59.839448 82.319719 63.997233 80.541692 67.6875 78.125 C 67.6812 77.980651 67.6875 77.831822 67.6875 77.6875 C 67.6875 75.128277 68.672379 72.577621 70.625 70.625 C 72.680058 68.569942 75.398321 67.610939 78.09375 67.71875 C 80.52258 64.019572 82.316699 59.85394 83.25 55.375 C 81.251841 53.546626 80 50.921885 80 48 C 80 45.078115 81.251841 42.453374 83.25 40.625 C 82.316699 36.14606 80.52258 31.980428 78.09375 28.28125 C 75.398321 28.389061 72.680058 27.430058 70.625 25.375 C 68.672379 23.422379 67.6875 20.871723 67.6875 18.3125 C 67.6875 18.168178 67.6812 18.019349 67.6875 17.875 C 63.997233 15.458308 59.839448 13.680281 55.375 12.75 C 53.546626 14.748159 50.921885 16 48 16 C 45.078115 16 42.453374 14.748159 40.625 12.75 z M 40.4375 13.75 C 42.399568 15.664304 45.046188 16.90625 48 16.90625 C 50.962199 16.90625 53.630234 15.673917 55.59375 13.75 C 59.640221 14.646687 63.419965 16.24224 66.8125 18.40625 C 66.837507 21.161073 67.903933 23.903933 70 26 C 72.083183 28.083183 74.798288 29.086687 77.53125 29.125 C 79.724256 32.544516 81.348349 36.352944 82.25 40.4375 C 80.335696 42.399568 79.09375 45.046188 79.09375 48 C 79.09375 50.953812 80.335696 53.600432 82.25 55.5625 C 81.348349 59.647056 79.724256 63.455484 77.53125 66.875 C 74.798288 66.913313 72.083183 67.916817 70 70 C 67.903933 72.096067 66.837507 74.838927 66.8125 77.59375 C 63.419965 79.75776 59.640221 81.353313 55.59375 82.25 C 53.630234 80.326083 50.962199 79.09375 48 79.09375 C 45.046188 79.09375 42.399568 80.335696 40.4375 82.25 C 36.352944 81.348349 32.544516 79.724256 29.125 77.53125 C 29.086687 74.798288 28.083183 72.083183 26 70 C 23.916817 67.916817 21.201712 66.913313 18.46875 66.875 C 16.275744 63.455484 14.651651 59.647056 13.75 55.5625 C 15.664304 53.600432 16.90625 50.953812 16.90625 48 C 16.90625 45.046188 15.664304 42.399568 13.75 40.4375 C 14.651651 36.352944 16.275744 32.544516 18.46875 29.125 C 21.201712 29.086687 23.916817 28.083183 26 26 C 28.083183 23.916817 29.086687 21.201712 29.125 18.46875 C 32.544516 16.275744 36.352944 14.651651 40.4375 13.75 z "
       id="path3923" />
    <path
       style="color:#000000;fill:#ffffff;fill-opacity:1;fill-rule:nonzero;stroke:none;stroke-width:1;marker:none;visibility:visible;display:inline;overflow:visible;enable-background:accumulate;opacity:0.2"
       d="M 12.9375 40.8125 C 12.873782 41.085013 12.807284 41.35009 12.75 41.625 C 14.633944 43.348864 15.835376 45.778697 15.96875 48.5 C 15.976836 48.335019 16 48.167016 16 48 C 16 45.173394 14.822896 42.630983 12.9375 40.8125 z M 83.0625 40.8125 C 81.177104 42.630983 80 45.173394 80 48 C 80 48.167016 80.023164 48.335019 80.03125 48.5 C 80.164624 45.778697 81.366056 43.348864 83.25 41.625 C 83.192716 41.35009 83.126218 41.085013 83.0625 40.8125 z M 12.9375 56.1875 C 12.873947 56.248797 12.815157 56.315379 12.75 56.375 C 13.683301 60.85394 15.47742 65.019572 17.90625 68.71875 C 20.601679 68.610939 23.319942 69.569942 25.375 71.625 C 27.173176 73.423176 28.141819 75.739634 28.28125 78.09375 C 28.389061 75.398321 27.430058 72.680058 25.375 70.625 C 23.319942 68.569942 20.601679 67.610939 17.90625 67.71875 C 15.626497 64.246621 13.911902 60.354889 12.9375 56.1875 z M 28.28125 78.09375 C 28.301169 78.430052 28.294726 78.756821 28.28125 79.09375 C 31.980428 81.52258 36.14606 83.316699 40.625 84.25 C 42.453374 82.251841 45.078115 81 48 81 C 50.921885 81 53.546626 82.251841 55.375 84.25 C 59.839448 83.319719 63.997233 81.541692 67.6875 79.125 C 67.6812 78.980651 67.6875 78.831822 67.6875 78.6875 C 67.6875 76.128277 68.672379 73.577621 70.625 71.625 C 72.680058 69.569942 75.398321 68.610939 78.09375 68.71875 C 80.52258 65.019572 82.316699 60.85394 83.25 56.375 C 83.184843 56.315379 83.126053 56.248797 83.0625 56.1875 C 82.088098 60.354889 80.373503 64.246621 78.09375 67.71875 C 75.398321 67.610939 72.680058 68.569942 70.625 70.625 C 68.672379 72.577621 67.6875 75.128277 67.6875 77.6875 C 67.6875 77.831822 67.6812 77.980651 67.6875 78.125 C 63.997233 80.541692 59.839448 82.319719 55.375 83.25 C 53.546626 81.251841 50.921885 80 48 80 C 45.078115 80 42.453374 81.251841 40.625 83.25 C 36.14606 82.316699 31.980428 80.52258 28.28125 78.09375 z "
       id="path3950" />
    <rect
       style="color:#000000;fill:#294172;fill-opacity:1;fill-rule:nonzero;stroke:none;stroke-width:1.5;marker:none;visibility:visible;display:inline;overflow:visible;enable-background:accumulate"
       id="rect3959"
       width="16"
       height="16"
       x="104"
       y="0" />
    <rect
       y="24"
       x="104"
       height="16"
       width="16"
       id="rect3961"
       style="color:#000000;fill:#3c6eb4;fill-opacity:1;fill-rule:nonzero;stroke:none;stroke-width:1.5;marker:none;visibility:visible;display:inline;overflow:visible;enable-background:accumulate" />
  </g>
</svg>
