<?xml version="1.0" encoding="UTF-8" standalone="no"?>
<!-- Created with Inkscape (http://www.inkscape.org/) -->

<svg
   xmlns:dc="http://purl.org/dc/elements/1.1/"
   xmlns:cc="http://creativecommons.org/ns#"
   xmlns:rdf="http://www.w3.org/1999/02/22-rdf-syntax-ns#"
   xmlns:svg="http://www.w3.org/2000/svg"
   xmlns="http://www.w3.org/2000/svg"
   xmlns:xlink="http://www.w3.org/1999/xlink"
   xmlns:sodipodi="http://sodipodi.sourceforge.net/DTD/sodipodi-0.dtd"
   xmlns:inkscape="http://www.inkscape.org/namespaces/inkscape"
   width="96"
   height="96"
   id="svg2408"
   sodipodi:version="0.32"
   inkscape:version="0.47 r22583"
   version="1.0"
   sodipodi:docname="bluefish.svg"
   inkscape:output_extension="org.inkscape.output.svg.inkscape">
  <defs
     id="defs2410">
    <linearGradient
       id="linearGradient4208">
      <stop
         style="stop-color:#f3840c;stop-opacity:1"
         offset="0"
         id="stop4210" />
      <stop
         style="stop-color:#f2b80c;stop-opacity:1"
         offset="1"
         id="stop4212" />
    </linearGradient>
    <linearGradient
       id="linearGradient4084">
      <stop
         id="stop4086"
         offset="0"
         style="stop-color:#537d6b;stop-opacity:1;" />
      <stop
         id="stop4088"
         offset="1"
         style="stop-color:#92bbaa;stop-opacity:1;" />
    </linearGradient>
    <linearGradient
       id="ButtonShadow"
       gradientTransform="scale(1.0058652,0.994169)"
       x1="45.447727"
       y1="92.539597"
       x2="45.447727"
       y2="7.0165396"
       gradientUnits="userSpaceOnUse">
      <stop
         style="stop-color:#000000;stop-opacity:1;"
         offset="0"
         id="stop3750" />
      <stop
         style="stop-color:#000000;stop-opacity:0.58823532;"
         offset="1"
         id="stop3752" />
    </linearGradient>
    <linearGradient
       inkscape:collect="always"
       id="linearGradient3737">
      <stop
         style="stop-color:#ffffff;stop-opacity:1;"
         offset="0"
         id="stop3739" />
      <stop
         style="stop-color:#ffffff;stop-opacity:0;"
         offset="1"
         id="stop3741" />
    </linearGradient>
    <linearGradient
       id="linearGradient3700">
      <stop
         style="stop-color:#2276c5;stop-opacity:1;"
         offset="0"
         id="stop3702" />
      <stop
         style="stop-color:#68baf4;stop-opacity:1;"
         offset="1"
         id="stop3704" />
    </linearGradient>
    <inkscape:perspective
       sodipodi:type="inkscape:persp3d"
       inkscape:vp_x="0 : 526.18109 : 1"
       inkscape:vp_y="0 : 1000 : 0"
       inkscape:vp_z="744.09448 : 526.18109 : 1"
       inkscape:persp3d-origin="372.04724 : 350.78739 : 1"
       id="perspective2416" />
    <linearGradient
       inkscape:collect="always"
       xlink:href="#linearGradient3700"
       id="linearGradient3706"
       x1="48"
       y1="90"
       x2="48"
       y2="5.9877172"
       gradientUnits="userSpaceOnUse" />
    <linearGradient
       inkscape:collect="always"
       xlink:href="#linearGradient3737"
       id="linearGradient3743"
       x1="36.357143"
       y1="6"
       x2="36.357143"
       y2="63.893143"
       gradientUnits="userSpaceOnUse" />
    <filter
       inkscape:collect="always"
       id="filter3174">
      <feGaussianBlur
         inkscape:collect="always"
         stdDeviation="1.71"
         id="feGaussianBlur3176" />
    </filter>
    <linearGradient
       inkscape:collect="always"
       xlink:href="#linearGradient3737"
       id="linearGradient3188"
       gradientUnits="userSpaceOnUse"
       x1="36.357143"
       y1="6"
       x2="36.357143"
       y2="63.893143" />
    <filter
       inkscape:collect="always"
       id="filter3794"
       x="-0.192"
       width="1.384"
       y="-0.192"
       height="1.384">
      <feGaussianBlur
         inkscape:collect="always"
         stdDeviation="5.28"
         id="feGaussianBlur3796" />
    </filter>
    <linearGradient
       inkscape:collect="always"
       xlink:href="#linearGradient3737"
       id="linearGradient3613"
       x1="48"
       y1="20.220806"
       x2="48"
       y2="138.66119"
       gradientUnits="userSpaceOnUse" />
    <radialGradient
       inkscape:collect="always"
       xlink:href="#linearGradient3737"
       id="radialGradient3619"
       cx="48"
       cy="90.171875"
       fx="48"
       fy="90.171875"
       r="42"
       gradientTransform="matrix(1.1573129,0,0,0.99590774,-7.5510206,0.19713193)"
       gradientUnits="userSpaceOnUse" />
    <clipPath
       clipPathUnits="userSpaceOnUse"
       id="clipPath3613">
      <rect
         ry="6"
         rx="6"
         y="6"
         x="6"
         height="84"
         width="84"
         id="rect3615"
         style="fill:#ffffff;fill-opacity:1;fill-rule:nonzero;stroke:none" />
    </clipPath>
    <linearGradient
       inkscape:collect="always"
       xlink:href="#linearGradient4084"
       id="linearGradient3617"
       gradientUnits="userSpaceOnUse"
       x1="48"
       y1="90"
       x2="48"
       y2="5.9877172" />
    <inkscape:perspective
       id="perspective2905"
       inkscape:persp3d-origin="0.5 : 0.33333333 : 1"
       inkscape:vp_z="1 : 0.5 : 1"
       inkscape:vp_y="0 : 1000 : 0"
       inkscape:vp_x="0 : 0.5 : 1"
       sodipodi:type="inkscape:persp3d" />
    <linearGradient
       id="linearGradient556">
      <stop
         style="stop-color: rgb(255, 255, 255); stop-opacity: 1;"
         offset="0.000000"
         id="stop557" />
      <stop
         style="stop-color: rgb(143, 143, 143); stop-opacity: 1;"
         offset="1.000000"
         id="stop558" />
    </linearGradient>
    <linearGradient
       id="linearGradient561">
      <stop
         style="stop-color: rgb(114, 166, 219); stop-opacity: 1;"
         offset="0.000000"
         id="stop562" />
      <stop
         style="stop-color: rgb(73, 116, 170); stop-opacity: 1;"
         offset="1.000000"
         id="stop563" />
    </linearGradient>
    <linearGradient
       id="linearGradient2918">
      <stop
         style="stop-color: rgb(114, 166, 219); stop-opacity: 1;"
         offset="0.000000"
         id="stop2920" />
      <stop
         style="stop-color: rgb(73, 116, 170); stop-opacity: 1;"
         offset="1.000000"
         id="stop2922" />
    </linearGradient>
    <linearGradient
       id="linearGradient635">
      <stop
         style="stop-color: rgb(255, 255, 255); stop-opacity: 1;"
         offset="0.000000"
         id="stop636" />
      <stop
         style="stop-color: rgb(255, 255, 255); stop-opacity: 0.176471;"
         offset="1.000000"
         id="stop637" />
    </linearGradient>
    <linearGradient
       id="linearGradient564">
      <stop
         style="stop-color: rgb(50, 120, 198); stop-opacity: 1;"
         offset="0.000000"
         id="stop565" />
      <stop
         style="stop-color: rgb(38, 73, 128); stop-opacity: 1;"
         offset="1.000000"
         id="stop566" />
    </linearGradient>
    <linearGradient
       id="linearGradient604">
      <stop
         style="stop-color: rgb(0, 0, 0); stop-opacity: 0.239216;"
         offset="0.000000"
         id="stop605" />
      <stop
         style="stop-color: rgb(0, 0, 0); stop-opacity: 0;"
         offset="1.000000"
         id="stop606" />
    </linearGradient>
    <linearGradient
       id="linearGradient2937">
      <stop
         style="stop-color: rgb(114, 166, 219); stop-opacity: 1;"
         offset="0.000000"
         id="stop2939" />
      <stop
         style="stop-color: rgb(73, 116, 170); stop-opacity: 1;"
         offset="1.000000"
         id="stop2941" />
    </linearGradient>
    <linearGradient
       id="linearGradient2944">
      <stop
         style="stop-color: rgb(255, 255, 255); stop-opacity: 1;"
         offset="0.000000"
         id="stop2946" />
      <stop
         style="stop-color: rgb(255, 255, 255); stop-opacity: 0.176471;"
         offset="1.000000"
         id="stop2948" />
    </linearGradient>
    <linearGradient
       id="linearGradient2951">
      <stop
         style="stop-color: rgb(255, 255, 255); stop-opacity: 1;"
         offset="0.000000"
         id="stop2953" />
      <stop
         style="stop-color: rgb(143, 143, 143); stop-opacity: 1;"
         offset="1.000000"
         id="stop2955" />
    </linearGradient>
    <linearGradient
       id="linearGradient2958">
      <stop
         style="stop-color: rgb(114, 166, 219); stop-opacity: 1;"
         offset="0.000000"
         id="stop2960" />
      <stop
         style="stop-color: rgb(73, 116, 170); stop-opacity: 1;"
         offset="1.000000"
         id="stop2962" />
    </linearGradient>
    <linearGradient
       id="linearGradient2965">
      <stop
         style="stop-color: rgb(114, 166, 219); stop-opacity: 1;"
         offset="0.000000"
         id="stop2967" />
      <stop
         style="stop-color: rgb(73, 116, 170); stop-opacity: 1;"
         offset="1.000000"
         id="stop2969" />
    </linearGradient>
    <linearGradient
       id="linearGradient641">
      <stop
         style="stop-color: rgb(0, 0, 0); stop-opacity: 0.415686;"
         offset="0.000000"
         id="stop642" />
      <stop
         style="stop-color: rgb(0, 0, 0); stop-opacity: 0;"
         offset="1.000000"
         id="stop643" />
    </linearGradient>
    <linearGradient
       id="linearGradient2976">
      <stop
         style="stop-color: rgb(114, 166, 219); stop-opacity: 1;"
         offset="0.000000"
         id="stop2978" />
      <stop
         style="stop-color: rgb(73, 116, 170); stop-opacity: 1;"
         offset="1.000000"
         id="stop2980" />
    </linearGradient>
    <radialGradient
       inkscape:collect="always"
       xlink:href="#linearGradient556"
       id="radialGradient3143"
       gradientUnits="userSpaceOnUse"
       gradientTransform="scale(0.887627,1.1266)"
       spreadMethod="pad"
       cx="24.218475"
       cy="13.491528"
       fx="24.218475"
       fy="13.491528"
       r="10.214344" />
    <radialGradient
       inkscape:collect="always"
       xlink:href="#linearGradient556"
       id="radialGradient4058"
       gradientUnits="userSpaceOnUse"
       gradientTransform="scale(0.887627,1.1266)"
       spreadMethod="pad"
       cx="24.218475"
       cy="13.491528"
       fx="24.218475"
       fy="13.491528"
       r="10.214344" />
    <radialGradient
       inkscape:collect="always"
       xlink:href="#linearGradient561"
       id="radialGradient4060"
       gradientUnits="userSpaceOnUse"
       gradientTransform="scale(1.06132,0.942226)"
       spreadMethod="pad"
       cx="31.637579"
       cy="4.2911568"
       fx="31.637579"
       fy="4.2911568"
       r="6.1138387" />
    <linearGradient
       inkscape:collect="always"
       xlink:href="#linearGradient561"
       id="linearGradient4062"
       gradientUnits="userSpaceOnUse"
       gradientTransform="scale(0.577912,1.73037)"
       spreadMethod="pad"
       x1="66.896873"
       y1="9.7092857"
       x2="68.416641"
       y2="18.198601" />
    <linearGradient
       inkscape:collect="always"
       xlink:href="#linearGradient635"
       id="linearGradient4064"
       gradientUnits="userSpaceOnUse"
       gradientTransform="scale(0.653126,1.5311)"
       spreadMethod="pad"
       x1="42.007587"
       y1="5.4559503"
       x2="56.888985"
       y2="14.642175" />
    <radialGradient
       inkscape:collect="always"
       xlink:href="#linearGradient564"
       id="radialGradient4066"
       gradientUnits="userSpaceOnUse"
       gradientTransform="scale(0.992835,1.00722)"
       spreadMethod="pad"
       cx="15.485512"
       cy="16.134611"
       fx="15.485512"
       fy="16.134611"
       r="27.532124" />
    <linearGradient
       inkscape:collect="always"
       xlink:href="#linearGradient604"
       id="linearGradient4068"
       gradientUnits="userSpaceOnUse"
       gradientTransform="scale(0.992835,1.00722)"
       spreadMethod="pad"
       x1="40.970566"
       y1="41.885136"
       x2="23.98053"
       y2="21.709469" />
    <radialGradient
       inkscape:collect="always"
       xlink:href="#linearGradient561"
       id="radialGradient4070"
       gradientUnits="userSpaceOnUse"
       gradientTransform="scale(1.12198,0.891285)"
       spreadMethod="pad"
       cx="56.924801"
       cy="25.590885"
       fx="56.924801"
       fy="25.590885"
       r="5.3430753" />
    <linearGradient
       inkscape:collect="always"
       xlink:href="#linearGradient635"
       id="linearGradient4072"
       gradientUnits="userSpaceOnUse"
       gradientTransform="scale(0.959984,1.04168)"
       spreadMethod="pad"
       x1="25.033354"
       y1="15.336463"
       x2="25.337631"
       y2="24.686901" />
    <linearGradient
       inkscape:collect="always"
       xlink:href="#linearGradient556"
       id="linearGradient4074"
       gradientUnits="userSpaceOnUse"
       gradientTransform="scale(0.887627,1.1266)"
       spreadMethod="pad"
       x1="27.607258"
       y1="16.387062"
       x2="28.115267"
       y2="24.093016" />
    <radialGradient
       inkscape:collect="always"
       xlink:href="#linearGradient561"
       id="radialGradient4076"
       gradientUnits="userSpaceOnUse"
       gradientTransform="scale(1.0404,0.961171)"
       spreadMethod="pad"
       cx="32.368511"
       cy="3.355541"
       fx="32.368511"
       fy="3.355541"
       r="6.0570164" />
    <linearGradient
       inkscape:collect="always"
       xlink:href="#linearGradient561"
       id="linearGradient4078"
       gradientUnits="userSpaceOnUse"
       gradientTransform="scale(1.51748,0.658989)"
       spreadMethod="pad"
       x1="36.829525"
       y1="47.90868"
       x2="37.259823"
       y2="54.864002" />
    <linearGradient
       inkscape:collect="always"
       xlink:href="#linearGradient641"
       id="linearGradient4080"
       gradientUnits="userSpaceOnUse"
       gradientTransform="scale(1.84716,0.541373)"
       spreadMethod="pad"
       x1="29.954319"
       y1="68.697281"
       x2="30.472109"
       y2="63.224438" />
    <linearGradient
       inkscape:collect="always"
       xlink:href="#linearGradient561"
       id="linearGradient4082"
       gradientUnits="userSpaceOnUse"
       gradientTransform="scale(1.92567,0.519299)"
       spreadMethod="pad"
       x1="29.048765"
       y1="63.281857"
       x2="29.396217"
       y2="68.898041" />
    <linearGradient
       inkscape:collect="always"
       xlink:href="#linearGradient3737"
       id="linearGradient4152"
       x1="48"
       y1="6"
       x2="48"
       y2="109.10714"
       gradientUnits="userSpaceOnUse" />
    <linearGradient
       inkscape:collect="always"
       xlink:href="#linearGradient4084"
       id="linearGradient4206"
       gradientUnits="userSpaceOnUse"
       x1="48"
       y1="90"
       x2="48"
       y2="5.9877172" />
    <linearGradient
       inkscape:collect="always"
       xlink:href="#linearGradient4208"
       id="linearGradient4214"
       gradientUnits="userSpaceOnUse"
       x1="48"
       y1="90"
       x2="48"
       y2="5.9877172" />
    <inkscape:perspective
       id="perspective3017"
       inkscape:persp3d-origin="0.5 : 0.33333333 : 1"
       inkscape:vp_z="1 : 0.5 : 1"
       inkscape:vp_y="0 : 1000 : 0"
       inkscape:vp_x="0 : 0.5 : 1"
       sodipodi:type="inkscape:persp3d" />
    <linearGradient
       y2="90.238609"
       x2="32.251034"
       y1="6.1317081"
       x1="32.251034"
       gradientTransform="matrix(1.0238095,0,0,1.0119048,-1.1428571,-98.071429)"
       gradientUnits="userSpaceOnUse"
       id="linearGradient3026"
       xlink:href="#ButtonShadow-0"
       inkscape:collect="always" />
    <linearGradient
       id="ButtonShadow-0"
       gradientTransform="matrix(1.0058652,0,0,0.994169,100,0)"
       x1="45.447727"
       y1="92.539597"
       x2="45.447727"
       y2="7.0165396"
       gradientUnits="userSpaceOnUse">
      <stop
         style="stop-color:#000000;stop-opacity:1;"
         offset="0"
         id="stop3750-8" />
      <stop
         style="stop-color:#000000;stop-opacity:0.58823532;"
         offset="1"
         id="stop3752-5" />
    </linearGradient>
    <linearGradient
       inkscape:collect="always"
       xlink:href="#ButtonShadow-0"
       id="linearGradient3780"
       gradientUnits="userSpaceOnUse"
       gradientTransform="matrix(1.0238095,0,0,1.0119048,-1.1428571,-98.071429)"
       x1="32.251034"
       y1="6.1317081"
       x2="32.251034"
       y2="90.238609" />
    <linearGradient
       id="linearGradient3027"
       gradientTransform="matrix(1.0058652,0,0,0.994169,100,0)"
       x1="45.447727"
       y1="92.539597"
       x2="45.447727"
       y2="7.0165396"
       gradientUnits="userSpaceOnUse">
      <stop
         style="stop-color:#000000;stop-opacity:1;"
         offset="0"
         id="stop3029" />
      <stop
         style="stop-color:#000000;stop-opacity:0.58823532;"
         offset="1"
         id="stop3031" />
    </linearGradient>
    <linearGradient
       inkscape:collect="always"
       xlink:href="#ButtonShadow-0"
       id="linearGradient3772"
       gradientUnits="userSpaceOnUse"
       gradientTransform="matrix(1.0238095,0,0,1.0119048,-1.1428571,-98.071429)"
       x1="32.251034"
       y1="6.1317081"
       x2="32.251034"
       y2="90.238609" />
    <linearGradient
       id="linearGradient3034"
       gradientTransform="matrix(1.0058652,0,0,0.994169,100,0)"
       x1="45.447727"
       y1="92.539597"
       x2="45.447727"
       y2="7.0165396"
       gradientUnits="userSpaceOnUse">
      <stop
         style="stop-color:#000000;stop-opacity:1;"
         offset="0"
         id="stop3036" />
      <stop
         style="stop-color:#000000;stop-opacity:0.58823532;"
         offset="1"
         id="stop3038" />
    </linearGradient>
    <linearGradient
       inkscape:collect="always"
       xlink:href="#ButtonShadow-0"
       id="linearGradient3725"
       gradientUnits="userSpaceOnUse"
       gradientTransform="matrix(1.0238095,0,0,1.0119048,-1.1428571,-98.071429)"
       x1="32.251034"
       y1="6.1317081"
       x2="32.251034"
       y2="90.238609" />
    <linearGradient
       id="linearGradient3041"
       gradientTransform="matrix(1.0058652,0,0,0.994169,100,0)"
       x1="45.447727"
       y1="92.539597"
       x2="45.447727"
       y2="7.0165396"
       gradientUnits="userSpaceOnUse">
      <stop
         style="stop-color:#000000;stop-opacity:1;"
         offset="0"
         id="stop3043" />
      <stop
         style="stop-color:#000000;stop-opacity:0.58823532;"
         offset="1"
         id="stop3045" />
    </linearGradient>
    <linearGradient
       inkscape:collect="always"
       xlink:href="#ButtonShadow-0"
       id="linearGradient3721"
       gradientUnits="userSpaceOnUse"
       gradientTransform="translate(0,-97)"
       x1="32.251034"
       y1="6.1317081"
       x2="32.251034"
       y2="90.238609" />
    <linearGradient
       id="linearGradient3048"
       gradientTransform="matrix(1.0058652,0,0,0.994169,100,0)"
       x1="45.447727"
       y1="92.539597"
       x2="45.447727"
       y2="7.0165396"
       gradientUnits="userSpaceOnUse">
      <stop
         style="stop-color:#000000;stop-opacity:1;"
         offset="0"
         id="stop3050" />
      <stop
         style="stop-color:#000000;stop-opacity:0.58823532;"
         offset="1"
         id="stop3052" />
    </linearGradient>
    <linearGradient
       y2="90.238609"
       x2="32.251034"
       y1="6.1317081"
       x1="32.251034"
       gradientTransform="matrix(1.0238095,0,0,1.0119048,-1.1428571,-98.071429)"
       gradientUnits="userSpaceOnUse"
       id="linearGradient3059"
       xlink:href="#ButtonShadow-0"
       inkscape:collect="always" />
  </defs>
  <sodipodi:namedview
     id="base"
     pagecolor="#ffffff"
     bordercolor="#666666"
     borderopacity="1.0"
     inkscape:pageopacity="0.0"
     inkscape:pageshadow="2"
     inkscape:zoom="9"
     inkscape:cx="26.716905"
     inkscape:cy="54.015704"
     inkscape:document-units="px"
     inkscape:current-layer="layer3"
     showgrid="true"
     showborder="true"
     inkscape:showpageshadow="false"
     inkscape:window-width="1920"
     inkscape:window-height="1023"
     inkscape:window-x="0"
     inkscape:window-y="24"
     inkscape:window-maximized="1">
    <inkscape:grid
       type="xygrid"
       id="grid3732"
       visible="true"
       enabled="true" />
  </sodipodi:namedview>
  <metadata
     id="metadata2413">
    <rdf:RDF>
      <cc:Work
         rdf:about="">
        <dc:format>image/svg+xml</dc:format>
        <dc:type
           rdf:resource="http://purl.org/dc/dcmitype/StillImage" />
      </cc:Work>
    </rdf:RDF>
  </metadata>
  <g
     inkscape:groupmode="layer"
     id="layer2"
     inkscape:label="Blur Shadow"
     sodipodi:insensitive="true"
     style="display:none">
    <rect
       style="opacity:0.9;fill:url(#ButtonShadow);fill-opacity:1;fill-rule:nonzero;stroke:none;filter:url(#filter3174)"
       id="rect3745"
       width="86"
       height="85"
       x="5"
       y="7"
       rx="6"
       ry="6" />
  </g>
  <g
     inkscape:groupmode="layer"
     id="layer4"
     inkscape:label="Shadow"
     style="display:inline"
     sodipodi:insensitive="true">
    <path
       sodipodi:type="inkscape:offset"
       inkscape:radius="0.99097413"
       inkscape:original="M 12 -94.03125 C 7.028367 -94.03125 2.96875 -89.971633 2.96875 -85 L 2.96875 -14 C 2.96875 -9.0283671 7.0283671 -4.96875 12 -4.96875 L 84 -4.96875 C 88.971633 -4.96875 93.03125 -9.028367 93.03125 -14 L 93.03125 -85 C 93.03125 -89.971633 88.971633 -94.03125 84 -94.03125 L 12 -94.03125 z "
       style="opacity:0.07999998;fill:url(#linearGradient3059);fill-opacity:1;fill-rule:nonzero;stroke:none;display:inline"
       id="path3786"
       d="m 12,-95.03125 c -5.5110903,0 -10.03125,4.52016 -10.03125,10.03125 l 0,71 c 0,5.5110902 4.5201598,10.03125 10.03125,10.03125 l 72,0 c 5.51109,0 10.03125,-4.5201597 10.03125,-10.03125 l 0,-71 c 0,-5.51109 -4.52016,-10.03125 -10.03125,-10.03125 l -72,0 z"
       transform="scale(1,-1)" />
    <path
       sodipodi:type="inkscape:offset"
       inkscape:radius="1.0360184"
       inkscape:original="M 12 -93 C 7.5908667 -93 4 -89.409133 4 -85 L 4 -14 C 4 -9.5908667 7.5908667 -6 12 -6 L 84 -6 C 88.409133 -6 92 -9.5908667 92 -14 L 92 -85 C 92 -89.409133 88.409133 -93 84 -93 L 12 -93 z "
       style="opacity:0.1;fill:url(#linearGradient3780);fill-opacity:1;fill-rule:nonzero;stroke:none;display:inline"
       id="path3778"
       d="m 12,-94.03125 c -4.971633,0 -9.03125,4.059617 -9.03125,9.03125 l 0,71 c 0,4.9716329 4.0596171,9.03125 9.03125,9.03125 l 72,0 c 4.971633,0 9.03125,-4.059617 9.03125,-9.03125 l 0,-71 c 0,-4.971633 -4.059617,-9.03125 -9.03125,-9.03125 l -72,0 z"
       transform="scale(1,-1)" />
    <path
       sodipodi:type="inkscape:offset"
       inkscape:radius="0.98962283"
       inkscape:original="M 12 -92 C 8.122 -92 5 -88.878 5 -85 L 5 -14 C 5 -10.122 8.122 -7 12 -7 L 84 -7 C 87.878 -7 91 -10.122 91 -14 L 91 -85 C 91 -88.878 87.878 -92 84 -92 L 12 -92 z "
       style="opacity:0.2;fill:url(#linearGradient3772);fill-opacity:1;fill-rule:nonzero;stroke:none;display:inline"
       id="path3770"
       d="m 12,-93 c -4.4091333,0 -8,3.590867 -8,8 l 0,71 c 0,4.4091333 3.5908667,8 8,8 l 72,0 c 4.409133,0 8,-3.5908667 8,-8 l 0,-71 c 0,-4.409133 -3.590867,-8 -8,-8 l -72,0 z"
       transform="scale(1,-1)" />
    <rect
       style="opacity:0.3;fill:url(#linearGradient3725);fill-opacity:1;fill-rule:nonzero;stroke:none;display:inline"
       id="rect3723"
       width="86"
       height="85"
       x="5"
       y="-92"
       rx="7"
       ry="7"
       transform="scale(1,-1)" />
    <rect
       transform="scale(1,-1)"
       ry="6"
       rx="6"
       y="-91"
       x="6"
       height="84"
       width="84"
       id="rect3716"
       style="opacity:0.45;fill:url(#linearGradient3721);fill-opacity:1;fill-rule:nonzero;stroke:none;display:inline" />
  </g>
  <g
     inkscape:label="Button"
     inkscape:groupmode="layer"
     id="layer1"
     sodipodi:insensitive="true">
    <rect
       style="fill:url(#linearGradient4214);fill-opacity:1;fill-rule:nonzero;stroke:none"
       id="rect2419"
       width="84"
       height="84"
       x="6"
       y="6"
       rx="6"
       ry="6" />
    <rect
       ry="6"
       rx="6"
       y="6"
       x="6"
       height="84"
       width="84"
       id="rect4204"
       style="fill:url(#linearGradient4206);fill-opacity:1;fill-rule:nonzero;stroke:none" />
    <path
       style="opacity:0.5;fill:url(#linearGradient3188);fill-opacity:1;fill-rule:nonzero;stroke:none"
       d="M 12,6 C 8.676,6 6,8.676 6,12 l 0,2 0,68 0,2 c 0,0.334721 0.04135,0.6507 0.09375,0.96875 0.0487,0.295596 0.09704,0.596915 0.1875,0.875 0.00988,0.03038 0.020892,0.0636 0.03125,0.09375 0.098865,0.287771 0.2348802,0.547452 0.375,0.8125 0.1445918,0.273507 0.3156161,0.535615 0.5,0.78125 0.1843839,0.245635 0.3737765,0.473472 0.59375,0.6875 0.439947,0.428056 0.94291,0.814526 1.5,1.09375 0.278545,0.139612 0.5734731,0.246947 0.875,0.34375 -0.2562018,-0.100222 -0.4867109,-0.236272 -0.71875,-0.375 -0.00741,-0.0044 -0.023866,0.0045 -0.03125,0 -0.031933,-0.0193 -0.062293,-0.04251 -0.09375,-0.0625 -0.120395,-0.0767 -0.2310226,-0.163513 -0.34375,-0.25 -0.1061728,-0.0808 -0.2132809,-0.161112 -0.3125,-0.25 C 8.4783201,88.557317 8.3087904,88.373362 8.15625,88.1875 8.0486711,88.057245 7.9378561,87.922215 7.84375,87.78125 7.818661,87.74287 7.805304,87.69538 7.78125,87.65625 7.716487,87.553218 7.6510225,87.451733 7.59375,87.34375 7.4927417,87.149044 7.3880752,86.928049 7.3125,86.71875 7.30454,86.69694 7.288911,86.6782 7.28125,86.65625 7.2494249,86.5643 7.2454455,86.469419 7.21875,86.375 7.1884177,86.268382 7.1483606,86.171969 7.125,86.0625 7.0521214,85.720988 7,85.364295 7,85 L 7,83 7,15 7,13 C 7,10.218152 9.2181517,8 12,8 l 2,0 68,0 2,0 c 2.781848,0 5,2.218152 5,5 l 0,2 0,68 0,2 c 0,0.364295 -0.05212,0.720988 -0.125,1.0625 -0.04415,0.206893 -0.08838,0.397658 -0.15625,0.59375 -0.0077,0.02195 -0.0233,0.04069 -0.03125,0.0625 -0.06274,0.173739 -0.138383,0.367449 -0.21875,0.53125 -0.04158,0.0828 -0.07904,0.169954 -0.125,0.25 -0.0546,0.09721 -0.126774,0.18835 -0.1875,0.28125 -0.09411,0.140965 -0.204921,0.275995 -0.3125,0.40625 -0.143174,0.17445 -0.303141,0.346998 -0.46875,0.5 -0.01117,0.0102 -0.01998,0.02115 -0.03125,0.03125 -0.138386,0.125556 -0.285091,0.234436 -0.4375,0.34375 -0.102571,0.07315 -0.204318,0.153364 -0.3125,0.21875 -0.0074,0.0045 -0.02384,-0.0044 -0.03125,0 -0.232039,0.138728 -0.462548,0.274778 -0.71875,0.375 0.301527,-0.0968 0.596455,-0.204138 0.875,-0.34375 0.55709,-0.279224 1.060053,-0.665694 1.5,-1.09375 0.219973,-0.214028 0.409366,-0.441865 0.59375,-0.6875 0.184384,-0.245635 0.355408,-0.507743 0.5,-0.78125 0.14012,-0.265048 0.276135,-0.524729 0.375,-0.8125 0.01041,-0.03078 0.02133,-0.06274 0.03125,-0.09375 0.09046,-0.278085 0.1388,-0.579404 0.1875,-0.875 C 89.95865,84.6507 90,84.334721 90,84 l 0,-2 0,-68 0,-2 C 90,8.676 87.324,6 84,6 L 12,6 z"
       id="rect3728" />
    <path
       id="path3615"
       d="M 12,90 C 8.676,90 6,87.324 6,84 L 6,82 6,14 6,12 c 0,-0.334721 0.04135,-0.6507 0.09375,-0.96875 0.0487,-0.295596 0.09704,-0.596915 0.1875,-0.875 C 6.29113,10.12587 6.302142,10.09265 6.3125,10.0625 6.411365,9.774729 6.5473802,9.515048 6.6875,9.25 6.8320918,8.976493 7.0031161,8.714385 7.1875,8.46875 7.3718839,8.223115 7.5612765,7.995278 7.78125,7.78125 8.221197,7.353194 8.72416,6.966724 9.28125,6.6875 9.559795,6.547888 9.8547231,6.440553 10.15625,6.34375 9.9000482,6.443972 9.6695391,6.580022 9.4375,6.71875 c -0.00741,0.0044 -0.023866,-0.0045 -0.03125,0 -0.031933,0.0193 -0.062293,0.04251 -0.09375,0.0625 -0.120395,0.0767 -0.2310226,0.163513 -0.34375,0.25 -0.1061728,0.0808 -0.2132809,0.161112 -0.3125,0.25 C 8.4783201,7.442683 8.3087904,7.626638 8.15625,7.8125 8.0486711,7.942755 7.9378561,8.077785 7.84375,8.21875 7.818661,8.25713 7.805304,8.30462 7.78125,8.34375 7.716487,8.446782 7.6510225,8.548267 7.59375,8.65625 7.4927417,8.850956 7.3880752,9.071951 7.3125,9.28125 7.30454,9.30306 7.288911,9.3218 7.28125,9.34375 7.2494249,9.4357 7.2454455,9.530581 7.21875,9.625 7.1884177,9.731618 7.1483606,9.828031 7.125,9.9375 7.0521214,10.279012 7,10.635705 7,11 l 0,2 0,68 0,2 c 0,2.781848 2.2181517,5 5,5 l 2,0 68,0 2,0 c 2.781848,0 5,-2.218152 5,-5 l 0,-2 0,-68 0,-2 C 89,10.635705 88.94788,10.279012 88.875,9.9375 88.83085,9.730607 88.78662,9.539842 88.71875,9.34375 88.71105,9.3218 88.69545,9.30306 88.6875,9.28125 88.62476,9.107511 88.549117,8.913801 88.46875,8.75 88.42717,8.6672 88.38971,8.580046 88.34375,8.5 88.28915,8.40279 88.216976,8.31165 88.15625,8.21875 88.06214,8.077785 87.951329,7.942755 87.84375,7.8125 87.700576,7.63805 87.540609,7.465502 87.375,7.3125 87.36383,7.3023 87.35502,7.29135 87.34375,7.28125 87.205364,7.155694 87.058659,7.046814 86.90625,6.9375 86.803679,6.86435 86.701932,6.784136 86.59375,6.71875 c -0.0074,-0.0045 -0.02384,0.0044 -0.03125,0 -0.232039,-0.138728 -0.462548,-0.274778 -0.71875,-0.375 0.301527,0.0968 0.596455,0.204138 0.875,0.34375 0.55709,0.279224 1.060053,0.665694 1.5,1.09375 0.219973,0.214028 0.409366,0.441865 0.59375,0.6875 0.184384,0.245635 0.355408,0.507743 0.5,0.78125 0.14012,0.265048 0.276135,0.524729 0.375,0.8125 0.01041,0.03078 0.02133,0.06274 0.03125,0.09375 0.09046,0.278085 0.1388,0.579404 0.1875,0.875 C 89.95865,11.3493 90,11.665279 90,12 l 0,2 0,68 0,2 c 0,3.324 -2.676,6 -6,6 l -72,0 z"
       style="opacity:0.2;fill:url(#radialGradient3619);fill-opacity:1;fill-rule:nonzero;stroke:none" />
    <path
       style="opacity:0.45;fill:url(#linearGradient4152);fill-opacity:1;stroke:none"
       d="M 20.875,6 46.65625,46.65625 6,20.5 6,39 46.21875,48 6,56.75 6,75.125 46.65625,49.34375 20.5,90 39,90 48,49.78125 56.75,90 75.125,90 49.34375,49.34375 90,75.5 90,57 49.78125,48 90,39.25 90,20.875 49.34375,46.65625 75.5,6 57,6 48,46.21875 39.25,6 20.875,6 z"
       id="path4141" />
  </g>
  <g
     inkscape:groupmode="layer"
     id="layer5"
     inkscape:label="Highlight"
     sodipodi:insensitive="true">
    <rect
       style="opacity:0.1;fill:url(#linearGradient3613);fill-opacity:1;fill-rule:nonzero;stroke:#ffffff;stroke-width:0.5;stroke-linecap:round;stroke-linejoin:miter;stroke-miterlimit:4;stroke-opacity:1;stroke-dasharray:none;stroke-dashoffset:0;filter:url(#filter3794)"
       id="rect3171"
       width="66"
       height="66"
       x="15"
       y="15"
       rx="12"
       ry="12"
       clip-path="url(#clipPath3613)" />
  </g>
  <g
     inkscape:groupmode="layer"
     id="layer3"
     inkscape:label="Fish">
    <path
       sodipodi:type="inkscape:offset"
       inkscape:radius="1.1166528"
       inkscape:original="M 75.5625 19.4375 C 70.05782 20.650036 65.328573 25.028975 63.78125 30.5 C 62.939992 32.018616 63.052121 36.524952 61.1875 33.40625 C 58.668496 30.752171 55.806109 28.377261 52.65625 26.53125 C 51.548233 25.495054 49.201061 24.535736 47.34375 24.28125 C 42.58898 22.725095 37.348439 23.625504 32.90625 25.71875 C 26.854232 23.54684 20.022046 28.193828 18.34375 34.09375 C 17.471345 35.868756 18.179239 37.772751 17.875 39.5 C 17.312821 42.283982 17.907324 45.199597 19.15625 47.71875 C 18.911747 51.028468 19.394435 54.36092 20.34375 57.53125 C 17.758786 59.33928 18.994106 62.601294 19.84375 64.84375 C 21.242922 69.055827 25.719398 71.833163 30.09375 71.875 C 35.875682 76.296117 44.035706 77.600278 50.71875 74.46875 C 57.112539 71.661362 62.292398 66.647332 66.28125 61 C 69.245515 63.602915 73.576142 65.608541 77.46875 64 C 78.858273 63.220354 78.406661 61.146585 77.09375 60.5 C 74.405724 58.358748 72.40375 55.324313 72.21875 51.8125 C 71.492141 47.834226 73.209897 43.988007 74.65625 40.40625 C 75.302594 34.272157 74.018712 27.577896 77.5 22.0625 C 78.125773 20.785052 76.984479 19.215041 75.5625 19.4375 z M 52.0625 26.375 C 52.589105 26.676679 52.40118 26.30924 52.0625 26.375 z "
       style="opacity:0.05;fill:#111d31;fill-opacity:1;fill-rule:evenodd;stroke:none"
       id="path3779"
       d="m 75.3125,18.34375 c -5.847506,1.288051 -10.768525,5.840386 -12.5,11.625 -0.0051,0.0091 0.005,0.02209 0,0.03125 -0.02008,0.06753 -0.07456,0.119634 -0.09375,0.1875 -0.249307,0.524995 -0.40681,1.060004 -0.53125,1.59375 -0.07638,0.327621 -0.119018,0.559588 -0.1875,0.84375 -2.525538,-2.660964 -5.421011,-5.016785 -8.59375,-6.90625 -0.06943,-0.04134 -0.117785,-0.115393 -0.1875,-0.15625 l -0.03125,0.03125 c -1.4011,-1.213861 -3.525968,-2.041008 -5.5,-2.34375 -0.0026,-4e-4 0.0026,-0.03085 0,-0.03125 -0.06135,-0.02008 -0.126032,-0.01193 -0.1875,-0.03125 -4.911362,-1.543515 -10.158539,-0.656463 -14.65625,1.375 -3.259681,-1.00936 -6.654315,-0.319 -9.4375,1.375 -2.850328,1.734867 -5.101145,4.47717 -6.0625,7.65625 -0.02043,0.04157 -0.0122,0.08343 -0.03125,0.125 -0.0065,0.02244 -0.02486,0.04002 -0.03125,0.0625 -0.473141,1.072888 -0.530004,2.145323 -0.5,3.0625 0.03139,0.959406 0.108089,1.792209 0,2.4375 -0.0014,0.0083 0.0014,0.02304 0,0.03125 -0.58704,2.948817 0.02231,5.945667 1.25,8.5625 -0.202983,3.204352 0.266607,6.395289 1.125,9.4375 -1.046937,1.106142 -1.559,2.483379 -1.46875,3.78125 0.106735,1.534941 0.671125,2.979845 1.09375,4.09375 0.0075,0.02263 0.02358,0.03995 0.03125,0.0625 1.562675,4.596217 6.23685,7.505617 10.9375,7.6875 6.070195,4.469763 14.425193,5.788685 21.40625,2.53125 l 0,0.03125 c 0.013,-0.0057 0.01826,-0.02552 0.03125,-0.03125 6.273587,-2.765101 11.338274,-7.548668 15.3125,-12.9375 3.115682,2.411197 7.344021,4.178633 11.40625,2.5 A 1.1167645,1.1167645 0 0 0 78,64.96875 c 1.108245,-0.621824 1.561765,-1.888878 1.40625,-2.9375 -0.144913,-0.977134 -0.744275,-1.841915 -1.65625,-2.375 L 77.78125,59.625 C 75.284017,57.635731 73.508264,54.872939 73.34375,51.75 A 1.1167645,1.1167645 0 0 0 73.3125,51.625 c -0.647864,-3.547137 0.917633,-7.203467 2.375,-10.8125 a 1.1167645,1.1167645 0 0 0 0.09375,-0.28125 c 0.671364,-6.371544 -0.541209,-12.809274 2.65625,-17.875 A 1.1167645,1.1167645 0 0 0 78.5,22.5625 c 1.020743,-2.083736 -0.820221,-4.579317 -3.125,-4.21875 a 1.1167645,1.1167645 0 0 0 -0.0625,0 z" />
    <path
       style="opacity:0.12;fill:#111d31;fill-opacity:1;fill-rule:evenodd;stroke:none"
       d="m 75.5625,19.4375 c -5.50468,1.212536 -10.222168,5.592551 -11.769491,11.063576 -0.841258,1.518616 -0.754457,6.034713 -2.619078,2.916011 C 58.654927,30.763008 55.806109,28.377261 52.65625,26.53125 51.548233,25.495054 49.187659,24.531327 47.330348,24.276841 42.575578,22.720686 37.348439,23.625504 32.90625,25.71875 26.854232,23.54684 20.034296,28.19817 18.356,34.098092 c -0.872405,1.775006 -0.179477,3.659539 -0.483716,5.386788 -0.562179,2.783982 0.03504,5.714717 1.283966,8.23387 -0.244503,3.309718 0.238185,6.64217 1.1875,9.8125 -2.584964,1.80803 -1.350469,5.062142 -0.500825,7.304598 1.399172,4.212077 5.876473,6.997315 10.250825,7.039152 5.781932,4.421117 13.931762,5.740364 20.614806,2.608836 C 57.102345,71.676448 62.292398,66.647332 66.28125,61 c 2.964265,2.602915 7.294892,4.608541 11.1875,3 1.389523,-0.779646 0.948145,-2.850809 -0.364766,-3.497394 C 74.415958,58.361354 72.393719,55.310068 72.208719,51.798255 71.48211,47.819981 73.209897,43.988007 74.65625,40.40625 75.302594,34.272157 74.018712,27.577896 77.5,22.0625 c 0.625773,-1.277448 -0.515521,-2.847459 -1.9375,-2.625 z m -23.5,6.9375 c 0.33868,-0.06576 0.526605,0.301679 0,0 z"
       id="path3773" />
    <path
       sodipodi:type="inkscape:offset"
       inkscape:radius="0.77777779"
       inkscape:original="M 75.8125 21.28125 C 70.789363 22.507767 68.369108 25.295657 66.5 28.625 C 65.062978 31.905109 64.015351 35.174768 63.375 38.375 C 60.229323 34.473042 56.111653 30.546649 51.5625 28.03125 C 51.54996 28.02435 51.57505 28.00691 51.5625 28 C 50.475503 27.002355 49.10091 26.350094 47.375 26.1875 C 47.35303 26.1804 47.33448 26.16331 47.3125 26.15625 C 45.668007 25.628085 43.978903 25.334113 42.3125 25.3125 C 38.913206 25.40682 35.804094 26.213426 33.0625 27.625 C 32.267655 27.25621 31.324167 27.035517 30.1875 27 C 23.9904 27 19.6875 32.618637 19.6875 37.40625 C 19.895974 37.283832 20.100981 37.158971 20.3125 37.0625 C 19.81925 38.392309 19.5 39.901575 19.5 41.46875 C 19.5 43.700483 20.048118 45.754378 21 47.4375 C 20.95468 48.109796 20.9375 48.779432 20.9375 49.46875 C 20.9375 52.47043 21.474053 55.37751 22.375 58.0625 C 20.914894 59.055544 20.263871 60.147671 20.75 61.90625 C 20.864041 62.269084 21.136242 62.598612 21.4375 62.90625 C 21.4434 62.91225 21.4316 62.93154 21.4375 62.9375 C 21.304792 63.512881 21.42435 64.245465 22.0625 65.4375 C 23.581096 68.007774 26.104133 69.676729 29.375 69.96875 C 29.830212 70.01583 30.240381 70.04435 30.6875 70.0625 C 34.111352 72.71883 38.208534 74.310088 42.5 74.375 C 51.472916 74.499427 61.016921 66.29553 65.9375 58.46875 C 65.95173 58.51809 65.98559 58.5439 66 58.59375 C 68.686824 60.462714 71.885721 63.722566 76.5 62.4375 C 72.995459 59.225124 70.362828 57.24382 70.1875 49.125 C 70.654849 44.802886 71.644272 42.932671 72.8125 40.1875 C 73.513379 33.64591 71.957448 27.998296 75.8125 21.28125 z "
       style="opacity:0.2;fill:#111d31;fill-opacity:1;fill-rule:evenodd;stroke:none"
       id="path3769"
       d="M 75.71875,20.5 A 0.77785557,0.77785557 0 0 0 75.625,20.53125 c -5.231049,1.277284 -7.89382,4.301108 -9.8125,7.71875 a 0.77785557,0.77785557 0 0 0 -0.03125,0.0625 c -1.255027,2.864692 -2.152293,5.709969 -2.8125,8.53125 -3.010475,-3.536645 -6.645962,-7.024666 -10.8125,-9.375 -0.0076,-0.0043 -0.02368,0.0043 -0.03125,0 -0.0023,-0.0033 4.6e-5,-0.0312 0,-0.03125 -5.9e-5,-5.9e-5 -0.02826,0.0025 -0.03125,0 -0.02292,-0.01915 -0.107564,-0.09819 -0.15625,-0.125 -1.138459,-0.992896 -2.595098,-1.675082 -4.3125,-1.875 0.20364,0.06581 0.186119,0.04861 -0.0625,-0.03125 -1.712123,-0.549886 -3.498963,-0.852289 -5.25,-0.875 a 0.77785557,0.77785557 0 0 0 -0.03125,0 C 38.883458,24.625528 35.780189,25.431883 33,26.8125 32.174691,26.48225 31.296145,26.252415 30.21875,26.21875 a 0.77785557,0.77785557 0 0 0 -0.03125,0 c -6.667218,0 -11.28125,5.933865 -11.28125,11.1875 a 0.77785557,0.77785557 0 0 0 0.34375,0.625 c -0.295034,1.086282 -0.53125,2.229032 -0.53125,3.4375 0,2.260609 0.556048,4.331627 1.5,6.09375 -0.0379,0.630802 -0.0625,1.26684 -0.0625,1.90625 0,2.902958 0.519672,5.699324 1.34375,8.3125 -0.578489,0.456842 -1.082993,0.960492 -1.375,1.59375 -0.36791,0.797865 -0.402838,1.744916 -0.125,2.75 0.141273,0.449476 0.424277,0.740441 0.6875,1.03125 -0.06011,0.73325 0.106546,1.571055 0.6875,2.65625 a 0.77785557,0.77785557 0 0 0 0.03125,0.03125 c 1.630617,2.759873 4.39271,4.585928 7.875,4.90625 0.01044,9.61e-4 0.02079,-9.34e-4 0.03125,0 0.384087,0.03918 0.754232,0.07538 1.125,0.09375 3.499189,2.649862 7.676418,4.246157 12.0625,4.3125 9.180252,0.127302 18.422375,-7.807844 23.5625,-15.59375 1.190686,0.871561 2.469788,1.97039 4.09375,2.8125 1.822353,0.944986 4.046867,1.513098 6.5625,0.8125 a 0.77785557,0.77785557 0 0 0 0.3125,-1.3125 c -1.765068,-1.617919 -3.21092,-2.879698 -4.25,-4.65625 -1.025997,-1.754183 -1.713049,-4.113175 -1.8125,-8 0.0014,-0.01293 -0.0014,-0.01837 0,-0.03125 0.458794,-4.201071 1.385761,-5.92233 2.5625,-8.6875 a 0.77785557,0.77785557 0 0 0 0.0625,-0.21875 C 74.31267,33.571274 72.783608,28.131695 76.5,21.65625 A 0.77785557,0.77785557 0 0 0 75.71875,20.5 z" />
    <path
       id="path4188"
       d="m 75.796875,21.28125 c -5.023137,1.226517 -7.412142,4.014407 -9.28125,7.34375 -1.437022,3.280109 -2.484649,6.549768 -3.125,9.75 -3.145677,-3.901958 -7.263347,-7.828351 -11.8125,-10.34375 -0.01254,-0.0069 -0.0187,-0.02434 -0.03125,-0.03125 -1.086997,-0.997645 -2.46159,-1.649906 -4.1875,-1.8125 -0.02197,-0.0071 -0.04052,-0.02419 -0.0625,-0.03125 -1.644493,-0.528165 -3.302347,-0.822137 -4.96875,-0.84375 -3.399294,0.09432 -6.508406,0.900926 -9.25,2.3125 -0.794845,-0.36879 -1.738333,-0.589483 -2.875,-0.625 -6.1971,0 -10.53125,5.618637 -10.53125,10.40625 0.208474,-0.122418 0.413481,-0.247279 0.625,-0.34375 -0.49325,1.329809 -0.78125,2.839075 -0.78125,4.40625 0,2.231733 0.548118,4.285628 1.5,5.96875 -0.04532,0.672296 -0.0625,1.341932 -0.0625,2.03125 0,3.00168 0.505303,5.90876 1.40625,8.59375 -1.460106,0.993044 -2.079879,2.085171 -1.59375,3.84375 0.114041,0.362834 0.354992,0.692362 0.65625,1 0.0059,0.006 -0.0059,0.02529 0,0.03125 -0.132708,0.575381 -0.01315,1.307965 0.625,2.5 1.518596,2.570274 4.041633,4.239229 7.3125,4.53125 0.455212,0.04708 0.896631,0.0756 1.34375,0.09375 3.423852,2.65633 7.521034,4.247588 11.8125,4.3125 8.972916,0.124427 18.516921,-8.07947 23.4375,-15.90625 0.01423,0.04934 0.01684,0.07515 0.03125,0.125 2.686824,1.868964 5.885721,5.128816 10.5,3.84375 -3.504541,-3.212376 -6.137172,-5.19368 -6.3125,-13.3125 0.467349,-4.322114 1.488022,-6.192329 2.65625,-8.9375 0.700879,-6.54159 -0.886302,-12.189204 2.96875,-18.90625 z"
       style="opacity:0.4;fill:#111d31;fill-opacity:1;fill-rule:evenodd;stroke:none" />
    <g
       id="g2335"
       transform="matrix(1.4335847,0,0,1.4335847,-44.45518,-81.448241)">
      <path
         transform="translate(25.6837,64.7822)"
         sodipodi:ry="7.185555"
         sodipodi:rx="5.6613641"
         sodipodi:cy="20.25193"
         sodipodi:cx="24.60516"
         d="m 30.266524,20.25193 a 5.6613641,7.185555 0 1 1 -11.322728,0 5.6613641,7.185555 0 1 1 11.322728,0 z"
         id="path617"
         style="fill:url(#radialGradient4058);fill-opacity:1;fill-rule:evenodd;stroke:none"
         sodipodi:type="arc" />
      <path
         transform="translate(15.8584,74.4356)"
         sodipodi:nodetypes="cccc"
         id="path618"
         d="m 40.9676,10.542 c 0,3.3396 -6.81,-5.8722 -12.1002,-2.76574 0,-3.33961 3.0212,-7.268753 7.344,-7.268753 5.5328,0.172882 4.7562,6.694873 4.7562,10.034493 z"
         style="font-size:12px;fill:url(#radialGradient4060);fill-rule:evenodd;stroke-width:1pt" />
      <path
         transform="translate(40,65)"
         sodipodi:nodetypes="cccccccc"
         id="path619"
         d="m 34.7133,23.5539 c -0.0815,-3.9113 0.8148,-8.1894 2.689,-12.4674 1.3038,-2.32239 2.9743,-4.27803 6.4782,-5.13359 -2.6891,4.68549 -1.589,8.63759 -2.0779,13.20069 -0.8149,1.9149 -1.5075,3.2189 -1.8335,6.2338 0.1223,5.6633 1.9557,7.0487 4.4003,9.2895 -3.2187,0.8964 -5.4595,-1.3853 -7.3337,-2.689 -0.9779,-3.3817 -1.3446,-5.0522 -2.3224,-8.434 z"
         style="fill:url(#linearGradient4062);fill-opacity:1;fill-rule:evenodd;stroke:none" />
      <g
         transform="matrix(0.718586,0,0,0.718583,2.16727,69.9466)"
         id="g595">
        <path
           transform="translate(0,-0.122253)"
           sodipodi:ry="2.1607211"
           sodipodi:rx="2.074306"
           sodipodi:cy="21.172836"
           sodipodi:cx="62.402035"
           d="m 64.476341,21.172836 a 2.074306,2.1607211 0 1 1 -4.148612,0 2.074306,2.1607211 0 1 1 4.148612,0 z"
           id="path596"
           style="fill:#000000;fill-opacity:1;fill-rule:evenodd;stroke:none"
           sodipodi:type="arc" />
        <path
           sodipodi:ry="1.037178"
           sodipodi:rx="0.77786398"
           sodipodi:cy="20.394981"
           sodipodi:cx="63.179901"
           d="m 63.957765,20.394981 a 0.77786398,1.037178 0 1 1 -1.555728,0 0.77786398,1.037178 0 1 1 1.555728,0 z"
           id="path597"
           style="fill:#808080;fill-opacity:1;fill-rule:evenodd;stroke:none"
           sodipodi:type="arc" />
      </g>
      <path
         transform="translate(40,65)"
         sodipodi:nodetypes="cccccc"
         id="path630"
         d="m 35.6911,19.8871 c 1.263,-5.9486 1.5483,-6.7634 2.3224,-8.6783 0.8555,-1.58905 1.3445,-2.9335 5.1336,-4.76692 -2.0372,1.7112 -3.0965,3.66682 -3.9113,6.23372 -0.4075,2.1186 -1.1816,4.2373 -0.7334,11.2451 -0.6519,-1.0593 -2.1594,-2.9743 -2.8113,-4.0336 z"
         style="fill:url(#linearGradient4064);fill-opacity:0.47183102;fill-rule:evenodd;stroke:none" />
      <path
         transform="translate(40,65)"
         sodipodi:nodetypes="ccccc"
         id="path615"
         d="M 39.358,25.7541 C 39.1136,31.7102 29.4691,43.1108 20.6568,42.9886 12.5779,42.8664 5.62257,35.0105 5.62257,25.6319 5.62257,16.2535 11.7223,9.00879 20.5346,8.76427 29.9581,8.88649 39.4803,21.9982 39.358,25.7541 z"
         style="font-size:12px;fill:url(#radialGradient4066);fill-rule:evenodd;stroke-width:1pt" />
      <path
         transform="translate(40,65)"
         sodipodi:nodetypes="ccccc"
         id="path599"
         d="M 39.358,25.7541 C 39.1136,31.7102 29.4691,43.1108 20.6568,42.9886 12.5779,42.8664 5.62257,35.0105 5.62257,25.6319 5.62257,16.2535 11.7223,9.00879 20.5346,8.76427 29.9581,8.88649 39.4803,21.9982 39.358,25.7541 z"
         style="font-size:12px;fill:url(#linearGradient4068);fill-rule:evenodd;stroke-width:1pt" />
      <path
         transform="translate(40,65)"
         sodipodi:nodetypes="cssccc"
         id="path632"
         d="m 30.5574,20.4983 c 2.0779,3.1331 1.3797,5.7609 0.2514,7.5749 -1.1283,1.8142 -4.2791,2.7994 -5.9962,2.6924 -6.0078,-0.3667 -5.1336,-3.0235 -5.1336,-8.5562 0,-5.5326 3.6483,-10.8784 7.0893,-10.8784 2.5854,0.6112 3.7891,3.6347 3.7891,9.1673 z"
         style="font-size:12px;fill:#000000;fill-opacity:0.19718299;fill-rule:evenodd;stroke-width:1pt" />
      <path
         transform="matrix(0.952492,0,0,1.14657,1.8795,60.0072)"
         sodipodi:ry="5.1947398"
         sodipodi:rx="6.5392952"
         sodipodi:cy="25.081871"
         sodipodi:cx="65.82074"
         d="m 72.360035,25.081871 a 6.5392952,5.1947398 0 1 1 -13.07859,0 6.5392952,5.1947398 0 1 1 13.07859,0 z"
         id="path624"
         style="fill:url(#radialGradient4070);fill-opacity:1;fill-rule:evenodd;stroke:none"
         sodipodi:type="arc" />
      <path
         transform="matrix(1,0,0,0.932637,39.8778,66.1984)"
         sodipodi:ry="6.2337108"
         sodipodi:rx="5.744801"
         sodipodi:cy="22.20948"
         sodipodi:cx="24.323729"
         d="m 30.06853,22.20948 a 5.744801,6.2337108 0 1 1 -11.489602,0 5.744801,6.2337108 0 1 1 11.489602,0 z"
         id="path633"
         style="fill:url(#linearGradient4072);fill-opacity:1;fill-rule:evenodd;stroke:none"
         sodipodi:type="arc" />
      <path
         transform="matrix(1.03238,0,0,1.05954,38.5155,63.1486)"
         sodipodi:ry="7.185555"
         sodipodi:rx="5.6613641"
         sodipodi:cy="20.25193"
         sodipodi:cx="24.60516"
         d="m 30.266524,20.25193 a 5.6613641,7.185555 0 1 1 -11.322728,0 5.6613641,7.185555 0 1 1 11.322728,0 z"
         id="path552"
         style="fill:url(#linearGradient4074);fill-opacity:1;fill-rule:evenodd;stroke:none"
         sodipodi:type="arc" />
      <path
         transform="translate(28.937,74.6801)"
         sodipodi:nodetypes="cccc"
         id="path600"
         d="M 40.8895,10.542 C 39.9129,9.66286 36.9358,4.78699 29.1018,7.74536 c 0,-3.33961 1.32,-8.093413 5.6428,-8.093413 5.5328,0.172882 6.1449,7.550433 6.1449,10.890053 z"
         style="font-size:12px;fill:url(#radialGradient4076);fill-rule:evenodd;stroke-width:1pt" />
      <g
         transform="matrix(0.718586,0,0,0.718583,21.4786,70.3865)"
         id="g611">
        <path
           transform="translate(0,-0.122253)"
           sodipodi:ry="2.1607211"
           sodipodi:rx="2.074306"
           sodipodi:cy="21.172836"
           sodipodi:cx="62.402035"
           d="m 64.476341,21.172836 a 2.074306,2.1607211 0 1 1 -4.148612,0 2.074306,2.1607211 0 1 1 4.148612,0 z"
           id="path604"
           style="fill:#000000;fill-opacity:1;fill-rule:evenodd;stroke:none"
           sodipodi:type="arc" />
        <path
           sodipodi:ry="1.037178"
           sodipodi:rx="0.77786398"
           sodipodi:cy="20.394981"
           sodipodi:cx="63.179901"
           d="m 63.957765,20.394981 a 0.77786398,1.037178 0 1 1 -1.555728,0 0.77786398,1.037178 0 1 1 1.555728,0 z"
           id="path605"
           style="fill:#808080;fill-opacity:1;fill-rule:evenodd;stroke:none"
           sodipodi:type="arc" />
      </g>
      <path
         transform="translate(-1.19148,67.2001)"
         sodipodi:nodetypes="ccscccc"
         id="path623"
         d="m 47.7918,31.6212 c 0.2038,0.8556 6.2745,3.4224 15.8899,-0.2445 0.387,-0.0408 2.2985,-2.1103 2.2908,-1.7026 -0.0187,1.1104 -0.8848,2.5877 -2.0123,3.8196 -2.404,2.9334 -6.5529,4.7278 -11.2792,4.239 -2.2816,-0.2037 -4.0423,-1.3851 -5.1016,-3.178 -0.9051,-1.6907 -0.3172,-1.9963 0.2124,-2.9335 z"
         style="fill:url(#linearGradient4078);fill-opacity:1;fill-rule:evenodd;stroke:none" />
      <path
         transform="translate(-1.65414,65.384)"
         sodipodi:nodetypes="cccccc"
         id="path631"
         d="m 48.1585,31.6212 c 0.2038,0.8556 5.9078,3.7891 15.5232,0.1222 1.2892,-0.662 2.1738,-0.0872 0.8556,1.9556 -2.4039,2.4446 -9.6969,3.4225 -11.9785,3.0558 -2.2816,-0.2037 -5.0521,-1.0186 -5.5003,-2.4446 -0.3391,-1.2267 0.0815,-1.9963 1.1,-2.689 z"
         style="fill:url(#linearGradient4080);fill-opacity:1;fill-rule:evenodd;stroke:none" />
      <path
         transform="translate(-1.55816,65)"
         sodipodi:nodetypes="ccscccc"
         id="path621"
         d="m 48.1585,31.6212 c 0.2038,0.8556 5.5953,4.9609 15.8357,0.9816 0.6836,-0.2919 1.9301,-0.8606 2.1868,-0.8178 0.3767,0.0741 -0.4768,0.9707 -1.4874,1.9922 -2.4039,2.4445 -9.8532,3.3443 -12.1348,2.9776 -2.2816,-0.2037 -5.0521,-1.0186 -5.5003,-2.4446 -0.3391,-1.2267 0.0815,-1.9963 1.1,-2.689 z"
         style="fill:url(#linearGradient4082);fill-opacity:1;fill-rule:evenodd;stroke:none" />
    </g>
  </g>
</svg>
