<?xml version="1.0" encoding="UTF-8" standalone="no"?>
<!-- Created with Inkscape (http://www.inkscape.org/) -->

<svg
   xmlns:dc="http://purl.org/dc/elements/1.1/"
   xmlns:cc="http://creativecommons.org/ns#"
   xmlns:rdf="http://www.w3.org/1999/02/22-rdf-syntax-ns#"
   xmlns:svg="http://www.w3.org/2000/svg"
   xmlns="http://www.w3.org/2000/svg"
   xmlns:xlink="http://www.w3.org/1999/xlink"
   xmlns:sodipodi="http://sodipodi.sourceforge.net/DTD/sodipodi-0.dtd"
   xmlns:inkscape="http://www.inkscape.org/namespaces/inkscape"
   width="96"
   height="96"
   id="svg2408"
   sodipodi:version="0.32"
   inkscape:version="0.48.0 r9654"
   version="1.0"
   sodipodi:docname="deja-dup.svg"
   inkscape:output_extension="org.inkscape.output.svg.inkscape">
  <defs
     id="defs2410">
    <linearGradient
       id="linearGradient3767">
      <stop
         style="stop-color:#4d4d4d;stop-opacity:0.70731705;"
         offset="0"
         id="stop3769" />
      <stop
         style="stop-color:#4d4d4d;stop-opacity:0.25203252;"
         offset="1"
         id="stop3771" />
    </linearGradient>
    <linearGradient
       inkscape:collect="always"
       xlink:href="#linearGradient3767"
       id="linearGradient3773"
       x1="48"
       y1="62"
       x2="48"
       y2="21.554564"
       gradientUnits="userSpaceOnUse"
       gradientTransform="translate(-100,-21)" />
    <linearGradient
       id="linearGradient3313">
      <stop
         style="stop-color:#4dbeff;stop-opacity:1;"
         offset="0"
         id="stop3315" />
      <stop
         id="stop4186"
         offset="0.67213112"
         style="stop-color:#1379ff;stop-opacity:0.65040648;" />
      <stop
         style="stop-color:#0066ff;stop-opacity:0;"
         offset="1"
         id="stop3317" />
    </linearGradient>
    <inkscape:perspective
       sodipodi:type="inkscape:persp3d"
       inkscape:vp_x="0 : 48 : 1"
       inkscape:vp_y="0 : 1000 : 0"
       inkscape:vp_z="96 : 48 : 1"
       inkscape:persp3d-origin="48 : 32 : 1"
       id="perspective159" />
    <linearGradient
       id="linearGradient4327">
      <stop
         style="stop-color:#f0f0f0;stop-opacity:1;"
         offset="0"
         id="stop4329" />
      <stop
         id="stop4331"
         offset="1"
         style="stop-color:#b4b4b4;stop-opacity:1;" />
    </linearGradient>
    <linearGradient
       id="linearGradient4225">
      <stop
         style="stop-color:#000000;stop-opacity:1;"
         offset="0"
         id="stop4227" />
      <stop
         style="stop-color:#484848;stop-opacity:1;"
         offset="1"
         id="stop4229" />
    </linearGradient>
    <linearGradient
       id="linearGradient3349">
      <stop
         id="stop3351"
         offset="0"
         style="stop-color:#a4a4a4;stop-opacity:0;" />
      <stop
         style="stop-color:#ffffff;stop-opacity:0.53125;"
         offset="0.5"
         id="stop3353" />
      <stop
         id="stop3355"
         offset="1"
         style="stop-color:#a4a4a4;stop-opacity:0;" />
    </linearGradient>
    <linearGradient
       id="linearGradient7351">
      <stop
         style="stop-color:#dcdcdc;stop-opacity:1;"
         offset="0"
         id="stop7353" />
      <stop
         id="stop7359"
         offset="0.5"
         style="stop-color:#aaaaaa;stop-opacity:1;" />
      <stop
         style="stop-color:#dcdcdc;stop-opacity:1;"
         offset="1"
         id="stop7355" />
    </linearGradient>
    <linearGradient
       id="linearGradient3344">
      <stop
         style="stop-color:#828282;stop-opacity:1;"
         offset="0"
         id="stop3346" />
      <stop
         style="stop-color:#ffffff;stop-opacity:1;"
         offset="1"
         id="stop3348" />
    </linearGradient>
    <linearGradient
       id="linearGradient3359">
      <stop
         id="stop3361"
         offset="0"
         style="stop-color:#c8c8c8;stop-opacity:0;" />
      <stop
         style="stop-color:#969696;stop-opacity:1;"
         offset="0.5"
         id="stop3363" />
      <stop
         id="stop3365"
         offset="1"
         style="stop-color:#c8c8c8;stop-opacity:0;" />
    </linearGradient>
    <linearGradient
       id="linearGradient7510">
      <stop
         style="stop-color:#e6e6e6;stop-opacity:1;"
         offset="0"
         id="stop7512" />
      <stop
         id="stop7518"
         offset="0.5"
         style="stop-color:#919191;stop-opacity:1;" />
      <stop
         style="stop-color:#e6e6e6;stop-opacity:1;"
         offset="1"
         id="stop7514" />
    </linearGradient>
    <linearGradient
       id="linearGradient7498">
      <stop
         id="stop7500"
         offset="0"
         style="stop-color:#5f5f5f;stop-opacity:1;" />
      <stop
         id="stop7502"
         offset="1"
         style="stop-color:#ffffff;stop-opacity:1;" />
    </linearGradient>
    <linearGradient
       id="linearGradient7520">
      <stop
         style="stop-color:#2b2b2b;stop-opacity:1;"
         offset="0"
         id="stop7522" />
      <stop
         id="stop7528"
         offset="0.5"
         style="stop-color:#636363;stop-opacity:1;" />
      <stop
         style="stop-color:#b4b4b4;stop-opacity:1;"
         offset="0.75"
         id="stop7530" />
      <stop
         style="stop-color:#b4b4b4;stop-opacity:1;"
         offset="1"
         id="stop7524" />
    </linearGradient>
    <linearGradient
       id="linearGradient3322">
      <stop
         id="stop3324"
         offset="0"
         style="stop-color:#7a7a7a;stop-opacity:1;" />
      <stop
         style="stop-color:#f9f9f9;stop-opacity:1"
         offset="0.2032043"
         id="stop3326" />
      <stop
         id="stop3328"
         offset="0.42969123"
         style="stop-color:#c9c9c9;stop-opacity:1" />
      <stop
         id="stop3330"
         offset="1"
         style="stop-color:#dedede;stop-opacity:0;" />
    </linearGradient>
    <linearGradient
       id="linearGradient3260">
      <stop
         id="stop3262"
         offset="0"
         style="stop-color:#e6e6e6;stop-opacity:1" />
      <stop
         style="stop-color:#bebebe;stop-opacity:1;"
         offset="0.26003402"
         id="stop3264" />
      <stop
         style="stop-color:#aaaaaa;stop-opacity:1;"
         offset="0.49180263"
         id="stop3266" />
      <stop
         id="stop3268"
         offset="0.75914466"
         style="stop-color:#c8c8c8;stop-opacity:1;" />
      <stop
         id="stop3270"
         offset="1"
         style="stop-color:#e6e6e6;stop-opacity:1" />
    </linearGradient>
    <linearGradient
       inkscape:collect="always"
       id="linearGradient3448">
      <stop
         style="stop-color:#000000;stop-opacity:1;"
         offset="0"
         id="stop3450" />
      <stop
         style="stop-color:#000000;stop-opacity:0;"
         offset="1"
         id="stop3452" />
    </linearGradient>
    <linearGradient
       id="linearGradient3376">
      <stop
         style="stop-color:#767676;stop-opacity:1;"
         offset="0"
         id="stop3378" />
      <stop
         style="stop-color:#fdfdfd;stop-opacity:1;"
         offset="1"
         id="stop3380" />
    </linearGradient>
    <linearGradient
       id="linearGradient3366">
      <stop
         style="stop-color:#c1ff97;stop-opacity:1;"
         offset="0"
         id="stop3368" />
      <stop
         style="stop-color:#30c700;stop-opacity:1;"
         offset="1"
         id="stop3370" />
    </linearGradient>
    <linearGradient
       id="linearGradient3273">
      <stop
         style="stop-color:#7a7a7a;stop-opacity:1;"
         offset="0"
         id="stop3275" />
      <stop
         id="stop3281"
         offset="0.14636412"
         style="stop-color:#f9f9f9;stop-opacity:1" />
      <stop
         style="stop-color:#c9c9c9;stop-opacity:1"
         offset="0.37253973"
         id="stop3283" />
      <stop
         style="stop-color:#dedede;stop-opacity:0;"
         offset="1"
         id="stop3277" />
    </linearGradient>
    <linearGradient
       id="linearGradient3220">
      <stop
         style="stop-color:#ffffff;stop-opacity:1;"
         offset="0"
         id="stop3222" />
      <stop
         style="stop-color:#bfbfbf;stop-opacity:0;"
         offset="1"
         id="stop3224" />
    </linearGradient>
    <linearGradient
       id="linearGradient3173">
      <stop
         style="stop-color:#e6e6e6;stop-opacity:1"
         offset="0"
         id="stop3175" />
      <stop
         id="stop3189"
         offset="0.26003402"
         style="stop-color:#c3c3c3;stop-opacity:1;" />
      <stop
         id="stop3187"
         offset="0.49180263"
         style="stop-color:#b9b9b9;stop-opacity:1;" />
      <stop
         style="stop-color:#c8c8c8;stop-opacity:1;"
         offset="0.75914466"
         id="stop3191" />
      <stop
         style="stop-color:#e6e6e6;stop-opacity:1"
         offset="1"
         id="stop3177" />
    </linearGradient>
    <linearGradient
       id="ButtonShadow"
       gradientTransform="scale(1.0058652,0.994169)"
       x1="45.447727"
       y1="92.539597"
       x2="45.447727"
       y2="7.0165396"
       gradientUnits="userSpaceOnUse">
      <stop
         style="stop-color:#000000;stop-opacity:1;"
         offset="0"
         id="stop3750" />
      <stop
         style="stop-color:#000000;stop-opacity:0.58823532;"
         offset="1"
         id="stop3752" />
    </linearGradient>
    <linearGradient
       inkscape:collect="always"
       id="linearGradient3737">
      <stop
         style="stop-color:#ffffff;stop-opacity:1;"
         offset="0"
         id="stop3739" />
      <stop
         style="stop-color:#ffffff;stop-opacity:0;"
         offset="1"
         id="stop3741" />
    </linearGradient>
    <filter
       inkscape:collect="always"
       id="filter3174">
      <feGaussianBlur
         inkscape:collect="always"
         stdDeviation="1.71"
         id="feGaussianBlur3176" />
    </filter>
    <linearGradient
       inkscape:collect="always"
       xlink:href="#linearGradient3737"
       id="linearGradient3188"
       gradientUnits="userSpaceOnUse"
       x1="36.357143"
       y1="6"
       x2="36.357143"
       y2="63.893143" />
    <linearGradient
       inkscape:collect="always"
       xlink:href="#linearGradient4327"
       id="linearGradient3179"
       x1="46"
       y1="6"
       x2="46"
       y2="78.000145"
       gradientUnits="userSpaceOnUse" />
    <linearGradient
       inkscape:collect="always"
       xlink:href="#linearGradient3322"
       id="linearGradient3279"
       x1="6"
       y1="77.09375"
       x2="32"
       y2="77.09375"
       gradientUnits="userSpaceOnUse" />
    <linearGradient
       inkscape:collect="always"
       xlink:href="#linearGradient3273"
       id="linearGradient3287"
       gradientUnits="userSpaceOnUse"
       x1="6"
       y1="77.09375"
       x2="32.030617"
       y2="77.09375"
       gradientTransform="matrix(-1,0,0,1,96.030615,0)" />
    <linearGradient
       inkscape:collect="always"
       xlink:href="#linearGradient3448"
       id="linearGradient3454"
       x1="6"
       y1="75.5"
       x2="45.219246"
       y2="75.5"
       gradientUnits="userSpaceOnUse"
       gradientTransform="matrix(-1,0,0,1,96,-2)" />
    <linearGradient
       inkscape:collect="always"
       xlink:href="#linearGradient3448"
       id="linearGradient3460"
       x1="48"
       y1="77.09375"
       x2="48"
       y2="90"
       gradientUnits="userSpaceOnUse" />
    <linearGradient
       inkscape:collect="always"
       xlink:href="#linearGradient3220"
       id="linearGradient3551"
       gradientUnits="userSpaceOnUse"
       gradientTransform="matrix(1,0,0,-1,0,84)"
       x1="18.742928"
       y1="8.046936"
       x2="109.1929"
       y2="68.516502" />
    <linearGradient
       inkscape:collect="always"
       xlink:href="#linearGradient3737"
       id="linearGradient3316"
       x1="48"
       y1="12"
       x2="48"
       y2="72.294098"
       gradientUnits="userSpaceOnUse" />
    <radialGradient
       inkscape:collect="always"
       xlink:href="#linearGradient7520"
       id="radialGradient3258"
       gradientUnits="userSpaceOnUse"
       cx="53.965744"
       cy="69.312256"
       fx="53.965744"
       fy="69.312256"
       r="36.526697" />
    <linearGradient
       inkscape:collect="always"
       xlink:href="#linearGradient7498"
       id="linearGradient3261"
       gradientUnits="userSpaceOnUse"
       x1="20.341125"
       y1="69.312256"
       x2="87.590363"
       y2="69.312256" />
    <linearGradient
       inkscape:collect="always"
       xlink:href="#linearGradient7510"
       id="linearGradient3263"
       gradientUnits="userSpaceOnUse"
       x1="17.935517"
       y1="69.312256"
       x2="89.995971"
       y2="69.312256" />
    <linearGradient
       inkscape:collect="always"
       xlink:href="#linearGradient7351"
       id="linearGradient4126"
       gradientUnits="userSpaceOnUse"
       x1="21.5863"
       y1="69.312256"
       x2="86.345184"
       y2="69.312256" />
    <linearGradient
       inkscape:collect="always"
       xlink:href="#linearGradient3349"
       id="linearGradient4128"
       gradientUnits="userSpaceOnUse"
       x1="21.5863"
       y1="69.312256"
       x2="86.345184"
       y2="69.312256" />
    <linearGradient
       inkscape:collect="always"
       xlink:href="#linearGradient3359"
       id="linearGradient4130"
       gradientUnits="userSpaceOnUse"
       x1="21.5863"
       y1="69.312256"
       x2="86.345184"
       y2="69.312256" />
    <linearGradient
       inkscape:collect="always"
       xlink:href="#linearGradient7498"
       id="linearGradient4132"
       gradientUnits="userSpaceOnUse"
       x1="20.341125"
       y1="69.312256"
       x2="87.590363"
       y2="69.312256" />
    <linearGradient
       inkscape:collect="always"
       xlink:href="#linearGradient3344"
       id="linearGradient4134"
       gradientUnits="userSpaceOnUse"
       x1="20.341125"
       y1="69.312256"
       x2="87.590363"
       y2="69.312256" />
    <linearGradient
       inkscape:collect="always"
       xlink:href="#linearGradient3344"
       id="linearGradient4136"
       gradientUnits="userSpaceOnUse"
       x1="68.791664"
       y1="85.25"
       x2="72.458336"
       y2="85.25" />
    <linearGradient
       inkscape:collect="always"
       xlink:href="#linearGradient3344"
       id="linearGradient4138"
       gradientUnits="userSpaceOnUse"
       x1="70.035599"
       y1="87.253937"
       x2="72.05072"
       y2="83.763649" />
    <linearGradient
       inkscape:collect="always"
       xlink:href="#linearGradient3344"
       id="linearGradient4140"
       gradientUnits="userSpaceOnUse"
       x1="71.625038"
       y1="86.982117"
       x2="69.624962"
       y2="83.517883" />
    <linearGradient
       inkscape:collect="always"
       xlink:href="#linearGradient3344"
       id="linearGradient4142"
       gradientUnits="userSpaceOnUse"
       x1="68.791664"
       y1="85.25"
       x2="72.458336"
       y2="85.25" />
    <linearGradient
       inkscape:collect="always"
       xlink:href="#linearGradient3344"
       id="linearGradient4144"
       gradientUnits="userSpaceOnUse"
       x1="71.625038"
       y1="83.517883"
       x2="69.624962"
       y2="86.982117" />
    <linearGradient
       inkscape:collect="always"
       xlink:href="#linearGradient3344"
       id="linearGradient4146"
       gradientUnits="userSpaceOnUse"
       x1="71.625038"
       y1="86.982117"
       x2="69.624962"
       y2="83.517883" />
    <radialGradient
       inkscape:collect="always"
       xlink:href="#linearGradient7520"
       id="radialGradient4148"
       gradientUnits="userSpaceOnUse"
       cx="53.965744"
       cy="69.312256"
       fx="53.965744"
       fy="69.312256"
       r="36.526697" />
    <linearGradient
       inkscape:collect="always"
       xlink:href="#linearGradient7498"
       id="linearGradient4150"
       gradientUnits="userSpaceOnUse"
       x1="20.341125"
       y1="69.312256"
       x2="87.590363"
       y2="69.312256" />
    <linearGradient
       inkscape:collect="always"
       xlink:href="#linearGradient7510"
       id="linearGradient4152"
       gradientUnits="userSpaceOnUse"
       x1="17.935517"
       y1="69.312256"
       x2="89.995971"
       y2="69.312256" />
    <linearGradient
       inkscape:collect="always"
       xlink:href="#linearGradient3737"
       id="linearGradient4197"
       x1="66.03125"
       y1="13.96875"
       x2="66.03125"
       y2="59.990425"
       gradientUnits="userSpaceOnUse"
       gradientTransform="matrix(1,0,0,-1,0,84)" />
    <linearGradient
       inkscape:collect="always"
       xlink:href="#linearGradient3737"
       id="linearGradient4203"
       gradientUnits="userSpaceOnUse"
       x1="66.03125"
       y1="13.96875"
       x2="66.03125"
       y2="59.990425"
       gradientTransform="translate(2,0)" />
    <linearGradient
       inkscape:collect="always"
       xlink:href="#linearGradient3737"
       id="linearGradient4205"
       gradientUnits="userSpaceOnUse"
       x1="66.03125"
       y1="13.96875"
       x2="66.03125"
       y2="59.990425" />
    <linearGradient
       inkscape:collect="always"
       xlink:href="#linearGradient3737"
       id="linearGradient4208"
       gradientUnits="userSpaceOnUse"
       x1="66.03125"
       y1="13.96875"
       x2="66.03125"
       y2="59.990425"
       gradientTransform="matrix(1,0,0,-1,0,84)" />
    <linearGradient
       inkscape:collect="always"
       xlink:href="#linearGradient4225"
       id="linearGradient4235"
       gradientUnits="userSpaceOnUse"
       x1="67.071426"
       y1="80"
       x2="67.071426"
       y2="88.011475" />
    <clipPath
       clipPathUnits="userSpaceOnUse"
       id="clipPath4321">
      <rect
         ry="4"
         rx="4"
         y="12"
         x="12"
         height="60"
         width="72"
         id="rect4323"
         style="opacity:1;fill:#ffffff;fill-opacity:1;fill-rule:nonzero;stroke:none;stroke-width:1;stroke-linecap:square;stroke-linejoin:round;stroke-miterlimit:4;stroke-dasharray:none;stroke-dashoffset:0;stroke-opacity:0.69658119" />
    </clipPath>
    <clipPath
       clipPathUnits="userSpaceOnUse"
       id="clipPath3370">
      <rect
         ry="2.6318841"
         rx="2.1405406"
         y="33.156487"
         x="40.790012"
         height="39.47826"
         width="38.529732"
         id="rect3372"
         style="opacity:1;fill:#ffffff;fill-opacity:1;fill-rule:nonzero;stroke:none;stroke-width:1;stroke-linecap:square;stroke-linejoin:round;stroke-miterlimit:4;stroke-dasharray:none;stroke-dashoffset:0;stroke-opacity:0.69658119" />
    </clipPath>
    <radialGradient
       inkscape:collect="always"
       xlink:href="#linearGradient3313"
       id="radialGradient3319"
       cx="48"
       cy="84"
       fx="48"
       fy="84"
       r="30"
       gradientTransform="matrix(1.0666667,0,0,6.6666666e-2,-3.2,78.4)"
       gradientUnits="userSpaceOnUse" />
    <radialGradient
       inkscape:collect="always"
       xlink:href="#linearGradient3313"
       id="radialGradient3325"
       gradientUnits="userSpaceOnUse"
       gradientTransform="matrix(1.2363096,0,0,0.1827381,-11.342857,68.65)"
       cx="48"
       cy="84"
       fx="48"
       fy="84"
       r="30" />
    <linearGradient
       inkscape:collect="always"
       xlink:href="#linearGradient3220"
       id="linearGradient3781"
       gradientUnits="userSpaceOnUse"
       x1="15.656256"
       y1="69.394279"
       x2="46.594883"
       y2="39.82095"
       gradientTransform="matrix(1.1165614,0,0,1.1165614,0.8046986,-5.6759082)" />
    <clipPath
       clipPathUnits="userSpaceOnUse"
       id="clipPath3785">
      <rect
         style="opacity:1;fill:#ffffff;fill-opacity:1;fill-rule:nonzero;stroke:none;stroke-width:1;stroke-linecap:square;stroke-linejoin:round;stroke-miterlimit:4;stroke-dasharray:none;stroke-dashoffset:0;stroke-opacity:0.69658119"
         id="rect3787"
         width="84"
         height="72"
         x="6"
         y="6"
         rx="6"
         ry="6" />
    </clipPath>
    <filter
       inkscape:collect="always"
       id="filter3829"
       x="-0.12267826"
       width="1.2453565"
       y="-0.17991198"
       height="1.359824">
      <feGaussianBlur
         inkscape:collect="always"
         stdDeviation="3.5487715"
         id="feGaussianBlur3831" />
    </filter>
    <radialGradient
       inkscape:collect="always"
       xlink:href="#linearGradient3313"
       id="radialGradient4122"
       gradientUnits="userSpaceOnUse"
       gradientTransform="matrix(1.0666667,0,0,6.6666666e-2,-3.2,78.4)"
       cx="48"
       cy="84"
       fx="48"
       fy="84"
       r="30" />
    <radialGradient
       inkscape:collect="always"
       xlink:href="#linearGradient3313"
       id="radialGradient4124"
       gradientUnits="userSpaceOnUse"
       gradientTransform="matrix(1.2363096,0,0,0.1827381,-11.342857,68.65)"
       cx="48"
       cy="84"
       fx="48"
       fy="84"
       r="30" />
    <radialGradient
       inkscape:collect="always"
       xlink:href="#linearGradient3313"
       id="radialGradient4138"
       gradientUnits="userSpaceOnUse"
       gradientTransform="matrix(1.0666667,0,0,6.6666666e-2,-3.2,77.4)"
       cx="48"
       cy="84"
       fx="48"
       fy="84"
       r="30" />
    <filter
       inkscape:collect="always"
       id="filter4180"
       x="-0.11444673"
       width="1.2288935"
       y="-1.4149175"
       height="3.8298349">
      <feGaussianBlur
         inkscape:collect="always"
         stdDeviation="3.5372897"
         id="feGaussianBlur4182" />
    </filter>
    <linearGradient
       inkscape:collect="always"
       xlink:href="#linearGradient3448"
       id="linearGradient4196"
       x1="43.05357"
       y1="80.14286"
       x2="43.05357"
       y2="82.00309"
       gradientUnits="userSpaceOnUse" />
    <inkscape:perspective
       id="perspective2877"
       inkscape:persp3d-origin="0.5 : 0.33333333 : 1"
       inkscape:vp_z="1 : 0.5 : 1"
       inkscape:vp_y="0 : 1000 : 0"
       inkscape:vp_x="0 : 0.5 : 1"
       sodipodi:type="inkscape:persp3d" />
    <linearGradient
       y2="90.238609"
       x2="32.251034"
       y1="6.1317081"
       x1="32.251034"
       gradientTransform="matrix(1.0238095,0,0,1.0119048,-1.1428571,-98.071429)"
       gradientUnits="userSpaceOnUse"
       id="linearGradient3026"
       xlink:href="#ButtonShadow-0"
       inkscape:collect="always" />
    <linearGradient
       id="ButtonShadow-0"
       gradientTransform="matrix(1.0058652,0,0,0.994169,100,0)"
       x1="45.447727"
       y1="92.539597"
       x2="45.447727"
       y2="7.0165396"
       gradientUnits="userSpaceOnUse">
      <stop
         style="stop-color:#000000;stop-opacity:1;"
         offset="0"
         id="stop3750-8" />
      <stop
         style="stop-color:#000000;stop-opacity:0.58823532;"
         offset="1"
         id="stop3752-5" />
    </linearGradient>
    <linearGradient
       inkscape:collect="always"
       xlink:href="#ButtonShadow-0"
       id="linearGradient3780"
       gradientUnits="userSpaceOnUse"
       gradientTransform="matrix(1.0238095,0,0,1.0119048,-1.1428571,-98.071429)"
       x1="32.251034"
       y1="6.1317081"
       x2="32.251034"
       y2="90.238609" />
    <linearGradient
       id="linearGradient2886"
       gradientTransform="matrix(1.0058652,0,0,0.994169,100,0)"
       x1="45.447727"
       y1="92.539597"
       x2="45.447727"
       y2="7.0165396"
       gradientUnits="userSpaceOnUse">
      <stop
         style="stop-color:#000000;stop-opacity:1;"
         offset="0"
         id="stop2888" />
      <stop
         style="stop-color:#000000;stop-opacity:0.58823532;"
         offset="1"
         id="stop2890" />
    </linearGradient>
    <linearGradient
       inkscape:collect="always"
       xlink:href="#ButtonShadow-0"
       id="linearGradient3772"
       gradientUnits="userSpaceOnUse"
       gradientTransform="matrix(1.0238095,0,0,1.0119048,-1.1428571,-98.071429)"
       x1="32.251034"
       y1="6.1317081"
       x2="32.251034"
       y2="90.238609" />
    <linearGradient
       id="linearGradient2893"
       gradientTransform="matrix(1.0058652,0,0,0.994169,100,0)"
       x1="45.447727"
       y1="92.539597"
       x2="45.447727"
       y2="7.0165396"
       gradientUnits="userSpaceOnUse">
      <stop
         style="stop-color:#000000;stop-opacity:1;"
         offset="0"
         id="stop2895" />
      <stop
         style="stop-color:#000000;stop-opacity:0.58823532;"
         offset="1"
         id="stop2897" />
    </linearGradient>
    <linearGradient
       inkscape:collect="always"
       xlink:href="#ButtonShadow-0"
       id="linearGradient3725"
       gradientUnits="userSpaceOnUse"
       gradientTransform="matrix(1.0238095,0,0,1.0119048,-1.1428571,-98.071429)"
       x1="32.251034"
       y1="6.1317081"
       x2="32.251034"
       y2="90.238609" />
    <linearGradient
       id="linearGradient2900"
       gradientTransform="matrix(1.0058652,0,0,0.994169,100,0)"
       x1="45.447727"
       y1="92.539597"
       x2="45.447727"
       y2="7.0165396"
       gradientUnits="userSpaceOnUse">
      <stop
         style="stop-color:#000000;stop-opacity:1;"
         offset="0"
         id="stop2902" />
      <stop
         style="stop-color:#000000;stop-opacity:0.58823532;"
         offset="1"
         id="stop2904" />
    </linearGradient>
    <linearGradient
       inkscape:collect="always"
       xlink:href="#ButtonShadow-0"
       id="linearGradient3721"
       gradientUnits="userSpaceOnUse"
       gradientTransform="translate(0,-97)"
       x1="32.251034"
       y1="6.1317081"
       x2="32.251034"
       y2="90.238609" />
    <linearGradient
       id="linearGradient2907"
       gradientTransform="matrix(1.0058652,0,0,0.994169,100,0)"
       x1="45.447727"
       y1="92.539597"
       x2="45.447727"
       y2="7.0165396"
       gradientUnits="userSpaceOnUse">
      <stop
         style="stop-color:#000000;stop-opacity:1;"
         offset="0"
         id="stop2909" />
      <stop
         style="stop-color:#000000;stop-opacity:0.58823532;"
         offset="1"
         id="stop2911" />
    </linearGradient>
    <linearGradient
       y2="90.238609"
       x2="32.251034"
       y1="6.1317081"
       x1="32.251034"
       gradientTransform="matrix(1.0238095,0,0,1.0119048,-1.1428571,-98.071429)"
       gradientUnits="userSpaceOnUse"
       id="linearGradient2918"
       xlink:href="#ButtonShadow-0"
       inkscape:collect="always" />
    <linearGradient
       inkscape:collect="always"
       xlink:href="#linearGradient3690"
       id="linearGradient4105"
       x1="56"
       y1="76"
       x2="56"
       y2="32"
       gradientUnits="userSpaceOnUse" />
    <linearGradient
       id="linearGradient3690">
      <stop
         style="stop-color:#b38229;stop-opacity:1;"
         offset="0"
         id="stop3692" />
      <stop
         style="stop-color:#b38229;stop-opacity:0.47058824;"
         offset="1"
         id="stop3694" />
    </linearGradient>
    <linearGradient
       y2="32"
       x2="56"
       y1="76"
       x1="56"
       gradientUnits="userSpaceOnUse"
       id="linearGradient3218"
       xlink:href="#linearGradient3767"
       inkscape:collect="always"
       gradientTransform="matrix(1,0,0,0.90909091,0,-9.0909091)" />
    <linearGradient
       inkscape:collect="always"
       xlink:href="#linearGradient3767"
       id="linearGradient3977"
       gradientUnits="userSpaceOnUse"
       gradientTransform="matrix(1,0,0,0.90909091,0,-8.0909091)"
       x1="56"
       y1="76"
       x2="56"
       y2="32" />
    <linearGradient
       inkscape:collect="always"
       xlink:href="#linearGradient3767"
       id="linearGradient3979"
       gradientUnits="userSpaceOnUse"
       gradientTransform="matrix(1,0,0,0.90909091,0,-9.0909091)"
       x1="56"
       y1="76"
       x2="56"
       y2="32" />
    <linearGradient
       inkscape:collect="always"
       xlink:href="#linearGradient3767"
       id="linearGradient3990"
       gradientUnits="userSpaceOnUse"
       gradientTransform="matrix(1,0,0,0.90909091,40,-9.0909091)"
       x1="56"
       y1="76"
       x2="56"
       y2="32" />
    <clipPath
       clipPathUnits="userSpaceOnUse"
       id="clipPath3997">
      <path
         style="fill:#ff2a2a;fill-opacity:1;fill-rule:nonzero;stroke:none;display:inline"
         d="m 16,11 c -2.216,0 -4,1.784 -4,4 l 0,52 c 0,2.216 1.784,4 4,4 l 64,0 c 2.216,0 4,-1.784 4,-4 l 0,-52 c 0,-2.216 -1.784,-4 -4,-4 l -64,0 z m 32,9 c 12.15026,0 22,8.954309 22,20 0,11.045691 -9.84974,20 -22,20 -4.00428,0 -7.76567,-0.956813 -11,-2.65625 l 3,-4.75 c 2.35563,1.240828 5.08161,1.9375 8,1.9375 8.83656,0 16,-6.498014 16,-14.53125 0,-8.033236 -7.16344,-14.53125 -16,-14.53125 -8.83656,0 -16,6.498014 -16,14.53125 l 4,0 -3.5,5.46875 -3.5,5.4375 -3.5,-5.4375 L 22,40 26,40 C 26,28.954309 35.84974,20 48,20 z m 0,7.28125 c 1.108,0 2,0.805227 2,1.8125 l 0,10.15625 6.5,5.90625 c 0.783474,0.712246 0.886572,1.7338 0.25,2.3125 l -0.53125,0.5 c -0.636572,0.5787 -1.779026,0.462245 -2.5625,-0.25 l -7.0625,-6.4375 C 46.493589,41.190196 46.3896,41.108755 46.3125,41 45.91094,40.490237 45.801394,39.892005 46,39.40625 l 0,-10.3125 c 0,-1.007273 0.892,-1.8125 2,-1.8125 z"
         id="path3999"
         inkscape:connector-curvature="0" />
    </clipPath>
    <filter
       inkscape:collect="always"
       id="filter4001"
       x="-0.2208476"
       width="1.4416952"
       y="-0.26278972"
       height="1.5255794">
      <feGaussianBlur
         inkscape:collect="always"
         stdDeviation="4.6125071"
         id="feGaussianBlur4003" />
    </filter>
  </defs>
  <sodipodi:namedview
     id="base"
     pagecolor="#ffffff"
     bordercolor="#666666"
     borderopacity="1.0"
     inkscape:pageopacity="0.0"
     inkscape:pageshadow="2"
     inkscape:zoom="3.0051464"
     inkscape:cx="30.758176"
     inkscape:cy="-21.299019"
     inkscape:document-units="px"
     inkscape:current-layer="layer4"
     showgrid="true"
     showborder="true"
     inkscape:showpageshadow="false"
     showguides="true"
     inkscape:guide-bbox="true"
     inkscape:window-width="1920"
     inkscape:window-height="1026"
     inkscape:window-x="0"
     inkscape:window-y="25"
     inkscape:window-maximized="1">
    <inkscape:grid
       type="xygrid"
       id="grid3732"
       visible="true"
       enabled="true" />
  </sodipodi:namedview>
  <metadata
     id="metadata2413">
    <rdf:RDF>
      <cc:Work
         rdf:about="">
        <dc:format>image/svg+xml</dc:format>
        <dc:type
           rdf:resource="http://purl.org/dc/dcmitype/StillImage" />
        <dc:title></dc:title>
      </cc:Work>
    </rdf:RDF>
  </metadata>
  <g
     inkscape:groupmode="layer"
     id="layer2"
     inkscape:label="Blur Shadow"
     sodipodi:insensitive="true"
     style="display:none">
    <rect
       style="opacity:0.9;fill:url(#ButtonShadow);fill-opacity:1;fill-rule:nonzero;stroke:none;filter:url(#filter3174)"
       id="rect3745"
       width="86"
       height="85"
       x="5"
       y="7"
       rx="6"
       ry="6" />
  </g>
  <g
     inkscape:groupmode="layer"
     id="layer7"
     inkscape:label="Shadow"
     style="display:inline"
     sodipodi:insensitive="true">
    <path
       sodipodi:type="inkscape:offset"
       inkscape:radius="0.99097413"
       inkscape:original="M 12 -94.03125 C 7.028367 -94.03125 2.96875 -89.971633 2.96875 -85 L 2.96875 -14 C 2.96875 -9.0283671 7.0283671 -4.96875 12 -4.96875 L 84 -4.96875 C 88.971633 -4.96875 93.03125 -9.028367 93.03125 -14 L 93.03125 -85 C 93.03125 -89.971633 88.971633 -94.03125 84 -94.03125 L 12 -94.03125 z "
       style="opacity:0.07999998;fill:url(#linearGradient2918);fill-opacity:1;fill-rule:nonzero;stroke:none;display:inline"
       id="path3786"
       d="m 12,-95.03125 c -5.5110903,0 -10.03125,4.52016 -10.03125,10.03125 l 0,71 c 0,5.5110902 4.5201598,10.03125 10.03125,10.03125 l 72,0 c 5.51109,0 10.03125,-4.5201597 10.03125,-10.03125 l 0,-71 c 0,-5.51109 -4.52016,-10.03125 -10.03125,-10.03125 l -72,0 z"
       transform="scale(1,-1)" />
    <path
       sodipodi:type="inkscape:offset"
       inkscape:radius="1.0360184"
       inkscape:original="M 12 -93 C 7.5908667 -93 4 -89.409133 4 -85 L 4 -14 C 4 -9.5908667 7.5908667 -6 12 -6 L 84 -6 C 88.409133 -6 92 -9.5908667 92 -14 L 92 -85 C 92 -89.409133 88.409133 -93 84 -93 L 12 -93 z "
       style="opacity:0.1;fill:url(#linearGradient3780);fill-opacity:1;fill-rule:nonzero;stroke:none;display:inline"
       id="path3778"
       d="m 12,-94.03125 c -4.971633,0 -9.03125,4.059617 -9.03125,9.03125 l 0,71 c 0,4.9716329 4.0596171,9.03125 9.03125,9.03125 l 72,0 c 4.971633,0 9.03125,-4.059617 9.03125,-9.03125 l 0,-71 c 0,-4.971633 -4.059617,-9.03125 -9.03125,-9.03125 l -72,0 z"
       transform="scale(1,-1)" />
    <path
       sodipodi:type="inkscape:offset"
       inkscape:radius="0.98962283"
       inkscape:original="M 12 -92 C 8.122 -92 5 -88.878 5 -85 L 5 -14 C 5 -10.122 8.122 -7 12 -7 L 84 -7 C 87.878 -7 91 -10.122 91 -14 L 91 -85 C 91 -88.878 87.878 -92 84 -92 L 12 -92 z "
       style="opacity:0.2;fill:url(#linearGradient3772);fill-opacity:1;fill-rule:nonzero;stroke:none;display:inline"
       id="path3770"
       d="m 12,-93 c -4.4091333,0 -8,3.590867 -8,8 l 0,71 c 0,4.4091333 3.5908667,8 8,8 l 72,0 c 4.409133,0 8,-3.5908667 8,-8 l 0,-71 c 0,-4.409133 -3.590867,-8 -8,-8 l -72,0 z"
       transform="scale(1,-1)" />
    <rect
       style="opacity:0.3;fill:url(#linearGradient3725);fill-opacity:1;fill-rule:nonzero;stroke:none;display:inline"
       id="rect3723"
       width="86"
       height="85"
       x="5"
       y="-92"
       rx="7"
       ry="7"
       transform="scale(1,-1)" />
    <rect
       transform="scale(1,-1)"
       ry="6"
       rx="6"
       y="-91"
       x="6"
       height="84"
       width="84"
       id="rect3716"
       style="opacity:0.45;fill:url(#linearGradient3721);fill-opacity:1;fill-rule:nonzero;stroke:none;display:inline" />
  </g>
  <g
     inkscape:label="Facade"
     inkscape:groupmode="layer"
     id="layer1"
     sodipodi:insensitive="true">
    <path
       style="opacity:0.5;fill:url(#linearGradient3188);fill-opacity:1;fill-rule:nonzero;stroke:none;stroke-width:1;stroke-linecap:square;stroke-linejoin:round;stroke-miterlimit:4;stroke-dasharray:none;stroke-dashoffset:0;stroke-opacity:0.69658119"
       d="M 12,6 C 8.676,6 6,8.676 6,12 L 6,14 L 6,82 L 6,84 C 6,84.334721 6.0413502,84.6507 6.09375,84.96875 C 6.1424503,85.264346 6.1907895,85.565665 6.28125,85.84375 C 6.291132,85.874128 6.302142,85.907351 6.3125,85.9375 C 6.4113654,86.225271 6.5473802,86.484952 6.6875,86.75 C 6.8320918,87.023507 7.0031161,87.285615 7.1875,87.53125 C 7.3718839,87.776885 7.5612765,88.004722 7.78125,88.21875 C 8.221197,88.646806 8.72416,89.033276 9.28125,89.3125 C 9.559795,89.452112 9.8547231,89.559447 10.15625,89.65625 C 9.9000482,89.556028 9.6695391,89.419978 9.4375,89.28125 C 9.4300896,89.27682 9.413634,89.285718 9.40625,89.28125 C 9.3743166,89.261949 9.3439567,89.23874 9.3125,89.21875 C 9.192105,89.142052 9.0814774,89.055237 8.96875,88.96875 C 8.8625772,88.887951 8.7554691,88.807638 8.65625,88.71875 C 8.4783201,88.557317 8.3087904,88.373362 8.15625,88.1875 C 8.0486711,88.057245 7.9378561,87.922215 7.84375,87.78125 C 7.8186613,87.742869 7.8053042,87.69538 7.78125,87.65625 C 7.7164867,87.553218 7.6510225,87.451733 7.59375,87.34375 C 7.4927417,87.149044 7.3880752,86.928049 7.3125,86.71875 C 7.3045445,86.696942 7.2889109,86.678201 7.28125,86.65625 C 7.2494249,86.5643 7.2454455,86.469419 7.21875,86.375 C 7.1884177,86.268382 7.1483606,86.171969 7.125,86.0625 C 7.0521214,85.720988 7,85.364295 7,85 L 7,83 L 7,15 L 7,13 C 7,10.218152 9.2181517,8 12,8 L 14,8 L 82,8 L 84,8 C 86.781848,8 89,10.218152 89,13 L 89,15 L 89,83 L 89,85 C 89,85.364295 88.947879,85.720988 88.875,86.0625 C 88.830849,86.269393 88.78662,86.460158 88.71875,86.65625 C 88.711089,86.678201 88.695455,86.696942 88.6875,86.71875 C 88.624765,86.892489 88.549117,87.086199 88.46875,87.25 C 88.427165,87.332796 88.389712,87.419954 88.34375,87.5 C 88.289155,87.597212 88.216976,87.68835 88.15625,87.78125 C 88.062144,87.922215 87.951329,88.057245 87.84375,88.1875 C 87.700576,88.36195 87.540609,88.534498 87.375,88.6875 C 87.363825,88.697696 87.355019,88.708655 87.34375,88.71875 C 87.205364,88.844306 87.058659,88.953186 86.90625,89.0625 C 86.803679,89.135654 86.701932,89.215864 86.59375,89.28125 C 86.586366,89.285718 86.56991,89.27682 86.5625,89.28125 C 86.330461,89.419978 86.099952,89.556028 85.84375,89.65625 C 86.145277,89.559447 86.440205,89.452112 86.71875,89.3125 C 87.27584,89.033276 87.778803,88.646806 88.21875,88.21875 C 88.438723,88.004722 88.628116,87.776885 88.8125,87.53125 C 88.996884,87.285615 89.167908,87.023507 89.3125,86.75 C 89.45262,86.484952 89.588635,86.225271 89.6875,85.9375 C 89.697907,85.906718 89.70883,85.874759 89.71875,85.84375 C 89.80921,85.565665 89.85755,85.264346 89.90625,84.96875 C 89.95865,84.6507 90,84.334721 90,84 L 90,82 L 90,14 L 90,12 C 90,8.676 87.324,6 84,6 L 12,6 z"
       id="rect3728" />
    <path
       style="opacity:1;fill:#cacaca;fill-opacity:1;fill-rule:nonzero;stroke:none;stroke-width:1;stroke-linecap:square;stroke-linejoin:round;stroke-miterlimit:4;stroke-dasharray:none;stroke-dashoffset:0;stroke-opacity:0.69658119"
       d="M 90,64.1875 L 90,84 C 90,87.324 87.324,90 84,90 L 12,90 C 8.676,90 6,87.324 6,84 L 6,64.1875 L 90,64.1875 z"
       id="rect3243" />
    <path
       id="path3309"
       d="M 6,73 L 6,74 C 6,77.324 8.676,80 12,80 L 84,80 C 87.324,80 90,77.324 90,74 L 90,73 C 90,76.324 87.324,79 84,79 L 12,79 C 8.676,79 6,76.324 6,73 z"
       style="opacity:1;fill:#999999;fill-opacity:1;fill-rule:nonzero;stroke:none;stroke-width:1;stroke-linecap:square;stroke-linejoin:round;stroke-miterlimit:4;stroke-dasharray:none;stroke-dashoffset:0;stroke-opacity:0.69658119" />
    <path
       sodipodi:nodetypes="cccccc"
       id="path3285"
       d="M 90.030615,64.1875 L 90.030615,84 C 90.030615,87.324 87.354615,90 84.030615,90 L 64,90 L 64,64.1875 L 90.030615,64.1875 z"
       style="opacity:0.8;fill:url(#linearGradient3287);fill-opacity:1;fill-rule:nonzero;stroke:none;stroke-width:1;stroke-linecap:square;stroke-linejoin:round;stroke-miterlimit:4;stroke-dasharray:none;stroke-dashoffset:0;stroke-opacity:0.69658119" />
    <path
       style="opacity:0.8;fill:url(#linearGradient3279);fill-opacity:1;fill-rule:nonzero;stroke:none;stroke-width:1;stroke-linecap:square;stroke-linejoin:round;stroke-miterlimit:4;stroke-dasharray:none;stroke-dashoffset:0;stroke-opacity:0.69658119"
       d="M 6,64.1875 L 6,84 C 6,87.324 8.676,90 12,90 L 32,90 L 32,64.1875 L 6,64.1875 z"
       id="path3263"
       sodipodi:nodetypes="cccccc" />
    <path
       id="path3299"
       d="M 90,64.1875 L 90,84 C 90,87.324 87.324,90 84,90 L 12,90 C 8.676,90 6,87.324 6,84 L 6,64.1875 L 90,64.1875 z"
       style="opacity:0.2;fill:url(#linearGradient3460);fill-opacity:1;fill-rule:nonzero;stroke:none;stroke-width:1;stroke-linecap:square;stroke-linejoin:round;stroke-miterlimit:4;stroke-dasharray:none;stroke-dashoffset:0;stroke-opacity:0.69658119" />
    <path
       style="opacity:1;fill:#252525;fill-opacity:1;fill-rule:nonzero;stroke:none;stroke-width:1;stroke-linecap:square;stroke-linejoin:round;stroke-miterlimit:4;stroke-dasharray:none;stroke-dashoffset:0;stroke-opacity:0.69658119"
       d="M 6,74 L 6,80 C 6,83.324 8.676,86 12,86 L 84,86 C 87.324,86 90,83.324 90,80 L 90,74 C 90,77.324 87.324,80 84,80 L 12,80 C 8.676,80 6,77.324 6,74 z"
       id="path3298"
       sodipodi:nodetypes="ccccccccc" />
    <path
       style="opacity:1;fill:#ececec;fill-opacity:1;fill-rule:nonzero;stroke:none;stroke-width:1;stroke-linecap:square;stroke-linejoin:round;stroke-miterlimit:4;stroke-dasharray:none;stroke-dashoffset:0;stroke-opacity:0.69658119"
       d="M 6,80 L 6,81 C 6,84.324 8.676,87 12,87 L 84,87 C 87.324,87 90,84.324 90,81 L 90,80 C 90,83.324 87.324,86 84,86 L 12,86 C 8.676,86 6,83.324 6,80 z"
       id="path3304" />
    <path
       id="path4132"
       d="M 6,74 L 6,76 C 6,79.324 8.676,82 12,82 L 84,82 C 87.324,82 90,79.324 90,76 L 90,74 C 90,77.324 87.324,80 84,80 L 12,80 C 8.676,80 6,77.324 6,74 z"
       style="opacity:1;fill:url(#linearGradient4196);fill-opacity:1;fill-rule:nonzero;stroke:none;stroke-width:1;stroke-linecap:square;stroke-linejoin:round;stroke-miterlimit:4;stroke-dasharray:none;stroke-dashoffset:0;stroke-opacity:0.69658119" />
  </g>
  <g
     inkscape:groupmode="layer"
     id="layer3"
     inkscape:label="Top"
     style="display:inline"
     sodipodi:insensitive="true">
    <rect
       ry="6"
       rx="6"
       y="6"
       x="6"
       height="70"
       width="84"
       id="rect3171"
       style="opacity:1;fill:url(#linearGradient3179);fill-opacity:1;fill-rule:nonzero;stroke:none;stroke-width:1;stroke-linecap:square;stroke-linejoin:round;stroke-miterlimit:4;stroke-dasharray:none;stroke-dashoffset:0;stroke-opacity:0.69658119" />
    <path
       style="opacity:0.7;fill:url(#linearGradient3551);fill-opacity:1;fill-rule:nonzero;stroke:none;stroke-width:1;stroke-linecap:square;stroke-linejoin:round;stroke-miterlimit:4;stroke-dasharray:none;stroke-dashoffset:0;stroke-opacity:0.69658119"
       d="M 12,76 C 8.676,76 6,73.324 6,70 L 6,12 C 6,8.676 8.676,6 12,6 L 84,6 C 87.324,6 90,8.676 90,12 L 90,70 C 90,73.324 87.324,76 84,76 L 12,76 z M 12,74 L 84,74 C 86.781848,74 89,71.804608 89,69.0625 L 89,11.9375 C 89,9.195393 86.781848,6.999999 84,7 L 12,7 C 9.2181517,7 7,9.195389 7,11.9375 L 7,69.0625 C 7,71.804608 9.2181517,74 12,74 z"
       id="rect3213"
       sodipodi:nodetypes="cccccccccccccccccc" />
    <path
       style="opacity:0.1;fill:url(#linearGradient3454);fill-opacity:1;fill-rule:nonzero;stroke:none;stroke-width:1;stroke-linecap:square;stroke-linejoin:round;stroke-miterlimit:4;stroke-dasharray:none;stroke-dashoffset:0;stroke-opacity:0.69658119"
       d="M 90,70 L 90,71 C 90,74.324 87.324,77 84,77 L 12,77 C 8.676,77 6,74.324 6,71 L 6,70 C 6,72.984862 8.152831,75.43487 11,75.90625 C 11.326884,75.971636 11.652269,76 12,76 L 84,76 C 84.166304,76 84.337194,75.981893 84.5,75.96875 C 84.541614,75.964627 84.583708,75.973857 84.625,75.96875 C 84.752873,75.955841 84.874673,75.926999 85,75.90625 C 87.847169,75.43487 90,72.984862 90,70 z"
       id="path3443"
       sodipodi:nodetypes="cccccccccsssc" />
    <path
       style="opacity:0.3;fill:url(#linearGradient3781);fill-opacity:1;fill-rule:evenodd;stroke:none;stroke-width:1px;stroke-linecap:butt;stroke-linejoin:miter;stroke-opacity:1;filter:url(#filter3829)"
       d="M 72.785673,73.316552 C 37.497632,71.660468 32.655921,60.569503 56.214438,35.565764 C 29.558784,43.997531 16.947902,55.85465 7.5798689,63.939487 C -2.370079,72.601777 6.9889853,83.779979 17.934257,82.851623 C 29.277258,82.844109 63.736131,80.753762 72.785673,73.316552 z"
       id="path3295"
       clip-path="url(#clipPath3785)"
       sodipodi:nodetypes="ccccc"
       transform="translate(0,-2)" />
  </g>
  <g
     inkscape:groupmode="layer"
     id="layer5"
     inkscape:label="Light"
     sodipodi:insensitive="true"
     style="display:inline">
    <rect
       ry="5.9999933"
       rx="6.7435069"
       y="80.000008"
       x="10.910714"
       height="5.9999933"
       width="74.178574"
       id="rect3323"
       style="opacity:0.6;fill:#0066ff;fill-opacity:1;fill-rule:nonzero;stroke:none;display:inline;filter:url(#filter4180)" />
    <rect
       style="fill:url(#radialGradient4138);fill-opacity:1;fill-rule:nonzero;stroke:none;display:inline"
       id="rect3311"
       width="64"
       height="4"
       x="16"
       y="81"
       rx="5.818182"
       ry="4" />
  </g>
  <g
     inkscape:groupmode="layer"
     id="layer4"
     inkscape:label="Symbol">
    <path
       style="opacity:1;color:#000000;fill:url(#linearGradient3218);fill-opacity:1;stroke:none;stroke-width:1.50000000000000000;marker:none;visibility:visible;display:inline;overflow:visible;enable-background:accumulate"
       d="M 48,20 C 35.84974,20 26,28.954309 26,40 l -4,0 3.5,5.454545 3.5,5.454546 3.5,-5.454546 L 36,40 32,40 c 0,-8.033236 7.16344,-14.545455 16,-14.545455 8.83656,0 16,6.512219 16,14.545455 0,8.033236 -7.16344,14.545455 -16,14.545455 -2.91839,0 -5.64437,-0.7194 -8,-1.960228 l -3,4.744318 C 40.23433,59.028982 43.99572,60 48,60 60.15026,60 70,51.045691 70,40 70,28.954309 60.15026,20 48,20 z m 0,7.272727 c -1.108,0 -2,0.810909 -2,1.818182 l 0,10.3125 c -0.198606,0.485755 -0.08906,1.081146 0.3125,1.590909 0.0771,0.108755 0.181089,0.193037 0.28125,0.284091 l 7.0625,6.448864 c 0.783474,0.712245 1.925928,0.805972 2.5625,0.227272 L 56.75,47.471591 c 0.636572,-0.5787 0.533474,-1.6173 -0.25,-2.329546 L 50,39.261364 50,29.090909 c 0,-1.007273 -0.892,-1.818182 -2,-1.818182 z"
       id="path4090"
       inkscape:connector-curvature="0" />
    <path
       style="opacity:0.4;color:#000000;fill:#000000;fill-opacity:1;stroke:none;stroke-width:1.50000000000000000;marker:none;visibility:visible;display:inline;overflow:visible;enable-background:accumulate"
       d="M 48 20 C 35.84974 20 26 28.954309 26 40 L 22 40 L 22.625 41 L 26 41 C 26 29.954309 35.84974 21 48 21 C 59.966334 21 69.708015 29.685422 70 40.5 C 70.004488 40.333777 70 40.167205 70 40 C 70 28.954309 60.15026 20 48 20 z M 48 27.28125 C 46.892 27.28125 46 28.086477 46 29.09375 L 46 30.09375 C 46 29.086477 46.892 28.28125 48 28.28125 C 49.108 28.28125 50 29.086477 50 30.09375 L 50 29.09375 C 50 28.086477 49.108 27.28125 48 27.28125 z M 50 39.25 L 50 40.25 L 56.5 46.15625 C 56.78536 46.415667 56.991771 46.691985 57.09375 47 C 57.31253 46.426292 57.096692 45.698695 56.5 45.15625 L 50 39.25 z M 46 39.40625 C 45.877616 39.70558 45.892136 40.038097 46 40.375 L 46 39.40625 z M 32.0625 40 C 32.038024 40.329076 32 40.665282 32 41 L 35.375 41 L 36 40 L 32.0625 40 z M 63.96875 40.5 C 63.678825 48.3017 56.652465 54.53125 48 54.53125 C 45.08161 54.53125 42.35563 53.834578 40 52.59375 L 37 57.34375 C 37.159366 57.427487 37.338109 57.482329 37.5 57.5625 L 40 53.59375 C 42.35563 54.834578 45.08161 55.53125 48 55.53125 C 56.83656 55.53125 64 49.033236 64 41 C 64 40.832641 63.974919 40.665994 63.96875 40.5 z "
       id="path3973" />
    <path
       sodipodi:type="inkscape:offset"
       inkscape:radius="1.0683647"
       inkscape:original="M 48 20 C 35.84974 20 26 28.954309 26 40 L 22 40 L 25.5 45.46875 L 29 50.90625 L 32.5 45.46875 L 36 40 L 32 40 C 32 31.966764 39.16344 25.46875 48 25.46875 C 56.83656 25.46875 64 31.966764 64 40 C 64 48.033236 56.83656 54.53125 48 54.53125 C 45.08161 54.53125 42.35563 53.834578 40 52.59375 L 37 57.34375 C 40.23433 59.043187 43.99572 60 48 60 C 60.15026 60 70 51.045691 70 40 C 70 28.954309 60.15026 20 48 20 z M 48 27.28125 C 46.892 27.28125 46 28.086477 46 29.09375 L 46 39.40625 C 45.801394 39.892005 45.91094 40.490237 46.3125 41 C 46.3896 41.108755 46.493589 41.190196 46.59375 41.28125 L 53.65625 47.71875 C 54.439724 48.430995 55.582178 48.54745 56.21875 47.96875 L 56.75 47.46875 C 57.386572 46.89005 57.283474 45.868496 56.5 45.15625 L 50 39.25 L 50 29.09375 C 50 28.086477 49.108 27.28125 48 27.28125 z "
       style="color:#000000;fill:#ffffff;fill-opacity:1;stroke:none;stroke-width:1.50000000000000000;marker:none;visibility:visible;display:inline;overflow:visible;enable-background:accumulate;filter:url(#filter4001);opacity:0.8"
       id="path3995"
       d="m 48,18.9375 c -12.278742,0 -22.315422,8.830181 -22.9375,20 l -3.0625,0 a 1.0684716,1.0684716 0 0 0 -0.90625,1.625 l 3.5,5.46875 a 1.0684716,1.0684716 0 0 0 0,0.03125 l 3.5,5.4375 a 1.0684716,1.0684716 0 0 0 1.8125,0 l 3.5,-5.4375 a 1.0684716,1.0684716 0 0 0 0,-0.03125 l 3.5,-5.46875 A 1.0684716,1.0684716 0 0 0 36,38.9375 l -2.8125,0 c 0.581564,-6.569174 6.338841,-11.826145 13.71875,-12.3125 -1.084593,0.429411 -1.96875,1.245442 -1.96875,2.46875 l 0,10.3125 0.03125,0 c -0.163133,0.772378 -0.02043,1.580311 0.46875,2.21875 0.0086,0.0112 0.02251,0.02016 0.03125,0.03125 0.177305,0.234284 0.348269,0.35354 0.40625,0.40625 L 52.9375,48.5 c 1.123092,1.020987 2.839862,1.304668 4,0.25 l 0.53125,-0.5 c 0.571056,-0.51914 0.825417,-1.287888 0.75,-2 -0.07542,-0.712112 -0.437406,-1.363553 -1,-1.875 l -6.15625,-5.59375 0,-9.6875 c 0,-1.223308 -0.884157,-2.039339 -1.96875,-2.46875 7.782739,0.512902 13.84375,6.31035 13.84375,13.375 0,7.398111 -6.624692,13.46875 -14.9375,13.46875 -2.748365,0 -5.299174,-0.653215 -7.5,-1.8125 a 1.0684716,1.0684716 0 0 0 -1.40625,0.375 l -3,4.75 a 1.0684716,1.0684716 0 0 0 0.40625,1.5 C 39.890084,60.062526 43.825531,61.0625 48,61.0625 60.675158,61.0625 71.0625,51.680817 71.0625,40 71.0625,28.319183 60.675158,18.9375 48,18.9375 z"
       clip-path="url(#clipPath3997)" />
  </g>
</svg>
