<?xml version="1.0" encoding="UTF-8" standalone="no"?>
<!-- Created with Inkscape (http://www.inkscape.org/) -->

<svg
   xmlns:dc="http://purl.org/dc/elements/1.1/"
   xmlns:cc="http://creativecommons.org/ns#"
   xmlns:rdf="http://www.w3.org/1999/02/22-rdf-syntax-ns#"
   xmlns:svg="http://www.w3.org/2000/svg"
   xmlns="http://www.w3.org/2000/svg"
   xmlns:xlink="http://www.w3.org/1999/xlink"
   xmlns:sodipodi="http://sodipodi.sourceforge.net/DTD/sodipodi-0.dtd"
   xmlns:inkscape="http://www.inkscape.org/namespaces/inkscape"
   width="96"
   height="96"
   id="svg2408"
   sodipodi:version="0.32"
   inkscape:version="0.47 r22583"
   version="1.0"
   sodipodi:docname="evince.svg"
   inkscape:output_extension="org.inkscape.output.svg.inkscape">
  <defs
     id="defs2410">
    <linearGradient
       id="ButtonShadow"
       gradientTransform="scale(1.0058652,0.994169)"
       x1="45.447727"
       y1="92.539597"
       x2="45.447727"
       y2="7.0165396"
       gradientUnits="userSpaceOnUse">
      <stop
         style="stop-color:#000000;stop-opacity:1;"
         offset="0"
         id="stop3750" />
      <stop
         style="stop-color:#000000;stop-opacity:0.58823532;"
         offset="1"
         id="stop3752" />
    </linearGradient>
    <linearGradient
       inkscape:collect="always"
       id="linearGradient3737">
      <stop
         style="stop-color:#ffffff;stop-opacity:1;"
         offset="0"
         id="stop3739" />
      <stop
         style="stop-color:#ffffff;stop-opacity:0;"
         offset="1"
         id="stop3741" />
    </linearGradient>
    <linearGradient
       id="linearGradient3700">
      <stop
         style="stop-color:#2276c5;stop-opacity:1;"
         offset="0"
         id="stop3702" />
      <stop
         style="stop-color:#68baf4;stop-opacity:1;"
         offset="1"
         id="stop3704" />
    </linearGradient>
    <inkscape:perspective
       sodipodi:type="inkscape:persp3d"
       inkscape:vp_x="0 : 526.18109 : 1"
       inkscape:vp_y="0 : 1000 : 0"
       inkscape:vp_z="744.09448 : 526.18109 : 1"
       inkscape:persp3d-origin="372.04724 : 350.78739 : 1"
       id="perspective2416" />
    <linearGradient
       inkscape:collect="always"
       xlink:href="#linearGradient3700"
       id="linearGradient3706"
       x1="48"
       y1="90"
       x2="48"
       y2="5.9877172"
       gradientUnits="userSpaceOnUse" />
    <linearGradient
       inkscape:collect="always"
       xlink:href="#linearGradient3737"
       id="linearGradient3743"
       x1="36.357143"
       y1="6"
       x2="36.357143"
       y2="63.893143"
       gradientUnits="userSpaceOnUse" />
    <filter
       inkscape:collect="always"
       id="filter3174">
      <feGaussianBlur
         inkscape:collect="always"
         stdDeviation="1.71"
         id="feGaussianBlur3176" />
    </filter>
    <linearGradient
       inkscape:collect="always"
       xlink:href="#linearGradient3737"
       id="linearGradient3188"
       gradientUnits="userSpaceOnUse"
       x1="36.357143"
       y1="6"
       x2="36.357143"
       y2="63.893143" />
    <filter
       inkscape:collect="always"
       id="filter3794"
       x="-0.192"
       width="1.384"
       y="-0.192"
       height="1.384">
      <feGaussianBlur
         inkscape:collect="always"
         stdDeviation="5.28"
         id="feGaussianBlur3796" />
    </filter>
    <linearGradient
       inkscape:collect="always"
       xlink:href="#linearGradient3737"
       id="linearGradient3613"
       x1="48"
       y1="20.220806"
       x2="48"
       y2="138.66119"
       gradientUnits="userSpaceOnUse" />
    <radialGradient
       inkscape:collect="always"
       xlink:href="#linearGradient3737"
       id="radialGradient3619"
       cx="48"
       cy="90.171875"
       fx="48"
       fy="90.171875"
       r="42"
       gradientTransform="matrix(1.1573129,0,0,0.99590774,-7.5510206,0.19713193)"
       gradientUnits="userSpaceOnUse" />
    <clipPath
       clipPathUnits="userSpaceOnUse"
       id="clipPath3613">
      <rect
         ry="6"
         rx="6"
         y="6"
         x="6"
         height="84"
         width="84"
         id="rect3615"
         style="fill:#ffffff;fill-opacity:1;fill-rule:nonzero;stroke:none" />
    </clipPath>
    <linearGradient
       inkscape:collect="always"
       xlink:href="#linearGradient4598"
       id="linearGradient3617"
       gradientUnits="userSpaceOnUse"
       x1="48"
       y1="90"
       x2="48"
       y2="5.9877172"
       gradientTransform="translate(0,-96)" />
    <inkscape:perspective
       id="perspective2985"
       inkscape:persp3d-origin="0.5 : 0.33333333 : 1"
       inkscape:vp_z="1 : 0.5 : 1"
       inkscape:vp_y="0 : 1000 : 0"
       inkscape:vp_x="0 : 0.5 : 1"
       sodipodi:type="inkscape:persp3d" />
    <linearGradient
       inkscape:collect="always"
       xlink:href="#ButtonShadow-0"
       id="linearGradient3788"
       gradientUnits="userSpaceOnUse"
       gradientTransform="matrix(1.0238095,0,0,1.0119048,-1.1428571,-98.071429)"
       x1="32.251034"
       y1="6.1317081"
       x2="32.251034"
       y2="90.238609" />
    <linearGradient
       id="ButtonShadow-0"
       gradientTransform="matrix(1.0058652,0,0,0.994169,100,0)"
       x1="45.447727"
       y1="92.539597"
       x2="45.447727"
       y2="7.0165396"
       gradientUnits="userSpaceOnUse">
      <stop
         style="stop-color:#000000;stop-opacity:1;"
         offset="0"
         id="stop3750-8" />
      <stop
         style="stop-color:#000000;stop-opacity:0.58823532;"
         offset="1"
         id="stop3752-5" />
    </linearGradient>
    <linearGradient
       inkscape:collect="always"
       xlink:href="#ButtonShadow-0"
       id="linearGradient3780"
       gradientUnits="userSpaceOnUse"
       gradientTransform="matrix(1.0238095,0,0,1.0119048,-1.1428571,-98.071429)"
       x1="32.251034"
       y1="6.1317081"
       x2="32.251034"
       y2="90.238609" />
    <linearGradient
       id="linearGradient2994"
       gradientTransform="matrix(1.0058652,0,0,0.994169,100,0)"
       x1="45.447727"
       y1="92.539597"
       x2="45.447727"
       y2="7.0165396"
       gradientUnits="userSpaceOnUse">
      <stop
         style="stop-color:#000000;stop-opacity:1;"
         offset="0"
         id="stop2996" />
      <stop
         style="stop-color:#000000;stop-opacity:0.58823532;"
         offset="1"
         id="stop2998" />
    </linearGradient>
    <linearGradient
       inkscape:collect="always"
       xlink:href="#ButtonShadow-0"
       id="linearGradient3772"
       gradientUnits="userSpaceOnUse"
       gradientTransform="matrix(1.0238095,0,0,1.0119048,-1.1428571,-98.071429)"
       x1="32.251034"
       y1="6.1317081"
       x2="32.251034"
       y2="90.238609" />
    <linearGradient
       id="linearGradient3001"
       gradientTransform="matrix(1.0058652,0,0,0.994169,100,0)"
       x1="45.447727"
       y1="92.539597"
       x2="45.447727"
       y2="7.0165396"
       gradientUnits="userSpaceOnUse">
      <stop
         style="stop-color:#000000;stop-opacity:1;"
         offset="0"
         id="stop3003" />
      <stop
         style="stop-color:#000000;stop-opacity:0.58823532;"
         offset="1"
         id="stop3005" />
    </linearGradient>
    <linearGradient
       inkscape:collect="always"
       xlink:href="#ButtonShadow-0"
       id="linearGradient3725"
       gradientUnits="userSpaceOnUse"
       gradientTransform="matrix(1.0238095,0,0,1.0119048,-1.1428571,-98.071429)"
       x1="32.251034"
       y1="6.1317081"
       x2="32.251034"
       y2="90.238609" />
    <linearGradient
       id="linearGradient3008"
       gradientTransform="matrix(1.0058652,0,0,0.994169,100,0)"
       x1="45.447727"
       y1="92.539597"
       x2="45.447727"
       y2="7.0165396"
       gradientUnits="userSpaceOnUse">
      <stop
         style="stop-color:#000000;stop-opacity:1;"
         offset="0"
         id="stop3010" />
      <stop
         style="stop-color:#000000;stop-opacity:0.58823532;"
         offset="1"
         id="stop3012" />
    </linearGradient>
    <linearGradient
       inkscape:collect="always"
       xlink:href="#ButtonShadow-0"
       id="linearGradient3721"
       gradientUnits="userSpaceOnUse"
       gradientTransform="translate(0,-97)"
       x1="32.251034"
       y1="6.1317081"
       x2="32.251034"
       y2="90.238609" />
    <linearGradient
       id="linearGradient3015"
       gradientTransform="matrix(1.0058652,0,0,0.994169,100,0)"
       x1="45.447727"
       y1="92.539597"
       x2="45.447727"
       y2="7.0165396"
       gradientUnits="userSpaceOnUse">
      <stop
         style="stop-color:#000000;stop-opacity:1;"
         offset="0"
         id="stop3017" />
      <stop
         style="stop-color:#000000;stop-opacity:0.58823532;"
         offset="1"
         id="stop3019" />
    </linearGradient>
    <linearGradient
       y2="90.238609"
       x2="32.251034"
       y1="6.1317081"
       x1="32.251034"
       gradientTransform="matrix(1.0238095,0,0,1.0119048,-1.1428571,-98.071429)"
       gradientUnits="userSpaceOnUse"
       id="linearGradient3026"
       xlink:href="#ButtonShadow-0"
       inkscape:collect="always" />
    <radialGradient
       gradientUnits="userSpaceOnUse"
       gradientTransform="matrix(0.863137,0,0,0.438896,3.556549,15.03019)"
       r="15.465359"
       fy="26.786797"
       fx="25.986174"
       cy="26.786797"
       cx="25.986174"
       id="radialGradient3513"
       xlink:href="#linearGradient3507"
       inkscape:collect="always" />
    <radialGradient
       gradientUnits="userSpaceOnUse"
       gradientTransform="matrix(2.476948,0,7.838822e-8,1.851413,-36.36402,-15.71214)"
       r="19.378943"
       fy="19.188286"
       fx="24.621058"
       cy="19.188286"
       cx="24.621058"
       id="radialGradient3503"
       xlink:href="#linearGradient3497"
       inkscape:collect="always" />
    <radialGradient
       gradientUnits="userSpaceOnUse"
       gradientTransform="matrix(2.319263,0,0,2.374685,-32.32511,-17.59985)"
       r="20.507692"
       fy="12.604746"
       fx="24.502396"
       cy="12.604746"
       cx="24.502396"
       id="radialGradient4604"
       xlink:href="#linearGradient4598"
       inkscape:collect="always" />
    <linearGradient
       gradientTransform="translate(-0.068085,-5.100256)"
       gradientUnits="userSpaceOnUse"
       y2="24.109001"
       x2="53.568085"
       y1="24.109001"
       x1="24.689142"
       id="linearGradient4596"
       xlink:href="#linearGradient4590"
       inkscape:collect="always" />
    <radialGradient
       gradientUnits="userSpaceOnUse"
       gradientTransform="matrix(1,0,0,0.420118,0,22.39793)"
       r="21.125"
       fy="38.625"
       fx="24.625"
       cy="38.625"
       cx="24.625"
       id="radialGradient4588"
       xlink:href="#linearGradient4582"
       inkscape:collect="always" />
    <radialGradient
       r="20.530962"
       fy="35.878170"
       fx="24.445690"
       cy="35.878170"
       cx="24.445690"
       gradientTransform="matrix(2.049266,-1.696401e-32,0.000000,2.049266,-25.65002,-37.31089)"
       gradientUnits="userSpaceOnUse"
       id="radialGradient1366"
       xlink:href="#linearGradient11520"
       inkscape:collect="always" />
    <radialGradient
       r="6.5659914"
       fy="44.565483"
       fx="30.203562"
       cy="44.565483"
       cx="30.203562"
       gradientTransform="matrix(1.000000,0.000000,0.000000,0.338462,2.220359e-14,29.48178)"
       gradientUnits="userSpaceOnUse"
       id="radialGradient1356"
       xlink:href="#linearGradient11508"
       inkscape:collect="always" />
    <radialGradient
       r="3.8335034"
       fy="15.048258"
       fx="27.577173"
       cy="15.048258"
       cx="27.577173"
       gradientTransform="matrix(1.243453,2.106784e-16,-2.106784e-16,1.243453,-6.713754,-3.742847)"
       gradientUnits="userSpaceOnUse"
       id="radialGradient1354"
       xlink:href="#linearGradient11494"
       inkscape:collect="always" />
    <radialGradient
       r="3.8335034"
       fy="16.049133"
       fx="27.577173"
       cy="16.049133"
       cx="27.577173"
       gradientTransform="matrix(1.243453,2.106784e-16,-2.106784e-16,1.243453,-6.713754,-3.742847)"
       gradientUnits="userSpaceOnUse"
       id="radialGradient1352"
       xlink:href="#linearGradient11494"
       inkscape:collect="always" />
    <radialGradient
       r="20.530962"
       fy="35.878170"
       fx="24.445690"
       cy="35.878170"
       cx="24.445690"
       gradientTransform="matrix(1.995058,-1.651527e-32,0.000000,1.995058,-24.32488,-35.70087)"
       gradientUnits="userSpaceOnUse"
       id="radialGradient1350"
       xlink:href="#linearGradient11520"
       inkscape:collect="always" />
    <radialGradient
       r="6.5659914"
       fy="44.565483"
       fx="30.203562"
       cy="44.565483"
       cx="30.203562"
       gradientTransform="matrix(1.000000,0.000000,0.000000,0.338462,-1.353344e-14,29.48178)"
       gradientUnits="userSpaceOnUse"
       id="radialGradient1348"
       xlink:href="#linearGradient11508"
       inkscape:collect="always" />
    <radialGradient
       inkscape:collect="always"
       xlink:href="#linearGradient11508"
       id="radialGradient11532"
       gradientUnits="userSpaceOnUse"
       gradientTransform="matrix(1.000000,0.000000,0.000000,0.338462,3.185827e-15,29.48178)"
       cx="30.203562"
       cy="44.565483"
       fx="30.203562"
       fy="44.565483"
       r="6.5659914" />
    <radialGradient
       inkscape:collect="always"
       xlink:href="#linearGradient11520"
       id="radialGradient11526"
       cx="24.445690"
       cy="35.878170"
       fx="24.445690"
       fy="35.878170"
       r="20.530962"
       gradientUnits="userSpaceOnUse"
       gradientTransform="matrix(1.995058,-1.651527e-32,0.000000,1.995058,-24.32488,-35.70087)" />
    <radialGradient
       inkscape:collect="always"
       xlink:href="#linearGradient11508"
       id="radialGradient11514"
       cx="30.203562"
       cy="44.565483"
       fx="30.203562"
       fy="44.565483"
       r="6.5659914"
       gradientTransform="matrix(1.000000,0.000000,0.000000,0.338462,2.166583e-14,29.48178)"
       gradientUnits="userSpaceOnUse" />
    <radialGradient
       inkscape:collect="always"
       xlink:href="#linearGradient11494"
       id="radialGradient11504"
       gradientUnits="userSpaceOnUse"
       gradientTransform="matrix(1.243453,2.106784e-16,-2.106784e-16,1.243453,-6.713754,-3.742847)"
       cx="27.577173"
       cy="16.049133"
       fx="27.577173"
       fy="16.049133"
       r="3.8335034" />
    <radialGradient
       inkscape:collect="always"
       xlink:href="#linearGradient11494"
       id="radialGradient11500"
       cx="27.577173"
       cy="15.048258"
       fx="27.577173"
       fy="15.048258"
       r="3.8335034"
       gradientUnits="userSpaceOnUse"
       gradientTransform="matrix(1.243453,2.106784e-16,-2.106784e-16,1.243453,-6.713754,-3.742847)" />
    <radialGradient
       inkscape:collect="always"
       xlink:href="#linearGradient11399"
       id="radialGradient11441"
       gradientUnits="userSpaceOnUse"
       gradientTransform="matrix(1.000000,0.000000,0.000000,0.487395,0.000000,20.06483)"
       cx="12.071428"
       cy="39.142857"
       fx="12.071428"
       fy="39.142857"
       r="8.5000000" />
    <linearGradient
       inkscape:collect="always"
       xlink:href="#linearGradient11415"
       id="linearGradient11439"
       gradientUnits="userSpaceOnUse"
       gradientTransform="translate(-60.85714,0.428571)"
       x1="13.267134"
       y1="19.774456"
       x2="26.758644"
       y2="33.462429" />
    <linearGradient
       inkscape:collect="always"
       xlink:href="#linearGradient11415"
       id="linearGradient11427"
       gradientUnits="userSpaceOnUse"
       x1="9.6957054"
       y1="9.3458843"
       x2="35.679932"
       y2="39.033859"
       gradientTransform="translate(-60.57143,0.000000)" />
    <linearGradient
       inkscape:collect="always"
       xlink:href="#linearGradient11415"
       id="linearGradient11425"
       gradientUnits="userSpaceOnUse"
       x1="15.828360"
       y1="3.7744560"
       x2="43.615788"
       y2="34.462429"
       gradientTransform="translate(-60.28571,-0.285714)" />
    <linearGradient
       inkscape:collect="always"
       id="linearGradient11399">
      <stop
         style="stop-color:#000000;stop-opacity:1;"
         offset="0"
         id="stop11401" />
      <stop
         style="stop-color:#000000;stop-opacity:0;"
         offset="1"
         id="stop11403" />
    </linearGradient>
    <linearGradient
       id="linearGradient11415">
      <stop
         style="stop-color:#204a87;stop-opacity:0.0000000;"
         offset="0.0000000"
         id="stop11417" />
      <stop
         id="stop11423"
         offset="0.50000000"
         style="stop-color:#204a87;stop-opacity:1.0000000;" />
      <stop
         style="stop-color:#204a87;stop-opacity:0;"
         offset="1"
         id="stop11419" />
    </linearGradient>
    <linearGradient
       inkscape:collect="always"
       id="linearGradient11494">
      <stop
         style="stop-color:#ef2929;stop-opacity:1;"
         offset="0"
         id="stop11496" />
      <stop
         style="stop-color:#ef2929;stop-opacity:0;"
         offset="1"
         id="stop11498" />
    </linearGradient>
    <linearGradient
       inkscape:collect="always"
       id="linearGradient11508">
      <stop
         style="stop-color:#000000;stop-opacity:1;"
         offset="0"
         id="stop11510" />
      <stop
         style="stop-color:#000000;stop-opacity:0;"
         offset="1"
         id="stop11512" />
    </linearGradient>
    <linearGradient
       id="linearGradient11520">
      <stop
         style="stop-color:#ffffff;stop-opacity:1.0000000;"
         offset="0.0000000"
         id="stop11522" />
      <stop
         style="stop-color:#dcdcdc;stop-opacity:1.0000000;"
         offset="1.0000000"
         id="stop11524" />
    </linearGradient>
    <linearGradient
       id="linearGradient4570">
      <stop
         id="stop4572"
         offset="0"
         style="stop-color:#eceeea;stop-opacity:1;" />
      <stop
         id="stop4574"
         offset="1"
         style="stop-color:#d3d7cf;stop-opacity:1;" />
    </linearGradient>
    <linearGradient
       id="linearGradient4582"
       inkscape:collect="always">
      <stop
         id="stop4584"
         offset="0"
         style="stop-color:#000000;stop-opacity:1;" />
      <stop
         id="stop4586"
         offset="1"
         style="stop-color:#000000;stop-opacity:0;" />
    </linearGradient>
    <linearGradient
       id="linearGradient4590">
      <stop
         id="stop4592"
         offset="0"
         style="stop-color:#cc0000;stop-opacity:1;" />
      <stop
         id="stop4594"
         offset="1"
         style="stop-color:#ffa2a2;stop-opacity:1;" />
    </linearGradient>
    <linearGradient
       id="linearGradient4598">
      <stop
         id="stop4600"
         offset="0"
         style="stop-color:#e6eef7;stop-opacity:1;" />
      <stop
         id="stop4602"
         offset="1"
         style="stop-color:#8ab0d8;stop-opacity:1;" />
    </linearGradient>
    <linearGradient
       id="linearGradient3497">
      <stop
         id="stop3499"
         offset="0"
         style="stop-color:#ffffff;stop-opacity:1;" />
      <stop
         id="stop3501"
         offset="1"
         style="stop-color:#ffffff;stop-opacity:0.56730771;" />
    </linearGradient>
    <linearGradient
       id="linearGradient3507"
       inkscape:collect="always">
      <stop
         id="stop3509"
         offset="0"
         style="stop-color:#000000;stop-opacity:1;" />
      <stop
         id="stop3511"
         offset="1"
         style="stop-color:#000000;stop-opacity:0;" />
    </linearGradient>
    <inkscape:perspective
       id="perspective2937"
       inkscape:persp3d-origin="24 : 16 : 1"
       inkscape:vp_z="48 : 24 : 1"
       inkscape:vp_y="0 : 1000 : 0"
       inkscape:vp_x="0 : 24 : 1"
       sodipodi:type="inkscape:persp3d" />
    <linearGradient
       inkscape:collect="always"
       xlink:href="#linearGradient4590"
       id="linearGradient3781"
       gradientUnits="userSpaceOnUse"
       gradientTransform="translate(-100.05023,64.398763)"
       x1="24.689142"
       y1="24.109001"
       x2="53.568085"
       y2="24.109001" />
    <radialGradient
       inkscape:collect="always"
       xlink:href="#linearGradient3497"
       id="radialGradient3784"
       gradientUnits="userSpaceOnUse"
       gradientTransform="matrix(2.476948,0,7.838822e-8,1.851413,-136.34616,53.786879)"
       cx="24.621058"
       cy="19.188286"
       fx="24.621058"
       fy="19.188286"
       r="19.378943" />
    <radialGradient
       inkscape:collect="always"
       xlink:href="#linearGradient4598"
       id="radialGradient3789"
       gradientUnits="userSpaceOnUse"
       gradientTransform="matrix(2.319263,0,0,2.374685,-132.30725,51.899169)"
       cx="24.502396"
       cy="12.604746"
       fx="24.502396"
       fy="12.604746"
       r="20.507692" />
    <linearGradient
       inkscape:collect="always"
       xlink:href="#linearGradient4590"
       id="linearGradient3794"
       gradientUnits="userSpaceOnUse"
       gradientTransform="translate(19.94977,24.398763)"
       x1="24.689142"
       y1="24.109001"
       x2="53.568085"
       y2="24.109001" />
    <linearGradient
       inkscape:collect="always"
       xlink:href="#linearGradient4590"
       id="linearGradient3799"
       gradientUnits="userSpaceOnUse"
       gradientTransform="matrix(2.2852239,0,0,2.3028703,-8.4202215,-7.4370825)"
       x1="24.689142"
       y1="24.109001"
       x2="53.568085"
       y2="24.109001" />
    <linearGradient
       inkscape:collect="always"
       xlink:href="#linearGradient4590"
       id="linearGradient3803"
       gradientUnits="userSpaceOnUse"
       gradientTransform="matrix(2.2852239,0,0,2.3028703,-8.4202215,-8.4370825)"
       x1="24.689142"
       y1="24.109001"
       x2="53.568085"
       y2="24.109001" />
    <linearGradient
       inkscape:collect="always"
       xlink:href="#linearGradient4590"
       id="linearGradient3807"
       gradientUnits="userSpaceOnUse"
       gradientTransform="matrix(2.2852239,0,0,2.3028703,-8.4202215,-7.4370825)"
       x1="24.689142"
       y1="24.109001"
       x2="53.568085"
       y2="24.109001" />
    <linearGradient
       inkscape:collect="always"
       xlink:href="#linearGradient4590"
       id="linearGradient3812"
       gradientUnits="userSpaceOnUse"
       gradientTransform="matrix(2.2852239,0,0,2.3028703,-8.4202215,-6.4370825)"
       x1="24.689142"
       y1="24.109001"
       x2="53.568085"
       y2="24.109001" />
    <linearGradient
       inkscape:collect="always"
       xlink:href="#linearGradient4590"
       id="linearGradient3816"
       gradientUnits="userSpaceOnUse"
       gradientTransform="matrix(2.2852239,0,0,2.3028703,-8.4202215,-7.4370825)"
       x1="24.689142"
       y1="24.109001"
       x2="53.568085"
       y2="24.109001" />
    <linearGradient
       inkscape:collect="always"
       xlink:href="#linearGradient4590"
       id="linearGradient3823"
       gradientUnits="userSpaceOnUse"
       gradientTransform="matrix(2.2852239,0,0,2.3028703,-8.4202215,-6.4370825)"
       x1="24.689142"
       y1="24.109001"
       x2="53.568085"
       y2="24.109001" />
    <linearGradient
       inkscape:collect="always"
       xlink:href="#linearGradient4590"
       id="linearGradient3825"
       gradientUnits="userSpaceOnUse"
       gradientTransform="matrix(2.2852239,0,0,2.3028703,-8.4202215,-7.4370825)"
       x1="24.689142"
       y1="24.109001"
       x2="53.568085"
       y2="24.109001" />
    <linearGradient
       inkscape:collect="always"
       xlink:href="#linearGradient4590"
       id="linearGradient3830"
       gradientUnits="userSpaceOnUse"
       gradientTransform="matrix(2.2852239,0,0,2.3028703,-98.420221,-7.4370825)"
       x1="24.689142"
       y1="24.109001"
       x2="53.568085"
       y2="24.109001" />
  </defs>
  <sodipodi:namedview
     id="base"
     pagecolor="#ffffff"
     bordercolor="#666666"
     borderopacity="1.0"
     inkscape:pageopacity="0.0"
     inkscape:pageshadow="2"
     inkscape:zoom="2.8167597"
     inkscape:cx="-97.719202"
     inkscape:cy="76.721263"
     inkscape:document-units="px"
     inkscape:current-layer="layer4"
     showgrid="false"
     showborder="true"
     inkscape:showpageshadow="false"
     inkscape:window-width="1920"
     inkscape:window-height="1023"
     inkscape:window-x="0"
     inkscape:window-y="24"
     inkscape:window-maximized="1"
     inkscape:snap-global="false">
    <inkscape:grid
       type="xygrid"
       id="grid3732"
       visible="true"
       enabled="true" />
  </sodipodi:namedview>
  <metadata
     id="metadata2413">
    <rdf:RDF>
      <cc:Work
         rdf:about="">
        <dc:format>image/svg+xml</dc:format>
        <dc:type
           rdf:resource="http://purl.org/dc/dcmitype/StillImage" />
      </cc:Work>
    </rdf:RDF>
  </metadata>
  <g
     inkscape:groupmode="layer"
     id="layer2"
     inkscape:label="Blur Shadow"
     style="display:none"
     sodipodi:insensitive="true">
    <rect
       style="opacity:0.9;fill:url(#ButtonShadow);fill-opacity:1;fill-rule:nonzero;stroke:none;filter:url(#filter3174)"
       id="rect3745"
       width="86"
       height="85"
       x="5"
       y="7"
       rx="6"
       ry="6" />
  </g>
  <g
     inkscape:groupmode="layer"
     id="layer3"
     inkscape:label="Shadow"
     sodipodi:insensitive="true">
    <path
       sodipodi:type="inkscape:offset"
       inkscape:radius="0.99097413"
       inkscape:original="M 12 -94.03125 C 7.028367 -94.03125 2.96875 -89.971633 2.96875 -85 L 2.96875 -14 C 2.96875 -9.0283671 7.0283671 -4.96875 12 -4.96875 L 84 -4.96875 C 88.971633 -4.96875 93.03125 -9.028367 93.03125 -14 L 93.03125 -85 C 93.03125 -89.971633 88.971633 -94.03125 84 -94.03125 L 12 -94.03125 z "
       style="opacity:0.07999998;fill:url(#linearGradient3026);fill-opacity:1;fill-rule:nonzero;stroke:none;display:inline"
       id="path3786"
       d="m 12,-95.03125 c -5.5110903,0 -10.03125,4.52016 -10.03125,10.03125 l 0,71 c 0,5.5110902 4.5201598,10.03125 10.03125,10.03125 l 72,0 c 5.51109,0 10.03125,-4.5201597 10.03125,-10.03125 l 0,-71 c 0,-5.51109 -4.52016,-10.03125 -10.03125,-10.03125 l -72,0 z"
       transform="scale(1,-1)" />
    <path
       sodipodi:type="inkscape:offset"
       inkscape:radius="1.0360184"
       inkscape:original="M 12 -93 C 7.5908667 -93 4 -89.409133 4 -85 L 4 -14 C 4 -9.5908667 7.5908667 -6 12 -6 L 84 -6 C 88.409133 -6 92 -9.5908667 92 -14 L 92 -85 C 92 -89.409133 88.409133 -93 84 -93 L 12 -93 z "
       style="opacity:0.1;fill:url(#linearGradient3780);fill-opacity:1;fill-rule:nonzero;stroke:none;display:inline"
       id="path3778"
       d="m 12,-94.03125 c -4.971633,0 -9.03125,4.059617 -9.03125,9.03125 l 0,71 c 0,4.9716329 4.0596171,9.03125 9.03125,9.03125 l 72,0 c 4.971633,0 9.03125,-4.059617 9.03125,-9.03125 l 0,-71 c 0,-4.971633 -4.059617,-9.03125 -9.03125,-9.03125 l -72,0 z"
       transform="scale(1,-1)" />
    <path
       sodipodi:type="inkscape:offset"
       inkscape:radius="0.98962283"
       inkscape:original="M 12 -92 C 8.122 -92 5 -88.878 5 -85 L 5 -14 C 5 -10.122 8.122 -7 12 -7 L 84 -7 C 87.878 -7 91 -10.122 91 -14 L 91 -85 C 91 -88.878 87.878 -92 84 -92 L 12 -92 z "
       style="opacity:0.2;fill:url(#linearGradient3772);fill-opacity:1;fill-rule:nonzero;stroke:none;display:inline"
       id="path3770"
       d="m 12,-93 c -4.4091333,0 -8,3.590867 -8,8 l 0,71 c 0,4.4091333 3.5908667,8 8,8 l 72,0 c 4.409133,0 8,-3.5908667 8,-8 l 0,-71 c 0,-4.409133 -3.590867,-8 -8,-8 l -72,0 z"
       transform="scale(1,-1)" />
    <rect
       style="opacity:0.3;fill:url(#linearGradient3725);fill-opacity:1;fill-rule:nonzero;stroke:none;display:inline"
       id="rect3723"
       width="86"
       height="85"
       x="5"
       y="-92"
       rx="7"
       ry="7"
       transform="scale(1,-1)" />
    <rect
       transform="scale(1,-1)"
       ry="6"
       rx="6"
       y="-91"
       x="6"
       height="84"
       width="84"
       id="rect3716"
       style="opacity:0.45;fill:url(#linearGradient3721);fill-opacity:1;fill-rule:nonzero;stroke:none;display:inline" />
  </g>
  <g
     inkscape:label="Button"
     inkscape:groupmode="layer"
     id="layer1">
    <rect
       style="fill:url(#linearGradient3617);fill-opacity:1;fill-rule:nonzero;stroke:none"
       id="rect2419"
       width="84"
       height="84"
       x="6"
       y="-90"
       rx="6"
       ry="6"
       transform="scale(1,-1)" />
    <path
       style="opacity:0.5;fill:url(#linearGradient3188);fill-opacity:1;fill-rule:nonzero;stroke:none"
       d="M 12,6 C 8.676,6 6,8.676 6,12 l 0,2 0,68 0,2 c 0,0.334721 0.04135,0.6507 0.09375,0.96875 0.0487,0.295596 0.09704,0.596915 0.1875,0.875 0.00988,0.03038 0.020892,0.0636 0.03125,0.09375 0.098865,0.287771 0.2348802,0.547452 0.375,0.8125 0.1445918,0.273507 0.3156161,0.535615 0.5,0.78125 0.1843839,0.245635 0.3737765,0.473472 0.59375,0.6875 0.439947,0.428056 0.94291,0.814526 1.5,1.09375 0.278545,0.139612 0.5734731,0.246947 0.875,0.34375 -0.2562018,-0.100222 -0.4867109,-0.236272 -0.71875,-0.375 -0.00741,-0.0044 -0.023866,0.0045 -0.03125,0 -0.031933,-0.0193 -0.062293,-0.04251 -0.09375,-0.0625 -0.120395,-0.0767 -0.2310226,-0.163513 -0.34375,-0.25 -0.1061728,-0.0808 -0.2132809,-0.161112 -0.3125,-0.25 C 8.4783201,88.557317 8.3087904,88.373362 8.15625,88.1875 8.0486711,88.057245 7.9378561,87.922215 7.84375,87.78125 7.818661,87.74287 7.805304,87.69538 7.78125,87.65625 7.716487,87.553218 7.6510225,87.451733 7.59375,87.34375 7.4927417,87.149044 7.3880752,86.928049 7.3125,86.71875 7.30454,86.69694 7.288911,86.6782 7.28125,86.65625 7.2494249,86.5643 7.2454455,86.469419 7.21875,86.375 7.1884177,86.268382 7.1483606,86.171969 7.125,86.0625 7.0521214,85.720988 7,85.364295 7,85 L 7,83 7,15 7,13 C 7,10.218152 9.2181517,8 12,8 l 2,0 68,0 2,0 c 2.781848,0 5,2.218152 5,5 l 0,2 0,68 0,2 c 0,0.364295 -0.05212,0.720988 -0.125,1.0625 -0.04415,0.206893 -0.08838,0.397658 -0.15625,0.59375 -0.0077,0.02195 -0.0233,0.04069 -0.03125,0.0625 -0.06274,0.173739 -0.138383,0.367449 -0.21875,0.53125 -0.04158,0.0828 -0.07904,0.169954 -0.125,0.25 -0.0546,0.09721 -0.126774,0.18835 -0.1875,0.28125 -0.09411,0.140965 -0.204921,0.275995 -0.3125,0.40625 -0.143174,0.17445 -0.303141,0.346998 -0.46875,0.5 -0.01117,0.0102 -0.01998,0.02115 -0.03125,0.03125 -0.138386,0.125556 -0.285091,0.234436 -0.4375,0.34375 -0.102571,0.07315 -0.204318,0.153364 -0.3125,0.21875 -0.0074,0.0045 -0.02384,-0.0044 -0.03125,0 -0.232039,0.138728 -0.462548,0.274778 -0.71875,0.375 0.301527,-0.0968 0.596455,-0.204138 0.875,-0.34375 0.55709,-0.279224 1.060053,-0.665694 1.5,-1.09375 0.219973,-0.214028 0.409366,-0.441865 0.59375,-0.6875 0.184384,-0.245635 0.355408,-0.507743 0.5,-0.78125 0.14012,-0.265048 0.276135,-0.524729 0.375,-0.8125 0.01041,-0.03078 0.02133,-0.06274 0.03125,-0.09375 0.09046,-0.278085 0.1388,-0.579404 0.1875,-0.875 C 89.95865,84.6507 90,84.334721 90,84 l 0,-2 0,-68 0,-2 C 90,8.676 87.324,6 84,6 L 12,6 z"
       id="rect3728" />
    <path
       id="path3615"
       d="M 12,90 C 8.676,90 6,87.324 6,84 L 6,82 6,14 6,12 c 0,-0.334721 0.04135,-0.6507 0.09375,-0.96875 0.0487,-0.295596 0.09704,-0.596915 0.1875,-0.875 C 6.29113,10.12587 6.302142,10.09265 6.3125,10.0625 6.411365,9.774729 6.5473802,9.515048 6.6875,9.25 6.8320918,8.976493 7.0031161,8.714385 7.1875,8.46875 7.3718839,8.223115 7.5612765,7.995278 7.78125,7.78125 8.221197,7.353194 8.72416,6.966724 9.28125,6.6875 9.559795,6.547888 9.8547231,6.440553 10.15625,6.34375 9.9000482,6.443972 9.6695391,6.580022 9.4375,6.71875 c -0.00741,0.0044 -0.023866,-0.0045 -0.03125,0 -0.031933,0.0193 -0.062293,0.04251 -0.09375,0.0625 -0.120395,0.0767 -0.2310226,0.163513 -0.34375,0.25 -0.1061728,0.0808 -0.2132809,0.161112 -0.3125,0.25 C 8.4783201,7.442683 8.3087904,7.626638 8.15625,7.8125 8.0486711,7.942755 7.9378561,8.077785 7.84375,8.21875 7.818661,8.25713 7.805304,8.30462 7.78125,8.34375 7.716487,8.446782 7.6510225,8.548267 7.59375,8.65625 7.4927417,8.850956 7.3880752,9.071951 7.3125,9.28125 7.30454,9.30306 7.288911,9.3218 7.28125,9.34375 7.2494249,9.4357 7.2454455,9.530581 7.21875,9.625 7.1884177,9.731618 7.1483606,9.828031 7.125,9.9375 7.0521214,10.279012 7,10.635705 7,11 l 0,2 0,68 0,2 c 0,2.781848 2.2181517,5 5,5 l 2,0 68,0 2,0 c 2.781848,0 5,-2.218152 5,-5 l 0,-2 0,-68 0,-2 C 89,10.635705 88.94788,10.279012 88.875,9.9375 88.83085,9.730607 88.78662,9.539842 88.71875,9.34375 88.71105,9.3218 88.69545,9.30306 88.6875,9.28125 88.62476,9.107511 88.549117,8.913801 88.46875,8.75 88.42717,8.6672 88.38971,8.580046 88.34375,8.5 88.28915,8.40279 88.216976,8.31165 88.15625,8.21875 88.06214,8.077785 87.951329,7.942755 87.84375,7.8125 87.700576,7.63805 87.540609,7.465502 87.375,7.3125 87.36383,7.3023 87.35502,7.29135 87.34375,7.28125 87.205364,7.155694 87.058659,7.046814 86.90625,6.9375 86.803679,6.86435 86.701932,6.784136 86.59375,6.71875 c -0.0074,-0.0045 -0.02384,0.0044 -0.03125,0 -0.232039,-0.138728 -0.462548,-0.274778 -0.71875,-0.375 0.301527,0.0968 0.596455,0.204138 0.875,0.34375 0.55709,0.279224 1.060053,0.665694 1.5,1.09375 0.219973,0.214028 0.409366,0.441865 0.59375,0.6875 0.184384,0.245635 0.355408,0.507743 0.5,0.78125 0.14012,0.265048 0.276135,0.524729 0.375,0.8125 0.01041,0.03078 0.02133,0.06274 0.03125,0.09375 0.09046,0.278085 0.1388,0.579404 0.1875,0.875 C 89.95865,11.3493 90,11.665279 90,12 l 0,2 0,68 0,2 c 0,3.324 -2.676,6 -6,6 l -72,0 z"
       style="opacity:0.2;fill:url(#radialGradient3619);fill-opacity:1;fill-rule:nonzero;stroke:none" />
  </g>
  <g
     inkscape:groupmode="layer"
     id="layer5"
     inkscape:label="Highlight"
     sodipodi:insensitive="true">
    <rect
       style="opacity:0.1;fill:url(#linearGradient3613);fill-opacity:1;fill-rule:nonzero;stroke:#ffffff;stroke-width:0.5;stroke-linecap:round;stroke-linejoin:miter;stroke-miterlimit:4;stroke-opacity:1;stroke-dasharray:none;stroke-dashoffset:0;filter:url(#filter3794)"
       id="rect3171"
       width="66"
       height="66"
       x="15"
       y="15"
       rx="12"
       ry="12"
       clip-path="url(#clipPath3613)" />
  </g>
  <g
     inkscape:groupmode="layer"
     id="layer4"
     inkscape:label="Symbol">
    <path
       sodipodi:nodetypes="csscccssc"
       d="M 6.0000005,78 C 16.603001,68.660921 62.334763,26.085774 50.813625,25.146472 44.836008,24.65913 30.833707,28.539934 24.586785,40.321496 12.89009,62.381235 39.258983,65.616377 50.207491,64.280846 68.146141,61.46461 90,49.725281 90,49.725281 L 89.9872,61.704237 C 51.539781,72.661661 27.107338,71.204795 13.708991,58.084871 0.6742585,45.320994 31.806991,16.513282 57.03454,19.163783 83.08194,21.900419 6.0000005,78 6.0000005,78 z"
       id="path3792"
       style="color:#000000;fill:url(#linearGradient3799);fill-opacity:1;fill-rule:nonzero;stroke:none;stroke-width:1;marker:none;visibility:visible;display:inline;overflow:visible" />
    <path
       style="color:#000000;fill:#000000;fill-opacity:1;fill-rule:nonzero;stroke:none;stroke-width:1;marker:none;visibility:visible;display:inline;overflow:visible;opacity:0.2"
       d="M 54.65625 18 C 33.819015 17.403985 10.099876 36.7404 10.65625 50.25 C 11.282115 36.279658 36.17102 16.964596 57.03125 19.15625 C 60.552702 19.526227 62.178122 20.887331 62.375 22.9375 C 62.653255 20.321854 61.101156 18.583849 57.03125 18.15625 C 56.242889 18.073422 55.454616 18.022836 54.65625 18 z M 52.625 26.40625 C 51.78509 31.82261 38.511751 45.941789 26.03125 58.1875 C 23.557265 56.182642 21.891648 53.51609 21.6875 50 C 21.611376 54.01173 23.328908 56.997587 26.03125 59.1875 C 39.355294 46.114116 53.585107 30.871803 52.625 26.40625 z M 90 48.71875 C 90 48.71875 68.1574 60.465014 50.21875 63.28125 C 44.768446 63.946094 35.4948 63.452747 29 60.09375 C 28.745229 60.303108 28.503514 60.480049 28.25 60.6875 C 34.762606 64.418103 44.553914 64.972263 50.21875 64.28125 C 68.1574 61.465014 90 49.71875 90 49.71875 L 90 48.71875 z M 20.75 63.34375 C 14.4709 69.352525 8.9050687 74.441227 6 77 C 6 77 8.4757237 75.201078 12.28125 72.3125 C 14.977567 69.827009 18.083176 66.907191 21.4375 63.6875 C 21.211721 63.56701 20.971808 63.468304 20.75 63.34375 z "
       id="path3801" />
    <path
       style="color:#000000;fill:#ffffff;fill-opacity:1;fill-rule:nonzero;stroke:none;stroke-width:1;marker:none;visibility:visible;display:inline;overflow:visible;opacity:0.6"
       d="M 62.375 23.9375 C 61.526263 31.915789 43.648368 48.086964 28.25 60.6875 C 28.496638 60.828781 28.744355 60.961535 29 61.09375 C 44.90363 48.024983 63.088285 31.365234 62.375 23.9375 z M 49.59375 25.09375 C 43.10713 25.161696 30.450239 29.267286 24.59375 40.3125 C 22.35961 44.526045 21.51684 48.060694 21.6875 51 C 21.739326 48.268759 22.606295 45.060801 24.59375 41.3125 C 30.840672 29.530938 44.834883 25.668908 50.8125 26.15625 C 51.878153 26.243131 52.465886 26.666195 52.625 27.40625 C 52.830371 26.081867 52.285249 25.276321 50.8125 25.15625 C 50.438899 25.125791 50.026191 25.08922 49.59375 25.09375 z M 10.65625 51.3125 C 10.541328 54.213009 11.478405 56.899959 13.71875 59.09375 C 15.796075 61.127908 18.13108 62.873116 20.75 64.34375 C 20.977295 64.12624 21.208364 63.907439 21.4375 63.6875 C 18.54591 62.14436 15.972013 60.300189 13.71875 58.09375 C 11.739009 56.155147 10.773705 53.824876 10.65625 51.3125 z M 90 61.71875 C 59.448227 70.425933 37.754257 71.250107 23.40625 64.65625 C 19.123581 68.074802 15.290664 71.02821 12.28125 73.3125 C 9.7051426 75.68718 7.4707979 77.704527 6 79 C 6 79 13.707971 73.397699 23.40625 65.65625 C 37.754257 72.250107 59.448227 71.425933 90 62.71875 L 90 61.71875 z "
       id="path3810" />
    <path
       style="opacity:0.2;color:#000000;fill:#550000;fill-opacity:1;fill-rule:nonzero;stroke:none;stroke-width:1;marker:none;visibility:visible;display:inline;overflow:visible"
       d="M 52.3125 19 C 28.133419 19.977389 1.4859592 46.11515 13.71875 58.09375 C 15.972013 60.300189 18.54591 62.14436 21.4375 63.6875 C 14.878398 69.983338 9.010228 75.348603 6 78 C 6 78 13.707971 72.397699 23.40625 64.65625 C 37.754257 71.250107 59.448227 70.425933 90 61.71875 L 90 59.875 L 87.59375 60.3125 C 87.583871 60.315239 87.572377 60.309763 87.5625 60.3125 C 58.216702 68.443914 37.567663 68.903099 24.25 62.75 A 1.9744012 1.9744012 0 0 0 23.1875 62.59375 A 1.9744012 1.9744012 0 0 0 22.40625 61.8125 C 19.642614 60.330296 17.147203 58.698281 15.09375 56.6875 C 12.550489 54.197087 12.076528 51.282958 13.09375 47.625 C 14.110972 43.967042 16.848842 39.745391 20.75 35.84375 C 28.552316 28.040468 40.941436 21.485037 52.34375 21 C 53.110087 20.9674 53.850909 20.94855 54.59375 20.96875 C 55.336591 20.98895 56.081452 21.04819 56.8125 21.125 C 58.620157 21.314919 59.605681 21.776775 60 22.15625 C 60.394319 22.535725 60.516337 22.874972 60.40625 23.78125 C 60.186076 25.593806 58.247516 29.084075 55 33 C 50.906774 37.935701 44.820796 43.636035 38.40625 49.3125 C 42.280341 45.238269 45.847494 41.290025 48.625 37.8125 C 51.267371 34.504169 53.237722 31.705351 54.15625 29.25 C 54.615514 28.022325 54.911027 26.78312 54.375 25.4375 C 53.838973 24.09188 52.326364 23.298184 50.96875 23.1875 C 47.43462 22.89937 42.28894 23.827624 36.96875 26.34375 C 31.64856 28.859876 26.211202 33.024057 22.84375 39.375 C 20.273174 44.223058 19.377815 48.409957 19.875 52 C 20.372185 55.590043 22.310907 58.452972 24.84375 60.53125 A 1.9744012 1.9744012 0 0 0 26.375 60.9375 A 1.9744012 1.9744012 0 0 0 27.34375 62.34375 C 34.510944 66.45081 44.393707 66.991051 50.46875 66.25 A 1.9744012 1.9744012 0 0 0 50.53125 66.21875 C 66.990228 63.634812 83.94901 54.993289 88 52.875 L 88 52.84375 L 88.03125 52.84375 L 90 51.78125 L 90 49.71875 C 90 49.71875 68.1574 61.465014 50.21875 64.28125 C 44.553914 64.972263 34.762606 64.418103 28.25 60.6875 C 48.696653 43.955936 73.515257 20.888121 57.03125 19.15625 C 56.242889 19.07342 55.454616 19.022836 54.65625 19 C 53.882833 18.977878 53.09247 18.968471 52.3125 19 z M 49.59375 25.09375 C 50.026191 25.08925 50.438899 25.12579 50.8125 25.15625 C 58.308385 25.767379 41.563426 43.947524 26.03125 59.1875 C 21.489116 55.506664 19.687061 49.56642 24.59375 40.3125 C 30.450239 29.267286 43.10713 25.161696 49.59375 25.09375 z "
       id="path3828" />
    <path
       style="color:#000000;fill:#550000;fill-opacity:1;fill-rule:nonzero;stroke:none;stroke-width:1;marker:none;visibility:visible;display:inline;overflow:visible;opacity:0.4"
       d="M 54.65625 19 C 33.819015 18.403985 10.099876 37.7404 10.65625 51.25 C 11.282115 37.279658 36.17102 17.964596 57.03125 20.15625 C 60.552702 20.526227 62.178122 21.887331 62.375 23.9375 C 62.653255 21.321854 61.101156 19.583849 57.03125 19.15625 C 56.242889 19.073422 55.454616 19.022836 54.65625 19 z M 52.625 27.40625 C 51.78509 32.82261 38.511751 46.941789 26.03125 59.1875 C 23.557265 57.182642 21.891648 54.51609 21.6875 51 C 21.611376 55.01173 23.328908 57.997587 26.03125 60.1875 C 39.355294 47.114116 53.585107 31.871803 52.625 27.40625 z M 90 49.71875 C 90 49.71875 68.1574 61.465014 50.21875 64.28125 C 44.768446 64.946094 35.4948 64.452747 29 61.09375 C 28.745229 61.303108 28.503514 61.480049 28.25 61.6875 C 34.762606 65.418103 44.553914 65.972263 50.21875 65.28125 C 68.1574 62.465014 90 50.71875 90 50.71875 L 90 49.71875 z M 20.75 64.34375 C 14.4709 70.352525 8.9050687 75.441227 6 78 C 6 78 8.4757237 76.201078 12.28125 73.3125 C 14.977567 70.827009 18.083176 67.907191 21.4375 64.6875 C 21.211721 64.56701 20.971808 64.468304 20.75 64.34375 z "
       id="path3819" />
  </g>
</svg>
