<?xml version="1.0" encoding="UTF-8" standalone="no"?>
<!-- Created with Inkscape (http://www.inkscape.org/) -->

<svg
   xmlns:dc="http://purl.org/dc/elements/1.1/"
   xmlns:cc="http://creativecommons.org/ns#"
   xmlns:rdf="http://www.w3.org/1999/02/22-rdf-syntax-ns#"
   xmlns:svg="http://www.w3.org/2000/svg"
   xmlns="http://www.w3.org/2000/svg"
   xmlns:xlink="http://www.w3.org/1999/xlink"
   xmlns:sodipodi="http://sodipodi.sourceforge.net/DTD/sodipodi-0.dtd"
   xmlns:inkscape="http://www.inkscape.org/namespaces/inkscape"
   width="96"
   height="96"
   id="svg2408"
   sodipodi:version="0.32"
   inkscape:version="0.47 r22583"
   version="1.0"
   sodipodi:docname="gnome-tetravex.svg"
   inkscape:output_extension="org.inkscape.output.svg.inkscape">
  <defs
     id="defs2410">
    <linearGradient
       id="linearGradient3991">
      <stop
         style="stop-color:#803293;stop-opacity:1;"
         offset="0"
         id="stop3993" />
      <stop
         style="stop-color:#c077d2;stop-opacity:1"
         offset="1"
         id="stop3995" />
    </linearGradient>
    <linearGradient
       id="linearGradient3839">
      <stop
         id="stop3841"
         offset="0"
         style="stop-color:#803293;stop-opacity:1;" />
      <stop
         id="stop3843"
         offset="1"
         style="stop-color:#e5c7ec;stop-opacity:1;" />
    </linearGradient>
    <linearGradient
       id="ButtonShadow"
       gradientTransform="scale(1.0058652,0.994169)"
       x1="45.447727"
       y1="92.539597"
       x2="45.447727"
       y2="7.0165396"
       gradientUnits="userSpaceOnUse">
      <stop
         style="stop-color:#000000;stop-opacity:1;"
         offset="0"
         id="stop3750" />
      <stop
         style="stop-color:#000000;stop-opacity:0.58823532;"
         offset="1"
         id="stop3752" />
    </linearGradient>
    <linearGradient
       inkscape:collect="always"
       id="linearGradient3737">
      <stop
         style="stop-color:#ffffff;stop-opacity:1;"
         offset="0"
         id="stop3739" />
      <stop
         style="stop-color:#ffffff;stop-opacity:0;"
         offset="1"
         id="stop3741" />
    </linearGradient>
    <linearGradient
       id="linearGradient3700">
      <stop
         style="stop-color:#2276c5;stop-opacity:1;"
         offset="0"
         id="stop3702" />
      <stop
         style="stop-color:#68baf4;stop-opacity:1;"
         offset="1"
         id="stop3704" />
    </linearGradient>
    <inkscape:perspective
       sodipodi:type="inkscape:persp3d"
       inkscape:vp_x="0 : 526.18109 : 1"
       inkscape:vp_y="0 : 1000 : 0"
       inkscape:vp_z="744.09448 : 526.18109 : 1"
       inkscape:persp3d-origin="372.04724 : 350.78739 : 1"
       id="perspective2416" />
    <linearGradient
       inkscape:collect="always"
       xlink:href="#linearGradient3700"
       id="linearGradient3706"
       x1="48"
       y1="90"
       x2="48"
       y2="5.9877172"
       gradientUnits="userSpaceOnUse" />
    <linearGradient
       inkscape:collect="always"
       xlink:href="#linearGradient3737"
       id="linearGradient3743"
       x1="36.357143"
       y1="6"
       x2="36.357143"
       y2="63.893143"
       gradientUnits="userSpaceOnUse" />
    <filter
       inkscape:collect="always"
       id="filter3174">
      <feGaussianBlur
         inkscape:collect="always"
         stdDeviation="1.71"
         id="feGaussianBlur3176" />
    </filter>
    <linearGradient
       inkscape:collect="always"
       xlink:href="#linearGradient3737"
       id="linearGradient3188"
       gradientUnits="userSpaceOnUse"
       x1="36.357143"
       y1="6"
       x2="36.357143"
       y2="63.893143"
       gradientTransform="translate(110,0)" />
    <filter
       inkscape:collect="always"
       id="filter3794"
       x="-0.192"
       width="1.384"
       y="-0.192"
       height="1.384">
      <feGaussianBlur
         inkscape:collect="always"
         stdDeviation="5.28"
         id="feGaussianBlur3796" />
    </filter>
    <linearGradient
       inkscape:collect="always"
       xlink:href="#linearGradient3737"
       id="linearGradient3613"
       x1="48"
       y1="20.220806"
       x2="48"
       y2="138.66119"
       gradientUnits="userSpaceOnUse" />
    <radialGradient
       inkscape:collect="always"
       xlink:href="#linearGradient3737"
       id="radialGradient3619"
       cx="48"
       cy="90.171875"
       fx="48"
       fy="90.171875"
       r="42"
       gradientTransform="matrix(1.1573129,0,0,0.99590774,102.44898,0.19713193)"
       gradientUnits="userSpaceOnUse" />
    <clipPath
       clipPathUnits="userSpaceOnUse"
       id="clipPath3613">
      <rect
         ry="6"
         rx="6"
         y="6"
         x="6"
         height="84"
         width="84"
         id="rect3615"
         style="fill:#ffffff;fill-opacity:1;fill-rule:nonzero;stroke:none" />
    </clipPath>
    <linearGradient
       inkscape:collect="always"
       xlink:href="#linearGradient3700"
       id="linearGradient3617"
       gradientUnits="userSpaceOnUse"
       x1="48"
       y1="90"
       x2="48"
       y2="5.9877172" />
    <inkscape:perspective
       id="perspective2985"
       inkscape:persp3d-origin="0.5 : 0.33333333 : 1"
       inkscape:vp_z="1 : 0.5 : 1"
       inkscape:vp_y="0 : 1000 : 0"
       inkscape:vp_x="0 : 0.5 : 1"
       sodipodi:type="inkscape:persp3d" />
    <linearGradient
       inkscape:collect="always"
       xlink:href="#ButtonShadow-0"
       id="linearGradient3788"
       gradientUnits="userSpaceOnUse"
       gradientTransform="matrix(1.0238095,0,0,1.0119048,-1.1428571,-98.071429)"
       x1="32.251034"
       y1="6.1317081"
       x2="32.251034"
       y2="90.238609" />
    <linearGradient
       id="ButtonShadow-0"
       gradientTransform="matrix(1.0058652,0,0,0.994169,100,0)"
       x1="45.447727"
       y1="92.539597"
       x2="45.447727"
       y2="7.0165396"
       gradientUnits="userSpaceOnUse">
      <stop
         style="stop-color:#000000;stop-opacity:1;"
         offset="0"
         id="stop3750-8" />
      <stop
         style="stop-color:#000000;stop-opacity:0.58823532;"
         offset="1"
         id="stop3752-5" />
    </linearGradient>
    <linearGradient
       inkscape:collect="always"
       xlink:href="#ButtonShadow-0"
       id="linearGradient3780"
       gradientUnits="userSpaceOnUse"
       gradientTransform="matrix(1.0238095,0,0,1.0119048,-1.1428571,-98.071429)"
       x1="32.251034"
       y1="6.1317081"
       x2="32.251034"
       y2="90.238609" />
    <linearGradient
       id="linearGradient2994"
       gradientTransform="matrix(1.0058652,0,0,0.994169,100,0)"
       x1="45.447727"
       y1="92.539597"
       x2="45.447727"
       y2="7.0165396"
       gradientUnits="userSpaceOnUse">
      <stop
         style="stop-color:#000000;stop-opacity:1;"
         offset="0"
         id="stop2996" />
      <stop
         style="stop-color:#000000;stop-opacity:0.58823532;"
         offset="1"
         id="stop2998" />
    </linearGradient>
    <linearGradient
       inkscape:collect="always"
       xlink:href="#ButtonShadow-0"
       id="linearGradient3772"
       gradientUnits="userSpaceOnUse"
       gradientTransform="matrix(1.0238095,0,0,1.0119048,-1.1428571,-98.071429)"
       x1="32.251034"
       y1="6.1317081"
       x2="32.251034"
       y2="90.238609" />
    <linearGradient
       id="linearGradient3001"
       gradientTransform="matrix(1.0058652,0,0,0.994169,100,0)"
       x1="45.447727"
       y1="92.539597"
       x2="45.447727"
       y2="7.0165396"
       gradientUnits="userSpaceOnUse">
      <stop
         style="stop-color:#000000;stop-opacity:1;"
         offset="0"
         id="stop3003" />
      <stop
         style="stop-color:#000000;stop-opacity:0.58823532;"
         offset="1"
         id="stop3005" />
    </linearGradient>
    <linearGradient
       inkscape:collect="always"
       xlink:href="#ButtonShadow-0"
       id="linearGradient3725"
       gradientUnits="userSpaceOnUse"
       gradientTransform="matrix(1.0238095,0,0,1.0119048,-1.1428571,-198.07143)"
       x1="32.251034"
       y1="6.1317081"
       x2="32.251034"
       y2="90.238609" />
    <linearGradient
       id="linearGradient3008"
       gradientTransform="matrix(1.0058652,0,0,0.994169,100,0)"
       x1="45.447727"
       y1="92.539597"
       x2="45.447727"
       y2="7.0165396"
       gradientUnits="userSpaceOnUse">
      <stop
         style="stop-color:#000000;stop-opacity:1;"
         offset="0"
         id="stop3010" />
      <stop
         style="stop-color:#000000;stop-opacity:0.58823532;"
         offset="1"
         id="stop3012" />
    </linearGradient>
    <linearGradient
       inkscape:collect="always"
       xlink:href="#ButtonShadow-0"
       id="linearGradient3721"
       gradientUnits="userSpaceOnUse"
       gradientTransform="translate(0,-197)"
       x1="32.251034"
       y1="6.1317081"
       x2="32.251034"
       y2="90.238609" />
    <linearGradient
       id="linearGradient3015"
       gradientTransform="matrix(1.0058652,0,0,0.994169,100,0)"
       x1="45.447727"
       y1="92.539597"
       x2="45.447727"
       y2="7.0165396"
       gradientUnits="userSpaceOnUse">
      <stop
         style="stop-color:#000000;stop-opacity:1;"
         offset="0"
         id="stop3017" />
      <stop
         style="stop-color:#000000;stop-opacity:0.58823532;"
         offset="1"
         id="stop3019" />
    </linearGradient>
    <linearGradient
       y2="90.238609"
       x2="32.251034"
       y1="6.1317081"
       x1="32.251034"
       gradientTransform="matrix(1.0238095,0,0,1.0119048,-1.1428571,-98.071429)"
       gradientUnits="userSpaceOnUse"
       id="linearGradient3026"
       xlink:href="#ButtonShadow-0"
       inkscape:collect="always" />
    <linearGradient
       inkscape:collect="always"
       xlink:href="#linearGradient3700"
       id="linearGradient3670"
       gradientUnits="userSpaceOnUse"
       x1="48"
       y1="90"
       x2="48"
       y2="5.9877172"
       gradientTransform="translate(110,0)" />
    <linearGradient
       inkscape:collect="always"
       xlink:href="#linearGradient3700"
       id="linearGradient3673"
       gradientUnits="userSpaceOnUse"
       x1="48"
       y1="90"
       x2="48"
       y2="5.9877172" />
    <linearGradient
       inkscape:collect="always"
       xlink:href="#ButtonShadow"
       id="linearGradient3696"
       x1="57"
       y1="91"
       x2="57"
       y2="6.9761939"
       gradientUnits="userSpaceOnUse" />
    <linearGradient
       inkscape:collect="always"
       xlink:href="#ButtonShadow"
       id="linearGradient3702"
       gradientUnits="userSpaceOnUse"
       x1="48"
       y1="90"
       x2="48"
       y2="5.9877172"
       gradientTransform="translate(-1,1)" />
    <linearGradient
       inkscape:collect="always"
       xlink:href="#ButtonShadow"
       id="linearGradient3711"
       gradientUnits="userSpaceOnUse"
       gradientTransform="translate(-1,1)"
       x1="48"
       y1="90"
       x2="48"
       y2="5.9877172" />
    <linearGradient
       inkscape:collect="always"
       xlink:href="#ButtonShadow"
       id="linearGradient3715"
       gradientUnits="userSpaceOnUse"
       gradientTransform="translate(-1,1)"
       x1="48"
       y1="90"
       x2="48"
       y2="5.9877172" />
    <linearGradient
       inkscape:collect="always"
       xlink:href="#ButtonShadow"
       id="linearGradient3718"
       gradientUnits="userSpaceOnUse"
       gradientTransform="translate(-1,1)"
       x1="48"
       y1="90"
       x2="48"
       y2="5.9877172" />
    <linearGradient
       inkscape:collect="always"
       xlink:href="#ButtonShadow"
       id="linearGradient3722"
       gradientUnits="userSpaceOnUse"
       gradientTransform="translate(-1,1)"
       x1="48"
       y1="90"
       x2="48"
       y2="5.9877172" />
    <linearGradient
       inkscape:collect="always"
       xlink:href="#ButtonShadow"
       id="linearGradient3726"
       gradientUnits="userSpaceOnUse"
       gradientTransform="translate(-1,1)"
       x1="48"
       y1="90"
       x2="48"
       y2="5.9877172" />
    <linearGradient
       inkscape:collect="always"
       xlink:href="#ButtonShadow"
       id="linearGradient3730"
       gradientUnits="userSpaceOnUse"
       gradientTransform="translate(-1,1)"
       x1="48"
       y1="90"
       x2="48"
       y2="5.9877172" />
    <linearGradient
       inkscape:collect="always"
       xlink:href="#ButtonShadow"
       id="linearGradient3734"
       gradientUnits="userSpaceOnUse"
       gradientTransform="translate(-1,1)"
       x1="48"
       y1="90"
       x2="48"
       y2="5.9877172" />
    <linearGradient
       inkscape:collect="always"
       xlink:href="#ButtonShadow"
       id="linearGradient3738"
       gradientUnits="userSpaceOnUse"
       gradientTransform="translate(-1,1)"
       x1="48"
       y1="90"
       x2="48"
       y2="5.9877172" />
    <linearGradient
       inkscape:collect="always"
       xlink:href="#linearGradient3737"
       id="linearGradient3753"
       x1="48"
       y1="8"
       x2="48"
       y2="72"
       gradientUnits="userSpaceOnUse" />
    <radialGradient
       inkscape:collect="always"
       xlink:href="#linearGradient3737"
       id="radialGradient3757"
       gradientUnits="userSpaceOnUse"
       gradientTransform="matrix(1.1573129,0,0,0.99590774,-107.55102,0.19713193)"
       cx="48"
       cy="90.171875"
       fx="48"
       fy="90.171875"
       r="42" />
    <linearGradient
       inkscape:collect="always"
       xlink:href="#linearGradient3700"
       id="linearGradient3761"
       gradientUnits="userSpaceOnUse"
       x1="48"
       y1="90"
       x2="48"
       y2="5.9877172"
       gradientTransform="translate(-100,0)" />
    <radialGradient
       inkscape:collect="always"
       xlink:href="#linearGradient3737"
       id="radialGradient3764"
       gradientUnits="userSpaceOnUse"
       gradientTransform="matrix(1.1573129,0,0,0.99590774,-7.55102,0.19713193)"
       cx="48"
       cy="90.171875"
       fx="48"
       fy="90.171875"
       r="42" />
    <inkscape:perspective
       id="perspective3058"
       inkscape:persp3d-origin="0.5 : 0.33333333 : 1"
       inkscape:vp_z="1 : 0.5 : 1"
       inkscape:vp_y="0 : 1000 : 0"
       inkscape:vp_x="0 : 0.5 : 1"
       sodipodi:type="inkscape:persp3d" />
    <radialGradient
       inkscape:collect="always"
       xlink:href="#linearGradient4035"
       id="radialGradient4031"
       gradientUnits="userSpaceOnUse"
       gradientTransform="matrix(1.1875,0,0,1.125,-6,-5)"
       cx="32"
       cy="40"
       fx="32"
       fy="40"
       r="16" />
    <linearGradient
       id="linearGradient4035">
      <stop
         style="stop-color:#93d928;stop-opacity:1;"
         offset="0"
         id="stop4037" />
      <stop
         style="stop-color:#2f9e1c;stop-opacity:1;"
         offset="1"
         id="stop4041" />
    </linearGradient>
    <linearGradient
       inkscape:collect="always"
       xlink:href="#linearGradient3895"
       id="linearGradient4033"
       gradientUnits="userSpaceOnUse"
       x1="70"
       y1="71"
       x2="77"
       y2="78" />
    <linearGradient
       inkscape:collect="always"
       id="linearGradient3895">
      <stop
         style="stop-color:#ffffff;stop-opacity:1;"
         offset="0"
         id="stop3897" />
      <stop
         style="stop-color:#ffffff;stop-opacity:0;"
         offset="1"
         id="stop3899" />
    </linearGradient>
    <radialGradient
       inkscape:collect="always"
       xlink:href="#linearGradient3957"
       id="radialGradient3984"
       gradientUnits="userSpaceOnUse"
       gradientTransform="matrix(1.1875,0,0,1.125,-6,-5)"
       cx="32"
       cy="40"
       fx="32"
       fy="40"
       r="16" />
    <linearGradient
       id="linearGradient3957">
      <stop
         style="stop-color:#ed5114;stop-opacity:1;"
         offset="0"
         id="stop3959" />
      <stop
         style="stop-color:#c21313;stop-opacity:1;"
         offset="1"
         id="stop3963" />
    </linearGradient>
    <radialGradient
       inkscape:collect="always"
       xlink:href="#linearGradient3927"
       id="radialGradient3679"
       cx="32"
       cy="26"
       fx="32"
       fy="26"
       r="16"
       gradientUnits="userSpaceOnUse"
       gradientTransform="matrix(1.1875,0,0,1.125,-6,-3.25)" />
    <linearGradient
       id="linearGradient3927">
      <stop
         id="stop3929"
         offset="0"
         style="stop-color:#5a9eeb;stop-opacity:1;" />
      <stop
         id="stop3933"
         offset="1"
         style="stop-color:#145aaa;stop-opacity:1;" />
    </linearGradient>
    <radialGradient
       r="16"
       fy="26"
       fx="32"
       cy="26"
       cx="32"
       gradientTransform="matrix(1.1875,0,0,1.125,-6,-3.25)"
       gradientUnits="userSpaceOnUse"
       id="radialGradient3087"
       xlink:href="#linearGradient3927"
       inkscape:collect="always" />
    <linearGradient
       inkscape:collect="always"
       xlink:href="#linearGradient3927"
       id="linearGradient3833"
       gradientUnits="userSpaceOnUse"
       x1="39"
       y1="6"
       x2="39"
       y2="43.215588" />
    <linearGradient
       inkscape:collect="always"
       xlink:href="#linearGradient3957"
       id="linearGradient3835"
       gradientUnits="userSpaceOnUse"
       x1="7"
       y1="9.8934088"
       x2="7"
       y2="85" />
    <linearGradient
       inkscape:collect="always"
       xlink:href="#linearGradient4035"
       id="linearGradient3837"
       gradientUnits="userSpaceOnUse"
       x1="91"
       y1="10"
       x2="91"
       y2="86" />
    <linearGradient
       inkscape:collect="always"
       xlink:href="#linearGradient3839"
       id="linearGradient3845"
       gradientUnits="userSpaceOnUse"
       x1="48"
       y1="90"
       x2="48"
       y2="5.9877172" />
    <linearGradient
       inkscape:collect="always"
       xlink:href="#linearGradient3991"
       id="linearGradient3989"
       gradientUnits="userSpaceOnUse"
       x1="48"
       y1="90"
       x2="48"
       y2="56" />
  </defs>
  <sodipodi:namedview
     id="base"
     pagecolor="#ffffff"
     bordercolor="#666666"
     borderopacity="1.0"
     inkscape:pageopacity="0.0"
     inkscape:pageshadow="2"
     inkscape:zoom="4.6136832"
     inkscape:cx="-18.805204"
     inkscape:cy="25.984418"
     inkscape:document-units="px"
     inkscape:current-layer="layer1"
     showgrid="true"
     showborder="true"
     inkscape:showpageshadow="false"
     inkscape:window-width="1920"
     inkscape:window-height="1023"
     inkscape:window-x="0"
     inkscape:window-y="24"
     inkscape:window-maximized="1">
    <inkscape:grid
       type="xygrid"
       id="grid3732"
       visible="true"
       enabled="true" />
  </sodipodi:namedview>
  <metadata
     id="metadata2413">
    <rdf:RDF>
      <cc:Work
         rdf:about="">
        <dc:format>image/svg+xml</dc:format>
        <dc:type
           rdf:resource="http://purl.org/dc/dcmitype/StillImage" />
        <dc:title></dc:title>
      </cc:Work>
    </rdf:RDF>
  </metadata>
  <g
     inkscape:groupmode="layer"
     id="layer2"
     inkscape:label="Blur Shadow"
     style="display:none"
     sodipodi:insensitive="true">
    <rect
       style="opacity:0.9;fill:url(#ButtonShadow);fill-opacity:1;fill-rule:nonzero;stroke:none;filter:url(#filter3174)"
       id="rect3745"
       width="86"
       height="85"
       x="5"
       y="7"
       rx="6"
       ry="6" />
  </g>
  <g
     inkscape:groupmode="layer"
     id="layer3"
     inkscape:label="Shadow"
     sodipodi:insensitive="true">
    <path
       sodipodi:type="inkscape:offset"
       inkscape:radius="0.98119771"
       inkscape:original="M 12 5.03125 L 12 5.0625 C 11.218793 4.9680407 10.267601 5.0381391 9.375 5.4375 C 8.9071174 5.6468364 8.4319422 5.947571 8.15625 6.5 C 7.8805578 7.052429 7.9498062 7.7701926 8.28125 8.375 A 0.87226297 0.87226297 0 0 0 8.40625 8.59375 C 21.120916 21.345041 33.842916 34.111156 46.59375 46.8125 A 0.87226297 0.87226297 0 0 0 46.8125 46.96875 C 47.412929 47.287103 48.101753 47.328155 48.65625 47.15625 C 49.210747 46.984345 49.615569 46.655758 49.96875 46.3125 C 50.675112 45.625984 51.235288 44.845894 51.59375 44.59375 A 0.87226297 0.87226297 0 0 0 51.71875 44.5 C 63.688635 32.47953 75.77882 20.52318 87.6875 8.4375 A 0.87226297 0.87226297 0 0 0 87.875 8.09375 C 88.107719 7.4441074 88.039492 6.7195895 87.6875 6.21875 C 87.335508 5.7179105 86.828963 5.4735762 86.34375 5.3125 C 85.395903 4.9978435 84.400972 4.9958341 83.75 5.03125 L 83.6875 5.03125 L 12.125 5.03125 L 12 5.03125 z M 5.71875 8.53125 A 0.87226297 0.87226297 0 0 0 5.5 8.59375 C 4.2338504 9.0881306 3.6404621 10.295725 3.375 11.40625 C 3.1095379 12.516775 3.0868933 13.654537 3.03125 14.4375 A 0.87226297 0.87226297 0 0 0 3.03125 14.5 C 3.0658105 38.287994 2.9725943 62.081224 3.09375 85.875 C 3.0999951 86.600347 3.2696941 87.586836 3.75 88.46875 C 3.9901529 88.909707 4.3254498 89.346954 4.875 89.59375 C 5.4245502 89.840546 6.1352914 89.777996 6.71875 89.4375 A 0.87226297 0.87226297 0 0 0 6.90625 89.3125 C 19.882703 76.3564 32.891802 63.388168 45.8125 50.40625 A 0.87226297 0.87226297 0 0 0 45.96875 50.1875 C 46.28707 49.58708 46.328243 48.898192 46.15625 48.34375 C 45.984257 47.789308 45.655753 47.384371 45.3125 47.03125 C 44.625995 46.325009 43.845564 45.764646 43.59375 45.40625 A 0.87226297 0.87226297 0 0 0 43.5 45.28125 C 31.356078 33.174037 19.298736 20.958252 7.09375 8.90625 A 0.87226297 0.87226297 0 0 0 6.875 8.75 C 6.5172931 8.5607382 6.1409164 8.4792512 5.71875 8.53125 z M 89.8125 8.53125 A 0.87226297 0.87226297 0 0 0 89.46875 8.65625 C 87.443627 9.7853987 86.272635 11.72673 84.875 12.90625 A 0.87226297 0.87226297 0 0 0 84.8125 12.9375 C 73.285956 24.484939 61.674302 36.03393 50.1875 47.59375 A 0.87226297 0.87226297 0 0 0 50.03125 47.8125 C 49.71095 48.411927 49.671632 49.101641 49.84375 49.65625 C 50.015868 50.210859 50.344002 50.615094 50.6875 50.96875 C 51.374496 51.676062 52.156117 52.237693 52.40625 52.59375 A 0.87226297 0.87226297 0 0 0 52.5 52.71875 C 64.748103 64.930164 76.909577 77.250213 89.21875 89.40625 A 0.87226297 0.87226297 0 0 0 89.5625 89.59375 C 90.265653 89.830949 91.049793 89.733306 91.5625 89.34375 C 92.075207 88.954194 92.316826 88.40357 92.5 87.875 C 92.866347 86.81786 92.93273 85.67274 92.96875 85.0625 A 0.87226297 0.87226297 0 0 0 92.96875 85 C 92.956168 61.151268 92.981534 37.28831 92.9375 13.4375 A 0.87226297 0.87226297 0 0 0 92.90625 13.25 C 92.792768 12.755187 92.701056 11.682586 92.375 10.6875 C 92.211972 10.189957 91.991627 9.6735398 91.59375 9.25 C 91.195873 8.8264602 90.581883 8.5252283 89.90625 8.53125 A 0.87226297 0.87226297 0 0 0 89.8125 8.53125 z M 47.90625 50.6875 A 0.87226297 0.87226297 0 0 0 47.8125 50.71875 C 46.720047 50.953202 45.997621 51.676347 45.40625 52.34375 C 44.814879 53.011153 44.316468 53.636489 43.8125 54 A 0.87226297 0.87226297 0 0 0 43.6875 54.09375 C 31.672463 66.145675 19.553557 78.105586 7.59375 90.21875 A 0.87226297 0.87226297 0 0 0 7.40625 90.5625 C 7.1690511 91.265653 7.2666935 92.049793 7.65625 92.5625 C 8.0458065 93.075207 8.59643 93.316826 9.125 93.5 C 10.18214 93.866347 11.32726 93.93273 11.9375 93.96875 A 0.87226297 0.87226297 0 0 0 12 93.96875 C 36.286739 93.934194 60.582651 94.027406 84.875 93.90625 C 85.600365 93.900018 86.586835 93.73031 87.46875 93.25 C 87.909708 93.009845 88.346955 92.674551 88.59375 92.125 C 88.840545 91.575449 88.777996 90.864709 88.4375 90.28125 A 0.87226297 0.87226297 0 0 0 88.3125 90.09375 C 75.339571 77.12135 62.415723 64.093984 49.375 51.1875 A 0.87226297 0.87226297 0 0 0 49.3125 51.125 C 48.837017 50.739138 48.362059 50.755561 48.1875 50.71875 A 0.87226297 0.87226297 0 0 0 47.90625 50.6875 z "
       style="opacity:0.07999998;fill:url(#linearGradient3738);fill-opacity:1;fill-rule:nonzero;stroke:none"
       id="path3736"
       d="m 11.8125,4.0625 a 0.98129583,0.98129583 0 0 0 -0.09375,0.03125 c -0.84886,-0.050534 -1.8039576,0.014229 -2.75,0.4375 C 8.4071521,4.7825158 7.6945588,5.2343164 7.28125,6.0625 6.9914306,6.6432369 6.9739188,7.2484873 7.09375,7.84375 6.6349844,7.6477766 6.1224242,7.4973825 5.59375,7.5625 a 0.98129583,0.98129583 0 0 0 -0.03125,0 c 0.00235,-3.49e-4 -0.096071,0.031752 -0.09375,0.03125 0.00232,-5.017e-4 -0.1272831,0.031902 -0.125,0.03125 0.00228,-6.523e-4 -0.1272356,0.03205 -0.125,0.03125 0.00156,-5.601e-4 -0.028958,0.018016 -0.0625,0.03125 -0.014375,0.00567 -0.031904,2.833e-4 -0.03125,0 l 0,0.03125 C 3.4834527,8.3827705 2.7083975,9.9235065 2.40625,11.1875 2.1084893,12.433142 2.114713,13.640306 2.0625,14.375 a 0.98129583,0.98129583 0 0 0 0,0.03125 c 6.99e-5,-0.002 3.5e-5,0.05616 0,0.09375 1.51e-5,0.01041 -1.51e-5,0.02084 0,0.03125 0.034429,23.774075 -0.058633,47.554501 0.0625,71.34375 0.0075,0.870709 0.1691293,1.995934 0.75,3.0625 0.2933215,0.538583 0.785166,1.199375 1.59375,1.5625 0.6348874,0.28512 1.3209363,0.216181 1.96875,0.03125 -0.228147,0.910177 -0.1364122,1.869657 0.4375,2.625 0.5691702,0.749102 1.3558947,1.079697 1.9375,1.28125 1.229629,0.426122 2.453549,0.464056 3.0625,0.5 a 0.98129583,0.98129583 0 0 0 0.03125,0 c -0.002,-7e-5 0.05616,-3.5e-5 0.09375,0 0.01041,-1.5e-5 0.02084,1.5e-5 0.03125,0 24.272896,-0.03443 48.556048,0.05863 72.84375,-0.0625 0.870748,-0.0075 1.995942,-0.169129 3.0625,-0.75 0.538578,-0.293321 1.199376,-0.785163 1.5625,-1.59375 0.285118,-0.634886 0.21618,-1.320937 0.03125,-1.96875 0.910177,0.228147 1.869657,0.136411 2.625,-0.4375 0.749103,-0.56917 1.079697,-1.355895 1.28125,-1.9375 0.426122,-1.229629 0.464056,-2.453549 0.5,-3.0625 a 0.98129583,0.98129583 0 0 0 0,-0.03125 c -7e-5,0.002 -3.5e-5,-0.05616 0,-0.09375 -5e-6,-0.01041 5e-6,-0.02084 0,-0.03125 -0.01254,-23.837291 0.01277,-47.688952 -0.03125,-71.53125 a 0.98129583,0.98129583 0 0 0 0,-0.0625 c 1.11e-4,0.002 -2.19e-4,-0.09572 0,-0.09375 2.19e-4,0.002 -3.26e-4,-0.09571 0,-0.09375 3.26e-4,0.002 -0.03168,-0.09568 -0.03125,-0.09375 2.03e-4,9.1e-4 0.0059,-0.03905 0,-0.0625 -0.0017,-0.0076 -0.02945,-0.05378 -0.03125,-0.0625 -0.07054,-0.34123 -0.166498,-1.480569 -0.53125,-2.59375 -0.181931,-0.5552324 -0.453387,-1.1993811 -1,-1.78125 -0.570692,-0.6075015 -1.398309,-1.0211995 -2.34375,-1.03125 0.0013,6.99e-5 -0.03255,8.169e-4 -0.0625,0 -0.01497,-4.084e-4 -0.0319,0 -0.03125,0 0.002,0 -0.126949,1.049e-4 -0.125,0 a 0.98129583,0.98129583 0 0 0 -0.0625,0 c 0.0019,-2.629e-4 -0.09563,3.628e-4 -0.09375,0 0.0019,-3.628e-4 -0.09561,0.031712 -0.09375,0.03125 0.0019,-4.617e-4 -0.09558,0.031809 -0.09375,0.03125 0.0018,-5.593e-4 -0.09555,0.031905 -0.09375,0.03125 0.0018,-6.553e-4 -0.09552,0.032 -0.09375,0.03125 0.0018,-7.495e-4 -0.09547,0.032092 -0.09375,0.03125 0.0017,-8.416e-4 -0.09543,0.063431 -0.09375,0.0625 6.7e-4,-3.726e-4 -0.01478,0.021517 -0.03125,0.03125 -0.0247,0.014599 -0.06347,6.112e-4 -0.0625,0 l 0.03125,0.03125 c -0.03546,0.020029 -0.05879,0.04211 -0.09375,0.0625 0.147157,-0.7763981 0.09256,-1.5847239 -0.375,-2.25 C 87.979693,4.9159197 87.229254,4.5652202 86.65625,4.375 85.538501,4.0039411 84.458581,4.0261156 83.75,4.0625 l -0.0625,0 -71.5625,0 -0.125,0 a 0.98129583,0.98129583 0 0 0 -0.1875,0 z m 35.28125,44 c 0.627015,0.166459 1.261102,0.211882 1.84375,0.03125 -0.158675,0.596447 -0.187177,1.192037 -0.03125,1.75 -0.0072,-0.0018 -0.02411,0.0017 -0.03125,0 -0.303384,-0.07392 -0.617356,-0.118498 -0.5,-0.09375 -0.03511,-0.0083 -0.06387,-2.66e-4 -0.0625,0 0.0029,5.65e-4 -0.15919,-0.03158 -0.15625,-0.03125 0.0029,3.27e-4 -0.159207,-8.6e-5 -0.15625,0 0.003,8.6e-5 -0.159204,1.55e-4 -0.15625,0 A 0.98129583,0.98129583 0 0 0 47.65625,49.75 c 0.0012,-3.23e-4 -0.03302,-0.0089 -0.0625,0 l 0,0.03125 c -0.01282,0.0039 -0.03184,1.95e-4 -0.03125,0 -0.04589,0.01037 -0.08019,0.01959 -0.125,0.03125 -0.158463,0.04124 -0.260809,0.131727 -0.40625,0.1875 0.194764,-0.656902 0.252448,-1.325178 0.0625,-1.9375 z" />
    <path
       sodipodi:type="inkscape:offset"
       inkscape:radius="0.87217575"
       inkscape:original="M 12 5.90625 C 10.845284 5.7358035 8.0825701 6.2376309 9.03125 7.96875 C 21.746036 20.720161 34.469432 33.487666 47.21875 46.1875 C 48.943377 47.101914 49.914357 44.704592 51.09375 43.875 C 63.066789 31.851363 75.159115 19.892806 87.0625 7.8125 C 87.72243 5.9702869 84.897305 5.8390306 83.75 5.90625 L 12 5.90625 z M 5.8125 9.40625 C 3.9884612 10.118464 4.0232458 12.853741 3.90625 14.5 C 3.940815 38.291117 3.847621 62.086463 3.96875 85.875 C 3.97837 86.992337 4.6418662 89.644215 6.28125 88.6875 C 19.258028 75.731076 32.268422 62.761541 45.1875 49.78125 C 46.101739 48.056798 43.704044 47.086191 42.875 45.90625 C 30.727766 33.795735 18.668421 21.578004 6.46875 9.53125 C 6.2731562 9.4277618 6.0321227 9.3791988 5.8125 9.40625 z M 89.90625 9.40625 C 88.150734 10.385074 86.984079 12.25728 85.4375 13.5625 C 73.909467 25.11143 62.296882 36.661365 50.8125 48.21875 C 49.894658 49.936449 52.298529 50.917292 53.125 52.09375 C 65.376389 64.30844 77.539851 76.630422 89.84375 88.78125 C 91.841831 89.455275 92.021401 86.225699 92.09375 85 C 92.081168 61.150343 92.106531 37.286617 92.0625 13.4375 C 91.779607 12.204004 91.693007 9.3903251 89.90625 9.40625 z M 48 51.5625 C 46.38702 51.908662 45.629793 53.76859 44.3125 54.71875 C 32.294123 66.774025 20.173254 78.735957 8.21875 90.84375 C 7.5447249 92.841831 10.774301 93.021401 12 93.09375 C 36.289797 93.05919 60.587783 93.15238 84.875 93.03125 C 85.992338 93.02165 88.644215 92.358134 87.6875 90.71875 C 74.712923 77.744702 61.786935 64.715235 48.75 51.8125 C 48.534873 51.637921 48.254536 51.616176 48 51.5625 z "
       style="opacity:0.1;fill:url(#linearGradient3730);fill-opacity:1;fill-rule:nonzero;stroke:none"
       id="path3728"
       d="M 12,5.03125 12,5.0625 C 11.218793,4.9680407 10.267601,5.0381391 9.375,5.4375 8.9071174,5.6468364 8.4319422,5.947571 8.15625,6.5 7.8805578,7.052429 7.9498062,7.7701926 8.28125,8.375 a 0.87226297,0.87226297 0 0 0 0.125,0.21875 c 12.714666,12.751291 25.436666,25.517406 38.1875,38.21875 a 0.87226297,0.87226297 0 0 0 0.21875,0.15625 c 0.600429,0.318353 1.289253,0.359405 1.84375,0.1875 0.554497,-0.171905 0.959319,-0.500492 1.3125,-0.84375 0.706362,-0.686516 1.266538,-1.466606 1.625,-1.71875 A 0.87226297,0.87226297 0 0 0 51.71875,44.5 C 63.688635,32.47953 75.77882,20.52318 87.6875,8.4375 A 0.87226297,0.87226297 0 0 0 87.875,8.09375 C 88.107719,7.4441074 88.039492,6.7195895 87.6875,6.21875 87.335508,5.7179105 86.828963,5.4735762 86.34375,5.3125 85.395903,4.9978435 84.400972,4.9958341 83.75,5.03125 l -0.0625,0 -71.5625,0 -0.125,0 z m -6.28125,3.5 A 0.87226297,0.87226297 0 0 0 5.5,8.59375 C 4.2338504,9.0881306 3.6404621,10.295725 3.375,11.40625 3.1095379,12.516775 3.0868933,13.654537 3.03125,14.4375 a 0.87226297,0.87226297 0 0 0 0,0.0625 c 0.03456,23.787994 -0.058656,47.581224 0.0625,71.375 0.00625,0.725347 0.1759441,1.711836 0.65625,2.59375 0.2401529,0.440957 0.5754498,0.878204 1.125,1.125 0.5495502,0.246796 1.2602914,0.184246 1.84375,-0.15625 a 0.87226297,0.87226297 0 0 0 0.1875,-0.125 C 19.882703,76.3564 32.891802,63.388168 45.8125,50.40625 a 0.87226297,0.87226297 0 0 0 0.15625,-0.21875 c 0.31832,-0.60042 0.359493,-1.289308 0.1875,-1.84375 -0.171993,-0.554442 -0.500497,-0.959379 -0.84375,-1.3125 -0.686505,-0.706241 -1.466936,-1.266604 -1.71875,-1.625 A 0.87226297,0.87226297 0 0 0 43.5,45.28125 C 31.356078,33.174037 19.298736,20.958252 7.09375,8.90625 A 0.87226297,0.87226297 0 0 0 6.875,8.75 C 6.5172931,8.5607382 6.1409164,8.4792512 5.71875,8.53125 z m 84.09375,0 a 0.87226297,0.87226297 0 0 0 -0.34375,0.125 c -2.025123,1.1291487 -3.196115,3.07048 -4.59375,4.25 A 0.87226297,0.87226297 0 0 0 84.8125,12.9375 C 73.285956,24.484939 61.674302,36.03393 50.1875,47.59375 a 0.87226297,0.87226297 0 0 0 -0.15625,0.21875 c -0.3203,0.599427 -0.359618,1.289141 -0.1875,1.84375 0.172118,0.554609 0.500252,0.958844 0.84375,1.3125 0.686996,0.707312 1.468617,1.268943 1.71875,1.625 a 0.87226297,0.87226297 0 0 0 0.09375,0.125 c 12.248103,12.211414 24.409577,24.531463 36.71875,36.6875 a 0.87226297,0.87226297 0 0 0 0.34375,0.1875 c 0.703153,0.237199 1.487293,0.139556 2,-0.25 0.512707,-0.389556 0.754326,-0.94018 0.9375,-1.46875 0.366347,-1.05714 0.43273,-2.20226 0.46875,-2.8125 a 0.87226297,0.87226297 0 0 0 0,-0.0625 C 92.956168,61.151268 92.981534,37.28831 92.9375,13.4375 A 0.87226297,0.87226297 0 0 0 92.90625,13.25 C 92.792768,12.755187 92.701056,11.682586 92.375,10.6875 92.211972,10.189957 91.991627,9.6735398 91.59375,9.25 91.195873,8.8264602 90.581883,8.5252283 89.90625,8.53125 a 0.87226297,0.87226297 0 0 0 -0.09375,0 z M 47.90625,50.6875 a 0.87226297,0.87226297 0 0 0 -0.09375,0.03125 c -1.092453,0.234452 -1.814879,0.957597 -2.40625,1.625 C 44.814879,53.011153 44.316468,53.636489 43.8125,54 a 0.87226297,0.87226297 0 0 0 -0.125,0.09375 C 31.672463,66.145675 19.553557,78.105586 7.59375,90.21875 a 0.87226297,0.87226297 0 0 0 -0.1875,0.34375 c -0.2371989,0.703153 -0.1395565,1.487293 0.25,2 0.3895565,0.512707 0.94018,0.754326 1.46875,0.9375 1.05714,0.366347 2.20226,0.43273 2.8125,0.46875 a 0.87226297,0.87226297 0 0 0 0.0625,0 c 24.286739,-0.03456 48.582651,0.05866 72.875,-0.0625 0.725365,-0.0062 1.711835,-0.17594 2.59375,-0.65625 0.440958,-0.240155 0.878205,-0.575449 1.125,-1.125 0.246795,-0.549551 0.184246,-1.260291 -0.15625,-1.84375 a 0.87226297,0.87226297 0 0 0 -0.125,-0.1875 C 75.339571,77.12135 62.415723,64.093984 49.375,51.1875 A 0.87226297,0.87226297 0 0 0 49.3125,51.125 c -0.475483,-0.385862 -0.950441,-0.369439 -1.125,-0.40625 A 0.87226297,0.87226297 0 0 0 47.90625,50.6875 z" />
    <path
       style="opacity:0.2;fill:url(#linearGradient3722);fill-opacity:1;fill-rule:nonzero;stroke:none"
       d="M 12,5.90625 C 10.845284,5.7358035 8.0721535,6.2381851 9.0208334,7.9693042 21.735619,20.720715 34.469432,33.487666 47.21875,46.1875 48.943377,47.101914 49.925141,44.693808 51.104534,43.864216 63.077573,31.840579 75.162182,19.907711 87.065567,7.8274048 87.725497,5.9851917 84.899283,5.8390306 83.751978,5.90625 c -23.917326,0 -47.834652,0 -71.751978,0 z m -6.1875,3.5 C 3.9884612,10.118464 4.0232458,12.849784 3.90625,14.496043 3.940815,38.28716 3.837073,62.082397 3.958202,85.870934 3.967822,86.988271 4.6420247,89.657631 6.2814085,88.700916 19.258187,75.744492 32.268422,62.761541 45.1875,49.78125 46.101739,48.056798 43.694119,47.074548 42.865075,45.894607 30.717841,33.784092 18.654719,21.571296 6.4550483,9.5245419 6.2594545,9.4210537 6.0321227,9.3791988 5.8125,9.40625 z m 84.09375,0 c -1.755516,0.978824 -2.936734,2.865593 -4.483313,4.170813 C 73.894904,25.125993 62.296882,36.661365 50.8125,48.21875 c -0.917842,1.717699 1.495961,2.710179 2.322432,3.886637 12.251389,12.21469 24.418675,24.53167 36.722574,36.682498 C 91.855587,89.46191 92.021401,86.225699 92.09375,85 92.081168,61.150343 92.118912,37.299823 92.074881,13.450706 91.791988,12.21721 91.693007,9.3903251 89.90625,9.40625 z M 48,51.5625 c -1.61298,0.346162 -2.376942,2.21069 -3.694235,3.16085 C 32.287388,66.778625 20.166619,78.749713 8.2121152,90.857506 7.5380901,92.855587 10.774301,93.021401 12,93.09375 36.289797,93.05919 60.583716,93.16293 84.870933,93.0418 85.988271,93.0322 88.657631,92.357977 87.700916,90.718593 74.726339,77.744545 61.786935,64.715235 48.75,51.8125 48.534873,51.637921 48.254536,51.616176 48,51.5625 z"
       id="path3713" />
    <path
       style="opacity:0.3;fill:url(#linearGradient3702);fill-opacity:1;fill-rule:nonzero;stroke:none"
       d="M 12,7 C 11.272875,7 10.564623,7.1085806 9.90625,7.3125 l 37.875,37.90625 A 0.30839153,0.30839153 0 0 0 47.8125,45.25 0.30839153,0.30839153 0 0 0 48.21875,45.21875 L 86.09375,7.3125 C 85.435377,7.1085806 84.727125,7 84,7 L 12,7 z M 5.9375,10.5 C 5.3433075,11.529583 5,12.721131 5,14 l 0,71 c 0,1.008804 0.2441164,1.947663 0.625,2.8125 L 44.21875,49.21875 A 0.30839153,0.30839153 0 0 0 44.25,49.1875 0.30839153,0.30839153 0 0 0 44.21875,48.78125 L 5.9375,10.5 z m 84.125,0 -38.28125,38.28125 A 0.30839153,0.30839153 0 0 0 51.75,48.8125 0.30839153,0.30839153 0 0 0 51.78125,49.21875 L 90.375,87.8125 C 90.755884,86.947663 91,86.008804 91,85 l 0,-71 c 0,-1.278869 -0.343308,-2.470417 -0.9375,-3.5 z M 47.90625,52.6875 a 0.30839153,0.30839153 0 0 0 -0.125,0.09375 L 9.1875,91.375 C 10.052337,91.755884 10.991196,92 12,92 l 72,0 c 1.008804,0 1.947663,-0.244116 2.8125,-0.625 L 48.21875,52.78125 A 0.30839153,0.30839153 0 0 0 48.1875,52.75 0.30839153,0.30839153 0 0 0 47.90625,52.6875 z"
       id="rect3699" />
    <path
       sodipodi:type="inkscape:offset"
       inkscape:radius="0.99097413"
       inkscape:original="M 12 -94.03125 C 7.028367 -94.03125 2.96875 -89.971633 2.96875 -85 L 2.96875 -14 C 2.96875 -9.0283671 7.0283671 -4.96875 12 -4.96875 L 84 -4.96875 C 88.971633 -4.96875 93.03125 -9.028367 93.03125 -14 L 93.03125 -85 C 93.03125 -89.971633 88.971633 -94.03125 84 -94.03125 L 12 -94.03125 z "
       style="opacity:0.07999998;fill:url(#linearGradient3026);fill-opacity:1;fill-rule:nonzero;stroke:none;display:inline"
       id="path3786"
       d="m 12,-95.03125 c -5.5110903,0 -10.03125,4.52016 -10.03125,10.03125 l 0,71 c 0,5.5110902 4.5201598,10.03125 10.03125,10.03125 l 72,0 c 5.51109,0 10.03125,-4.5201597 10.03125,-10.03125 l 0,-71 c 0,-5.51109 -4.52016,-10.03125 -10.03125,-10.03125 l -72,0 z"
       transform="matrix(1,0,0,-1,0,100)" />
    <path
       sodipodi:type="inkscape:offset"
       inkscape:radius="1.0360184"
       inkscape:original="M 12 -93 C 7.5908667 -93 4 -89.409133 4 -85 L 4 -14 C 4 -9.5908667 7.5908667 -6 12 -6 L 84 -6 C 88.409133 -6 92 -9.5908667 92 -14 L 92 -85 C 92 -89.409133 88.409133 -93 84 -93 L 12 -93 z "
       style="opacity:0.1;fill:url(#linearGradient3780);fill-opacity:1;fill-rule:nonzero;stroke:none;display:inline"
       id="path3778"
       d="m 12,-94.03125 c -4.971633,0 -9.03125,4.059617 -9.03125,9.03125 l 0,71 c 0,4.9716329 4.0596171,9.03125 9.03125,9.03125 l 72,0 c 4.971633,0 9.03125,-4.059617 9.03125,-9.03125 l 0,-71 c 0,-4.971633 -4.059617,-9.03125 -9.03125,-9.03125 l -72,0 z"
       transform="matrix(1,0,0,-1,0,100)" />
    <path
       sodipodi:type="inkscape:offset"
       inkscape:radius="0.98962283"
       inkscape:original="M 12 -92 C 8.122 -92 5 -88.878 5 -85 L 5 -14 C 5 -10.122 8.122 -7 12 -7 L 84 -7 C 87.878 -7 91 -10.122 91 -14 L 91 -85 C 91 -88.878 87.878 -92 84 -92 L 12 -92 z "
       style="opacity:0.2;fill:url(#linearGradient3772);fill-opacity:1;fill-rule:nonzero;stroke:none;display:inline"
       id="path3770"
       d="m 12,-93 c -4.4091333,0 -8,3.590867 -8,8 l 0,71 c 0,4.4091333 3.5908667,8 8,8 l 72,0 c 4.409133,0 8,-3.5908667 8,-8 l 0,-71 c 0,-4.409133 -3.590867,-8 -8,-8 l -72,0 z"
       transform="matrix(1,0,0,-1,0,100)" />
    <rect
       style="opacity:0.3;fill:url(#linearGradient3725);fill-opacity:1;fill-rule:nonzero;stroke:none;display:inline"
       id="rect3723"
       width="86"
       height="85"
       x="5"
       y="-192"
       rx="7"
       ry="7"
       transform="scale(1,-1)" />
    <rect
       transform="scale(1,-1)"
       ry="6"
       rx="6"
       y="-191"
       x="6"
       height="84"
       width="84"
       id="rect3716"
       style="opacity:0.45;fill:url(#linearGradient3721);fill-opacity:1;fill-rule:nonzero;stroke:none;display:inline" />
    <path
       style="opacity:0.45;fill:url(#linearGradient3696);fill-opacity:1;fill-rule:nonzero;stroke:none"
       d="M 12,7 C 11.39818,7 10.828551,7.1178465 10.28125,7.28125 L 48,45 85.71875,7.28125 C 85.171449,7.1178465 84.60182,7 84,7 L 12,7 z M 6.28125,11.28125 C 6.1178465,11.828551 6,12.39818 6,13 l 0,72 c 0,0.60182 0.1178465,1.171449 0.28125,1.71875 L 44,49 6.28125,11.28125 z m 83.4375,0 L 52,49 89.71875,86.71875 C 89.882154,86.171449 90,85.60182 90,85 l 0,-72 c 0,-0.60182 -0.117846,-1.171449 -0.28125,-1.71875 z M 48,53 10.28125,90.71875 C 10.828551,90.882154 11.39818,91 12,91 l 72,0 c 0.60182,0 1.171449,-0.117846 1.71875,-0.28125 L 48,53 z"
       id="rect3683" />
    <path
       id="path3704"
       d="m 108,5 -4,4 40,40 -40,40 4,4 40,-40 40,40 4,-4 L 152,49 192,9 188,5 148,45 108,5 z"
       style="fill:#ff0000;stroke:none" />
  </g>
  <g
     inkscape:label="Button"
     inkscape:groupmode="layer"
     id="layer1"
     style="display:inline">
    <path
       style="fill:url(#linearGradient3833);fill-opacity:1;fill-rule:nonzero;stroke:none"
       d="M 12,6 C 11.39818,6 10.828551,6.1178465 10.28125,6.28125 L 48,44 85.71875,6.28125 C 85.171449,6.1178465 84.60182,6 84,6 L 12,6 z"
       id="path3831" />
    <path
       style="fill:url(#linearGradient3835);fill-opacity:1;fill-rule:nonzero;stroke:none"
       d="M 6.28125,10.28125 C 6.1178465,10.828551 6,11.39818 6,12 l 0,72 c 0,0.60182 0.1178465,1.171449 0.28125,1.71875 L 44,48 6.28125,10.28125 z"
       id="path3829" />
    <path
       style="fill:url(#linearGradient3837);fill-opacity:1;fill-rule:nonzero;stroke:none"
       d="M 89.71875,10.28125 52,48 89.71875,85.71875 C 89.882154,85.171449 90,84.60182 90,84 l 0,-72 c 0,-0.60182 -0.117846,-1.171449 -0.28125,-1.71875 z"
       id="path3827" />
    <path
       style="fill:url(#linearGradient3989);fill-opacity:1;fill-rule:nonzero;stroke:none"
       d="M 48,52 10.28125,89.71875 C 10.828551,89.882154 11.39818,90 12,90 l 72,0 c 0.60182,0 1.171449,-0.117846 1.71875,-0.28125 L 48,52 z"
       id="rect2419" />
    <rect
       ry="6"
       rx="6"
       y="6"
       x="116"
       height="84"
       width="84"
       id="rect3668"
       style="fill:url(#linearGradient3670);fill-opacity:1;fill-rule:nonzero;stroke:none" />
    <path
       style="opacity:0.5;fill:url(#linearGradient3188);fill-opacity:1;fill-rule:nonzero;stroke:none"
       d="m 122,6 c -3.324,0 -6,2.676 -6,6 l 0,2 0,68 0,2 c 0,0.334721 0.0413,0.6507 0.0937,0.96875 0.0487,0.295596 0.097,0.596915 0.1875,0.875 0.01,0.03038 0.0209,0.0636 0.0312,0.09375 0.0989,0.287771 0.23488,0.547452 0.375,0.8125 0.14459,0.273507 0.31562,0.535615 0.5,0.78125 0.18438,0.245635 0.37378,0.473472 0.59375,0.6875 0.43995,0.428056 0.94291,0.814526 1.5,1.09375 0.27854,0.139612 0.57347,0.246947 0.875,0.34375 -0.2562,-0.100222 -0.48671,-0.236272 -0.71875,-0.375 -0.007,-0.0044 -0.0239,0.0045 -0.0312,0 -0.0319,-0.0193 -0.0623,-0.04251 -0.0937,-0.0625 -0.1204,-0.0767 -0.23102,-0.163513 -0.34375,-0.25 -0.10617,-0.0808 -0.21328,-0.161112 -0.3125,-0.25 -0.17793,-0.161433 -0.34746,-0.345388 -0.5,-0.53125 -0.10758,-0.130255 -0.21839,-0.265285 -0.3125,-0.40625 -0.0251,-0.03838 -0.0384,-0.08587 -0.0625,-0.125 -0.0648,-0.103032 -0.13023,-0.204517 -0.1875,-0.3125 -0.10101,-0.194706 -0.20567,-0.415701 -0.28125,-0.625 -0.008,-0.02181 -0.0236,-0.04055 -0.0312,-0.0625 -0.0318,-0.09195 -0.0358,-0.186831 -0.0625,-0.28125 -0.0303,-0.106618 -0.0704,-0.203031 -0.0937,-0.3125 C 117.05212,85.720988 117,85.364295 117,85 l 0,-2 0,-68 0,-2 c 0,-2.781848 2.21815,-5 5,-5 l 2,0 68,0 2,0 c 2.78185,0 5,2.218152 5,5 l 0,2 0,68 0,2 c 0,0.364295 -0.0521,0.720988 -0.125,1.0625 -0.0442,0.206893 -0.0884,0.397658 -0.15625,0.59375 -0.008,0.02195 -0.0233,0.04069 -0.0312,0.0625 -0.0627,0.173739 -0.13838,0.367449 -0.21875,0.53125 -0.0416,0.0828 -0.079,0.169954 -0.125,0.25 -0.0546,0.09721 -0.12677,0.18835 -0.1875,0.28125 -0.0941,0.140965 -0.20492,0.275995 -0.3125,0.40625 -0.14317,0.17445 -0.30314,0.346998 -0.46875,0.5 -0.0112,0.0102 -0.02,0.02115 -0.0312,0.03125 -0.13839,0.125556 -0.28509,0.234436 -0.4375,0.34375 -0.10257,0.07315 -0.20432,0.153364 -0.3125,0.21875 -0.007,0.0045 -0.0238,-0.0044 -0.0312,0 -0.23204,0.138728 -0.46255,0.274778 -0.71875,0.375 0.30153,-0.0968 0.59646,-0.204138 0.875,-0.34375 0.55709,-0.279224 1.06005,-0.665694 1.5,-1.09375 0.21997,-0.214028 0.40937,-0.441865 0.59375,-0.6875 0.18438,-0.245635 0.35541,-0.507743 0.5,-0.78125 0.14012,-0.265048 0.27613,-0.524729 0.375,-0.8125 0.0104,-0.03078 0.0213,-0.06274 0.0312,-0.09375 0.0905,-0.278085 0.1388,-0.579404 0.1875,-0.875 C 199.95865,84.6507 200,84.334721 200,84 l 0,-2 0,-68 0,-2 c 0,-3.324 -2.676,-6 -6,-6 l -72,0 z"
       id="rect3728" />
    <path
       id="path3615"
       d="m 122,90 c -3.324,0 -6,-2.676 -6,-6 l 0,-2 0,-68 0,-2 c 0,-0.334721 0.0413,-0.6507 0.0937,-0.96875 0.0487,-0.295596 0.097,-0.596915 0.1875,-0.875 0.01,-0.03038 0.0209,-0.0636 0.0312,-0.09375 0.0989,-0.287771 0.23488,-0.547452 0.375,-0.8125 0.14459,-0.273507 0.31562,-0.535615 0.5,-0.78125 0.18438,-0.245635 0.37378,-0.473472 0.59375,-0.6875 0.43995,-0.428056 0.94291,-0.814526 1.5,-1.09375 0.27854,-0.139612 0.57347,-0.246947 0.875,-0.34375 -0.2562,0.100222 -0.48671,0.236272 -0.71875,0.375 -0.007,0.0044 -0.0239,-0.0045 -0.0312,0 -0.0319,0.0193 -0.0623,0.04251 -0.0937,0.0625 -0.1204,0.0767 -0.23102,0.163513 -0.34375,0.25 -0.10617,0.0808 -0.21328,0.161112 -0.3125,0.25 -0.17793,0.161433 -0.34746,0.345388 -0.5,0.53125 -0.10758,0.130255 -0.21839,0.265285 -0.3125,0.40625 -0.0251,0.03838 -0.0384,0.08587 -0.0625,0.125 -0.0648,0.103032 -0.13023,0.204517 -0.1875,0.3125 -0.10101,0.194706 -0.20567,0.415701 -0.28125,0.625 -0.008,0.02181 -0.0236,0.04055 -0.0312,0.0625 -0.0318,0.09195 -0.0358,0.186831 -0.0625,0.28125 -0.0303,0.106618 -0.0704,0.203031 -0.0937,0.3125 C 117.05212,10.279012 117,10.635705 117,11 l 0,2 0,68 0,2 c 0,2.781848 2.21815,5 5,5 l 2,0 68,0 2,0 c 2.78185,0 5,-2.218152 5,-5 l 0,-2 0,-68 0,-2 c 0,-0.364295 -0.0521,-0.720988 -0.125,-1.0625 -0.0442,-0.206893 -0.0884,-0.397658 -0.15625,-0.59375 -0.008,-0.02195 -0.0233,-0.04069 -0.0312,-0.0625 -0.0627,-0.173739 -0.13838,-0.367449 -0.21875,-0.53125 -0.0416,-0.0828 -0.079,-0.169954 -0.125,-0.25 -0.0546,-0.09721 -0.12677,-0.18835 -0.1875,-0.28125 -0.0941,-0.140965 -0.20492,-0.275995 -0.3125,-0.40625 -0.14317,-0.17445 -0.30314,-0.346998 -0.46875,-0.5 -0.0112,-0.0102 -0.02,-0.02115 -0.0312,-0.03125 -0.13839,-0.125556 -0.28509,-0.234436 -0.4375,-0.34375 -0.10257,-0.07315 -0.20432,-0.153364 -0.3125,-0.21875 -0.007,-0.0045 -0.0238,0.0044 -0.0312,0 -0.23204,-0.138728 -0.46255,-0.274778 -0.71875,-0.375 0.30153,0.0968 0.59646,0.204138 0.875,0.34375 0.55709,0.279224 1.06005,0.665694 1.5,1.09375 0.21997,0.214028 0.40937,0.441865 0.59375,0.6875 0.18438,0.245635 0.35541,0.507743 0.5,0.78125 0.14012,0.265048 0.27613,0.524729 0.375,0.8125 0.0104,0.03078 0.0213,0.06274 0.0312,0.09375 0.0905,0.278085 0.1388,0.579404 0.1875,0.875 C 199.95865,11.3493 200,11.665279 200,12 l 0,2 0,68 0,2 c 0,3.324 -2.676,6 -6,6 l -72,0 z"
       style="opacity:0.2;fill:url(#radialGradient3619);fill-opacity:1;fill-rule:nonzero;stroke:none" />
    <path
       style="opacity:0.4;fill:url(#linearGradient3753);fill-opacity:1;fill-rule:nonzero;stroke:none"
       d="M 12,6 C 11.39818,6 10.828551,6.1178465 10.28125,6.28125 L 48,44 85.71875,6.28125 C 85.171449,6.1178465 84.60182,6 84,6 L 12,6 z m 0.65625,2.09375 70.6875,0 L 48,43.4375 12.65625,8.09375 z m -6.375,2.1875 C 6.1178465,10.828551 6,11.39818 6,12 l 0,72 c 0,0.60182 0.1178465,1.171449 0.28125,1.71875 L 44,48 6.28125,10.28125 z m 83.4375,0 L 52,48 89.71875,85.71875 C 89.882154,85.171449 90,84.60182 90,84 l 0,-72 c 0,-0.60182 -0.117846,-1.171449 -0.28125,-1.71875 z m -82.625,3.375 L 42.4375,49 7.09375,84.34375 l 0,-70.6875 z m 81.8125,0 0,70.6875 L 53.5625,49 88.90625,13.65625 z M 48,52 10.28125,89.71875 C 10.828551,89.882154 11.39818,90 12,90 l 72,0 c 0.60182,0 1.171449,-0.117846 1.71875,-0.28125 L 48,52 z m 0,2.5625 35.34375,35.34375 -70.6875,0 L 48,54.5625 z"
       id="path3740" />
    <path
       style="opacity:0.2;fill:url(#radialGradient3764);fill-opacity:1;fill-rule:nonzero;stroke:none"
       d="M 6.28125,10.28125 C 6.19955,10.5549 6.143637,10.838953 6.09375,11.125 6.043863,11.411047 6,11.69909 6,12 l 0,2 0,68 0,2 c 0,0.60182 0.117847,1.171449 0.28125,1.71875 L 7.3125,84.6875 C 7.124928,84.15926 7,83.596349 7,83 L 7,81 7,13 7,11 6.28125,10.28125 z m 83.4375,0 L 89,11 l 0,2 0,68 0,2 c 0,0.596349 -0.124928,1.15926 -0.3125,1.6875 l 1.03125,1.03125 C 89.882154,85.171449 90,84.60182 90,84 l 0,-2 0,-68 0,-2 c 0,-0.30091 -0.04386,-0.588953 -0.09375,-0.875 -0.04989,-0.286047 -0.105798,-0.570099 -0.1875,-0.84375 z M 12,88 10.28125,89.71875 C 10.828551,89.882154 11.39818,90 12,90 l 72,0 c 0.60182,0 1.171449,-0.117846 1.71875,-0.28125 L 84,88 l -2,0 -68,0 -2,0 z"
       id="path3755" />
  </g>
  <g
     inkscape:groupmode="layer"
     id="layer5"
     inkscape:label="Highlight"
     sodipodi:insensitive="true">
    <rect
       style="opacity:0.1;fill:url(#linearGradient3613);fill-opacity:1;fill-rule:nonzero;stroke:#ffffff;stroke-width:0.5;stroke-linecap:round;stroke-linejoin:miter;stroke-miterlimit:4;stroke-opacity:1;stroke-dasharray:none;stroke-dashoffset:0;filter:url(#filter3794)"
       id="rect3171"
       width="66"
       height="66"
       x="15"
       y="15"
       rx="12"
       ry="12"
       clip-path="url(#clipPath3613)" />
  </g>
  <g
     inkscape:groupmode="layer"
     id="layer4"
     inkscape:label="Numbers">
    <g
       style="font-size:24px;font-style:normal;font-variant:normal;font-weight:bold;font-stretch:normal;text-align:center;line-height:125%;writing-mode:lr-tb;text-anchor:middle;fill:#ffffff;fill-opacity:1;stroke:none;font-family:Liberation Sans;-inkscape-font-specification:Abandoned Bitplane Bold"
       id="text3852">
      <path
         d="m 14.222656,56.378906 0,-2.285156 c 0.374999,-0.820309 0.83203,-1.55859 1.371094,-2.214844 0.53906,-0.664057 1.101559,-1.269525 1.6875,-1.816406 0.593746,-0.554681 1.179682,-1.066399 1.757812,-1.535156 0.585932,-0.476554 1.109369,-0.933585 1.570313,-1.371094 0.468742,-0.445303 0.847648,-0.890615 1.136719,-1.335938 0.289054,-0.445301 0.433585,-0.917957 0.433593,-1.417968 -8e-6,-0.734363 -0.183602,-1.277331 -0.550781,-1.628907 -0.367195,-0.351548 -0.906257,-0.527329 -1.617187,-0.527343 -0.703131,1.4e-5 -1.242193,0.19142 -1.617188,0.574218 -0.367192,0.375014 -0.605473,0.941419 -0.714844,1.699219 l -3.316406,-0.1875 c 0.07812,-0.648425 0.23828,-1.257799 0.480469,-1.828125 0.242186,-0.570298 0.585935,-1.070297 1.03125,-1.5 0.453122,-0.429671 1.015621,-0.765609 1.6875,-1.007812 0.679683,-0.249984 1.488276,-0.374983 2.425781,-0.375 0.890618,1.7e-5 1.679679,0.105485 2.367188,0.316406 0.68749,0.203141 1.265615,0.503922 1.734375,0.902344 0.468739,0.398452 0.824207,0.886733 1.066406,1.464843 0.242175,0.570327 0.363269,1.22267 0.363281,1.957032 -1.2e-5,0.773449 -0.152355,1.472667 -0.457031,2.097656 -0.304699,0.625009 -0.695323,1.203134 -1.171875,1.734375 -0.476573,0.523445 -1.007822,1.015632 -1.59375,1.476562 -0.578133,0.460944 -1.140633,0.910163 -1.6875,1.347657 -0.546882,0.437505 -1.046881,0.878911 -1.5,1.324218 -0.445318,0.445317 -0.777349,0.921879 -0.996094,1.429688 l 7.664063,0 0,2.707031 -11.554688,0"
         style=""
         id="path3878" />
    </g>
    <g
       style="font-size:24px;font-style:normal;font-variant:normal;font-weight:bold;font-stretch:normal;text-align:center;line-height:125%;writing-mode:lr-tb;text-anchor:middle;fill:#ffffff;fill-opacity:1;stroke:none;font-family:Liberation Sans;-inkscape-font-specification:Abandoned Bitplane Bold"
       id="text3856">
      <path
         d="m 81.970703,50.882812 c -1.3e-5,0.82813 -0.132825,1.593754 -0.398437,2.296875 -0.257825,0.695316 -0.644543,1.300784 -1.160157,1.816407 -0.515635,0.507813 -1.15626,0.90625 -1.921875,1.195312 -0.757821,0.28125 -1.636726,0.421875 -2.636718,0.421875 -0.921881,0 -1.726568,-0.109375 -2.414063,-0.328125 -0.687503,-0.226562 -1.269534,-0.535155 -1.746094,-0.925781 -0.468752,-0.398436 -0.839845,-0.863279 -1.113281,-1.394531 -0.265626,-0.531247 -0.449219,-1.101559 -0.550781,-1.710938 l 3.292969,-0.269531 c 0.0625,0.257817 0.148433,0.507816 0.257812,0.75 0.117183,0.242191 0.277339,0.457034 0.480469,0.644531 0.20312,0.187503 0.45312,0.339847 0.75,0.457031 0.296869,0.109378 0.656244,0.164065 1.078125,0.164063 0.820305,2e-6 1.472648,-0.261716 1.957031,-0.785156 0.492179,-0.523434 0.738272,-1.27734 0.738281,-2.261719 -9e-6,-0.437494 -0.06251,-0.832025 -0.1875,-1.183594 -0.117196,-0.351555 -0.289071,-0.652336 -0.515625,-0.902344 -0.218758,-0.249992 -0.492195,-0.441398 -0.820312,-0.574218 -0.32032,-0.132805 -0.687507,-0.199211 -1.101563,-0.199219 -0.546881,8e-6 -0.996099,0.105477 -1.347656,0.316406 -0.351567,0.203133 -0.648442,0.453133 -0.890625,0.75 l -3.210937,0 0.574218,-9.292969 9.925782,0 0,2.449219 -6.9375,0 -0.269532,4.171875 c 0.328121,-0.289052 0.742183,-0.535146 1.242188,-0.738281 0.499994,-0.210927 1.082024,-0.316395 1.746094,-0.316406 0.812491,1.1e-5 1.539053,0.132823 2.179687,0.398437 0.640615,0.265636 1.183583,0.636729 1.628906,1.113281 0.445301,0.476572 0.785145,1.05079 1.019532,1.722657 0.234362,0.664069 0.351549,1.40235 0.351562,2.214843"
         style=""
         id="path3872" />
    </g>
    <g
       style="font-size:24px;font-style:normal;font-variant:normal;font-weight:bold;font-stretch:normal;text-align:center;line-height:125%;writing-mode:lr-tb;text-anchor:middle;fill:#ffffff;fill-opacity:1;stroke:none;font-family:Liberation Sans;-inkscape-font-specification:Abandoned Bitplane Bold"
       id="text3860">
      <path
         d="m 53.871094,24.976562 c -1.3e-5,0.82813 -0.1172,1.589848 -0.351563,2.285157 -0.234387,0.687502 -0.585949,1.281252 -1.054687,1.78125 -0.460948,0.492188 -1.039073,0.878906 -1.734375,1.160156 -0.695321,0.273437 -1.500008,0.410156 -2.414063,0.410156 -1.945317,0 -3.441409,-0.679687 -4.488281,-2.039062 -1.039064,-1.367185 -1.558595,-3.39062 -1.558594,-6.070313 -10e-7,-2.945301 0.527343,-5.160143 1.582031,-6.644531 1.062497,-1.492171 2.57812,-2.238264 4.546875,-2.238281 0.656243,1.7e-5 1.253898,0.07033 1.792969,0.210937 0.539053,0.132829 1.019522,0.351579 1.441406,0.65625 0.421865,0.304703 0.781239,0.699234 1.078125,1.183594 0.296864,0.476577 0.535145,1.058607 0.714844,1.746094 l -3.105469,0.433593 c -0.156258,-0.578111 -0.410164,-0.992173 -0.761718,-1.242187 -0.351571,-0.257798 -0.761726,-0.386705 -1.230469,-0.386719 -0.882819,1.4e-5 -1.57813,0.44142 -2.085938,1.324219 -0.500004,0.882824 -0.750004,2.222667 -0.75,4.019531 0.351559,-0.585928 0.839839,-1.035146 1.464844,-1.347656 0.624994,-0.31249 1.332025,-0.468739 2.121094,-0.46875 0.726554,1.1e-5 1.382803,0.121104 1.96875,0.363281 0.59374,0.234385 1.097645,0.578135 1.511719,1.03125 0.421863,0.445322 0.746082,0.992196 0.972656,1.640625 0.22655,0.648445 0.339831,1.378913 0.339844,2.191406 m -3.304688,0.09375 c -9e-6,-0.445306 -0.05079,-0.843743 -0.152344,-1.195312 -0.101571,-0.359368 -0.257821,-0.664055 -0.46875,-0.914063 -0.203133,-0.249992 -0.457039,-0.441398 -0.761718,-0.574218 -0.304695,-0.140617 -0.656257,-0.21093 -1.054688,-0.210938 -0.289069,8e-6 -0.578131,0.04688 -0.867187,0.140625 -0.289068,0.09376 -0.546881,0.246102 -0.773438,0.457031 -0.226567,0.203133 -0.410161,0.464851 -0.550781,0.785157 -0.140629,0.320319 -0.210942,0.707037 -0.210938,1.160156 -4e-6,0.468755 0.05859,0.906255 0.175782,1.3125 0.117183,0.406254 0.281245,0.761722 0.492187,1.066406 0.218745,0.296878 0.480464,0.531253 0.785156,0.703125 0.304682,0.164065 0.648432,0.246096 1.03125,0.246094 0.74218,2e-6 1.320305,-0.261716 1.734375,-0.785156 0.414054,-0.531247 0.621085,-1.261715 0.621094,-2.191407"
         style=""
         id="path3875" />
    </g>
    <g
       style="font-size:24px;font-style:normal;font-variant:normal;font-weight:bold;font-stretch:normal;text-align:center;line-height:125%;writing-mode:lr-tb;text-anchor:middle;fill:#ffffff;fill-opacity:1;stroke:none;font-family:Liberation Sans;-inkscape-font-specification:Abandoned Bitplane Bold"
       id="text3864">
      <path
         d="m 53.683594,68.363281 c -0.742199,1.171888 -1.445324,2.308606 -2.109375,3.410156 -0.65626,1.101572 -1.230478,2.210946 -1.722657,3.328125 -0.492195,1.109382 -0.88282,2.253912 -1.171875,3.433594 -0.281257,1.171878 -0.421881,2.414064 -0.421875,3.726563 l -3.433593,0 c -4e-6,-1.304686 0.15234,-2.542966 0.457031,-3.714844 0.312496,-1.179683 0.73437,-2.328119 1.265625,-3.445313 0.531244,-1.117179 1.148431,-2.21874 1.851562,-3.304687 0.703118,-1.093738 1.445305,-2.207019 2.226563,-3.339844 l -8.203125,0 0,-2.707031 11.261719,0 0,2.613281"
         style=""
         id="path3869" />
    </g>
    <path
       style="font-size:24px;font-style:normal;font-variant:normal;font-weight:bold;font-stretch:normal;text-align:center;line-height:125%;writing-mode:lr-tb;text-anchor:middle;opacity:0.4;fill:#000000;fill-opacity:1;stroke:none;font-family:Liberation Sans;-inkscape-font-specification:Abandoned Bitplane Bold"
       d="m 48.40625,12.625 c -1.968755,1.7e-5 -3.500003,0.757829 -4.5625,2.25 -1.054688,1.484388 -1.562501,3.679699 -1.5625,6.625 0,0.134207 0.02877,0.244122 0.03125,0.375 0.06942,-2.62656 0.55416,-4.624824 1.53125,-6 1.062497,-1.492171 2.593745,-2.249983 4.5625,-2.25 0.656243,1.7e-5 1.242179,0.07814 1.78125,0.21875 0.539053,0.132829 1.015616,0.351579 1.4375,0.65625 0.421865,0.304703 0.796864,0.70314 1.09375,1.1875 0.143758,0.230786 0.289023,0.47637 0.40625,0.75 l 0.3125,-0.03125 c -0.179699,-0.687487 -0.421886,-1.273423 -0.71875,-1.75 C 52.421864,14.17189 52.046865,13.804703 51.625,13.5 51.203116,13.195329 50.726553,12.976579 50.1875,12.84375 49.648429,12.703143 49.062493,12.625017 48.40625,12.625 z m 0.65625,6.125 c -0.789069,1.1e-5 -1.468756,0.15626 -2.09375,0.46875 -0.611255,0.305635 -1.087628,0.74551 -1.4375,1.3125 -0.02128,0.332551 -0.03125,0.660598 -0.03125,1.03125 0.351559,-0.585928 0.843745,-1.03124 1.46875,-1.34375 0.624994,-0.31249 1.304681,-0.468739 2.09375,-0.46875 0.726554,1.1e-5 1.414053,0.132823 2,0.375 0.59374,0.234385 1.085926,0.578135 1.5,1.03125 0.421863,0.445322 0.742176,0.976571 0.96875,1.625 0.17764,0.508451 0.273104,1.079226 0.3125,1.6875 0.0098,-0.167974 0.03125,-0.325882 0.03125,-0.5 -1.3e-5,-0.812493 -0.1172,-1.539055 -0.34375,-2.1875 -0.226574,-0.648429 -0.546887,-1.179678 -0.96875,-1.625 -0.414074,-0.453115 -0.90626,-0.796865 -1.5,-1.03125 -0.585947,-0.242177 -1.273446,-0.374989 -2,-0.375 z m -3.28125,5.5 c -0.02128,0.150992 -0.0625,0.29827 -0.0625,0.46875 -4e-6,0.468755 0.07031,0.906255 0.1875,1.3125 0.117183,0.406254 0.289058,0.757816 0.5,1.0625 0.218745,0.296878 0.476558,0.546878 0.78125,0.71875 0.304682,0.164065 0.648432,0.250002 1.03125,0.25 0.74218,2e-6 1.30468,-0.28906 1.71875,-0.8125 0.414054,-0.531247 0.624991,-1.257808 0.625,-2.1875 -2e-6,-0.122709 -0.02311,-0.229018 -0.03125,-0.34375 -0.07874,0.621461 -0.283209,1.132815 -0.59375,1.53125 -0.41407,0.52344 -0.97657,0.812502 -1.71875,0.8125 -0.382818,2e-6 -0.726568,-0.08593 -1.03125,-0.25 -0.304692,-0.171872 -0.562505,-0.421872 -0.78125,-0.71875 -0.210942,-0.304684 -0.382817,-0.656246 -0.5,-1.0625 -0.0718,-0.248908 -0.09378,-0.508875 -0.125,-0.78125 z M 20,38.625 c -0.937505,1.7e-5 -1.757817,0.125016 -2.4375,0.375 -0.671879,0.242203 -1.234378,0.570329 -1.6875,1 -0.445315,0.429703 -0.789064,0.929702 -1.03125,1.5 -0.242189,0.570326 -0.39063,1.195325 -0.46875,1.84375 l 0.21875,0 c 0.07432,-0.284834 0.137705,-0.579309 0.25,-0.84375 0.242186,-0.570298 0.585935,-1.070297 1.03125,-1.5 0.453122,-0.429671 1.015621,-0.757797 1.6875,-1 0.679683,-0.249984 1.499995,-0.374983 2.4375,-0.375 0.890618,1.7e-5 1.656241,0.101579 2.34375,0.3125 0.68749,0.203141 1.28124,0.507828 1.75,0.90625 0.468739,0.398452 0.820301,0.89064 1.0625,1.46875 0.181631,0.427745 0.295039,0.891729 0.34375,1.40625 0.01405,-0.156664 0.03125,-0.307516 0.03125,-0.46875 -1.2e-5,-0.734362 -0.132825,-1.367173 -0.375,-1.9375 -0.242199,-0.57811 -0.593761,-1.070298 -1.0625,-1.46875 -0.46876,-0.398422 -1.06251,-0.703109 -1.75,-0.90625 C 21.656241,38.726579 20.890618,38.625017 20,38.625 z m 51.09375,0.25 -0.59375,9.28125 0.0625,0 0.53125,-8.28125 9.90625,0 0,-1 -9.90625,0 z M 22.125,43.84375 c -0.06163,0.336081 -0.172106,0.656183 -0.375,0.96875 -0.289071,0.445323 -0.656258,0.898447 -1.125,1.34375 -0.460944,0.437509 -1.007818,0.898446 -1.59375,1.375 -0.57813,0.468757 -1.156254,0.976569 -1.75,1.53125 -0.585941,0.546881 -1.14844,1.148443 -1.6875,1.8125 -0.539064,0.656254 -1.000001,1.398441 -1.375,2.21875 l 0,1 c 0.374999,-0.820309 0.835936,-1.562496 1.375,-2.21875 0.53906,-0.664057 1.101559,-1.265619 1.6875,-1.8125 0.593746,-0.554681 1.17187,-1.062493 1.75,-1.53125 0.585932,-0.476554 1.132806,-0.937491 1.59375,-1.375 0.468742,-0.445303 0.835929,-0.898427 1.125,-1.34375 0.289054,-0.445301 0.437492,-0.906239 0.4375,-1.40625 -2e-6,-0.209492 -0.03125,-0.384614 -0.0625,-0.5625 z m 54.65625,0.59375 c -0.66407,1.1e-5 -1.250006,0.101573 -1.75,0.3125 -0.467254,0.189829 -0.841782,0.4213 -1.15625,0.6875 L 73.8125,46.5 c 0.328121,-0.289052 0.718745,-0.546865 1.21875,-0.75 0.499994,-0.210927 1.08593,-0.312489 1.75,-0.3125 0.812491,1.1e-5 1.546866,0.140636 2.1875,0.40625 0.640615,0.265636 1.179677,0.617198 1.625,1.09375 0.445301,0.476572 0.796863,1.046883 1.03125,1.71875 0.19635,0.556363 0.282423,1.182316 0.3125,1.84375 0.01734,-0.200684 0.03125,-0.417968 0.03125,-0.625 -1.3e-5,-0.812493 -0.109388,-1.554681 -0.34375,-2.21875 -0.234387,-0.671867 -0.585949,-1.242178 -1.03125,-1.71875 -0.445323,-0.476552 -0.984385,-0.828114 -1.625,-1.09375 -0.640634,-0.265614 -1.375009,-0.406239 -2.1875,-0.40625 z m 1.75,6.03125 c -0.07981,0.726699 -0.29063,1.327928 -0.6875,1.75 C 77.359367,52.74219 76.695305,53.000002 75.875,53 c -0.421881,2e-6 -0.765631,-0.04687 -1.0625,-0.15625 C 74.51562,52.726566 74.26562,52.562503 74.0625,52.375 73.85937,52.187503 73.710933,51.992191 73.59375,51.75 73.484371,51.507816 73.375,51.257817 73.3125,51 l -3.28125,0.25 c 0.05628,0.337668 0.140139,0.652934 0.25,0.96875 L 73.3125,52 c 0.0625,0.257817 0.171871,0.507816 0.28125,0.75 0.117183,0.242191 0.26562,0.437503 0.46875,0.625 0.20312,0.187503 0.45312,0.351566 0.75,0.46875 0.296869,0.109378 0.640619,0.156252 1.0625,0.15625 0.820305,2e-6 1.484367,-0.25781 1.96875,-0.78125 0.492179,-0.523434 0.749991,-1.296871 0.75,-2.28125 -3e-6,-0.164602 -0.0448,-0.32114 -0.0625,-0.46875 z M 18.75,52.6875 c -0.249071,0.321628 -0.474748,0.651196 -0.625,1 l 7.65625,0 0,-1 -7.03125,0 z m 23.6875,12.0625 0,1 11.25,0 0,-1 -11.25,0 z m 7.53125,3.71875 c -0.529753,0.788145 -1.068953,1.576011 -1.5625,2.34375 -0.703131,1.085947 -1.312506,2.164071 -1.84375,3.28125 -0.531255,1.117194 -0.968754,2.289067 -1.28125,3.46875 -0.304691,1.171878 -0.468754,2.382814 -0.46875,3.6875 l 0.03125,0 c 0.06169,-0.934538 0.211496,-1.81826 0.4375,-2.6875 0.312496,-1.179683 0.749995,-2.351556 1.28125,-3.46875 0.531244,-1.117179 1.140619,-2.195303 1.84375,-3.28125 0.703118,-1.093738 1.437492,-2.210925 2.21875,-3.34375 l -0.65625,0 z"
       id="path3882" />
    <path
       style="font-size:24px;font-style:normal;font-variant:normal;font-weight:bold;font-stretch:normal;text-align:center;line-height:125%;writing-mode:lr-tb;text-anchor:middle;fill:#ffffff;fill-opacity:1;stroke:none;font-family:Liberation Sans;-inkscape-font-specification:Abandoned Bitplane Bold;opacity:0.4"
       d="M 48.3125 16.21875 C 47.429681 16.218764 46.757808 16.648451 46.25 17.53125 C 45.749996 18.414074 45.499996 19.765636 45.5 21.5625 C 45.507734 21.54961 45.52338 21.544004 45.53125 21.53125 C 45.613112 20.251646 45.853135 19.231967 46.25 18.53125 C 46.757808 17.648451 47.429681 17.218764 48.3125 17.21875 C 48.781243 17.218764 49.210929 17.335952 49.5625 17.59375 C 49.914054 17.843764 50.156242 18.265639 50.3125 18.84375 L 53.4375 18.40625 C 53.347651 18.062506 53.245117 17.729492 53.125 17.4375 L 50.3125 17.84375 C 50.156242 17.265639 49.914054 16.843764 49.5625 16.59375 C 49.210929 16.335952 48.781243 16.218764 48.3125 16.21875 z M 48.125 22.1875 C 47.835931 22.187508 47.539056 22.21876 47.25 22.3125 C 46.960932 22.40626 46.726557 22.570321 46.5 22.78125 C 46.273433 22.984383 46.07812 23.242194 45.9375 23.5625 C 45.79687 23.882819 45.718746 24.265631 45.71875 24.71875 C 45.718748 24.900297 45.761519 25.07783 45.78125 25.25 C 45.816539 24.999671 45.84978 24.762303 45.9375 24.5625 C 46.07812 24.242194 46.273433 23.984383 46.5 23.78125 C 46.726557 23.570321 46.960932 23.40626 47.25 23.3125 C 47.539056 23.21876 47.835931 23.187508 48.125 23.1875 C 48.523431 23.187508 48.882805 23.23438 49.1875 23.375 C 49.492179 23.50782 49.734367 23.718758 49.9375 23.96875 C 50.148429 24.218758 50.304679 24.515632 50.40625 24.875 C 50.457027 25.050784 50.504883 25.240234 50.53125 25.4375 C 50.539867 25.312758 50.562499 25.195539 50.5625 25.0625 C 50.562491 24.617194 50.507804 24.226569 50.40625 23.875 C 50.304679 23.515632 50.148429 23.218758 49.9375 22.96875 C 49.734367 22.718758 49.492179 22.50782 49.1875 22.375 C 48.882805 22.23438 48.523431 22.187508 48.125 22.1875 z M 42.3125 22.875 C 42.306987 23.083593 42.28125 23.283303 42.28125 23.5 C 42.281249 26.179693 42.773436 28.195315 43.8125 29.5625 C 44.859372 30.921875 46.367183 31.625 48.3125 31.625 C 49.226555 31.625 50.023429 31.460937 50.71875 31.1875 C 51.414052 30.90625 52.007802 30.523438 52.46875 30.03125 C 52.937488 29.531252 53.296863 28.937502 53.53125 28.25 C 53.765613 27.554691 53.874987 26.79688 53.875 25.96875 C 53.874997 25.793339 53.854597 25.636229 53.84375 25.46875 C 53.806876 26.099682 53.716337 26.700883 53.53125 27.25 C 53.296863 27.937502 52.937488 28.531252 52.46875 29.03125 C 52.007802 29.523438 51.414052 29.90625 50.71875 30.1875 C 50.023429 30.460937 49.226555 30.625 48.3125 30.625 C 46.367183 30.625 44.859372 29.921875 43.8125 28.5625 C 42.825476 27.263788 42.359461 25.357337 42.3125 22.875 z M 20 42.25 C 19.296869 42.250014 18.781245 42.429702 18.40625 42.8125 C 18.039058 43.187514 17.796871 43.77345 17.6875 44.53125 L 14.59375 44.34375 C 14.507781 44.673224 14.416898 44.995978 14.375 45.34375 L 17.6875 45.53125 C 17.796871 44.77345 18.039058 44.187514 18.40625 43.8125 C 18.781245 43.429702 19.296869 43.250014 20 43.25 C 20.71093 43.250014 21.257805 43.429702 21.625 43.78125 C 21.887434 44.032532 22.046716 44.398064 22.125 44.84375 C 22.151171 44.701031 22.187498 44.555292 22.1875 44.40625 C 22.187492 43.671887 21.992179 43.132826 21.625 42.78125 C 21.257805 42.429702 20.71093 42.250014 20 42.25 z M 74.0625 42.3125 L 73.8125 46.5 C 73.833993 46.481066 73.852958 46.456159 73.875 46.4375 L 74.0625 43.3125 L 81 43.3125 L 81 42.3125 L 74.0625 42.3125 z M 25.5 44.8125 C 25.439571 45.372441 25.291007 45.906258 25.0625 46.375 C 24.757801 47.000009 24.351552 47.562509 23.875 48.09375 C 23.398427 48.617195 22.867178 49.10157 22.28125 49.5625 C 21.703117 50.023444 21.140617 50.468756 20.59375 50.90625 C 20.046868 51.343755 19.546869 51.804693 19.09375 52.25 C 18.648432 52.695317 18.343745 53.179691 18.125 53.6875 L 18.75 53.6875 C 18.86354 53.540884 18.954313 53.389437 19.09375 53.25 C 19.546869 52.804693 20.046868 52.343755 20.59375 51.90625 C 21.140617 51.468756 21.703117 51.023444 22.28125 50.5625 C 22.867178 50.10157 23.398427 49.617195 23.875 49.09375 C 24.351552 48.562509 24.757801 48.000009 25.0625 47.375 C 25.367176 46.750011 25.531238 46.023449 25.53125 45.25 C 25.531248 45.098696 25.511072 44.955524 25.5 44.8125 z M 75.96875 48.09375 C 75.421869 48.093758 74.976557 48.195321 74.625 48.40625 C 74.273433 48.609383 73.960933 48.859383 73.71875 49.15625 L 70.5625 49.15625 L 70.5 50.15625 L 73.71875 50.15625 C 73.960933 49.859383 74.273433 49.609383 74.625 49.40625 C 74.976557 49.195321 75.421869 49.093758 75.96875 49.09375 C 76.382806 49.093758 76.74218 49.14845 77.0625 49.28125 C 77.390617 49.41407 77.656242 49.625008 77.875 49.875 C 78.101554 50.125008 78.289054 50.429695 78.40625 50.78125 C 78.484214 51.000546 78.501913 51.224029 78.53125 51.46875 C 78.550416 51.294231 78.593748 51.128123 78.59375 50.9375 C 78.593741 50.500006 78.53124 50.132819 78.40625 49.78125 C 78.289054 49.429695 78.101554 49.125008 77.875 48.875 C 77.656242 48.625008 77.390617 48.41407 77.0625 48.28125 C 76.74218 48.14845 76.382806 48.093758 75.96875 48.09375 z M 81.9375 51.5 C 81.885493 52.102052 81.761709 52.660159 81.5625 53.1875 C 81.304675 53.882816 80.921864 54.484377 80.40625 55 C 79.890615 55.507813 79.265615 55.898438 78.5 56.1875 C 77.742179 56.46875 76.843742 56.625 75.84375 56.625 C 74.921869 56.625 74.124995 56.5 73.4375 56.28125 C 72.749997 56.054688 72.16406 55.765626 71.6875 55.375 C 71.218748 54.976564 70.867186 54.500002 70.59375 53.96875 C 70.475312 53.731876 70.369652 53.472878 70.28125 53.21875 L 70.03125 53.25 C 70.132812 53.859379 70.328124 54.437503 70.59375 54.96875 C 70.867186 55.500002 71.218748 55.976564 71.6875 56.375 C 72.16406 56.765626 72.749997 57.054688 73.4375 57.28125 C 74.124995 57.5 74.921869 57.625 75.84375 57.625 C 76.843742 57.625 77.742179 57.46875 78.5 57.1875 C 79.265615 56.898438 79.890615 56.507813 80.40625 56 C 80.921864 55.484377 81.304675 54.882816 81.5625 54.1875 C 81.828112 53.484379 81.968737 52.70313 81.96875 51.875 C 81.968748 51.74322 81.943323 51.628047 81.9375 51.5 z M 14.21875 56.375 L 14.21875 57.375 L 25.78125 57.375 L 25.78125 56.375 L 14.21875 56.375 z M 53.6875 68.375 C 52.945301 69.546888 52.226551 70.6797 51.5625 71.78125 C 50.90624 72.882822 50.335929 73.976571 49.84375 75.09375 C 49.351555 76.203132 48.976555 77.351568 48.6875 78.53125 C 48.406243 79.703128 48.249994 80.937501 48.25 82.25 L 44.84375 82.25 C 44.82227 82.575373 44.812499 82.913064 44.8125 83.25 L 48.25 83.25 C 48.249994 81.937501 48.406243 80.703128 48.6875 79.53125 C 48.976555 78.351568 49.351555 77.203132 49.84375 76.09375 C 50.335929 74.976571 50.90624 73.882822 51.5625 72.78125 C 52.226551 71.6797 52.945301 70.546888 53.6875 69.375 L 53.6875 68.375 z M 42.4375 68.46875 L 42.4375 69.46875 L 49.96875 69.46875 C 50.193695 69.134086 50.392139 68.806399 50.625 68.46875 L 42.4375 68.46875 z "
       id="path3925" />
  </g>
</svg>
