<?xml version="1.0" encoding="UTF-8" standalone="no"?>
<!-- Created with Inkscape (http://www.inkscape.org/) -->

<svg
   xmlns:dc="http://purl.org/dc/elements/1.1/"
   xmlns:cc="http://creativecommons.org/ns#"
   xmlns:rdf="http://www.w3.org/1999/02/22-rdf-syntax-ns#"
   xmlns:svg="http://www.w3.org/2000/svg"
   xmlns="http://www.w3.org/2000/svg"
   xmlns:xlink="http://www.w3.org/1999/xlink"
   xmlns:sodipodi="http://sodipodi.sourceforge.net/DTD/sodipodi-0.dtd"
   xmlns:inkscape="http://www.inkscape.org/namespaces/inkscape"
   width="96"
   height="96"
   id="svg2408"
   sodipodi:version="0.32"
   inkscape:version="0.47 r22583"
   version="1.0"
   sodipodi:docname="gnome-panel-launcher2.svg"
   inkscape:output_extension="org.inkscape.output.svg.inkscape">
  <defs
     id="defs2410">
    <linearGradient
       inkscape:collect="always"
       id="linearGradient3798">
      <stop
         style="stop-color:#333333;stop-opacity:1;"
         offset="0"
         id="stop3800" />
      <stop
         style="stop-color:#333333;stop-opacity:0;"
         offset="1"
         id="stop3802" />
    </linearGradient>
    <linearGradient
       id="linearGradient3865">
      <stop
         id="stop3867"
         offset="0"
         style="stop-color:#ff6565;stop-opacity:1;" />
      <stop
         style="stop-color:#e90000;stop-opacity:1;"
         offset="0.5"
         id="stop3869" />
      <stop
         id="stop3871"
         offset="0.81904298"
         style="stop-color:#ae0000;stop-opacity:1;" />
      <stop
         id="stop3873"
         offset="1"
         style="stop-color:#7f0000;stop-opacity:1;" />
    </linearGradient>
    <linearGradient
       id="linearGradient3809">
      <stop
         style="stop-color:#ffd0d0;stop-opacity:1;"
         offset="0"
         id="stop3811" />
      <stop
         id="stop3817"
         offset="0.5"
         style="stop-color:#f90000;stop-opacity:1;" />
      <stop
         style="stop-color:#ae0000;stop-opacity:1;"
         offset="0.81904298"
         id="stop3833" />
      <stop
         style="stop-color:#860000;stop-opacity:1;"
         offset="1"
         id="stop3813" />
    </linearGradient>
    <linearGradient
       inkscape:collect="always"
       id="linearGradient3777">
      <stop
         style="stop-color:#ffffff;stop-opacity:1;"
         offset="0"
         id="stop3779" />
      <stop
         style="stop-color:#ffffff;stop-opacity:0;"
         offset="1"
         id="stop3781" />
    </linearGradient>
    <linearGradient
       inkscape:collect="always"
       id="linearGradient3769">
      <stop
         style="stop-color:#ffffff;stop-opacity:1;"
         offset="0"
         id="stop3771" />
      <stop
         style="stop-color:#ffffff;stop-opacity:0;"
         offset="1"
         id="stop3773" />
    </linearGradient>
    <linearGradient
       id="linearGradient3722">
      <stop
         id="stop3730"
         offset="0"
         style="stop-color:#ffffff;stop-opacity:1;" />
      <stop
         style="stop-color:#d1b3b3;stop-opacity:1;"
         offset="1"
         id="stop3726" />
    </linearGradient>
    <linearGradient
       id="linearGradient3708">
      <stop
         style="stop-color:#d40000;stop-opacity:1;"
         offset="0"
         id="stop3710" />
      <stop
         style="stop-color:#e10000;stop-opacity:1;"
         offset="0.5337981"
         id="stop3720" />
      <stop
         style="stop-color:#820000;stop-opacity:1;"
         offset="1"
         id="stop3712" />
    </linearGradient>
    <inkscape:perspective
       sodipodi:type="inkscape:persp3d"
       inkscape:vp_x="0 : 48 : 1"
       inkscape:vp_y="0 : 1000 : 0"
       inkscape:vp_z="96 : 48 : 1"
       inkscape:persp3d-origin="48 : 32 : 1"
       id="perspective48" />
    <linearGradient
       id="ButtonShadow"
       gradientTransform="scale(1.0058652,0.994169)"
       x1="45.447727"
       y1="92.539597"
       x2="45.447727"
       y2="7.0165396"
       gradientUnits="userSpaceOnUse">
      <stop
         style="stop-color:#000000;stop-opacity:1;"
         offset="0"
         id="stop3750" />
      <stop
         style="stop-color:#000000;stop-opacity:0.58823532;"
         offset="1"
         id="stop3752" />
    </linearGradient>
    <linearGradient
       inkscape:collect="always"
       id="linearGradient3737">
      <stop
         style="stop-color:#ffffff;stop-opacity:1;"
         offset="0"
         id="stop3739" />
      <stop
         style="stop-color:#ffffff;stop-opacity:0;"
         offset="1"
         id="stop3741" />
    </linearGradient>
    <linearGradient
       id="linearGradient3700">
      <stop
         style="stop-color:#c8c8c8;stop-opacity:1;"
         offset="0"
         id="stop3702" />
      <stop
         style="stop-color:#e6e6e6;stop-opacity:1;"
         offset="1"
         id="stop3704" />
    </linearGradient>
    <filter
       inkscape:collect="always"
       id="filter3174">
      <feGaussianBlur
         inkscape:collect="always"
         stdDeviation="1.71"
         id="feGaussianBlur3176" />
    </filter>
    <linearGradient
       inkscape:collect="always"
       xlink:href="#linearGradient3737"
       id="linearGradient3188"
       gradientUnits="userSpaceOnUse"
       x1="36.357143"
       y1="6"
       x2="36.357143"
       y2="63.893143" />
    <filter
       inkscape:collect="always"
       id="filter3794"
       x="-0.192"
       width="1.384"
       y="-0.192"
       height="1.384">
      <feGaussianBlur
         inkscape:collect="always"
         stdDeviation="5.28"
         id="feGaussianBlur3796" />
    </filter>
    <linearGradient
       inkscape:collect="always"
       xlink:href="#linearGradient3737"
       id="linearGradient3613"
       x1="48"
       y1="20.220806"
       x2="48"
       y2="138.66119"
       gradientUnits="userSpaceOnUse" />
    <radialGradient
       inkscape:collect="always"
       xlink:href="#linearGradient3737"
       id="radialGradient3619"
       cx="48"
       cy="90.171875"
       fx="48"
       fy="90.171875"
       r="42"
       gradientTransform="matrix(1.1573129,0,0,0.99590774,-7.5510206,0.19713193)"
       gradientUnits="userSpaceOnUse" />
    <clipPath
       clipPathUnits="userSpaceOnUse"
       id="clipPath3613">
      <rect
         ry="6"
         rx="6"
         y="6"
         x="6"
         height="84"
         width="84"
         id="rect3615"
         style="fill:#ffffff;fill-opacity:1;fill-rule:nonzero;stroke:none" />
    </clipPath>
    <linearGradient
       inkscape:collect="always"
       xlink:href="#linearGradient3700"
       id="linearGradient3617"
       gradientUnits="userSpaceOnUse"
       x1="48"
       y1="90"
       x2="48"
       y2="5.9877172" />
    <linearGradient
       id="ButtonShadow-0"
       gradientTransform="matrix(1.0058652,0,0,0.994169,100,0)"
       x1="45.447727"
       y1="92.539597"
       x2="45.447727"
       y2="7.0165396"
       gradientUnits="userSpaceOnUse">
      <stop
         style="stop-color:#000000;stop-opacity:1;"
         offset="0"
         id="stop3750-8" />
      <stop
         style="stop-color:#000000;stop-opacity:0.58823532;"
         offset="1"
         id="stop3752-5" />
    </linearGradient>
    <linearGradient
       inkscape:collect="always"
       xlink:href="#ButtonShadow-0"
       id="linearGradient3780"
       gradientUnits="userSpaceOnUse"
       gradientTransform="matrix(1.0238095,0,0,1.0119048,-1.1428571,-98.071429)"
       x1="32.251034"
       y1="6.1317081"
       x2="32.251034"
       y2="90.238609" />
    <linearGradient
       inkscape:collect="always"
       xlink:href="#ButtonShadow-0"
       id="linearGradient3772"
       gradientUnits="userSpaceOnUse"
       gradientTransform="matrix(1.0238095,0,0,1.0119048,-1.1428571,-98.071429)"
       x1="32.251034"
       y1="6.1317081"
       x2="32.251034"
       y2="90.238609" />
    <linearGradient
       inkscape:collect="always"
       xlink:href="#ButtonShadow-0"
       id="linearGradient3725"
       gradientUnits="userSpaceOnUse"
       gradientTransform="matrix(1.0238095,0,0,1.0119048,-1.1428571,-98.071429)"
       x1="32.251034"
       y1="6.1317081"
       x2="32.251034"
       y2="90.238609" />
    <linearGradient
       inkscape:collect="always"
       xlink:href="#ButtonShadow-0"
       id="linearGradient3721"
       gradientUnits="userSpaceOnUse"
       gradientTransform="translate(0,-97)"
       x1="32.251034"
       y1="6.1317081"
       x2="32.251034"
       y2="90.238609" />
    <linearGradient
       y2="90.238609"
       x2="32.251034"
       y1="6.1317081"
       x1="32.251034"
       gradientTransform="matrix(1.0238095,0,0,1.0119048,-1.1428571,-98.071429)"
       gradientUnits="userSpaceOnUse"
       id="linearGradient3026"
       xlink:href="#ButtonShadow-0"
       inkscape:collect="always" />
    <linearGradient
       inkscape:collect="always"
       xlink:href="#linearGradient3722"
       id="linearGradient3728"
       x1="39.574171"
       y1="44"
       x2="56.425829"
       y2="44"
       gradientUnits="userSpaceOnUse" />
    <linearGradient
       inkscape:collect="always"
       xlink:href="#linearGradient3708"
       id="linearGradient3762"
       gradientUnits="userSpaceOnUse"
       x1="39.561708"
       y1="43"
       x2="56.438292"
       y2="43" />
    <linearGradient
       inkscape:collect="always"
       xlink:href="#linearGradient3769"
       id="linearGradient3775"
       x1="46.681881"
       y1="16.204491"
       x2="46.681881"
       y2="80.960716"
       gradientUnits="userSpaceOnUse" />
    <linearGradient
       inkscape:collect="always"
       xlink:href="#linearGradient3777"
       id="linearGradient3783"
       x1="47.287281"
       y1="16.204491"
       x2="46.531647"
       y2="80.963791"
       gradientUnits="userSpaceOnUse" />
    <linearGradient
       inkscape:collect="always"
       xlink:href="#linearGradient3777"
       id="linearGradient3787"
       gradientUnits="userSpaceOnUse"
       x1="47.287281"
       y1="16.204491"
       x2="46.531647"
       y2="80.963791"
       gradientTransform="matrix(1.6385313,0,0,1,-29.053173,0)" />
    <radialGradient
       inkscape:collect="always"
       xlink:href="#linearGradient3809"
       id="radialGradient3815"
       cx="35"
       cy="74"
       fx="35"
       fy="74"
       r="4"
       gradientUnits="userSpaceOnUse" />
    <radialGradient
       inkscape:collect="always"
       xlink:href="#linearGradient3865"
       id="radialGradient3875"
       gradientUnits="userSpaceOnUse"
       cx="35.702923"
       cy="74"
       fx="35.702923"
       fy="74"
       r="4" />
    <radialGradient
       inkscape:collect="always"
       xlink:href="#linearGradient3809"
       id="radialGradient3891"
       gradientUnits="userSpaceOnUse"
       cx="35"
       cy="74"
       fx="35"
       fy="74"
       r="4" />
    <linearGradient
       inkscape:collect="always"
       xlink:href="#linearGradient3798"
       id="linearGradient3804"
       x1="75.572937"
       y1="39.725887"
       x2="75.572937"
       y2="62.844799"
       gradientUnits="userSpaceOnUse" />
    <linearGradient
       inkscape:collect="always"
       xlink:href="#linearGradient3798"
       id="linearGradient3812"
       x1="34.266994"
       y1="51.415974"
       x2="34.266994"
       y2="81.919426"
       gradientUnits="userSpaceOnUse" />
    <linearGradient
       inkscape:collect="always"
       xlink:href="#linearGradient3798"
       id="linearGradient3820"
       x1="52.47665"
       y1="61.188122"
       x2="52.47665"
       y2="81.96537"
       gradientUnits="userSpaceOnUse" />
    <linearGradient
       inkscape:collect="always"
       xlink:href="#linearGradient3798"
       id="linearGradient3828"
       x1="21.102879"
       y1="35.763649"
       x2="21.102879"
       y2="57.41111"
       gradientUnits="userSpaceOnUse" />
  </defs>
  <sodipodi:namedview
     id="base"
     pagecolor="#ffffff"
     bordercolor="#666666"
     borderopacity="1.0"
     inkscape:pageopacity="0.0"
     inkscape:pageshadow="2"
     inkscape:zoom="5.5451158"
     inkscape:cx="4.8984055"
     inkscape:cy="28.873808"
     inkscape:document-units="px"
     inkscape:current-layer="layer6"
     showgrid="true"
     showborder="true"
     inkscape:showpageshadow="false"
     inkscape:window-width="1920"
     inkscape:window-height="1023"
     inkscape:window-x="0"
     inkscape:window-y="24"
     inkscape:window-maximized="1"
     inkscape:snap-global="false">
    <inkscape:grid
       type="xygrid"
       id="grid3732"
       visible="true"
       enabled="true" />
  </sodipodi:namedview>
  <metadata
     id="metadata2413">
    <rdf:RDF>
      <cc:Work
         rdf:about="">
        <dc:format>image/svg+xml</dc:format>
        <dc:type
           rdf:resource="http://purl.org/dc/dcmitype/StillImage" />
        <dc:title />
      </cc:Work>
    </rdf:RDF>
  </metadata>
  <g
     inkscape:groupmode="layer"
     id="layer2"
     inkscape:label="Blur Shadow"
     style="display:none"
     sodipodi:insensitive="true">
    <rect
       style="opacity:0.9;fill:url(#ButtonShadow);fill-opacity:1;fill-rule:nonzero;stroke:none;filter:url(#filter3174)"
       id="rect3745"
       width="86"
       height="85"
       x="5"
       y="7"
       rx="6"
       ry="6" />
  </g>
  <g
     inkscape:groupmode="layer"
     id="layer3"
     inkscape:label="Shadow"
     sodipodi:insensitive="true">
    <path
       sodipodi:type="inkscape:offset"
       inkscape:radius="0.99097413"
       inkscape:original="M 12 -94.03125 C 7.028367 -94.03125 2.96875 -89.971633 2.96875 -85 L 2.96875 -14 C 2.96875 -9.0283671 7.0283671 -4.96875 12 -4.96875 L 84 -4.96875 C 88.971633 -4.96875 93.03125 -9.028367 93.03125 -14 L 93.03125 -85 C 93.03125 -89.971633 88.971633 -94.03125 84 -94.03125 L 12 -94.03125 z "
       style="opacity:0.07999998;fill:url(#linearGradient3026);fill-opacity:1;fill-rule:nonzero;stroke:none;display:inline"
       id="path3786"
       d="m 12,-95.03125 c -5.5110903,0 -10.03125,4.52016 -10.03125,10.03125 l 0,71 c 0,5.5110902 4.5201598,10.03125 10.03125,10.03125 l 72,0 c 5.51109,0 10.03125,-4.5201597 10.03125,-10.03125 l 0,-71 c 0,-5.51109 -4.52016,-10.03125 -10.03125,-10.03125 l -72,0 z"
       transform="scale(1,-1)" />
    <path
       sodipodi:type="inkscape:offset"
       inkscape:radius="1.0360184"
       inkscape:original="M 12 -93 C 7.5908667 -93 4 -89.409133 4 -85 L 4 -14 C 4 -9.5908667 7.5908667 -6 12 -6 L 84 -6 C 88.409133 -6 92 -9.5908667 92 -14 L 92 -85 C 92 -89.409133 88.409133 -93 84 -93 L 12 -93 z "
       style="opacity:0.1;fill:url(#linearGradient3780);fill-opacity:1;fill-rule:nonzero;stroke:none;display:inline"
       id="path3778"
       d="m 12,-94.03125 c -4.971633,0 -9.03125,4.059617 -9.03125,9.03125 l 0,71 c 0,4.9716329 4.0596171,9.03125 9.03125,9.03125 l 72,0 c 4.971633,0 9.03125,-4.059617 9.03125,-9.03125 l 0,-71 c 0,-4.971633 -4.059617,-9.03125 -9.03125,-9.03125 l -72,0 z"
       transform="scale(1,-1)" />
    <path
       sodipodi:type="inkscape:offset"
       inkscape:radius="0.98962283"
       inkscape:original="M 12 -92 C 8.122 -92 5 -88.878 5 -85 L 5 -14 C 5 -10.122 8.122 -7 12 -7 L 84 -7 C 87.878 -7 91 -10.122 91 -14 L 91 -85 C 91 -88.878 87.878 -92 84 -92 L 12 -92 z "
       style="opacity:0.2;fill:url(#linearGradient3772);fill-opacity:1;fill-rule:nonzero;stroke:none;display:inline"
       id="path3770"
       d="m 12,-93 c -4.4091333,0 -8,3.590867 -8,8 l 0,71 c 0,4.4091333 3.5908667,8 8,8 l 72,0 c 4.409133,0 8,-3.5908667 8,-8 l 0,-71 c 0,-4.409133 -3.590867,-8 -8,-8 l -72,0 z"
       transform="scale(1,-1)" />
    <rect
       style="opacity:0.3;fill:url(#linearGradient3725);fill-opacity:1;fill-rule:nonzero;stroke:none;display:inline"
       id="rect3723"
       width="86"
       height="85"
       x="5"
       y="-92"
       rx="7"
       ry="7"
       transform="scale(1,-1)" />
    <rect
       transform="scale(1,-1)"
       ry="6"
       rx="6"
       y="-91"
       x="6"
       height="84"
       width="84"
       id="rect3716"
       style="opacity:0.45;fill:url(#linearGradient3721);fill-opacity:1;fill-rule:nonzero;stroke:none;display:inline" />
  </g>
  <g
     inkscape:label="Button"
     inkscape:groupmode="layer"
     id="layer1"
     sodipodi:insensitive="true">
    <rect
       style="fill:url(#linearGradient3617);fill-opacity:1;fill-rule:nonzero;stroke:none"
       id="rect2419"
       width="84"
       height="84"
       x="6"
       y="6"
       rx="6"
       ry="6" />
    <path
       style="opacity:0.5;fill:url(#linearGradient3188);fill-opacity:1;fill-rule:nonzero;stroke:none"
       d="M 12,6 C 8.676,6 6,8.676 6,12 l 0,2 0,68 0,2 c 0,0.334721 0.04135,0.6507 0.09375,0.96875 0.0487,0.295596 0.09704,0.596915 0.1875,0.875 0.00988,0.03038 0.020892,0.0636 0.03125,0.09375 0.098865,0.287771 0.2348802,0.547452 0.375,0.8125 0.1445918,0.273507 0.3156161,0.535615 0.5,0.78125 0.1843839,0.245635 0.3737765,0.473472 0.59375,0.6875 0.439947,0.428056 0.94291,0.814526 1.5,1.09375 0.278545,0.139612 0.5734731,0.246947 0.875,0.34375 -0.2562018,-0.100222 -0.4867109,-0.236272 -0.71875,-0.375 -0.00741,-0.0044 -0.023866,0.0045 -0.03125,0 -0.031933,-0.0193 -0.062293,-0.04251 -0.09375,-0.0625 -0.120395,-0.0767 -0.2310226,-0.163513 -0.34375,-0.25 -0.1061728,-0.0808 -0.2132809,-0.161112 -0.3125,-0.25 C 8.4783201,88.557317 8.3087904,88.373362 8.15625,88.1875 8.0486711,88.057245 7.9378561,87.922215 7.84375,87.78125 7.818661,87.74287 7.805304,87.69538 7.78125,87.65625 7.716487,87.553218 7.6510225,87.451733 7.59375,87.34375 7.4927417,87.149044 7.3880752,86.928049 7.3125,86.71875 7.30454,86.69694 7.288911,86.6782 7.28125,86.65625 7.2494249,86.5643 7.2454455,86.469419 7.21875,86.375 7.1884177,86.268382 7.1483606,86.171969 7.125,86.0625 7.0521214,85.720988 7,85.364295 7,85 L 7,83 7,15 7,13 C 7,10.218152 9.2181517,8 12,8 l 2,0 68,0 2,0 c 2.781848,0 5,2.218152 5,5 l 0,2 0,68 0,2 c 0,0.364295 -0.05212,0.720988 -0.125,1.0625 -0.04415,0.206893 -0.08838,0.397658 -0.15625,0.59375 -0.0077,0.02195 -0.0233,0.04069 -0.03125,0.0625 -0.06274,0.173739 -0.138383,0.367449 -0.21875,0.53125 -0.04158,0.0828 -0.07904,0.169954 -0.125,0.25 -0.0546,0.09721 -0.126774,0.18835 -0.1875,0.28125 -0.09411,0.140965 -0.204921,0.275995 -0.3125,0.40625 -0.143174,0.17445 -0.303141,0.346998 -0.46875,0.5 -0.01117,0.0102 -0.01998,0.02115 -0.03125,0.03125 -0.138386,0.125556 -0.285091,0.234436 -0.4375,0.34375 -0.102571,0.07315 -0.204318,0.153364 -0.3125,0.21875 -0.0074,0.0045 -0.02384,-0.0044 -0.03125,0 -0.232039,0.138728 -0.462548,0.274778 -0.71875,0.375 0.301527,-0.0968 0.596455,-0.204138 0.875,-0.34375 0.55709,-0.279224 1.060053,-0.665694 1.5,-1.09375 0.219973,-0.214028 0.409366,-0.441865 0.59375,-0.6875 0.184384,-0.245635 0.355408,-0.507743 0.5,-0.78125 0.14012,-0.265048 0.276135,-0.524729 0.375,-0.8125 0.01041,-0.03078 0.02133,-0.06274 0.03125,-0.09375 0.09046,-0.278085 0.1388,-0.579404 0.1875,-0.875 C 89.95865,84.6507 90,84.334721 90,84 l 0,-2 0,-68 0,-2 C 90,8.676 87.324,6 84,6 L 12,6 z"
       id="rect3728" />
    <path
       id="path3615"
       d="M 12,90 C 8.676,90 6,87.324 6,84 L 6,82 6,14 6,12 c 0,-0.334721 0.04135,-0.6507 0.09375,-0.96875 0.0487,-0.295596 0.09704,-0.596915 0.1875,-0.875 C 6.29113,10.12587 6.302142,10.09265 6.3125,10.0625 6.411365,9.774729 6.5473802,9.515048 6.6875,9.25 6.8320918,8.976493 7.0031161,8.714385 7.1875,8.46875 7.3718839,8.223115 7.5612765,7.995278 7.78125,7.78125 8.221197,7.353194 8.72416,6.966724 9.28125,6.6875 9.559795,6.547888 9.8547231,6.440553 10.15625,6.34375 9.9000482,6.443972 9.6695391,6.580022 9.4375,6.71875 c -0.00741,0.0044 -0.023866,-0.0045 -0.03125,0 -0.031933,0.0193 -0.062293,0.04251 -0.09375,0.0625 -0.120395,0.0767 -0.2310226,0.163513 -0.34375,0.25 -0.1061728,0.0808 -0.2132809,0.161112 -0.3125,0.25 C 8.4783201,7.442683 8.3087904,7.626638 8.15625,7.8125 8.0486711,7.942755 7.9378561,8.077785 7.84375,8.21875 7.818661,8.25713 7.805304,8.30462 7.78125,8.34375 7.716487,8.446782 7.6510225,8.548267 7.59375,8.65625 7.4927417,8.850956 7.3880752,9.071951 7.3125,9.28125 7.30454,9.30306 7.288911,9.3218 7.28125,9.34375 7.2494249,9.4357 7.2454455,9.530581 7.21875,9.625 7.1884177,9.731618 7.1483606,9.828031 7.125,9.9375 7.0521214,10.279012 7,10.635705 7,11 l 0,2 0,68 0,2 c 0,2.781848 2.2181517,5 5,5 l 2,0 68,0 2,0 c 2.781848,0 5,-2.218152 5,-5 l 0,-2 0,-68 0,-2 C 89,10.635705 88.94788,10.279012 88.875,9.9375 88.83085,9.730607 88.78662,9.539842 88.71875,9.34375 88.71105,9.3218 88.69545,9.30306 88.6875,9.28125 88.62476,9.107511 88.549117,8.913801 88.46875,8.75 88.42717,8.6672 88.38971,8.580046 88.34375,8.5 88.28915,8.40279 88.216976,8.31165 88.15625,8.21875 88.06214,8.077785 87.951329,7.942755 87.84375,7.8125 87.700576,7.63805 87.540609,7.465502 87.375,7.3125 87.36383,7.3023 87.35502,7.29135 87.34375,7.28125 87.205364,7.155694 87.058659,7.046814 86.90625,6.9375 86.803679,6.86435 86.701932,6.784136 86.59375,6.71875 c -0.0074,-0.0045 -0.02384,0.0044 -0.03125,0 -0.232039,-0.138728 -0.462548,-0.274778 -0.71875,-0.375 0.301527,0.0968 0.596455,0.204138 0.875,0.34375 0.55709,0.279224 1.060053,0.665694 1.5,1.09375 0.219973,0.214028 0.409366,0.441865 0.59375,0.6875 0.184384,0.245635 0.355408,0.507743 0.5,0.78125 0.14012,0.265048 0.276135,0.524729 0.375,0.8125 0.01041,0.03078 0.02133,0.06274 0.03125,0.09375 0.09046,0.278085 0.1388,0.579404 0.1875,0.875 C 89.95865,11.3493 90,11.665279 90,12 l 0,2 0,68 0,2 c 0,3.324 -2.676,6 -6,6 l -72,0 z"
       style="opacity:0.2;fill:url(#radialGradient3619);fill-opacity:1;fill-rule:nonzero;stroke:none" />
  </g>
  <g
     inkscape:groupmode="layer"
     id="layer6"
     inkscape:label="Smoke">
    <path
       style="opacity:0.14999999999999999;color:#000000;fill:url(#linearGradient3812);fill-opacity:1;fill-rule:nonzero;stroke:none;stroke-width:1;marker:none;visibility:visible;display:inline;overflow:visible;enable-background:accumulate"
       d="M 16 40 C 11.581722 40 8 43.581722 8 48 C 8 51.037566 9.6936983 53.676536 12.1875 55.03125 C 11.878372 55.366191 11.584639 55.704126 11.34375 56.09375 C 9.4062168 56.349022 7.601215 57.00189 6 57.96875 L 6 81.75 C 8.0896852 83.014869 10.535623 83.75 13.15625 83.75 C 17.582087 83.75 21.519702 81.662776 24.0625 78.4375 C 25.042107 78.944826 26.133179 79.21875 27.3125 79.21875 C 27.916806 79.21875 28.502204 79.14164 29.0625 79 C 29.043242 79.224196 29.03125 79.458314 29.03125 79.6875 C 29.03125 84.020031 32.542469 87.53125 36.875 87.53125 C 40.990818 87.53125 44.360112 84.34396 44.6875 80.3125 C 44.698141 80.312597 44.708086 80.3125 44.71875 80.3125 C 46.61112 80.3125 48.15625 78.76737 48.15625 76.875 C 48.15625 74.98263 46.61112 73.46875 44.71875 73.46875 C 43.890838 73.46875 43.154791 73.761198 42.5625 74.25 C 42.511662 74.196836 42.458552 74.14547 42.40625 74.09375 C 43.169406 73.299665 43.65625 72.219575 43.65625 71.03125 C 43.65625 68.591089 41.658911 66.59375 39.21875 66.59375 C 36.778589 66.59375 34.8125 68.591089 34.8125 71.03125 C 34.8125 71.404736 34.881503 71.747347 34.96875 72.09375 C 34.79628 72.137086 34.605223 72.164206 34.4375 72.21875 C 34.438187 72.178004 34.4375 72.13466 34.4375 72.09375 C 34.4375 69.143147 32.65044 66.612639 30.09375 65.53125 C 29.813006 63.122289 28.117626 61.13198 25.875 60.40625 C 28.183091 60.024279 29.9375 58.010113 29.9375 55.59375 C 29.9375 52.904593 27.751657 50.75 25.0625 50.75 C 24.478616 50.75 23.925024 50.874058 23.40625 51.0625 C 23.794452 50.122277 24 49.080407 24 48 C 24 43.581722 20.418278 40 16 40 z M 81.59375 56.875 C 79.365365 56.875 77.458078 58.188481 76.59375 60.09375 C 75.591036 59.760187 74.521001 59.5625 73.40625 59.5625 C 71.875434 59.5625 70.425066 59.921698 69.125 60.53125 C 68.765633 59.346884 67.676758 58.5 66.375 58.5 C 64.781425 58.5 63.46875 59.781425 63.46875 61.375 C 63.46875 62.505442 64.147041 63.464164 65.09375 63.9375 C 64.253987 65.150892 63.679556 66.543301 63.4375 68.0625 C 60.909115 68.099055 58.669747 69.22594 57.125 71 C 56.815397 70.958904 56.508337 70.9375 56.1875 70.9375 C 52.253363 70.9375 49.0625 74.128363 49.0625 78.0625 C 49.0625 81.996637 52.253363 85.1875 56.1875 85.1875 C 57.466911 85.1875 58.649719 84.840518 59.6875 84.25 C 60.689564 84.762771 61.786432 85.074985 62.96875 85.15625 C 62.223341 86.634801 61.7304 88.275952 61.5625 90 L 84 90 C 87.324 90 90 87.324 90 84 L 90 60.8125 C 89.321387 60.478414 88.557173 60.28125 87.75 60.28125 C 87.405301 60.28125 87.04444 60.341542 86.71875 60.40625 C 85.929953 58.334605 83.942286 56.875 81.59375 56.875 z M 31.65625 59.21875 C 30.41127 59.21875 29.40625 60.22377 29.40625 61.46875 C 29.40625 62.71373 30.41127 63.71875 31.65625 63.71875 C 32.90123 63.71875 33.90625 62.71373 33.90625 61.46875 C 33.90625 60.22377 32.90123 59.21875 31.65625 59.21875 z "
       id="path2936" />
    <path
       style="opacity:0.3;color:#000000;fill:url(#linearGradient3820);fill-opacity:1;fill-rule:nonzero;stroke:none;stroke-width:1;marker:none;visibility:visible;display:inline;overflow:visible;enable-background:accumulate"
       d="M 12.4375 60.65625 C 11.142721 60.65625 10.09375 61.705221 10.09375 63 C 10.09375 64.294779 11.142721 65.34375 12.4375 65.34375 C 13.732279 65.34375 14.78125 64.294779 14.78125 63 C 14.78125 61.705221 13.732279 60.65625 12.4375 60.65625 z M 21.09375 63 C 20.396561 63 19.84375 63.552811 19.84375 64.25 C 19.84375 64.947189 20.396561 65.53125 21.09375 65.53125 C 21.790939 65.53125 22.375 64.947189 22.375 64.25 C 22.375 63.552811 21.790939 63 21.09375 63 z M 75.28125 64.4375 C 73.339081 64.4375 71.78125 66.026581 71.78125 67.96875 C 71.78125 68.315566 71.843961 68.621008 71.9375 68.9375 C 69.864772 69.43523 68.218251 71.015569 67.65625 73.0625 C 66.832692 72.740668 65.937544 72.5625 65 72.5625 C 61.134482 72.5625 58.007185 75.574703 57.75 79.375 C 57.341558 77.939427 56.035311 76.875 54.46875 76.875 C 53.995658 76.875 53.534933 76.982863 53.125 77.15625 C 52.479673 76.54983 51.642926 76.15625 50.6875 76.15625 C 49.063545 76.15625 47.701995 77.242846 47.25 78.71875 C 46.823214 77.539094 45.701923 76.71875 44.375 76.71875 C 43.120821 76.71875 42.03733 77.452591 41.5625 78.53125 C 40.658108 77.321935 39.220005 76.53125 37.59375 76.53125 C 36.893938 76.53125 36.228717 76.675986 35.625 76.9375 C 35.679544 76.596392 35.71875 76.262724 35.71875 75.90625 C 35.71875 72.270908 32.760342 69.3125 29.125 69.3125 C 28.530161 69.3125 27.954336 69.38334 27.40625 69.53125 C 27.406344 69.520527 27.40625 69.510745 27.40625 69.5 C 27.40625 67.508032 25.804468 65.875 23.8125 65.875 C 22.271543 65.875 20.954091 66.858995 20.4375 68.21875 C 19.478157 66.706508 17.798427 65.6875 15.875 65.6875 C 12.887047 65.6875 10.46875 68.137047 10.46875 71.125 C 10.46875 71.457501 10.505068 71.777819 10.5625 72.09375 C 8.411079 74.040681 7.03125 76.807397 7.03125 79.9375 C 7.03125 84.586222 10.028327 88.547275 14.1875 90 L 21.1875 90 C 24.592839 88.81096 27.200818 85.937536 28.03125 82.375 C 28.389103 82.435231 28.750022 82.46875 29.125 82.46875 C 30.425452 82.46875 31.635358 82.088347 32.65625 81.4375 C 32.656182 81.448183 32.65625 81.458051 32.65625 81.46875 C 32.65625 84.207707 34.854793 86.4375 37.59375 86.4375 C 40.092749 86.4375 42.156953 84.591675 42.5 82.1875 C 43.018075 82.587993 43.669511 82.84375 44.375 82.84375 C 45.701923 82.84375 46.823214 81.992156 47.25 80.8125 C 47.697643 82.295503 49.058491 83.375 50.6875 83.375 C 51.276928 83.375 51.821184 83.219464 52.3125 82.96875 C 52.899739 83.440986 53.656538 83.75 54.46875 83.75 C 56.11416 83.75 57.481763 82.577934 57.8125 81.03125 C 58.373913 84.507045 61.365759 87.15625 65 87.15625 C 67.063954 87.15625 68.952946 86.313989 70.28125 84.9375 C 70.637803 87.001022 71.772943 88.785666 73.375 90 L 83.1875 90 C 84.573006 88.942763 85.615753 87.447999 86.09375 85.71875 C 86.12583 85.719086 86.15534 85.71875 86.1875 85.71875 C 87.529649 85.71875 88.791383 85.399103 89.9375 84.875 C 89.978177 84.591827 90 84.29478 90 84 L 90 68.53125 C 89.098432 68.108222 88.127748 67.820246 87.09375 67.71875 C 87.096607 67.6762 87.09375 67.637024 87.09375 67.59375 C 87.09375 66.547967 86.264533 65.6875 85.21875 65.6875 C 84.172967 65.6875 83.3125 66.547967 83.3125 67.59375 C 83.3125 67.789834 83.350924 67.978371 83.40625 68.15625 C 81.368395 68.824446 79.639029 70.17702 78.53125 71.96875 C 78.277332 71.473009 77.941005 71.0264 77.5625 70.625 C 78.31977 69.979976 78.8125 69.041448 78.8125 67.96875 C 78.8125 66.026581 77.223419 64.4375 75.28125 64.4375 z "
       id="path2973" />
    <path
       style="opacity:0.2;color:#000000;fill:url(#linearGradient3828);fill-opacity:1;fill-rule:nonzero;stroke:none;stroke-width:1;marker:none;visibility:visible;display:inline;overflow:visible;enable-background:accumulate"
       d="M 26.875 35.59375 C 25.082229 35.59375 23.625 37.050979 23.625 38.84375 C 23.625 40.146538 24.392512 41.233168 25.5 41.75 C 23.818012 42.903635 22.71875 44.83758 22.71875 47.03125 C 22.71875 47.636952 22.811563 48.225884 22.96875 48.78125 C 22.433579 48.558595 21.858632 48.403935 21.25 48.375 C 21.255892 48.29178 21.28125 48.209719 21.28125 48.125 C 21.28125 46.182831 19.692169 44.59375 17.75 44.59375 C 15.807831 44.59375 14.25 46.182831 14.25 48.125 C 14.25 49.566517 15.133715 50.800793 16.375 51.34375 C 16.060674 52.008943 15.875 52.746709 15.875 53.53125 C 15.875 56.369805 18.161445 58.65625 21 58.65625 C 23.838555 58.65625 26.15625 56.369805 26.15625 53.53125 C 26.15625 53.231997 26.111584 52.94149 26.0625 52.65625 C 26.969625 53.14903 28.02008 53.4375 29.125 53.4375 C 32.660744 53.4375 35.53125 50.566994 35.53125 47.03125 C 35.53125 43.642996 32.89357 40.881739 29.5625 40.65625 C 29.912509 40.138169 30.125 39.516039 30.125 38.84375 C 30.125 37.050979 28.667771 35.59375 26.875 35.59375 z "
       id="path3006" />
    <path
       style="opacity:0.2;color:#000000;fill:url(#linearGradient3804);fill-opacity:1;fill-rule:nonzero;stroke:none;stroke-width:1;marker:none;visibility:visible;display:inline;overflow:visible;enable-background:accumulate"
       d="M 72.03125 39.71875 C 70.985467 39.71875 70.15625 40.579217 70.15625 41.625 C 70.15625 42.670783 70.985467 43.53125 72.03125 43.53125 C 73.077033 43.53125 73.9375 42.670783 73.9375 41.625 C 73.9375 40.579217 73.077033 39.71875 72.03125 39.71875 z M 68.4375 45.875 C 65.997339 45.875 64.03125 47.841089 64.03125 50.28125 C 64.03125 52.721411 65.997339 54.6875 68.4375 54.6875 C 68.500309 54.6875 68.562829 54.690095 68.625 54.6875 C 68.216938 55.661981 68 56.721164 68 57.84375 C 68 62.375478 71.655772 66.0625 76.1875 66.0625 C 80.065246 66.0625 83.299128 63.365659 84.15625 59.75 C 86.686731 59.682292 88.71875 57.609327 88.71875 55.0625 C 88.71875 52.472941 86.620809 50.375 84.03125 50.375 C 83.707555 50.375 83.39898 50.406291 83.09375 50.46875 C 83.235213 50.104475 83.3125 49.69552 83.3125 49.28125 C 83.3125 47.488479 81.855271 46.03125 80.0625 46.03125 C 78.269729 46.03125 76.8125 47.488479 76.8125 49.28125 C 76.8125 49.419737 76.826919 49.553578 76.84375 49.6875 C 76.627754 49.670448 76.407879 49.65625 76.1875 49.65625 C 74.990078 49.65625 73.869416 49.945214 72.84375 50.40625 C 72.844907 50.364657 72.84375 50.323123 72.84375 50.28125 C 72.84375 47.841089 70.877661 45.875 68.4375 45.875 z "
       id="path3015" />
  </g>
  <g
     inkscape:groupmode="layer"
     id="layer5"
     inkscape:label="Highlight"
     sodipodi:insensitive="true">
    <rect
       style="opacity:0.1;fill:url(#linearGradient3613);fill-opacity:1;fill-rule:nonzero;stroke:#ffffff;stroke-width:0.5;stroke-linecap:round;stroke-linejoin:miter;stroke-miterlimit:4;stroke-opacity:1;stroke-dasharray:none;stroke-dashoffset:0;filter:url(#filter3794)"
       id="rect3171"
       width="66"
       height="66"
       x="15"
       y="15"
       rx="12"
       ry="12"
       clip-path="url(#clipPath3613)" />
  </g>
  <g
     inkscape:groupmode="layer"
     id="layer4"
     inkscape:label="Rocket"
     sodipodi:insensitive="true">
    <path
       style="opacity:0.05;color:#000000;fill:#7b1a1a;fill-opacity:1;fill-rule:nonzero;stroke:none;stroke-width:1;marker:none;visibility:visible;display:inline;overflow:visible;enable-background:accumulate"
       d="m 47.5,14.03125 a 0.92452186,0.92452186 0 0 0 -0.0625,0.03125 c -1.325686,0.369864 -2.127788,1.35003 -2.6875,2.3125 -0.559712,0.96247 -0.958031,1.957804 -1.40625,2.59375 a 0.92452186,0.92452186 0 0 0 -0.0625,0.09375 c -5.956588,11.421436 -7.896994,24.793021 -5.8125,37.46875 -5.235089,5.680706 -8.659517,13.271821 -8.4375,21.125 a 0.92452186,0.92452186 0 0 0 0,0.03125 c 0.308844,5.100857 6.659469,8.103703 10.8125,5.125 0.02719,-0.0195 0.06674,-0.01123 0.09375,-0.03125 L 39.90625,82.75 c 1.667576,-1.033524 2.547098,-2.628301 2.875,-4.28125 0.307216,-1.54867 0.185501,-3.131404 0.03125,-4.5625 0.212171,0.04624 0.412038,0.08415 0.6875,0.125 0.294181,0.04363 0.666016,-0.02156 1.03125,-0.09375 l 0,0.0625 c 2.858439,-0.03878 5.784271,0.06193 8.71875,-0.0625 0.0087,0.21333 -0.0044,0.517502 -0.0625,0.96875 -0.07114,0.552798 -0.175752,1.2061 -0.21875,1.84375 -0.03806,0.564367 0.01538,1.116615 0.21875,1.6875 l -0.03125,0 c 0.01166,0.06778 0.04878,0.120708 0.0625,0.1875 0.0021,0.01005 -0.0021,0.02122 0,0.03125 1.022834,4.858744 7.43329,7.054268 11.1875,3.71875 0.01798,-0.01597 0.04465,-0.01502 0.0625,-0.03125 L 64.4375,82.3125 c 1.700926,-1.361119 2.37564,-3.251739 2.5,-5.125 0.125773,-1.894535 -0.219363,-3.807398 -0.5,-5.4375 a 0.92452186,0.92452186 0 0 0 0,-0.03125 c -1.114105,-5.700766 -3.976543,-10.942009 -7.875,-15.1875 2.286454,-14.09207 -0.294127,-29.154522 -8.09375,-41.25 a 0.92452186,0.92452186 0 0 0 -0.0625,-0.0625 c -0.671659,-0.859188 -1.73064,-1.30328 -2.8125,-1.1875 a 0.92452186,0.92452186 0 0 0 -0.09375,0 z"
       id="path3757" />
    <path
       style="opacity:0.1;color:#000000;fill:#7b1a1a;fill-opacity:1;fill-rule:nonzero;stroke:none;stroke-width:1;marker:none;visibility:visible;display:inline;overflow:visible;enable-background:accumulate"
       d="m 47.6875,14.9375 c -2.018213,0.563078 -2.51414,3.03397 -3.601701,4.577033 -5.920425,11.352095 -7.839101,24.669202 -5.679549,37.266717 -5.265476,5.554019 -8.655618,13.11076 -8.437235,20.835385 0.264631,4.37064 5.858006,7.038628 9.393452,4.417473 2.95112,-1.766521 2.869749,-5.423246 2.523472,-8.39528 -0.459397,-1.56305 1.662859,-0.144974 2.65629,-0.576328 2.994537,-0.04063 6.003921,0.08194 8.989021,-0.0625 1.550471,-0.125409 -0.152752,3.763411 0.541081,5.267695 0.738606,4.295023 6.532976,6.351482 9.775867,3.404113 3.017217,-2.358793 2.261054,-6.500815 1.698003,-9.771346 -1.108646,-5.672835 -3.994577,-10.933355 -7.952451,-15.119212 2.366364,-13.993426 -0.172471,-29.006632 -7.90625,-41 -0.482498,-0.617213 -1.220391,-0.927183 -2,-0.84375 z"
       id="path3749" />
    <path
       sodipodi:type="inkscape:offset"
       inkscape:radius="0.99112254"
       inkscape:original="M 48 17 C 48 17 36.214286 33 40.5 57 L 40.5625 57.4375 C 38.78669 59.195948 32.092972 66.494131 32 77 C 32 79.209139 33.790861 81 36 81 C 38.209139 81 40 79.209139 40 77 C 39.053245 68.141081 40.494037 64.882135 41.6875 63.6875 L 43 71 L 53 71 L 54.3125 63.6875 C 55.505963 64.882135 56.946755 68.141081 56 77 C 56 79.209139 57.790861 81 60 81 C 62.209139 81 64 79.209139 64 77 C 63.907028 66.494131 57.21331 59.195948 55.4375 57.4375 L 55.5 57 C 59.785714 33 48 17 48 17 z "
       style="opacity:0.15;color:#000000;fill:#7b1a1a;fill-opacity:1;fill-rule:nonzero;stroke:none;stroke-width:1;marker:none;visibility:visible;display:inline;overflow:visible;enable-background:accumulate"
       id="path3745"
       d="m 47.9375,16 a 0.99122166,0.99122166 0 0 0 -0.75,0.40625 c 0,0 -11.97803,16.369688 -7.65625,40.71875 C 37.366907,59.335261 31.092711,66.52368 31,77 c 0,2.744781 2.255219,5 5,5 2.744781,0 5,-2.255219 5,-5 a 0.99122166,0.99122166 0 0 0 0,-0.09375 c -0.548122,-5.128857 -0.253426,-8.120395 0.25,-10 l 0.78125,4.28125 A 0.99122166,0.99122166 0 0 0 43,72 l 10,0 a 0.99122166,0.99122166 0 0 0 0.96875,-0.8125 L 54.75,66.90625 c 0.503426,1.879605 0.798122,4.871143 0.25,10 A 0.99122166,0.99122166 0 0 0 55,77 c 0,2.744781 2.255219,5 5,5 2.744781,0 5,-2.255219 5,-5 C 64.907289,66.52368 58.633093,59.335261 56.46875,57.125 60.79053,32.775938 48.8125,16.40625 48.8125,16.40625 A 0.99122166,0.99122166 0 0 0 47.9375,16 z" />
    <path
       style="opacity:0.3;color:#000000;fill:#7b1a1a;fill-opacity:1;fill-rule:nonzero;stroke:none;stroke-width:1;marker:none;visibility:visible;display:inline;overflow:visible;enable-background:accumulate"
       d="m 48,17 c 0,0 -11.785714,16 -7.5,40 l 0.0625,0.4375 C 38.78669,59.195948 32.092972,66.494131 32,77 c 0,2.209139 1.790861,4 4,4 2.209139,0 4,-1.790861 4,-4 -0.946755,-8.858919 0.494037,-12.117865 1.6875,-13.3125 L 43,71 53,71 54.3125,63.6875 C 55.505963,64.882135 56.946755,68.141081 56,77 c 0,2.209139 1.790861,4 4,4 2.209139,0 4,-1.790861 4,-4 C 63.907028,66.494131 57.21331,59.195948 55.4375,57.4375 L 55.5,57 C 59.785714,33 48,17 48,17 z"
       id="path3736" />
    <path
       id="path3845"
       d="m 55,56 c 0,0 8.892818,7.88843 9,20 0,2.209139 -1.790861,4 -4,4 -2.209139,0 -4,-1.790861 -4,-4 1.500549,-14.04085 -3,-14 -3,-14 l 2,-6 z"
       style="color:#000000;fill:#b40000;fill-opacity:1;fill-rule:nonzero;stroke:none;stroke-width:1;marker:none;visibility:visible;display:inline;overflow:visible;enable-background:accumulate" />
    <path
       id="path3853"
       d="m 53.34375,60.9375 c 5.390632,3.20678 3.905269,17.077175 3.8125,17.90625 C 56.432392,78.119892 56,77.104569 56,76 57.31298,63.714256 54.028418,62.215396 53.1875,62.03125 53.067369,62.004943 53,62 53,62 l 0.34375,-1.0625 z"
       style="opacity:0.2;fill:#000000;stroke:none" />
    <path
       d="m 40,76 a 4,4 0 1 1 -8,0 4,4 0 1 1 8,0 z"
       sodipodi:ry="4"
       sodipodi:rx="4"
       sodipodi:cy="76"
       sodipodi:cx="36"
       id="path3855"
       style="color:#000000;fill:url(#radialGradient3875);fill-opacity:1;fill-rule:nonzero;stroke:none;stroke-width:1;marker:none;visibility:visible;display:inline;overflow:visible;enable-background:accumulate"
       sodipodi:type="arc"
       transform="matrix(-1,0,0,1,96,0)" />
    <g
       id="g3835">
      <path
         id="path3653"
         d="m 41,56 c 0,0 -8.892818,7.88843 -9,20 0,2.209139 1.790861,4 4,4 2.209139,0 4,-1.790861 4,-4 -1.500549,-14.04085 3,-14 3,-14 l -2,-6 z"
         style="color:#000000;fill:#d40000;fill-opacity:1;fill-rule:nonzero;stroke:none;stroke-width:1;marker:none;visibility:visible;display:inline;overflow:visible;enable-background:accumulate" />
      <path
         sodipodi:nodetypes="csccc"
         id="path3800"
         d="m 41,56 c 0,0 -8.892818,7.88843 -9,20 0,0.0641 0.02827,0.12414 0.03125,0.1875 C 32.514941,64.537568 41,57 41,57 l 0,-1 z"
         style="opacity:0.3;color:#000000;fill:#ffffff;fill-opacity:1;fill-rule:nonzero;stroke:none;stroke-width:1;marker:none;visibility:visible;display:inline;overflow:visible;enable-background:accumulate" />
      <path
         style="opacity:0.05;fill:#000000;stroke:none"
         d="m 42.40625,59.869922 c -7.849165,4.207139 -5.014375,19.434141 -5.014375,19.434141 l 0.5,0.125 C 38.810674,78.696158 40,77.266674 40,76 38.499451,61.95915 43,62 43,62 l -0.59375,-2.130078 z"
         id="path3828"
         sodipodi:nodetypes="cccccc" />
      <path
         sodipodi:nodetypes="cccccc"
         id="path3821"
         d="M 42.40625,60.25 C 35.621304,64.837217 38,79 38,79 l 0.5,0.125 C 39.418799,78.392095 40,77.266674 40,76 38.499451,61.95915 43,62 43,62 l -0.59375,-1.75 z"
         style="opacity:0.1;fill:#000000;stroke:none" />
      <path
         id="path3826"
         d="M 42.65625,60.9375 C 37.265618,64.14428 38.750981,78.014675 38.84375,78.84375 39.567608,78.119892 40,77.104569 40,76 38.68702,63.714256 41.971582,62.215396 42.8125,62.03125 42.932631,62.004943 43,62 43,62 l -0.34375,-1.0625 z"
         style="opacity:0.2;fill:#000000;stroke:none" />
      <path
         d="m 40,76 a 4,4 0 1 1 -8,0 4,4 0 1 1 8,0 z"
         sodipodi:ry="4"
         sodipodi:rx="4"
         sodipodi:cy="76"
         sodipodi:cx="36"
         id="path3807"
         style="color:#000000;fill:url(#radialGradient3815);fill-opacity:1;fill-rule:nonzero;stroke:none;stroke-width:1;marker:none;visibility:visible;display:inline;overflow:visible;enable-background:accumulate"
         sodipodi:type="arc" />
    </g>
    <path
       style="fill:url(#linearGradient3762);fill-opacity:1;stroke:none"
       d="m 48,16 c 0,0 -4.329605,5.957913 -6.78125,16 L 44,32 l 0,6 8,0 0,-6 2.78125,0 C 52.329605,21.957913 48,16 48,16 z m 6.78125,16 c 0.189912,0.77789 0.387466,1.589238 0.5625,2.40625 C 55.177499,33.565596 54.974233,32.790471 54.78125,32 z M 52,38 l 0,6 4.40625,0 c -0.05544,-2.088004 -0.188001,-4.108162 -0.4375,-6 L 52,38 z m 4.40625,6 c 0.02557,0.962941 0.02553,1.9382 0,2.9375 0.02462,-1.005871 0.02566,-1.971147 0,-2.9375 z m 0,2.9375 C 56.380722,47.9368 56.329706,48.960142 56.25,50 c 0.07942,-1.036173 0.131806,-2.063734 0.15625,-3.0625 z M 56.25,50 52,50 l 0,6 -8,0 0,-6 -4.25,0 c 0.148613,1.938835 0.381783,3.937983 0.75,6 l 2.5,14 10,0 2.5,-14 c 0.368217,-2.062017 0.601387,-4.061165 0.75,-6 z m -16.5,0 C 39.67029,48.960142 39.619278,47.9368 39.59375,46.9375 39.61819,47.936266 39.67058,48.963827 39.75,50 z m -0.15625,-3.0625 c -0.02553,-0.9993 -0.02557,-1.974559 0,-2.9375 -0.02566,0.966353 -0.02462,1.931629 0,2.9375 z m 0,-2.9375 4.40625,0 0,-6 -3.96875,0 c -0.249499,1.891838 -0.382063,3.911996 -0.4375,6 z M 44,44 l 0,6 8,0 0,-6 -8,0 z M 41.21875,32 c -0.192983,0.790471 -0.396249,1.565596 -0.5625,2.40625 0.175034,-0.817012 0.372588,-1.62836 0.5625,-2.40625 z"
       id="path3647" />
    <path
       sodipodi:nodetypes="csccsc"
       id="path3671"
       d="m -22,16 c 0,0 -11.785714,16 -7.5,40 l 2.5,14 10,0 2.5,-14 C -10.214286,32 -22,16 -22,16 z"
       style="fill:#1a1a1a;stroke:none" />
    <path
       id="path3673"
       d="m -29,56 c 0,0 -8.892818,7.88843 -9,20 0,2.209139 1.790861,4 4,4 2.209139,0 4,-1.790861 4,-4 -1.500549,-14.04085 3,-14 3,-14 l -2,-6 z"
       style="opacity:0.3;color:#000000;fill:#1a1a1a;fill-opacity:1;fill-rule:nonzero;stroke:none;stroke-width:1;marker:none;visibility:visible;display:inline;overflow:visible;enable-background:accumulate" />
    <path
       id="path3675"
       d="m -15,56 -2,6 c 0,0 4.500549,-0.04085 3,14 0,2.209139 1.790861,4 4,4 2.209139,0 4,-1.790861 4,-4 -0.107182,-12.11157 -9,-20 -9,-20 z"
       style="fill:#999999;stroke:none" />
    <path
       style="fill:#aa0000;fill-opacity:1;stroke:none"
       d="m 43,70 10,0 0,-1 -10,0 0,1 z"
       id="path3791"
       sodipodi:nodetypes="ccccc" />
    <path
       style="color:#000000;fill:url(#linearGradient3728);fill-opacity:1;fill-rule:nonzero;stroke:none;stroke-width:1;marker:none;visibility:visible;display:inline;overflow:visible;enable-background:accumulate"
       d="m 41.21875,32 c -0.457965,1.875851 -0.903734,3.848336 -1.1875,6 L 44,38 44,32 41.21875,32 z M 44,38 l 0,6 8,0 0,-6 -8,0 z m 8,0 3.96875,0 c -0.283766,-2.151664 -0.729535,-4.124149 -1.1875,-6 L 52,32 l 0,6 z m 0,6 0,6 4.25,0 c 0.159412,-2.079716 0.207382,-4.074119 0.15625,-6 L 52,44 z m 0,6 -8,0 0,6 8,0 0,-6 z m -8,0 0,-6 -4.40625,0 c -0.05113,1.925881 -0.0032,3.920284 0.15625,6 L 44,50 z"
       id="rect3677" />
    <path
       style="color:#000000;fill:#ff0000;fill-opacity:1;fill-rule:nonzero;stroke:none;stroke-width:1;marker:none;visibility:visible;display:inline;overflow:visible;enable-background:accumulate"
       d="m -26,32 0,6 8,0 0,-6 -8,0 z m 8,6 0,6 7,0 0,-6 -7,0 z m 0,6 -8,0 0,6 8,0 0,-6 z m 0,6 0,6 7,0 0,-6 -7,0 z m -8,0 -7,0 0,6 7,0 0,-6 z m 0,-6 0,-6 -7,0 0,6 7,0 z"
       id="rect3681" />
    <path
       style="opacity:0.2;fill:url(#linearGradient3787);fill-opacity:1;stroke:none"
       d="M 47.923984,16.228047 C 38.768547,29.695937 43.042203,70 43.042203,70 l 6.554125,0 c 0,0 -4.155977,-39.069934 -1.672344,-53.771953 z"
       id="path3785"
       sodipodi:nodetypes="cccc" />
    <path
       sodipodi:nodetypes="cccc"
       id="path3767"
       d="m 48,16 c -8,14 -4,54 -4,54 l 4,0 c 0,0 -3.92818,-40.286184 0,-54 z"
       style="opacity:0.3;fill:url(#linearGradient3783);fill-opacity:1;stroke:none" />
    <path
       style="opacity:0.3;fill:url(#linearGradient3775);fill-opacity:1;stroke:none"
       d="m 48,16 c -6.645286,13.290573 -3,54 -3,54 l 2,0 c 0,0 -4,-39 1,-54 z"
       id="path3765"
       sodipodi:nodetypes="cccc" />
    <path
       sodipodi:nodetypes="cccc"
       id="path3789"
       d="m 48,16 c -5.961145,14.658854 -2.619922,54 -2.619922,54 l 0.935781,0 c 0,0 -4.076015,-38.087812 1.684141,-54 z"
       style="opacity:0.5;fill:url(#linearGradient3775);fill-opacity:1;stroke:none" />
  </g>
</svg>
