<?xml version="1.0" encoding="UTF-8" standalone="no"?>
<!-- Created with Inkscape (http://www.inkscape.org/) -->

<svg
   xmlns:dc="http://purl.org/dc/elements/1.1/"
   xmlns:cc="http://creativecommons.org/ns#"
   xmlns:rdf="http://www.w3.org/1999/02/22-rdf-syntax-ns#"
   xmlns:svg="http://www.w3.org/2000/svg"
   xmlns="http://www.w3.org/2000/svg"
   xmlns:xlink="http://www.w3.org/1999/xlink"
   xmlns:sodipodi="http://sodipodi.sourceforge.net/DTD/sodipodi-0.dtd"
   xmlns:inkscape="http://www.inkscape.org/namespaces/inkscape"
   width="96"
   height="96"
   id="svg2408"
   sodipodi:version="0.32"
   inkscape:version="0.48.1 r9760"
   version="1.0"
   sodipodi:docname="indicator-weather.svg"
   inkscape:output_extension="org.inkscape.output.svg.inkscape">
  <defs
     id="defs2410">
    <linearGradient
       id="linearGradient3822">
      <stop
         id="stop3824"
         offset="0"
         style="stop-color:#e6e6e6;stop-opacity:1;" />
      <stop
         id="stop3826"
         offset="1"
         style="stop-color:#f5f5f5;stop-opacity:1;" />
    </linearGradient>
    <inkscape:perspective
       sodipodi:type="inkscape:persp3d"
       inkscape:vp_x="0 : 48 : 1"
       inkscape:vp_y="0 : 1000 : 0"
       inkscape:vp_z="96 : 48 : 1"
       inkscape:persp3d-origin="48 : 32 : 1"
       id="perspective48" />
    <linearGradient
       id="ButtonShadow"
       gradientTransform="scale(1.0058652,0.994169)"
       x1="45.447727"
       y1="92.539597"
       x2="45.447727"
       y2="7.0165396"
       gradientUnits="userSpaceOnUse">
      <stop
         style="stop-color:#000000;stop-opacity:1;"
         offset="0"
         id="stop3750" />
      <stop
         style="stop-color:#000000;stop-opacity:0.58823532;"
         offset="1"
         id="stop3752" />
    </linearGradient>
    <linearGradient
       inkscape:collect="always"
       id="linearGradient3737">
      <stop
         style="stop-color:#ffffff;stop-opacity:1;"
         offset="0"
         id="stop3739" />
      <stop
         style="stop-color:#ffffff;stop-opacity:0;"
         offset="1"
         id="stop3741" />
    </linearGradient>
    <linearGradient
       id="linearGradient3700">
      <stop
         style="stop-color:#f05517;stop-opacity:1;"
         offset="0"
         id="stop3702" />
      <stop
         style="stop-color:#f37340;stop-opacity:1;"
         offset="1"
         id="stop3704" />
    </linearGradient>
    <filter
       inkscape:collect="always"
       id="filter3174">
      <feGaussianBlur
         inkscape:collect="always"
         stdDeviation="1.71"
         id="feGaussianBlur3176" />
    </filter>
    <linearGradient
       inkscape:collect="always"
       xlink:href="#linearGradient3737"
       id="linearGradient3188"
       gradientUnits="userSpaceOnUse"
       x1="36.357143"
       y1="6"
       x2="36.357143"
       y2="63.893143" />
    <filter
       inkscape:collect="always"
       id="filter3794"
       x="-0.192"
       width="1.384"
       y="-0.192"
       height="1.384">
      <feGaussianBlur
         inkscape:collect="always"
         stdDeviation="5.28"
         id="feGaussianBlur3796" />
    </filter>
    <linearGradient
       inkscape:collect="always"
       xlink:href="#linearGradient3737"
       id="linearGradient3613"
       x1="48"
       y1="20.220806"
       x2="48"
       y2="138.66119"
       gradientUnits="userSpaceOnUse" />
    <radialGradient
       inkscape:collect="always"
       xlink:href="#linearGradient3737"
       id="radialGradient3619"
       cx="48"
       cy="90.171875"
       fx="48"
       fy="90.171875"
       r="42"
       gradientTransform="matrix(1.1573129,0,0,0.99590774,-7.5510206,0.19713193)"
       gradientUnits="userSpaceOnUse" />
    <clipPath
       clipPathUnits="userSpaceOnUse"
       id="clipPath3613">
      <rect
         ry="6"
         rx="6"
         y="6"
         x="6"
         height="84"
         width="84"
         id="rect3615"
         style="fill:#ffffff;fill-opacity:1;fill-rule:nonzero;stroke:none" />
    </clipPath>
    <linearGradient
       inkscape:collect="always"
       xlink:href="#linearGradient3822"
       id="linearGradient3617"
       gradientUnits="userSpaceOnUse"
       x1="48"
       y1="90"
       x2="48"
       y2="5.9877172" />
    <linearGradient
       id="ButtonShadow-0"
       gradientTransform="matrix(1.0058652,0,0,0.994169,100,0)"
       x1="45.447727"
       y1="92.539597"
       x2="45.447727"
       y2="7.0165396"
       gradientUnits="userSpaceOnUse">
      <stop
         style="stop-color:#000000;stop-opacity:1;"
         offset="0"
         id="stop3750-8" />
      <stop
         style="stop-color:#000000;stop-opacity:0.58823532;"
         offset="1"
         id="stop3752-5" />
    </linearGradient>
    <linearGradient
       inkscape:collect="always"
       xlink:href="#ButtonShadow-0"
       id="linearGradient3780"
       gradientUnits="userSpaceOnUse"
       gradientTransform="matrix(1.0238095,0,0,1.0119048,-1.1428571,-98.071429)"
       x1="32.251034"
       y1="6.1317081"
       x2="32.251034"
       y2="90.238609" />
    <linearGradient
       inkscape:collect="always"
       xlink:href="#ButtonShadow-0"
       id="linearGradient3772"
       gradientUnits="userSpaceOnUse"
       gradientTransform="matrix(1.0238095,0,0,1.0119048,-1.1428571,-98.071429)"
       x1="32.251034"
       y1="6.1317081"
       x2="32.251034"
       y2="90.238609" />
    <linearGradient
       inkscape:collect="always"
       xlink:href="#ButtonShadow-0"
       id="linearGradient3725"
       gradientUnits="userSpaceOnUse"
       gradientTransform="matrix(1.0238095,0,0,1.0119048,-1.1428571,-98.071429)"
       x1="32.251034"
       y1="6.1317081"
       x2="32.251034"
       y2="90.238609" />
    <linearGradient
       inkscape:collect="always"
       xlink:href="#ButtonShadow-0"
       id="linearGradient3721"
       gradientUnits="userSpaceOnUse"
       gradientTransform="translate(0,-97)"
       x1="32.251034"
       y1="6.1317081"
       x2="32.251034"
       y2="90.238609" />
    <linearGradient
       y2="90.238609"
       x2="32.251034"
       y1="6.1317081"
       x1="32.251034"
       gradientTransform="matrix(1.0238095,0,0,1.0119048,-1.1428571,-98.071429)"
       gradientUnits="userSpaceOnUse"
       id="linearGradient3026"
       xlink:href="#ButtonShadow-0"
       inkscape:collect="always" />
    <linearGradient
       inkscape:collect="always"
       xlink:href="#linearGradient3700"
       id="linearGradient3930"
       x1="47.973103"
       y1="79.776169"
       x2="47.973103"
       y2="16.436062"
       gradientUnits="userSpaceOnUse" />
    <filter
       inkscape:collect="always"
       id="filter3952">
      <feGaussianBlur
         inkscape:collect="always"
         stdDeviation="0.9525"
         id="feGaussianBlur3954" />
    </filter>
    <linearGradient
       inkscape:collect="always"
       xlink:href="#linearGradient3700"
       id="linearGradient3067"
       gradientUnits="userSpaceOnUse"
       x1="47.973103"
       y1="79.776169"
       x2="47.973103"
       y2="16.436062" />
    <linearGradient
       inkscape:collect="always"
       xlink:href="#linearGradient3700"
       id="linearGradient3072"
       gradientUnits="userSpaceOnUse"
       x1="47.973103"
       y1="79.776169"
       x2="47.973103"
       y2="16.436062"
       gradientTransform="translate(0,1)" />
    <linearGradient
       inkscape:collect="always"
       xlink:href="#linearGradient3700"
       id="linearGradient3076"
       gradientUnits="userSpaceOnUse"
       x1="47.973103"
       y1="79.776169"
       x2="47.973103"
       y2="16.436062" />
  </defs>
  <sodipodi:namedview
     id="base"
     pagecolor="#ffffff"
     bordercolor="#666666"
     borderopacity="1.0"
     inkscape:pageopacity="0.0"
     inkscape:pageshadow="2"
     inkscape:zoom="2.3541836"
     inkscape:cx="9.1802713"
     inkscape:cy="115.68243"
     inkscape:document-units="px"
     inkscape:current-layer="layer4"
     showgrid="true"
     showborder="true"
     inkscape:showpageshadow="false"
     inkscape:window-width="1920"
     inkscape:window-height="1030"
     inkscape:window-x="0"
     inkscape:window-y="25"
     inkscape:window-maximized="1"
     inkscape:snap-global="false">
    <inkscape:grid
       type="xygrid"
       id="grid3732"
       visible="true"
       enabled="true" />
  </sodipodi:namedview>
  <metadata
     id="metadata2413">
    <rdf:RDF>
      <cc:Work
         rdf:about="">
        <dc:format>image/svg+xml</dc:format>
        <dc:type
           rdf:resource="http://purl.org/dc/dcmitype/StillImage" />
        <dc:title />
      </cc:Work>
    </rdf:RDF>
  </metadata>
  <g
     inkscape:groupmode="layer"
     id="layer2"
     inkscape:label="Blur Shadow"
     style="display:none"
     sodipodi:insensitive="true">
    <rect
       style="opacity:0.9;fill:url(#ButtonShadow);fill-opacity:1;fill-rule:nonzero;stroke:none;filter:url(#filter3174)"
       id="rect3745"
       width="86"
       height="85"
       x="5"
       y="7"
       rx="6"
       ry="6" />
  </g>
  <g
     inkscape:groupmode="layer"
     id="layer3"
     inkscape:label="Shadow"
     sodipodi:insensitive="true">
    <path
       sodipodi:type="inkscape:offset"
       inkscape:radius="0.99097413"
       inkscape:original="M 12 -94.03125 C 7.028367 -94.03125 2.96875 -89.971633 2.96875 -85 L 2.96875 -14 C 2.96875 -9.0283671 7.0283671 -4.96875 12 -4.96875 L 84 -4.96875 C 88.971633 -4.96875 93.03125 -9.028367 93.03125 -14 L 93.03125 -85 C 93.03125 -89.971633 88.971633 -94.03125 84 -94.03125 L 12 -94.03125 z "
       style="opacity:0.07999998;fill:url(#linearGradient3026);fill-opacity:1;fill-rule:nonzero;stroke:none;display:inline"
       id="path3786"
       d="m 12,-95.03125 c -5.5110903,0 -10.03125,4.52016 -10.03125,10.03125 l 0,71 c 0,5.5110902 4.5201598,10.03125 10.03125,10.03125 l 72,0 c 5.51109,0 10.03125,-4.5201597 10.03125,-10.03125 l 0,-71 c 0,-5.51109 -4.52016,-10.03125 -10.03125,-10.03125 l -72,0 z"
       transform="scale(1,-1)" />
    <path
       sodipodi:type="inkscape:offset"
       inkscape:radius="1.0360184"
       inkscape:original="M 12 -93 C 7.5908667 -93 4 -89.409133 4 -85 L 4 -14 C 4 -9.5908667 7.5908667 -6 12 -6 L 84 -6 C 88.409133 -6 92 -9.5908667 92 -14 L 92 -85 C 92 -89.409133 88.409133 -93 84 -93 L 12 -93 z "
       style="opacity:0.1;fill:url(#linearGradient3780);fill-opacity:1;fill-rule:nonzero;stroke:none;display:inline"
       id="path3778"
       d="m 12,-94.03125 c -4.971633,0 -9.03125,4.059617 -9.03125,9.03125 l 0,71 c 0,4.9716329 4.0596171,9.03125 9.03125,9.03125 l 72,0 c 4.971633,0 9.03125,-4.059617 9.03125,-9.03125 l 0,-71 c 0,-4.971633 -4.059617,-9.03125 -9.03125,-9.03125 l -72,0 z"
       transform="scale(1,-1)" />
    <path
       sodipodi:type="inkscape:offset"
       inkscape:radius="0.98962283"
       inkscape:original="M 12 -92 C 8.122 -92 5 -88.878 5 -85 L 5 -14 C 5 -10.122 8.122 -7 12 -7 L 84 -7 C 87.878 -7 91 -10.122 91 -14 L 91 -85 C 91 -88.878 87.878 -92 84 -92 L 12 -92 z "
       style="opacity:0.2;fill:url(#linearGradient3772);fill-opacity:1;fill-rule:nonzero;stroke:none;display:inline"
       id="path3770"
       d="m 12,-93 c -4.4091333,0 -8,3.590867 -8,8 l 0,71 c 0,4.4091333 3.5908667,8 8,8 l 72,0 c 4.409133,0 8,-3.5908667 8,-8 l 0,-71 c 0,-4.409133 -3.590867,-8 -8,-8 l -72,0 z"
       transform="scale(1,-1)" />
    <rect
       style="opacity:0.3;fill:url(#linearGradient3725);fill-opacity:1;fill-rule:nonzero;stroke:none;display:inline"
       id="rect3723"
       width="86"
       height="85"
       x="5"
       y="-92"
       rx="7"
       ry="7"
       transform="scale(1,-1)" />
    <rect
       transform="scale(1,-1)"
       ry="6"
       rx="6"
       y="-91"
       x="6"
       height="84"
       width="84"
       id="rect3716"
       style="opacity:0.45;fill:url(#linearGradient3721);fill-opacity:1;fill-rule:nonzero;stroke:none;display:inline" />
  </g>
  <g
     inkscape:label="Button"
     inkscape:groupmode="layer"
     id="layer1">
    <rect
       style="fill:url(#linearGradient3617);fill-opacity:1;fill-rule:nonzero;stroke:none"
       id="rect2419"
       width="84"
       height="84"
       x="6"
       y="6"
       rx="6"
       ry="6" />
    <path
       style="opacity:0.7;fill:url(#linearGradient3188);fill-opacity:1;fill-rule:nonzero;stroke:none"
       d="M 12,6 C 8.676,6 6,8.676 6,12 l 0,2 0,68 0,2 c 0,0.334721 0.04135,0.6507 0.09375,0.96875 0.0487,0.295596 0.09704,0.596915 0.1875,0.875 0.00988,0.03038 0.020892,0.0636 0.03125,0.09375 0.098865,0.287771 0.2348802,0.547452 0.375,0.8125 0.1445918,0.273507 0.3156161,0.535615 0.5,0.78125 0.1843839,0.245635 0.3737765,0.473472 0.59375,0.6875 0.439947,0.428056 0.94291,0.814526 1.5,1.09375 0.278545,0.139612 0.5734731,0.246947 0.875,0.34375 -0.2562018,-0.100222 -0.4867109,-0.236272 -0.71875,-0.375 -0.00741,-0.0044 -0.023866,0.0045 -0.03125,0 -0.031933,-0.0193 -0.062293,-0.04251 -0.09375,-0.0625 -0.120395,-0.0767 -0.2310226,-0.163513 -0.34375,-0.25 -0.1061728,-0.0808 -0.2132809,-0.161112 -0.3125,-0.25 C 8.4783201,88.557317 8.3087904,88.373362 8.15625,88.1875 8.0486711,88.057245 7.9378561,87.922215 7.84375,87.78125 7.818661,87.74287 7.805304,87.69538 7.78125,87.65625 7.716487,87.553218 7.6510225,87.451733 7.59375,87.34375 7.4927417,87.149044 7.3880752,86.928049 7.3125,86.71875 7.30454,86.69694 7.288911,86.6782 7.28125,86.65625 7.2494249,86.5643 7.2454455,86.469419 7.21875,86.375 7.1884177,86.268382 7.1483606,86.171969 7.125,86.0625 7.0521214,85.720988 7,85.364295 7,85 L 7,83 7,15 7,13 C 7,10.218152 9.2181517,8 12,8 l 2,0 68,0 2,0 c 2.781848,0 5,2.218152 5,5 l 0,2 0,68 0,2 c 0,0.364295 -0.05212,0.720988 -0.125,1.0625 -0.04415,0.206893 -0.08838,0.397658 -0.15625,0.59375 -0.0077,0.02195 -0.0233,0.04069 -0.03125,0.0625 -0.06274,0.173739 -0.138383,0.367449 -0.21875,0.53125 -0.04158,0.0828 -0.07904,0.169954 -0.125,0.25 -0.0546,0.09721 -0.126774,0.18835 -0.1875,0.28125 -0.09411,0.140965 -0.204921,0.275995 -0.3125,0.40625 -0.143174,0.17445 -0.303141,0.346998 -0.46875,0.5 -0.01117,0.0102 -0.01998,0.02115 -0.03125,0.03125 -0.138386,0.125556 -0.285091,0.234436 -0.4375,0.34375 -0.102571,0.07315 -0.204318,0.153364 -0.3125,0.21875 -0.0074,0.0045 -0.02384,-0.0044 -0.03125,0 -0.232039,0.138728 -0.462548,0.274778 -0.71875,0.375 0.301527,-0.0968 0.596455,-0.204138 0.875,-0.34375 0.55709,-0.279224 1.060053,-0.665694 1.5,-1.09375 0.219973,-0.214028 0.409366,-0.441865 0.59375,-0.6875 0.184384,-0.245635 0.355408,-0.507743 0.5,-0.78125 0.14012,-0.265048 0.276135,-0.524729 0.375,-0.8125 0.01041,-0.03078 0.02133,-0.06274 0.03125,-0.09375 0.09046,-0.278085 0.1388,-0.579404 0.1875,-0.875 C 89.95865,84.6507 90,84.334721 90,84 l 0,-2 0,-68 0,-2 C 90,8.676 87.324,6 84,6 L 12,6 z"
       id="rect3728"
       inkscape:connector-curvature="0" />
    <path
       id="path3615"
       d="M 12,90 C 8.676,90 6,87.324 6,84 L 6,82 6,14 6,12 c 0,-0.334721 0.04135,-0.6507 0.09375,-0.96875 0.0487,-0.295596 0.09704,-0.596915 0.1875,-0.875 C 6.29113,10.12587 6.302142,10.09265 6.3125,10.0625 6.411365,9.774729 6.5473802,9.515048 6.6875,9.25 6.8320918,8.976493 7.0031161,8.714385 7.1875,8.46875 7.3718839,8.223115 7.5612765,7.995278 7.78125,7.78125 8.221197,7.353194 8.72416,6.966724 9.28125,6.6875 9.559795,6.547888 9.8547231,6.440553 10.15625,6.34375 9.9000482,6.443972 9.6695391,6.580022 9.4375,6.71875 c -0.00741,0.0044 -0.023866,-0.0045 -0.03125,0 -0.031933,0.0193 -0.062293,0.04251 -0.09375,0.0625 -0.120395,0.0767 -0.2310226,0.163513 -0.34375,0.25 -0.1061728,0.0808 -0.2132809,0.161112 -0.3125,0.25 C 8.4783201,7.442683 8.3087904,7.626638 8.15625,7.8125 8.0486711,7.942755 7.9378561,8.077785 7.84375,8.21875 7.818661,8.25713 7.805304,8.30462 7.78125,8.34375 7.716487,8.446782 7.6510225,8.548267 7.59375,8.65625 7.4927417,8.850956 7.3880752,9.071951 7.3125,9.28125 7.30454,9.30306 7.288911,9.3218 7.28125,9.34375 7.2494249,9.4357 7.2454455,9.530581 7.21875,9.625 7.1884177,9.731618 7.1483606,9.828031 7.125,9.9375 7.0521214,10.279012 7,10.635705 7,11 l 0,2 0,68 0,2 c 0,2.781848 2.2181517,5 5,5 l 2,0 68,0 2,0 c 2.781848,0 5,-2.218152 5,-5 l 0,-2 0,-68 0,-2 C 89,10.635705 88.94788,10.279012 88.875,9.9375 88.83085,9.730607 88.78662,9.539842 88.71875,9.34375 88.71105,9.3218 88.69545,9.30306 88.6875,9.28125 88.62476,9.107511 88.549117,8.913801 88.46875,8.75 88.42717,8.6672 88.38971,8.580046 88.34375,8.5 88.28915,8.40279 88.216976,8.31165 88.15625,8.21875 88.06214,8.077785 87.951329,7.942755 87.84375,7.8125 87.700576,7.63805 87.540609,7.465502 87.375,7.3125 87.36383,7.3023 87.35502,7.29135 87.34375,7.28125 87.205364,7.155694 87.058659,7.046814 86.90625,6.9375 86.803679,6.86435 86.701932,6.784136 86.59375,6.71875 c -0.0074,-0.0045 -0.02384,0.0044 -0.03125,0 -0.232039,-0.138728 -0.462548,-0.274778 -0.71875,-0.375 0.301527,0.0968 0.596455,0.204138 0.875,0.34375 0.55709,0.279224 1.060053,0.665694 1.5,1.09375 0.219973,0.214028 0.409366,0.441865 0.59375,0.6875 0.184384,0.245635 0.355408,0.507743 0.5,0.78125 0.14012,0.265048 0.276135,0.524729 0.375,0.8125 0.01041,0.03078 0.02133,0.06274 0.03125,0.09375 0.09046,0.278085 0.1388,0.579404 0.1875,0.875 C 89.95865,11.3493 90,11.665279 90,12 l 0,2 0,68 0,2 c 0,3.324 -2.676,6 -6,6 l -72,0 z"
       style="opacity:0.4;fill:url(#radialGradient3619);fill-opacity:1;fill-rule:nonzero;stroke:none"
       inkscape:connector-curvature="0" />
  </g>
  <g
     inkscape:groupmode="layer"
     id="layer5"
     inkscape:label="Highlight"
     sodipodi:insensitive="true"
     style="display:none">
    <rect
       style="opacity:0.1;fill:url(#linearGradient3613);fill-opacity:1;fill-rule:nonzero;stroke:#ffffff;stroke-width:0.5;stroke-linecap:round;stroke-linejoin:miter;stroke-miterlimit:4;stroke-opacity:1;stroke-dasharray:none;stroke-dashoffset:0;filter:url(#filter3794)"
       id="rect3171"
       width="66"
       height="66"
       x="15"
       y="15"
       rx="12"
       ry="12"
       clip-path="url(#clipPath3613)" />
  </g>
  <g
     inkscape:groupmode="layer"
     id="layer4"
     inkscape:label="Symbol">
    <path
       style="opacity:1;color:#000000;fill:url(#linearGradient3067);fill-opacity:1;fill-rule:nonzero;stroke:none;stroke-width:2;marker:none;visibility:visible;display:inline;overflow:visible;enable-background:accumulate"
       d="M 48 16 C 30.326888 16 16 30.10303 16 47.5 C 16 64.89697 30.326888 79 48 79 C 53.423369 79 58.524178 77.656301 63 75.3125 L 75 79 L 72.0625 68.25 C 76.998211 62.707254 80 55.449908 80 47.5 C 80 30.10303 65.673112 16 48 16 z M 36.875 27.96875 L 40.75 35.34375 L 44.9375 31.28125 L 45.4375 37.09375 L 49.90625 36.4375 L 48.625 40.875 L 56.03125 41.03125 L 51.53125 44.25 C 50.771938 44.553837 50.080884 44.978691 49.4375 45.46875 C 49.44864 45.278309 49.46875 45.099478 49.46875 44.90625 C 49.46875 41.68753 47.879119 38.827251 45.4375 37.09375 C 43.876465 35.985446 41.964121 35.34375 39.90625 35.34375 C 36.687527 35.34375 33.82725 36.93338 32.09375 39.375 C 30.985447 40.936035 30.34375 42.84838 30.34375 44.90625 C 30.34375 48.122929 31.938435 50.987365 34.375 52.71875 C 34.941831 53.121532 35.569039 53.44769 36.21875 53.71875 C 35.115925 54.945311 34.4375 56.559715 34.4375 58.34375 C 34.4375 58.483881 34.46075 58.611743 34.46875 58.75 L 34.4375 58.78125 L 34.4375 58.34375 L 34.375 52.71875 L 27.53125 55.5 L 31.1875 48.9375 L 25.625 47.40625 L 30.34375 44.0625 L 23.84375 38.5 L 32.09375 39.375 L 31.0625 34.75 L 35.875 36.1875 L 36.875 27.96875 z M 39.90625 36.9375 C 44.303412 36.9375 47.875 40.509088 47.875 44.90625 C 47.875 45.840196 47.702186 46.729353 47.40625 47.5625 C 47.36281 47.624825 47.32324 47.68659 47.28125 47.75 C 46.706417 47.516546 46.081334 47.375 45.40625 47.375 C 42.945435 47.375 40.972112 49.130368 40.375 51.40625 C 39.359538 51.597374 38.422127 52.006919 37.59375 52.5625 C 34.318358 51.572675 31.9375 48.502227 31.9375 44.90625 C 31.9375 40.509088 35.509088 36.9375 39.90625 36.9375 z M 54.8125 45.1875 C 58.97088 45.1875 62.34375 48.560369 62.34375 52.71875 C 65.462534 52.71875 68 55.224968 68 58.34375 C 68 61.462532 65.462534 64 62.34375 64 L 41.65625 64 C 38.537466 64 36 61.462532 36 58.34375 C 36 55.224968 38.537466 52.71875 41.65625 52.71875 C 41.65625 50.63956 43.327061 48.9375 45.40625 48.9375 C 46.3383 48.9375 47.15504 49.313957 47.8125 49.875 C 48.926429 47.109192 51.647973 45.1875 54.8125 45.1875 z "
       id="path3050" />
    <path
       style="opacity:0.7;color:#000000;fill:#0000ff;fill-opacity:1;fill-rule:nonzero;stroke:none;stroke-width:2;marker:none;visibility:visible;display:inline;overflow:visible;enable-background:accumulate"
       d="M -18.3125,27.375 -21.15625,34 c -0.639378,0.009 -1.266447,0.07387 -1.875,0.1875 l -1.4375,-3.625 -0.21875,4.09375 c -0.472169,0.168016 -0.935062,0.334299 -1.375,0.5625 l -3.90625,-3.46875 1.71875,5 c -0.258983,0.227946 -0.513497,0.467696 -0.75,0.71875 l -3.125,-1.625 1.96875,3.03125 c -0.341207,0.5093 -0.621444,1.060348 -0.875,1.625 l -5.65625,0.28125 4.875,2.3125 c -0.07173,0.409621 -0.131189,0.826125 -0.15625,1.25 l -3.59375,0.8125 3.625,0.8125 c 0.0589,0.673591 0.168933,1.33547 0.34375,1.96875 l -3.125,2.9375 3.8125,-1.09375 c 0.299391,0.619269 0.657081,1.202048 1.0625,1.75 l -3.25,5.40625 4.625,-3.875 c 0.512535,0.475208 1.060216,0.909735 1.65625,1.28125 l 1.3125,0.6875 C -24.125991,55.648245 -22.60378,56 -21,56 c 6.075132,0 11,-4.924868 11,-11 0,-3.172138 -1.351903,-6.023686 -3.5,-8.03125 0.620566,-1.215228 1.84375,-3.9375 1.84375,-3.9375 l -3.6875,2.53125 C -16.094575,35.11151 -16.896624,34.762878 -17.75,34.5 z M -21,37 c 4.418278,0 8,3.581722 8,8 0,4.418278 -3.581722,8 -8,8 -4.418278,0 -8,-3.581722 -8,-8 0,-4.418278 3.581722,-8 8,-8 z"
       id="path3859"
       inkscape:connector-curvature="0"
       sodipodi:nodetypes="cccccccccccccccccccccccccsscccccsssss" />
    <path
       inkscape:connector-curvature="0"
       id="path3907"
       d="m 55.333333,115.66667 c 5.154658,0 9.333334,4.17867 9.333334,9.33333 3.865992,0 7,3.13401 7,7 0,3.86599 -3.134008,7 -7,7 L 39,139 c -3.865993,0 -7,-3.13401 -7,-7 0,-3.86599 3.134007,-7 7,-7 0,-2.57733 2.089339,-4.66667 4.666667,-4.66667 1.155354,0 2.174606,0.47121 2.989583,1.16667 1.380808,-3.42845 4.754388,-5.83333 8.677083,-5.83333 z"
       style="opacity:0.35;color:#000000;fill:#000000;fill-opacity:1;fill-rule:nonzero;stroke:none;stroke-width:1;marker:none;visibility:visible;display:inline;overflow:visible;enable-background:accumulate" />
    <path
       sodipodi:nodetypes="cccccccccccccccccccccccccsssss"
       id="path3909"
       d="m 34.885255,107.95776 -1.009057,8.2409 -4.817354,-1.44744 1.035516,4.63215 -8.261055,-0.87434 6.519418,5.55187 -4.727298,3.33399 5.573235,1.54259 -3.657794,6.5704 6.842501,-2.78856 0.954925,4.60254 3.722611,-2.8609 3.33399,4.7273 1.542591,-5.57324 5.27467,2.43829 -1.492831,-5.62299 5.82204,-0.49761 -4.080405,-4.17993 4.727299,-3.33399 -5.573236,-1.54259 1.295003,-4.43626 -4.479709,0.65442 -0.49761,-5.82204 -4.179926,4.0804 z m 3.021586,7.39496 c 5.276592,0 9.554117,4.27753 9.554117,9.55412 0,5.27659 -4.277525,9.55412 -9.554117,9.55412 -5.276595,0 -9.554118,-4.27753 -9.554118,-9.55412 0,-5.27659 4.277523,-9.55412 9.554118,-9.55412 z"
       style="opacity:0.35;color:#000000;fill:#000000;fill-opacity:1;fill-rule:nonzero;stroke:none;stroke-width:1;marker:none;visibility:visible;display:inline;overflow:visible;enable-background:accumulate"
       inkscape:connector-curvature="0" />
    <path
       sodipodi:type="arc"
       style="opacity:0.35;color:#000000;fill:#000000;fill-opacity:1;fill-rule:nonzero;stroke:none;stroke-width:1;marker:none;visibility:visible;display:inline;overflow:visible;enable-background:accumulate"
       id="path3911"
       sodipodi:cx="11"
       sodipodi:cy="11"
       sodipodi:rx="5"
       sodipodi:ry="5"
       d="M 16,11 A 5,5 0 1 1 6,11 5,5 0 1 1 16,11 z"
       transform="matrix(1.5923531,0,0,1.5923531,20.390959,107.39096)" />
    <path
       d="m 55.34375,33.65625 c -3.937037,0 -7.364979,2.053991 -9.40625,5.125 -0.700908,-0.268834 -1.471205,-0.4375 -2.28125,-0.4375 -3.071642,0 -5.556188,2.153277 -6.3125,5 C 33.205619,44.151051 30,47.636223 30,52 c 0,4.949582 4.050418,9 9,9 l 25.65625,0 c 4.949582,0 9,-4.050417 9,-9 0,-4.363777 -3.205619,-7.848949 -7.34375,-8.65625 -0.834372,-5.423547 -5.315278,-9.6875 -10.96875,-9.6875 z"
       id="path3913"
       style="opacity:0.35;color:#000000;fill:#000000;fill-opacity:1;fill-rule:nonzero;stroke:none;stroke-width:1;marker:none;visibility:visible;display:inline;overflow:visible;enable-background:accumulate"
       inkscape:original="M 55.34375 35.65625 C 51.421055 35.65625 48.037058 38.071545 46.65625 41.5 C 45.841273 40.804541 44.811604 40.34375 43.65625 40.34375 C 41.078922 40.34375 39 42.422672 39 45 C 35.134007 45 32 48.134007 32 52 C 32 55.865993 35.134007 59 39 59 L 64.65625 59 C 68.522242 59 71.65625 55.865993 71.65625 52 C 71.65625 48.134007 68.522242 45 64.65625 45 C 64.65625 39.845342 60.498408 35.65625 55.34375 35.65625 z "
       inkscape:radius="2.0050128"
       sodipodi:type="inkscape:offset"
       transform="translate(0,80)" />
    <path
       inkscape:connector-curvature="0"
       id="path3920"
       d="m 48,106 c -17.673112,0 -32,14.10303 -32,31.5 0,17.39697 14.326888,31.5 32,31.5 5.423369,0 10.524178,-1.3437 15,-3.6875 L 75,169 72.0625,158.25 C 76.998211,152.70725 80,145.44991 80,137.5 80,120.10303 65.673112,106 48,106 z"
       style="opacity:0.7;color:#000000;fill:#ff00ff;fill-opacity:1;fill-rule:nonzero;stroke:none;stroke-width:2;marker:none;visibility:visible;display:inline;overflow:visible;enable-background:accumulate" />
    <path
       style="color:#000000;fill:#ffffff;fill-opacity:1;fill-rule:nonzero;stroke:none;stroke-width:2;marker:none;visibility:visible;display:inline;overflow:visible;enable-background:accumulate"
       d="M 36.875 27.96875 L 35.875 36.1875 L 31.0625 34.75 L 31.3125 35.8125 L 34.75 36.84375 C 35.144361 36.592349 35.569233 36.380019 36 36.1875 L 36.875 28.96875 L 40.21875 35.34375 C 40.697283 35.359275 41.166271 35.417259 41.625 35.5 L 44.9375 32.28125 L 45.34375 37.03125 C 45.374576 37.052587 45.406942 37.072054 45.4375 37.09375 L 44.9375 31.28125 L 40.75 35.34375 L 36.875 27.96875 z M 45.4375 37.09375 C 45.802523 37.352909 46.144276 37.63054 46.46875 37.9375 L 49.59375 37.46875 L 49.90625 36.4375 L 45.4375 37.09375 z M 39.90625 36.9375 C 35.509088 36.9375 31.9375 40.509088 31.9375 44.90625 C 31.9375 45.056252 31.960572 45.19569 31.96875 45.34375 C 32.259716 41.210295 35.699475 37.9375 39.90625 37.9375 C 44.12358 37.9375 47.567966 41.226841 47.84375 45.375 C 47.853565 45.218315 47.875 45.065599 47.875 44.90625 C 47.875 40.509088 44.303412 36.9375 39.90625 36.9375 z M 23.84375 38.5 L 25.1875 39.65625 L 31.5 40.3125 C 31.631194 40.07187 31.786503 39.852397 31.9375 39.625 L 31.875 39.34375 L 23.84375 38.5 z M 48.90625 40.875 L 48.78125 41.34375 C 48.850955 41.517997 48.909146 41.695912 48.96875 41.875 L 54.6875 42 L 56.03125 41.03125 L 48.90625 40.875 z M 29.71875 44.5 L 25.625 47.40625 L 26.65625 47.6875 L 30.34375 45.0625 L 29.71875 44.5 z M 54.8125 45.1875 C 51.647973 45.1875 48.926429 47.109192 47.8125 49.875 C 47.15504 49.313957 46.3383 48.9375 45.40625 48.9375 C 43.327061 48.9375 41.65625 50.63956 41.65625 52.71875 C 38.537466 52.71875 36 55.224968 36 58.34375 C 36 58.495491 36.019462 58.632487 36.03125 58.78125 C 36.321446 55.936111 38.73239 53.71875 41.65625 53.71875 C 41.65625 51.63956 43.327061 49.9375 45.40625 49.9375 C 46.3383 49.9375 47.15504 50.313957 47.8125 50.875 C 48.926429 48.109192 51.647973 46.1875 54.8125 46.1875 C 58.97088 46.1875 62.34375 49.560369 62.34375 53.71875 C 65.26761 53.71875 67.678554 55.936111 67.96875 58.78125 C 67.980538 58.632487 68 58.495491 68 58.34375 C 68 55.224968 65.462534 52.71875 62.34375 52.71875 C 62.34375 48.560369 58.97088 45.1875 54.8125 45.1875 z M 30.375 45.34375 C 30.363852 45.534056 30.34375 45.713213 30.34375 45.90625 C 30.34375 46.928788 30.514391 47.917483 30.8125 48.84375 L 31.1875 48.9375 L 30.96875 49.34375 C 31.519199 50.77911 32.40852 52.05657 33.53125 53.0625 L 34.375 52.71875 C 32.050756 51.067179 30.51372 48.379585 30.375 45.34375 z M 34.375 52.71875 L 34.375 53.71875 C 34.76961 53.999154 35.215896 54.224105 35.65625 54.4375 C 35.828262 54.188055 36.016677 53.943495 36.21875 53.71875 C 35.569039 53.44769 34.941831 53.121532 34.375 52.71875 z M 80 47.96875 C 79.883105 55.732691 76.899804 62.817764 72.0625 68.25 L 72.28125 69 C 77.086709 63.489654 80 56.331724 80 48.5 C 80 48.322332 80.002977 48.145719 80 47.96875 z M 16 48 C 15.997363 48.166598 16 48.332783 16 48.5 C 16 65.89697 30.326888 80 48 80 C 53.423369 80 58.524178 78.656301 63 76.3125 L 75 80 L 74.6875 78.90625 L 63 75.3125 C 58.524178 77.656301 53.423369 79 48 79 C 30.496759 79 16.271763 65.166051 16 48 z M 30.71875 49.8125 L 27.53125 55.5 L 28.25 55.21875 L 31.1875 49.9375 L 30.71875 49.8125 z "
       id="path3070" />
    <path
       style="opacity:0.05;color:#000000;fill:#552200;fill-opacity:1;fill-rule:nonzero;stroke:none;stroke-width:2;marker:none;visibility:visible;display:inline;overflow:visible;enable-background:accumulate"
       d="M 48 16 C 30.326888 16 16 30.10303 16 47.5 C 16 64.89697 30.326888 79 48 79 C 53.423369 79 58.524178 77.656301 63 75.3125 L 75 79 L 72.0625 68.25 C 76.998211 62.707254 80 55.449908 80 47.5 C 80 30.10303 65.673112 16 48 16 z M 48 18.03125 C 64.585436 18.03125 77.96875 31.225509 77.96875 47.5 C 77.96875 54.935251 75.151305 61.686732 70.53125 66.875 A 2.0447244 2.0447244 0 0 0 70.09375 68.78125 L 72.0625 75.9375 L 63.59375 73.34375 A 2.0447244 2.0447244 0 0 0 62.0625 73.5 C 57.867711 75.696636 53.085668 76.96875 48 76.96875 C 31.414564 76.96875 18.03125 63.774491 18.03125 47.5 C 18.03125 31.225509 31.414564 18.03125 48 18.03125 z M 36.78125 25.90625 A 2.0447244 2.0447244 0 0 0 36.5625 25.9375 A 2.0447244 2.0447244 0 0 0 34.84375 27.71875 L 34.125 33.53125 L 31.65625 32.78125 A 2.0447244 2.0447244 0 0 0 29.0625 35.1875 L 29.46875 37.03125 L 24.0625 36.46875 A 2.0447244 2.0447244 0 0 0 22.5 40.0625 L 27 43.9375 L 24.4375 45.75 A 2.0447244 2.0447244 0 0 0 25.09375 49.375 L 28.125 50.21875 L 25.75 54.5 A 2.0447244 2.0447244 0 0 0 28.3125 57.40625 L 32.375 55.75 L 32.40625 58.34375 L 32.40625 58.375 L 32.40625 58.78125 A 2.0447244 2.0447244 0 0 0 34.46875 60.8125 C 35.512985 63.831377 38.299042 66.03125 41.65625 66.03125 L 62.34375 66.03125 C 66.571493 66.03125 70.03125 62.571491 70.03125 58.34375 C 70.03125 54.717222 67.420738 51.824862 64.03125 51.03125 C 63.2885 47.05753 60.204513 44.047984 56.1875 43.4375 L 57.21875 42.6875 A 2.0447244 2.0447244 0 0 0 56.0625 39 L 51.3125 38.90625 L 51.875 37 A 2.0447244 2.0447244 0 0 0 49.59375 34.40625 L 47.28125 34.75 L 46.96875 31.09375 A 2.0447244 2.0447244 0 0 0 43.5 29.8125 L 41.28125 31.96875 L 38.6875 27.03125 A 2.0447244 2.0447244 0 0 0 36.78125 25.90625 z M 36.875 27.96875 L 40.75 35.34375 L 44.9375 31.28125 L 45.4375 37.09375 L 49.90625 36.4375 L 48.625 40.875 L 56.03125 41.03125 L 51.53125 44.25 C 50.771938 44.553837 50.080884 44.978691 49.4375 45.46875 C 49.44864 45.278309 49.46875 45.099478 49.46875 44.90625 C 49.46875 41.68753 47.879119 38.827251 45.4375 37.09375 C 43.876465 35.985446 41.964121 35.34375 39.90625 35.34375 C 36.687527 35.34375 33.82725 36.93338 32.09375 39.375 C 30.985447 40.936035 30.34375 42.84838 30.34375 44.90625 C 30.34375 48.122929 31.938435 50.987365 34.375 52.71875 C 34.941831 53.121532 35.569039 53.44769 36.21875 53.71875 C 35.115925 54.945311 34.4375 56.559715 34.4375 58.34375 C 34.4375 58.483881 34.46075 58.611743 34.46875 58.75 L 34.4375 58.78125 L 34.4375 58.34375 L 34.375 52.71875 L 27.53125 55.5 L 31.1875 48.9375 L 25.625 47.40625 L 30.34375 44.0625 L 23.84375 38.5 L 32.09375 39.375 L 31.0625 34.75 L 35.875 36.1875 L 36.875 27.96875 z M 39.90625 36.9375 C 44.303412 36.9375 47.875 40.509088 47.875 44.90625 C 47.875 45.840196 47.702186 46.729353 47.40625 47.5625 C 47.36281 47.624825 47.32324 47.68659 47.28125 47.75 C 46.706417 47.516546 46.081334 47.375 45.40625 47.375 C 42.945435 47.375 40.972112 49.130368 40.375 51.40625 C 39.359538 51.597374 38.422127 52.006919 37.59375 52.5625 C 34.318358 51.572675 31.9375 48.502227 31.9375 44.90625 C 31.9375 40.509088 35.509088 36.9375 39.90625 36.9375 z M 54.8125 45.1875 C 58.97088 45.1875 62.34375 48.560369 62.34375 52.71875 C 65.462534 52.71875 68 55.224968 68 58.34375 C 68 61.462532 65.462534 64 62.34375 64 L 41.65625 64 C 38.537466 64 36 61.462532 36 58.34375 C 36 55.224968 38.537466 52.71875 41.65625 52.71875 C 41.65625 50.63956 43.327061 48.9375 45.40625 48.9375 C 46.3383 48.9375 47.15504 49.313957 47.8125 49.875 C 48.926429 47.109192 51.647973 45.1875 54.8125 45.1875 z "
       id="path3856" />
    <path
       style="opacity:0.1;color:#000000;fill:#552200;fill-opacity:1;fill-rule:nonzero;stroke:none;stroke-width:2;marker:none;visibility:visible;display:inline;overflow:visible;enable-background:accumulate"
       d="M 48 16 C 30.326888 16 16 30.10303 16 47.5 C 16 64.89697 30.326888 79 48 79 C 53.423369 79 58.524178 77.656301 63 75.3125 L 75 79 L 72.0625 68.25 C 76.998211 62.707254 80 55.449908 80 47.5 C 80 30.10303 65.673112 16 48 16 z M 48 17.0625 C 65.10343 17.0625 78.9375 30.690941 78.9375 47.5 C 78.9375 55.180351 76.020383 62.174166 71.25 67.53125 A 1.0709466 1.0709466 0 0 0 71.03125 68.53125 L 73.46875 77.40625 L 63.3125 74.28125 A 1.0709466 1.0709466 0 0 0 62.5 74.375 C 58.171372 76.641722 53.246494 77.9375 48 77.9375 C 30.89657 77.9375 17.0625 64.309059 17.0625 47.5 C 17.0625 30.690941 30.89657 17.0625 48 17.0625 z M 36.71875 26.90625 A 1.0709466 1.0709466 0 0 0 35.8125 27.84375 L 34.96875 34.78125 L 31.375 33.71875 A 1.0709466 1.0709466 0 0 0 30.03125 34.96875 L 30.75 38.15625 L 23.96875 37.4375 A 1.0709466 1.0709466 0 0 0 23.15625 39.3125 L 28.59375 43.96875 L 25 46.53125 A 1.0709466 1.0709466 0 0 0 25.34375 48.4375 L 29.59375 49.59375 L 26.59375 54.96875 A 1.0709466 1.0709466 0 0 0 27.9375 56.5 L 33.34375 54.3125 L 33.375 58.34375 L 33.375 58.78125 A 1.0709466 1.0709466 0 0 0 35.1875 59.53125 C 35.768881 62.649969 38.375708 65.0625 41.65625 65.0625 L 62.34375 65.0625 C 66.043363 65.0625 69.0625 62.043361 69.0625 58.34375 C 69.0625 54.956735 66.48191 52.29231 63.21875 51.84375 C 62.756722 47.536415 59.238939 44.125 54.8125 44.125 C 54.270977 44.125 53.765197 44.248622 53.25 44.34375 L 56.65625 41.90625 A 1.0709466 1.0709466 0 0 0 56.0625 39.96875 L 50.03125 39.84375 L 50.9375 36.75 A 1.0709466 1.0709466 0 0 0 49.75 35.375 L 46.40625 35.875 L 46 31.1875 A 1.0709466 1.0709466 0 0 0 44.1875 30.5 L 41.03125 33.5625 L 37.8125 27.46875 A 1.0709466 1.0709466 0 0 0 36.71875 26.90625 z M 36.875 27.96875 L 40.75 35.34375 L 44.9375 31.28125 L 45.4375 37.09375 L 49.90625 36.4375 L 48.625 40.875 L 56.03125 41.03125 L 51.53125 44.25 C 50.771938 44.553837 50.080884 44.978691 49.4375 45.46875 C 49.44864 45.278309 49.46875 45.099478 49.46875 44.90625 C 49.46875 41.68753 47.879119 38.827251 45.4375 37.09375 C 43.876465 35.985446 41.964121 35.34375 39.90625 35.34375 C 36.687527 35.34375 33.82725 36.93338 32.09375 39.375 C 30.985447 40.936035 30.34375 42.84838 30.34375 44.90625 C 30.34375 48.122929 31.938435 50.987365 34.375 52.71875 C 34.941831 53.121532 35.569039 53.44769 36.21875 53.71875 C 35.115925 54.945311 34.4375 56.559715 34.4375 58.34375 C 34.4375 58.483881 34.46075 58.611743 34.46875 58.75 L 34.4375 58.78125 L 34.4375 58.34375 L 34.375 52.71875 L 27.53125 55.5 L 31.1875 48.9375 L 25.625 47.40625 L 30.34375 44.0625 L 23.84375 38.5 L 32.09375 39.375 L 31.0625 34.75 L 35.875 36.1875 L 36.875 27.96875 z M 39.90625 36.9375 C 44.303412 36.9375 47.875 40.509088 47.875 44.90625 C 47.875 45.840196 47.702186 46.729353 47.40625 47.5625 C 47.36281 47.624825 47.32324 47.68659 47.28125 47.75 C 46.706417 47.516546 46.081334 47.375 45.40625 47.375 C 42.945435 47.375 40.972112 49.130368 40.375 51.40625 C 39.359538 51.597374 38.422127 52.006919 37.59375 52.5625 C 34.318358 51.572675 31.9375 48.502227 31.9375 44.90625 C 31.9375 40.509088 35.509088 36.9375 39.90625 36.9375 z M 54.8125 45.1875 C 58.97088 45.1875 62.34375 48.560369 62.34375 52.71875 C 65.462534 52.71875 68 55.224968 68 58.34375 C 68 61.462532 65.462534 64 62.34375 64 L 41.65625 64 C 38.537466 64 36 61.462532 36 58.34375 C 36 55.224968 38.537466 52.71875 41.65625 52.71875 C 41.65625 50.63956 43.327061 48.9375 45.40625 48.9375 C 46.3383 48.9375 47.15504 49.313957 47.8125 49.875 C 48.926429 47.109192 51.647973 45.1875 54.8125 45.1875 z M 48.6875 46.25 A 1.0709466 1.0709466 0 0 0 49 46.4375 C 48.859545 46.566457 48.725313 46.705733 48.59375 46.84375 C 48.638981 46.648976 48.654967 46.449936 48.6875 46.25 z "
       id="path3852" />
    <path
       style="opacity:0.3;color:#000000;fill:#552200;fill-opacity:1;fill-rule:nonzero;stroke:none;stroke-width:2;marker:none;visibility:visible;display:inline;overflow:visible;enable-background:accumulate"
       d="M 48 16 C 30.326888 16 16 30.10303 16 47.5 C 16 47.667217 15.997363 47.833402 16 48 C 16.271763 30.833949 30.496759 17 48 17 C 65.492624 17 79.711493 30.817156 80 47.96875 C 80.002378 47.810805 80 47.658504 80 47.5 C 80 30.10303 65.673112 16 48 16 z M 39.90625 35.34375 C 38.515512 35.34375 37.194923 35.653462 36 36.1875 L 35.875 37.1875 L 34.75 36.84375 C 33.706493 37.508976 32.808229 38.368663 32.09375 39.375 C 32.037028 39.454893 31.991754 39.543295 31.9375 39.625 L 32.09375 40.375 C 33.82725 37.93338 36.687527 36.34375 39.90625 36.34375 C 41.964121 36.34375 43.876465 36.985446 45.4375 38.09375 L 45.34375 37.03125 C 44.250733 36.274695 42.983831 35.745092 41.625 35.5 L 40.75 36.34375 L 40.21875 35.34375 C 40.112571 35.340305 40.013245 35.34375 39.90625 35.34375 z M 45.4375 38.09375 C 47.750546 39.735967 49.280837 42.394805 49.4375 45.40625 C 49.448856 45.238907 49.46875 45.078074 49.46875 44.90625 C 49.46875 43.848389 49.285977 42.82815 48.96875 41.875 L 48.625 41.875 L 48.78125 41.34375 C 48.261908 40.045504 47.467321 38.882171 46.46875 37.9375 L 45.4375 38.09375 z M 32.09375 40.375 L 31.5 40.3125 C 30.75728 41.67477 30.34375 43.246821 30.34375 44.90625 C 30.34375 44.95901 30.342895 45.009933 30.34375 45.0625 C 30.345297 45.157674 30.370681 45.249241 30.375 45.34375 C 30.482699 43.505298 31.08941 41.789603 32.09375 40.375 z M 32.09375 39.375 L 31.3125 35.8125 L 31.0625 35.75 L 31.875 39.34375 L 32.09375 39.375 z M 49.90625 37.4375 L 49.59375 37.46875 L 48.625 40.875 L 48.90625 40.875 L 49.90625 37.4375 z M 23.84375 39.5 L 29.71875 44.5 L 30.34375 44.0625 L 25.1875 39.65625 L 23.84375 39.5 z M 54.6875 42 L 51.53125 44.25 C 50.771938 44.553837 50.080884 44.978691 49.4375 45.46875 C 49.444184 45.615528 49.46875 45.757873 49.46875 45.90625 C 49.46875 46.099478 49.44864 46.278309 49.4375 46.46875 C 50.080884 45.978691 50.771938 45.553837 51.53125 45.25 L 56.03125 42.03125 L 54.6875 42 z M 31.96875 45.34375 C 31.955582 45.530818 31.9375 45.715863 31.9375 45.90625 C 31.9375 49.502227 34.318358 52.572675 37.59375 53.5625 C 38.422127 53.006919 39.359538 52.597374 40.375 52.40625 C 40.972112 50.130368 42.945435 48.375 45.40625 48.375 C 46.081334 48.375 46.706417 48.516546 47.28125 48.75 C 47.32324 48.68659 47.36281 48.62483 47.40625 48.5625 C 47.702186 47.729353 47.875 46.840196 47.875 45.90625 C 47.875 45.726418 47.85551 45.551883 47.84375 45.375 C 47.796041 46.136651 47.651694 46.871503 47.40625 47.5625 C 47.36281 47.624825 47.32324 47.68659 47.28125 47.75 C 46.706417 47.516546 46.081334 47.375 45.40625 47.375 C 42.945435 47.375 40.972112 49.130368 40.375 51.40625 C 39.359538 51.597374 38.422127 52.006919 37.59375 52.5625 C 34.454987 51.613964 32.156615 48.745117 31.96875 45.34375 z M 26.65625 47.6875 L 25.625 48.40625 L 30.71875 49.8125 L 30.96875 49.34375 C 30.906488 49.181393 30.86606 49.01017 30.8125 48.84375 L 26.65625 47.6875 z M 33.53125 53.0625 L 28.25 55.21875 L 27.53125 56.5 L 34.375 53.71875 C 34.082439 53.510861 33.798233 53.301708 33.53125 53.0625 z M 35.65625 54.4375 C 34.889493 55.54942 34.4375 56.886607 34.4375 58.34375 C 34.4375 58.462449 34.458785 58.572632 34.46875 58.6875 C 34.613682 57.16656 35.253778 55.791991 36.21875 54.71875 C 36.021347 54.636393 35.848436 54.530633 35.65625 54.4375 z M 34.46875 58.75 L 34.4375 58.78125 L 34.4375 59.34375 C 34.4375 59.141936 34.451755 58.947157 34.46875 58.75 z M 34.4375 59.34375 L 34.4375 59.78125 L 34.46875 59.75 C 34.46075 59.611743 34.4375 59.483881 34.4375 59.34375 z M 36.03125 58.90625 C 36.019462 59.054873 36 59.192009 36 59.34375 C 36 62.462532 38.537466 65 41.65625 65 L 62.34375 65 C 65.462534 65 68 62.462532 68 59.34375 C 68 59.192009 67.980538 59.054873 67.96875 58.90625 C 67.678554 61.754822 65.26761 64 62.34375 64 L 41.65625 64 C 38.73239 64 36.321446 61.754822 36.03125 58.90625 z M 72.28125 69 C 72.208734 69.083153 72.135875 69.167601 72.0625 69.25 L 74.6875 78.90625 L 75 79 L 72.28125 69 z "
       id="path3079" />
  </g>
</svg>
