<?xml version="1.0" encoding="UTF-8" standalone="no"?>
<!-- Created with Inkscape (http://www.inkscape.org/) -->

<svg
   xmlns:dc="http://purl.org/dc/elements/1.1/"
   xmlns:cc="http://creativecommons.org/ns#"
   xmlns:rdf="http://www.w3.org/1999/02/22-rdf-syntax-ns#"
   xmlns:svg="http://www.w3.org/2000/svg"
   xmlns="http://www.w3.org/2000/svg"
   xmlns:xlink="http://www.w3.org/1999/xlink"
   xmlns:sodipodi="http://sodipodi.sourceforge.net/DTD/sodipodi-0.dtd"
   xmlns:inkscape="http://www.inkscape.org/namespaces/inkscape"
   width="96"
   height="96"
   id="svg2408"
   sodipodi:version="0.32"
   inkscape:version="0.48.0 r9654"
   version="1.0"
   sodipodi:docname="jokosher.svg"
   inkscape:output_extension="org.inkscape.output.svg.inkscape">
  <defs
     id="defs2410">
    <linearGradient
       id="linearGradient3908">
      <stop
         style="stop-color:#d45500;stop-opacity:0.34351146;"
         offset="0"
         id="stop3910" />
      <stop
         style="stop-color:#e65c00;stop-opacity:1;"
         offset="1"
         id="stop3912" />
    </linearGradient>
    <linearGradient
       inkscape:collect="always"
       id="linearGradient3866">
      <stop
         style="stop-color:#ffffff;stop-opacity:1;"
         offset="0"
         id="stop3868" />
      <stop
         style="stop-color:#ffffff;stop-opacity:0;"
         offset="1"
         id="stop3870" />
    </linearGradient>
    <linearGradient
       gradientUnits="userSpaceOnUse"
       y2="7.0165396"
       x2="45.447727"
       y1="92.539597"
       x1="45.447727"
       gradientTransform="matrix(1.0058652,0,0,0.994169,100,0)"
       id="linearGradient3843">
      <stop
         id="stop3845"
         offset="0"
         style="stop-color:#000000;stop-opacity:1;" />
      <stop
         id="stop3847"
         offset="1"
         style="stop-color:#000000;stop-opacity:0.58823532;" />
    </linearGradient>
    <inkscape:perspective
       sodipodi:type="inkscape:persp3d"
       inkscape:vp_x="0 : 48 : 1"
       inkscape:vp_y="0 : 1000 : 0"
       inkscape:vp_z="96 : 48 : 1"
       inkscape:persp3d-origin="48 : 32 : 1"
       id="perspective48" />
    <linearGradient
       id="ButtonShadow"
       gradientTransform="scale(1.0058652,0.994169)"
       x1="45.447727"
       y1="92.539597"
       x2="45.447727"
       y2="7.0165396"
       gradientUnits="userSpaceOnUse">
      <stop
         style="stop-color:#000000;stop-opacity:1;"
         offset="0"
         id="stop3750" />
      <stop
         style="stop-color:#000000;stop-opacity:0.58823532;"
         offset="1"
         id="stop3752" />
    </linearGradient>
    <linearGradient
       inkscape:collect="always"
       id="linearGradient3737">
      <stop
         style="stop-color:#ffffff;stop-opacity:1;"
         offset="0"
         id="stop3739" />
      <stop
         style="stop-color:#ffffff;stop-opacity:0;"
         offset="1"
         id="stop3741" />
    </linearGradient>
    <linearGradient
       id="linearGradient3700">
      <stop
         style="stop-color:#f57900;stop-opacity:1"
         offset="0"
         id="stop3702" />
      <stop
         style="stop-color:#fab234;stop-opacity:1;"
         offset="1"
         id="stop3704" />
    </linearGradient>
    <filter
       inkscape:collect="always"
       id="filter3174">
      <feGaussianBlur
         inkscape:collect="always"
         stdDeviation="1.71"
         id="feGaussianBlur3176" />
    </filter>
    <linearGradient
       inkscape:collect="always"
       xlink:href="#linearGradient3737"
       id="linearGradient3188"
       gradientUnits="userSpaceOnUse"
       x1="36.357143"
       y1="6"
       x2="36.357143"
       y2="63.893143" />
    <filter
       inkscape:collect="always"
       id="filter3794"
       x="-0.192"
       width="1.384"
       y="-0.192"
       height="1.384">
      <feGaussianBlur
         inkscape:collect="always"
         stdDeviation="5.28"
         id="feGaussianBlur3796" />
    </filter>
    <linearGradient
       inkscape:collect="always"
       xlink:href="#linearGradient3737"
       id="linearGradient3613"
       x1="48"
       y1="20.220806"
       x2="48"
       y2="138.66119"
       gradientUnits="userSpaceOnUse" />
    <radialGradient
       inkscape:collect="always"
       xlink:href="#linearGradient3737"
       id="radialGradient3619"
       cx="48"
       cy="90.171875"
       fx="48"
       fy="90.171875"
       r="42"
       gradientTransform="matrix(1.1573129,0,0,0.99590774,-7.5510206,0.19713193)"
       gradientUnits="userSpaceOnUse" />
    <clipPath
       clipPathUnits="userSpaceOnUse"
       id="clipPath3613">
      <rect
         ry="6"
         rx="6"
         y="6"
         x="6"
         height="84"
         width="84"
         id="rect3615"
         style="fill:#ffffff;fill-opacity:1;fill-rule:nonzero;stroke:none" />
    </clipPath>
    <linearGradient
       inkscape:collect="always"
       xlink:href="#linearGradient3700"
       id="linearGradient3617"
       gradientUnits="userSpaceOnUse"
       x1="48"
       y1="90"
       x2="48"
       y2="5.9877172" />
    <linearGradient
       id="ButtonShadow-0"
       gradientTransform="matrix(1.0058652,0,0,0.994169,100,0)"
       x1="45.447727"
       y1="92.539597"
       x2="45.447727"
       y2="7.0165396"
       gradientUnits="userSpaceOnUse">
      <stop
         style="stop-color:#000000;stop-opacity:1;"
         offset="0"
         id="stop3750-8" />
      <stop
         style="stop-color:#000000;stop-opacity:0.58823532;"
         offset="1"
         id="stop3752-5" />
    </linearGradient>
    <linearGradient
       inkscape:collect="always"
       xlink:href="#ButtonShadow-0"
       id="linearGradient3780"
       gradientUnits="userSpaceOnUse"
       gradientTransform="matrix(1.0238095,0,0,1.0119048,-1.1428571,-98.071429)"
       x1="32.251034"
       y1="6.1317081"
       x2="32.251034"
       y2="90.238609" />
    <linearGradient
       inkscape:collect="always"
       xlink:href="#ButtonShadow-0"
       id="linearGradient3772"
       gradientUnits="userSpaceOnUse"
       gradientTransform="matrix(1.0238095,0,0,1.0119048,-1.1428571,-98.071429)"
       x1="32.251034"
       y1="6.1317081"
       x2="32.251034"
       y2="90.238609" />
    <linearGradient
       inkscape:collect="always"
       xlink:href="#ButtonShadow-0"
       id="linearGradient3725"
       gradientUnits="userSpaceOnUse"
       gradientTransform="matrix(1.0238095,0,0,1.0119048,-1.1428571,-98.071429)"
       x1="32.251034"
       y1="6.1317081"
       x2="32.251034"
       y2="90.238609" />
    <linearGradient
       inkscape:collect="always"
       xlink:href="#ButtonShadow-0"
       id="linearGradient3721"
       gradientUnits="userSpaceOnUse"
       gradientTransform="translate(0,-97)"
       x1="32.251034"
       y1="6.1317081"
       x2="32.251034"
       y2="90.238609" />
    <linearGradient
       y2="90.238609"
       x2="32.251034"
       y1="6.1317081"
       x1="32.251034"
       gradientTransform="matrix(1.0238095,0,0,1.0119048,-1.1428571,-98.071429)"
       gradientUnits="userSpaceOnUse"
       id="linearGradient3026"
       xlink:href="#ButtonShadow-0"
       inkscape:collect="always" />
    <linearGradient
       inkscape:collect="always"
       xlink:href="#linearGradient3737-9"
       id="linearGradient4152"
       x1="48"
       y1="6"
       x2="48"
       y2="109.10714"
       gradientUnits="userSpaceOnUse" />
    <linearGradient
       inkscape:collect="always"
       id="linearGradient3737-9">
      <stop
         style="stop-color:#ffffff;stop-opacity:1;"
         offset="0"
         id="stop3739-9" />
      <stop
         style="stop-color:#ffffff;stop-opacity:0;"
         offset="1"
         id="stop3741-9" />
    </linearGradient>
    <linearGradient
       inkscape:collect="always"
       xlink:href="#linearGradient3737-9"
       id="linearGradient3841"
       gradientUnits="userSpaceOnUse"
       x1="48"
       y1="6"
       x2="48"
       y2="109.10714"
       gradientTransform="translate(90,0)" />
    <linearGradient
       inkscape:collect="always"
       xlink:href="#linearGradient3700"
       id="linearGradient3863"
       gradientUnits="userSpaceOnUse"
       x1="48"
       y1="90"
       x2="48"
       y2="5.9877172" />
    <radialGradient
       inkscape:collect="always"
       xlink:href="#linearGradient3866"
       id="radialGradient3872"
       cx="39.791603"
       cy="56.327728"
       fx="39.791603"
       fy="56.327728"
       r="42"
       gradientTransform="matrix(1.8376588,-0.00697998,0.00549514,1.4467373,66.358681,-25.282107)"
       gradientUnits="userSpaceOnUse" />
    <radialGradient
       inkscape:collect="always"
       xlink:href="#linearGradient3908"
       id="radialGradient3914"
       cx="48"
       cy="48"
       fx="48"
       fy="48"
       r="42"
       gradientUnits="userSpaceOnUse" />
    <radialGradient
       r="56.542881"
       fy="7.457119"
       fx="108.53934"
       cy="7.457119"
       cx="108.53934"
       gradientTransform="matrix(-1.3703659,1.180354e-8,-1.2492802e-8,-1.4503877,228.44457,16.815712)"
       gradientUnits="userSpaceOnUse"
       id="radialGradient2888"
       xlink:href="#linearGradient3267"
       inkscape:collect="always" />
    <linearGradient
       inkscape:collect="always"
       id="linearGradient3267">
      <stop
         style="stop-color:#ffffff;stop-opacity:1;"
         offset="0"
         id="stop3269" />
      <stop
         style="stop-color:#ffffff;stop-opacity:0;"
         offset="1"
         id="stop3271" />
    </linearGradient>
    <radialGradient
       r="56.542881"
       fy="7.457119"
       fx="108.53934"
       cy="7.457119"
       cx="108.53934"
       gradientTransform="matrix(-1.3703659,1.180354e-8,-1.2492802e-8,-1.4503877,228.44457,16.815712)"
       gradientUnits="userSpaceOnUse"
       id="radialGradient3104"
       xlink:href="#linearGradient3267"
       inkscape:collect="always" />
    <linearGradient
       y2="55.140068"
       x2="55.530148"
       y1="-20.940042"
       x1="55.530148"
       gradientTransform="matrix(0.69844891,0,0,0.69844891,3.299249,3.2861578)"
       gradientUnits="userSpaceOnUse"
       id="linearGradient2890"
       xlink:href="#linearGradient3249"
       inkscape:collect="always" />
    <linearGradient
       inkscape:collect="always"
       id="linearGradient3249">
      <stop
         style="stop-color:#ffffff;stop-opacity:1;"
         offset="0"
         id="stop3251" />
      <stop
         style="stop-color:#ffffff;stop-opacity:0;"
         offset="1"
         id="stop3253" />
    </linearGradient>
    <linearGradient
       y2="55.140068"
       x2="55.530148"
       y1="-20.940042"
       x1="55.530148"
       gradientTransform="matrix(0.76634099,0,0,0.76634099,-1.0458465,-1.3520868)"
       gradientUnits="userSpaceOnUse"
       id="linearGradient3096"
       xlink:href="#linearGradient3249"
       inkscape:collect="always" />
    <linearGradient
       y2="64"
       x2="16"
       y1="16"
       x1="96"
       gradientUnits="userSpaceOnUse"
       id="linearGradient2882"
       xlink:href="#linearGradient3697"
       inkscape:collect="always" />
    <linearGradient
       inkscape:collect="always"
       id="linearGradient3697">
      <stop
         style="stop-color:#ffffff;stop-opacity:1;"
         offset="0"
         id="stop3699" />
      <stop
         style="stop-color:#ffffff;stop-opacity:0;"
         offset="1"
         id="stop3701" />
    </linearGradient>
    <linearGradient
       y2="64"
       x2="16"
       y1="16"
       x1="96"
       gradientUnits="userSpaceOnUse"
       id="linearGradient3063"
       xlink:href="#linearGradient3697"
       inkscape:collect="always" />
  </defs>
  <sodipodi:namedview
     id="base"
     pagecolor="#ffffff"
     bordercolor="#666666"
     borderopacity="1.0"
     inkscape:pageopacity="0.0"
     inkscape:pageshadow="2"
     inkscape:zoom="3.4111411"
     inkscape:cx="22.778537"
     inkscape:cy="44.915877"
     inkscape:document-units="px"
     inkscape:current-layer="layer1"
     showgrid="true"
     showborder="true"
     inkscape:showpageshadow="false"
     inkscape:window-width="1920"
     inkscape:window-height="1029"
     inkscape:window-x="0"
     inkscape:window-y="25"
     inkscape:window-maximized="1"
     inkscape:snap-global="true">
    <inkscape:grid
       type="xygrid"
       id="grid3732"
       visible="true"
       enabled="true" />
  </sodipodi:namedview>
  <metadata
     id="metadata2413">
    <rdf:RDF>
      <cc:Work
         rdf:about="">
        <dc:format>image/svg+xml</dc:format>
        <dc:type
           rdf:resource="http://purl.org/dc/dcmitype/StillImage" />
        <dc:title></dc:title>
      </cc:Work>
    </rdf:RDF>
  </metadata>
  <g
     inkscape:groupmode="layer"
     id="layer2"
     inkscape:label="Blur Shadow"
     style="display:none"
     sodipodi:insensitive="true">
    <rect
       style="opacity:0.9;fill:url(#ButtonShadow);fill-opacity:1;fill-rule:nonzero;stroke:none;filter:url(#filter3174)"
       id="rect3745"
       width="86"
       height="85"
       x="5"
       y="7"
       rx="6"
       ry="6" />
  </g>
  <g
     inkscape:groupmode="layer"
     id="layer3"
     inkscape:label="Shadow"
     sodipodi:insensitive="true">
    <path
       sodipodi:type="inkscape:offset"
       inkscape:radius="0.99097413"
       inkscape:original="M 12 -94.03125 C 7.028367 -94.03125 2.96875 -89.971633 2.96875 -85 L 2.96875 -14 C 2.96875 -9.0283671 7.0283671 -4.96875 12 -4.96875 L 84 -4.96875 C 88.971633 -4.96875 93.03125 -9.028367 93.03125 -14 L 93.03125 -85 C 93.03125 -89.971633 88.971633 -94.03125 84 -94.03125 L 12 -94.03125 z "
       style="opacity:0.07999998;fill:url(#linearGradient3026);fill-opacity:1;fill-rule:nonzero;stroke:none;display:inline"
       id="path3786"
       d="m 12,-95.03125 c -5.5110903,0 -10.03125,4.52016 -10.03125,10.03125 l 0,71 c 0,5.5110902 4.5201598,10.03125 10.03125,10.03125 l 72,0 c 5.51109,0 10.03125,-4.5201597 10.03125,-10.03125 l 0,-71 c 0,-5.51109 -4.52016,-10.03125 -10.03125,-10.03125 l -72,0 z"
       transform="scale(1,-1)" />
    <path
       sodipodi:type="inkscape:offset"
       inkscape:radius="1.0360184"
       inkscape:original="M 12 -93 C 7.5908667 -93 4 -89.409133 4 -85 L 4 -14 C 4 -9.5908667 7.5908667 -6 12 -6 L 84 -6 C 88.409133 -6 92 -9.5908667 92 -14 L 92 -85 C 92 -89.409133 88.409133 -93 84 -93 L 12 -93 z "
       style="opacity:0.1;fill:url(#linearGradient3780);fill-opacity:1;fill-rule:nonzero;stroke:none;display:inline"
       id="path3778"
       d="m 12,-94.03125 c -4.971633,0 -9.03125,4.059617 -9.03125,9.03125 l 0,71 c 0,4.9716329 4.0596171,9.03125 9.03125,9.03125 l 72,0 c 4.971633,0 9.03125,-4.059617 9.03125,-9.03125 l 0,-71 c 0,-4.971633 -4.059617,-9.03125 -9.03125,-9.03125 l -72,0 z"
       transform="scale(1,-1)" />
    <path
       sodipodi:type="inkscape:offset"
       inkscape:radius="0.98962283"
       inkscape:original="M 12 -92 C 8.122 -92 5 -88.878 5 -85 L 5 -14 C 5 -10.122 8.122 -7 12 -7 L 84 -7 C 87.878 -7 91 -10.122 91 -14 L 91 -85 C 91 -88.878 87.878 -92 84 -92 L 12 -92 z "
       style="opacity:0.2;fill:url(#linearGradient3772);fill-opacity:1;fill-rule:nonzero;stroke:none;display:inline"
       id="path3770"
       d="m 12,-93 c -4.4091333,0 -8,3.590867 -8,8 l 0,71 c 0,4.4091333 3.5908667,8 8,8 l 72,0 c 4.409133,0 8,-3.5908667 8,-8 l 0,-71 c 0,-4.409133 -3.590867,-8 -8,-8 l -72,0 z"
       transform="scale(1,-1)" />
    <rect
       style="opacity:0.3;fill:url(#linearGradient3725);fill-opacity:1;fill-rule:nonzero;stroke:none;display:inline"
       id="rect3723"
       width="86"
       height="85"
       x="5"
       y="-92"
       rx="7"
       ry="7"
       transform="scale(1,-1)" />
    <rect
       transform="scale(1,-1)"
       ry="6"
       rx="6"
       y="-91"
       x="6"
       height="84"
       width="84"
       id="rect3716"
       style="opacity:0.45;fill:url(#linearGradient3721);fill-opacity:1;fill-rule:nonzero;stroke:none;display:inline" />
  </g>
  <g
     inkscape:label="Button"
     inkscape:groupmode="layer"
     id="layer1">
    <rect
       style="fill:url(#linearGradient3617);fill-opacity:1;fill-rule:nonzero;stroke:none"
       id="rect2419"
       width="84"
       height="84"
       x="6"
       y="6"
       rx="6"
       ry="6" />
    <path
       style="opacity:0.5;fill:url(#radialGradient3914);fill-opacity:1;stroke:none"
       d="M 6,75.125 46.65625,49.34375 20.5,90 39,90 48,49.78125 56.75,90 75.125,90 49.34375,49.34375 90,75.5 90,57 49.78125,48 90,39.25 90,20.875 49.34375,46.65625 75.5,6 57,6 48,46.21875 39.25,6 20.875,6 46.65625,46.65625 6,20.5 6,39 46.21875,48 6,56.75 6,75.125 z"
       id="path4141"
       inkscape:connector-curvature="0" />
    <path
       style="opacity:0.4;fill:url(#linearGradient3188);fill-opacity:1;fill-rule:nonzero;stroke:none"
       d="M 12,6 C 8.676,6 6,8.676 6,12 l 0,2 0,68 0,2 c 0,0.334721 0.04135,0.6507 0.09375,0.96875 0.0487,0.295596 0.09704,0.596915 0.1875,0.875 0.00988,0.03038 0.020892,0.0636 0.03125,0.09375 0.098865,0.287771 0.2348802,0.547452 0.375,0.8125 0.1445918,0.273507 0.3156161,0.535615 0.5,0.78125 0.1843839,0.245635 0.3737765,0.473472 0.59375,0.6875 0.439947,0.428056 0.94291,0.814526 1.5,1.09375 0.278545,0.139612 0.5734731,0.246947 0.875,0.34375 -0.2562018,-0.100222 -0.4867109,-0.236272 -0.71875,-0.375 -0.00741,-0.0044 -0.023866,0.0045 -0.03125,0 -0.031933,-0.0193 -0.062293,-0.04251 -0.09375,-0.0625 -0.120395,-0.0767 -0.2310226,-0.163513 -0.34375,-0.25 -0.1061728,-0.0808 -0.2132809,-0.161112 -0.3125,-0.25 C 8.4783201,88.557317 8.3087904,88.373362 8.15625,88.1875 8.0486711,88.057245 7.9378561,87.922215 7.84375,87.78125 7.818661,87.74287 7.805304,87.69538 7.78125,87.65625 7.716487,87.553218 7.6510225,87.451733 7.59375,87.34375 7.4927417,87.149044 7.3880752,86.928049 7.3125,86.71875 7.30454,86.69694 7.288911,86.6782 7.28125,86.65625 7.2494249,86.5643 7.2454455,86.469419 7.21875,86.375 7.1884177,86.268382 7.1483606,86.171969 7.125,86.0625 7.0521214,85.720988 7,85.364295 7,85 L 7,83 7,15 7,13 C 7,10.218152 9.2181517,8 12,8 l 2,0 68,0 2,0 c 2.781848,0 5,2.218152 5,5 l 0,2 0,68 0,2 c 0,0.364295 -0.05212,0.720988 -0.125,1.0625 -0.04415,0.206893 -0.08838,0.397658 -0.15625,0.59375 -0.0077,0.02195 -0.0233,0.04069 -0.03125,0.0625 -0.06274,0.173739 -0.138383,0.367449 -0.21875,0.53125 -0.04158,0.0828 -0.07904,0.169954 -0.125,0.25 -0.0546,0.09721 -0.126774,0.18835 -0.1875,0.28125 -0.09411,0.140965 -0.204921,0.275995 -0.3125,0.40625 -0.143174,0.17445 -0.303141,0.346998 -0.46875,0.5 -0.01117,0.0102 -0.01998,0.02115 -0.03125,0.03125 -0.138386,0.125556 -0.285091,0.234436 -0.4375,0.34375 -0.102571,0.07315 -0.204318,0.153364 -0.3125,0.21875 -0.0074,0.0045 -0.02384,-0.0044 -0.03125,0 -0.232039,0.138728 -0.462548,0.274778 -0.71875,0.375 0.301527,-0.0968 0.596455,-0.204138 0.875,-0.34375 0.55709,-0.279224 1.060053,-0.665694 1.5,-1.09375 0.219973,-0.214028 0.409366,-0.441865 0.59375,-0.6875 0.184384,-0.245635 0.355408,-0.507743 0.5,-0.78125 0.14012,-0.265048 0.276135,-0.524729 0.375,-0.8125 0.01041,-0.03078 0.02133,-0.06274 0.03125,-0.09375 0.09046,-0.278085 0.1388,-0.579404 0.1875,-0.875 C 89.95865,84.6507 90,84.334721 90,84 l 0,-2 0,-68 0,-2 C 90,8.676 87.324,6 84,6 L 12,6 z"
       id="rect3728"
       inkscape:connector-curvature="0" />
    <path
       id="path3615"
       d="M 12,90 C 8.676,90 6,87.324 6,84 L 6,82 6,14 6,12 c 0,-0.334721 0.04135,-0.6507 0.09375,-0.96875 0.0487,-0.295596 0.09704,-0.596915 0.1875,-0.875 C 6.29113,10.12587 6.302142,10.09265 6.3125,10.0625 6.411365,9.774729 6.5473802,9.515048 6.6875,9.25 6.8320918,8.976493 7.0031161,8.714385 7.1875,8.46875 7.3718839,8.223115 7.5612765,7.995278 7.78125,7.78125 8.221197,7.353194 8.72416,6.966724 9.28125,6.6875 9.559795,6.547888 9.8547231,6.440553 10.15625,6.34375 9.9000482,6.443972 9.6695391,6.580022 9.4375,6.71875 c -0.00741,0.0044 -0.023866,-0.0045 -0.03125,0 -0.031933,0.0193 -0.062293,0.04251 -0.09375,0.0625 -0.120395,0.0767 -0.2310226,0.163513 -0.34375,0.25 -0.1061728,0.0808 -0.2132809,0.161112 -0.3125,0.25 C 8.4783201,7.442683 8.3087904,7.626638 8.15625,7.8125 8.0486711,7.942755 7.9378561,8.077785 7.84375,8.21875 7.818661,8.25713 7.805304,8.30462 7.78125,8.34375 7.716487,8.446782 7.6510225,8.548267 7.59375,8.65625 7.4927417,8.850956 7.3880752,9.071951 7.3125,9.28125 7.30454,9.30306 7.288911,9.3218 7.28125,9.34375 7.2494249,9.4357 7.2454455,9.530581 7.21875,9.625 7.1884177,9.731618 7.1483606,9.828031 7.125,9.9375 7.0521214,10.279012 7,10.635705 7,11 l 0,2 0,68 0,2 c 0,2.781848 2.2181517,5 5,5 l 2,0 68,0 2,0 c 2.781848,0 5,-2.218152 5,-5 l 0,-2 0,-68 0,-2 C 89,10.635705 88.94788,10.279012 88.875,9.9375 88.83085,9.730607 88.78662,9.539842 88.71875,9.34375 88.71105,9.3218 88.69545,9.30306 88.6875,9.28125 88.62476,9.107511 88.549117,8.913801 88.46875,8.75 88.42717,8.6672 88.38971,8.580046 88.34375,8.5 88.28915,8.40279 88.216976,8.31165 88.15625,8.21875 88.06214,8.077785 87.951329,7.942755 87.84375,7.8125 87.700576,7.63805 87.540609,7.465502 87.375,7.3125 87.36383,7.3023 87.35502,7.29135 87.34375,7.28125 87.205364,7.155694 87.058659,7.046814 86.90625,6.9375 86.803679,6.86435 86.701932,6.784136 86.59375,6.71875 c -0.0074,-0.0045 -0.02384,0.0044 -0.03125,0 -0.232039,-0.138728 -0.462548,-0.274778 -0.71875,-0.375 0.301527,0.0968 0.596455,0.204138 0.875,0.34375 0.55709,0.279224 1.060053,0.665694 1.5,1.09375 0.219973,0.214028 0.409366,0.441865 0.59375,0.6875 0.184384,0.245635 0.355408,0.507743 0.5,0.78125 0.14012,0.265048 0.276135,0.524729 0.375,0.8125 0.01041,0.03078 0.02133,0.06274 0.03125,0.09375 0.09046,0.278085 0.1388,0.579404 0.1875,0.875 C 89.95865,11.3493 90,11.665279 90,12 l 0,2 0,68 0,2 c 0,3.324 -2.676,6 -6,6 l -72,0 z"
       style="opacity:0.2;fill:url(#radialGradient3619);fill-opacity:1;fill-rule:nonzero;stroke:none"
       inkscape:connector-curvature="0" />
    <path
       style="opacity:0.3;fill:url(#radialGradient3872);fill-opacity:1;fill-rule:nonzero;stroke:none"
       d="m 190,16 c 0,23.988557 -25.89705,24 -42,24 -16.10295,0 -42,0.184693 -42,24 l 0,20 c 0,3.324 2.676,6 6,6 l 72,0 c 3.324,0 6,-2.676 6,-6 l 0,-68 z"
       id="rect3861"
       inkscape:connector-curvature="0" />
    <path
       style="opacity:0.4;fill:url(#linearGradient3063);fill-opacity:1;fill-rule:nonzero;stroke:none"
       d="M 12,6 C 8.676,6 6,8.676 6,12 L 6,54.875 C 23.60856,43.352969 50.22874,36 80,36 c 3.37799,0 6.71203,0.09685 10,0.28125 L 90,12 C 90,8.676 87.324,6 84,6 z"
       id="rect3690"
       inkscape:connector-curvature="0"
       sodipodi:nodetypes="sscscsss" />
  </g>
  <g
     inkscape:groupmode="layer"
     id="layer5"
     inkscape:label="Highlight"
     sodipodi:insensitive="true">
    <rect
       style="opacity:0.1;fill:url(#linearGradient3613);fill-opacity:1;fill-rule:nonzero;stroke:#ffffff;stroke-width:0.5;stroke-linecap:round;stroke-linejoin:miter;stroke-miterlimit:4;stroke-opacity:1;stroke-dasharray:none;stroke-dashoffset:0;filter:url(#filter3794)"
       id="rect3171"
       width="66"
       height="66"
       x="15"
       y="15"
       rx="12"
       ry="12"
       clip-path="url(#clipPath3613)" />
  </g>
  <g
     inkscape:groupmode="layer"
     id="layer4"
     inkscape:label="Symbol">
    <path
       sodipodi:type="inkscape:offset"
       inkscape:radius="1.0457864"
       inkscape:original="M 73.96875 14 C 69.113055 15.20209 64.153774 16.118491 59.3125 17.375 C 57.742237 18.177826 58.432917 20.202055 58.28125 21.625 C 58.26842 35.795363 58.29513 49.986365 58.25 64.15625 C 58.327 66.571387 57.198593 69.755393 54.1875 69.1875 C 52.239949 69.362749 50.38698 68.681062 48.53125 68.3125 C 47.221725 68.37273 46.665228 69.69446 46.65625 70.84375 C 46.077378 74.487745 45.375877 78.131584 44.875 81.78125 C 45.142212 83.721423 47.580277 83.637493 49.03125 84.09375 C 56.255676 85.455301 64.616341 85.026902 70.3125 79.84375 C 75.309114 75.262153 76.216181 68.120406 76.03125 61.6875 C 76.010383 46.317768 76.072962 30.923778 76 15.5625 C 75.875385 14.60456 74.928068 13.896579 73.96875 14 z "
       style="font-size:64px;font-style:normal;font-variant:normal;font-weight:bold;font-stretch:normal;text-align:start;line-height:125%;letter-spacing:0px;word-spacing:0px;writing-mode:lr-tb;text-anchor:start;opacity:0.05;fill:#2b1100;fill-opacity:1;stroke:none;font-family:Ubuntu;-inkscape-font-specification:Ubuntu Bold"
       id="path3906"
       d="M 73.75,12.96875 A 1.045891,1.045891 0 0 0 73.71875,13 c -4.814809,1.191968 -9.76656,2.105925 -14.65625,3.375 a 1.045891,1.045891 0 0 0 -0.21875,0.0625 c -1.157665,0.591878 -1.573708,1.836308 -1.625,2.78125 -0.05129,0.944942 0.08381,1.788107 0.03125,2.28125 a 1.045891,1.045891 0 0 0 0,0.125 c -0.01283,14.172309 0.01387,28.364903 -0.03125,42.53125 a 1.045891,1.045891 0 0 0 0,0.03125 c 0.03285,1.030315 -0.230997,2.259321 -0.71875,3.03125 -0.487753,0.771929 -0.992619,1.151067 -2.125,0.9375 a 1.045891,1.045891 0 0 0 -0.28125,0 c -1.647481,0.148247 -3.376818,-0.484352 -5.34375,-0.875 a 1.045891,1.045891 0 0 0 -0.28125,0 c -0.998701,0.04593 -1.808775,0.644579 -2.25,1.34375 -0.410677,0.650765 -0.536179,1.368341 -0.5625,2.0625 l -0.03125,0 c -0.575281,3.621389 -1.275238,7.250418 -1.78125,10.9375 a 1.045891,1.045891 0 0 0 0,0.3125 c 0.09627,0.698992 0.43001,1.29952 0.875,1.71875 0.44499,0.41923 0.971927,0.675847 1.46875,0.84375 0.993647,0.335806 1.983163,0.421405 2.53125,0.59375 a 1.045891,1.045891 0 0 0 0.125,0.03125 c 7.407965,1.396142 16.135799,1.006673 22.1875,-4.5 5.340847,-4.897238 6.215979,-12.391435 6.03125,-18.9375 -2.87e-4,-0.01018 2.92e-4,-0.02108 0,-0.03125 -0.02074,-15.355574 0.04169,-30.736725 -0.03125,-46.09375 a 1.045891,1.045891 0 0 0 0,-0.125 c -0.203572,-1.564898 -1.649547,-2.634552 -3.1875,-2.46875 a 1.045891,1.045891 0 0 0 -0.09375,0 z" />
    <path
       style="font-size:64px;font-style:normal;font-variant:normal;font-weight:bold;font-stretch:normal;text-align:start;line-height:125%;letter-spacing:0px;word-spacing:0px;writing-mode:lr-tb;text-anchor:start;opacity:0.07999998;fill:#2b1100;fill-opacity:1;stroke:none;font-family:Ubuntu;-inkscape-font-specification:Ubuntu Bold"
       d="m 73.96875,14 c -4.855695,1.20209 -9.814976,2.118491 -14.65625,3.375 -1.570263,0.802826 -0.879583,2.831454 -1.03125,4.254399 -0.01283,14.170363 0.02573,28.341486 -0.0194,42.511371 0.077,2.415137 -1.063262,5.614623 -4.074355,5.04673 -1.947551,0.175249 -3.80052,-0.506438 -5.65625,-0.875 -1.309525,0.06023 -1.863154,1.39097 -1.872132,2.54026 -0.578872,3.643995 -1.283241,7.278824 -1.784118,10.92849 0.267212,1.940173 2.69136,1.868903 4.142333,2.32516 7.224426,1.361551 15.598625,0.9355 21.294784,-4.247652 C 75.308726,75.277161 76.216181,68.109689 76.03125,61.676783 76.010383,46.307051 76.072962,30.923778 76,15.5625 75.875385,14.60456 74.928068,13.896579 73.96875,14 z"
       id="path3900"
       inkscape:connector-curvature="0" />
    <path
       style="font-size:64px;font-style:normal;font-variant:normal;font-weight:bold;font-stretch:normal;text-align:start;line-height:125%;letter-spacing:0px;word-spacing:0px;writing-mode:lr-tb;text-anchor:start;opacity:0.15;fill:#2b1100;fill-opacity:1;stroke:none;font-family:Ubuntu;-inkscape-font-specification:Ubuntu Bold"
       d="m 74.0625,14.8125 a 1.0384733,1.0384733 0 0 0 -0.09375,0.03125 L 59.90625,18 a 1.0384733,1.0384733 0 0 0 -0.8125,1 l 0,44.3125 c -5e-6,2.396672 -0.445653,4.121595 -1.15625,5.1875 -0.656742,0.985106 -1.752699,1.499996 -3.75,1.5 -1.159135,-4e-6 -2.117191,-0.07683 -2.78125,-0.1875 -0.749634,-0.115333 -1.539274,-0.325596 -2.4375,-0.625 a 1.0384733,1.0384733 0 0 0 -1.375,0.84375 L 45.6875,81.4375 a 1.0384733,1.0384733 0 0 0 0.6875,1.15625 c 1.589955,0.529966 3.300665,0.867019 5.125,1.0625 1.706099,0.189551 3.022211,0.31248 4,0.3125 6.217857,-1.9e-5 11.15337,-1.627108 14.59375,-5 3.464506,-3.396605 5.124979,-8.570894 5.125,-15.28125 l 0,-47.84375 A 1.0384733,1.0384733 0 0 0 74.0625,14.8125 z"
       id="path3895"
       inkscape:connector-curvature="0" />
    <path
       sodipodi:nodetypes="cccccsssccssc"
       inkscape:connector-curvature="0"
       id="path3891"
       d="m 55.503607,82.923548 c -0.880449,-1.8e-5 -2.169675,-0.09435 -3.867682,-0.283002 -1.760893,-0.188683 -3.396009,-0.534574 -4.905354,-1.037671 l 1.886675,-11.41438 c 0.943341,0.314442 1.823789,0.534554 2.641344,0.660337 0.75467,0.125773 1.729452,0.188663 2.924344,0.188667 2.201119,-4e-6 3.741901,-0.66034 4.622353,-1.981008 0.880441,-1.320673 1.320667,-3.238791 1.320672,-5.754357 l 0,-44.302134 14.055724,-3.147726 0,47.827195 c -2e-5,6.540467 -1.603692,11.382926 -4.811019,14.527393 -3.207359,3.144442 -7.829707,4.716668 -13.867057,4.716686"
       style="font-size:64px;font-style:normal;font-variant:normal;font-weight:bold;font-stretch:normal;text-align:start;line-height:125%;letter-spacing:0px;word-spacing:0px;writing-mode:lr-tb;text-anchor:start;opacity:0.3;fill:#2b1100;fill-opacity:1;stroke:none;font-family:Ubuntu;-inkscape-font-specification:Ubuntu Bold" />
    <path
       style="font-size:64px;font-style:normal;font-variant:normal;font-weight:bold;font-stretch:normal;text-align:start;line-height:125%;letter-spacing:0px;word-spacing:0px;writing-mode:lr-tb;text-anchor:start;fill:#ffffff;fill-opacity:1;stroke:none;font-family:Ubuntu;-inkscape-font-specification:Ubuntu Bold"
       d="m 55.503607,81.923548 c -0.880449,-1.8e-5 -2.169675,-0.09435 -3.867682,-0.283002 -1.760893,-0.188683 -3.396009,-0.534574 -4.905354,-1.037671 l 1.886675,-11.41438 c 0.943341,0.314442 1.823789,0.534554 2.641344,0.660337 0.75467,0.125773 1.729452,0.188663 2.924344,0.188667 2.201119,-4e-6 3.741901,-0.66034 4.622353,-1.981008 0.880441,-1.320673 1.320667,-3.238791 1.320672,-5.754357 l 0,-44.302134 14.055724,-3.147726 0,47.827195 c -2e-5,6.540467 -1.603692,11.382926 -4.811019,14.527393 -3.207359,3.144442 -7.829707,4.716668 -13.867057,4.716686"
       id="path3884"
       inkscape:connector-curvature="0"
       sodipodi:nodetypes="cccccsssccssc" />
  </g>
</svg>
