<?xml version="1.0" encoding="UTF-8" standalone="no"?>
<!-- Created with Inkscape (http://www.inkscape.org/) -->

<svg
   xmlns:dc="http://purl.org/dc/elements/1.1/"
   xmlns:cc="http://creativecommons.org/ns#"
   xmlns:rdf="http://www.w3.org/1999/02/22-rdf-syntax-ns#"
   xmlns:svg="http://www.w3.org/2000/svg"
   xmlns="http://www.w3.org/2000/svg"
   xmlns:xlink="http://www.w3.org/1999/xlink"
   xmlns:sodipodi="http://sodipodi.sourceforge.net/DTD/sodipodi-0.dtd"
   xmlns:inkscape="http://www.inkscape.org/namespaces/inkscape"
   width="96"
   height="96"
   id="svg2408"
   sodipodi:version="0.32"
   inkscape:version="0.48.1 r9760"
   version="1.0"
   sodipodi:docname="preferences-color.svg"
   inkscape:output_extension="org.inkscape.output.svg.inkscape">
  <defs
     id="defs2410">
    <linearGradient
       inkscape:collect="always"
       id="linearGradient3977">
      <stop
         style="stop-color:#f9f9f9;stop-opacity:1;"
         offset="0"
         id="stop3979" />
      <stop
         style="stop-color:#f9f9f9;stop-opacity:0;"
         offset="1"
         id="stop3981" />
    </linearGradient>
    <inkscape:perspective
       sodipodi:type="inkscape:persp3d"
       inkscape:vp_x="0 : 48 : 1"
       inkscape:vp_y="0 : 1000 : 0"
       inkscape:vp_z="96 : 48 : 1"
       inkscape:persp3d-origin="48 : 32 : 1"
       id="perspective48" />
    <linearGradient
       id="ButtonShadow"
       gradientTransform="scale(1.0058652,0.994169)"
       x1="45.447727"
       y1="92.539597"
       x2="45.447727"
       y2="7.0165396"
       gradientUnits="userSpaceOnUse">
      <stop
         style="stop-color:#000000;stop-opacity:1;"
         offset="0"
         id="stop3750" />
      <stop
         style="stop-color:#000000;stop-opacity:0.58823532;"
         offset="1"
         id="stop3752" />
    </linearGradient>
    <linearGradient
       inkscape:collect="always"
       id="linearGradient3737">
      <stop
         style="stop-color:#ffffff;stop-opacity:1;"
         offset="0"
         id="stop3739" />
      <stop
         style="stop-color:#ffffff;stop-opacity:0;"
         offset="1"
         id="stop3741" />
    </linearGradient>
    <linearGradient
       id="linearGradient3700">
      <stop
         style="stop-color:#b4b4b4;stop-opacity:1;"
         offset="0"
         id="stop3702" />
      <stop
         style="stop-color:#e6e6e6;stop-opacity:1;"
         offset="1"
         id="stop3704" />
    </linearGradient>
    <filter
       inkscape:collect="always"
       id="filter3174">
      <feGaussianBlur
         inkscape:collect="always"
         stdDeviation="1.71"
         id="feGaussianBlur3176" />
    </filter>
    <linearGradient
       inkscape:collect="always"
       xlink:href="#linearGradient3737"
       id="linearGradient3188"
       gradientUnits="userSpaceOnUse"
       x1="36.357143"
       y1="6"
       x2="36.357143"
       y2="63.893143" />
    <filter
       inkscape:collect="always"
       id="filter3794"
       x="-0.192"
       width="1.384"
       y="-0.192"
       height="1.384">
      <feGaussianBlur
         inkscape:collect="always"
         stdDeviation="5.28"
         id="feGaussianBlur3796" />
    </filter>
    <linearGradient
       inkscape:collect="always"
       xlink:href="#linearGradient3737"
       id="linearGradient3613"
       x1="48"
       y1="20.220806"
       x2="48"
       y2="138.66119"
       gradientUnits="userSpaceOnUse" />
    <radialGradient
       inkscape:collect="always"
       xlink:href="#linearGradient3737"
       id="radialGradient3619"
       cx="48"
       cy="90.171875"
       fx="48"
       fy="90.171875"
       r="42"
       gradientTransform="matrix(1.1573129,0,0,0.99590774,-7.5510206,0.19713193)"
       gradientUnits="userSpaceOnUse" />
    <clipPath
       clipPathUnits="userSpaceOnUse"
       id="clipPath3613">
      <rect
         ry="6"
         rx="6"
         y="6"
         x="6"
         height="84"
         width="84"
         id="rect3615"
         style="fill:#ffffff;fill-opacity:1;fill-rule:nonzero;stroke:none" />
    </clipPath>
    <linearGradient
       inkscape:collect="always"
       xlink:href="#linearGradient3700"
       id="linearGradient3617"
       gradientUnits="userSpaceOnUse"
       x1="48"
       y1="90"
       x2="48"
       y2="5.9877172" />
    <linearGradient
       id="ButtonShadow-0"
       gradientTransform="matrix(1.0058652,0,0,0.994169,100,0)"
       x1="45.447727"
       y1="92.539597"
       x2="45.447727"
       y2="7.0165396"
       gradientUnits="userSpaceOnUse">
      <stop
         style="stop-color:#000000;stop-opacity:1;"
         offset="0"
         id="stop3750-8" />
      <stop
         style="stop-color:#000000;stop-opacity:0.58823532;"
         offset="1"
         id="stop3752-5" />
    </linearGradient>
    <linearGradient
       inkscape:collect="always"
       xlink:href="#ButtonShadow-0"
       id="linearGradient3780"
       gradientUnits="userSpaceOnUse"
       gradientTransform="matrix(1.0238095,0,0,1.0119048,-1.1428571,-98.071429)"
       x1="32.251034"
       y1="6.1317081"
       x2="32.251034"
       y2="90.238609" />
    <linearGradient
       inkscape:collect="always"
       xlink:href="#ButtonShadow-0"
       id="linearGradient3772"
       gradientUnits="userSpaceOnUse"
       gradientTransform="matrix(1.0238095,0,0,1.0119048,-1.1428571,-98.071429)"
       x1="32.251034"
       y1="6.1317081"
       x2="32.251034"
       y2="90.238609" />
    <linearGradient
       inkscape:collect="always"
       xlink:href="#ButtonShadow-0"
       id="linearGradient3725"
       gradientUnits="userSpaceOnUse"
       gradientTransform="matrix(1.0238095,0,0,1.0119048,-1.1428571,-98.071429)"
       x1="32.251034"
       y1="6.1317081"
       x2="32.251034"
       y2="90.238609" />
    <linearGradient
       inkscape:collect="always"
       xlink:href="#ButtonShadow-0"
       id="linearGradient3721"
       gradientUnits="userSpaceOnUse"
       gradientTransform="translate(0,-97)"
       x1="32.251034"
       y1="6.1317081"
       x2="32.251034"
       y2="90.238609" />
    <linearGradient
       y2="90.238609"
       x2="32.251034"
       y1="6.1317081"
       x1="32.251034"
       gradientTransform="matrix(1.0238095,0,0,1.0119048,-1.1428571,-98.071429)"
       gradientUnits="userSpaceOnUse"
       id="linearGradient3026"
       xlink:href="#ButtonShadow-0"
       inkscape:collect="always" />
    <linearGradient
       id="linearGradient4042"
       y2="745.96997"
       gradientUnits="userSpaceOnUse"
       x2="190.87"
       y1="715.69"
       x1="177.02">
      <stop
         id="stop4117"
         style="stop-color:#e3e3e1"
         offset="0" />
      <stop
         id="stop4119"
         style="stop-color:#7f8376"
         offset="1" />
    </linearGradient>
    <filter
       id="filter4144"
       color-interpolation-filters="sRGB">
      <feGaussianBlur
         id="feGaussianBlur4146"
         stdDeviation="0.52449438" />
    </filter>
    <clipPath
       id="clipPath3983"
       clipPathUnits="userSpaceOnUse">
      <path
         inkscape:connector-curvature="0"
         id="path3985"
         style="color:#000000;fill:#eeeeec;fill-rule:evenodd;enable-background:new"
         d="m 184.12,701.5 a 2.2363,2.2363 0 0 0 -1.4688,0.90625 c 0,0 -3.328,4.7671 -4.0312,11.156 -5.0181,-4.0229 -10.75,-5.0625 -10.75,-5.0625 a 2.2363,2.2363 0 0 0 -2.5938,2.5625 c 0,0 1.034,5.7649 5.0625,10.781 -6.3978,0.70283 -11.188,4.0312 -11.188,4.0312 a 2.2363,2.2363 0 0 0 0,3.625 c 0,0 4.7948,3.3031 11.188,4 -4.0285,5.0164 -5.0625,10.781 -5.0625,10.781 a 2.2363,2.2363 0 0 0 2.5938,2.5625 c 0,0 5.7319,-1.0396 10.75,-5.0625 0.70267,6.3934 4.0312,11.188 4.0312,11.188 a 2.2363,2.2363 0 0 0 3.625,0 c 0,0 3.3111,-4.8145 4,-11.219 5.0262,4.0467 10.781,5.0938 10.781,5.0938 a 2.2363,2.2363 0 0 0 2.5938,-2.5938 c 0,0 -1.0624,-5.7373 -5.0938,-10.75 6.397,-0.69632 11.219,-4 11.219,-4 a 2.2363,2.2363 0 0 0 0,-3.625 c 0,0 -4.8167,-3.329 -11.219,-4.0312 4.0313,-5.0127 5.0938,-10.75 5.0938,-10.75 a 2.2363,2.2363 0 0 0 -2.59,-2.6 c 0,0 -5.755,1.047 -10.781,5.0938 -0.69265,-6.3936 -4,-11.188 -4,-11.188 a 2.2363,2.2363 0 0 0 -2.16,-0.91 z" />
    </clipPath>
    <filter
       id="filter4123"
       color-interpolation-filters="sRGB">
      <feGaussianBlur
         id="feGaussianBlur4125"
         stdDeviation="0.26224718" />
    </filter>
    <clipPath
       id="clipPath4169"
       clipPathUnits="userSpaceOnUse">
      <path
         inkscape:connector-curvature="0"
         id="path4171"
         style="color:#000000;fill:#edd400;fill-rule:evenodd;enable-background:new"
         d="m 471.43,685.93 c 0,22.097 -12.842,40.01 -12.842,40.01 0,0 -12.842,-17.913 -12.842,-40.01 0,-22.097 12.842,-40.01 12.842,-40.01 0,0 12.842,17.913 12.842,40.01 z" />
    </clipPath>
    <filter
       id="filter4173"
       width="1.4938999"
       y="-0.079258002"
       x="-0.24693"
       height="1.1585"
       color-interpolation-filters="sRGB">
      <feGaussianBlur
         id="feGaussianBlur4175"
         stdDeviation="2.642588" />
    </filter>
    <clipPath
       id="clipPath4145"
       clipPathUnits="userSpaceOnUse">
      <path
         inkscape:connector-curvature="0"
         id="path4147"
         style="color:#000000;fill:#3465a4;fill-rule:evenodd;enable-background:new"
         d="m 401.43,865.8 c 0,22.097 -12.842,40.01 -12.842,40.01 0,0 -12.842,-17.913 -12.842,-40.01 0,-22.097 12.842,-40.01 12.842,-40.01 0,0 12.842,17.913 12.842,40.01 z" />
    </clipPath>
    <filter
       id="filter4149"
       width="1.4938999"
       y="-0.079258002"
       x="-0.24693"
       height="1.1585"
       color-interpolation-filters="sRGB">
      <feGaussianBlur
         id="feGaussianBlur4151"
         stdDeviation="2.642588" />
    </filter>
    <clipPath
       id="clipPath4181"
       clipPathUnits="userSpaceOnUse">
      <path
         inkscape:connector-curvature="0"
         id="path4183"
         style="color:#000000;fill:#ef2929;fill-rule:evenodd;enable-background:new"
         d="m 348.71,698.73 c -22.064,0 -39.951,-12.861 -39.951,-12.861 0,0 17.887,-12.861 39.951,-12.861 22.064,0 39.951,12.861 39.951,12.861 0,0 -17.887,12.861 -39.951,12.861 z" />
    </clipPath>
    <filter
       id="filter4189"
       width="1.1586"
       y="-0.24639"
       x="-0.079314999"
       height="1.4928"
       color-interpolation-filters="sRGB">
      <feGaussianBlur
         id="feGaussianBlur4191"
         stdDeviation="2.6406013" />
    </filter>
    <clipPath
       id="clipPath4197"
       clipPathUnits="userSpaceOnUse">
      <path
         inkscape:connector-curvature="0"
         id="path4199"
         style="color:#000000;fill:#75507b;fill-rule:evenodd;enable-background:new"
         d="m 299.47,763.2 c -15.602,15.625 -37.33,19.197 -37.33,19.197 0,0 3.5672,-21.76 19.169,-37.385 15.6018,-15.625 37.33,-19.197 37.33,-19.197 0,0 -3.5672,21.76 -19.169,37.385 z" />
    </clipPath>
    <filter
       id="filter4201"
       width="1.2402"
       y="-0.11991"
       x="-0.12009"
       height="1.2398"
       color-interpolation-filters="sRGB">
      <feGaussianBlur
         id="feGaussianBlur4203"
         stdDeviation="2.8270453" />
    </filter>
    <clipPath
       id="clipPath4133"
       clipPathUnits="userSpaceOnUse">
      <path
         inkscape:connector-curvature="0"
         id="path4135"
         style="color:#000000;fill:#65c808;fill-rule:evenodd;enable-background:new"
         d="m 538.47,738.73 c -22.064,0 -39.951,-12.861 -39.951,-12.861 0,0 17.887,-12.861 39.951,-12.861 22.064,0 39.951,12.861 39.951,12.861 0,0 -17.887,12.861 -39.951,12.861 z" />
    </clipPath>
    <filter
       id="filter4137"
       width="1.1586"
       y="-0.24639"
       x="-0.079314999"
       height="1.4928"
       color-interpolation-filters="sRGB">
      <feGaussianBlur
         id="feGaussianBlur4139"
         stdDeviation="2.6406015" />
    </filter>
    <clipPath
       id="clipPath4071"
       clipPathUnits="userSpaceOnUse">
      <path
         inkscape:connector-curvature="0"
         id="path4073"
         style="color:#000000;fill:#afea2c;fill-rule:evenodd;enable-background:new"
         d="m 515.87,706.72 c -15.602,15.625 -37.33,19.197 -37.33,19.197 0,0 3.5672,-21.76 19.169,-37.385 15.6018,-15.625 37.33,-19.197 37.33,-19.197 0,0 -3.5672,21.76 -19.169,37.385 z" />
    </clipPath>
    <filter
       id="filter4075"
       width="1.2402"
       y="-0.11991"
       x="-0.12009"
       height="1.2398"
       color-interpolation-filters="sRGB">
      <feGaussianBlur
         id="feGaussianBlur4077"
         stdDeviation="2.8270455" />
    </filter>
    <clipPath
       id="clipPath4083"
       clipPathUnits="userSpaceOnUse">
      <path
         inkscape:connector-curvature="0"
         id="path4085"
         style="color:#000000;fill:#729fcf;fill-rule:evenodd;enable-background:new"
         d="m 515.87,745.01 c 15.602,15.625 19.169,37.385 19.169,37.385 0,0 -21.729,-3.5724 -37.33,-19.197 -15.602,-15.625 -19.169,-37.385 -19.169,-37.385 0,0 21.729,3.5724 37.33,19.197 z" />
    </clipPath>
    <filter
       id="filter4087"
       width="1.2402"
       y="-0.11991"
       x="-0.12009"
       height="1.2398"
       color-interpolation-filters="sRGB">
      <feGaussianBlur
         id="feGaussianBlur4089"
         stdDeviation="2.8270455" />
    </filter>
    <clipPath
       id="clipPath4157"
       clipPathUnits="userSpaceOnUse">
      <path
         inkscape:connector-curvature="0"
         id="path4159"
         style="color:#000000;fill:#f57900;fill-rule:evenodd;enable-background:new"
         d="m 269.47,688.53 c 15.602,15.625 19.169,37.385 19.169,37.385 0,0 -21.729,-3.5724 -37.33,-19.197 -15.602,-15.625 -19.169,-37.385 -19.169,-37.385 0,0 21.729,3.5724 37.33,19.197 z" />
    </clipPath>
    <filter
       id="filter4161"
       width="1.2402"
       y="-0.11991"
       x="-0.12009"
       height="1.2398"
       color-interpolation-filters="sRGB">
      <feGaussianBlur
         id="feGaussianBlur4163"
         stdDeviation="2.8270453" />
    </filter>
    <linearGradient
       inkscape:collect="always"
       xlink:href="#linearGradient3977"
       id="linearGradient3983"
       x1="184.46346"
       y1="711.15393"
       x2="184.46346"
       y2="804.79529"
       gradientUnits="userSpaceOnUse" />
  </defs>
  <sodipodi:namedview
     id="base"
     pagecolor="#ffffff"
     bordercolor="#666666"
     borderopacity="1.0"
     inkscape:pageopacity="0.0"
     inkscape:pageshadow="2"
     inkscape:zoom="3.3193989"
     inkscape:cx="-56.079179"
     inkscape:cy="45.525768"
     inkscape:document-units="px"
     inkscape:current-layer="layer1"
     showgrid="true"
     showborder="true"
     inkscape:showpageshadow="false"
     inkscape:window-width="1920"
     inkscape:window-height="1030"
     inkscape:window-x="0"
     inkscape:window-y="25"
     inkscape:window-maximized="1">
    <inkscape:grid
       type="xygrid"
       id="grid3732"
       visible="true"
       enabled="true" />
  </sodipodi:namedview>
  <metadata
     id="metadata2413">
    <rdf:RDF>
      <cc:Work
         rdf:about="">
        <dc:format>image/svg+xml</dc:format>
        <dc:type
           rdf:resource="http://purl.org/dc/dcmitype/StillImage" />
        <dc:title />
      </cc:Work>
    </rdf:RDF>
  </metadata>
  <g
     inkscape:groupmode="layer"
     id="layer2"
     inkscape:label="Blur Shadow"
     style="display:none"
     sodipodi:insensitive="true">
    <rect
       style="opacity:0.9;fill:url(#ButtonShadow);fill-opacity:1;fill-rule:nonzero;stroke:none;filter:url(#filter3174)"
       id="rect3745"
       width="86"
       height="85"
       x="5"
       y="7"
       rx="6"
       ry="6" />
  </g>
  <g
     inkscape:groupmode="layer"
     id="layer3"
     inkscape:label="Shadow"
     sodipodi:insensitive="true">
    <path
       sodipodi:type="inkscape:offset"
       inkscape:radius="0.99097413"
       inkscape:original="M 12 -94.03125 C 7.028367 -94.03125 2.96875 -89.971633 2.96875 -85 L 2.96875 -14 C 2.96875 -9.0283671 7.0283671 -4.96875 12 -4.96875 L 84 -4.96875 C 88.971633 -4.96875 93.03125 -9.028367 93.03125 -14 L 93.03125 -85 C 93.03125 -89.971633 88.971633 -94.03125 84 -94.03125 L 12 -94.03125 z "
       style="opacity:0.07999998;fill:url(#linearGradient3026);fill-opacity:1;fill-rule:nonzero;stroke:none;display:inline"
       id="path3786"
       d="m 12,-95.03125 c -5.5110903,0 -10.03125,4.52016 -10.03125,10.03125 l 0,71 c 0,5.5110902 4.5201598,10.03125 10.03125,10.03125 l 72,0 c 5.51109,0 10.03125,-4.5201597 10.03125,-10.03125 l 0,-71 c 0,-5.51109 -4.52016,-10.03125 -10.03125,-10.03125 l -72,0 z"
       transform="scale(1,-1)" />
    <path
       sodipodi:type="inkscape:offset"
       inkscape:radius="1.0360184"
       inkscape:original="M 12 -93 C 7.5908667 -93 4 -89.409133 4 -85 L 4 -14 C 4 -9.5908667 7.5908667 -6 12 -6 L 84 -6 C 88.409133 -6 92 -9.5908667 92 -14 L 92 -85 C 92 -89.409133 88.409133 -93 84 -93 L 12 -93 z "
       style="opacity:0.1;fill:url(#linearGradient3780);fill-opacity:1;fill-rule:nonzero;stroke:none;display:inline"
       id="path3778"
       d="m 12,-94.03125 c -4.971633,0 -9.03125,4.059617 -9.03125,9.03125 l 0,71 c 0,4.9716329 4.0596171,9.03125 9.03125,9.03125 l 72,0 c 4.971633,0 9.03125,-4.059617 9.03125,-9.03125 l 0,-71 c 0,-4.971633 -4.059617,-9.03125 -9.03125,-9.03125 l -72,0 z"
       transform="scale(1,-1)" />
    <path
       sodipodi:type="inkscape:offset"
       inkscape:radius="0.98962283"
       inkscape:original="M 12 -92 C 8.122 -92 5 -88.878 5 -85 L 5 -14 C 5 -10.122 8.122 -7 12 -7 L 84 -7 C 87.878 -7 91 -10.122 91 -14 L 91 -85 C 91 -88.878 87.878 -92 84 -92 L 12 -92 z "
       style="opacity:0.2;fill:url(#linearGradient3772);fill-opacity:1;fill-rule:nonzero;stroke:none;display:inline"
       id="path3770"
       d="m 12,-93 c -4.4091333,0 -8,3.590867 -8,8 l 0,71 c 0,4.4091333 3.5908667,8 8,8 l 72,0 c 4.409133,0 8,-3.5908667 8,-8 l 0,-71 c 0,-4.409133 -3.590867,-8 -8,-8 l -72,0 z"
       transform="scale(1,-1)" />
    <rect
       style="opacity:0.3;fill:url(#linearGradient3725);fill-opacity:1;fill-rule:nonzero;stroke:none;display:inline"
       id="rect3723"
       width="86"
       height="85"
       x="5"
       y="-92"
       rx="7"
       ry="7"
       transform="scale(1,-1)" />
    <rect
       transform="scale(1,-1)"
       ry="6"
       rx="6"
       y="-91"
       x="6"
       height="84"
       width="84"
       id="rect3716"
       style="opacity:0.45;fill:url(#linearGradient3721);fill-opacity:1;fill-rule:nonzero;stroke:none;display:inline" />
  </g>
  <g
     inkscape:label="Button"
     inkscape:groupmode="layer"
     id="layer1">
    <rect
       style="fill:url(#linearGradient3617);fill-opacity:1;fill-rule:nonzero;stroke:none"
       id="rect2419"
       width="84"
       height="84"
       x="6"
       y="6"
       rx="6"
       ry="6" />
    <path
       style="opacity:0.4;fill:url(#linearGradient3188);fill-opacity:1;fill-rule:nonzero;stroke:none"
       d="M 12,6 C 8.676,6 6,8.676 6,12 l 0,2 0,68 0,2 c 0,0.334721 0.04135,0.6507 0.09375,0.96875 0.0487,0.295596 0.09704,0.596915 0.1875,0.875 0.00988,0.03038 0.020892,0.0636 0.03125,0.09375 0.098865,0.287771 0.2348802,0.547452 0.375,0.8125 0.1445918,0.273507 0.3156161,0.535615 0.5,0.78125 0.1843839,0.245635 0.3737765,0.473472 0.59375,0.6875 0.439947,0.428056 0.94291,0.814526 1.5,1.09375 0.278545,0.139612 0.5734731,0.246947 0.875,0.34375 -0.2562018,-0.100222 -0.4867109,-0.236272 -0.71875,-0.375 -0.00741,-0.0044 -0.023866,0.0045 -0.03125,0 -0.031933,-0.0193 -0.062293,-0.04251 -0.09375,-0.0625 -0.120395,-0.0767 -0.2310226,-0.163513 -0.34375,-0.25 -0.1061728,-0.0808 -0.2132809,-0.161112 -0.3125,-0.25 C 8.4783201,88.557317 8.3087904,88.373362 8.15625,88.1875 8.0486711,88.057245 7.9378561,87.922215 7.84375,87.78125 7.818661,87.74287 7.805304,87.69538 7.78125,87.65625 7.716487,87.553218 7.6510225,87.451733 7.59375,87.34375 7.4927417,87.149044 7.3880752,86.928049 7.3125,86.71875 7.30454,86.69694 7.288911,86.6782 7.28125,86.65625 7.2494249,86.5643 7.2454455,86.469419 7.21875,86.375 7.1884177,86.268382 7.1483606,86.171969 7.125,86.0625 7.0521214,85.720988 7,85.364295 7,85 L 7,83 7,15 7,13 C 7,10.218152 9.2181517,8 12,8 l 2,0 68,0 2,0 c 2.781848,0 5,2.218152 5,5 l 0,2 0,68 0,2 c 0,0.364295 -0.05212,0.720988 -0.125,1.0625 -0.04415,0.206893 -0.08838,0.397658 -0.15625,0.59375 -0.0077,0.02195 -0.0233,0.04069 -0.03125,0.0625 -0.06274,0.173739 -0.138383,0.367449 -0.21875,0.53125 -0.04158,0.0828 -0.07904,0.169954 -0.125,0.25 -0.0546,0.09721 -0.126774,0.18835 -0.1875,0.28125 -0.09411,0.140965 -0.204921,0.275995 -0.3125,0.40625 -0.143174,0.17445 -0.303141,0.346998 -0.46875,0.5 -0.01117,0.0102 -0.01998,0.02115 -0.03125,0.03125 -0.138386,0.125556 -0.285091,0.234436 -0.4375,0.34375 -0.102571,0.07315 -0.204318,0.153364 -0.3125,0.21875 -0.0074,0.0045 -0.02384,-0.0044 -0.03125,0 -0.232039,0.138728 -0.462548,0.274778 -0.71875,0.375 0.301527,-0.0968 0.596455,-0.204138 0.875,-0.34375 0.55709,-0.279224 1.060053,-0.665694 1.5,-1.09375 0.219973,-0.214028 0.409366,-0.441865 0.59375,-0.6875 0.184384,-0.245635 0.355408,-0.507743 0.5,-0.78125 0.14012,-0.265048 0.276135,-0.524729 0.375,-0.8125 0.01041,-0.03078 0.02133,-0.06274 0.03125,-0.09375 0.09046,-0.278085 0.1388,-0.579404 0.1875,-0.875 C 89.95865,84.6507 90,84.334721 90,84 l 0,-2 0,-68 0,-2 C 90,8.676 87.324,6 84,6 L 12,6 z"
       id="rect3728"
       inkscape:connector-curvature="0" />
    <path
       id="path3615"
       d="M 12,90 C 8.676,90 6,87.324 6,84 L 6,82 6,14 6,12 c 0,-0.334721 0.04135,-0.6507 0.09375,-0.96875 0.0487,-0.295596 0.09704,-0.596915 0.1875,-0.875 C 6.29113,10.12587 6.302142,10.09265 6.3125,10.0625 6.411365,9.774729 6.5473802,9.515048 6.6875,9.25 6.8320918,8.976493 7.0031161,8.714385 7.1875,8.46875 7.3718839,8.223115 7.5612765,7.995278 7.78125,7.78125 8.221197,7.353194 8.72416,6.966724 9.28125,6.6875 9.559795,6.547888 9.8547231,6.440553 10.15625,6.34375 9.9000482,6.443972 9.6695391,6.580022 9.4375,6.71875 c -0.00741,0.0044 -0.023866,-0.0045 -0.03125,0 -0.031933,0.0193 -0.062293,0.04251 -0.09375,0.0625 -0.120395,0.0767 -0.2310226,0.163513 -0.34375,0.25 -0.1061728,0.0808 -0.2132809,0.161112 -0.3125,0.25 C 8.4783201,7.442683 8.3087904,7.626638 8.15625,7.8125 8.0486711,7.942755 7.9378561,8.077785 7.84375,8.21875 7.818661,8.25713 7.805304,8.30462 7.78125,8.34375 7.716487,8.446782 7.6510225,8.548267 7.59375,8.65625 7.4927417,8.850956 7.3880752,9.071951 7.3125,9.28125 7.30454,9.30306 7.288911,9.3218 7.28125,9.34375 7.2494249,9.4357 7.2454455,9.530581 7.21875,9.625 7.1884177,9.731618 7.1483606,9.828031 7.125,9.9375 7.0521214,10.279012 7,10.635705 7,11 l 0,2 0,68 0,2 c 0,2.781848 2.2181517,5 5,5 l 2,0 68,0 2,0 c 2.781848,0 5,-2.218152 5,-5 l 0,-2 0,-68 0,-2 C 89,10.635705 88.94788,10.279012 88.875,9.9375 88.83085,9.730607 88.78662,9.539842 88.71875,9.34375 88.71105,9.3218 88.69545,9.30306 88.6875,9.28125 88.62476,9.107511 88.549117,8.913801 88.46875,8.75 88.42717,8.6672 88.38971,8.580046 88.34375,8.5 88.28915,8.40279 88.216976,8.31165 88.15625,8.21875 88.06214,8.077785 87.951329,7.942755 87.84375,7.8125 87.700576,7.63805 87.540609,7.465502 87.375,7.3125 87.36383,7.3023 87.35502,7.29135 87.34375,7.28125 87.205364,7.155694 87.058659,7.046814 86.90625,6.9375 86.803679,6.86435 86.701932,6.784136 86.59375,6.71875 c -0.0074,-0.0045 -0.02384,0.0044 -0.03125,0 -0.232039,-0.138728 -0.462548,-0.274778 -0.71875,-0.375 0.301527,0.0968 0.596455,0.204138 0.875,0.34375 0.55709,0.279224 1.060053,0.665694 1.5,1.09375 0.219973,0.214028 0.409366,0.441865 0.59375,0.6875 0.184384,0.245635 0.355408,0.507743 0.5,0.78125 0.14012,0.265048 0.276135,0.524729 0.375,0.8125 0.01041,0.03078 0.02133,0.06274 0.03125,0.09375 0.09046,0.278085 0.1388,0.579404 0.1875,0.875 C 89.95865,11.3493 90,11.665279 90,12 l 0,2 0,68 0,2 c 0,3.324 -2.676,6 -6,6 l -72,0 z"
       style="opacity:0.2;fill:url(#radialGradient3619);fill-opacity:1;fill-rule:nonzero;stroke:none"
       inkscape:connector-curvature="0" />
  </g>
  <g
     inkscape:groupmode="layer"
     id="layer5"
     inkscape:label="Highlight"
     sodipodi:insensitive="true">
    <rect
       style="opacity:0.1;fill:url(#linearGradient3613);fill-opacity:1;fill-rule:nonzero;stroke:#ffffff;stroke-width:0.5;stroke-linecap:round;stroke-linejoin:miter;stroke-miterlimit:4;stroke-opacity:1;stroke-dasharray:none;stroke-dashoffset:0;filter:url(#filter3794)"
       id="rect3171"
       width="66"
       height="66"
       x="15"
       y="15"
       rx="12"
       ry="12"
       clip-path="url(#clipPath3613)" />
  </g>
  <g
     inkscape:groupmode="layer"
     id="layer4"
     inkscape:label="Symbol"
     sodipodi:insensitive="true">
    <path
       sodipodi:type="inkscape:offset"
       inkscape:radius="0.77137399"
       inkscape:original="M 184.28125 700.8125 C 184.25537 700.8149 184.18198 700.84007 184.15625 700.84375 C 184.13567 700.84669 184.06814 700.83723 184.03125 700.84375 C 184.02203 700.84538 184.0051 700.84276 184 700.84375 C 183.96316 700.85018 183.89559 700.87069 183.875 700.875 C 183.84951 700.88033 183.77519 700.89966 183.75 700.90625 C 183.72481 700.91284 183.61859 700.92967 183.59375 700.9375 C 183.56891 700.94533 183.49317 700.99095 183.46875 701 C 183.44433 701.00905 183.36769 701.05226 183.34375 701.0625 C 183.31981 701.07274 183.24216 701.08233 183.21875 701.09375 C 183.19534 701.10517 183.08531 701.17494 183.0625 701.1875 C 183.03969 701.20006 182.99091 701.23633 182.96875 701.25 C 182.94659 701.26367 182.86521 701.29775 182.84375 701.3125 C 182.82229 701.32725 182.73945 701.39045 182.71875 701.40625 C 182.69805 701.42205 182.61364 701.4832 182.59375 701.5 C 182.57386 701.5168 182.51904 701.57598 182.5 701.59375 C 182.48096 701.61152 182.42439 701.66881 182.40625 701.6875 C 182.38811 701.70619 182.32969 701.79294 182.3125 701.8125 C 182.29531 701.83206 182.23495 701.88586 182.21875 701.90625 C 182.20255 701.92664 182.14017 702.01008 182.125 702.03125 C 182.125 702.03125 179.13419 706.46766 178.1875 712.5 C 173.24716 708.89446 168 707.84375 168 707.84375 C 167.96915 707.83833 167.84362 707.81607 167.8125 707.8125 C 167.78138 707.80893 167.68753 707.81421 167.65625 707.8125 C 167.62497 707.81079 167.50008 707.81234 167.46875 707.8125 C 167.43742 707.81266 167.34376 707.81048 167.3125 707.8125 C 167.28124 707.81452 167.15609 707.83987 167.125 707.84375 C 167.09391 707.84763 166.99955 707.83803 166.96875 707.84375 C 166.93795 707.84947 166.81165 707.89871 166.78125 707.90625 C 166.75085 707.91379 166.6549 707.92816 166.625 707.9375 C 166.5951 707.94684 166.49804 707.9889 166.46875 708 C 166.43946 708.0111 166.34108 708.04967 166.3125 708.0625 C 166.28392 708.07533 166.18401 708.11049 166.15625 708.125 C 166.12849 708.13951 166.02685 708.20262 166 708.21875 C 165.97315 708.23488 165.86959 708.2948 165.84375 708.3125 C 165.81791 708.3302 165.74349 708.38704 165.71875 708.40625 C 165.69401 708.42546 165.61731 708.5106 165.59375 708.53125 C 165.57019 708.5519 165.49103 708.63423 165.46875 708.65625 C 165.44647 708.67827 165.36468 708.75795 165.34375 708.78125 C 165.32282 708.80455 165.23826 708.88174 165.21875 708.90625 C 165.19924 708.93076 165.14302 709.00562 165.125 709.03125 C 165.10698 709.05688 165.04771 709.16085 165.03125 709.1875 C 165.01479 709.21415 164.95234 709.31616 164.9375 709.34375 C 164.92266 709.37134 164.88817 709.47158 164.875 709.5 C 164.86183 709.52842 164.79271 709.62709 164.78125 709.65625 C 164.76979 709.68541 164.7597 709.78271 164.75 709.8125 C 164.7403 709.84229 164.69541 709.93844 164.6875 709.96875 C 164.67959 709.99906 164.66234 710.09427 164.65625 710.125 C 164.65016 710.15573 164.62925 710.28146 164.625 710.3125 C 164.62075 710.34354 164.59615 710.43752 164.59375 710.46875 C 164.59135 710.49998 164.59428 710.62493 164.59375 710.65625 C 164.59322 710.68757 164.59242 710.7812 164.59375 710.8125 C 164.59508 710.8438 164.59056 710.96884 164.59375 711 C 164.59694 711.03116 164.61996 711.12533 164.625 711.15625 A 0.65869594 0.65869594 0 0 0 164.625 711.1875 C 164.625 711.1875 165.67044 716.46313 169.28125 721.40625 C 163.23601 722.35128 158.78125 725.34375 158.78125 725.34375 C 158.75608 725.36194 158.64906 725.41785 158.625 725.4375 C 158.60094 725.45715 158.52285 725.54147 158.5 725.5625 C 158.47715 725.58353 158.39657 725.66515 158.375 725.6875 C 158.35343 725.70985 158.30147 725.78892 158.28125 725.8125 C 158.26103 725.83608 158.17504 725.91277 158.15625 725.9375 C 158.13746 725.96223 158.0798 726.0367 158.0625 726.0625 C 158.0452 726.0883 157.98449 726.19198 157.96875 726.21875 C 157.95301 726.24552 157.88914 726.34734 157.875 726.375 C 157.86086 726.40266 157.82498 726.50281 157.8125 726.53125 C 157.80002 726.55969 157.76078 726.65837 157.75 726.6875 C 157.73922 726.71663 157.69654 726.81403 157.6875 726.84375 C 157.67846 726.87347 157.66352 726.9698 157.65625 727 C 157.64898 727.0302 157.63047 727.15693 157.625 727.1875 C 157.61953 727.21807 157.59741 727.31291 157.59375 727.34375 C 157.59009 727.37459 157.56433 727.50024 157.5625 727.53125 C 157.56067 727.56226 157.5625 727.65644 157.5625 727.6875 C 157.5625 727.71856 157.56067 727.81274 157.5625 727.84375 C 157.56433 727.87476 157.59009 728.00041 157.59375 728.03125 C 157.59741 728.06209 157.61953 728.15693 157.625 728.1875 C 157.63047 728.21807 157.64898 728.3448 157.65625 728.375 C 157.66352 728.4052 157.67846 728.50153 157.6875 728.53125 C 157.69654 728.56097 157.73922 728.65837 157.75 728.6875 C 157.76078 728.71663 157.80002 728.81531 157.8125 728.84375 C 157.82498 728.87219 157.86086 728.97234 157.875 729 C 157.88914 729.02766 157.95301 729.12948 157.96875 729.15625 C 157.98449 729.18302 158.0452 729.2867 158.0625 729.3125 C 158.0798 729.3383 158.13746 729.41277 158.15625 729.4375 C 158.17504 729.46223 158.26103 729.53892 158.28125 729.5625 C 158.30147 729.58608 158.35343 729.66515 158.375 729.6875 C 158.39657 729.70985 158.47715 729.79147 158.5 729.8125 C 158.52285 729.83353 158.60094 729.91785 158.625 729.9375 C 158.64906 729.95715 158.75608 730.01306 158.78125 730.03125 C 158.78125 730.03125 163.24125 733.00007 169.28125 733.9375 C 165.67046 738.88082 164.625 744.15625 164.625 744.15625 A 0.65869594 0.65869594 0 0 0 164.625 744.1875 C 164.61996 744.21842 164.59694 744.31259 164.59375 744.34375 C 164.59056 744.37491 164.59508 744.49995 164.59375 744.53125 C 164.59242 744.56255 164.59322 744.65618 164.59375 744.6875 C 164.59428 744.71882 164.59135 744.84377 164.59375 744.875 C 164.59615 744.90623 164.62075 745.00021 164.625 745.03125 C 164.62925 745.06229 164.65016 745.18802 164.65625 745.21875 C 164.66234 745.24948 164.67959 745.34469 164.6875 745.375 C 164.69541 745.40531 164.7403 745.50146 164.75 745.53125 C 164.7597 745.56104 164.76979 745.65834 164.78125 745.6875 C 164.79271 745.71666 164.86183 745.81533 164.875 745.84375 C 164.88817 745.87217 164.92266 745.97241 164.9375 746 C 164.95234 746.02759 165.01479 746.1296 165.03125 746.15625 C 165.04771 746.1829 165.10698 746.28687 165.125 746.3125 C 165.14302 746.33813 165.19924 746.41299 165.21875 746.4375 C 165.23826 746.46201 165.32282 746.5392 165.34375 746.5625 C 165.36468 746.5858 165.44647 746.66548 165.46875 746.6875 C 165.49103 746.70952 165.57019 746.79185 165.59375 746.8125 C 165.61731 746.83315 165.69401 746.91829 165.71875 746.9375 C 165.74349 746.95671 165.81791 747.01355 165.84375 747.03125 C 165.86959 747.04895 165.97315 747.10887 166 747.125 C 166.02685 747.14113 166.12849 747.20424 166.15625 747.21875 C 166.18401 747.23326 166.28392 747.26842 166.3125 747.28125 C 166.34108 747.29408 166.43946 747.33265 166.46875 747.34375 C 166.49804 747.35485 166.5951 747.39691 166.625 747.40625 C 166.6549 747.41559 166.75085 747.42996 166.78125 747.4375 C 166.81165 747.44504 166.93795 747.49428 166.96875 747.5 C 166.99955 747.50572 167.09391 747.49612 167.125 747.5 C 167.15609 747.50388 167.28124 747.52923 167.3125 747.53125 C 167.34376 747.53327 167.43742 747.53109 167.46875 747.53125 C 167.50008 747.53141 167.62497 747.53296 167.65625 747.53125 C 167.68753 747.52954 167.78138 747.53482 167.8125 747.53125 C 167.84362 747.52768 167.96915 747.50542 168 747.5 C 168 747.5 173.24716 746.44929 178.1875 742.84375 C 179.13241 748.88574 182.125 753.34375 182.125 753.34375 C 182.14319 753.36892 182.1991 753.47594 182.21875 753.5 C 182.2384 753.52406 182.32272 753.60215 182.34375 753.625 C 182.36478 753.64785 182.4464 753.72843 182.46875 753.75 C 182.4911 753.77157 182.57017 753.82353 182.59375 753.84375 C 182.61733 753.86397 182.69402 753.94996 182.71875 753.96875 C 182.74348 753.98754 182.81795 754.0452 182.84375 754.0625 C 182.86955 754.0798 182.97323 754.14051 183 754.15625 C 183.02677 754.17199 183.12859 754.23586 183.15625 754.25 C 183.18391 754.26414 183.28406 754.30002 183.3125 754.3125 C 183.34094 754.32498 183.43962 754.36422 183.46875 754.375 C 183.49788 754.38578 183.59528 754.42846 183.625 754.4375 C 183.65472 754.44654 183.75105 754.46148 183.78125 754.46875 C 183.81145 754.47602 183.93818 754.49453 183.96875 754.5 C 183.99932 754.50547 184.09416 754.52759 184.125 754.53125 C 184.15584 754.53491 184.28149 754.56067 184.3125 754.5625 C 184.34351 754.56433 184.43769 754.5625 184.46875 754.5625 C 184.49981 754.5625 184.59399 754.56433 184.625 754.5625 C 184.65601 754.56067 184.78166 754.53491 184.8125 754.53125 C 184.84334 754.52759 184.93818 754.50547 184.96875 754.5 C 184.99932 754.49453 185.12605 754.47602 185.15625 754.46875 C 185.18645 754.46148 185.28278 754.44654 185.3125 754.4375 C 185.34222 754.42846 185.43962 754.38578 185.46875 754.375 C 185.49788 754.36422 185.59656 754.32498 185.625 754.3125 C 185.65344 754.30002 185.75359 754.26414 185.78125 754.25 C 185.80891 754.23586 185.91073 754.17199 185.9375 754.15625 C 185.96427 754.14051 186.06795 754.0798 186.09375 754.0625 C 186.11955 754.0452 186.19402 753.98754 186.21875 753.96875 C 186.24348 753.94996 186.32017 753.86397 186.34375 753.84375 C 186.36733 753.82353 186.4464 753.77157 186.46875 753.75 C 186.4911 753.72843 186.57272 753.64785 186.59375 753.625 C 186.61478 753.60215 186.6991 753.52406 186.71875 753.5 C 186.7384 753.47594 186.79431 753.36892 186.8125 753.34375 C 186.8125 753.34375 189.78747 748.8645 190.71875 742.8125 C 195.66938 746.44141 200.9375 747.5 200.9375 747.5 C 200.96862 747.50554 201.09361 747.52759 201.125 747.53125 C 201.15639 747.53491 201.24969 747.52948 201.28125 747.53125 C 201.31281 747.53302 201.43714 747.53138 201.46875 747.53125 C 201.50036 747.53112 201.59346 747.53328 201.625 747.53125 C 201.65654 747.52922 201.78114 747.50392 201.8125 747.5 C 201.84386 747.49608 201.96893 747.50579 202 747.5 C 202.03107 747.49421 202.12558 747.44515 202.15625 747.4375 C 202.18692 747.42985 202.28235 747.41573 202.3125 747.40625 C 202.34265 747.39677 202.47047 747.35502 202.5 747.34375 C 202.52953 747.33248 202.62745 747.29428 202.65625 747.28125 C 202.68505 747.26822 202.78454 747.23348 202.8125 747.21875 C 202.84046 747.20402 202.94172 747.14139 202.96875 747.125 C 202.99578 747.10861 203.06775 747.04923 203.09375 747.03125 C 203.11975 747.01327 203.22513 746.92576 203.25 746.90625 C 203.27487 746.88674 203.35135 746.83347 203.375 746.8125 C 203.39865 746.79153 203.47765 746.70985 203.5 746.6875 C 203.52235 746.66515 203.60403 746.58615 203.625 746.5625 C 203.64597 746.53885 203.69924 746.46237 203.71875 746.4375 C 203.73826 746.41263 203.82577 746.30725 203.84375 746.28125 C 203.86173 746.25525 203.92111 746.18328 203.9375 746.15625 C 203.95389 746.12922 204.01652 746.02796 204.03125 746 C 204.04598 745.97204 204.08072 745.87255 204.09375 745.84375 C 204.10678 745.81495 204.14498 745.71703 204.15625 745.6875 C 204.16752 745.65797 204.20927 745.53015 204.21875 745.5 C 204.22823 745.46985 204.24235 745.37442 204.25 745.34375 C 204.25765 745.31308 204.30671 745.21857 204.3125 745.1875 C 204.31829 745.15643 204.30858 745.03136 204.3125 745 C 204.31642 744.96864 204.34172 744.84404 204.34375 744.8125 C 204.34578 744.78096 204.34362 744.68786 204.34375 744.65625 C 204.34388 744.62464 204.34552 744.50031 204.34375 744.46875 C 204.34198 744.43719 204.34741 744.34389 204.34375 744.3125 C 204.34009 744.28111 204.31804 744.15612 204.3125 744.125 C 204.3125 744.125 203.24178 738.87413 199.625 733.9375 C 205.6706 733.00064 210.15625 730.03125 210.15625 730.03125 C 210.18142 730.01306 210.28844 729.95715 210.3125 729.9375 C 210.33656 729.91785 210.41465 729.83353 210.4375 729.8125 C 210.46035 729.79147 210.54093 729.70985 210.5625 729.6875 C 210.58407 729.66515 210.63603 729.58608 210.65625 729.5625 C 210.67647 729.53892 210.76246 729.46223 210.78125 729.4375 C 210.80004 729.41277 210.8577 729.3383 210.875 729.3125 C 210.8923 729.2867 210.95301 729.18302 210.96875 729.15625 C 210.98449 729.12948 211.04836 729.02766 211.0625 729 C 211.07664 728.97234 211.11252 728.87219 211.125 728.84375 C 211.13748 728.81531 211.17672 728.71663 211.1875 728.6875 C 211.19828 728.65837 211.24096 728.56097 211.25 728.53125 C 211.25904 728.50153 211.27398 728.4052 211.28125 728.375 C 211.28852 728.3448 211.30703 728.21807 211.3125 728.1875 C 211.31797 728.15693 211.34009 728.06209 211.34375 728.03125 C 211.34741 728.00041 211.37317 727.87476 211.375 727.84375 C 211.37683 727.81274 211.375 727.71856 211.375 727.6875 C 211.375 727.65644 211.37683 727.56226 211.375 727.53125 C 211.37317 727.50024 211.34741 727.37459 211.34375 727.34375 C 211.34009 727.31291 211.31797 727.21807 211.3125 727.1875 C 211.30703 727.15693 211.28852 727.0302 211.28125 727 C 211.27398 726.9698 211.25904 726.87347 211.25 726.84375 C 211.24096 726.81403 211.19828 726.71663 211.1875 726.6875 C 211.17672 726.65837 211.13748 726.55969 211.125 726.53125 C 211.11252 726.50281 211.07664 726.40266 211.0625 726.375 C 211.04836 726.34734 210.98449 726.24552 210.96875 726.21875 C 210.95301 726.19198 210.8923 726.0883 210.875 726.0625 C 210.8577 726.0367 210.80004 725.96223 210.78125 725.9375 C 210.76246 725.91277 210.67647 725.83608 210.65625 725.8125 C 210.63603 725.78892 210.58407 725.70985 210.5625 725.6875 C 210.54093 725.66515 210.46035 725.58353 210.4375 725.5625 C 210.41465 725.54147 210.33656 725.45715 210.3125 725.4375 C 210.28844 725.41785 210.18142 725.36194 210.15625 725.34375 C 210.15625 725.34375 205.67637 722.35068 199.625 721.40625 C 203.2417 716.46963 204.3125 711.21875 204.3125 711.21875 C 204.31804 711.18763 204.34009 711.06264 204.34375 711.03125 C 204.34741 710.99986 204.34198 710.90656 204.34375 710.875 C 204.34552 710.84344 204.34388 710.71911 204.34375 710.6875 C 204.34362 710.65589 204.34578 710.56279 204.34375 710.53125 C 204.34172 710.49971 204.31642 710.37511 204.3125 710.34375 C 204.30858 710.31239 204.31829 710.18732 204.3125 710.15625 C 204.30671 710.12518 204.25765 710.03067 204.25 710 C 204.24235 709.96933 204.22823 709.8739 204.21875 709.84375 C 204.20927 709.8136 204.16752 709.68578 204.15625 709.65625 C 204.14498 709.62672 204.10678 709.5288 204.09375 709.5 C 204.08072 709.4712 204.04598 709.37171 204.03125 709.34375 C 204.01652 709.31579 203.95389 709.21453 203.9375 709.1875 C 203.92111 709.16047 203.86173 709.0885 203.84375 709.0625 C 203.82577 709.0365 203.73826 708.93112 203.71875 708.90625 C 203.69924 708.88138 203.64597 708.8049 203.625 708.78125 C 203.60403 708.7576 203.52235 708.6786 203.5 708.65625 C 203.47765 708.6339 203.39865 708.55222 203.375 708.53125 C 203.35135 708.51028 203.27487 708.45701 203.25 708.4375 C 203.22513 708.41799 203.11975 708.33048 203.09375 708.3125 C 203.06775 708.29452 202.99578 708.23514 202.96875 708.21875 C 202.94172 708.20236 202.84046 708.13973 202.8125 708.125 C 202.78454 708.11027 202.68505 708.07553 202.65625 708.0625 C 202.62745 708.04947 202.52953 708.01127 202.5 708 C 202.47047 707.98873 202.34265 707.94698 202.3125 707.9375 C 202.28235 707.92802 202.18692 707.9139 202.15625 707.90625 C 202.12558 707.8986 202.03107 707.84954 202 707.84375 C 201.96893 707.83796 201.84386 707.84767 201.8125 707.84375 C 201.78114 707.83983 201.65654 707.81453 201.625 707.8125 C 201.59346 707.81047 201.50036 707.81263 201.46875 707.8125 C 201.43714 707.81237 201.31281 707.81073 201.28125 707.8125 C 201.24969 707.81427 201.15639 707.80884 201.125 707.8125 C 201.09361 707.81616 200.96862 707.83821 200.9375 707.84375 C 200.9375 707.84375 195.66925 708.90224 190.71875 712.53125 C 189.78452 706.49048 186.8125 702.03125 186.8125 702.03125 C 186.79338 702.00435 186.73952 701.90065 186.71875 701.875 C 186.69798 701.84935 186.61609 701.77429 186.59375 701.75 C 186.57141 701.72571 186.49257 701.64784 186.46875 701.625 C 186.44493 701.60216 186.33771 701.5213 186.3125 701.5 C 186.28729 701.4787 186.21399 701.39468 186.1875 701.375 C 186.16101 701.35532 186.05893 701.29923 186.03125 701.28125 C 186.00357 701.26327 185.90375 701.20371 185.875 701.1875 C 185.84625 701.17129 185.74846 701.10813 185.71875 701.09375 C 185.68904 701.07937 185.59305 701.04373 185.5625 701.03125 C 185.53195 701.01877 185.40627 700.97929 185.375 700.96875 C 185.34373 700.95821 185.25062 700.91481 185.21875 700.90625 C 185.18688 700.89769 185.0636 700.88154 185.03125 700.875 C 184.9989 700.86846 184.87645 700.84825 184.84375 700.84375 C 184.81105 700.83925 184.72041 700.81494 184.6875 700.8125 C 184.65459 700.81006 184.533 700.81287 184.5 700.8125 C 184.467 700.81213 184.34546 700.8108 184.3125 700.8125 A 0.65869594 0.65869594 0 0 0 184.28125 700.8125 z "
       style="opacity:0.1;color:#000000;fill:#f9f9f9;fill-rule:evenodd;enable-background:new"
       id="path3975"
       d="m 184.21875,700.03125 c -0.10928,0.0101 -0.10454,0.0236 -0.125,0.0313 -0.005,0.002 -0.0282,-0.002 -0.0313,0 0.002,9e-5 -0.0103,6.9e-4 -0.0313,0 -0.01,-4.2e-4 -0.0181,0.0309 -0.0313,0.0313 -0.005,-4.3e-4 -0.0229,-0.0314 -0.0313,-0.0313 -0.0131,3.6e-4 -0.0323,0.0276 -0.0625,0.0313 -0.0134,0.002 -0.0221,-0.001 -0.0313,0 -0.009,0.001 -0.0311,-3e-5 -0.0313,0 -0.0488,0.01 -0.10119,0.0249 -0.125,0.0313 -0.0972,0.0203 -0.12897,0.0241 -0.15625,0.0313 0.0887,-0.0232 0.004,-0.006 -0.0313,0 -0.0352,0.006 0.006,-0.0198 -0.15625,0.0313 -0.2077,0.0655 -0.19113,0.0789 -0.21875,0.0937 -0.0258,0.0106 -0.021,0.0256 -0.0313,0.0313 0.0284,-0.006 0.0915,-0.048 -0.0937,0.0313 -0.0224,-0.001 -0.007,-0.0104 -0.15625,0.0625 -0.14004,0.0683 -0.0899,0.0409 -0.125,0.0625 -0.0351,0.0216 -0.12068,0.0633 -0.0625,0.0313 -0.0695,0.0382 -0.0771,0.0814 -0.0937,0.0937 0.0284,-0.0133 0.073,-0.0643 -0.0313,0 -0.0182,0.005 -0.0199,6e-5 -0.15625,0.0937 -0.10545,0.0725 -0.13517,0.0777 -0.15625,0.0937 0.0101,-0.008 -0.0343,0.0416 -0.0625,0.0625 -0.0282,0.0209 -0.0253,0.005 -0.0937,0.0625 -0.0842,0.0711 -0.073,0.0724 -0.0937,0.0937 -0.0207,0.0213 -0.064,0.0618 -0.0313,0.0313 -0.0665,0.062 -0.0973,0.0965 -0.125,0.125 -0.13625,0.14038 -0.10451,0.12773 -0.125,0.15625 -0.0215,0.0206 -9.4e-4,0.008 -0.0937,0.125 -0.0538,0.0678 -0.0856,0.10131 -0.125,0.15625 0,0 -2.66769,4.06783 -3.8125,9.6875 -4.7831,-3.17058 -9.53125,-4.1875 -9.53125,-4.1875 a 0.77145112,0.77145112 0 0 0 -0.0313,0 c -0.0276,-0.005 -0.0603,-0.0443 -0.21875,-0.0625 -0.14556,-0.0167 -0.15242,-7.4e-4 -0.1875,0 -0.0351,7.4e-4 -0.1008,-0.004 -0.0313,0 -0.16839,-0.009 -0.20239,-8e-5 -0.21875,0 0.0123,-6e-5 -0.0529,-0.0107 -0.21875,0 -0.15674,0.0101 -0.11421,0.0236 -0.15625,0.0313 -0.0168,0.003 -0.0153,-0.003 -0.0313,0 -0.0351,-0.001 -0.0194,-0.0116 -0.25,0.0313 -0.21998,0.0408 -0.14559,0.0476 -0.1875,0.0625 -0.0419,0.0149 -0.15459,0.0306 -0.0313,0 0.0577,-0.0143 0.004,-0.006 -0.0313,0 -0.0352,0.006 -0.0246,-0.01 -0.15625,0.0313 -0.10276,0.0321 -0.12136,0.0481 -0.15625,0.0625 -0.0349,0.0144 -0.0857,0.0401 -0.0625,0.0313 -0.0478,0.0181 -0.0825,0.0154 -0.1875,0.0625 0.0519,-0.0233 0.004,0.0178 -0.0313,0.0313 -0.0353,0.0135 -0.0324,-0.002 -0.15625,0.0625 -0.15649,0.0818 -0.21663,0.12373 -0.21875,0.125 4.1e-4,-2.4e-4 -0.0273,0.0104 -0.0625,0.0313 -0.0352,0.0208 -0.0505,0.0427 -0.125,0.0937 -0.0914,0.0626 -0.12183,0.0983 -0.15625,0.125 -0.14339,0.11134 -0.12878,0.0964 -0.15625,0.125 -0.0719,0.063 -0.0972,0.0967 -0.125,0.125 -0.0278,0.0283 -0.0371,0.037 -0.0313,0.0313 -0.0127,0.0125 -0.0519,0.0714 -0.15625,0.1875 0.0517,-0.0575 -0.003,-0.0276 -0.0313,0 -0.0285,0.0276 -0.0228,0.0278 -0.125,0.15625 -0.0465,0.0584 -0.0793,0.0912 -0.125,0.15625 -0.0624,0.0888 -0.073,0.0897 -0.0937,0.125 -0.0207,0.0353 -0.0412,0.0786 -0.0313,0.0625 -0.0205,0.0332 -0.0582,0.0634 -0.125,0.1875 -0.0739,0.13746 -0.0491,0.15218 -0.0625,0.1875 -0.0134,0.0353 -0.0309,0.0979 0,0.0313 -0.0169,0.0178 -0.0443,-0.018 -0.125,0.1875 -0.0844,0.21469 -0.0567,0.21467 -0.0625,0.25 -0.0118,0.021 -0.0254,0.014 -0.0625,0.15625 -0.0384,0.14707 -0.0302,0.18233 -0.0313,0.1875 -0.0186,0.094 -0.0188,0.15943 -0.0313,0.25 0.0108,-0.079 -0.0235,-0.0349 -0.0313,0 -0.008,0.0349 -0.0191,0.0301 -0.0313,0.1875 -0.009,0.11789 -4e-4,0.11412 0,0.15625 4e-4,0.0421 -4.4e-4,0.11948 0,0.0937 -7.5e-4,0.0442 -0.005,0.0779 0,0.1875 -0.003,-0.0649 6.1e-4,0.0204 0,0.0625 -6.1e-4,0.0421 -0.016,0.0312 0,0.1875 0.0103,0.10037 0.0248,0.10192 0.0313,0.125 0.002,0.005 -0.001,0.0245 0,0.0313 a 0.77145112,0.77145112 0 0 0 0.0313,0.0313 0.77145112,0.77145112 0 0 0 0,0.0625 c 0,0 1.01234,4.77276 4.1875,9.5625 -5.63209,1.14346 -9.71875,3.8125 -9.71875,3.8125 0.10398,-0.0752 0.004,-0.0202 -0.0313,0 -0.0356,0.0202 -0.0191,-0.0125 -0.1875,0.125 -0.11403,0.0931 -0.0974,0.0965 -0.125,0.125 -0.0276,0.0285 -0.0756,0.0721 -0.0313,0.0313 -0.0897,0.0826 -0.11972,0.1184 -0.15625,0.15625 -0.11151,0.11554 -0.10463,0.12771 -0.125,0.15625 -0.0287,0.0274 -0.0363,-0.002 -0.15625,0.15625 -0.0102,0.0134 -0.0486,0.0422 -0.125,0.15625 -0.0848,0.12643 -0.0798,0.16382 -0.0937,0.1875 0.007,-0.0112 -0.0412,0.0588 -0.0625,0.0937 -0.0213,0.0349 -0.0158,0.0336 -0.0625,0.125 -0.0584,0.11435 -0.049,0.121 -0.0625,0.15625 -0.0135,0.0353 -0.0496,0.073 -0.0313,0.0313 -0.0372,0.0848 -0.037,0.11873 -0.0625,0.1875 0.0125,-0.0338 -0.0168,0.0276 -0.0313,0.0625 -0.0145,0.0349 -0.0279,0.0425 -0.0625,0.15625 -0.0376,0.12366 -0.0248,0.12108 -0.0313,0.15625 -0.006,0.0352 -0.0119,0.0807 0,0.0313 -0.0262,0.10897 -0.0246,0.11404 -0.0313,0.15625 -0.007,0.0422 -0.003,0.11189 0,0.0937 0.005,-0.026 -0.0238,-0.004 -0.0313,0.0313 -0.007,0.035 -0.0189,0.0521 -0.0313,0.15625 0.009,-0.0732 0.008,0.0204 0,0.0625 -0.008,0.0421 -0.0214,0.0207 -0.0313,0.1875 -0.009,0.15289 0,0.18674 0,0.1875 0,7.6e-4 -0.009,0.0346 0,0.1875 0.01,0.16682 0.0236,0.14545 0.0313,0.1875 0.008,0.0421 0.009,0.13565 0,0.0625 0.0124,0.10412 0.0238,0.12128 0.0313,0.15625 0.007,0.035 0.0359,0.0573 0.0313,0.0313 -0.003,-0.0181 -0.007,0.0515 0,0.0937 0.007,0.0422 0.005,0.0473 0.0313,0.15625 -0.0119,-0.0494 -0.006,-0.004 0,0.0313 0.006,0.0352 -0.006,0.0326 0.0313,0.15625 0.0346,0.11376 0.048,0.12137 0.0625,0.15625 0.0145,0.0349 0.0437,0.0963 0.0313,0.0625 0.0255,0.0688 0.0253,0.10265 0.0625,0.1875 -0.0183,-0.0418 0.0177,-0.004 0.0313,0.0313 0.0135,0.0353 0.004,0.0419 0.0625,0.15625 0.0467,0.0914 0.0412,0.0901 0.0625,0.125 0.0213,0.0349 0.0691,0.10499 0.0625,0.0937 0.0139,0.0237 0.009,0.0611 0.0937,0.1875 0.0764,0.11402 0.1148,0.14283 0.125,0.15625 0.11994,0.15786 0.12756,0.12882 0.15625,0.15625 0.0204,0.0285 0.0135,0.0407 0.125,0.15625 0.0365,0.0379 0.0665,0.0737 0.15625,0.15625 -0.0444,-0.0408 0.004,0.003 0.0313,0.0313 0.0276,0.0285 0.011,0.0319 0.125,0.125 0.16841,0.13754 0.15191,0.10477 0.1875,0.125 0.0356,0.0202 0.13523,0.0752 0.0313,0 a 0.77145112,0.77145112 0 0 0 0,0.0313 c 0,0 4.09155,2.6159 9.71875,3.75 C 164.88736,739.22737 163.875,744 163.875,744 a 0.77145112,0.77145112 0 0 0 0,0.0625 0.77145112,0.77145112 0 0 0 -0.0313,0.0625 c -0.006,0.0231 -0.021,0.0246 -0.0313,0.125 -0.016,0.15629 -6.1e-4,0.14538 0,0.1875 6.1e-4,0.0421 -0.003,0.12741 0,0.0625 -0.005,0.1096 -7.5e-4,0.14331 0,0.1875 -4.4e-4,-0.0257 4e-4,0.0516 0,0.0937 -4e-4,0.0421 -0.009,0.0384 0,0.15625 0.0121,0.15743 0.0235,0.15261 0.0313,0.1875 0.008,0.0349 0.0421,0.079 0.0313,0 0.0124,0.0906 0.0126,0.15598 0.0313,0.25 0.001,0.005 -0.007,0.0404 0.0313,0.1875 0.0437,0.1673 0.0477,0.15276 0.0625,0.1875 0.0148,0.0347 0.0592,0.11714 0.0313,0.0313 -0.002,0.0211 -0.0308,0.0296 0.0313,0.1875 0.0905,0.23028 0.10296,0.18425 0.125,0.21875 0.0134,0.0353 -0.0114,0.05 0.0625,0.1875 0.0668,0.12411 0.10447,0.15425 0.125,0.1875 -0.01,-0.0161 0.0105,0.0272 0.0313,0.0625 0.0207,0.0353 0.0313,0.0362 0.0937,0.125 0.0457,0.065 0.0785,0.0979 0.125,0.15625 0.10221,0.1284 0.0965,0.1287 0.125,0.15625 0.0285,0.0276 0.0829,0.0575 0.0313,0 0.10431,0.11612 0.14357,0.17496 0.15625,0.1875 -0.006,-0.006 0.003,0.003 0.0313,0.0313 0.0278,0.0283 0.0531,0.062 0.125,0.125 0.0275,0.0286 0.0129,0.0137 0.15625,0.125 0.0344,0.0267 0.0649,0.0624 0.15625,0.125 0.0745,0.051 0.0898,0.0729 0.125,0.0937 0.0352,0.0208 0.0629,0.0315 0.0625,0.0313 0.002,0.001 0.0623,0.0432 0.21875,0.125 0.12389,0.0648 0.12097,0.049 0.15625,0.0625 0.0353,0.0135 0.0832,0.0545 0.0313,0.0313 0.10501,0.0471 0.13973,0.0444 0.1875,0.0625 -0.0232,-0.009 0.0276,0.0168 0.0625,0.0313 0.0349,0.0144 0.0535,0.0304 0.15625,0.0625 0.13163,0.0411 0.12105,0.0249 0.15625,0.0313 0.0352,0.006 0.089,0.0143 0.0313,0 -0.12334,-0.0306 -0.0107,-0.0149 0.0313,0 0.0419,0.0149 -0.0325,0.0217 0.1875,0.0625 0.23061,0.0428 0.21493,0.0326 0.25,0.0313 0.016,0.003 0.0144,-0.003 0.0313,0 0.042,0.008 -4.9e-4,0.0211 0.15625,0.0313 0.16584,0.0107 0.23105,6e-5 0.21875,0 0.0164,8e-5 0.0504,0.009 0.21875,0 -0.0695,0.004 -0.004,-7.4e-4 0.0313,0 0.0351,7.4e-4 0.0419,0.0167 0.1875,0 0.15847,-0.0182 0.19118,-0.0577 0.21875,-0.0625 a 0.77145112,0.77145112 0 0 0 0.0313,0 c 0,0 4.74815,-1.01692 9.53125,-4.1875 1.14337,5.62978 3.8125,9.71875 3.8125,9.71875 -0.0752,-0.10398 -0.0202,-0.004 0,0.0313 0.0202,0.0356 -0.0125,0.0191 0.125,0.1875 0.0931,0.11403 0.0965,0.0974 0.125,0.125 0.0285,0.0276 0.0721,0.0756 0.0313,0.0313 0.0826,0.0897 0.1184,0.11972 0.15625,0.15625 0.11554,0.11151 0.12771,0.10463 0.15625,0.125 0.0274,0.0287 -0.002,0.0363 0.15625,0.15625 0.0134,0.0102 0.0422,0.0485 0.15625,0.125 0.12643,0.0848 0.16382,0.0798 0.1875,0.0937 -0.0112,-0.007 0.0588,0.0412 0.0937,0.0625 0.0349,0.0213 0.0336,0.0158 0.125,0.0625 0.11435,0.0584 0.121,0.049 0.15625,0.0625 0.0352,0.0135 0.073,0.0496 0.0313,0.0313 0.0848,0.0372 0.11873,0.0371 0.1875,0.0625 -0.0337,-0.0125 0.0276,0.0168 0.0625,0.0313 0.0349,0.0145 0.0425,0.0279 0.15625,0.0625 0.12366,0.0376 0.12108,0.0248 0.15625,0.0313 0.0352,0.006 0.0807,0.0119 0.0313,0 0.10897,0.0262 0.11404,0.0246 0.15625,0.0313 0.0422,0.007 0.11189,0.003 0.0937,0 -0.026,-0.005 -0.004,0.0238 0.0313,0.0313 0.035,0.007 0.0521,0.0189 0.15625,0.0313 -0.0731,-0.009 0.0205,-0.008 0.0625,0 0.042,0.008 0.0207,0.0214 0.1875,0.0313 0.15289,0.009 0.18674,0 0.1875,0 7.6e-4,0 0.0346,0.009 0.1875,0 0.16682,-0.01 0.14545,-0.0236 0.1875,-0.0313 0.042,-0.008 0.13565,-0.009 0.0625,0 0.10412,-0.0124 0.12128,-0.0238 0.15625,-0.0313 0.035,-0.007 0.0573,-0.0359 0.0313,-0.0313 -0.0181,0.003 0.0515,0.007 0.0937,0 0.0422,-0.007 0.0473,-0.005 0.15625,-0.0313 -0.0494,0.0119 -0.004,0.006 0.0313,0 0.0352,-0.006 0.0326,0.006 0.15625,-0.0313 0.11376,-0.0346 0.12137,-0.048 0.15625,-0.0625 0.0349,-0.0145 0.0962,-0.0437 0.0625,-0.0313 0.0688,-0.0254 0.10265,-0.0253 0.1875,-0.0625 -0.0418,0.0183 -0.004,-0.0177 0.0313,-0.0313 0.0352,-0.0135 0.0419,-0.004 0.15625,-0.0625 0.0914,-0.0467 0.0901,-0.0412 0.125,-0.0625 0.0349,-0.0213 0.10499,-0.0691 0.0937,-0.0625 0.0237,-0.0139 0.0611,-0.009 0.1875,-0.0937 0.11402,-0.0765 0.14283,-0.1148 0.15625,-0.125 0.15786,-0.11994 0.12882,-0.12756 0.15625,-0.15625 0.0285,-0.0204 0.0407,-0.0135 0.15625,-0.125 0.0378,-0.0365 0.0737,-0.0665 0.15625,-0.15625 -0.0409,0.0444 0.003,-0.004 0.0313,-0.0313 0.0285,-0.0276 0.0319,-0.011 0.125,-0.125 0.13754,-0.16841 0.10477,-0.15191 0.125,-0.1875 0.0202,-0.0356 0.0752,-0.13523 0,-0.0313 a 0.77145112,0.77145112 0 0 0 0.0313,0 c 0,0 2.62043,-4.11041 3.75,-9.75 4.7954,3.19314 9.5625,4.21875 9.5625,4.21875 a 0.77145112,0.77145112 0 0 0 0.0313,0 c 0.0343,0.006 0.0673,0.0448 0.21875,0.0625 0.1466,0.0171 0.15242,7.6e-4 0.1875,0 0.0351,-7.6e-4 0.10193,0.004 0.0313,0 0.17124,0.01 0.2055,5e-5 0.21875,0 -0.01,4e-5 0.0551,0.0105 0.21875,0 0.15577,-0.01 0.11422,-0.0236 0.15625,-0.0313 0.0168,-0.003 0.0154,0.003 0.0313,0 0.0421,0.001 0.006,0.02 0.28125,-0.0313 0.20096,-0.0375 0.17382,-0.0481 0.1875,-0.0625 -0.0588,0.0147 -0.004,0.006 0.0313,0 0.0352,-0.006 0.0236,0.0105 0.15625,-0.0313 0.0532,-0.0167 0.12061,-0.0444 0.25,-0.0937 0.0413,-0.0158 0.0763,-0.0434 0.1875,-0.0937 -0.055,0.0249 -0.004,0.0134 0.0313,0 0.0353,-0.0134 0.061,0.004 0.1875,-0.0625 0.14621,-0.077 0.1751,-0.11748 0.1875,-0.125 0.10713,-0.065 0.0973,-0.0722 0.125,-0.0937 0.0277,-0.0215 0.0711,-0.0588 0.0313,-0.0313 0.0935,-0.0647 0.09,-0.0654 0.125,-0.0937 0.035,-0.0284 0.0744,-0.0719 0.0625,-0.0625 -0.0214,0.0168 0.0342,-0.0106 0.0625,-0.0313 0.0283,-0.0207 0.0157,-0.0245 0.0937,-0.0937 0.1296,-0.11492 0.1557,-0.1557 0.15625,-0.15625 5.5e-4,-5.5e-4 0.0413,-0.0267 0.15625,-0.15625 0.0692,-0.0781 0.0731,-0.0654 0.0937,-0.0937 0.0207,-0.0284 0.0481,-0.0839 0.0313,-0.0625 -0.009,0.0119 0.0341,-0.0276 0.0625,-0.0625 0.0284,-0.0349 0.0291,-0.0315 0.0937,-0.125 -0.0276,0.0399 0.01,-0.004 0.0313,-0.0313 0.0215,-0.0277 0.0288,-0.0179 0.0937,-0.125 0.008,-0.0124 0.048,-0.0413 0.125,-0.1875 0.0667,-0.12654 0.0491,-0.15222 0.0625,-0.1875 0.0134,-0.0353 0.0249,-0.0862 0,-0.0313 0.0503,-0.1112 0.078,-0.14619 0.0937,-0.1875 0.0494,-0.12939 0.077,-0.19675 0.0937,-0.25 0.0337,-0.10717 0.0288,-0.10134 0.0313,-0.125 -0.008,0.0173 7.6e-4,-0.0372 0,-0.0313 0.006,-0.0352 0.0147,-0.0901 0,-0.0313 0.0144,-0.0137 0.025,0.0135 0.0625,-0.1875 0.0513,-0.27513 0.0326,-0.23912 0.0313,-0.28125 0.003,-0.0159 -0.003,-0.0144 0,-0.0313 0.008,-0.042 0.0212,-4.8e-4 0.0313,-0.15625 0.0105,-0.16364 4e-5,-0.22851 0,-0.21875 5e-5,-0.0132 0.01,-0.0475 0,-0.21875 0.004,0.0707 -7.6e-4,0.004 0,-0.0313 7.6e-4,-0.0351 0.0171,-0.0409 0,-0.1875 -0.0177,-0.15142 -0.0564,-0.18446 -0.0625,-0.21875 a 0.77145112,0.77145112 0 0 0 0,-0.0313 c 0,0 -1.0367,-4.75141 -4.21875,-9.53125 5.63424,-1.13351 9.75,-3.75 9.75,-3.75 a 0.77145112,0.77145112 0 0 0 0,-0.0313 c -0.10398,0.0752 -0.004,0.0202 0.0313,0 0.0356,-0.0202 0.0191,0.0125 0.1875,-0.125 0.11403,-0.0931 0.0974,-0.0965 0.125,-0.125 0.0276,-0.0285 0.0756,-0.0721 0.0313,-0.0313 0.0897,-0.0826 0.11972,-0.1184 0.15625,-0.15625 0.11151,-0.11554 0.10463,-0.12771 0.125,-0.15625 0.0287,-0.0274 0.0363,0.002 0.15625,-0.15625 0.0102,-0.0134 0.0486,-0.0422 0.125,-0.15625 0.0848,-0.12643 0.0798,-0.16382 0.0937,-0.1875 -0.007,0.0112 0.0412,-0.0588 0.0625,-0.0937 0.0213,-0.0349 0.0158,-0.0336 0.0625,-0.125 0.0584,-0.11435 0.049,-0.121 0.0625,-0.15625 0.0135,-0.0353 0.0496,-0.073 0.0313,-0.0313 0.0372,-0.0848 0.037,-0.11873 0.0625,-0.1875 -0.0125,0.0338 0.0168,-0.0276 0.0313,-0.0625 0.0145,-0.0349 0.0279,-0.0425 0.0625,-0.15625 0.0376,-0.12366 0.0248,-0.12108 0.0313,-0.15625 0.006,-0.0352 0.0119,-0.0807 0,-0.0313 0.0262,-0.10897 0.0246,-0.11404 0.0313,-0.15625 0.007,-0.0422 0.003,-0.11189 0,-0.0937 -0.005,0.026 0.0238,0.004 0.0313,-0.0313 0.007,-0.035 0.0189,-0.0521 0.0313,-0.15625 -0.009,0.0732 -0.008,-0.0204 0,-0.0625 0.008,-0.0421 0.0214,-0.0207 0.0313,-0.1875 0.009,-0.15289 0,-0.18674 0,-0.1875 0,-7.6e-4 0.009,-0.0346 0,-0.1875 -0.01,-0.16682 -0.0236,-0.14545 -0.0313,-0.1875 -0.008,-0.0421 -0.009,-0.13565 0,-0.0625 -0.0124,-0.10412 -0.0238,-0.12128 -0.0313,-0.15625 -0.007,-0.035 -0.0359,-0.0573 -0.0313,-0.0313 0.003,0.0181 0.007,-0.0515 0,-0.0937 -0.007,-0.0422 -0.005,-0.0473 -0.0313,-0.15625 0.0119,0.0494 0.006,0.004 0,-0.0313 -0.006,-0.0352 0.006,-0.0326 -0.0313,-0.15625 -0.0346,-0.11376 -0.048,-0.12137 -0.0625,-0.15625 -0.0145,-0.0349 -0.0437,-0.0963 -0.0313,-0.0625 -0.0255,-0.0688 -0.0253,-0.10265 -0.0625,-0.1875 0.0183,0.0418 -0.0177,0.004 -0.0313,-0.0313 -0.0135,-0.0353 -0.004,-0.0419 -0.0625,-0.15625 -0.0467,-0.0914 -0.0412,-0.0901 -0.0625,-0.125 -0.0213,-0.0349 -0.0691,-0.10499 -0.0625,-0.0937 -0.0139,-0.0237 -0.009,-0.0611 -0.0937,-0.1875 -0.0764,-0.11402 -0.1148,-0.14283 -0.125,-0.15625 -0.11994,-0.15786 -0.12756,-0.12882 -0.15625,-0.15625 -0.0204,-0.0285 -0.0135,-0.0407 -0.125,-0.15625 -0.0365,-0.0379 -0.0665,-0.0737 -0.15625,-0.15625 0.0444,0.0408 -0.004,-0.003 -0.0313,-0.0313 -0.0276,-0.0285 -0.011,-0.0319 -0.125,-0.125 -0.16841,-0.13754 -0.15191,-0.10477 -0.1875,-0.125 -0.0356,-0.0202 -0.13523,-0.0752 -0.0313,0 a 0.77145112,0.77145112 0 0 0 0,-0.0313 c 0,0 -4.11049,-2.63841 -9.75,-3.78125 3.18199,-4.77983 4.21875,-9.53125 4.21875,-9.53125 a 0.77145112,0.77145112 0 0 0 0,-0.0313 c 0.006,-0.0343 0.0448,-0.0673 0.0625,-0.21875 0.0171,-0.1466 7.6e-4,-0.15242 0,-0.1875 -7.6e-4,-0.0351 0.004,-0.10193 0,-0.0313 0.01,-0.17124 5e-5,-0.2055 0,-0.21875 4e-5,0.01 0.0105,-0.0551 0,-0.21875 -0.01,-0.15577 -0.0236,-0.11422 -0.0313,-0.15625 -0.003,-0.0168 0.003,-0.0154 0,-0.0313 0.001,-0.0421 0.02,-0.006 -0.0313,-0.28125 -0.0375,-0.20096 -0.0481,-0.17382 -0.0625,-0.1875 -0.0224,-0.0899 -7.6e-4,-0.0372 0,-0.0313 -0.006,-0.0352 0.0105,-0.0236 -0.0313,-0.15625 -0.0167,-0.0533 -0.0444,-0.12061 -0.0937,-0.25 -0.0158,-0.0413 -0.0434,-0.0763 -0.0937,-0.1875 0.0249,0.055 0.0134,0.004 0,-0.0313 -0.0134,-0.0353 0.004,-0.061 -0.0625,-0.1875 -0.077,-0.14621 -0.11748,-0.1751 -0.125,-0.1875 -0.065,-0.10713 -0.0722,-0.0973 -0.0937,-0.125 -0.0215,-0.0277 -0.0588,-0.0711 -0.0313,-0.0313 -0.0647,-0.0935 -0.0654,-0.0901 -0.0937,-0.125 -0.0284,-0.0349 -0.0719,-0.0744 -0.0625,-0.0625 0.0168,0.0214 -0.0106,-0.0341 -0.0313,-0.0625 -0.0207,-0.0284 -0.0245,-0.0157 -0.0937,-0.0937 -0.11492,-0.1296 -0.1557,-0.1557 -0.15625,-0.15625 -5.5e-4,-5.5e-4 -0.0266,-0.0413 -0.15625,-0.15625 -0.0781,-0.0692 -0.0654,-0.0731 -0.0937,-0.0937 -0.0283,-0.0207 -0.0839,-0.0481 -0.0625,-0.0313 0.0119,0.009 -0.0275,-0.0341 -0.0625,-0.0625 -0.035,-0.0284 -0.0315,-0.0291 -0.125,-0.0937 0.0399,0.0276 -0.004,-0.01 -0.0313,-0.0313 -0.0277,-0.0215 -0.0179,-0.0288 -0.125,-0.0937 -0.0124,-0.008 -0.0413,-0.048 -0.1875,-0.125 -0.12654,-0.0667 -0.15222,-0.0491 -0.1875,-0.0625 -0.0353,-0.0134 -0.0862,-0.0249 -0.0313,0 -0.1112,-0.0503 -0.14619,-0.078 -0.1875,-0.0937 -0.12939,-0.0494 -0.19675,-0.077 -0.25,-0.0937 -0.10717,-0.0337 -0.10134,-0.0288 -0.125,-0.0313 0.0345,0.0154 0.11734,0.0449 -0.0625,0 -0.0137,-0.0144 0.0135,-0.025 -0.1875,-0.0625 -0.27513,-0.0513 -0.23912,-0.0326 -0.28125,-0.0313 -0.0159,-0.003 -0.0144,0.003 -0.0313,0 -0.042,-0.008 -4.8e-4,-0.0212 -0.15625,-0.0313 -0.16364,-0.0105 -0.22851,-4e-5 -0.21875,0 -0.0132,-5e-5 -0.0475,-0.01 -0.21875,0 0.0707,-0.004 0.004,7.6e-4 -0.0313,0 -0.0351,-7.6e-4 -0.0409,-0.0171 -0.1875,0 -0.15142,0.0177 -0.18446,0.0564 -0.21875,0.0625 a 0.77145112,0.77145112 0 0 0 -0.0313,0 c 0,0 -4.76718,1.02552 -9.5625,4.21875 -1.13184,-5.62819 -3.75,-9.71875 -3.75,-9.71875 a 0.77145112,0.77145112 0 0 0 -0.0313,0 c 0.0635,0.0893 0.0202,0.004 0,-0.0313 -0.0202,-0.0356 1.1e-4,-0.033 -0.125,-0.1875 -0.0908,-0.11216 -0.0965,-0.0974 -0.125,-0.125 -0.0285,-0.0276 -0.07,-0.0734 -0.0313,-0.0313 -0.0784,-0.0852 -0.11397,-0.11571 -0.15625,-0.15625 -0.10101,-0.0969 -0.0896,-0.0661 -0.125,-0.0937 -0.0354,-0.0277 -0.0941,-0.0892 -0.0625,-0.0625 -0.0273,-0.0288 0.005,-0.0361 -0.15625,-0.15625 -0.11239,-0.0835 -0.12088,-0.0732 -0.15625,-0.0937 -0.0354,-0.0205 -0.10464,-0.0586 -0.0625,-0.0313 -0.0855,-0.0556 -0.11999,-0.0869 -0.1875,-0.125 0.0331,0.0186 -0.0277,-0.01 -0.0625,-0.0313 -0.0348,-0.0215 -0.0102,-0.007 -0.125,-0.0625 -0.0831,-0.0402 -0.12105,-0.0488 -0.15625,-0.0625 -0.0352,-0.0137 -0.0711,-0.0348 -0.0625,-0.0313 -0.0945,-0.0386 -0.0828,-0.0175 -0.125,-0.0313 -0.0422,-0.0137 -0.0983,-0.0328 -0.0937,-0.0313 0.0684,0.0231 0.004,-0.0165 -0.0313,-0.0313 -0.0348,-0.0148 -0.0379,-0.0223 -0.1875,-0.0625 -0.13921,-0.0374 -0.11406,-0.0248 -0.15625,-0.0313 -0.0422,-0.006 -0.11199,-0.01 -0.0625,0 -0.10039,-0.0203 -0.16594,-0.0197 -0.25,-0.0313 0.0741,0.0102 0.0349,-0.0234 0,-0.0313 -0.0349,-0.008 -0.0347,-0.0199 -0.1875,-0.0313 -0.10809,-0.008 -0.11417,-3.8e-4 -0.15625,0 -0.0421,3.8e-4 -0.10976,-1.8e-4 -0.0937,0 -0.0239,-2.7e-4 -0.0843,-9.4e-4 -0.15625,0 0.001,3e-5 -0.042,10e-6 -0.0625,0 -0.0103,0 -0.0318,10e-6 -0.0313,0 a 0.77145112,0.77145112 0 0 0 -0.0313,0 z"
       transform="matrix(1.4426658,0,0,1.4467808,-218.11907,-1004.7918)" />
    <path
       sodipodi:type="inkscape:offset"
       inkscape:radius="0.65863007"
       inkscape:original="M 184.34375 701.46875 A 2.2363 2.2363 0 0 0 184.125 701.5 A 2.2363 2.2363 0 0 0 182.65625 702.40625 C 182.65625 702.40625 179.3282 707.1736 178.625 713.5625 C 173.6069 709.5396 167.875 708.5 167.875 708.5 A 2.2363 2.2363 0 0 0 165.28125 711.0625 C 165.28125 711.0625 166.31525 716.82765 170.34375 721.84375 C 163.94595 722.54658 159.15625 725.875 159.15625 725.875 A 2.2363 2.2363 0 0 0 159.15625 729.5 C 159.15625 729.5 163.95055 732.8031 170.34375 733.5 C 166.31525 738.5164 165.28125 744.28125 165.28125 744.28125 A 2.2363 2.2363 0 0 0 167.875 746.84375 C 167.875 746.84375 173.6069 745.80415 178.625 741.78125 C 179.32767 748.17465 182.65625 752.96875 182.65625 752.96875 A 2.2363 2.2363 0 0 0 186.28125 752.96875 C 186.28125 752.96875 189.59235 748.1545 190.28125 741.75 C 195.30745 745.7967 201.0625 746.84375 201.0625 746.84375 A 2.2363 2.2363 0 0 0 203.65625 744.25 C 203.65625 744.25 202.5939 738.5127 198.5625 733.5 C 204.9595 732.80368 209.78125 729.5 209.78125 729.5 A 2.2363 2.2363 0 0 0 209.78125 725.875 C 209.78125 725.875 204.9648 722.54595 198.5625 721.84375 C 202.5938 716.83105 203.65625 711.09375 203.65625 711.09375 A 2.2363 2.2363 0 0 0 201.0625 708.5 C 201.0625 708.5 195.30725 709.54695 190.28125 713.59375 C 189.5886 707.20015 186.28125 702.40625 186.28125 702.40625 A 2.2363 2.2363 0 0 0 184.34375 701.46875 z "
       style="opacity:0.2;color:#000000;fill:#f9f9f9;fill-rule:evenodd;enable-background:new"
       id="path3971"
       d="m 184.28125,700.8125 c -0.0259,0.002 -0.0993,0.0276 -0.125,0.0313 -0.0206,0.003 -0.0881,-0.007 -0.125,0 -0.009,0.002 -0.0262,-9.9e-4 -0.0313,0 -0.0368,0.006 -0.10441,0.0269 -0.125,0.0313 -0.0255,0.005 -0.0998,0.0247 -0.125,0.0313 -0.0252,0.007 -0.13141,0.0234 -0.15625,0.0313 -0.0248,0.008 -0.10058,0.0534 -0.125,0.0625 -0.0244,0.009 -0.10106,0.0523 -0.125,0.0625 -0.0239,0.0102 -0.10159,0.0198 -0.125,0.0313 -0.0234,0.0114 -0.13344,0.0812 -0.15625,0.0937 -0.0228,0.0126 -0.0716,0.0488 -0.0937,0.0625 -0.0222,0.0137 -0.10354,0.0477 -0.125,0.0625 -0.0215,0.0148 -0.1043,0.0779 -0.125,0.0937 -0.0207,0.0158 -0.10511,0.077 -0.125,0.0937 -0.0199,0.0168 -0.0747,0.076 -0.0937,0.0937 -0.019,0.0178 -0.0756,0.0751 -0.0937,0.0937 -0.0181,0.0187 -0.0766,0.10544 -0.0937,0.125 -0.0172,0.0196 -0.0776,0.0734 -0.0937,0.0937 -0.0162,0.0204 -0.0786,0.10383 -0.0937,0.125 0,0 -2.99081,4.43641 -3.9375,10.46875 C 173.24716,708.89446 168,707.84375 168,707.84375 c -0.0308,-0.005 -0.15638,-0.0277 -0.1875,-0.0313 -0.0311,-0.004 -0.12497,0.002 -0.15625,0 -0.0313,-0.002 -0.15617,-1.6e-4 -0.1875,0 -0.0313,1.6e-4 -0.12499,-0.002 -0.15625,0 -0.0313,0.002 -0.15641,0.0274 -0.1875,0.0313 -0.0311,0.004 -0.12545,-0.006 -0.15625,0 -0.0308,0.006 -0.1571,0.055 -0.1875,0.0625 -0.0304,0.008 -0.12635,0.0219 -0.15625,0.0313 -0.0299,0.009 -0.12696,0.0514 -0.15625,0.0625 -0.0293,0.0111 -0.12767,0.0497 -0.15625,0.0625 -0.0286,0.0128 -0.12849,0.048 -0.15625,0.0625 -0.0278,0.0145 -0.1294,0.0776 -0.15625,0.0937 -0.0268,0.0161 -0.13041,0.0761 -0.15625,0.0937 -0.0258,0.0177 -0.10026,0.0745 -0.125,0.0937 -0.0247,0.0192 -0.10144,0.10435 -0.125,0.125 -0.0236,0.0207 -0.10272,0.10298 -0.125,0.125 -0.0223,0.022 -0.10407,0.1017 -0.125,0.125 -0.0209,0.0233 -0.10549,0.10049 -0.125,0.125 -0.0195,0.0245 -0.0757,0.0994 -0.0937,0.125 -0.018,0.0256 -0.0773,0.1296 -0.0937,0.15625 -0.0165,0.0267 -0.0789,0.12866 -0.0937,0.15625 -0.0148,0.0276 -0.0493,0.12783 -0.0625,0.15625 -0.0132,0.0284 -0.0823,0.12709 -0.0937,0.15625 -0.0115,0.0292 -0.0215,0.12646 -0.0313,0.15625 -0.01,0.0298 -0.0546,0.12594 -0.0625,0.15625 -0.008,0.0303 -0.0252,0.12552 -0.0313,0.15625 -0.006,0.0307 -0.027,0.15646 -0.0313,0.1875 -0.004,0.031 -0.0289,0.12502 -0.0313,0.15625 -0.002,0.0312 5.3e-4,0.15618 0,0.1875 -5.3e-4,0.0313 -0.001,0.12495 0,0.15625 0.001,0.0313 -0.003,0.15634 0,0.1875 0.003,0.0312 0.0262,0.12533 0.0313,0.15625 a 0.65869594,0.65869594 0 0 0 0,0.0313 c 0,0 1.04544,5.27563 4.65625,10.21875 -6.04524,0.94503 -10.5,3.9375 -10.5,3.9375 -0.0252,0.0182 -0.13219,0.0741 -0.15625,0.0937 -0.0241,0.0196 -0.10215,0.10397 -0.125,0.125 -0.0229,0.021 -0.10343,0.10265 -0.125,0.125 -0.0216,0.0223 -0.0735,0.10142 -0.0937,0.125 -0.0202,0.0236 -0.10621,0.10027 -0.125,0.125 -0.0188,0.0247 -0.0764,0.0992 -0.0937,0.125 -0.0173,0.0258 -0.078,0.12948 -0.0937,0.15625 -0.0157,0.0268 -0.0796,0.12859 -0.0937,0.15625 -0.0141,0.0277 -0.05,0.12781 -0.0625,0.15625 -0.0125,0.0284 -0.0517,0.12712 -0.0625,0.15625 -0.0108,0.0291 -0.0535,0.12653 -0.0625,0.15625 -0.009,0.0297 -0.024,0.12605 -0.0313,0.15625 -0.007,0.0302 -0.0258,0.15693 -0.0313,0.1875 -0.005,0.0306 -0.0276,0.12541 -0.0313,0.15625 -0.004,0.0308 -0.0294,0.15649 -0.0313,0.1875 -0.002,0.031 0,0.12519 0,0.15625 0,0.0311 -0.002,0.12524 0,0.15625 0.002,0.031 0.0276,0.15666 0.0313,0.1875 0.004,0.0308 0.0258,0.12568 0.0313,0.15625 0.005,0.0306 0.024,0.1573 0.0313,0.1875 0.007,0.0302 0.0222,0.12653 0.0313,0.15625 0.009,0.0297 0.0517,0.12712 0.0625,0.15625 0.0108,0.0291 0.05,0.12781 0.0625,0.15625 0.0125,0.0284 0.0484,0.12859 0.0625,0.15625 0.0141,0.0277 0.078,0.12948 0.0937,0.15625 0.0157,0.0268 0.0764,0.13045 0.0937,0.15625 0.0173,0.0258 0.075,0.10027 0.0937,0.125 0.0188,0.0247 0.10478,0.10142 0.125,0.125 0.0202,0.0236 0.0722,0.10265 0.0937,0.125 0.0216,0.0223 0.10215,0.10397 0.125,0.125 0.0229,0.021 0.10094,0.10535 0.125,0.125 0.0241,0.0196 0.13108,0.0756 0.15625,0.0937 0,0 4.46,2.96882 10.5,3.90625 -3.61079,4.94332 -4.65625,10.21875 -4.65625,10.21875 a 0.65869594,0.65869594 0 0 0 0,0.0313 c -0.005,0.0309 -0.0281,0.12509 -0.0313,0.15625 -0.003,0.0312 0.001,0.1562 0,0.1875 -0.001,0.0313 -5.3e-4,0.12493 0,0.15625 5.3e-4,0.0313 -0.002,0.15627 0,0.1875 0.002,0.0312 0.027,0.12521 0.0313,0.15625 0.004,0.031 0.0252,0.15677 0.0313,0.1875 0.006,0.0307 0.0233,0.12594 0.0313,0.15625 0.008,0.0303 0.0528,0.12646 0.0625,0.15625 0.01,0.0298 0.0198,0.12709 0.0313,0.15625 0.0115,0.0292 0.0806,0.12783 0.0937,0.15625 0.0132,0.0284 0.0477,0.12866 0.0625,0.15625 0.0148,0.0276 0.0773,0.1296 0.0937,0.15625 0.0165,0.0267 0.0757,0.13062 0.0937,0.15625 0.018,0.0256 0.0742,0.10049 0.0937,0.125 0.0195,0.0245 0.10407,0.1017 0.125,0.125 0.0209,0.0233 0.10272,0.10298 0.125,0.125 0.0223,0.022 0.10144,0.10435 0.125,0.125 0.0236,0.0207 0.10026,0.10579 0.125,0.125 0.0247,0.0192 0.0992,0.0761 0.125,0.0937 0.0258,0.0177 0.1294,0.0776 0.15625,0.0937 0.0268,0.0161 0.12849,0.0792 0.15625,0.0937 0.0278,0.0145 0.12767,0.0497 0.15625,0.0625 0.0286,0.0128 0.12696,0.0514 0.15625,0.0625 0.0293,0.0111 0.12635,0.0532 0.15625,0.0625 0.0299,0.009 0.12585,0.0237 0.15625,0.0313 0.0304,0.008 0.1567,0.0568 0.1875,0.0625 0.0308,0.006 0.12516,-0.004 0.15625,0 0.0311,0.004 0.15624,0.0292 0.1875,0.0313 0.0313,0.002 0.12492,-1.6e-4 0.15625,0 0.0313,1.6e-4 0.15622,0.002 0.1875,0 0.0313,-0.002 0.12513,0.004 0.15625,0 0.0311,-0.004 0.15665,-0.0258 0.1875,-0.0313 0,0 5.24716,-1.05071 10.1875,-4.65625 0.94491,6.04199 3.9375,10.5 3.9375,10.5 0.0182,0.0252 0.0741,0.13219 0.0937,0.15625 0.0197,0.0241 0.10397,0.10215 0.125,0.125 0.021,0.0228 0.10265,0.10343 0.125,0.125 0.0223,0.0216 0.10142,0.0735 0.125,0.0937 0.0236,0.0202 0.10027,0.10621 0.125,0.125 0.0247,0.0188 0.0992,0.0765 0.125,0.0937 0.0258,0.0173 0.12948,0.078 0.15625,0.0937 0.0268,0.0157 0.12859,0.0796 0.15625,0.0937 0.0277,0.0141 0.12781,0.05 0.15625,0.0625 0.0284,0.0125 0.12712,0.0517 0.15625,0.0625 0.0291,0.0108 0.12653,0.0535 0.15625,0.0625 0.0297,0.009 0.12605,0.024 0.15625,0.0313 0.0302,0.007 0.15693,0.0258 0.1875,0.0313 0.0306,0.005 0.12541,0.0276 0.15625,0.0313 0.0308,0.004 0.15649,0.0294 0.1875,0.0313 0.031,0.002 0.12519,0 0.15625,0 0.0311,0 0.12524,0.002 0.15625,0 0.031,-0.002 0.15666,-0.0276 0.1875,-0.0313 0.0308,-0.004 0.12568,-0.0258 0.15625,-0.0313 0.0306,-0.005 0.1573,-0.024 0.1875,-0.0313 0.0302,-0.007 0.12653,-0.0222 0.15625,-0.0313 0.0297,-0.009 0.12712,-0.0517 0.15625,-0.0625 0.0291,-0.0108 0.12781,-0.05 0.15625,-0.0625 0.0284,-0.0125 0.12859,-0.0484 0.15625,-0.0625 0.0277,-0.0141 0.12948,-0.078 0.15625,-0.0937 0.0268,-0.0157 0.13045,-0.0765 0.15625,-0.0937 0.0258,-0.0173 0.10027,-0.075 0.125,-0.0937 0.0247,-0.0188 0.10142,-0.10478 0.125,-0.125 0.0236,-0.0202 0.10265,-0.0722 0.125,-0.0937 0.0223,-0.0216 0.10397,-0.10215 0.125,-0.125 0.021,-0.0228 0.10535,-0.10094 0.125,-0.125 0.0197,-0.0241 0.0756,-0.13108 0.0937,-0.15625 0,0 2.97497,-4.47925 3.90625,-10.53125 4.95063,3.62891 10.21875,4.6875 10.21875,4.6875 0.0311,0.006 0.15611,0.0276 0.1875,0.0313 0.0314,0.004 0.12469,-0.002 0.15625,0 0.0316,0.002 0.15589,1.3e-4 0.1875,0 0.0316,-1.3e-4 0.12471,0.002 0.15625,0 0.0315,-0.002 0.15614,-0.0273 0.1875,-0.0313 0.0314,-0.004 0.15643,0.006 0.1875,0 0.0311,-0.006 0.12558,-0.0548 0.15625,-0.0625 0.0307,-0.008 0.1261,-0.0218 0.15625,-0.0313 0.0301,-0.009 0.15797,-0.0512 0.1875,-0.0625 0.0295,-0.0113 0.12745,-0.0495 0.15625,-0.0625 0.0288,-0.013 0.12829,-0.0478 0.15625,-0.0625 0.028,-0.0147 0.12922,-0.0774 0.15625,-0.0937 0.027,-0.0164 0.099,-0.0758 0.125,-0.0937 0.026,-0.018 0.13138,-0.10549 0.15625,-0.125 0.0249,-0.0195 0.10135,-0.0728 0.125,-0.0937 0.0237,-0.021 0.10265,-0.10265 0.125,-0.125 0.0223,-0.0223 0.10403,-0.10135 0.125,-0.125 0.021,-0.0236 0.0742,-0.10013 0.0937,-0.125 0.0195,-0.0249 0.10702,-0.13025 0.125,-0.15625 0.018,-0.026 0.0774,-0.098 0.0937,-0.125 0.0164,-0.027 0.079,-0.12829 0.0937,-0.15625 0.0147,-0.028 0.0495,-0.12745 0.0625,-0.15625 0.013,-0.0288 0.0512,-0.12672 0.0625,-0.15625 0.0113,-0.0295 0.053,-0.15735 0.0625,-0.1875 0.009,-0.0302 0.0236,-0.12558 0.0313,-0.15625 0.008,-0.0307 0.0567,-0.12518 0.0625,-0.15625 0.006,-0.0311 -0.004,-0.15614 0,-0.1875 0.004,-0.0314 0.0292,-0.15596 0.0313,-0.1875 0.002,-0.0315 -1.3e-4,-0.12464 0,-0.15625 1.3e-4,-0.0316 0.002,-0.15594 0,-0.1875 -0.002,-0.0316 0.004,-0.12486 0,-0.15625 -0.004,-0.0314 -0.0257,-0.15638 -0.0313,-0.1875 0,0 -1.07072,-5.25087 -4.6875,-10.1875 6.0456,-0.93686 10.53125,-3.90625 10.53125,-3.90625 0.0252,-0.0182 0.13219,-0.0741 0.15625,-0.0937 0.0241,-0.0196 0.10215,-0.10397 0.125,-0.125 0.0229,-0.021 0.10343,-0.10265 0.125,-0.125 0.0216,-0.0223 0.0735,-0.10142 0.0937,-0.125 0.0202,-0.0236 0.10621,-0.10027 0.125,-0.125 0.0188,-0.0247 0.0764,-0.0992 0.0937,-0.125 0.0173,-0.0258 0.078,-0.12948 0.0937,-0.15625 0.0157,-0.0268 0.0796,-0.12859 0.0937,-0.15625 0.0141,-0.0277 0.05,-0.12781 0.0625,-0.15625 0.0125,-0.0284 0.0517,-0.12712 0.0625,-0.15625 0.0108,-0.0291 0.0535,-0.12653 0.0625,-0.15625 0.009,-0.0297 0.024,-0.12605 0.0313,-0.15625 0.007,-0.0302 0.0258,-0.15693 0.0313,-0.1875 0.005,-0.0306 0.0276,-0.12541 0.0313,-0.15625 0.004,-0.0308 0.0294,-0.15649 0.0313,-0.1875 0.002,-0.031 0,-0.12519 0,-0.15625 0,-0.0311 0.002,-0.12524 0,-0.15625 -0.002,-0.031 -0.0276,-0.15666 -0.0313,-0.1875 -0.004,-0.0308 -0.0258,-0.12568 -0.0313,-0.15625 -0.005,-0.0306 -0.024,-0.1573 -0.0313,-0.1875 -0.007,-0.0302 -0.0222,-0.12653 -0.0313,-0.15625 -0.009,-0.0297 -0.0517,-0.12712 -0.0625,-0.15625 -0.0108,-0.0291 -0.05,-0.12781 -0.0625,-0.15625 -0.0125,-0.0284 -0.0484,-0.12859 -0.0625,-0.15625 -0.0141,-0.0277 -0.078,-0.12948 -0.0937,-0.15625 -0.0157,-0.0268 -0.0764,-0.13045 -0.0937,-0.15625 -0.0173,-0.0258 -0.075,-0.10027 -0.0937,-0.125 -0.0188,-0.0247 -0.10478,-0.10142 -0.125,-0.125 -0.0202,-0.0236 -0.0722,-0.10265 -0.0937,-0.125 -0.0216,-0.0223 -0.10215,-0.10397 -0.125,-0.125 -0.0229,-0.021 -0.10094,-0.10535 -0.125,-0.125 -0.0241,-0.0196 -0.13108,-0.0756 -0.15625,-0.0937 0,0 -4.47988,-2.99307 -10.53125,-3.9375 3.6167,-4.93662 4.6875,-10.1875 4.6875,-10.1875 0.006,-0.0311 0.0276,-0.15611 0.0313,-0.1875 0.004,-0.0314 -0.002,-0.12469 0,-0.15625 0.002,-0.0316 1.3e-4,-0.15589 0,-0.1875 -1.3e-4,-0.0316 0.002,-0.12471 0,-0.15625 -0.002,-0.0315 -0.0273,-0.15614 -0.0313,-0.1875 -0.004,-0.0314 0.006,-0.15643 0,-0.1875 -0.006,-0.0311 -0.0548,-0.12558 -0.0625,-0.15625 -0.008,-0.0307 -0.0218,-0.1261 -0.0313,-0.15625 -0.009,-0.0302 -0.0512,-0.15797 -0.0625,-0.1875 -0.0113,-0.0295 -0.0495,-0.12745 -0.0625,-0.15625 -0.013,-0.0288 -0.0478,-0.12829 -0.0625,-0.15625 -0.0147,-0.028 -0.0774,-0.12922 -0.0937,-0.15625 -0.0164,-0.027 -0.0758,-0.099 -0.0937,-0.125 -0.018,-0.026 -0.10549,-0.13138 -0.125,-0.15625 -0.0195,-0.0249 -0.0728,-0.10135 -0.0937,-0.125 -0.021,-0.0236 -0.10265,-0.10265 -0.125,-0.125 -0.0223,-0.0223 -0.10135,-0.10403 -0.125,-0.125 -0.0237,-0.021 -0.10013,-0.0742 -0.125,-0.0937 -0.0249,-0.0195 -0.13025,-0.10702 -0.15625,-0.125 -0.026,-0.018 -0.098,-0.0774 -0.125,-0.0937 -0.027,-0.0164 -0.12829,-0.079 -0.15625,-0.0937 -0.028,-0.0147 -0.12745,-0.0495 -0.15625,-0.0625 -0.0288,-0.013 -0.12672,-0.0512 -0.15625,-0.0625 -0.0295,-0.0113 -0.15735,-0.053 -0.1875,-0.0625 -0.0301,-0.009 -0.12558,-0.0236 -0.15625,-0.0313 -0.0307,-0.008 -0.12518,-0.0567 -0.15625,-0.0625 -0.0311,-0.006 -0.15614,0.004 -0.1875,0 -0.0314,-0.004 -0.15596,-0.0292 -0.1875,-0.0313 -0.0315,-0.002 -0.12464,1.3e-4 -0.15625,0 -0.0316,-1.3e-4 -0.15594,-0.002 -0.1875,0 -0.0316,0.002 -0.12486,-0.004 -0.15625,0 -0.0314,0.004 -0.15638,0.0257 -0.1875,0.0313 0,0 -5.26825,1.05849 -10.21875,4.6875 -0.93423,-6.04077 -3.90625,-10.5 -3.90625,-10.5 -0.0191,-0.0269 -0.073,-0.1306 -0.0937,-0.15625 -0.0208,-0.0257 -0.10266,-0.10071 -0.125,-0.125 -0.0223,-0.0243 -0.10118,-0.10216 -0.125,-0.125 -0.0238,-0.0228 -0.13104,-0.1037 -0.15625,-0.125 -0.0252,-0.0213 -0.0985,-0.10532 -0.125,-0.125 -0.0265,-0.0197 -0.12857,-0.0758 -0.15625,-0.0937 -0.0277,-0.018 -0.1275,-0.0775 -0.15625,-0.0937 -0.0288,-0.0162 -0.12654,-0.0794 -0.15625,-0.0937 -0.0297,-0.0144 -0.1257,-0.05 -0.15625,-0.0625 -0.0306,-0.0125 -0.15623,-0.052 -0.1875,-0.0625 -0.0313,-0.0105 -0.12438,-0.0539 -0.15625,-0.0625 -0.0319,-0.009 -0.15515,-0.0247 -0.1875,-0.0313 -0.0324,-0.007 -0.1548,-0.0267 -0.1875,-0.0313 -0.0327,-0.005 -0.12334,-0.0288 -0.15625,-0.0313 -0.0329,-0.002 -0.1545,3.7e-4 -0.1875,0 -0.033,-3.7e-4 -0.15454,-0.002 -0.1875,0 a 0.65869594,0.65869594 0 0 0 -0.0313,0 z"
       transform="matrix(1.4426658,0,0,1.4467808,-218.11907,-1004.7918)" />
    <path
       transform="matrix(1.4426658,0,0,1.4467808,-218.11907,-1004.7918)"
       clip-path="url(#clipPath3983)"
       d="m 184.12,701.5 a 2.2363,2.2363 0 0 0 -1.4688,0.90625 c 0,0 -3.328,4.7671 -4.0312,11.156 -5.0181,-4.0229 -10.75,-5.0625 -10.75,-5.0625 a 2.2363,2.2363 0 0 0 -2.5938,2.5625 c 0,0 1.034,5.7649 5.0625,10.781 -6.3978,0.70283 -11.188,4.0312 -11.188,4.0312 a 2.2363,2.2363 0 0 0 0,3.625 c 0,0 4.7948,3.3031 11.188,4 -4.0285,5.0164 -5.0625,10.781 -5.0625,10.781 a 2.2363,2.2363 0 0 0 2.5938,2.5625 c 0,0 5.7319,-1.0396 10.75,-5.0625 0.70267,6.3934 4.0312,11.188 4.0312,11.188 a 2.2363,2.2363 0 0 0 3.625,0 c 0,0 3.3111,-4.8145 4,-11.219 5.0262,4.0467 10.781,5.0938 10.781,5.0938 a 2.2363,2.2363 0 0 0 2.5938,-2.5938 c 0,0 -1.0624,-5.7373 -5.0938,-10.75 6.397,-0.69632 11.219,-4 11.219,-4 a 2.2363,2.2363 0 0 0 0,-3.625 c 0,0 -4.8167,-3.329 -11.219,-4.0312 4.0313,-5.0127 5.0938,-10.75 5.0938,-10.75 a 2.2363,2.2363 0 0 0 -2.59,-2.6 c 0,0 -5.755,1.047 -10.781,5.0938 -0.69265,-6.3936 -4,-11.188 -4,-11.188 a 2.2363,2.2363 0 0 0 -2.16,-0.91 z"
       style="color:#000000;fill:url(#linearGradient3983);fill-opacity:1;fill-rule:evenodd;enable-background:new"
       id="path3979"
       inkscape:connector-curvature="0" />
    <path
       d="m 53.570364,30.68502 c 0,9.584875 -5.569934,17.354953 -5.569934,17.354953 0,0 -5.569932,-7.770078 -5.569932,-17.354953 0,-9.584875 5.569932,-17.354953 5.569932,-17.354953 0,0 5.569934,7.770078 5.569934,17.354953 z"
       style="color:#000000;fill:#d5be00;fill-rule:evenodd;enable-background:new"
       id="path3689"
       inkscape:connector-curvature="0" />
    <path
       transform="matrix(0.43371689,0,0,0.43378663,-150.90115,-266.84888)"
       clip-path="url(#clipPath4169)"
       d="m 471.43,685.93 c 0,22.097 -12.842,40.01 -12.842,40.01 0,0 -12.842,-17.913 -12.842,-40.01 0,-22.097 12.842,-40.01 12.842,-40.01 0,0 12.842,17.913 12.842,40.01 z"
       style="color:#000000;fill:#edd400;fill-rule:evenodd;filter:url(#filter4173);enable-background:new"
       id="path4165"
       inkscape:connector-curvature="0" />
    <path
       d="m 53.570364,65.331458 c 0,9.584874 -5.569934,17.354951 -5.569934,17.354951 0,0 -5.569932,-7.770077 -5.569932,-17.354951 0,-9.584876 5.569932,-17.354953 5.569932,-17.354953 0,0 5.569934,7.770077 5.569934,17.354953 z"
       style="color:#000000;fill:#23446e;fill-rule:evenodd;enable-background:new"
       id="path3691"
       inkscape:connector-curvature="0" />
    <path
       d="m 65.294703,53.58968 c -9.569878,0 -17.32775,-5.578651 -17.32775,-5.578651 0,0 7.757872,-5.578653 17.32775,-5.578653 9.56988,0 17.327753,5.578653 17.327753,5.578653 0,0 -7.757873,5.578651 -17.327753,5.578651 z"
       style="color:#000000;fill:#56aa07;fill-rule:evenodd;enable-background:new"
       id="path3693"
       inkscape:connector-curvature="0" />
    <path
       d="m 30.702669,53.58968 c -9.569879,0 -17.327751,-5.578651 -17.327751,-5.578651 0,0 7.757872,-5.578653 17.327751,-5.578653 9.569881,0 17.327752,5.578653 17.327752,5.578653 0,0 -7.757871,5.578651 -17.327752,5.578651 z"
       style="color:#000000;fill:#ca0f0f;fill-rule:evenodd;enable-background:new"
       id="path3695"
       inkscape:connector-curvature="0" />
    <path
       d="m 64.168303,39.703207 c -6.766779,6.777588 -16.191237,8.327002 -16.191237,8.327002 0,0 1.54718,-9.439106 8.314098,-16.216694 6.766919,-6.77759 16.191237,-8.327351 16.191237,-8.327351 0,0 -1.54718,9.439105 -8.314098,16.216694 z"
       style="color:#000000;fill:#85b912;fill-rule:evenodd;enable-background:new"
       id="path3697"
       inkscape:connector-curvature="0" />
    <path
       transform="matrix(0.43371689,0,0,0.43378663,-120.54063,-310.22755)"
       clip-path="url(#clipPath4145)"
       d="m 401.43,865.8 c 0,22.097 -12.842,40.01 -12.842,40.01 0,0 -12.842,-17.913 -12.842,-40.01 0,-22.097 12.842,-40.01 12.842,-40.01 0,0 12.842,17.913 12.842,40.01 z"
       style="color:#000000;fill:#3465a4;fill-rule:evenodd;filter:url(#filter4149);enable-background:new"
       id="path4141"
       inkscape:connector-curvature="0" />
    <path
       transform="matrix(0.43371689,0,0,0.43378663,-120.54063,-249.49951)"
       clip-path="url(#clipPath4181)"
       d="m 348.71,698.73 c -22.064,0 -39.951,-12.861 -39.951,-12.861 0,0 17.887,-12.861 39.951,-12.861 22.064,0 39.951,12.861 39.951,12.861 0,0 -17.887,12.861 -39.951,12.861 z"
       style="color:#000000;fill:#ef2929;fill-rule:evenodd;filter:url(#filter4189);enable-background:new"
       id="path4177"
       inkscape:connector-curvature="0" />
    <path
       d="m 39.708301,64.205055 c -6.766777,6.777589 -16.191236,8.327003 -16.191236,8.327003 0,0 1.54718,-9.439107 8.314099,-16.216696 6.766917,-6.777589 16.191237,-8.32735 16.191237,-8.32735 0,0 -1.547181,9.439105 -8.3141,16.216694 z"
       style="color:#000000;fill:#593d5e;fill-rule:evenodd;enable-background:new"
       id="path3699"
       inkscape:connector-curvature="0" />
    <path
       d="m 39.708301,31.81491 c 6.76678,6.777588 8.3141,16.216694 8.3141,16.216694 0,0 -9.42411,-1.549587 -16.191237,-8.327002 -6.767825,-6.775845 -8.315146,-16.214951 -8.315146,-16.214951 0,0 9.424111,1.549621 16.191238,8.327351 z"
       style="color:#000000;fill:#c96300;fill-rule:evenodd;enable-background:new"
       id="path3701"
       inkscape:connector-curvature="0" />
    <path
       transform="matrix(0.43371689,0,0,0.43378663,-90.18009,-266.84888)"
       clip-path="url(#clipPath4197)"
       d="m 299.47,763.2 c -15.602,15.625 -37.33,19.197 -37.33,19.197 0,0 3.5672,-21.76 19.169,-37.385 15.6018,-15.625 37.33,-19.197 37.33,-19.197 0,0 -3.5672,21.76 -19.169,37.385 z"
       style="color:#000000;fill:#75507b;fill-rule:evenodd;filter:url(#filter4201);enable-background:new"
       id="path4193"
       inkscape:connector-curvature="0" />
    <path
       d="m 64.168303,56.313271 c 6.766778,6.777587 8.314098,16.216694 8.314098,16.216694 0,0 -9.424109,-1.549587 -16.191237,-8.327003 -6.766779,-6.777588 -8.314098,-16.216694 -8.314098,-16.216694 0,0 9.42411,1.549622 16.191237,8.327351 z"
       style="color:#000000;fill:#3f7bba;fill-rule:evenodd;enable-background:new"
       id="path3703"
       inkscape:connector-curvature="0" />
    <path
       transform="matrix(0.43371689,0,0,0.43378663,-168.25053,-266.84888)"
       clip-path="url(#clipPath4133)"
       d="m 538.47,738.73 c -22.064,0 -39.951,-12.861 -39.951,-12.861 0,0 17.887,-12.861 39.951,-12.861 22.064,0 39.951,12.861 39.951,12.861 0,0 -17.887,12.861 -39.951,12.861 z"
       style="color:#000000;fill:#65c808;fill-rule:evenodd;filter:url(#filter4137);enable-background:new"
       id="path4129"
       inkscape:connector-curvature="0" />
    <path
       transform="matrix(0.43371689,0,0,0.43378663,-159.57757,-266.84888)"
       clip-path="url(#clipPath4071)"
       d="m 515.87,706.72 c -15.602,15.625 -37.33,19.197 -37.33,19.197 0,0 3.5672,-21.76 19.169,-37.385 15.6018,-15.625 37.33,-19.197 37.33,-19.197 0,0 -3.5672,21.76 -19.169,37.385 z"
       style="color:#000000;fill:#afea2c;fill-rule:evenodd;filter:url(#filter4075);enable-background:new"
       id="path4067"
       inkscape:connector-curvature="0" />
    <path
       transform="matrix(0.43371689,0,0,0.43378663,-159.57757,-266.84888)"
       clip-path="url(#clipPath4083)"
       d="m 515.87,745.01 c 15.602,15.625 19.169,37.385 19.169,37.385 0,0 -21.729,-3.5724 -37.33,-19.197 -15.602,-15.625 -19.169,-37.385 -19.169,-37.385 0,0 21.729,3.5724 37.33,19.197 z"
       style="color:#000000;fill:#729fcf;fill-rule:evenodd;filter:url(#filter4087);enable-background:new"
       id="path4079"
       inkscape:connector-curvature="0" />
    <path
       transform="matrix(0.43371689,0,0,0.43378663,-77.168931,-266.84888)"
       clip-path="url(#clipPath4157)"
       d="m 269.47,688.53 c 15.602,15.625 19.169,37.385 19.169,37.385 0,0 -21.729,-3.5724 -37.33,-19.197 -15.602,-15.625 -19.169,-37.385 -19.169,-37.385 0,0 21.729,3.5724 37.33,19.197 z"
       style="color:#000000;fill:#f57900;fill-rule:evenodd;filter:url(#filter4161);enable-background:new"
       id="path4153"
       inkscape:connector-curvature="0" />
    <path
       d="m 55.392749,47.912111 c 0,4.268648 -3.450355,7.728909 -7.706783,7.728909 -4.256427,0 -7.706783,-3.460261 -7.706783,-7.728909 0,-4.268649 3.450356,-7.728912 7.706783,-7.728912 4.256428,0 7.706783,3.460263 7.706783,7.728912 z"
       style="opacity:0.1;color:#000000;fill:#ffffff;fill-rule:evenodd;enable-background:new"
       id="path3705"
       inkscape:connector-curvature="0" />
    <path
       d="m 64.269965,47.816422 c 0,9.188892 -7.427644,16.637613 -16.590535,16.637613 -9.162891,0 -16.590534,-7.448721 -16.590534,-16.637613 0,-9.188891 7.427643,-16.637613 16.590534,-16.637613 9.162891,0 16.590535,7.448722 16.590535,16.637613 z"
       style="opacity:0.1;color:#000000;fill:#ffffff;fill-rule:evenodd;enable-background:new"
       id="path3707"
       inkscape:connector-curvature="0" />
    <path
       d="m 47.690757,23.000033 c -1.447339,0 -2.859734,0.132344 -4.239175,0.370526 -0.602678,2.223057 -1.024397,4.697758 -1.024397,7.312544 0,1.75757 0.184523,3.457773 0.490385,5.056601 -0.912594,-1.347462 -1.973748,-2.680174 -3.214882,-3.923226 -1.87321,-1.876138 -3.948683,-3.347992 -5.972021,-4.500724 -2.506715,1.712165 -4.683807,3.871265 -6.418745,6.364343 1.154789,2.040739 2.636269,4.137346 4.522694,6.026424 1.238833,1.24075 2.55864,2.301973 3.901604,3.214881 -1.592795,-0.305004 -3.284386,-0.490385 -5.03498,-0.490385 -2.670548,0 -5.195047,0.441492 -7.454128,1.067988 -0.256226,1.43496 -0.403202,2.915672 -0.403202,4.424701 0,1.577834 0.156288,3.113332 0.435913,4.609876 2.250712,0.62158 4.764016,1.057075 7.421348,1.057075 1.746549,0 3.434199,-0.186596 5.023819,-0.490386 -1.338813,0.91113 -2.655308,1.977724 -3.890444,3.214882 -1.856539,1.859435 -3.321419,3.918343 -4.467943,5.92843 1.758616,2.505702 3.966817,4.666719 6.505928,6.375152 1.977585,-1.140455 4.001689,-2.582005 5.830436,-4.41354 1.241099,-1.243052 2.302253,-2.575763 3.214882,-3.923225 -0.305879,1.598828 -0.490385,3.299031 -0.490385,5.056601 0,2.537472 0.395983,4.94431 0.969891,7.116207 1.396773,0.244404 2.827232,0.381442 4.293577,0.381442 1.688904,0 3.342448,-0.179258 4.936638,-0.501301 0.55654,-2.140337 0.937214,-4.505955 0.937214,-6.996243 0,-1.75764 -0.184496,-3.457739 -0.490385,-5.056602 0.912699,1.347671 1.973573,2.679964 3.214882,3.923225 1.725731,1.728417 3.621224,3.119051 5.492515,4.228366 2.586399,-1.78955 4.822254,-4.049816 6.571489,-6.669483 -1.102268,-1.855808 -2.476165,-3.7377 -4.184773,-5.448924 -1.235206,-1.237158 -2.562616,-2.303717 -3.901604,-3.214882 1.592795,0.305003 3.27347,0.490384 5.023821,0.490384 2.409452,0 4.704382,-0.353438 6.789446,-0.882707 0.301321,-1.550946 0.457709,-3.144788 0.457709,-4.784242 0,-1.570407 -0.147959,-3.109078 -0.425033,-4.599066 -2.093817,-0.534047 -4.399592,-0.893624 -6.821878,-0.893624 -1.758163,0 -3.446719,0.183 -5.045792,0.490387 1.345336,-0.914025 2.682127,-1.971797 3.923226,-3.214884 1.738391,-1.741144 3.127456,-3.659933 4.239175,-5.546916 -1.723951,-2.605092 -3.922527,-4.865845 -6.473146,-6.658672 -1.920532,1.12396 -3.87231,2.540053 -5.645259,4.315547 -1.241309,1.243226 -2.302184,2.575553 -3.214883,3.923226 0.305907,-1.598863 0.490386,-3.298963 0.490386,-5.056603 0,-2.567533 -0.406586,-5.000455 -0.991721,-7.192577 -1.577555,-0.315007 -3.212373,-0.490387 -4.882236,-0.490387 z"
       style="opacity:0.1;color:#000000;fill:#ffffff;fill-rule:evenodd;enable-background:new"
       id="path3906"
       inkscape:connector-curvature="0" />
  </g>
</svg>
