<?xml version="1.0" encoding="UTF-8" standalone="no"?>
<!-- Created with Inkscape (http://www.inkscape.org/) -->

<svg
   xmlns:dc="http://purl.org/dc/elements/1.1/"
   xmlns:cc="http://creativecommons.org/ns#"
   xmlns:rdf="http://www.w3.org/1999/02/22-rdf-syntax-ns#"
   xmlns:svg="http://www.w3.org/2000/svg"
   xmlns="http://www.w3.org/2000/svg"
   xmlns:xlink="http://www.w3.org/1999/xlink"
   xmlns:sodipodi="http://sodipodi.sourceforge.net/DTD/sodipodi-0.dtd"
   xmlns:inkscape="http://www.inkscape.org/namespaces/inkscape"
   width="96"
   height="96"
   id="svg2408"
   sodipodi:version="0.32"
   inkscape:version="0.47 r22583"
   version="1.0"
   sodipodi:docname="scribus.svg"
   inkscape:output_extension="org.inkscape.output.svg.inkscape">
  <sodipodi:namedview
     id="base"
     pagecolor="#ffffff"
     bordercolor="#666666"
     borderopacity="1.0"
     inkscape:pageopacity="0.0"
     inkscape:pageshadow="2"
     inkscape:zoom="2.4804984"
     inkscape:cx="-107.17174"
     inkscape:cy="44.6717"
     inkscape:document-units="px"
     inkscape:current-layer="g3802"
     showgrid="false"
     showborder="true"
     inkscape:showpageshadow="false"
     inkscape:window-width="1920"
     inkscape:window-height="1023"
     inkscape:window-x="0"
     inkscape:window-y="24"
     inkscape:window-maximized="1"
     inkscape:snap-global="false">
    <inkscape:grid
       enabled="true"
       visible="true"
       id="grid3732"
       type="xygrid" />
  </sodipodi:namedview>
  <defs
     id="defs2410">
    <linearGradient
       inkscape:collect="always"
       id="linearGradient10410">
      <stop
         style="stop-color:#ffffff;stop-opacity:1;"
         offset="0"
         id="stop10412" />
      <stop
         style="stop-color:#ffffff;stop-opacity:0;"
         offset="1"
         id="stop10414" />
    </linearGradient>
    <linearGradient
       id="linearGradient10394">
      <stop
         style="stop-color:#1a1a1a;stop-opacity:1;"
         offset="0"
         id="stop10396" />
      <stop
         id="stop10404"
         offset="0.35185185"
         style="stop-color:#636363;stop-opacity:1;" />
      <stop
         id="stop10402"
         offset="0.5"
         style="stop-color:#c7c7c7;stop-opacity:1;" />
      <stop
         style="stop-color:#636363;stop-opacity:1;"
         offset="0.64999998"
         id="stop10406" />
      <stop
         style="stop-color:#000000;stop-opacity:1;"
         offset="1"
         id="stop10398" />
    </linearGradient>
    <linearGradient
       inkscape:collect="always"
       id="linearGradient10386">
      <stop
         style="stop-color:#ffffff;stop-opacity:1;"
         offset="0"
         id="stop10388" />
      <stop
         style="stop-color:#ffffff;stop-opacity:0;"
         offset="1"
         id="stop10390" />
    </linearGradient>
    <linearGradient
       id="linearGradient8204">
      <stop
         id="stop8206"
         offset="0.0000000"
         style="stop-color: rgb(255, 255, 255); stop-opacity: 1;" />
      <stop
         id="stop8208"
         offset="1.0000000"
         style="stop-color:rgb(80, 202, 255);stop-opacity:0" />
    </linearGradient>
    <linearGradient
       id="linearGradient3715">
      <stop
         style="stop-color:#3767a3;stop-opacity:1;"
         offset="0"
         id="stop3717" />
      <stop
         style="stop-color:#6593c6;stop-opacity:1"
         offset="1"
         id="stop3719" />
    </linearGradient>
    <linearGradient
       gradientUnits="userSpaceOnUse"
       y2="7.0165396"
       x2="45.447727"
       y1="92.539597"
       x1="45.447727"
       gradientTransform="scale(1.0058652,0.994169)"
       id="ButtonShadow">
      <stop
         id="stop3750"
         offset="0"
         style="stop-color:#000000;stop-opacity:1;" />
      <stop
         id="stop3752"
         offset="1"
         style="stop-color:#000000;stop-opacity:0.58823532;" />
    </linearGradient>
    <linearGradient
       id="linearGradient3737"
       inkscape:collect="always">
      <stop
         id="stop3739"
         offset="0"
         style="stop-color:#ffffff;stop-opacity:1;" />
      <stop
         id="stop3741"
         offset="1"
         style="stop-color:#ffffff;stop-opacity:0;" />
    </linearGradient>
    <linearGradient
       id="linearGradient3700">
      <stop
         id="stop3702"
         offset="0"
         style="stop-color:#2276c5;stop-opacity:1;" />
      <stop
         id="stop3704"
         offset="1"
         style="stop-color:#68baf4;stop-opacity:1;" />
    </linearGradient>
    <inkscape:perspective
       id="perspective2416"
       inkscape:persp3d-origin="372.04724 : 350.78739 : 1"
       inkscape:vp_z="744.09448 : 526.18109 : 1"
       inkscape:vp_y="0 : 1000 : 0"
       inkscape:vp_x="0 : 526.18109 : 1"
       sodipodi:type="inkscape:persp3d" />
    <linearGradient
       gradientUnits="userSpaceOnUse"
       y2="5.9877172"
       x2="48"
       y1="90"
       x1="48"
       id="linearGradient3706"
       xlink:href="#linearGradient3700"
       inkscape:collect="always" />
    <linearGradient
       gradientUnits="userSpaceOnUse"
       y2="63.893143"
       x2="36.357143"
       y1="6"
       x1="36.357143"
       id="linearGradient3743"
       xlink:href="#linearGradient3737"
       inkscape:collect="always" />
    <filter
       id="filter3174"
       inkscape:collect="always">
      <feGaussianBlur
         id="feGaussianBlur3176"
         stdDeviation="1.71"
         inkscape:collect="always" />
    </filter>
    <linearGradient
       y2="63.893143"
       x2="36.357143"
       y1="6"
       x1="36.357143"
       gradientUnits="userSpaceOnUse"
       id="linearGradient3188"
       xlink:href="#linearGradient3737"
       inkscape:collect="always" />
    <filter
       height="1.384"
       y="-0.192"
       width="1.384"
       x="-0.192"
       id="filter3794"
       inkscape:collect="always">
      <feGaussianBlur
         id="feGaussianBlur3796"
         stdDeviation="5.28"
         inkscape:collect="always" />
    </filter>
    <linearGradient
       gradientUnits="userSpaceOnUse"
       y2="138.66119"
       x2="48"
       y1="20.220806"
       x1="48"
       id="linearGradient3613"
       xlink:href="#linearGradient3737"
       inkscape:collect="always" />
    <radialGradient
       gradientUnits="userSpaceOnUse"
       gradientTransform="matrix(1.1573129,0,0,0.99590774,-7.5510206,0.19713193)"
       r="42"
       fy="90.171875"
       fx="48"
       cy="90.171875"
       cx="48"
       id="radialGradient3619"
       xlink:href="#linearGradient3737"
       inkscape:collect="always" />
    <clipPath
       id="clipPath3613"
       clipPathUnits="userSpaceOnUse">
      <rect
         style="fill:#ffffff;fill-opacity:1;fill-rule:nonzero;stroke:none"
         id="rect3615"
         width="84"
         height="84"
         x="6"
         y="6"
         rx="6"
         ry="6" />
    </clipPath>
    <linearGradient
       y2="5.9877172"
       x2="48"
       y1="90"
       x1="48"
       gradientUnits="userSpaceOnUse"
       id="linearGradient3617"
       xlink:href="#linearGradient3715"
       inkscape:collect="always" />
    <radialGradient
       inkscape:collect="always"
       xlink:href="#linearGradient3607"
       id="radialGradient9483"
       gradientUnits="userSpaceOnUse"
       gradientTransform="matrix(1.51961,0,0,1.36875,24.8008,-8.57401)"
       cx="-47.72971"
       cy="23.251263"
       fx="-47.72971"
       fy="23.251263"
       r="21.093096" />
    <linearGradient
       inkscape:collect="always"
       xlink:href="#linearGradient6531"
       id="linearGradient9472"
       gradientUnits="userSpaceOnUse"
       x1="24.248737"
       y1="77.502068"
       x2="12.359315"
       y2="66.188362" />
    <linearGradient
       inkscape:collect="always"
       xlink:href="#linearGradient7999"
       id="linearGradient9470"
       gradientUnits="userSpaceOnUse"
       x1="56.695236"
       y1="87.602867"
       x2="54.80822"
       y2="71.298843" />
    <linearGradient
       inkscape:collect="always"
       xlink:href="#linearGradient7999"
       id="linearGradient8005"
       x1="56.695236"
       y1="87.602867"
       x2="54.80822"
       y2="71.298843"
       gradientUnits="userSpaceOnUse" />
    <linearGradient
       inkscape:collect="always"
       xlink:href="#linearGradient6531"
       id="linearGradient6529"
       x1="24.248737"
       y1="77.502068"
       x2="12.359315"
       y2="66.188362"
       gradientUnits="userSpaceOnUse" />
    <radialGradient
       inkscape:collect="always"
       xlink:href="#linearGradient3607"
       id="radialGradient3613"
       cx="-47.72971"
       cy="23.251263"
       fx="-47.72971"
       fy="23.251263"
       r="21.093096"
       gradientUnits="userSpaceOnUse"
       gradientTransform="matrix(1.51961, 0, 0, 1.36875, 24.8008, -8.57401)" />
    <linearGradient
       inkscape:collect="always"
       xlink:href="#linearGradient2865"
       id="linearGradient2871"
       x1="-55.170223"
       y1="22.260921"
       x2="-58.209351"
       y2="-8.0743532"
       gradientUnits="userSpaceOnUse" />
    <radialGradient
       inkscape:collect="always"
       xlink:href="#linearGradient2933"
       id="radialGradient2939"
       cx="25.457863"
       cy="35.596233"
       fx="25.457863"
       fy="35.596233"
       r="20.530962"
       gradientUnits="userSpaceOnUse"
       gradientTransform="matrix(2.12819, 0, 0, 2.12825, -29.0191, -39.9178)" />
    <radialGradient
       inkscape:collect="always"
       xlink:href="#linearGradient11508"
       id="radialGradient1348"
       gradientUnits="userSpaceOnUse"
       gradientTransform="matrix(1,0,0,0.338462,0,29.4818)"
       cx="30.203562"
       cy="44.565483"
       fx="30.203562"
       fy="44.565483"
       r="6.5659914" />
    <linearGradient
       id="linearGradient11508"
       inkscape:collect="always">
      <stop
         id="stop11510"
         offset="0"
         style="stop-color: rgb(0, 0, 0); stop-opacity: 1;" />
      <stop
         id="stop11512"
         offset="1"
         style="stop-color: rgb(0, 0, 0); stop-opacity: 0;" />
    </linearGradient>
    <linearGradient
       id="linearGradient2933">
      <stop
         style="stop-color: rgb(156, 188, 222); stop-opacity: 1;"
         offset="0"
         id="stop2935" />
      <stop
         style="stop-color: rgb(32, 74, 135);"
         offset="1"
         id="stop2937" />
    </linearGradient>
    <linearGradient
       id="linearGradient2865">
      <stop
         style="stop-color: rgb(255, 255, 255); stop-opacity: 1;"
         offset="0.0000000"
         id="stop2867" />
      <stop
         style="stop-color: rgb(80, 202, 255); stop-opacity: 0;"
         offset="1.0000000"
         id="stop2869" />
    </linearGradient>
    <linearGradient
       id="linearGradient3599">
      <stop
         style="stop-color: rgb(69, 108, 161); stop-opacity: 1;"
         offset="0"
         id="stop3601" />
      <stop
         style="stop-color: rgb(151, 177, 211); stop-opacity: 0.586735;"
         offset="1.0000000"
         id="stop3603" />
    </linearGradient>
    <linearGradient
       id="linearGradient3607">
      <stop
         style="stop-color: rgb(114, 159, 207); stop-opacity: 1;"
         offset="0.0000000"
         id="stop3609" />
      <stop
         style="stop-color: rgb(52, 101, 164); stop-opacity: 1;"
         offset="1.0000000"
         id="stop3611" />
    </linearGradient>
    <linearGradient
       id="linearGradient6531">
      <stop
         id="stop6533"
         offset="0.0000000"
         style="stop-color: rgb(195, 129, 37); stop-opacity: 1;" />
      <stop
         style="stop-color:#c68d31;stop-opacity:1;"
         offset="0.62962961"
         id="stop10377" />
      <stop
         id="stop6535"
         offset="1"
         style="stop-color:#fffce6;stop-opacity:1;" />
    </linearGradient>
    <linearGradient
       id="linearGradient7999">
      <stop
         style="stop-color: rgb(0, 0, 0); stop-opacity: 1;"
         offset="0"
         id="stop8001" />
      <stop
         style="stop-color: rgb(82, 82, 82); stop-opacity: 1;"
         offset="1.0000000"
         id="stop8003" />
    </linearGradient>
    <inkscape:perspective
       sodipodi:type="inkscape:persp3d"
       inkscape:vp_x="0 : 24 : 1"
       inkscape:vp_y="0 : 1000 : 0"
       inkscape:vp_z="48 : 24 : 1"
       inkscape:persp3d-origin="24 : 16 : 1"
       id="perspective2886" />
    <inkscape:perspective
       sodipodi:type="inkscape:persp3d"
       inkscape:vp_x="0 : 0.5 : 1"
       inkscape:vp_y="0 : 1000 : 0"
       inkscape:vp_z="1 : 0.5 : 1"
       inkscape:persp3d-origin="0.5 : 0.33333333 : 1"
       id="perspective2937" />
    <clipPath
       clipPathUnits="userSpaceOnUse"
       id="clipPath7446">
      <rect
         style="fill:url(#linearGradient7450);fill-opacity:1;fill-rule:nonzero;stroke:none"
         id="rect7448"
         width="76.065674"
         height="76.065674"
         x="8.6686392"
         y="2.7813253"
         rx="5.4332623"
         ry="5.4332623" />
    </clipPath>
    <linearGradient
       inkscape:collect="always"
       xlink:href="#linearGradient3715"
       id="linearGradient7450"
       gradientUnits="userSpaceOnUse"
       gradientTransform="matrix(0.90554373,0,0,0.90554373,3.2353764,-2.6519371)"
       x1="48"
       y1="90"
       x2="48"
       y2="5.9877172" />
    <linearGradient
       inkscape:collect="always"
       xlink:href="#linearGradient6531"
       id="linearGradient8183"
       gradientUnits="userSpaceOnUse"
       gradientTransform="matrix(0.72549189,-0.19431313,0.19481343,0.72674756,26.254071,18.267752)"
       x1="24.248737"
       y1="77.502068"
       x2="13.405647"
       y2="67.6745" />
    <linearGradient
       inkscape:collect="always"
       xlink:href="#linearGradient8204"
       id="linearGradient8202"
       x1="39.479939"
       y1="81.5"
       x2="39.479939"
       y2="6.2799916"
       gradientUnits="userSpaceOnUse"
       gradientTransform="translate(0.75761441,1.767767)" />
    <linearGradient
       inkscape:collect="always"
       xlink:href="#linearGradient3715"
       id="linearGradient9632"
       gradientUnits="userSpaceOnUse"
       x1="48"
       y1="90"
       x2="48"
       y2="5.9877172"
       gradientTransform="translate(0,100)" />
    <linearGradient
       inkscape:collect="always"
       xlink:href="#linearGradient10386"
       id="linearGradient10392"
       x1="58.651787"
       y1="68.171875"
       x2="47.450871"
       y2="57.993305"
       gradientUnits="userSpaceOnUse" />
    <linearGradient
       inkscape:collect="always"
       xlink:href="#linearGradient10394"
       id="linearGradient10400"
       x1="60.899021"
       y1="35.60585"
       x2="68.2229"
       y2="39.53442"
       gradientUnits="userSpaceOnUse" />
    <radialGradient
       inkscape:collect="always"
       xlink:href="#linearGradient10410"
       id="radialGradient10416"
       cx="59.85154"
       cy="41.7043"
       fx="59.85154"
       fy="41.7043"
       r="18.182745"
       gradientTransform="matrix(1,0,0,0.125,0,36.491262)"
       gradientUnits="userSpaceOnUse" />
    <linearGradient
       inkscape:collect="always"
       xlink:href="#linearGradient10394"
       id="linearGradient10434"
       gradientUnits="userSpaceOnUse"
       x1="60.899021"
       y1="35.60585"
       x2="68.2229"
       y2="39.53442" />
    <linearGradient
       inkscape:collect="always"
       xlink:href="#linearGradient10394"
       id="linearGradient10437"
       gradientUnits="userSpaceOnUse"
       x1="60.899021"
       y1="35.60585"
       x2="68.2229"
       y2="39.53442"
       gradientTransform="translate(20,0)" />
    <linearGradient
       inkscape:collect="always"
       xlink:href="#linearGradient10394"
       id="linearGradient10445"
       gradientUnits="userSpaceOnUse"
       gradientTransform="translate(20,0)"
       x1="60.899021"
       y1="35.60585"
       x2="68.2229"
       y2="39.53442" />
    <linearGradient
       inkscape:collect="always"
       xlink:href="#linearGradient11508"
       id="linearGradient10454"
       x1="43.700191"
       y1="82.473648"
       x2="87.732079"
       y2="6.208179"
       gradientUnits="userSpaceOnUse"
       gradientTransform="matrix(1.037083,0.14898509,-0.15896024,0.97200342,11.601829,-3.9991772)" />
    <linearGradient
       inkscape:collect="always"
       xlink:href="#linearGradient11508"
       id="linearGradient10458"
       gradientUnits="userSpaceOnUse"
       gradientTransform="matrix(1.0642506,0.22253363,-0.33932139,0.69795647,25.389673,15.671146)"
       x1="43.700191"
       y1="82.473648"
       x2="77.923637"
       y2="16.211916" />
    <linearGradient
       inkscape:collect="always"
       xlink:href="#linearGradient6531"
       id="linearGradient10460"
       gradientUnits="userSpaceOnUse"
       gradientTransform="matrix(0.72549189,-0.19431313,0.19481343,0.72674756,36.254071,18.267752)"
       x1="24.248737"
       y1="77.502068"
       x2="13.405647"
       y2="67.6745" />
    <linearGradient
       inkscape:collect="always"
       xlink:href="#linearGradient3715"
       id="linearGradient10468"
       gradientUnits="userSpaceOnUse"
       x1="48"
       y1="90"
       x2="48"
       y2="5.9877172" />
    <inkscape:perspective
       id="perspective3081"
       inkscape:persp3d-origin="0.5 : 0.33333333 : 1"
       inkscape:vp_z="1 : 0.5 : 1"
       inkscape:vp_y="0 : 1000 : 0"
       inkscape:vp_x="0 : 0.5 : 1"
       sodipodi:type="inkscape:persp3d" />
    <linearGradient
       y2="90.238609"
       x2="32.251034"
       y1="6.1317081"
       x1="32.251034"
       gradientTransform="matrix(1.0238095,0,0,1.0119048,-1.1428571,-98.071429)"
       gradientUnits="userSpaceOnUse"
       id="linearGradient3026"
       xlink:href="#ButtonShadow-0"
       inkscape:collect="always" />
    <linearGradient
       id="ButtonShadow-0"
       gradientTransform="matrix(1.0058652,0,0,0.994169,100,0)"
       x1="45.447727"
       y1="92.539597"
       x2="45.447727"
       y2="7.0165396"
       gradientUnits="userSpaceOnUse">
      <stop
         style="stop-color:#000000;stop-opacity:1;"
         offset="0"
         id="stop3750-8" />
      <stop
         style="stop-color:#000000;stop-opacity:0.58823532;"
         offset="1"
         id="stop3752-5" />
    </linearGradient>
    <linearGradient
       inkscape:collect="always"
       xlink:href="#ButtonShadow-0"
       id="linearGradient3780"
       gradientUnits="userSpaceOnUse"
       gradientTransform="matrix(1.0238095,0,0,1.0119048,-1.1428571,-98.071429)"
       x1="32.251034"
       y1="6.1317081"
       x2="32.251034"
       y2="90.238609" />
    <linearGradient
       id="linearGradient3090"
       gradientTransform="matrix(1.0058652,0,0,0.994169,100,0)"
       x1="45.447727"
       y1="92.539597"
       x2="45.447727"
       y2="7.0165396"
       gradientUnits="userSpaceOnUse">
      <stop
         style="stop-color:#000000;stop-opacity:1;"
         offset="0"
         id="stop3092" />
      <stop
         style="stop-color:#000000;stop-opacity:0.58823532;"
         offset="1"
         id="stop3094" />
    </linearGradient>
    <linearGradient
       inkscape:collect="always"
       xlink:href="#ButtonShadow-0"
       id="linearGradient3772"
       gradientUnits="userSpaceOnUse"
       gradientTransform="matrix(1.0238095,0,0,1.0119048,-1.1428571,-98.071429)"
       x1="32.251034"
       y1="6.1317081"
       x2="32.251034"
       y2="90.238609" />
    <linearGradient
       id="linearGradient3097"
       gradientTransform="matrix(1.0058652,0,0,0.994169,100,0)"
       x1="45.447727"
       y1="92.539597"
       x2="45.447727"
       y2="7.0165396"
       gradientUnits="userSpaceOnUse">
      <stop
         style="stop-color:#000000;stop-opacity:1;"
         offset="0"
         id="stop3099" />
      <stop
         style="stop-color:#000000;stop-opacity:0.58823532;"
         offset="1"
         id="stop3101" />
    </linearGradient>
    <linearGradient
       inkscape:collect="always"
       xlink:href="#ButtonShadow-0"
       id="linearGradient3725"
       gradientUnits="userSpaceOnUse"
       gradientTransform="matrix(1.0238095,0,0,1.0119048,-1.1428571,-98.071429)"
       x1="32.251034"
       y1="6.1317081"
       x2="32.251034"
       y2="90.238609" />
    <linearGradient
       id="linearGradient3104"
       gradientTransform="matrix(1.0058652,0,0,0.994169,100,0)"
       x1="45.447727"
       y1="92.539597"
       x2="45.447727"
       y2="7.0165396"
       gradientUnits="userSpaceOnUse">
      <stop
         style="stop-color:#000000;stop-opacity:1;"
         offset="0"
         id="stop3106" />
      <stop
         style="stop-color:#000000;stop-opacity:0.58823532;"
         offset="1"
         id="stop3108" />
    </linearGradient>
    <linearGradient
       inkscape:collect="always"
       xlink:href="#ButtonShadow-0"
       id="linearGradient3721"
       gradientUnits="userSpaceOnUse"
       gradientTransform="translate(0,-97)"
       x1="32.251034"
       y1="6.1317081"
       x2="32.251034"
       y2="90.238609" />
    <linearGradient
       id="linearGradient3111"
       gradientTransform="matrix(1.0058652,0,0,0.994169,100,0)"
       x1="45.447727"
       y1="92.539597"
       x2="45.447727"
       y2="7.0165396"
       gradientUnits="userSpaceOnUse">
      <stop
         style="stop-color:#000000;stop-opacity:1;"
         offset="0"
         id="stop3113" />
      <stop
         style="stop-color:#000000;stop-opacity:0.58823532;"
         offset="1"
         id="stop3115" />
    </linearGradient>
    <linearGradient
       y2="90.238609"
       x2="32.251034"
       y1="6.1317081"
       x1="32.251034"
       gradientTransform="matrix(1.0238095,0,0,1.0119048,-1.1428571,-98.071429)"
       gradientUnits="userSpaceOnUse"
       id="linearGradient3122"
       xlink:href="#ButtonShadow-0"
       inkscape:collect="always" />
  </defs>
  <metadata
     id="metadata2413">
    <rdf:RDF>
      <cc:Work
         rdf:about="">
        <dc:format>image/svg+xml</dc:format>
        <dc:type
           rdf:resource="http://purl.org/dc/dcmitype/StillImage" />
      </cc:Work>
    </rdf:RDF>
  </metadata>
  <g
     style="display:none"
     sodipodi:insensitive="true"
     inkscape:label="Blur Shadow"
     id="layer2"
     inkscape:groupmode="layer">
    <rect
       ry="6"
       rx="6"
       y="7"
       x="5"
       height="85"
       width="86"
       id="rect3745"
       style="opacity:0.9;fill:url(#ButtonShadow);fill-opacity:1;fill-rule:nonzero;stroke:none;filter:url(#filter3174)" />
  </g>
  <g
     inkscape:groupmode="layer"
     id="layer3"
     inkscape:label="Shadow"
     style="display:inline"
     sodipodi:insensitive="true">
    <path
       sodipodi:type="inkscape:offset"
       inkscape:radius="0.99097413"
       inkscape:original="M 12 -94.03125 C 7.028367 -94.03125 2.96875 -89.971633 2.96875 -85 L 2.96875 -14 C 2.96875 -9.0283671 7.0283671 -4.96875 12 -4.96875 L 84 -4.96875 C 88.971633 -4.96875 93.03125 -9.028367 93.03125 -14 L 93.03125 -85 C 93.03125 -89.971633 88.971633 -94.03125 84 -94.03125 L 12 -94.03125 z "
       style="opacity:0.07999998;fill:url(#linearGradient3122);fill-opacity:1;fill-rule:nonzero;stroke:none;display:inline"
       id="path3786"
       d="m 12,-95.03125 c -5.5110903,0 -10.03125,4.52016 -10.03125,10.03125 l 0,71 c 0,5.5110902 4.5201598,10.03125 10.03125,10.03125 l 72,0 c 5.51109,0 10.03125,-4.5201597 10.03125,-10.03125 l 0,-71 c 0,-5.51109 -4.52016,-10.03125 -10.03125,-10.03125 l -72,0 z"
       transform="scale(1,-1)" />
    <path
       sodipodi:type="inkscape:offset"
       inkscape:radius="1.0360184"
       inkscape:original="M 12 -93 C 7.5908667 -93 4 -89.409133 4 -85 L 4 -14 C 4 -9.5908667 7.5908667 -6 12 -6 L 84 -6 C 88.409133 -6 92 -9.5908667 92 -14 L 92 -85 C 92 -89.409133 88.409133 -93 84 -93 L 12 -93 z "
       style="opacity:0.1;fill:url(#linearGradient3780);fill-opacity:1;fill-rule:nonzero;stroke:none;display:inline"
       id="path3778"
       d="m 12,-94.03125 c -4.971633,0 -9.03125,4.059617 -9.03125,9.03125 l 0,71 c 0,4.9716329 4.0596171,9.03125 9.03125,9.03125 l 72,0 c 4.971633,0 9.03125,-4.059617 9.03125,-9.03125 l 0,-71 c 0,-4.971633 -4.059617,-9.03125 -9.03125,-9.03125 l -72,0 z"
       transform="scale(1,-1)" />
    <path
       sodipodi:type="inkscape:offset"
       inkscape:radius="0.98962283"
       inkscape:original="M 12 -92 C 8.122 -92 5 -88.878 5 -85 L 5 -14 C 5 -10.122 8.122 -7 12 -7 L 84 -7 C 87.878 -7 91 -10.122 91 -14 L 91 -85 C 91 -88.878 87.878 -92 84 -92 L 12 -92 z "
       style="opacity:0.2;fill:url(#linearGradient3772);fill-opacity:1;fill-rule:nonzero;stroke:none;display:inline"
       id="path3770"
       d="m 12,-93 c -4.4091333,0 -8,3.590867 -8,8 l 0,71 c 0,4.4091333 3.5908667,8 8,8 l 72,0 c 4.409133,0 8,-3.5908667 8,-8 l 0,-71 c 0,-4.409133 -3.590867,-8 -8,-8 l -72,0 z"
       transform="scale(1,-1)" />
    <rect
       style="opacity:0.3;fill:url(#linearGradient3725);fill-opacity:1;fill-rule:nonzero;stroke:none;display:inline"
       id="rect3723"
       width="86"
       height="85"
       x="5"
       y="-92"
       rx="7"
       ry="7"
       transform="scale(1,-1)" />
    <rect
       transform="scale(1,-1)"
       ry="6"
       rx="6"
       y="-91"
       x="6"
       height="84"
       width="84"
       id="rect3716"
       style="opacity:0.45;fill:url(#linearGradient3721);fill-opacity:1;fill-rule:nonzero;stroke:none;display:inline" />
  </g>
  <g
     id="layer1"
     inkscape:groupmode="layer"
     inkscape:label="Button"
     sodipodi:insensitive="true">
    <rect
       ry="6"
       rx="6"
       y="6"
       x="6"
       height="84"
       width="84"
       id="rect2419"
       style="fill:url(#linearGradient3617);fill-opacity:1;fill-rule:nonzero;stroke:none" />
    <path
       id="rect3728"
       d="M 12,6 C 8.676,6 6,8.676 6,12 l 0,2 0,68 0,2 c 0,0.334721 0.04135,0.6507 0.09375,0.96875 0.0487,0.295596 0.09704,0.596915 0.1875,0.875 0.00988,0.03038 0.020892,0.0636 0.03125,0.09375 0.098865,0.287771 0.2348802,0.547452 0.375,0.8125 0.1445918,0.273507 0.3156161,0.535615 0.5,0.78125 0.1843839,0.245635 0.3737765,0.473472 0.59375,0.6875 0.439947,0.428056 0.94291,0.814526 1.5,1.09375 0.278545,0.139612 0.5734731,0.246947 0.875,0.34375 -0.2562018,-0.100222 -0.4867109,-0.236272 -0.71875,-0.375 -0.00741,-0.0044 -0.023866,0.0045 -0.03125,0 -0.031933,-0.0193 -0.062293,-0.04251 -0.09375,-0.0625 -0.120395,-0.0767 -0.2310226,-0.163513 -0.34375,-0.25 -0.1061728,-0.0808 -0.2132809,-0.161112 -0.3125,-0.25 C 8.4783201,88.557317 8.3087904,88.373362 8.15625,88.1875 8.0486711,88.057245 7.9378561,87.922215 7.84375,87.78125 7.818661,87.74287 7.805304,87.69538 7.78125,87.65625 7.716487,87.553218 7.6510225,87.451733 7.59375,87.34375 7.4927417,87.149044 7.3880752,86.928049 7.3125,86.71875 7.30454,86.69694 7.288911,86.6782 7.28125,86.65625 7.2494249,86.5643 7.2454455,86.469419 7.21875,86.375 7.1884177,86.268382 7.1483606,86.171969 7.125,86.0625 7.0521214,85.720988 7,85.364295 7,85 L 7,83 7,15 7,13 C 7,10.218152 9.2181517,8 12,8 l 2,0 68,0 2,0 c 2.781848,0 5,2.218152 5,5 l 0,2 0,68 0,2 c 0,0.364295 -0.05212,0.720988 -0.125,1.0625 -0.04415,0.206893 -0.08838,0.397658 -0.15625,0.59375 -0.0077,0.02195 -0.0233,0.04069 -0.03125,0.0625 -0.06274,0.173739 -0.138383,0.367449 -0.21875,0.53125 -0.04158,0.0828 -0.07904,0.169954 -0.125,0.25 -0.0546,0.09721 -0.126774,0.18835 -0.1875,0.28125 -0.09411,0.140965 -0.204921,0.275995 -0.3125,0.40625 -0.143174,0.17445 -0.303141,0.346998 -0.46875,0.5 -0.01117,0.0102 -0.01998,0.02115 -0.03125,0.03125 -0.138386,0.125556 -0.285091,0.234436 -0.4375,0.34375 -0.102571,0.07315 -0.204318,0.153364 -0.3125,0.21875 -0.0074,0.0045 -0.02384,-0.0044 -0.03125,0 -0.232039,0.138728 -0.462548,0.274778 -0.71875,0.375 0.301527,-0.0968 0.596455,-0.204138 0.875,-0.34375 0.55709,-0.279224 1.060053,-0.665694 1.5,-1.09375 0.219973,-0.214028 0.409366,-0.441865 0.59375,-0.6875 0.184384,-0.245635 0.355408,-0.507743 0.5,-0.78125 0.14012,-0.265048 0.276135,-0.524729 0.375,-0.8125 0.01041,-0.03078 0.02133,-0.06274 0.03125,-0.09375 0.09046,-0.278085 0.1388,-0.579404 0.1875,-0.875 C 89.95865,84.6507 90,84.334721 90,84 l 0,-2 0,-68 0,-2 C 90,8.676 87.324,6 84,6 L 12,6 z"
       style="opacity:0.35;fill:url(#linearGradient3188);fill-opacity:1;fill-rule:nonzero;stroke:none" />
    <path
       style="opacity:0.2;fill:url(#radialGradient3619);fill-opacity:1;fill-rule:nonzero;stroke:none"
       d="M 12,90 C 8.676,90 6,87.324 6,84 L 6,82 6,14 6,12 c 0,-0.334721 0.04135,-0.6507 0.09375,-0.96875 0.0487,-0.295596 0.09704,-0.596915 0.1875,-0.875 C 6.29113,10.12587 6.302142,10.09265 6.3125,10.0625 6.411365,9.774729 6.5473802,9.515048 6.6875,9.25 6.8320918,8.976493 7.0031161,8.714385 7.1875,8.46875 7.3718839,8.223115 7.5612765,7.995278 7.78125,7.78125 8.221197,7.353194 8.72416,6.966724 9.28125,6.6875 9.559795,6.547888 9.8547231,6.440553 10.15625,6.34375 9.9000482,6.443972 9.6695391,6.580022 9.4375,6.71875 c -0.00741,0.0044 -0.023866,-0.0045 -0.03125,0 -0.031933,0.0193 -0.062293,0.04251 -0.09375,0.0625 -0.120395,0.0767 -0.2310226,0.163513 -0.34375,0.25 -0.1061728,0.0808 -0.2132809,0.161112 -0.3125,0.25 C 8.4783201,7.442683 8.3087904,7.626638 8.15625,7.8125 8.0486711,7.942755 7.9378561,8.077785 7.84375,8.21875 7.818661,8.25713 7.805304,8.30462 7.78125,8.34375 7.716487,8.446782 7.6510225,8.548267 7.59375,8.65625 7.4927417,8.850956 7.3880752,9.071951 7.3125,9.28125 7.30454,9.30306 7.288911,9.3218 7.28125,9.34375 7.2494249,9.4357 7.2454455,9.530581 7.21875,9.625 7.1884177,9.731618 7.1483606,9.828031 7.125,9.9375 7.0521214,10.279012 7,10.635705 7,11 l 0,2 0,68 0,2 c 0,2.781848 2.2181517,5 5,5 l 2,0 68,0 2,0 c 2.781848,0 5,-2.218152 5,-5 l 0,-2 0,-68 0,-2 C 89,10.635705 88.94788,10.279012 88.875,9.9375 88.83085,9.730607 88.78662,9.539842 88.71875,9.34375 88.71105,9.3218 88.69545,9.30306 88.6875,9.28125 88.62476,9.107511 88.549117,8.913801 88.46875,8.75 88.42717,8.6672 88.38971,8.580046 88.34375,8.5 88.28915,8.40279 88.216976,8.31165 88.15625,8.21875 88.06214,8.077785 87.951329,7.942755 87.84375,7.8125 87.700576,7.63805 87.540609,7.465502 87.375,7.3125 87.36383,7.3023 87.35502,7.29135 87.34375,7.28125 87.205364,7.155694 87.058659,7.046814 86.90625,6.9375 86.803679,6.86435 86.701932,6.784136 86.59375,6.71875 c -0.0074,-0.0045 -0.02384,0.0044 -0.03125,0 -0.232039,-0.138728 -0.462548,-0.274778 -0.71875,-0.375 0.301527,0.0968 0.596455,0.204138 0.875,0.34375 0.55709,0.279224 1.060053,0.665694 1.5,1.09375 0.219973,0.214028 0.409366,0.441865 0.59375,0.6875 0.184384,0.245635 0.355408,0.507743 0.5,0.78125 0.14012,0.265048 0.276135,0.524729 0.375,0.8125 0.01041,0.03078 0.02133,0.06274 0.03125,0.09375 0.09046,0.278085 0.1388,0.579404 0.1875,0.875 C 89.95865,11.3493 90,11.665279 90,12 l 0,2 0,68 0,2 c 0,3.324 -2.676,6 -6,6 l -72,0 z"
       id="path3615" />
    <rect
       style="fill:url(#linearGradient9632);fill-opacity:1;fill-rule:nonzero;stroke:none;display:inline"
       id="rect9628"
       width="84"
       height="84"
       x="6"
       y="106"
       rx="6"
       ry="6" />
  </g>
  <g
     sodipodi:insensitive="true"
     inkscape:label="Highlight"
     id="layer5"
     inkscape:groupmode="layer">
    <rect
       clip-path="url(#clipPath3613)"
       ry="12"
       rx="12"
       y="15"
       x="15"
       height="66"
       width="66"
       id="rect3171"
       style="opacity:0.1;fill:url(#linearGradient3613);fill-opacity:1;fill-rule:nonzero;stroke:#ffffff;stroke-width:0.5;stroke-linecap:round;stroke-linejoin:miter;stroke-miterlimit:4;stroke-opacity:1;stroke-dasharray:none;stroke-dashoffset:0;filter:url(#filter3794)" />
  </g>
  <g
     id="g3802"
     inkscape:groupmode="layer"
     inkscape:label="Pencil">
    <path
       style="opacity:0.3;fill:url(#linearGradient10458);fill-opacity:1;stroke:none"
       d="m 90,46.84375 c -4.526662,2.457077 -8.946706,4.898258 -12.9375,7.625 -5.360923,3.662891 -9.118267,7.330519 -10.84375,10.125 -0.0078,0.01278 -0.02345,0.01851 -0.03125,0.03125 -1.050372,0.629696 -8.581418,5.17354 -12.40625,7.8125 -4.175684,2.88103 -11.21875,10.25 -11.21875,10.25 l 0.8125,0.5 C 50.296394,79.960341 64.21875,76.75 64.21875,76.75 l 0.46875,-0.125 -0.125,-0.3125 c 0,0 -0.06096,-0.130401 0,-0.53125 0.06098,-0.400847 0.267268,-1.031355 0.78125,-1.875 1.116828,-1.833167 3.938519,-3.767858 5.84375,-4.9375 4.394188,-1.084722 10.610709,-3.97765 16.40625,-7.9375 C 88.416922,60.468811 89.206604,59.8947 90,59.3125 l 0,-12.46875 z"
       id="path10456" />
    <path
       style="opacity:0.2;fill:url(#linearGradient10454);fill-opacity:1;stroke:none"
       d="m 90,15.625 c -7.159846,8.93153 -15.447803,16.153769 -21.8125,24.71875 -4.155827,5.592495 -6.804396,10.995428 -7.78125,14.9375 -0.0044,0.01801 -0.02686,0.04455 -0.03125,0.0625 -0.833902,0.97909 -6.790683,7.975987 -9.75,12 -3.230781,4.393139 -8.125,15.125 -8.125,15.125 l 0.875,0.5625 c 5.700905,-5.22894 17.875,-11.375 17.875,-11.375 L 61.65625,71.4375 61.5,71.03125 c 0,0 -0.09207,-0.178891 -0.125,-0.71875 -0.03294,-0.539858 -0.0072,-1.404602 0.28125,-2.59375 C 62.28307,65.13484 64.493548,62.187348 66,60.375 69.83462,58.333623 74.944757,53.67089 79.4375,47.625 83.299307,42.428166 86.519301,36.783917 90,30.96875 L 90,15.625 z"
       id="path10430" />
    <path
       style="fill:url(#linearGradient8202);fill-opacity:1;stroke:none"
       d="M 24.15625,6 C 40.185121,27.143001 6.5735016,41.380202 11.09375,58.25 15.494305,74.673093 35.367001,73.845561 42.53125,82.78125 37.586125,73.177898 30.822843,73.663263 28.15625,64.65625 21.375792,41.753735 91.859602,30.312441 68.96875,6 l -44.8125,0 z"
       id="path8185" />
    <path
       sodipodi:nodetypes="czzszsz"
       id="path10375"
       d="M 71.440927,41.872208 C 66.467416,52.005602 59.449178,59.212086 56.894083,57.839372 54.168688,56.375122 55.48627,47.036106 60.589469,36.638483 65.691468,26.243298 73.641414,17.23361 78.866448,5.6272042 c 0.995766,-2.2119026 2.9241,-5.47971615 5.661833,-4.0917255 2.83771,1.4386772 2.067811,4.1308529 0.568563,7.1888151 C 79.307055,20.533515 76.414446,31.738809 71.440927,41.872208 z"
       style="fill:url(#linearGradient10400);fill-opacity:1;stroke:#000000" />
    <path
       transform="matrix(0.63302987,-0.16954844,0.23046163,0.42762767,6.3123362,29.06751)"
       d="m 60.457628,78.05204 a 5.4800777,7.7781744 0 1 1 -10.960155,0 5.4800777,7.7781744 0 1 1 10.960155,0 z"
       sodipodi:ry="7.7781744"
       sodipodi:rx="5.4800777"
       sodipodi:cy="78.05204"
       sodipodi:cx="54.977551"
       id="path4343"
       style="fill:none;stroke:#2e3436;stroke-width:3.53770852;stroke-linecap:round;stroke-miterlimit:4;stroke-opacity:1;stroke-dasharray:none"
       sodipodi:type="arc" />
    <path
       sodipodi:nodetypes="cscscscc"
       id="path4341"
       d="m 42.944049,82.580725 c 0,0 2.9568,-11.53222 5.258149,-16.279482 2.301347,-4.747261 7.742418,-14.190941 7.742418,-14.190941 0,0 1.569862,-2.348209 4.104002,-1.099201 2.53414,1.249007 1.802655,3.648061 1.802655,3.648061 0,0 -3.821624,5.755643 -4.139564,10.196655 -0.183273,2.559974 0.416839,3.606144 0.416839,3.606144 0,0 -10.524782,7.913669 -15.184499,14.118764 z"
       style="fill:url(#linearGradient8183);fill-opacity:1;fill-rule:evenodd;stroke:#c17d11;stroke-width:1;stroke-linecap:butt;stroke-linejoin:miter;stroke-miterlimit:4;stroke-opacity:1;stroke-dasharray:none" />
    <path
       transform="matrix(0.49816294,0.21338024,-0.22864746,0.45310119,80.994343,39.610695)"
       d="m -27.930719,71.864853 a 1.2374369,3.0052037 0 1 1 -2.474874,0 1.2374369,3.0052037 0 1 1 2.474874,0 z"
       sodipodi:ry="3.0052037"
       sodipodi:rx="1.2374369"
       sodipodi:cy="71.864853"
       sodipodi:cx="-29.168156"
       id="path6537"
       style="fill:#000000;fill-opacity:0.6;stroke:#c17d11;stroke-width:0.63874686;stroke-linecap:round;stroke-miterlimit:4;stroke-opacity:1;stroke-dasharray:none"
       sodipodi:type="arc" />
    <path
       sodipodi:nodetypes="cc"
       id="path8007"
       d="m 43.003422,82.289431 c 2.086404,-5.378172 3.575502,-9.907884 6.18441,-14.875218"
       style="fill:#c17d11;fill-opacity:1;fill-rule:evenodd;stroke:#c17d11;stroke-width:0.34297702;stroke-linecap:butt;stroke-linejoin:miter;stroke-miterlimit:4;stroke-opacity:1;stroke-dasharray:none" />
    <rect
       ry="6"
       rx="6"
       y="106"
       x="6"
       height="84"
       width="84"
       id="rect10342"
       style="fill:url(#linearGradient9632);fill-opacity:1;fill-rule:nonzero;stroke:none;display:inline" />
    <path
       style="fill:#000000;fill-opacity:1;stroke:none"
       d="m 145.64832,103.64865 c 0,22.54371 -4.0671,41.59629 -7.83928,41.34375 -4.02362,-0.26937 -7.83929,-18.21221 -7.83929,-41.34375 0,-23.126104 3.57086,-46.222524 3.57086,-71.642453 0,-11.38174 -0.60662,-12.414771 4.26843,-12.272718 4.87505,0.142053 4.80612,1.126135 4.7863,12.438446 -0.046,26.265851 3.05298,48.933017 3.05298,71.476725 z"
       id="path10372"
       sodipodi:nodetypes="czzszsz" />
    <path
       style="fill:url(#linearGradient10392);fill-opacity:1;fill-rule:evenodd;stroke:none"
       d="m 59.6875,52.65625 c -0.218866,0.177715 -0.364551,0.362516 -0.375,0.375 -6.1e-5,1.07e-4 -0.03118,-1.23e-4 -0.03125,0 -0.07544,0.130951 -5.410002,9.430862 -7.625,14 -0.754704,1.556817 -1.65246,4.069602 -2.46875,6.65625 3.376613,-3.039337 6.273524,-5.217456 7.0625,-5.8125 -0.150656,-0.740855 -0.255031,-1.776466 -0.15625,-3.15625 0.188582,-2.634122 1.305989,-5.290338 2.34375,-7.375 0.939337,-1.886948 1.678929,-2.997095 1.84375,-3.25 0.011,-0.04406 0.05429,-0.211139 0,-0.53125 -0.05032,-0.296727 -0.105839,-0.58654 -0.59375,-0.90625 z"
       id="path10381" />
    <path
       sodipodi:type="arc"
       style="fill:url(#radialGradient10416);fill-opacity:1;stroke:none"
       id="path10408"
       sodipodi:cx="59.85154"
       sodipodi:cy="41.7043"
       sodipodi:rx="18.182745"
       sodipodi:ry="2.2728431"
       d="m 78.034285,41.7043 a 18.182745,2.2728431 0 1 1 -36.36549,0 18.182745,2.2728431 0 1 1 36.36549,0 z"
       transform="matrix(0.46309937,-0.88630637,0.88630637,0.46309937,0.97991999,69.376951)" />
    <path
       style="opacity:0.6;fill:#ffffff;fill-opacity:1;stroke:none"
       d="m 66.65625,29.34375 c -0.77115,0 -1.522939,0.133966 -2.25,0.34375 -0.34567,0.578188 -0.664891,1.168334 -1,1.75 0.410501,-0.06213 0.827002,-0.09375 1.25,-0.09375 3.561545,0 6.757094,2.358001 8.84375,6.03125 0.439471,-1.027772 0.86359,-2.078075 1.28125,-3.125 -2.065732,-3.019569 -4.942489,-4.90625 -8.125,-4.90625 z"
       id="path10418" />
    <path
       style="opacity:0.3;fill:#000000;fill-opacity:1;stroke:none"
       d="m 182.85007,34.127215 c -0.4215,-0.09045 -0.87404,-0.08218 -1.29127,0.01834 -0.41724,0.10052 -0.78965,0.280361 -1.20404,0.517148 -0.82877,0.473572 -1.81398,1.206124 -3.32238,2.236755 -9.7898,6.688948 -20.95639,11.406559 -29.9748,17.568457 -5.36092,3.662891 -9.10058,7.340445 -10.82607,10.134926 -0.008,0.01278 -0.0467,0.02393 -0.0545,0.03667 -1.05037,0.629696 -8.5716,5.149222 -12.39643,7.788182 -4.17565,2.88103 -11.21018,10.246823 -11.21018,10.246823 l 0.81602,0.507025 c 6.9214,-3.227159 20.82464,-6.434335 20.82464,-6.434335 l 0.46127,-0.119804 -0.10556,-0.310413 c 0,0 -0.0499,-0.149487 0.0111,-0.550336 0.061,-0.400847 0.2437,-1.016306 0.75769,-1.859951 1.11682,-1.833167 3.94618,-3.78213 5.85141,-4.951772 4.39419,-1.084722 10.61688,-3.949725 16.41243,-7.909575 8.78601,-6.003112 15.62991,-13.201799 25.78429,-20.102644 2.19559,-1.492097 3.46177,-2.260632 3.82367,-3.117103 0.18098,-0.428227 0.0608,-0.869316 -0.30126,-1.264411 -0.36205,-0.395095 -0.9376,-0.780208 -1.6923,-1.266936 -0.94662,-0.610505 -1.60709,-1.004684 -2.36372,-1.167046 z"
       id="path10464"
       inkscape:transform-center-x="-37.50854"
       inkscape:transform-center-y="-24.356887" />
  </g>
</svg>
