<?xml version="1.0" encoding="UTF-8" standalone="no"?>
<!-- Created with Inkscape (http://www.inkscape.org/) -->

<svg
   xmlns:dc="http://purl.org/dc/elements/1.1/"
   xmlns:cc="http://creativecommons.org/ns#"
   xmlns:rdf="http://www.w3.org/1999/02/22-rdf-syntax-ns#"
   xmlns:svg="http://www.w3.org/2000/svg"
   xmlns="http://www.w3.org/2000/svg"
   xmlns:xlink="http://www.w3.org/1999/xlink"
   xmlns:sodipodi="http://sodipodi.sourceforge.net/DTD/sodipodi-0.dtd"
   xmlns:inkscape="http://www.inkscape.org/namespaces/inkscape"
   width="96"
   height="96"
   id="svg2408"
   sodipodi:version="0.32"
   inkscape:version="0.48.0 r9654"
   version="1.0"
   sodipodi:docname="ubuntuone.svg"
   inkscape:output_extension="org.inkscape.output.svg.inkscape">
  <defs
     id="defs2410">
    <inkscape:perspective
       sodipodi:type="inkscape:persp3d"
       inkscape:vp_x="0 : 48 : 1"
       inkscape:vp_y="0 : 1000 : 0"
       inkscape:vp_z="96 : 48 : 1"
       inkscape:persp3d-origin="48 : 32 : 1"
       id="perspective48" />
    <linearGradient
       id="ButtonShadow"
       gradientTransform="scale(1.0058652,0.994169)"
       x1="45.447727"
       y1="92.539597"
       x2="45.447727"
       y2="7.0165396"
       gradientUnits="userSpaceOnUse">
      <stop
         style="stop-color:#000000;stop-opacity:1;"
         offset="0"
         id="stop3750" />
      <stop
         style="stop-color:#000000;stop-opacity:0.58823532;"
         offset="1"
         id="stop3752" />
    </linearGradient>
    <linearGradient
       id="linearGradient3737">
      <stop
         style="stop-color:#fffac8;stop-opacity:1;"
         offset="0"
         id="stop3739" />
      <stop
         style="stop-color:#feff67;stop-opacity:0;"
         offset="1"
         id="stop3741" />
    </linearGradient>
    <linearGradient
       id="linearGradient3700">
      <stop
         style="stop-color:#da4714;stop-opacity:1;"
         offset="0"
         id="stop3702" />
      <stop
         style="stop-color:#ee743e;stop-opacity:1;"
         offset="1"
         id="stop3704" />
    </linearGradient>
    <filter
       inkscape:collect="always"
       id="filter3174">
      <feGaussianBlur
         inkscape:collect="always"
         stdDeviation="1.71"
         id="feGaussianBlur3176" />
    </filter>
    <linearGradient
       inkscape:collect="always"
       xlink:href="#linearGradient3737"
       id="linearGradient3188"
       gradientUnits="userSpaceOnUse"
       x1="36.357143"
       y1="6"
       x2="36.357143"
       y2="63.893143" />
    <filter
       inkscape:collect="always"
       id="filter3794"
       x="-0.192"
       width="1.384"
       y="-0.192"
       height="1.384">
      <feGaussianBlur
         inkscape:collect="always"
         stdDeviation="5.28"
         id="feGaussianBlur3796" />
    </filter>
    <linearGradient
       inkscape:collect="always"
       xlink:href="#linearGradient3737"
       id="linearGradient3613"
       x1="48"
       y1="20.220806"
       x2="48"
       y2="138.66119"
       gradientUnits="userSpaceOnUse" />
    <radialGradient
       inkscape:collect="always"
       xlink:href="#linearGradient3737"
       id="radialGradient3619"
       cx="48"
       cy="90.171875"
       fx="48"
       fy="90.171875"
       r="42"
       gradientTransform="matrix(1.1573129,0,0,0.99590774,-7.5510206,0.19713193)"
       gradientUnits="userSpaceOnUse" />
    <clipPath
       clipPathUnits="userSpaceOnUse"
       id="clipPath3613">
      <rect
         ry="6"
         rx="6"
         y="6"
         x="6"
         height="84"
         width="84"
         id="rect3615"
         style="fill:#ffffff;fill-opacity:1;fill-rule:nonzero;stroke:none" />
    </clipPath>
    <linearGradient
       inkscape:collect="always"
       xlink:href="#linearGradient3700"
       id="linearGradient3617"
       gradientUnits="userSpaceOnUse"
       x1="48"
       y1="90"
       x2="48"
       y2="5.9877172" />
    <linearGradient
       id="ButtonShadow-0"
       gradientTransform="matrix(1.0058652,0,0,0.994169,100,0)"
       x1="45.447727"
       y1="92.539597"
       x2="45.447727"
       y2="7.0165396"
       gradientUnits="userSpaceOnUse">
      <stop
         style="stop-color:#000000;stop-opacity:1;"
         offset="0"
         id="stop3750-8" />
      <stop
         style="stop-color:#000000;stop-opacity:0.58823532;"
         offset="1"
         id="stop3752-5" />
    </linearGradient>
    <linearGradient
       inkscape:collect="always"
       xlink:href="#ButtonShadow-0"
       id="linearGradient3780"
       gradientUnits="userSpaceOnUse"
       gradientTransform="matrix(1.0238095,0,0,1.0119048,-1.1428571,-98.071429)"
       x1="32.251034"
       y1="6.1317081"
       x2="32.251034"
       y2="90.238609" />
    <linearGradient
       inkscape:collect="always"
       xlink:href="#ButtonShadow-0"
       id="linearGradient3772"
       gradientUnits="userSpaceOnUse"
       gradientTransform="matrix(1.0238095,0,0,1.0119048,-1.1428571,-98.071429)"
       x1="32.251034"
       y1="6.1317081"
       x2="32.251034"
       y2="90.238609" />
    <linearGradient
       inkscape:collect="always"
       xlink:href="#ButtonShadow-0"
       id="linearGradient3725"
       gradientUnits="userSpaceOnUse"
       gradientTransform="matrix(1.0238095,0,0,1.0119048,-1.1428571,-98.071429)"
       x1="32.251034"
       y1="6.1317081"
       x2="32.251034"
       y2="90.238609" />
    <linearGradient
       inkscape:collect="always"
       xlink:href="#ButtonShadow-0"
       id="linearGradient3721"
       gradientUnits="userSpaceOnUse"
       gradientTransform="translate(0,-97)"
       x1="32.251034"
       y1="6.1317081"
       x2="32.251034"
       y2="90.238609" />
    <linearGradient
       y2="90.238609"
       x2="32.251034"
       y1="6.1317081"
       x1="32.251034"
       gradientTransform="matrix(1.0238095,0,0,1.0119048,-1.1428571,-98.071429)"
       gradientUnits="userSpaceOnUse"
       id="linearGradient3026"
       xlink:href="#ButtonShadow-0"
       inkscape:collect="always" />
  </defs>
  <sodipodi:namedview
     id="base"
     pagecolor="#ffffff"
     bordercolor="#666666"
     borderopacity="1.0"
     inkscape:pageopacity="0.0"
     inkscape:pageshadow="2"
     inkscape:zoom="3.3193989"
     inkscape:cx="11.170361"
     inkscape:cy="37.125503"
     inkscape:document-units="px"
     inkscape:current-layer="layer1"
     showgrid="true"
     showborder="true"
     inkscape:showpageshadow="false"
     inkscape:window-width="1920"
     inkscape:window-height="1029"
     inkscape:window-x="0"
     inkscape:window-y="25"
     inkscape:window-maximized="1">
    <inkscape:grid
       type="xygrid"
       id="grid3732"
       visible="true"
       enabled="true" />
  </sodipodi:namedview>
  <metadata
     id="metadata2413">
    <rdf:RDF>
      <cc:Work
         rdf:about="">
        <dc:format>image/svg+xml</dc:format>
        <dc:type
           rdf:resource="http://purl.org/dc/dcmitype/StillImage" />
        <dc:title />
      </cc:Work>
    </rdf:RDF>
  </metadata>
  <g
     inkscape:groupmode="layer"
     id="layer2"
     inkscape:label="Blur Shadow"
     style="display:none"
     sodipodi:insensitive="true">
    <rect
       style="opacity:0.9;fill:url(#ButtonShadow);fill-opacity:1;fill-rule:nonzero;stroke:none;filter:url(#filter3174)"
       id="rect3745"
       width="86"
       height="85"
       x="5"
       y="7"
       rx="6"
       ry="6" />
  </g>
  <g
     inkscape:groupmode="layer"
     id="layer3"
     inkscape:label="Shadow"
     sodipodi:insensitive="true">
    <path
       sodipodi:type="inkscape:offset"
       inkscape:radius="0.99097413"
       inkscape:original="M 12 -94.03125 C 7.028367 -94.03125 2.96875 -89.971633 2.96875 -85 L 2.96875 -14 C 2.96875 -9.0283671 7.0283671 -4.96875 12 -4.96875 L 84 -4.96875 C 88.971633 -4.96875 93.03125 -9.028367 93.03125 -14 L 93.03125 -85 C 93.03125 -89.971633 88.971633 -94.03125 84 -94.03125 L 12 -94.03125 z "
       style="opacity:0.07999998;fill:url(#linearGradient3026);fill-opacity:1;fill-rule:nonzero;stroke:none;display:inline"
       id="path3786"
       d="m 12,-95.03125 c -5.5110903,0 -10.03125,4.52016 -10.03125,10.03125 l 0,71 c 0,5.5110902 4.5201598,10.03125 10.03125,10.03125 l 72,0 c 5.51109,0 10.03125,-4.5201597 10.03125,-10.03125 l 0,-71 c 0,-5.51109 -4.52016,-10.03125 -10.03125,-10.03125 l -72,0 z"
       transform="scale(1,-1)" />
    <path
       sodipodi:type="inkscape:offset"
       inkscape:radius="1.0360184"
       inkscape:original="M 12 -93 C 7.5908667 -93 4 -89.409133 4 -85 L 4 -14 C 4 -9.5908667 7.5908667 -6 12 -6 L 84 -6 C 88.409133 -6 92 -9.5908667 92 -14 L 92 -85 C 92 -89.409133 88.409133 -93 84 -93 L 12 -93 z "
       style="opacity:0.1;fill:url(#linearGradient3780);fill-opacity:1;fill-rule:nonzero;stroke:none;display:inline"
       id="path3778"
       d="m 12,-94.03125 c -4.971633,0 -9.03125,4.059617 -9.03125,9.03125 l 0,71 c 0,4.9716329 4.0596171,9.03125 9.03125,9.03125 l 72,0 c 4.971633,0 9.03125,-4.059617 9.03125,-9.03125 l 0,-71 c 0,-4.971633 -4.059617,-9.03125 -9.03125,-9.03125 l -72,0 z"
       transform="scale(1,-1)" />
    <path
       sodipodi:type="inkscape:offset"
       inkscape:radius="0.98962283"
       inkscape:original="M 12 -92 C 8.122 -92 5 -88.878 5 -85 L 5 -14 C 5 -10.122 8.122 -7 12 -7 L 84 -7 C 87.878 -7 91 -10.122 91 -14 L 91 -85 C 91 -88.878 87.878 -92 84 -92 L 12 -92 z "
       style="opacity:0.2;fill:url(#linearGradient3772);fill-opacity:1;fill-rule:nonzero;stroke:none;display:inline"
       id="path3770"
       d="m 12,-93 c -4.4091333,0 -8,3.590867 -8,8 l 0,71 c 0,4.4091333 3.5908667,8 8,8 l 72,0 c 4.409133,0 8,-3.5908667 8,-8 l 0,-71 c 0,-4.409133 -3.590867,-8 -8,-8 l -72,0 z"
       transform="scale(1,-1)" />
    <rect
       style="opacity:0.3;fill:url(#linearGradient3725);fill-opacity:1;fill-rule:nonzero;stroke:none;display:inline"
       id="rect3723"
       width="86"
       height="85"
       x="5"
       y="-92"
       rx="7"
       ry="7"
       transform="scale(1,-1)" />
    <rect
       transform="scale(1,-1)"
       ry="6"
       rx="6"
       y="-91"
       x="6"
       height="84"
       width="84"
       id="rect3716"
       style="opacity:0.45;fill:url(#linearGradient3721);fill-opacity:1;fill-rule:nonzero;stroke:none;display:inline" />
  </g>
  <g
     inkscape:label="Button"
     inkscape:groupmode="layer"
     id="layer1">
    <rect
       style="fill:url(#linearGradient3617);fill-opacity:1;fill-rule:nonzero;stroke:none"
       id="rect2419"
       width="84"
       height="84"
       x="6"
       y="6"
       rx="6"
       ry="6" />
    <path
       style="opacity:0.35;fill:url(#linearGradient3188);fill-opacity:1;fill-rule:nonzero;stroke:none"
       d="M 12,6 C 8.676,6 6,8.676 6,12 l 0,2 0,68 0,2 c 0,0.334721 0.04135,0.6507 0.09375,0.96875 0.0487,0.295596 0.09704,0.596915 0.1875,0.875 0.00988,0.03038 0.020892,0.0636 0.03125,0.09375 0.098865,0.287771 0.2348802,0.547452 0.375,0.8125 0.1445918,0.273507 0.3156161,0.535615 0.5,0.78125 0.1843839,0.245635 0.3737765,0.473472 0.59375,0.6875 0.439947,0.428056 0.94291,0.814526 1.5,1.09375 0.278545,0.139612 0.5734731,0.246947 0.875,0.34375 -0.2562018,-0.100222 -0.4867109,-0.236272 -0.71875,-0.375 -0.00741,-0.0044 -0.023866,0.0045 -0.03125,0 -0.031933,-0.0193 -0.062293,-0.04251 -0.09375,-0.0625 -0.120395,-0.0767 -0.2310226,-0.163513 -0.34375,-0.25 -0.1061728,-0.0808 -0.2132809,-0.161112 -0.3125,-0.25 C 8.4783201,88.557317 8.3087904,88.373362 8.15625,88.1875 8.0486711,88.057245 7.9378561,87.922215 7.84375,87.78125 7.818661,87.74287 7.805304,87.69538 7.78125,87.65625 7.716487,87.553218 7.6510225,87.451733 7.59375,87.34375 7.4927417,87.149044 7.3880752,86.928049 7.3125,86.71875 7.30454,86.69694 7.288911,86.6782 7.28125,86.65625 7.2494249,86.5643 7.2454455,86.469419 7.21875,86.375 7.1884177,86.268382 7.1483606,86.171969 7.125,86.0625 7.0521214,85.720988 7,85.364295 7,85 L 7,83 7,15 7,13 C 7,10.218152 9.2181517,8 12,8 l 2,0 68,0 2,0 c 2.781848,0 5,2.218152 5,5 l 0,2 0,68 0,2 c 0,0.364295 -0.05212,0.720988 -0.125,1.0625 -0.04415,0.206893 -0.08838,0.397658 -0.15625,0.59375 -0.0077,0.02195 -0.0233,0.04069 -0.03125,0.0625 -0.06274,0.173739 -0.138383,0.367449 -0.21875,0.53125 -0.04158,0.0828 -0.07904,0.169954 -0.125,0.25 -0.0546,0.09721 -0.126774,0.18835 -0.1875,0.28125 -0.09411,0.140965 -0.204921,0.275995 -0.3125,0.40625 -0.143174,0.17445 -0.303141,0.346998 -0.46875,0.5 -0.01117,0.0102 -0.01998,0.02115 -0.03125,0.03125 -0.138386,0.125556 -0.285091,0.234436 -0.4375,0.34375 -0.102571,0.07315 -0.204318,0.153364 -0.3125,0.21875 -0.0074,0.0045 -0.02384,-0.0044 -0.03125,0 -0.232039,0.138728 -0.462548,0.274778 -0.71875,0.375 0.301527,-0.0968 0.596455,-0.204138 0.875,-0.34375 0.55709,-0.279224 1.060053,-0.665694 1.5,-1.09375 0.219973,-0.214028 0.409366,-0.441865 0.59375,-0.6875 0.184384,-0.245635 0.355408,-0.507743 0.5,-0.78125 0.14012,-0.265048 0.276135,-0.524729 0.375,-0.8125 0.01041,-0.03078 0.02133,-0.06274 0.03125,-0.09375 0.09046,-0.278085 0.1388,-0.579404 0.1875,-0.875 C 89.95865,84.6507 90,84.334721 90,84 l 0,-2 0,-68 0,-2 C 90,8.676 87.324,6 84,6 L 12,6 z"
       id="rect3728"
       inkscape:connector-curvature="0" />
    <path
       id="path3615"
       d="M 12,90 C 8.676,90 6,87.324 6,84 L 6,82 6,14 6,12 c 0,-0.334721 0.04135,-0.6507 0.09375,-0.96875 0.0487,-0.295596 0.09704,-0.596915 0.1875,-0.875 C 6.29113,10.12587 6.302142,10.09265 6.3125,10.0625 6.411365,9.774729 6.5473802,9.515048 6.6875,9.25 6.8320918,8.976493 7.0031161,8.714385 7.1875,8.46875 7.3718839,8.223115 7.5612765,7.995278 7.78125,7.78125 8.221197,7.353194 8.72416,6.966724 9.28125,6.6875 9.559795,6.547888 9.8547231,6.440553 10.15625,6.34375 9.9000482,6.443972 9.6695391,6.580022 9.4375,6.71875 c -0.00741,0.0044 -0.023866,-0.0045 -0.03125,0 -0.031933,0.0193 -0.062293,0.04251 -0.09375,0.0625 -0.120395,0.0767 -0.2310226,0.163513 -0.34375,0.25 -0.1061728,0.0808 -0.2132809,0.161112 -0.3125,0.25 C 8.4783201,7.442683 8.3087904,7.626638 8.15625,7.8125 8.0486711,7.942755 7.9378561,8.077785 7.84375,8.21875 7.818661,8.25713 7.805304,8.30462 7.78125,8.34375 7.716487,8.446782 7.6510225,8.548267 7.59375,8.65625 7.4927417,8.850956 7.3880752,9.071951 7.3125,9.28125 7.30454,9.30306 7.288911,9.3218 7.28125,9.34375 7.2494249,9.4357 7.2454455,9.530581 7.21875,9.625 7.1884177,9.731618 7.1483606,9.828031 7.125,9.9375 7.0521214,10.279012 7,10.635705 7,11 l 0,2 0,68 0,2 c 0,2.781848 2.2181517,5 5,5 l 2,0 68,0 2,0 c 2.781848,0 5,-2.218152 5,-5 l 0,-2 0,-68 0,-2 C 89,10.635705 88.94788,10.279012 88.875,9.9375 88.83085,9.730607 88.78662,9.539842 88.71875,9.34375 88.71105,9.3218 88.69545,9.30306 88.6875,9.28125 88.62476,9.107511 88.549117,8.913801 88.46875,8.75 88.42717,8.6672 88.38971,8.580046 88.34375,8.5 88.28915,8.40279 88.216976,8.31165 88.15625,8.21875 88.06214,8.077785 87.951329,7.942755 87.84375,7.8125 87.700576,7.63805 87.540609,7.465502 87.375,7.3125 87.36383,7.3023 87.35502,7.29135 87.34375,7.28125 87.205364,7.155694 87.058659,7.046814 86.90625,6.9375 86.803679,6.86435 86.701932,6.784136 86.59375,6.71875 c -0.0074,-0.0045 -0.02384,0.0044 -0.03125,0 -0.232039,-0.138728 -0.462548,-0.274778 -0.71875,-0.375 0.301527,0.0968 0.596455,0.204138 0.875,0.34375 0.55709,0.279224 1.060053,0.665694 1.5,1.09375 0.219973,0.214028 0.409366,0.441865 0.59375,0.6875 0.184384,0.245635 0.355408,0.507743 0.5,0.78125 0.14012,0.265048 0.276135,0.524729 0.375,0.8125 0.01041,0.03078 0.02133,0.06274 0.03125,0.09375 0.09046,0.278085 0.1388,0.579404 0.1875,0.875 C 89.95865,11.3493 90,11.665279 90,12 l 0,2 0,68 0,2 c 0,3.324 -2.676,6 -6,6 l -72,0 z"
       style="opacity:0.2;fill:url(#radialGradient3619);fill-opacity:1;fill-rule:nonzero;stroke:none"
       inkscape:connector-curvature="0" />
    <path
       inkscape:connector-curvature="0"
       d="m -206.68573,-38.027726 c -3.87322,0.01333 -9.24209,0.09375 -15.0625,0.09375 l -21.15625,0 0.5,45.75 c 0.41146,38.159929 0.77167,46.997548 2.1875,53.21875 5.32279,23.38848 19.64245,36.79525 42.71875,40.031246 12.49165,1.75171 37.72094,-0.28617 57.5625,-4.624996 l 7.25,-1.5625 0,-66.40625 0,-66.40625 -18.5,0 -18.5,0 0,52.5 0,52.5 -17,0 -17,0 0,-36.5 0,-36.5 -7.5,0 c -4.125,0 -7.65625,0.209148 -7.65625,-0.09375 0,-0.302898 4.05735,-7.634148 8.8125,-15.71875 4.75515,-8.084602 9.2727,-15.61875 9.5,-16.03125 0.11365,-0.20625 -2.28303,-0.263332 -6.15625,-0.25 z"
       id="path3066"
       style="fill:#dd4814;fill-opacity:1" />
  </g>
  <g
     inkscape:groupmode="layer"
     id="layer5"
     inkscape:label="Highlight"
     sodipodi:insensitive="true"
     style="display:inline">
    <rect
       style="opacity:0.1;fill:url(#linearGradient3613);fill-opacity:1;fill-rule:nonzero;stroke:#ffffff;stroke-width:0.5;stroke-linecap:round;stroke-linejoin:miter;stroke-miterlimit:4;stroke-opacity:1;stroke-dasharray:none;stroke-dashoffset:0;filter:url(#filter3794)"
       id="rect3171"
       width="66"
       height="66"
       x="15"
       y="15"
       rx="12"
       ry="12"
       clip-path="url(#clipPath3613)" />
  </g>
  <g
     inkscape:groupmode="layer"
     id="layer4"
     inkscape:label="Symbol">
    <path
       sodipodi:type="inkscape:offset"
       inkscape:radius="0.99291724"
       inkscape:original="M 42 19.03125 C 35.875859 19.06225 29.744832 19.01177 23.625 19.09375 C 21.937572 19.410809 21.937864 21.304554 22.03125 22.65625 C 22.12037 34.223311 21.745319 45.791993 22.46875 57.34375 C 22.87803 65.44787 26.838785 73.794399 34.21875 77.71875 C 41.836418 81.971332 50.87985 81.155742 59.21875 80.3125 C 63.843831 79.739717 68.49973 79.040057 73 77.84375 C 74.541597 76.828832 73.790737 74.782591 73.96875 73.25 C 73.94794 55.720906 74.01038 38.181034 73.9375 20.65625 C 73.597343 18.892427 71.60978 18.998405 70.21875 19.0625 C 65.354056 19.07398 60.485394 18.9978 55.625 19.0625 C 53.937572 19.379559 53.937864 21.273304 54.03125 22.625 L 54.03125 63.03125 L 41.96875 63.03125 C 41.94795 53.230026 42.01037 43.421914 41.9375 33.625 C 41.620441 31.937572 39.726696 31.937864 38.375 32.03125 C 36.722228 32.39873 38.318923 30.95943 38.59375 30.25 C 40.333626 27.34885 42.225706 24.505322 43.875 21.5625 C 44.222457 20.342535 43.297707 19.022577 42 19.03125 z "
       style="opacity:0.05000000000000000;fill:#932d00;fill-opacity:1"
       id="path3884"
       d="m 42,18.03125 c -6.115331,0.03095 -12.240828,-0.01967 -18.375,0.0625 A 0.99301653,0.99301653 0 0 0 23.4375,18.125 c -1.196327,0.224784 -1.954294,1.188211 -2.21875,2.09375 -0.257882,0.883027 -0.234989,1.738152 -0.1875,2.4375 0.0012,0.01783 -0.0012,0.04491 0,0.0625 0.08708,11.519873 -0.288543,23.094032 0.4375,34.6875 0.423824,8.392102 4.516023,17.058283 12.28125,21.1875 7.956884,4.44195 17.215869,3.562774 25.5625,2.71875 a 0.99301653,0.99301653 0 0 0 0.03125,0 c 4.642296,-0.574915 9.334547,-1.284704 13.90625,-2.5 a 0.99301653,0.99301653 0 0 0 0.28125,-0.125 C 74.619873,77.9708 74.968255,76.748657 75,75.78125 75.031745,74.813843 74.904046,73.932064 74.96875,73.375 a 0.99301653,0.99301653 0 0 0 0,-0.125 C 74.947944,55.72405 75.010401,38.186148 74.9375,20.65625 a 0.99301653,0.99301653 0 0 0 -0.03125,-0.1875 c -0.23887,-1.238619 -1.25329,-2.006429 -2.1875,-2.25 -0.92272,-0.240575 -1.810826,-0.188602 -2.5,-0.15625 -0.01039,2.5e-5 -0.02086,-2.4e-5 -0.03125,0 -4.842457,0.01105 -9.693358,-0.06482 -14.5625,0 a 0.99301653,0.99301653 0 0 0 -0.1875,0.03125 c -1.196327,0.224784 -1.954294,1.188211 -2.21875,2.09375 -0.257882,0.883027 -0.234989,1.738152 -0.1875,2.4375 0.0012,0.01783 -0.0012,0.04491 0,0.0625 l 0,39.34375 -10.0625,0 C 42.953893,52.567843 43.007958,43.097592 42.9375,33.625 a 0.99301653,0.99301653 0 0 0 -0.03125,-0.1875 c -0.224784,-1.196327 -1.188211,-1.954294 -2.09375,-2.21875 -0.566173,-0.165347 -1.045484,-0.128097 -1.5625,-0.125 0.06685,-0.101261 0.126447,-0.216582 0.1875,-0.34375 0.02357,-0.0393 0.03887,-0.0857 0.0625,-0.125 0.0063,-0.01532 0.02512,-0.01543 0.03125,-0.03125 1.698907,-2.822077 3.57444,-5.597321 5.21875,-8.53125 a 0.99301653,0.99301653 0 0 0 0.09375,-0.21875 C 45.370017,19.99596 43.974109,18.018056 42,18.03125 z" />
    <path
       style="opacity:0.10000000000000001;fill:#932d00;fill-opacity:1"
       d="m 42,19.03125 c -6.124141,0.031 -12.255168,-0.01948 -18.375,0.0625 -1.687428,0.317059 -1.687136,2.202548 -1.59375,3.554244 0.08912,11.567061 -0.273226,23.149817 0.450205,34.701574 0.40928,8.10412 4.349778,16.44828 11.729743,20.372631 7.617668,4.252582 16.673456,3.433122 25.012356,2.58988 C 63.848635,79.739296 68.49973,79.040057 73,77.84375 c 1.541597,-1.014918 0.790737,-3.065048 0.96875,-4.597639 -0.02081,-17.529094 0.04163,-35.065077 -0.03125,-52.589861 -0.340157,-1.763823 -2.324885,-1.661318 -3.715915,-1.597223 -4.864694,0.01148 -9.736191,-0.0612 -14.596585,0.0035 -1.687428,0.317059 -1.687136,2.202548 -1.59375,3.554244 0,13.471502 0,26.943004 0,40.414506 -4.020833,0 -8.041667,0 -12.0625,0 -0.0208,-9.801224 0.04162,-19.609336 -0.03125,-29.40625 -0.317059,-1.687428 -2.202548,-1.687136 -3.554244,-1.59375 -1.652772,0.36748 -0.05624,-1.080365 0.218587,-1.789795 C 40.341719,27.340332 42.225706,24.505322 43.875,21.5625 44.222457,20.342535 43.297707,19.022577 42,19.03125 z"
       id="path3878"
       inkscape:connector-curvature="0" />
    <path
       sodipodi:type="inkscape:offset"
       inkscape:radius="0.96410447"
       inkscape:original="M 42 21 L 24 21.03125 L 24 40 C 24 55.765571 24.539659 59.542529 25.15625 62.125 C 27.474312 71.833749 33.731578 77.406712 43.78125 78.75 C 49.221334 79.477149 60.202798 78.613582 68.84375 76.8125 L 72 76.15625 L 72 21.03125 L 56 21 L 56 65 L 40 65 L 40 34 L 34 34 L 42 21 z "
       style="opacity:0.14999999999999999;fill:#932d00;fill-opacity:1"
       id="path3874"
       d="M 42,20.03125 24,20.0625 a 0.96420088,0.96420088 0 0 0 -0.96875,0.96875 l 0,18.96875 c 0,15.787572 0.551107,19.678343 1.1875,22.34375 2.389721,10.008877 9.092836,15.992282 19.4375,17.375 5.708315,0.763002 16.634578,-0.146935 25.375,-1.96875 l 3.15625,-0.65625 a 0.96420088,0.96420088 0 0 0 0.78125,-0.9375 l 0,-55.125 A 0.96420088,0.96420088 0 0 0 72,20.0625 L 56,20.03125 A 0.96420088,0.96420088 0 0 0 55.03125,21 l 0,43.03125 -14.0625,0 0,-30.03125 A 0.96420088,0.96420088 0 0 0 40,33.03125 l -4.28125,0 L 42.8125,21.5 A 0.96420088,0.96420088 0 0 0 42,20.03125 z" />
    <path
       sodipodi:nodetypes="ccsscccccccccc"
       inkscape:connector-curvature="0"
       d="M 24,21.039682 24,40 c 0,15.765571 0.553809,19.539944 1.1704,22.122415 2.318062,9.708749 8.55424,15.274008 18.603912,16.617296 5.440084,0.727149 16.427378,-0.118791 25.06833,-1.919873 L 72,76.171229 72,21.03968 56,21 l 0,44 -16,0 0,-31 -6,0 8,-13 z"
       id="path3870"
       style="fill:#932d00;fill-opacity:1;opacity:0.29999999999999999" />
    <path
       style="fill:#ffffff;fill-opacity:1"
       id="path3865"
       d="M 24,20.039682 24,39 c 0,15.765571 0.553809,19.539944 1.1704,22.122415 2.318062,9.708749 8.55424,15.274008 18.603912,16.617296 5.440084,0.727149 16.427378,-0.118791 25.06833,-1.919873 L 72,75.171229 72,20.03968 56,20 l 0,44 -16,0 0,-31 -6,0 8,-13 z"
       inkscape:connector-curvature="0"
       sodipodi:nodetypes="ccsscccccccccc" />
  </g>
</svg>
