<?xml version="1.0" encoding="UTF-8" standalone="no"?>
<!-- Created with Inkscape (http://www.inkscape.org/) -->

<svg
   xmlns:dc="http://purl.org/dc/elements/1.1/"
   xmlns:cc="http://creativecommons.org/ns#"
   xmlns:rdf="http://www.w3.org/1999/02/22-rdf-syntax-ns#"
   xmlns:svg="http://www.w3.org/2000/svg"
   xmlns="http://www.w3.org/2000/svg"
   xmlns:xlink="http://www.w3.org/1999/xlink"
   xmlns:sodipodi="http://sodipodi.sourceforge.net/DTD/sodipodi-0.dtd"
   xmlns:inkscape="http://www.inkscape.org/namespaces/inkscape"
   width="96"
   height="96"
   id="svg2408"
   sodipodi:version="0.32"
   inkscape:version="0.48.0 r9654"
   version="1.0"
   sodipodi:docname="zim.svg"
   inkscape:output_extension="org.inkscape.output.svg.inkscape"
   style="display:inline">
  <defs
     id="defs2410">
    <linearGradient
       id="linearGradient3970">
      <stop
         id="stop3972"
         offset="0"
         style="stop-color:#505050;stop-opacity:1;" />
      <stop
         id="stop3974"
         offset="1"
         style="stop-color:#777777;stop-opacity:1;" />
    </linearGradient>
    <linearGradient
       id="linearGradient4001">
      <stop
         style="stop-color:#9fadc6;stop-opacity:1;"
         offset="0"
         id="stop4003" />
      <stop
         style="stop-color:#bfc9da;stop-opacity:1;"
         offset="1"
         id="stop4005" />
    </linearGradient>
    <linearGradient
       id="linearGradient3993">
      <stop
         style="stop-color:#3a4966;stop-opacity:1;"
         offset="0"
         id="stop3995" />
      <stop
         style="stop-color:#5b719a;stop-opacity:1;"
         offset="1"
         id="stop3997" />
    </linearGradient>
    <linearGradient
       id="linearGradient4161">
      <stop
         style="stop-color:#737373;stop-opacity:1;"
         offset="0"
         id="stop4163" />
      <stop
         style="stop-color:#989898;stop-opacity:1;"
         offset="1"
         id="stop4165" />
    </linearGradient>
    <linearGradient
       id="linearGradient4078">
      <stop
         style="stop-color:#82ce24;stop-opacity:1;"
         offset="0"
         id="stop4080" />
      <stop
         style="stop-color:#abc837;stop-opacity:1;"
         offset="1"
         id="stop4082" />
    </linearGradient>
    <linearGradient
       id="ButtonShadow"
       gradientTransform="scale(1.0058652,0.994169)"
       x1="45.447727"
       y1="92.539597"
       x2="45.447727"
       y2="7.0165396"
       gradientUnits="userSpaceOnUse">
      <stop
         style="stop-color:#000000;stop-opacity:1;"
         offset="0"
         id="stop3750" />
      <stop
         style="stop-color:#000000;stop-opacity:0.58823532;"
         offset="1"
         id="stop3752" />
    </linearGradient>
    <linearGradient
       id="linearGradient3700">
      <stop
         style="stop-color:#b5b5b5;stop-opacity:1;"
         offset="0"
         id="stop3702" />
      <stop
         style="stop-color:#dedede;stop-opacity:1;"
         offset="1"
         id="stop3704" />
    </linearGradient>
    <linearGradient
       inkscape:collect="always"
       xlink:href="#linearGradient3700"
       id="linearGradient3706"
       x1="48"
       y1="90"
       x2="48"
       y2="5.9877172"
       gradientUnits="userSpaceOnUse" />
    <filter
       inkscape:collect="always"
       id="filter3174"
       color-interpolation-filters="sRGB">
      <feGaussianBlur
         inkscape:collect="always"
         stdDeviation="1.71"
         id="feGaussianBlur3176" />
    </filter>
    <linearGradient
       id="ButtonShadow-0"
       gradientTransform="matrix(1.0058652,0,0,0.994169,100,0)"
       x1="45.447727"
       y1="92.539597"
       x2="45.447727"
       y2="7.0165396"
       gradientUnits="userSpaceOnUse">
      <stop
         style="stop-color:#000000;stop-opacity:1;"
         offset="0"
         id="stop3750-8" />
      <stop
         style="stop-color:#000000;stop-opacity:0.58823532;"
         offset="1"
         id="stop3752-5" />
    </linearGradient>
    <linearGradient
       inkscape:collect="always"
       xlink:href="#ButtonShadow-0"
       id="linearGradient3780"
       gradientUnits="userSpaceOnUse"
       gradientTransform="matrix(1.0238095,0,0,1.0119048,-1.1428571,-98.071429)"
       x1="32.251034"
       y1="6.1317081"
       x2="32.251034"
       y2="90.238609" />
    <linearGradient
       inkscape:collect="always"
       xlink:href="#ButtonShadow-0"
       id="linearGradient3772"
       gradientUnits="userSpaceOnUse"
       gradientTransform="matrix(1.0238095,0,0,1.0119048,-1.1428571,-98.071429)"
       x1="32.251034"
       y1="6.1317081"
       x2="32.251034"
       y2="90.238609" />
    <linearGradient
       inkscape:collect="always"
       xlink:href="#ButtonShadow-0"
       id="linearGradient3725"
       gradientUnits="userSpaceOnUse"
       gradientTransform="matrix(1.0238095,0,0,1.0119048,-1.1428571,-98.071429)"
       x1="32.251034"
       y1="6.1317081"
       x2="32.251034"
       y2="90.238609" />
    <linearGradient
       inkscape:collect="always"
       xlink:href="#ButtonShadow-0"
       id="linearGradient3721"
       gradientUnits="userSpaceOnUse"
       gradientTransform="translate(0,-97)"
       x1="32.251034"
       y1="6.1317081"
       x2="32.251034"
       y2="90.238609" />
    <linearGradient
       y2="90.238609"
       x2="32.251034"
       y1="6.1317081"
       x1="32.251034"
       gradientTransform="matrix(1.0238095,0,0,1.0119048,-1.1428571,-98.071429)"
       gradientUnits="userSpaceOnUse"
       id="linearGradient3760"
       xlink:href="#ButtonShadow-0"
       inkscape:collect="always" />
    <linearGradient
       inkscape:collect="always"
       id="linearGradient3737-1">
      <stop
         style="stop-color:#ffffff;stop-opacity:1;"
         offset="0"
         id="stop3739-9" />
      <stop
         style="stop-color:#ffffff;stop-opacity:0;"
         offset="1"
         id="stop3741-3" />
    </linearGradient>
    <linearGradient
       y2="63.893143"
       x2="36.357143"
       y1="6"
       x1="36.357143"
       gradientUnits="userSpaceOnUse"
       id="linearGradient3923"
       xlink:href="#linearGradient3737-1"
       inkscape:collect="always"
       gradientTransform="translate(10,0)" />
    <radialGradient
       gradientUnits="userSpaceOnUse"
       gradientTransform="matrix(1,0,0,1.2026648,0,-16.884421)"
       r="33"
       fy="88.921486"
       fx="81.25486"
       cy="88.921486"
       cx="81.25486"
       id="radialGradient3361"
       xlink:href="#linearGradient3929"
       inkscape:collect="always" />
    <radialGradient
       gradientUnits="userSpaceOnUse"
       gradientTransform="matrix(1,0,0,0.9764208,0,1.017233)"
       r="39.062233"
       fy="48.003178"
       fx="49.809036"
       cy="48.003178"
       cx="49.809036"
       id="radialGradient3351"
       xlink:href="#linearGradient3929"
       inkscape:collect="always" />
    <linearGradient
       gradientUnits="userSpaceOnUse"
       y2="65.10598"
       x2="37.609177"
       y1="120.07541"
       x1="26.238745"
       id="linearGradient3331"
       xlink:href="#linearGradient3325"
       inkscape:collect="always" />
    <linearGradient
       gradientUnits="userSpaceOnUse"
       y2="8.2027845"
       x2="92.016678"
       y1="58.674717"
       x1="104.5485"
       id="linearGradient3323"
       xlink:href="#linearGradient3309"
       inkscape:collect="always" />
    <linearGradient
       gradientUnits="userSpaceOnUse"
       y2="69.069984"
       x2="111.25597"
       y1="122"
       x1="93.730133"
       id="linearGradient3315"
       xlink:href="#linearGradient3317"
       inkscape:collect="always" />
    <linearGradient
       gradientUnits="userSpaceOnUse"
       y2="61.131172"
       x2="51.641418"
       y1="8.4104919"
       x1="30.736244"
       id="linearGradient3307"
       xlink:href="#linearGradient3300"
       inkscape:collect="always" />
    <linearGradient
       gradientUnits="userSpaceOnUse"
       y2="7.8298512"
       x2="60.541664"
       y1="127.96666"
       x1="60.541664"
       id="linearGradient3935"
       xlink:href="#linearGradient3929"
       inkscape:collect="always" />
    <linearGradient
       id="linearGradient3929">
      <stop
         id="stop3931"
         offset="0"
         style="stop-color:#000000;stop-opacity:1;" />
      <stop
         id="stop3933"
         offset="1"
         style="stop-color:#000000;stop-opacity:0.58823532;" />
    </linearGradient>
    <linearGradient
       id="linearGradient3300">
      <stop
         id="stop3303"
         offset="0"
         style="stop-color:#55c5e6;stop-opacity:1;" />
      <stop
         id="stop3305"
         offset="1"
         style="stop-color:#016a9d;stop-opacity:1;" />
    </linearGradient>
    <linearGradient
       id="linearGradient3309">
      <stop
         id="stop3311"
         offset="0"
         style="stop-color:#cc13a7;stop-opacity:1;" />
      <stop
         id="stop3313"
         offset="1"
         style="stop-color:#f487de;stop-opacity:1;" />
    </linearGradient>
    <linearGradient
       id="linearGradient3317">
      <stop
         id="stop3319"
         offset="0"
         style="stop-color:#6ab300;stop-opacity:1;" />
      <stop
         id="stop3321"
         offset="1"
         style="stop-color:#9dcf00;stop-opacity:1;" />
    </linearGradient>
    <linearGradient
       id="linearGradient3325">
      <stop
         id="stop3327"
         offset="0"
         style="stop-color:#f06805;stop-opacity:1;" />
      <stop
         id="stop3329"
         offset="1"
         style="stop-color:#ffb03c;stop-opacity:1;" />
    </linearGradient>
    <linearGradient
       inkscape:collect="always"
       xlink:href="#linearGradient3317"
       id="linearGradient3909"
       gradientUnits="userSpaceOnUse"
       x1="93.730133"
       y1="122"
       x2="111.25597"
       y2="69.069984" />
    <linearGradient
       inkscape:collect="always"
       xlink:href="#linearGradient3309"
       id="linearGradient3911"
       gradientUnits="userSpaceOnUse"
       x1="104.5485"
       y1="58.674717"
       x2="92.016678"
       y2="8.2027845" />
    <linearGradient
       inkscape:collect="always"
       xlink:href="#linearGradient3325"
       id="linearGradient3913"
       gradientUnits="userSpaceOnUse"
       x1="26.238745"
       y1="120.07541"
       x2="37.609177"
       y2="65.10598" />
    <linearGradient
       inkscape:collect="always"
       xlink:href="#linearGradient3300"
       id="linearGradient3915"
       gradientUnits="userSpaceOnUse"
       x1="30.736244"
       y1="8.4104919"
       x2="51.641418"
       y2="61.131172" />
    <radialGradient
       inkscape:collect="always"
       xlink:href="#linearGradient3929"
       id="radialGradient3917"
       gradientUnits="userSpaceOnUse"
       gradientTransform="matrix(1,0,0,0.9764208,0,1.017233)"
       cx="49.809036"
       cy="48.003178"
       fx="49.809036"
       fy="48.003178"
       r="39.062233" />
    <radialGradient
       inkscape:collect="always"
       xlink:href="#linearGradient3929"
       id="radialGradient3919"
       gradientUnits="userSpaceOnUse"
       gradientTransform="matrix(1,0,0,1.2026648,0,-16.884421)"
       cx="81.25486"
       cy="88.921486"
       fx="81.25486"
       fy="88.921486"
       r="33" />
    <radialGradient
       inkscape:collect="always"
       xlink:href="#linearGradient3929"
       id="radialGradient3923"
       gradientUnits="userSpaceOnUse"
       gradientTransform="matrix(1,0,0,1.2026648,-329.1197,24.758165)"
       cx="81.25486"
       cy="88.921486"
       fx="81.25486"
       fy="88.921486"
       r="33" />
    <radialGradient
       inkscape:collect="always"
       xlink:href="#linearGradient3929"
       id="radialGradient3926"
       gradientUnits="userSpaceOnUse"
       gradientTransform="matrix(1,0,0,0.9764208,-329.1197,42.659819)"
       cx="49.809036"
       cy="48.003178"
       fx="49.809036"
       fy="48.003178"
       r="39.062233" />
    <linearGradient
       inkscape:collect="always"
       xlink:href="#linearGradient3300"
       id="linearGradient3930"
       gradientUnits="userSpaceOnUse"
       x1="30.736244"
       y1="8.4104919"
       x2="51.641418"
       y2="61.131172"
       gradientTransform="matrix(0.72413793,0,0,0.72413793,-98.344829,91.65517)" />
    <linearGradient
       inkscape:collect="always"
       xlink:href="#linearGradient3325"
       id="linearGradient3933"
       gradientUnits="userSpaceOnUse"
       x1="26.238745"
       y1="120.07541"
       x2="37.609177"
       y2="65.10598"
       gradientTransform="matrix(0.72413793,0,0,0.72413793,-98.344829,91.65517)" />
    <linearGradient
       inkscape:collect="always"
       xlink:href="#linearGradient3309"
       id="linearGradient3936"
       gradientUnits="userSpaceOnUse"
       x1="104.5485"
       y1="58.674717"
       x2="92.016678"
       y2="8.2027845"
       gradientTransform="matrix(0.72413793,0,0,0.72413793,-98.344829,91.65517)" />
    <linearGradient
       inkscape:collect="always"
       xlink:href="#linearGradient3317"
       id="linearGradient3939"
       gradientUnits="userSpaceOnUse"
       x1="93.730133"
       y1="122"
       x2="111.25597"
       y2="69.069984"
       gradientTransform="matrix(0.72413793,0,0,0.72413793,-98.344829,91.65517)" />
    <linearGradient
       inkscape:collect="always"
       xlink:href="#linearGradient3300"
       id="linearGradient3959"
       gradientUnits="userSpaceOnUse"
       gradientTransform="matrix(0.72413793,0,0,0.72413793,-98.344829,91.65517)"
       x1="30.736244"
       y1="8.4104919"
       x2="51.641418"
       y2="61.131172" />
    <linearGradient
       inkscape:collect="always"
       xlink:href="#linearGradient3700"
       id="linearGradient4003"
       x1="32"
       y1="88"
       x2="32"
       y2="7.6009951"
       gradientUnits="userSpaceOnUse" />
    <linearGradient
       inkscape:collect="always"
       xlink:href="#linearGradient3700"
       id="linearGradient4025"
       gradientUnits="userSpaceOnUse"
       x1="32"
       y1="88"
       x2="32"
       y2="7.6009951"
       gradientTransform="translate(0,-1)" />
    <linearGradient
       inkscape:collect="always"
       xlink:href="#linearGradient3700"
       id="linearGradient4027"
       gradientUnits="userSpaceOnUse"
       x1="32"
       y1="88"
       x2="32"
       y2="7.6009951" />
    <linearGradient
       inkscape:collect="always"
       xlink:href="#linearGradient3700"
       id="linearGradient4034"
       gradientUnits="userSpaceOnUse"
       x1="80"
       y1="88"
       x2="80"
       y2="8"
       gradientTransform="translate(0,-1)" />
    <linearGradient
       inkscape:collect="always"
       xlink:href="#linearGradient3700"
       id="linearGradient4036"
       gradientUnits="userSpaceOnUse"
       x1="80"
       y1="88"
       x2="80"
       y2="8" />
    <linearGradient
       inkscape:collect="always"
       xlink:href="#linearGradient3700"
       id="linearGradient4043"
       gradientUnits="userSpaceOnUse"
       x1="64"
       y1="88"
       x2="64"
       y2="7.6009951"
       gradientTransform="translate(0,-1)" />
    <linearGradient
       inkscape:collect="always"
       xlink:href="#linearGradient3700"
       id="linearGradient4045"
       gradientUnits="userSpaceOnUse"
       x1="64"
       y1="88"
       x2="64"
       y2="7.6009951" />
    <linearGradient
       inkscape:collect="always"
       xlink:href="#linearGradient3700"
       id="linearGradient4055"
       gradientUnits="userSpaceOnUse"
       x1="32"
       y1="88"
       x2="32"
       y2="7.6009951"
       gradientTransform="translate(0,1)" />
    <linearGradient
       inkscape:collect="always"
       xlink:href="#linearGradient3700"
       id="linearGradient4057"
       gradientUnits="userSpaceOnUse"
       x1="32"
       y1="88"
       x2="32"
       y2="7.6009951" />
    <linearGradient
       inkscape:collect="always"
       xlink:href="#linearGradient3700"
       id="linearGradient4064"
       gradientUnits="userSpaceOnUse"
       x1="80"
       y1="88"
       x2="80"
       y2="8"
       gradientTransform="translate(0,1)" />
    <linearGradient
       inkscape:collect="always"
       xlink:href="#linearGradient3700"
       id="linearGradient4066"
       gradientUnits="userSpaceOnUse"
       x1="80"
       y1="88"
       x2="80"
       y2="8" />
    <linearGradient
       inkscape:collect="always"
       xlink:href="#linearGradient3700"
       id="linearGradient4073"
       gradientUnits="userSpaceOnUse"
       x1="64"
       y1="88"
       x2="64"
       y2="7.6009951"
       gradientTransform="translate(0,1)" />
    <linearGradient
       inkscape:collect="always"
       xlink:href="#linearGradient3700"
       id="linearGradient4075"
       gradientUnits="userSpaceOnUse"
       x1="64"
       y1="88"
       x2="64"
       y2="7.6009951" />
    <inkscape:perspective
       id="perspective2914"
       inkscape:persp3d-origin="0.5 : 0.33333333 : 1"
       inkscape:vp_z="1 : 0.5 : 1"
       inkscape:vp_y="0 : 1000 : 0"
       inkscape:vp_x="0 : 0.5 : 1"
       sodipodi:type="inkscape:persp3d" />
    <radialGradient
       inkscape:collect="always"
       xlink:href="#linearGradient3929-4"
       id="radialGradient3351-8"
       cx="49.809036"
       cy="48.003178"
       fx="49.809036"
       fy="48.003178"
       r="39.062233"
       gradientTransform="matrix(1,0,0,0.9764208,0,1.017233)"
       gradientUnits="userSpaceOnUse" />
    <linearGradient
       id="linearGradient3929-4">
      <stop
         style="stop-color:#000000;stop-opacity:1;"
         offset="0"
         id="stop3931-4" />
      <stop
         style="stop-color:#000000;stop-opacity:0.58823532;"
         offset="1"
         id="stop3933-1" />
    </linearGradient>
    <radialGradient
       inkscape:collect="always"
       xlink:href="#linearGradient3929-4"
       id="radialGradient3361-7"
       cx="81.25486"
       cy="88.921486"
       fx="81.25486"
       fy="88.921486"
       r="33"
       gradientTransform="matrix(0.70689655,0,0,0.8501596,2.7586207,-9.1769186)"
       gradientUnits="userSpaceOnUse" />
    <linearGradient
       id="linearGradient2923">
      <stop
         style="stop-color:#000000;stop-opacity:1;"
         offset="0"
         id="stop2925" />
      <stop
         style="stop-color:#000000;stop-opacity:0.58823532;"
         offset="1"
         id="stop2927" />
    </linearGradient>
    <radialGradient
       r="39.062233"
       fy="48.003178"
       fx="49.809036"
       cy="48.003178"
       cx="49.809036"
       gradientTransform="matrix(0.70689655,0,0,0.69022849,2.7586207,3.4776989)"
       gradientUnits="userSpaceOnUse"
       id="radialGradient2931"
       xlink:href="#linearGradient3929-4"
       inkscape:collect="always" />
    <radialGradient
       inkscape:collect="always"
       xlink:href="#linearGradient3929-4"
       id="radialGradient4119"
       gradientUnits="userSpaceOnUse"
       gradientTransform="matrix(0.72056804,0,0,0.70357762,2.680218,1.8182446)"
       cx="49.809036"
       cy="48.003178"
       fx="49.809036"
       fy="48.003178"
       r="39.062233" />
    <radialGradient
       inkscape:collect="always"
       xlink:href="#linearGradient3929-4"
       id="radialGradient4125"
       gradientUnits="userSpaceOnUse"
       gradientTransform="matrix(0.72056804,0,0,0.86660182,2.680218,-11.081115)"
       cx="81.25486"
       cy="88.921486"
       fx="81.25486"
       fy="88.921486"
       r="33" />
    <linearGradient
       inkscape:collect="always"
       xlink:href="#linearGradient3700"
       id="linearGradient4146"
       gradientUnits="userSpaceOnUse"
       x1="32"
       y1="88"
       x2="32"
       y2="7.6009951" />
    <linearGradient
       inkscape:collect="always"
       xlink:href="#linearGradient3317"
       id="linearGradient3726"
       gradientUnits="userSpaceOnUse"
       x1="80"
       y1="48"
       x2="80"
       y2="8"
       gradientTransform="translate(10,0)" />
    <inkscape:perspective
       id="perspective4104"
       inkscape:persp3d-origin="0.5 : 0.33333333 : 1"
       inkscape:vp_z="1 : 0.5 : 1"
       inkscape:vp_y="0 : 1000 : 0"
       inkscape:vp_x="0 : 0.5 : 1"
       sodipodi:type="inkscape:persp3d" />
    <linearGradient
       y2="138.66119"
       x2="48"
       y1="20.220806"
       x1="48"
       gradientUnits="userSpaceOnUse"
       id="linearGradient2890"
       xlink:href="#linearGradient3737-9"
       inkscape:collect="always" />
    <linearGradient
       inkscape:collect="always"
       id="linearGradient3737-9">
      <stop
         style="stop-color:#ffffff;stop-opacity:1;"
         offset="0"
         id="stop3739-2" />
      <stop
         style="stop-color:#ffffff;stop-opacity:0;"
         offset="1"
         id="stop3741-1" />
    </linearGradient>
    <clipPath
       clipPathUnits="userSpaceOnUse"
       id="clipPath3613">
      <rect
         ry="6"
         rx="6"
         y="6"
         x="6"
         height="84"
         width="84"
         id="rect3615"
         style="fill:#ffffff;fill-opacity:1;fill-rule:nonzero;stroke:none" />
    </clipPath>
    <linearGradient
       y2="138.66119"
       x2="48"
       y1="20.220806"
       x1="48"
       gradientUnits="userSpaceOnUse"
       id="linearGradient4117"
       xlink:href="#linearGradient3737-9"
       inkscape:collect="always" />
    <linearGradient
       id="color_3_"
       gradientUnits="userSpaceOnUse"
       x1="84.25"
       y1="128.9995"
       x2="84.25"
       y2="216.5005">
      <stop
         offset="0"
         style="stop-color:#d8d8d8;stop-opacity:1;"
         id="stop48" />
      <stop
         offset="1"
         style="stop-color:#f9f9f9;stop-opacity:1;"
         id="stop50" />
    </linearGradient>
    <linearGradient
       y2="216.5005"
       x2="84.25"
       y1="128.9995"
       x1="84.25"
       gradientUnits="userSpaceOnUse"
       id="linearGradient3093">
      <stop
         id="stop3095"
         style="stop-color:#FFFFFF"
         offset="0" />
      <stop
         id="stop3097"
         style="stop-color:#DADADA"
         offset="1" />
    </linearGradient>
    <linearGradient
       inkscape:collect="always"
       xlink:href="#linearGradient3700-7"
       id="linearGradient3706-8"
       x1="48"
       y1="90"
       x2="48"
       y2="5.9877172"
       gradientUnits="userSpaceOnUse" />
    <linearGradient
       id="linearGradient3700-7">
      <stop
         style="stop-color:#d7dae1;stop-opacity:1;"
         offset="0"
         id="stop3702-2" />
      <stop
         style="stop-color:#eeeff2;stop-opacity:1;"
         offset="1"
         id="stop3704-9" />
    </linearGradient>
    <linearGradient
       y2="63.893143"
       x2="36.357143"
       y1="6"
       x1="36.357143"
       gradientUnits="userSpaceOnUse"
       id="linearGradient3923-0"
       xlink:href="#linearGradient3737-1-9"
       inkscape:collect="always" />
    <linearGradient
       inkscape:collect="always"
       id="linearGradient3737-1-9">
      <stop
         style="stop-color:#ffffff;stop-opacity:1;"
         offset="0"
         id="stop3739-9-7" />
      <stop
         style="stop-color:#ffffff;stop-opacity:0;"
         offset="1"
         id="stop3741-3-7" />
    </linearGradient>
    <radialGradient
       r="42"
       fy="90.171875"
       fx="48"
       cy="90.171875"
       cx="48"
       gradientTransform="matrix(1.1573129,0,0,0.99590774,-7.551021,0.1971319)"
       gradientUnits="userSpaceOnUse"
       id="radialGradient2886-8"
       xlink:href="#linearGradient3737-0-2"
       inkscape:collect="always" />
    <linearGradient
       inkscape:collect="always"
       id="linearGradient3737-0-2">
      <stop
         style="stop-color:#ffffff;stop-opacity:1;"
         offset="0"
         id="stop3739-6-6" />
      <stop
         style="stop-color:#ffffff;stop-opacity:0;"
         offset="1"
         id="stop3741-0-7" />
    </linearGradient>
    <linearGradient
       y2="138.66119"
       x2="48"
       y1="20.220806"
       x1="48"
       gradientUnits="userSpaceOnUse"
       id="linearGradient2890-4"
       xlink:href="#linearGradient3737-9-3"
       inkscape:collect="always" />
    <linearGradient
       inkscape:collect="always"
       id="linearGradient3737-9-3">
      <stop
         style="stop-color:#ffffff;stop-opacity:1;"
         offset="0"
         id="stop3739-2-0" />
      <stop
         style="stop-color:#ffffff;stop-opacity:0;"
         offset="1"
         id="stop3741-1-9" />
    </linearGradient>
    <clipPath
       clipPathUnits="userSpaceOnUse"
       id="clipPath3613-0">
      <rect
         ry="6"
         rx="6"
         y="6"
         x="6"
         height="84"
         width="84"
         id="rect3615-6"
         style="fill:#ffffff;fill-opacity:1;fill-rule:nonzero;stroke:none" />
    </clipPath>
    <filter
       color-interpolation-filters="sRGB"
       inkscape:collect="always"
       id="filter3794"
       x="-0.192"
       width="1.3839999"
       y="-0.192"
       height="1.3839999">
      <feGaussianBlur
         inkscape:collect="always"
         stdDeviation="5.28"
         id="feGaussianBlur3796" />
    </filter>
    <linearGradient
       y2="138.66119"
       x2="48"
       y1="20.220806"
       x1="48"
       gradientUnits="userSpaceOnUse"
       id="linearGradient3121"
       xlink:href="#linearGradient3737-9-3"
       inkscape:collect="always" />
    <linearGradient
       inkscape:collect="always"
       xlink:href="#linearGradient3317"
       id="linearGradient4094"
       gradientUnits="userSpaceOnUse"
       gradientTransform="matrix(0.62483889,0,0,0.62483889,2.6946498,-67.277308)"
       x1="59"
       y1="213"
       x2="59"
       y2="133" />
    <linearGradient
       inkscape:collect="always"
       xlink:href="#linearGradient3317"
       id="linearGradient4148"
       gradientUnits="userSpaceOnUse"
       x1="48"
       y1="64"
       x2="48"
       y2="24"
       gradientTransform="translate(0,1)" />
    <linearGradient
       inkscape:collect="always"
       xlink:href="#linearGradient3317"
       id="linearGradient4150"
       gradientUnits="userSpaceOnUse"
       x1="48"
       y1="64"
       x2="48"
       y2="24" />
    <linearGradient
       inkscape:collect="always"
       xlink:href="#linearGradient3317"
       id="linearGradient4169"
       gradientUnits="userSpaceOnUse"
       x1="48"
       y1="64"
       x2="48"
       y2="24"
       gradientTransform="translate(0,1)" />
    <linearGradient
       inkscape:collect="always"
       xlink:href="#linearGradient3317"
       id="linearGradient4173"
       gradientUnits="userSpaceOnUse"
       x1="48"
       y1="64"
       x2="48"
       y2="24" />
    <linearGradient
       inkscape:collect="always"
       xlink:href="#color_3_"
       id="linearGradient4143"
       x1="64"
       y1="64"
       x2="64"
       y2="8"
       gradientUnits="userSpaceOnUse" />
    <linearGradient
       inkscape:collect="always"
       xlink:href="#linearGradient3700"
       id="linearGradient4159"
       x1="24"
       y1="88"
       x2="24"
       y2="48"
       gradientUnits="userSpaceOnUse" />
    <linearGradient
       inkscape:collect="always"
       xlink:href="#linearGradient3657"
       id="linearGradient3663"
       x1="13"
       y1="16"
       x2="13"
       y2="3.9584055"
       gradientUnits="userSpaceOnUse" />
    <linearGradient
       id="linearGradient3657">
      <stop
         style="stop-color:#afafaf;stop-opacity:1;"
         offset="0"
         id="stop3659" />
      <stop
         style="stop-color:#cecece;stop-opacity:1;"
         offset="1"
         id="stop3661" />
    </linearGradient>
    <linearGradient
       inkscape:collect="always"
       xlink:href="#linearGradient4161"
       id="linearGradient3999"
       x1="72"
       y1="88"
       x2="72"
       y2="48"
       gradientUnits="userSpaceOnUse" />
    <linearGradient
       inkscape:collect="always"
       xlink:href="#linearGradient3325"
       id="linearGradient4007"
       x1="24"
       y1="64"
       x2="24"
       y2="8"
       gradientUnits="userSpaceOnUse" />
  </defs>
  <sodipodi:namedview
     id="base"
     pagecolor="#ffffff"
     bordercolor="#666666"
     borderopacity="1.0"
     inkscape:pageopacity="0.0"
     inkscape:pageshadow="2"
     inkscape:zoom="4.8187246"
     inkscape:cx="-28.391329"
     inkscape:cy="54.709245"
     inkscape:document-units="px"
     inkscape:current-layer="layer1"
     showgrid="true"
     showborder="true"
     inkscape:showpageshadow="false"
     inkscape:window-width="1920"
     inkscape:window-height="1029"
     inkscape:window-x="0"
     inkscape:window-y="25"
     inkscape:window-maximized="1"
     inkscape:snap-grids="true"
     inkscape:snap-global="true">
    <inkscape:grid
       type="xygrid"
       id="grid3732"
       visible="true"
       enabled="true" />
  </sodipodi:namedview>
  <metadata
     id="metadata2413">
    <rdf:RDF>
      <cc:Work
         rdf:about="">
        <dc:format>image/svg+xml</dc:format>
        <dc:type
           rdf:resource="http://purl.org/dc/dcmitype/StillImage" />
        <dc:title />
      </cc:Work>
    </rdf:RDF>
  </metadata>
  <g
     inkscape:groupmode="layer"
     id="layer2"
     inkscape:label="Blur Shadow"
     sodipodi:insensitive="true"
     style="display:none">
    <rect
       style="opacity:0.9;fill:url(#ButtonShadow);fill-opacity:1;fill-rule:nonzero;stroke:none;filter:url(#filter3174)"
       id="rect3745"
       width="86"
       height="85"
       x="5"
       y="7"
       rx="6"
       ry="6" />
  </g>
  <g
     inkscape:groupmode="layer"
     id="layer6"
     inkscape:label="Shadow"
     style="display:inline"
     sodipodi:insensitive="true">
    <path
       sodipodi:type="inkscape:offset"
       inkscape:radius="0.99097413"
       inkscape:original="M 12 -94.03125 C 7.028367 -94.03125 2.96875 -89.971633 2.96875 -85 L 2.96875 -14 C 2.96875 -9.0283671 7.0283671 -4.96875 12 -4.96875 L 84 -4.96875 C 88.971633 -4.96875 93.03125 -9.028367 93.03125 -14 L 93.03125 -85 C 93.03125 -89.971633 88.971633 -94.03125 84 -94.03125 L 12 -94.03125 z "
       style="opacity:0.07999998;fill:url(#linearGradient3760);fill-opacity:1;fill-rule:nonzero;stroke:none;display:inline"
       id="path3786"
       d="m 12,-95.03125 c -5.5110903,0 -10.03125,4.52016 -10.03125,10.03125 l 0,71 c 0,5.5110902 4.5201598,10.03125 10.03125,10.03125 l 72,0 c 5.51109,0 10.03125,-4.5201597 10.03125,-10.03125 l 0,-71 c 0,-5.51109 -4.52016,-10.03125 -10.03125,-10.03125 l -72,0 z"
       transform="scale(1,-1)" />
    <path
       sodipodi:type="inkscape:offset"
       inkscape:radius="1.0360184"
       inkscape:original="M 12 -93 C 7.5908667 -93 4 -89.409133 4 -85 L 4 -14 C 4 -9.5908667 7.5908667 -6 12 -6 L 84 -6 C 88.409133 -6 92 -9.5908667 92 -14 L 92 -85 C 92 -89.409133 88.409133 -93 84 -93 L 12 -93 z "
       style="opacity:0.1;fill:url(#linearGradient3780);fill-opacity:1;fill-rule:nonzero;stroke:none;display:inline"
       id="path3778"
       d="m 12,-94.03125 c -4.971633,0 -9.03125,4.059617 -9.03125,9.03125 l 0,71 c 0,4.9716329 4.0596171,9.03125 9.03125,9.03125 l 72,0 c 4.971633,0 9.03125,-4.059617 9.03125,-9.03125 l 0,-71 c 0,-4.971633 -4.059617,-9.03125 -9.03125,-9.03125 l -72,0 z"
       transform="scale(1,-1)" />
    <path
       sodipodi:type="inkscape:offset"
       inkscape:radius="0.98962283"
       inkscape:original="M 12 -92 C 8.122 -92 5 -88.878 5 -85 L 5 -14 C 5 -10.122 8.122 -7 12 -7 L 84 -7 C 87.878 -7 91 -10.122 91 -14 L 91 -85 C 91 -88.878 87.878 -92 84 -92 L 12 -92 z "
       style="opacity:0.2;fill:url(#linearGradient3772);fill-opacity:1;fill-rule:nonzero;stroke:none;display:inline"
       id="path3770"
       d="m 12,-93 c -4.4091333,0 -8,3.590867 -8,8 l 0,71 c 0,4.4091333 3.5908667,8 8,8 l 72,0 c 4.409133,0 8,-3.5908667 8,-8 l 0,-71 c 0,-4.409133 -3.590867,-8 -8,-8 l -72,0 z"
       transform="scale(1,-1)" />
    <rect
       style="opacity:0.3;fill:url(#linearGradient3725);fill-opacity:1;fill-rule:nonzero;stroke:none;display:inline"
       id="rect3723"
       width="86"
       height="85"
       x="5"
       y="-92"
       rx="7"
       ry="7"
       transform="scale(1,-1)" />
    <rect
       transform="scale(1,-1)"
       ry="6"
       rx="6"
       y="-91"
       x="6"
       height="84"
       width="84"
       id="rect3716"
       style="opacity:0.45;fill:url(#linearGradient3721);fill-opacity:1;fill-rule:nonzero;stroke:none;display:inline" />
  </g>
  <g
     inkscape:label="Button"
     inkscape:groupmode="layer"
     id="layer1"
     style="display:inline">
    <rect
       style="fill:#323232;fill-opacity:1;fill-rule:nonzero;stroke:none;display:inline"
       id="rect2419"
       width="84"
       height="84"
       x="6"
       y="6"
       rx="6"
       ry="6" />
    <path
       style="color:#000000;fill:url(#linearGradient3999);fill-opacity:1.0;fill-rule:nonzero;stroke:none;stroke-width:2;marker:none;visibility:visible;display:inline;overflow:visible;enable-background:accumulate"
       d="m 49.53125,49.53125 0,4.28125 0,3.1875 0,9.53125 c -0.0036,0.198326 -0.130801,0.38918 -0.3125,0.46875 -1.1043,0.55215 -2.840301,0.430683 -5.28125,-1.375 -0.359013,-0.189499 -0.853049,-0.481799 -1.375,-0.71875 -0.521951,-0.236951 -1.06602,-0.401018 -1.375,-0.40625 -1.286727,0 -2.474281,0.750188 -3.375,2.0625 -0.900719,1.312312 -1.46875,3.161468 -1.46875,5.21875 0,2.057282 0.568631,3.914554 1.46875,5.21875 0.885379,1.282839 2.04835,2.007282 3.3125,2.03125 0.02105,3.99e-4 0.0414,0 0.0625,0 0.949254,-0.126095 2.351515,-0.803879 2.6875,-1.0625 2.484666,-1.8635 4.236277,-1.959987 5.34375,-1.40625 0.181699,0.07957 0.308935,0.270424 0.3125,0.46875 L 49.53125,90 84,90 c 3.324,0 6,-2.676 6,-6 l 0,-34.46875 -17.78125,0 c -0.232286,0.734967 -0.153994,1.930091 1.375,3.96875 0.470576,0.611343 1.198945,1.964322 1.34375,3.25 0.0012,0.02081 0.0012,0.04169 0,0.0625 0,1.695612 -1.014267,3.208803 -2.53125,4.25 -1.516983,1.041197 -3.561962,1.65625 -5.8125,1.65625 -2.250538,0 -4.303026,-0.614454 -5.8125,-1.65625 -1.509474,-1.041796 -2.5,-2.556211 -2.5,-4.25 0.01027,-0.606331 0.269794,-1.236568 0.53125,-1.8125 0.261456,-0.575932 0.542376,-1.103354 0.71875,-1.4375 0.01902,-0.02255 0.03995,-0.04348 0.0625,-0.0625 1.528994,-2.038659 1.607286,-3.233783 1.375,-3.96875 l -4.96875,0 -3.1875,0 z"
       id="path4111"
       inkscape:connector-curvature="0"
       sodipodi:nodetypes="ccccccscsssscccccsscccccssscscccccc" />
    <path
       style="color:#000000;fill:url(#linearGradient4143);fill-opacity:1.0;fill-rule:nonzero;stroke:none;stroke-width:2;marker:none;visibility:visible;display:inline;overflow:visible;enable-background:accumulate"
       d="m 49.40625,6 0,15.84375 c 0.763546,0.282462 2.018339,0.228434 4.15625,-1.375 0.585545,-0.450716 1.967681,-1.140338 3.21875,-1.28125 0.01041,-3.9e-4 0.02084,-3.9e-4 0.03125,0 1.654722,0 3.129101,0.972234 4.15625,2.46875 1.027149,1.496516 1.625,3.518788 1.625,5.75 0,2.231212 -0.597371,4.261054 -1.625,5.75 -1.027629,1.488946 -2.502986,2.4375 -4.15625,2.4375 -0.576598,-0.0098 -1.179466,-0.240994 -1.75,-0.5 -0.570534,-0.259006 -1.100871,-0.541066 -1.4375,-0.71875 -0.02166,-0.0086 -0.04259,-0.01911 -0.0625,-0.03125 -2.137911,-1.603434 -3.392704,-1.657462 -4.15625,-1.375 l 0,7.03125 0,3.1875 0,5.40625 3.40625,0 3.1875,0 5.375,0 c 0.152154,-0.0028 0.302567,0.08491 0.375,0.21875 0.531828,1.063656 0.428724,2.755734 -1.375,5.1875 -0.0083,0.01577 -0.02255,0.04613 -0.03125,0.0625 -0.187912,0.353513 -0.458692,0.839732 -0.6875,1.34375 -0.2394,0.52735 -0.431763,1.067535 -0.4375,1.40625 0,1.327617 0.792221,2.553984 2.125,3.46875 1.332779,0.914766 3.204642,1.5 5.28125,1.5 2.076608,0 3.956527,-0.585713 5.28125,-1.5 1.314311,-0.9071 2.081752,-2.120602 2.09375,-3.4375 -9.71e-4,-0.0086 0.0011,-0.02256 0,-0.03125 -0.119941,-0.981116 -0.842544,-2.383051 -1.125,-2.75 -1.8508,-2.467733 -1.907989,-4.184021 -1.375,-5.25 0.07243,-0.133837 0.222846,-0.221578 0.375,-0.21875 l 18.125,0 L 90,12 C 90,8.676 87.324,6 84,6 z"
       id="path4113"
       inkscape:connector-curvature="0"
       sodipodi:nodetypes="cccccssscscccccccccccsscsssccccccssc" />
    <path
       style="color:#000000;fill:url(#linearGradient4159);fill-opacity:1.0;fill-rule:nonzero;stroke:none;stroke-width:2;marker:none;visibility:visible;display:inline;overflow:visible;enable-background:accumulate"
       d="M 6,49.53125 6,84 c 0,3.324 2.676,6 6,6 l 36.46875,0 0,-12.5625 c -0.734967,-0.232286 -1.930091,-0.153994 -3.96875,1.375 -0.622559,0.47921 -1.973911,1.168775 -3.25,1.3125 -0.02081,0.0012 -0.04169,0.0012 -0.0625,0 -1.693789,0 -3.208204,-0.990526 -4.25,-2.5 -1.041796,-1.509474 -1.65625,-3.561962 -1.65625,-5.8125 0,-2.250538 0.615053,-4.295517 1.65625,-5.8125 1.041197,-1.516983 2.554388,-2.53125 4.25,-2.53125 C 41.793831,63.47902 42.424067,63.738544 43,64 c 0.575933,0.261456 1.103357,0.542375 1.4375,0.71875 0.02255,0.01902 0.04348,0.03995 0.0625,0.0625 2.040701,1.530526 3.238483,1.630896 3.96875,1.40625 l 0,-9.1875 0,-3.1875 0,-4.28125 -4.28125,0 -3.1875,0 -14.78125,0 c -0.232286,0.734967 -0.153994,1.930091 1.375,3.96875 0.470577,0.611343 1.198945,1.964322 1.34375,3.25 0.0012,0.02081 0.0012,0.04169 0,0.0625 0,1.69561 -1.014267,3.208803 -2.53125,4.25 -1.516983,1.041197 -3.561962,1.65625 -5.8125,1.65625 -2.250538,0 -4.303026,-0.614453 -5.8125,-1.65625 -1.509474,-1.041797 -2.5,-2.556213 -2.5,-4.25 0.01027,-0.606333 0.269794,-1.236568 0.53125,-1.8125 0.261456,-0.575932 0.542376,-1.103356 0.71875,-1.4375 0.01902,-0.02255 0.03995,-0.04348 0.0625,-0.0625 1.528994,-2.038659 1.607286,-3.233783 1.375,-3.96875 z"
       id="path4109"
       inkscape:connector-curvature="0"
       sodipodi:nodetypes="csscccccssscsccccccccccccssscscccc" />
    <path
       style="color:#000000;fill:url(#linearGradient4007);fill-opacity:1.0;fill-rule:nonzero;stroke:none;stroke-width:2;marker:none;visibility:visible;display:inline;overflow:visible;enable-background:accumulate"
       d="M 12,6 C 8.676,6 6,8.676 6,12 l 0,36.59375 9.375,0 c 0.152154,-0.0028 0.302567,0.08491 0.375,0.21875 0.531828,1.063656 0.428724,2.755734 -1.375,5.1875 -0.0083,0.01577 -0.02255,0.04613 -0.03125,0.0625 -0.187912,0.353513 -0.458692,0.839732 -0.6875,1.34375 -0.2394,0.52735 -0.431763,1.067535 -0.4375,1.40625 0,1.327617 0.792221,2.553984 2.125,3.46875 1.332779,0.914766 3.204642,1.5 5.28125,1.5 2.076608,0 3.956527,-0.585713 5.28125,-1.5 1.314311,-0.9071 2.081752,-2.120602 2.09375,-3.4375 -9.71e-4,-0.0086 0.0011,-0.02256 0,-0.03125 -0.119941,-0.981116 -0.842544,-2.383051 -1.125,-2.75 -1.8508,-2.467733 -1.907989,-4.184021 -1.375,-5.25 0.07243,-0.133837 0.222846,-0.221578 0.375,-0.21875 l 14.125,0 4.1875,0 4.40625,0 0,-5.40625 0,-3.1875 0,-7.3125 c -0.0028,-0.152154 0.08491,-0.302567 0.21875,-0.375 1.0568,-0.5284 2.753841,-0.460719 5.1875,1.34375 0.02114,0.01567 0.04125,0.01531 0.0625,0.03125 0.357341,0.190561 0.839324,0.482576 1.34375,0.71875 0.527548,0.247 1.072284,0.431845 1.40625,0.4375 1.327615,0 2.553984,-0.792221 3.46875,-2.125 0.914766,-1.332779 1.5,-3.204642 1.5,-5.28125 0,-2.076608 -0.585713,-3.956526 -1.5,-5.28125 -0.907101,-1.314311 -2.120604,-2.081752 -3.4375,-2.09375 -0.01043,-9.5e-5 -0.0208,0 -0.03125,0 -0.981118,0.119944 -2.383052,0.842546 -2.75,1.125 -2.467733,1.8508 -4.184021,1.907989 -5.25,1.375 -0.133837,-0.07243 -0.221578,-0.222846 -0.21875,-0.375 l 0,-16.1875 z"
       id="path4115"
       inkscape:connector-curvature="0"
       sodipodi:nodetypes="sscccccscsssccccccccccccccscsssscccccs" />
    <path
       style="opacity:0.4;fill:url(#linearGradient3923-0);fill-opacity:1;fill-rule:nonzero;stroke:none;display:inline"
       d="M 12,6 C 8.676,6 6,8.676 6,12 l 0,2 0,68 0,2 c 0,0.334721 0.0413,0.6507 0.0937,0.96875 0.0487,0.295596 0.097,0.596915 0.1875,0.875 0.01,0.03038 0.0209,0.0636 0.0312,0.09375 0.0989,0.287771 0.23488,0.547452 0.375,0.8125 0.14459,0.273507 0.31562,0.535615 0.5,0.78125 0.18438,0.245635 0.37378,0.473472 0.59375,0.6875 0.43995,0.428056 0.94291,0.814526 1.5,1.09375 0.27854,0.139612 0.57347,0.246947 0.875,0.34375 -0.2562,-0.100222 -0.48671,-0.236272 -0.71875,-0.375 -0.007,-0.0044 -0.0239,0.0045 -0.0312,0 -0.0319,-0.0193 -0.0623,-0.04251 -0.0937,-0.0625 -0.1204,-0.0767 -0.23102,-0.163513 -0.34375,-0.25 -0.10617,-0.0808 -0.21328,-0.161112 -0.3125,-0.25 C 8.47832,88.557317 8.30879,88.373362 8.15625,88.1875 8.04867,88.057245 7.93786,87.922215 7.84375,87.78125 7.81865,87.74287 7.80535,87.69538 7.78125,87.65625 7.71645,87.553218 7.65102,87.451733 7.59375,87.34375 7.49274,87.149044 7.38808,86.928049 7.3125,86.71875 7.3045,86.69694 7.2889,86.6782 7.2813,86.65625 7.2495,86.5643 7.2455,86.469419 7.2188,86.375 7.1885,86.268382 7.1484,86.171969 7.1251,86.0625 7.05212,85.720988 7,85.364295 7,85 L 7,83 7,15 7,13 C 7,10.218152 9.21815,8 12,8 l 2,0 68,0 2,0 c 2.78185,0 5,2.218152 5,5 l 0,2 0,68 0,2 c 0,0.364295 -0.0521,0.720988 -0.125,1.0625 -0.0442,0.206893 -0.0884,0.397658 -0.15625,0.59375 -0.008,0.02195 -0.0233,0.04069 -0.0312,0.0625 -0.0627,0.173739 -0.13838,0.367449 -0.21875,0.53125 -0.0416,0.0828 -0.079,0.169954 -0.125,0.25 -0.0546,0.09721 -0.12677,0.18835 -0.1875,0.28125 -0.0941,0.140965 -0.20492,0.275995 -0.3125,0.40625 -0.14317,0.17445 -0.30314,0.346998 -0.46875,0.5 -0.0112,0.0102 -0.02,0.02115 -0.0312,0.03125 -0.13839,0.125556 -0.28509,0.234436 -0.4375,0.34375 -0.10257,0.07315 -0.20432,0.153364 -0.3125,0.21875 -0.007,0.0045 -0.0238,-0.0044 -0.0312,0 -0.23204,0.138728 -0.46255,0.274778 -0.71875,0.375 0.30153,-0.0968 0.59645,-0.204138 0.875,-0.34375 0.55709,-0.279224 1.06005,-0.665694 1.5,-1.09375 0.21997,-0.214028 0.40937,-0.441865 0.59375,-0.6875 0.18438,-0.245635 0.35541,-0.507743 0.5,-0.78125 0.14012,-0.265048 0.27613,-0.524729 0.375,-0.8125 0.0104,-0.03078 0.0213,-0.06274 0.0312,-0.09375 0.0905,-0.278085 0.1388,-0.579404 0.1875,-0.875 C 89.95865,84.6507 90,84.334721 90,84 l 0,-2 0,-68 0,-2 C 90,8.676 87.324,6 84,6 L 12,6 z"
       id="rect3728-1"
       inkscape:connector-curvature="0" />
    <path
       id="path3615-0"
       d="M 12,90 C 8.676,90 6,87.324 6,84 L 6,82 6,14 6,12 c 0,-0.334721 0.0413,-0.6507 0.0937,-0.96875 0.0487,-0.295596 0.097,-0.596915 0.1875,-0.875 0.01,-0.03038 0.0209,-0.0636 0.0312,-0.09375 C 6.4113,9.774729 6.54728,9.515048 6.6874,9.25 6.83199,8.976493 7.00302,8.714385 7.1874,8.46875 7.37178,8.223115 7.56118,7.995278 7.78115,7.78125 8.2211,7.353194 8.72406,6.966724 9.28115,6.6875 9.55969,6.547888 9.85462,6.440553 10.15615,6.34375 9.89995,6.443972 9.66944,6.580022 9.4374,6.71875 c -0.007,0.0044 -0.0239,-0.0045 -0.0312,0 -0.0319,0.0193 -0.0623,0.04251 -0.0937,0.0625 -0.1204,0.0767 -0.23102,0.163513 -0.34375,0.25 -0.10617,0.0808 -0.21328,0.161112 -0.3125,0.25 C 8.47832,7.442683 8.30879,7.626638 8.15625,7.8125 8.04867,7.942755 7.93786,8.077785 7.84375,8.21875 7.81865,8.25713 7.80535,8.30462 7.78125,8.34375 7.71645,8.446782 7.65102,8.548267 7.59375,8.65625 7.49274,8.850956 7.38808,9.071951 7.3125,9.28125 7.3045,9.30306 7.2889,9.3218 7.2813,9.34375 7.2495,9.4357 7.2455,9.530581 7.2188,9.625 7.1885,9.731618 7.1484,9.828031 7.1251,9.9375 7.05212,10.279012 7,10.635705 7,11 l 0,2 0,68 0,2 c 0,2.781848 2.21815,5 5,5 l 2,0 68,0 2,0 c 2.78185,0 5,-2.218152 5,-5 l 0,-2 0,-68 0,-2 C 89,10.635705 88.9479,10.279012 88.875,9.9375 88.8308,9.730607 88.7866,9.539842 88.71875,9.34375 88.71075,9.3218 88.69545,9.30306 88.68755,9.28125 88.62485,9.107511 88.54917,8.913801 88.4688,8.75 88.4272,8.6672 88.3898,8.580046 88.3438,8.5 88.2892,8.40279 88.21703,8.31165 88.1563,8.21875 88.0622,8.077785 87.95138,7.942755 87.8438,7.8125 87.70063,7.63805 87.54066,7.465502 87.37505,7.3125 87.36385,7.3023 87.35505,7.29135 87.34385,7.28125 87.20546,7.155694 87.05876,7.046814 86.90635,6.9375 86.80378,6.86435 86.70203,6.784136 86.59385,6.71875 c -0.007,-0.0045 -0.0238,0.0044 -0.0312,0 -0.23204,-0.138728 -0.46255,-0.274778 -0.71875,-0.375 0.30153,0.0968 0.59645,0.204138 0.875,0.34375 0.55709,0.279224 1.06005,0.665694 1.5,1.09375 0.21997,0.214028 0.40937,0.441865 0.59375,0.6875 0.18438,0.245635 0.35541,0.507743 0.5,0.78125 0.14012,0.265048 0.27613,0.524729 0.375,0.8125 0.0104,0.03078 0.0213,0.06274 0.0312,0.09375 0.0905,0.278085 0.1388,0.579404 0.1875,0.875 C 89.95865,11.3493 90,11.665279 90,12 l 0,2 0,68 0,2 c 0,3.324 -2.676,6 -6,6 l -72,0 z"
       style="opacity:0.2;fill:url(#radialGradient2886-8);fill-opacity:1;fill-rule:nonzero;stroke:none;display:inline"
       inkscape:connector-curvature="0" />
    <rect
       ry="6"
       rx="6"
       y="6"
       x="-94"
       height="84"
       width="84"
       id="rect3654"
       style="fill:#ff00ff;fill-opacity:1;fill-rule:nonzero;stroke:none;display:inline" />
    <rect
       style="color:#000000;fill:#ffffff;stroke:#000000;stroke-width:0.5;stroke-linecap:round;stroke-linejoin:miter;stroke-miterlimit:4;stroke-opacity:1;stroke-dasharray:none;stroke-dashoffset:8.6;marker:none;visibility:visible;display:inline;overflow:visible;enable-background:accumulate"
       id="rect3797"
       width="16"
       height="16"
       x="112"
       y="8" />
    <text
       xml:space="preserve"
       style="font-size:4px;font-style:normal;font-variant:normal;font-weight:normal;font-stretch:normal;text-align:start;line-height:125%;writing-mode:lr-tb;text-anchor:start;fill:#000000;fill-opacity:1;stroke:none;display:inline;font-family:Liberation Sans;-inkscape-font-specification:Liberation Sans"
       x="131.39261"
       y="11.969256"
       id="text3799"
       sodipodi:linespacing="125%"><tspan
         sodipodi:role="line"
         id="tspan3801"
         x="131.39261"
         y="11.969256">Width: 2px</tspan><tspan
         sodipodi:role="line"
         x="131.39261"
         y="16.969257"
         id="tspan3803">Blur: 12</tspan><tspan
         sodipodi:role="line"
         x="131.39261"
         y="21.969257"
         id="tspan3807">Opacity: 60</tspan></text>
    <path
       sodipodi:nodetypes="csssccscccsccsssssssssssssccccsssssssssssscccssssssssssssccccsssssssscc"
       id="path4237"
       d="m 43.999704,17.405569 c -2e-5,0.13452 -0.03568,0.258072 -0.106813,0.370588 -0.07135,0.11256 -0.14952,0.16884 -0.234676,0.16882 -0.702944,0.07896 -1.277492,0.346063 -1.723636,0.801368 -0.44624,0.455356 -0.906618,1.323971 -1.381184,2.605882 L 33.290281,40.730303 C 33.242845,40.910099 33.109845,41 32.891327,41 32.720367,41 32.587663,40.91015 32.493223,40.730299 L 28.420101,30.644433 23.734215,40.730299 C 23.639717,40.910099 23.507035,41 23.336113,41 23.126901,41 22.989279,40.910147 22.923229,40.730299 L 15.787896,21.352225 c -0.446203,-1.203676 -0.916143,-2.044336 -1.409856,-2.521988 -0.493716,-0.477612 -1.182127,-0.772692 -2.065235,-0.885261 -0.07589,1.3e-5 -0.14706,-0.04787 -0.213385,-0.1436 C 12.033,17.705616 12,17.596052 12,17.472489 c 0,-0.314964 0.07589,-0.472456 0.227729,-0.472481 0.636252,2.5e-5 1.300907,0.03401 1.993967,0.101893 0.645528,0.06724 1.253089,0.10088 1.822717,0.10088 0.578895,1.2e-5 1.262371,-0.03364 2.050472,-0.10088 0.826316,-0.06789 1.557328,-0.101906 2.193007,-0.101906 0.15236,2.5e-5 0.228604,0.15752 0.228604,0.472481 0,0.315008 -0.04761,0.472503 -0.1425,0.472492 -0.636271,0.05636 -1.137232,0.247407 -1.502868,0.573355 -0.365659,0.326 -0.548479,0.753193 -0.548459,1.281585 -2e-5,0.269717 0.07628,0.607012 0.228587,1.011873 l 5.895843,15.769079 3.346462,-7.487711 -3.11873,-7.740934 c -0.560352,-1.383464 -1.020898,-2.274747 -1.381602,-2.673819 -0.360726,-0.399035 -0.90675,-0.643516 -1.638024,-0.733428 -0.06604,1.2e-5 -0.129973,-0.04787 -0.19166,-0.1436 -0.06165,-0.09576 -0.0926,-0.205324 -0.0926,-0.328887 0,-0.314961 0.0664,-0.472456 0.19904,-0.472481 0.63625,2.5e-5 1.220075,0.03401 1.751452,0.101893 0.512822,0.06724 1.058698,0.10088 1.637606,0.10088 0.569594,1.2e-5 1.172544,-0.03364 1.808814,-0.10088 0.655376,-0.06789 1.300904,-0.101906 1.936604,-0.101906 0.15236,2.5e-5 0.228586,0.15752 0.228604,0.472481 -1.8e-5,0.315012 -0.04744,0.472503 -0.1425,0.472492 -1.272538,0.10088 -1.908808,0.528083 -1.908788,1.281575 -2e-5,0.337656 0.14724,0.860577 0.441554,1.56877 l 2.065252,4.958527 2.050452,-4.537503 c 0.28509,-0.640256 0.427626,-1.179648 0.427644,-1.618192 -1.6e-5,-1.034846 -0.636268,-1.585905 -1.908768,-1.653177 -0.113654,1.1e-5 -0.1704,-0.15748 -0.1704,-0.472492 -1.8e-5,-0.11256 0.02828,-0.2194 0.0852,-0.320649 0.05675,-0.101134 0.11384,-0.1518 0.17116,-0.15182 0.455442,2.5e-5 1.01551,0.03401 1.680166,0.101893 0.636252,0.06725 1.158352,0.10088 1.56632,0.10088 0.29435,1.3e-5 0.726359,-0.02809 1.295991,-0.08444 0.721427,-0.07896 1.324359,-0.118333 1.808831,-0.118333 0.113453,2.5e-5 0.17038,0.1352 0.17038,0.405565 -3.6e-5,0.359632 -0.10436,0.53942 -0.312924,0.539407 -0.740591,0.08985 -1.336275,0.331649 -1.787087,0.725188 -0.450849,0.393593 -1.013517,1.287609 -1.688001,2.682061 l -2.733666,5.986864 3.701967,8.938115 5.469052,-15.060858 c 0.19004,-0.550353 0.285072,-1.056132 0.285112,-1.517316 -4e-5,-1.102093 -0.636289,-1.686782 -1.908789,-1.754054 -0.114214,1.3e-5 -0.17134,-0.15748 -0.17114,-0.472492 -1.9e-5,-0.314963 0.08539,-0.472455 0.25642,-0.47248 0.465289,2.5e-5 1.01608,0.03401 1.652368,0.101893 0.588717,0.06724 1.082413,0.10088 1.481125,0.10088 0.417779,1.3e-5 0.901911,-0.03363 1.452455,-0.10088 0.569592,-0.06788 1.082129,-0.101893 1.537629,-0.101893 0.1332,2.5e-5 0.19988,0.1352 0.19992,0.405565 l 0,0 z"
       style="font-size:18.26544952000000066px;font-style:normal;font-variant:normal;font-weight:normal;font-stretch:normal;text-align:center;line-height:100%;writing-mode:lr-tb;text-anchor:middle;fill:#ffffff;fill-opacity:1;stroke:none;display:inline;font-family:Hoefler Text;-inkscape-font-specification:Hoefler Text;opacity:0.29999999999999999"
       inkscape:connector-curvature="0" />
    <path
       inkscape:connector-curvature="0"
       style="font-size:18.26544952000000066px;font-style:normal;font-variant:normal;font-weight:normal;font-stretch:normal;text-align:center;line-height:100%;writing-mode:lr-tb;text-anchor:middle;fill:#803300;fill-opacity:1;stroke:none;display:inline;font-family:Hoefler Text;-inkscape-font-specification:Hoefler Text"
       d="m 43.999704,16.405569 c -2e-5,0.13452 -0.03568,0.258072 -0.106813,0.370588 -0.07135,0.11256 -0.14952,0.16884 -0.234676,0.16882 -0.702944,0.07896 -1.277492,0.346063 -1.723636,0.801368 -0.44624,0.455356 -0.906618,1.323971 -1.381184,2.605882 L 33.290281,39.730303 C 33.242845,39.910099 33.109845,40 32.891327,40 32.720367,40 32.587663,39.91015 32.493223,39.730299 L 28.420101,29.644433 23.734215,39.730299 C 23.639717,39.910099 23.507035,40 23.336113,40 23.126901,40 22.989279,39.910147 22.923229,39.730299 L 15.787896,20.352225 c -0.446203,-1.203676 -0.916143,-2.044336 -1.409856,-2.521988 -0.493716,-0.477612 -1.182127,-0.772692 -2.065235,-0.885261 -0.07589,1.3e-5 -0.14706,-0.04787 -0.213385,-0.1436 C 12.033,16.705616 12,16.596052 12,16.472489 c 0,-0.314964 0.07589,-0.472456 0.227729,-0.472481 0.636252,2.5e-5 1.300907,0.03401 1.993967,0.101893 0.645528,0.06724 1.253089,0.10088 1.822717,0.10088 0.578895,1.2e-5 1.262371,-0.03364 2.050472,-0.10088 0.826316,-0.06789 1.557328,-0.101906 2.193007,-0.101906 0.15236,2.5e-5 0.228604,0.15752 0.228604,0.472481 0,0.315008 -0.04761,0.472503 -0.1425,0.472492 -0.636271,0.05636 -1.137232,0.247407 -1.502868,0.573355 -0.365659,0.326 -0.548479,0.753193 -0.548459,1.281585 -2e-5,0.269717 0.07628,0.607012 0.228587,1.011873 l 5.895843,15.769079 3.346462,-7.487711 -3.11873,-7.740934 c -0.560352,-1.383464 -1.020898,-2.274747 -1.381602,-2.673819 -0.360726,-0.399035 -0.90675,-0.643516 -1.638024,-0.733428 -0.06604,1.2e-5 -0.129973,-0.04787 -0.19166,-0.1436 -0.06165,-0.09576 -0.0926,-0.205324 -0.0926,-0.328887 0,-0.314961 0.0664,-0.472456 0.19904,-0.472481 0.63625,2.5e-5 1.220075,0.03401 1.751452,0.101893 0.512822,0.06724 1.058698,0.10088 1.637606,0.10088 0.569594,1.2e-5 1.172544,-0.03364 1.808814,-0.10088 0.655376,-0.06789 1.300904,-0.101906 1.936604,-0.101906 0.15236,2.5e-5 0.228586,0.15752 0.228604,0.472481 -1.8e-5,0.315012 -0.04744,0.472503 -0.1425,0.472492 -1.272538,0.10088 -1.908808,0.528083 -1.908788,1.281575 -2e-5,0.337656 0.14724,0.860577 0.441554,1.56877 l 2.065252,4.958527 2.050452,-4.537503 c 0.28509,-0.640256 0.427626,-1.179648 0.427644,-1.618192 -1.6e-5,-1.034846 -0.636268,-1.585905 -1.908768,-1.653177 -0.113654,1.1e-5 -0.1704,-0.15748 -0.1704,-0.472492 -1.8e-5,-0.11256 0.02828,-0.2194 0.0852,-0.320649 0.05675,-0.101134 0.11384,-0.1518 0.17116,-0.15182 0.455442,2.5e-5 1.01551,0.03401 1.680166,0.101893 0.636252,0.06725 1.158352,0.10088 1.56632,0.10088 0.29435,1.3e-5 0.726359,-0.02809 1.295991,-0.08444 0.721427,-0.07896 1.324359,-0.118333 1.808831,-0.118333 0.113453,2.5e-5 0.17038,0.1352 0.17038,0.405565 -3.6e-5,0.359632 -0.10436,0.53942 -0.312924,0.539407 -0.740591,0.08985 -1.336275,0.331649 -1.787087,0.725188 -0.450849,0.393593 -1.013517,1.287609 -1.688001,2.682061 l -2.733666,5.986864 3.701967,8.938115 5.469052,-15.060858 c 0.19004,-0.550353 0.285072,-1.056132 0.285112,-1.517316 -4e-5,-1.102093 -0.636289,-1.686782 -1.908789,-1.754054 -0.114214,1.3e-5 -0.17134,-0.15748 -0.17114,-0.472492 -1.9e-5,-0.314963 0.08539,-0.472455 0.25642,-0.47248 0.465289,2.5e-5 1.01608,0.03401 1.652368,0.101893 0.588717,0.06724 1.082413,0.10088 1.481125,0.10088 0.417779,1.3e-5 0.901911,-0.03363 1.452455,-0.10088 0.569592,-0.06788 1.082129,-0.101893 1.537629,-0.101893 0.1332,2.5e-5 0.19988,0.1352 0.19992,0.405565 l 0,0 z"
       id="text2810"
       sodipodi:nodetypes="csssccscccsccsssssssssssssccccsssssssssssscccssssssssssssccccsssssssscc" />
    <path
       style="color:#000000;fill:#ffffff;fill-opacity:1;fill-rule:nonzero;stroke:none;stroke-width:2;marker:none;visibility:visible;display:inline;overflow:visible;enable-background:accumulate;opacity:0.4"
       d="m 56.8125,20.0625 c -0.981118,0.119944 -2.383052,0.842546 -2.75,1.125 -2.467733,1.8508 -4.184021,1.907989 -5.25,1.375 -0.133837,-0.07243 -0.221578,-0.222846 -0.21875,-0.375 l 0,1 c -0.0028,0.152154 0.08491,0.30257 0.21875,0.375 1.065979,0.532989 2.782267,0.4758 5.25,-1.375 0.366948,-0.282454 1.768882,-1.005056 2.75,-1.125 0.01045,0 0.02082,-9.5e-5 0.03125,0 1.316896,0.012 2.530399,0.779439 3.4375,2.09375 0.841078,1.218651 1.383979,2.902011 1.46875,4.78125 0.0074,-0.163481 0.03125,-0.333722 0.03125,-0.5 0,-2.076608 -0.585713,-3.956526 -1.5,-5.28125 -0.907101,-1.314311 -2.120604,-2.081752 -3.4375,-2.09375 -0.01043,-9.5e-5 -0.0208,0 -0.03125,0 z M 15.96875,50.625 C 15.834085,51.538795 15.377743,52.648111 14.375,54 c -0.0083,0.01577 -0.02255,0.04613 -0.03125,0.0625 -0.187912,0.353513 -0.458692,0.839732 -0.6875,1.34375 -0.2394,0.52735 -0.431763,1.067535 -0.4375,1.40625 0,0.220351 0.02,0.442439 0.0625,0.65625 0.07081,-0.314372 0.201205,-0.679664 0.375,-1.0625 0.228808,-0.504018 0.499588,-0.990237 0.6875,-1.34375 0.0087,-0.01637 0.02295,-0.04673 0.03125,-0.0625 1.399042,-1.886177 1.743665,-3.326922 1.59375,-4.375 z m 9.28125,0 c -0.169687,1.058851 0.179063,2.509584 1.625,4.4375 0.254467,0.330587 0.856066,1.491348 1.0625,2.4375 0.04266,-0.211947 0.06051,-0.437678 0.0625,-0.65625 -9.71e-4,-0.0086 0.0011,-0.02256 0,-0.03125 -0.119941,-0.981116 -0.842544,-2.383051 -1.125,-2.75 -1.029622,-1.372829 -1.498368,-2.512377 -1.625,-3.4375 z"
       id="path3927"
       inkscape:connector-curvature="0"
       sodipodi:nodetypes="ccccccccsscsssccccsccscccccccccc" />
    <path
       style="color:#000000;fill:#ffffff;fill-opacity:1;fill-rule:nonzero;stroke:none;stroke-width:2;marker:none;visibility:visible;display:inline;overflow:visible;enable-background:accumulate;opacity:0.7"
       d="M 6 49.53125 L 6 50.53125 L 14.96875 50.53125 C 14.983268 50.577185 14.988187 50.637876 15 50.6875 C 15.086614 50.207299 15.063675 49.831597 14.96875 49.53125 L 6 49.53125 z M 26.21875 49.53125 C 26.123825 49.831597 26.100886 50.207299 26.1875 50.6875 C 26.199313 50.637876 26.204232 50.577185 26.21875 50.53125 L 41 50.53125 L 44.1875 50.53125 L 48.46875 50.53125 L 48.46875 49.53125 L 44.1875 49.53125 L 41 49.53125 L 26.21875 49.53125 z M 12.3125 57.5 C 12.298199 57.601573 12.282954 57.711886 12.28125 57.8125 C 12.28125 59.506287 13.271776 61.020703 14.78125 62.0625 C 16.290724 63.104297 18.343212 63.71875 20.59375 63.71875 C 22.844288 63.71875 24.889267 63.103697 26.40625 62.0625 C 27.923233 61.021303 28.9375 59.50811 28.9375 57.8125 C 28.9387 57.79169 28.9387 57.77081 28.9375 57.75 C 28.92922 57.676487 28.886938 57.605052 28.875 57.53125 C 28.632605 58.930404 27.703153 60.172357 26.40625 61.0625 C 24.889267 62.103697 22.844288 62.71875 20.59375 62.71875 C 18.343212 62.71875 16.290724 62.104297 14.78125 61.0625 C 13.479035 60.163748 12.539491 58.913957 12.3125 57.5 z M 35.3125 72.3125 C 35.305815 72.476972 35.28125 72.645636 35.28125 72.8125 C 35.28125 75.063038 35.895704 77.115526 36.9375 78.625 C 37.979296 80.134474 39.493711 81.125 41.1875 81.125 C 41.20831 81.1262 41.22919 81.1262 41.25 81.125 C 42.526089 80.981275 43.877441 80.29171 44.5 79.8125 C 46.538659 78.283506 47.733783 78.205214 48.46875 78.4375 L 48.46875 77.4375 C 47.733783 77.205214 46.538659 77.283506 44.5 78.8125 C 43.877441 79.29171 42.526089 79.981275 41.25 80.125 C 41.22919 80.1262 41.20831 80.1262 41.1875 80.125 C 39.493711 80.125 37.979296 79.134474 36.9375 77.625 C 35.972947 76.227444 35.395908 74.367228 35.3125 72.3125 z "
       id="path3946" />
    <path
       style="color:#000000;fill:#ffffff;fill-opacity:1;fill-rule:nonzero;stroke:none;stroke-width:2;marker:none;visibility:visible;display:inline;overflow:visible;enable-background:accumulate"
       d="m 62.5625,27.90625 c -0.08399,2.028943 -0.645242,3.875694 -1.59375,5.25 -1.027629,1.488946 -2.502986,2.4375 -4.15625,2.4375 -0.576598,-0.0098 -1.179466,-0.240994 -1.75,-0.5 -0.570534,-0.259006 -1.100871,-0.541066 -1.4375,-0.71875 -0.02166,-0.0086 -0.04259,-0.01911 -0.0625,-0.03125 -2.137911,-1.603434 -3.392704,-1.657462 -4.15625,-1.375 l 0,1 c 0.763546,-0.282462 2.018339,-0.228434 4.15625,1.375 0.01991,0.01214 0.04084,0.02265 0.0625,0.03125 0.336629,0.177684 0.866966,0.459744 1.4375,0.71875 0.570534,0.259006 1.173402,0.4902 1.75,0.5 1.653264,0 3.128621,-0.948554 4.15625,-2.4375 1.027629,-1.488946 1.625,-3.518788 1.625,-5.75 0,-0.17179 -0.02424,-0.330832 -0.03125,-0.5 z M 61.96875,50.625 C 61.834085,51.538795 61.377743,52.648111 60.375,54 c -0.0083,0.01577 -0.02255,0.04613 -0.03125,0.0625 -0.187912,0.353513 -0.458692,0.839732 -0.6875,1.34375 -0.2394,0.52735 -0.431763,1.067535 -0.4375,1.40625 0,0.220351 0.02,0.442439 0.0625,0.65625 0.07081,-0.314372 0.201205,-0.679664 0.375,-1.0625 0.228808,-0.504018 0.499588,-0.990237 0.6875,-1.34375 0.0087,-0.01637 0.02295,-0.04673 0.03125,-0.0625 1.399042,-1.886177 1.743665,-3.326922 1.59375,-4.375 z m 9.28125,0 c -0.169687,1.058851 0.179063,2.509584 1.625,4.4375 0.254467,0.330587 0.856066,1.491348 1.0625,2.4375 0.04266,-0.211947 0.06051,-0.437678 0.0625,-0.65625 -9.71e-4,-0.0086 0.0011,-0.02256 0,-0.03125 -0.119941,-0.981116 -0.842544,-2.383051 -1.125,-2.75 -1.029622,-1.372829 -1.498368,-2.512377 -1.625,-3.4375 z"
       id="path3955"
       inkscape:connector-curvature="0"
       sodipodi:nodetypes="cscsccccccscssccccsccscccccccccc" />
    <path
       style="color:#000000;fill:#ffffff;fill-opacity:1;fill-rule:nonzero;stroke:none;stroke-width:2;marker:none;visibility:visible;display:inline;overflow:visible;enable-background:accumulate;opacity:0.3"
       d="M 49.53125 49.53125 L 49.53125 50.53125 L 52.8125 50.53125 L 56 50.53125 L 60.96875 50.53125 C 60.983268 50.577185 60.988187 50.637876 61 50.6875 C 61.086614 50.207299 61.063675 49.831597 60.96875 49.53125 L 56 49.53125 L 52.8125 49.53125 L 49.53125 49.53125 z M 72.21875 49.53125 C 72.123825 49.831597 72.100886 50.207299 72.1875 50.6875 C 72.199313 50.637876 72.204232 50.577185 72.21875 50.53125 L 90 50.53125 L 90 49.53125 L 72.21875 49.53125 z M 58.3125 57.5 C 58.298199 57.601573 58.282954 57.711886 58.28125 57.8125 C 58.28125 59.506289 59.271776 61.020704 60.78125 62.0625 C 62.290724 63.104296 64.343212 63.71875 66.59375 63.71875 C 68.844288 63.71875 70.889267 63.103697 72.40625 62.0625 C 73.923233 61.021303 74.9375 59.508112 74.9375 57.8125 C 74.9387 57.79169 74.9387 57.77081 74.9375 57.75 C 74.92922 57.676487 74.886938 57.605052 74.875 57.53125 C 74.632605 58.930404 73.703153 60.172357 72.40625 61.0625 C 70.889267 62.103697 68.844288 62.71875 66.59375 62.71875 C 64.343212 62.71875 62.290724 62.104296 60.78125 61.0625 C 59.479035 60.163749 58.539491 58.913958 58.3125 57.5 z M 41.1875 64.5 C 39.900773 64.5 38.713219 65.250188 37.8125 66.5625 C 36.911781 67.874812 36.34375 69.723968 36.34375 71.78125 C 36.34375 71.952839 36.367226 72.112649 36.375 72.28125 C 36.46035 70.429475 36.986906 68.765358 37.8125 67.5625 C 38.713219 66.250188 39.900773 65.5 41.1875 65.5 C 41.49648 65.505232 42.040549 65.669299 42.5625 65.90625 C 43.084451 66.143201 43.578487 66.435501 43.9375 66.625 C 46.378449 68.430683 48.11445 68.55215 49.21875 68 C 49.400449 67.92043 49.52765 67.729576 49.53125 67.53125 L 49.53125 66.53125 C 49.52765 66.729576 49.400449 66.92043 49.21875 67 C 48.11445 67.55215 46.378449 67.430683 43.9375 65.625 C 43.578487 65.435501 43.084451 65.143201 42.5625 64.90625 C 42.040549 64.669299 41.49648 64.505232 41.1875 64.5 z "
       id="path3965" />
  </g>
  <g
     inkscape:groupmode="layer"
     id="layer3"
     inkscape:label="Highlight"
     style="display:none"
     sodipodi:insensitive="true">
    <rect
       style="opacity:0.5;fill:url(#linearGradient3121);fill-opacity:1;fill-rule:nonzero;stroke:#ffffff;stroke-width:0.5;stroke-linecap:round;stroke-linejoin:miter;stroke-miterlimit:4;stroke-opacity:1;stroke-dasharray:none;stroke-dashoffset:0;display:inline;filter:url(#filter3794)"
       id="rect3171"
       width="66"
       height="66"
       x="15"
       y="15"
       rx="12"
       ry="12"
       clip-path="url(#clipPath3613-0)" />
  </g>
  <g
     inkscape:groupmode="layer"
     id="layer4"
     inkscape:label="Symbol" />
</svg>
