<svg height="16" xmlns="http://www.w3.org/2000/svg" width="16"><title>Gnome Symbolic Icon Theme</title><path d="M3.187 0C1.982 0 1 1.018 1 2.22v11.56C1 14.983 1.982 16 3.187 16h9.625C14.017 16 15 14.982 15 13.78V2.22C15 1.017 14.017 0 12.812 0H3.187zM3 3h10v11H3V3zm1 1v4h8.03V4H4zm2.344 1.438a.5.5 0 0 1 .062 0 .5.5 0 0 1 .594.5V6h2v-.063a.5.5 0 1 1 1 0V6c0 .545-.455 1-1 1H7c-.546 0-1-.455-1-1v-.063a.5.5 0 0 1 .344-.5zM4.03 9v4h8.032V9h-8.03zm2.314 1.438a.5.5 0 0 1 .062 0 .5.5 0 0 1 .594.5V11h2v-.063a.5.5 0 1 1 1 0V11c0 .545-.455 1-1 1H7c-.546 0-1-.455-1-1v-.063a.5.5 0 0 1 .344-.5z" color="#000" fill="#bebebe" fill-rule="evenodd" overflow="visible"/></svg>