<?xml version="1.0" encoding="UTF-8" standalone="no"?>
<!-- Created with Inkscape (http://www.inkscape.org/) -->

<svg
   xmlns:dc="http://purl.org/dc/elements/1.1/"
   xmlns:cc="http://creativecommons.org/ns#"
   xmlns:rdf="http://www.w3.org/1999/02/22-rdf-syntax-ns#"
   xmlns:svg="http://www.w3.org/2000/svg"
   xmlns="http://www.w3.org/2000/svg"
   xmlns:xlink="http://www.w3.org/1999/xlink"
   xmlns:sodipodi="http://sodipodi.sourceforge.net/DTD/sodipodi-0.dtd"
   xmlns:inkscape="http://www.inkscape.org/namespaces/inkscape"
   width="24"
   height="24"
   id="svg2"
   sodipodi:version="0.32"
   inkscape:version="0.48.0 r9654"
   version="1.0"
   sodipodi:docname="amarok.svg"
   inkscape:output_extension="org.inkscape.output.svg.inkscape"
   style="display:inline">
  <defs
     id="defs4">
    <linearGradient
       inkscape:collect="always"
       id="linearGradient3327">
      <stop
         style="stop-color:#000000;stop-opacity:1;"
         offset="0"
         id="stop3330" />
      <stop
         style="stop-color:#000000;stop-opacity:0;"
         offset="1"
         id="stop3333" />
    </linearGradient>
    <linearGradient
       inkscape:collect="always"
       xlink:href="#linearGradient3327"
       id="linearGradient3335"
       x1="11.375"
       y1="22"
       x2="11.375"
       y2="-9.817296"
       gradientUnits="userSpaceOnUse" />
    <linearGradient
       inkscape:collect="always"
       xlink:href="#radialGradient3809"
       id="linearGradient3181"
       x1="-3.0607977"
       y1="27.258198"
       x2="-3.0607977"
       y2="7.2536583"
       gradientUnits="userSpaceOnUse"
       gradientTransform="translate(12.119372,-27.258198)" />
    <inkscape:perspective
       sodipodi:type="inkscape:persp3d"
       inkscape:vp_x="0 : 11 : 1"
       inkscape:vp_y="0 : 1000 : 0"
       inkscape:vp_z="22 : 11 : 1"
       inkscape:persp3d-origin="11 : 7.3333333 : 1"
       id="perspective2531" />
    <linearGradient
       id="ButtonShadow"
       gradientTransform="scale(0.9883037,1.0118347)"
       x1="9.3550024"
       y1="21.742682"
       x2="9.3550024"
       y2="0.49362123"
       gradientUnits="userSpaceOnUse">
      <stop
         id="stop3277"
         offset="0"
         style="stop-color:#000000;stop-opacity:0.70588237;" />
      <stop
         id="stop3279"
         offset="1"
         style="stop-color:#000000;stop-opacity:0.15686275;" />
    </linearGradient>
    <linearGradient
       inkscape:collect="always"
       id="linearGradient3232">
      <stop
         style="stop-color:#000000;stop-opacity:1;"
         offset="0"
         id="stop3234" />
      <stop
         style="stop-color:#000000;stop-opacity:0;"
         offset="1"
         id="stop3236" />
    </linearGradient>
    <linearGradient
       gradientUnits="userSpaceOnUse"
       y2="-6.0004225"
       x2="11"
       y1="14.805666"
       x1="11"
       id="linearGradient3221"
       xlink:href="#linearGradient3232"
       inkscape:collect="always" />
    <linearGradient
       id="ButtonColor"
       x1="10.31979"
       y1="21"
       x2="10.31979"
       y2="0.99929649"
       gradientUnits="userSpaceOnUse">
      <stop
         style="stop-color:#29669f;stop-opacity:1;"
         offset="0"
         id="stop3189" />
      <stop
         style="stop-color:#88b6e0;stop-opacity:1;"
         offset="1"
         id="stop3191" />
    </linearGradient>
    <linearGradient
       inkscape:collect="always"
       xlink:href="#ButtonShadow"
       id="linearGradient38042"
       gradientUnits="userSpaceOnUse"
       gradientTransform="scale(0.9883037,1.0118347)"
       x1="9.3550024"
       y1="21.742682"
       x2="9.3550024"
       y2="0.49362123" />
    <filter
       inkscape:collect="always"
       id="filter3194"
       x="-0.18000001"
       width="1.36"
       y="-0.18000001"
       height="1.36"
       color-interpolation-filters="sRGB">
      <feGaussianBlur
         inkscape:collect="always"
         stdDeviation="1.2"
         id="feGaussianBlur3196" />
    </filter>
    <clipPath
       clipPathUnits="userSpaceOnUse"
       id="clipPath2849">
      <rect
         ry="2"
         rx="2"
         y="1"
         x="1"
         height="20"
         width="20"
         id="rect2851"
         style="fill:#ffffff;fill-opacity:1;fill-rule:evenodd;stroke:none;display:inline" />
    </clipPath>
    <inkscape:perspective
       id="perspective3845"
       inkscape:persp3d-origin="0.5 : 0.33333333 : 1"
       inkscape:vp_z="1 : 0.5 : 1"
       inkscape:vp_y="0 : 1000 : 0"
       inkscape:vp_x="0 : 0.5 : 1"
       sodipodi:type="inkscape:persp3d" />
    <linearGradient
       inkscape:collect="always"
       xlink:href="#radialGradient3809"
       id="linearGradient3617"
       gradientUnits="userSpaceOnUse"
       x1="48"
       y1="90"
       x2="48"
       y2="5.9877172"
       gradientTransform="translate(0,-96)" />
    <radialGradient
       id="radialGradient3809"
       cx="622.72803"
       cy="621.17328"
       r="510.71881"
       fx="622.72803"
       fy="621.17328"
       gradientUnits="userSpaceOnUse">
      <stop
         offset="0"
         style="stop-color:#f0f0f0;stop-opacity:1;"
         id="stop3811" />
      <stop
         offset="0.2814"
         style="stop-color:#e1e1e1;stop-opacity:1;"
         id="stop3813" />
      <stop
         offset="0.7515"
         style="stop-color: rgb(192, 192, 192);"
         id="stop3815" />
      <stop
         offset="1"
         style="stop-color: rgb(178, 178, 178);"
         id="stop3817" />
    </radialGradient>
    <linearGradient
       y2="5.9877172"
       x2="48"
       y1="90"
       x1="48"
       gradientTransform="translate(-80,-58)"
       gradientUnits="userSpaceOnUse"
       id="linearGradient3856"
       xlink:href="#radialGradient3809"
       inkscape:collect="always" />
    <inkscape:perspective
       id="perspective3866"
       inkscape:persp3d-origin="0.5 : 0.33333333 : 1"
       inkscape:vp_z="1 : 0.5 : 1"
       inkscape:vp_y="0 : 1000 : 0"
       inkscape:vp_x="0 : 0.5 : 1"
       sodipodi:type="inkscape:persp3d" />
    <linearGradient
       inkscape:collect="always"
       xlink:href="#linearGradient5498"
       id="linearGradient3928"
       gradientUnits="userSpaceOnUse"
       x1="220.36789"
       y1="756.76105"
       x2="185.21225"
       y2="491.06723"
       gradientTransform="matrix(0.08428564,0,0,0.08428564,12.002509,-61.992465)" />
    <linearGradient
       id="linearGradient5498">
      <stop
         id="stop5500"
         offset="0"
         style="stop-color: rgb(238, 238, 238); stop-opacity: 1;" />
      <stop
         id="stop5502"
         offset="1"
         style="stop-color: rgb(238, 238, 238); stop-opacity: 0;" />
    </linearGradient>
    <linearGradient
       inkscape:collect="always"
       xlink:href="#linearGradient5498"
       id="linearGradient3931"
       gradientUnits="userSpaceOnUse"
       x1="247.47713"
       y1="274.88394"
       x2="130.31757"
       y2="580.54669"
       gradientTransform="matrix(0.08428564,0,0,0.08428564,12.002509,-61.992465)" />
    <linearGradient
       id="linearGradient3875">
      <stop
         id="stop3877"
         offset="0"
         style="stop-color: rgb(238, 238, 238); stop-opacity: 1;" />
      <stop
         id="stop3879"
         offset="1"
         style="stop-color: rgb(238, 238, 238); stop-opacity: 0;" />
    </linearGradient>
    <linearGradient
       inkscape:collect="always"
       xlink:href="#linearGradient5498"
       id="linearGradient3934"
       gradientUnits="userSpaceOnUse"
       x1="370.62177"
       y1="-309.6048"
       x2="370.20648"
       y2="458.38397"
       gradientTransform="matrix(0.08428564,0,0,0.08428564,12.002509,-61.992465)" />
    <linearGradient
       id="linearGradient3882">
      <stop
         id="stop3884"
         offset="0"
         style="stop-color: rgb(238, 238, 238); stop-opacity: 1;" />
      <stop
         id="stop3886"
         offset="1"
         style="stop-color: rgb(238, 238, 238); stop-opacity: 0;" />
    </linearGradient>
    <linearGradient
       inkscape:collect="always"
       xlink:href="#linearGradient5498"
       id="linearGradient3937"
       gradientUnits="userSpaceOnUse"
       x1="1508.4957"
       y1="-363.42487"
       x2="361.1441"
       y2="630.52039"
       gradientTransform="matrix(0.08428564,0,0,0.08428564,12.002509,-61.992465)" />
    <linearGradient
       id="linearGradient3889">
      <stop
         id="stop3891"
         offset="0"
         style="stop-color: rgb(238, 238, 238); stop-opacity: 1;" />
      <stop
         id="stop3893"
         offset="1"
         style="stop-color: rgb(238, 238, 238); stop-opacity: 0;" />
    </linearGradient>
    <linearGradient
       inkscape:collect="always"
       xlink:href="#XMLID_5_"
       id="linearGradient3940"
       gradientUnits="userSpaceOnUse"
       gradientTransform="matrix(0.09487444,0,0,0.09487444,8.473189,-65.325684)"
       x1="331.49609"
       y1="790.51508"
       x2="409.85471"
       y2="688.75092" />
    <linearGradient
       id="XMLID_5_"
       gradientUnits="userSpaceOnUse"
       x1="220.9512"
       y1="634.63232"
       x2="278.14471"
       y2="560.35498">
      <stop
         offset="0"
         style="stop-color: rgb(255, 255, 255);"
         id="stop119" />
      <stop
         offset="1"
         style="stop-color: rgb(25, 61, 107);"
         id="stop121" />
    </linearGradient>
    <linearGradient
       inkscape:collect="always"
       xlink:href="#XMLID_5_"
       id="linearGradient3943"
       gradientUnits="userSpaceOnUse"
       gradientTransform="matrix(0.09487444,0,0,0.09487444,8.473189,-65.325684)"
       x1="319.186"
       y1="713.54639"
       x2="373.12509"
       y2="626.00598" />
    <linearGradient
       id="linearGradient3900"
       gradientUnits="userSpaceOnUse"
       x1="220.9512"
       y1="634.63232"
       x2="278.14471"
       y2="560.35498">
      <stop
         offset="0"
         style="stop-color: rgb(255, 255, 255);"
         id="stop3902" />
      <stop
         offset="1"
         style="stop-color: rgb(25, 61, 107);"
         id="stop3904" />
    </linearGradient>
    <linearGradient
       inkscape:collect="always"
       xlink:href="#XMLID_5_"
       id="linearGradient3946"
       gradientUnits="userSpaceOnUse"
       gradientTransform="matrix(0.09487444,0,0,0.09487444,8.473189,-65.325684)"
       x1="264.5405"
       y1="704.23578"
       x2="335.09619"
       y2="612.60522" />
    <linearGradient
       id="linearGradient3907"
       gradientUnits="userSpaceOnUse"
       x1="220.9512"
       y1="634.63232"
       x2="278.14471"
       y2="560.35498">
      <stop
         offset="0"
         style="stop-color: rgb(255, 255, 255);"
         id="stop3909" />
      <stop
         offset="1"
         style="stop-color: rgb(25, 61, 107);"
         id="stop3911" />
    </linearGradient>
    <linearGradient
       inkscape:collect="always"
       xlink:href="#XMLID_5_"
       id="linearGradient3949"
       gradientUnits="userSpaceOnUse"
       gradientTransform="matrix(0.09487444,0,0,0.09487444,8.473189,-65.325684)"
       x1="237.20799"
       y1="684.01898"
       x2="328.18469"
       y2="565.86761" />
    <linearGradient
       id="linearGradient3914"
       gradientUnits="userSpaceOnUse"
       x1="220.9512"
       y1="634.63232"
       x2="278.14471"
       y2="560.35498">
      <stop
         offset="0"
         style="stop-color: rgb(255, 255, 255);"
         id="stop3916" />
      <stop
         offset="1"
         style="stop-color: rgb(25, 61, 107);"
         id="stop3918" />
    </linearGradient>
    <linearGradient
       inkscape:collect="always"
       xlink:href="#XMLID_5_"
       id="linearGradient3952"
       gradientUnits="userSpaceOnUse"
       gradientTransform="matrix(0.09487444,0,0,0.09487444,8.473189,-65.325684)"
       x1="220.9512"
       y1="634.63232"
       x2="278.14471"
       y2="560.35498" />
    <linearGradient
       id="linearGradient3921"
       gradientUnits="userSpaceOnUse"
       x1="220.9512"
       y1="634.63232"
       x2="278.14471"
       y2="560.35498">
      <stop
         offset="0"
         style="stop-color: rgb(255, 255, 255);"
         id="stop3923" />
      <stop
         offset="1"
         style="stop-color: rgb(25, 61, 107);"
         id="stop3925" />
    </linearGradient>
    <linearGradient
       inkscape:collect="always"
       xlink:href="#XMLID_4_"
       id="linearGradient3955"
       gradientUnits="userSpaceOnUse"
       gradientTransform="matrix(-0.09487444,0,0,0.09487444,98.72485,-65.325684)"
       x1="429.84909"
       y1="815.45459"
       x2="480.12021"
       y2="643.30768" />
    <linearGradient
       id="XMLID_4_"
       gradientUnits="userSpaceOnUse"
       x1="429.84909"
       y1="815.45459"
       x2="480.12021"
       y2="643.30768"
       gradientTransform="matrix(-1.12563,0,0,1.12563,1028.91,-39.5467)">
      <stop
         offset="0"
         style="stop-color: rgb(255, 255, 255);"
         id="stop112" />
      <stop
         offset="1"
         style="stop-color: rgb(229, 234, 242);"
         id="stop114" />
    </linearGradient>
    <radialGradient
       inkscape:collect="always"
       xlink:href="#radialGradient29545"
       id="radialGradient3959"
       gradientUnits="userSpaceOnUse"
       gradientTransform="matrix(0.09487444,0,0,0.09487444,8.473189,-65.325684)"
       cx="375.21439"
       cy="783.16357"
       fx="375.21439"
       fy="783.16357"
       r="300.5752" />
    <radialGradient
       gradientUnits="userSpaceOnUse"
       fy="783.16357"
       fx="375.21439"
       r="300.5752"
       cy="783.16357"
       cx="375.21439"
       id="radialGradient29545"
       gradientTransform="matrix(1.12563,0,0,1.12563,-41.8734,-39.5467)">
      <stop
         id="stop29547"
         style="stop-color: rgb(238, 238, 239); stop-opacity: 0.941176;"
         offset="0.0112" />
      <stop
         id="stop29549"
         style="stop-color: rgb(97, 147, 207); stop-opacity: 1;"
         offset="0.29210001" />
      <stop
         id="stop29551"
         style="stop-color: rgb(44, 114, 199); stop-opacity: 1;"
         offset="0.45750001" />
      <stop
         id="stop29553"
         style="stop-color: rgb(0, 87, 174); stop-opacity: 1;"
         offset="0.6767" />
      <stop
         id="stop29555"
         style="stop-color: rgb(0, 77, 154); stop-opacity: 1;"
         offset="0.8653" />
      <stop
         id="stop29557"
         style="stop-color: rgb(0, 67, 138); stop-opacity: 1;"
         offset="1" />
    </radialGradient>
    <linearGradient
       inkscape:collect="always"
       xlink:href="#linearGradient3985"
       id="linearGradient3991"
       x1="13.1875"
       y1="48"
       x2="82.8125"
       y2="48"
       gradientUnits="userSpaceOnUse"
       gradientTransform="matrix(0,1,-1,0,96,-74)" />
    <linearGradient
       inkscape:collect="always"
       id="linearGradient3985">
      <stop
         style="stop-color:#000000;stop-opacity:1;"
         offset="0"
         id="stop3987" />
      <stop
         style="stop-color:#000000;stop-opacity:0;"
         offset="1"
         id="stop3989" />
    </linearGradient>
    <mask
       maskUnits="userSpaceOnUse"
       x="122.963"
       y="97.149"
       width="576.609"
       height="587.491"
       id="XMLID_23_">
      <g
         id="g31"
         style="filter:url(#Adobe_OpacityMaskFilter)">
        <radialGradient
           id="XMLID_24_"
           cx="88.977501"
           cy="-20.899401"
           r="673.11609"
           fx="88.977501"
           fy="-20.899401"
           gradientUnits="userSpaceOnUse">
          <stop
             offset="0.309"
             style="stop-color: rgb(255, 255, 255);"
             id="stop34" />
          <stop
             offset="1"
             style="stop-color: rgb(0, 0, 0);"
             id="stop36" />
        </radialGradient>
        <ellipse
           sodipodi:ry="349.10599"
           sodipodi:rx="512.93402"
           sodipodi:cy="286.172"
           sodipodi:cx="295.89499"
           cx="295.89499"
           cy="286.172"
           rx="512.93402"
           ry="349.10599"
           id="ellipse38"
           style="fill:url(#XMLID_24_) #000000" />
      </g>
    </mask>
    <radialGradient
       id="radialGradient3949"
       cx="88.977501"
       cy="-20.899401"
       r="673.11609"
       fx="88.977501"
       fy="-20.899401"
       gradientUnits="userSpaceOnUse">
      <stop
         offset="0.309"
         style="stop-color: rgb(255, 255, 255);"
         id="stop3951" />
      <stop
         offset="1"
         style="stop-color: rgb(0, 0, 0);"
         id="stop3953" />
    </radialGradient>
    <radialGradient
       inkscape:collect="always"
       xlink:href="#XMLID_22_"
       id="radialGradient3972"
       gradientUnits="userSpaceOnUse"
       gradientTransform="matrix(0.08428564,0,0,0.08428564,12.002509,12.007534)"
       cx="663.91144"
       cy="649.22662"
       fx="663.91144"
       fy="649.22662"
       r="427.12018" />
    <radialGradient
       gradientUnits="userSpaceOnUse"
       fy="621.17328"
       fx="622.72803"
       r="510.71881"
       cy="621.17328"
       cx="622.72803"
       id="XMLID_22_">
      <stop
         id="stop14"
         style="stop-color: rgb(255, 255, 255);"
         offset="0" />
      <stop
         id="stop16"
         style="stop-color: rgb(230, 230, 230);"
         offset="0.2814" />
      <stop
         id="stop18"
         style="stop-color: rgb(192, 192, 192);"
         offset="0.7515" />
      <stop
         id="stop20"
         style="stop-color: rgb(178, 178, 178);"
         offset="1" />
    </radialGradient>
    <radialGradient
       r="427.12018"
       fy="649.22662"
       fx="663.91144"
       cy="649.22662"
       cx="663.91144"
       gradientTransform="matrix(0.08428564,0,0,0.08428564,12.002509,-61.992466)"
       gradientUnits="userSpaceOnUse"
       id="radialGradient3982"
       xlink:href="#XMLID_22_"
       inkscape:collect="always" />
    <radialGradient
       inkscape:collect="always"
       xlink:href="#XMLID_22_"
       id="radialGradient3869"
       gradientUnits="userSpaceOnUse"
       gradientTransform="matrix(0.02107141,0,0,0.02107141,3.000627,1.0018835)"
       cx="663.91144"
       cy="649.22662"
       fx="663.91144"
       fy="649.22662"
       r="427.12018" />
    <linearGradient
       inkscape:collect="always"
       xlink:href="#linearGradient3985"
       id="linearGradient3871"
       gradientUnits="userSpaceOnUse"
       gradientTransform="matrix(0,0.25,-0.25,0,24,-2)"
       x1="13.1875"
       y1="48"
       x2="82.8125"
       y2="48" />
    <radialGradient
       inkscape:collect="always"
       xlink:href="#radialGradient29545"
       id="radialGradient3873"
       gradientUnits="userSpaceOnUse"
       gradientTransform="matrix(0.02371861,0,0,0.02371861,2.118297,0.168579)"
       cx="375.21439"
       cy="783.16357"
       fx="375.21439"
       fy="783.16357"
       r="300.5752" />
    <linearGradient
       inkscape:collect="always"
       xlink:href="#XMLID_4_"
       id="linearGradient3876"
       gradientUnits="userSpaceOnUse"
       gradientTransform="matrix(-0.02371861,0,0,0.02371861,24.681212,0.168579)"
       x1="429.84909"
       y1="815.45459"
       x2="480.12021"
       y2="643.30768" />
    <linearGradient
       inkscape:collect="always"
       xlink:href="#XMLID_5_"
       id="linearGradient3878"
       gradientUnits="userSpaceOnUse"
       gradientTransform="matrix(0.02371861,0,0,0.02371861,2.118297,0.168579)"
       x1="220.9512"
       y1="634.63232"
       x2="278.14471"
       y2="560.35498" />
    <linearGradient
       inkscape:collect="always"
       xlink:href="#XMLID_5_"
       id="linearGradient3880"
       gradientUnits="userSpaceOnUse"
       gradientTransform="matrix(0.02371861,0,0,0.02371861,2.118297,0.168579)"
       x1="237.20799"
       y1="684.01898"
       x2="328.18469"
       y2="565.86761" />
    <linearGradient
       inkscape:collect="always"
       xlink:href="#XMLID_5_"
       id="linearGradient3883"
       gradientUnits="userSpaceOnUse"
       gradientTransform="matrix(0.02371861,0,0,0.02371861,2.118297,0.168579)"
       x1="264.5405"
       y1="704.23578"
       x2="335.09619"
       y2="612.60522" />
    <linearGradient
       inkscape:collect="always"
       xlink:href="#XMLID_5_"
       id="linearGradient3885"
       gradientUnits="userSpaceOnUse"
       gradientTransform="matrix(0.02371861,0,0,0.02371861,2.118297,0.168579)"
       x1="319.186"
       y1="713.54639"
       x2="373.12509"
       y2="626.00598" />
    <linearGradient
       inkscape:collect="always"
       xlink:href="#XMLID_5_"
       id="linearGradient3887"
       gradientUnits="userSpaceOnUse"
       gradientTransform="matrix(0.02371861,0,0,0.02371861,2.118297,0.168579)"
       x1="331.49609"
       y1="790.51508"
       x2="409.85471"
       y2="688.75092" />
    <linearGradient
       inkscape:collect="always"
       xlink:href="#linearGradient5498"
       id="linearGradient3890"
       gradientUnits="userSpaceOnUse"
       gradientTransform="matrix(0.02107141,0,0,0.02107141,3.000627,1.0018837)"
       x1="1508.4957"
       y1="-363.42487"
       x2="361.1441"
       y2="630.52039" />
    <linearGradient
       inkscape:collect="always"
       xlink:href="#linearGradient5498"
       id="linearGradient3892"
       gradientUnits="userSpaceOnUse"
       gradientTransform="matrix(0.02107141,0,0,0.02107141,3.000627,1.0018837)"
       x1="370.62177"
       y1="-309.6048"
       x2="370.20648"
       y2="458.38397" />
    <linearGradient
       inkscape:collect="always"
       xlink:href="#linearGradient5498"
       id="linearGradient3894"
       gradientUnits="userSpaceOnUse"
       gradientTransform="matrix(0.02107141,0,0,0.02107141,3.000627,1.0018837)"
       x1="247.47713"
       y1="274.88394"
       x2="130.31757"
       y2="580.54669" />
    <linearGradient
       inkscape:collect="always"
       xlink:href="#linearGradient5498"
       id="linearGradient3896"
       gradientUnits="userSpaceOnUse"
       gradientTransform="matrix(0.02107141,0,0,0.02107141,3.000627,1.0018837)"
       x1="220.36789"
       y1="756.76105"
       x2="185.21225"
       y2="491.06723" />
    <linearGradient
       inkscape:collect="always"
       xlink:href="#linearGradient3831"
       id="linearGradient3845"
       x1="11"
       y1="19.5"
       x2="21"
       y2="19.5"
       gradientUnits="userSpaceOnUse"
       spreadMethod="reflect"
       gradientTransform="translate(1,-1)" />
    <linearGradient
       id="linearGradient3831">
      <stop
         style="stop-color:#ffffff;stop-opacity:1;"
         offset="0"
         id="stop3833" />
      <stop
         id="stop3821"
         offset="0.75"
         style="stop-color:#ffffff;stop-opacity:0.49803922;" />
      <stop
         style="stop-color:#ffffff;stop-opacity:0;"
         offset="1"
         id="stop3835" />
    </linearGradient>
    <linearGradient
       y2="16"
       x2="10"
       y1="1"
       x1="10"
       gradientUnits="userSpaceOnUse"
       id="linearGradient3078"
       xlink:href="#linearGradient3823"
       inkscape:collect="always"
       gradientTransform="translate(1,-1)" />
    <linearGradient
       id="linearGradient3823">
      <stop
         id="stop3825"
         offset="0"
         style="stop-color:#ffffff;stop-opacity:1;" />
      <stop
         id="stop3829"
         offset="1"
         style="stop-color:#ffffff;stop-opacity:0;" />
    </linearGradient>
    <linearGradient
       y2="16"
       x2="10"
       y1="1"
       x1="10"
       gradientTransform="translate(1,-1)"
       gradientUnits="userSpaceOnUse"
       id="linearGradient3888"
       xlink:href="#linearGradient3823"
       inkscape:collect="always" />
  </defs>
  <sodipodi:namedview
     id="base"
     pagecolor="#ffffff"
     bordercolor="#e7e7e7"
     borderopacity="1"
     inkscape:pageopacity="0.0"
     inkscape:pageshadow="2"
     inkscape:zoom="17.261742"
     inkscape:cx="-5.5788656"
     inkscape:cy="11.611174"
     inkscape:document-units="px"
     inkscape:current-layer="layer1"
     showgrid="true"
     inkscape:showpageshadow="false"
     showguides="false"
     inkscape:guide-bbox="true"
     inkscape:window-width="1920"
     inkscape:window-height="1026"
     inkscape:window-x="0"
     inkscape:window-y="25"
     inkscape:window-maximized="1">
    <sodipodi:guide
       orientation="1,0"
       position="0,112"
       id="guide2383" />
    <sodipodi:guide
       orientation="0,1"
       position="26.278146,128"
       id="guide2385" />
    <sodipodi:guide
       orientation="1,0"
       position="128,54.082119"
       id="guide2387" />
    <sodipodi:guide
       orientation="0,1"
       position="78.156291,0"
       id="guide2389" />
    <sodipodi:guide
       orientation="0,1"
       position="60.863576,64.084768"
       id="guide2391" />
    <inkscape:grid
       type="xygrid"
       id="grid3672"
       visible="true"
       enabled="true"
       empspacing="8"
       snapvisiblegridlinesonly="true" />
  </sodipodi:namedview>
  <metadata
     id="metadata7">
    <rdf:RDF>
      <cc:Work
         rdf:about="">
        <dc:format>image/svg+xml</dc:format>
        <dc:type
           rdf:resource="http://purl.org/dc/dcmitype/StillImage" />
      </cc:Work>
    </rdf:RDF>
  </metadata>
  <g
     inkscape:label="Button"
     inkscape:groupmode="layer"
     id="layer1"
     transform="translate(0,2)">
    <g
       style="display:inline"
       id="g3337"
       transform="translate(1,-1)">
      <rect
         ry="2.5"
         rx="2.5"
         y="0.5"
         x="0.5"
         height="21.5"
         width="21"
         id="rect3371"
         style="opacity:0.3;fill:url(#linearGradient3335);fill-opacity:1;stroke:none;display:inline" />
      <rect
         style="opacity:0.5;fill:#000000;fill-opacity:1;stroke:none;display:inline"
         id="rect2553"
         width="20"
         height="20"
         x="1"
         y="2"
         rx="2.3809524"
         ry="2.3255813" />
    </g>
    <rect
       style="fill:url(#linearGradient3181);fill-opacity:1;fill-rule:evenodd;stroke:none;display:inline"
       id="rect3173"
       width="20"
       height="20"
       x="2"
       y="-20"
       rx="2"
       ry="2"
       transform="scale(1,-1)" />
    <path
       style="opacity:0.5;fill:url(#linearGradient3888);fill-opacity:1;fill-rule:evenodd;stroke:none;display:inline"
       d="M 4,0 C 2.892,0 2,0.892 2,2 l 0,16 c 0,1.108 0.892,2 2,2 l 16,0 c 1.108,0 2,-0.892 2,-2 L 22,2 C 22,0.892 21.108,0 20,0 L 4,0 z m 0,1.03125 16,0 c 0.5497,0 0.96875,0.4190495 0.96875,0.96875 l 0,16 c 0,0.5497 -0.41905,0.96875 -0.96875,0.96875 l -16,0 C 3.4502995,18.96875 3.03125,18.5497 3.03125,18 l 0,-16 C 3.03125,1.4502995 3.4502995,1.03125 4,1.03125 z"
       id="rect3050"
       inkscape:connector-curvature="0" />
    <path
       id="path3235"
       d="M 4,20 C 2.892,20 2,19.108 2,18 l 0,-1 c 0,1.108 0.892,2 2,2 l 16,0 c 1.108,0 2,-0.892 2,-2 l 0,1 c 0,1.108 -0.892,2 -2,2 L 4,20 z"
       style="opacity:0.3;fill:url(#linearGradient3845);fill-opacity:1;fill-rule:evenodd;stroke:none;display:inline"
       inkscape:connector-curvature="0" />
  </g>
  <g
     inkscape:groupmode="layer"
     id="layer2"
     inkscape:label="Highlight"
     transform="translate(0,2)"
     sodipodi:insensitive="true">
    <rect
       style="opacity:0.15;fill:#ffffff;fill-opacity:1;fill-rule:nonzero;stroke:none;display:inline;filter:url(#filter3194)"
       id="rect2410"
       width="16"
       height="16"
       x="3"
       y="3"
       rx="2"
       ry="2"
       clip-path="url(#clipPath2849)"
       transform="translate(1,-1)" />
  </g>
  <g
     inkscape:groupmode="layer"
     id="layer3"
     inkscape:label="Symbol"
     transform="translate(0,2)">
    <path
       id="circle22"
       d="m 20.704145,10.001884 c 0,4.804341 -3.899175,8.703516 -8.703517,8.703516 -4.80434,0 -8.703516,-3.899175 -8.703516,-8.703516 0,-4.804342 3.899176,-8.7035178 8.703516,-8.7035178 4.804342,0 8.703517,3.8991758 8.703517,8.7035178 z"
       style="fill:url(#radialGradient3869);fill-opacity:1;stroke:none;display:inline" />
    <path
       transform="matrix(0.25,0,0,0.25,0,-2)"
       sodipodi:type="inkscape:offset"
       inkscape:radius="-2.1959965"
       inkscape:original="M 67.1875 30.78125 C 65.738766 30.78125 62.929054 33.804221 61.875 34.28125 C 60.82047 34.758279 52.478374 40.170943 51.6875 41.125 C 50.897007 42.078961 49.829596 42.454504 48.6875 42.375 C 47.545496 42.2955 43.948608 42.270212 42.71875 42.90625 C 41.488613 43.542288 35.874593 48.738867 34.46875 49.375 C 33.063091 50.010848 31.222281 50.358091 30.34375 50.4375 C 29.465208 50.5171 26.540778 53.443276 25.75 54 C 24.95932 54.556248 19.190933 56.77316 18.3125 57.25 C 17.43386 57.727123 23.47692 65.278492 24.53125 65.4375 C 25.585407 65.596604 23.497165 66.375 21.46875 66.375 C 21.245419 66.375 24.354331 74.55934 35 79.84375 C 44.203292 84.411954 51.623521 81.639199 55.25 80.53125 C 57.814267 79.747879 58.286862 79.397077 58.375 78.125 C 58.46295 76.853022 58.605448 75.868492 58.78125 74.4375 C 58.957052 73.0067 59.590328 60.9925 61.875 57.8125 C 64.159006 54.632405 70.684553 50.803585 72.96875 50.40625 C 75.253136 50.008726 74.8125 49.215542 74.8125 48.5 C 74.8125 47.784456 74.458726 46.207264 73.84375 45.96875 C 73.228679 45.730331 70.821932 47.15349 70.03125 47.3125 C 69.240472 47.471508 65.464718 47.701203 64.9375 46.90625 C 64.410377 46.111108 69.197524 38.016462 69.8125 37.0625 C 70.427286 36.108444 70.70441 34.820236 69.5625 33.46875 C 68.419928 32.11698 67.626673 30.78125 67.1875 30.78125 z "
       style="opacity:0.4;fill:#323232;display:inline"
       id="path4002"
       d="m 66.71875,33.375 c -0.293778,0.198652 -0.610172,0.399525 -0.96875,0.6875 -0.473721,0.380447 -0.966925,0.807717 -1.4375,1.1875 -0.470575,0.379783 -0.807883,0.703879 -1.53125,1.03125 0.166621,-0.07537 -0.734239,0.423523 -1.65625,1 -0.922011,0.576477 -2.075581,1.30635 -3.21875,2.0625 C 56.763081,40.0999 55.625549,40.875356 54.75,41.5 c -0.437775,0.312322 -0.831184,0.60626 -1.09375,0.8125 -0.262566,0.20624 -0.462108,0.436925 -0.28125,0.21875 -1.229517,1.483772 -3.129182,2.150605 -4.84375,2.03125 -0.427756,-0.02978 -1.60014,-0.05751 -2.6875,0 -1.08736,0.05751 -2.296526,0.369957 -2.125,0.28125 0.170829,-0.08833 -0.524852,0.404447 -1.21875,0.96875 -0.693898,0.564303 -1.567504,1.267976 -2.4375,2 -0.869996,0.732024 -1.749057,1.476427 -2.53125,2.09375 -0.782193,0.617323 -1.281825,1.073079 -2.15625,1.46875 -1.788066,0.808829 -3.667495,1.14368 -4.84375,1.25 0.875508,-0.07932 0.436405,-0.129683 0.125,0.09375 -0.311405,0.223433 -0.772218,0.583364 -1.21875,0.96875 -0.893063,0.770771 -1.603185,1.506375 -2.4375,2.09375 -0.663953,0.467095 -1.053075,0.598975 -1.75,0.90625 -0.696925,0.307275 -1.513322,0.656223 -2.34375,1 -0.607501,0.251491 -1.146239,0.49438 -1.6875,0.71875 0.367308,0.547243 0.723467,1.08302 1.21875,1.71875 0.727573,0.933889 1.525968,1.867989 2.15625,2.53125 0.315141,0.33163 0.587703,0.582105 0.75,0.71875 0.162297,0.136645 0.482478,0.05442 -0.5,-0.09375 0.315305,0.04759 0.717092,-0.03548 1.4375,0.625 0.360204,0.330238 0.742496,1.053354 0.71875,1.75 -0.02375,0.696646 -0.319375,1.151257 -0.53125,1.40625 -0.42375,0.509985 -0.696299,0.597906 -0.9375,0.71875 -0.241201,0.120844 -0.454571,0.203653 -0.6875,0.28125 -0.0084,0.0028 -0.02277,-0.0028 -0.03125,0 0.342741,0.562792 0.554735,1.017354 1.09375,1.71875 1.903682,2.477176 5.067829,5.614442 10.0625,8.09375 8.465254,4.201867 14.81993,1.725012 18.625,0.5625 1.085699,-0.331676 1.49297,-0.550436 1.59375,-0.59375 0.0943,-1.29368 0.238709,-2.323753 0.40625,-3.6875 0.03609,-0.293753 0.303168,-3.982576 0.78125,-7.65625 0.239041,-1.836837 0.524863,-3.751173 0.9375,-5.46875 0.412637,-1.717577 0.855818,-3.211905 1.78125,-4.5 1.476456,-2.055717 3.81523,-3.819732 6.15625,-5.3125 1.02448,-0.653267 1.977331,-1.176154 2.90625,-1.65625 -0.57871,0.04516 -1.07805,0.10837 -1.8125,0.09375 -0.63346,-0.01261 -1.283916,-0.05726 -1.9375,-0.1875 -0.653584,-0.130238 -1.486477,-0.09825 -2.3125,-1.34375 -0.481427,-0.726212 -0.395736,-1.251726 -0.375,-1.59375 0.02074,-0.342024 0.05956,-0.572624 0.125,-0.8125 0.130882,-0.479752 0.315892,-0.941192 0.53125,-1.4375 C 63.805716,43.288633 64.380268,42.150572 65,41 c 1.239464,-2.301144 2.534646,-4.451611 2.96875,-5.125 0.145004,-0.225025 0.18704,-0.38594 0.1875,-0.46875 4.6e-4,-0.08281 0.01119,-0.185141 -0.28125,-0.53125 -0.49948,-0.590931 -0.830306,-1.071842 -1.15625,-1.5 z" />
    <path
       id="ellipse40"
       d="m 699.57098,390.89499 c 0,162.14779 -129.16018,293.746 -288.30398,293.746 -159.1438,0 -288.30399,-131.59821 -288.30399,-293.746 0,-162.14779 129.16019,-293.746003 288.30399,-293.746003 159.1438,0 288.30398,131.598213 288.30398,293.746003 z"
       mask="url(#XMLID_23_)"
       style="opacity:0.86000001;fill:#eeeeee;display:inline"
       transform="matrix(0.02371861,0,0,0.02371861,2.118297,0.168579)" />
    <path
       style="opacity:0.15;fill:#000000;fill-opacity:1;stroke:none;display:inline"
       d="m 12,1.296875 c -4.80434,0 -8.703125,3.8987835 -8.703125,8.703125 0,4.804341 3.898785,8.703125 8.703125,8.703125 4.804341,0 8.703125,-3.898784 8.703125,-8.703125 0,-4.8043415 -3.898784,-8.703125 -8.703125,-8.703125 z m 0,0.8828125 c 4.316438,0 7.820312,3.5038747 7.820312,7.8203125 0,4.316437 -3.503874,7.820312 -7.820312,7.820312 C 7.683563,17.820312 4.179688,14.316437 4.179688,10 4.179688,5.6835622 7.683563,2.1796875 12,2.1796875 z"
       id="path3993" />
    <path
       style="opacity:0.4;fill:url(#linearGradient3871);fill-opacity:1;stroke:none;display:inline"
       d="M 20.703125,10 C 20.703125,5.19566 16.804341,1.296875 12,1.296875 7.195659,1.296875 3.296875,5.19566 3.296875,10 c 0,4.804342 3.898784,8.703125 8.703125,8.703125 4.804341,0 8.703125,-3.898783 8.703125,-8.703125 z m -0.570313,0 c 0,4.490689 -3.642123,8.132812 -8.132812,8.132812 -4.490689,0 -8.140625,-3.642123 -8.140625,-8.132812 0,-4.4906877 3.649936,-8.1328125 8.140625,-8.1328125 4.490689,0 8.132812,3.6421248 8.132812,8.1328125 z"
       id="path3980" />
    <path
       id="path43"
       d="m 16.796056,5.6952732 c -0.362184,0 -1.065464,0.7553425 -1.328978,0.8745998 -0.263632,0.1192572 -2.350299,1.4707668 -2.548018,1.709281 -0.197623,0.2384903 -0.461208,0.337895 -0.746732,0.318019 -0.285501,-0.019875 -1.188184,-0.028035 -1.495648,0.130974 -0.307534,0.1590095 -1.711156,1.459074 -2.062616,1.618107 -0.351415,0.158962 -0.809921,0.240459 -1.029554,0.260311 -0.219635,0.0199 -0.947274,0.753351 -1.144969,0.892532 -0.19767,0.139061 -1.642893,0.696306 -1.862501,0.815516 -0.21966,0.119281 1.291454,2.006784 1.555036,2.046536 0.26354,0.03978 -0.25891,0.234648 -0.766014,0.234648 -0.05583,0 0.724721,2.046868 3.386138,3.36797 2.300823,1.142051 4.154527,0.448519 5.061146,0.171532 0.641067,-0.195843 0.757312,-0.283175 0.779346,-0.601195 0.02199,-0.317994 0.06169,-0.569293 0.105643,-0.927041 0.04395,-0.3577 0.197599,-3.359005 0.768767,-4.154004 0.571002,-0.795024 2.203292,-1.749413 2.774341,-1.848747 0.571097,-0.09938 0.461303,-0.298119 0.461303,-0.477004 0,-0.1788865 -0.08788,-0.5764102 -0.241621,-0.6360387 C 18.307357,9.4316646 17.707419,9.7897205 17.509748,9.829473 17.312054,9.869225 16.367603,9.928854 16.235798,9.7301157 16.104018,9.5313302 17.301309,7.5039824 17.455053,7.2654919 17.60875,7.026978 17.674664,6.7089587 17.389183,6.3710872 17.10354,6.0331447 16.905846,5.6952732 16.796053,5.6952732 z"
       style="opacity:0.22000002;fill:#323232;display:inline" />
    <path
       id="path58"
       d="m 16.025319,4.6437562 c -0.351343,0 -1.033467,0.8096585 -1.289129,0.937478 -0.255663,0.127843 -2.27969,1.5765516 -2.471431,1.8322383 -0.191741,0.255639 -0.447428,0.362183 -0.724366,0.3408837 C 11.263454,7.7330812 10.387906,7.7243052 10.089644,7.8947465 9.791334,8.0652123 8.429864,9.458775 8.088982,9.6292403 7.748122,9.799635 7.303396,9.886943 7.090334,9.908266 6.877314,9.929541 6.171521,10.715742 5.97978,10.864908 c -0.191741,0.149167 -1.706886,0.804796 -1.919926,0.932569 -0.213063,0.127843 1.554305,1.918194 1.809968,1.960769 0.255662,0.04267 -0.242417,0.766028 -0.667988,1.012713 -0.746709,0.432834 0.313173,1.702219 2.894815,3.118253 2.231805,1.224147 4.820626,0.966302 5.699993,0.669439 0.621854,-0.210005 0.09071,-0.704866 0.112053,-1.045727 0.02125,-0.340909 0.03916,-0.789142 0.08178,-1.1726 0.04265,-0.383482 0.191717,-3.600603 0.745689,-4.452788 0.5539,-0.852138 2.137117,-1.875169 2.691065,-1.981689 0.553972,-0.1065205 0.447404,-0.3195847 0.447404,-0.511302 0,-0.1917175 -0.0852,-0.617846 -0.234363,-0.6817675 -0.14912,-0.063898 -0.731031,0.3199165 -0.922773,0.362515 -0.191741,0.042599 -1.107872,0.106544 -1.235739,-0.1064967 C 15.353939,8.755708 16.515272,6.5825862 16.664415,6.3269232 16.813581,6.0712368 16.877455,5.7303293 16.600465,5.3681937 16.323597,5.0059395 16.131833,4.6437562 16.025312,4.6437562 z"
       style="fill:url(#radialGradient3873);fill-opacity:1;display:inline"
       sodipodi:nodetypes="cssssssssssssssssssssssc" />
    <path
       id="path60"
       d="m 11.775444,8.6598375 c 0,0 -0.84405,-0.129883 -1.331064,0.3571548 -0.487036,0.487014 -0.90918,1.5584067 -0.876616,1.8830907 0.03242,0.324684 1.006475,-1.1038873 1.4285,-1.2012523 0.42212,-0.097436 0.87664,-0.8117689 0.77918,-1.0389932 z"
       style="fill:#ffffff;display:inline" />
    <path
       id="path116"
       d="m 13.90675,13.141348 c 0,0 -0.755295,2.571192 -0.774388,2.610921 -0.107943,0.22433 -0.307038,0.874386 -0.238491,1.084319 0.08071,0.247315 0.383245,0.606886 0.524442,0.786674 0.141197,0.179858 0.201703,0.269752 0.161358,0.337233 -0.04032,0.06743 -0.564764,0.06743 -0.564764,0.06743 0,0 -0.403382,-0.60691 -0.48412,-0.831692 -0.08064,-0.224733 -0.121013,-0.696758 -0.0403,-0.85406 0.08067,-0.157373 1.416261,-3.200825 1.416261,-3.200825 z"
       style="opacity:0.18000004;fill:url(#linearGradient3876);display:inline" />
    <path
       id="polygon123"
       d="M 8.583158,13.620346 7.203327,14.814838 8.933269,13.785095 8.583158,13.620346 z"
       style="opacity:0.2;fill:url(#linearGradient3878);display:inline" />
    <path
       id="polygon130"
       d="M 9.942423,13.208496 7.594614,16.256478 10.292509,13.414397 9.942423,13.208496 z"
       style="opacity:0.2;fill:url(#linearGradient3880);fill-opacity:1;display:inline" />
    <path
       id="polygon137"
       d="m 10.127784,14.258803 -1.79175,2.842058 2.203623,-2.656721 -0.411873,-0.185337 z"
       style="opacity:0.20132003;fill:url(#linearGradient3883);fill-opacity:1;display:inline" />
    <path
       id="polygon144"
       d="m 11.178091,14.135205 -1.503427,3.521739 1.997699,-3.418729 -0.494272,-0.10301 z"
       style="opacity:0.2;fill:url(#linearGradient3885);fill-opacity:1;display:inline" />
    <path
       id="polygon151"
       d="m 11.775349,15.061986 -0.123597,3.21278 0.535447,-3.171581 -0.41185,-0.0412 z"
       style="opacity:0.2;fill:url(#linearGradient3887);fill-opacity:1;display:inline" />
    <path
       id="path2270"
       d="M 11.86995,16.370663 C 10.403018,15.718027 9.079936,14.822397 7.93692,13.708287 7.808596,13.583211 7.779927,13.549835 7.779927,13.525521 c 0,-0.02553 0.0366,-0.06188 0.257954,-0.256233 0.450755,-0.395771 0.549927,-0.501404 0.626752,-0.667596 0.07844,-0.169678 0.240513,-0.369697 0.556641,-0.686949 0.697929,-0.700411 1.964868,-1.747114 2.562485,-2.1170415 0.103863,-0.064292 0.163553,-0.110763 0.245709,-0.1912942 0.260669,-0.255514 0.664413,-0.7718238 1.505577,-1.9253421 0.895398,-1.2278902 1.196821,-1.624772 1.49484,-1.9682457 0.180083,-0.2075507 0.312509,-0.3307565 0.363864,-0.3385317 0.02182,-0.0033 0.05807,-0.00916 0.08054,-0.013012 0.02247,-0.00385 0.05119,-0.00208 0.06382,0.00395 0.01263,0.00602 0.03111,0.013537 0.04106,0.016702 0.01908,0.00606 0.382486,0.4172546 0.516329,0.5842221 0.160321,0.199999 0.174759,0.2556895 0.09454,0.3646525 -0.02994,0.040667 -0.05878,0.09915 -0.08097,0.164215 -0.03813,0.1117615 -0.234545,0.5087955 -0.536768,1.0849995 -0.237614,0.4530247 -0.559231,1.093437 -0.659744,1.3137005 -0.212181,0.464974 -0.315674,0.7852812 -0.288592,0.8931845 0.0089,0.035325 0.06246,0.060596 0.206413,0.097331 0.336734,0.08593 0.648041,0.07292 0.938128,-0.039207 0.04388,-0.01696 0.146794,-0.069516 0.228701,-0.1167918 0.25005,-0.1443242 0.438538,-0.2250067 0.673898,-0.2884607 0.112437,-0.030313 0.139163,-0.033498 0.288965,-0.034436 0.157167,-9.75e-4 0.167603,2.75e-4 0.217979,0.026149 0.04573,0.023493 0.05411,0.032874 0.06177,0.069142 0.01725,0.081717 0.02028,0.134259 0.0084,0.1461212 -0.0065,0.00648 -0.01179,0.022405 -0.01179,0.035384 0,0.053239 -0.128036,0.096258 -0.484981,0.1629483 -0.374422,0.069956 -0.392499,0.077493 -0.653064,0.2722905 -0.583271,0.436051 -1.490784,1.225976 -1.812718,1.57784 -0.14605,0.159628 -0.369939,0.468562 -0.671712,0.92686 -0.677071,1.028262 -1.146122,1.916253 -1.271426,2.407021 -0.0249,0.09752 -0.09494,0.537993 -0.158528,0.9969 -0.05869,0.423566 -0.06131,0.436316 -0.08941,0.435359 -0.0124,-4e-4 -0.113498,-0.04123 -0.224657,-0.09068 z"
       style="opacity:0.57999998;fill:url(#linearGradient3890);fill-opacity:1;display:inline" />
    <path
       id="path2476"
       d="m 7.902586,10.646821 c -0.0065,-0.02333 -0.0052,-0.228308 0.0022,-0.324244 0.0052,-0.06864 0.0095,-0.09132 0.02786,-0.145253 0.05657,-0.166704 0.13928,-0.2595032 0.258922,-0.2905055 0.04463,-0.011565 0.06884,-0.02342 0.133375,-0.065289 C 8.457499,9.7355247 8.626683,9.592736 8.897446,9.3383487 8.970916,9.269322 9.268975,8.9761582 9.5598,8.686875 9.850623,8.3975915 10.101644,8.1514385 10.11762,8.139869 c 0.01598,-0.01157 0.03951,-0.023802 0.05229,-0.027185 0.09338,-0.024712 0.319209,-0.03669 0.891852,-0.04731 0.538072,-0.00998 0.767216,-0.020345 0.837884,-0.037905 0.07319,-0.018187 0.240205,-0.1170918 0.576878,-0.3416236 0.243431,-0.1623465 0.761513,-0.520568 1.061736,-0.7341235 0.08056,-0.057306 0.113338,-0.077447 0.126028,-0.077447 0.0094,0 0.01877,-0.00262 0.02074,-0.00581 0.002,-0.0032 0.0076,-0.00581 0.01248,-0.00581 0.0073,0 0.0083,0.00593 0.0058,0.033408 -0.0066,0.070487 -0.01076,0.084975 -0.03293,0.114531 -0.06038,0.080527 -0.219409,0.210497 -0.406888,0.332532 -0.04813,0.03133 -0.141607,0.09889 -0.207722,0.1501325 -0.666781,0.5167883 -1.119761,0.8226843 -1.315613,0.8884293 -0.03883,0.013037 -0.05386,0.014837 -0.12377,0.014837 -0.134839,0 -0.289712,0.029227 -0.553981,0.104542 C 10.672906,8.6120727 10.31462,8.7576622 10.12637,8.8814254 9.9629,8.9888959 9.831552,9.1951744 9.699584,9.5516752 9.647664,9.6919377 9.586433,9.8992627 9.512671,10.184566 c -0.01838,0.07109 -0.03519,0.132121 -0.03736,0.135625 -0.0022,0.0035 -0.351368,0.08072 -0.776004,0.171593 -0.424639,0.09087 -0.776558,0.1666 -0.782043,0.168284 -0.0072,0.0022 -0.01123,-0.0015 -0.01453,-0.01325 z"
       style="fill:url(#linearGradient3892);fill-opacity:1;display:inline" />
    <path
       id="path5482"
       d="m 5.902702,13.232992 c -0.0081,-0.0018 -0.024,-0.0034 -0.03538,-0.0035 C 5.817402,13.228987 5.675707,13.157428 5.523258,13.055714 5.357895,12.945385 5.224987,12.839915 5.07431,12.699455 5.04398,12.671179 4.99113,12.622511 4.956866,12.591303 4.864856,12.507496 4.722907,12.364881 4.68118,12.314327 4.6049,12.221919 4.564068,12.153907 4.558455,12.109909 c -0.0085,-0.0669 -0.0082,-0.08267 0.0027,-0.140208 0.0025,-0.01304 0.03472,-0.04111 0.07861,-0.06839 0.08214,-0.05106 0.256879,-0.169571 0.872547,-0.591779 0.936747,-0.642394 1.3314,-0.903568 1.539493,-1.018812 0.05272,-0.0292 0.06725,-0.03246 0.14511,-0.03254 0.07462,-8.5e-5 0.137403,0.0066 0.182019,0.01942 0.0892,0.0256 0.2271,0.07949 0.348684,0.136286 0.06069,0.02835 0.06505,0.03105 0.06505,0.04027 0,0.0089 -0.0022,0.01047 -0.02108,0.01581 -0.04365,0.01226 -0.160159,0.05062 -0.255717,0.08419 -0.580568,0.203956 -1.161488,0.485249 -1.680933,0.813943 -0.123112,0.0779 -0.137405,0.08837 -0.183387,0.134356 -0.130612,0.13061 -0.248198,0.334695 -0.28098,0.487677 -0.0046,0.02136 -0.0067,0.04673 -0.0067,0.08066 -4.1e-5,0.0541 0.0064,0.0824 0.02678,0.117098 0.08038,0.137162 0.488455,0.266683 1.016261,0.322555 0.153985,0.0163 0.224908,0.02007 0.38124,0.02026 l 0.152147,1.83e-4 0.04033,-0.01393 c 0.107835,-0.03724 0.255381,-0.121532 0.575595,-0.328818 0.277476,-0.179619 0.363117,-0.231945 0.461937,-0.282231 0.09253,-0.04708 0.139274,-0.06107 0.179114,-0.0536 0.01516,0.0028 0.01794,0.01137 0.01814,0.05533 2.4e-4,0.06358 -0.0067,0.08778 -0.03891,0.135648 -0.09306,0.138298 -0.322077,0.326253 -0.644233,0.528721 -0.270742,0.170154 -0.579093,0.327926 -0.743316,0.380325 -0.01554,0.005 -0.05726,0.01565 -0.09269,0.02376 -0.189327,0.0433 -0.378428,0.11073 -0.628492,0.2241 -0.0354,0.01605 -0.06665,0.02776 -0.07882,0.02955 -0.03588,0.0053 -0.07114,0.0066 -0.08615,0.0032 z"
       style="opacity:0.7;fill:url(#linearGradient3894);fill-opacity:1;display:inline" />
    <path
       id="path6524"
       d="m 6.554078,12.168288 c -0.0036,-4.75e-4 -0.04974,-0.0018 -0.10263,-0.0029 -0.09521,-0.002 -0.15483,-0.0061 -0.239828,-0.0165 -0.197141,-0.02413 -0.328544,-0.06298 -0.374626,-0.110761 -0.0098,-0.01013 -0.01301,-0.02216 -0.01285,-0.04788 1.42e-4,-0.0335 0.0033,-0.04657 0.01762,-0.07467 0.06073,-0.119115 0.235424,-0.307736 0.441164,-0.476323 0.04514,-0.03699 0.120006,-0.09318 0.158864,-0.119232 l 0.02803,-0.0188 0.636302,-0.07697 0.636303,-0.07697 0.04213,0.0024 c 0.03917,0.0022 0.07269,0.0047 0.158045,0.01168 0.03937,0.0032 0.04242,0.0046 0.0387,0.01805 -0.0014,0.0045 -0.0022,0.01222 -0.0022,0.01719 -1.7e-5,0.01276 -0.02004,0.05967 -0.04795,0.112194 -0.150439,0.283387 -0.454284,0.640332 -0.65643,0.771148 -0.05794,0.0375 -0.0986,0.05523 -0.150842,0.0658 -0.05329,0.01078 -0.121348,0.01761 -0.197016,0.0198 -0.07436,0.0022 -0.361107,0.0042 -0.372709,0.0027 z"
       style="fill:url(#linearGradient3896);fill-opacity:1;display:inline" />
    <path
       style="font-size:medium;font-style:normal;font-variant:normal;font-weight:normal;font-stretch:normal;text-indent:0;text-align:start;text-decoration:none;line-height:normal;letter-spacing:normal;word-spacing:normal;text-transform:none;direction:ltr;block-progression:tb;writing-mode:lr-tb;text-anchor:start;color:#000000;fill:#1c5eaa;fill-opacity:1;fill-rule:nonzero;stroke:none;stroke-width:4.21699429;marker:none;visibility:visible;display:inline;overflow:visible;enable-background:accumulate;font-family:Abandoned Bitplane;-inkscape-font-specification:Abandoned Bitplane"
       d="m 12,1 c -4.964771,0 -9,4.0352293 -9,9 0,4.96477 4.035229,9 9,9 4.96477,0 9,-4.03523 9,-9 0,-4.9647707 -4.03523,-9 -9,-9 z m 0,0.5932618 c 4.643912,0 8.406738,3.762826 8.406738,8.4067382 0,4.643912 -3.762826,8.406739 -8.406738,8.406739 C 7.356087,18.406739 3.593261,14.643912 3.593261,10 3.593261,5.3560878 7.356087,1.5932618 12,1.5932618 z"
       id="path3966" />
  </g>
</svg>
