<?xml version="1.0" encoding="UTF-8" standalone="no"?>
<!-- Created with Inkscape (http://www.inkscape.org/) -->

<svg
   xmlns:dc="http://purl.org/dc/elements/1.1/"
   xmlns:cc="http://creativecommons.org/ns#"
   xmlns:rdf="http://www.w3.org/1999/02/22-rdf-syntax-ns#"
   xmlns:svg="http://www.w3.org/2000/svg"
   xmlns="http://www.w3.org/2000/svg"
   xmlns:xlink="http://www.w3.org/1999/xlink"
   xmlns:sodipodi="http://sodipodi.sourceforge.net/DTD/sodipodi-0.dtd"
   xmlns:inkscape="http://www.inkscape.org/namespaces/inkscape"
   width="24"
   height="24"
   id="svg2"
   sodipodi:version="0.32"
   inkscape:version="0.48.0 r9654"
   version="1.0"
   sodipodi:docname="amazon-mp3-store-source.svg"
   inkscape:output_extension="org.inkscape.output.svg.inkscape"
   style="display:inline">
  <defs
     id="defs4">
    <linearGradient
       id="linearGradient3640">
      <stop
         style="stop-color:#2a782a;stop-opacity:1;"
         offset="0"
         id="stop3642" />
      <stop
         style="stop-color:#278f27;stop-opacity:1;"
         offset="1"
         id="stop3644" />
    </linearGradient>
    <linearGradient
       inkscape:collect="always"
       id="linearGradient3327">
      <stop
         style="stop-color:#000000;stop-opacity:1;"
         offset="0"
         id="stop3330" />
      <stop
         style="stop-color:#000000;stop-opacity:0;"
         offset="1"
         id="stop3333" />
    </linearGradient>
    <linearGradient
       inkscape:collect="always"
       xlink:href="#linearGradient3327"
       id="linearGradient3335"
       x1="11.375"
       y1="22"
       x2="11.375"
       y2="-9.817296"
       gradientUnits="userSpaceOnUse" />
    <inkscape:perspective
       sodipodi:type="inkscape:persp3d"
       inkscape:vp_x="0 : 11 : 1"
       inkscape:vp_y="0 : 1000 : 0"
       inkscape:vp_z="22 : 11 : 1"
       inkscape:persp3d-origin="11 : 7.3333333 : 1"
       id="perspective2531" />
    <linearGradient
       id="ButtonShadow"
       gradientTransform="scale(0.9883037,1.0118347)"
       x1="9.3550024"
       y1="21.742682"
       x2="9.3550024"
       y2="0.49362123"
       gradientUnits="userSpaceOnUse">
      <stop
         id="stop3277"
         offset="0"
         style="stop-color:#000000;stop-opacity:0.70588237;" />
      <stop
         id="stop3279"
         offset="1"
         style="stop-color:#000000;stop-opacity:0.15686275;" />
    </linearGradient>
    <linearGradient
       inkscape:collect="always"
       id="linearGradient3232">
      <stop
         style="stop-color:#000000;stop-opacity:1;"
         offset="0"
         id="stop3234" />
      <stop
         style="stop-color:#000000;stop-opacity:0;"
         offset="1"
         id="stop3236" />
    </linearGradient>
    <linearGradient
       gradientUnits="userSpaceOnUse"
       y2="-6.0004225"
       x2="11"
       y1="14.805666"
       x1="11"
       id="linearGradient3221"
       xlink:href="#linearGradient3232"
       inkscape:collect="always" />
    <linearGradient
       id="ButtonColor"
       x1="10.31979"
       y1="21"
       x2="10.31979"
       y2="0.99929649"
       gradientUnits="userSpaceOnUse">
      <stop
         style="stop-color:#29669f;stop-opacity:1;"
         offset="0"
         id="stop3189" />
      <stop
         style="stop-color:#88b6e0;stop-opacity:1;"
         offset="1"
         id="stop3191" />
    </linearGradient>
    <linearGradient
       inkscape:collect="always"
       xlink:href="#ButtonShadow"
       id="linearGradient38042"
       gradientUnits="userSpaceOnUse"
       gradientTransform="scale(0.9883037,1.0118347)"
       x1="9.3550024"
       y1="21.742682"
       x2="9.3550024"
       y2="0.49362123" />
    <filter
       inkscape:collect="always"
       id="filter3194"
       x="-0.18000001"
       width="1.36"
       y="-0.18000001"
       height="1.36"
       color-interpolation-filters="sRGB">
      <feGaussianBlur
         inkscape:collect="always"
         stdDeviation="1.2"
         id="feGaussianBlur3196" />
    </filter>
    <clipPath
       clipPathUnits="userSpaceOnUse"
       id="clipPath2849">
      <rect
         ry="2"
         rx="2"
         y="1"
         x="1"
         height="20"
         width="20"
         id="rect2851"
         style="fill:#ffffff;fill-opacity:1;fill-rule:evenodd;stroke:none;display:inline" />
    </clipPath>
    <linearGradient
       inkscape:collect="always"
       xlink:href="#linearGradient3640"
       id="linearGradient3646"
       x1="2"
       y1="10"
       x2="22"
       y2="10"
       gradientUnits="userSpaceOnUse"
       gradientTransform="translate(-22,2)" />
    <inkscape:perspective
       id="perspective3683"
       inkscape:persp3d-origin="150 : 23.333333 : 1"
       inkscape:vp_z="300 : 35 : 1"
       inkscape:vp_y="0 : 1000 : 0"
       inkscape:vp_x="0 : 35 : 1"
       sodipodi:type="inkscape:persp3d" />
    <linearGradient
       inkscape:collect="always"
       xlink:href="#linearGradient3831"
       id="linearGradient3845"
       x1="11"
       y1="19.5"
       x2="21"
       y2="19.5"
       gradientUnits="userSpaceOnUse"
       spreadMethod="reflect"
       gradientTransform="translate(1,-1)" />
    <linearGradient
       id="linearGradient3831">
      <stop
         style="stop-color:#ffffff;stop-opacity:1;"
         offset="0"
         id="stop3833" />
      <stop
         id="stop3821"
         offset="0.75"
         style="stop-color:#ffffff;stop-opacity:0.49803922;" />
      <stop
         style="stop-color:#ffffff;stop-opacity:0;"
         offset="1"
         id="stop3835" />
    </linearGradient>
    <linearGradient
       y2="16"
       x2="10"
       y1="1"
       x1="10"
       gradientUnits="userSpaceOnUse"
       id="linearGradient3078"
       xlink:href="#linearGradient3823"
       inkscape:collect="always"
       gradientTransform="translate(1,-1)" />
    <linearGradient
       id="linearGradient3823">
      <stop
         id="stop3825"
         offset="0"
         style="stop-color:#ffffff;stop-opacity:1;" />
      <stop
         id="stop3829"
         offset="1"
         style="stop-color:#ffffff;stop-opacity:0;" />
    </linearGradient>
    <linearGradient
       y2="16"
       x2="10"
       y1="1"
       x1="10"
       gradientTransform="translate(1,-1)"
       gradientUnits="userSpaceOnUse"
       id="linearGradient3888"
       xlink:href="#linearGradient3823"
       inkscape:collect="always" />
  </defs>
  <sodipodi:namedview
     id="base"
     pagecolor="#ffffff"
     bordercolor="#e7e7e7"
     borderopacity="1"
     inkscape:pageopacity="0.0"
     inkscape:pageshadow="2"
     inkscape:zoom="25.549718"
     inkscape:cx="-0.36157534"
     inkscape:cy="8.5664743"
     inkscape:document-units="px"
     inkscape:current-layer="layer1"
     showgrid="true"
     inkscape:showpageshadow="false"
     showguides="false"
     inkscape:guide-bbox="true"
     inkscape:window-width="1920"
     inkscape:window-height="1026"
     inkscape:window-x="0"
     inkscape:window-y="25"
     inkscape:window-maximized="1"
     inkscape:snap-global="false">
    <sodipodi:guide
       orientation="1,0"
       position="0,112"
       id="guide2383" />
    <sodipodi:guide
       orientation="0,1"
       position="26.278146,128"
       id="guide2385" />
    <sodipodi:guide
       orientation="1,0"
       position="128,54.082119"
       id="guide2387" />
    <sodipodi:guide
       orientation="0,1"
       position="78.156291,0"
       id="guide2389" />
    <sodipodi:guide
       orientation="0,1"
       position="60.863576,64.084768"
       id="guide2391" />
    <inkscape:grid
       type="xygrid"
       id="grid3672"
       visible="true"
       enabled="true"
       empspacing="8"
       snapvisiblegridlinesonly="true" />
  </sodipodi:namedview>
  <metadata
     id="metadata7">
    <rdf:RDF>
      <cc:Work
         rdf:about="">
        <dc:format>image/svg+xml</dc:format>
        <dc:type
           rdf:resource="http://purl.org/dc/dcmitype/StillImage" />
        <dc:title />
      </cc:Work>
    </rdf:RDF>
  </metadata>
  <g
     inkscape:label="Button"
     inkscape:groupmode="layer"
     id="layer1"
     transform="translate(0,2)">
    <g
       style="display:inline"
       id="g3337"
       transform="translate(1,-1)">
      <rect
         ry="2.5"
         rx="2.5"
         y="0.5"
         x="0.5"
         height="21.5"
         width="21"
         id="rect3371"
         style="opacity:0.3;fill:url(#linearGradient3335);fill-opacity:1;stroke:none;display:inline" />
      <rect
         style="opacity:0.5;fill:#000000;fill-opacity:1;stroke:none;display:inline"
         id="rect2553"
         width="20"
         height="20"
         x="1"
         y="2"
         rx="2.3809524"
         ry="2.3255813" />
    </g>
    <rect
       style="fill:url(#linearGradient3646);fill-opacity:1;fill-rule:evenodd;stroke:none;display:inline"
       id="rect3173"
       width="20"
       height="20"
       x="-20"
       y="2"
       rx="2"
       ry="2"
       transform="matrix(0,-1,1,0,0,0)" />
    <path
       style="opacity:0.3;fill:url(#linearGradient3888);fill-opacity:1;fill-rule:evenodd;stroke:none;display:inline"
       d="M 4,0 C 2.892,0 2,0.892 2,2 l 0,16 c 0,1.108 0.892,2 2,2 l 16,0 c 1.108,0 2,-0.892 2,-2 L 22,2 C 22,0.892 21.108,0 20,0 L 4,0 z m 0,1.03125 16,0 c 0.5497,0 0.96875,0.4190495 0.96875,0.96875 l 0,16 c 0,0.5497 -0.41905,0.96875 -0.96875,0.96875 l -16,0 C 3.4502995,18.96875 3.03125,18.5497 3.03125,18 l 0,-16 C 3.03125,1.4502995 3.4502995,1.03125 4,1.03125 z"
       id="rect3050"
       inkscape:connector-curvature="0" />
    <path
       id="path3235"
       d="M 4,20 C 2.892,20 2,19.108 2,18 l 0,-1 c 0,1.108 0.892,2 2,2 l 16,0 c 1.108,0 2,-0.892 2,-2 l 0,1 c 0,1.108 -0.892,2 -2,2 L 4,20 z"
       style="opacity:0.15;fill:url(#linearGradient3845);fill-opacity:1;fill-rule:evenodd;stroke:none;display:inline"
       inkscape:connector-curvature="0" />
  </g>
  <g
     inkscape:groupmode="layer"
     id="layer2"
     inkscape:label="Highlight"
     transform="translate(0,2)"
     sodipodi:insensitive="true">
    <rect
       style="opacity:0.1;fill:#ffffff;fill-opacity:1;fill-rule:nonzero;stroke:none;display:inline;filter:url(#filter3194)"
       id="rect2410"
       width="16"
       height="16"
       x="3"
       y="3"
       rx="2"
       ry="2"
       clip-path="url(#clipPath2849)"
       transform="translate(1,-1)" />
  </g>
  <g
     inkscape:groupmode="layer"
     id="layer3"
     inkscape:label="Symbol"
     transform="translate(0,2)">
    <path
       style="fill:#ff9201;fill-rule:evenodd;stroke:#ff9201;stroke-width:0.30000001;stroke-miterlimit:4;stroke-opacity:1;stroke-dasharray:none"
       d="m 18.46875,14.134928 c -0.531159,0.0073 -1.149448,0.134712 -1.625,0.46875 -0.146146,0.103457 -0.131371,0.23746 0.03125,0.21875 0.535036,-0.0646 1.725309,-0.209335 1.9375,0.0625 0.212991,0.271996 -0.237142,1.404793 -0.4375,1.90625 -0.0606,0.15175 0.08171,0.20888 0.21875,0.09375 0.891462,-0.744989 1.11995,-2.304987 0.9375,-2.53125 -0.09067,-0.111693 -0.531341,-0.226006 -1.0625,-0.21875 z m -13.9375,0.3125 c -0.1104756,0.01458 -0.1790695,0.144465 -0.0625,0.25 1.981041,1.788518 4.624689,2.84375 7.53125,2.84375 2.074585,0 4.463765,-0.649182 6.125,-1.875 0.275033,-0.202758 0.03095,-0.493808 -0.25,-0.375 -1.862713,0.790242 -3.876984,1.15625 -5.71875,1.15625 -2.729868,0 -5.362254,-0.724703 -7.5,-1.96875 -0.046652,-0.0273 -0.088175,-0.03611 -0.125,-0.03125 z"
       id="path3651" />
    <path
       style="fill:#ffffff;fill-rule:evenodd"
       d="m 13.402659,9.2280086 c 0,0.7156117 0.01722,1.3117894 -0.343375,1.9487734 -0.291952,0.517882 -0.756088,0.835048 -1.271647,0.835048 -0.703669,0 -1.116714,-0.537457 -1.116714,-1.332028 0,-1.5639305 1.404021,-1.8482511 2.731404,-1.8482511 v 0.3964577 z m 1.850903,4.4774704 c -0.121105,0.11015 -0.297259,0.116789 -0.433614,0.04379 -0.60978,-0.506934 -0.71893,-0.740163 -1.053015,-1.224205 -1.006899,1.026475 -1.721185,1.334682 -3.026671,1.334682 -1.5470099,0 -2.7483213,-0.95415 -2.7483213,-2.862781 0,-1.4896159 0.8071774,-2.502818 1.9570678,-3.0007945 C 10.945954,7.559247 12.338363,7.4799553 13.402659,7.3611851 V 7.1213208 c 0,-0.4356046 0.0345,-0.9538182 -0.222614,-1.3310324 C 12.956437,5.451559 12.527136,5.3135452 12.14959,5.3135452 c -0.700352,0 -1.323734,0.3576409 -1.476343,1.1017847 -0.03218,0.1652141 -0.15262,0.3287766 -0.319155,0.3374035 L 8.5745158,6.5599871 C 8.4232235,6.5261476 8.2566878,6.4063918 8.299816,6.1768017 8.7088801,4.0166946 10.658317,3.3651126 12.406373,3.3651126 c 0.893439,0 2.061907,0.2385364 2.765244,0.9146693 0.893436,0.8343819 0.806846,1.9471151 0.806846,3.1597072 V 10.30028 c 0,0.861257 0.358636,1.238139 0.693716,1.70128 0.117453,0.166874 0.143989,0.365934 -0.006,0.488686 -0.375221,0.314843 -1.0414,0.893439 -1.407996,1.219561 l -0.0045,-0.0044 z"
       id="path3673" />
    <g
       transform="translate(56.1646,-15)"
       id="g3717">
      <path
         style="fill:#ff9201;fill-rule:evenodd"
         d="m -8.0352193,30.04091 c -1.6612348,1.225818 -4.0701767,1.877903 -6.1447617,1.877903 -2.906561,0 -5.524657,-1.07423 -7.505698,-2.862748 -0.155426,-0.140714 -0.01663,-0.332918 0.169977,-0.223704 2.137746,1.244047 4.780787,1.992714 7.510655,1.992714 1.841766,0 3.865821,-0.382009 5.7285337,-1.172251 0.28095,-0.118808 0.5163275,0.185328 0.241294,0.388086 z"
         id="path3719" />
      <path
         style="fill:#ff9201;fill-rule:evenodd"
         d="m -7.3439576,29.251627 c -0.2121916,-0.271835 -1.4049099,-0.128882 -1.9399461,-0.06428 -0.1626216,0.01871 -0.1875665,-0.122326 -0.041415,-0.225783 0.9511045,-0.668076 2.5095215,-0.474753 2.6908517,-0.251368 0.1824496,0.226263 -0.047811,1.788518 -0.9392716,2.533507 -0.1370371,0.11513 -0.2675181,0.05453 -0.2069148,-0.09722 0.2003588,-0.501457 0.6496869,-1.622858 0.4366958,-1.894854 z"
         id="path3721" />
    </g>
  </g>
</svg>
