<?xml version="1.0" encoding="UTF-8" standalone="no"?>
<!-- Created with Inkscape (http://www.inkscape.org/) -->

<svg
   xmlns:dc="http://purl.org/dc/elements/1.1/"
   xmlns:cc="http://creativecommons.org/ns#"
   xmlns:rdf="http://www.w3.org/1999/02/22-rdf-syntax-ns#"
   xmlns:svg="http://www.w3.org/2000/svg"
   xmlns="http://www.w3.org/2000/svg"
   xmlns:xlink="http://www.w3.org/1999/xlink"
   xmlns:sodipodi="http://sodipodi.sourceforge.net/DTD/sodipodi-0.dtd"
   xmlns:inkscape="http://www.inkscape.org/namespaces/inkscape"
   width="24"
   height="24"
   id="svg2"
   sodipodi:version="0.32"
   inkscape:version="0.48.1 r9760"
   version="1.0"
   sodipodi:docname="baobab.svg"
   inkscape:output_extension="org.inkscape.output.svg.inkscape"
   style="display:inline">
  <defs
     id="defs4">
    <linearGradient
       gradientUnits="userSpaceOnUse"
       y2="20.137329"
       x2="11.794092"
       y1="3.2126782"
       x1="11.794092"
       gradientTransform="scale(1.0598527,0.9435274)"
       id="linearGradient3317">
      <stop
         id="stop3319"
         offset="0"
         style="stop-color:#c6953a;stop-opacity:1" />
      <stop
         id="stop3321"
         offset="1"
         style="stop-color:#ab7a1f;stop-opacity:1" />
    </linearGradient>
    <linearGradient
       inkscape:collect="always"
       xlink:href="#linearGradient3317"
       id="linearGradient3361"
       x1="48.035713"
       y1="25.910715"
       x2="48.035713"
       y2="85.821426"
       gradientUnits="userSpaceOnUse"
       gradientTransform="matrix(0.2195263,0,0,0.2195263,1.3370719,0.1776143)" />
    <linearGradient
       id="linearGradient3348">
      <stop
         style="stop-color:#ddbf8b;stop-opacity:1;"
         offset="0"
         id="stop3350" />
      <stop
         id="stop3356"
         offset="0.71691591"
         style="stop-color:#c29856;stop-opacity:1;" />
      <stop
         style="stop-color:#a2773a;stop-opacity:1;"
         offset="1"
         id="stop3352" />
    </linearGradient>
    <linearGradient
       id="linearGradient3187">
      <stop
         style="stop-color:#c29656;stop-opacity:1;"
         offset="0"
         id="stop3189" />
      <stop
         style="stop-color:#ddbf8b;stop-opacity:1;"
         offset="1"
         id="stop3191" />
    </linearGradient>
    <linearGradient
       inkscape:collect="always"
       xlink:href="#linearGradient3348"
       id="linearGradient3640"
       x1="6.9332814"
       y1="3"
       x2="6.9349904"
       y2="6.4254756"
       gradientUnits="userSpaceOnUse"
       gradientTransform="translate(31,-3)" />
    <linearGradient
       inkscape:collect="always"
       xlink:href="#linearGradient3187"
       id="linearGradient3668"
       x1="10.871767"
       y1="24.123091"
       x2="10.871767"
       y2="6.1230297"
       gradientUnits="userSpaceOnUse"
       gradientTransform="translate(-0.7400389,-4.1230297)" />
    <linearGradient
       inkscape:collect="always"
       xlink:href="#linearGradient3831"
       id="linearGradient3845"
       x1="11"
       y1="19.5"
       x2="21"
       y2="19.5"
       gradientUnits="userSpaceOnUse"
       spreadMethod="reflect"
       gradientTransform="translate(1,-1)" />
    <linearGradient
       id="linearGradient3831">
      <stop
         style="stop-color:#ffffff;stop-opacity:1;"
         offset="0"
         id="stop3833" />
      <stop
         id="stop3821"
         offset="0.75"
         style="stop-color:#ffffff;stop-opacity:0.49803922;" />
      <stop
         style="stop-color:#ffffff;stop-opacity:0;"
         offset="1"
         id="stop3835" />
    </linearGradient>
    <linearGradient
       id="linearGradient3823">
      <stop
         id="stop3825"
         offset="0"
         style="stop-color:#ffffff;stop-opacity:1;" />
      <stop
         id="stop3829"
         offset="1"
         style="stop-color:#ffffff;stop-opacity:0;" />
    </linearGradient>
    <linearGradient
       y2="16"
       x2="10"
       y1="5"
       x1="10"
       gradientUnits="userSpaceOnUse"
       id="linearGradient3078"
       xlink:href="#linearGradient3823"
       inkscape:collect="always"
       gradientTransform="translate(1,-1)" />
    <linearGradient
       inkscape:collect="always"
       xlink:href="#linearGradient3348"
       id="linearGradient3822"
       x1="8"
       y1="2"
       x2="8"
       y2="4"
       gradientUnits="userSpaceOnUse" />
    <linearGradient
       inkscape:collect="always"
       xlink:href="#linearGradient3831-1"
       id="linearGradient3845-9"
       x1="11"
       y1="19.5"
       x2="21"
       y2="19.5"
       gradientUnits="userSpaceOnUse"
       spreadMethod="reflect"
       gradientTransform="translate(1,-1)" />
    <linearGradient
       id="linearGradient3831-1">
      <stop
         style="stop-color:#ffffff;stop-opacity:1;"
         offset="0"
         id="stop3833-2" />
      <stop
         id="stop3821-4"
         offset="0.75"
         style="stop-color:#ffffff;stop-opacity:0.49803922;" />
      <stop
         style="stop-color:#ffffff;stop-opacity:0;"
         offset="1"
         id="stop3835-9" />
    </linearGradient>
    <linearGradient
       y2="16"
       x2="10"
       y1="5"
       x1="10"
       gradientUnits="userSpaceOnUse"
       id="linearGradient3078-0"
       xlink:href="#linearGradient3823-1"
       inkscape:collect="always"
       gradientTransform="translate(1,-1)" />
    <linearGradient
       id="linearGradient3823-1">
      <stop
         id="stop3825-4"
         offset="0"
         style="stop-color:#ffffff;stop-opacity:1;" />
      <stop
         id="stop3829-4"
         offset="1"
         style="stop-color:#ffffff;stop-opacity:0;" />
    </linearGradient>
    <linearGradient
       inkscape:collect="always"
       xlink:href="#linearGradient3187-2"
       id="linearGradient3668-3"
       x1="10.871767"
       y1="24.123091"
       x2="10.871767"
       y2="6.1230297"
       gradientUnits="userSpaceOnUse"
       gradientTransform="translate(-0.7400389,-4.1230297)" />
    <linearGradient
       id="linearGradient3187-2">
      <stop
         style="stop-color:#c29656;stop-opacity:1;"
         offset="0"
         id="stop3189-5" />
      <stop
         style="stop-color:#ddbf8b;stop-opacity:1;"
         offset="1"
         id="stop3191-1" />
    </linearGradient>
    <linearGradient
       id="linearGradient3348-2">
      <stop
         style="stop-color:#ddbf8b;stop-opacity:1;"
         offset="0"
         id="stop3350-6" />
      <stop
         id="stop3356-0"
         offset="0.71691591"
         style="stop-color:#c29856;stop-opacity:1;" />
      <stop
         style="stop-color:#a2773a;stop-opacity:1;"
         offset="1"
         id="stop3352-6" />
    </linearGradient>
    <linearGradient
       gradientUnits="userSpaceOnUse"
       y2="20.137329"
       x2="11.794092"
       y1="3.2126782"
       x1="11.794092"
       gradientTransform="scale(1.0598527,0.9435274)"
       id="linearGradient3317-6">
      <stop
         id="stop3319-8"
         offset="0"
         style="stop-color:#c6953a;stop-opacity:1" />
      <stop
         id="stop3321-0"
         offset="1"
         style="stop-color:#ab7a1f;stop-opacity:1" />
    </linearGradient>
    <linearGradient
       y2="85.821426"
       x2="48.035713"
       y1="25.910715"
       x1="48.035713"
       gradientTransform="matrix(0.2195263,0,0,0.2195263,1.3370719,0.1776143)"
       gradientUnits="userSpaceOnUse"
       id="linearGradient3861"
       xlink:href="#linearGradient3317-6"
       inkscape:collect="always" />
    <linearGradient
       inkscape:collect="always"
       id="linearGradient3327">
      <stop
         style="stop-color:#000000;stop-opacity:1;"
         offset="0"
         id="stop3330" />
      <stop
         style="stop-color:#000000;stop-opacity:0;"
         offset="1"
         id="stop3333" />
    </linearGradient>
    <linearGradient
       y2="-11"
       x2="11.375"
       y1="20"
       x1="11.375"
       gradientTransform="translate(1,3)"
       gradientUnits="userSpaceOnUse"
       id="linearGradient3842"
       xlink:href="#linearGradient3327"
       inkscape:collect="always" />
    <linearGradient
       inkscape:collect="always"
       xlink:href="#linearGradient3348-2"
       id="linearGradient3943"
       gradientUnits="userSpaceOnUse"
       gradientTransform="translate(0,-2)"
       x1="8"
       y1="2"
       x2="8"
       y2="4" />
    <linearGradient
       inkscape:collect="always"
       xlink:href="#linearGradient3348-2"
       id="linearGradient3947"
       gradientUnits="userSpaceOnUse"
       gradientTransform="translate(0,-2)"
       x1="8"
       y1="2"
       x2="8"
       y2="4" />
    <linearGradient
       id="linearGradient6719">
      <stop
         id="stop6721"
         offset="0"
         style="stop-color:#73d216;stop-opacity:1;" />
      <stop
         id="stop6723"
         offset="1.0000000"
         style="stop-color:#d5f7b3;stop-opacity:1.0000000;" />
    </linearGradient>
    <linearGradient
       id="linearGradient6711">
      <stop
         id="stop6713"
         offset="0.0000000"
         style="stop-color:#5b8ccb;stop-opacity:1.0000000;" />
      <stop
         id="stop6715"
         offset="1.0000000"
         style="stop-color:#3465a4;stop-opacity:1.0000000;" />
    </linearGradient>
    <linearGradient
       id="linearGradient6699">
      <stop
         id="stop6701"
         offset="0.0000000"
         style="stop-color:#ff7171;stop-opacity:1.0000000;" />
      <stop
         id="stop6703"
         offset="1.0000000"
         style="stop-color:#cc0000;stop-opacity:1.0000000;" />
    </linearGradient>
    <linearGradient
       inkscape:collect="always"
       xlink:href="#linearGradient6687"
       id="linearGradient4160"
       gradientUnits="userSpaceOnUse"
       x1="-20.75"
       y1="29"
       x2="-19.5"
       y2="18.75" />
    <linearGradient
       id="linearGradient6687"
       inkscape:collect="always">
      <stop
         id="stop6689"
         offset="0"
         style="stop-color:#ffffff;stop-opacity:1;" />
      <stop
         id="stop6691"
         offset="1"
         style="stop-color:#ffffff;stop-opacity:0;" />
    </linearGradient>
    <linearGradient
       inkscape:collect="always"
       xlink:href="#linearGradient6719-4"
       id="linearGradient4158"
       gradientUnits="userSpaceOnUse"
       gradientTransform="matrix(1.9955406,0,0,1.9955406,95.19107,-61.892854)"
       x1="-17.863041"
       y1="30.827509"
       x2="-20.821646"
       y2="25.015009" />
    <linearGradient
       id="linearGradient6719-4">
      <stop
         id="stop6721-4"
         style="stop-color:#8cab2a;stop-opacity:1"
         offset="0" />
      <stop
         id="stop6723-4"
         style="stop-color:#d7e866;stop-opacity:1"
         offset="1" />
    </linearGradient>
    <linearGradient
       inkscape:collect="always"
       xlink:href="#linearGradient6711-3"
       id="linearGradient4156"
       gradientUnits="userSpaceOnUse"
       gradientTransform="matrix(1.9955406,0,0,1.9955406,95.19107,-61.892854)"
       x1="-19.536037"
       y1="21.99547"
       x2="-8.7596264"
       y2="30.070206" />
    <linearGradient
       id="linearGradient6711-3">
      <stop
         id="stop6713-9"
         style="stop-color:#8badea;stop-opacity:1"
         offset="0" />
      <stop
         id="stop6715-2"
         style="stop-color:#3b7caf;stop-opacity:1"
         offset="1" />
    </linearGradient>
    <linearGradient
       inkscape:collect="always"
       xlink:href="#linearGradient6699-3"
       id="linearGradient4154"
       gradientUnits="userSpaceOnUse"
       gradientTransform="matrix(1.9955406,0,0,1.9955406,95.19107,-61.892854)"
       x1="-26.43412"
       y1="14.381306"
       x2="-15.630386"
       y2="30.013348" />
    <linearGradient
       id="linearGradient6699-3">
      <stop
         id="stop6701-7"
         style="stop-color:#f7a164;stop-opacity:1;"
         offset="0" />
      <stop
         id="stop6295"
         style="stop-color:#e11c26;stop-opacity:1;"
         offset="1" />
    </linearGradient>
    <linearGradient
       inkscape:collect="always"
       xlink:href="#linearGradient6719-4-5"
       id="linearGradient3971-4"
       gradientUnits="userSpaceOnUse"
       gradientTransform="matrix(0.58203251,0,0,0.58203251,24.84739,-2.089485)"
       x1="-17.863041"
       y1="30.827509"
       x2="-20.821646"
       y2="25.015009" />
    <linearGradient
       id="linearGradient6719-4-5">
      <stop
         id="stop6721-4-9"
         style="stop-color:#8cab2a;stop-opacity:1"
         offset="0" />
      <stop
         id="stop6723-4-1"
         style="stop-color:#d7e866;stop-opacity:1"
         offset="1" />
    </linearGradient>
    <linearGradient
       inkscape:collect="always"
       xlink:href="#linearGradient6711-3-8"
       id="linearGradient3973-2"
       gradientUnits="userSpaceOnUse"
       gradientTransform="matrix(0.58203251,0,0,0.58203251,24.84739,-2.089485)"
       x1="-16.387411"
       y1="24.453547"
       x2="-9.7352734"
       y2="28.195539" />
    <linearGradient
       id="linearGradient6711-3-8">
      <stop
         id="stop6713-9-9"
         style="stop-color:#8badea;stop-opacity:1"
         offset="0" />
      <stop
         id="stop6715-2-6"
         style="stop-color:#3b7caf;stop-opacity:1"
         offset="1" />
    </linearGradient>
    <linearGradient
       inkscape:collect="always"
       xlink:href="#linearGradient6699-3-6"
       id="linearGradient3975-0"
       gradientUnits="userSpaceOnUse"
       gradientTransform="matrix(0.58203251,0,0,0.58203251,24.84739,-2.089485)"
       x1="-28.945789"
       y1="13.898682"
       x2="-16.918968"
       y2="29.361736" />
    <linearGradient
       id="linearGradient6699-3-6">
      <stop
         id="stop6701-7-4"
         style="stop-color:#f7a164;stop-opacity:1;"
         offset="0" />
      <stop
         id="stop6295-0"
         style="stop-color:#e11c26;stop-opacity:1;"
         offset="1" />
    </linearGradient>
  </defs>
  <sodipodi:namedview
     id="base"
     pagecolor="#7e7e7e"
     bordercolor="#dc0000"
     borderopacity="1"
     inkscape:pageopacity="1"
     inkscape:pageshadow="2"
     inkscape:zoom="4.7064119"
     inkscape:cx="-7.6222023"
     inkscape:cy="-9.7759141"
     inkscape:document-units="px"
     inkscape:current-layer="layer4"
     showgrid="true"
     inkscape:showpageshadow="false"
     showguides="true"
     inkscape:guide-bbox="true"
     inkscape:window-width="1920"
     inkscape:window-height="1030"
     inkscape:window-x="0"
     inkscape:window-y="25"
     inkscape:window-maximized="1"
     borderlayer="true">
    <sodipodi:guide
       orientation="1,0"
       position="0,112"
       id="guide2383" />
    <sodipodi:guide
       orientation="0,1"
       position="26.278146,128"
       id="guide2385" />
    <sodipodi:guide
       orientation="1,0"
       position="128,54.082119"
       id="guide2387" />
    <sodipodi:guide
       orientation="0,1"
       position="78.156291,0"
       id="guide2389" />
    <inkscape:grid
       type="xygrid"
       id="grid3672"
       visible="true"
       enabled="true"
       empspacing="8"
       snapvisiblegridlinesonly="true" />
  </sodipodi:namedview>
  <metadata
     id="metadata7">
    <rdf:RDF>
      <cc:Work
         rdf:about="">
        <dc:format>image/svg+xml</dc:format>
        <dc:type
           rdf:resource="http://purl.org/dc/dcmitype/StillImage" />
        <dc:title></dc:title>
      </cc:Work>
    </rdf:RDF>
  </metadata>
  <g
     inkscape:groupmode="layer"
     id="layer2"
     inkscape:label="Button"
     transform="translate(0,2)"
     sodipodi:insensitive="true">
    <path
       style="opacity:0.3;fill:url(#linearGradient3842);fill-opacity:1;stroke:none;display:inline"
       d="m 4.5,1.5 c -1.0969971,0 -2,0.9030029 -2,2 l 0,0.5 c -0.6114808,0.4549066 -1,1.175925 -1,2 l 0,14.5 C 1.5,21.885 2.615,23 4,23 l 16,0 c 1.385,0 2.5,-1.115 2.5,-2.5 L 22.5,6 C 22.5,5.134375 22.071045,4.3858887 21.40625,3.9375 21.160346,3.1111944 20.401594,2.5 19.5,2.5 l -7.375,0 C 11.775318,1.9321758 11.212848,1.5 10.5,1.5 l -6,0 z"
       transform="translate(0,-2)"
       id="rect3371"
       inkscape:connector-curvature="0" />
    <rect
       ry="2"
       rx="2"
       y="5"
       x="2"
       height="16"
       width="20"
       id="rect5478"
       style="opacity:0.4;fill:#000000;fill-opacity:1;fill-rule:nonzero;stroke:none" />
    <rect
       style="fill:url(#linearGradient3861);fill-opacity:1;fill-rule:nonzero;stroke:none;display:inline"
       id="rect3352"
       width="16.464474"
       height="13.759596"
       x="3.6499383"
       y="5.2580805"
       rx="1.3171579"
       ry="1.3171579" />
    <path
       inkscape:connector-curvature="0"
       style="color:#000000;fill:#c4995a;fill-opacity:1;fill-rule:nonzero;stroke:none;stroke-width:2;marker:none;visibility:visible;display:inline;overflow:visible;enable-background:accumulate"
       d="M 4.5,0 C 3.669,0 3,0.669 3,1.5 l 0,1 0,1 0,2 C 3,6.331 3.669,7 4.5,7 l 15,0 C 20.331,7 21,6.331 21,5.5 l 0,-3 C 21,1.669 20.331,1 19.5,1 L 11.90625,1 C 11.702994,0.4129833 11.157875,0 10.5,0 l -6,0 z"
       id="rect3043" />
    <path
       style="opacity:0.1;color:#000000;fill:#000000;fill-opacity:1;fill-rule:nonzero;stroke:none;stroke-width:2;marker:none;visibility:visible;display:inline;overflow:visible;enable-background:accumulate"
       d="M 4,1 C 3.648898,1 3.317465,1.0923738 3.03125,1.25 3.018314,1.3295389 3,1.4166943 3,1.5 l 0,1 0,1 0,2 C 3,6.331 3.669,7 4.5,7 l 15,0 C 20.331,7 21,6.331 21,5.5 l 0,-3 C 21,1.669 20.331,1 19.5,1 L 11.90625,1 4,1 z"
       id="path3050"
       inkscape:connector-curvature="0" />
    <rect
       style="fill:url(#linearGradient3668-3);fill-opacity:1;fill-rule:nonzero;stroke:none;display:inline"
       id="rect3660"
       width="20"
       height="17.999996"
       x="2"
       y="2"
       rx="2"
       ry="2" />
    <path
       style="opacity:0.2;fill:url(#linearGradient3078-0);fill-opacity:1;fill-rule:evenodd;stroke:none;display:inline"
       d="M 4,2 C 2.892,2 2,2.892 2,4 l 0,14 c 0,1.108 0.892,2 2,2 l 16,0 c 1.108,0 2,-0.892 2,-2 L 22,4 C 22,2.892 21.108,2 20,2 z m 0,1.03125 16,0 c 0.5497,0 0.96875,0.4190495 0.96875,0.96875 l 0,14 c 0,0.5497 -0.41905,0.96875 -0.96875,0.96875 l -16,0 C 3.4502995,18.96875 3.03125,18.5497 3.03125,18 l 0,-14 C 3.03125,3.4502995 3.4502995,3.03125 4,3.03125 z"
       id="rect3050"
       inkscape:connector-curvature="0"
       sodipodi:nodetypes="ssssssssssssssssss" />
    <path
       id="path3235"
       d="M 4,20 C 2.892,20 2,19.108 2,18 l 0,-1 c 0,1.108 0.892,2 2,2 l 16,0 c 1.108,0 2,-0.892 2,-2 l 0,1 c 0,1.108 -0.892,2 -2,2 z"
       style="opacity:0.2;fill:url(#linearGradient3845-9);fill-opacity:1;fill-rule:evenodd;stroke:none;display:inline"
       inkscape:connector-curvature="0"
       sodipodi:nodetypes="sscsscsss" />
    <rect
       style="color:#000000;fill:#bd8e48;fill-opacity:1;fill-rule:nonzero;stroke:none;stroke-width:2;marker:none;visibility:visible;display:inline;overflow:visible;enable-background:accumulate"
       id="rect3884"
       width="8"
       height="8"
       x="32"
       y="-2" />
  </g>
  <g
     inkscape:groupmode="layer"
     id="layer4"
     inkscape:label="Symbol"
     transform="translate(0,2)">
    <path
       sodipodi:type="inkscape:offset"
       inkscape:radius="0.48678875"
       inkscape:original="M 14 7.46875 C 12.065048 7.46875 10.286946 7.9547662 8.9375 8.78125 C 7.5880537 9.6077338 6.6307206 10.813596 6.46875 12.21875 C 6.4558416 12.330735 6.4375 12.482124 6.4375 12.65625 L 6.4375 13.84375 C 6.4375 15.159169 7.1549741 16.343129 8.25 17.21875 C 9.3382456 18.08895 10.831698 18.675704 12.5 18.90625 C 12.510394 18.907686 12.520841 18.904842 12.53125 18.90625 C 13.676814 19.112085 15.285654 19.109223 16.5 18.71875 C 16.509745 18.716408 16.521515 18.721107 16.53125 18.71875 C 16.834343 18.645368 17.139813 18.572929 17.4375 18.46875 C 17.667854 18.389087 17.888989 18.290582 18.125 18.1875 C 18.131164 18.184748 18.204935 18.158646 18.28125 18.125 C 18.289995 18.120966 18.303812 18.129068 18.3125 18.125 C 18.654117 17.96505 18.972123 17.773329 19.25 17.59375 C 19.426739 17.476937 19.619114 17.346285 19.8125 17.1875 C 19.94918 17.075237 20.071463 16.958106 20.1875 16.84375 C 20.264171 16.768738 20.362913 16.682655 20.46875 16.5625 C 20.54725 16.472606 20.593506 16.406551 20.59375 16.40625 C 20.751092 16.214807 20.859576 16.025343 20.96875 15.84375 C 21.025467 15.746029 21.118631 15.61618 21.1875 15.46875 C 21.191867 15.459401 21.183185 15.447068 21.1875 15.4375 C 21.237122 15.320258 21.255912 15.235268 21.25 15.25 A 0.55112532 0.55112532 0 0 0 21.25 15.21875 C 21.277316 15.148522 21.336876 15.06168 21.375 14.9375 C 21.455005 14.679057 21.542584 14.388648 21.5625 14.0625 A 0.55112532 0.55112532 0 0 0 21.5625 14.03125 L 21.5625 13.84375 L 21.5625 12.8125 L 21.5625 12.78125 C 21.563341 12.731756 21.5625 12.678784 21.5625 12.65625 C 21.5625 12.48145 21.52621 12.275709 21.5 12.09375 C 21.301145 10.712914 20.345709 9.5559811 19 8.75 C 17.654291 7.9440189 15.911082 7.46875 14 7.46875 z "
       style="opacity:0.05;fill:#000000;fill-opacity:1;fill-rule:nonzero;stroke:none;display:inline"
       id="path4058"
       d="m 14,6.96875 c -2.016466,0 -3.873123,0.5246872 -5.3125,1.40625 C 7.2456579,9.2580727 6.1833291,10.565804 6,12.15625 c -0.012617,0.109453 -0.0625,0.29169 -0.0625,0.5 l 0,1.1875 c 0,1.492426 0.8188165,2.805484 2,3.75 1.1745452,0.939208 2.759777,1.540765 4.5,1.78125 0.0092,0.0017 0.02198,-0.0016 0.03125,0 1.212766,0.213594 2.838413,0.228824 4.15625,-0.1875 0.0166,-0.0025 0.01119,0.0049 0.03125,0 0.3016,-0.07302 0.60822,-0.134765 0.9375,-0.25 0.256553,-0.08872 0.484771,-0.210306 0.71875,-0.3125 0.0093,-0.0035 0.01465,0.0064 0.03125,0 0.02655,-0.01023 0.05653,-0.04665 0.09375,-0.0625 0.0093,-0.004 0.02153,0.0043 0.03125,0 a 0.48683743,0.48683743 0 0 0 0.03125,0 c 0.0183,-0.0068 0.01081,0.0096 0.03125,0 C 18.903087,18.388401 19.212581,18.185746 19.5,18 a 0.48683743,0.48683743 0 0 0 0.03125,0 c 0.180475,-0.119282 0.379213,-0.261348 0.59375,-0.4375 0.15497,-0.127285 0.286797,-0.257277 0.40625,-0.375 0.0604,-0.0591 0.183625,-0.166191 0.3125,-0.3125 0.09389,-0.107523 0.124756,-0.155949 0.125,-0.15625 0.187684,-0.228361 0.300743,-0.449507 0.40625,-0.625 0.03452,-0.05948 0.156271,-0.205601 0.25,-0.40625 0.0161,-0.03446 -0.008,-0.03291 0,-0.0625 0.03267,-0.07719 0.07853,-0.1365 0.09375,-0.1875 0.0038,-0.01275 -0.0031,-0.01985 0,-0.03125 0.0031,-0.0114 -0.003,-0.01767 0,-0.03125 0.0016,-5.65e-4 0.01799,-0.06874 0.03125,-0.09375 0.02807,-0.05296 0.05577,-0.0638 0.09375,-0.1875 0.08079,-0.260984 0.194614,-0.604741 0.21875,-1 a 0.48683743,0.48683743 0 0 0 0,-0.03125 c 3.4e-5,-0.0012 3.4e-5,-0.03003 0,-0.03125 l 0,-0.1875 0,-1.03125 0,-0.03125 c 0.001,-0.0609 0,-0.114578 0,-0.125 0,-0.242174 -0.0692,-0.454549 -0.09375,-0.625 C 21.744006,10.470645 20.684739,9.2030536 19.25,8.34375 17.817684,7.4858974 15.991789,6.96875 14,6.96875 z" />
    <path
       sodipodi:type="inkscape:offset"
       inkscape:radius="0.55107021"
       inkscape:original="M 14 8.03125 C 10.315664 8.03125 7.3066264 9.8922598 7.03125 12.28125 C 7.0176885 12.398901 7 12.5363 7 12.65625 L 7 13.84375 C 7 16.079567 9.4040352 17.943628 12.59375 18.375 C 13.637636 18.567083 15.300429 18.539971 16.375 18.1875 C 16.678347 18.11461 16.967878 18.036232 17.25 17.9375 C 17.475517 17.85951 17.691458 17.781314 17.90625 17.6875 C 17.95922 17.66385 18.010573 17.64958 18.0625 17.625 C 18.375801 17.48049 18.658412 17.305361 18.9375 17.125 C 19.116037 17.006998 19.310255 16.880137 19.46875 16.75 C 19.587639 16.65235 19.704787 16.543653 19.8125 16.4375 C 19.89984 16.35205 19.983769 16.276882 20.0625 16.1875 C 20.09798 16.14687 20.12244 16.10426 20.15625 16.0625 C 20.28804 15.902147 20.397136 15.733598 20.5 15.5625 C 20.56429 15.451731 20.634534 15.336205 20.6875 15.21875 C 20.71649 15.15713 20.72484 15.093943 20.75 15.03125 C 20.7823 14.94821 20.81727 14.867503 20.84375 14.78125 C 20.91842 14.540042 20.984533 14.284544 21 14.03125 L 21 13.84375 L 21 12.78125 C 21.0017 12.73886 21 12.69902 21 12.65625 C 21 12.506468 20.9898 12.333634 20.96875 12.1875 C 20.630722 9.8402568 17.639562 8.03125 14 8.03125 z "
       style="opacity:0.15;fill:#000000;fill-opacity:1;fill-rule:nonzero;stroke:none;display:inline"
       id="path4054"
       d="m 14,7.46875 c -1.934952,0 -3.713054,0.4860162 -5.0625,1.3125 -1.3494463,0.8264838 -2.3067794,2.032346 -2.46875,3.4375 -0.012908,0.111985 -0.03125,0.263374 -0.03125,0.4375 l 0,1.1875 c 0,1.315419 0.7174741,2.499379 1.8125,3.375 1.0882456,0.8702 2.581698,1.456954 4.25,1.6875 0.01039,0.0014 0.02084,-0.0014 0.03125,0 1.145564,0.205835 2.754404,0.202973 3.96875,-0.1875 0.0097,-0.0023 0.02152,0.0024 0.03125,0 0.303093,-0.07338 0.608563,-0.145821 0.90625,-0.25 0.230354,-0.07966 0.451489,-0.178168 0.6875,-0.28125 0.0062,-0.0028 0.07993,-0.02885 0.15625,-0.0625 0.0087,-0.004 0.02256,0.0041 0.03125,0 0.341617,-0.15995 0.659623,-0.351671 0.9375,-0.53125 0.176739,-0.116813 0.369114,-0.247465 0.5625,-0.40625 0.13668,-0.112263 0.258963,-0.229394 0.375,-0.34375 0.07667,-0.07501 0.175413,-0.161095 0.28125,-0.28125 0.0785,-0.08989 0.124756,-0.155949 0.125,-0.15625 0.157342,-0.191443 0.265826,-0.380907 0.375,-0.5625 0.05672,-0.09772 0.149881,-0.22757 0.21875,-0.375 0.0044,-0.0093 -0.0043,-0.02168 0,-0.03125 0.04962,-0.117242 0.06841,-0.202232 0.0625,-0.1875 a 0.55112532,0.55112532 0 0 0 0,-0.03125 c 0.02732,-0.07023 0.08688,-0.15707 0.125,-0.28125 0.08,-0.258443 0.167584,-0.548852 0.1875,-0.875 a 0.55112532,0.55112532 0 0 0 0,-0.03125 l 0,-0.1875 0,-1.03125 0,-0.03125 c 8.41e-4,-0.04949 0,-0.102466 0,-0.125 0,-0.1748 -0.03629,-0.380541 -0.0625,-0.5625 C 21.301145,10.712914 20.345709,9.5559811 19,8.75 17.654291,7.9440189 15.911082,7.46875 14,7.46875 z" />
    <path
       style="opacity:0.3;fill:#000000;fill-opacity:1;fill-rule:nonzero;stroke:none;display:inline"
       d="m 14,8.0377581 c -3.684336,0 -6.6933736,1.8610097 -6.96875,4.2499999 C 7.0176885,12.405409 7,12.542808 7,12.662758 l 0,1.1875 c 0,2.235817 2.4040352,4.099878 5.59375,4.53125 1.043886,0.192083 2.706679,0.164971 3.78125,-0.1875 0.303347,-0.07289 0.592878,-0.151268 0.875,-0.25 0.225517,-0.07799 0.441458,-0.156186 0.65625,-0.25 0.05297,-0.02365 0.104323,-0.03792 0.15625,-0.0625 0.313301,-0.14451 0.595912,-0.319639 0.875,-0.5 0.178537,-0.118002 0.372755,-0.244863 0.53125,-0.375 0.118889,-0.09765 0.236037,-0.206347 0.34375,-0.3125 0.08734,-0.08545 0.171269,-0.160618 0.25,-0.25 0.03548,-0.04063 0.05994,-0.08324 0.09375,-0.125 0.13179,-0.160353 0.240886,-0.328902 0.34375,-0.5 0.06429,-0.110769 0.134534,-0.226295 0.1875,-0.34375 0.02899,-0.06162 0.03734,-0.124807 0.0625,-0.1875 0.0323,-0.08304 0.06727,-0.163747 0.09375,-0.25 0.07467,-0.241208 0.140783,-0.496706 0.15625,-0.75 l 0,-0.1875 0,-1.0625 c 0.0017,-0.04239 0,-0.08223 0,-0.125 0,-0.149782 -0.0102,-0.322616 -0.03125,-0.46875 C 20.630722,9.8467648 17.639562,8.0377581 14,8.0377581 z"
       id="path3956"
       inkscape:connector-curvature="0" />
    <path
       id="path3933"
       d="m 20.758946,12.143275 c -0.802382,-1.971079 -3.523077,-3.4223995 -6.758761,-3.4223995 -3.235685,0 -5.9563799,1.4513205 -6.7587608,3.4223995 l -0.2414242,0 0,1.204788 c 0,2.555219 3.134406,4.626401 7.000185,4.626401 3.866153,0 6.999811,-2.071182 6.999811,-4.626401 l 0,-1.204788 -0.24105,0 0,0 z"
       style="fill:#b82525;fill-opacity:1;fill-rule:nonzero;stroke:none;display:inline"
       inkscape:r_cx="true"
       inkscape:r_cy="true"
       inkscape:connector-curvature="0" />
    <path
       id="path3935"
       d="m 20.999996,12.143275 c 0,2.555611 -3.133658,4.626793 -6.999811,4.626793 C 10.134032,16.770068 7,14.698886 7,12.143275 7,9.5876638 10.134406,7.516481 14.000185,7.516481 c 3.866153,0 6.999811,2.0711828 6.999811,4.626794 l 0,0 z"
       style="fill:url(#linearGradient3975-0);fill-opacity:1;fill-rule:nonzero;stroke:none;display:inline"
       inkscape:r_cx="true"
       inkscape:r_cy="true"
       inkscape:connector-curvature="0" />
    <path
       id="path3937"
       d="m 20.999996,13.528251 -0.009,-1.260925 c -0.75903,2.619599 -2.465818,3.729386 -4.611729,4.272699 l 0,1.160819 c 2.322682,-0.584138 4.401324,-1.914156 4.620698,-4.172593 l 0,0 z"
       style="fill:#39619a;fill-opacity:1;fill-rule:nonzero;stroke:none;display:inline"
       inkscape:r_cx="true"
       inkscape:r_cy="true"
       inkscape:connector-curvature="0" />
    <path
       id="path3939"
       d="m 20.999996,12.143275 c -0.160326,2.956422 -3.816822,4.304497 -4.633778,4.355922 l -2.366407,-4.355922 6.999812,0 3.79e-4,0 z"
       style="fill:url(#linearGradient3973-2);fill-opacity:1;fill-rule:nonzero;stroke:none;display:inline"
       inkscape:r_cx="true"
       inkscape:r_cy="true"
       inkscape:connector-curvature="0" />
    <path
       id="path3941"
       d="m 12.534821,17.873182 0,-1.204396 c 1.31737,0.171552 2.525987,0.20178 3.831397,-0.124443 l 0.01308,1.156895 c -1.093883,0.358806 -2.805156,0.375686 -3.844478,0.172337 l 0,-3.79e-4 z"
       style="fill:#70851f;fill-opacity:1;fill-rule:nonzero;stroke:none;display:inline"
       inkscape:r_cx="true"
       inkscape:r_cy="true"
       inkscape:connector-curvature="0" />
    <path
       id="path3943"
       d="m 13.999811,12.143667 2.366407,4.35553 c -1.448919,0.552343 -3.831397,0.169589 -3.831397,0.169589 l 1.46499,-4.525119 z"
       style="fill:url(#linearGradient3971-4);fill-opacity:1;fill-rule:nonzero;stroke:none;display:inline"
       inkscape:r_cx="true"
       inkscape:r_cy="true"
       inkscape:connector-curvature="0" />
    <path
       style="opacity:0.3;fill:#ffffff;fill-opacity:1;fill-rule:nonzero;stroke:none;display:inline"
       d="m 20.96875,11.6875 c -0.08934,0.824498 -0.491313,1.568161 -1.15625,2.21875 -0.03668,0.03686 -0.08739,0.05807 -0.125,0.09375 -0.224559,0.207414 -0.477845,0.413862 -0.75,0.59375 -1.036284,0.713 -2.154022,1.06804 -2.5625,1.09375 -0.679209,0.25892 -1.564585,0.29754 -2.3125,0.28125 -0.02134,1.26e-4 -0.04112,0 -0.0625,0 -0.0296,-7.96e-4 -0.06464,9.99e-4 -0.09375,0 -0.363784,-0.0032 -0.714138,-0.02392 -1.0625,-0.0625 -0.105581,-0.01169 -0.208578,-0.04772 -0.3125,-0.0625 -2.9583183,-0.420673 -5.2274407,-2.030402 -5.5,-4.0625 C 7.0158455,11.906537 7,12.028328 7,12.15625 c 0,2.220057 2.3757105,4.051282 5.53125,4.5 0.103922,0.01478 0.206919,0.05081 0.3125,0.0625 0.348362,0.03858 0.698716,0.05927 1.0625,0.0625 0.02911,9.99e-4 0.06415,-7.96e-4 0.09375,0 0.02138,0 0.04116,1.26e-4 0.0625,0 0.747915,0.01629 1.633291,-0.02233 2.3125,-0.28125 0.408478,-0.02571 1.526216,-0.38075 2.5625,-1.09375 0.272155,-0.179888 0.525441,-0.386336 0.75,-0.59375 0.03761,-0.03568 0.08832,-0.05689 0.125,-0.09375 C 20.567217,13.980318 21,13.114604 21,12.15625 21,11.996524 20.9926,11.843041 20.96875,11.6875 z"
       id="path3940"
       inkscape:connector-curvature="0" />
  </g>
</svg>
