<?xml version="1.0" encoding="UTF-8" standalone="no"?>
<!-- Created with Inkscape (http://www.inkscape.org/) -->

<svg
   xmlns:dc="http://purl.org/dc/elements/1.1/"
   xmlns:cc="http://creativecommons.org/ns#"
   xmlns:rdf="http://www.w3.org/1999/02/22-rdf-syntax-ns#"
   xmlns:svg="http://www.w3.org/2000/svg"
   xmlns="http://www.w3.org/2000/svg"
   xmlns:xlink="http://www.w3.org/1999/xlink"
   xmlns:sodipodi="http://sodipodi.sourceforge.net/DTD/sodipodi-0.dtd"
   xmlns:inkscape="http://www.inkscape.org/namespaces/inkscape"
   width="22"
   height="22"
   id="svg2"
   sodipodi:version="0.32"
   inkscape:version="0.48.0 r9654"
   version="1.0"
   sodipodi:docname="bug-buddy.svg"
   inkscape:output_extension="org.inkscape.output.svg.inkscape"
   style="display:inline">
  <defs
     id="defs4">
    <filter
       inkscape:collect="always"
       id="filter4641"
       x="-0.026726695"
       width="1.0534534"
       y="-0.23524476"
       height="1.4704895">
      <feGaussianBlur
         inkscape:collect="always"
         stdDeviation="1.3140625"
         id="feGaussianBlur4643" />
    </filter>
    <linearGradient
       id="linearGradient4621">
      <stop
         id="stop4629"
         offset="0"
         style="stop-color:#595959;stop-opacity:1;" />
      <stop
         style="stop-color:#000000;stop-opacity:1;"
         offset="1"
         id="stop4625" />
    </linearGradient>
    <radialGradient
       inkscape:collect="always"
       xlink:href="#linearGradient4621"
       id="radialGradient4627"
       cx="-26.369297"
       cy="6.7088585"
       fx="-26.369297"
       fy="6.7088585"
       r="59"
       gradientTransform="matrix(0.8145874,0,1.164943e-7,0.4439113,23.229124,2.5310294)"
       gradientUnits="userSpaceOnUse" />
    <linearGradient
       inkscape:collect="always"
       xlink:href="#linearGradient4459"
       id="linearGradient4637"
       x1="64"
       y1="25.296875"
       x2="148.75374"
       y2="25.296875"
       gradientUnits="userSpaceOnUse"
       spreadMethod="reflect"
       gradientTransform="translate(-46.509726,-10.991942)" />
    <radialGradient
       inkscape:collect="always"
       xlink:href="#linearGradient4459"
       id="radialGradient3481"
       gradientUnits="userSpaceOnUse"
       cx="46.289753"
       cy="54.148411"
       fx="46.289753"
       fy="54.148411"
       r="13.780919" />
    <linearGradient
       inkscape:collect="always"
       id="linearGradient4593">
      <stop
         style="stop-color:#000000;stop-opacity:1;"
         offset="0"
         id="stop4595" />
      <stop
         style="stop-color:#000000;stop-opacity:0;"
         offset="1"
         id="stop4597" />
    </linearGradient>
    <linearGradient
       inkscape:collect="always"
       xlink:href="#linearGradient4593"
       id="linearGradient4599"
       x1="63.189781"
       y1="74.24736"
       x2="57.662792"
       y2="74.24736"
       gradientUnits="userSpaceOnUse"
       gradientTransform="matrix(0.2192618,0,0,0.1532545,-2.9607559,2.1678489)" />
    <linearGradient
       id="linearGradient4459">
      <stop
         style="stop-color:#ffffff;stop-opacity:1;"
         offset="0"
         id="stop4461" />
      <stop
         id="stop3483"
         offset="0.5"
         style="stop-color:#ffffff;stop-opacity:0.34146342;" />
      <stop
         style="stop-color:#ffffff;stop-opacity:0;"
         offset="1"
         id="stop4463" />
    </linearGradient>
    <filter
       inkscape:collect="always"
       id="filter4689">
      <feGaussianBlur
         inkscape:collect="always"
         stdDeviation="0.65275495"
         id="feGaussianBlur4691" />
    </filter>
    <linearGradient
       inkscape:collect="always"
       id="linearGradient3327">
      <stop
         style="stop-color:#000000;stop-opacity:1;"
         offset="0"
         id="stop3330" />
      <stop
         style="stop-color:#000000;stop-opacity:0;"
         offset="1"
         id="stop3333" />
    </linearGradient>
    <linearGradient
       inkscape:collect="always"
       xlink:href="#linearGradient3327"
       id="linearGradient3335"
       x1="11.375"
       y1="22"
       x2="11.375"
       y2="-9.817296"
       gradientUnits="userSpaceOnUse" />
    <inkscape:perspective
       sodipodi:type="inkscape:persp3d"
       inkscape:vp_x="0 : 11 : 1"
       inkscape:vp_y="0 : 1000 : 0"
       inkscape:vp_z="22 : 11 : 1"
       inkscape:persp3d-origin="11 : 7.3333333 : 1"
       id="perspective2531" />
    <linearGradient
       id="ButtonShadow"
       gradientTransform="scale(0.9883037,1.0118347)"
       x1="9.3550024"
       y1="21.742682"
       x2="9.3550024"
       y2="0.49362123"
       gradientUnits="userSpaceOnUse">
      <stop
         id="stop3277"
         offset="0"
         style="stop-color:#000000;stop-opacity:0.70588237;" />
      <stop
         id="stop3279"
         offset="1"
         style="stop-color:#000000;stop-opacity:0.15686275;" />
    </linearGradient>
    <linearGradient
       inkscape:collect="always"
       id="linearGradient3232">
      <stop
         style="stop-color:#000000;stop-opacity:1;"
         offset="0"
         id="stop3234" />
      <stop
         style="stop-color:#000000;stop-opacity:0;"
         offset="1"
         id="stop3236" />
    </linearGradient>
    <linearGradient
       gradientUnits="userSpaceOnUse"
       y2="-6.0004225"
       x2="11"
       y1="14.805666"
       x1="11"
       id="linearGradient3221"
       xlink:href="#linearGradient3232"
       inkscape:collect="always" />
    <linearGradient
       id="ButtonColor"
       x1="10.31979"
       y1="21"
       x2="10.31979"
       y2="0.99929649"
       gradientUnits="userSpaceOnUse">
      <stop
         style="stop-color:#ff0a0a;stop-opacity:1;"
         offset="0"
         id="stop3189" />
      <stop
         id="stop4177"
         offset="0.5"
         style="stop-color:#c70404;stop-opacity:1;" />
      <stop
         style="stop-color:#7c0000;stop-opacity:1;"
         offset="1"
         id="stop3191" />
    </linearGradient>
    <linearGradient
       inkscape:collect="always"
       xlink:href="#ButtonShadow"
       id="linearGradient38042"
       gradientUnits="userSpaceOnUse"
       gradientTransform="scale(0.9883037,1.0118347)"
       x1="9.3550024"
       y1="21.742682"
       x2="9.3550024"
       y2="0.49362123" />
    <radialGradient
       inkscape:collect="always"
       xlink:href="#ButtonColor"
       id="radialGradient4179"
       cx="11"
       cy="10.351492"
       fx="11"
       fy="10.351492"
       r="10"
       gradientUnits="userSpaceOnUse"
       gradientTransform="matrix(1.5830389,0,0,1.5830389,-6.4134275,-6.2702059)" />
    <radialGradient
       inkscape:collect="always"
       xlink:href="#linearGradient4459"
       id="radialGradient4233"
       gradientUnits="userSpaceOnUse"
       cx="46.289753"
       cy="54.148411"
       fx="46.289753"
       fy="54.148411"
       r="13.780919" />
    <radialGradient
       inkscape:collect="always"
       xlink:href="#linearGradient4621"
       id="radialGradient4279"
       gradientUnits="userSpaceOnUse"
       gradientTransform="matrix(0.8145874,0,1.164943e-7,0.4439113,23.229124,2.5310294)"
       cx="-26.369297"
       cy="6.7088585"
       fx="-26.369297"
       fy="6.7088585"
       r="59" />
    <linearGradient
       inkscape:collect="always"
       xlink:href="#linearGradient4459"
       id="linearGradient4281"
       gradientUnits="userSpaceOnUse"
       gradientTransform="translate(-46.509726,-10.991942)"
       spreadMethod="reflect"
       x1="64"
       y1="25.296875"
       x2="148.75374"
       y2="25.296875" />
    <radialGradient
       inkscape:collect="always"
       xlink:href="#linearGradient4459"
       id="radialGradient4283"
       gradientUnits="userSpaceOnUse"
       cx="46.289753"
       cy="54.148411"
       fx="46.289753"
       fy="54.148411"
       r="13.780919" />
    <linearGradient
       inkscape:collect="always"
       xlink:href="#linearGradient4459"
       id="linearGradient4290"
       gradientUnits="userSpaceOnUse"
       gradientTransform="matrix(0.1694915,0,0,0.1769955,0.1525425,0.1150223)"
       spreadMethod="reflect"
       x1="64"
       y1="25.296875"
       x2="148.75374"
       y2="25.296875" />
    <radialGradient
       inkscape:collect="always"
       xlink:href="#linearGradient4621"
       id="radialGradient4293"
       gradientUnits="userSpaceOnUse"
       gradientTransform="matrix(0.1380656,0,1.9744794e-8,7.8570302e-2,11.972685,2.5085274)"
       cx="-26.369297"
       cy="6.7088585"
       fx="-26.369297"
       fy="6.7088585"
       r="59" />
    <linearGradient
       y2="16"
       x2="10"
       y1="1"
       x1="10"
       gradientUnits="userSpaceOnUse"
       id="linearGradient3078"
       xlink:href="#linearGradient3823"
       inkscape:collect="always"
       gradientTransform="translate(1,-1)" />
    <linearGradient
       id="linearGradient3823">
      <stop
         id="stop3825"
         offset="0"
         style="stop-color:#ffffff;stop-opacity:1;" />
      <stop
         id="stop3829"
         offset="1"
         style="stop-color:#ffffff;stop-opacity:0;" />
    </linearGradient>
    <linearGradient
       inkscape:collect="always"
       xlink:href="#linearGradient3831"
       id="linearGradient3845"
       x1="11"
       y1="19.5"
       x2="21"
       y2="19.5"
       gradientUnits="userSpaceOnUse"
       spreadMethod="reflect" />
    <linearGradient
       id="linearGradient3831">
      <stop
         style="stop-color:#ffffff;stop-opacity:1;"
         offset="0"
         id="stop3833" />
      <stop
         id="stop3821"
         offset="0.75"
         style="stop-color:#ffffff;stop-opacity:0.49803922;" />
      <stop
         style="stop-color:#ffffff;stop-opacity:0;"
         offset="1"
         id="stop3835" />
    </linearGradient>
    <linearGradient
       y2="16"
       x2="10"
       y1="1"
       x1="10"
       gradientUnits="userSpaceOnUse"
       id="linearGradient3869"
       xlink:href="#linearGradient3823"
       inkscape:collect="always" />
  </defs>
  <sodipodi:namedview
     id="base"
     pagecolor="#ffffff"
     bordercolor="#e7e7e7"
     borderopacity="1"
     inkscape:pageopacity="0.0"
     inkscape:pageshadow="2"
     inkscape:zoom="24.484741"
     inkscape:cx="6.8017663"
     inkscape:cy="14.259759"
     inkscape:document-units="px"
     inkscape:current-layer="layer2"
     showgrid="true"
     inkscape:showpageshadow="false"
     showguides="false"
     inkscape:guide-bbox="true"
     inkscape:window-width="1920"
     inkscape:window-height="1026"
     inkscape:window-x="0"
     inkscape:window-y="25"
     inkscape:window-maximized="1">
    <sodipodi:guide
       orientation="1,0"
       position="0,112"
       id="guide2383" />
    <sodipodi:guide
       orientation="0,1"
       position="26.278146,128"
       id="guide2385" />
    <sodipodi:guide
       orientation="1,0"
       position="128,54.082119"
       id="guide2387" />
    <sodipodi:guide
       orientation="0,1"
       position="78.156291,0"
       id="guide2389" />
    <sodipodi:guide
       orientation="0,1"
       position="60.863576,64.084768"
       id="guide2391" />
    <inkscape:grid
       type="xygrid"
       id="grid3672"
       visible="true"
       enabled="true" />
  </sodipodi:namedview>
  <metadata
     id="metadata7">
    <rdf:RDF>
      <cc:Work
         rdf:about="">
        <dc:format>image/svg+xml</dc:format>
        <dc:type
           rdf:resource="http://purl.org/dc/dcmitype/StillImage" />
      </cc:Work>
    </rdf:RDF>
  </metadata>
  <g
     inkscape:label="Button"
     inkscape:groupmode="layer"
     id="layer1"
     sodipodi:insensitive="true">
    <g
       style="display:inline"
       id="g3337">
      <rect
         ry="2.5"
         rx="2.5"
         y="0.5"
         x="0.5"
         height="21.5"
         width="21"
         id="rect3371"
         style="opacity:0.3;fill:url(#linearGradient3335);fill-opacity:1;stroke:none;stroke-width:1.00000012;stroke-linecap:round;stroke-linejoin:miter;stroke-miterlimit:4;stroke-dasharray:none;stroke-opacity:1;display:inline" />
      <rect
         style="opacity:0.5;fill:#000000;fill-opacity:1;stroke:none;stroke-width:1.00000012;stroke-linecap:round;stroke-linejoin:miter;stroke-miterlimit:4;stroke-dasharray:none;stroke-opacity:1;display:inline"
         id="rect2553"
         width="20"
         height="20"
         x="1"
         y="2"
         rx="2.3809524"
         ry="2.3255813" />
    </g>
    <rect
       style="opacity:1;fill:url(#radialGradient4179);fill-opacity:1;fill-rule:evenodd;stroke:none;stroke-width:0.25;stroke-linecap:round;stroke-linejoin:miter;stroke-miterlimit:4;stroke-dasharray:none;stroke-dashoffset:0;stroke-opacity:1;display:inline"
       id="rect3173"
       width="20"
       height="20"
       x="1"
       y="1"
       rx="2"
       ry="2" />
    <path
       sodipodi:type="arc"
       style="opacity:0.8;fill:#ffd903;fill-opacity:1;fill-rule:nonzero;stroke:none;stroke-width:0.5;stroke-linecap:round;stroke-linejoin:round;stroke-miterlimit:4;stroke-dasharray:none;stroke-dashoffset:0;stroke-opacity:1;display:inline;filter:url(#filter4689)"
       id="path4669"
       sodipodi:cx="63.964428"
       sodipodi:cy="33.898411"
       sodipodi:rx="25.485828"
       sodipodi:ry="9.8984127"
       d="M 89.450256,33.898411 A 25.485828,9.8984127 0 1 1 38.4786,33.898411 A 25.485828,9.8984127 0 1 1 89.450256,33.898411 z"
       transform="matrix(0.1640029,0,0,0.2502723,0.5265296,-2.8659349)" />
    <path
       style="fill:#000000;fill-opacity:0.75;fill-rule:evenodd;stroke:none;stroke-width:1px;stroke-linecap:butt;stroke-linejoin:miter;stroke-opacity:1;display:inline"
       d="M 8.9966526,5.0512297 C 9.4885156,5.0569625 9.6499837,5.6535853 9.4673315,6.0359191 C 9.3553734,6.5667388 8.8462068,6.8572992 8.6474387,7.336427 C 8.3910632,7.9819561 8.6114761,8.6904638 8.9331028,9.2692491 C 9.1928548,9.8128991 9.5136716,10.458966 10.148663,10.621512 C 10.522381,10.74019 10.831311,10.397482 11.198006,10.477754 C 11.661602,10.556204 12.126577,10.96609 12.602055,10.705647 C 12.920068,10.473076 13.108739,10.106822 13.315926,9.7800792 C 13.780321,8.9756873 13.624152,7.9335917 13.097822,7.1976973 C 12.890224,6.859363 12.569331,6.5942747 12.396132,6.2380294 C 12.268792,5.7395241 12.559864,5.2154321 12.350046,4.7284596 C 12.053957,4.3624415 11.520536,4.5140189 11.129787,4.6084496 C 10.574177,4.7815847 9.9859488,5.1030744 9.3949994,4.8931392 C 9.246829,4.8751622 9.0910553,4.9352449 8.9966526,5.0512297 z"
       id="path4655" />
    <path
       style="fill:#000000;fill-opacity:0.70588235;fill-rule:evenodd;stroke:none;stroke-width:1px;stroke-linecap:butt;stroke-linejoin:miter;stroke-opacity:1;display:inline"
       d="M 3.8665356,9.1504316 C 3.8665356,9.2323574 3.8665356,9.2323574 3.8665356,9.1504316 C 3.8665356,8.0501014 1.788698,10.563641 2.0176155,11.362432 C 2.2977224,12.339842 2.1101077,12.591323 3.1885981,12.591323 C 3.8345357,12.591323 4.1882885,12.061207 4.4828426,11.669655 C 4.9140642,11.096429 5.0375183,10.80472 5.0375183,10.194987 C 5.0375183,10.000818 4.6317247,9.486069 4.4828426,9.3495115 C 4.2639439,9.1487333 4.3321018,9.2432633 3.8665356,9.1504316 z"
       id="path2678" />
    <path
       style="fill:#000000;fill-opacity:0.70588235;fill-rule:evenodd;stroke:none;stroke-width:1px;stroke-linecap:butt;stroke-linejoin:miter;stroke-opacity:1;display:inline"
       d="M 18.04079,9.2572155 C 17.481843,8.873321 16.424679,8.7587879 16.507441,9.5388119 C 16.613543,10.538799 16.944863,10.8394 17.313447,11.32701 C 17.445121,11.501208 18.12615,12.121157 18.370141,12.219606 C 18.953187,12.454863 19.273522,12.061091 19.563027,11.704174 C 19.988225,11.179967 19.084064,9.8432925 18.76459,9.4206511 C 18.49707,9.0667397 18.535927,9.0872365 18.266758,8.9786286 C 18.15572,8.9338247 18.116114,9.164353 18.04079,9.2572155 z"
       id="path2684" />
    <path
       style="fill:#000000;fill-opacity:0.70588235;fill-rule:evenodd;stroke:none;stroke-width:1px;stroke-linecap:butt;stroke-linejoin:miter;stroke-opacity:1;display:inline"
       d="M 8.2190865,13.081502 C 8.0758711,12.968023 7.5553649,12.868352 7.3054234,12.849509 C 7.1545572,12.838136 6.5813313,13.342932 6.4225744,13.500644 C 6.137719,13.783625 5.8415419,14.170021 5.5767434,14.529726 C 5.3983197,14.772099 5.2799586,15.078747 5.1342508,15.50766 C 4.9645519,16.007194 5.0531531,16.2333 4.9119354,16.648995 C 4.7706318,17.064945 4.985595,17.24126 5.2010144,17.421102 C 5.3140508,17.515467 5.8183329,17.530795 6.0179623,17.61318 C 6.206076,17.690812 6.4525451,17.865062 6.6733611,17.956191 C 6.8663605,18.03584 7.0093261,18.027285 7.3488377,17.727215 C 7.6567222,17.455097 7.8320594,17.807267 8.3896331,17.286333 C 8.6423748,17.050199 8.953224,16.276538 9.0585076,15.966619 C 9.2493924,15.40472 9.1482193,14.935521 9.1141376,14.829031 C 9.0018395,14.478146 8.9611246,13.957507 8.8312632,13.551744 C 8.6886778,13.106227 8.5846315,13.352782 8.2190865,13.081502 z"
       id="path3456" />
    <path
       style="fill:#000000;fill-opacity:0.70588235;fill-rule:evenodd;stroke:none;stroke-width:1px;stroke-linecap:butt;stroke-linejoin:miter;stroke-opacity:1;display:inline"
       d="M 13.763374,13.306399 C 13.894876,12.894056 14.59391,13.057269 15.02459,13.249818 C 15.501594,13.463079 15.548772,13.555209 15.896839,14.014419 C 16.380295,14.652247 16.534377,14.634288 16.673879,15.297023 C 16.814023,15.962821 16.41499,16.253178 16.279857,16.676909 C 16.208857,16.899547 15.874079,17.178768 15.747627,17.335161 C 15.597863,17.520388 15.285761,17.603454 15.057892,17.76542 C 14.716439,18.00812 14.250286,17.552728 14.02296,17.401205 C 13.631436,17.140238 13.548034,16.575729 13.493705,16.317623 C 13.411784,15.928436 13.099434,15.679223 12.886604,15.189388 C 12.746913,14.867887 12.514254,14.135834 12.484674,13.995309 C 12.425572,13.714531 12.767107,13.552048 12.914317,13.369977 C 13.019277,13.240166 13.227317,13.130258 13.52802,13.033753 C 13.716097,12.973396 13.612906,12.960089 13.763374,13.306399 z"
       id="path3458" />
    <path
       style="fill:#000000;fill-opacity:0.70588235;fill-rule:evenodd;stroke:none;stroke-width:1px;stroke-linecap:butt;stroke-linejoin:miter;stroke-opacity:1;display:inline"
       d="M 4.2372632,19.011157 C 3.9688804,19.000994 3.6461407,19.04376 3.3760904,19.04376 C 2.9723205,19.04376 2.0788806,19.82189 2.0788806,20.21207 C 2.0788806,20.385819 2.1037436,20.671603 2.1333853,20.983698 C 2.1979602,20.991558 2.2628288,21 2.3296018,21 L 5.6816362,21 C 5.6957556,20.835153 5.6716711,20.670393 5.5944285,20.516375 C 5.4142266,20.157058 5.1740586,19.78516 5.0384816,19.717576 C 5.0183177,19.707523 4.7728861,19.116129 4.482534,19.04376 C 4.4100573,19.025695 4.3267245,19.014544 4.2372632,19.011157 z"
       id="path3460" />
    <path
       style="fill:#000000;fill-opacity:0.70588235;fill-rule:evenodd;stroke:none;stroke-width:1px;stroke-linecap:butt;stroke-linejoin:miter;stroke-opacity:1;display:inline"
       d="M 18.146843,18.728589 C 18.043851,18.729876 17.943068,18.750749 17.857968,18.799231 C 17.419842,19.048831 16.500804,20.058708 16.500803,20.271844 C 16.500803,20.430831 16.528977,20.701849 16.57711,21 L 19.716576,21 C 19.8138,21 19.90766,20.989268 20,20.97283 C 19.987799,20.780722 19.939623,20.590763 19.890991,20.396826 C 19.806539,20.060043 19.594451,19.694105 19.394999,19.28829 C 19.212062,18.916077 19.041624,18.910853 18.59378,18.799231 C 18.49036,18.773454 18.318496,18.726443 18.146843,18.728589 z"
       id="path3462" />
    <path
       sodipodi:type="arc"
       style="opacity:0.7;fill:url(#radialGradient4233);fill-opacity:1;fill-rule:nonzero;stroke:none;stroke-width:0.5;stroke-linecap:round;stroke-linejoin:round;stroke-miterlimit:4;stroke-dasharray:none;stroke-dashoffset:0;stroke-opacity:1;display:inline"
       id="path4457"
       sodipodi:cx="46.289753"
       sodipodi:cy="54.148411"
       sodipodi:rx="13.780919"
       sodipodi:ry="13.780919"
       d="M 60.070672,54.148411 A 13.780919,13.780919 0 1 1 32.508834,54.148411 A 13.780919,13.780919 0 1 1 60.070672,54.148411 z"
       transform="matrix(0.30858,0,0,0.3076478,-7.9523302,-7.6925399)" />
    <path
       style="opacity:0.4;fill:none;fill-opacity:0.75;fill-rule:evenodd;stroke:#ffffff;stroke-width:0.49999997;stroke-linecap:butt;stroke-linejoin:miter;stroke-miterlimit:4;stroke-dasharray:none;stroke-opacity:1;display:inline"
       d="M 10.665802,4.346988 C 12.277704,9.9507732 10.079959,15.390519 11.298819,21"
       sodipodi:nodetypes="cc"
       id="path3200" />
    <path
       style="opacity:0.4;fill:url(#linearGradient4599);fill-opacity:1;fill-rule:nonzero;stroke:none;stroke-width:0.5;stroke-linecap:round;stroke-linejoin:round;stroke-miterlimit:4;stroke-dasharray:none;stroke-dashoffset:0;stroke-opacity:1;display:inline"
       d="M 9.3658671,4.6199203 L 9.3658671,21.018156 L 11.113111,21.018156 C 9.9334055,15.474154 12.02772,10.112587 10.564958,4.6199203 L 9.3658671,4.6199203 z"
       id="path4591" />
  </g>
  <g
     inkscape:groupmode="layer"
     id="layer3"
     inkscape:label="Head"
     sodipodi:insensitive="true">
    <path
       id="path4639"
       d="M 5,18.59375 L 5,21.71875 C 18.021624,27.920013 39.584607,32 64,32 C 88.415393,32 109.97838,27.920012 123,21.71875 L 123,18.59375 C 109.97831,24.27838 88.415017,28 64,28 C 39.584983,28 18.021687,24.27838 5,18.59375 z"
       style="opacity:0.8;fill:#000000;fill-opacity:1;fill-rule:nonzero;stroke:none;stroke-width:0.5;stroke-linecap:round;stroke-linejoin:round;stroke-miterlimit:4;stroke-dasharray:none;stroke-dashoffset:0;stroke-opacity:1;display:inline;filter:url(#filter4641)"
       transform="matrix(0.1659026,0,0,0.1934894,0.3822336,-0.1916611)" />
    <path
       style="fill:url(#radialGradient4293);fill-opacity:1;fill-rule:nonzero;stroke:none;stroke-width:0.5;stroke-linecap:round;stroke-linejoin:round;stroke-miterlimit:4;stroke-dasharray:none;stroke-dashoffset:0;stroke-opacity:1;display:inline"
       d="M 3,1 C 1.892,1 1,1.892 1,3 L 1,3.96875 C 3.2070546,5.0663456 6.8617988,5.78125 11,5.78125 C 15.138202,5.7812501 18.792946,5.0663455 21,3.96875 L 21,3 C 21,1.892 20.108,1 19,1 L 3,1 z"
       id="path4612" />
    <path
       style="opacity:0.2;fill:url(#linearGradient4290);fill-opacity:1;fill-rule:nonzero;stroke:none;stroke-width:0.5;stroke-linecap:round;stroke-linejoin:round;stroke-miterlimit:4;stroke-dasharray:none;stroke-dashoffset:0;stroke-opacity:1;display:inline"
       d="M 0.99999998,3.4060325 L 0.99999998,3.9591433 C 3.2070546,5.056739 6.8617968,5.7788783 10.999998,5.7788783 C 15.1382,5.7788783 18.792943,5.0567388 20.999997,3.9591433 L 20.999997,3.4060325 C 18.792931,4.4121863 15.138136,5.0708963 10.999998,5.0708963 C 6.8618606,5.0708963 3.2070652,4.4121863 0.99999998,3.4060325 z"
       id="path4617" />
    <path
       transform="matrix(0.1129943,0,0,0.117997,2.9474553,-3.2322567)"
       d="M 60.070672,54.148411 A 13.780919,13.780919 0 1 1 32.508834,54.148411 A 13.780919,13.780919 0 1 1 60.070672,54.148411 z"
       sodipodi:ry="13.780919"
       sodipodi:rx="13.780919"
       sodipodi:cy="54.148411"
       sodipodi:cx="46.289753"
       id="path3477"
       style="opacity:0.7;fill:url(#radialGradient4283);fill-opacity:1;fill-rule:nonzero;stroke:none;stroke-width:0.5;stroke-linecap:round;stroke-linejoin:round;stroke-miterlimit:4;stroke-dasharray:none;stroke-dashoffset:0;stroke-opacity:1;display:inline"
       sodipodi:type="arc" />
  </g>
  <g
     inkscape:groupmode="layer"
     id="layer2"
     inkscape:label="Highlight &amp; shadow">
    <path
       style="opacity:0.25;fill:url(#linearGradient3869);fill-opacity:1;fill-rule:evenodd;stroke:none;display:inline"
       d="M 3,1 C 1.892,1 1,1.892 1,3 l 0,16 c 0,1.108 0.892,2 2,2 l 16,0 c 1.108,0 2,-0.892 2,-2 L 21,3 C 21,1.892 20.108,1 19,1 L 3,1 z m 0,1.03125 16,0 c 0.5497,0 0.96875,0.4190495 0.96875,0.96875 l 0,16 c 0,0.5497 -0.41905,0.96875 -0.96875,0.96875 l -16,0 C 2.4502995,19.96875 2.03125,19.5497 2.03125,19 l 0,-16 C 2.03125,2.4502995 2.4502995,2.03125 3,2.03125 z"
       id="rect3050"
       inkscape:connector-curvature="0" />
    <path
       id="path3235"
       d="M 3,21 C 1.892,21 1,20.108 1,19 l 0,-1 c 0,1.108 0.892,2 2,2 l 16,0 c 1.108,0 2,-0.892 2,-2 l 0,1 c 0,1.108 -0.892,2 -2,2 L 3,21 z"
       style="opacity:0.2;fill:url(#linearGradient3845);fill-opacity:1;fill-rule:evenodd;stroke:none;display:inline"
       inkscape:connector-curvature="0" />
  </g>
</svg>
