<?xml version="1.0" encoding="UTF-8" standalone="no"?>
<!-- Created with Inkscape (http://www.inkscape.org/) -->

<svg
   xmlns:dc="http://purl.org/dc/elements/1.1/"
   xmlns:cc="http://creativecommons.org/ns#"
   xmlns:rdf="http://www.w3.org/1999/02/22-rdf-syntax-ns#"
   xmlns:svg="http://www.w3.org/2000/svg"
   xmlns="http://www.w3.org/2000/svg"
   xmlns:xlink="http://www.w3.org/1999/xlink"
   xmlns:sodipodi="http://sodipodi.sourceforge.net/DTD/sodipodi-0.dtd"
   xmlns:inkscape="http://www.inkscape.org/namespaces/inkscape"
   width="24"
   height="24"
   id="svg2"
   sodipodi:version="0.32"
   inkscape:version="0.48.0 r9654"
   version="1.0"
   sodipodi:docname="caffeine.svg"
   inkscape:output_extension="org.inkscape.output.svg.inkscape"
   style="display:inline">
  <defs
     id="defs4">
    <linearGradient
       inkscape:collect="always"
       id="linearGradient3327">
      <stop
         style="stop-color:#000000;stop-opacity:1;"
         offset="0"
         id="stop3330" />
      <stop
         style="stop-color:#000000;stop-opacity:0;"
         offset="1"
         id="stop3333" />
    </linearGradient>
    <linearGradient
       inkscape:collect="always"
       xlink:href="#linearGradient3327"
       id="linearGradient3335"
       x1="11.375"
       y1="22"
       x2="11.375"
       y2="-9.817296"
       gradientUnits="userSpaceOnUse" />
    <linearGradient
       inkscape:collect="always"
       xlink:href="#linearGradient3700"
       id="linearGradient3181"
       x1="-3.0607977"
       y1="27.258198"
       x2="-3.0607977"
       y2="7.2536583"
       gradientUnits="userSpaceOnUse"
       gradientTransform="translate(12.119372,-7.2581977)" />
    <inkscape:perspective
       sodipodi:type="inkscape:persp3d"
       inkscape:vp_x="0 : 11 : 1"
       inkscape:vp_y="0 : 1000 : 0"
       inkscape:vp_z="22 : 11 : 1"
       inkscape:persp3d-origin="11 : 7.3333333 : 1"
       id="perspective2531" />
    <linearGradient
       id="ButtonShadow"
       gradientTransform="scale(0.9883037,1.0118347)"
       x1="9.3550024"
       y1="21.742682"
       x2="9.3550024"
       y2="0.49362123"
       gradientUnits="userSpaceOnUse">
      <stop
         id="stop3277"
         offset="0"
         style="stop-color:#000000;stop-opacity:0.70588237;" />
      <stop
         id="stop3279"
         offset="1"
         style="stop-color:#000000;stop-opacity:0.15686275;" />
    </linearGradient>
    <linearGradient
       inkscape:collect="always"
       id="linearGradient3232">
      <stop
         style="stop-color:#000000;stop-opacity:1;"
         offset="0"
         id="stop3234" />
      <stop
         style="stop-color:#000000;stop-opacity:0;"
         offset="1"
         id="stop3236" />
    </linearGradient>
    <linearGradient
       gradientUnits="userSpaceOnUse"
       y2="-6.0004225"
       x2="11"
       y1="14.805666"
       x1="11"
       id="linearGradient3221"
       xlink:href="#linearGradient3232"
       inkscape:collect="always" />
    <linearGradient
       id="ButtonColor"
       x1="10.31979"
       y1="21"
       x2="10.31979"
       y2="0.99929649"
       gradientUnits="userSpaceOnUse">
      <stop
         style="stop-color:#29669f;stop-opacity:1;"
         offset="0"
         id="stop3189" />
      <stop
         style="stop-color:#88b6e0;stop-opacity:1;"
         offset="1"
         id="stop3191" />
    </linearGradient>
    <linearGradient
       inkscape:collect="always"
       xlink:href="#ButtonShadow"
       id="linearGradient38042"
       gradientUnits="userSpaceOnUse"
       gradientTransform="scale(0.9883037,1.0118347)"
       x1="9.3550024"
       y1="21.742682"
       x2="9.3550024"
       y2="0.49362123" />
    <filter
       inkscape:collect="always"
       id="filter3194"
       x="-0.18000001"
       width="1.36"
       y="-0.18000001"
       height="1.36"
       color-interpolation-filters="sRGB">
      <feGaussianBlur
         inkscape:collect="always"
         stdDeviation="1.2"
         id="feGaussianBlur3196" />
    </filter>
    <clipPath
       clipPathUnits="userSpaceOnUse"
       id="clipPath2849">
      <rect
         ry="2"
         rx="2"
         y="1"
         x="1"
         height="20"
         width="20"
         id="rect2851"
         style="fill:#ffffff;fill-opacity:1;fill-rule:evenodd;stroke:none;display:inline" />
    </clipPath>
    <inkscape:perspective
       id="perspective3789"
       inkscape:persp3d-origin="0.5 : 0.33333333 : 1"
       inkscape:vp_z="1 : 0.5 : 1"
       inkscape:vp_y="0 : 1000 : 0"
       inkscape:vp_x="0 : 0.5 : 1"
       sodipodi:type="inkscape:persp3d" />
    <linearGradient
       inkscape:collect="always"
       xlink:href="#linearGradient3700"
       id="linearGradient3617"
       gradientUnits="userSpaceOnUse"
       x1="48"
       y1="90"
       x2="48"
       y2="5.9877172" />
    <linearGradient
       id="linearGradient3700">
      <stop
         style="stop-color:#553025;stop-opacity:1"
         offset="0"
         id="stop3702" />
      <stop
         style="stop-color:#a55033;stop-opacity:1"
         offset="1"
         id="stop3704" />
    </linearGradient>
    <linearGradient
       gradientTransform="translate(-65,-72)"
       y2="5.9877172"
       x2="48"
       y1="90"
       x1="48"
       gradientUnits="userSpaceOnUse"
       id="linearGradient3798"
       xlink:href="#linearGradient3700"
       inkscape:collect="always" />
    <inkscape:perspective
       id="perspective3808"
       inkscape:persp3d-origin="0.5 : 0.33333333 : 1"
       inkscape:vp_z="1 : 0.5 : 1"
       inkscape:vp_y="0 : 1000 : 0"
       inkscape:vp_x="0 : 0.5 : 1"
       sodipodi:type="inkscape:persp3d" />
    <radialGradient
       r="56.542881"
       fy="7.457119"
       fx="108.53934"
       cy="7.457119"
       cx="108.53934"
       gradientTransform="matrix(-1.3703659,1.180354e-8,-1.2492802e-8,-1.4503877,228.44457,16.815712)"
       gradientUnits="userSpaceOnUse"
       id="radialGradient2935"
       xlink:href="#linearGradient3775"
       inkscape:collect="always" />
    <linearGradient
       id="linearGradient3775">
      <stop
         id="stop3777"
         offset="0"
         style="stop-color:#dc916c;stop-opacity:1;" />
      <stop
         id="stop3779"
         offset="1"
         style="stop-color:#dc916c;stop-opacity:0;" />
    </linearGradient>
    <radialGradient
       r="56.542881"
       fy="7.457119"
       fx="108.53934"
       cy="7.457119"
       cx="108.53934"
       gradientTransform="matrix(-0.3262776,0,0,-0.3453304,54.962993,4.5751695)"
       gradientUnits="userSpaceOnUse"
       id="radialGradient3817"
       xlink:href="#linearGradient3775"
       inkscape:collect="always" />
    <inkscape:perspective
       id="perspective3827"
       inkscape:persp3d-origin="0.5 : 0.33333333 : 1"
       inkscape:vp_z="1 : 0.5 : 1"
       inkscape:vp_y="0 : 1000 : 0"
       inkscape:vp_x="0 : 0.5 : 1"
       sodipodi:type="inkscape:persp3d" />
    <linearGradient
       inkscape:collect="always"
       xlink:href="#linearGradient3712"
       id="linearGradient3718"
       x1="47.2644"
       y1="77.865364"
       x2="47.2644"
       y2="12.540652"
       gradientUnits="userSpaceOnUse" />
    <linearGradient
       inkscape:collect="always"
       id="linearGradient3712">
      <stop
         style="stop-color:#e7cf93;stop-opacity:1"
         offset="0"
         id="stop3714" />
      <stop
         style="stop-color:#fefef4;stop-opacity:1"
         offset="1"
         id="stop3716" />
    </linearGradient>
    <linearGradient
       gradientTransform="matrix(0.25,0,0,0.25,0,-1.5)"
       y2="12.540652"
       x2="47.2644"
       y1="77.865364"
       x1="47.2644"
       gradientUnits="userSpaceOnUse"
       id="linearGradient3836"
       xlink:href="#linearGradient3712"
       inkscape:collect="always" />
    <linearGradient
       inkscape:collect="always"
       xlink:href="#linearGradient3712"
       id="linearGradient3714"
       gradientUnits="userSpaceOnUse"
       gradientTransform="matrix(0.25,0,0,0.25,0,0.5)"
       x1="47.2644"
       y1="77.865364"
       x2="47.2644"
       y2="12.540652" />
    <linearGradient
       inkscape:collect="always"
       xlink:href="#linearGradient3712"
       id="linearGradient3717"
       gradientUnits="userSpaceOnUse"
       gradientTransform="matrix(0.29292004,0,0,0.29292004,-2.8341213,-2.5300032)"
       x1="47.2644"
       y1="77.865364"
       x2="47.2644"
       y2="12.540652" />
    <linearGradient
       inkscape:collect="always"
       xlink:href="#linearGradient3712"
       id="linearGradient3719"
       gradientUnits="userSpaceOnUse"
       gradientTransform="matrix(0.32501545,0,0,0.32501545,-3.7256339,-1.7670472)"
       x1="47.2644"
       y1="77.865364"
       x2="47.2644"
       y2="12.540652" />
    <linearGradient
       inkscape:collect="always"
       xlink:href="#linearGradient3712"
       id="linearGradient3721"
       gradientUnits="userSpaceOnUse"
       gradientTransform="matrix(0.27897504,0,0,0.27897504,-1.651264,-0.7540759)"
       x1="47.2644"
       y1="77.865364"
       x2="47.2644"
       y2="12.540652" />
    <linearGradient
       inkscape:collect="always"
       xlink:href="#linearGradient3712"
       id="linearGradient3742"
       gradientUnits="userSpaceOnUse"
       gradientTransform="matrix(0.27897504,0,0,0.27897504,-1.651264,-2.2540759)"
       x1="47.2644"
       y1="77.865364"
       x2="47.2644"
       y2="12.540652" />
    <linearGradient
       inkscape:collect="always"
       xlink:href="#linearGradient3712"
       id="linearGradient3744"
       gradientUnits="userSpaceOnUse"
       gradientTransform="matrix(0.27897504,0,0,0.27897504,-1.651264,-0.7540759)"
       x1="47.2644"
       y1="77.865364"
       x2="47.2644"
       y2="12.540652" />
    <linearGradient
       y2="16"
       x2="10"
       y1="1"
       x1="10"
       gradientUnits="userSpaceOnUse"
       id="linearGradient3078"
       xlink:href="#linearGradient3823"
       inkscape:collect="always"
       gradientTransform="translate(1,-1)" />
    <linearGradient
       id="linearGradient3823">
      <stop
         id="stop3825"
         offset="0"
         style="stop-color:#ffffff;stop-opacity:1;" />
      <stop
         id="stop3829"
         offset="1"
         style="stop-color:#ffffff;stop-opacity:0;" />
    </linearGradient>
    <linearGradient
       inkscape:collect="always"
       xlink:href="#linearGradient3831"
       id="linearGradient3845"
       x1="11"
       y1="19.5"
       x2="21"
       y2="19.5"
       gradientUnits="userSpaceOnUse"
       spreadMethod="reflect"
       gradientTransform="translate(1,-1)" />
    <linearGradient
       id="linearGradient3831">
      <stop
         style="stop-color:#ffffff;stop-opacity:1;"
         offset="0"
         id="stop3833" />
      <stop
         id="stop3821"
         offset="0.75"
         style="stop-color:#ffffff;stop-opacity:0.49803922;" />
      <stop
         style="stop-color:#ffffff;stop-opacity:0;"
         offset="1"
         id="stop3835" />
    </linearGradient>
    <linearGradient
       y2="16"
       x2="10"
       y1="1"
       x1="10"
       gradientTransform="translate(1,-1)"
       gradientUnits="userSpaceOnUse"
       id="linearGradient3869"
       xlink:href="#linearGradient3823"
       inkscape:collect="always" />
  </defs>
  <sodipodi:namedview
     id="base"
     pagecolor="#ffffff"
     bordercolor="#e7e7e7"
     borderopacity="1"
     inkscape:pageopacity="0.0"
     inkscape:pageshadow="2"
     inkscape:zoom="19.701228"
     inkscape:cx="-2.7790589"
     inkscape:cy="13.544923"
     inkscape:document-units="px"
     inkscape:current-layer="layer1"
     showgrid="true"
     inkscape:showpageshadow="false"
     showguides="false"
     inkscape:guide-bbox="true"
     inkscape:window-width="1920"
     inkscape:window-height="1026"
     inkscape:window-x="0"
     inkscape:window-y="25"
     inkscape:window-maximized="1"
     inkscape:snap-global="false">
    <sodipodi:guide
       orientation="1,0"
       position="0,112"
       id="guide2383" />
    <sodipodi:guide
       orientation="0,1"
       position="26.278146,128"
       id="guide2385" />
    <sodipodi:guide
       orientation="1,0"
       position="128,54.082119"
       id="guide2387" />
    <sodipodi:guide
       orientation="0,1"
       position="78.156291,0"
       id="guide2389" />
    <sodipodi:guide
       orientation="0,1"
       position="60.863576,64.084768"
       id="guide2391" />
    <inkscape:grid
       type="xygrid"
       id="grid3672"
       visible="true"
       enabled="true"
       empspacing="8"
       snapvisiblegridlinesonly="true" />
  </sodipodi:namedview>
  <metadata
     id="metadata7">
    <rdf:RDF>
      <cc:Work
         rdf:about="">
        <dc:format>image/svg+xml</dc:format>
        <dc:type
           rdf:resource="http://purl.org/dc/dcmitype/StillImage" />
        <dc:title />
      </cc:Work>
    </rdf:RDF>
  </metadata>
  <g
     inkscape:label="Button"
     inkscape:groupmode="layer"
     id="layer1"
     transform="translate(0,2)">
    <g
       style="display:inline"
       id="g3337"
       transform="translate(1,-1)">
      <rect
         ry="2.5"
         rx="2.5"
         y="0.5"
         x="0.5"
         height="21.5"
         width="21"
         id="rect3371"
         style="opacity:0.3;fill:url(#linearGradient3335);fill-opacity:1;stroke:none;display:inline" />
      <rect
         style="opacity:0.5;fill:#000000;fill-opacity:1;stroke:none;display:inline"
         id="rect2553"
         width="20"
         height="20"
         x="1"
         y="2"
         rx="2.3809524"
         ry="2.3255813" />
    </g>
    <rect
       style="fill:url(#linearGradient3181);fill-opacity:1;fill-rule:evenodd;stroke:none;display:inline"
       id="rect3173"
       width="20"
       height="20"
       x="2"
       y="0"
       rx="2"
       ry="2" />
    <path
       style="opacity:0.4;fill:url(#radialGradient3817);fill-opacity:1;stroke:none;display:inline"
       d="M 4,2 C 2.892,2 2,2.892 2,4 l 0,16 c 0,1.108 0.892,2 2,2 l 0.1875,0 C 8.7665795,19.631636 8.2816329,10.393773 11.84375,8.96875 15.909009,7.3424456 21.207948,8.4660198 21.15625,2.375 20.830097,2.1441266 20.431738,2 20,2 L 4,2 z"
       transform="translate(0,-2)"
       id="path2491"
       inkscape:connector-curvature="0" />
    <path
       style="opacity:0.25;fill:url(#linearGradient3869);fill-opacity:1;fill-rule:evenodd;stroke:none;display:inline"
       d="M 4,0 C 2.892,0 2,0.892 2,2 l 0,16 c 0,1.108 0.892,2 2,2 l 16,0 c 1.108,0 2,-0.892 2,-2 L 22,2 C 22,0.892 21.108,0 20,0 L 4,0 z m 0,1.03125 16,0 c 0.5497,0 0.96875,0.4190495 0.96875,0.96875 l 0,16 c 0,0.5497 -0.41905,0.96875 -0.96875,0.96875 l -16,0 C 3.4502995,18.96875 3.03125,18.5497 3.03125,18 l 0,-16 C 3.03125,1.4502995 3.4502995,1.03125 4,1.03125 z"
       id="rect3050"
       inkscape:connector-curvature="0" />
    <path
       id="path3235"
       d="M 4,20 C 2.892,20 2,19.108 2,18 l 0,-1 c 0,1.108 0.892,2 2,2 l 16,0 c 1.108,0 2,-0.892 2,-2 l 0,1 c 0,1.108 -0.892,2 -2,2 L 4,20 z"
       style="opacity:0.15;fill:url(#linearGradient3845);fill-opacity:1;fill-rule:evenodd;stroke:none;display:inline"
       inkscape:connector-curvature="0" />
  </g>
  <g
     inkscape:groupmode="layer"
     id="layer2"
     inkscape:label="Highlight"
     transform="translate(0,2)"
     sodipodi:insensitive="true">
    <rect
       style="opacity:0.15;fill:#803300;fill-opacity:1;fill-rule:nonzero;stroke:none;display:inline;filter:url(#filter3194)"
       id="rect2410"
       width="16"
       height="16"
       x="3"
       y="3"
       rx="2"
       ry="2"
       clip-path="url(#clipPath2849)"
       transform="translate(1,-1)" />
  </g>
  <g
     inkscape:groupmode="layer"
     id="layer3"
     inkscape:label="Symbol"
     transform="translate(0,2)"
     sodipodi:insensitive="true">
    <path
       style="opacity:0.1;color:#000000;fill:#280b0b;fill-opacity:1;fill-rule:nonzero;stroke:none;stroke-width:1;marker:none;visibility:visible;display:inline;overflow:visible;enable-background:accumulate"
       d="M 12.15625,0.5 C 11.547849,0.7051578 11.376334,1.4514115 11.010518,1.9872183 10.633135,2.4630947 10.396635,3.6306651 10.25,3.84375 10.116626,3.4128902 9.5469826,3.1893602 9.125,3.375 8.6233318,3.6223818 8.4374054,4.2962947 8.1462331,4.7868307 7.5694884,5.8368902 7.6901864,7.1530067 8.3609666,8.1319671 8.5891441,8.538549 8.8987513,9.7709719 8.1694269,9.65625 7.6466322,9.6943854 7.0731523,9.5657245 6.59375,9.75 c -0.4123073,0.2338788 -0.4828872,0.710958 -0.4375,1.163512 0.0048,1.788204 -0.1352756,3.733567 0.9535195,5.269141 0.5892399,0.463327 0.1578509,0.434606 -0.3129766,0.411097 -1.0055941,0.01278 -2.0220966,-0.02464 -3.02143,0.01694 -0.5592369,0.12904 -0.7852293,0.832473 -0.4987742,1.37924 0.6182209,1.17494 2.1254296,1.24535 3.2932371,1.326081 3.3176505,0.05661 6.6368582,0.0172 9.9551482,0.0251 1.316131,-0.06304 2.846264,0.03717 3.894203,-0.907302 0.519531,-0.451063 0.616625,-1.448546 -0.04418,-1.746312 -0.472538,-0.194026 -1.047028,-0.04886 -1.563847,-0.09375 -0.759968,0 -1.519935,0 -2.279903,0 0.682663,-0.545532 0.884131,-1.439408 1.0625,-2.25 0.728968,0.03484 1.584422,-1.17e-4 2.008261,-0.704004 0.444155,-0.717959 0.216545,-1.591052 0.272989,-2.389746 0.03092,-0.993095 -0.958576,-1.7328547 -1.903884,-1.59375 -0.688289,0 -1.376577,0 -2.064866,0 0.736321,-0.8957 0.932673,-2.1855421 0.375,-3.21875 C 15.797617,5.7474339 15.716617,4.9046583 16.09375,4.15625 16.2239,3.8417802 16.108399,3.4921491 15.875,3.25 15.60489,3.0165764 15.158346,2.9406123 14.84375,3.15625 14.305062,3.578638 14.018828,4.304376 13.728219,4.9294621 13.509855,5.2454476 13.160435,3.9696632 13.06769,3.6154325 12.931178,2.850863 13.114274,2.0486768 13.21875,1.3125 13.168671,1.107932 13.117351,0.84434232 12.9375,0.75 12.785957,0.5095325 12.466908,0.48087272 12.15625,0.5 z m -1.875,4.46875 c 0.01559,1.3525798 1.316723,2.3366204 1.120039,3.7209296 0.03282,0.6108659 -0.04427,1.1648606 -0.740307,0.9665704 C 10.630668,9.2467636 11.287023,8.1802391 10.948456,7.4551581 10.744172,6.6602626 10.137033,5.9668705 10.274134,5.0965228 L 10.28125,4.96875 z m 3.65625,2.9375 c 0.491404,0.5460513 0.137018,1.1853246 0.03125,1.75 C 13.686213,9.5990069 12.894582,9.8462869 13.355774,9.3463292 13.597711,8.8879959 13.812907,8.4110268 13.9375,7.90625 z"
       id="path3734"
       inkscape:connector-curvature="0" />
    <path
       sodipodi:type="inkscape:offset"
       inkscape:radius="0.45266846"
       inkscape:original="M 12.34375 1.375 C 11.181286 3.3225482 10.830647 4.2603697 11.25 5.5 C 11.630135 6.6237029 12.619016 7.2138054 12.125 9.8125 C 12.936302 8.546346 13.57461 6.9221564 12.9375 5.625 C 12.28951 4.3056945 11.936284 3.5248494 12.34375 1.375 z M 15.25 3.9375 C 14.313067 5.3232701 14.081763 6.1236579 14.5 7.09375 C 14.925862 8.0815321 15.403182 8.217053 14.84375 9.65625 C 15.875919 8.4922596 15.925186 7.7147179 15.5 6.8125 C 15.066253 5.892122 14.631886 5.5635432 15.25 3.9375 z M 9.46875 4.1875 C 8.7026569 5.5031491 8.4595189 6.1397552 8.75 6.96875 C 9.0133158 7.7202197 9.6876941 8.1271583 9.375 9.875 C 10.334669 8.66429 10.299916 7.7974365 9.875 7.03125 C 9.4607401 6.2842799 9.2108848 5.6334465 9.46875 4.1875 z M 7 10.5 L 7 12.5 C 7 14.716 7.892 16.5 9 16.5 L 15 16.5 C 15.934875 16.5 16.716229 15.227993 16.9375 13.5 L 18.28125 13.5 C 18.696749 13.5 19.03125 13.165501 19.03125 12.75 L 19.03125 11.25 C 19.03125 10.834501 18.696749 10.5 18.28125 10.5 L 17 10.5 L 7 10.5 z M 17 11.5 L 17.71875 11.5 C 17.895337 11.5 18.03125 11.635913 18.03125 11.8125 L 18.03125 12.25 C 18.03125 12.426588 17.895337 12.5625 17.71875 12.5625 L 17 12.5625 C 17.0027 12.49151 17 12.416204 17 12.34375 L 17 11.5 z M 4 17.4375 C 4 18.2685 5.784 18.5 8 18.5 L 16 18.5 C 18.216 18.5 20 18.2685 20 17.4375 L 4 17.4375 z "
       style="opacity:0.15;color:#000000;fill:#280b0b;fill-opacity:1;fill-rule:nonzero;stroke:none;stroke-width:1;marker:none;visibility:visible;display:inline;overflow:visible;enable-background:accumulate"
       id="path3730"
       d="m 12.1875,0.9375 a 0.45271373,0.45271373 0 0 0 -0.21875,0.21875 c -0.587355,0.9840324 -0.986085,1.7315074 -1.1875,2.4375 -0.201415,0.7059926 -0.201803,1.373583 0.03125,2.0625 0.441083,1.3038683 1.34597,1.5850376 0.875,4.0625 A 0.45271373,0.45271373 0 0 0 11.75,10.0625 l -1.96875,0 C 10.246635,9.4518333 10.52598,8.8842509 10.59375,8.34375 10.665143,7.7743502 10.526286,7.2543362 10.28125,6.8125 9.8836368,6.0955463 9.6613796,5.6543296 9.90625,4.28125 A 0.45271373,0.45271373 0 0 0 9.0625,3.96875 C 8.6739562,4.6360153 8.4218685,5.1253433 8.28125,5.625 8.1406315,6.1246567 8.142267,6.6391775 8.3125,7.125 8.6387139,8.055973 9.2281797,8.1564604 8.9375,9.78125 A 0.45271373,0.45271373 0 0 0 8.96875,10.0625 L 7,10.0625 A 0.45271373,0.45271373 0 0 0 6.5625,10.5 l 0,2 c 0,1.168737 0.2221348,2.22552 0.625,3.03125 C 7.5903652,16.33698 8.2030516,16.9375 9,16.9375 l 6,0 c 0.67274,0 1.236193,-0.420335 1.625,-1.03125 0.331545,-0.520942 0.520144,-1.216437 0.65625,-1.96875 l 1,0 c 0.658447,0 1.1875,-0.52905 1.1875,-1.1875 l 0,-1.5 c 0,-0.658449 -0.529051,-1.1875 -1.1875,-1.1875 l -1.28125,0 -1.96875,0 A 0.45271373,0.45271373 0 0 0 15.1875,9.96875 c 0.546909,-0.6167565 0.858968,-1.18651 0.96875,-1.75 0.109782,-0.56349 -0.01316,-1.0911812 -0.25,-1.59375 -0.232859,-0.4941081 -0.405838,-0.7992542 -0.46875,-1.09375 -0.06291,-0.2944958 -0.04294,-0.6668646 0.25,-1.4375 A 0.45420131,0.45420131 0 0 0 14.875,3.6875 c -0.481435,0.7120659 -0.793181,1.2931017 -0.9375,1.875 -0.144319,0.5818983 -0.0828,1.1642824 0.15625,1.71875 0.234293,0.5434411 0.430827,0.8351977 0.5,1.0625 0.06917,0.2273023 0.07473,0.4816446 -0.1875,1.15625 a 0.45271373,0.45271373 0 0 0 0.25,0.5625 l -2.15625,0 C 13.347986,8.7390959 14.09952,6.9762481 13.34375,5.4375 12.698221,4.1232054 12.386431,3.5518696 12.78125,1.46875 A 0.45271373,0.45271373 0 0 0 12.1875,0.9375 z m 5.25,11 0.15625,0 0,0.1875 -0.15625,0 0,-0.1875 z M 3.875,17 a 0.45271373,0.45271373 0 0 0 -0.3125,0.4375 c 0,0.369716 0.2195818,0.682527 0.5,0.875 0.2804182,0.192473 0.6063331,0.318179 1,0.40625 C 5.8498338,18.894893 6.876237,18.9375 8,18.9375 l 8,0 c 1.123763,0 2.150166,-0.04261 2.9375,-0.21875 0.393667,-0.08807 0.719582,-0.213777 1,-0.40625 0.280418,-0.192473 0.5,-0.505284 0.5,-0.875 A 0.45271373,0.45271373 0 0 0 20,17 L 4,17 a 0.45271373,0.45271373 0 0 0 -0.125,0 z" />
    <path
       id="path3724"
       d="M 12.34375,1.375 C 11.181286,3.3225482 10.830647,4.2603697 11.25,5.5 11.630135,6.6237029 12.619016,7.2138054 12.125,9.8125 12.936302,8.546346 13.57461,6.9221564 12.9375,5.625 12.28951,4.3056945 11.936284,3.5248494 12.34375,1.375 z M 15.25,3.9375 c -0.936933,1.3857701 -1.168237,2.1861579 -0.75,3.15625 0.425862,0.9877821 0.903182,1.123303 0.34375,2.5625 C 15.875919,8.4922596 15.925186,7.7147179 15.5,6.8125 15.066253,5.892122 14.631886,5.5635432 15.25,3.9375 z m -5.78125,0.25 C 8.7026569,5.5031491 8.4595189,6.1397552 8.75,6.96875 9.0133158,7.7202197 9.6876941,8.1271583 9.375,9.875 10.334669,8.66429 10.299916,7.7974365 9.875,7.03125 9.4607401,6.2842799 9.2108848,5.6334465 9.46875,4.1875 z M 7,10.5 l 0,2 c 0,2.216 0.892,4 2,4 l 6,0 c 0.934875,0 1.716229,-1.272007 1.9375,-3 l 1.34375,0 c 0.415499,0 0.75,-0.334499 0.75,-0.75 l 0,-1.5 c 0,-0.415499 -0.334501,-0.75 -0.75,-0.75 L 17,10.5 7,10.5 z m 10,1 0.71875,0 c 0.176587,0 0.3125,0.135913 0.3125,0.3125 l 0,0.4375 c 0,0.176588 -0.135913,0.3125 -0.3125,0.3125 l -0.71875,0 c 0.0027,-0.07099 0,-0.146296 0,-0.21875 L 17,11.5 z M 4,17.4375 C 4,18.2685 5.784,18.5 8,18.5 l 8,0 c 2.216,0 4,-0.2315 4,-1.0625 l -16,0 z"
       style="opacity:0.3;color:#000000;fill:#280b0b;fill-opacity:1;fill-rule:nonzero;stroke:none;stroke-width:1;marker:none;visibility:visible;display:inline;overflow:visible;enable-background:accumulate"
       inkscape:connector-curvature="0" />
    <path
       style="color:#000000;fill:url(#linearGradient3721);fill-opacity:1;fill-rule:nonzero;stroke:none;stroke-width:1;marker:none;visibility:visible;display:inline;overflow:visible;enable-background:accumulate"
       d="M 12.34375,2.875 C 11.181286,4.8225482 10.830647,5.7603697 11.25,7 11.630135,8.1237029 12.619016,8.7138054 12.125,11.3125 12.936302,10.046346 13.57461,8.4221564 12.9375,7.125 12.28951,5.8056945 11.936284,5.0248494 12.34375,2.875 z M 15.25,5.4375 c -0.936933,1.3857701 -1.168237,2.1861579 -0.75,3.15625 0.425862,0.9877821 0.903182,1.123303 0.34375,2.5625 C 15.875919,9.9922596 15.925186,9.2147179 15.5,8.3125 15.066253,7.392122 14.631886,7.0635432 15.25,5.4375 z m -5.78125,0.25 C 8.7026569,7.0031491 8.4595189,7.6397552 8.75,8.46875 9.0133158,9.2202197 9.6876941,9.6271583 9.375,11.375 10.334669,10.16429 10.299916,9.2974365 9.875,8.53125 9.4607401,7.7842799 9.2108848,7.1334465 9.46875,5.6875 z M 7,12 7,14 c 0,2.216 0.892,4 2,4 l 6,0 c 0.934875,0 1.716229,-1.272007 1.9375,-3 l 1.34375,0 c 0.415499,0 0.75,-0.334499 0.75,-0.75 l 0,-1.5 c 0,-0.415499 -0.334501,-0.75 -0.75,-0.75 L 17,12 7,12 z m 10,1 0.71875,0 c 0.176587,0 0.3125,0.135913 0.3125,0.3125 l 0,0.4375 c 0,0.176588 -0.135913,0.3125 -0.3125,0.3125 l -0.71875,0 c 0.0027,-0.07099 0,-0.146296 0,-0.21875 L 17,13 z M 4,18.9375 C 4,19.7685 5.784,20 8,20 l 8,0 c 2.216,0 4,-0.2315 4,-1.0625 l -16,0 z"
       transform="translate(0,-2)"
       id="path3712"
       inkscape:connector-curvature="0" />
  </g>
</svg>
