<?xml version="1.0" encoding="UTF-8" standalone="no"?>
<!-- Created with Inkscape (http://www.inkscape.org/) -->

<svg
   xmlns:dc="http://purl.org/dc/elements/1.1/"
   xmlns:cc="http://creativecommons.org/ns#"
   xmlns:rdf="http://www.w3.org/1999/02/22-rdf-syntax-ns#"
   xmlns:svg="http://www.w3.org/2000/svg"
   xmlns="http://www.w3.org/2000/svg"
   xmlns:xlink="http://www.w3.org/1999/xlink"
   xmlns:sodipodi="http://sodipodi.sourceforge.net/DTD/sodipodi-0.dtd"
   xmlns:inkscape="http://www.inkscape.org/namespaces/inkscape"
   width="22"
   height="22"
   id="svg2"
   sodipodi:version="0.32"
   inkscape:version="0.48.0 r9654"
   version="1.0"
   sodipodi:docname="deja-dup.svg"
   inkscape:output_extension="org.inkscape.output.svg.inkscape"
   style="display:inline">
  <defs
     id="defs4">
    <filter
       inkscape:collect="always"
       id="filter3810"
       x="-0.225"
       width="1.45"
       y="-0.25714286"
       height="1.5142857">
      <feGaussianBlur
         inkscape:collect="always"
         stdDeviation="4.5"
         id="feGaussianBlur3812" />
    </filter>
    <clipPath
       clipPathUnits="userSpaceOnUse"
       id="clipPath3824">
      <path
         style="opacity:1;fill:#ffffff;fill-opacity:1;fill-rule:nonzero;stroke:none;stroke-width:1;stroke-linecap:square;stroke-linejoin:round;stroke-miterlimit:4;stroke-dasharray:none;stroke-dashoffset:0;stroke-opacity:0.69658119;display:inline"
         d="M 16,12 C 13.784,12 12,13.784 12,16 L 12,68 C 12,70.216 13.784,72 16,72 L 80,72 C 82.216,72 84,70.216 84,68 L 84,16 C 84,13.784 82.216,12 80,12 L 16,12 z M 48,20 L 50.65625,22.25 L 69.34375,37.875 L 72,40.125 L 69.34375,42.34375 L 55.375,54.0625 L 55.375,45.1875 L 61.40625,40.125 L 48,28.875 L 34.59375,40.125 L 40.625,45.1875 L 40.625,54.0625 L 26.65625,42.34375 L 24,40.125 L 26.65625,37.875 L 45.34375,22.25 L 48,20 z M 44.25,40.03125 L 51.75,40.03125 L 51.75,62 L 44.25,62 L 44.25,40.03125 z"
         id="path3826" />
    </clipPath>
    <linearGradient
       id="linearGradient3767">
      <stop
         style="stop-color:#4d4d4d;stop-opacity:0.70731705;"
         offset="0"
         id="stop3769" />
      <stop
         style="stop-color:#4d4d4d;stop-opacity:0.25203252;"
         offset="1"
         id="stop3771" />
    </linearGradient>
    <linearGradient
       inkscape:collect="always"
       xlink:href="#linearGradient3767"
       id="linearGradient3773"
       x1="48"
       y1="62"
       x2="48"
       y2="21.554564"
       gradientUnits="userSpaceOnUse"
       gradientTransform="matrix(0.2592593,0,0,0.2592593,-21.436145,-2.1011629)" />
    <linearGradient
       id="linearGradient3313">
      <stop
         style="stop-color:#4dbeff;stop-opacity:1;"
         offset="0"
         id="stop3315" />
      <stop
         id="stop4186"
         offset="0.67213112"
         style="stop-color:#1379ff;stop-opacity:0.902439;" />
      <stop
         style="stop-color:#0066ff;stop-opacity:0;"
         offset="1"
         id="stop3317" />
    </linearGradient>
    <radialGradient
       inkscape:collect="always"
       xlink:href="#linearGradient3313"
       id="radialGradient4138"
       gradientUnits="userSpaceOnUse"
       gradientTransform="matrix(0.3,0,0,3.4805654e-2,-3.4000004,15.076323)"
       cx="48.147232"
       cy="77.654884"
       fx="48.147232"
       fy="77.654884"
       r="30" />
    <linearGradient
       id="linearGradient3273">
      <stop
         style="stop-color:#7a7a7a;stop-opacity:1;"
         offset="0"
         id="stop3275" />
      <stop
         id="stop3281"
         offset="0.14636412"
         style="stop-color:#f9f9f9;stop-opacity:1" />
      <stop
         style="stop-color:#c9c9c9;stop-opacity:1"
         offset="0.37253973"
         id="stop3283" />
      <stop
         style="stop-color:#dedede;stop-opacity:0;"
         offset="1"
         id="stop3639" />
    </linearGradient>
    <linearGradient
       id="linearGradient3322">
      <stop
         id="stop3324"
         offset="0"
         style="stop-color:#7a7a7a;stop-opacity:1;" />
      <stop
         style="stop-color:#f9f9f9;stop-opacity:1"
         offset="0.2032043"
         id="stop3326" />
      <stop
         id="stop3328"
         offset="0.42969123"
         style="stop-color:#c9c9c9;stop-opacity:1" />
      <stop
         id="stop3632"
         offset="1"
         style="stop-color:#dedede;stop-opacity:0;" />
    </linearGradient>
    <linearGradient
       id="linearGradient4327">
      <stop
         style="stop-color:#f0f0f0;stop-opacity:1;"
         offset="0"
         id="stop4329" />
      <stop
         id="stop4331"
         offset="1"
         style="stop-color:#b4b4b4;stop-opacity:1;" />
    </linearGradient>
    <clipPath
       clipPathUnits="userSpaceOnUse"
       id="clipPath3785">
      <rect
         style="opacity:1;fill:#ffffff;fill-opacity:1;fill-rule:nonzero;stroke:none;stroke-width:1;stroke-linecap:square;stroke-linejoin:round;stroke-miterlimit:4;stroke-dasharray:none;stroke-dashoffset:0;stroke-opacity:0.69658119"
         id="rect3787"
         width="84"
         height="72"
         x="6"
         y="6"
         rx="6"
         ry="6" />
    </clipPath>
    <linearGradient
       id="linearGradient3220">
      <stop
         style="stop-color:#ffffff;stop-opacity:1;"
         offset="0"
         id="stop3222" />
      <stop
         style="stop-color:#bfbfbf;stop-opacity:0;"
         offset="1"
         id="stop3224" />
    </linearGradient>
    <linearGradient
       inkscape:collect="always"
       xlink:href="#linearGradient3220"
       id="linearGradient3781"
       gradientUnits="userSpaceOnUse"
       x1="15.656256"
       y1="69.394279"
       x2="46.594883"
       y2="39.82095"
       gradientTransform="matrix(1.1165614,0,0,1.1165614,0.8046986,-5.6759082)" />
    <linearGradient
       inkscape:collect="always"
       id="linearGradient3327">
      <stop
         style="stop-color:#000000;stop-opacity:1;"
         offset="0"
         id="stop3330" />
      <stop
         style="stop-color:#000000;stop-opacity:0;"
         offset="1"
         id="stop3333" />
    </linearGradient>
    <linearGradient
       inkscape:collect="always"
       xlink:href="#linearGradient4327"
       id="linearGradient3181"
       x1="-3.0607977"
       y1="27.258198"
       x2="-3.0607977"
       y2="7.2536583"
       gradientUnits="userSpaceOnUse"
       gradientTransform="translate(11.119372,-28.258198)" />
    <inkscape:perspective
       sodipodi:type="inkscape:persp3d"
       inkscape:vp_x="0 : 11 : 1"
       inkscape:vp_y="0 : 1000 : 0"
       inkscape:vp_z="22 : 11 : 1"
       inkscape:persp3d-origin="11 : 7.3333333 : 1"
       id="perspective2531" />
    <linearGradient
       id="ButtonShadow"
       gradientTransform="scale(0.9883037,1.0118347)"
       x1="9.3550024"
       y1="21.742682"
       x2="9.3550024"
       y2="0.49362123"
       gradientUnits="userSpaceOnUse">
      <stop
         id="stop3277"
         offset="0"
         style="stop-color:#000000;stop-opacity:0.70588237;" />
      <stop
         id="stop3279"
         offset="1"
         style="stop-color:#000000;stop-opacity:0.15686275;" />
    </linearGradient>
    <linearGradient
       inkscape:collect="always"
       id="linearGradient3232">
      <stop
         style="stop-color:#000000;stop-opacity:1;"
         offset="0"
         id="stop3234" />
      <stop
         style="stop-color:#000000;stop-opacity:0;"
         offset="1"
         id="stop3236" />
    </linearGradient>
    <linearGradient
       gradientUnits="userSpaceOnUse"
       y2="-6.0004225"
       x2="11"
       y1="14.805666"
       x1="11"
       id="linearGradient3221"
       xlink:href="#linearGradient3232"
       inkscape:collect="always" />
    <linearGradient
       id="ButtonColor"
       x1="10.31979"
       y1="21"
       x2="10.31979"
       y2="0.99929649"
       gradientUnits="userSpaceOnUse">
      <stop
         style="stop-color:#29669f;stop-opacity:1;"
         offset="0"
         id="stop3189" />
      <stop
         style="stop-color:#88b6e0;stop-opacity:1;"
         offset="1"
         id="stop3191" />
    </linearGradient>
    <linearGradient
       inkscape:collect="always"
       xlink:href="#ButtonShadow"
       id="linearGradient38042"
       gradientUnits="userSpaceOnUse"
       gradientTransform="scale(0.9883037,1.0118347)"
       x1="9.3550024"
       y1="21.742682"
       x2="9.3550024"
       y2="0.49362123" />
    <linearGradient
       inkscape:collect="always"
       xlink:href="#linearGradient3220"
       id="linearGradient4201"
       x1="11.743171"
       y1="15.971731"
       x2="25.151943"
       y2="3.6272087"
       gradientUnits="userSpaceOnUse" />
    <linearGradient
       inkscape:collect="always"
       xlink:href="#linearGradient3322"
       id="linearGradient4220"
       x1="1"
       y1="13.5"
       x2="7"
       y2="13.5"
       gradientUnits="userSpaceOnUse" />
    <linearGradient
       inkscape:collect="always"
       xlink:href="#linearGradient3322"
       id="linearGradient4224"
       gradientUnits="userSpaceOnUse"
       x1="1"
       y1="13.5"
       x2="7"
       y2="13.5"
       gradientTransform="matrix(-1,0,0,1,22,0)" />
    <linearGradient
       inkscape:collect="always"
       xlink:href="#linearGradient3327"
       id="linearGradient2464"
       gradientUnits="userSpaceOnUse"
       x1="11.375"
       y1="22"
       x2="11.375"
       y2="-9.817296" />
    <linearGradient
       inkscape:collect="always"
       xlink:href="#linearGradient3831"
       id="linearGradient3845"
       x1="11"
       y1="19.5"
       x2="21"
       y2="19.5"
       gradientUnits="userSpaceOnUse"
       spreadMethod="reflect" />
    <linearGradient
       id="linearGradient3831">
      <stop
         style="stop-color:#ffffff;stop-opacity:1;"
         offset="0"
         id="stop3833" />
      <stop
         id="stop3821"
         offset="0.75"
         style="stop-color:#ffffff;stop-opacity:0.49803922;" />
      <stop
         style="stop-color:#ffffff;stop-opacity:0;"
         offset="1"
         id="stop3835" />
    </linearGradient>
    <linearGradient
       y2="19.5"
       x2="21"
       y1="19.5"
       x1="11"
       spreadMethod="reflect"
       gradientUnits="userSpaceOnUse"
       id="linearGradient4722"
       xlink:href="#linearGradient3831"
       inkscape:collect="always" />
    <linearGradient
       inkscape:collect="always"
       xlink:href="#linearGradient3767-7"
       id="linearGradient3773-7"
       x1="48"
       y1="62"
       x2="48"
       y2="21.554564"
       gradientUnits="userSpaceOnUse"
       gradientTransform="matrix(0.2592593,0,0,0.2592593,-21.436145,-2.1011626)" />
    <linearGradient
       id="linearGradient3767-7">
      <stop
         style="stop-color:#4d4d4d;stop-opacity:0.70731705;"
         offset="0"
         id="stop3769-7" />
      <stop
         style="stop-color:#4d4d4d;stop-opacity:0.25203252;"
         offset="1"
         id="stop3771-1" />
    </linearGradient>
    <filter
       color-interpolation-filters="sRGB"
       inkscape:collect="always"
       id="filter3810-8"
       x="-0.22499999"
       width="1.45"
       y="-0.25714287"
       height="1.5142857">
      <feGaussianBlur
         inkscape:collect="always"
         stdDeviation="4.5"
         id="feGaussianBlur3812-6" />
    </filter>
    <linearGradient
       inkscape:collect="always"
       xlink:href="#linearGradient3317"
       id="linearGradient3846"
       x1="10.305529"
       y1="6.9657006"
       x2="10.305529"
       y2="19.050863"
       gradientUnits="userSpaceOnUse" />
    <linearGradient
       gradientUnits="userSpaceOnUse"
       y2="20.137329"
       x2="11.794092"
       y1="3.2126782"
       x1="11.794092"
       gradientTransform="scale(1.0598527,0.9435274)"
       id="linearGradient3317">
      <stop
         id="stop3319"
         offset="0"
         style="stop-color:#c6953a;stop-opacity:1" />
      <stop
         id="stop3321"
         offset="1"
         style="stop-color:#ab7a1f;stop-opacity:1" />
    </linearGradient>
    <linearGradient
       y2="7.1125731"
       x2="8.110424"
       y1="18.911598"
       x1="8.110424"
       gradientUnits="userSpaceOnUse"
       id="linearGradient3077"
       xlink:href="#linearGradient3767"
       inkscape:collect="always"
       gradientTransform="translate(0,-5)" />
    <linearGradient
       inkscape:collect="always"
       xlink:href="#linearGradient3767"
       id="linearGradient3920"
       gradientUnits="userSpaceOnUse"
       gradientTransform="translate(0,-4.5)"
       x1="8.110424"
       y1="18.911598"
       x2="8.110424"
       y2="7.1125731" />
    <linearGradient
       inkscape:collect="always"
       xlink:href="#linearGradient3767"
       id="linearGradient3926"
       gradientUnits="userSpaceOnUse"
       gradientTransform="translate(0,-5)"
       x1="8.110424"
       y1="18.911598"
       x2="8.110424"
       y2="7.1125731" />
    <linearGradient
       inkscape:collect="always"
       xlink:href="#linearGradient3767"
       id="linearGradient3929"
       gradientUnits="userSpaceOnUse"
       gradientTransform="translate(10,-4.5)"
       x1="8.110424"
       y1="18.911598"
       x2="8.110424"
       y2="7.1125731" />
    <linearGradient
       inkscape:collect="always"
       xlink:href="#linearGradient3767"
       id="linearGradient3933"
       gradientUnits="userSpaceOnUse"
       gradientTransform="translate(0,-4.5)"
       x1="8.110424"
       y1="18.911598"
       x2="8.110424"
       y2="7.1125731" />
    <linearGradient
       inkscape:collect="always"
       xlink:href="#linearGradient3767"
       id="linearGradient3938"
       gradientUnits="userSpaceOnUse"
       gradientTransform="translate(0,-5)"
       x1="8.110424"
       y1="18.911598"
       x2="8.110424"
       y2="7.1125731" />
    <linearGradient
       inkscape:collect="always"
       xlink:href="#linearGradient3767"
       id="linearGradient3948"
       gradientUnits="userSpaceOnUse"
       gradientTransform="translate(30,-5)"
       x1="8.110424"
       y1="18.911598"
       x2="8.110424"
       y2="7.1125731" />
    <linearGradient
       inkscape:collect="always"
       xlink:href="#linearGradient3767"
       id="linearGradient3953"
       gradientUnits="userSpaceOnUse"
       gradientTransform="translate(30,-5)"
       x1="8.110424"
       y1="18.911598"
       x2="8.110424"
       y2="7.1125731" />
    <clipPath
       clipPathUnits="userSpaceOnUse"
       id="clipPath3959">
      <path
         style="fill:#ff00ff;fill-opacity:1;fill-rule:evenodd;stroke:none;display:inline"
         d="m 33,1 c -1.108,0 -2,0.892 -2,2 l 0,11 c 0,1.108 0.892,2 2,2 l 16,0 c 1.108,0 2,-0.892 2,-2 L 51,3 C 51,1.892 50.108,1 49,1 L 33,1 z m 8.71875,1 c 3.313708,0 6,2.6862915 6,6 0,3.313708 -2.686292,6 -6,6 -1.092887,0 -2.117466,-0.301968 -3,-0.8125 l 1,-1.75 c 0.589088,0.341516 1.27007,0.5625 2,0.5625 2.209139,0 4,-1.790861 4,-4 0,-2.209139 -1.790861,-4 -4,-4 -2.198581,0 -3.982995,1.77418 -4,3.96875 l 1.53125,0 -2.59375,4.0625 -2.5625,-4.0625 1.625,0 C 35.735425,4.6692903 38.41537,2 41.71875,2 z M 41,5 l 1,0 0,3 2.25,0 0,1 L 41,9 41,8 41,5 z"
         id="path3961"
         inkscape:connector-curvature="0" />
    </clipPath>
    <filter
       inkscape:collect="always"
       id="filter3963"
       x="-0.22670872"
       width="1.4534174"
       y="-0.25494679"
       height="1.5098936">
      <feGaussianBlur
         inkscape:collect="always"
         stdDeviation="1.3743225"
         id="feGaussianBlur3965" />
    </filter>
  </defs>
  <sodipodi:namedview
     id="base"
     pagecolor="#ffffff"
     bordercolor="#e7e7e7"
     borderopacity="1"
     inkscape:pageopacity="0.0"
     inkscape:pageshadow="2"
     inkscape:zoom="13.061148"
     inkscape:cx="-2.4616007"
     inkscape:cy="19.069261"
     inkscape:document-units="px"
     inkscape:current-layer="layer5"
     showgrid="true"
     inkscape:showpageshadow="false"
     showguides="false"
     inkscape:guide-bbox="true"
     inkscape:window-width="1920"
     inkscape:window-height="1026"
     inkscape:window-x="0"
     inkscape:window-y="25"
     inkscape:snap-global="false"
     inkscape:window-maximized="1">
    <sodipodi:guide
       orientation="1,0"
       position="0,112"
       id="guide2383" />
    <sodipodi:guide
       orientation="0,1"
       position="26.278146,128"
       id="guide2385" />
    <sodipodi:guide
       orientation="1,0"
       position="128,54.082119"
       id="guide2387" />
    <sodipodi:guide
       orientation="0,1"
       position="78.156291,0"
       id="guide2389" />
    <sodipodi:guide
       orientation="0,1"
       position="60.863576,64.084768"
       id="guide2391" />
    <inkscape:grid
       type="xygrid"
       id="grid3672"
       visible="true"
       enabled="true" />
  </sodipodi:namedview>
  <metadata
     id="metadata7">
    <rdf:RDF>
      <cc:Work
         rdf:about="">
        <dc:format>image/svg+xml</dc:format>
        <dc:type
           rdf:resource="http://purl.org/dc/dcmitype/StillImage" />
        <dc:title></dc:title>
      </cc:Work>
    </rdf:RDF>
  </metadata>
  <g
     inkscape:groupmode="layer"
     id="layer3"
     inkscape:label="Shadow"
     sodipodi:insensitive="true">
    <rect
       style="opacity:0.5;fill:url(#linearGradient2464);fill-opacity:1;stroke:none;stroke-width:1.00000012;stroke-linecap:round;stroke-linejoin:miter;stroke-miterlimit:4;stroke-dasharray:none;stroke-opacity:1;display:inline"
       id="rect3371"
       width="21"
       height="21.5"
       x="0.5"
       y="0.5"
       rx="2.5"
       ry="2.5" />
    <rect
       ry="2.3255813"
       rx="2.3809524"
       y="2"
       x="1"
       height="20"
       width="20"
       id="rect2553"
       style="opacity:0.4;fill:#000000;fill-opacity:1;stroke:none;stroke-width:1.00000012;stroke-linecap:round;stroke-linejoin:miter;stroke-miterlimit:4;stroke-dasharray:none;stroke-opacity:1;display:inline" />
  </g>
  <g
     inkscape:groupmode="layer"
     id="layer2"
     inkscape:label="Facade"
     sodipodi:insensitive="true">
    <rect
       transform="scale(1,-1)"
       ry="2"
       rx="2"
       y="-21"
       x="1"
       height="15"
       width="20"
       id="rect4177"
       style="fill:#cacaca;fill-opacity:1;fill-rule:evenodd;stroke:none;display:inline" />
    <path
       style="fill:url(#linearGradient4220);fill-opacity:1;fill-rule:evenodd;stroke:none;display:inline"
       d="M 3,6 C 1.892,6 1,6.892 1,8 l 0,11 c 0,1.108 0.892,2 2,2 L 7,21 7,6 3,6 z"
       id="rect4209"
       inkscape:connector-curvature="0" />
    <path
       id="path4222"
       d="m 19,6 c 1.108,0 2,0.892 2,2 l 0,11 c 0,1.108 -0.892,2 -2,2 l -4,0 0,-15 4,0 z"
       style="fill:url(#linearGradient4224);fill-opacity:1;fill-rule:evenodd;stroke:none;display:inline"
       inkscape:connector-curvature="0" />
    <path
       style="fill:#282828;fill-opacity:1;fill-rule:evenodd;stroke:none;display:inline"
       d="M 2.9999999,18.999999 C 1.8919999,18.999999 0.99999993,18.108 0.99999993,17 l 0,-2 c 0,1.108 0.89199997,2 1.99999997,2 L 19,17 c 1.108,0 2,-0.892 2,-2 l 0,2 c 0,1.108 -0.892,1.999999 -2,1.999999 l -16.0000001,0 z"
       id="path4182"
       sodipodi:nodetypes="ccccccccc"
       inkscape:connector-curvature="0" />
    <path
       style="opacity:0.15;fill:#000000;fill-opacity:1;fill-rule:evenodd;stroke:none;display:inline"
       d="M 2.9999999,16.999999 C 1.8919999,16.999999 0.99999993,16.108 0.99999993,15 l 0,-1 c 0,1.108 0.89199997,2 1.99999997,2 L 19,16 c 1.108,0 2,-0.892 2,-2 l 0,1 c 0,1.108 -0.892,1.999999 -2,1.999999 l -16.0000001,0 z"
       id="path4184"
       sodipodi:nodetypes="ccccccccc"
       inkscape:connector-curvature="0" />
    <path
       sodipodi:nodetypes="ccccccccc"
       id="path4203"
       d="M 2.9999999,17.999999 C 1.8919999,17.999999 0.99999993,17.108 0.99999993,16 l 0,-1 c 0,1.108 0.89199997,2 1.99999997,2 L 19,17 c 1.108,0 2,-0.892 2,-2 l 0,1 c 0,1.108 -0.892,1.999999 -2,1.999999 l -16.0000001,0 z"
       style="fill:#000000;fill-opacity:1;fill-rule:evenodd;stroke:none;display:inline"
       inkscape:connector-curvature="0" />
    <path
       id="path3235"
       d="M 3,21 C 1.892,21 1,20.108 1,19 l 0,-1 c 0,1.108 0.892,2 2,2 l 16,0 c 1.108,0 2,-0.892 2,-2 l 0,1 c 0,1.108 -0.892,2 -2,2 L 3,21 z"
       style="opacity:0.4;fill:url(#linearGradient4722);fill-opacity:1;fill-rule:evenodd;stroke:none;display:inline"
       inkscape:connector-curvature="0" />
  </g>
  <g
     inkscape:label="Top"
     inkscape:groupmode="layer"
     id="layer1"
     sodipodi:insensitive="true">
    <rect
       style="fill:url(#linearGradient3181);fill-opacity:1;fill-rule:evenodd;stroke:none;display:inline"
       id="rect3173"
       width="20"
       height="15"
       x="1"
       y="-16"
       rx="2"
       ry="2"
       transform="scale(1,-1)" />
    <path
       style="opacity:0.25;fill:#ffffff;fill-opacity:1;fill-rule:evenodd;stroke:none;display:inline"
       d="m 2.9999999,0.99999982 c -1.108,0 -1.99999997,0.89199998 -1.99999997,1.99999998 l 0,1 c 0,-1.108 0.89199997,-2 1.99999997,-2 l 16.0000001,0 c 1.108,0 2,0.892 2,2 l 0,-1 c 0,-1.108 -0.892,-1.99999998 -2,-1.99999998 l -16.0000001,0 z"
       id="rect3183"
       inkscape:connector-curvature="0" />
    <path
       style="opacity:0.8;fill:url(#linearGradient4201);fill-opacity:1;fill-rule:evenodd;stroke:none;display:inline"
       d="M 3,1 C 1.892,1 1,1.892 1,3 l 0,10.971731 c 0,1.108 0.892,2 2,2 l 16,0 c 1.108,0 2,-0.892 2,-2 L 21,3 C 21,1.892 20.108,1 19,1 L 3,1 z m 0,1 16,0 c 0.571596,0 1,0.4284045 1,1 l 0,10.971731 c 0,0.571596 -0.428404,1 -1,1 l -16,0 c -0.5715955,0 -1,-0.428404 -1,-1 L 2,3 C 2,2.4284045 2.4284045,2 3,2 z"
       id="path4188"
       sodipodi:nodetypes="cccccccccccccccccc"
       inkscape:connector-curvature="0" />
  </g>
  <g
     inkscape:groupmode="layer"
     id="layer4"
     inkscape:label="Light"
     style="display:inline"
     sodipodi:insensitive="true">
    <rect
       style="fill:url(#radialGradient4138);fill-opacity:1;fill-rule:nonzero;stroke:none;display:inline"
       id="rect3311"
       width="18"
       height="2.0883393"
       x="2"
       y="16.95583"
       rx="1.6363636"
       ry="2.0883393" />
  </g>
  <g
     inkscape:groupmode="layer"
     id="layer5"
     inkscape:label="Symbol"
     style="display:inline">
    <path
       sodipodi:type="inkscape:offset"
       inkscape:radius="0.45937771"
       inkscape:original="M 41.71875 2 C 38.41537 2 35.735425 4.6692903 35.71875 7.96875 L 34.09375 7.96875 L 36.65625 12.03125 L 39.25 7.96875 L 37.71875 7.96875 C 37.735755 5.77418 39.520169 4 41.71875 4 C 43.927889 4 45.71875 5.790861 45.71875 8 C 45.71875 10.209139 43.927889 12 41.71875 12 C 40.98882 12 40.307838 11.779016 39.71875 11.4375 L 38.71875 13.1875 C 39.601284 13.698032 40.625863 14 41.71875 14 C 45.032458 14 47.71875 11.313708 47.71875 8 C 47.71875 4.6862915 45.032458 2 41.71875 2 z M 41 5 L 41 8 L 41 9 L 44.25 9 L 44.25 8 L 42 8 L 42 5 L 41 5 z M 37.46875 12.21875 C 37.609506 12.360616 37.751984 12.497689 37.90625 12.625 C 37.754251 12.499711 37.606709 12.357325 37.46875 12.21875 z "
       style="opacity:0.80000000000000004;color:#000000;fill:#ffffff;fill-opacity:1;fill-rule:nonzero;stroke:none;stroke-width:3;marker:none;visibility:visible;display:inline;overflow:visible;enable-background:accumulate;filter:url(#filter3963)"
       id="path3955"
       d="m 41.71875,1.53125 c -3.388238,0 -6.142517,2.6470436 -6.40625,5.96875 l -1.21875,0 a 0.45942364,0.45942364 0 0 0 -0.375,0.71875 l 2.5625,4.0625 a 0.45942364,0.45942364 0 0 0 0.75,0 0.45942364,0.45942364 0 0 0 0.125,0.25 c 0.145719,0.146868 0.296732,0.295539 0.46875,0.4375 L 37.90625,12.625 38.1875,12.28125 c -0.13277,-0.109439 -0.272824,-0.240978 -0.40625,-0.375 a 0.45942364,0.45942364 0 0 0 -0.40625,-0.125 l 2.25,-3.5625 A 0.45942364,0.45942364 0 0 0 39.25,7.5 l -0.96875,0 c 0.196298,-1.3522006 1.103878,-2.4078174 2.375,-2.8125 A 0.45942364,0.45942364 0 0 0 40.53125,5 l 0,3 0,1 A 0.45942364,0.45942364 0 0 0 41,9.46875 l 3.25,0 A 0.45942364,0.45942364 0 0 0 44.71875,9 l 0,-1 A 0.45942364,0.45942364 0 0 0 44.25,7.53125 l -1.78125,0 0,-2.53125 A 0.45942364,0.45942364 0 0 0 42.15625,4.5625 C 43.897932,4.7872296 45.25,6.1954039 45.25,8 c 0,1.9608729 -1.570377,3.53125 -3.53125,3.53125 -0.637213,0 -1.250669,-0.192403 -1.78125,-0.5 a 0.45942364,0.45942364 0 0 0 -0.625,0.1875 l -1,1.75 a 0.45942364,0.45942364 0 0 0 0.1875,0.625 c 0.947967,0.548384 2.041245,0.875 3.21875,0.875 3.561974,0 6.46875,-2.906776 6.46875,-6.46875 0,-3.5619747 -2.906776,-6.46875 -6.46875,-6.46875 z m 0,2.9375 c 0.10062,0 0.182799,0.054343 0.28125,0.0625 l -0.59375,0 c 0.10813,-0.00987 0.201721,-0.0625 0.3125,-0.0625 z m 0.3125,0.0625 c 0.03345,0.00307 0.06059,0.027266 0.09375,0.03125 A 0.45942364,0.45942364 0 0 0 42.03125,4.53125 z"
       clip-path="url(#clipPath3959)"
       transform="translate(-30,0)" />
    <path
       inkscape:connector-curvature="0"
       style="opacity:0.9;color:#000000;fill:url(#linearGradient3077);fill-opacity:1;fill-rule:nonzero;stroke:none;stroke-width:3;marker:none;visibility:visible;display:inline;overflow:visible;enable-background:accumulate"
       d="m 11.71875,2 c -3.3033799,0 -5.9833247,2.6692903 -6,5.96875 l -1.625,0 2.5625,4.0625 2.59375,-4.0625 -1.53125,0 C 7.7357555,5.77418 9.520169,4 11.71875,4 c 2.209139,0 4,1.790861 4,4 0,2.209139 -1.790861,4 -4,4 -0.72993,0 -1.410912,-0.220984 -2,-0.5625 l -1,1.75 c 0.882534,0.510532 1.907113,0.8125 3,0.8125 3.313708,0 6,-2.686292 6,-6 0,-3.3137085 -2.686292,-6 -6,-6 z M 11,5 l 0,3 0,1 3.25,0 0,-1 L 12,8 12,5 11,5 z m -3.53125,7.21875 c 0.140756,0.141866 0.283234,0.278939 0.4375,0.40625 -0.151999,-0.125289 -0.299541,-0.267675 -0.4375,-0.40625 z"
       id="path3057" />
    <path
       style="opacity:0.4;color:#000000;fill:#000000;fill-opacity:1;fill-rule:nonzero;stroke:none;stroke-width:3;marker:none;visibility:visible;display:inline;overflow:visible;enable-background:accumulate"
       d="m 11.71875,2 c -3.3033799,0 -5.9833247,2.6692903 -6,5.96875 l -1.625,0 0.3125,0.5 1.3125,0 C 5.7354253,5.1692903 8.4153701,2.5 11.71875,2.5 c 3.231072,0 5.87061,2.5506883 6,5.75 0.0033,-0.081824 0,-0.1673639 0,-0.25 0,-3.3137085 -2.686292,-6 -6,-6 z M 11,5 11,5.5 12,5.5 12,5 11,5 z M 7.78125,7.96875 c -0.021654,0.1633938 -0.061191,0.3310021 -0.0625,0.5 l 1.21875,0 0.3125,-0.5 -1.46875,0 z M 12,8 l 0,0.5 2.25,0 0,-0.5 L 12,8 z m 3.6875,0.25 C 15.556857,10.341152 13.842829,12 11.71875,12 c -0.72993,0 -1.410912,-0.220984 -2,-0.5625 l -1,1.75 c 0.072207,0.04177 0.1446813,0.08607 0.21875,0.125 l 0.78125,-1.375 c 0.589088,0.341516 1.27007,0.5625 2,0.5625 2.209139,0 4,-1.790861 4,-4 0,-0.08506 -0.02602,-0.1662587 -0.03125,-0.25 z m -8.21875,3.96875 c 0.140756,0.141866 0.283234,0.278939 0.4375,0.40625 -0.151999,-0.125289 -0.299541,-0.267675 -0.4375,-0.40625 z m 0,0.5 c 0.137959,0.138575 0.285501,0.280961 0.4375,0.40625 -0.154266,-0.127311 -0.296744,-0.264384 -0.4375,-0.40625 z"
       id="path3935"
       inkscape:connector-curvature="0" />
  </g>
</svg>
