<?xml version="1.0" encoding="UTF-8" standalone="no"?>
<!-- Created with Inkscape (http://www.inkscape.org/) -->

<svg
   xmlns:dc="http://purl.org/dc/elements/1.1/"
   xmlns:cc="http://creativecommons.org/ns#"
   xmlns:rdf="http://www.w3.org/1999/02/22-rdf-syntax-ns#"
   xmlns:svg="http://www.w3.org/2000/svg"
   xmlns="http://www.w3.org/2000/svg"
   xmlns:xlink="http://www.w3.org/1999/xlink"
   xmlns:sodipodi="http://sodipodi.sourceforge.net/DTD/sodipodi-0.dtd"
   xmlns:inkscape="http://www.inkscape.org/namespaces/inkscape"
   width="24"
   height="24"
   id="svg2"
   sodipodi:version="0.32"
   inkscape:version="0.48.2 r9819"
   version="1.0"
   sodipodi:docname="desura.svg"
   inkscape:output_extension="org.inkscape.output.svg.inkscape"
   style="display:inline">
  <defs
     id="defs4">
    <linearGradient
       inkscape:collect="always"
       id="linearGradient3327">
      <stop
         style="stop-color:#000000;stop-opacity:1;"
         offset="0"
         id="stop3330" />
      <stop
         style="stop-color:#000000;stop-opacity:0;"
         offset="1"
         id="stop3333" />
    </linearGradient>
    <linearGradient
       inkscape:collect="always"
       xlink:href="#linearGradient3327"
       id="linearGradient3335"
       x1="11.375"
       y1="22"
       x2="11.375"
       y2="-9.817296"
       gradientUnits="userSpaceOnUse" />
    <linearGradient
       inkscape:collect="always"
       xlink:href="#linearGradient3700"
       id="linearGradient3181"
       x1="-3.0607977"
       y1="27.258198"
       x2="-3.0607977"
       y2="7.2536583"
       gradientUnits="userSpaceOnUse"
       gradientTransform="translate(12.119372,-7.2581977)" />
    <inkscape:perspective
       sodipodi:type="inkscape:persp3d"
       inkscape:vp_x="0 : 11 : 1"
       inkscape:vp_y="0 : 1000 : 0"
       inkscape:vp_z="22 : 11 : 1"
       inkscape:persp3d-origin="11 : 7.3333333 : 1"
       id="perspective2531" />
    <linearGradient
       id="ButtonShadow"
       gradientTransform="scale(0.9883037,1.0118347)"
       x1="9.3550024"
       y1="21.742682"
       x2="9.3550024"
       y2="0.49362123"
       gradientUnits="userSpaceOnUse">
      <stop
         id="stop3277"
         offset="0"
         style="stop-color:#000000;stop-opacity:0.70588237;" />
      <stop
         id="stop3279"
         offset="1"
         style="stop-color:#000000;stop-opacity:0.15686275;" />
    </linearGradient>
    <linearGradient
       inkscape:collect="always"
       id="linearGradient3232">
      <stop
         style="stop-color:#000000;stop-opacity:1;"
         offset="0"
         id="stop3234" />
      <stop
         style="stop-color:#000000;stop-opacity:0;"
         offset="1"
         id="stop3236" />
    </linearGradient>
    <linearGradient
       gradientUnits="userSpaceOnUse"
       y2="-6.0004225"
       x2="11"
       y1="14.805666"
       x1="11"
       id="linearGradient3221"
       xlink:href="#linearGradient3232"
       inkscape:collect="always" />
    <linearGradient
       id="ButtonColor"
       x1="10.31979"
       y1="21"
       x2="10.31979"
       y2="0.99929649"
       gradientUnits="userSpaceOnUse">
      <stop
         style="stop-color:#29669f;stop-opacity:1;"
         offset="0"
         id="stop3189" />
      <stop
         style="stop-color:#88b6e0;stop-opacity:1;"
         offset="1"
         id="stop3191" />
    </linearGradient>
    <linearGradient
       inkscape:collect="always"
       xlink:href="#ButtonShadow"
       id="linearGradient38042"
       gradientUnits="userSpaceOnUse"
       gradientTransform="scale(0.9883037,1.0118347)"
       x1="9.3550024"
       y1="21.742682"
       x2="9.3550024"
       y2="0.49362123" />
    <filter
       inkscape:collect="always"
       id="filter3194"
       x="-0.18000001"
       width="1.36"
       y="-0.18000001"
       height="1.36"
       color-interpolation-filters="sRGB">
      <feGaussianBlur
         inkscape:collect="always"
         stdDeviation="1.2"
         id="feGaussianBlur3196" />
    </filter>
    <clipPath
       clipPathUnits="userSpaceOnUse"
       id="clipPath2849">
      <rect
         ry="2"
         rx="2"
         y="1"
         x="1"
         height="20"
         width="20"
         id="rect2851"
         style="fill:#ffffff;fill-opacity:1;fill-rule:evenodd;stroke:none;display:inline" />
    </clipPath>
    <linearGradient
       y2="16"
       x2="10"
       y1="1"
       x1="10"
       gradientUnits="userSpaceOnUse"
       id="linearGradient3078"
       xlink:href="#linearGradient3823"
       inkscape:collect="always"
       gradientTransform="translate(1,-1)" />
    <linearGradient
       id="linearGradient3823">
      <stop
         id="stop3825"
         offset="0"
         style="stop-color:#ffffff;stop-opacity:1;" />
      <stop
         id="stop3829"
         offset="1"
         style="stop-color:#ffffff;stop-opacity:0;" />
    </linearGradient>
    <linearGradient
       inkscape:collect="always"
       xlink:href="#linearGradient3831"
       id="linearGradient3845"
       x1="11"
       y1="19.5"
       x2="21"
       y2="19.5"
       gradientUnits="userSpaceOnUse"
       spreadMethod="reflect"
       gradientTransform="translate(1,-1)" />
    <linearGradient
       id="linearGradient3831">
      <stop
         style="stop-color:#ffffff;stop-opacity:1;"
         offset="0"
         id="stop3833" />
      <stop
         id="stop3821"
         offset="0.75"
         style="stop-color:#ffffff;stop-opacity:0.49803922;" />
      <stop
         style="stop-color:#ffffff;stop-opacity:0;"
         offset="1"
         id="stop3835" />
    </linearGradient>
    <linearGradient
       y2="16"
       x2="10"
       y1="1"
       x1="10"
       gradientTransform="translate(1,-1)"
       gradientUnits="userSpaceOnUse"
       id="linearGradient3961"
       xlink:href="#linearGradient3823"
       inkscape:collect="always" />
    <linearGradient
       inkscape:collect="always"
       xlink:href="#linearGradient3700"
       id="linearGradient3617"
       gradientUnits="userSpaceOnUse"
       x1="48"
       y1="90"
       x2="48"
       y2="5.9877172" />
    <linearGradient
       id="linearGradient3700">
      <stop
         style="stop-color:#116cad;stop-opacity:1;"
         offset="0"
         id="stop3702" />
      <stop
         style="stop-color:#2497ea;stop-opacity:1;"
         offset="1"
         id="stop3704" />
    </linearGradient>
    <linearGradient
       inkscape:collect="always"
       xlink:href="#linearGradient3899-9"
       id="linearGradient4063-2"
       gradientUnits="userSpaceOnUse"
       x1="251.56421"
       y1="625.38135"
       x2="251.56421"
       y2="989.64728"
       gradientTransform="matrix(0.03289403,0,0,0.03289403,3.59539,-16.366421)" />
    <linearGradient
       id="linearGradient3899-9">
      <stop
         style="stop-color:#fafafa;stop-opacity:1;"
         offset="0"
         id="stop3901-3" />
      <stop
         style="stop-color:#e1e1e1;stop-opacity:1;"
         offset="1"
         id="stop3903-0" />
    </linearGradient>
  </defs>
  <sodipodi:namedview
     id="base"
     pagecolor="#ffffff"
     bordercolor="#e7e7e7"
     borderopacity="1"
     inkscape:pageopacity="0.0"
     inkscape:pageshadow="2"
     inkscape:zoom="19.625111"
     inkscape:cx="16.632869"
     inkscape:cy="8.8349679"
     inkscape:document-units="px"
     inkscape:current-layer="layer3"
     showgrid="true"
     inkscape:showpageshadow="false"
     showguides="false"
     inkscape:guide-bbox="true"
     inkscape:window-width="1920"
     inkscape:window-height="1030"
     inkscape:window-x="0"
     inkscape:window-y="22"
     inkscape:window-maximized="1">
    <sodipodi:guide
       orientation="1,0"
       position="0,112"
       id="guide2383" />
    <sodipodi:guide
       orientation="0,1"
       position="26.278146,128"
       id="guide2385" />
    <sodipodi:guide
       orientation="1,0"
       position="128,54.082119"
       id="guide2387" />
    <sodipodi:guide
       orientation="0,1"
       position="78.156291,0"
       id="guide2389" />
    <sodipodi:guide
       orientation="0,1"
       position="60.863576,64.084768"
       id="guide2391" />
    <inkscape:grid
       type="xygrid"
       id="grid3672"
       visible="true"
       enabled="true"
       empspacing="8"
       snapvisiblegridlinesonly="true" />
  </sodipodi:namedview>
  <metadata
     id="metadata7">
    <rdf:RDF>
      <cc:Work
         rdf:about="">
        <dc:format>image/svg+xml</dc:format>
        <dc:type
           rdf:resource="http://purl.org/dc/dcmitype/StillImage" />
        <dc:title></dc:title>
      </cc:Work>
    </rdf:RDF>
  </metadata>
  <g
     inkscape:label="Button"
     inkscape:groupmode="layer"
     id="layer1"
     transform="translate(0,2)">
    <g
       style="display:inline"
       id="g3337"
       transform="translate(1,-1)">
      <rect
         ry="2.5"
         rx="2.5"
         y="0.5"
         x="0.5"
         height="21.5"
         width="21"
         id="rect3371"
         style="opacity:0.3;fill:url(#linearGradient3335);fill-opacity:1;stroke:none;display:inline" />
      <rect
         style="opacity:0.5;fill:#000000;fill-opacity:1;stroke:none;display:inline"
         id="rect2553"
         width="20"
         height="20"
         x="1"
         y="2"
         rx="2.3809524"
         ry="2.3255813" />
    </g>
    <rect
       style="fill:url(#linearGradient3181);fill-opacity:1;fill-rule:evenodd;stroke:none;display:inline"
       id="rect3173"
       width="20"
       height="20"
       x="2"
       y="0"
       rx="2"
       ry="2" />
    <path
       id="path3018"
       d="m -26,-1.8e-7 c -1.108,0 -2,0.89199998 -2,1.99999998 l 0,1 c 0,-1.108 0.892,-2 2,-2 l 16,0 c 1.108,0 2,0.892 2,2 l 0,-1 C -8,0.8919998 -8.892,-1.8e-7 -10,-1.8e-7 l -16,0 z"
       style="opacity:0.25;fill:#ffffff;fill-opacity:1;fill-rule:evenodd;stroke:none;display:inline"
       inkscape:connector-curvature="0" />
    <path
       style="opacity:0.15;fill:#000000;fill-opacity:1;fill-rule:evenodd;stroke:none;display:inline"
       d="m -26,19.999999 c -1.108,0 -2,-0.891999 -2,-1.999999 l 0,-1 c 0,1.108 0.892,2 2,2 l 16,0 c 1.108,0 2,-0.892 2,-2 l 0,1 c 0,1.108 -0.892,1.999999 -2,1.999999 l -16,0 z"
       id="path3020"
       inkscape:connector-curvature="0" />
    <path
       style="opacity:0.3;fill:url(#linearGradient3961);fill-opacity:1;fill-rule:evenodd;stroke:none;display:inline"
       d="M 4,0 C 2.892,0 2,0.892 2,2 l 0,16 c 0,1.108 0.892,2 2,2 l 16,0 c 1.108,0 2,-0.892 2,-2 L 22,2 C 22,0.892 21.108,0 20,0 L 4,0 z m 0,1.03125 16,0 c 0.5497,0 0.96875,0.4190495 0.96875,0.96875 l 0,16 c 0,0.5497 -0.41905,0.96875 -0.96875,0.96875 l -16,0 C 3.4502995,18.96875 3.03125,18.5497 3.03125,18 l 0,-16 C 3.03125,1.4502995 3.4502995,1.03125 4,1.03125 z"
       id="rect3050"
       inkscape:connector-curvature="0" />
    <path
       id="path3235"
       d="M 4,20 C 2.892,20 2,19.108 2,18 l 0,-1 c 0,1.108 0.892,2 2,2 l 16,0 c 1.108,0 2,-0.892 2,-2 l 0,1 c 0,1.108 -0.892,2 -2,2 L 4,20 z"
       style="opacity:0.15;fill:url(#linearGradient3845);fill-opacity:1;fill-rule:evenodd;stroke:none;display:inline"
       inkscape:connector-curvature="0" />
  </g>
  <g
     inkscape:groupmode="layer"
     id="layer2"
     inkscape:label="Highlight"
     transform="translate(0,2)"
     sodipodi:insensitive="true">
    <rect
       style="opacity:0.1;fill:#ffffff;fill-opacity:1;fill-rule:nonzero;stroke:none;display:inline;filter:url(#filter3194)"
       id="rect2410"
       width="16"
       height="16"
       x="3"
       y="3"
       rx="2"
       ry="2"
       clip-path="url(#clipPath2849)"
       transform="translate(1,-1)" />
  </g>
  <g
     inkscape:groupmode="layer"
     id="layer3"
     inkscape:label="Symbol"
     transform="translate(0,2)">
    <path
       id="path3851"
       d="m 11.99565,3.436346 0,0.0087 L 8.7941,6.2203 4.76607,5.837506 3,11.770807 l 4.29773,3.723538 0.1827,0.417593 4.51522,2.279362 0.0087,0.0087 0,-0.0087 4.51522,-2.279362 0.1827,-0.417593 L 21,11.770807 19.23393,5.837506 15.2059,6.2203 12.00435,3.445046 l -0.009,-0.0087 z"
       style="fill:#ffffff;fill-opacity:1;stroke:none;display:inline;opacity:0.2"
       inkscape:connector-curvature="0" />
    <path
       inkscape:connector-curvature="0"
       style="fill:#333333;fill-opacity:1;stroke:none;display:inline"
       d="m 11.99565,2.436346 0,0.0087 L 8.7941,5.2203 4.76607,4.837506 3,10.770807 l 4.29773,3.723538 0.1827,0.417593 4.51522,2.279362 0.0087,0.0087 0,-0.0087 4.51522,-2.279362 0.1827,-0.417593 L 21,10.770807 19.23393,4.837506 15.2059,5.2203 12.00435,2.445046 l -0.009,-0.0087 z"
       id="path3894" />
    <path
       inkscape:connector-curvature="0"
       style="fill:url(#linearGradient4063-2);fill-opacity:1;display:inline"
       d="m 12.00435,3.871822 c -0.014,-0.0049 -0.66302,0.539128 -1.44418,1.21798 C 9.42875,6.073042 9.11856,6.325379 9.0464,6.325181 8.9966,6.325049 8.19427,6.249781 7.25423,6.151184 6.31419,6.052584 5.53919,5.978354 5.53166,5.985887 c -0.0148,0.0148 -1.31317,4.308332 -1.33108,4.402127 -0.008,0.04023 0.51206,0.501204 1.78347,1.583373 l 1.79217,1.522475 0.64379,0 c 0.35279,-8.35e-4 0.70599,-0.01412 0.79169,-0.0261 l 0.15659,-0.0174 -1.88786,-1.565974 C 6.44141,11.025031 5.59359,10.30139 5.59256,10.274915 5.59156,10.248435 5.76811,9.691846 5.98405,9.030835 6.19999,8.369825 6.41496,7.684755 6.47124,7.508361 6.57281,7.190069 6.57548,7.185269 6.68004,7.186466 6.73794,7.187134 7.42619,7.264093 8.20251,7.360463 L 9.61189,7.53446 10.71677,6.586176 c 0.6077,-0.524989 1.14439,-0.991636 1.19188,-1.035283 l 0.087,-0.0783 0.86999,0.748188 c 0.47716,0.412883 1.01096,0.879595 1.19188,1.035283 l 0.33059,0.278395 1.50508,-0.182697 c 0.82887,-0.102381 1.50844,-0.183933 1.51377,-0.173997 0.017,0.031688 1.00918,3.085114 1.00918,3.105849 0,0.01094 -0.85388,0.727191 -1.89657,1.592073 l -1.89656,1.574674 0.16529,0.0174 c 0.0883,0.01198 0.44373,0.02451 0.79169,0.0261 l 0.63509,0.0087 1.78347,-1.522475 c 0.98178,-0.834471 1.78718,-1.528129 1.79217,-1.548574 0.007,-0.03062 -1.29882,-4.430768 -1.32238,-4.454326 -0.004,-0.0041 -0.78242,0.07451 -1.73127,0.173997 C 15.78822,6.250673 14.97611,6.33023 14.9275,6.32518 14.8652,6.31868 14.4184,5.955777 13.43113,5.098501 12.66023,4.429108 12.01829,3.876757 12.00435,3.871821 z m -0.0174,2.653456 -0.80039,0.809086 -0.79168,0.817787 0,0.704688 c -0.003,1.106944 0.12496,2.046565 0.38279,2.844853 0.23704,0.733912 0.51348,1.226459 0.93088,1.644272 0.14008,0.140211 0.26233,0.252296 0.2784,0.252296 0.0646,0 0.39975,-0.330228 0.57419,-0.56549 0.25946,-0.349931 0.47726,-0.779741 0.64379,-1.287579 0.27026,-0.82415 0.37603,-1.542826 0.40019,-2.731755 L 13.62252,8.152151 12.80474,7.334364 11.98695,6.525278 z m 4.90672,1.652972 c -0.008,-0.0082 -0.4732,0.04016 -1.03528,0.104399 -0.56208,0.06424 -1.04243,0.121798 -1.06139,0.121798 -0.0222,0 -0.0348,0.151325 -0.0348,0.426293 0,1.448771 -0.52133,3.195326 -1.29627,4.349927 -0.17953,0.26747 -0.19697,0.317997 -0.1218,0.269696 0.5019,-0.322517 4.07762,-3.347287 4.06283,-3.436443 C 17.39076,9.91604 16.90898,8.193559 16.89367,8.17825 z M 7.09763,8.19565 C 7.08413,8.21005 6.9657,8.637367 6.82794,9.143935 l -0.2523,0.913484 0.087,0.087 c 0.83974,0.735324 3.14421,2.665219 3.68874,3.088449 0.18892,0.146842 0.35133,0.257652 0.35669,0.252296 0.005,-0.0054 -0.0819,-0.150984 -0.2001,-0.330595 C 9.74894,12.001235 9.29371,10.487744 9.2204,8.874241 9.2085,8.612579 9.1876,8.404448 9.1769,8.404448 9.1662,8.404448 8.70081,8.346798 8.14161,8.28265 7.58242,8.2185 7.11111,8.181253 7.09763,8.19565 z m 3.01885,5.933301 -1.89657,0.0087 1.88787,0.965684 c 1.03472,0.528119 1.88685,0.951745 1.89657,0.948285 0.01,-0.0035 0.86326,-0.432325 1.89657,-0.956984 l 1.87917,-0.956985 -1.88787,-0.0087 c -1.03851,-0.0047 -2.7365,-0.0047 -3.77574,0 z"
       id="path3033" />
  </g>
</svg>
