<?xml version="1.0" encoding="UTF-8" standalone="no"?>
<!-- Created with Inkscape (http://www.inkscape.org/) -->

<svg
   xmlns:dc="http://purl.org/dc/elements/1.1/"
   xmlns:cc="http://creativecommons.org/ns#"
   xmlns:rdf="http://www.w3.org/1999/02/22-rdf-syntax-ns#"
   xmlns:svg="http://www.w3.org/2000/svg"
   xmlns="http://www.w3.org/2000/svg"
   xmlns:xlink="http://www.w3.org/1999/xlink"
   xmlns:sodipodi="http://sodipodi.sourceforge.net/DTD/sodipodi-0.dtd"
   xmlns:inkscape="http://www.inkscape.org/namespaces/inkscape"
   width="24"
   height="24"
   id="svg2"
   sodipodi:version="0.32"
   inkscape:version="0.48.0 r9654"
   version="1.0"
   sodipodi:docname="dvdrip.svg"
   inkscape:output_extension="org.inkscape.output.svg.inkscape"
   style="display:inline">
  <defs
     id="defs4">
    <linearGradient
       inkscape:collect="always"
       id="linearGradient3327">
      <stop
         style="stop-color:#000000;stop-opacity:1;"
         offset="0"
         id="stop3330" />
      <stop
         style="stop-color:#000000;stop-opacity:0;"
         offset="1"
         id="stop3333" />
    </linearGradient>
    <linearGradient
       inkscape:collect="always"
       xlink:href="#linearGradient3327"
       id="linearGradient3335"
       x1="11.375"
       y1="22"
       x2="11.375"
       y2="-9.817296"
       gradientUnits="userSpaceOnUse" />
    <linearGradient
       inkscape:collect="always"
       xlink:href="#ButtonColor"
       id="linearGradient3181"
       x1="-3.0607977"
       y1="27.258198"
       x2="-3.0607977"
       y2="7.2536583"
       gradientUnits="userSpaceOnUse"
       gradientTransform="translate(-18.880628,-6.2581977)" />
    <inkscape:perspective
       sodipodi:type="inkscape:persp3d"
       inkscape:vp_x="0 : 11 : 1"
       inkscape:vp_y="0 : 1000 : 0"
       inkscape:vp_z="22 : 11 : 1"
       inkscape:persp3d-origin="11 : 7.3333333 : 1"
       id="perspective2531" />
    <linearGradient
       id="ButtonShadow"
       gradientTransform="scale(0.9883037,1.0118347)"
       x1="9.3550024"
       y1="21.742682"
       x2="9.3550024"
       y2="0.49362123"
       gradientUnits="userSpaceOnUse">
      <stop
         id="stop3277"
         offset="0"
         style="stop-color:#000000;stop-opacity:0.70588237;" />
      <stop
         id="stop3279"
         offset="1"
         style="stop-color:#000000;stop-opacity:0.15686275;" />
    </linearGradient>
    <linearGradient
       inkscape:collect="always"
       id="linearGradient3232">
      <stop
         style="stop-color:#000000;stop-opacity:1;"
         offset="0"
         id="stop3234" />
      <stop
         style="stop-color:#000000;stop-opacity:0;"
         offset="1"
         id="stop3236" />
    </linearGradient>
    <linearGradient
       gradientUnits="userSpaceOnUse"
       y2="-6.0004225"
       x2="11"
       y1="14.805666"
       x1="11"
       id="linearGradient3221"
       xlink:href="#linearGradient3232"
       inkscape:collect="always" />
    <linearGradient
       id="ButtonColor"
       x1="10.31979"
       y1="21"
       x2="10.31979"
       y2="0.99929649"
       gradientUnits="userSpaceOnUse">
      <stop
         style="stop-color:#29669f;stop-opacity:1;"
         offset="0"
         id="stop3189" />
      <stop
         style="stop-color:#88b6e0;stop-opacity:1;"
         offset="1"
         id="stop3191" />
    </linearGradient>
    <linearGradient
       inkscape:collect="always"
       xlink:href="#ButtonShadow"
       id="linearGradient38042"
       gradientUnits="userSpaceOnUse"
       gradientTransform="scale(0.9883037,1.0118347)"
       x1="9.3550024"
       y1="21.742682"
       x2="9.3550024"
       y2="0.49362123" />
    <filter
       inkscape:collect="always"
       id="filter3194"
       x="-0.18000001"
       width="1.36"
       y="-0.18000001"
       height="1.36"
       color-interpolation-filters="sRGB">
      <feGaussianBlur
         inkscape:collect="always"
         stdDeviation="1.2"
         id="feGaussianBlur3196" />
    </filter>
    <clipPath
       clipPathUnits="userSpaceOnUse"
       id="clipPath2849">
      <rect
         ry="2"
         rx="2"
         y="1"
         x="1"
         height="20"
         width="20"
         id="rect2851"
         style="fill:#ffffff;fill-opacity:1;fill-rule:evenodd;stroke:none;display:inline" />
    </clipPath>
    <inkscape:perspective
       id="perspective2955"
       inkscape:persp3d-origin="0.5 : 0.33333333 : 1"
       inkscape:vp_z="1 : 0.5 : 1"
       inkscape:vp_y="0 : 1000 : 0"
       inkscape:vp_x="0 : 0.5 : 1"
       sodipodi:type="inkscape:persp3d" />
    <clipPath
       clipPathUnits="userSpaceOnUse"
       id="clipPath3721">
      <path
         sodipodi:type="arc"
         style="fill:#ff0000;fill-opacity:1;stroke:none"
         id="path3723"
         sodipodi:cx="47.729706"
         sodipodi:cy="47.51268"
         sodipodi:rx="28.284271"
         sodipodi:ry="28.284271"
         d="m 76.013977,47.51268 a 28.284271,28.284271 0 1 1 -56.568542,0 28.284271,28.284271 0 1 1 56.568542,0 z"
         transform="matrix(1.3435029,0,0,1.3435029,-16.124998,74.166578)" />
    </clipPath>
    <linearGradient
       id="linearGradient4640">
      <stop
         style="stop-color:#000000;stop-opacity:0;"
         offset="0"
         id="stop4642" />
      <stop
         id="stop4648"
         offset="0.93000001"
         style="stop-color:#000000;stop-opacity:0;" />
      <stop
         style="stop-color:#000000;stop-opacity:1;"
         offset="1"
         id="stop4644" />
    </linearGradient>
    <linearGradient
       inkscape:collect="always"
       xlink:href="#linearGradient4578"
       id="linearGradient4584"
       x1="47.921329"
       y1="89.668793"
       x2="47.921329"
       y2="4.7880402"
       gradientUnits="userSpaceOnUse" />
    <linearGradient
       id="linearGradient4578">
      <stop
         style="stop-color:#a0a0a0;stop-opacity:0.5411765;"
         offset="0"
         id="stop4580" />
      <stop
         style="stop-color:#a0a0a0;stop-opacity:0.34509805;"
         offset="1"
         id="stop4582" />
    </linearGradient>
    <inkscape:perspective
       id="perspective2985"
       inkscape:persp3d-origin="0.5 : 0.33333333 : 1"
       inkscape:vp_z="1 : 0.5 : 1"
       inkscape:vp_y="0 : 1000 : 0"
       inkscape:vp_x="0 : 0.5 : 1"
       sodipodi:type="inkscape:persp3d" />
    <clipPath
       clipPathUnits="userSpaceOnUse"
       id="clipPath4187">
      <path
         style="fill:#bbb1bf;fill-opacity:1;stroke:none"
         d="m 48,102 c -19.88225,0 -36,16.11775 -36,36 0,19.88225 16.11775,36 36,36 19.88225,0 36,-16.11775 36,-36 0,-19.88225 -16.11775,-36 -36,-36 z m 0,24 c 6.62742,0 12,5.37258 12,12 0,6.62742 -5.37258,12 -12,12 -6.62742,0 -12,-5.37258 -12,-12 0,-6.62742 5.37258,-12 12,-12 z"
         id="path4189"
         inkscape:connector-curvature="0" />
    </clipPath>
    <filter
       inkscape:collect="always"
       id="filter4195"
       x="-0.18000001"
       width="1.36"
       y="-0.18000001"
       height="1.36"
       color-interpolation-filters="sRGB">
      <feGaussianBlur
         inkscape:collect="always"
         stdDeviation="5.2159999"
         id="feGaussianBlur4197" />
    </filter>
    <clipPath
       clipPathUnits="userSpaceOnUse"
       id="clipPath4031">
      <path
         id="path4033"
         d="M 48,32 C 28.117749,32 12,48.117749 12,68 12,87.882251 28.117749,104 48,104 67.882251,104 84,87.882251 84,68 84,48.117749 67.882251,32 48,32 z m 0,24 c 6.627417,0 12,5.372583 12,12 0,6.627417 -5.372583,12 -12,12 -6.627417,0 -12,-5.372583 -12,-12 0,-6.627417 5.372583,-12 12,-12 z"
         style="fill:#bbb1bf;fill-opacity:1;stroke:none"
         inkscape:connector-curvature="0" />
    </clipPath>
    <filter
       inkscape:collect="always"
       id="filter4035"
       x="-0.19037074"
       width="1.3807415"
       y="-0.1707008"
       height="1.3414016"
       color-interpolation-filters="sRGB">
      <feGaussianBlur
         inkscape:collect="always"
         stdDeviation="4.9476562"
         id="feGaussianBlur4037" />
    </filter>
    <linearGradient
       id="linearGradient3342">
      <stop
         id="stop3344"
         offset="0"
         style="stop-color:#000000;stop-opacity:0;" />
      <stop
         style="stop-color:#000000;stop-opacity:0;"
         offset="0.85000002"
         id="stop3350" />
      <stop
         id="stop3346"
         offset="1"
         style="stop-color:#000000;stop-opacity:1;" />
    </linearGradient>
    <linearGradient
       id="linearGradient3330">
      <stop
         id="stop3332"
         offset="0"
         style="stop-color:#ffffff;stop-opacity:0.203125;" />
      <stop
         id="stop3334"
         offset="1"
         style="stop-color:#ffffff;stop-opacity:0.6796875;" />
    </linearGradient>
    <linearGradient
       inkscape:collect="always"
       xlink:href="#linearGradient3362"
       id="linearGradient4004"
       gradientUnits="userSpaceOnUse"
       x1="25.220379"
       y1="61.92226"
       x2="94.567612"
       y2="61.92226" />
    <linearGradient
       id="linearGradient3362">
      <stop
         id="stop3364"
         offset="0"
         style="stop-color:#4d4d4d;stop-opacity:1;" />
      <stop
         id="stop3366"
         offset="1"
         style="stop-color:#ffffff;stop-opacity:1;" />
    </linearGradient>
    <inkscape:perspective
       id="perspective3036"
       inkscape:persp3d-origin="0.5 : 0.33333333 : 1"
       inkscape:vp_z="1 : 0.5 : 1"
       inkscape:vp_y="0 : 1000 : 0"
       inkscape:vp_x="0 : 0.5 : 1"
       sodipodi:type="inkscape:persp3d" />
    <clipPath
       clipPathUnits="userSpaceOnUse"
       id="clipPath3721-6">
      <path
         sodipodi:type="arc"
         style="fill:#ff0000;fill-opacity:1;stroke:none"
         id="path3723-3"
         sodipodi:cx="47.729706"
         sodipodi:cy="47.51268"
         sodipodi:rx="28.284271"
         sodipodi:ry="28.284271"
         d="m 76.013977,47.51268 a 28.284271,28.284271 0 1 1 -56.568542,0 28.284271,28.284271 0 1 1 56.568542,0 z"
         transform="matrix(1.3435029,0,0,1.3435029,-16.124998,74.166578)" />
    </clipPath>
    <radialGradient
       inkscape:collect="always"
       xlink:href="#linearGradient4640-0"
       id="radialGradient4646-5"
       cx="46.467018"
       cy="47.765217"
       fx="46.467018"
       fy="47.765217"
       r="35.860416"
       gradientUnits="userSpaceOnUse" />
    <linearGradient
       id="linearGradient4640-0">
      <stop
         style="stop-color:#000000;stop-opacity:0;"
         offset="0"
         id="stop4642-1" />
      <stop
         id="stop4648-2"
         offset="0.93000001"
         style="stop-color:#000000;stop-opacity:0;" />
      <stop
         style="stop-color:#000000;stop-opacity:1;"
         offset="1"
         id="stop4644-6" />
    </linearGradient>
    <linearGradient
       inkscape:collect="always"
       xlink:href="#linearGradient4578-8"
       id="linearGradient4584-4"
       x1="47.921329"
       y1="89.668793"
       x2="47.921329"
       y2="4.7880402"
       gradientUnits="userSpaceOnUse" />
    <linearGradient
       id="linearGradient4578-8">
      <stop
         style="stop-color:#a0a0a0;stop-opacity:0.5411765;"
         offset="0"
         id="stop4580-5" />
      <stop
         style="stop-color:#a0a0a0;stop-opacity:0.34509805;"
         offset="1"
         id="stop4582-6" />
    </linearGradient>
    <linearGradient
       gradientTransform="matrix(0.25752987,0,0,0.25752987,-33.965345,-6.9315051)"
       y2="4.7880402"
       x2="47.921329"
       y1="89.668793"
       x1="47.921329"
       gradientUnits="userSpaceOnUse"
       id="linearGradient3056"
       xlink:href="#linearGradient4578-8"
       inkscape:collect="always" />
    <linearGradient
       inkscape:collect="always"
       xlink:href="#ButtonColor"
       id="linearGradient3804"
       gradientUnits="userSpaceOnUse"
       gradientTransform="translate(11.119372,25.741802)"
       x1="-3.0607977"
       y1="27.258198"
       x2="-3.0607977"
       y2="7.2536583" />
    <linearGradient
       inkscape:collect="always"
       xlink:href="#linearGradient4578-8"
       id="linearGradient3806"
       gradientUnits="userSpaceOnUse"
       gradientTransform="translate(12.119372,-5.2581977)"
       x1="-3.0607977"
       y1="27.258198"
       x2="-3.0607977"
       y2="7.2536583" />
    <linearGradient
       inkscape:collect="always"
       xlink:href="#ButtonColor"
       id="linearGradient3823"
       gradientUnits="userSpaceOnUse"
       gradientTransform="translate(11.119372,-34.258198)"
       x1="-3.0607977"
       y1="27.258198"
       x2="-3.0607977"
       y2="7.2536583" />
    <linearGradient
       inkscape:collect="always"
       xlink:href="#ButtonColor"
       id="linearGradient3835"
       gradientUnits="userSpaceOnUse"
       gradientTransform="translate(41.119372,-34.258198)"
       x1="-3.0607977"
       y1="27.258198"
       x2="-3.0607977"
       y2="7.2536583" />
    <linearGradient
       inkscape:collect="always"
       xlink:href="#ButtonColor"
       id="linearGradient3844"
       gradientUnits="userSpaceOnUse"
       gradientTransform="translate(-18.880628,-4.258198)"
       x1="-3.0607977"
       y1="27.258198"
       x2="-3.0607977"
       y2="7.2536583" />
    <linearGradient
       inkscape:collect="always"
       xlink:href="#ButtonColor"
       id="linearGradient3856"
       gradientUnits="userSpaceOnUse"
       gradientTransform="translate(-18.880628,-36.258198)"
       x1="-3.0607977"
       y1="27.258198"
       x2="-3.0607977"
       y2="7.2536583" />
    <linearGradient
       inkscape:collect="always"
       xlink:href="#ButtonColor"
       id="linearGradient3865"
       gradientUnits="userSpaceOnUse"
       gradientTransform="translate(-18.880628,23.741802)"
       x1="-3.0607977"
       y1="27.258198"
       x2="-3.0607977"
       y2="7.2536583" />
    <linearGradient
       inkscape:collect="always"
       xlink:href="#ButtonColor"
       id="linearGradient3871"
       gradientUnits="userSpaceOnUse"
       gradientTransform="translate(-18.880628,-6.258198)"
       x1="-3.0607977"
       y1="27.258198"
       x2="-3.0607977"
       y2="7.2536583" />
    <clipPath
       clipPathUnits="userSpaceOnUse"
       id="clipPath3873">
      <path
         id="path3875"
         d="m -27,3 c -1.108,0 -2,0.892 -2,2 l 0,8 c 0,-5.522847 4.477152,-10 10,-10 l -8,0 z m 8,0 c 5.522848,0 10,4.477153 10,10 L -9,5 C -9,3.892 -9.892,3 -11,3 l -8,0 z m 10,10 c 0,5.522847 -4.477152,10 -10,10 l 8,0 c 1.108,0 2,-0.892 2,-2 l 0,-8 z m -10,10 c -5.522848,0 -10,-4.477153 -10,-10 l 0,8 c 0,1.108 0.892,2 2,2 l 8,0 z"
         style="fill:url(#linearGradient3877);fill-opacity:1;fill-rule:evenodd;stroke:none;display:inline"
         inkscape:connector-curvature="0" />
    </clipPath>
    <linearGradient
       inkscape:collect="always"
       xlink:href="#ButtonColor"
       id="linearGradient3877"
       gradientUnits="userSpaceOnUse"
       gradientTransform="translate(-18.880628,-4.258198)"
       x1="-3.0607977"
       y1="27.258198"
       x2="-3.0607977"
       y2="7.2536583" />
    <filter
       inkscape:collect="always"
       id="filter3883"
       color-interpolation-filters="sRGB">
      <feGaussianBlur
         inkscape:collect="always"
         stdDeviation="0.8"
         id="feGaussianBlur3885" />
    </filter>
    <linearGradient
       inkscape:collect="always"
       xlink:href="#ButtonColor"
       id="linearGradient3887"
       gradientUnits="userSpaceOnUse"
       gradientTransform="translate(11.119372,25.741802)"
       x1="-3.0607977"
       y1="27.258198"
       x2="-3.0607977"
       y2="7.2536583" />
    <linearGradient
       inkscape:collect="always"
       xlink:href="#ButtonColor"
       id="linearGradient3889"
       gradientUnits="userSpaceOnUse"
       gradientTransform="translate(11.119372,-34.258198)"
       x1="-3.0607977"
       y1="27.258198"
       x2="-3.0607977"
       y2="7.2536583" />
    <linearGradient
       inkscape:collect="always"
       xlink:href="#ButtonColor"
       id="linearGradient2942"
       gradientUnits="userSpaceOnUse"
       gradientTransform="translate(11.119372,-4.258198)"
       x1="-3.0607977"
       y1="27.258198"
       x2="-3.0607977"
       y2="7.2536583" />
    <linearGradient
       inkscape:collect="always"
       xlink:href="#linearGradient3327"
       id="linearGradient2946"
       gradientUnits="userSpaceOnUse"
       x1="11.375"
       y1="22"
       x2="11.375"
       y2="-9.817296"
       gradientTransform="translate(1,1)" />
    <inkscape:perspective
       id="perspective2958"
       inkscape:persp3d-origin="0.5 : 0.33333333 : 1"
       inkscape:vp_z="1 : 0.5 : 1"
       inkscape:vp_y="0 : 1000 : 0"
       inkscape:vp_x="0 : 0.5 : 1"
       sodipodi:type="inkscape:persp3d" />
    <linearGradient
       inkscape:collect="always"
       xlink:href="#linearGradient3831"
       id="linearGradient3845"
       x1="11"
       y1="19.5"
       x2="21"
       y2="19.5"
       gradientUnits="userSpaceOnUse"
       spreadMethod="reflect"
       gradientTransform="translate(1,-1)" />
    <linearGradient
       id="linearGradient3831">
      <stop
         style="stop-color:#ffffff;stop-opacity:1;"
         offset="0"
         id="stop3833" />
      <stop
         id="stop3821"
         offset="0.75"
         style="stop-color:#ffffff;stop-opacity:0.49803922;" />
      <stop
         style="stop-color:#ffffff;stop-opacity:0;"
         offset="1"
         id="stop3835" />
    </linearGradient>
    <linearGradient
       y2="16"
       x2="10"
       y1="1"
       x1="10"
       gradientUnits="userSpaceOnUse"
       id="linearGradient3084"
       xlink:href="#linearGradient3823-2"
       inkscape:collect="always" />
    <linearGradient
       id="linearGradient3823-2">
      <stop
         id="stop3825"
         offset="0"
         style="stop-color:#ffffff;stop-opacity:1;" />
      <stop
         id="stop3829"
         offset="1"
         style="stop-color:#ffffff;stop-opacity:0;" />
    </linearGradient>
    <linearGradient
       y2="16"
       x2="10"
       y1="1"
       x1="10"
       gradientUnits="userSpaceOnUse"
       id="linearGradient3078"
       xlink:href="#linearGradient3823-2"
       inkscape:collect="always"
       gradientTransform="translate(1,-1)" />
    <linearGradient
       inkscape:collect="always"
       xlink:href="#linearGradient3958"
       id="linearGradient3964"
       x1="40"
       y1="96"
       x2="40"
       y2="64"
       gradientUnits="userSpaceOnUse" />
    <linearGradient
       inkscape:collect="always"
       id="linearGradient3958">
      <stop
         style="stop-color:#002e93;stop-opacity:1;"
         offset="0"
         id="stop3960" />
      <stop
         style="stop-color:#2f62c6;stop-opacity:1"
         offset="1"
         id="stop3962" />
    </linearGradient>
    <linearGradient
       inkscape:collect="always"
       xlink:href="#linearGradient3958"
       id="linearGradient3911"
       gradientUnits="userSpaceOnUse"
       gradientTransform="translate(12.119372,-7.258198)"
       x1="-3.0607977"
       y1="30.322872"
       x2="-3.0607977"
       y2="20.35194" />
    <linearGradient
       inkscape:collect="always"
       xlink:href="#ButtonColor"
       id="linearGradient3943"
       gradientUnits="userSpaceOnUse"
       gradientTransform="translate(11.119372,25.741802)"
       x1="-3.0607977"
       y1="27.258198"
       x2="-3.0607977"
       y2="7.2536583" />
  </defs>
  <sodipodi:namedview
     id="base"
     pagecolor="#ffffff"
     bordercolor="#e7e7e7"
     borderopacity="1"
     inkscape:pageopacity="0.0"
     inkscape:pageshadow="2"
     inkscape:zoom="19.798293"
     inkscape:cx="-0.2277899"
     inkscape:cy="10.028537"
     inkscape:document-units="px"
     inkscape:current-layer="layer1"
     showgrid="true"
     inkscape:showpageshadow="false"
     showguides="false"
     inkscape:guide-bbox="true"
     inkscape:window-width="1920"
     inkscape:window-height="1026"
     inkscape:window-x="0"
     inkscape:window-y="25"
     inkscape:window-maximized="1"
     inkscape:snap-global="false">
    <sodipodi:guide
       orientation="1,0"
       position="0,112"
       id="guide2383" />
    <sodipodi:guide
       orientation="0,1"
       position="26.278146,128"
       id="guide2385" />
    <sodipodi:guide
       orientation="1,0"
       position="128,54.082119"
       id="guide2387" />
    <sodipodi:guide
       orientation="0,1"
       position="78.156291,0"
       id="guide2389" />
    <sodipodi:guide
       orientation="0,1"
       position="60.863576,64.084768"
       id="guide2391" />
    <inkscape:grid
       type="xygrid"
       id="grid3672"
       visible="true"
       enabled="true"
       empspacing="8"
       snapvisiblegridlinesonly="true" />
  </sodipodi:namedview>
  <metadata
     id="metadata7">
    <rdf:RDF>
      <cc:Work
         rdf:about="">
        <dc:format>image/svg+xml</dc:format>
        <dc:type
           rdf:resource="http://purl.org/dc/dcmitype/StillImage" />
        <dc:title></dc:title>
      </cc:Work>
    </rdf:RDF>
  </metadata>
  <g
     inkscape:groupmode="layer"
     id="layer3"
     inkscape:label="Shadow"
     style="display:inline"
     sodipodi:insensitive="true">
    <path
       style="opacity:0.3;fill:url(#linearGradient2946);fill-opacity:1;stroke:none;display:inline"
       d="M 4,1.5 C 2.615,1.5 1.5,2.615 1.5,4 l 0,16.5 C 1.5,21.885 2.615,23 4,23 l 16,0 c 1.385,0 2.5,-1.115 2.5,-2.5 L 22.5,4 C 22.5,2.615 21.385,1.5 20,1.5 L 4,1.5 z M 4,2 20,2 c 1.108,0 2,0.892 2,2 l 0,16 c 0,1.108 -0.892,2 -2,2 L 4,22 C 2.892,22 2,21.108 2,20 L 2,4 C 2,2.892 2.892,2 4,2 z"
       id="rect3371"
       inkscape:connector-curvature="0" />
    <path
       style="opacity:0.5;fill:#000000;fill-opacity:1;stroke:none;display:inline"
       d="m 2,20 0,0.6875 C 2,21.975872 3.0559524,23 4.375,23 l 15.25,0 C 20.944048,23 22,21.975872 22,20.6875 L 22,20 c 0,1.108 -0.892,2 -2,2 L 4,22 C 2.892,22 2,21.108 2,20 z"
       id="rect2553"
       inkscape:connector-curvature="0" />
    <rect
       ry="2"
       rx="2"
       y="33"
       x="1"
       height="20"
       width="20"
       id="rect2937"
       style="fill:url(#linearGradient3943);fill-opacity:1;fill-rule:evenodd;stroke:none;display:inline" />
  </g>
  <g
     inkscape:groupmode="layer"
     id="layer4"
     inkscape:label="Box"
     style="display:inline"
     sodipodi:insensitive="true">
    <rect
       ry="2"
       rx="2"
       y="2"
       x="2"
       height="20"
       width="20"
       id="rect3798"
       style="fill:url(#linearGradient3806);fill-opacity:1;fill-rule:evenodd;stroke:none;display:inline" />
    <path
       style="opacity:0.4;fill:#ffffff;fill-opacity:1;stroke:none"
       d="M 7.4375,2 C 5.031701,3.098934 3.098934,5.031701 2,7.4375 L 2,12 C 2,6.477153 6.477152,2 12,2 L 7.4375,2 z M 12,2 c 5.522848,0 10,4.477153 10,10 L 22,7.4375 C 20.901066,5.031701 18.968299,3.098934 16.5625,2 L 12,2 z m 10,10 c 0,5.522847 -4.477152,10 -10,10 l 4.5625,0 C 18.968299,20.901066 20.901066,18.968299 22,16.5625 L 22,12 z M 12,22 C 6.477152,22 2,17.522847 2,12 l 0,4.5625 C 3.098934,18.968299 5.031701,20.901066 7.4375,22 L 12,22 z"
       id="path3830"
       inkscape:connector-curvature="0" />
    <rect
       style="fill:url(#linearGradient3887);fill-opacity:1;fill-rule:evenodd;stroke:none;display:inline"
       id="rect3802"
       width="20"
       height="20"
       x="1"
       y="33"
       rx="2"
       ry="2" />
    <path
       transform="matrix(0.99298249,0,0,0.98864624,30.122807,0.14585176)"
       d="m 21.024734,13.001767 a 10.070671,10.114841 0 1 1 -20.14134167,0 10.070671,10.114841 0 1 1 20.14134167,0 z"
       sodipodi:ry="10.114841"
       sodipodi:rx="10.070671"
       sodipodi:cy="13.001767"
       sodipodi:cx="10.954063"
       id="path3810"
       style="opacity:0.6;fill:#000000;fill-opacity:1;stroke:none"
       sodipodi:type="arc" />
    <path
       sodipodi:type="arc"
       style="opacity:0.6;fill:#000000;fill-opacity:1;stroke:none"
       id="path3812"
       sodipodi:cx="10.954063"
       sodipodi:cy="13.001767"
       sodipodi:rx="10.070671"
       sodipodi:ry="10.114841"
       d="m 21.024734,13.001767 a 10.070671,10.114841 0 1 1 -20.14134167,0 10.070671,10.114841 0 1 1 20.14134167,0 z"
       transform="matrix(0.29789475,0,0,0.29659387,37.736842,9.143756)" />
    <path
       style="opacity:0.6;fill:#000000;fill-opacity:1;stroke:none"
       d="m 41,33 c -5.522848,0 -10,4.477153 -10,10 0,5.522847 4.477152,10 10,10 5.522848,0 10,-4.477153 10,-10 0,-5.522847 -4.477152,-10 -10,-10 z m 0,7 c 1.656854,0 3,1.343146 3,3 0,1.656854 -1.343146,3 -3,3 -1.656854,0 -3,-1.343146 -3,-3 0,-1.656854 1.343146,-3 3,-3 z"
       id="path3814"
       inkscape:connector-curvature="0" />
    <path
       id="path3819"
       d="M 12,2 C 6.477152,2 2,6.477153 2,12 2,17.522847 6.477152,22 12,22 17.522848,22 22,17.522847 22,12 22,6.477153 17.522848,2 12,2 z m 0,7 c 1.656854,0 3,1.343146 3,3 0,1.656854 -1.343146,3 -3,3 -1.656854,0 -3,-1.343146 -3,-3 0,-1.656854 1.343146,-3 3,-3 z"
       style="opacity:0.3;fill:#000000;fill-opacity:1;stroke:none"
       inkscape:connector-curvature="0" />
    <path
       style="fill:url(#linearGradient3889);fill-opacity:1;fill-rule:evenodd;stroke:none;display:inline"
       d="m 3,-27 c -1.108,0 -2,0.892 -2,2 l 0,8 c 0,-5.522847 4.4771525,-10 10,-10 l -8,0 z m 8,0 c 5.522848,0 10,4.477153 10,10 l 0,-8 c 0,-1.108 -0.892,-2 -2,-2 l -8,0 z m 10,10 c 0,5.522847 -4.477152,10 -10,10 l 8,0 c 1.108,0 2,-0.892 2,-2 l 0,-8 z M 11,-7 C 5.4771525,-7 1,-11.477153 1,-17 l 0,8 c 0,1.108 0.892,2 2,2 l 8,0 z"
       id="rect3821"
       inkscape:connector-curvature="0" />
  </g>
  <g
     inkscape:groupmode="layer"
     id="layer5"
     inkscape:label="Disc"
     sodipodi:insensitive="true">
    <path
       style="fill:#ccbb98;fill-opacity:1;stroke:none;display:inline"
       d="M 12.000034,2.9999279 C 7.0294528,2.9999279 3,7.0293804 3,11.999963 c 0,4.970581 4.0294528,9.000034 9.000034,9.000034 4.970584,0 9.000035,-4.029453 9.000035,-9.000034 0,-4.9705826 -4.029451,-9.0000351 -9.000035,-9.0000351 z m 0,6.0000236 c 1.656862,0 3.000012,1.3431495 3.000012,3.0000115 0,1.656859 -1.34315,3.000011 -3.000012,3.000011 -1.65686,0 -3.0000107,-1.343152 -3.0000107,-3.000011 0,-1.656862 1.3431507,-3.0000115 3.0000107,-3.0000115 z"
       id="path3978"
       inkscape:connector-curvature="0" />
    <path
       style="opacity:0.3;fill:#ffffff;fill-opacity:1;stroke:none;display:inline"
       d="m 12.000034,8.9999515 c -1.65686,0 -3.0000107,1.3431495 -3.0000107,3.0000115 0,1.656859 1.3431507,3.000011 3.0000107,3.000011 1.656862,0 3.000012,-1.343152 3.000012,-3.000011 0,-1.656862 -1.34315,-3.0000115 -3.000012,-3.0000115 z m 0,1.7500065 c 0.69036,0 1.250005,0.559645 1.250005,1.250005 0,0.690357 -0.559645,1.250003 -1.250005,1.250003 -0.690357,0 -1.250004,-0.559646 -1.250004,-1.250003 0,-0.69036 0.559647,-1.250005 1.250004,-1.250005 z"
       id="path3992"
       inkscape:connector-curvature="0" />
    <path
       transform="matrix(0,0.04970156,-0.05970642,0,15.69719,9.023138)"
       d="m 92.579506,61.92226 c 0,15.026829 -14.633803,27.208481 -32.685513,27.208481 -18.05171,0 -32.685512,-12.181652 -32.685512,-27.208481 0,-15.026829 14.633802,-27.208481 32.685512,-27.208481 18.05171,0 32.685513,12.181652 32.685513,27.208481 z"
       sodipodi:ry="27.208481"
       sodipodi:rx="32.685513"
       sodipodi:cy="61.92226"
       sodipodi:cx="59.893993"
       id="path4002"
       style="opacity:0.6;fill:none;stroke:url(#linearGradient4004);stroke-width:12.84998322;stroke-linecap:round;stroke-linejoin:miter;stroke-miterlimit:4;stroke-opacity:1;stroke-dasharray:none;stroke-dashoffset:0;display:inline"
       sodipodi:type="arc" />
    <path
       style="opacity:0.8;fill:#ffffff;fill-opacity:1;stroke:none;display:inline;filter:url(#filter4035)"
       d="M 57.3125,33.21875 48,68 79.1875,50 C 74.413603,41.731368 66.53496,35.689901 57.3125,33.21875 z M 48,68 16.8125,86 c 4.773897,8.268632 12.65254,14.3101 21.875,16.78125 L 48,68 z"
       id="path4018"
       clip-path="url(#clipPath4031)"
       transform="matrix(0.25000097,0,0,0.25000098,-1.16e-5,-5.0001034)"
       inkscape:connector-curvature="0" />
    <g
       id="g4175"
       clip-path="url(#clipPath4187)"
       transform="matrix(0.25000097,0,0,0.25000098,-1.16e-5,-22.500171)"
       style="opacity:0.6;display:inline;filter:url(#filter4195)">
      <path
         inkscape:transform-center-y="17.386667"
         inkscape:transform-center-x="-8.9999982"
         sodipodi:end="0.78539816"
         sodipodi:start="0.58554744"
         transform="matrix(1.5055399,0.86922388,-0.95672979,1.6571045,27.560302,21.500167)"
         d="m 60.947452,57.784124 a 20.708128,18.814091 0 0 1 -2.615496,2.905857 L 43.689098,47.38641 z"
         sodipodi:ry="18.814091"
         sodipodi:rx="20.708128"
         sodipodi:cy="47.38641"
         sodipodi:cx="43.689098"
         id="path4039"
         style="fill:#7137c8;fill-opacity:1;stroke:none"
         sodipodi:type="arc" />
      <path
         sodipodi:type="arc"
         style="fill:#00ccff;fill-opacity:1;stroke:none"
         id="path4041"
         sodipodi:cx="43.689098"
         sodipodi:cy="47.38641"
         sodipodi:rx="20.708128"
         sodipodi:ry="18.814091"
         d="m 60.779363,58.010828 a 20.708128,18.814091 0 0 1 -3.384016,3.478847 L 43.689098,47.38641 z"
         transform="matrix(1.6792116,0.4499434,-0.49523981,1.8482599,-1.8956092,30.759984)"
         sodipodi:start="0.60007623"
         sodipodi:end="0.84747542"
         inkscape:transform-center-x="-12.727923"
         inkscape:transform-center-y="15.588458" />
      <path
         inkscape:transform-center-y="12.727924"
         inkscape:transform-center-x="-15.58846"
         sodipodi:end="0.62652852"
         sodipodi:start="0.40478161"
         transform="matrix(1.7384478,0,-6.0266211e-8,1.9134595,-27.951218,47.328031)"
         d="m 62.72377,54.795738 a 20.708128,18.814091 0 0 1 -2.259683,3.622054 L 43.689098,47.38641 z"
         sodipodi:ry="18.814091"
         sodipodi:rx="20.708128"
         sodipodi:cy="47.38641"
         sodipodi:cx="43.689098"
         id="path4043"
         style="fill:#ffcc00;fill-opacity:1;stroke:none"
         sodipodi:type="arc" />
      <path
         sodipodi:type="arc"
         style="fill:#ff0000;fill-opacity:1;stroke:none"
         id="path4045"
         sodipodi:cx="43.689098"
         sodipodi:cy="47.38641"
         sodipodi:rx="20.708128"
         sodipodi:ry="18.814091"
         d="m 61.622863,56.793455 a 20.708128,18.814091 0 0 1 -1.699251,2.272761 L 43.689098,47.38641 z"
         transform="matrix(1.6792116,-0.4499434,0.4952397,1.84826,-48.830877,70.075223)"
         sodipodi:start="0.52359878"
         sodipodi:end="0.66976404"
         inkscape:transform-center-x="-17.386666"
         inkscape:transform-center-y="9.0000026" />
      <path
         inkscape:transform-center-y="15.588458"
         inkscape:transform-center-x="-12.727923"
         sodipodi:end="0.60230229"
         sodipodi:start="0.35258858"
         transform="matrix(1.6792116,0.4499434,-0.49523981,1.8482599,-1.8956092,30.759984)"
         d="m 63.123303,53.883448 a 20.708128,18.814091 0 0 1 -2.370014,4.161918 L 43.689098,47.38641 z"
         sodipodi:ry="18.814091"
         sodipodi:rx="20.708128"
         sodipodi:cy="47.38641"
         sodipodi:cx="43.689098"
         id="path4144"
         style="fill:#00ff00;fill-opacity:1;stroke:none"
         sodipodi:type="arc" />
      <path
         sodipodi:type="arc"
         style="fill:#7137c8;fill-opacity:1;stroke:none"
         id="path4155"
         sodipodi:cx="43.689098"
         sodipodi:cy="47.38641"
         sodipodi:rx="20.708128"
         sodipodi:ry="18.814091"
         d="m 60.947452,57.784124 a 20.708128,18.814091 0 0 1 -2.615496,2.905857 L 43.689098,47.38641 z"
         transform="matrix(-1.5055399,-0.86922388,0.95672979,-1.6571045,68.439684,254.49984)"
         sodipodi:start="0.58554744"
         sodipodi:end="0.78539816"
         inkscape:transform-center-x="-8.9999982"
         inkscape:transform-center-y="17.386667" />
      <path
         inkscape:transform-center-y="15.588458"
         inkscape:transform-center-x="-12.727923"
         sodipodi:end="0.84747542"
         sodipodi:start="0.60007623"
         transform="matrix(-1.6792116,-0.4499434,0.49523981,-1.8482599,97.895595,245.24003)"
         d="m 60.779363,58.010828 a 20.708128,18.814091 0 0 1 -3.384016,3.478847 L 43.689098,47.38641 z"
         sodipodi:ry="18.814091"
         sodipodi:rx="20.708128"
         sodipodi:cy="47.38641"
         sodipodi:cx="43.689098"
         id="path4157"
         style="fill:#00ccff;fill-opacity:1;stroke:none"
         sodipodi:type="arc" />
      <path
         sodipodi:type="arc"
         style="fill:#ffcc00;fill-opacity:1;stroke:none"
         id="path4159"
         sodipodi:cx="43.689098"
         sodipodi:cy="47.38641"
         sodipodi:rx="20.708128"
         sodipodi:ry="18.814091"
         d="m 62.72377,54.795738 a 20.708128,18.814091 0 0 1 -2.259683,3.622054 L 43.689098,47.38641 z"
         transform="matrix(-1.7384478,0,6.0266211e-8,-1.9134595,123.9512,228.67198)"
         sodipodi:start="0.40478161"
         sodipodi:end="0.62652852"
         inkscape:transform-center-x="-15.58846"
         inkscape:transform-center-y="12.727924" />
      <path
         inkscape:transform-center-y="9.0000026"
         inkscape:transform-center-x="-17.386666"
         sodipodi:end="0.66976404"
         sodipodi:start="0.52359878"
         transform="matrix(-1.6792116,0.4499434,-0.4952397,-1.84826,144.83086,205.92479)"
         d="m 61.622863,56.793455 a 20.708128,18.814091 0 0 1 -1.699251,2.272761 L 43.689098,47.38641 z"
         sodipodi:ry="18.814091"
         sodipodi:rx="20.708128"
         sodipodi:cy="47.38641"
         sodipodi:cx="43.689098"
         id="path4161"
         style="fill:#ff0000;fill-opacity:1;stroke:none"
         sodipodi:type="arc" />
      <path
         sodipodi:type="arc"
         style="fill:#00ff00;fill-opacity:1;stroke:none"
         id="path4163"
         sodipodi:cx="43.689098"
         sodipodi:cy="47.38641"
         sodipodi:rx="20.708128"
         sodipodi:ry="18.814091"
         d="m 63.123303,53.883448 a 20.708128,18.814091 0 0 1 -2.370014,4.161918 L 43.689098,47.38641 z"
         transform="matrix(-1.6792116,-0.4499434,0.49523981,-1.8482599,97.895595,245.24003)"
         sodipodi:start="0.35258858"
         sodipodi:end="0.60230229"
         inkscape:transform-center-x="-12.727923"
         inkscape:transform-center-y="15.588458" />
    </g>
    <path
       style="opacity:0.2;fill:#000000;fill-opacity:1;stroke:none;display:inline"
       d="m 12.000034,8.3749485 c -2.0020391,0 -3.6250131,1.6229745 -3.6250131,3.6250145 0,2.002039 1.622974,3.625013 3.6250131,3.625013 2.00204,0 3.625015,-1.622974 3.625015,-3.625013 0,-2.00204 -1.622975,-3.6250145 -3.625015,-3.6250145 z m 0,0.625003 c 1.656862,0 3.000012,1.3431495 3.000012,3.0000115 0,1.656859 -1.34315,3.000011 -3.000012,3.000011 -1.65686,0 -3.0000107,-1.343152 -3.0000107,-3.000011 0,-1.656862 1.3431507,-3.0000115 3.0000107,-3.0000115 z"
       id="path3986"
       inkscape:connector-curvature="0" />
    <path
       style="opacity:0.4;fill:#ffffff;fill-opacity:1;stroke:none;display:inline"
       d="M 12.000034,2.9999279 C 7.0294531,2.9999279 3,7.0293804 3,11.999963 c 0,0.08427 0.0055,0.166287 0.0078,0.250001 0.1334483,-4.8540728 4.1059213,-8.7500344 8.992235,-8.7500344 4.886315,0 8.858788,3.8959616 8.992223,8.7500344 0.0023,-0.08372 0.0079,-0.165734 0.0079,-0.250001 0,-4.9705826 -4.029452,-9.0000351 -9.000034,-9.0000351 z"
       id="path4199"
       sodipodi:nodetypes="cscscsc"
       inkscape:connector-curvature="0" />
  </g>
  <g
     inkscape:label="Button"
     inkscape:groupmode="layer"
     id="layer1"
     style="display:inline"
     transform="translate(0,2)">
    <path
       style="opacity:0.5;fill:none;stroke:#ffffff;stroke-linecap:butt;stroke-linejoin:miter;display:inline;filter:url(#filter3883)"
       d="m -27,3 c -1.108,0 -2,0.892 -2,2 l 0,6.375 C -28.30267,7.0831848 -24.916815,3.6973299 -20.625,3 L -27,3 z m 9.625,0 c 4.291815,0.6973299 7.6776701,4.0831848 8.375,8.375 L -9,5 C -9,3.892 -9.892,3 -11,3 l -6.375,0 z M -29,14.625 -29,21 c 0,1.108 0.892,2 2,2 l 6.375,0 C -24.916815,22.30267 -28.30267,18.916815 -29,14.625 z m 20,0 c -0.6973299,4.291815 -4.083185,7.67767 -8.375,8.375 L -11,23 c 1.108,0 2,-0.892 2,-2 l 0,-6.375 z"
       transform="translate(31,-3)"
       id="path3838"
       clip-path="url(#clipPath3873)"
       inkscape:connector-curvature="0" />
    <path
       style="fill:url(#linearGradient3911);fill-opacity:1;fill-rule:evenodd;stroke:none;display:inline"
       d="m 2,12 0,6 c 0,1.108 0.892,2 2,2 l 16,0 c 1.108,0 2,-0.892 2,-2 l 0,-6 z"
       id="rect3134"
       inkscape:connector-curvature="0"
       sodipodi:nodetypes="csssscc" />
    <path
       style="opacity:0.4;fill:url(#linearGradient3078);fill-opacity:1;fill-rule:evenodd;stroke:none;display:inline"
       d="M 4,0 C 2.892,0 2,0.892 2,2 l 0,16 c 0,1.108 0.892,2 2,2 l 16,0 c 1.108,0 2,-0.892 2,-2 L 22,2 C 22,0.892 21.108,0 20,0 L 4,0 z m 0,1.03125 16,0 c 0.5497,0 0.96875,0.4190495 0.96875,0.96875 l 0,16 c 0,0.5497 -0.41905,0.96875 -0.96875,0.96875 l -16,0 C 3.4502995,18.96875 3.03125,18.5497 3.03125,18 l 0,-16 C 3.03125,1.4502995 3.4502995,1.03125 4,1.03125 z"
       id="rect3050"
       inkscape:connector-curvature="0" />
    <path
       sodipodi:type="inkscape:offset"
       inkscape:radius="0.45176986"
       inkscape:original="M 12.875 13.625 L 12.875 14.40625 L 14.09375 14.40625 L 14.09375 13.625 L 12.875 13.625 z M 11.90625 15.28125 C 11.732579 15.281254 11.587892 15.32235 11.46875 15.40625 C 11.351623 15.4882 11.236066 15.654515 11.125 15.875 L 11.125 15.34375 L 9.96875 15.34375 L 9.96875 18.46875 L 11.21875 18.46875 L 11.21875 17.4375 C 11.218749 16.939942 11.27903 16.587715 11.40625 16.40625 C 11.4951 16.277472 11.619696 16.218752 11.78125 16.21875 C 11.86607 16.218752 11.979601 16.25397 12.125 16.3125 L 12.5 15.4375 C 12.283922 15.328236 12.087993 15.281254 11.90625 15.28125 z M 17.03125 15.28125 C 16.851763 15.281253 16.679156 15.31488 16.53125 15.40625 C 16.421568 15.47427 16.318786 15.620078 16.1875 15.8125 L 16.1875 15.34375 L 15.03125 15.34375 L 15.03125 19.4375 L 16.28125 19.4375 L 16.28125 18.15625 C 16.382624 18.278703 16.497032 18.375302 16.625 18.4375 C 16.754622 18.49969 16.875031 18.53125 17.03125 18.53125 C 17.353651 18.53125 17.63269 18.395173 17.84375 18.125 C 18.054808 17.852881 18.156246 17.452582 18.15625 16.9375 C 18.156246 16.471014 18.06944 16.066826 17.875 15.75 C 17.68222 15.43318 17.385226 15.281249 17.03125 15.28125 z M 6 15.46875 L 6 16.46875 L 7 16.46875 L 7 15.46875 L 6 15.46875 z M 8 15.46875 L 8 16.46875 L 9 16.46875 L 9 15.46875 L 8 15.46875 z M 12.875 15.53125 L 12.875 18.46875 L 14.09375 18.46875 L 14.09375 15.53125 L 12.875 15.53125 z M 16.71875 16.125 C 16.838404 16.125002 16.916903 16.225195 17 16.34375 C 17.08309 16.460373 17.156248 16.624265 17.15625 16.875 C 17.156248 17.147117 17.07976 17.354073 17 17.46875 C 16.92023 17.581486 16.836741 17.625 16.71875 17.625 C 16.584136 17.625 16.494328 17.58733 16.40625 17.46875 C 16.31817 17.350184 16.249999 17.151159 16.25 16.90625 C 16.249999 16.639966 16.28859 16.462318 16.375 16.34375 C 16.46142 16.225188 16.589121 16.125002 16.71875 16.125 z M 6 17.46875 L 6 18.46875 L 7 18.46875 L 7 17.46875 L 6 17.46875 z M 8 17.46875 L 8 18.46875 L 9 18.46875 L 9 17.46875 L 8 17.46875 z "
       style="font-size:22.99892997999999977px;font-style:normal;font-variant:normal;font-weight:normal;font-stretch:normal;text-align:start;line-height:125%;letter-spacing:0px;word-spacing:0px;writing-mode:lr-tb;text-anchor:start;opacity:0.15;fill:#000000;fill-opacity:1;stroke:none;display:inline;font-family:Arial Black;-inkscape-font-specification:'Arial Black,'"
       id="path3961"
       d="m 12.75,13.1875 a 0.45181504,0.45181504 0 0 0 -0.3125,0.4375 l 0,0.78125 a 0.45181504,0.45181504 0 0 0 0.4375,0.4375 l 1.21875,0 a 0.45181504,0.45181504 0 0 0 0.4375,-0.4375 l 0,-0.78125 a 0.45181504,0.45181504 0 0 0 -0.4375,-0.4375 l -1.21875,0 a 0.45181504,0.45181504 0 0 0 -0.125,0 z m -0.84375,1.65625 c -0.187469,4e-6 -0.361258,0.04317 -0.53125,0.125 0.0068,-0.0033 0.02435,0.0344 0.03125,0.03125 a 0.45181504,0.45181504 0 0 0 -0.03125,0 0.45181504,0.45181504 0 0 0 0,-0.03125 0.45181504,0.45181504 0 0 0 -0.25,-0.0625 l -1.15625,0 a 0.45181504,0.45181504 0 0 0 -0.4375,0.4375 l 0,3.125 a 0.45181504,0.45181504 0 0 0 0.4375,0.4375 l 1.25,0 a 0.45181504,0.45181504 0 0 0 0.4375,-0.4375 l 0,-1.03125 c -10e-7,-0.461069 0.117014,-0.769859 0.125,-0.78125 -0.04022,-1e-6 0.05944,0.01095 0.1875,0.0625 a 0.45181504,0.45181504 0 0 0 0.46875,-0.0625 l 0,1.8125 a 0.45181504,0.45181504 0 0 0 0.4375,0.4375 l 1.21875,0 a 0.45181504,0.45181504 0 0 0 0.4375,-0.4375 l 0,-2.9375 a 0.45181504,0.45181504 0 0 0 -0.4375,-0.4375 l -1.21875,0 a 0.45181504,0.45181504 0 0 0 -0.09375,0 0.45181504,0.45181504 0 0 0 -0.03125,0 0.45181504,0.45181504 0 0 0 -0.03125,-0.0625 c -0.26768,-0.135358 -0.552907,-0.187494 -0.8125,-0.1875 z m 5.125,0 c -0.178088,3e-6 -0.375583,0.08018 -0.5625,0.15625 A 0.45181504,0.45181504 0 0 0 16.1875,14.90625 l -1.15625,0 a 0.45181504,0.45181504 0 0 0 -0.4375,0.4375 l 0,4.09375 a 0.45181504,0.45181504 0 0 0 0.4375,0.4375 l 1.25,0 a 0.45181504,0.45181504 0 0 0 0.4375,-0.4375 l 0,-0.53125 c 0.106042,0.02641 0.198498,0.0625 0.3125,0.0625 0.449521,0 0.871573,-0.198092 1.15625,-0.5625 0.299593,-0.386268 0.406246,-0.894357 0.40625,-1.46875 -4e-6,-0.522529 -0.09107,-1.025773 -0.34375,-1.4375 -0.266546,-0.438048 -0.735503,-0.656251 -1.21875,-0.65625 z M 5.875,15.03125 a 0.45181504,0.45181504 0 0 0 -0.3125,0.4375 l 0,1 A 0.45181504,0.45181504 0 0 0 6,16.90625 l 1,0 a 0.45181504,0.45181504 0 0 0 0.4375,-0.4375 l 0,-1 A 0.45181504,0.45181504 0 0 0 7,15.03125 l -1,0 a 0.45181504,0.45181504 0 0 0 -0.125,0 z m 2,0 a 0.45181504,0.45181504 0 0 0 -0.3125,0.4375 l 0,1 A 0.45181504,0.45181504 0 0 0 8,16.90625 l 1,0 a 0.45181504,0.45181504 0 0 0 0.4375,-0.4375 l 0,-1 A 0.45181504,0.45181504 0 0 0 9,15.03125 l -1,0 a 0.45181504,0.45181504 0 0 0 -0.125,0 z m 8.84375,1.8125 c 6.28e-4,0.01416 0,0.01496 0,0.03125 0,0.03605 -0.02736,0.031 -0.03125,0.0625 -0.001,-0.01519 0,-0.01514 0,-0.03125 0,-0.05239 0.02783,-0.02538 0.03125,-0.0625 z M 5.875,17.03125 a 0.45181504,0.45181504 0 0 0 -0.3125,0.4375 l 0,1 A 0.45181504,0.45181504 0 0 0 6,18.90625 l 1,0 a 0.45181504,0.45181504 0 0 0 0.4375,-0.4375 l 0,-1 A 0.45181504,0.45181504 0 0 0 7,17.03125 l -1,0 a 0.45181504,0.45181504 0 0 0 -0.125,0 z m 2,0 a 0.45181504,0.45181504 0 0 0 -0.3125,0.4375 l 0,1 A 0.45181504,0.45181504 0 0 0 8,18.90625 l 1,0 a 0.45181504,0.45181504 0 0 0 0.4375,-0.4375 l 0,-1 A 0.45181504,0.45181504 0 0 0 9,17.03125 l -1,0 a 0.45181504,0.45181504 0 0 0 -0.125,0 z" />
    <path
       id="path3235"
       d="M 4,20 C 2.892,20 2,19.108 2,18 l 0,-1 c 0,1.108 0.892,2 2,2 l 16,0 c 1.108,0 2,-0.892 2,-2 l 0,1 c 0,1.108 -0.892,2 -2,2 L 4,20 z"
       style="opacity:0.2;fill:url(#linearGradient3845);fill-opacity:1;fill-rule:evenodd;stroke:none;display:inline"
       inkscape:connector-curvature="0" />
    <rect
       style="opacity:0.1;color:#000000;fill:#ffffff;fill-opacity:1;fill-rule:nonzero;stroke:none;stroke-width:0.60600001;marker:none;visibility:visible;display:inline;overflow:visible;enable-background:accumulate"
       id="rect3913"
       width="20"
       height="1"
       x="2"
       y="12" />
    <rect
       y="11"
       x="2"
       height="1"
       width="20"
       id="rect3915"
       style="opacity:0.1;color:#000000;fill:#000000;fill-opacity:1;fill-rule:nonzero;stroke:none;stroke-width:0.60600001;marker:none;visibility:visible;display:inline;overflow:visible;enable-background:accumulate" />
    <path
       id="path3957"
       d="m 12.875,13.610835 0,0.78125 1.21875,0 0,-0.78125 -1.21875,0 z m -0.96875,1.65625 c -0.173671,4e-6 -0.318358,0.0411 -0.4375,0.125 -0.117127,0.08195 -0.232684,0.248265 -0.34375,0.46875 l 0,-0.53125 -1.15625,0 0,3.125 1.25,0 0,-1.03125 c -10e-7,-0.497558 0.06028,-0.849785 0.1875,-1.03125 0.08885,-0.128778 0.213446,-0.187498 0.375,-0.1875 0.08482,2e-6 0.198351,0.03522 0.34375,0.09375 l 0.375,-0.875 c -0.216078,-0.109264 -0.412007,-0.156246 -0.59375,-0.15625 z m 5.125,0 c -0.179487,3e-6 -0.352094,0.03363 -0.5,0.125 -0.109682,0.06802 -0.212464,0.213828 -0.34375,0.40625 l 0,-0.46875 -1.15625,0 0,4.09375 1.25,0 0,-1.28125 c 0.101374,0.122453 0.215782,0.219052 0.34375,0.28125 0.129622,0.06219 0.250031,0.09375 0.40625,0.09375 0.322401,0 0.60144,-0.136077 0.8125,-0.40625 0.211058,-0.272119 0.312496,-0.672418 0.3125,-1.1875 -4e-6,-0.466486 -0.08681,-0.870674 -0.28125,-1.1875 -0.19278,-0.31682 -0.489774,-0.468751 -0.84375,-0.46875 z M 6,15.454585 l 0,1 1,0 0,-1 -1,0 z m 2,0 0,1 1,0 0,-1 -1,0 z m 4.875,0.0625 0,2.9375 1.21875,0 0,-2.9375 -1.21875,0 z m 3.84375,0.59375 c 0.119654,2e-6 0.198153,0.100195 0.28125,0.21875 0.08309,0.116623 0.156248,0.280515 0.15625,0.53125 -2e-6,0.272117 -0.07649,0.479073 -0.15625,0.59375 -0.07977,0.112736 -0.163259,0.15625 -0.28125,0.15625 -0.134614,0 -0.224422,-0.03767 -0.3125,-0.15625 -0.08808,-0.118566 -0.156251,-0.317591 -0.15625,-0.5625 -1e-6,-0.266284 0.03859,-0.443932 0.125,-0.5625 0.08642,-0.118562 0.214121,-0.218748 0.34375,-0.21875 z M 6,17.454585 l 0,1 1,0 0,-1 -1,0 z m 2,0 0,1 1,0 0,-1 -1,0 z"
       style="font-size:22.99892997999999977px;font-style:normal;font-variant:normal;font-weight:normal;font-stretch:normal;text-align:start;line-height:125%;letter-spacing:0px;word-spacing:0px;writing-mode:lr-tb;text-anchor:start;fill:#000000;fill-opacity:1;stroke:none;display:inline;font-family:Arial Black;-inkscape-font-specification:'Arial Black,';opacity:0.3"
       inkscape:connector-curvature="0" />
    <path
       style="font-size:22.99892997999999977px;font-style:normal;font-variant:normal;font-weight:normal;font-stretch:normal;text-align:start;line-height:125%;letter-spacing:0px;word-spacing:0px;writing-mode:lr-tb;text-anchor:start;fill:#f2f2f2;fill-opacity:1;stroke:none;display:inline;font-family:Arial Black;-inkscape-font-specification:'Arial Black,'"
       d="M 12.875 15.15625 L 12.875 15.9375 L 14.09375 15.9375 L 14.09375 15.15625 L 12.875 15.15625 z M 11.90625 16.8125 C 11.732579 16.812504 11.587892 16.853601 11.46875 16.9375 C 11.351623 17.01945 11.236066 17.185765 11.125 17.40625 L 11.125 16.875 L 9.96875 16.875 L 9.96875 20 L 11.21875 20 L 11.21875 18.96875 C 11.218749 18.471192 11.279026 18.118965 11.40625 17.9375 C 11.4951 17.808722 11.619696 17.750002 11.78125 17.75 C 11.86607 17.750002 11.979601 17.78522 12.125 17.84375 L 12.5 16.96875 C 12.283922 16.859486 12.087993 16.812504 11.90625 16.8125 z M 17.03125 16.8125 C 16.851763 16.812503 16.679156 16.846132 16.53125 16.9375 C 16.421568 17.00552 16.318786 17.151328 16.1875 17.34375 L 16.1875 16.875 L 15.03125 16.875 L 15.03125 20.96875 L 16.28125 20.96875 L 16.28125 19.6875 C 16.382624 19.809953 16.497032 19.906552 16.625 19.96875 C 16.754622 20.03094 16.875031 20.0625 17.03125 20.0625 C 17.353651 20.0625 17.63269 19.926423 17.84375 19.65625 C 18.054808 19.384131 18.156246 18.983832 18.15625 18.46875 C 18.156246 18.002264 18.069437 17.598076 17.875 17.28125 C 17.68222 16.96443 17.385226 16.812499 17.03125 16.8125 z M 6 17 L 6 18 L 7 18 L 7 17 L 6 17 z M 8 17 L 8 18 L 9 18 L 9 17 L 8 17 z M 12.875 17.0625 L 12.875 20 L 14.09375 20 L 14.09375 17.0625 L 12.875 17.0625 z M 16.71875 17.65625 C 16.838404 17.656252 16.916903 17.756445 17 17.875 C 17.08309 17.991623 17.156248 18.155515 17.15625 18.40625 C 17.156248 18.678367 17.079757 18.885323 17 19 C 16.92023 19.112736 16.836741 19.15625 16.71875 19.15625 C 16.584136 19.15625 16.494328 19.118583 16.40625 19 C 16.31817 18.881434 16.249999 18.682409 16.25 18.4375 C 16.249999 18.171216 16.288593 17.993568 16.375 17.875 C 16.46142 17.756438 16.589121 17.656252 16.71875 17.65625 z M 6 19 L 6 20 L 7 20 L 7 19 L 6 19 z M 8 19 L 8 20 L 9 20 L 9 19 L 8 19 z "
       transform="translate(0,-2)"
       id="path3954" />
  </g>
  <g
     inkscape:groupmode="layer"
     id="layer2"
     inkscape:label="Highlight"
     sodipodi:insensitive="true"
     style="display:none"
     transform="translate(0,2)">
    <rect
       style="opacity:0.15;fill:#ffffff;fill-opacity:1;fill-rule:nonzero;stroke:none;display:inline;filter:url(#filter3194)"
       id="rect2410"
       width="16"
       height="16"
       x="3"
       y="3"
       rx="2"
       ry="2"
       clip-path="url(#clipPath2849)" />
  </g>
</svg>
