<?xml version="1.0" encoding="UTF-8" standalone="no"?>
<!-- Created with Inkscape (http://www.inkscape.org/) -->

<svg
   xmlns:dc="http://purl.org/dc/elements/1.1/"
   xmlns:cc="http://creativecommons.org/ns#"
   xmlns:rdf="http://www.w3.org/1999/02/22-rdf-syntax-ns#"
   xmlns:svg="http://www.w3.org/2000/svg"
   xmlns="http://www.w3.org/2000/svg"
   xmlns:xlink="http://www.w3.org/1999/xlink"
   xmlns:sodipodi="http://sodipodi.sourceforge.net/DTD/sodipodi-0.dtd"
   xmlns:inkscape="http://www.inkscape.org/namespaces/inkscape"
   width="22"
   height="22"
   id="svg2"
   sodipodi:version="0.32"
   inkscape:version="0.48.0 r9654"
   version="1.0"
   sodipodi:docname="eog.svg"
   inkscape:output_extension="org.inkscape.output.svg.inkscape"
   style="display:inline">
  <defs
     id="defs4">
    <linearGradient
       inkscape:collect="always"
       id="linearGradient3697">
      <stop
         style="stop-color:#fedbc5;stop-opacity:1;"
         offset="0"
         id="stop3699" />
      <stop
         style="stop-color:#fedbc5;stop-opacity:0;"
         offset="1"
         id="stop3701" />
    </linearGradient>
    <linearGradient
       inkscape:collect="always"
       id="linearGradient3327">
      <stop
         style="stop-color:#000000;stop-opacity:1;"
         offset="0"
         id="stop3330" />
      <stop
         style="stop-color:#000000;stop-opacity:0;"
         offset="1"
         id="stop3333" />
    </linearGradient>
    <linearGradient
       inkscape:collect="always"
       xlink:href="#linearGradient3327"
       id="linearGradient3335"
       x1="11.375"
       y1="22"
       x2="11.375"
       y2="-9.817296"
       gradientUnits="userSpaceOnUse" />
    <linearGradient
       inkscape:collect="always"
       xlink:href="#linearGradient2841"
       id="linearGradient3181"
       x1="-3.0607977"
       y1="27.258198"
       x2="-3.0607977"
       y2="7.2536583"
       gradientUnits="userSpaceOnUse"
       gradientTransform="translate(11.119372,-6.2581977)" />
    <inkscape:perspective
       sodipodi:type="inkscape:persp3d"
       inkscape:vp_x="0 : 11 : 1"
       inkscape:vp_y="0 : 1000 : 0"
       inkscape:vp_z="22 : 11 : 1"
       inkscape:persp3d-origin="11 : 7.3333333 : 1"
       id="perspective2531" />
    <linearGradient
       id="ButtonShadow"
       gradientTransform="scale(0.9883037,1.0118347)"
       x1="9.3550024"
       y1="21.742682"
       x2="9.3550024"
       y2="0.49362123"
       gradientUnits="userSpaceOnUse">
      <stop
         id="stop3277"
         offset="0"
         style="stop-color:#000000;stop-opacity:0.70588237;" />
      <stop
         id="stop3279"
         offset="1"
         style="stop-color:#000000;stop-opacity:0.15686275;" />
    </linearGradient>
    <linearGradient
       inkscape:collect="always"
       id="linearGradient3232">
      <stop
         style="stop-color:#000000;stop-opacity:1;"
         offset="0"
         id="stop3234" />
      <stop
         style="stop-color:#000000;stop-opacity:0;"
         offset="1"
         id="stop3236" />
    </linearGradient>
    <linearGradient
       gradientUnits="userSpaceOnUse"
       y2="-6.0004225"
       x2="11"
       y1="14.805666"
       x1="11"
       id="linearGradient3221"
       xlink:href="#linearGradient3232"
       inkscape:collect="always" />
    <linearGradient
       id="ButtonColor"
       x1="10.31979"
       y1="21"
       x2="10.31979"
       y2="0.99929649"
       gradientUnits="userSpaceOnUse">
      <stop
         style="stop-color:#29669f;stop-opacity:1;"
         offset="0"
         id="stop3189" />
      <stop
         style="stop-color:#88b6e0;stop-opacity:1;"
         offset="1"
         id="stop3191" />
    </linearGradient>
    <linearGradient
       inkscape:collect="always"
       xlink:href="#ButtonShadow"
       id="linearGradient38042"
       gradientUnits="userSpaceOnUse"
       gradientTransform="scale(0.9883037,1.0118347)"
       x1="9.3550024"
       y1="21.742682"
       x2="9.3550024"
       y2="0.49362123" />
    <filter
       inkscape:collect="always"
       id="filter3194"
       x="-0.18000001"
       width="1.36"
       y="-0.18000001"
       height="1.36"
       color-interpolation-filters="sRGB">
      <feGaussianBlur
         inkscape:collect="always"
         stdDeviation="1.2"
         id="feGaussianBlur3196" />
    </filter>
    <clipPath
       clipPathUnits="userSpaceOnUse"
       id="clipPath2849">
      <rect
         ry="2"
         rx="2"
         y="1"
         x="1"
         height="20"
         width="20"
         id="rect2851"
         style="fill:#ffffff;fill-opacity:1;fill-rule:evenodd;stroke:none;display:inline" />
    </clipPath>
    <inkscape:perspective
       id="perspective3818"
       inkscape:persp3d-origin="0.5 : 0.33333333 : 1"
       inkscape:vp_z="1 : 0.5 : 1"
       inkscape:vp_y="0 : 1000 : 0"
       inkscape:vp_x="0 : 0.5 : 1"
       sodipodi:type="inkscape:persp3d" />
    <linearGradient
       inkscape:collect="always"
       xlink:href="#linearGradient2841"
       id="linearGradient3617"
       gradientUnits="userSpaceOnUse"
       x1="48"
       y1="90"
       x2="48"
       y2="5.9877172" />
    <linearGradient
       id="linearGradient2841">
      <stop
         id="stop2843"
         offset="0"
         style="stop-color:#d89a6d;stop-opacity:1" />
      <stop
         id="stop2845"
         offset="1"
         style="stop-color:#fed4be;stop-opacity:1" />
    </linearGradient>
    <clipPath
       clipPathUnits="userSpaceOnUse"
       id="clipPath3669">
      <rect
         style="fill:#ff00ff;fill-opacity:1;fill-rule:evenodd;stroke:none;display:inline"
         id="rect3671"
         width="20"
         height="20"
         x="-29"
         y="1"
         rx="2"
         ry="2" />
    </clipPath>
    <filter
       inkscape:collect="always"
       id="filter3685"
       x="-0.24963054"
       width="1.4992611"
       y="-0.64531302"
       height="2.290626"
       color-interpolation-filters="sRGB">
      <feGaussianBlur
         inkscape:collect="always"
         stdDeviation="1.6847895"
         id="feGaussianBlur3687" />
    </filter>
    <clipPath
       clipPathUnits="userSpaceOnUse"
       id="clipPath3689">
      <rect
         ry="2"
         rx="2"
         y="1"
         x="-29"
         height="20"
         width="20"
         id="rect3691"
         style="fill:#ff00ff;fill-opacity:1;fill-rule:evenodd;stroke:none;display:inline" />
    </clipPath>
    <filter
       inkscape:collect="always"
       id="filter3693"
       x="-0.25513309"
       width="1.5102662"
       y="-0.13905133"
       height="1.2781028"
       color-interpolation-filters="sRGB">
      <feGaussianBlur
         inkscape:collect="always"
         stdDeviation="1.1587612"
         id="feGaussianBlur3695" />
    </filter>
    <linearGradient
       inkscape:collect="always"
       xlink:href="#linearGradient3697"
       id="linearGradient3703"
       x1="-10"
       y1="12"
       x2="-10"
       y2="22"
       gradientUnits="userSpaceOnUse" />
    <inkscape:perspective
       id="perspective3847"
       inkscape:persp3d-origin="0.5 : 0.33333333 : 1"
       inkscape:vp_z="1 : 0.5 : 1"
       inkscape:vp_y="0 : 1000 : 0"
       inkscape:vp_x="0 : 0.5 : 1"
       sodipodi:type="inkscape:persp3d" />
    <radialGradient
       inkscape:collect="always"
       xlink:href="#linearGradient3739"
       id="radialGradient3750"
       gradientUnits="userSpaceOnUse"
       cx="51.770317"
       cy="56.477783"
       fx="51.770317"
       fy="56.477783"
       r="10.732871" />
    <linearGradient
       inkscape:collect="always"
       id="linearGradient3739">
      <stop
         style="stop-color:#ffffff;stop-opacity:1;"
         offset="0"
         id="stop3742" />
      <stop
         style="stop-color:#ffffff;stop-opacity:0;"
         offset="1"
         id="stop3744" />
    </linearGradient>
    <radialGradient
       inkscape:collect="always"
       xlink:href="#linearGradient3739"
       id="radialGradient3746"
       cx="51.770317"
       cy="56.477783"
       fx="51.770317"
       fy="56.477783"
       r="10.732871"
       gradientUnits="userSpaceOnUse" />
    <linearGradient
       gradientTransform="matrix(0.25766664,0,0,0.25457601,-1.7956815,-1.5316794)"
       inkscape:collect="always"
       xlink:href="#linearGradient3731"
       id="linearGradient3738"
       x1="39.120537"
       y1="62.960247"
       x2="69.125"
       y2="69.617165"
       gradientUnits="userSpaceOnUse" />
    <linearGradient
       inkscape:collect="always"
       id="linearGradient3731">
      <stop
         style="stop-color:#d35f5f;stop-opacity:1;"
         offset="0"
         id="stop3733" />
      <stop
         style="stop-color:#d35f5f;stop-opacity:0;"
         offset="1"
         id="stop3735" />
    </linearGradient>
    <linearGradient
       inkscape:collect="always"
       xlink:href="#linearGradient3731"
       id="linearGradient3866"
       x1="39.120537"
       y1="62.960247"
       x2="69.125"
       y2="69.617165"
       gradientUnits="userSpaceOnUse" />
    <linearGradient
       gradientTransform="matrix(0.25766664,0,0,0.25457601,-1.7956815,-1.5316794)"
       inkscape:collect="always"
       xlink:href="#linearGradient3722"
       id="linearGradient3728"
       x1="70.598213"
       y1="64.776787"
       x2="73.64286"
       y2="66.383926"
       gradientUnits="userSpaceOnUse" />
    <linearGradient
       id="linearGradient3722">
      <stop
         style="stop-color:#eaac96;stop-opacity:1;"
         offset="0"
         id="stop3724" />
      <stop
         style="stop-color:#db6f49;stop-opacity:1;"
         offset="1"
         id="stop3726" />
    </linearGradient>
    <radialGradient
       inkscape:collect="always"
       xlink:href="#linearGradient3702"
       id="radialGradient3713"
       cx="47.035229"
       cy="28.843788"
       fx="47.035229"
       fy="28.843788"
       r="30.110098"
       gradientTransform="matrix(0.99999991,0.3024614,-0.12745446,0.42139078,-54.323726,-7.9576224)"
       gradientUnits="userSpaceOnUse" />
    <linearGradient
       id="linearGradient3702">
      <stop
         style="stop-color:#000000;stop-opacity:1;"
         offset="0"
         id="stop3705" />
      <stop
         id="stop3711"
         offset="0.5"
         style="stop-color:#000000;stop-opacity:0.70161289;" />
      <stop
         style="stop-color:#000000;stop-opacity:0;"
         offset="1"
         id="stop3707" />
    </linearGradient>
    <filter
       color-interpolation-filters="sRGB"
       inkscape:collect="always"
       id="filter3756">
      <feGaussianBlur
         inkscape:collect="always"
         stdDeviation="0.63548831"
         id="feGaussianBlur3758" />
    </filter>
    <radialGradient
       inkscape:collect="always"
       xlink:href="#linearGradient6139"
       id="radialGradient6145"
       cx="51.770317"
       cy="56.477783"
       fx="51.770317"
       fy="56.477783"
       r="10.732871"
       gradientUnits="userSpaceOnUse" />
    <linearGradient
       id="linearGradient6139">
      <stop
         style="stop-color:#000000;stop-opacity:1;"
         offset="0"
         id="stop6141" />
      <stop
         id="stop6147"
         offset="0.86000001"
         style="stop-color:#000000;stop-opacity:0.90322578;" />
      <stop
         style="stop-color:#000000;stop-opacity:0.08870967;"
         offset="1"
         id="stop6143" />
    </linearGradient>
    <clipPath
       clipPathUnits="userSpaceOnUse"
       id="clipPath6135">
      <path
         sodipodi:nodetypes="cssscc"
         id="path6137"
         d="m 46.25,77.28125 c -3.114742,1.878588 -5.21875,5.284909 -5.21875,9.1875 0,5.927601 4.822399,10.75 10.75,10.75 5.927601,0 10.71875,-4.822399 10.71875,-10.75 0,-1.241846 -0.205798,-2.421791 -0.59375,-3.53125 C 57.027514,80.502975 51.55638,78.594924 46.25,77.28125 z"
         style="fill:#ff0000;fill-opacity:1;stroke:none" />
    </clipPath>
    <radialGradient
       inkscape:collect="always"
       xlink:href="#linearGradient6169"
       id="radialGradient6175"
       cx="50.771"
       cy="77.765167"
       fx="50.771"
       fy="77.765167"
       r="22.41276"
       gradientTransform="matrix(0.46302287,0.12257843,-0.05761696,0.21245032,-7.7412304,-6.9458838)"
       gradientUnits="userSpaceOnUse" />
    <linearGradient
       id="linearGradient6169">
      <stop
         style="stop-color:#ffffff;stop-opacity:0;"
         offset="0"
         id="stop6171" />
      <stop
         id="stop6177"
         offset="0.5"
         style="stop-color:#ffffff;stop-opacity:0.49803922;" />
      <stop
         style="stop-color:#000000;stop-opacity:1;"
         offset="1"
         id="stop6173" />
    </linearGradient>
    <radialGradient
       inkscape:collect="always"
       xlink:href="#linearGradient3775"
       id="radialGradient3781"
       cx="51.765625"
       cy="56.28857"
       fx="51.765625"
       fy="56.28857"
       r="10.734375"
       gradientTransform="matrix(0.24052101,0,0,0.23641848,-0.90812749,-0.4921602)"
       gradientUnits="userSpaceOnUse" />
    <linearGradient
       id="linearGradient3775">
      <stop
         style="stop-color:#b7dde5;stop-opacity:1;"
         offset="0"
         id="stop3777" />
      <stop
         id="stop3783"
         offset="0.88999999"
         style="stop-color:#357099;stop-opacity:1;" />
      <stop
         style="stop-color:#2e4d6a;stop-opacity:1;"
         offset="1"
         id="stop3779" />
    </linearGradient>
    <radialGradient
       inkscape:collect="always"
       xlink:href="#linearGradient3686"
       id="radialGradient3700"
       cx="47.119976"
       cy="37.319492"
       fx="47.119976"
       fy="37.319492"
       r="29.694843"
       gradientTransform="matrix(0.25766663,0.17273389,-0.06771257,0.09859809,0.7313173,-2.0414958)"
       gradientUnits="userSpaceOnUse" />
    <linearGradient
       id="linearGradient3686">
      <stop
         style="stop-color:#5b4f4f;stop-opacity:1;"
         offset="0"
         id="stop3688" />
      <stop
         id="stop3698"
         offset="0.5"
         style="stop-color:#5b4f4f;stop-opacity:0.61290324;" />
      <stop
         style="stop-color:#5b4f4f;stop-opacity:0;"
         offset="1"
         id="stop3690" />
    </linearGradient>
    <linearGradient
       gradientTransform="matrix(0.25766664,0,0,0.25457601,-1.7956815,-1.5316794)"
       inkscape:collect="always"
       xlink:href="#linearGradient3767"
       id="linearGradient3773"
       x1="47.349163"
       y1="36.893978"
       x2="6.9577026"
       y2="27.07255"
       gradientUnits="userSpaceOnUse" />
    <linearGradient
       inkscape:collect="always"
       id="linearGradient3767">
      <stop
         style="stop-color:#352822;stop-opacity:1;"
         offset="0"
         id="stop3769" />
      <stop
         style="stop-color:#352822;stop-opacity:0;"
         offset="1"
         id="stop3771" />
    </linearGradient>
    <radialGradient
       inkscape:collect="always"
       xlink:href="#linearGradient3767"
       id="radialGradient6165"
       cx="48.674648"
       cy="59.261971"
       fx="48.674648"
       fy="59.261971"
       r="26.822975"
       gradientTransform="matrix(0.31084378,-0.00338963,0.00144654,0.12949117,-4.4697852,5.958269)"
       gradientUnits="userSpaceOnUse" />
    <radialGradient
       r="34.808697"
       fy="29.055613"
       fx="48.337261"
       cy="29.055613"
       cx="48.337261"
       gradientTransform="matrix(1,0,0,0.65212081,-3.2048517e-8,14.394561)"
       gradientUnits="userSpaceOnUse"
       id="radialGradient6209"
       xlink:href="#linearGradient6181"
       inkscape:collect="always" />
    <linearGradient
       id="linearGradient6181">
      <stop
         style="stop-color:#ffffff;stop-opacity:1;"
         offset="0"
         id="stop6183" />
      <stop
         id="stop6189"
         offset="0.5"
         style="stop-color:#ffffff;stop-opacity:0.7096774;" />
      <stop
         style="stop-color:#ffffff;stop-opacity:0;"
         offset="1"
         id="stop6185" />
    </linearGradient>
    <radialGradient
       r="34.808697"
       fy="29.055613"
       fx="48.337261"
       cy="29.055613"
       cx="48.337261"
       gradientTransform="matrix(0.25766664,0,0,0.16601431,-1.7956815,2.1328309)"
       gradientUnits="userSpaceOnUse"
       id="radialGradient3948"
       xlink:href="#linearGradient6181"
       inkscape:collect="always" />
    <linearGradient
       gradientTransform="matrix(0.25766664,0,0,0.25457601,-1.7956815,-1.5316794)"
       y2="69.617165"
       x2="69.125"
       y1="62.960247"
       x1="39.120537"
       gradientUnits="userSpaceOnUse"
       id="linearGradient3950"
       xlink:href="#linearGradient3731"
       inkscape:collect="always" />
    <radialGradient
       inkscape:collect="always"
       xlink:href="#linearGradient3702"
       id="radialGradient3894"
       gradientUnits="userSpaceOnUse"
       gradientTransform="matrix(0.99999991,0.3024614,-0.12745446,0.42139078,-54.323726,-7.9576224)"
       cx="47.035229"
       cy="28.843788"
       fx="47.035229"
       fy="28.843788"
       r="30.110098" />
    <linearGradient
       y2="16"
       x2="10"
       y1="1"
       x1="10"
       gradientUnits="userSpaceOnUse"
       id="linearGradient3078"
       xlink:href="#linearGradient3823"
       inkscape:collect="always"
       gradientTransform="translate(1,-1)" />
    <linearGradient
       id="linearGradient3823">
      <stop
         id="stop3825"
         offset="0"
         style="stop-color:#ffffff;stop-opacity:1;" />
      <stop
         id="stop3829"
         offset="1"
         style="stop-color:#ffffff;stop-opacity:0;" />
    </linearGradient>
    <linearGradient
       inkscape:collect="always"
       xlink:href="#linearGradient3831"
       id="linearGradient3845"
       x1="11"
       y1="19.5"
       x2="21"
       y2="19.5"
       gradientUnits="userSpaceOnUse"
       spreadMethod="reflect" />
    <linearGradient
       id="linearGradient3831">
      <stop
         style="stop-color:#ffffff;stop-opacity:1;"
         offset="0"
         id="stop3833" />
      <stop
         id="stop3821"
         offset="0.75"
         style="stop-color:#ffffff;stop-opacity:0.49803922;" />
      <stop
         style="stop-color:#ffffff;stop-opacity:0;"
         offset="1"
         id="stop3835" />
    </linearGradient>
    <linearGradient
       y2="16"
       x2="10"
       y1="1"
       x1="10"
       gradientUnits="userSpaceOnUse"
       id="linearGradient3915"
       xlink:href="#linearGradient3823"
       inkscape:collect="always" />
  </defs>
  <sodipodi:namedview
     id="base"
     pagecolor="#ffffff"
     bordercolor="#e7e7e7"
     borderopacity="1"
     inkscape:pageopacity="0.0"
     inkscape:pageshadow="2"
     inkscape:zoom="12.24237"
     inkscape:cx="-24.040156"
     inkscape:cy="9.4710876"
     inkscape:document-units="px"
     inkscape:current-layer="layer1"
     showgrid="true"
     inkscape:showpageshadow="false"
     showguides="true"
     inkscape:guide-bbox="true"
     inkscape:window-width="1920"
     inkscape:window-height="1026"
     inkscape:window-x="0"
     inkscape:window-y="25"
     inkscape:window-maximized="1">
    <sodipodi:guide
       orientation="1,0"
       position="0,112"
       id="guide2383" />
    <sodipodi:guide
       orientation="0,1"
       position="26.278146,128"
       id="guide2385" />
    <sodipodi:guide
       orientation="1,0"
       position="128,54.082119"
       id="guide2387" />
    <sodipodi:guide
       orientation="0,1"
       position="78.156291,0"
       id="guide2389" />
    <sodipodi:guide
       orientation="0,1"
       position="60.863576,64.084768"
       id="guide2391" />
    <inkscape:grid
       type="xygrid"
       id="grid3672"
       visible="true"
       enabled="true"
       empspacing="8"
       snapvisiblegridlinesonly="true" />
  </sodipodi:namedview>
  <metadata
     id="metadata7">
    <rdf:RDF>
      <cc:Work
         rdf:about="">
        <dc:format>image/svg+xml</dc:format>
        <dc:type
           rdf:resource="http://purl.org/dc/dcmitype/StillImage" />
      </cc:Work>
    </rdf:RDF>
  </metadata>
  <g
     inkscape:label="Button"
     inkscape:groupmode="layer"
     id="layer1">
    <g
       style="display:inline"
       id="g3337">
      <rect
         ry="2.5"
         rx="2.5"
         y="0.5"
         x="0.5"
         height="21.5"
         width="21"
         id="rect3371"
         style="opacity:0.3;fill:url(#linearGradient3335);fill-opacity:1;stroke:none;display:inline" />
      <rect
         style="opacity:0.5;fill:#000000;fill-opacity:1;stroke:none;display:inline"
         id="rect2553"
         width="20"
         height="20"
         x="1"
         y="2"
         rx="2.3809524"
         ry="2.3255813" />
    </g>
    <rect
       style="fill:url(#linearGradient3181);fill-opacity:1;fill-rule:evenodd;stroke:none;display:inline"
       id="rect3173"
       width="20"
       height="20"
       x="1"
       y="1"
       rx="2"
       ry="2" />
    <path
       style="fill:url(#linearGradient3703);fill-opacity:1;stroke:none;display:inline;filter:url(#filter3693)"
       clip-path="url(#clipPath3689)"
       d="m -19.900298,1 c 2.467256,1.613138 9.329531,6.561409 9.538691,11.860119 C -10.395105,14.736 -11.378064,19.15765 -11.80506,21 l 1.376489,0 C -9.637143,21 -9,20.362857 -9,19.571429 L -9,2.428571 C -9,1.637143 -9.637143,1 -10.428571,1 l -9.471727,0 z"
       id="path3784"
       transform="translate(30,0)"
       inkscape:connector-curvature="0" />
    <path
       style="fill:#d79171;fill-opacity:1;stroke:none;display:inline;filter:url(#filter3685)"
       d="m -24.43261,14.734057 c -2.720405,0.802743 -3.946148,3.760574 -4.053997,5.931122 C -28.238709,20.872669 -27.921461,21 -27.571429,21 l 15.282739,0 -1.346727,-3.504464 c 0,0 -7.948554,0.384778 -10.797193,-2.761479 z"
       id="path2913"
       sodipodi:nodetypes="cccccc"
       clip-path="url(#clipPath3669)"
       transform="translate(30,0)"
       inkscape:connector-curvature="0" />
    <path
       style="opacity:0.4;fill:url(#linearGradient3915);fill-opacity:1;fill-rule:evenodd;stroke:none;display:inline"
       d="M 3,1 C 1.892,1 1,1.892 1,3 l 0,16 c 0,1.108 0.892,2 2,2 l 16,0 c 1.108,0 2,-0.892 2,-2 L 21,3 C 21,1.892 20.108,1 19,1 L 3,1 z m 0,1.03125 16,0 c 0.5497,0 0.96875,0.4190495 0.96875,0.96875 l 0,16 c 0,0.5497 -0.41905,0.96875 -0.96875,0.96875 l -16,0 C 2.4502995,19.96875 2.03125,19.5497 2.03125,19 l 0,-16 C 2.03125,2.4502995 2.4502995,2.03125 3,2.03125 z"
       id="rect3050"
       inkscape:connector-curvature="0" />
    <path
       id="path3235"
       d="M 3,21 C 1.892,21 1,20.108 1,19 l 0,-1 c 0,1.108 0.892,2 2,2 l 16,0 c 1.108,0 2,-0.892 2,-2 l 0,1 c 0,1.108 -0.892,2 -2,2 L 3,21 z"
       style="opacity:0.25;fill:url(#linearGradient3845);fill-opacity:1;fill-rule:evenodd;stroke:none;display:inline"
       inkscape:connector-curvature="0" />
  </g>
  <g
     inkscape:groupmode="layer"
     id="layer2"
     inkscape:label="Highlight"
     sodipodi:insensitive="true"
     style="display:none">
    <rect
       style="opacity:0.15;fill:#ffffff;fill-opacity:1;fill-rule:nonzero;stroke:none;display:inline;filter:url(#filter3194)"
       id="rect2410"
       width="16"
       height="16"
       x="3"
       y="3"
       rx="2"
       ry="2"
       clip-path="url(#clipPath2849)" />
  </g>
  <g
     inkscape:groupmode="layer"
     id="layer3"
     inkscape:label="Eye"
     sodipodi:insensitive="true">
    <path
       style="opacity:0.4;fill:url(#radialGradient3948);fill-opacity:1;stroke:none;display:inline"
       d="M 17.953261,14.324882 C 16.651848,11.206811 12.128542,8.405362 7.1189979,7.863722 4.7320341,7.60564 2.6941935,8.92451 2.6941935,8.92451 -0.71068769,4.96949 2.0693179,3.9507971 2.0693179,3.9507971 c 0,0 1.4723809,-0.7273601 2.3005951,-0.7273601 8.696248,3.22766 14.539759,9.092 14.539759,9.092 0,0 0.28591,3.736926 -0.956411,2.009445 z"
       id="path3649-3"
       sodipodi:nodetypes="csccccc"
       inkscape:connector-curvature="0" />
    <path
       style="opacity:0.6;fill:url(#radialGradient6165);fill-opacity:1;stroke:none;display:inline"
       d="m 17.11521,15.543097 c 0,0 -9.9385715,3.22766 -11.5949999,-5.546119 -2.3005952,-0.545521 -1.886488,1.454719 -1.886488,1.454719 0,0 1.9785122,7.5009 13.5735109,4.818761 0,0 0.552142,-0.409141 -0.09202,-0.727361 z"
       id="path6149"
       sodipodi:nodetypes="ccccc"
       inkscape:connector-curvature="0" />
    <path
       style="fill:url(#linearGradient3773);fill-opacity:1;stroke:none;display:inline"
       d="M 1.8157392,5.0436275 C 1.6901224,4.7529664 3.4151458,4.0359745 4.2884246,4.0471303 6.2071786,4.0712283 9.218766,5.0780743 11.641408,6.3259283 14.212916,7.650459 19.190152,9.804848 18.994391,12.626363 18.381028,13.128954 15.379415,9.560046 11.706478,7.451006 9.155421,5.9861607 7.1336259,5.4918541 4.5161715,4.5935959 3.6538502,4.297665 1.9336568,5.3164749 1.8157392,5.0436275 z"
       id="path3634"
       sodipodi:nodetypes="csscsss"
       inkscape:connector-curvature="0" />
    <path
       style="fill:#ffffff;stroke:none;display:inline"
       d="m 5.557302,9.985298 c 0.7808474,3.182362 2.3303831,5.598383 6.128842,5.950856 2.660426,0.246871 5.177183,-0.277251 5.421199,-0.582629 0,0 -0.162677,-1.607254 -1.626767,-2.700186 C 8.2902701,9.020945 5.557302,9.985298 5.557302,9.985298 z"
       id="path3636"
       sodipodi:nodetypes="csccc"
       inkscape:connector-curvature="0" />
    <path
       sodipodi:nodetypes="cscccc"
       id="path3676"
       d="M 5.5202101,9.496917 2.6941935,8.92451 c 0,0 2.0378406,-1.31887 4.4248044,-1.060788 5.0095441,0.54164 9.5328501,3.343089 10.8342631,6.46116 0,0 0.266233,0.536315 -0.515969,0.581775 C 16.793125,12.951878 13.9864,10.178817 5.5202101,9.496917 z"
       style="fill:url(#radialGradient3700);fill-opacity:1;stroke:none;display:inline"
       inkscape:connector-curvature="0" />
    <path
       style="fill:#000000;stroke:none;display:inline"
       d="M 3.8980004,9.278106 C 5.2047243,9.05516 5.9260128,8.997763 6.9237853,9.149525 c 3.1704017,0.482224 6.4491987,1.384476 9.0448207,3.246653 0.809151,0.580509 2.011372,2.445035 1.46409,2.860912 -0.463729,0.352384 -0.10727,-1.357861 -1.854513,-2.507316 C 12.524931,10.741138 7.6438454,9.704312 5.2644836,10.033515 4.8580568,9.427972 4.4554102,9.444708 3.8980004,9.278106 z"
       id="path3643"
       sodipodi:nodetypes="csssscc"
       inkscape:connector-curvature="0" />
    <path
       style="fill:url(#radialGradient3781);fill-opacity:1;stroke:none;display:inline"
       d="m 10.1214,10.504993 c -0.802565,0.478243 -1.3446979,1.345411 -1.3446979,2.338917 0,1.509025 1.2425709,2.736693 2.7699169,2.736693 1.527345,0 2.761864,-1.227668 2.761864,-2.736693 0,-0.316145 -0.05302,-0.61653 -0.152989,-0.898972 -1.257088,-0.619771 -2.666817,-1.105516 -4.034094,-1.439945 z"
       id="path3651"
       sodipodi:nodetypes="cssscc"
       inkscape:connector-curvature="0" />
    <path
       sodipodi:nodetypes="csccc"
       id="path6167"
       d="m 5.557302,9.985298 c 0.7808474,3.182362 2.3303831,5.598383 6.128842,5.950856 2.660426,0.246871 5.177183,-0.277251 5.421199,-0.582629 0,0 -0.162677,-1.607254 -1.626767,-2.700186 C 8.2902701,9.020945 5.557302,9.985298 5.557302,9.985298 z"
       style="opacity:0.3;fill:url(#radialGradient6175);fill-opacity:1;stroke:none;display:inline"
       inkscape:connector-curvature="0" />
    <g
       style="display:inline"
       id="g6131"
       clip-path="url(#clipPath6135)"
       transform="matrix(0.25766664,0,0,0.25457601,-1.7956815,-9.1689596)">
      <path
         id="path3785"
         d="m 55.967298,96.892144 c -0.09433,-1.072966 -0.332799,-1.97399 -0.835212,-3.158106 -1.187859,-2.119317 -2.185404,-4.138541 -3.128773,-6.537624 0.272103,-1.173246 0.468199,0.766008 0.226994,1.361196 0.23617,2.667614 -0.161196,6.039299 0.24617,8.67487 0.609862,1.186752 0.807991,-0.66758 0.524606,-1.185671 -0.310074,-3.170373 -0.692667,-6.050296 -0.994487,-9.009408 0.424285,-1.387073 -0.02452,1.225361 -0.363077,1.417148 -0.600944,2.589547 -1.738485,5.608022 -2.08649,8.483691 0.05497,0.985504 0.427388,-0.688462 0.371781,-1.289886 0.786539,-2.848183 1.149701,-6.151502 1.733758,-8.999976 0.677709,-1.157609 -0.08018,1.159001 -0.417294,1.64472 -1.545279,2.234536 -3.463401,5.176391 -4.771732,7.50467 -0.461046,1.183964 0.949469,-0.222269 1.058588,-0.817457 1.265915,-2.741366 2.302747,-5.52089 3.754839,-8.2261 1.266925,-0.716977 -0.43005,1.324489 -0.64739,1.473154 -2.040462,1.689476 -4.687813,3.3195 -6.56474,5.497697 -0.482855,0.85875 1.103486,-0.207983 1.289869,-0.751301 2.073236,-2.260037 4.081205,-4.253672 6.156486,-6.210179 1.038559,-0.356276 -0.757126,1.095359 -1.347303,0.992375 -2.439108,1.032807 -5.446262,1.539465 -7.794628,2.986083 -0.680169,0.744556 0.911673,-0.09587 1.206863,-0.164137 2.869906,-1.354297 5.049816,-3.305902 7.692086,-4.327538 1.183016,0.17952 -1.051876,0.827825 -1.294119,0.692361 -2.909006,0.153298 -5.944146,0.477627 -8.890111,0.879527 -0.941926,0.66418 1.156455,0.51447 1.631212,0.174769 3.148655,-0.574253 5.586506,-1.367778 8.746765,-1.622102 1.161234,0.572399 -1.382561,0.133621 -1.595073,-0.179102 -2.6248,-0.400217 -6.070944,-1.192182 -8.698006,-1.499358 -1.331136,0.300106 0.798818,0.637058 1.365032,0.703221 2.895804,0.208525 5.910279,0.07303 8.691634,0.737739 1.204243,0.591079 -1.047523,-0.238357 -1.223693,-0.414831 -2.715924,-1.306959 -5.041313,-3.028297 -7.810219,-4.034127 -1.053152,-0.01971 0.692915,0.814708 1.230022,0.740431 2.75501,1.054964 5.440571,2.086204 7.95455,3.631148 0.883132,1.201426 -0.745412,-0.569492 -1.087326,-1.112636 -2.066408,-1.801435 -4.344177,-4.068905 -6.316734,-5.919431 -0.878365,-0.566605 0.212126,0.83927 0.714724,0.88155 2.06243,2.08071 4.638686,3.511673 6.939988,5.737907 0.275832,1.146115 -1.015094,-0.218729 -1.052374,-0.858967 -1.231674,-2.339385 -2.340013,-5.53623 -3.692786,-7.840793 -0.934422,-0.617996 -0.650085,1.017369 -0.167815,1.241606 1.737047,2.624563 3.455399,5.05529 5.0482,7.767364 0.135976,1.480263 -0.873939,-0.934442 -0.757325,-1.570868 -0.347045,-2.774245 -0.764327,-6.045849 -1.325908,-8.713138 -0.402202,-1.08327 -0.397306,0.71949 -0.214994,1.274909 0.537199,2.907156 2.06769,5.736437 2.443203,8.689426 -0.185692,1.08847 -0.528607,-0.952243 -0.251802,-1.539389 0.317546,-2.627046 1.105365,-5.57781 1.20966,-8.221956 -0.08732,-1.065623 -0.507819,0.830977 -0.323446,1.057062 0.0126,2.886942 0.178804,6.024454 -0.141888,8.807368 -0.658099,0.918809 0.02511,-1.167048 0.183507,-1.36004 1.290146,-2.708572 2.770242,-5.504457 3.611796,-8.02165 -0.109561,-1.154176 -0.866353,0.44466 -0.861754,1.045823 -1.140051,2.658857 -1.724727,6.12967 -2.883322,8.699219 -0.83499,0.712829 0.635957,-1.231135 0.831733,-1.52194 2.000374,-2.069894 3.815202,-3.850307 5.516851,-6.352026 0.232987,-1.124405 -1.163438,0.397703 -1.155982,0.659866 -1.81514,2.177401 -3.24591,5.219456 -5.109236,7.314091 -1.098816,0.742039 0.809425,-1.367555 1.065932,-1.559398 2.338822,-1.332706 4.650441,-2.656419 7.095596,-4.245036 0.673373,-0.740736 -0.8298,-0.225203 -1.226587,0.232963 -2.43024,1.943319 -4.201821,4.034216 -6.796908,5.448983 -1.479891,0.202513 0.883733,-0.38782 1.189426,-0.499122 2.85811,-0.591518 5.991608,-1.596928 8.583632,-2.378738 0.816351,-0.777368 -1.289166,-0.343767 -1.639527,0.07773 -3.040094,0.913832 -5.407695,1.945152 -8.329083,2.928385 -1.472723,-0.170892 1.585678,-0.436083 1.812061,-0.330994 2.805872,0.278338 5.431404,0.48668 8.461749,0.403682 1.075254,-0.543106 -0.841662,-0.346703 -1.103297,-0.389236 -3.112975,-0.100399 -6.189045,0.915143 -8.990562,0.796326 -0.971339,-0.636785 0.991879,-0.408393 1.543328,-0.156883 2.493924,0.921882 5.189277,2.438678 7.859156,2.989976 1.043838,-0.133555 -0.863896,-0.650231 -1.073991,-0.621676 -2.748176,-0.672195 -5.792231,-1.318336 -8.736495,-2.126637 -0.873809,-1.067309 1.452979,0.245836 1.517181,0.673751 2.239911,1.853839 4.574736,3.758971 7.144274,5.137688 1.017008,0.512995 -0.647292,-0.943521 -1.032862,-1.272876 -2.696815,-1.669685 -5.101366,-2.676841 -7.564064,-4.260282 -0.460862,-1.026422 1.125235,0.314775 1.075331,0.811245 1.564043,2.412628 3.670796,4.921215 5.338905,7.08635 1.083065,0.496078 -0.105993,-1.030055 -0.426255,-1.465619 -2.022113,-2.126673 -4.548212,-4.426653 -6.305214,-6.63202 -0.479065,-1.234254 1.34602,1.223929 1.148639,1.67649 0.759019,2.725468 1.420695,4.904086 2.611522,7.699567 0.205642,0.257032 0.08924,0.375908 0.146885,0.465777 -6.96e-4,-0.199999 0.344686,-0.08298 0.383578,0.113198"
         style="opacity:0.3;fill:#000000;fill-opacity:1;stroke:none"
         inkscape:connector-curvature="0" />
      <path
         id="path3787"
         d="m 50.931665,97.570328 c 0.734269,-1.832199 0.771744,-3.454974 0.73809,-5.107553 -0.05974,-1.98584 -0.203174,-3.706469 0.20869,-5.408472 0.679534,1.048112 -0.957709,2.844738 -1.574038,4.099626 -0.649299,1.567769 -1.75164,2.969389 -2.585876,4.789104 0.42704,0.964132 1.646804,-1.889275 1.777622,-2.670642 0.761186,-2.27368 1.327114,-4.76971 2.227206,-6.585223 0.406426,1.044551 -2.124452,2.611077 -2.735968,3.787176 -1.49112,1.430192 -2.74613,2.909897 -3.895896,4.200516 0.325627,1.215529 1.299718,-1.674085 1.732492,-1.903793 1.622897,-1.966817 2.873975,-4.542196 4.469682,-6.277206 -0.01228,1.268306 -2.314312,1.57992 -3.494685,2.537403 -1.688096,0.740538 -3.55629,1.94607 -4.998631,3.246279 0.899757,0.884044 2.192541,-1.694942 3.260527,-1.952615 1.559202,-1.488784 3.567453,-2.297718 5.361033,-3.658987 -0.489453,0.80316 -2.969373,0.354151 -4.189984,0.992461 -1.618474,0.32415 -3.787209,1.283054 -5.402597,1.718218 -0.260982,1.25915 2.67576,-0.963014 3.319363,-1.009839 1.886736,-0.703206 4.066618,-1.484542 6.121978,-2.222053 -0.793621,1.007328 -2.940944,0.314659 -4.060265,0.316563 -1.911659,-0.369152 -4.101602,-0.08793 -5.824324,-0.168131 -0.45703,0.799224 1.690081,-0.142506 2.300806,0.08713 2.553879,0.04535 5.201344,-0.352338 7.734083,-0.04571 -0.744867,0.655905 -3.164142,-0.987112 -4.285603,-1.203154 -1.579095,-0.669613 -3.400527,-1.342296 -5.407639,-1.978965 -0.007,0.957191 2.296932,1.044475 3.319066,1.356201 2.361157,0.550971 4.703375,0.545155 6.61244,1.331574 -0.851364,0.272344 -2.658179,-1.469093 -3.970791,-2.118562 -1.414607,-0.998853 -2.397768,-2.664395 -4.169924,-3.646175 -1.134041,0.175521 1.276211,1.371125 1.557571,1.615515 1.973069,1.296284 4.479328,2.905137 6.670853,4.2942 -0.948911,0.149784 -2.451841,-2.487759 -3.103525,-3.483018 -1.210249,-1.599083 -2.03969,-3.282278 -3.015664,-4.69344 -1.13263,-0.121528 1.321401,2.667088 1.657123,3.161738 1.332948,1.739146 3.25525,3.158352 4.360536,4.967262 -1.212507,-0.265784 -1.256525,-2.989675 -1.688259,-4.01835 -0.40657,-1.967378 -1.046189,-3.898933 -1.859766,-5.463076 -0.967595,-0.490691 0.632963,1.462785 0.710726,2.176878 0.954392,2.456288 1.973414,4.516721 3.001173,6.973441 -0.68643,-0.594879 0.09176,-2.687253 -0.103409,-4.185961 0.03416,-2.082705 -0.145236,-3.788755 -0.463978,-5.519971 -0.970204,-0.402868 -0.09565,2.049657 -0.232827,2.483173 0.544995,2.477618 0.868257,5.097335 1.146231,7.556094 -0.830273,-0.774568 0.721675,-3.295867 0.769188,-4.6606 0.772435,-1.725301 1.203002,-3.360764 1.427494,-5.328345 -0.646478,-0.621879 -0.950381,1.8767 -0.943615,2.309061 -0.412856,2.700014 -0.401409,5.277526 -0.902437,7.60005 -0.179131,-1.090974 1.489996,-2.689338 1.973807,-4.017445 1.280713,-1.539342 1.937612,-2.965844 2.984257,-4.760585 -0.218743,-1.040125 -1.149981,1.494317 -1.659638,1.939601 -1.208087,2.445631 -2.351966,4.92686 -3.559838,6.930719 -0.184207,-1.24668 2.308809,-1.872711 3.165668,-3.013267 1.55282,-0.984145 3.067811,-2.640289 4.632737,-3.970157 -1.018083,-0.734774 -1.880163,1.698672 -2.685834,2.440769 -1.711679,1.658535 -3.400397,3.330821 -4.923313,4.889886 0.295945,-1.253786 2.936995,-1.937385 4.013579,-2.380902 1.652449,-0.837012 3.522879,-1.285623 5.005134,-2.107166 0.404487,-0.970321 -1.769637,0.681886 -2.102873,0.952367 -2.18343,1.435175 -4.571979,2.696533 -6.695117,3.676915 0.554626,-0.723926 2.847381,-0.669873 4.134554,-1.124725 1.721034,0.01483 3.779867,-0.321384 5.53025,-0.469961 0.316704,-0.969971 -1.386335,0.08481 -2.153689,0.152563 -2.649153,0.436129 -5.061401,1.29157 -7.42416,1.455838 0.653657,-0.617026 2.605602,0.463001 3.994739,0.413564 1.826276,0.246699 3.807446,1.056711 5.535569,1.165906 0.927946,-0.86308 -1.604656,-0.193552 -2.107046,-0.501095 -2.340163,-0.310044 -4.984348,-0.406311 -7.528472,-1.070405 1.174577,-0.377371 2.668149,1.445925 3.770398,2.128197 1.799508,1.0324 3.085085,1.883772 4.845227,2.46675 1.055262,-0.656617 -1.002872,-0.996805 -1.700501,-1.253495 -2.441336,-0.776423 -4.907779,-2.168072 -7.284241,-3.206512 1.264636,0.0084 2.043298,2.354666 3.25319,3.166756 1.253212,1.227662 3.114761,2.876879 4.389096,4.033285 0.606397,-0.92553 -2.010528,-1.937407 -2.429031,-2.780994 -1.924388,-1.458892 -3.296553,-2.4559 -5.067092,-4.010416 1.08127,-0.02535 1.251137,2.418937 1.929018,3.701512 0.636595,1.528608 1.682454,2.814347 2.63283,4.598692 1.315196,0.132038 -0.686214,-2.013468 -1.233019,-2.629468 -1.337479,-1.996165 -2.536254,-3.686507 -3.728686,-5.548655 1.128267,0.639055 0.58073,2.483771 1.077576,3.902452 0.08807,1.998697 0.40996,4.147387 1.086266,6.030618 0.77646,-0.646573 -0.104024,-2.417742 -0.298971,-3.579373 -0.514983,-1.973914 -1.548358,-4.397289 -1.784558,-6.475499 0.958586,0.659487 -0.547483,3.158579 -0.393639,4.369625 -0.19265,1.888012 -0.943307,4.216141 -0.872103,6.094907 -0.0501,-0.193623 0.156922,-0.269622 0.334565,-0.177738 -0.180893,-0.08531 -0.320751,0.356431 -0.24764,0.170273 0.190948,0.05949 0.05362,-0.0058 0.163047,-0.173189"
         style="opacity:0.1;fill:#000000;fill-opacity:1;stroke:none"
         inkscape:connector-curvature="0" />
    </g>
    <path
       d="m 62.503188,56.477783 a 10.732871,10.732871 0 1 1 -21.465742,0 10.732871,10.732871 0 1 1 21.465742,0 z"
       sodipodi:ry="10.732871"
       sodipodi:rx="10.732871"
       sodipodi:cy="56.477783"
       sodipodi:cx="51.770317"
       id="path3647"
       style="fill:url(#radialGradient6145);fill-opacity:1;stroke:none;display:inline"
       sodipodi:type="arc"
       transform="matrix(0.11216077,0,0,0.11081543,5.737203,6.5875989)" />
    <path
       style="font-size:medium;font-style:normal;font-variant:normal;font-weight:normal;font-stretch:normal;text-indent:0;text-align:start;text-decoration:none;line-height:normal;letter-spacing:normal;word-spacing:normal;text-transform:none;direction:ltr;block-progression:tb;writing-mode:lr-tb;text-anchor:start;color:#000000;fill:url(#radialGradient3894);fill-opacity:1;stroke:none;stroke-width:1.9472208;marker:none;visibility:visible;display:inline;overflow:visible;filter:url(#filter3756);enable-background:accumulate;font-family:Abandoned Bitplane;-inkscape-font-specification:Abandoned Bitplane"
       d="m -26.84375,13.8125 c -8.041309,0.320031 -14.25,4.4375 -14.25,4.4375 l 1.0625,1.625 c 0,0 7.683617,-4.968233 16.53125,-4 19.1440825,2.095017 36.423996,13.078192 41.25,24.78125 l 1.78125,-0.75 C 14.255728,27.11311 -3.5414085,16.097713 -23.28125,13.9375 c -1.209987,-0.132414 -2.413742,-0.170719 -3.5625,-0.125 z"
       id="path3649"
       transform="matrix(0.25766664,0,0,0.25457601,13.148984,4.0689934)"
       inkscape:connector-curvature="0" />
    <path
       style="fill:url(#linearGradient3728);fill-opacity:1;stroke:none;display:inline"
       d="m 16.611378,13.949724 c 0.152952,1.302054 -0.293869,1.657246 -1.964707,1.972965 1.334139,-0.126138 2.316722,-0.388561 2.463937,-0.572797 0,0 -0.07414,-0.645257 -0.49923,-1.400168 z"
       id="path3717"
       sodipodi:nodetypes="cccc"
       inkscape:connector-curvature="0" />
    <path
       style="opacity:0.7;fill:#000000;stroke:none;display:inline"
       d="m 5.3295552,10.017442 c 0,0 -1.0736659,0 -1.9846555,0.578612 1.8870487,-0.482176 2.1147966,0 2.1147966,0 0,0 -0.8784543,0.06429 -1.2688786,0.771482 0.5856369,-0.610757 1.3990196,-0.385742 1.4315548,0.03214 0,0 -0.8133826,0.225015 -1.3664832,1.221513 0.8459179,-0.932208 1.5616948,-0.642903 1.5616948,-0.642903 0,0 -0.2457219,0.215906 -0.7483121,1.028642 0.6507064,-0.77148 1.2038069,-0.57861 1.2038069,-0.57861 0,0 -0.6181711,0.353596 -1.0411305,1.6394 0.8459189,-1.414385 1.4315547,-1.028644 1.4315547,-1.028644 0,0 -0.357889,0.514321 -0.4554947,1.157223 0.48803,-0.707191 1.0085953,-0.385741 1.0085953,-0.385741 0,0 -0.5531006,0.257162 -1.0085953,1.189368 1.0736659,-1.060788 1.2038069,-0.707192 1.2038069,-0.707192 0,0 -0.1952116,0.257161 -0.3578889,0.707192 0.6832425,-0.417889 0.7808487,-0.225019 1.4640897,-0.03214 C 6.533362,12.846209 5.3295552,10.017442 5.3295552,10.017442 z"
       id="path3656"
       sodipodi:nodetypes="cccccccccccccccccc"
       inkscape:connector-curvature="0" />
    <path
       style="fill:url(#linearGradient3950);fill-opacity:1;stroke:none;display:inline"
       d="m 5.7410678,9.892419 c -0.3685647,0.03365 -0.5394902,0.09546 -0.5394902,0.09546 0.7808485,3.182363 2.3613836,5.789172 6.1598424,6.141647 2.660426,0.24687 5.698422,-0.307196 5.942437,-0.612575 0,0 -0.03722,-0.07776 -0.04832,-0.103421 -1.026302,0.285022 -3.323726,0.590715 -5.402947,0.397775 C 8.1472981,15.467477 6.5499776,12.96829 5.7491116,9.892413 c -0.0024,2.12e-4 -0.00574,-2.15e-4 -0.00804,0 z"
       id="path3638"
       inkscape:connector-curvature="0" />
    <path
       id="path3740"
       d="m 5.7410678,9.892419 c -0.3685647,0.03365 -0.5394902,0.09546 -0.5394902,0.09546 0.7808485,3.182363 2.3613836,5.789172 6.1598424,6.141647 2.660426,0.24687 5.698422,-0.307196 5.942437,-0.612575 0,0 -0.03722,-0.07776 -0.04832,-0.103421 -1.026302,0.285022 -3.323726,0.590715 -5.402947,0.397775 C 8.1472981,15.467477 6.5499776,12.96829 5.7491116,9.892413 c -0.0024,2.12e-4 -0.00574,-2.15e-4 -0.00804,0 z"
       style="fill:url(#linearGradient3738);fill-opacity:1;stroke:none;display:inline"
       inkscape:connector-curvature="0" />
    <path
       style="opacity:0.2;fill:#000000;fill-opacity:1;stroke:none;display:inline"
       d="m 5.9987344,9.637842 c -0.3685646,0.03365 -0.5394901,0.09547 -0.5394901,0.09547 0.015801,0.0644 0.031842,0.127014 0.048312,0.190931 0.066388,-0.01013 0.1443872,-0.02368 0.2335111,-0.03182 0.00229,-2.15e-4 0.00564,2.13e-4 0.00804,0 0.800866,3.075877 2.3981858,5.575065 6.1034786,5.918892 2.07922,0.19294 4.376646,-0.112753 5.402947,-0.397774 0.157,-0.05465 0.268614,-0.104393 0.305979,-0.151156 0,0 -0.03722,-0.07776 -0.04832,-0.103421 -1.026301,0.285022 -3.323726,0.590714 -5.402946,0.397775 -3.7052928,-0.343828 -5.3026129,-2.843015 -6.1034789,-5.918893 -0.0024,2.14e-4 -0.00574,-2.13e-4 -0.00804,0 z"
       id="path3732"
       inkscape:connector-curvature="0" />
    <path
       style="fill:#000000;fill-opacity:1;stroke:none;display:inline"
       d="m 5.7410678,9.892419 c -0.3685647,0.03365 -0.5394902,0.09546 -0.5394902,0.09546 0.7808485,3.182363 2.3613836,5.789172 6.1598424,6.141647 0.416991,0.03869 0.840849,0.0523 1.264178,0.05569 -0.338158,-0.0079 -0.673958,-0.02483 -1.006511,-0.05569 -3.7984599,-0.352475 -5.3789942,-2.959284 -6.1598427,-6.141647 0,0 0.094368,-0.03207 0.2979272,-0.06365 -0.00282,-0.01059 -0.00533,-0.02121 -0.00804,-0.03182 -0.0024,2.13e-4 -0.00574,-2.15e-4 -0.00804,0 z m 11.5144772,5.521118 c -0.759045,0.2108 -2.213188,0.430136 -3.760322,0.453462 1.503057,-6.09e-4 2.935815,-0.193757 3.784478,-0.397775 -0.01114,-0.02359 -0.01826,-0.04204 -0.02416,-0.05569 z"
       id="path3752"
       inkscape:connector-curvature="0" />
    <path
       transform="matrix(0.11216077,0,0,0.11081543,3.9335362,6.0784468)"
       sodipodi:type="arc"
       style="fill:url(#radialGradient3746);fill-opacity:1;stroke:none;display:inline"
       id="path3736"
       sodipodi:cx="51.770317"
       sodipodi:cy="56.477783"
       sodipodi:rx="10.732871"
       sodipodi:ry="10.732871"
       d="m 62.503188,56.477783 a 10.732871,10.732871 0 1 1 -21.465742,0 10.732871,10.732871 0 1 1 21.465742,0 z" />
    <path
       d="m 62.503188,56.477783 a 10.732871,10.732871 0 1 1 -21.465742,0 10.732871,10.732871 0 1 1 21.465742,0 z"
       sodipodi:ry="10.732871"
       sodipodi:rx="10.732871"
       sodipodi:cy="56.477783"
       sodipodi:cx="51.770317"
       id="path3748"
       style="fill:url(#radialGradient3750);fill-opacity:1;stroke:none;display:inline"
       sodipodi:type="arc"
       transform="matrix(0.15459999,0,0,0.15274561,6.1740005,5.5810375)" />
    <path
       style="fill:#000000;stroke:none;display:inline"
       d="m 6.4472586,9.716664 c 0,0 -2.8502058,0.117829 -3.1931286,-2.24225 0.5397865,1.900691 3.642903,2.138572 3.642903,2.138572 0,0 -2.8665308,0.03494 -2.5849913,-3.1334271 -0.1079861,2.6790481 3.1210205,3.2024301 3.1210205,3.2024301 0,0 -2.3958923,-0.847009 -1.6445838,-2.8238647 C 5.3459533,8.767011 7.9760751,9.69803 7.9760751,9.69803 c 0,0 -1.6839534,-1.078514 -0.4221938,-2.585718 -0.8620949,1.370145 0.8836678,2.8067 0.8836678,2.8067 0,0 -0.9801318,-1.041772 0.044,-1.987117 -0.673351,1.179005 0.40578,1.883439 0.40578,1.883439 0,0 -0.445237,-0.757481 0.3656129,-1.945717 -0.6208819,1.401197 0.09586,2.166698 0.09586,2.166698 0,0 -0.106161,-0.848479 0.456581,-1.395416 -0.426376,0.752997 -0.0068,1.291739 -0.0068,1.291739 0,0 -0.151556,-0.50424 0.468281,-1.070757 -0.505648,0.527358 -0.114013,1.277938 -0.114013,1.277938 0,0 0.08731,-0.661999 0.507916,-0.957937 -0.446195,0.696588 0.02113,1.079899 0.02113,1.079899 C 6.7058656,8.995926 6.4472804,9.716664 6.4472804,9.716664 z"
       id="path3770"
       sodipodi:nodetypes="cccccccccccccccccccc"
       inkscape:connector-curvature="0" />
    <path
       sodipodi:nodetypes="cccccccccccccccccccc"
       id="path3772"
       d="m 6.9417906,9.591122 c 0,0 -2.4729745,0.09092 -2.7705114,-1.730192 0.4683454,1.466634 3.1607582,1.650191 3.1607582,1.650191 0,0 -2.4871391,0.02696 -2.2428627,-2.417852 -0.09369,2.067238 2.7079464,2.471096 2.7079464,2.471096 0,0 -2.0787907,-0.653578 -1.4269196,-2.178982 -0.3839556,1.472957 1.8980636,2.191361 1.8980636,2.191361 0,0 -1.4610783,-0.832218 -0.366315,-1.995223 -0.7479956,1.057247 0.766712,2.165739 0.766712,2.165739 0,0 -0.85041,-0.803864 0.03817,-1.533323 -0.584231,0.909759 0.3520729,1.453322 0.3520729,1.453322 0,0 -0.3863089,-0.584496 0.317224,-1.501377 -0.5387069,1.081208 0.08316,1.671894 0.08316,1.671894 0,0 -0.09211,-0.654714 0.396153,-1.076749 -0.369945,0.581037 -0.006,0.996747 -0.006,0.996747 0,0 -0.131498,-0.389088 0.406303,-0.82623 -0.438724,0.406925 -0.09891,0.986098 -0.09891,0.986098 0,0 0.07575,-0.510821 0.440691,-0.739176 -0.387138,0.53751 0.01832,0.833285 0.01832,0.833285 C 7.1661007,9.034978 6.9417405,9.591122 6.9417405,9.591122 z"
       style="fill:#000000;stroke:none;display:inline"
       inkscape:connector-curvature="0" />
    <path
       style="fill:#000000;stroke:none;display:inline"
       d="m 10.675759,10.291604 c 0,0 -0.957417,-0.738515 -0.180563,-1.639059 -0.539527,0.829017 0.44485,1.794612 0.44485,1.794612 0,0 -0.54662,-0.689836 0.07678,-1.246206 -0.424199,0.715858 0.189001,1.197466 0.189001,1.197466 0,0 -0.241007,-0.491858 0.263868,-1.20851 -0.399215,0.857291 4.12e-4,1.364062 4.12e-4,1.364062 0,0 -0.04031,-0.536663 0.302948,-0.859639 -0.268775,0.457332 -0.03716,0.810898 -0.03716,0.810898 0,0 -0.07571,-0.32215 0.301452,-0.655345 -0.309352,0.312758 -0.09952,0.798333 -0.09952,0.798333 0,0 0.06807,-0.412526 0.321741,-0.583058 -0.27892,0.421188 -0.01538,0.678891 -0.01538,0.678891 -1.337358,-0.335718 -1.485089,-0.139262 -1.568426,-0.452445 z"
       id="path3774"
       sodipodi:nodetypes="cccccccccccccc"
       inkscape:connector-curvature="0" />
    <path
       sodipodi:nodetypes="cccccccccccccc"
       id="path3776"
       d="m 11.4105,10.66085 c 0,0 -1.000013,-0.618125 -0.188596,-1.371864 -0.563531,0.693873 0.464643,1.50206 0.464643,1.50206 0,0 -0.570941,-0.577382 0.08019,-1.043055 -0.443074,0.599162 0.19741,1.002259 0.19741,1.002259 0,0 -0.251731,-0.411677 0.275607,-1.011502 -0.416975,0.717539 4.38e-4,1.141697 4.38e-4,1.141697 0,0 -0.0421,-0.449178 0.316427,-0.719504 -0.280734,0.38278 -0.03882,0.678709 -0.03882,0.678709 0,0 -0.07908,-0.269634 0.314865,-0.548512 -0.323118,0.261773 -0.10396,0.66819 -0.10396,0.66819 0,0 0.07111,-0.345277 0.336056,-0.488009 -0.291328,0.352528 -0.01607,0.56822 -0.01607,0.56822 -1.396859,-0.280991 -1.551163,-0.11656 -1.638208,-0.378689 z"
       style="fill:#000000;stroke:none;display:inline"
       inkscape:transform-center-x="0.87423342"
       inkscape:transform-center-y="-0.27275921"
       inkscape:connector-curvature="0" />
  </g>
</svg>
