<?xml version="1.0" encoding="UTF-8" standalone="no"?>
<!-- Created with Inkscape (http://www.inkscape.org/) -->

<svg
   xmlns:dc="http://purl.org/dc/elements/1.1/"
   xmlns:cc="http://creativecommons.org/ns#"
   xmlns:rdf="http://www.w3.org/1999/02/22-rdf-syntax-ns#"
   xmlns:svg="http://www.w3.org/2000/svg"
   xmlns="http://www.w3.org/2000/svg"
   xmlns:xlink="http://www.w3.org/1999/xlink"
   xmlns:sodipodi="http://sodipodi.sourceforge.net/DTD/sodipodi-0.dtd"
   xmlns:inkscape="http://www.inkscape.org/namespaces/inkscape"
   width="22"
   height="22"
   id="svg2"
   sodipodi:version="0.32"
   inkscape:version="0.48.0 r9654"
   version="1.0"
   sodipodi:docname="firefox-original.svg"
   inkscape:output_extension="org.inkscape.output.svg.inkscape"
   style="display:inline">
  <defs
     id="defs4">
    <linearGradient
       inkscape:collect="always"
       xlink:href="#linearGradient4008"
       id="linearGradient4024"
       gradientUnits="userSpaceOnUse"
       gradientTransform="matrix(-1.7162445e-3,-0.2063113,0.2063113,-1.7162445e-3,-10.861784,30.873765)"
       x1="76.074364"
       y1="65.418854"
       x2="83.626366"
       y2="72.970856" />
    <linearGradient
       inkscape:collect="always"
       xlink:href="#linearGradient4008"
       id="linearGradient4028"
       gradientUnits="userSpaceOnUse"
       gradientTransform="matrix(-0.1426643,-7.7645863e-2,7.7645863e-2,-0.1426643,13.667494,33.79775)"
       x1="76.074364"
       y1="65.418854"
       x2="83.626366"
       y2="72.970856" />
    <linearGradient
       inkscape:collect="always"
       xlink:href="#linearGradient4008"
       id="linearGradient4016"
       gradientUnits="userSpaceOnUse"
       gradientTransform="matrix(-0.1494636,-0.1699325,0.1699325,-0.1494636,6.1158407,41.255189)"
       x1="76.074364"
       y1="65.418854"
       x2="83.626366"
       y2="72.970856" />
    <linearGradient
       inkscape:collect="always"
       xlink:href="#linearGradient4046"
       id="linearGradient4062"
       gradientUnits="userSpaceOnUse"
       gradientTransform="matrix(-0.1075645,-6.2028081e-2,5.1982154e-2,-0.1395798,11.680141,33.485935)"
       x1="76.074364"
       y1="65.418854"
       x2="83.626366"
       y2="72.970856" />
    <linearGradient
       inkscape:collect="always"
       xlink:href="#linearGradient4046"
       id="linearGradient4054"
       gradientUnits="userSpaceOnUse"
       gradientTransform="matrix(-0.1613159,-0.1392086,0.1457018,-0.1646989,7.8128211,41.226596)"
       x1="76.074364"
       y1="65.418854"
       x2="83.626366"
       y2="72.970856" />
    <linearGradient
       id="linearGradient4008">
      <stop
         id="stop4010"
         offset="0"
         style="stop-color:#ffa04c;stop-opacity:1" />
      <stop
         id="stop4012"
         offset="1"
         style="stop-color:#df731b;stop-opacity:1" />
    </linearGradient>
    <linearGradient
       inkscape:collect="always"
       xlink:href="#linearGradient4008"
       id="linearGradient4006"
       gradientUnits="userSpaceOnUse"
       gradientTransform="matrix(-5.2311068e-2,-0.277799,0.277799,-5.2311068e-2,-10.865509,42.516271)"
       x1="76.074364"
       y1="65.418854"
       x2="83.626366"
       y2="72.970856" />
    <linearGradient
       id="linearGradient4046">
      <stop
         style="stop-color:#9d1701;stop-opacity:1;"
         offset="0"
         id="stop4048" />
      <stop
         style="stop-color:#df731b;stop-opacity:1"
         offset="1"
         id="stop4050" />
    </linearGradient>
    <linearGradient
       inkscape:collect="always"
       xlink:href="#linearGradient4046"
       id="linearGradient4044"
       gradientUnits="userSpaceOnUse"
       gradientTransform="matrix(-9.1312851e-2,-0.2336605,0.2422806,-9.1261455e-2,-7.1780902,42.460543)"
       x1="76.074364"
       y1="65.418854"
       x2="83.626366"
       y2="72.970856" />
    <linearGradient
       inkscape:collect="always"
       xlink:href="#linearGradient3727"
       id="linearGradient3775"
       gradientUnits="userSpaceOnUse"
       gradientTransform="matrix(0.7163691,-0.2630419,0.2630419,0.7163691,8.6237219,51.589579)"
       x1="76.074364"
       y1="65.418854"
       x2="83.626366"
       y2="72.970856" />
    <linearGradient
       inkscape:collect="always"
       xlink:href="#linearGradient3727"
       id="linearGradient3763"
       gradientUnits="userSpaceOnUse"
       gradientTransform="matrix(0.1924659,-0.2054028,0.2054028,0.1924659,-10.975798,21.078161)"
       x1="76.074364"
       y1="65.418854"
       x2="83.626366"
       y2="72.970856" />
    <linearGradient
       id="linearGradient3727">
      <stop
         style="stop-color:#ffae65;stop-opacity:1;"
         offset="0"
         id="stop3729" />
      <stop
         style="stop-color:#ffa04c;stop-opacity:0;"
         offset="1"
         id="stop3731" />
    </linearGradient>
    <linearGradient
       inkscape:collect="always"
       xlink:href="#linearGradient3727"
       id="linearGradient3769"
       gradientUnits="userSpaceOnUse"
       gradientTransform="matrix(0.7163691,-0.2630419,0.2630419,0.7163691,8.6237219,51.589579)"
       x1="76.074364"
       y1="65.418854"
       x2="83.626366"
       y2="72.970856" />
    <linearGradient
       id="linearGradient3843">
      <stop
         style="stop-color:#ffd893;stop-opacity:1;"
         offset="0"
         id="stop3845" />
      <stop
         style="stop-color:#e58010;stop-opacity:1"
         offset="1"
         id="stop3847" />
    </linearGradient>
    <linearGradient
       inkscape:collect="always"
       xlink:href="#linearGradient3843"
       id="linearGradient3789"
       gradientUnits="userSpaceOnUse"
       gradientTransform="matrix(0.3031595,0.1659558,-0.1659558,0.3031595,6.9058429,-25.863825)"
       x1="76.074364"
       y1="65.418854"
       x2="83.626366"
       y2="72.970856" />
    <linearGradient
       inkscape:collect="always"
       xlink:href="#linearGradient3993"
       id="linearGradient3923"
       gradientUnits="userSpaceOnUse"
       gradientTransform="matrix(0.4025152,-0.1472167,0.1472167,0.4025152,-27.486896,-12.972751)"
       x1="76.074364"
       y1="65.418854"
       x2="83.626366"
       y2="72.970856" />
    <linearGradient
       inkscape:collect="always"
       xlink:href="#linearGradient3993"
       id="linearGradient3927"
       gradientUnits="userSpaceOnUse"
       gradientTransform="matrix(0.4290847,-0.2613695,0.2613695,0.4290847,-36.185395,-3.5052293)"
       x1="76.074364"
       y1="65.418854"
       x2="83.626366"
       y2="72.970856" />
    <linearGradient
       inkscape:collect="always"
       xlink:href="#linearGradient3993"
       id="linearGradient3821"
       gradientUnits="userSpaceOnUse"
       gradientTransform="matrix(0.3490862,-0.3613399,0.3613399,0.3490862,-42.657412,7.7992017)"
       x1="76.074364"
       y1="65.418854"
       x2="83.626366"
       y2="72.970856" />
    <linearGradient
       id="linearGradient3993">
      <stop
         style="stop-color:#ffeaa8;stop-opacity:1;"
         offset="0"
         id="stop3995" />
      <stop
         id="stop4092"
         offset="0.60655737"
         style="stop-color:#ffc512;stop-opacity:1;" />
      <stop
         style="stop-color:#f59811;stop-opacity:1"
         offset="1"
         id="stop3997" />
    </linearGradient>
    <linearGradient
       inkscape:collect="always"
       xlink:href="#linearGradient3993"
       id="linearGradient3825"
       gradientUnits="userSpaceOnUse"
       gradientTransform="matrix(0.2831448,-0.2528413,0.2528413,0.2831448,-33.162648,2.6401641)"
       x1="76.074364"
       y1="65.418854"
       x2="83.626366"
       y2="72.970856" />
    <linearGradient
       id="linearGradient5598">
      <stop
         style="stop-color:#66a9f5;stop-opacity:1;"
         offset="0"
         id="stop5600" />
      <stop
         id="stop7879"
         offset="0.40000001"
         style="stop-color:#3d73b6;stop-opacity:1;" />
      <stop
         style="stop-color:#143e78;stop-opacity:1;"
         offset="1"
         id="stop5602" />
    </linearGradient>
    <radialGradient
       inkscape:collect="always"
       xlink:href="#linearGradient5598"
       id="radialGradient3976"
       gradientUnits="userSpaceOnUse"
       gradientTransform="matrix(1.1265187,-1.4663371e-8,1.0849677e-8,0.8113239,-47.179503,135.69256)"
       cx="372.90503"
       cy="693.90143"
       fx="372.90503"
       fy="693.90143"
       r="364.52515" />
    <linearGradient
       id="linearGradient3910">
      <stop
         style="stop-color:#000000;stop-opacity:1;"
         offset="0"
         id="stop3912" />
      <stop
         id="stop3918"
         offset="0.57377046"
         style="stop-color:#10213a;stop-opacity:0.65882355;" />
      <stop
         style="stop-color:#1c3b68;stop-opacity:0;"
         offset="1"
         id="stop3914" />
    </linearGradient>
    <radialGradient
       inkscape:collect="always"
       xlink:href="#linearGradient3910"
       id="radialGradient5331"
       gradientUnits="userSpaceOnUse"
       gradientTransform="matrix(1,0,0,6.1142859,0,-266.30818)"
       cx="111.25"
       cy="52.07143"
       fx="111.25"
       fy="52.07143"
       r="6.25" />
    <linearGradient
       id="linearGradient2312">
      <stop
         style="stop-color:#e3ebf3;stop-opacity:1;"
         offset="0"
         id="stop2314" />
      <stop
         style="stop-color:#cedceb;stop-opacity:0.39215687;"
         offset="1"
         id="stop2316" />
    </linearGradient>
    <radialGradient
       inkscape:collect="always"
       xlink:href="#linearGradient2312"
       id="radialGradient4558"
       cx="127.27922"
       cy="98.020309"
       fx="127.27922"
       fy="98.020309"
       r="24.165739"
       gradientTransform="matrix(0.2397433,0,0,0.2516371,-19.648851,-13.923552)"
       gradientUnits="userSpaceOnUse" />
    <linearGradient
       id="linearGradient5629">
      <stop
         style="stop-color:#ffffff;stop-opacity:0;"
         offset="0"
         id="stop5631" />
      <stop
         id="stop5637"
         offset="0.87216145"
         style="stop-color:#0f4480;stop-opacity:0;" />
      <stop
         style="stop-color:#0c3163;stop-opacity:0.87450981;"
         offset="1"
         id="stop5633" />
    </linearGradient>
    <radialGradient
       inkscape:collect="always"
       xlink:href="#linearGradient5629"
       id="radialGradient3964"
       gradientUnits="userSpaceOnUse"
       gradientTransform="matrix(5.4696027e-2,0,0,5.4693006e-2,9.5638648,13.597664)"
       cx="21.75"
       cy="-49.3125"
       fx="21.75"
       fy="-49.3125"
       r="114" />
    <linearGradient
       inkscape:collect="always"
       xlink:href="#linearGradient4317"
       id="linearGradient3961"
       gradientUnits="userSpaceOnUse"
       gradientTransform="matrix(5.767558e-2,0,0,6.4637195e-2,9.6319765,15.547859)"
       x1="4.24264"
       y1="-164.7422"
       x2="6.3764067"
       y2="-47.453506" />
    <linearGradient
       inkscape:collect="always"
       id="linearGradient4317">
      <stop
         style="stop-color:#ffffff;stop-opacity:1;"
         offset="0"
         id="stop4319" />
      <stop
         style="stop-color:#ffffff;stop-opacity:0;"
         offset="1"
         id="stop4321" />
    </linearGradient>
    <linearGradient
       inkscape:collect="always"
       xlink:href="#linearGradient4317"
       id="linearGradient3956"
       gradientUnits="userSpaceOnUse"
       gradientTransform="matrix(4.5331681e-2,0,0,4.350582e-2,9.8720094,12.066767)"
       x1="4.24264"
       y1="-164.7422"
       x2="4.24264"
       y2="-32.689968" />
    <linearGradient
       id="linearGradient3700">
      <stop
         style="stop-color:#b63602;stop-opacity:1;"
         offset="0"
         id="stop3702" />
      <stop
         style="stop-color:#ffa72a;stop-opacity:1;"
         offset="1"
         id="stop3704" />
    </linearGradient>
    <linearGradient
       inkscape:collect="always"
       id="linearGradient7640">
      <stop
         style="stop-color:#df731b;stop-opacity:1;"
         offset="0"
         id="stop7642" />
      <stop
         style="stop-color:#df731b;stop-opacity:0;"
         offset="1"
         id="stop7644" />
    </linearGradient>
    <linearGradient
       inkscape:collect="always"
       id="linearGradient7648">
      <stop
         style="stop-color:#f69909;stop-opacity:1;"
         offset="0"
         id="stop7650" />
      <stop
         style="stop-color:#f69909;stop-opacity:0;"
         offset="1"
         id="stop7652" />
    </linearGradient>
    <linearGradient
       inkscape:collect="always"
       id="linearGradient3327">
      <stop
         style="stop-color:#000000;stop-opacity:1;"
         offset="0"
         id="stop3330" />
      <stop
         style="stop-color:#000000;stop-opacity:0;"
         offset="1"
         id="stop3333" />
    </linearGradient>
    <linearGradient
       inkscape:collect="always"
       xlink:href="#linearGradient3327"
       id="linearGradient3335"
       x1="11.375"
       y1="22"
       x2="11.375"
       y2="-9.817296"
       gradientUnits="userSpaceOnUse" />
    <filter
       inkscape:collect="always"
       id="filter8716"
       x="-0.26983512"
       width="1.5396702"
       y="-0.54066074"
       height="2.0813215">
      <feGaussianBlur
         inkscape:collect="always"
         stdDeviation="2.0210388"
         id="feGaussianBlur8718" />
    </filter>
    <inkscape:perspective
       sodipodi:type="inkscape:persp3d"
       inkscape:vp_x="0 : 11 : 1"
       inkscape:vp_y="0 : 1000 : 0"
       inkscape:vp_z="22 : 11 : 1"
       inkscape:persp3d-origin="11 : 7.3333333 : 1"
       id="perspective2531" />
    <linearGradient
       id="ButtonShadow"
       gradientTransform="scale(0.9883037,1.0118347)"
       x1="9.3550024"
       y1="21.742682"
       x2="9.3550024"
       y2="0.49362123"
       gradientUnits="userSpaceOnUse">
      <stop
         id="stop3277"
         offset="0"
         style="stop-color:#000000;stop-opacity:0.70588237;" />
      <stop
         id="stop3279"
         offset="1"
         style="stop-color:#000000;stop-opacity:0.15686275;" />
    </linearGradient>
    <linearGradient
       inkscape:collect="always"
       id="linearGradient3232">
      <stop
         style="stop-color:#000000;stop-opacity:1;"
         offset="0"
         id="stop3234" />
      <stop
         style="stop-color:#000000;stop-opacity:0;"
         offset="1"
         id="stop3236" />
    </linearGradient>
    <linearGradient
       gradientUnits="userSpaceOnUse"
       y2="-6.0004225"
       x2="11"
       y1="14.805666"
       x1="11"
       id="linearGradient3221"
       xlink:href="#linearGradient3232"
       inkscape:collect="always" />
    <linearGradient
       id="ButtonColor"
       x1="10.31979"
       y1="21"
       x2="10.31979"
       y2="0.99929649"
       gradientUnits="userSpaceOnUse">
      <stop
         style="stop-color:#29669f;stop-opacity:1;"
         offset="0"
         id="stop3189" />
      <stop
         style="stop-color:#88b6e0;stop-opacity:1;"
         offset="1"
         id="stop3191" />
    </linearGradient>
    <linearGradient
       inkscape:collect="always"
       xlink:href="#ButtonShadow"
       id="linearGradient38042"
       gradientUnits="userSpaceOnUse"
       gradientTransform="scale(0.9883037,1.0118347)"
       x1="9.3550024"
       y1="21.742682"
       x2="9.3550024"
       y2="0.49362123" />
    <linearGradient
       inkscape:collect="always"
       xlink:href="#linearGradient7640"
       id="linearGradient4438"
       gradientUnits="userSpaceOnUse"
       gradientTransform="matrix(0.2380953,0,0,0.2380953,-0.4285716,-0.4285714)"
       x1="6"
       y1="56.778179"
       x2="77.53125"
       y2="56.778179" />
    <linearGradient
       inkscape:collect="always"
       xlink:href="#linearGradient7648"
       id="linearGradient4440"
       gradientUnits="userSpaceOnUse"
       gradientTransform="matrix(0.2380953,0,0,0.2380953,-0.4285716,-0.4285714)"
       x1="46.147266"
       y1="10.333292"
       x2="92.14286"
       y2="90" />
    <linearGradient
       inkscape:collect="always"
       xlink:href="#linearGradient3700"
       id="linearGradient4449"
       gradientUnits="userSpaceOnUse"
       gradientTransform="translate(11.119372,-6.2581977)"
       x1="-3.0607977"
       y1="27.258198"
       x2="-3.0607977"
       y2="7.2536583" />
    <linearGradient
       inkscape:collect="always"
       xlink:href="#linearGradient3993"
       id="linearGradient4512"
       gradientUnits="userSpaceOnUse"
       gradientTransform="matrix(6.2911499e-2,-0.2020816,0.2020816,6.2911499e-2,-15.523633,15.196212)"
       x1="76.074364"
       y1="65.418854"
       x2="83.626366"
       y2="72.970856" />
    <linearGradient
       inkscape:collect="always"
       xlink:href="#linearGradient3993"
       id="linearGradient4516"
       gradientUnits="userSpaceOnUse"
       gradientTransform="matrix(0.2524314,4.4103618e-2,-4.4103618e-2,0.2524314,1.9082738,-16.635121)"
       x1="76.074364"
       y1="65.418854"
       x2="83.626366"
       y2="72.970856" />
    <linearGradient
       inkscape:collect="always"
       xlink:href="#linearGradient3993"
       id="linearGradient4524"
       gradientUnits="userSpaceOnUse"
       gradientTransform="matrix(-2.0715291e-2,-0.3235717,0.3235717,-2.0715291e-2,-15.992523,31.696611)"
       x1="76.074364"
       y1="65.418854"
       x2="83.626366"
       y2="72.970856" />
    <linearGradient
       inkscape:collect="always"
       xlink:href="#linearGradient3843"
       id="linearGradient4533"
       gradientUnits="userSpaceOnUse"
       gradientTransform="matrix(0.2332246,4.6740254e-2,-4.6740254e-2,0.2332246,3.0083339,-10.590733)"
       x1="76.074364"
       y1="65.418854"
       x2="83.626366"
       y2="72.970856" />
    <linearGradient
       inkscape:collect="always"
       xlink:href="#linearGradient3727"
       id="linearGradient4548"
       gradientUnits="userSpaceOnUse"
       gradientTransform="matrix(0.2812819,1.0675054e-2,-1.0675054e-2,0.2812819,-2.3016212,-7.2053946)"
       x1="76.074364"
       y1="65.418854"
       x2="83.626366"
       y2="72.970856" />
    <linearGradient
       inkscape:collect="always"
       xlink:href="#linearGradient3727"
       id="linearGradient4552"
       gradientUnits="userSpaceOnUse"
       gradientTransform="matrix(0.2206996,4.1312266e-3,-4.1312266e-3,0.2206996,1.7348668,-4.7301318)"
       x1="76.074364"
       y1="65.418854"
       x2="83.626366"
       y2="72.970856" />
    <linearGradient
       y2="16"
       x2="10"
       y1="1"
       x1="10"
       gradientUnits="userSpaceOnUse"
       id="linearGradient3078"
       xlink:href="#linearGradient3823"
       inkscape:collect="always"
       gradientTransform="translate(1,-1)" />
    <linearGradient
       id="linearGradient3823">
      <stop
         id="stop3825"
         offset="0"
         style="stop-color:#ffffff;stop-opacity:1;" />
      <stop
         id="stop3829"
         offset="1"
         style="stop-color:#ffffff;stop-opacity:0;" />
    </linearGradient>
    <linearGradient
       inkscape:collect="always"
       xlink:href="#linearGradient3831"
       id="linearGradient3845"
       x1="11"
       y1="19.5"
       x2="21"
       y2="19.5"
       gradientUnits="userSpaceOnUse"
       spreadMethod="reflect" />
    <linearGradient
       id="linearGradient3831">
      <stop
         style="stop-color:#ffffff;stop-opacity:1;"
         offset="0"
         id="stop3833" />
      <stop
         id="stop3821"
         offset="0.75"
         style="stop-color:#ffffff;stop-opacity:0.49803922;" />
      <stop
         style="stop-color:#ffffff;stop-opacity:0;"
         offset="1"
         id="stop3835" />
    </linearGradient>
    <linearGradient
       y2="16"
       x2="10"
       y1="1"
       x1="10"
       gradientUnits="userSpaceOnUse"
       id="linearGradient3938"
       xlink:href="#linearGradient3823"
       inkscape:collect="always" />
  </defs>
  <sodipodi:namedview
     id="base"
     pagecolor="#ffffff"
     bordercolor="#e7e7e7"
     borderopacity="1"
     inkscape:pageopacity="0.0"
     inkscape:pageshadow="2"
     inkscape:zoom="24.484741"
     inkscape:cx="2.1586472"
     inkscape:cy="7.6260417"
     inkscape:document-units="px"
     inkscape:current-layer="layer7"
     showgrid="true"
     inkscape:showpageshadow="false"
     showguides="false"
     inkscape:guide-bbox="true"
     inkscape:window-width="1920"
     inkscape:window-height="1026"
     inkscape:window-x="0"
     inkscape:window-y="25"
     inkscape:window-maximized="1">
    <sodipodi:guide
       orientation="1,0"
       position="0,112"
       id="guide2383" />
    <sodipodi:guide
       orientation="0,1"
       position="26.278146,128"
       id="guide2385" />
    <sodipodi:guide
       orientation="1,0"
       position="128,54.082119"
       id="guide2387" />
    <sodipodi:guide
       orientation="0,1"
       position="78.156291,0"
       id="guide2389" />
    <sodipodi:guide
       orientation="0,1"
       position="60.863576,64.084768"
       id="guide2391" />
    <inkscape:grid
       type="xygrid"
       id="grid3672"
       visible="true"
       enabled="true" />
  </sodipodi:namedview>
  <metadata
     id="metadata7">
    <rdf:RDF>
      <cc:Work
         rdf:about="">
        <dc:format>image/svg+xml</dc:format>
        <dc:type
           rdf:resource="http://purl.org/dc/dcmitype/StillImage" />
      </cc:Work>
    </rdf:RDF>
  </metadata>
  <g
     inkscape:groupmode="layer"
     id="layer2"
     inkscape:label="Shadow"
     style="display:inline"
     sodipodi:insensitive="true">
    <g
       style="display:inline"
       id="g3337">
      <rect
         ry="2.5"
         rx="2.5"
         y="0.5"
         x="0.5"
         height="21.5"
         width="21"
         id="rect3371"
         style="opacity:0.3;fill:url(#linearGradient3335);fill-opacity:1;stroke:none;stroke-width:1.00000012;stroke-linecap:round;stroke-linejoin:miter;stroke-miterlimit:4;stroke-dasharray:none;stroke-opacity:1;display:inline" />
      <rect
         style="opacity:0.5;fill:#000000;fill-opacity:1;stroke:none;stroke-width:1.00000012;stroke-linecap:round;stroke-linejoin:miter;stroke-miterlimit:4;stroke-dasharray:none;stroke-opacity:1;display:inline"
         id="rect2553"
         width="20"
         height="20"
         x="1"
         y="2"
         rx="2.3809524"
         ry="2.3255813" />
    </g>
  </g>
  <g
     inkscape:groupmode="layer"
     id="layer3"
     inkscape:label="Eye"
     sodipodi:insensitive="true">
    <rect
       style="opacity:1;fill:#280b0b;fill-opacity:1;fill-rule:nonzero;stroke:none;stroke-width:2;stroke-linecap:square;stroke-linejoin:miter;stroke-miterlimit:4;stroke-dasharray:none;stroke-dashoffset:0;stroke-opacity:1;display:inline"
       id="rect2971"
       width="17.073494"
       height="13.839878"
       x="2.6325769"
       y="4.3490682"
       rx="2.358269"
       ry="2.3730311" />
    <path
       sodipodi:type="arc"
       style="fill:url(#radialGradient3976);fill-opacity:1;fill-rule:evenodd;stroke:none;stroke-width:0;stroke-linecap:butt;stroke-linejoin:miter;stroke-miterlimit:4;stroke-opacity:1;display:inline"
       id="path5993"
       sodipodi:cx="372.90503"
       sodipodi:cy="376.39664"
       sodipodi:rx="364.52515"
       sodipodi:ry="359.63687"
       d="M 737.43018,376.39664 A 364.52515,359.63687 0 1 1 8.3798828,376.39664 A 364.52515,359.63687 0 1 1 737.43018,376.39664 z"
       transform="matrix(1.7105413e-2,0,0,1.7336972e-2,4.3748077,4.3757246)" />
    <path
       style="fill:#0e356a;fill-opacity:1;stroke:none;stroke-width:12px;display:inline"
       d="M 13.631885,5.4081855 C 13.336217,5.2600889 12.903475,5.0827125 13.445767,5.3178311 C 13.886866,5.5267889 14.234959,5.7385541 14.609747,6.0253349 C 14.517995,5.951029 15.026441,6.3514289 15.156543,6.4991323 C 15.312822,6.6229332 15.92006,7.3601797 15.483491,6.8420107 C 15.873273,7.2828553 16.199149,7.7798718 16.449731,8.3122312 C 16.344107,8.0947866 16.546729,8.5124791 16.385267,8.1798618 C 16.302608,7.9662458 15.850605,7.2856268 15.946689,7.4386477 C 16.059947,7.5991174 16.241884,7.9000263 16.012161,7.5329867 C 16.220101,7.8208247 16.519073,8.4475519 16.515495,8.4594096 C 16.831526,9.1712959 17.006214,9.9442928 17.037799,10.722109 C 17.039287,10.365488 16.921814,9.7099966 16.880721,9.5539909 C 17.010917,10.101282 16.708143,8.854787 16.865965,9.4927245 C 16.832172,9.2983383 16.569157,8.5074349 16.411597,8.2327252 C 16.211309,7.8272164 16.68405,8.7739263 16.71951,8.9856507 C 16.823936,9.3166116 16.818714,9.2999685 16.715879,8.9741143 C 16.685691,8.8742421 16.916604,9.6058617 16.94593,9.8695314 C 16.981378,10.039272 17.039476,10.601537 16.994163,10.191744 C 17.149859,11.419024 16.927152,12.690381 16.364444,13.792078 C 16.527634,13.470124 16.73487,12.942643 16.497056,13.514722 C 16.18309,14.212259 15.742762,14.854514 15.195272,15.389516 C 16.00612,14.477511 16.695166,13.413416 16.919652,12.195538 C 17.072672,11.452278 17.072617,10.682024 16.956398,9.9336435 C 16.997493,10.188301 17.033118,10.523866 16.977888,10.06976 C 16.953072,9.8819092 16.849452,9.3894095 16.945171,9.867889 C 16.993286,10.153936 17.031325,10.492408 16.965606,9.9945071 C 16.88525,9.4811497 16.73986,8.9780629 16.534611,8.5007318 C 16.645412,8.7787596 16.725974,8.9804891 16.567698,8.5790295 C 16.436147,8.2575986 16.199154,7.8184705 16.163227,7.7852925 C 16.355541,7.973649 16.373087,8.7904374 16.157885,8.1888546 C 16.007818,7.6534816 15.646931,7.1953826 15.265948,6.8113068 C 14.944311,6.4755967 15.180471,7.2326555 14.903175,6.7929952 C 14.771468,6.8851933 15.010359,7.7789464 14.448129,7.5998079 C 14.45061,7.2225983 15.008541,7.3193035 14.719435,6.9261701 C 14.486014,6.7386597 14.256543,7.1470431 14.077457,6.7530251 C 13.753945,6.5751693 13.972392,6.3738161 14.101694,6.2601442 C 13.762883,5.9062209 13.253728,5.8593871 12.812059,5.544398 C 12.660243,5.4104464 12.435481,5.2637426 12.526089,5.2605708 C 12.514994,5.1814484 12.708347,5.2897667 12.485309,5.2203227 C 12.817806,5.1021077 12.00478,4.9787335 12.578592,5.0860953 C 12.645646,5.0507979 12.25252,4.9479601 12.298931,4.9974263 C 11.949493,4.7995327 12.018391,5.2222814 11.751162,4.9341964 C 11.870959,4.8022321 10.817041,4.7630892 10.849555,4.733771 C 11.486955,4.7365856 12.123394,4.8408116 12.729985,5.0360105 C 12.470185,4.9404058 11.613656,4.7620584 12.298478,4.9133771 C 12.818051,5.0394293 13.332647,5.2526761 13.603869,5.3940335 C 13.765429,5.4776055 13.919541,5.5593484 13.631885,5.4081855 z M 12.250837,16.523291 C 11.687177,16.771225 11.140596,16.464244 10.578605,16.473827 C 10.216674,16.409657 10.01091,16.849746 9.9186039,16.931856 C 9.6542336,16.838431 9.8085321,16.643834 9.5647732,16.567588 C 10.300205,16.547778 8.5528435,16.051622 9.3708834,16.047875 C 8.9431482,15.872697 9.0163514,15.365805 9.4820933,15.281241 C 9.834135,15.227098 10.018459,14.930559 10.276102,14.78409 C 10.099614,14.530766 9.5374041,14.399171 10.067405,14.149768 C 10.38303,13.852573 10.713033,13.772855 11.064612,13.69863 C 11.348406,13.823026 11.558304,13.761683 11.804922,13.894971 C 12.01073,13.785717 12.137865,14.142647 12.39363,13.951575 C 12.480352,14.101954 12.662892,14.08884 12.663409,14.285949 C 13.094085,14.387263 12.772385,14.596251 12.788806,14.853427 C 13.153381,14.900531 13.491354,15.289438 13.104857,15.588706 C 12.802478,15.730886 13.055401,15.882764 12.707304,16.034155 C 12.711747,16.298828 12.183583,16.358132 12.250837,16.523291 z M 10.282548,10.841813 C 9.8544167,10.71045 9.6470175,10.19762 9.5312984,9.7858058 C 9.5167218,9.3681971 9.8278128,9.1142706 10.038675,8.8255 C 10.277031,8.5891179 10.323691,8.1011709 10.578823,7.9655697 C 10.585698,8.4243688 10.797806,8.7631571 11.234221,8.3903252 C 11.275617,8.1626962 11.059366,7.9868445 11.440191,8.0582041 C 11.648205,7.9721554 11.648817,8.0766211 11.866165,8.2283834 C 11.886981,8.6551144 12.299775,8.1338 12.405482,8.5286043 C 12.413253,8.6798535 12.65707,8.6913804 12.726567,9.0062015 C 13.188171,9.1126763 13.50971,9.6141593 13.253631,9.9558268 C 12.93969,10.165346 13.057907,11.020486 12.591605,10.530451 C 12.200797,10.440819 11.886614,9.9453716 11.422314,10.143369 C 11.226116,10.270094 11.193205,10.596825 11.037197,10.216373 C 10.919036,10.194556 11.184957,10.549067 10.954704,10.389309 C 10.910886,10.644712 10.614326,10.93082 10.369577,10.785394 C 10.345912,10.781093 10.293632,10.930617 10.282548,10.841813 z M 9.7449188,7.9171847 C 10.032441,7.5665195 10.251141,7.2234373 10.776122,7.1648633 C 11.065657,6.9480059 11.407027,7.4552283 11.534329,7.0201783 C 11.870079,7.0282936 11.731717,7.1832756 11.507262,7.1953418 C 11.839057,7.3515107 10.836489,7.3179658 10.895478,7.6568595 C 10.470629,7.9873888 10.469888,7.4007899 10.068705,7.7928179 C 10.079277,7.9284791 9.4604209,8.0145852 9.7449188,7.9171847 z M 13.437745,7.6775806 C 13.296647,7.4345241 13.010341,7.1796891 13.184782,6.9316722 C 12.842197,6.7621162 13.401853,6.6287998 13.425346,6.9415712 C 13.629874,7.1704134 14.300996,7.466314 13.843279,7.7092051 C 13.703649,7.7092267 13.530378,7.6123632 13.437745,7.6775806 z M 14.457818,8.1812979 C 14.032197,8.044311 14.555517,7.6537789 14.792754,7.680304 C 15.064016,7.4723316 15.314132,7.7667483 14.906498,7.8380695 C 14.798695,7.998532 14.647958,8.1312394 14.457818,8.1812979 z M 8.1169213,11.618989 C 8.0111987,11.676606 7.5682926,11.398689 7.9244428,11.260622 C 7.8888049,11.279232 8.0636401,10.664664 7.996361,11.11752 C 7.9705788,11.376913 8.1279019,11.383487 8.1169213,11.618989 z M 8.6557942,12.015214 C 8.5262589,11.795679 8.0563242,11.781208 8.2620426,11.5194 C 8.3767475,11.719163 9.2639193,11.900866 8.6557942,12.015214 z M 13.511729,8.1180344 C 13.569358,7.9469513 14.191203,8.0733319 14.299875,8.2478817 C 14.044771,8.2420321 13.772127,8.1667742 13.511729,8.1180344 z"
       id="path5325" />
    <g
       style="display:inline"
       id="g5327"
       transform="matrix(0.2397433,0,0,0.2397433,18.542645,-0.2250354)">
      <path
         sodipodi:type="arc"
         style="fill:url(#radialGradient5331);fill-opacity:1;fill-rule:nonzero;stroke:none;stroke-width:1.5;stroke-linecap:square;stroke-linejoin:miter;stroke-miterlimit:4;stroke-dasharray:none;stroke-dashoffset:0;stroke-opacity:1"
         id="path3908"
         sodipodi:cx="111.25"
         sodipodi:cy="52.07143"
         sodipodi:rx="6.25"
         sodipodi:ry="38.214287"
         d="m 117.5,52.07143 c 0,21.105168 -2.79822,38.214287 -6.25,38.214287 -3.45178,0 -6.25,-17.109119 -6.25,-38.214287 0,-21.105168 2.79822,-38.214287 6.25,-38.214287 3.45178,0 6.25,17.109119 6.25,38.214287 z"
         transform="matrix(2.2305429,0,0,0.5669703,-281.71645,13.067533)" />
      <path
         transform="matrix(0.848543,0,0,0.497906,-127.96896,18.17903)"
         d="m 117.5,52.07143 c 0,21.105168 -2.79822,38.214287 -6.25,38.214287 -3.45178,0 -6.25,-17.109119 -6.25,-38.214287 0,-21.105168 2.79822,-38.214287 6.25,-38.214287 3.45178,0 6.25,17.109119 6.25,38.214287 z"
         sodipodi:ry="38.214287"
         sodipodi:rx="6.25"
         sodipodi:cy="52.07143"
         sodipodi:cx="111.25"
         id="path3906"
         style="opacity:0.9;fill:#000000;fill-opacity:1;fill-rule:nonzero;stroke:none;stroke-width:1.5;stroke-linecap:square;stroke-linejoin:miter;stroke-miterlimit:4;stroke-dasharray:none;stroke-dashoffset:0;stroke-opacity:1"
         sodipodi:type="arc" />
    </g>
    <path
       id="path3710"
       style="opacity:0.8;fill:url(#radialGradient4558);fill-opacity:1;stroke:none;stroke-width:12px;display:inline"
       d="M 7.0889954,12.350098 C 7.139317,12.382075 7.1683114,12.302644 7.1021331,12.300309 C 6.9650316,12.095805 6.7968988,11.924271 6.6231235,11.762272 C 6.5486933,11.719585 6.4450376,11.700397 6.3952405,11.762842 C 6.4600557,11.794045 6.5707663,11.731959 6.6040377,11.814797 C 6.6189043,11.92998 6.7658194,11.944232 6.8143544,12.036845 C 6.8325511,12.105224 6.8744342,12.155125 6.9148821,12.200034 C 6.9037908,12.24574 6.8634452,12.27136 6.9367025,12.283198 C 6.9878638,12.304187 7.0378221,12.328713 7.0889954,12.350098 z M 7.3837809,12.676515 C 7.470206,12.593763 7.5514746,12.781011 7.6275254,12.708786 C 7.6287839,12.66416 7.526786,12.656577 7.5647182,12.597954 C 7.4774871,12.530331 7.3827619,12.473624 7.2831895,12.426694 C 7.1789539,12.412772 7.3431562,12.597526 7.2294776,12.555534 C 7.202348,12.496869 7.0681952,12.510345 7.149216,12.574057 C 7.215517,12.605845 7.3132126,12.59806 7.3454217,12.679722 C 7.3541585,12.703753 7.3747518,12.696163 7.3837809,12.676515 z M 10.194507,8.7533396 C 10.342167,8.7721762 10.116875,8.5724557 10.257633,8.5983288 C 10.399286,8.4778411 10.383117,8.2461772 10.549085,8.1470913 C 10.636526,8.1032207 10.699667,8.0228179 10.780276,7.9676891 C 10.844985,7.9055476 10.941568,7.8895184 11.001003,7.8233588 C 11.066235,7.725148 10.807667,7.6811719 10.920077,7.6095031 C 10.96841,7.6148542 11.064474,7.6074341 11.000576,7.5432045 C 10.937061,7.501072 10.911538,7.4178332 10.984185,7.3696736 C 11.020961,7.1637294 10.805223,7.0062084 10.849214,6.7995282 C 10.889141,6.6676118 10.698116,6.7060379 10.705006,6.7725714 C 10.614543,6.7392423 10.617376,6.5993808 10.505348,6.6337337 C 10.3356,6.6434026 10.184907,6.7331072 10.020283,6.766398 C 9.9313999,6.8040593 9.8303441,6.8665723 9.8101647,6.9681299 C 9.7954545,7.0135686 9.8893471,7.0557753 9.8088822,7.043829 C 9.7181874,7.0819553 9.8812504,7.1615189 9.9253616,7.1797705 C 9.9934335,7.3503095 9.9796437,7.5384456 10.010005,7.7161264 C 10.051953,7.7740892 10.045585,7.8475081 9.9800299,7.8791854 C 9.9513567,7.936508 9.8528057,8.0517861 9.9544017,8.0863117 C 9.8620166,8.1126594 9.9633635,8.2238475 9.9200632,8.2811389 C 9.9528329,8.4197345 9.9676802,8.5914674 10.105233,8.6698946 C 10.125408,8.6940918 10.23383,8.7133816 10.194507,8.7533396 z M 9.1653851,8.3704217 C 9.0955976,8.3010664 9.1627022,8.1385732 9.2320194,8.2691662 C 9.3855527,8.2318189 9.1429066,7.8677545 9.3655586,7.9860797 C 9.3820337,8.2201243 9.6190553,7.9417057 9.4533888,7.8451803 C 9.3308435,7.7254837 9.4972667,7.5587806 9.3650906,7.4771648 C 9.3858354,7.4556071 9.3207123,7.3719367 9.3328286,7.3033629 C 9.2738977,7.2507249 9.2296722,7.2983787 9.2701068,7.1917097 C 9.1827012,7.0385593 9.0718679,7.3344648 8.9333563,7.2634673 C 8.8409002,7.4238339 9.2687545,7.4117749 9.1554572,7.6085801 C 9.2451066,7.7745903 9.0354492,7.9428517 8.8607571,7.91443 C 8.9089673,8.0072323 9.0624922,8.0764342 9.0149293,8.2235358 C 9.0485893,8.2878997 9.1242407,8.31232 9.1653851,8.3704217 z M 10,6.5337896 C 9.9293703,6.5907646 9.7032246,6.4828993 9.7551222,6.6403363 C 9.8004882,6.6683095 9.8544841,6.6801072 9.7706288,6.6768228 C 9.665302,6.6555719 9.6485851,6.7747579 9.5576244,6.7579615 C 9.5321322,6.8076914 9.5344217,6.8596174 9.4599818,6.8334303 C 9.4440601,6.9048018 9.3268877,6.8463379 9.4170989,6.9211595 C 9.4561379,6.9545317 9.5820868,7.0259345 9.560513,6.9192702 C 9.6438161,6.8843708 9.7282873,6.8509339 9.7865529,6.7880996 C 9.8598414,6.7555305 10.033102,6.7852419 10.037268,6.6943696 C 10.155368,6.6842955 10.19783,6.6293008 10,6.5337896 z M 9.3353153,10.0361 C 9.3668146,9.9422094 9.4664303,10.022898 9.4647616,10.077823 C 9.5472791,10.076154 9.5140774,9.9552228 9.4633468,9.9545539 C 9.5030487,9.8667911 9.4496893,9.7526541 9.3780899,9.7917083 C 9.4598927,9.7048038 9.2349056,9.7198524 9.3546502,9.6542898 C 9.415583,9.5855434 9.3202346,9.5372927 9.2823819,9.6120255 C 9.2399862,9.6873983 9.1988214,9.7853071 9.1208408,9.8100006 C 9.0849418,9.8659304 9.0660955,9.939263 9.1609084,9.9263145 C 9.2234799,9.9111435 9.3425122,9.9364101 9.325361,10.009582 C 9.2814206,10.008523 9.3084227,10.048924 9.3353153,10.0361 z M 8.3077155,6.8405506 C 8.2274899,6.950552 8.4383805,6.9696043 8.4477586,7.0729458 C 8.5595351,7.0979222 8.6109479,7.0259441 8.6408097,6.9309218 C 8.673962,6.8796959 8.8549727,6.8132391 8.7317704,6.767357 C 8.640438,6.7964042 8.7565456,6.5289635 8.5975503,6.5803333 C 8.510555,6.622377 8.4244896,6.6802799 8.4527646,6.7818351 C 8.3890647,6.6891072 8.2882772,6.7243734 8.3077155,6.8405506 z M 9.1752553,6.9160937 C 9.1923295,7.0146114 9.291701,7.0730489 9.3834004,7.0879441 C 9.4416551,7.1007008 9.4733854,7.025793 9.4175994,6.9971773 C 9.380353,6.9544406 9.291168,6.9902871 9.2837269,6.9202029 C 9.2752066,6.8838578 9.320379,6.8556665 9.2832926,6.8264848 C 9.2889652,6.8018153 9.3159143,6.7498965 9.2650983,6.7518719 C 9.2110796,6.7721807 9.2826838,6.8393351 9.2392187,6.868428 C 9.2140645,6.8777731 9.1893109,6.8924479 9.1752553,6.9160937 z M 8.8872371,6.5384142 C 8.9211173,6.5213181 8.9484033,6.601131 8.9009078,6.5782931 C 8.8457763,6.5751884 8.8718484,6.6504391 8.9153641,6.6447403 C 8.9518165,6.6635914 8.9943132,6.7007179 9.0368436,6.6787983 C 9.0561579,6.6509353 9.0408089,6.6129624 9.0793318,6.5999418 C 9.1071388,6.5721796 9.0646951,6.5641794 9.0510581,6.5900476 C 9.0209183,6.6348413 8.9546871,6.58567 9.0043373,6.5521826 C 9.0314212,6.538057 9.0375678,6.4946227 8.9968216,6.5032678 C 8.9596257,6.524756 8.9073371,6.4820985 8.8828783,6.5195488 C 8.8819315,6.5262065 8.8841536,6.532682 8.8872371,6.5384142 z M 11.525181,8.2361248 C 11.57606,8.1995902 11.64843,8.1162483 11.591549,8.0579931 C 11.545472,8.0043793 11.467419,7.9625058 11.418465,8.0161579 C 11.371662,8.0409378 11.422917,8.0923052 11.377164,8.0468666 C 11.338609,8.0608245 11.254701,8.0783689 11.293111,8.1410042 C 11.299059,8.0847533 11.193281,8.0307415 11.196549,8.0974117 C 11.16115,8.0612488 11.158097,8.1769873 11.20863,8.1368255 C 11.282573,8.1197989 11.159052,8.2152502 11.201005,8.2049893 C 11.243248,8.2065212 11.32616,8.2206733 11.288225,8.2782332 C 11.372462,8.2572893 11.469359,8.3279201 11.525181,8.2361248 z M 12.149878,6.1433437 C 12.041035,6.1122011 11.950688,6.0387055 11.872659,5.9592593 C 11.826227,5.9243623 11.790138,5.9932333 11.853246,6.0037701 C 11.919411,6.0869489 11.994482,6.1621803 12.102491,6.1836086 C 12.1309,6.2270189 12.285379,6.2324634 12.190183,6.173489 C 12.183672,6.1659347 12.133389,6.1604806 12.149878,6.1433437 z M 12.982364,9.132086 C 12.997872,9.0674799 13.002417,8.9571909 12.943414,8.9146579 C 12.843841,8.916962 12.790302,8.833867 12.708987,8.7920965 C 12.644526,8.7261024 12.515018,8.7405253 12.495059,8.6375844 C 12.500184,8.5875835 12.520007,8.5438424 12.452426,8.5803288 C 12.364388,8.6390396 12.429344,8.4438167 12.332508,8.5166915 C 12.244483,8.583412 12.355531,8.6577132 12.392375,8.7173565 C 12.426805,8.7336231 12.422677,8.8297146 12.457536,8.7753193 C 12.474676,8.8207794 12.499239,8.9061663 12.553762,8.845564 C 12.639054,8.8526029 12.716772,8.964551 12.643876,9.0337961 C 12.670342,9.0843314 12.650745,9.2283548 12.756325,9.1637105 C 12.833111,9.1446246 12.665006,9.2645081 12.715199,9.3174794 C 12.814929,9.3685256 12.799126,9.18961 12.884906,9.1787927 C 12.921612,9.1761363 12.954889,9.1552812 12.982364,9.132086 z M 12.489486,9.234442 C 12.564899,9.2045124 12.570545,9.0981215 12.505378,9.0541406 C 12.464868,8.9945405 12.528426,8.8514258 12.406194,8.8853086 C 12.372291,8.8869797 12.304058,8.8870875 12.333044,8.9495407 C 12.280406,8.9808582 12.290154,8.920364 12.335414,8.9614966 C 12.405235,9.0261817 12.224347,9.0383368 12.309775,9.0807641 C 12.280281,9.1384511 12.412687,9.1211345 12.358435,9.1950569 C 12.437315,9.1601718 12.407046,9.2893718 12.375827,9.2784204 C 12.412793,9.3256546 12.447821,9.2776676 12.489486,9.234442 z M 9.0138261,5.3342176 C 9.3640367,5.1805086 9.7488144,5.0617014 10.213298,5.1314811 C 10.270623,5.1556568 10.586712,5.0633725 10.810379,5.1133637 C 10.868121,5.2736081 11.389719,5.2938568 11.394655,5.3659764 C 10.829697,5.4037359 11.523955,5.6331582 11.779131,5.6579356 C 11.894163,5.7613537 12.194484,5.6576959 12.177331,5.6745666 C 11.978623,5.7448762 12.363257,5.8146174 12.180848,5.834775 C 12.51158,5.9730733 12.441087,5.6294925 12.550832,5.8440531 C 13.131514,6.0396956 12.24171,5.7472352 12.185487,5.9326094 C 12.411022,6.038202 12.693191,5.8750543 12.602749,6.1682746 C 12.747049,6.2156047 12.583828,6.2294906 12.744345,6.368549 C 12.652662,6.3400411 12.894163,6.6867146 12.736436,6.4011612 C 12.908452,6.6146645 12.864778,6.5656035 12.740987,6.6117085 C 12.936348,6.6080284 13.151501,6.9931663 13.010921,6.9879137 C 12.786278,6.9544239 12.763805,6.9701175 12.908306,6.7943713 C 12.703098,6.6123174 12.390906,6.9785803 12.333117,6.8739876 C 12.317023,6.93681 12.352691,7.0290176 12.310242,7.1277606 C 12.407663,7.3203272 12.493857,7.6194308 12.581687,7.738003 C 12.59148,7.7797543 12.442749,8.1176317 12.622871,8.0327937 C 12.668874,7.9060343 12.587817,8.2040328 12.694405,8.1510998 C 12.845472,8.4215469 12.885196,8.1562495 12.948425,8.0589425 C 13.088385,8.2584352 13.458215,8.4334789 13.250056,8.0550107 C 13.128678,7.7779515 12.742177,7.571149 12.761144,7.2473853 C 12.903961,7.4227335 13.220847,7.9132793 13.348022,7.4429558 C 13.354801,7.615209 13.279127,7.7320286 13.481039,7.8230615 C 13.333464,7.969981 13.754528,8.1361662 13.467346,8.2971537 C 13.411941,8.5542233 13.089892,8.5409056 13.038892,8.2526455 C 12.901027,8.4301585 13.402529,8.5746853 13.128594,8.7611672 C 13.181999,8.9099687 13.043132,9.2206423 13.002041,9.3787577 C 12.550315,9.5362666 13.49575,9.5633673 13.202182,9.9174008 C 12.942175,10.001162 12.663152,10.090695 12.903344,10.379208 C 12.876614,10.716446 13.168371,10.815596 13.389324,10.636332 C 13.753115,10.380247 13.361329,9.7710976 13.761896,9.5759393 C 13.825387,9.2637937 14.199831,9.6489292 14.422551,9.5809812 C 14.600119,9.8827938 14.461525,9.3529806 14.425295,9.4097949 C 14.161831,9.5142414 13.688737,9.0491013 14.129269,9.1988592 C 14.409641,9.1301704 14.665501,9.4672661 14.790079,9.4599108 C 15.049074,9.5787803 14.707158,9.2357509 14.706016,9.1723436 C 14.688492,9.0167574 14.963598,8.8660069 14.675464,8.7512035 C 14.604453,8.5735968 14.447903,8.2742487 14.601603,8.2298219 C 14.693652,8.5164109 14.745635,8.1336993 14.671324,8.2121744 C 14.50784,7.954623 14.655449,7.8712787 14.755624,8.1504381 C 15.153645,7.9497515 15.107068,8.4264209 14.887659,8.5677208 C 14.89981,8.8306352 14.719525,9.092478 15.000895,9.2021005 C 15.211724,9.2819998 15.23611,8.9621104 15.308376,8.8237929 C 15.649456,9.1405537 15.612299,9.7258509 15.136747,9.8586541 C 14.887697,9.941929 15.258152,10.379027 14.830351,10.308816 C 14.663922,10.237648 14.362892,10.525791 14.381096,10.166259 C 14.245299,9.8833166 13.830315,10.438888 13.653538,10.621216 C 13.517669,10.835304 13.191457,10.732407 13.235674,11.07889 C 13.038186,11.316862 13.262472,11.671437 12.936107,11.859958 C 12.799161,12.245836 12.633232,12.592263 12.854347,12.955535 C 12.815844,13.233565 12.800618,13.372579 12.957187,13.497344 C 13.12437,13.521625 13.306245,13.885913 13.602906,13.878538 C 14.096902,13.909513 14.430992,13.343793 14.839462,13.206877 C 14.907914,13.456894 15.272214,12.907808 15.188351,13.3236 C 15.134649,13.508893 15.189013,13.756808 15.329695,13.750352 C 15.554652,14.193408 15.039914,14.531069 15.088187,14.967655 C 14.963166,15.157717 14.730305,15.438169 15.019346,15.128715 C 15.922282,14.151991 16.523347,12.883254 16.616592,11.549593 C 16.686353,10.990434 16.672953,10.417369 16.555532,9.8667095 C 16.530541,10.067634 16.655069,10.54867 16.395756,10.295804 C 16.15017,10.117371 15.922179,9.7683525 15.619127,9.5730744 C 15.858632,9.72207 15.590987,9.3572024 15.852462,9.6033204 C 16.132555,9.7117371 16.432015,10.130775 16.497794,10.232901 C 16.505909,9.6238448 16.404231,8.9812132 16.114626,8.4473529 C 15.862079,8.2691469 16.289509,8.9750733 16.06149,8.7567319 C 16.110887,8.941152 15.640217,8.4197417 15.968382,8.5418381 C 16.069947,8.1949249 15.86096,7.8199329 15.781011,7.6635029 C 15.896021,7.8326489 16.139406,8.3427793 16.129579,8.3259733 C 15.845762,7.6982728 15.457583,7.1177706 14.984842,6.6166233 C 15.133881,6.773914 15.295633,6.9718724 15.055167,6.6923582 C 15.269024,6.9054227 15.632977,7.4228726 15.679165,7.5009449 C 15.546697,7.2767299 15.193176,6.8433508 15.144514,6.7926859 C 15.338437,7.0154313 14.858487,6.461459 14.743493,6.374437 C 14.325907,5.9817759 13.945718,5.704501 13.433591,5.4197915 C 13.14511,5.2463061 12.562489,5.0208971 12.401257,4.9724067 C 12.639023,5.0516801 11.954884,4.8305722 12.208175,4.9137318 C 11.714392,4.7667957 12.76428,5.0805068 12.236531,4.920579 C 11.634042,4.7405558 11.004059,4.6523998 10.375269,4.661661 C 10.605808,4.6931538 10.826439,4.6811282 10.454178,4.7164855 C 10.070797,4.7428813 9.703553,4.8047926 9.3596177,4.8994839 C 8.992055,5.0800729 9.7592139,4.668676 9.3056676,4.7695504 C 9.0781757,4.7774571 9.1235453,4.8701874 9.1732678,4.9282316 C 9.0246936,4.9412544 8.4044739,5.3133384 8.850401,5.2052956 C 8.7383465,5.329648 8.2936718,5.4909328 8.6592242,5.4409129 C 8.7075138,5.3436682 8.9226693,5.4015638 9.0138261,5.3342176 z M 8.2377198,16.717422 C 8.5142737,16.821146 8.6051261,16.851117 8.5183221,16.777913 C 8.6878096,16.81435 9.1918098,16.884093 8.8233002,16.710702 C 8.9821343,16.88601 9.3835772,16.715044 9.408338,16.726856 C 9.5447742,16.747149 9.6913693,16.370841 9.9918563,16.442933 C 10.582083,16.553716 10.454678,15.822221 10.87086,15.645444 C 11.27739,15.273141 10.460564,15.140379 10.189979,15.116038 C 9.9052712,15.173533 10.000214,15.052208 9.7879978,14.936649 C 9.5503866,15.023646 9.4781183,14.835279 9.2570292,14.853157 C 9.4066212,14.455354 8.9692408,14.225416 8.6314052,14.207504 C 8.4154966,14.096122 8.3004633,13.804961 8.0899637,13.659986 C 7.9989164,13.707221 7.3888183,13.367602 7.3980099,13.336434 C 7.2471221,13.288001 7.2064601,13.660837 7.2252945,13.36421 C 7.3726307,13.075355 6.8195289,13.214282 6.7406725,13.387784 C 6.6292942,13.07669 6.1028444,13.160742 6.2450915,12.708929 C 6.5802839,12.312475 5.6502461,12.18201 6.1065751,11.883035 C 6.3574648,11.673159 5.9613203,11.436909 5.8607661,11.718814 C 5.3487498,11.588388 5.5758676,10.892092 5.8010773,10.601005 C 6.0393201,10.283906 6.3413939,11.107815 6.3473709,10.681299 C 6.3922076,10.800009 6.9181521,10.998912 6.7043969,11.351038 C 6.7288004,11.743519 6.9009503,11.547539 6.8891961,11.267379 C 6.7489557,10.827116 7.3849034,10.887781 7.4693289,10.709312 C 7.5719319,10.663336 7.4727878,10.348989 7.5863834,10.400047 C 7.5088913,10.747049 7.6967608,10.34423 7.6657403,10.397926 C 7.7671041,10.332272 7.9702528,10.255242 8.1116939,10.29076 C 7.9880633,10.019858 8.5937678,9.9833542 8.6758268,10.072033 C 8.5077506,10.017098 8.3906853,10.312521 8.6687659,10.149844 C 9.0809837,10.139461 8.5541958,9.9968805 8.6306665,9.7809845 C 8.6545394,9.7966542 8.8642557,9.5912614 8.5735691,9.631296 C 8.3908224,9.6693482 8.1458989,9.8213117 8.4378427,9.6186161 C 8.7276138,9.4064121 9.3484651,9.8099288 9.4237014,9.3579528 C 9.3666402,9.1754459 9.0647408,9.3518059 9.2512989,9.2368058 C 9.4442586,9.2026472 9.0526221,9.0177164 9.1916606,8.857333 C 9.1749581,8.6949549 9.1464473,8.3827876 9.0075207,8.7318179 C 8.8620469,8.6615443 8.8686614,8.6218165 8.9052702,8.3815314 C 8.8391112,8.0435006 8.5926766,8.1557508 8.5023367,8.3901262 C 8.4077751,8.5321861 8.431476,8.8132611 8.1591437,8.792763 C 8.1650677,9.0848877 7.8414153,9.2177151 7.9301418,8.8501479 C 8.1869543,8.5362114 7.5205709,8.1568896 7.9353849,7.8855627 C 8.1749884,7.9032461 8.3035275,7.5739204 8.2958242,7.7265529 C 8.566815,7.8945554 8.4564304,7.4493954 8.5595628,7.6770891 C 8.7167727,7.6297158 8.9807496,7.701996 8.951162,7.4063615 C 8.7790723,7.4679635 8.6503923,7.620946 8.7367019,7.3739122 C 8.6823187,7.3456752 9.017386,6.9393824 8.7016571,7.1604544 C 8.6213017,7.4217721 8.4550276,7.2751547 8.4613402,7.2814145 C 8.3155091,7.0973372 8.3980361,6.886682 8.1731573,7.0961912 C 8.1884762,6.9353163 8.3232245,6.666931 8.2964666,6.5361246 C 8.4731173,6.3968531 8.0859045,6.3585253 8.3153876,6.1715256 C 8.4131734,5.9596573 8.8820542,5.649933 8.5141606,5.6030393 C 8.200637,5.8127714 8.4297953,5.5362635 8.3576015,5.5538943 C 8.1941728,5.6004739 8.1144802,5.7789964 8.0609163,5.582709 C 7.8115979,5.6103082 7.5248382,5.9801122 7.4230606,5.7803678 C 7.350998,6.0069706 7.8425775,6.0300939 7.4907307,6.0565136 C 7.6868064,6.2096087 7.1012344,6.5771351 7.2475877,6.6120346 C 7.1075085,6.7110006 6.9251312,6.9335015 6.8208379,7.024834 C 6.5793467,7.2191077 6.5014756,7.5154182 6.2706824,7.7230743 C 6.4396285,7.4287678 5.7574786,8.0332828 5.6487543,8.2002065 C 5.4252662,8.5448637 5.3900711,8.9705805 5.2175422,9.3610096 C 5.1451644,9.618393 5.0179258,10.095734 5.0968435,10.239307 C 5.1322877,9.9849413 5.2412033,9.2588957 5.348129,9.3401351 C 5.2324232,9.7482284 5.186215,10.178136 5.1986681,10.608574 C 5.0150889,11.044549 5.3016332,11.574481 5.6159774,11.869963 C 5.8201799,12.255546 6.0443502,12.707579 6.2011331,13.003912 C 6.316952,13.079663 6.4112031,13.428353 6.539782,13.211944 C 6.7284816,13.38144 6.7876302,13.885604 6.4651664,13.903584 C 6.2329704,14.061908 6.5651924,14.185453 6.3639157,14.319164 C 6.6420926,14.745418 6.822367,15.288662 7.3031102,15.541265 C 7.7023467,15.811827 7.4880646,16.486453 8.0150654,16.624588 C 8.0310376,16.641495 8.1727326,16.689769 8.2377198,16.717422 z M 12.500836,6.2921307 C 12.512133,6.1515597 12.335603,6.290829 12.275092,6.2059024 C 12.189948,6.2537814 12.398022,6.3095697 12.381626,6.2988292 C 12.418534,6.3218254 12.42149,6.3331963 12.429653,6.2904981 C 12.455378,6.2774512 12.475043,6.2884771 12.500836,6.2921307 z M 8.5511388,6.5585574 C 8.646427,6.6380587 8.8819844,6.5540334 8.7596917,6.4266507 C 8.6695431,6.41241 8.4526624,6.4254352 8.4837177,6.5544818 C 8.4995431,6.5783651 8.5312661,6.5721245 8.5511388,6.5585574 z M 7.2926566,12.428825 L 7.2850591,12.424033 L 7.2926566,12.428825 L 7.2926566,12.428825 z" />
    <path
       style="fill:url(#radialGradient3964);fill-opacity:1;fill-rule:evenodd;stroke:none;stroke-width:0;stroke-linecap:butt;stroke-linejoin:miter;stroke-miterlimit:4;stroke-opacity:1;display:inline"
       d="M 10.753505,4.6656104 C 7.3115872,4.6656104 4.5181568,7.4588856 4.5181568,10.900614 C 4.5181568,14.342343 7.3115872,17.135619 10.753505,17.135619 C 14.195419,17.135619 16.98885,14.342343 16.98885,10.900614 C 16.98885,7.4588856 14.195419,4.6656099 10.753505,4.6656104 z M 10.753505,5.632993 C 13.661689,5.632993 16.021414,7.9925849 16.021414,10.900614 C 16.021414,13.808643 13.661689,16.169945 10.753505,16.169945 C 7.8453169,16.169945 5.4855927,13.808643 5.4855927,10.900614 C 5.4855927,7.9925849 7.8453169,5.632993 10.753505,5.632993 z"
       id="path5616" />
    <path
       style="opacity:0.6;fill:url(#linearGradient3961);fill-opacity:1;fill-rule:evenodd;stroke:none;stroke-width:1;stroke-linecap:round;stroke-linejoin:miter;stroke-miterlimit:4;stroke-dasharray:none;stroke-dashoffset:0;stroke-opacity:1;display:inline"
       d="M 10.753505,4.911743 C 9.0675368,4.911743 7.5381023,5.5822187 6.4154187,6.670564 C 6.4138222,6.6723705 6.4118841,6.6738831 6.4102912,6.6756919 C 5.8450442,7.3176531 5.512934,8.0890807 5.512934,8.9216502 C 5.512934,11.141837 7.8606984,12.941812 10.753505,12.941813 C 13.646306,12.941813 15.994072,11.141837 15.994072,8.9216502 C 15.994072,8.0890802 15.661962,7.3176531 15.096712,6.6756919 C 15.095121,6.6738831 15.093182,6.6723705 15.091584,6.670564 C 13.968903,5.5822187 12.439469,4.911743 10.753505,4.911743 z"
       id="path6707" />
    <path
       style="opacity:0.6;fill:url(#linearGradient3956);fill-opacity:1;fill-rule:evenodd;stroke:none;stroke-width:1;stroke-linecap:round;stroke-linejoin:miter;stroke-miterlimit:4;stroke-dasharray:none;stroke-dashoffset:0;stroke-opacity:1;display:inline"
       d="M 10.753505,4.911743 C 10.03285,4.911743 9.3413813,5.0352133 8.6972695,5.2604304 C 7.4649677,5.7284906 6.6359135,6.6068657 6.6359135,7.6089438 C 6.6359135,9.1032992 8.4798221,10.316401 10.753505,10.3164 C 13.027181,10.3164 14.871092,9.1032992 14.871092,7.6089438 C 14.871092,6.6068657 14.042035,5.7284906 12.809734,5.2604304 C 12.165624,5.0352133 11.474155,4.911743 10.753505,4.911743 z"
       id="path6717" />
    <path
       style="opacity:0.2;fill:#ffffff;fill-opacity:1;fill-rule:evenodd;stroke:none;stroke-width:0;stroke-linecap:butt;stroke-linejoin:miter;stroke-miterlimit:4;stroke-opacity:1;display:inline"
       d="M 4.8792506,10.601366 C 4.8705739,10.729446 4.867044,10.857415 4.867044,10.987636 C 4.867044,14.173189 7.5037192,16.759458 10.753505,16.759458 C 14.003284,16.759458 16.639962,14.173189 16.639962,10.987636 C 16.639962,10.857415 16.636432,10.729446 16.627757,10.601366 C 16.42503,13.60726 13.871026,15.985211 10.753505,15.985211 C 7.6359795,15.985211 5.0819746,13.60726 4.8792506,10.601366 z"
       id="path5643" />
  </g>
  <g
     inkscape:label="Button"
     inkscape:groupmode="layer"
     id="layer1"
     sodipodi:insensitive="true">
    <path
       style="opacity:1;fill:url(#linearGradient4449);fill-opacity:1;fill-rule:evenodd;stroke:none;stroke-width:0.25;stroke-linecap:round;stroke-linejoin:miter;stroke-miterlimit:4;stroke-dasharray:none;stroke-dashoffset:0;stroke-opacity:1;display:inline"
       d="M 3,1 C 1.892,1 1,1.892 1,3 L 1,19 C 1,20.108 1.892,21 3,21 L 19,21 C 20.108,21 21,20.108 21,19 L 21,3 C 21,1.892 20.108,1 19,1 L 3,1 z M 10.34375,5.46875 C 15.31503,5.4022053 17.594902,12.275454 18.1875,13.3125 C 10.067017,21.370519 4.0627084,12.997395 4.4375,8.3125 C 6.7333721,6.2717248 8.6866568,5.4909316 10.34375,5.46875 z"
       id="rect3173" />
    <rect
       style="opacity:0.2;fill:#ffffff;fill-opacity:1;stroke:none;stroke-width:1;stroke-linecap:butt;stroke-linejoin:round;stroke-miterlimit:4;stroke-dasharray:none;stroke-dashoffset:0;stroke-opacity:1;display:inline;filter:url(#filter8716)"
       id="rect3200"
       width="17.975767"
       height="8.9714174"
       x="2"
       y="1.9800392"
       rx="2"
       ry="2"
       transform="matrix(0.8817734,0,0,0.8817734,0.2364528,1.3432966)" />
    <path
       sodipodi:nodetypes="ccccccc"
       id="path4434"
       d="M 1,6.9226186 L 1,16.022321 C 5.5658121,19.967069 13.222238,20.147818 19.009141,15.009354 L 16.587797,12.808036 C 16.846385,13.325927 17.004463,13.693452 17.004463,13.693452 C 11.254948,20.075745 4.2831793,15.578649 4.4598215,9.3258926 L 1,6.9226186 z"
       style="opacity:1;fill:url(#linearGradient4438);fill-opacity:1;fill-rule:evenodd;stroke:none;stroke-width:1px;stroke-linecap:butt;stroke-linejoin:miter;stroke-opacity:1;display:inline" />
    <path
       style="opacity:1;fill:url(#linearGradient4440);fill-opacity:1;fill-rule:evenodd;stroke:none;stroke-width:1px;stroke-linecap:butt;stroke-linejoin:miter;stroke-opacity:1;display:inline"
       d="M 3,1 C 1.892,1 1,1.892 1,3 L 1,11.15625 C 2.3839325,9.8877419 6.844429,5.540235 10.21875,5.65625 C 16.358025,7.6562594 18.302028,10.417491 19.53125,20.9375 C 20.380565,20.706436 21,19.924488 21,19 L 21,3 C 21,1.892 20.108,1 19,1 L 3,1 z"
       id="path4436" />
    <path
       sodipodi:nodetypes="cccsccscscscc"
       id="path4442"
       d="M 10.938606,5.1076706 C 6.44778,4.5919756 3.5191327,8.0968456 3.5191327,8.0968456 L 4.0572422,8.4016836 C 3.9578938,11.918413 5.8351159,15.184118 8.6045938,16.441761 C 11.374072,17.699403 15.515582,16.986123 18.089614,13.599855 L 18.267429,13.392984 C 16.974787,9.807423 14.88346,5.5606706 10.938606,5.1076706 z M 10.852604,6.0932156 C 12.854333,6.1532456 14.666834,7.9592636 15.961628,9.802953 C 17.169234,11.522494 17.851227,13.103168 17.946663,13.325576 C 14.893182,16.631584 11.617145,17.085894 9.0872248,15.937036 C 6.54489,14.782541 4.7462227,11.980922 4.8080106,8.6965396 C 4.915972,8.5339226 6.682646,5.9662596 10.852604,6.0932156 z"
       style="opacity:1;fill:#000000;fill-opacity:1;fill-rule:evenodd;stroke:none;stroke-width:2;stroke-linecap:butt;stroke-linejoin:miter;stroke-miterlimit:4;stroke-dasharray:none;stroke-opacity:1;display:inline" />
  </g>
  <g
     inkscape:groupmode="layer"
     id="layer5"
     inkscape:label="Fur 1"
     sodipodi:insensitive="true">
    <path
       style="fill:url(#linearGradient4062);fill-opacity:1;fill-rule:evenodd;stroke:none;stroke-width:1px;stroke-linecap:butt;stroke-linejoin:miter;stroke-opacity:1;display:inline"
       d="M 6.8563986,17.618203 C 6.8563986,17.618203 6.725377,19.223067 7.1996879,20.298945 C 6.4077744,19.357836 6.279878,18.163804 6.279878,18.163804 C 6.2305331,17.105902 6.8563986,17.618203 6.8563986,17.618203 z"
       id="path4060"
       sodipodi:nodetypes="cccc" />
    <path
       style="fill:url(#linearGradient4054);fill-opacity:1;fill-rule:evenodd;stroke:none;stroke-width:1px;stroke-linecap:butt;stroke-linejoin:miter;stroke-opacity:1;display:inline"
       d="M 5.8069362,17.080369 C 5.8069362,17.080369 4.9390547,19.209827 5.3298126,20.921406 C 4.3357227,19.23374 4.5915061,17.535535 4.5915061,17.535535 C 4.9288027,16.063261 5.8069362,17.080369 5.8069362,17.080369 z"
       id="path4052"
       sodipodi:nodetypes="cccc" />
    <path
       sodipodi:nodetypes="cccc"
       id="path4042"
       d="M 4.0200864,16.223569 C 4.0200864,16.223569 1.945029,17.962537 1.4099926,19.95909 C 1.3038765,17.655454 2.5045248,16.028571 2.5045248,16.028571 C 3.665703,14.681706 4.0200864,16.223569 4.0200864,16.223569 z"
       style="fill:url(#linearGradient4044);fill-opacity:1;fill-rule:evenodd;stroke:none;stroke-width:1px;stroke-linecap:butt;stroke-linejoin:miter;stroke-opacity:1;display:inline" />
    <path
       style="fill:url(#linearGradient4006);fill-opacity:1;fill-rule:evenodd;stroke:none;stroke-width:1px;stroke-linecap:butt;stroke-linejoin:miter;stroke-opacity:1;display:inline"
       d="M 6.2776405,15.659779 C 6.2776405,15.659779 3.7112793,17.170358 2.7469921,19.278163 C 3.0833486,16.699912 4.6895787,15.136964 4.6895787,15.136964 C 6.1987314,13.876829 6.2776405,15.659779 6.2776405,15.659779 z"
       id="path3999"
       sodipodi:nodetypes="cccc" />
    <path
       sodipodi:nodetypes="cccc"
       id="path4014"
       d="M 6.9536276,15.761059 C 6.9536276,15.761059 5.8032728,17.849252 6,19.694476 C 5.1787641,17.781721 5.6465808,16.049545 5.6465808,16.049545 C 6.1712061,14.565531 6.9536276,15.761059 6.9536276,15.761059 z"
       style="fill:url(#linearGradient4016);fill-opacity:1;fill-rule:evenodd;stroke:none;stroke-width:1px;stroke-linecap:butt;stroke-linejoin:miter;stroke-opacity:1;display:inline" />
    <path
       style="fill:url(#linearGradient4028);fill-opacity:1;fill-rule:evenodd;stroke:none;stroke-width:1px;stroke-linecap:butt;stroke-linejoin:miter;stroke-opacity:1;display:inline"
       d="M 7.9412367,16.409074 C 7.9412367,16.409074 7.6812258,18.100287 8.2691362,19.295344 C 7.2436701,18.208876 7.1315298,16.926027 7.1315298,16.926027 C 7.1189113,15.796409 7.9412367,16.409074 7.9412367,16.409074 z"
       id="path4026"
       sodipodi:nodetypes="cccc" />
    <path
       sodipodi:nodetypes="cccc"
       id="path4022"
       d="M 4.9200489,13.794311 C 4.9200489,13.794311 2.8814862,14.548146 1.9166842,15.937817 C 2.4911392,14.129138 3.8467472,13.213738 3.8467472,13.213738 C 5.0935292,12.503334 4.9200489,13.794311 4.9200489,13.794311 z"
       style="fill:url(#linearGradient4024);fill-opacity:1;fill-rule:evenodd;stroke:none;stroke-width:1px;stroke-linecap:butt;stroke-linejoin:miter;stroke-opacity:1;display:inline" />
  </g>
  <g
     inkscape:groupmode="layer"
     id="layer6"
     inkscape:label="Eye Shadow"
     sodipodi:insensitive="true">
    <path
       style="opacity:0.4;fill:#480500;fill-opacity:1;fill-rule:evenodd;stroke:none;stroke-width:1px;stroke-linecap:butt;stroke-linejoin:miter;stroke-opacity:1;display:inline"
       d="M 8.3297837,3.661077 C 4.9232686,3.7779666 1.0994108,5.9383969 2.0594885,11.047062 C 3.0285649,16.203618 12.589476,21.476697 19.106523,13.826252 C 17.291059,6.7488895 12.441095,3.5200033 8.3297837,3.661077 z M 10.230589,5.5205602 C 10.365906,5.5189799 10.503488,5.5162881 10.643807,5.5205602 C 15.010723,5.6515213 18.164384,13.189895 18.164384,13.189895 C 11.778217,20.278907 4.034454,15.283843 4.2306561,8.3387102 C 4.2306561,8.3387102 6.03575,5.5695448 10.230589,5.5205602 z"
       id="path2904"
       sodipodi:nodetypes="cscccscsc" />
  </g>
  <g
     inkscape:groupmode="layer"
     id="layer4"
     inkscape:label="Fur 2"
     sodipodi:insensitive="true">
    <path
       style="fill:url(#linearGradient4512);fill-opacity:1;fill-rule:evenodd;stroke:none;stroke-width:1px;stroke-linecap:butt;stroke-linejoin:miter;stroke-opacity:1;display:inline"
       d="M 5.2404652,3.4520675 C 5.2404652,3.4520675 3.0130074,3.55029 1.6354468,4.6058092 C 2.7628562,3.0187606 4.3737176,2.5489 4.3737176,2.5489 C 5.8140917,2.2452283 5.2404652,3.4520675 5.2404652,3.4520675 z"
       id="path4510"
       sodipodi:nodetypes="cccc" />
    <path
       sodipodi:nodetypes="cccc"
       id="path4522"
       d="M 7.2786634,3.5187223 C 7.2786634,3.5187223 4.1458186,4.8796401 2.7533508,7.1444429 C 3.4967272,4.256275 5.5438366,2.7015081 5.5438366,2.7015081 C 7.4380956,1.4779033 7.2786634,3.5187223 7.2786634,3.5187223 z"
       style="fill:url(#linearGradient4524);fill-opacity:1;fill-rule:evenodd;stroke:none;stroke-width:1px;stroke-linecap:butt;stroke-linejoin:miter;stroke-opacity:1;display:inline" />
    <path
       sodipodi:nodetypes="cccc"
       id="path3823"
       d="M 9.6096108,3.7237672 C 9.6096108,3.7237672 6.0925397,1.8206037 3,2.1738567 C 6.1979331,0.77225461 9.1092383,1.5350772 9.1092383,1.5350772 C 11.605017,2.3963165 9.6096108,3.7237672 9.6096108,3.7237672 z"
       style="fill:url(#linearGradient3825);fill-opacity:1;fill-rule:evenodd;stroke:none;stroke-width:1px;stroke-linecap:butt;stroke-linejoin:miter;stroke-opacity:1;display:inline" />
    <path
       sodipodi:nodetypes="cccc"
       id="path3819"
       d="M 13.905225,5.0596815 C 13.905225,5.0596815 9.0773513,2.8904867 5.029809,3.6582482 C 9.1142624,1.4964489 13.03139,2.2195129 13.03139,2.2195129 C 16.40964,3.1129897 13.905225,5.0596815 13.905225,5.0596815 z"
       style="fill:url(#linearGradient3821);fill-opacity:1;fill-rule:evenodd;stroke:none;stroke-width:1px;stroke-linecap:butt;stroke-linejoin:miter;stroke-opacity:1;display:inline" />
    <path
       sodipodi:nodetypes="cccc"
       id="path3921"
       d="M 16.938822,6 C 16.938822,6 14.042246,2.5365602 10.650182,1.6176268 C 14.589983,1.4805576 17.326494,3.4949266 17.326494,3.4949266 C 19.585986,5.4392838 16.938822,6 16.938822,6 z"
       style="fill:url(#linearGradient3923);fill-opacity:1;fill-rule:evenodd;stroke:none;stroke-width:1px;stroke-linecap:butt;stroke-linejoin:miter;stroke-opacity:1;display:inline" />
    <path
       style="fill:url(#linearGradient3927);fill-opacity:1;fill-rule:evenodd;stroke:none;stroke-width:1px;stroke-linecap:butt;stroke-linejoin:miter;stroke-opacity:1;display:inline"
       d="M 19.232976,8.1412876 C 19.232976,8.1412876 15.110173,4.8222125 11,4.5419643 C 15.49825,3.4827724 19.105413,5.172471 19.105413,5.172471 C 22.148123,6.8908387 19.232976,8.1412876 19.232976,8.1412876 z"
       id="path3925"
       sodipodi:nodetypes="cccc" />
    <path
       style="fill:url(#linearGradient4516);fill-opacity:1;fill-rule:evenodd;stroke:none;stroke-width:1px;stroke-linecap:butt;stroke-linejoin:miter;stroke-opacity:1;display:inline"
       d="M 19.239857,6.4699746 C 19.239857,6.4699746 18.775415,3.8106863 17.293731,2.320808 C 19.374724,3.4276377 20.189484,5.2887516 20.189484,5.2887516 C 20.778176,6.9710076 19.239857,6.4699746 19.239857,6.4699746 z"
       id="path4514"
       sodipodi:nodetypes="cccc" />
    <path
       style="fill:url(#linearGradient3789);fill-opacity:1;fill-rule:evenodd;stroke:none;stroke-width:1px;stroke-linecap:butt;stroke-linejoin:miter;stroke-opacity:1;display:inline"
       d="M 19,11.165676 C 19,11.165676 19.562029,7.5684485 18.317269,5.0225439 C 20.493627,7.339662 20.725584,10.069902 20.725584,10.069902 C 20.746573,12.473578 19,11.165676 19,11.165676 z"
       id="path3787"
       sodipodi:nodetypes="cccc" />
    <path
       sodipodi:nodetypes="cccc"
       id="path4531"
       d="M 18.558725,11.248592 C 18.558725,11.248592 18.18901,8.770239 16.848419,7.3535942 C 18.753954,8.4285995 19.467129,10.174365 19.467129,10.174365 C 19.974648,11.748955 18.558725,11.248592 18.558725,11.248592 z"
       style="fill:url(#linearGradient4533);fill-opacity:1;fill-rule:evenodd;stroke:none;stroke-width:1px;stroke-linecap:butt;stroke-linejoin:miter;stroke-opacity:1;display:inline" />
    <path
       style="fill:url(#linearGradient3763);fill-opacity:1;fill-rule:evenodd;stroke:none;stroke-width:1px;stroke-linecap:butt;stroke-linejoin:miter;stroke-opacity:1;display:inline"
       d="M 20.686598,19.060028 C 20.686598,19.060028 18.449195,17.641874 15.702701,18.350824 C 18.477148,16.710319 20.172807,17.476464 20.172807,17.476464 C 22.072903,17.948105 20.686598,19.060028 20.686598,19.060028 z"
       id="path3761"
       sodipodi:nodetypes="cccc" />
    <a
       style="display:inline"
       id="a3765"
       transform="matrix(0.3100748,6.2478891e-3,-6.2478891e-3,0.3100748,-6.1260956,-9.5800554)">
      <path
         style="fill:url(#linearGradient3769);fill-opacity:1;fill-rule:evenodd;stroke:none;stroke-width:1px;stroke-linecap:butt;stroke-linejoin:miter;stroke-opacity:1"
         d="M 87.769518,85.27091 C 87.769518,85.27091 82.604124,79.110615 76.562259,77.482096 C 83.577008,77.229094 88.454105,80.809593 88.454105,80.809593 C 92.481684,84.266513 87.769518,85.27091 87.769518,85.27091 z"
         id="path3767"
         sodipodi:nodetypes="cccc" />
    </a>
    <a
       style="display:inline"
       transform="matrix(0.177636,-0.2542261,0.2542261,0.177636,-16.489891,26.429687)"
       id="a3771">
      <path
         sodipodi:nodetypes="cccc"
         id="path3773"
         d="M 87.769518,85.27091 C 87.769518,85.27091 82.604124,79.110615 76.562259,77.482096 C 83.577008,77.229094 88.454105,80.809593 88.454105,80.809593 C 92.481684,84.266513 87.769518,85.27091 87.769518,85.27091 z"
         style="fill:url(#linearGradient3775);fill-opacity:1;fill-rule:evenodd;stroke:none;stroke-width:1px;stroke-linecap:butt;stroke-linejoin:miter;stroke-opacity:1" />
    </a>
    <path
       sodipodi:nodetypes="cccc"
       id="path4546"
       d="M 19.979791,15.380416 C 19.979791,15.380416 19.583852,12.761185 17.247942,11.152034 C 20.305612,12.171577 20.838735,13.954276 20.838735,13.954276 C 21.72827,15.698277 19.979791,15.380416 19.979791,15.380416 z"
       style="fill:url(#linearGradient4548);fill-opacity:1;fill-rule:evenodd;stroke:none;stroke-width:1px;stroke-linecap:butt;stroke-linejoin:miter;stroke-opacity:1;display:inline" />
    <path
       style="fill:url(#linearGradient4552);fill-opacity:1;fill-rule:evenodd;stroke:none;stroke-width:1px;stroke-linecap:butt;stroke-linejoin:miter;stroke-opacity:1;display:inline"
       d="M 19.544918,12.642495 C 19.544918,12.642495 19.195015,10.594856 17.3393,9.368403 C 19.752025,10.121699 20.196883,11.511389 20.196883,11.511389 C 20.920601,12.865367 19.544918,12.642495 19.544918,12.642495 z"
       id="path4550"
       sodipodi:nodetypes="cccc" />
  </g>
  <g
     inkscape:groupmode="layer"
     id="layer7"
     inkscape:label="Hightlight &amp; Shadow"
     style="display:inline">
    <path
       style="opacity:0.35;fill:url(#linearGradient3938);fill-opacity:1;fill-rule:evenodd;stroke:none;display:inline"
       d="M 3,1 C 1.892,1 1,1.892 1,3 l 0,16 c 0,1.108 0.892,2 2,2 l 16,0 c 1.108,0 2,-0.892 2,-2 L 21,3 C 21,1.892 20.108,1 19,1 L 3,1 z m 0,1.03125 16,0 c 0.5497,0 0.96875,0.4190495 0.96875,0.96875 l 0,16 c 0,0.5497 -0.41905,0.96875 -0.96875,0.96875 l -16,0 C 2.4502995,19.96875 2.03125,19.5497 2.03125,19 l 0,-16 C 2.03125,2.4502995 2.4502995,2.03125 3,2.03125 z"
       id="rect3050"
       inkscape:connector-curvature="0" />
    <path
       id="path3235"
       d="M 3,21 C 1.892,21 1,20.108 1,19 l 0,-1 c 0,1.108 0.892,2 2,2 l 16,0 c 1.108,0 2,-0.892 2,-2 l 0,1 c 0,1.108 -0.892,2 -2,2 L 3,21 z"
       style="opacity:0.2;fill:url(#linearGradient3845);fill-opacity:1;fill-rule:evenodd;stroke:none;display:inline"
       inkscape:connector-curvature="0" />
  </g>
</svg>
