<?xml version="1.0" encoding="UTF-8" standalone="no"?>
<!-- Created with Inkscape (http://www.inkscape.org/) -->

<svg
   xmlns:dc="http://purl.org/dc/elements/1.1/"
   xmlns:cc="http://creativecommons.org/ns#"
   xmlns:rdf="http://www.w3.org/1999/02/22-rdf-syntax-ns#"
   xmlns:svg="http://www.w3.org/2000/svg"
   xmlns="http://www.w3.org/2000/svg"
   xmlns:xlink="http://www.w3.org/1999/xlink"
   xmlns:sodipodi="http://sodipodi.sourceforge.net/DTD/sodipodi-0.dtd"
   xmlns:inkscape="http://www.inkscape.org/namespaces/inkscape"
   width="22"
   height="22"
   id="svg2"
   sodipodi:version="0.32"
   inkscape:version="0.48.0 r9654"
   version="1.0"
   sodipodi:docname="geany.svg"
   inkscape:output_extension="org.inkscape.output.svg.inkscape"
   style="display:inline">
  <defs
     id="defs4">
    <linearGradient
       id="linearGradient3620">
      <stop
         style="stop-color:#233f71;stop-opacity:1;"
         offset="0"
         id="stop3622" />
      <stop
         style="stop-color:#2b58ac;stop-opacity:0.58823532;"
         offset="1"
         id="stop3624" />
    </linearGradient>
    <linearGradient
       inkscape:collect="always"
       xlink:href="#linearGradient3620"
       id="linearGradient3626"
       x1="52.465862"
       y1="90"
       x2="52.465862"
       y2="5.7309761"
       gradientUnits="userSpaceOnUse"
       gradientTransform="matrix(0.2380815,0,0,0.2380815,-0.428214,-0.4273344)" />
    <linearGradient
       id="linearGradient28219">
      <stop
         id="stop28221"
         offset="0"
         style="stop-color:#65370e;stop-opacity:1;" />
      <stop
         id="stop28223"
         offset="1"
         style="stop-color:#884e1a;stop-opacity:0;" />
    </linearGradient>
    <linearGradient
       inkscape:collect="always"
       xlink:href="#linearGradient28219"
       id="linearGradient28209"
       gradientUnits="userSpaceOnUse"
       x1="64"
       y1="42.76181"
       x2="64"
       y2="106.36941"
       gradientTransform="translate(-72.68288,-64.771593)" />
    <linearGradient
       id="linearGradient28295">
      <stop
         style="stop-color:#874000;stop-opacity:1;"
         offset="0"
         id="stop28297" />
      <stop
         style="stop-color:#ffc170;stop-opacity:1;"
         offset="1"
         id="stop28299" />
    </linearGradient>
    <linearGradient
       id="linearGradient28128">
      <stop
         style="stop-color:#444c7f;stop-opacity:1;"
         offset="0"
         id="stop28130" />
      <stop
         style="stop-color:#5963a6;stop-opacity:1;"
         offset="1"
         id="stop28132" />
    </linearGradient>
    <linearGradient
       inkscape:collect="always"
       xlink:href="#linearGradient28128"
       id="linearGradient28134"
       x1="51.643108"
       y1="123"
       x2="51.643108"
       y2="4.9745207"
       gradientUnits="userSpaceOnUse"
       gradientTransform="matrix(0.1694915,0,0,0.1694915,-19.847458,0.1525418)" />
    <linearGradient
       inkscape:collect="always"
       id="linearGradient3327">
      <stop
         style="stop-color:#000000;stop-opacity:1;"
         offset="0"
         id="stop3330" />
      <stop
         style="stop-color:#000000;stop-opacity:0;"
         offset="1"
         id="stop3333" />
    </linearGradient>
    <linearGradient
       inkscape:collect="always"
       xlink:href="#linearGradient3327"
       id="linearGradient3335"
       x1="11.375"
       y1="22"
       x2="11.375"
       y2="-9.817296"
       gradientUnits="userSpaceOnUse" />
    <linearGradient
       inkscape:collect="always"
       xlink:href="#ButtonColor"
       id="linearGradient3181"
       x1="-3.0607977"
       y1="27.258198"
       x2="-3.0607977"
       y2="7.2536583"
       gradientUnits="userSpaceOnUse"
       gradientTransform="translate(11.119372,-6.2581977)" />
    <filter
       inkscape:collect="always"
       id="filter8716"
       x="-0.26983512"
       width="1.5396702"
       y="-0.54066074"
       height="2.0813215">
      <feGaussianBlur
         inkscape:collect="always"
         stdDeviation="2.0210388"
         id="feGaussianBlur8718" />
    </filter>
    <inkscape:perspective
       sodipodi:type="inkscape:persp3d"
       inkscape:vp_x="0 : 11 : 1"
       inkscape:vp_y="0 : 1000 : 0"
       inkscape:vp_z="22 : 11 : 1"
       inkscape:persp3d-origin="11 : 7.3333333 : 1"
       id="perspective2531" />
    <linearGradient
       id="ButtonShadow"
       gradientTransform="scale(0.9883037,1.0118347)"
       x1="9.3550024"
       y1="21.742682"
       x2="9.3550024"
       y2="0.49362123"
       gradientUnits="userSpaceOnUse">
      <stop
         id="stop3277"
         offset="0"
         style="stop-color:#000000;stop-opacity:0.70588237;" />
      <stop
         id="stop3279"
         offset="1"
         style="stop-color:#000000;stop-opacity:0.15686275;" />
    </linearGradient>
    <linearGradient
       inkscape:collect="always"
       id="linearGradient3232">
      <stop
         style="stop-color:#000000;stop-opacity:1;"
         offset="0"
         id="stop3234" />
      <stop
         style="stop-color:#000000;stop-opacity:0;"
         offset="1"
         id="stop3236" />
    </linearGradient>
    <linearGradient
       gradientUnits="userSpaceOnUse"
       y2="-6.0004225"
       x2="11"
       y1="14.805666"
       x1="11"
       id="linearGradient3221"
       xlink:href="#linearGradient3232"
       inkscape:collect="always" />
    <linearGradient
       id="ButtonColor"
       x1="10.31979"
       y1="21"
       x2="10.31979"
       y2="0.99929649"
       gradientUnits="userSpaceOnUse">
      <stop
         style="stop-color:#3d588b;stop-opacity:1;"
         offset="0"
         id="stop3189" />
      <stop
         style="stop-color:#5f7fb9;stop-opacity:1;"
         offset="1"
         id="stop3191" />
    </linearGradient>
    <linearGradient
       inkscape:collect="always"
       xlink:href="#ButtonShadow"
       id="linearGradient38042"
       gradientUnits="userSpaceOnUse"
       gradientTransform="scale(0.9883037,1.0118347)"
       x1="9.3550024"
       y1="21.742682"
       x2="9.3550024"
       y2="0.49362123" />
    <linearGradient
       inkscape:collect="always"
       xlink:href="#ButtonColor"
       id="linearGradient4461"
       gradientUnits="userSpaceOnUse"
       gradientTransform="translate(-8.880628,-6.2581977)"
       x1="-3.0607977"
       y1="27.258198"
       x2="-3.0607977"
       y2="7.2536583" />
    <linearGradient
       inkscape:collect="always"
       xlink:href="#linearGradient28128"
       id="linearGradient4464"
       gradientUnits="userSpaceOnUse"
       gradientTransform="matrix(0.1694915,0,0,0.1694915,0.152542,0.1525418)"
       x1="51.643108"
       y1="123"
       x2="51.643108"
       y2="4.9745207" />
    <linearGradient
       inkscape:collect="always"
       xlink:href="#linearGradient28219"
       id="linearGradient4522"
       x1="10.839199"
       y1="11.339409"
       x2="10.839199"
       y2="18.532761"
       gradientUnits="userSpaceOnUse" />
    <filter
       inkscape:collect="always"
       id="filter4576">
      <feGaussianBlur
         inkscape:collect="always"
         stdDeviation="0.27089376"
         id="feGaussianBlur4578" />
    </filter>
    <linearGradient
       inkscape:collect="always"
       xlink:href="#ButtonColor"
       id="linearGradient8642"
       gradientUnits="userSpaceOnUse"
       gradientTransform="translate(-8.880628,-6.2581977)"
       x1="-3.0607977"
       y1="27.258198"
       x2="-3.0607977"
       y2="7.2536583" />
    <linearGradient
       y2="16"
       x2="10"
       y1="1"
       x1="10"
       gradientUnits="userSpaceOnUse"
       id="linearGradient3078"
       xlink:href="#linearGradient3823"
       inkscape:collect="always"
       gradientTransform="translate(1,-1)" />
    <linearGradient
       id="linearGradient3823">
      <stop
         id="stop3825"
         offset="0"
         style="stop-color:#ffffff;stop-opacity:1;" />
      <stop
         id="stop3829"
         offset="1"
         style="stop-color:#ffffff;stop-opacity:0;" />
    </linearGradient>
    <linearGradient
       inkscape:collect="always"
       xlink:href="#linearGradient3831"
       id="linearGradient3845"
       x1="11"
       y1="19.5"
       x2="21"
       y2="19.5"
       gradientUnits="userSpaceOnUse"
       spreadMethod="reflect" />
    <linearGradient
       id="linearGradient3831">
      <stop
         style="stop-color:#ffffff;stop-opacity:1;"
         offset="0"
         id="stop3833" />
      <stop
         id="stop3821"
         offset="0.75"
         style="stop-color:#ffffff;stop-opacity:0.49803922;" />
      <stop
         style="stop-color:#ffffff;stop-opacity:0;"
         offset="1"
         id="stop3835" />
    </linearGradient>
    <linearGradient
       y2="16"
       x2="10"
       y1="1"
       x1="10"
       gradientUnits="userSpaceOnUse"
       id="linearGradient3938"
       xlink:href="#linearGradient3823"
       inkscape:collect="always" />
  </defs>
  <sodipodi:namedview
     id="base"
     pagecolor="#ffffff"
     bordercolor="#e7e7e7"
     borderopacity="1"
     inkscape:pageopacity="0.0"
     inkscape:pageshadow="2"
     inkscape:zoom="17.313327"
     inkscape:cx="-9.5565393"
     inkscape:cy="5.9562453"
     inkscape:document-units="px"
     inkscape:current-layer="layer2"
     showgrid="true"
     inkscape:showpageshadow="false"
     showguides="false"
     inkscape:guide-bbox="true"
     inkscape:window-width="1920"
     inkscape:window-height="1026"
     inkscape:window-x="0"
     inkscape:window-y="25"
     inkscape:window-maximized="1">
    <sodipodi:guide
       orientation="1,0"
       position="0,112"
       id="guide2383" />
    <sodipodi:guide
       orientation="0,1"
       position="26.278146,128"
       id="guide2385" />
    <sodipodi:guide
       orientation="1,0"
       position="128,54.082119"
       id="guide2387" />
    <sodipodi:guide
       orientation="0,1"
       position="78.156291,0"
       id="guide2389" />
    <sodipodi:guide
       orientation="0,1"
       position="60.863576,64.084768"
       id="guide2391" />
    <inkscape:grid
       type="xygrid"
       id="grid3672"
       visible="true"
       enabled="true" />
  </sodipodi:namedview>
  <metadata
     id="metadata7">
    <rdf:RDF>
      <cc:Work
         rdf:about="">
        <dc:format>image/svg+xml</dc:format>
        <dc:type
           rdf:resource="http://purl.org/dc/dcmitype/StillImage" />
      </cc:Work>
    </rdf:RDF>
  </metadata>
  <g
     inkscape:label="Button"
     inkscape:groupmode="layer"
     id="layer1"
     sodipodi:insensitive="true">
    <g
       style="display:inline"
       id="g3337">
      <rect
         ry="2.5"
         rx="2.5"
         y="0.5"
         x="0.5"
         height="21.5"
         width="21"
         id="rect3371"
         style="opacity:0.3;fill:url(#linearGradient3335);fill-opacity:1;stroke:none;display:inline" />
      <rect
         style="opacity:0.5;fill:#000000;fill-opacity:1;stroke:none;display:inline"
         id="rect2553"
         width="20"
         height="20"
         x="1"
         y="2"
         rx="2.3809524"
         ry="2.3255813" />
    </g>
    <rect
       style="fill:url(#linearGradient3181);fill-opacity:1;fill-rule:evenodd;stroke:none;display:inline"
       id="rect3173"
       width="20"
       height="20"
       x="1"
       y="1"
       rx="2"
       ry="2" />
    <path
       style="fill:url(#linearGradient3626);fill-opacity:1"
       d="m 5.25,1 c -0.610126,1e-7 -0.96875,0.042707 -0.96875,0.09375 0,0.04475 0.074828,0.200695 0.1875,0.375 l 0.21875,0.34375 0.5625,0 0.5625,0 L 6,1.46875 C 6.108787,1.2787039 6.21875,1.09151 6.21875,1.0625 6.21875,1.033491 5.784919,1 5.25,1 z M 6.78125,1 6.625,1.3125 C 6.538544,1.4859991 6.437501,1.673193 6.4375,1.71875 c 0,0.053665 0.42896,0.09375 1.1875,0.09375 l 1.15625,0 L 9.375,1.46875 C 9.693936,1.289546 9.9375,1.102351 9.9375,1.0625 9.9375,1.021354 9.248621,1 8.34375,1 l -1.5625,0 z m 4.125,0 c -0.127207,0.006 -0.234847,0.070624 -0.34375,0.15625 -0.102057,0.080244 -0.318127,0.209431 -0.5,0.3125 -0.181872,0.103068 -0.343751,0.214255 -0.34375,0.25 0,0.035743 0.181584,0.093079 0.40625,0.09375 0.47878,0.00143 0.546632,0.031091 0.71875,0.375 0.07126,0.1423871 0.137051,0.25 0.15625,0.25 0.0192,10e-8 0.08499,-0.107613 0.15625,-0.25 0.172117,-0.3439089 0.23997,-0.37357 0.71875,-0.375 0.224667,-6.709e-4 0.40625,-0.049939 0.40625,-0.09375 0,-0.043812 -0.02948,-0.0625 -0.0625,-0.0625 -0.03301,0 -0.275407,-0.169744 -0.53125,-0.34375 C 11.363026,1.091816 11.118263,0.990002 10.90625,1 z m 2.75,0 c -0.901866,1e-7 -1.59375,0.021596 -1.59375,0.0625 0,0.039749 0.252245,0.228974 0.5625,0.40625 l 0.5625,0.3125 1.1875,0.03125 c 0.77178,0.0024 1.1875,-0.039875 1.1875,-0.09375 0,-0.045557 -0.06979,-0.232751 -0.15625,-0.40625 L 15.25,1 13.65625,1 z M 16.75,1 c -0.534919,1e-7 -0.96875,0.033491 -0.96875,0.0625 0,0.02901 0.109962,0.216204 0.21875,0.40625 l 0.1875,0.34375 0.5625,0 0.5625,0 0.21875,-0.34375 c 0.112671,-0.174305 0.1875,-0.33025 0.1875,-0.375 C 17.71875,1.0427069 17.360127,1 16.75,1 z M 2.59375,1.03125 C 2.518753,1.0465189 2.446641,1.0703889 2.375,1.09375 L 2.34375,1.3125 c -0.013713,0.146557 -0.023068,0.313455 0,0.375 0.027389,0.073074 0.178459,0.125 0.40625,0.125 0.325058,1e-7 0.372756,-0.04616 0.59375,-0.375 C 3.474187,1.243409 3.5625,1.058057 3.5625,1.03125 c 0,-0.026807 -0.262101,-0.012795 -0.59375,0 l -0.375,0 z m 15.84375,0 c 0,0.026807 0.0868,0.209908 0.21875,0.40625 0.232522,0.345995 0.273087,0.367018 0.625,0.34375 L 19.625,1.75 l 0,-0.34375 0,-0.3125 C 19.55336,1.070389 19.481247,1.046519 19.40625,1.03125 l -0.375,0 c -0.165825,-0.0064 -0.296956,-0.00462 -0.40625,0 -0.109294,0.00462 -0.1875,-0.013404 -0.1875,0 z m -16.5,0.28125 c -0.211768,0.132458 -0.38284,0.3000655 -0.53125,0.5 0.026667,6.249e-4 0.030632,0 0.0625,0 0.34255,1e-7 0.395945,-0.049245 0.4375,-0.21875 C 1.925613,1.5147648 1.939326,1.4071246 1.9375,1.3125 z m 18.125,0 c -0.0027,0.097568 0.01098,0.2298059 0.03125,0.3125 0.04415,0.180088 0.09401,0.178391 0.46875,0.15625 -0.143567,-0.1845679 -0.301005,-0.3442811 -0.5,-0.46875 z M 3.90625,1.5 C 3.860994,1.49829 3.728005,1.648754 3.59375,1.84375 3.353431,2.192801 3.326743,2.195289 2.84375,2.21875 L 2.375,2.25 2.34375,2.78125 2.3125,3.3125 1.96875,3.53125 C 1.779555,3.648756 1.626353,3.799619 1.625,3.84375 1.623647,3.8878799 1.776181,4.005917 1.96875,4.125 l 0.34375,0.21875 0,0.46875 c 0,0.3737492 0.033989,0.5 0.125,0.5 0.064275,-2e-7 0.525008,-0.243351 1.03125,-0.53125 L 4.40625,4.25 4.96875,3.28125 c 0.305453,-0.528946 0.522621,-0.962529 0.5,-1 C 5.44613,2.243779 5.22163,2.1875 4.96875,2.1875 4.51445,2.1875001 4.502293,2.194862 4.25,1.84375 4.109565,1.648309 3.951504,1.501709 3.90625,1.5 z m 14.1875,0 C 18.04849,1.50171 17.890435,1.648309 17.75,1.84375 17.497706,2.194862 17.485552,2.1875 17.03125,2.1875 c -0.25288,10e-8 -0.477379,0.056279 -0.5,0.09375 -0.02262,0.037471 0.225799,0.471057 0.53125,1 L 17.59375,4.25 18.5,4.78125 c 0.495627,0.2852889 0.956361,0.528638 1.03125,0.53125 0.115124,0.00402 0.15625,-0.094247 0.15625,-0.5 l 0,-0.46875 L 20.03125,4.125 C 20.223821,4.0059169 20.376354,3.88788 20.375,3.84375 20.373648,3.7996189 20.220447,3.648756 20.03125,3.53125 L 19.6875,3.3125 19.65625,2.78125 19.625,2.25 19.15625,2.21875 C 18.673255,2.195289 18.646569,2.192801 18.40625,1.84375 18.271996,1.648754 18.139004,1.498291 18.09375,1.5 z m -16.625,0.6875 c -0.155318,10e-8 -0.24601,0.00343 -0.3125,0.03125 -0.00378,0.00898 0.00366,0.022204 0,0.03125 -0.045109,0.1115676 -0.100437,0.2231025 -0.125,0.34375 -0.00406,0.019948 0.00347,0.042337 0,0.0625 C 1.024659,2.7635408 0.999103,2.8207302 1,2.9375 0.999353,2.9585197 1,2.9788176 1,3 1.004751,3.1897716 1.03606,3.3791817 1.0625,3.40625 1.134145,3.4795999 1.132655,3.503154 1.5,3.3125 1.891661,3.1092289 1.935945,3.01679 1.9375,2.6875 1.93957,2.2480559 1.876534,2.1875 1.46875,2.1875 z m 5.09375,0 C 6.233551,2.1995751 6.106036,2.256932 6.03125,2.34375 5.859849,2.5427279 5.28125,3.5317 5.28125,3.625 5.28125,3.736579 5.317042,3.724613 5.75,3.5 L 6.15625,3.3125 6.4375,3.5 c 0.159019,0.1106241 0.313127,0.21875 0.34375,0.21875 0.030624,10e-8 0.049566,-0.179933 0.0625,-0.40625 L 6.875,2.875 7.375,2.625 C 7.642572,2.4749249 7.836534,2.321064 7.8125,2.28125 7.788465,2.241437 7.408924,2.1875 6.96875,2.1875 c -0.166147,10e-8 -0.2966,-0.00402 -0.40625,0 z m 2.25,0 -0.71875,0.46875 c -0.803675,0.4971359 -0.843838,0.546863 -0.75,1.1875 0.042485,0.2900479 0.092348,0.392175 0.34375,0.5625 0.247046,0.1673751 0.377565,0.199049 0.625,0.15625 L 8.59375,4.5 9.0625,5.21875 C 9.315746,5.6149708 9.546445,5.936813 9.59375,5.9375 9.679732,5.9387499 9.780173,5.19573 9.78125,4.53125 9.781816,4.182744 9.82017,4.152022 10.21875,4.0625 10.383331,4.0255361 10.468121,3.921228 10.625,3.59375 L 10.84375,3.15625 10.59375,2.6875 10.375,2.25 9.59375,2.21875 8.8125,2.1875 z m 4.375,0 L 12.40625,2.21875 11.625,2.25 11.40625,2.71875 11.1875,3.1875 11.375,3.59375 c 0.153579,0.3205891 0.242308,0.431929 0.40625,0.46875 0.39858,0.089522 0.436936,0.120244 0.4375,0.46875 3.05e-4,0.187572 0.004,0.579275 0.03125,0.875 0.02862,0.3102001 0.106632,0.531971 0.15625,0.53125 0.0473,-6.871e-4 0.278004,-0.322529 0.53125,-0.71875 L 13.40625,4.5 13.6875,4.5625 c 0.247662,0.042838 0.376647,0.012011 0.625,-0.15625 C 14.636967,4.1864231 14.736183,3.897571 14.6875,3.375 14.664072,3.1235231 14.586886,3.077078 13.90625,2.65625 L 13.1875,2.1875 z M 14.5,2.21875 C 14.341464,2.22657 14.236478,2.231851 14.21875,2.25 c -0.03546,0.036299 0.159695,0.211422 0.4375,0.375 l 0.5,0.28125 0,0.40625 c 0,0.217939 0.02964,0.40625 0.0625,0.40625 0.03286,10e-8 0.184731,-0.108126 0.34375,-0.21875 L 15.84375,3.3125 16.25,3.53125 c 0.218915,0.11357 0.413482,0.180839 0.4375,0.15625 0.05277,-0.054026 -0.123722,-0.454782 -0.5,-1.03125 L 15.90625,2.25 15.09375,2.21875 c -0.222809,-0.00628 -0.435214,-0.00782 -0.59375,0 z m 5.75,0 c -0.145508,0.045371 -0.187499,0.1920165 -0.1875,0.46875 0,0.3535109 0.05651,0.421133 0.4375,0.625 0.171174,0.091595 0.332207,0.137554 0.375,0.125 0.04287,-0.012576 0.09375,-0.299464 0.09375,-0.625 l 0,-0.21875 C 20.944187,2.4731025 20.888859,2.3615676 20.84375,2.25 L 20.5625,2.21875 c -0.05429,-0.00353 -0.08134,-2.2e-5 -0.125,0 -0.0764,3.85e-5 -0.138997,-0.015124 -0.1875,0 z M 6.125,3.875 C 6.053409,3.8749999 5.686201,4.033483 5.3125,4.25 4.670414,4.6220182 4.599252,4.690014 4.25,5.28125 4.046728,5.6253551 3.875,5.973247 3.875,6.0625 c -1e-6,0.089252 0.147898,0.317466 0.3125,0.5 0.226233,0.2508811 0.350574,0.34375 0.53125,0.34375 0.131455,1e-7 0.280468,0.00639 0.34375,0.03125 C 5.129721,6.963909 5.257026,6.880255 5.375,6.75 L 5.59375,6.53125 6.375,6.96875 C 6.813965,7.1953888 7.225038,7.372445 7.25,7.375 7.402589,7.3906232 7.328802,7.180634 6.96875,6.4375 L 6.5625,5.59375 6.78125,5.4375 C 6.962403,5.301838 7,5.224934 7,4.90625 7,4.6992222 6.959743,4.473803 6.90625,4.40625 6.740233,4.1965948 6.261707,3.875 6.125,3.875 z m 9.78125,0 c -0.136708,-10e-8 -0.646482,0.321595 -0.8125,0.53125 C 15.040258,4.4738028 15,4.696578 15,4.90625 c 0,0.3187372 0.05612,0.422154 0.21875,0.53125 0.106984,0.071765 0.1875,0.174217 0.1875,0.21875 0,0.044533 -0.151179,0.393833 -0.34375,0.78125 -0.192571,0.3874159 -0.375,0.745662 -0.375,0.8125 0,0.066838 0.04162,0.125 0.0625,0.125 0.02088,1e-7 0.393583,-0.177043 0.84375,-0.40625 L 16.40625,6.53125 16.625,6.75 c 0.117988,0.1302702 0.245278,0.213909 0.3125,0.1875 0.06328,-0.024861 0.212296,-0.03125 0.34375,-0.03125 0.180675,1e-7 0.305018,-0.092869 0.53125,-0.34375 0.164601,-0.1825339 0.3125,-0.410748 0.3125,-0.5 0,-0.089253 -0.171731,-0.437145 -0.375,-0.78125 C 17.400746,4.6900151 17.329586,4.622018 16.6875,4.25 16.313799,4.0334822 15.977842,3.875 15.90625,3.875 z M 11,3.9375 10.78125,4.21875 C 10.657354,4.3768628 10.498599,4.5 10.4375,4.5 c -0.173019,2e-7 -0.219942,0.297858 -0.28125,1.3125 L 10.09375,6.75 10.5,7.375 C 10.723686,7.7238171 10.946599,8 11,8 c 0.0534,-2e-7 0.275483,-0.274887 0.5,-0.625 L 11.90625,6.75 11.84375,5.8125 C 11.781854,4.7983231 11.739898,4.5 11.5625,4.5 c -0.06307,2e-7 -0.225953,-0.123137 -0.34375,-0.28125 L 11,3.9375 z M 20.875,4.25 C 20.82312,4.25778 20.746322,4.280384 20.625,4.34375 20.158763,4.5872612 20.061164,4.706696 20.0625,5.125 20.0639,5.576928 20.11329,5.672089 20.5,5.90625 20.665768,6.0066259 20.832207,6.072632 20.875,6.0625 20.9358,6.048103 21.006018,5.1786348 21,4.65625 20.998,4.4821217 20.98659,4.328847 20.96875,4.28125 20.952722,4.2384879 20.926885,4.242217 20.875,4.25 z M 1.15625,4.28125 C 1.02532,4.3163199 1,4.560291 1,5.125 1,5.557184 1.03397,5.939543 1.0625,5.96875 1.143342,6.0515151 1.210016,6.042777 1.53125,5.875 1.867517,5.6993689 1.9375,5.593001 1.9375,5.15625 1.9375,4.7173608 1.878256,4.58749 1.53125,4.40625 1.349905,4.311536 1.234808,4.260208 1.15625,4.28125 z m 6.40625,0.625 C 7.489581,4.8971632 7.46875,4.995276 7.46875,5.1875 7.46875,5.3819698 7.422147,5.471173 7.3125,5.53125 7.226912,5.5781439 7.156249,5.685151 7.15625,5.75 c 0,0.064849 0.211895,0.537923 0.46875,1.0625 L 8.09375,7.78125 8.6875,8.09375 C 9.493477,8.5155968 9.533593,8.512738 9.59375,8 9.716516,6.953617 9.675902,6.840129 9.0625,5.90625 L 8.5,5.0625 8.21875,5.09375 C 8.020675,5.1230699 7.863064,5.112326 7.75,5.03125 7.657844,4.9651662 7.606251,4.911702 7.5625,4.90625 z m 6.875,0 C 14.39375,4.9117 14.34216,4.965166 14.25,5.03125 14.137074,5.112227 13.979083,5.12289 13.78125,5.09375 L 13.5,5.0625 12.9375,5.90625 C 12.324504,6.8439432 12.28426,6.960243 12.40625,8 12.46581,8.507653 12.520386,8.491605 13.3125,8.09375 L 13.875,7.8125 14.375,6.84375 C 14.640712,6.3180171 14.842001,5.825128 14.84375,5.75 14.845498,5.6748721 14.773087,5.578144 14.6875,5.53125 14.577853,5.4711739 14.53125,5.381971 14.53125,5.1875 c 0,-0.1922242 -0.02083,-0.290337 -0.09375,-0.28125 z M 3.71875,5.21875 c -0.113689,-2e-7 -1.057673,0.548238 -1.25,0.71875 C 2.357527,6.0361081 2.3125,6.184042 2.3125,6.78125 2.3125,7.1833631 2.346471,7.533293 2.375,7.5625 2.440499,7.6295569 2.457039,7.615567 2.75,7.15625 2.977304,6.7998708 2.998437,6.772721 3.34375,6.75 3.546688,6.7366458 3.71875,6.709277 3.71875,6.6875 3.718751,6.6657212 3.657247,6.512289 3.5625,6.34375 L 3.375,6.03125 3.59375,5.625 C 3.727167,5.3740408 3.777199,5.21875 3.71875,5.21875 z m 14.5625,0 c -0.05845,-2e-7 -0.0084,0.155291 0.125,0.40625 l 0.21875,0.40625 -0.1875,0.3125 c -0.09475,0.1685379 -0.15625,0.321971 -0.15625,0.34375 0,0.021778 0.171731,0.049146 0.375,0.0625 0.351511,0.023092 0.375352,0.041064 0.625,0.4375 0.144366,0.2292479 0.274993,0.398732 0.3125,0.375 0.03751,-0.023732 0.09375,-0.37442 0.09375,-0.78125 0,-0.605374 -0.04481,-0.744952 -0.15625,-0.84375 -0.192324,-0.1705119 -1.136311,-0.71875 -1.25,-0.71875 z m 1.96875,1.125 c -0.181631,-0.00323 -0.187499,0.294763 -0.1875,1.125 0,1.140502 -0.02449,1.050398 0.59375,2.0625 0.100357,0.1642917 0.238089,0.3125 0.28125,0.3125 0.05082,0 0.04491,-0.544577 0.03125,-1.5625 l 0,-1.59375 L 20.625,6.5 C 20.458081,6.4057688 20.332559,6.34522 20.25,6.34375 z M 1.75,6.375 C 1.543614,6.3969792 1.116649,6.636784 1.0625,6.78125 1.031319,6.864429 1.000341,7.557236 1,8.25 0.99966,8.9427648 1.031404,9.63579 1.0625,9.71875 1.13138,9.9025225 1.198213,9.81572 1.59375,9.125 L 1.9375,8.5 l 0,-1.03125 C 1.9375,6.640333 1.898553,6.408805 1.8125,6.375 1.794513,6.3679341 1.779484,6.371859 1.75,6.375 z m 4.0625,0.75 C 5.757946,7.1250001 5.649824,7.220576 5.59375,7.3125 5.510852,7.448395 5.462073,7.478232 5.25,7.4375 4.91336,7.372845 4.852335,7.45898 5.0625,7.75 5.197134,7.9364318 5.193999,8.024259 5.125,8.15625 c -0.047046,0.089996 -0.062501,0.207527 -0.0625,0.25 0,0.042472 0.403425,0.352804 0.90625,0.6875 L 6.875,9.6875 7.5625,9.625 C 7.947643,9.596136 8.302443,9.539418 8.34375,9.5 8.391099,9.4548181 8.299792,9.206577 8.09375,8.78125 L 7.78125,8.09375 6.84375,7.625 C 6.330252,7.3614711 5.867055,7.125 5.8125,7.125 z m 10.375,0 c -0.05456,1e-7 -0.518802,0.23701 -1.03125,0.5 l -0.9375,0.46875 -0.3125,0.625 c -0.171592,0.3493929 -0.281249,0.685401 -0.28125,0.75 0,0.087952 0.104593,0.135071 0.46875,0.15625 0.26746,0.015554 0.627454,0.022809 0.78125,0.03125 C 15.102811,9.6687537 15.30868,9.582922 16,9.125 16.466711,8.8158555 16.866756,8.540156 16.90625,8.5 16.950092,8.4554208 16.933495,8.318934 16.875,8.1875 16.791885,8.0007439 16.795462,7.946684 16.9375,7.75 17.143563,7.4646559 17.119039,7.381381 16.78125,7.4375 16.568406,7.4728609 16.489042,7.448222 16.40625,7.3125 16.349659,7.219728 16.242054,7.125 16.1875,7.125 z M 3.40625,7.21875 C 3.305832,7.22223 3.221517,7.259283 3.1875,7.28125 c -0.065118,0.042052 -0.2943,0.38261 -0.5,0.75 l -0.375,0.65625 0,0.78125 0,0.78125 0.375,0.21875 c 0.203269,0.130681 0.445662,0.249889 0.53125,0.25 0.26004,3.39e-4 0.764734,-0.355353 0.8125,-0.5625 0.063382,-0.2748746 0.188581,-0.317959 1.125,-0.375 C 5.733511,9.746086 5.98677,9.719197 5.96875,9.65625 5.954323,9.605852 5.614483,9.356616 5.21875,9.09375 4.468251,8.5952299 4.409342,8.529596 4.59375,8.09375 4.626016,8.0174898 4.580306,7.826826 4.4375,7.625 4.225881,7.3259218 4.156078,7.301943 3.75,7.25 3.622087,7.2336381 3.506668,7.215274 3.40625,7.21875 z m 15.1875,0 C 18.493331,7.2152739 18.377912,7.233638 18.25,7.25 c -0.406079,0.051943 -0.475882,0.075922 -0.6875,0.375 -0.142806,0.2018248 -0.188517,0.39249 -0.15625,0.46875 0.185077,0.4374278 0.128611,0.494018 -0.5625,0.9375 -0.64448,0.413558 -0.883489,0.614824 -0.8125,0.6875 0.01909,0.019547 0.427013,0.063951 0.90625,0.09375 0.876194,0.054481 0.980102,0.11339 1.03125,0.40625 0.01638,0.09378 0.170646,0.207 0.375,0.3125 0.413996,0.21373 0.488911,0.230255 0.8125,0.0625 0.501,-0.259729 0.53125,-0.319365 0.53125,-1.15625 l 0,-0.75 -0.375,-0.65625 c -0.205699,-0.3673899 -0.434883,-0.707949 -0.5,-0.75 -0.03402,-0.021967 -0.118331,-0.059024 -0.21875,-0.0625 z m -8.5,0.40625 C 10.052071,7.6307099 10.026431,7.680281 10,7.78125 9.899478,8.1652649 9.952825,8.728467 10.09375,8.8125 c 0.234836,0.140032 0.453811,0.082916 0.5625,-0.125 0.09419,-0.1801732 0.07302,-0.2233 -0.1875,-0.625 -0.195756,-0.3018398 -0.305534,-0.447016 -0.375,-0.4375 z m 1.78125,0 c -0.03736,1e-7 -0.186827,0.195538 -0.34375,0.4375 -0.260519,0.4017002 -0.281686,0.444826 -0.1875,0.625 0.109575,0.2096098 0.315966,0.260078 0.5625,0.125 C 12.022655,8.7487214 12.063322,8.634237 12.0625,8.34375 12.061259,7.9051171 11.971063,7.625 11.875,7.625 z M 8.5,8.5 C 8.455486,8.5455707 8.744967,9.270545 8.875,9.4375 8.919395,9.4944996 9.086723,9.51319 9.21875,9.5 9.432128,9.4786817 9.448137,9.438382 9.46875,9.1875 9.491215,8.914082 9.486247,8.910139 9.03125,8.6875 8.772932,8.5610988 8.522413,8.477052 8.5,8.5 z m 4.9375,0 C 13.352233,8.5178777 13.182605,8.589675 13,8.6875 12.557557,8.9245258 12.450965,9.108679 12.5625,9.40625 12.592357,9.4859028 12.673817,9.516766 12.84375,9.5 13.067575,9.4779171 13.118121,9.442015 13.3125,9.03125 13.433539,8.7754712 13.527343,8.527993 13.5,8.5 13.4932,8.493 13.46592,8.49404 13.4375,8.5 z M 11,8.96875 c -0.05435,3e-7 -0.145834,0.073571 -0.21875,0.1875 C 10.647224,9.3656633 10.449457,9.405818 10.09375,9.25 9.953076,9.188376 9.928555,9.226851 9.84375,9.625 9.806571,9.7995578 9.730943,9.8296496 9.46875,9.875 9.187836,9.923589 9.172734,9.942888 9.21875,10.09375 9.355663,10.542629 9.326599,10.614766 9.125,10.75 c -0.256282,0.171916 -0.235109,0.28234 0.03125,0.5 0.199501,0.163026 0.213393,0.196931 0.125,0.4375 -0.115849,0.315291 -0.088838,0.375 0.1875,0.375 0.26836,0 0.406249,0.137262 0.40625,0.40625 0,0.296674 0.066121,0.338297 0.375,0.1875 L 10.5,12.5 l 0.21875,0.25 c 0.113405,0.138159 0.248551,0.277773 0.28125,0.28125 0.0327,0.0035 0.158399,-0.109236 0.28125,-0.25 0.20462,-0.234454 0.216499,-0.244761 0.40625,-0.15625 0.327672,0.152847 0.437499,0.123462 0.4375,-0.125 0,-0.281727 0.13419,-0.4375 0.40625,-0.4375 0.276339,0 0.303348,-0.05971 0.1875,-0.375 -0.08839,-0.240568 -0.0745,-0.274475 0.125,-0.4375 0.266358,-0.21766 0.287533,-0.328085 0.03125,-0.5 -0.201337,-0.135058 -0.229856,-0.180058 -0.09375,-0.625 0.04507,-0.1473474 0.02722,-0.173366 -0.25,-0.21875 C 12.267688,9.8631029 12.195188,9.807019 12.15625,9.625 12.069505,9.2195102 12.047325,9.188201 11.90625,9.25 11.550544,9.4058179 11.352776,9.365663 11.21875,9.15625 11.145835,9.0423213 11.054347,8.96875 11,8.96875 z m 9.15625,0.6875 C 20.11531,9.682154 20.0625,9.889428 20.0625,10.125 c 0,0.416748 -0.0097,0.419507 -0.3125,0.59375 -0.171174,0.09849 -0.3125,0.214806 -0.3125,0.25 0,0.03519 0.141326,0.170623 0.3125,0.28125 0.292888,0.189289 0.312501,0.201119 0.3125,0.5625 0,0.211203 0.03513,0.409483 0.0625,0.4375 0.02736,0.02802 0.05757,0.02289 0.09375,0 0.121332,-0.07677 0.718749,-1.101188 0.71875,-1.25 0,-0.209554 -0.691811,-1.400341 -0.78125,-1.34375 z M 1.84375,9.6875 c -0.116487,4e-7 -0.75,1.110208 -0.75,1.3125 10e-7,0.132602 0.27296,0.66219 0.5625,1.09375 0.197892,0.294958 0.28125,0.223973 0.28125,-0.25 0,-0.371385 0.018079,-0.403471 0.3125,-0.59375 0.171177,-0.110627 0.3125,-0.238879 0.3125,-0.28125 0,-0.04237 -0.141324,-0.160597 -0.3125,-0.25 C 1.944085,10.558972 1.9375,10.554044 1.9375,10.125 1.9375,9.8197785 1.914536,9.6875 1.84375,9.6875 z M 7.875,10 c -0.095176,0.01459 -0.18819,0.03264 -0.21875,0.0625 -0.03653,0.03569 0.146469,0.217439 0.375,0.375 0.22853,0.157561 0.397766,0.28125 0.40625,0.28125 0.00848,0 0.108981,-0.01977 0.21875,-0.0625 C 8.890494,10.56507 8.920361,10.233721 8.71875,10.0625 8.649816,10.003957 8.421458,9.997898 8.1875,10 8.070521,10.001051 7.970176,9.9854064 7.875,10 z m 5.75,0 c -0.168282,0.0096 -0.29205,0.01859 -0.34375,0.0625 -0.189969,0.161334 -0.179038,0.475965 0.03125,0.5625 0.09629,0.03962 0.196782,0.09097 0.21875,0.09375 0.110373,0.01395 0.869638,-0.600428 0.8125,-0.65625 C 14.26735,9.9878605 13.905471,9.984032 13.625,10 z M 6.53125,10.09375 C 6.455589,10.092498 6.363984,10.114977 6.25,10.125 5.993239,10.147578 5.48233,10.189973 5.125,10.21875 4.504235,10.268743 4.477976,10.289349 4.40625,10.5 4.36292,10.62725 4.256811,10.756605 4.125,10.8125 c -0.288629,0.122398 -0.291683,0.189328 0,0.34375 0.127761,0.06764 0.2545,0.203388 0.28125,0.3125 0.052847,0.215564 0.14679,0.27161 0.75,0.3125 0.213968,0.0145 0.660424,0.02335 1,0.03125 0.614218,0.01428 0.622306,0.03266 1.1875,-0.34375 0.312473,-0.208102 0.593196,-0.444656 0.59375,-0.5 5.53e-4,-0.05534 -0.293351,-0.28002 -0.625,-0.5 -0.441686,-0.292965 -0.554269,-0.371245 -0.78125,-0.375 z m 8.9375,0 c -0.21214,0.0063 -0.347608,0.08497 -0.78125,0.375 -0.331651,0.221818 -0.62572,0.447125 -0.625,0.5 7.2e-4,0.05288 0.252967,0.288992 0.5625,0.5 l 0.59375,0.375 1.0625,-0.0625 C 17.497934,11.72353 17.5625,11.71418 17.5625,11.5 c 0,-0.09097 0.119844,-0.215005 0.28125,-0.3125 0.331622,-0.200314 0.325799,-0.250092 0.03125,-0.375 -0.13219,-0.05606 -0.237614,-0.2156 -0.28125,-0.34375 -0.07274,-0.213612 -0.117144,-0.200252 -0.78125,-0.25 -0.378553,-0.02836 -0.858385,-0.07189 -1.09375,-0.09375 -0.102582,-0.0095 -0.179287,-0.03334 -0.25,-0.03125 z M 3.25,11.28125 C 3.083848,11.27915 2.456124,11.59263 2.375,11.71875 2.34356,11.76763 2.313157,12.120377 2.3125,12.53125 2.311233,13.326528 2.345481,13.422274 3,14.5 c 0.185376,0.305246 0.190692,0.302304 0.59375,0.25 0.609575,-0.0791 0.670281,-0.117289 0.875,-0.46875 0.147723,-0.253611 0.18062,-0.350225 0.125,-0.5 C 4.554458,13.675448 4.5,13.527109 4.5,13.46875 4.5,13.41039 4.84346,13.14462 5.25,12.875 5.656539,12.605381 6.000001,12.351378 6,12.3125 6,12.237139 5.672694,12.197346 4.75,12.125 4.07547,12.072112 4.03125,12.041352 4.03125,11.78125 4.03125,11.625125 3.979054,11.558466 3.71875,11.4375 3.536877,11.352982 3.326593,11.282213 3.25,11.28125 z m 5.21875,0 C 8.365955,11.298537 8.225118,11.387981 8,11.53125 7.595163,11.788894 7.549323,11.867509 7.71875,11.9375 7.772242,11.959598 8.005036,11.996541 8.25,12 8.666991,12.0059 8.701555,11.96964 8.8125,11.75 8.924401,11.528463 8.944349,11.523206 8.78125,11.40625 8.662172,11.32086 8.571545,11.263964 8.46875,11.28125 z m 10.3125,0 c -0.07659,9.63e-4 -0.286877,0.07173 -0.46875,0.15625 -0.260304,0.120966 -0.34375,0.187624 -0.34375,0.34375 0,0.260102 -0.04422,0.290861 -0.71875,0.34375 -0.905358,0.07099 -1.21875,0.118274 -1.21875,0.1875 0,0.03534 0.312211,0.288057 0.71875,0.5625 0.406539,0.274444 0.75,0.536675 0.75,0.59375 0,0.05707 -0.02321,0.206697 -0.0625,0.3125 -0.05572,0.15004 -0.02499,0.242508 0.125,0.5 0.186805,0.320707 0.260167,0.372071 0.75,0.4375 0.488961,0.06531 0.512615,0.05119 0.9375,-0.6875 l 0.4375,-0.71875 0,-0.75 c -6.55e-4,-0.41811 -0.03106,-0.794871 -0.0625,-0.84375 -0.08113,-0.12612 -0.677596,-0.439586 -0.84375,-0.4375 z M 13.4375,11.3125 c -0.244503,-0.0024 -0.356424,0.159403 -0.21875,0.46875 0.07611,0.171024 0.127003,0.21875 0.5,0.21875 0.438554,0 0.656249,-0.05409 0.65625,-0.15625 0,-0.03258 -0.18494,-0.171656 -0.40625,-0.3125 -0.216537,-0.137808 -0.384549,-0.217336 -0.53125,-0.21875 z m 7.46875,0.84375 c -0.05349,1.43e-4 -0.26548,0.292692 -0.46875,0.65625 l -0.375,0.65625 0,1.03125 c 0,0.570936 0.03397,1.064544 0.0625,1.09375 0.02853,0.02921 0.06053,0.0625 0.09375,0.0625 0.0905,0 0.653097,-0.341928 0.71875,-0.4375 0.03144,-0.04577 0.06185,-0.741042 0.0625,-1.5625 9.11e-4,-1.14253 -0.01935,-1.500199 -0.09375,-1.5 z M 1.125,12.1875 c -0.04834,0 -0.08061,0.575012 -0.09375,1.5 C 1.025573,14.087083 0.997734,14.370396 1,14.59375 1.0068,15.263813 1.101192,15.284423 1.4375,15.5 c 0.438936,0.281366 0.476192,0.221812 0.5,-0.96875 l 0,-1.0625 -0.375,-0.625 C 1.358082,12.494697 1.167795,12.1875 1.125,12.1875 z M 7,12.3125 c -0.230092,0.03645 -0.440037,0.174697 -1.0625,0.59375 -0.486645,0.327619 -0.875656,0.631772 -0.875,0.6875 6.55e-4,0.05573 0.022191,0.153478 0.0625,0.21875 0.050625,0.08198 0.042692,0.22372 -0.0625,0.40625 -0.083758,0.145334 -0.156249,0.261849 -0.15625,0.28125 0,0.0194 0.116709,0.03125 0.28125,0.03125 0.200354,0 0.343188,0.08081 0.4375,0.1875 0.077456,0.08762 0.147406,0.156249 0.15625,0.15625 0.00884,0 0.460539,-0.238967 1,-0.5 l 1,-0.46875 0.3125,-0.625 c 0.172553,-0.351349 0.3125,-0.689266 0.3125,-0.75 0,-0.124853 -0.478717,-0.21875 -1.15625,-0.21875 -0.100141,0 -0.173303,-0.01215 -0.25,0 z m 7.75,0 c -0.673973,0 -1.124999,0.09414 -1.125,0.21875 0,0.06073 0.112727,0.375606 0.28125,0.71875 l 0.3125,0.625 0.96875,0.5 c 0.526873,0.26601 0.974538,0.465521 1,0.46875 0.02546,0.0032 0.110045,-0.03738 0.1875,-0.125 0.09431,-0.106693 0.237147,-0.187501 0.4375,-0.1875 0.164541,0 0.281249,-0.0104 0.28125,-0.03125 0,-0.02085 -0.04289,-0.143015 -0.125,-0.28125 -0.120521,-0.202892 -0.131507,-0.282447 -0.0625,-0.4375 0.107961,-0.242582 0.03722,-0.312064 -0.96875,-0.96875 -0.685072,-0.44721 -0.802157,-0.5 -1.1875,-0.5 z M 9.34375,12.46875 C 9.302951,12.467421 9.259212,12.493924 9.1875,12.5 c -0.263656,0.02234 -0.302335,0.05988 -0.5,0.4375 -0.12031,0.229839 -0.21374,0.456534 -0.1875,0.5 0.028399,0.04704 0.255762,-0.01388 0.53125,-0.15625 0.434277,-0.224434 0.4375,-0.266205 0.4375,-0.53125 0,-0.208266 -0.0026,-0.277263 -0.125,-0.28125 z m 3.25,0 c -0.07148,0.01973 -0.0625,0.107969 -0.0625,0.28125 0,0.255769 0.0086,0.290163 0.34375,0.46875 0.367978,0.196106 0.65971,0.269989 0.65625,0.15625 -10e-4,-0.03286 -0.102068,-0.249695 -0.21875,-0.46875 -0.189753,-0.356236 -0.239028,-0.384138 -0.5,-0.40625 -0.107542,-0.0091 -0.175864,-0.04309 -0.21875,-0.03125 z M 10.375,13.0625 c -0.06971,-3.32e-4 -0.130743,0.03471 -0.21875,0.09375 -0.161746,0.108501 -0.219636,0.185931 -0.21875,0.5 5.85e-4,0.207093 0.036697,0.463924 0.0625,0.5625 0.0258,0.09858 0.06116,0.15625 0.09375,0.15625 0.03259,0 0.213045,-0.196758 0.375,-0.4375 0.261258,-0.388355 0.267174,-0.44598 0.1875,-0.625 -0.075,-0.168519 -0.165068,-0.249445 -0.28125,-0.25 z m 1.25,0 c -0.116091,2.38e-4 -0.207086,0.08336 -0.28125,0.25 -0.07795,0.175156 -0.04268,0.236388 0.21875,0.625 0.163101,0.242444 0.31306,0.4375 0.34375,0.4375 0.0848,0 0.155067,-0.299355 0.15625,-0.71875 8.86e-4,-0.314069 -0.057,-0.391499 -0.21875,-0.5 C 11.75603,13.09741 11.694654,13.06236 11.625,13.0625 z m -2.15625,0.5 c -0.090382,-0.0044 -0.348163,0.108955 -0.6875,0.28125 l -0.6875,0.3125 -0.46875,1.03125 -0.5,1.03125 0.15625,0.1875 c 0.094306,0.102772 0.1875,0.264646 0.1875,0.375 0,0.110355 0.00495,0.223073 0.03125,0.25 0.026302,0.02693 0.120606,0.0033 0.21875,-0.0625 0.101915,-0.06837 0.302131,-0.107614 0.46875,-0.09375 0.289303,0.02407 0.305149,0.01693 0.875,-0.8125 L 9.65625,15.21875 9.59375,14.4375 C 9.571865,14.002963 9.538215,13.601623 9.5,13.5625 c -0.0051,-0.0052 -0.018338,6.22e-4 -0.03125,0 z m 3.03125,0 c -0.03749,0.03838 -0.06686,0.424744 -0.09375,0.84375 l -0.0625,0.75 L 12.90625,16 c 0.315818,0.4707 0.636804,0.886335 0.6875,0.90625 0.0507,0.01992 0.157973,-0.01208 0.25,-0.0625 0.13239,-0.07254 0.209692,-0.06464 0.34375,0.03125 0.257329,0.184067 0.34375,0.15895 0.34375,-0.09375 0,-0.125462 0.0701,-0.295181 0.15625,-0.375 0.08559,-0.0793 0.15625,-0.152858 0.15625,-0.1875 0,-0.03464 -0.208592,-0.520522 -0.46875,-1.0625 l -0.46875,-1 -0.65625,-0.3125 c -0.333511,-0.169337 -0.62731,-0.283395 -0.71875,-0.28125 -0.01306,3.06e-4 -0.02637,-0.005 -0.03125,0 z m -1.5,0.375 c -0.04196,0.0012 -0.242933,0.266407 -0.46875,0.59375 l -0.4375,0.59375 0.0625,0.9375 c 0.05838,1.142658 0.0892,1.382384 0.3125,1.4375 0.09407,0.02322 0.258027,0.136695 0.34375,0.28125 0.171881,0.289842 0.265332,0.278351 0.4375,-0.0625 0.06341,-0.125544 0.187373,-0.235936 0.28125,-0.25 0.223261,-0.03345 0.253412,-0.249812 0.3125,-1.40625 L 11.90625,15.125 11.5,14.53125 C 11.273349,14.202667 11.041959,13.93626 11,13.9375 z M 2.40625,14.375 c -0.048669,0 -0.076311,0.304244 -0.0625,0.8125 L 2.375,16 3,16.375 c 0.865487,0.518197 0.932597,0.531982 0.59375,-0.03125 -0.232489,-0.386442 -0.23129,-0.489645 -0.03125,-0.75 0.262069,-0.341088 0.21447,-0.436712 -0.1875,-0.375 L 3.03125,15.28125 2.75,14.8125 C 2.597861,14.569015 2.449226,14.375 2.40625,14.375 z m 17.1875,0 c -0.04148,0 -0.191612,0.194016 -0.34375,0.4375 l -0.28125,0.46875 -0.34375,-0.0625 c -0.398237,-0.06114 -0.441644,0.01112 -0.1875,0.34375 0.198503,0.259805 0.198785,0.379392 -0.03125,0.78125 -0.105486,0.184278 -0.18136,0.349293 -0.15625,0.375 0.04919,0.05036 0.649828,-0.255405 1.125,-0.5625 l 0.3125,-0.1875 0,-0.78125 c 0,-0.460459 -0.0501,-0.8125 -0.09375,-0.8125 z m -12.3125,0.25 C 7.222998,14.611616 6.813163,14.806141 6.375,15.03125 L 5.5625,15.4375 5.40625,15.21875 C 5.249576,15.01759 5.221682,15.009285 4.84375,15.0625 c -0.345257,0.04861 -0.455312,0.09729 -0.6875,0.375 -0.14966,0.179003 -0.281381,0.409311 -0.28125,0.5 1.33e-4,0.09069 0.181718,0.431077 0.40625,0.78125 0.377084,0.588083 0.482876,0.682747 1.09375,1.03125 0.363745,0.207517 0.67478,0.374099 0.71875,0.375 0.101759,0.0021 0.412317,-0.209179 0.6875,-0.46875 C 6.958287,17.489259 7,17.382868 7,17.0625 7,16.739366 6.959815,16.65891 6.78125,16.5 L 6.5625,16.3125 6.96875,15.5 c 0.290083,-0.588488 0.388385,-0.857564 0.3125,-0.875 z m 7.4375,0.03125 c -0.03153,0.03228 0.132103,0.403182 0.34375,0.84375 l 0.375,0.8125 L 15.21875,16.5 C 15.05225,16.646709 15,16.754157 15,17 c 0,0.443448 0.07041,0.532366 0.46875,0.84375 0.193312,0.151116 0.390163,0.281473 0.4375,0.28125 0.04734,-2.22e-4 0.355005,-0.163921 0.71875,-0.375 0.604362,-0.350711 0.720686,-0.454231 1.09375,-1.03125 0.224534,-0.347287 0.406118,-0.690561 0.40625,-0.78125 1.32e-4,-0.09069 -0.131589,-0.320997 -0.28125,-0.5 -0.232188,-0.277708 -0.310993,-0.326386 -0.65625,-0.375 -0.377607,-0.05317 -0.437864,-0.0439 -0.59375,0.15625 L 16.4375,15.4375 15.59375,15 c -0.454236,-0.231279 -0.843472,-0.376026 -0.875,-0.34375 z M 1.0625,15.9375 C 1.020664,15.963971 1.005351,16.364958 1,16.78125 0.997324,16.989396 0.991719,17.21269 1,17.375 1.00828,17.53731 1.042039,17.666553 1.0625,17.6875 1.153222,17.78038 1.274392,17.72551 1.59375,17.5 1.88255,17.296071 1.915473,17.265947 1.9375,16.875 1.951722,16.622607 1.901465,16.383693 1.84375,16.3125 1.723522,16.164189 1.290824,15.953907 1.125,15.9375 c -0.023688,-0.0023 -0.051341,-0.0071 -0.0625,0 z m 19.8125,0 c -0.165824,0.01641 -0.598522,0.226689 -0.71875,0.375 -0.05771,0.07119 -0.07672,0.310107 -0.0625,0.5625 0.02203,0.390946 0.0237,0.421071 0.3125,0.625 0.481649,0.340106 0.57989,0.358115 0.59375,-0.3125 0.002,-0.0958 0,-0.218938 0,-0.34375 0,-0.479336 -0.02117,-0.880101 -0.0625,-0.90625 -0.01116,-0.0071 -0.03881,-0.0023 -0.0625,0 z m -8.5,0.03125 c -0.03707,0 -0.09593,0.363437 -0.125,0.8125 -0.06839,1.056454 -0.07544,1.09533 -0.375,1.125 -0.21195,0.02099 -0.280303,0.07749 -0.46875,0.4375 l -0.21875,0.4375 0.15625,0.40625 c 0.09359,0.2273 0.24148,0.473409 0.3125,0.53125 0.09153,0.07454 0.316146,0.08126 0.8125,0.0625 0.696304,-0.02631 0.714422,-0.04089 1.46875,-0.5 l 0.75,-0.4375 0,-0.34375 c 0,-0.500544 -0.109956,-0.725665 -0.46875,-0.96875 -0.273479,-0.185284 -0.328431,-0.205032 -0.5,-0.125 -0.109133,0.05091 -0.240646,0.05694 -0.28125,0.03125 -0.0406,-0.02569 -0.274401,-0.35893 -0.53125,-0.75 C 12.649402,16.296431 12.412074,15.96875 12.375,15.96875 z M 9.625,16 c -0.034303,-0.0217 -0.268911,0.295368 -0.53125,0.6875 -0.26234,0.392133 -0.492739,0.725635 -0.53125,0.75 -0.038509,0.02437 -0.172117,0.01966 -0.28125,-0.03125 -0.171569,-0.08003 -0.226522,-0.06028 -0.5,0.125 C 7.422091,17.77458 7.312499,17.997373 7.3125,18.5 l 0,0.34375 0.71875,0.4375 c 0.395841,0.236636 0.77956,0.444545 0.84375,0.46875 0.201129,0.07585 1.321553,0.0494 1.46875,-0.03125 0.0772,-0.0423 0.217347,-0.259982 0.3125,-0.5 l 0.15625,-0.4375 -0.21875,-0.4375 C 10.405546,17.984202 10.33691,17.92724 10.125,17.90625 9.827611,17.876793 9.818267,17.85934 9.75,16.84375 9.721291,16.416654 9.659303,16.021705 9.625,16 z m -7.21875,0.65625 c -0.038372,0.02428 -0.09375,0.243882 -0.09375,0.5 l 0,0.46875 -0.34375,0.21875 C 1.773699,17.960775 1.63993,18.104821 1.65625,18.15625 1.672574,18.20768 1.821269,18.335643 2,18.4375 l 0.3125,0.1875 0,0.5 c 0,0.279467 0.041129,0.539878 0.09375,0.59375 0.051352,0.05257 0.276058,0.09375 0.5,0.09375 0.389649,0 0.437394,-0.0078 0.71875,0.34375 l 0.28125,0.375 0.3125,-0.375 c 0.287242,-0.348396 0.307747,-0.342594 0.6875,-0.34375 0.681761,-0.0021 0.705473,-0.03203 0.0625,-1.125 L 4.375,17.71875 3.4375,17.15625 c -0.527919,-0.298926 -0.992878,-0.524277 -1.03125,-0.5 z m 17.15625,0 c -0.121607,0.03083 -0.538071,0.23844 -1,0.5 l -0.9375,0.5625 -0.59375,0.96875 c -0.643355,1.093619 -0.622494,1.122928 0.0625,1.125 0.384527,0.0012 0.406934,-0.0068 0.6875,0.34375 l 0.28125,0.375 0.28125,-0.3125 c 0.139949,-0.169334 0.249363,-0.310892 0.25,-0.34375 6.37e-4,-0.03286 0.189297,-0.0625 0.4375,-0.0625 0.248203,0 0.511147,-0.04118 0.5625,-0.09375 0.05135,-0.05257 0.09375,-0.307492 0.09375,-0.5625 0,-0.458975 -0.0028,-0.468636 0.34375,-0.71875 0.192571,-0.138963 0.34375,-0.27897 0.34375,-0.3125 0,-0.03353 -0.151179,-0.165712 -0.34375,-0.28125 L 19.6875,17.625 l 0,-0.46875 c 0,-0.256119 -0.05538,-0.475721 -0.09375,-0.5 -0.0048,-0.003 -0.01388,-0.0044 -0.03125,0 z m -12.84375,1.625 c -0.05929,0.0061 -0.16483,0.06302 -0.28125,0.15625 -0.252516,0.202217 -0.381547,0.217096 -0.75,0 -0.166086,-0.09786 -0.345535,-0.155164 -0.375,-0.125 -0.069643,0.0713 0.644623,1.305913 0.8125,1.40625 0.161158,0.09632 1.479085,0.0946 1.625,0 0.079748,-0.0517 -0.025017,-0.150521 -0.40625,-0.375 l -0.5,-0.28125 0,-0.40625 c 0,-0.266108 -0.026185,-0.385137 -0.125,-0.375 z m 8.5625,0 c -0.09882,-0.01014 -0.125,0.108892 -0.125,0.375 l 0,0.40625 -0.5,0.28125 c -0.381234,0.224481 -0.485998,0.323297 -0.40625,0.375 0.147397,0.09556 1.417391,0.09663 1.59375,0 0.174298,-0.0955 0.918199,-1.330029 0.84375,-1.40625 -0.02946,-0.03017 -0.208913,0.02714 -0.375,0.125 -0.368452,0.217097 -0.497483,0.202217 -0.75,0 -0.116419,-0.09323 -0.221961,-0.150167 -0.28125,-0.15625 z m 5.59375,0.25 c -0.192089,0 -0.697051,0.296237 -0.75,0.4375 -0.08032,0.214304 -0.06831,0.648073 0.03125,0.75 0.05135,0.05257 0.220943,0.09375 0.375,0.09375 0.173324,0 0.273286,-0.04823 0.34375,-0.125 0.0045,-0.01226 0.02701,-0.01887 0.03125,-0.03125 0.03663,-0.0576 0.04992,-0.13904 0.0625,-0.25 C 20.99124,19.295768 20.99641,19.178917 21,19.0625 21,19.03161 21.000249,19.02767 21,19 20.9967,18.638314 20.9643,18.53125 20.875,18.53125 z M 1.125,18.5625 C 1.06472,18.586181 1.011183,18.780125 1,19 c 0,0.02118 -6.47e-4,0.04148 0,0.0625 -3.04e-4,0.01175 1.63e-4,0.01942 0,0.03125 0.00487,0.10548 0.010787,0.211992 0.03125,0.3125 0.00217,0.01956 -0.00266,0.04413 0,0.0625 0.02349,0.09997 0.087206,0.187774 0.125,0.28125 0.07421,0.03772 0.190318,0.0625 0.3125,0.0625 0.154058,0 0.323648,-0.04118 0.375,-0.09375 0.099559,-0.101928 0.111576,-0.535698 0.03125,-0.75 -0.054149,-0.144465 -0.481114,-0.384271 -0.6875,-0.40625 -0.029483,-0.0031 -0.044513,-0.0071 -0.0625,0 z m 9.875,1 c -0.04875,-1e-6 -0.126286,0.107613 -0.1875,0.25 -0.104236,0.242454 -0.156535,0.275199 -0.59375,0.3125 C 9.961989,20.14691 9.75,20.17995 9.75,20.21875 c 0,0.0388 0.262945,0.248158 0.5625,0.4375 C 10.612055,20.845592 10.914413,21 11,21 c 0.176824,-1e-6 1.249999,-0.673433 1.25,-0.78125 0,-0.0388 -0.211989,-0.07184 -0.46875,-0.09375 C 11.344035,20.0877 11.291737,20.054954 11.1875,19.8125 11.126286,19.670113 11.048745,19.562499 11,19.5625 z M 4.75,20.125 4.5,20.4375 c -0.130038,0.183782 -0.21875,0.378357 -0.21875,0.4375 0,0.08427 0.17816,0.124999 0.90625,0.125 0.538843,1e-6 0.971956,-0.0473 1,-0.09375 C 6.214093,20.862199 6.121786,20.685956 6,20.5 5.780234,20.164442 5.765659,20.148307 5.25,20.125 l -0.5,0 z m 2.21875,0 C 6.478973,20.1226 6.437501,20.14729 6.4375,20.25 c 0,0.08054 0.110223,0.273991 0.21875,0.4375 L 6.84375,21 l 1.5625,0 c 1.212912,1e-6 1.555941,-0.01632 1.53125,-0.09375 C 9.920036,20.851485 9.671355,20.642686 9.375,20.46875 L 8.8125,20.15625 7.625,20.125 c -0.277441,-0.0065 -0.492991,8.1e-4 -0.65625,0 z m 7.40625,0 -1.1875,0.03125 -0.53125,0.3125 c -0.296011,0.17531 -0.575941,0.382803 -0.59375,0.4375 C 12.03734,20.98354 12.381494,21 13.59375,21 l 1.5625,0 0.1875,-0.3125 c 0.108527,-0.163509 0.21875,-0.356964 0.21875,-0.4375 0,-0.102637 -0.04159,-0.126423 -0.53125,-0.125 -0.16322,4.75e-4 -0.379021,-0.006 -0.65625,0 z m 2.375,0 C 16.23434,20.14831 16.219766,20.16444 16,20.5 15.878212,20.685955 15.817156,20.862199 15.84375,20.90625 15.87179,20.9527 16.273657,21 16.8125,21 c 1.055302,1e-6 1.066779,-0.02647 0.6875,-0.5625 l -0.25,-0.3125 -0.5,0 z M 2.71875,20.21875 c -0.352811,0.02326 -0.350973,0.02446 -0.375,0.28125 -0.013713,0.146557 -0.023068,0.313454 0,0.375 0.03396,0.01182 0.058973,0.05248 0.09375,0.0625 0.034428,0.01448 0.067556,0.02025 0.125,0.03125 0.00973,0.0021 0.021468,-0.002 0.03125,0 C 2.696935,20.9866 2.810431,20.995413 2.9375,21 2.95852,21.000647 2.978818,21 3,21 l 0.125,0 C 3.322474,20.9954 3.503525,20.98343 3.53125,20.9375 3.554396,20.89916 3.473261,20.714287 3.34375,20.53125 3.118337,20.212678 3.069208,20.195648 2.71875,20.21875 z m 16.34375,0 c -0.165648,0.0089 -0.23719,0.07357 -0.40625,0.3125 -0.129512,0.183039 -0.211757,0.366067 -0.1875,0.40625 0.02426,0.04018 0.318386,0.04405 0.625,0.03125 l 0.3125,0 c 0.075,-0.01527 0.147109,-0.03914 0.21875,-0.0625 l 0,-0.3125 0,-0.34375 -0.34375,-0.03125 c -0.08761,-0.0058 -0.163534,-0.003 -0.21875,0 z M 1.46875,20.25 c 0.132472,0.162614 0.260552,0.323459 0.4375,0.4375 l 0,-0.09375 0,-0.34375 -0.4375,0 z m 18.625,0 -0.03125,0.25 c -0.0068,0.07277 -0.0042,0.117425 0,0.1875 0.186223,-0.11648 0.330617,-0.267936 0.46875,-0.4375 l -0.4375,0 z"
       id="path3612"
       inkscape:connector-curvature="0" />
  </g>
  <g
     inkscape:groupmode="layer"
     id="layer4"
     inkscape:label="Writing"
     sodipodi:insensitive="true">
    <path
       id="path4550"
       style="font-size:43.55937576px;font-style:normal;font-variant:normal;font-weight:normal;font-stretch:normal;text-align:start;line-height:100%;writing-mode:lr-tb;text-anchor:start;opacity:0.8;fill:#000000;fill-opacity:1;stroke:none;stroke-width:1px;stroke-linecap:butt;stroke-linejoin:miter;stroke-opacity:1;filter:url(#filter4576);font-family:Sans;-inkscape-font-specification:Sans"
       d="M 18.570458,11.364709 C 17.468039,11.487941 16.378623,13.545408 15.072622,13.545408 C 14.300218,13.545408 13.913801,13.379436 13.332829,12.753751 C 12.960688,11.863112 12.808857,11.181188 13.175411,10.324811 C 12.373012,11.039116 12.485925,11.458915 12.452937,12.220087 C 12.416288,13.065758 11.825578,13.742185 11.260876,12.840889 C 10.776817,12.020221 10.552986,11.155335 11.021402,10.237673 C 9.8439345,10.91773 10.593278,12.189649 10.072711,13.036949 C 9.328698,13.628902 8.8069603,12.89224 8.4254204,12.235499 C 8.1492587,11.760144 7.8019681,11.534232 7.416727,11.53423 C 7.2784263,11.534233 7.1599196,11.544077 7.0611444,11.565055 C 6.78455,11.614011 6.5190533,11.806634 6.255641,12.135318 C 6.0844142,12.345119 5.9943915,12.563068 5.9943966,12.790349 C 5.9943915,13.003647 6.067216,13.21596 6.2121002,13.422262 C 6.4208818,13.625678 6.5993742,13.724009 6.7418457,13.9617 C 6.7418397,14.07709 6.5915568,14.230333 6.2919249,14.408662 C 6.0943564,14.524052 5.7520712,14.602812 5.2614611,14.655263 C 5.0079173,14.683235 4.7338209,14.7015 4.4341873,14.7015 C 3.8447873,14.7015 3.4396205,14.648066 3.2223038,14.539669 C 2.6757105,14.266929 2.4022852,13.928769 2.4022868,13.53015 C 2.4022852,12.995162 2.5075574,12.565614 2.7215855,12.250912 C 1.1135248,13.817103 2.4692311,15.964127 4.0953237,15.964127 C 5.8533658,15.964127 7.4296854,15.514759 7.6634577,13.9617 C 7.7271138,13.538803 7.5264665,13.26515 7.2861048,13.160249 C 7.0720718,13.065841 6.9667996,12.935071 6.9668061,12.767231 C 6.9667999,12.644849 7.036331,12.556957 7.1845098,12.497512 C 7.6589936,12.379794 8.056405,12.260105 8.2219485,12.984639 C 8.6267985,14.756546 10.05198,14.684917 10.728335,13.523042 C 11.442054,14.753465 12.658721,14.517296 12.882344,13.370551 C 12.882344,13.370551 13.730081,14.570305 15.043611,14.570305 C 17.264562,14.570305 17.375875,11.907282 19.999996,11.33409 C 17.854762,9.3268317 16.155037,11.110706 14.738938,10.26263 C 16.157292,11.795011 17.49253,10.806911 18.570458,11.364709 z M 18.476131,13.588293 L 19,14.144609 L 18.476131,14.700924 L 17.952262,14.144608 L 18.476131,13.588293 M 14.016102,15.25594 L 13.492233,15.812255 L 12.968365,15.25594 L 13.492233,14.699624 L 14.016102,15.25594 M 11.50788,15.542905 L 12.031749,16.099221 L 11.50788,16.655536 L 10.984012,16.099221 L 11.50788,15.542905 M 10.743029,8.5106196 L 11.266898,9.0669351 L 10.743029,9.623251 L 10.219161,9.0669351 L 10.743029,8.5106196 M 5.4344499,16.429219 L 5.9583184,16.985535 L 5.4344499,17.54185 L 4.9105813,16.985535 L 5.4344499,16.429219 M 3.5125618,16.487369 L 4.0364304,17.043685 L 3.5125618,17.6 L 2.9886933,17.043685 L 3.5125618,16.487369" />
    <g
       id="g4539"
       transform="translate(0,-0.4)">
      <path
         sodipodi:nodetypes="csccscccssccscccsssscsssscsccsccc"
         id="path3293"
         d="M 18.570458,10.764709 C 17.468039,10.887941 16.378623,12.945408 15.072622,12.945408 C 14.300218,12.945408 13.913801,12.779436 13.332829,12.153751 C 12.960688,11.263112 12.808857,10.581188 13.175411,9.7248112 C 12.373012,10.439116 12.485925,10.858915 12.452937,11.620087 C 12.416288,12.465758 11.825578,13.142185 11.260876,12.240889 C 10.776817,11.420221 10.552986,10.555335 11.021402,9.6376733 C 9.8439345,10.31773 10.593278,11.589649 10.072711,12.436949 C 9.328698,13.028902 8.8069603,12.29224 8.4254204,11.635499 C 8.1492587,11.160144 7.8019681,10.934232 7.416727,10.93423 C 7.2784263,10.934233 7.1599196,10.944077 7.0611444,10.965055 C 6.78455,11.014011 6.5190533,11.206634 6.255641,11.535318 C 6.0844142,11.745119 5.9943915,11.963068 5.9943966,12.190349 C 5.9943915,12.403647 6.067216,12.61596 6.2121002,12.822262 C 6.4208818,13.025678 6.5993742,13.124009 6.7418457,13.3617 C 6.7418397,13.47709 6.5915568,13.630333 6.2919249,13.808662 C 6.0943564,13.924052 5.7520712,14.002812 5.2614611,14.055263 C 5.0079173,14.083235 4.7338209,14.1015 4.4341873,14.1015 C 3.8447873,14.1015 3.4396205,14.048066 3.2223038,13.939669 C 2.6757105,13.666929 2.4022852,13.328769 2.4022868,12.93015 C 2.4022852,12.395162 2.5075574,11.965614 2.7215855,11.650912 C 1.1135248,13.217103 2.4692311,15.364127 4.0953237,15.364127 C 5.8533658,15.364127 7.4296854,14.914759 7.6634577,13.3617 C 7.7271138,12.938803 7.5264665,12.66515 7.2861048,12.560249 C 7.0720718,12.465841 6.9667996,12.335071 6.9668061,12.167231 C 6.9667999,12.044849 7.036331,11.956957 7.1845098,11.897512 C 7.6589936,11.779794 8.056405,11.660105 8.2219485,12.384639 C 8.6267985,14.156546 10.05198,14.084917 10.728335,12.923042 C 11.442054,14.153465 12.658721,13.917296 12.882344,12.770551 C 12.882344,12.770551 13.730081,13.970305 15.043611,13.970305 C 17.264562,13.970305 17.375875,11.307282 19.999996,10.73409 C 17.854762,8.7268317 16.155037,10.510706 14.738938,9.6626297 C 16.157292,11.195011 17.49253,10.206911 18.570458,10.764709 z"
         style="font-size:43.55937576px;font-style:normal;font-variant:normal;font-weight:normal;font-stretch:normal;text-align:start;line-height:100%;writing-mode:lr-tb;text-anchor:start;fill:#ffffff;fill-opacity:1;stroke:none;stroke-width:1px;stroke-linecap:butt;stroke-linejoin:miter;stroke-opacity:1;font-family:Sans;-inkscape-font-specification:Sans" />
      <path
         id="path3291"
         d="M 18.476131,12.988293 L 19,13.544609 L 18.476131,14.100924 L 17.952262,13.544608 L 18.476131,12.988293"
         style="font-size:43.55937576px;font-style:normal;font-variant:normal;font-weight:normal;font-stretch:normal;text-align:start;line-height:100%;writing-mode:lr-tb;text-anchor:start;fill:#ffffff;fill-opacity:1;stroke:none;stroke-width:1px;stroke-linecap:butt;stroke-linejoin:miter;stroke-opacity:1;font-family:Sans;-inkscape-font-specification:Sans" />
      <path
         id="path3287"
         d="M 14.016102,14.65594 L 13.492233,15.212255 L 12.968365,14.65594 L 13.492233,14.099624 L 14.016102,14.65594"
         style="font-size:43.55937576px;font-style:normal;font-variant:normal;font-weight:normal;font-stretch:normal;text-align:start;line-height:100%;writing-mode:lr-tb;text-anchor:start;fill:#ffffff;fill-opacity:1;stroke:none;stroke-width:1px;stroke-linecap:butt;stroke-linejoin:miter;stroke-opacity:1;font-family:Sans;-inkscape-font-specification:Sans" />
      <path
         id="path3285"
         d="M 11.50788,14.942905 L 12.031749,15.499221 L 11.50788,16.055536 L 10.984012,15.499221 L 11.50788,14.942905"
         style="font-size:43.55937576px;font-style:normal;font-variant:normal;font-weight:normal;font-stretch:normal;text-align:start;line-height:100%;writing-mode:lr-tb;text-anchor:start;fill:#ffffff;fill-opacity:1;stroke:none;stroke-width:1px;stroke-linecap:butt;stroke-linejoin:miter;stroke-opacity:1;font-family:Sans;-inkscape-font-specification:Sans" />
      <path
         id="path3283"
         d="M 10.743029,7.9106196 L 11.266898,8.4669351 L 10.743029,9.0232507 L 10.219161,8.4669351 L 10.743029,7.9106196"
         style="font-size:43.55937576px;font-style:normal;font-variant:normal;font-weight:normal;font-stretch:normal;text-align:start;line-height:100%;writing-mode:lr-tb;text-anchor:start;fill:#ffffff;fill-opacity:1;stroke:none;stroke-width:1px;stroke-linecap:butt;stroke-linejoin:miter;stroke-opacity:1;font-family:Sans;-inkscape-font-specification:Sans" />
      <path
         id="path3279"
         d="M 5.4344499,15.829219 L 5.9583184,16.385535 L 5.4344499,16.94185 L 4.9105813,16.385535 L 5.4344499,15.829219"
         style="font-size:43.55937576px;font-style:normal;font-variant:normal;font-weight:normal;font-stretch:normal;text-align:start;line-height:100%;writing-mode:lr-tb;text-anchor:start;fill:#ffffff;fill-opacity:1;stroke:none;stroke-width:1px;stroke-linecap:butt;stroke-linejoin:miter;stroke-opacity:1;font-family:Sans;-inkscape-font-specification:Sans" />
      <path
         id="path3277"
         d="M 3.5125618,15.887369 L 4.0364304,16.443685 L 3.5125618,17 L 2.9886933,16.443685 L 3.5125618,15.887369"
         style="font-size:43.55937576px;font-style:normal;font-variant:normal;font-weight:normal;font-stretch:normal;text-align:start;line-height:100%;writing-mode:lr-tb;text-anchor:start;fill:#ffffff;fill-opacity:1;stroke:none;stroke-width:1px;stroke-linecap:butt;stroke-linejoin:miter;stroke-opacity:1;font-family:Sans;-inkscape-font-specification:Sans" />
    </g>
  </g>
  <g
     inkscape:groupmode="layer"
     id="layer2"
     inkscape:label="Highlight &amp; shadow">
    <rect
       style="opacity:0.2;fill:#ffffff;fill-opacity:1;stroke:none;display:inline;filter:url(#filter8716)"
       id="rect3200"
       width="17.975767"
       height="8.9714174"
       x="2"
       y="1.9800392"
       rx="2"
       ry="2"
       transform="matrix(0.8817734,0,0,0.8817734,0.2364528,1.3432966)" />
    <path
       style="opacity:0.25;fill:url(#linearGradient3938);fill-opacity:1;fill-rule:evenodd;stroke:none;display:inline"
       d="M 3,1 C 1.892,1 1,1.892 1,3 l 0,16 c 0,1.108 0.892,2 2,2 l 16,0 c 1.108,0 2,-0.892 2,-2 L 21,3 C 21,1.892 20.108,1 19,1 L 3,1 z m 0,1.03125 16,0 c 0.5497,0 0.96875,0.4190495 0.96875,0.96875 l 0,16 c 0,0.5497 -0.41905,0.96875 -0.96875,0.96875 l -16,0 C 2.4502995,19.96875 2.03125,19.5497 2.03125,19 l 0,-16 C 2.03125,2.4502995 2.4502995,2.03125 3,2.03125 z"
       id="rect3050"
       inkscape:connector-curvature="0" />
    <path
       id="path3235"
       d="M 3,21 C 1.892,21 1,20.108 1,19 l 0,-1 c 0,1.108 0.892,2 2,2 l 16,0 c 1.108,0 2,-0.892 2,-2 l 0,1 c 0,1.108 -0.892,2 -2,2 L 3,21 z"
       style="opacity:0.15;fill:url(#linearGradient3845);fill-opacity:1;fill-rule:evenodd;stroke:none;display:inline"
       inkscape:connector-curvature="0" />
  </g>
</svg>
