<?xml version="1.0" encoding="UTF-8" standalone="no"?>
<!-- Created with Inkscape (http://www.inkscape.org/) -->

<svg
   xmlns:dc="http://purl.org/dc/elements/1.1/"
   xmlns:cc="http://creativecommons.org/ns#"
   xmlns:rdf="http://www.w3.org/1999/02/22-rdf-syntax-ns#"
   xmlns:svg="http://www.w3.org/2000/svg"
   xmlns="http://www.w3.org/2000/svg"
   xmlns:xlink="http://www.w3.org/1999/xlink"
   xmlns:sodipodi="http://sodipodi.sourceforge.net/DTD/sodipodi-0.dtd"
   xmlns:inkscape="http://www.inkscape.org/namespaces/inkscape"
   width="22"
   height="22"
   id="svg2"
   sodipodi:version="0.32"
   inkscape:version="0.48.1 r9760"
   version="1.0"
   sodipodi:docname="geany.svg"
   inkscape:output_extension="org.inkscape.output.svg.inkscape"
   style="display:inline">
  <defs
     id="defs4">
    <linearGradient
       id="linearGradient3620">
      <stop
         style="stop-color:#233f71;stop-opacity:1;"
         offset="0"
         id="stop3622" />
      <stop
         style="stop-color:#2b58ac;stop-opacity:0.58823532;"
         offset="1"
         id="stop3624" />
    </linearGradient>
    <linearGradient
       id="linearGradient28219">
      <stop
         id="stop28221"
         offset="0"
         style="stop-color:#65370e;stop-opacity:1;" />
      <stop
         id="stop28223"
         offset="1"
         style="stop-color:#884e1a;stop-opacity:0;" />
    </linearGradient>
    <linearGradient
       inkscape:collect="always"
       xlink:href="#linearGradient28219"
       id="linearGradient28209"
       gradientUnits="userSpaceOnUse"
       x1="64"
       y1="42.76181"
       x2="64"
       y2="106.36941"
       gradientTransform="translate(-72.68288,-64.771593)" />
    <linearGradient
       id="linearGradient28295">
      <stop
         style="stop-color:#874000;stop-opacity:1;"
         offset="0"
         id="stop28297" />
      <stop
         style="stop-color:#ffc170;stop-opacity:1;"
         offset="1"
         id="stop28299" />
    </linearGradient>
    <linearGradient
       id="linearGradient28128">
      <stop
         style="stop-color:#444c7f;stop-opacity:1;"
         offset="0"
         id="stop28130" />
      <stop
         style="stop-color:#5963a6;stop-opacity:1;"
         offset="1"
         id="stop28132" />
    </linearGradient>
    <linearGradient
       inkscape:collect="always"
       xlink:href="#linearGradient28128"
       id="linearGradient28134"
       x1="51.643108"
       y1="123"
       x2="51.643108"
       y2="4.9745207"
       gradientUnits="userSpaceOnUse"
       gradientTransform="matrix(0.1694915,0,0,0.1694915,-19.847458,0.1525418)" />
    <linearGradient
       inkscape:collect="always"
       id="linearGradient3327">
      <stop
         style="stop-color:#000000;stop-opacity:1;"
         offset="0"
         id="stop3330" />
      <stop
         style="stop-color:#000000;stop-opacity:0;"
         offset="1"
         id="stop3333" />
    </linearGradient>
    <linearGradient
       inkscape:collect="always"
       xlink:href="#linearGradient3327"
       id="linearGradient3335"
       x1="11.375"
       y1="22"
       x2="11.375"
       y2="-9.817296"
       gradientUnits="userSpaceOnUse" />
    <linearGradient
       inkscape:collect="always"
       xlink:href="#ButtonColor"
       id="linearGradient3181"
       x1="-3.0607977"
       y1="27.258198"
       x2="-3.0607977"
       y2="7.2536583"
       gradientUnits="userSpaceOnUse"
       gradientTransform="translate(11.119372,23.741802)" />
    <inkscape:perspective
       sodipodi:type="inkscape:persp3d"
       inkscape:vp_x="0 : 11 : 1"
       inkscape:vp_y="0 : 1000 : 0"
       inkscape:vp_z="22 : 11 : 1"
       inkscape:persp3d-origin="11 : 7.3333333 : 1"
       id="perspective2531" />
    <linearGradient
       id="ButtonShadow"
       gradientTransform="scale(0.9883037,1.0118347)"
       x1="9.3550024"
       y1="21.742682"
       x2="9.3550024"
       y2="0.49362123"
       gradientUnits="userSpaceOnUse">
      <stop
         id="stop3277"
         offset="0"
         style="stop-color:#000000;stop-opacity:0.70588237;" />
      <stop
         id="stop3279"
         offset="1"
         style="stop-color:#000000;stop-opacity:0.15686275;" />
    </linearGradient>
    <linearGradient
       inkscape:collect="always"
       id="linearGradient3232">
      <stop
         style="stop-color:#000000;stop-opacity:1;"
         offset="0"
         id="stop3234" />
      <stop
         style="stop-color:#000000;stop-opacity:0;"
         offset="1"
         id="stop3236" />
    </linearGradient>
    <linearGradient
       gradientUnits="userSpaceOnUse"
       y2="-6.0004225"
       x2="11"
       y1="14.805666"
       x1="11"
       id="linearGradient3221"
       xlink:href="#linearGradient3232"
       inkscape:collect="always" />
    <linearGradient
       id="ButtonColor"
       x1="10.31979"
       y1="21"
       x2="10.31979"
       y2="0.99929649"
       gradientUnits="userSpaceOnUse">
      <stop
         style="stop-color:#3d588b;stop-opacity:1;"
         offset="0"
         id="stop3189" />
      <stop
         style="stop-color:#5f7fb9;stop-opacity:1;"
         offset="1"
         id="stop3191" />
    </linearGradient>
    <linearGradient
       inkscape:collect="always"
       xlink:href="#ButtonShadow"
       id="linearGradient38042"
       gradientUnits="userSpaceOnUse"
       gradientTransform="scale(0.9883037,1.0118347)"
       x1="9.3550024"
       y1="21.742682"
       x2="9.3550024"
       y2="0.49362123" />
    <linearGradient
       inkscape:collect="always"
       xlink:href="#ButtonColor"
       id="linearGradient4461"
       gradientUnits="userSpaceOnUse"
       gradientTransform="translate(-8.880628,-6.2581977)"
       x1="-3.0607977"
       y1="27.258198"
       x2="-3.0607977"
       y2="7.2536583" />
    <linearGradient
       inkscape:collect="always"
       xlink:href="#linearGradient28128"
       id="linearGradient4464"
       gradientUnits="userSpaceOnUse"
       gradientTransform="matrix(0.1694915,0,0,0.1694915,0.152542,0.1525418)"
       x1="51.643108"
       y1="123"
       x2="51.643108"
       y2="4.9745207" />
    <linearGradient
       inkscape:collect="always"
       xlink:href="#linearGradient28219"
       id="linearGradient4522"
       x1="10.839199"
       y1="11.339409"
       x2="10.839199"
       y2="18.532761"
       gradientUnits="userSpaceOnUse" />
    <linearGradient
       inkscape:collect="always"
       xlink:href="#ButtonColor"
       id="linearGradient8642"
       gradientUnits="userSpaceOnUse"
       gradientTransform="translate(-8.880628,-6.2581977)"
       x1="-3.0607977"
       y1="27.258198"
       x2="-3.0607977"
       y2="7.2536583" />
    <linearGradient
       y2="16"
       x2="10"
       y1="1"
       x1="10"
       gradientUnits="userSpaceOnUse"
       id="linearGradient3078"
       xlink:href="#linearGradient3823"
       inkscape:collect="always"
       gradientTransform="translate(1,-1)" />
    <linearGradient
       id="linearGradient3823">
      <stop
         id="stop3825"
         offset="0"
         style="stop-color:#ffffff;stop-opacity:1;" />
      <stop
         id="stop3829"
         offset="1"
         style="stop-color:#ffffff;stop-opacity:0;" />
    </linearGradient>
    <linearGradient
       inkscape:collect="always"
       xlink:href="#linearGradient3831"
       id="linearGradient3845"
       x1="11"
       y1="19.5"
       x2="21"
       y2="19.5"
       gradientUnits="userSpaceOnUse"
       spreadMethod="reflect" />
    <linearGradient
       id="linearGradient3831">
      <stop
         style="stop-color:#ffffff;stop-opacity:1;"
         offset="0"
         id="stop3833" />
      <stop
         id="stop3821"
         offset="0.75"
         style="stop-color:#ffffff;stop-opacity:0.49803922;" />
      <stop
         style="stop-color:#ffffff;stop-opacity:0;"
         offset="1"
         id="stop3835" />
    </linearGradient>
    <linearGradient
       y2="16"
       x2="10"
       y1="1"
       x1="10"
       gradientUnits="userSpaceOnUse"
       id="linearGradient3938"
       xlink:href="#linearGradient3823"
       inkscape:collect="always" />
    <linearGradient
       inkscape:collect="always"
       xlink:href="#linearGradient28128-5"
       id="linearGradient4464-8"
       gradientUnits="userSpaceOnUse"
       gradientTransform="matrix(0.1694915,0,0,0.1694915,0.152542,0.1525418)"
       x1="51.643108"
       y1="123"
       x2="51.643108"
       y2="4.9745207" />
    <linearGradient
       id="linearGradient28128-5">
      <stop
         style="stop-color:#444c7f;stop-opacity:1;"
         offset="0"
         id="stop28130-6" />
      <stop
         style="stop-color:#5963a6;stop-opacity:1;"
         offset="1"
         id="stop28132-1" />
    </linearGradient>
    <linearGradient
       inkscape:collect="always"
       xlink:href="#ButtonColor-5"
       id="linearGradient3181-1"
       x1="-3.0607977"
       y1="27.258198"
       x2="-3.0607977"
       y2="7.2536583"
       gradientUnits="userSpaceOnUse"
       gradientTransform="translate(11.119372,-6.2581977)" />
    <linearGradient
       id="ButtonColor-5"
       x1="10.31979"
       y1="21"
       x2="10.31979"
       y2="0.99929649"
       gradientUnits="userSpaceOnUse">
      <stop
         style="stop-color:#d9853a;stop-opacity:1;"
         offset="0"
         id="stop3189-9" />
      <stop
         style="stop-color:#dca466;stop-opacity:1;"
         offset="1"
         id="stop3191-8" />
    </linearGradient>
    <linearGradient
       y2="7.2536583"
       x2="-3.0607977"
       y1="27.258198"
       x1="-3.0607977"
       gradientTransform="translate(11.119372,-6.2581977)"
       gradientUnits="userSpaceOnUse"
       id="linearGradient3073"
       xlink:href="#ButtonColor-5"
       inkscape:collect="always" />
    <linearGradient
       inkscape:collect="always"
       xlink:href="#ButtonColor-5"
       id="linearGradient3887"
       gradientUnits="userSpaceOnUse"
       gradientTransform="translate(-18.880628,-6.2581977)"
       x1="-3.0607977"
       y1="27.258198"
       x2="-3.0607977"
       y2="7.2536583" />
    <clipPath
       clipPathUnits="userSpaceOnUse"
       id="clipPath3889">
      <rect
         ry="2"
         rx="2"
         y="1"
         x="-29"
         height="20"
         width="20"
         id="rect3891"
         style="fill:url(#linearGradient3893);fill-opacity:1;fill-rule:evenodd;stroke:none;display:inline" />
    </clipPath>
    <linearGradient
       inkscape:collect="always"
       xlink:href="#ButtonColor-5"
       id="linearGradient3893"
       gradientUnits="userSpaceOnUse"
       gradientTransform="translate(-18.880628,-6.2581977)"
       x1="-3.0607977"
       y1="27.258198"
       x2="-3.0607977"
       y2="7.2536583" />
  </defs>
  <sodipodi:namedview
     id="base"
     pagecolor="#ffffff"
     bordercolor="#e7e7e7"
     borderopacity="1"
     inkscape:pageopacity="0.0"
     inkscape:pageshadow="2"
     inkscape:zoom="17.313327"
     inkscape:cx="-19.491083"
     inkscape:cy="5.9562453"
     inkscape:document-units="px"
     inkscape:current-layer="layer1"
     showgrid="true"
     inkscape:showpageshadow="false"
     showguides="false"
     inkscape:guide-bbox="true"
     inkscape:window-width="1920"
     inkscape:window-height="1028"
     inkscape:window-x="0"
     inkscape:window-y="25"
     inkscape:window-maximized="1">
    <sodipodi:guide
       orientation="1,0"
       position="0,112"
       id="guide2383" />
    <sodipodi:guide
       orientation="0,1"
       position="26.278146,128"
       id="guide2385" />
    <sodipodi:guide
       orientation="1,0"
       position="128,54.082119"
       id="guide2387" />
    <sodipodi:guide
       orientation="0,1"
       position="78.156291,0"
       id="guide2389" />
    <sodipodi:guide
       orientation="0,1"
       position="60.863576,64.084768"
       id="guide2391" />
    <inkscape:grid
       type="xygrid"
       id="grid3672"
       visible="true"
       enabled="true" />
  </sodipodi:namedview>
  <metadata
     id="metadata7">
    <rdf:RDF>
      <cc:Work
         rdf:about="">
        <dc:format>image/svg+xml</dc:format>
        <dc:type
           rdf:resource="http://purl.org/dc/dcmitype/StillImage" />
      </cc:Work>
    </rdf:RDF>
  </metadata>
  <g
     inkscape:label="Button"
     inkscape:groupmode="layer"
     id="layer1">
    <g
       style="display:inline"
       id="g3337">
      <rect
         ry="2.5"
         rx="2.5"
         y="0.5"
         x="0.5"
         height="21.5"
         width="21"
         id="rect3371"
         style="opacity:0.3;fill:url(#linearGradient3335);fill-opacity:1;stroke:none;display:inline" />
      <rect
         style="opacity:0.5;fill:#000000;fill-opacity:1;stroke:none;display:inline"
         id="rect2553"
         width="20"
         height="20"
         x="1"
         y="2"
         rx="2.3809524"
         ry="2.3255813" />
    </g>
    <rect
       style="fill:url(#linearGradient3181);fill-opacity:1;fill-rule:evenodd;stroke:none;display:inline"
       id="rect3173"
       width="20"
       height="20"
       x="1"
       y="31"
       rx="2"
       ry="2" />
    <rect
       style="fill:url(#linearGradient3073);fill-opacity:1;fill-rule:evenodd;stroke:none;display:inline"
       id="rect3173-4"
       width="20"
       height="20"
       x="1"
       y="1"
       rx="2"
       ry="2" />
    <g
       id="g3880"
       clip-path="url(#clipPath3889)"
       transform="translate(30,0)">
      <path
         transform="translate(-30,0)"
         d="M 10.5,0.3125 A 0.6955797,0.6955797 0 0 0 10.46875,0.34375 C 9.4375957,0.69471367 8.7985889,1.3018361 8.09375,1.5 l 0,-0.03125 C 7.2699307,1.6816759 6.8298924,2.3124061 6.53125,2.78125 6.2326076,3.2500939 6.0254427,3.5622526 5.84375,3.65625 l 0,0.03125 C 5.1823652,3.9475642 4.7627117,4.4667927 4.5,4.90625 4.2222476,5.3708671 4.025166,5.7646272 3.90625,5.875 3.0292193,6.276692 2.3840038,6.9876955 2.0625,7.8125 c -0.3125212,0.8017599 -0.3687884,1.6801912 -0.25,2.5 -0.3789248,0.589725 -0.9160025,1.397901 -0.84375,2.46875 0.00155,0.02298 -0.002152,0.03929 0,0.0625 l 0,8.71875 a 0.6955797,0.6955797 0 0 0 0,0.125 c 0.1722225,1.04404 1.1403319,1.747708 2.1875,1.625 0.021558,-0.0025 0.040887,0.0032 0.0625,0 0.2129054,-0.0049 0.5316251,0.02984 0.90625,0 0.360415,-0.02871 0.8121727,-0.177048 1.15625,-0.53125 0.038231,-0.03936 0.090188,-0.04871 0.125,-0.09375 L 5.375,22.65625 c 0.3823367,-0.388183 0.5146417,-0.884347 0.53125,-1.28125 0.018289,-0.437066 -0.018932,-0.812331 0,-1.03125 a 0.6955797,0.6955797 0 0 0 0,-0.0625 l 0,-6.90625 c 0.249117,-0.306755 0.5189696,-0.594966 0.8125,-0.96875 a 0.6955797,0.6955797 0 0 0 0.0625,-0.125 c 0.2559872,-0.521027 0.2342429,-1.071533 0.15625,-1.5 C 6.8779185,10.453929 6.8069838,10.207602 6.75,9.96875 6.8577348,9.9560492 6.8649533,9.9681343 7,9.9375 7.0147737,9.9346777 7.0165993,9.9093945 7.03125,9.90625 7.9919189,9.7000637 8.6981043,8.8318707 8.59375,7.8125 a 0.6955797,0.6955797 0 0 0 0,-0.0625 c 0.00143,-6.317e-4 -0.00155,-0.030586 0,-0.03125 0.05439,-0.023232 0.1448809,-0.059563 0.28125,-0.0625 a 0.6955797,0.6955797 0 0 0 0.03125,0 c 1.0454951,-0.061893 1.81331,-0.9432189 1.8125,-1.96875 -0.01834,0.017715 0.01118,-0.014835 0.09375,-0.03125 0.16513,-0.03283 0.44655,0.069597 0.4375,0.0625 a 0.6955797,0.6955797 0 0 0 0.03125,0 0.6955797,0.6955797 0 0 0 0,0.03125 c -0.0026,0.1971569 -0.03381,0.6021247 0.28125,1 0.0089,0.01357 0.02211,0.01805 0.03125,0.03125 0.02461,0.028752 0.0024,0.065514 0.03125,0.09375 l 0.03125,-0.03125 c 0.449189,0.5835176 1.134558,0.8152953 1.6875,0.875 a 0.6955797,0.6955797 0 0 0 0.0625,0 c 0.01044,0.057898 0.0496,0.2076328 0.03125,0.40625 a 0.6955797,0.6955797 0 0 0 0,0.1875 c 0.165651,0.8745295 0.892451,1.5517384 1.8125,1.625 l 0,0.03125 c 0.01441,0.00173 0.01736,-0.00164 0.03125,0 -0.101772,0.379293 -0.26172,0.885458 -0.25,1.4375 0.01131,0.532854 0.284863,1.145808 0.84375,1.53125 l -0.03125,0.03125 c 0.138108,0.117793 0.250465,0.354008 0.25,0.3125 l 0,8.3125 a 0.6955797,0.6955797 0 0 0 0,0.125 c 0.20024,0.98438 1.122827,1.707613 2.15625,1.59375 0.0217,-0.0024 0.04071,0.0031 0.0625,0 0.248347,-0.0024 0.568811,0.04271 0.96875,0 0.402878,-0.04303 0.908201,-0.228262 1.25,-0.65625 0.0045,-0.0056 -0.0044,-0.02558 0,-0.03125 0.01061,-0.01143 0.02108,-0.01966 0.03125,-0.03125 0.37778,-0.430495 0.493811,-0.932611 0.5,-1.34375 0.0065,-0.429282 -0.05329,-0.812025 -0.03125,-1.03125 a 0.6955797,0.6955797 0 0 0 0,-0.0625 c -0.009,-2.550984 0.03141,-5.08413 0,-7.65625 0.0024,-0.02357 -0.0015,-0.03932 0,-0.0625 0.0523,-0.789544 -0.356139,-1.348904 -0.59375,-1.71875 -0.122294,-0.190352 -0.221711,-0.338872 -0.25,-0.4375 C 20.159211,10.182622 20.168244,10.129081 20.21875,10 A 0.6955797,0.6955797 0 0 0 20.25,9.8125 C 20.314183,8.9551065 20.126053,8.0585609 19.6875,7.28125 19.317754,6.6258958 18.721163,6.0786491 17.96875,5.78125 17.688899,4.652553 16.789375,3.9430087 15.84375,3.53125 15.627417,2.8804382 15.238623,2.3556385 14.75,2 14.169259,1.5773149 13.520167,1.3016451 12.96875,1.09375 12.357438,0.63425436 11.575788,0.16260943 10.59375,0.3125 a 0.6955797,0.6955797 0 0 0 -0.09375,0 z"
         id="path3878"
         style="opacity:0.05;fill:#000000;fill-opacity:1;fill-rule:evenodd;stroke:none;display:inline"
         inkscape:original="M 10.6875 1 C 9.8370416 1.289462 9.1830519 1.9027104 8.28125 2.15625 C 7.1264825 2.4547134 7.0186336 3.8351023 6.15625 4.28125 C 5.1545254 4.6102136 4.9458484 5.8451626 4.375 6.375 C 2.7470952 6.93865 2.1969999 8.9549598 2.53125 10.5 C 2.1304718 11.154117 1.5744021 11.898424 1.65625 12.78125 L 1.65625 21.5625 C 1.7678332 22.238935 2.4394823 22.728044 3.125 22.625 C 3.718776 22.59353 4.4384981 22.774285 4.84375 22.25 C 5.4189645 21.779963 5.1612248 20.946438 5.21875 20.28125 L 5.21875 13.09375 C 5.5275557 12.691574 5.8434289 12.367099 6.15625 11.96875 C 6.486321 11.296936 6.1175118 10.537437 6 9.84375 C 5.6926117 9.1795261 6.3382366 9.3808013 6.875 9.25 C 7.4852203 9.133427 7.972478 8.5219389 7.90625 7.875 C 7.7464396 7.2464144 8.324196 6.9806149 8.875 6.96875 C 9.5610931 6.9281333 10.099643 6.3084126 10.0625 5.625 C 9.9976251 4.8773971 11.210259 4.7819953 11.6875 5.15625 C 12.195731 5.3030703 11.782975 6.0402773 12.125 6.375 C 12.41093 6.8243326 12.901188 6.9767152 13.40625 7.03125 C 14.14025 7.00345 14.174715 7.6493767 14.125 8.1875 C 14.235911 8.7730396 14.74387 9.2564518 15.34375 9.28125 C 16.121118 9.374661 16.203116 9.3058476 15.9375 10.125 C 15.735245 10.88064 15.463394 11.954826 16.28125 12.4375 C 16.497492 12.621933 16.777469 12.943457 16.78125 13.28125 L 16.78125 21.59375 C 16.911423 22.23368 17.546182 22.721598 18.21875 22.625 C 18.854907 22.60482 19.624336 22.766586 20.03125 22.1875 C 20.545337 21.652575 20.275758 20.832471 20.34375 20.15625 C 20.33465 17.575312 20.37645 15.017833 20.34375 12.4375 C 20.452641 11.362937 19.14937 10.805848 19.5625 9.75 C 19.669663 8.318458 18.914448 6.6268013 17.40625 6.28125 C 17.321128 5.1452195 16.311513 4.3603453 15.3125 4 C 15.099219 2.7458018 13.786609 2.1526042 12.71875 1.75 C 12.139948 1.2914322 11.464072 0.88147015 10.6875 1 z M 17.34375 12.03125 C 17.579074 11.98759 18.224378 12.218112 17.8125 12.4375 C 17.020221 12.966477 18.144187 12.433178 18.15625 12.84375 C 17.921529 12.87008 17.54592 12.725198 17.25 12.6875 C 16.802581 12.77972 16.700382 12.272325 17.03125 12.28125 C 17.428536 12.797992 17.527114 12.750679 17.375 12.21875 L 17.34375 12.03125 z "
         inkscape:radius="0.69551015"
         sodipodi:type="inkscape:offset" />
      <path
         inkscape:connector-curvature="0"
         id="path3868"
         d="m -19.3125,1 c -0.850458,0.289462 -1.491861,0.9173514 -2.393663,1.170891 -1.154767,0.2984634 -1.269721,1.6687924 -2.132104,2.1149401 -1.001725,0.3289636 -1.228969,1.5631042 -1.799817,2.0929416 -1.627905,0.56365 -2.164916,2.5761871 -1.830666,4.1212273 -0.400778,0.654117 -0.956848,1.398424 -0.875,2.28125 0,2.927083 0,5.854167 0,8.78125 0.111583,0.676435 0.772604,1.165544 1.458122,1.0625 0.593776,-0.03147 1.324126,0.149285 1.729378,-0.375 0.575214,-0.470037 0.317475,-1.301658 0.375,-1.966846 0,-2.396468 0,-4.792936 0,-7.189404 0.308806,-0.402176 0.624679,-0.726651 0.9375,-1.125 0.330071,-0.671814 -0.03129,-1.435663 -0.148799,-2.12935 -0.307388,-0.6642239 0.330786,-0.4585987 0.867549,-0.5894 0.61022,-0.116573 1.097478,-0.7174329 1.03125,-1.3643718 -0.15981,-0.6285856 0.418014,-0.8936619 0.968817,-0.9055268 0.686094,-0.040617 1.212322,-0.6808923 1.175179,-1.3643049 -0.06488,-0.7476029 1.163974,-0.8429099 1.641215,-0.4686552 0.508231,0.1468203 0.09151,0.893136 0.433539,1.2278587 0.28593,0.4493326 0.776188,0.6017152 1.28125,0.65625 0.734,-0.0278 0.768465,0.6181267 0.71875,1.15625 0.110911,0.5855396 0.607092,1.0538764 1.206972,1.0786746 0.777368,0.093411 0.85951,0.037643 0.593894,0.8567954 -0.202255,0.75564 -0.462472,1.831856 0.355384,2.31453 0.216242,0.184433 0.496219,0.515951 0.5,0.853744 0,2.767502 0,5.535004 0,8.302506 0.130173,0.63993 0.754304,1.127848 1.426872,1.03125 0.636157,-0.02018 1.416214,0.141586 1.823128,-0.4375 0.514087,-0.534925 0.244508,-1.342497 0.3125,-2.018718 -0.0091,-2.580938 0.01849,-5.162822 -0.01421,-7.743155 0.108891,-1.074563 -1.183212,-1.632714 -0.770082,-2.6885622 C -10.333379,8.3055228 -11.085552,6.6268013 -12.59375,6.28125 -12.678872,5.1452195 -13.688487,4.3603453 -14.6875,4 -14.900781,2.7458018 -16.213391,2.1526042 -17.28125,1.75 -17.860052,1.2914322 -18.535928,0.88147015 -19.3125,1 z m 6.65625,11.03125 c 0.235324,-0.04366 0.891554,0.176026 0.479676,0.395414 -0.792279,0.528977 0.320761,0.0012 0.332824,0.411772 -0.234721,0.02633 -0.620515,-0.123597 -0.916435,-0.161295 -0.447419,0.09222 -0.536311,-0.401649 -0.205443,-0.392724 0.397286,0.516742 0.494424,0.459889 0.34231,-0.07204 -0.01098,-0.06038 -0.02195,-0.120752 -0.03293,-0.181128 z"
         style="opacity:0.1;fill:#000000;fill-opacity:1;fill-rule:evenodd;stroke:none;display:inline" />
      <path
         transform="translate(-30,0.34375)"
         d="m 10.78125,1.34375 c -0.328295,0.040837 -0.568087,0.2326101 -0.6875,0.375 -0.07186,0.085686 -0.09143,0.112747 -0.125,0.15625 -0.00346,0.00448 -0.028174,-0.00397 -0.03125,0 -0.040644,0.00464 -0.1195385,0.016919 -0.21875,0.0625 C 9.6281164,1.9791313 9.3671069,2.1065018 9.03125,2.25 8.6846747,2.3980782 7.9390785,2.693275 7.46875,3.4375 7.2980463,3.7076133 7.2595347,3.9687504 7.25,4.1875 6.5222505,4.4502106 5.8500769,4.8298409 5.46875,5.5625 5.300816,5.8851597 5.286904,6.1440352 5.25,6.40625 4.8249016,6.5133376 4.3659256,6.6615997 3.96875,7.0625 3.1647226,7.8740667 3.0759354,8.9180576 3.15625,9.625 c 0.03341,0.2940778 0.078162,0.438632 0.125,0.625 -0.024505,0.02603 -0.03929,-1.59e-4 -0.0625,0.03125 -0.1415751,0.191579 -0.102706,0.286091 -0.125,0.4375 -0.00147,0.01 0.00119,0.02187 0,0.03125 -0.031094,0.04291 -0.093738,0.09373 -0.09375,0.09375 -0.067425,0.07032 -0.1630316,0.10803 -0.21875,0.1875 -0.340757,0.486017 -0.4375,1.019618 -0.4375,1.40625 l 0,8.5625 a 0.58052855,0.58052855 0 0 0 0.5625,0.59375 c 0.0444,0.0014 0.084388,0 0.09375,0 l 0.9375,0 A 0.58052855,0.58052855 0 0 0 4.53125,21 l 0,-8.5625 c 0,-0.09391 -0.00467,-0.07725 0,-0.09375 L 4.71875,12.25 A 0.58052855,0.58052855 0 0 0 5,11.8125 l 0.03125,-0.125 0.25,-0.125 a 0.58052855,0.58052855 0 0 0 0.3125,-0.625 L 5.5625,10.6875 5.53125,10.59375 c -5.381e-4,-0.02625 0.013329,0.01029 0,-0.0625 C 5.4544064,10.111214 5.3227562,9.7403422 5.28125,9.375 5.2446713,9.0530271 5.300658,8.7321674 5.46875,8.5625 5.5572364,8.473184 5.8005034,8.3540728 6.28125,8.28125 l 0.4375,-0.0625 a 0.58052855,0.58052855 0 0 0 0.5,-0.5625 l 0,-0.4375 C 7.225888,6.9372314 7.2205973,6.799119 7.34375,6.5625 7.400831,6.4528279 7.7860901,6.1280285 8.46875,6 l 0.375,-0.0625 a 0.58052855,0.58052855 0 0 0 0.5,-0.5 l 0.03125,-0.375 -0.03125,0 C 9.3656856,4.8724424 9.3955919,4.716317 9.40625,4.59375 9.5058196,4.4637032 9.6033451,4.3527153 9.84375,4.25 c 0.291842,-0.1246924 0.572301,-0.2021568 0.8125,-0.3125 2.84e-4,-1.319e-4 0.06689,-0.049642 0.125,-0.09375 0.01639,-0.012441 0.02073,-0.023251 0.03125,-0.03125 -6e-5,5.5e-5 0.02303,-0.019793 0.03125,-0.03125 l 0.1875,-0.125 c 0.0029,0.00394 0.02784,-0.00452 0.03125,0 0.02388,0.031608 0.03964,0.071674 0.09375,0.125 0.008,0.00832 0.02297,0.022986 0.03125,0.03125 0.03763,0.037565 0.0658,0.083463 0.15625,0.125 0.240409,0.1104253 0.520904,0.1878456 0.8125,0.3125 0.240632,0.1028672 0.338059,0.2138627 0.4375,0.34375 0.01066,0.1225664 0.04058,0.2787391 0.0625,0.46875 l -0.03125,0 0.03125,0.375 a 0.58052855,0.58052855 0 0 0 0.5,0.5 L 13.53125,6 c 0.691326,0.1284301 1.109124,0.4747143 1.15625,0.5625 0.09989,0.186073 0.112479,0.4039272 0.125,0.6875 5.52e-4,0.012495 -4.63e-4,0.018456 0,0.03125 l 0,0.375 a 0.58052855,0.58052855 0 0 0 0.5,0.5625 l 0.4375,0.0625 c 0.482358,0.073141 0.729595,0.196662 0.8125,0.28125 0.159429,0.1626648 0.199616,0.4612786 0.15625,0.8125 -0.04721,0.3823985 -0.173779,0.757395 -0.25,1.15625 l -0.0625,0.40625 a 0.58052855,0.58052855 0 0 0 0.34375,0.625 l 0.28125,0.125 0.03125,0.15625 A 0.58052855,0.58052855 0 0 0 17.25,12.1875 l 0.1875,0.15625 a 0.58052855,0.58052855 0 0 0 0.03125,0.03125 c -0.003,0.01414 0,-0.0253 0,0.0625 l 0,8.5625 a 0.58052855,0.58052855 0 0 0 0.59375,0.59375 l 0.9375,0 c 0.0094,0 0.04935,0.0014 0.09375,0 A 0.58052855,0.58052855 0 0 0 19.65625,21 l 0,-8.5625 c 0,-0.347176 -0.0551,-0.853687 -0.375,-1.34375 -0.09042,-0.138515 -0.208232,-0.22464 -0.3125,-0.3125 -0.02165,-0.166315 0.02528,-0.333607 -0.15625,-0.5625 -0.03327,-0.04195 -0.02841,-0.0306 -0.0625,-0.0625 C 18.790914,9.9911002 18.813334,9.871342 18.84375,9.625 18.928177,8.9411917 18.87152,7.8879371 18.0625,7.0625 17.673746,6.6658548 17.229798,6.5151563 16.8125,6.40625 16.769703,6.1191259 16.746603,5.8429413 16.5625,5.5 16.16051,4.7511866 15.474741,4.3937915 14.75,4.15625 14.735634,3.9447376 14.69051,3.6895856 14.53125,3.4375 14.060899,2.6930079 13.314847,2.3979527 12.96875,2.25 12.632672,2.1063297 12.371751,1.97907 12.28125,1.9375 12.21236,1.9058481 12.238631,1.9115364 12.21875,1.90625 11.868105,1.5469927 11.389217,1.2725289 10.78125,1.34375 z"
         id="path3862"
         style="opacity:0.3;fill:#000000;fill-opacity:1;fill-rule:evenodd;stroke:none;display:inline"
         inkscape:original="M 10.84375 1.90625 C 10.573072 1.93992 10.474306 2.228425 10.28125 2.40625 C 10.27525 2.41175 10.25591 2.40065 10.25 2.40625 C 10.2235 2.406706 10.20499 2.40375 10.1875 2.40625 C 10.15252 2.41125 10.14358 2.43219 10.125 2.4375 C 10.0507 2.45874 10.01324 2.44831 9.96875 2.46875 C 9.859919 2.51874 9.587565 2.637022 9.25 2.78125 C 8.905204 2.928568 8.331737 3.175627 7.96875 3.75 C 7.749125 4.097524 7.832147 4.334741 7.84375 4.5625 C 7.037451 4.775953 6.323154 5.162819 5.96875 5.84375 C 5.779232 6.20788 5.755951 6.544903 5.71875 6.875 C 5.231619 6.985231 4.736697 7.103661 4.375 7.46875 C 3.732895 8.116876 3.651415 8.969806 3.71875 9.5625 C 3.765129 9.970736 3.843864 10.218526 3.90625 10.46875 C 3.827694 10.5171 3.753749 10.53535 3.6875 10.625 C 3.542489 10.821228 3.578529 10.947534 3.5625 11.09375 C 3.562211 11.09635 3.53152 11.09115 3.53125 11.09375 C 3.435491 11.15102 3.335088 11.25364 3.25 11.375 C 2.997718 11.734826 2.9375 12.125576 2.9375 12.4375 L 2.9375 21 C 2.95852 21.000647 2.978818 21 3 21 L 3.9375 21 L 3.9375 12.4375 C 3.9375 12.234878 3.961643 12.08135 4.0625 11.9375 C 4.06639 11.9353 4.119893 11.9301 4.21875 11.875 L 4.4375 11.75 L 4.46875 11.5 C 4.500425 11.24943 4.48022 11.276767 4.5 11.25 C 4.54261 11.23807 4.590389 11.23294 4.6875 11.1875 L 5.03125 11.03125 L 4.96875 10.6875 C 4.968294 10.66361 4.97168 10.641 4.96875 10.625 C 4.903987 10.270998 4.769072 9.88044 4.71875 9.4375 C 4.671877 9.024915 4.71188 8.510156 5.0625 8.15625 C 5.293424 7.923161 5.658026 7.798954 6.1875 7.71875 L 6.625 7.65625 L 6.625 7.21875 C 6.63314 6.897714 6.673281 6.60878 6.84375 6.28125 C 7.04285 5.898711 7.593022 5.584155 8.375 5.4375 L 8.75 5.375 L 8.78125 5 C 8.829387 4.582925 8.846959 4.307422 8.84375 4.3125 C 9.03288 4.013231 9.31465 3.85135 9.625 3.71875 C 9.942582 3.58306 10.223581 3.490165 10.40625 3.40625 C 10.41335 3.40295 10.40125 3.37958 10.40625 3.375 L 10.71875 3.125 C 10.72385 3.11455 10.7432 3.11134 10.75 3.09375 C 10.7524 3.08745 10.7471 3.06855 10.75 3.0625 C 10.7909 2.97571 10.870694 2.918446 10.96875 2.90625 C 11.093269 2.89166 11.198638 2.95362 11.25 3.0625 C 11.2531 3.0717 11.2472 3.08643 11.25 3.09375 C 11.394338 3.1241 11.452258 3.276685 11.5625 3.375 C 11.5647 3.3828 11.57953 3.39972 11.59375 3.40625 C 11.776606 3.49024 12.057535 3.583037 12.375 3.71875 C 12.685507 3.851488 12.967259 4.013356 13.15625 4.3125 C 13.15305 4.3074 13.17064 4.58302 13.21875 5 L 13.25 5.375 L 13.625 5.4375 C 14.418353 5.584884 14.988697 5.910926 15.1875 6.28125 C 15.352958 6.58946 15.394052 6.913157 15.40625 7.25 L 15.40625 7.65625 L 15.84375 7.71875 C 16.374638 7.79925 16.740784 7.923656 16.96875 8.15625 C 17.314416 8.508932 17.333594 9.013565 17.28125 9.4375 C 17.2257 9.88741 17.09649 10.283609 17.03125 10.625 L 16.96875 11.03125 L 17.34375 11.1875 C 17.44229 11.2271 17.488475 11.20844 17.53125 11.21875 C 17.53295 11.219163 17.52965 11.24961 17.53125 11.25 C 17.55681 11.28892 17.57088 11.31383 17.59375 11.53125 L 17.625 11.75 L 17.8125 11.90625 C 17.90126 11.96209 17.965799 11.96685 17.96875 11.96875 C 18.0623 12.112058 18.0625 12.217636 18.0625 12.4375 L 18.0625 21 L 19 21 C 19.02118 21 19.04148 21.000647 19.0625 21 L 19.0625 12.4375 C 19.0625 12.15485 19.01537 11.764904 18.78125 11.40625 C 18.70209 11.284986 18.588655 11.181941 18.5 11.125 C 18.47869 10.955171 18.51166 10.805472 18.34375 10.59375 C 18.27109 10.50213 18.178947 10.485884 18.09375 10.4375 C 18.15513 10.186263 18.233227 9.951438 18.28125 9.5625 C 18.35287 8.98242 18.29965 8.125206 17.65625 7.46875 C 17.301249 7.106543 16.820283 6.985403 16.34375 6.875 C 16.31153 6.530977 16.27248 6.172395 16.0625 5.78125 C 15.694494 5.09574 14.959654 4.766066 14.15625 4.5625 C 14.16784 4.334742 14.25079 4.097501 14.03125 3.75 C 13.668301 3.175509 13.094617 2.92857 12.75 2.78125 C 12.412341 2.636904 12.140136 2.518765 12.03125 2.46875 C 12.00387 2.45617 11.96635 2.44862 11.9375 2.4375 C 11.666948 2.104887 11.289586 1.854022 10.84375 1.90625 z "
         inkscape:radius="0.5804705"
         sodipodi:type="inkscape:offset" />
    </g>
    <path
       inkscape:connector-curvature="0"
       style="opacity:0.5;fill:#000000;fill-opacity:1;fill-rule:evenodd;stroke:none;display:inline"
       d="m 11,7.2447028 c 0,1.1521647 -1.945824,1.3644753 -1.945824,2.7601042 0,1.410866 0,7.96225 0,7.96225 l 1.945824,0 1.945824,0 c 0,0 0,-6.551384 0,-7.96225 C 12.945824,8.6091781 11,8.3968675 11,7.2447028 z"
       id="path2470"
       sodipodi:nodetypes="cscccsc" />
    <path
       inkscape:connector-curvature="0"
       style="fill:url(#linearGradient4464-8);fill-opacity:1;fill-rule:evenodd;stroke:none;display:inline"
       d="M 3,1 C 1.892,1 1,1.892 1,3 l 0,16 c 0,1.108 0.892,2 2,2 l 1.21875,0 0,-8.5625 c 0,-0.67759 0.456454,-0.21928 0.4375,-0.75 -0.021175,-0.592891 0.4375,-0.28125 0.4375,-0.28125 0.846001,-0.663847 -1.717587,-3.5 1.84375,-3.5 C 6.817718,7.0378308 6.805432,5.5625 8.9375,5.5625 8.60254,3.5248272 10.712174,4.117242 11,3.1875 c 0.288251,0.929239 2.397417,0.337586 2.0625,2.375 2.132068,2e-7 2.151032,1.4753308 2.03125,2.34375 3.561337,0 0.966499,2.836153 1.8125,3.5 0,0 0.489925,-0.311641 0.46875,0.28125 -0.01895,0.53072 0.40625,0.07241 0.40625,0.75 l 0,8.5625 L 19,21 c 1.108,0 2,-0.892 2,-2 L 21,3 C 21,1.892 20.108,1 19,1 L 3,1 z"
       id="path14773" />
    <path
       inkscape:connector-curvature="0"
       style="fill:#767fb7;fill-opacity:1;fill-rule:evenodd;stroke:none;display:inline"
       d="m 10.84375,1.90625 c -0.270678,0.03367 -0.369444,0.322175 -0.5625,0.5 -0.006,0.0055 -0.02534,-0.0056 -0.03125,0 -0.0265,4.56e-4 -0.04501,-0.0025 -0.0625,0 C 10.15252,2.41125 10.14358,2.43219 10.125,2.4375 10.0507,2.45874 10.01324,2.44831 9.96875,2.46875 9.859919,2.51874 9.587565,2.637022 9.25,2.78125 8.905204,2.928568 8.331737,3.175627 7.96875,3.75 7.749125,4.097524 7.832147,4.334741 7.84375,4.5625 7.037451,4.775953 6.323154,5.162819 5.96875,5.84375 5.779232,6.20788 5.755951,6.544903 5.71875,6.875 5.231619,6.985231 4.736697,7.103661 4.375,7.46875 3.732895,8.116876 3.651415,8.969806 3.71875,9.5625 c 0.046379,0.408236 0.125114,0.656026 0.1875,0.90625 -0.078556,0.04835 -0.152501,0.0666 -0.21875,0.15625 -0.145011,0.196228 -0.108971,0.322534 -0.125,0.46875 -2.89e-4,0.0026 -0.03098,-0.0026 -0.03125,0 C 3.435491,11.15102 3.335088,11.25364 3.25,11.375 2.997718,11.734826 2.9375,12.125576 2.9375,12.4375 l 0,8.5625 C 2.95852,21.000647 2.978818,21 3,21 l 0.9375,0 0,-8.5625 c 0,-0.202622 0.024143,-0.35615 0.125,-0.5 0.00389,-0.0022 0.057393,-0.0074 0.15625,-0.0625 L 4.4375,11.75 4.46875,11.5 C 4.500425,11.24943 4.48022,11.276767 4.5,11.25 4.54261,11.23807 4.590389,11.23294 4.6875,11.1875 L 5.03125,11.03125 4.96875,10.6875 c -4.56e-4,-0.02389 0.00293,-0.0465 0,-0.0625 C 4.903987,10.270998 4.769072,9.88044 4.71875,9.4375 4.671877,9.024915 4.71188,8.510156 5.0625,8.15625 5.293424,7.923161 5.658026,7.798954 6.1875,7.71875 l 0.4375,-0.0625 0,-0.4375 C 6.63314,6.897714 6.673281,6.60878 6.84375,6.28125 7.04285,5.898711 7.593022,5.584155 8.375,5.4375 L 8.75,5.375 8.78125,5 C 8.829387,4.582925 8.846959,4.307422 8.84375,4.3125 9.03288,4.013231 9.31465,3.85135 9.625,3.71875 c 0.317582,-0.13569 0.598581,-0.228585 0.78125,-0.3125 0.0071,-0.0033 -0.005,-0.02667 0,-0.03125 l 0.3125,-0.25 C 10.72385,3.11455 10.7432,3.11134 10.75,3.09375 c 0.0024,-0.0063 -0.0029,-0.0252 0,-0.03125 0.0409,-0.08679 0.120694,-0.144054 0.21875,-0.15625 0.124519,-0.01459 0.229888,0.04737 0.28125,0.15625 0.0031,0.0092 -0.0028,0.02393 0,0.03125 0.144338,0.03035 0.202258,0.182935 0.3125,0.28125 0.0022,0.0078 0.01703,0.02472 0.03125,0.03125 0.182856,0.08399 0.463785,0.176787 0.78125,0.3125 0.310507,0.132738 0.592259,0.294606 0.78125,0.59375 C 13.15305,4.3074 13.17064,4.58302 13.21875,5 L 13.25,5.375 13.625,5.4375 c 0.793353,0.147384 1.363697,0.473426 1.5625,0.84375 0.165458,0.30821 0.206552,0.631907 0.21875,0.96875 l 0,0.40625 0.4375,0.0625 c 0.530888,0.0805 0.897034,0.204906 1.125,0.4375 0.345666,0.352682 0.364844,0.857315 0.3125,1.28125 -0.05555,0.44991 -0.18476,0.846109 -0.25,1.1875 l -0.0625,0.40625 0.375,0.15625 c 0.09854,0.0396 0.144725,0.02094 0.1875,0.03125 0.0017,4.13e-4 -0.0016,0.03086 0,0.03125 0.02556,0.03892 0.03963,0.06383 0.0625,0.28125 L 17.625,11.75 l 0.1875,0.15625 c 0.08876,0.05584 0.153299,0.0606 0.15625,0.0625 0.09355,0.143308 0.09375,0.248886 0.09375,0.46875 L 18.0625,21 19,21 c 0.02118,0 0.04148,6.47e-4 0.0625,0 l 0,-8.5625 c 0,-0.28265 -0.04713,-0.672596 -0.28125,-1.03125 C 18.70209,11.284986 18.588655,11.181941 18.5,11.125 c -0.02131,-0.169829 0.01166,-0.319528 -0.15625,-0.53125 -0.07266,-0.09162 -0.164803,-0.107866 -0.25,-0.15625 0.06138,-0.251237 0.139477,-0.486062 0.1875,-0.875 0.07162,-0.58008 0.0184,-1.437294 -0.625,-2.09375 C 17.301249,7.106543 16.820283,6.985403 16.34375,6.875 16.31153,6.530977 16.27248,6.172395 16.0625,5.78125 15.694494,5.09574 14.959654,4.766066 14.15625,4.5625 14.16784,4.334742 14.25079,4.097501 14.03125,3.75 13.668301,3.175509 13.094617,2.92857 12.75,2.78125 12.412341,2.636904 12.140136,2.518765 12.03125,2.46875 12.00387,2.45617 11.96635,2.44862 11.9375,2.4375 11.666948,2.104887 11.289586,1.854022 10.84375,1.90625 z"
       id="path4475" />
    <rect
       style="opacity:0.20000000000000001;color:#000000;fill:#ffffff;fill-opacity:1;fill-rule:nonzero;stroke:none;stroke-width:0.80000000999999998;marker:none;visibility:visible;display:inline;overflow:visible;enable-background:accumulate"
       id="rect3930"
       width="4"
       height="1"
       x="9"
       y="18" />
  </g>
  <g
     inkscape:groupmode="layer"
     id="layer4"
     inkscape:label="Writing"
     sodipodi:insensitive="true">
    <path
       sodipodi:type="inkscape:offset"
       inkscape:radius="0.51661199"
       inkscape:original="M 10.75 8.5 L 10.21875 9.0625 L 10.75 9.625 L 11.28125 9.0625 L 10.75 8.5 z M 11.03125 10.25 C 9.8537825 10.930057 10.583067 12.18395 10.0625 13.03125 C 9.318487 13.623203 8.8190399 12.906741 8.4375 12.25 C 8.1613383 11.774645 7.7914911 11.531252 7.40625 11.53125 C 7.2679493 11.531253 7.1612752 11.54148 7.0625 11.5625 C 6.7859056 11.61146 6.5134123 11.796316 6.25 12.125 C 6.0787732 12.334801 5.9999949 12.553969 6 12.78125 C 5.9999949 12.994548 6.0738654 13.231198 6.21875 13.4375 C 6.4275316 13.640916 6.6075285 13.731059 6.75 13.96875 C 6.749994 14.08414 6.5808819 14.227921 6.28125 14.40625 C 6.0836815 14.52164 5.7406101 14.603799 5.25 14.65625 C 4.9964562 14.68422 4.7371336 14.6875 4.4375 14.6875 C 3.8481 14.6875 3.4360667 14.639651 3.21875 14.53125 C 2.6721567 14.25851 2.4062484 13.929869 2.40625 13.53125 C 2.4062484 12.996262 2.5047219 12.564702 2.71875 12.25 C 1.1106893 13.816191 2.4676574 15.96875 4.09375 15.96875 C 5.8517921 15.96875 7.4224777 15.521809 7.65625 13.96875 C 7.719906 13.545853 7.5216117 13.261151 7.28125 13.15625 C 7.067217 13.06184 6.9687435 12.94909 6.96875 12.78125 C 6.9687438 12.658868 7.0393213 12.559445 7.1875 12.5 C 7.6619838 12.382282 8.0532065 12.275466 8.21875 13 C 8.6236 14.771907 10.042395 14.693125 10.71875 13.53125 C 11.432469 14.761673 12.651377 14.521745 12.875 13.375 C 12.875 13.375 13.71772 14.5625 15.03125 14.5625 C 17.252201 14.5625 17.375879 11.916942 20 11.34375 C 17.854766 9.3364917 16.166099 11.098076 14.75 10.25 C 16.168354 11.782381 17.484572 10.817202 18.5625 11.375 C 17.460081 11.498232 16.368501 13.53125 15.0625 13.53125 C 14.290096 13.53125 13.924722 13.375685 13.34375 12.75 C 12.971609 11.859361 12.820946 11.168877 13.1875 10.3125 C 12.385101 11.026805 12.470488 11.457578 12.4375 12.21875 C 12.40085 13.064421 11.814702 13.745046 11.25 12.84375 C 10.765941 12.023082 10.562834 11.167662 11.03125 10.25 z M 18.46875 13.59375 L 17.9375 14.15625 L 18.46875 14.6875 L 19 14.15625 L 18.46875 13.59375 z M 13.5 14.6875 L 12.96875 15.25 L 13.5 15.8125 L 14.03125 15.25 L 13.5 14.6875 z M 11.5 15.53125 L 10.96875 16.09375 L 11.5 16.65625 L 12.03125 16.09375 L 11.5 15.53125 z M 5.4375 16.4375 L 4.90625 17 L 5.4375 17.53125 L 5.96875 17 L 5.4375 16.4375 z M 3.5 16.5 L 3 17.03125 L 3.5 17.59375 L 4.03125 17.03125 L 3.5 16.5 z "
       style="font-size:43.55937576px;font-style:normal;font-variant:normal;font-weight:normal;font-stretch:normal;text-align:start;line-height:100%;writing-mode:lr-tb;text-anchor:start;opacity:0.1;fill:#000000;fill-opacity:1;stroke:none;font-family:Sans;-inkscape-font-specification:Sans"
       id="path3858"
       d="m 10.75,7.96875 a 0.51666365,0.51666365 0 0 0 -0.375,0.1875 l -0.53125,0.5625 a 0.51666365,0.51666365 0 0 0 0,0.6875 l 0.53125,0.5625 a 0.51666365,0.51666365 0 0 0 0.15625,0.125 c -0.481257,0.43693 -0.7222601,1.001315 -0.75,1.46875 -0.031571,0.531984 -0.034409,0.884257 -0.15625,1.125 -0.028061,0.01072 -0.08188,0.06206 -0.09375,0.0625 -0.026605,9.83e-4 -0.058792,-0.01582 -0.125,-0.0625 C 9.2738332,12.594148 9.0575753,12.314265 8.875,12 8.5366746,11.417643 8.0090843,11.000003 7.40625,11 c -0.1637631,4e-6 -0.2980265,0.03282 -0.4375,0.0625 -0.4390191,0.07771 -0.8119717,0.359405 -1.125,0.75 -0.2335845,0.286207 -0.3750078,0.622086 -0.375,0.96875 -8e-6,0.332584 0.1082908,0.677975 0.3125,0.96875 a 0.51666365,0.51666365 0 0 0 0.0625,0.0625 c 0.1024582,0.09982 0.1237777,0.102566 0.1875,0.15625 -0.064885,0.0379 -0.3845281,0.138405 -0.84375,0.1875 -0.2197581,0.02424 -0.4541365,0 -0.75,0 -0.5614401,0 -0.961747,-0.07467 -1,-0.09375 -0.4581354,-0.228601 -0.5000007,-0.362378 -0.5,-0.53125 -1.4e-6,-0.471593 0.086792,-0.805972 0.21875,-1 A 0.52221172,0.52221172 0 0 0 2.34375,11.875 c -0.9408064,0.91631 -1.0471116,2.124084 -0.625,3.03125 0.2757796,0.592682 0.8147984,0.982397 1.40625,1.25 0.00302,0.0014 -0.00302,0.0299 0,0.03125 l -0.5,0.5 a 0.51666365,0.51666365 0 0 0 0,0.6875 l 0.5,0.5625 a 0.51666365,0.51666365 0 0 0 0.75,0 L 4.40625,17.375 a 0.51666365,0.51666365 0 0 0 0.0625,-0.0625 0.51666365,0.51666365 0 0 0 0.0625,0.0625 l 0.53125,0.53125 a 0.51666365,0.51666365 0 0 0 0.75,0 L 6.34375,17.375 a 0.51666365,0.51666365 0 0 0 0,-0.71875 L 5.9375,16.21875 c 0.2429086,-0.06583 0.4976026,-0.08208 0.71875,-0.1875 0.7541517,-0.359497 1.358851,-1.062281 1.5,-2 0.3028603,0.454435 0.6875552,0.789634 1.15625,0.84375 0.5375206,0.06206 1.006614,-0.228758 1.40625,-0.625 0.393839,0.390596 0.832696,0.65007 1.3125,0.59375 C 12.421553,14.797936 12.752933,14.56821 13,14.25 c 0.05911,0.05499 0.05501,0.03682 0.125,0.09375 0.01027,0.0084 -0.0105,0.0229 0,0.03125 l -0.53125,0.53125 a 0.51666365,0.51666365 0 0 0 0,0.6875 l 0.53125,0.5625 a 0.51666365,0.51666365 0 0 0 0.75,0 l 0.53125,-0.5625 a 0.51666365,0.51666365 0 0 0 0.0625,-0.625 c 0.186789,0.0408 0.352692,0.125 0.5625,0.125 0.657801,0 1.222545,-0.225833 1.65625,-0.53125 0.433705,-0.305417 0.743185,-0.694785 1.0625,-1.0625 0.63863,-0.735429 1.223174,-1.404654 2.375,-1.65625 a 0.51666365,0.51666365 0 0 0 0.21875,-0.875 C 19.166697,9.8674015 17.990016,9.7544783 17.0625,9.84375 16.598742,9.8883859 16.179602,9.9562732 15.84375,9.96875 15.507898,9.9812268 15.247565,9.9607619 15,9.8125 a 0.51666365,0.51666365 0 0 0 -0.625,0.78125 c 0.800019,0.864335 1.700521,1.071758 2.40625,1.09375 0.101234,0.0032 0.125917,0.03072 0.21875,0.03125 -0.153511,0.141932 -0.319484,0.270063 -0.46875,0.40625 C 15.966646,12.640134 15.447435,13 15.0625,13 c -0.665285,0 -0.814999,-0.03791 -1.28125,-0.53125 -0.31865,-0.781559 -0.418557,-1.251666 -0.125,-1.9375 A 0.51666365,0.51666365 0 0 0 12.84375,9.9375 c -0.44652,0.397498 -0.700231,0.761471 -0.8125,1.15625 -0.112269,0.394779 -0.109523,0.736639 -0.125,1.09375 -0.01127,0.260042 -0.08382,0.432138 -0.125,0.5 -0.0217,-0.01806 -0.04068,-0.01748 -0.09375,-0.09375 -0.0056,-0.0095 0.0055,-0.0218 0,-0.03125 C 11.264041,11.835446 11.123081,11.238413 11.5,10.5 A 0.51666365,0.51666365 0 0 0 11.28125,9.8125 l 0.375,-0.40625 a 0.51666365,0.51666365 0 0 0 0,-0.6875 L 11.125,8.15625 A 0.51666365,0.51666365 0 0 0 10.75,7.96875 z m 7.71875,5.09375 a 0.51666365,0.51666365 0 0 0 -0.375,0.1875 l -0.53125,0.5625 a 0.51666365,0.51666365 0 0 0 0,0.71875 l 0.53125,0.53125 a 0.51666365,0.51666365 0 0 0 0.75,0 L 19.375,14.53125 a 0.51666365,0.51666365 0 0 0 0,-0.71875 L 18.84375,13.25 a 0.51666365,0.51666365 0 0 0 -0.375,-0.1875 z M 11.5,15 a 0.51666365,0.51666365 0 0 0 -0.375,0.1875 L 10.59375,15.75 a 0.51666365,0.51666365 0 0 0 0,0.6875 L 11.125,17 a 0.51666365,0.51666365 0 0 0 0.75,0 l 0.53125,-0.5625 a 0.51666365,0.51666365 0 0 0 0,-0.6875 L 11.875,15.1875 A 0.51666365,0.51666365 0 0 0 11.5,15 z m -6.75,1.4375 -0.21875,0.21875 a 0.51666365,0.51666365 0 0 0 -0.0625,0.0625 0.51666365,0.51666365 0 0 0 -0.0625,-0.0625 L 4.25,16.5 c 0.1715868,-0.0024 0.3313818,-0.05103 0.5,-0.0625 z" />
    <path
       id="path4550"
       style="font-size:43.55937576px;font-style:normal;font-variant:normal;font-weight:normal;font-stretch:normal;text-align:start;line-height:100%;writing-mode:lr-tb;text-anchor:start;opacity:0.3;fill:#000000;fill-opacity:1;stroke:none;font-family:Sans;-inkscape-font-specification:Sans"
       d="m 18.570458,11.364709 c -1.102419,0.123232 -2.191835,2.180699 -3.497836,2.180699 -0.772404,0 -1.158821,-0.165972 -1.739793,-0.791657 -0.372141,-0.890639 -0.523972,-1.572563 -0.157418,-2.42894 -0.802399,0.714305 -0.689486,1.134104 -0.722474,1.895276 -0.03665,0.845671 -0.627359,1.522098 -1.192061,0.620802 -0.484059,-0.820668 -0.70789,-1.685554 -0.239474,-2.603216 -1.1774675,0.680057 -0.428124,1.951976 -0.948691,2.799276 C 9.328698,13.628902 8.8069603,12.89224 8.4254204,12.235499 8.1492587,11.760144 7.8019681,11.534232 7.416727,11.53423 c -0.1383007,3e-6 -0.2568074,0.0098 -0.3555826,0.03082 -0.2765944,0.04896 -0.5420911,0.241579 -0.8055034,0.570263 -0.1712268,0.209801 -0.2612495,0.42775 -0.2612444,0.655031 -5.1e-6,0.213298 0.072819,0.425611 0.2177036,0.631913 0.2087816,0.203416 0.387274,0.301747 0.5297455,0.539438 -6e-6,0.11539 -0.1502889,0.268633 -0.4499208,0.446962 -0.1975685,0.11539 -0.5398537,0.19415 -1.0304638,0.246601 -0.2535438,0.02797 -0.5276402,0.04624 -0.8272738,0.04624 -0.5894,0 -0.9945668,-0.05343 -1.2118835,-0.161831 -0.5465933,-0.27274 -0.8200186,-0.6109 -0.820017,-1.009519 -1.6e-6,-0.534988 0.1052706,-0.964536 0.3192987,-1.279238 -1.6080607,1.566191 -0.2523544,3.713215 1.3737382,3.713215 1.7580421,0 3.3343617,-0.449368 3.568134,-2.002427 0.063656,-0.422897 -0.1369912,-0.69655 -0.3773529,-0.801451 -0.214033,-0.09441 -0.3193052,-0.225178 -0.3192987,-0.393018 -6.2e-6,-0.122382 0.069525,-0.210274 0.2177037,-0.269719 0.4744838,-0.117718 0.8718952,-0.237407 1.0374387,0.487127 0.40485,1.771907 1.8300315,1.700278 2.5063865,0.538403 0.713719,1.230423 1.930386,0.994254 2.154009,-0.152491 0,0 0.847737,1.199754 2.161267,1.199754 2.220951,0 2.332264,-2.663023 4.956385,-3.236215 -2.145234,-2.0072583 -3.844959,-0.223384 -5.261058,-1.07146 1.418354,1.532381 2.753592,0.544281 3.83152,1.102079 z M 18.476131,13.588293 19,14.144609 l -0.523869,0.556315 -0.523869,-0.556316 0.523869,-0.556315 m -4.460029,1.667647 -0.523869,0.556315 -0.523868,-0.556315 0.523868,-0.556316 0.523869,0.556316 m -2.508222,0.286965 0.523869,0.556316 -0.523869,0.556315 -0.523868,-0.556315 0.523868,-0.556316 M 10.743029,8.5106196 11.266898,9.0669351 10.743029,9.623251 10.219161,9.0669351 10.743029,8.5106196 M 5.4344499,16.429219 5.9583184,16.985535 5.4344499,17.54185 4.9105813,16.985535 5.4344499,16.429219 M 3.5125618,16.487369 4.0364304,17.043685 3.5125618,17.6 2.9886933,17.043685 3.5125618,16.487369"
       inkscape:connector-curvature="0" />
    <g
       id="g4539"
       transform="translate(0,-0.4)">
      <path
         sodipodi:nodetypes="csccscccssccscccsssscsssscsccsccc"
         id="path3293"
         d="m 18.570458,10.764709 c -1.102419,0.123232 -2.191835,2.180699 -3.497836,2.180699 -0.772404,0 -1.158821,-0.165972 -1.739793,-0.791657 -0.372141,-0.890639 -0.523972,-1.572563 -0.157418,-2.4289398 -0.802399,0.7143048 -0.689486,1.1341038 -0.722474,1.8952758 -0.03665,0.845671 -0.627359,1.522098 -1.192061,0.620802 C 10.776817,11.420221 10.552986,10.555335 11.021402,9.6376733 9.8439345,10.31773 10.593278,11.589649 10.072711,12.436949 9.328698,13.028902 8.8069603,12.29224 8.4254204,11.635499 8.1492587,11.160144 7.8019681,10.934232 7.416727,10.93423 c -0.1383007,3e-6 -0.2568074,0.0098 -0.3555826,0.03083 -0.2765944,0.04896 -0.5420911,0.241579 -0.8055034,0.570263 -0.1712268,0.209801 -0.2612495,0.42775 -0.2612444,0.655031 -5.1e-6,0.213298 0.072819,0.425611 0.2177036,0.631913 0.2087816,0.203416 0.387274,0.301747 0.5297455,0.539438 -6e-6,0.11539 -0.1502889,0.268633 -0.4499208,0.446962 -0.1975685,0.11539 -0.5398537,0.19415 -1.0304638,0.246601 -0.2535438,0.02797 -0.5276402,0.04624 -0.8272738,0.04624 -0.5894,0 -0.9945668,-0.05343 -1.2118835,-0.161831 -0.5465933,-0.27274 -0.8200186,-0.6109 -0.820017,-1.009519 -1.6e-6,-0.534988 0.1052706,-0.964536 0.3192987,-1.279238 -1.6080607,1.566191 -0.2523544,3.713215 1.3737382,3.713215 1.7580421,0 3.3343617,-0.449368 3.568134,-2.002427 0.063656,-0.422897 -0.1369912,-0.69655 -0.3773529,-0.801451 -0.214033,-0.09441 -0.3193052,-0.225178 -0.3192987,-0.393018 -6.2e-6,-0.122382 0.069525,-0.210274 0.2177037,-0.269719 0.4744838,-0.117718 0.8718952,-0.237407 1.0374387,0.487127 0.40485,1.771907 1.8300315,1.700278 2.5063865,0.538403 0.713719,1.230423 1.930386,0.994254 2.154009,-0.152491 0,0 0.847737,1.199754 2.161267,1.199754 2.220951,0 2.332264,-2.663023 4.956385,-3.236215 -2.145234,-2.0072583 -3.844959,-0.223384 -5.261058,-1.0714603 1.418354,1.5323813 2.753592,0.5442813 3.83152,1.1020793 z"
         style="font-size:43.55937576px;font-style:normal;font-variant:normal;font-weight:normal;font-stretch:normal;text-align:start;line-height:100%;writing-mode:lr-tb;text-anchor:start;fill:#ffffff;fill-opacity:1;stroke:none;font-family:Sans;-inkscape-font-specification:Sans"
         inkscape:connector-curvature="0" />
      <path
         id="path3291"
         d="M 18.476131,12.988293 19,13.544609 l -0.523869,0.556315 -0.523869,-0.556316 0.523869,-0.556315"
         style="font-size:43.55937576px;font-style:normal;font-variant:normal;font-weight:normal;font-stretch:normal;text-align:start;line-height:100%;writing-mode:lr-tb;text-anchor:start;fill:#ffffff;fill-opacity:1;stroke:none;font-family:Sans;-inkscape-font-specification:Sans"
         inkscape:connector-curvature="0" />
      <path
         id="path3287"
         d="m 14.016102,14.65594 -0.523869,0.556315 -0.523868,-0.556315 0.523868,-0.556316 0.523869,0.556316"
         style="font-size:43.55937576px;font-style:normal;font-variant:normal;font-weight:normal;font-stretch:normal;text-align:start;line-height:100%;writing-mode:lr-tb;text-anchor:start;fill:#ffffff;fill-opacity:1;stroke:none;font-family:Sans;-inkscape-font-specification:Sans"
         inkscape:connector-curvature="0" />
      <path
         id="path3285"
         d="m 11.50788,14.942905 0.523869,0.556316 -0.523869,0.556315 -0.523868,-0.556315 0.523868,-0.556316"
         style="font-size:43.55937576px;font-style:normal;font-variant:normal;font-weight:normal;font-stretch:normal;text-align:start;line-height:100%;writing-mode:lr-tb;text-anchor:start;fill:#ffffff;fill-opacity:1;stroke:none;font-family:Sans;-inkscape-font-specification:Sans"
         inkscape:connector-curvature="0" />
      <path
         id="path3283"
         d="M 10.743029,7.9106196 11.266898,8.4669351 10.743029,9.0232507 10.219161,8.4669351 10.743029,7.9106196"
         style="font-size:43.55937576px;font-style:normal;font-variant:normal;font-weight:normal;font-stretch:normal;text-align:start;line-height:100%;writing-mode:lr-tb;text-anchor:start;fill:#ffffff;fill-opacity:1;stroke:none;font-family:Sans;-inkscape-font-specification:Sans"
         inkscape:connector-curvature="0" />
      <path
         id="path3279"
         d="M 5.4344499,15.829219 5.9583184,16.385535 5.4344499,16.94185 4.9105813,16.385535 5.4344499,15.829219"
         style="font-size:43.55937576px;font-style:normal;font-variant:normal;font-weight:normal;font-stretch:normal;text-align:start;line-height:100%;writing-mode:lr-tb;text-anchor:start;fill:#ffffff;fill-opacity:1;stroke:none;font-family:Sans;-inkscape-font-specification:Sans"
         inkscape:connector-curvature="0" />
      <path
         id="path3277"
         d="M 3.5125618,15.887369 4.0364304,16.443685 3.5125618,17 2.9886933,16.443685 3.5125618,15.887369"
         style="font-size:43.55937576px;font-style:normal;font-variant:normal;font-weight:normal;font-stretch:normal;text-align:start;line-height:100%;writing-mode:lr-tb;text-anchor:start;fill:#ffffff;fill-opacity:1;stroke:none;font-family:Sans;-inkscape-font-specification:Sans"
         inkscape:connector-curvature="0" />
    </g>
  </g>
  <g
     inkscape:groupmode="layer"
     id="layer2"
     inkscape:label="Highlight &amp; shadow"
     sodipodi:insensitive="true">
    <path
       style="opacity:0.25;fill:url(#linearGradient3938);fill-opacity:1;fill-rule:evenodd;stroke:none;display:inline"
       d="M 3,1 C 1.892,1 1,1.892 1,3 l 0,16 c 0,1.108 0.892,2 2,2 l 16,0 c 1.108,0 2,-0.892 2,-2 L 21,3 C 21,1.892 20.108,1 19,1 L 3,1 z m 0,1.03125 16,0 c 0.5497,0 0.96875,0.4190495 0.96875,0.96875 l 0,16 c 0,0.5497 -0.41905,0.96875 -0.96875,0.96875 l -16,0 C 2.4502995,19.96875 2.03125,19.5497 2.03125,19 l 0,-16 C 2.03125,2.4502995 2.4502995,2.03125 3,2.03125 z"
       id="rect3050"
       inkscape:connector-curvature="0" />
    <path
       id="path3235"
       d="M 3,21 C 1.892,21 1,20.108 1,19 l 0,-1 c 0,1.108 0.892,2 2,2 l 16,0 c 1.108,0 2,-0.892 2,-2 l 0,1 c 0,1.108 -0.892,2 -2,2 L 3,21 z"
       style="opacity:0.15;fill:url(#linearGradient3845);fill-opacity:1;fill-rule:evenodd;stroke:none;display:inline"
       inkscape:connector-curvature="0" />
  </g>
</svg>
