<?xml version="1.0" encoding="UTF-8" standalone="no"?>
<!-- Created with Inkscape (http://www.inkscape.org/) -->

<svg
   xmlns:dc="http://purl.org/dc/elements/1.1/"
   xmlns:cc="http://creativecommons.org/ns#"
   xmlns:rdf="http://www.w3.org/1999/02/22-rdf-syntax-ns#"
   xmlns:svg="http://www.w3.org/2000/svg"
   xmlns="http://www.w3.org/2000/svg"
   xmlns:xlink="http://www.w3.org/1999/xlink"
   xmlns:sodipodi="http://sodipodi.sourceforge.net/DTD/sodipodi-0.dtd"
   xmlns:inkscape="http://www.inkscape.org/namespaces/inkscape"
   width="22"
   height="22"
   id="svg2"
   sodipodi:version="0.32"
   inkscape:version="0.48.0 r9654"
   version="1.0"
   sodipodi:docname="gloobus.svg"
   inkscape:output_extension="org.inkscape.output.svg.inkscape"
   style="display:inline">
  <defs
     id="defs4">
    <linearGradient
       inkscape:collect="always"
       id="linearGradient3327">
      <stop
         style="stop-color:#000000;stop-opacity:1;"
         offset="0"
         id="stop3330" />
      <stop
         style="stop-color:#000000;stop-opacity:0;"
         offset="1"
         id="stop3333" />
    </linearGradient>
    <linearGradient
       inkscape:collect="always"
       xlink:href="#linearGradient3327"
       id="linearGradient3335"
       x1="11.375"
       y1="22"
       x2="11.375"
       y2="-9.817296"
       gradientUnits="userSpaceOnUse" />
    <linearGradient
       inkscape:collect="always"
       xlink:href="#linearGradient3619"
       id="linearGradient3181"
       x1="-3.0607977"
       y1="27.258198"
       x2="-3.0607977"
       y2="7.2536583"
       gradientUnits="userSpaceOnUse"
       gradientTransform="translate(11.119372,-6.2581977)" />
    <inkscape:perspective
       sodipodi:type="inkscape:persp3d"
       inkscape:vp_x="0 : 11 : 1"
       inkscape:vp_y="0 : 1000 : 0"
       inkscape:vp_z="22 : 11 : 1"
       inkscape:persp3d-origin="11 : 7.3333333 : 1"
       id="perspective2531" />
    <linearGradient
       id="ButtonShadow"
       gradientTransform="scale(0.9883037,1.0118347)"
       x1="9.3550024"
       y1="21.742682"
       x2="9.3550024"
       y2="0.49362123"
       gradientUnits="userSpaceOnUse">
      <stop
         id="stop3277"
         offset="0"
         style="stop-color:#000000;stop-opacity:0.70588237;" />
      <stop
         id="stop3279"
         offset="1"
         style="stop-color:#000000;stop-opacity:0.15686275;" />
    </linearGradient>
    <linearGradient
       inkscape:collect="always"
       id="linearGradient3232">
      <stop
         style="stop-color:#000000;stop-opacity:1;"
         offset="0"
         id="stop3234" />
      <stop
         style="stop-color:#000000;stop-opacity:0;"
         offset="1"
         id="stop3236" />
    </linearGradient>
    <linearGradient
       gradientUnits="userSpaceOnUse"
       y2="-6.0004225"
       x2="11"
       y1="14.805666"
       x1="11"
       id="linearGradient3221"
       xlink:href="#linearGradient3232"
       inkscape:collect="always" />
    <linearGradient
       id="ButtonColor"
       x1="10.31979"
       y1="21"
       x2="10.31979"
       y2="0.99929649"
       gradientUnits="userSpaceOnUse">
      <stop
         style="stop-color:#29669f;stop-opacity:1;"
         offset="0"
         id="stop3189" />
      <stop
         style="stop-color:#88b6e0;stop-opacity:1;"
         offset="1"
         id="stop3191" />
    </linearGradient>
    <linearGradient
       inkscape:collect="always"
       xlink:href="#ButtonShadow"
       id="linearGradient38042"
       gradientUnits="userSpaceOnUse"
       gradientTransform="scale(0.9883037,1.0118347)"
       x1="9.3550024"
       y1="21.742682"
       x2="9.3550024"
       y2="0.49362123" />
    <filter
       inkscape:collect="always"
       id="filter3194"
       x="-0.18"
       width="1.36"
       y="-0.18"
       height="1.36">
      <feGaussianBlur
         inkscape:collect="always"
         stdDeviation="1.2"
         id="feGaussianBlur3196" />
    </filter>
    <clipPath
       clipPathUnits="userSpaceOnUse"
       id="clipPath2849">
      <rect
         ry="2"
         rx="2"
         y="1"
         x="1"
         height="20"
         width="20"
         id="rect2851"
         style="fill:#ffffff;fill-opacity:1;fill-rule:evenodd;stroke:none;display:inline" />
    </clipPath>
    <inkscape:perspective
       id="perspective3786"
       inkscape:persp3d-origin="0.5 : 0.33333333 : 1"
       inkscape:vp_z="1 : 0.5 : 1"
       inkscape:vp_y="0 : 1000 : 0"
       inkscape:vp_x="0 : 0.5 : 1"
       sodipodi:type="inkscape:persp3d" />
    <linearGradient
       inkscape:collect="always"
       xlink:href="#linearGradient3619"
       id="linearGradient3617"
       gradientUnits="userSpaceOnUse"
       x1="48"
       y1="90"
       x2="48"
       y2="5.9877172" />
    <linearGradient
       id="linearGradient3619">
      <stop
         id="stop3621"
         offset="0"
         style="stop-color:#1a1a1a;stop-opacity:1" />
      <stop
         id="stop3623"
         offset="1"
         style="stop-color:#4d4d4d;stop-opacity:1" />
    </linearGradient>
    <linearGradient
       gradientTransform="translate(-95,-53)"
       y2="5.9877172"
       x2="48"
       y1="90"
       x1="48"
       gradientUnits="userSpaceOnUse"
       id="linearGradient3796"
       xlink:href="#linearGradient3619"
       inkscape:collect="always" />
    <inkscape:perspective
       id="perspective3806"
       inkscape:persp3d-origin="0.5 : 0.33333333 : 1"
       inkscape:vp_z="1 : 0.5 : 1"
       inkscape:vp_y="0 : 1000 : 0"
       inkscape:vp_x="0 : 0.5 : 1"
       sodipodi:type="inkscape:persp3d" />
    <linearGradient
       inkscape:collect="always"
       xlink:href="#linearGradient3176"
       id="linearGradient3241"
       gradientUnits="userSpaceOnUse"
       gradientTransform="matrix(1.6748685,0,0,1.6760154,7.8316773,8.0709351)"
       x1="23.999987"
       y1="42.956509"
       x2="20.56768"
       y2="7.429738" />
    <linearGradient
       id="linearGradient3176">
      <stop
         id="stop3178"
         offset="0"
         style="stop-color:#005693;stop-opacity:1;" />
      <stop
         style="stop-color:#1d96dc;stop-opacity:1;"
         offset="0.64838707"
         id="stop3365" />
      <stop
         id="stop3180"
         offset="1"
         style="stop-color:#3cc1ff;stop-opacity:1;" />
    </linearGradient>
    <linearGradient
       y2="7.429738"
       x2="20.56768"
       y1="42.956509"
       x1="23.999987"
       gradientTransform="matrix(0.38315663,0,0,0.38341901,1.8042464,1.7979443)"
       gradientUnits="userSpaceOnUse"
       id="linearGradient3816"
       xlink:href="#linearGradient3176"
       inkscape:collect="always" />
    <filter
       inkscape:collect="always"
       id="filter3685">
      <feGaussianBlur
         inkscape:collect="always"
         stdDeviation="0.30686164"
         id="feGaussianBlur3687" />
    </filter>
    <linearGradient
       y2="16"
       x2="10"
       y1="1"
       x1="10"
       gradientUnits="userSpaceOnUse"
       id="linearGradient3078"
       xlink:href="#linearGradient3823"
       inkscape:collect="always"
       gradientTransform="translate(1,-1)" />
    <linearGradient
       id="linearGradient3823">
      <stop
         id="stop3825"
         offset="0"
         style="stop-color:#ffffff;stop-opacity:1;" />
      <stop
         id="stop3829"
         offset="1"
         style="stop-color:#ffffff;stop-opacity:0;" />
    </linearGradient>
    <linearGradient
       inkscape:collect="always"
       xlink:href="#linearGradient3831"
       id="linearGradient3845"
       x1="11"
       y1="19.5"
       x2="21"
       y2="19.5"
       gradientUnits="userSpaceOnUse"
       spreadMethod="reflect" />
    <linearGradient
       id="linearGradient3831">
      <stop
         style="stop-color:#ffffff;stop-opacity:1;"
         offset="0"
         id="stop3833" />
      <stop
         id="stop3821"
         offset="0.75"
         style="stop-color:#ffffff;stop-opacity:0.49803922;" />
      <stop
         style="stop-color:#ffffff;stop-opacity:0;"
         offset="1"
         id="stop3835" />
    </linearGradient>
    <linearGradient
       y2="16"
       x2="10"
       y1="1"
       x1="10"
       gradientUnits="userSpaceOnUse"
       id="linearGradient3961"
       xlink:href="#linearGradient3823"
       inkscape:collect="always" />
  </defs>
  <sodipodi:namedview
     id="base"
     pagecolor="#ffffff"
     bordercolor="#e7e7e7"
     borderopacity="1"
     inkscape:pageopacity="0.0"
     inkscape:pageshadow="2"
     inkscape:zoom="24.339057"
     inkscape:cx="0.20862843"
     inkscape:cy="7.2893578"
     inkscape:document-units="px"
     inkscape:current-layer="layer1"
     showgrid="true"
     inkscape:showpageshadow="false"
     showguides="false"
     inkscape:guide-bbox="true"
     inkscape:window-width="1920"
     inkscape:window-height="1026"
     inkscape:window-x="0"
     inkscape:window-y="25"
     inkscape:window-maximized="1"
     inkscape:snap-global="false">
    <sodipodi:guide
       orientation="1,0"
       position="0,112"
       id="guide2383" />
    <sodipodi:guide
       orientation="0,1"
       position="26.278146,128"
       id="guide2385" />
    <sodipodi:guide
       orientation="1,0"
       position="128,54.082119"
       id="guide2387" />
    <sodipodi:guide
       orientation="0,1"
       position="78.156291,0"
       id="guide2389" />
    <sodipodi:guide
       orientation="0,1"
       position="60.863576,64.084768"
       id="guide2391" />
    <inkscape:grid
       type="xygrid"
       id="grid3672"
       visible="true"
       enabled="true" />
  </sodipodi:namedview>
  <metadata
     id="metadata7">
    <rdf:RDF>
      <cc:Work
         rdf:about="">
        <dc:format>image/svg+xml</dc:format>
        <dc:type
           rdf:resource="http://purl.org/dc/dcmitype/StillImage" />
      </cc:Work>
    </rdf:RDF>
  </metadata>
  <g
     inkscape:label="Button"
     inkscape:groupmode="layer"
     id="layer1">
    <g
       style="display:inline"
       id="g3337">
      <rect
         ry="2.5"
         rx="2.5"
         y="0.5"
         x="0.5"
         height="21.5"
         width="21"
         id="rect3371"
         style="opacity:0.3;fill:url(#linearGradient3335);fill-opacity:1;stroke:none;display:inline" />
      <rect
         style="opacity:0.5;fill:#000000;fill-opacity:1;stroke:none;display:inline"
         id="rect2553"
         width="20"
         height="20"
         x="1"
         y="2"
         rx="2.3809524"
         ry="2.3255813" />
    </g>
    <rect
       style="fill:url(#linearGradient3181);fill-opacity:1.0;fill-rule:evenodd;stroke:none;display:inline"
       id="rect3173"
       width="20"
       height="20"
       x="1"
       y="1"
       rx="2"
       ry="2" />
    <rect
       ry="2"
       rx="2"
       y="1"
       x="1"
       height="20"
       width="20"
       id="rect3640"
       style="fill:url(#linearGradient3181);fill-opacity:1.0;fill-rule:evenodd;stroke:none;display:inline" />
    <path
       style="opacity:0.2;fill:#ffffff;fill-opacity:1;stroke:none"
       d="M 12.53543,1 9.9089103,21 19,21 c 1.108,0 2,-0.892 2,-2 L 21,3 C 21,1.892 20.108,1 19,1 l -6.46457,0 z"
       id="rect3642"
       sodipodi:nodetypes="ccccccc" />
    <path
       id="path3673"
       d="m 11.213075,11.930235 c -0.12099,-0.526884 0.512811,-0.832139 0.944366,-0.775773 0.843571,0.11018 1.243551,1.05486 1.049302,1.811817 -0.295384,1.151069 -1.603954,1.66904 -2.676797,1.324266 C 9.0721371,13.822043 8.4331299,12.132656 8.9325327,10.745113 9.5686793,8.9776479 11.642531,8.2154265 13.34175,8.8723617 15.417049,9.674689 16.302091,12.138788 15.487277,14.151403 14.521161,16.537752 11.66853,17.547208 9.3456367,16.572645 6.651234,15.442211 5.5185033,12.196095 6.6519966,9.5599892 7.9446757,6.5536656 11.580526,5.2959394 14.526068,6.5902586 c 3.31427,1.4563422 4.695374,5.4873744 3.241752,8.7462664 -1.617751,3.626849 -6.038804,5.133328 -9.6064927,3.518219 C 4.2267887,17.073562 2.5969291,12.256177 4.3714535,8.3748674 5.7628722,5.3315003 8.9436855,3.4165252 12.272319,3.5027981"
       style="fill:#000000;fill-opacity:1;fill-rule:evenodd;stroke:none;opacity:0.80000000000000004;filter:url(#filter3685)"
       inkscape:export-xdpi="251.89999"
       inkscape:export-ydpi="251.89999"
       inkscape:export-filename="E:\back up Escritorio\Mis Documentos\Diseño Web\Gloobus-web\path3266.png" />
    <path
       inkscape:export-filename="E:\back up Escritorio\Mis Documentos\Diseño Web\Gloobus-web\path3266.png"
       inkscape:export-ydpi="251.89999"
       inkscape:export-xdpi="251.89999"
       style="fill:url(#linearGradient3816);fill-opacity:1;fill-rule:evenodd;stroke:none"
       d="m 11.213075,11.430236 c -0.12099,-0.526884 0.512811,-0.832139 0.944366,-0.775773 0.843571,0.11018 1.243551,1.05486 1.049302,1.811817 -0.295384,1.151069 -1.603954,1.66904 -2.676797,1.324266 C 9.0721371,13.322044 8.4331299,11.632657 8.9325327,10.245114 9.5686793,8.4776484 11.642531,7.715427 13.34175,8.3723622 15.417049,9.1746895 16.302091,11.638789 15.487277,13.651404 14.521161,16.037753 11.66853,17.047209 9.3456367,16.072646 6.651234,14.942212 5.5185033,11.696096 6.6519966,9.0599897 7.9446757,6.0536661 11.580526,4.7959399 14.526068,6.0902591 c 3.31427,1.4563422 4.695374,5.4873749 3.241752,8.7462669 -1.617751,3.626849 -6.038804,5.133328 -9.6064927,3.518219 C 4.2267887,16.573563 2.5969291,11.756178 4.3714535,7.8748679 5.7628722,4.8315008 8.9436855,2.9165257 12.272319,3.0027986"
       id="path3239" />
    <path
       style="fill:#ffffff;fill-opacity:1;fill-rule:evenodd;stroke:none;opacity:0.2"
       d="M 12.28125 3 C 8.9526165 2.9137271 5.7664187 4.8316329 4.375 7.875 C 3.8073411 9.116606 3.5631541 10.446847 3.65625 11.75 C 3.7082734 10.775477 3.9534094 9.7971197 4.375 8.875 C 5.7490693 5.8695801 8.873013 3.963953 12.15625 4 L 12.28125 3 z M 12.09375 5.59375 L 11.96875 6.59375 C 12.833965 6.574178 13.707661 6.7318515 14.53125 7.09375 C 16.799556 8.0904793 18.144254 10.289181 18.3125 12.625 C 18.512946 9.9401934 17.120523 7.2315173 14.53125 6.09375 C 13.746418 5.7488821 12.919216 5.5914553 12.09375 5.59375 z M 11.96875 6.59375 C 11.928034 6.594671 11.884404 6.5920249 11.84375 6.59375 L 11.625 8.1875 C 11.667339 8.1819792 11.70743 8.1602626 11.75 8.15625 L 11.96875 6.59375 z M 11.625 8.1875 C 10.447978 8.3409764 9.3653086 9.0613794 8.9375 10.25 C 8.7647117 10.730076 8.7572202 11.229476 8.84375 11.71875 C 8.8715537 11.561683 8.8828522 11.401834 8.9375 11.25 C 9.3499677 10.104002 10.372714 9.4067076 11.5 9.21875 L 11.625 8.1875 z M 12.15625 10.65625 C 11.913812 10.624585 11.606667 10.703235 11.40625 10.875 L 11.25 12.0625 C 11.406906 11.770599 11.840053 11.614951 12.15625 11.65625 C 12.673698 11.723835 13.038632 12.102863 13.1875 12.5625 C 13.197475 12.53089 13.210376 12.501383 13.21875 12.46875 C 13.412999 11.711793 12.999821 10.76643 12.15625 10.65625 z M 6.25 11.59375 C 5.9994017 13.843591 7.1545478 16.144022 9.34375 17.0625 C 11.666643 18.037063 14.533884 17.042599 15.5 14.65625 C 15.768798 13.992311 15.832886 13.280089 15.75 12.59375 C 15.707263 12.951846 15.638609 13.313881 15.5 13.65625 C 14.533884 16.042599 11.666643 17.037063 9.34375 16.0625 C 7.4862638 15.283193 6.3922677 13.491001 6.25 11.59375 z M 11.25 12.09375 C 11.200852 12.19558 11.188503 12.305779 11.21875 12.4375 L 11.25 12.09375 z "
       id="path3668" />
    <path
       style="opacity:0.2;fill:url(#linearGradient3961);fill-opacity:1;fill-rule:evenodd;stroke:none;display:inline"
       d="M 3,1 C 1.892,1 1,1.892 1,3 l 0,16 c 0,1.108 0.892,2 2,2 l 16,0 c 1.108,0 2,-0.892 2,-2 L 21,3 C 21,1.892 20.108,1 19,1 L 3,1 z m 0,1.03125 16,0 c 0.5497,0 0.96875,0.4190495 0.96875,0.96875 l 0,16 c 0,0.5497 -0.41905,0.96875 -0.96875,0.96875 l -16,0 C 2.4502995,19.96875 2.03125,19.5497 2.03125,19 l 0,-16 C 2.03125,2.4502995 2.4502995,2.03125 3,2.03125 z"
       id="rect3050"
       inkscape:connector-curvature="0" />
    <path
       id="path3235"
       d="M 3,21 C 1.892,21 1,20.108 1,19 l 0,-1 c 0,1.108 0.892,2 2,2 l 16,0 c 1.108,0 2,-0.892 2,-2 l 0,1 c 0,1.108 -0.892,2 -2,2 L 3,21 z"
       style="opacity:0.15;fill:url(#linearGradient3845);fill-opacity:1;fill-rule:evenodd;stroke:none;display:inline"
       inkscape:connector-curvature="0" />
  </g>
  <g
     inkscape:groupmode="layer"
     id="layer2"
     inkscape:label="Highlight"
     sodipodi:insensitive="true">
    <rect
       style="opacity:0.15;fill:#ffffff;fill-opacity:1;fill-rule:nonzero;stroke:none;display:inline;filter:url(#filter3194)"
       id="rect2410"
       width="16"
       height="16"
       x="3"
       y="3"
       rx="2"
       ry="2"
       clip-path="url(#clipPath2849)" />
  </g>
  <g
     inkscape:groupmode="layer"
     id="layer3"
     inkscape:label="Symbol" />
</svg>
