<?xml version="1.0" encoding="UTF-8" standalone="no"?>
<!-- Created with Inkscape (http://www.inkscape.org/) -->

<svg
   xmlns:dc="http://purl.org/dc/elements/1.1/"
   xmlns:cc="http://creativecommons.org/ns#"
   xmlns:rdf="http://www.w3.org/1999/02/22-rdf-syntax-ns#"
   xmlns:svg="http://www.w3.org/2000/svg"
   xmlns="http://www.w3.org/2000/svg"
   xmlns:xlink="http://www.w3.org/1999/xlink"
   xmlns:sodipodi="http://sodipodi.sourceforge.net/DTD/sodipodi-0.dtd"
   xmlns:inkscape="http://www.inkscape.org/namespaces/inkscape"
   width="24"
   height="24"
   id="svg2"
   sodipodi:version="0.32"
   inkscape:version="0.48.1 r9760"
   version="1.0"
   sodipodi:docname="gnome-documents.svg"
   inkscape:output_extension="org.inkscape.output.svg.inkscape"
   style="display:inline">
  <defs
     id="defs4">
    <linearGradient
       inkscape:collect="always"
       id="linearGradient3327">
      <stop
         style="stop-color:#000000;stop-opacity:1;"
         offset="0"
         id="stop3330" />
      <stop
         style="stop-color:#000000;stop-opacity:0;"
         offset="1"
         id="stop3333" />
    </linearGradient>
    <linearGradient
       inkscape:collect="always"
       xlink:href="#linearGradient3327"
       id="linearGradient3335"
       x1="11.375"
       y1="22"
       x2="11.375"
       y2="-9.817296"
       gradientUnits="userSpaceOnUse" />
    <linearGradient
       inkscape:collect="always"
       xlink:href="#ButtonColor"
       id="linearGradient3181"
       x1="-3.0607977"
       y1="27.258198"
       x2="-3.0607977"
       y2="7.2536583"
       gradientUnits="userSpaceOnUse"
       gradientTransform="translate(12.119372,-7.2581977)" />
    <inkscape:perspective
       sodipodi:type="inkscape:persp3d"
       inkscape:vp_x="0 : 11 : 1"
       inkscape:vp_y="0 : 1000 : 0"
       inkscape:vp_z="22 : 11 : 1"
       inkscape:persp3d-origin="11 : 7.3333333 : 1"
       id="perspective2531" />
    <linearGradient
       id="ButtonShadow"
       gradientTransform="scale(0.9883037,1.0118347)"
       x1="9.3550024"
       y1="21.742682"
       x2="9.3550024"
       y2="0.49362123"
       gradientUnits="userSpaceOnUse">
      <stop
         id="stop3277"
         offset="0"
         style="stop-color:#000000;stop-opacity:0.70588237;" />
      <stop
         id="stop3279"
         offset="1"
         style="stop-color:#000000;stop-opacity:0.15686275;" />
    </linearGradient>
    <linearGradient
       inkscape:collect="always"
       id="linearGradient3232">
      <stop
         style="stop-color:#000000;stop-opacity:1;"
         offset="0"
         id="stop3234" />
      <stop
         style="stop-color:#000000;stop-opacity:0;"
         offset="1"
         id="stop3236" />
    </linearGradient>
    <linearGradient
       gradientUnits="userSpaceOnUse"
       y2="-6.0004225"
       x2="11"
       y1="14.805666"
       x1="11"
       id="linearGradient3221"
       xlink:href="#linearGradient3232"
       inkscape:collect="always" />
    <linearGradient
       id="ButtonColor"
       x1="10.31979"
       y1="21"
       x2="10.31979"
       y2="0.99929649"
       gradientUnits="userSpaceOnUse">
      <stop
         style="stop-color:#e6e6e6;stop-opacity:1;"
         offset="0"
         id="stop3189" />
      <stop
         style="stop-color:#f5f5f5;stop-opacity:1;"
         offset="1"
         id="stop3191" />
    </linearGradient>
    <linearGradient
       inkscape:collect="always"
       xlink:href="#ButtonShadow"
       id="linearGradient38042"
       gradientUnits="userSpaceOnUse"
       gradientTransform="scale(0.9883037,1.0118347)"
       x1="9.3550024"
       y1="21.742682"
       x2="9.3550024"
       y2="0.49362123" />
    <filter
       inkscape:collect="always"
       id="filter3194"
       x="-0.18000001"
       width="1.36"
       y="-0.18000001"
       height="1.36"
       color-interpolation-filters="sRGB">
      <feGaussianBlur
         inkscape:collect="always"
         stdDeviation="1.2"
         id="feGaussianBlur3196" />
    </filter>
    <clipPath
       clipPathUnits="userSpaceOnUse"
       id="clipPath2849">
      <rect
         ry="2"
         rx="2"
         y="1"
         x="1"
         height="20"
         width="20"
         id="rect2851"
         style="fill:#ffffff;fill-opacity:1;fill-rule:evenodd;stroke:none;display:inline" />
    </clipPath>
    <linearGradient
       inkscape:collect="always"
       xlink:href="#linearGradient3831"
       id="linearGradient3845"
       x1="11"
       y1="19.5"
       x2="21"
       y2="19.5"
       gradientUnits="userSpaceOnUse"
       spreadMethod="reflect"
       gradientTransform="translate(1,-1)" />
    <linearGradient
       id="linearGradient3831">
      <stop
         style="stop-color:#ffffff;stop-opacity:1;"
         offset="0"
         id="stop3833" />
      <stop
         id="stop3821"
         offset="0.75"
         style="stop-color:#ffffff;stop-opacity:0.49803922;" />
      <stop
         style="stop-color:#ffffff;stop-opacity:0;"
         offset="1"
         id="stop3835" />
    </linearGradient>
    <linearGradient
       y2="16"
       x2="10"
       y1="1"
       x1="10"
       gradientUnits="userSpaceOnUse"
       id="linearGradient3084"
       xlink:href="#linearGradient3823"
       inkscape:collect="always" />
    <linearGradient
       id="linearGradient3823">
      <stop
         id="stop3825"
         offset="0"
         style="stop-color:#ffffff;stop-opacity:1;" />
      <stop
         id="stop3829"
         offset="1"
         style="stop-color:#ffffff;stop-opacity:0;" />
    </linearGradient>
    <linearGradient
       y2="16"
       x2="10"
       y1="1"
       x1="10"
       gradientUnits="userSpaceOnUse"
       id="linearGradient3078"
       xlink:href="#linearGradient3823"
       inkscape:collect="always"
       gradientTransform="translate(1,-1)" />
    <linearGradient
       id="linearGradient3831-8">
      <stop
         style="stop-color:#ffffff;stop-opacity:1;"
         offset="0"
         id="stop3833-5" />
      <stop
         id="stop3821-7"
         offset="0.75"
         style="stop-color:#ffffff;stop-opacity:0.49803922;" />
      <stop
         style="stop-color:#ffffff;stop-opacity:0;"
         offset="1"
         id="stop3835-4" />
    </linearGradient>
    <linearGradient
       id="linearGradient3823-8">
      <stop
         id="stop3825-5"
         offset="0"
         style="stop-color:#ffffff;stop-opacity:1;" />
      <stop
         id="stop3829-9"
         offset="1"
         style="stop-color:#ffffff;stop-opacity:0;" />
    </linearGradient>
    <linearGradient
       id="ButtonColor-5"
       x1="10.31979"
       y1="21"
       x2="10.31979"
       y2="0.99929649"
       gradientUnits="userSpaceOnUse">
      <stop
         style="stop-color:#e6e6e6;stop-opacity:1;"
         offset="0"
         id="stop3189-3" />
      <stop
         style="stop-color:#f5f5f5;stop-opacity:1;"
         offset="1"
         id="stop3191-8" />
    </linearGradient>
    <linearGradient
       inkscape:collect="always"
       id="linearGradient3327-3">
      <stop
         style="stop-color:#000000;stop-opacity:1;"
         offset="0"
         id="stop3330-1" />
      <stop
         style="stop-color:#000000;stop-opacity:0;"
         offset="1"
         id="stop3333-8" />
    </linearGradient>
    <linearGradient
       inkscape:collect="always"
       xlink:href="#linearGradient3831-8"
       id="linearGradient3156"
       gradientUnits="userSpaceOnUse"
       gradientTransform="matrix(0.74872072,-0.09857096,0.09857096,0.74872072,1.1019767,0.79418143)"
       spreadMethod="reflect"
       x1="11"
       y1="19.5"
       x2="21"
       y2="19.5" />
    <linearGradient
       inkscape:collect="always"
       xlink:href="#linearGradient3823-8"
       id="linearGradient3159"
       gradientUnits="userSpaceOnUse"
       gradientTransform="matrix(0.74872072,-0.09857096,0.09857096,0.74872072,1.1019767,0.79418143)"
       x1="10"
       y1="1"
       x2="10"
       y2="16" />
    <linearGradient
       inkscape:collect="always"
       xlink:href="#ButtonColor-5"
       id="linearGradient3162"
       gradientUnits="userSpaceOnUse"
       gradientTransform="matrix(0.7551814,0,0,0.7551814,9.3860306,-3.7948507)"
       x1="-3.0607977"
       y1="27.258198"
       x2="-3.0607977"
       y2="7.2536583" />
    <linearGradient
       inkscape:collect="always"
       xlink:href="#linearGradient6719-4-5"
       id="linearGradient3971-4"
       gradientUnits="userSpaceOnUse"
       gradientTransform="matrix(0.45018023,-0.14313629,0.14313629,0.45018023,15.092122,-5.4477896)"
       x1="-17.863041"
       y1="30.827509"
       x2="-20.821646"
       y2="25.015009" />
    <linearGradient
       id="linearGradient6719-4-5">
      <stop
         id="stop6721-4-9"
         style="stop-color:#8cab2a;stop-opacity:1"
         offset="0" />
      <stop
         id="stop6723-4-1"
         style="stop-color:#d7e866;stop-opacity:1"
         offset="1" />
    </linearGradient>
    <linearGradient
       inkscape:collect="always"
       xlink:href="#linearGradient6711-3-8"
       id="linearGradient3973-2"
       gradientUnits="userSpaceOnUse"
       gradientTransform="matrix(0.45018023,-0.14313629,0.14313629,0.45018023,15.092122,-5.4477896)"
       x1="-16.387411"
       y1="24.453547"
       x2="-9.7352734"
       y2="28.195539" />
    <linearGradient
       id="linearGradient6711-3-8">
      <stop
         id="stop6713-9-9"
         style="stop-color:#8badea;stop-opacity:1"
         offset="0" />
      <stop
         id="stop6715-2-6"
         style="stop-color:#3b7caf;stop-opacity:1"
         offset="1" />
    </linearGradient>
    <linearGradient
       inkscape:collect="always"
       xlink:href="#linearGradient6699-3-6"
       id="linearGradient3975-0"
       gradientUnits="userSpaceOnUse"
       gradientTransform="matrix(0.45018023,-0.14313629,0.14313629,0.45018023,15.092122,-5.4477896)"
       x1="-28.945789"
       y1="13.898682"
       x2="-16.918968"
       y2="29.361736" />
    <linearGradient
       id="linearGradient6699-3-6">
      <stop
         id="stop6701-7-4"
         style="stop-color:#f7a164;stop-opacity:1;"
         offset="0" />
      <stop
         id="stop6295-0"
         style="stop-color:#e11c26;stop-opacity:1;"
         offset="1" />
    </linearGradient>
    <linearGradient
       inkscape:collect="always"
       xlink:href="#linearGradient3327-3"
       id="linearGradient3992"
       gradientUnits="userSpaceOnUse"
       gradientTransform="matrix(0.80782979,0,0,0.80782979,0.89422468,1.4502806)"
       x1="11.375"
       y1="22"
       x2="11.375"
       y2="-9.817296" />
    <linearGradient
       inkscape:collect="always"
       xlink:href="#linearGradient3327-3"
       id="linearGradient4045"
       gradientUnits="userSpaceOnUse"
       gradientTransform="matrix(0.80782979,0,0,0.80782979,0.89422468,1.4502806)"
       x1="11.375"
       y1="22"
       x2="11.375"
       y2="-9.817296" />
    <linearGradient
       inkscape:collect="always"
       xlink:href="#ButtonColor-5"
       id="linearGradient4047"
       gradientUnits="userSpaceOnUse"
       gradientTransform="matrix(0.77734914,0,0,0.77734914,-29.574647,-6.1770699)"
       x1="-3.0607977"
       y1="27.258198"
       x2="-3.0607977"
       y2="7.2536583" />
    <linearGradient
       inkscape:collect="always"
       xlink:href="#linearGradient3823-8"
       id="linearGradient4049"
       gradientUnits="userSpaceOnUse"
       gradientTransform="matrix(0.77651121,-0.03608353,0.03608353,0.77651121,-38.237998,0.46319167)"
       x1="10"
       y1="1"
       x2="10"
       y2="16" />
    <linearGradient
       inkscape:collect="always"
       xlink:href="#linearGradient3831-8"
       id="linearGradient4051"
       gradientUnits="userSpaceOnUse"
       gradientTransform="matrix(0.77651121,-0.03608353,0.03608353,0.77651121,-38.237998,0.46319167)"
       spreadMethod="reflect"
       x1="11"
       y1="19.5"
       x2="21"
       y2="19.5" />
    <linearGradient
       inkscape:collect="always"
       xlink:href="#linearGradient6739"
       id="linearGradient6745"
       x1="22"
       y1="22"
       x2="22"
       y2="2"
       gradientUnits="userSpaceOnUse" />
    <linearGradient
       id="linearGradient6739">
      <stop
         style="stop-color:#ebebeb;stop-opacity:1;"
         offset="0"
         id="stop6741" />
      <stop
         style="stop-color:#fafafa;stop-opacity:1;"
         offset="1"
         id="stop6743" />
    </linearGradient>
    <linearGradient
       gradientTransform="matrix(0.48706238,0,0,0.48706238,-11.28006,7.5250674)"
       y2="2"
       x2="22"
       y1="22"
       x1="22"
       gradientUnits="userSpaceOnUse"
       id="linearGradient6814-2"
       xlink:href="#linearGradient6739-4"
       inkscape:collect="always" />
    <linearGradient
       id="linearGradient6739-4">
      <stop
         style="stop-color:#ebebeb;stop-opacity:1;"
         offset="0"
         id="stop6741-4" />
      <stop
         style="stop-color:#fafafa;stop-opacity:1;"
         offset="1"
         id="stop6743-5" />
    </linearGradient>
    <linearGradient
       y2="2"
       x2="22"
       y1="22"
       x1="22"
       gradientTransform="matrix(0.48706238,0,0,0.48706238,-4.28006,0.05631853)"
       gradientUnits="userSpaceOnUse"
       id="linearGradient4085"
       xlink:href="#linearGradient6739-4"
       inkscape:collect="always" />
    <linearGradient
       inkscape:collect="always"
       xlink:href="#linearGradient6739-4"
       id="linearGradient4126"
       gradientUnits="userSpaceOnUse"
       gradientTransform="matrix(0.48706238,0,0,0.48706238,-3.28006,0.05631853)"
       x1="22"
       y1="22"
       x2="22"
       y2="2" />
  </defs>
  <sodipodi:namedview
     id="base"
     pagecolor="#ffffff"
     bordercolor="#e7e7e7"
     borderopacity="1"
     inkscape:pageopacity="0.0"
     inkscape:pageshadow="2"
     inkscape:zoom="21.418891"
     inkscape:cx="-3.7269453"
     inkscape:cy="13.418075"
     inkscape:document-units="px"
     inkscape:current-layer="layer3"
     showgrid="true"
     inkscape:showpageshadow="false"
     showguides="false"
     inkscape:guide-bbox="true"
     inkscape:window-width="1920"
     inkscape:window-height="1030"
     inkscape:window-x="0"
     inkscape:window-y="25"
     inkscape:window-maximized="1"
     inkscape:snap-global="false">
    <sodipodi:guide
       orientation="1,0"
       position="0,112"
       id="guide2383" />
    <sodipodi:guide
       orientation="0,1"
       position="26.278146,128"
       id="guide2385" />
    <sodipodi:guide
       orientation="1,0"
       position="128,54.082119"
       id="guide2387" />
    <sodipodi:guide
       orientation="0,1"
       position="78.156291,0"
       id="guide2389" />
    <sodipodi:guide
       orientation="0,1"
       position="60.863576,64.084768"
       id="guide2391" />
    <inkscape:grid
       type="xygrid"
       id="grid3672"
       visible="true"
       enabled="true"
       empspacing="8"
       snapvisiblegridlinesonly="true" />
  </sodipodi:namedview>
  <metadata
     id="metadata7">
    <rdf:RDF>
      <cc:Work
         rdf:about="">
        <dc:format>image/svg+xml</dc:format>
        <dc:type
           rdf:resource="http://purl.org/dc/dcmitype/StillImage" />
        <dc:title></dc:title>
      </cc:Work>
    </rdf:RDF>
  </metadata>
  <g
     inkscape:label="Button"
     inkscape:groupmode="layer"
     id="layer1"
     transform="translate(0,2)"
     sodipodi:insensitive="true">
    <g
       style="display:inline"
       id="g3337"
       transform="translate(1,-1)">
      <rect
         ry="2.5"
         rx="2.5"
         y="0.5"
         x="0.5"
         height="21.5"
         width="21"
         id="rect3371"
         style="opacity:0.3;fill:url(#linearGradient3335);fill-opacity:1;stroke:none;display:inline" />
      <rect
         style="opacity:0.5;fill:#000000;fill-opacity:1;stroke:none;display:inline"
         id="rect2553"
         width="20"
         height="20"
         x="1"
         y="2"
         rx="2.3809524"
         ry="2.3255813" />
    </g>
    <rect
       style="fill:url(#linearGradient3181);fill-opacity:1;fill-rule:evenodd;stroke:none;display:inline"
       id="rect3173"
       width="20"
       height="20"
       x="2"
       y="0"
       rx="2"
       ry="2" />
    <path
       style="opacity:0.6;fill:url(#linearGradient3078);fill-opacity:1;fill-rule:evenodd;stroke:none;display:inline"
       d="M 4,0 C 2.892,0 2,0.892 2,2 l 0,16 c 0,1.108 0.892,2 2,2 l 16,0 c 1.108,0 2,-0.892 2,-2 L 22,2 C 22,0.892 21.108,0 20,0 L 4,0 z m 0,1.03125 16,0 c 0.5497,0 0.96875,0.4190495 0.96875,0.96875 l 0,16 c 0,0.5497 -0.41905,0.96875 -0.96875,0.96875 l -16,0 C 3.4502995,18.96875 3.03125,18.5497 3.03125,18 l 0,-16 C 3.03125,1.4502995 3.4502995,1.03125 4,1.03125 z"
       id="rect3050"
       inkscape:connector-curvature="0" />
    <path
       id="path3235"
       d="M 4,20 C 2.892,20 2,19.108 2,18 l 0,-1 c 0,1.108 0.892,2 2,2 l 16,0 c 1.108,0 2,-0.892 2,-2 l 0,1 c 0,1.108 -0.892,2 -2,2 L 4,20 z"
       style="opacity:0.35;fill:url(#linearGradient3845);fill-opacity:1;fill-rule:evenodd;stroke:none;display:inline"
       inkscape:connector-curvature="0" />
  </g>
  <g
     inkscape:groupmode="layer"
     id="layer3"
     inkscape:label="File"
     transform="translate(0,2)">
    <g
       id="g4038"
       transform="translate(42,1)">
      <path
         sodipodi:type="inkscape:offset"
         inkscape:radius="0.32704628"
         inkscape:original="M 3.3125 1.84375 C 2.1936558 1.84375 1.3125 2.7561558 1.3125 3.875 L 1.3125 17.1875 C 1.3125 18.306344 2.1936558 19.21875 3.3125 19.21875 L 16.25 19.21875 C 17.368844 19.21875 18.25 18.306344 18.25 17.1875 L 18.25 3.875 C 18.25 2.7561558 17.368844 1.84375 16.25 1.84375 L 3.3125 1.84375 z "
         style="opacity:0.2;fill:url(#linearGradient4045);fill-opacity:1;stroke:none;display:inline"
         id="path3994"
         d="M 3.3125,1.53125 C 2.0158539,1.53125 1,2.5844436 1,3.875 l 0,13.3125 c 0,1.290556 1.0158539,2.34375 2.3125,2.34375 l 12.9375,0 c 1.296646,0 2.3125,-1.053194 2.3125,-2.34375 l 0,-13.3125 c 0,-1.2905564 -1.015854,-2.34375 -2.3125,-2.34375 l -12.9375,0 z"
         transform="matrix(0.96123123,-0.04466724,0.04466724,0.96123123,-39.162335,-0.89092081)" />
      <rect
         ry="1.8077887"
         rx="1.8508313"
         y="0.24243355"
         x="-37.440929"
         height="15.546983"
         width="15.546983"
         id="rect3996"
         style="opacity:0.3;fill:#000000;fill-opacity:1;stroke:none;display:inline"
         transform="matrix(0.99892207,-0.04641868,0.04641868,0.99892207,0,0)" />
      <rect
         style="fill:url(#linearGradient4047);fill-opacity:1;fill-rule:evenodd;stroke:none;display:inline"
         id="rect3998"
         width="15.546983"
         height="15.546983"
         x="-37.440929"
         y="-0.53491592"
         rx="1.5546983"
         ry="1.5546983"
         transform="matrix(0.99892207,-0.04641868,0.04641868,0.99892207,0,0)" />
      <path
         style="opacity:0.6;fill:url(#linearGradient4049);fill-opacity:1;fill-rule:evenodd;stroke:none;display:inline"
         d="m -35.87238,1.1314523 c -0.860374,0.039981 -1.520836,0.7648151 -1.480856,1.6251895 l 0.577337,12.4241802 c 0.03998,0.860374 0.764814,1.520835 1.625189,1.480854 l 12.424179,-0.577335 c 0.860375,-0.03998 1.520836,-0.764815 1.480856,-1.62519 L -21.823012,2.0349713 c -0.03998,-0.8603745 -0.764815,-1.52083593 -1.625189,-1.48085537 L -35.87238,1.1314523 z m 0.03721,0.8007771 12.424179,-0.5773363 c 0.426848,-0.019835 0.767366,0.2904407 0.787201,0.7172893 l 0.577337,12.4241806 c 0.01983,0.426847 -0.290442,0.767366 -0.71729,0.787201 l -12.424179,0.577335 c -0.426849,0.01984 -0.767366,-0.29044 -0.787201,-0.717288 L -36.552459,2.7194305 c -0.01984,-0.426849 0.290442,-0.7673659 0.71729,-0.7872011 z"
         id="path4000"
         inkscape:connector-curvature="0" />
      <path
         id="path4002"
         d="m -35.15071,16.661676 c -0.860375,0.03998 -1.585208,-0.62048 -1.625189,-1.480854 l -0.03608,-0.776512 c 0.03998,0.860374 0.764815,1.520836 1.62519,1.480855 l 12.424179,-0.577337 c 0.860374,-0.03998 1.520835,-0.764814 1.480855,-1.625189 l 0.03608,0.776512 c 0.03998,0.860375 -0.620481,1.585209 -1.480856,1.62519 l -12.424179,0.577335 z"
         style="opacity:0.35;fill:url(#linearGradient4051);fill-opacity:1;fill-rule:evenodd;stroke:none;display:inline"
         inkscape:connector-curvature="0" />
    </g>
    <path
       sodipodi:type="inkscape:offset"
       inkscape:radius="0.32704628"
       inkscape:original="M 3.3125 1.84375 C 2.1936558 1.84375 1.3125 2.7561558 1.3125 3.875 L 1.3125 17.1875 C 1.3125 18.306344 2.1936558 19.21875 3.3125 19.21875 L 16.25 19.21875 C 17.368844 19.21875 18.25 18.306344 18.25 17.1875 L 18.25 3.875 C 18.25 2.7561558 17.368844 1.84375 16.25 1.84375 L 3.3125 1.84375 z "
       style="opacity:0.2;fill:url(#linearGradient3992);fill-opacity:1;stroke:none;display:inline"
       id="path3990"
       d="M 3.3125,1.53125 C 2.0158539,1.53125 1,2.5844436 1,3.875 l 0,13.3125 c 0,1.290556 1.0158539,2.34375 2.3125,2.34375 l 12.9375,0 c 1.296646,0 2.3125,-1.053194 2.3125,-2.34375 l 0,-13.3125 c 0,-1.2905564 -1.015854,-2.34375 -2.3125,-2.34375 l -12.9375,0 z"
       transform="matrix(0.9268298,-0.12201947,0.12201947,0.9268298,0.09622014,-0.44086908)" />
    <rect
       ry="1.7562358"
       rx="1.7980509"
       y="2.441587"
       x="1.7440692"
       height="15.103628"
       width="15.103628"
       id="rect2553-4"
       style="opacity:0.3;fill:#000000;fill-opacity:1;stroke:none;display:inline"
       transform="matrix(0.99144486,-0.1305262,0.1305262,0.99144486,0,0)" />
    <rect
       style="fill:url(#linearGradient3162);fill-opacity:1;fill-rule:evenodd;stroke:none;display:inline"
       id="rect3173-3"
       width="15.103628"
       height="15.103628"
       x="1.7440692"
       y="1.6864054"
       rx="1.5103629"
       ry="1.5103629"
       transform="matrix(0.99144486,-0.1305262,0.1305262,0.99144486,0,0)" />
    <path
       style="opacity:0.6;fill:url(#linearGradient3159);fill-opacity:1;fill-rule:evenodd;stroke:none;display:inline"
       d="M 3.4467098,1.2471893 C 2.6171272,1.3564059 2.0371936,2.11219 2.1464103,2.9417726 L 3.7235455,14.921304 c 0.1092167,0.829583 0.8650008,1.409516 1.6945834,1.300299 L 17.39766,14.644469 c 0.829583,-0.109217 1.409516,-0.865001 1.3003,-1.694584 L 17.120824,0.97035345 c -0.109217,-0.82958254 -0.865,-1.40951613 -1.694583,-1.30029951 L 3.4467098,1.2471893 z M 3.548361,2.0193074 15.527892,0.44217218 c 0.411572,-0.0541845 0.76663,0.21826044 0.820814,0.62983262 l 1.577136,11.9795322 c 0.05418,0.411571 -0.218262,0.766629 -0.629833,0.820813 L 5.3164776,15.449485 C 4.9049055,15.503669 4.5498483,15.231225 4.4956638,14.819653 L 2.9185285,2.8401212 C 2.864344,2.4285491 3.1367889,2.0734919 3.548361,2.0193074 z"
       id="rect3050-3"
       inkscape:connector-curvature="0" />
    <path
       id="path3235-3"
       d="M 5.4181289,16.221603 C 4.5885463,16.33082 3.8327622,15.750887 3.7235455,14.921304 l -0.098571,-0.748721 c 0.1092165,0.829583 0.8650008,1.409516 1.6945833,1.300299 L 17.299089,13.895747 c 0.829583,-0.109216 1.409516,-0.865 1.300299,-1.694583 l 0.09857,0.748721 c 0.109216,0.829583 -0.470717,1.585367 -1.3003,1.694584 L 5.4181289,16.221603 z"
       style="opacity:0.35;fill:url(#linearGradient3156);fill-opacity:1;fill-rule:evenodd;stroke:none;display:inline"
       inkscape:connector-curvature="0" />
    <path
       sodipodi:type="inkscape:offset"
       inkscape:radius="0.48678875"
       inkscape:original="M 14 7.46875 C 12.065048 7.46875 10.286946 7.9547662 8.9375 8.78125 C 7.5880537 9.6077338 6.6307206 10.813596 6.46875 12.21875 C 6.4558416 12.330735 6.4375 12.482124 6.4375 12.65625 L 6.4375 13.84375 C 6.4375 15.159169 7.1549741 16.343129 8.25 17.21875 C 9.3382456 18.08895 10.831698 18.675704 12.5 18.90625 C 12.510394 18.907686 12.520841 18.904842 12.53125 18.90625 C 13.676814 19.112085 15.285654 19.109223 16.5 18.71875 C 16.509745 18.716408 16.521515 18.721107 16.53125 18.71875 C 16.834343 18.645368 17.139813 18.572929 17.4375 18.46875 C 17.667854 18.389087 17.888989 18.290582 18.125 18.1875 C 18.131164 18.184748 18.204935 18.158646 18.28125 18.125 C 18.289995 18.120966 18.303812 18.129068 18.3125 18.125 C 18.654117 17.96505 18.972123 17.773329 19.25 17.59375 C 19.426739 17.476937 19.619114 17.346285 19.8125 17.1875 C 19.94918 17.075237 20.071463 16.958106 20.1875 16.84375 C 20.264171 16.768738 20.362913 16.682655 20.46875 16.5625 C 20.54725 16.472606 20.593506 16.406551 20.59375 16.40625 C 20.751092 16.214807 20.859576 16.025343 20.96875 15.84375 C 21.025467 15.746029 21.118631 15.61618 21.1875 15.46875 C 21.191867 15.459401 21.183185 15.447068 21.1875 15.4375 C 21.237122 15.320258 21.255912 15.235268 21.25 15.25 A 0.55112532 0.55112532 0 0 0 21.25 15.21875 C 21.277316 15.148522 21.336876 15.06168 21.375 14.9375 C 21.455005 14.679057 21.542584 14.388648 21.5625 14.0625 A 0.55112532 0.55112532 0 0 0 21.5625 14.03125 L 21.5625 13.84375 L 21.5625 12.8125 L 21.5625 12.78125 C 21.563341 12.731756 21.5625 12.678784 21.5625 12.65625 C 21.5625 12.48145 21.52621 12.275709 21.5 12.09375 C 21.301145 10.712914 20.345709 9.5559811 19 8.75 C 17.654291 7.9440189 15.911082 7.46875 14 7.46875 z "
       style="opacity:0.05;fill:#000000;fill-opacity:1;fill-rule:nonzero;stroke:none;display:inline"
       id="path4058"
       d="m 14,6.96875 c -2.016466,0 -3.873123,0.5246872 -5.3125,1.40625 C 7.2456579,9.2580727 6.1833291,10.565804 6,12.15625 c -0.012617,0.109453 -0.0625,0.29169 -0.0625,0.5 l 0,1.1875 c 0,1.492426 0.8188165,2.805484 2,3.75 1.1745452,0.939208 2.759777,1.540765 4.5,1.78125 0.0092,0.0017 0.02198,-0.0016 0.03125,0 1.212766,0.213594 2.838413,0.228824 4.15625,-0.1875 0.0166,-0.0025 0.01119,0.0049 0.03125,0 0.3016,-0.07302 0.60822,-0.134765 0.9375,-0.25 0.256553,-0.08872 0.484771,-0.210306 0.71875,-0.3125 0.0093,-0.0035 0.01465,0.0064 0.03125,0 0.02655,-0.01023 0.05653,-0.04665 0.09375,-0.0625 0.0093,-0.004 0.02153,0.0043 0.03125,0 a 0.48683743,0.48683743 0 0 0 0.03125,0 c 0.0183,-0.0068 0.01081,0.0096 0.03125,0 C 18.903087,18.388401 19.212581,18.185746 19.5,18 a 0.48683743,0.48683743 0 0 0 0.03125,0 c 0.180475,-0.119282 0.379213,-0.261348 0.59375,-0.4375 0.15497,-0.127285 0.286797,-0.257277 0.40625,-0.375 0.0604,-0.0591 0.183625,-0.166191 0.3125,-0.3125 0.09389,-0.107523 0.124756,-0.155949 0.125,-0.15625 0.187684,-0.228361 0.300743,-0.449507 0.40625,-0.625 0.03452,-0.05948 0.156271,-0.205601 0.25,-0.40625 0.0161,-0.03446 -0.008,-0.03291 0,-0.0625 0.03267,-0.07719 0.07853,-0.1365 0.09375,-0.1875 0.0038,-0.01275 -0.0031,-0.01985 0,-0.03125 0.0031,-0.0114 -0.003,-0.01767 0,-0.03125 0.0016,-5.65e-4 0.01799,-0.06874 0.03125,-0.09375 0.02807,-0.05296 0.05577,-0.0638 0.09375,-0.1875 0.08079,-0.260984 0.194614,-0.604741 0.21875,-1 a 0.48683743,0.48683743 0 0 0 0,-0.03125 c 3.4e-5,-0.0012 3.4e-5,-0.03003 0,-0.03125 l 0,-0.1875 0,-1.03125 0,-0.03125 c 0.001,-0.0609 0,-0.114578 0,-0.125 0,-0.242174 -0.0692,-0.454549 -0.09375,-0.625 C 21.744006,10.470645 20.684739,9.2030536 19.25,8.34375 17.817684,7.4858974 15.991789,6.96875 14,6.96875 z"
       transform="matrix(0.77346234,-0.24592489,0.24592489,0.77346234,-3.6125423,2.2789403)" />
    <path
       sodipodi:type="inkscape:offset"
       inkscape:radius="0.55107021"
       inkscape:original="M 14 8.03125 C 10.315664 8.03125 7.3066264 9.8922598 7.03125 12.28125 C 7.0176885 12.398901 7 12.5363 7 12.65625 L 7 13.84375 C 7 16.079567 9.4040352 17.943628 12.59375 18.375 C 13.637636 18.567083 15.300429 18.539971 16.375 18.1875 C 16.678347 18.11461 16.967878 18.036232 17.25 17.9375 C 17.475517 17.85951 17.691458 17.781314 17.90625 17.6875 C 17.95922 17.66385 18.010573 17.64958 18.0625 17.625 C 18.375801 17.48049 18.658412 17.305361 18.9375 17.125 C 19.116037 17.006998 19.310255 16.880137 19.46875 16.75 C 19.587639 16.65235 19.704787 16.543653 19.8125 16.4375 C 19.89984 16.35205 19.983769 16.276882 20.0625 16.1875 C 20.09798 16.14687 20.12244 16.10426 20.15625 16.0625 C 20.28804 15.902147 20.397136 15.733598 20.5 15.5625 C 20.56429 15.451731 20.634534 15.336205 20.6875 15.21875 C 20.71649 15.15713 20.72484 15.093943 20.75 15.03125 C 20.7823 14.94821 20.81727 14.867503 20.84375 14.78125 C 20.91842 14.540042 20.984533 14.284544 21 14.03125 L 21 13.84375 L 21 12.78125 C 21.0017 12.73886 21 12.69902 21 12.65625 C 21 12.506468 20.9898 12.333634 20.96875 12.1875 C 20.630722 9.8402568 17.639562 8.03125 14 8.03125 z "
       style="opacity:0.15;fill:#000000;fill-opacity:1;fill-rule:nonzero;stroke:none;display:inline"
       id="path4054"
       d="m 14,7.46875 c -1.934952,0 -3.713054,0.4860162 -5.0625,1.3125 -1.3494463,0.8264838 -2.3067794,2.032346 -2.46875,3.4375 -0.012908,0.111985 -0.03125,0.263374 -0.03125,0.4375 l 0,1.1875 c 0,1.315419 0.7174741,2.499379 1.8125,3.375 1.0882456,0.8702 2.581698,1.456954 4.25,1.6875 0.01039,0.0014 0.02084,-0.0014 0.03125,0 1.145564,0.205835 2.754404,0.202973 3.96875,-0.1875 0.0097,-0.0023 0.02152,0.0024 0.03125,0 0.303093,-0.07338 0.608563,-0.145821 0.90625,-0.25 0.230354,-0.07966 0.451489,-0.178168 0.6875,-0.28125 0.0062,-0.0028 0.07993,-0.02885 0.15625,-0.0625 0.0087,-0.004 0.02256,0.0041 0.03125,0 0.341617,-0.15995 0.659623,-0.351671 0.9375,-0.53125 0.176739,-0.116813 0.369114,-0.247465 0.5625,-0.40625 0.13668,-0.112263 0.258963,-0.229394 0.375,-0.34375 0.07667,-0.07501 0.175413,-0.161095 0.28125,-0.28125 0.0785,-0.08989 0.124756,-0.155949 0.125,-0.15625 0.157342,-0.191443 0.265826,-0.380907 0.375,-0.5625 0.05672,-0.09772 0.149881,-0.22757 0.21875,-0.375 0.0044,-0.0093 -0.0043,-0.02168 0,-0.03125 0.04962,-0.117242 0.06841,-0.202232 0.0625,-0.1875 a 0.55112532,0.55112532 0 0 0 0,-0.03125 c 0.02732,-0.07023 0.08688,-0.15707 0.125,-0.28125 0.08,-0.258443 0.167584,-0.548852 0.1875,-0.875 a 0.55112532,0.55112532 0 0 0 0,-0.03125 l 0,-0.1875 0,-1.03125 0,-0.03125 c 8.41e-4,-0.04949 0,-0.102466 0,-0.125 0,-0.1748 -0.03629,-0.380541 -0.0625,-0.5625 C 21.301145,10.712914 20.345709,9.5559811 19,8.75 17.654291,7.9440189 15.911082,7.46875 14,7.46875 z"
       transform="matrix(0.77346234,-0.24592489,0.24592489,0.77346234,-3.6125423,2.2789403)" />
    <path
       style="opacity:0.3;fill:#000000;fill-opacity:1;fill-rule:nonzero;stroke:none;display:inline"
       d="M 9.1926145,5.052895 C 6.3429203,5.9589647 4.4732116,8.1383828 4.8477306,10.0539 c 0.018441,0.09434 0.038552,0.204955 0.068049,0.297733 l 0.2920359,0.918485 c 0.5498434,1.729321 2.8676928,2.57989 5.4409035,2.129111 0.854644,-0.108145 2.134084,-0.538043 2.878542,-1.07493 0.216705,-0.130972 0.421369,-0.262802 0.6153,-0.408549 0.155249,-0.115782 0.30304,-0.229369 0.446103,-0.354753 0.03515,-0.03131 0.07137,-0.05498 0.105485,-0.08676 0.206788,-0.188821 0.382309,-0.393779 0.553816,-0.601915 0.109074,-0.135178 0.228096,-0.281063 0.318682,-0.420696 0.06794,-0.104767 0.131819,-0.217649 0.189025,-0.326244 0.04653,-0.08757 0.09297,-0.1663519 0.131884,-0.2548481 0.01746,-0.040142 0.02589,-0.079127 0.04176,-0.1197363 0.0625,-0.1564379 0.105431,-0.3136325 0.142915,-0.4712688 0.02247,-0.1014811 0.04841,-0.208116 0.06048,-0.3119884 0.0073,-0.054791 -0.0017,-0.1057152 0.0022,-0.1603924 0.0046,-0.072173 0.01176,-0.1431968 0.01103,-0.2164199 -0.0015,-0.2049269 -0.01326,-0.4188056 -0.06358,-0.6185225 L 16.036285,7.8271818 15.774992,7.0053784 c -0.0091,-0.033187 -0.02022,-0.063604 -0.03074,-0.096684 C 15.707414,6.7928448 15.65706,6.6616584 15.604801,6.5538202 14.766102,4.8214464 12.007673,4.1578477 9.1926077,5.052907 z"
       id="path3956"
       inkscape:connector-curvature="0" />
    <path
       id="path3933"
       d="M 15.430054,6.5661642 C 14.324705,5.2389344 11.863435,4.7854799 9.3607535,5.5812152 6.8580732,6.3769511 5.1106343,8.1685791 4.9747604,9.8904589 L 4.7880277,9.9498262 5.084315,10.881684 c 0.628392,1.976365 3.5620917,2.807519 6.552126,1.856827 2.990324,-0.950783 4.904736,-3.3234094 4.276343,-5.2997744 l -0.296287,-0.9318578 -0.186443,0.059283 0,0 z"
       style="fill:#b82525;fill-opacity:1;fill-rule:nonzero;stroke:none;display:inline"
       inkscape:r_cx="true"
       inkscape:r_cy="true"
       inkscape:connector-curvature="0" />
    <path
       id="path3935"
       d="M 15.616497,6.5068846 C 16.244986,8.4835534 14.330575,10.85618 11.340251,11.806962 8.3499268,12.757746 5.4165162,11.9265 4.7880279,9.9498321 4.1595394,7.9731632 6.0745291,5.6003526 9.0645631,4.6496612 12.054887,3.698878 14.988009,4.5302152 15.616497,6.5068846 l 0,0 z"
       style="fill:url(#linearGradient3975-0);fill-opacity:1;fill-rule:nonzero;stroke:none;display:inline"
       inkscape:r_cx="true"
       inkscape:r_cy="true"
       inkscape:connector-curvature="0" />
    <path
       id="path3937"
       d="M 15.957097,7.5781106 15.640072,6.6050375 c 0.05714,2.2128254 -0.99007,3.4909465 -2.516236,4.4389115 l 0.285474,0.897848 c 1.652854,-1.023013 2.933521,-2.562922 2.547792,-4.3636878 l 0,0 z"
       style="fill:#39619a;fill-opacity:1;fill-rule:nonzero;stroke:none;display:inline"
       inkscape:r_cx="true"
       inkscape:r_cy="true"
       inkscape:connector-curvature="0" />
    <path
       id="path3939"
       d="m 15.616497,6.5068846 c 0.603052,2.3261096 -1.893585,4.2680184 -2.512823,4.5087024 l -2.901557,-2.7871825 5.414093,-1.7214288 2.91e-4,-9.26e-5 z"
       style="fill:url(#linearGradient3973-2);fill-opacity:1;fill-rule:nonzero;stroke:none;display:inline"
       inkscape:r_cx="true"
       inkscape:r_cy="true"
       inkscape:connector-curvature="0" />
    <path
       id="path3941"
       d="m 10.47813,13.020547 -0.296191,-0.931553 c 1.061125,-0.191282 2.003378,-0.465135 2.932838,-1.038489 l 0.294625,0.891599 c -0.757837,0.546536 -2.077292,0.980437 -2.931176,1.078749 l -9.4e-5,-2.93e-4 z"
       style="fill:#70851f;fill-opacity:1;fill-rule:nonzero;stroke:none;display:inline"
       inkscape:r_cx="true"
       inkscape:r_cy="true"
       inkscape:connector-curvature="0" />
    <path
       id="path3943"
       d="m 10.202213,8.2287072 2.901461,2.7868798 c -0.984849,0.783541 -2.921735,1.073407 -2.921735,1.073407 l 0.02027,-3.8602868 z"
       style="fill:url(#linearGradient3971-4);fill-opacity:1;fill-rule:nonzero;stroke:none;display:inline"
       inkscape:r_cx="true"
       inkscape:r_cy="true"
       inkscape:connector-curvature="0" />
    <path
       style="opacity:0.3;fill:#ffffff;fill-opacity:1;fill-rule:nonzero;stroke:none;display:inline"
       d="m 15.480243,6.1620435 c 0.133663,0.6596893 0.0056,1.3337398 -0.34867,2.0004702 -0.0193,0.037528 -0.05331,0.066407 -0.07364,0.1032501 -0.122679,0.215651 -0.267815,0.4376202 -0.434077,0.6436872 -0.626183,0.8063256 -1.403399,1.355817 -1.713019,1.476157 -0.461666,0.367298 -1.136973,0.614906 -1.719465,0.786237 -0.01647,0.0053 -0.03181,0.01009 -0.04835,0.01537 -0.02309,0.0067 -0.04974,0.01667 -0.07251,0.02306 -0.282157,0.087 -0.558241,0.157125 -0.837172,0.212957 -0.08453,0.01696 -0.17306,0.01442 -0.257077,0.02853 C 7.5846643,11.853913 5.4337111,11.166881 4.7231532,9.6621593 4.7420452,9.7628535 4.7597452,9.86095 4.7912042,9.9598926 5.3371716,11.677023 7.625038,12.509161 10.17608,12.0802 c 0.08401,-0.01412 0.172542,-0.01157 0.257074,-0.02853 0.278933,-0.05583 0.555008,-0.125985 0.837173,-0.212959 0.02275,-0.0064 0.04941,-0.0164 0.0725,-0.02306 0.01653,-0.0052 0.03187,-0.01002 0.04835,-0.01537 0.58249,-0.171332 1.2578,-0.418932 1.719466,-0.786235 0.309619,-0.120342 1.086834,-0.669832 1.713016,-1.4761587 0.166263,-0.2060641 0.3114,-0.4280347 0.434079,-0.6436863 0.02032,-0.036843 0.05433,-0.065721 0.07364,-0.10325 C 15.733523,8.0342 15.855364,7.2581703 15.61968,6.5169194 15.580403,6.3933784 15.5369,6.2764922 15.480231,6.1620446 z"
       id="path3940"
       inkscape:connector-curvature="0" />
  </g>
  <g
     inkscape:groupmode="layer"
     id="layer2"
     inkscape:label="Trombone"
     sodipodi:insensitive="true">
    <path
       sodipodi:nodetypes="ccccccccccccccccccccc"
       inkscape:connector-curvature="0"
       id="path4107"
       d="M 5.487062,1.5000014 C 5.222078,1.5003074 5.000298,1.7279854 5,2.0022844 l 0,0.502283 c 1.1314053,0 1.8626563,0 2.9940617,0 l -0.01522,6.290715 -0.4566213,0.487062 -0.487062,-0.502283 0,-3.718417 c 0.0026,-0.179126 -0.07894,-0.336036 -0.228311,-0.426179 -0.149372,-0.09014 -0.337511,-0.07522 -0.487062,0.01522 -0.149551,0.09046 -0.245828,0.247032 -0.243531,0.426179 l 0,3.916286 c -0.0031,0.132896 0.03255,0.269876 0.121765,0.365297 l 0.958905,0.9893456 c 0.09028,0.09665 0.220061,0.15235 0.350076,0.152207 0.1300123,-1.37e-4 0.2595743,-0.05539 0.3500753,-0.152207 L 8.8007596,9.3736684 c 0.08938,-0.09564 0.1398291,-0.232406 0.136986,-0.365297 l 0,-7.006088 C 8.9379847,1.7280064 8.7156687,1.4997445 8.4506837,1.5000014 z"
       style="opacity:0.3;fill:#000000;fill-opacity:1;stroke:none;display:inline" />
    <path
       style="opacity:0.4;fill:#000000;fill-opacity:1;stroke:none;display:inline"
       d="m 5.5,1 c -0.5567277,6.429e-4 -0.9993831,0.4321602 -1,1 l 0,0.03125 1.5,0 L 6,3 7.5,3 7.5,4.84375 C 7.4496069,4.5893552 7.3471562,4.3404265 7.09375,4.1875 6.7246385,3.964756 6.3112194,4.0494403 6.03125,4.21875 5.7745429,4.3740263 5.5576353,4.6830941 5.5625,5.0625 l 0,3.9375 c -0.0056,0.240244 0.070244,0.4952396 0.25,0.6875 l 0.96875,1 C 6.9591515,10.877954 7.2118314,11.000317 7.5,11 7.7758185,10.999709 8.0105016,10.866671 8.1875,10.6875 l 0.03125,0 L 9.1875,9.75 a 0.51515157,0.51515157 0 0 0 0,-0.03125 C 9.4056761,9.4852933 9.4426412,9.2403061 9.4375,9 l 0,-7 c 4.961e-4,-0.5690659 -0.4418674,-1.0005411 -1,-1 L 5.5,1 z"
       id="path4113"
       inkscape:connector-curvature="0" />
    <path
       style="fill:url(#linearGradient4126);fill-opacity:1;stroke:none;display:inline"
       d="M 5.487062,1.0000017 C 5.222078,1.0003077 5.000298,1.2279857 5,1.5022847 l 0,0.502283 c 1.1314053,0 1.8626563,0 2.9940617,0 l -0.01522,6.290715 -0.4566213,0.487062 -0.487062,-0.502283 0,-3.718417 c 0.0026,-0.179126 -0.07894,-0.336036 -0.228311,-0.426179 -0.149372,-0.09014 -0.337511,-0.07522 -0.487062,0.01522 -0.149551,0.09046 -0.245828,0.247032 -0.243531,0.426179 l 0,3.916286 c -0.0031,0.132896 0.03255,0.269876 0.121765,0.365297 L 7.1569244,9.847793 C 7.2472044,9.944443 7.3769854,10.000143 7.5070004,10 7.6370127,9.999863 7.7665747,9.94461 7.8570757,9.847793 L 8.8007596,8.8736687 c 0.08938,-0.09564 0.1398291,-0.232406 0.136986,-0.365297 l 0,-7.006088 C 8.9379847,1.2280067 8.7156687,0.99974473 8.4506837,1.0000017 z"
       id="Symbol"
       inkscape:connector-curvature="0"
       sodipodi:nodetypes="ccccccccccccccccccccc" />
  </g>
</svg>
