<?xml version="1.0" encoding="UTF-8" standalone="no"?>
<!-- Created with Inkscape (http://www.inkscape.org/) -->

<svg
   xmlns:dc="http://purl.org/dc/elements/1.1/"
   xmlns:cc="http://creativecommons.org/ns#"
   xmlns:rdf="http://www.w3.org/1999/02/22-rdf-syntax-ns#"
   xmlns:svg="http://www.w3.org/2000/svg"
   xmlns="http://www.w3.org/2000/svg"
   xmlns:xlink="http://www.w3.org/1999/xlink"
   xmlns:sodipodi="http://sodipodi.sourceforge.net/DTD/sodipodi-0.dtd"
   xmlns:inkscape="http://www.inkscape.org/namespaces/inkscape"
   width="22"
   height="22"
   id="svg2"
   sodipodi:version="0.32"
   inkscape:version="0.48.0 r9654"
   version="1.0"
   sodipodi:docname="gnome-do.svg"
   inkscape:output_extension="org.inkscape.output.svg.inkscape"
   style="display:inline">
  <defs
     id="defs4">
    <linearGradient
       inkscape:collect="always"
       id="linearGradient3327">
      <stop
         style="stop-color:#000000;stop-opacity:1;"
         offset="0"
         id="stop3330" />
      <stop
         style="stop-color:#000000;stop-opacity:0;"
         offset="1"
         id="stop3333" />
    </linearGradient>
    <linearGradient
       inkscape:collect="always"
       xlink:href="#linearGradient3327"
       id="linearGradient3335"
       x1="11.375"
       y1="22"
       x2="11.375"
       y2="-9.817296"
       gradientUnits="userSpaceOnUse" />
    <linearGradient
       inkscape:collect="always"
       xlink:href="#ButtonColor-3"
       id="linearGradient3181"
       x1="-3.0607977"
       y1="27.258198"
       x2="-3.0607977"
       y2="7.2536583"
       gradientUnits="userSpaceOnUse"
       gradientTransform="translate(11.119372,-6.258198)" />
    <inkscape:perspective
       sodipodi:type="inkscape:persp3d"
       inkscape:vp_x="0 : 11 : 1"
       inkscape:vp_y="0 : 1000 : 0"
       inkscape:vp_z="22 : 11 : 1"
       inkscape:persp3d-origin="11 : 7.3333333 : 1"
       id="perspective2531" />
    <linearGradient
       id="ButtonShadow"
       gradientTransform="scale(0.9883037,1.0118347)"
       x1="9.3550024"
       y1="21.742682"
       x2="9.3550024"
       y2="0.49362123"
       gradientUnits="userSpaceOnUse">
      <stop
         id="stop3277"
         offset="0"
         style="stop-color:#000000;stop-opacity:0.70588237;" />
      <stop
         id="stop3279"
         offset="1"
         style="stop-color:#000000;stop-opacity:0.15686275;" />
    </linearGradient>
    <linearGradient
       inkscape:collect="always"
       id="linearGradient3232">
      <stop
         style="stop-color:#000000;stop-opacity:1;"
         offset="0"
         id="stop3234" />
      <stop
         style="stop-color:#000000;stop-opacity:0;"
         offset="1"
         id="stop3236" />
    </linearGradient>
    <linearGradient
       gradientUnits="userSpaceOnUse"
       y2="-6.0004225"
       x2="11"
       y1="14.805666"
       x1="11"
       id="linearGradient3221"
       xlink:href="#linearGradient3232"
       inkscape:collect="always" />
    <linearGradient
       id="ButtonColor"
       x1="10.31979"
       y1="21"
       x2="10.31979"
       y2="0.99929649"
       gradientUnits="userSpaceOnUse">
      <stop
         style="stop-color:#29669f;stop-opacity:1;"
         offset="0"
         id="stop3189" />
      <stop
         style="stop-color:#88b6e0;stop-opacity:1;"
         offset="1"
         id="stop3191" />
    </linearGradient>
    <linearGradient
       inkscape:collect="always"
       xlink:href="#ButtonShadow"
       id="linearGradient38042"
       gradientUnits="userSpaceOnUse"
       gradientTransform="scale(0.9883037,1.0118347)"
       x1="9.3550024"
       y1="21.742682"
       x2="9.3550024"
       y2="0.49362123" />
    <filter
       inkscape:collect="always"
       id="filter3194"
       x="-0.18000001"
       width="1.36"
       y="-0.18000001"
       height="1.36"
       color-interpolation-filters="sRGB">
      <feGaussianBlur
         inkscape:collect="always"
         stdDeviation="1.2"
         id="feGaussianBlur3196" />
    </filter>
    <clipPath
       clipPathUnits="userSpaceOnUse"
       id="clipPath2849">
      <rect
         ry="2"
         rx="2"
         y="1"
         x="1"
         height="20"
         width="20"
         id="rect2851"
         style="fill:#ffffff;fill-opacity:1;fill-rule:evenodd;stroke:none;display:inline" />
    </clipPath>
    <inkscape:perspective
       id="perspective3767"
       inkscape:persp3d-origin="0.5 : 0.33333333 : 1"
       inkscape:vp_z="1 : 0.5 : 1"
       inkscape:vp_y="0 : 1000 : 0"
       inkscape:vp_x="0 : 0.5 : 1"
       sodipodi:type="inkscape:persp3d" />
    <linearGradient
       inkscape:collect="always"
       xlink:href="#linearGradient3224"
       id="linearGradient3757"
       gradientUnits="userSpaceOnUse"
       x1="48"
       y1="90"
       x2="48"
       y2="5.9877172"
       gradientTransform="translate(0,-96)" />
    <linearGradient
       id="linearGradient3224">
      <stop
         style="stop-color:#80a2c8;stop-opacity:1;"
         offset="0"
         id="stop3226" />
      <stop
         style="stop-color:#2e4c6d;stop-opacity:1;"
         offset="1"
         id="stop3228" />
    </linearGradient>
    <linearGradient
       inkscape:collect="always"
       xlink:href="#linearGradient3224"
       id="linearGradient3640"
       gradientUnits="userSpaceOnUse"
       gradientTransform="translate(1.119372,-28.258198)"
       x1="-3.0607977"
       y1="27.258198"
       x2="-3.0607977"
       y2="7.2536583" />
    <inkscape:perspective
       id="perspective3786"
       inkscape:persp3d-origin="0.5 : 0.33333333 : 1"
       inkscape:vp_z="1 : 0.5 : 1"
       inkscape:vp_y="0 : 1000 : 0"
       inkscape:vp_x="0 : 0.5 : 1"
       sodipodi:type="inkscape:persp3d" />
    <clipPath
       clipPathUnits="userSpaceOnUse"
       id="clipPath3728">
      <rect
         style="fill:url(#linearGradient3732);fill-opacity:1;fill-rule:evenodd;stroke:none;display:inline"
         id="rect3730"
         width="84"
         height="84"
         x="5.9999981"
         y="-90"
         rx="8.3999996"
         ry="8.3999996"
         transform="scale(1,-1)" />
    </clipPath>
    <linearGradient
       inkscape:collect="always"
       xlink:href="#linearGradient3224"
       id="linearGradient3732"
       gradientUnits="userSpaceOnUse"
       gradientTransform="matrix(4.2,0,0,4.2,48.50136,-120.48443)"
       x1="-3.0607977"
       y1="27.258198"
       x2="-3.0607977"
       y2="7.2536583" />
    <inkscape:perspective
       id="perspective3817"
       inkscape:persp3d-origin="0.5 : 0.33333333 : 1"
       inkscape:vp_z="1 : 0.5 : 1"
       inkscape:vp_y="0 : 1000 : 0"
       inkscape:vp_x="0 : 0.5 : 1"
       sodipodi:type="inkscape:persp3d" />
    <linearGradient
       inkscape:collect="always"
       id="linearGradient3865">
      <stop
         style="stop-color:#ffe99d;stop-opacity:1;"
         offset="0"
         id="stop3867" />
      <stop
         style="stop-color:#ffe99d;stop-opacity:0;"
         offset="1"
         id="stop3869" />
    </linearGradient>
    <linearGradient
       inkscape:collect="always"
       id="linearGradient3751">
      <stop
         style="stop-color:#f89400;stop-opacity:1;"
         offset="0"
         id="stop3753" />
      <stop
         style="stop-color:#f89400;stop-opacity:0;"
         offset="1"
         id="stop3755" />
    </linearGradient>
    <linearGradient
       inkscape:collect="always"
       id="linearGradient3777">
      <stop
         style="stop-color:#ff6600;stop-opacity:1;"
         offset="0"
         id="stop3779" />
      <stop
         style="stop-color:#ff6600;stop-opacity:0;"
         offset="1"
         id="stop3781" />
    </linearGradient>
    <linearGradient
       inkscape:collect="always"
       id="linearGradient3741">
      <stop
         style="stop-color:#ffffff;stop-opacity:1;"
         offset="0"
         id="stop3743" />
      <stop
         style="stop-color:#ffffff;stop-opacity:0;"
         offset="1"
         id="stop3745" />
    </linearGradient>
    <linearGradient
       id="linearGradient3724">
      <stop
         style="stop-color:#ffa92a;stop-opacity:1;"
         offset="0"
         id="stop3726" />
      <stop
         style="stop-color:#ffcf2a;stop-opacity:1;"
         offset="1"
         id="stop3728" />
    </linearGradient>
    <linearGradient
       gradientUnits="userSpaceOnUse"
       id="linearGradient3309"
       y2="122.8994"
       x2="63.9995"
       y1="3.1001"
       x1="63.9995">
      <stop
         offset="0"
         style="stop-color:#f6f6f6;stop-opacity:1"
         id="stop3311" />
      <stop
         offset="1"
         style="stop-color:#d2d2d2;stop-opacity:1"
         id="stop3313" />
    </linearGradient>
    <linearGradient
       inkscape:collect="always"
       id="linearGradient3932">
      <stop
         style="stop-color:#000000;stop-opacity:1;"
         offset="0"
         id="stop3934" />
      <stop
         style="stop-color:#000000;stop-opacity:0;"
         offset="1"
         id="stop3936" />
    </linearGradient>
    <linearGradient
       id="linearGradient5128">
      <stop
         offset="0"
         style="stop-color:#e5e5e5;stop-opacity:1"
         id="stop5130" />
      <stop
         offset="1"
         style="stop-color:#ababab;stop-opacity:1"
         id="stop5132" />
    </linearGradient>
    <linearGradient
       id="linearGradient3854">
      <stop
         offset="0"
         style="stop-color:#e5e5e5;stop-opacity:1"
         id="stop3856" />
      <stop
         offset="1"
         style="stop-color:#ababab;stop-opacity:1"
         id="stop3858" />
    </linearGradient>
    <linearGradient
       inkscape:collect="always"
       xlink:href="#linearGradient5128"
       id="linearGradient3888"
       gradientUnits="userSpaceOnUse"
       gradientTransform="translate(-24.041632,-41.012193)"
       x1="5.2744913"
       y1="62.878765"
       x2="-6.5244856"
       y2="66.807335" />
    <linearGradient
       inkscape:collect="always"
       xlink:href="#linearGradient5128"
       id="linearGradient3890"
       gradientUnits="userSpaceOnUse"
       gradientTransform="matrix(0.44988627,0,0,0.44988627,24.041624,-53.520676)"
       x1="5.2744913"
       y1="62.878765"
       x2="-6.5244856"
       y2="66.807335" />
    <linearGradient
       inkscape:collect="always"
       xlink:href="#linearGradient3932"
       id="linearGradient3892"
       gradientUnits="userSpaceOnUse"
       gradientTransform="matrix(-1,0,0,-1,45.080609,79.12006)"
       x1="45.312279"
       y1="48.267761"
       x2="42.662289"
       y2="45.617771" />
    <linearGradient
       inkscape:collect="always"
       xlink:href="#linearGradient3309"
       id="linearGradient3894"
       gradientUnits="userSpaceOnUse"
       gradientTransform="translate(-46,-12)"
       x1="32.237946"
       y1="21.650217"
       x2="36.821369"
       y2="47.535378" />
    <linearGradient
       inkscape:collect="always"
       xlink:href="#linearGradient3724"
       id="linearGradient3896"
       gradientUnits="userSpaceOnUse"
       gradientTransform="translate(-46,-12)"
       x1="64.669502"
       y1="71.888321"
       x2="59.574085"
       y2="52.871964" />
    <linearGradient
       inkscape:collect="always"
       xlink:href="#linearGradient3741"
       id="linearGradient3898"
       gradientUnits="userSpaceOnUse"
       gradientTransform="translate(-46,-12)"
       x1="52.51516"
       y1="44.039856"
       x2="54.767216"
       y2="64.307716" />
    <radialGradient
       inkscape:collect="always"
       xlink:href="#linearGradient3777"
       id="radialGradient3900"
       gradientUnits="userSpaceOnUse"
       gradientTransform="matrix(-0.01155242,1.9830883,-2.0305783,-0.02269268,158.07483,-40.252061)"
       cx="48.089584"
       cy="53.8909"
       fx="48.089584"
       fy="53.8909"
       r="5.4927044" />
    <radialGradient
       inkscape:collect="always"
       xlink:href="#linearGradient3751"
       id="radialGradient3902"
       gradientUnits="userSpaceOnUse"
       gradientTransform="matrix(2.3125312,2.3348434,1.2717514,-1.2595982,-171.14605,-7.4673935)"
       cx="47.644325"
       cy="54.10635"
       fx="47.644325"
       fy="54.10635"
       r="4.8616066" />
    <linearGradient
       inkscape:collect="always"
       xlink:href="#linearGradient3865"
       id="linearGradient3904"
       gradientUnits="userSpaceOnUse"
       gradientTransform="matrix(0.5,0.8660254,-0.8660254,0.5,45.523702,-36.523702)"
       x1="60.755741"
       y1="66.836105"
       x2="69.693596"
       y2="69.230995" />
    <linearGradient
       inkscape:collect="always"
       xlink:href="#linearGradient5128"
       id="linearGradient3939"
       gradientUnits="userSpaceOnUse"
       gradientTransform="translate(-24.041632,-41.012193)"
       x1="5.2744913"
       y1="62.878765"
       x2="-6.5244856"
       y2="66.807335" />
    <linearGradient
       inkscape:collect="always"
       xlink:href="#linearGradient5128"
       id="linearGradient3941"
       gradientUnits="userSpaceOnUse"
       gradientTransform="matrix(0.44988627,0,0,0.44988627,24.041624,-53.520676)"
       x1="5.2744913"
       y1="62.878765"
       x2="-6.5244856"
       y2="66.807335" />
    <linearGradient
       inkscape:collect="always"
       xlink:href="#linearGradient3932"
       id="linearGradient3943"
       gradientUnits="userSpaceOnUse"
       gradientTransform="matrix(-1,0,0,-1,45.080609,79.12006)"
       x1="45.312279"
       y1="48.267761"
       x2="42.662289"
       y2="45.617771" />
    <linearGradient
       inkscape:collect="always"
       xlink:href="#linearGradient3309"
       id="linearGradient3945"
       gradientUnits="userSpaceOnUse"
       gradientTransform="translate(-46,-12)"
       x1="32.237946"
       y1="21.650217"
       x2="36.821369"
       y2="47.535378" />
    <linearGradient
       inkscape:collect="always"
       xlink:href="#linearGradient3724"
       id="linearGradient3947"
       gradientUnits="userSpaceOnUse"
       gradientTransform="translate(-46,-12)"
       x1="64.669502"
       y1="71.888321"
       x2="59.574085"
       y2="52.871964" />
    <linearGradient
       inkscape:collect="always"
       xlink:href="#linearGradient3741"
       id="linearGradient3949"
       gradientUnits="userSpaceOnUse"
       gradientTransform="translate(-46,-12)"
       x1="52.51516"
       y1="44.039856"
       x2="54.767216"
       y2="64.307716" />
    <radialGradient
       inkscape:collect="always"
       xlink:href="#linearGradient3777"
       id="radialGradient3951"
       gradientUnits="userSpaceOnUse"
       gradientTransform="matrix(-0.01155242,1.9830883,-2.0305783,-0.02269268,158.07483,-40.252061)"
       cx="48.089584"
       cy="53.8909"
       fx="48.089584"
       fy="53.8909"
       r="5.4927044" />
    <radialGradient
       inkscape:collect="always"
       xlink:href="#linearGradient3751"
       id="radialGradient3953"
       gradientUnits="userSpaceOnUse"
       gradientTransform="matrix(2.3125312,2.3348434,1.2717514,-1.2595982,-171.14605,-7.4673935)"
       cx="47.644325"
       cy="54.10635"
       fx="47.644325"
       fy="54.10635"
       r="4.8616066" />
    <linearGradient
       inkscape:collect="always"
       xlink:href="#linearGradient3865"
       id="linearGradient3955"
       gradientUnits="userSpaceOnUse"
       gradientTransform="matrix(0.5,0.8660254,-0.8660254,0.5,45.523702,-36.523702)"
       x1="60.755741"
       y1="66.836105"
       x2="69.693596"
       y2="69.230995" />
    <linearGradient
       inkscape:collect="always"
       xlink:href="#linearGradient3865"
       id="linearGradient3960"
       gradientUnits="userSpaceOnUse"
       gradientTransform="matrix(0.14812231,0.25655536,-0.25655536,0.14812231,3.8922673,-10.486151)"
       x1="60.755741"
       y1="66.836105"
       x2="69.693596"
       y2="69.230995" />
    <radialGradient
       inkscape:collect="always"
       xlink:href="#linearGradient3751"
       id="radialGradient3963"
       gradientUnits="userSpaceOnUse"
       gradientTransform="matrix(0.6850749,0.69168477,0.3767495,-0.37314918,-60.294979,-1.8783764)"
       cx="47.644325"
       cy="54.10635"
       fx="47.644325"
       fy="54.10635"
       r="4.8616066" />
    <linearGradient
       inkscape:collect="always"
       xlink:href="#linearGradient3741"
       id="linearGradient3967"
       gradientUnits="userSpaceOnUse"
       gradientTransform="matrix(0.29624461,0,0,0.29624461,-23.221136,-3.2211367)"
       x1="52.51516"
       y1="44.039856"
       x2="54.767216"
       y2="64.307716" />
    <linearGradient
       inkscape:collect="always"
       xlink:href="#linearGradient3724"
       id="linearGradient3973"
       gradientUnits="userSpaceOnUse"
       gradientTransform="matrix(0.29624461,0,0,0.29624461,-23.221136,-3.2211367)"
       x1="64.669502"
       y1="71.888321"
       x2="59.574085"
       y2="52.871964" />
    <linearGradient
       inkscape:collect="always"
       xlink:href="#linearGradient3309"
       id="linearGradient3976"
       gradientUnits="userSpaceOnUse"
       gradientTransform="matrix(0.29624461,0,0,0.29624461,-23.221136,-3.2211367)"
       x1="32.237946"
       y1="21.650217"
       x2="36.821369"
       y2="47.535378" />
    <linearGradient
       inkscape:collect="always"
       xlink:href="#linearGradient3932"
       id="linearGradient3980"
       gradientUnits="userSpaceOnUse"
       gradientTransform="matrix(-0.29624461,0,0,-0.29624461,3.7610034,23.77269)"
       x1="45.312279"
       y1="48.267761"
       x2="42.662289"
       y2="45.617771" />
    <linearGradient
       inkscape:collect="always"
       xlink:href="#linearGradient5128"
       id="linearGradient3983"
       gradientUnits="userSpaceOnUse"
       gradientTransform="matrix(0.13327638,0,0,0.13327638,14.142133,-9.3073424)"
       x1="5.2744913"
       y1="62.878765"
       x2="-6.5244856"
       y2="66.807335" />
    <linearGradient
       inkscape:collect="always"
       xlink:href="#linearGradient5128"
       id="linearGradient3986"
       gradientUnits="userSpaceOnUse"
       gradientTransform="matrix(0.20947657,-0.20947657,0.20947657,0.20947657,-23.221136,-1.2211358)"
       x1="5.2744913"
       y1="62.878765"
       x2="-6.5244856"
       y2="66.807335" />
    <inkscape:perspective
       id="perspective3718"
       inkscape:persp3d-origin="0.5 : 0.33333333 : 1"
       inkscape:vp_z="1 : 0.5 : 1"
       inkscape:vp_y="0 : 1000 : 0"
       inkscape:vp_x="0 : 0.5 : 1"
       sodipodi:type="inkscape:persp3d" />
    <linearGradient
       inkscape:collect="always"
       xlink:href="#ButtonColor-3"
       id="linearGradient3708"
       gradientUnits="userSpaceOnUse"
       x1="48"
       y1="90"
       x2="48"
       y2="5.9877172" />
    <linearGradient
       gradientTransform="matrix(1.0172414,0,0,1.0172414,-1.1034483,-1.1034483)"
       gradientUnits="userSpaceOnUse"
       y2="5.4252338"
       x2="58.650177"
       y1="122"
       x1="58.650177"
       id="ButtonColor-3">
      <stop
         id="stop3189-8"
         offset="0"
         style="stop-color:#623b6b;stop-opacity:1;" />
      <stop
         id="stop3191-5"
         offset="1"
         style="stop-color:#ad7fa8;stop-opacity:1;" />
    </linearGradient>
    <linearGradient
       gradientTransform="translate(-82,-51)"
       y2="5.9877172"
       x2="48"
       y1="90"
       x1="48"
       gradientUnits="userSpaceOnUse"
       id="linearGradient3727"
       xlink:href="#ButtonColor-3"
       inkscape:collect="always" />
    <linearGradient
       gradientTransform="translate(-17.058189,0)"
       gradientUnits="userSpaceOnUse"
       xlink:href="#linearGradient3309-4"
       id="linearGradient3262"
       y2="16.000105"
       x2="25"
       y1="0"
       x1="25" />
    <linearGradient
       gradientUnits="userSpaceOnUse"
       id="linearGradient3309-4"
       y2="122.8994"
       x2="63.9995"
       y1="3.1001"
       x1="63.9995">
      <stop
         offset="0"
         style="stop-color:#f6f6f6;stop-opacity:1"
         id="stop3311-4" />
      <stop
         offset="1"
         style="stop-color:#ccc;stop-opacity:1"
         id="stop3313-9" />
    </linearGradient>
    <linearGradient
       gradientTransform="translate(-17.058189,0)"
       gradientUnits="userSpaceOnUse"
       xlink:href="#linearGradient3397"
       id="linearGradient3264"
       y2="16.004715"
       x2="21"
       y1="0"
       x1="21" />
    <linearGradient
       id="linearGradient3397">
      <stop
         offset="0"
         style="stop-color:#aaa;stop-opacity:1"
         id="stop3399" />
      <stop
         offset="1"
         style="stop-color:#8c8c8c;stop-opacity:1"
         id="stop3401" />
    </linearGradient>
    <linearGradient
       gradientTransform="matrix(0.09614231,0,0,0.09614231,1.8468935,1.9430362)"
       gradientUnits="userSpaceOnUse"
       xlink:href="#linearGradient5128-6"
       id="linearGradient3260"
       y2="20.895"
       x2="84.63858"
       y1="105.105"
       x1="86.132919" />
    <linearGradient
       id="linearGradient5128-6">
      <stop
         offset="0"
         style="stop-color:#e5e5e5;stop-opacity:1"
         id="stop5130-2" />
      <stop
         offset="1"
         style="stop-color:#ababab;stop-opacity:1"
         id="stop5132-5" />
    </linearGradient>
    <inkscape:perspective
       id="perspective3763"
       inkscape:persp3d-origin="8 : 5.3333333 : 1"
       inkscape:vp_z="16 : 8 : 1"
       inkscape:vp_y="0 : 1000 : 0"
       inkscape:vp_x="0 : 8 : 1"
       sodipodi:type="inkscape:persp3d" />
    <linearGradient
       inkscape:collect="always"
       xlink:href="#linearGradient3309-4"
       id="linearGradient3793"
       gradientUnits="userSpaceOnUse"
       gradientTransform="translate(-17.058189,0)"
       x1="25"
       y1="0"
       x2="25"
       y2="16.000105" />
    <linearGradient
       inkscape:collect="always"
       xlink:href="#linearGradient3397"
       id="linearGradient3795"
       gradientUnits="userSpaceOnUse"
       gradientTransform="translate(-17.058189,0)"
       x1="21"
       y1="0"
       x2="21"
       y2="16.004715" />
    <linearGradient
       inkscape:collect="always"
       xlink:href="#linearGradient5128-6"
       id="linearGradient3797"
       gradientUnits="userSpaceOnUse"
       gradientTransform="matrix(0.09614231,0,0,0.09614231,1.8468935,1.9430362)"
       x1="86.132919"
       y1="105.105"
       x2="84.63858"
       y2="20.895" />
    <linearGradient
       inkscape:collect="always"
       xlink:href="#linearGradient3309-4"
       id="linearGradient3803"
       gradientUnits="userSpaceOnUse"
       gradientTransform="translate(-17.058189,0)"
       x1="25"
       y1="0"
       x2="25"
       y2="16.000105" />
    <linearGradient
       inkscape:collect="always"
       xlink:href="#linearGradient3397"
       id="linearGradient3805"
       gradientUnits="userSpaceOnUse"
       gradientTransform="translate(-17.058189,0)"
       x1="21"
       y1="0"
       x2="21"
       y2="16.004715" />
    <linearGradient
       inkscape:collect="always"
       xlink:href="#linearGradient5128-6"
       id="linearGradient3807"
       gradientUnits="userSpaceOnUse"
       gradientTransform="matrix(0.09614231,0,0,0.09614231,1.8468935,1.9430362)"
       x1="86.132919"
       y1="105.105"
       x2="84.63858"
       y2="20.895" />
    <linearGradient
       inkscape:collect="always"
       xlink:href="#linearGradient5128-6"
       id="linearGradient3810"
       gradientUnits="userSpaceOnUse"
       gradientTransform="matrix(0.09614231,0,0,0.09614231,4.8468935,14.943036)"
       x1="86.132919"
       y1="105.105"
       x2="84.63858"
       y2="20.895" />
    <linearGradient
       inkscape:collect="always"
       xlink:href="#linearGradient3309-4"
       id="linearGradient3841"
       gradientUnits="userSpaceOnUse"
       gradientTransform="translate(-17.058189,0)"
       x1="25"
       y1="0"
       x2="25"
       y2="16.000105" />
    <linearGradient
       inkscape:collect="always"
       xlink:href="#linearGradient3397"
       id="linearGradient3843"
       gradientUnits="userSpaceOnUse"
       gradientTransform="translate(-17.058189,0)"
       x1="21"
       y1="0"
       x2="21"
       y2="16.004715" />
    <linearGradient
       inkscape:collect="always"
       xlink:href="#linearGradient5128-6"
       id="linearGradient3845"
       gradientUnits="userSpaceOnUse"
       gradientTransform="matrix(0.09614231,0,0,0.09614231,1.8468935,1.9430362)"
       x1="86.132919"
       y1="105.105"
       x2="84.63858"
       y2="20.895" />
    <linearGradient
       inkscape:collect="always"
       xlink:href="#linearGradient3309-4"
       id="linearGradient3851"
       gradientUnits="userSpaceOnUse"
       gradientTransform="translate(-17.058189,0)"
       x1="25"
       y1="0"
       x2="25"
       y2="16.000105" />
    <linearGradient
       inkscape:collect="always"
       xlink:href="#linearGradient3397"
       id="linearGradient3853"
       gradientUnits="userSpaceOnUse"
       gradientTransform="translate(-17.058189,0)"
       x1="21"
       y1="0"
       x2="21"
       y2="16.004715" />
    <linearGradient
       inkscape:collect="always"
       xlink:href="#linearGradient5128-6"
       id="linearGradient3855"
       gradientUnits="userSpaceOnUse"
       gradientTransform="matrix(0.09614231,0,0,0.09614231,1.8468935,1.9430362)"
       x1="86.132919"
       y1="105.105"
       x2="84.63858"
       y2="20.895" />
    <linearGradient
       inkscape:collect="always"
       xlink:href="#linearGradient5128-6"
       id="linearGradient3858"
       gradientUnits="userSpaceOnUse"
       gradientTransform="matrix(0.08408762,0,0,0.08408761,5.6207645,5.7001128)"
       x1="86.132919"
       y1="105.105"
       x2="84.63858"
       y2="20.895" />
    <linearGradient
       inkscape:collect="always"
       xlink:href="#linearGradient3309-4"
       id="linearGradient3862"
       gradientUnits="userSpaceOnUse"
       gradientTransform="translate(-14.058189,3)"
       x1="25"
       y1="0"
       x2="25"
       y2="16.000105" />
    <linearGradient
       inkscape:collect="always"
       xlink:href="#linearGradient3309-4"
       id="linearGradient3868"
       gradientUnits="userSpaceOnUse"
       gradientTransform="matrix(0.93333337,0,0,0.93333346,-12.387645,3.5333336)"
       x1="25"
       y1="0"
       x2="25"
       y2="16.000105" />
    <filter
       inkscape:collect="always"
       id="filter3883"
       color-interpolation-filters="sRGB">
      <feGaussianBlur
         inkscape:collect="always"
         stdDeviation="0.55999999"
         id="feGaussianBlur3885" />
    </filter>
    <linearGradient
       y2="16"
       x2="10"
       y1="1"
       x1="10"
       gradientUnits="userSpaceOnUse"
       id="linearGradient3078"
       xlink:href="#linearGradient3823"
       inkscape:collect="always"
       gradientTransform="translate(1,-1)" />
    <linearGradient
       id="linearGradient3823">
      <stop
         id="stop3825"
         offset="0"
         style="stop-color:#ffffff;stop-opacity:1;" />
      <stop
         id="stop3829"
         offset="1"
         style="stop-color:#ffffff;stop-opacity:0;" />
    </linearGradient>
    <linearGradient
       inkscape:collect="always"
       xlink:href="#linearGradient3831"
       id="linearGradient3845-2"
       x1="11"
       y1="19.5"
       x2="21"
       y2="19.5"
       gradientUnits="userSpaceOnUse"
       spreadMethod="reflect" />
    <linearGradient
       id="linearGradient3831">
      <stop
         style="stop-color:#ffffff;stop-opacity:1;"
         offset="0"
         id="stop3833" />
      <stop
         id="stop3821"
         offset="0.75"
         style="stop-color:#ffffff;stop-opacity:0.49803922;" />
      <stop
         style="stop-color:#ffffff;stop-opacity:0;"
         offset="1"
         id="stop3835" />
    </linearGradient>
    <linearGradient
       y2="16"
       x2="10"
       y1="1"
       x1="10"
       gradientUnits="userSpaceOnUse"
       id="linearGradient3961"
       xlink:href="#linearGradient3823"
       inkscape:collect="always" />
  </defs>
  <sodipodi:namedview
     id="base"
     pagecolor="#ffffff"
     bordercolor="#e7e7e7"
     borderopacity="1"
     inkscape:pageopacity="0.0"
     inkscape:pageshadow="2"
     inkscape:zoom="17.313327"
     inkscape:cx="1.7365563"
     inkscape:cy="8.2121931"
     inkscape:document-units="px"
     inkscape:current-layer="layer1"
     showgrid="true"
     inkscape:showpageshadow="false"
     showguides="false"
     inkscape:guide-bbox="true"
     inkscape:window-width="1920"
     inkscape:window-height="1026"
     inkscape:window-x="0"
     inkscape:window-y="25"
     inkscape:window-maximized="1"
     inkscape:snap-global="false">
    <sodipodi:guide
       orientation="1,0"
       position="0,112"
       id="guide2383" />
    <sodipodi:guide
       orientation="0,1"
       position="26.278146,128"
       id="guide2385" />
    <sodipodi:guide
       orientation="1,0"
       position="128,54.082119"
       id="guide2387" />
    <sodipodi:guide
       orientation="0,1"
       position="78.156291,0"
       id="guide2389" />
    <sodipodi:guide
       orientation="0,1"
       position="60.863576,64.084768"
       id="guide2391" />
    <inkscape:grid
       type="xygrid"
       id="grid3672"
       visible="true"
       enabled="true"
       empspacing="8"
       snapvisiblegridlinesonly="true" />
  </sodipodi:namedview>
  <metadata
     id="metadata7">
    <rdf:RDF>
      <cc:Work
         rdf:about="">
        <dc:format>image/svg+xml</dc:format>
        <dc:type
           rdf:resource="http://purl.org/dc/dcmitype/StillImage" />
      </cc:Work>
    </rdf:RDF>
  </metadata>
  <g
     inkscape:label="Button"
     inkscape:groupmode="layer"
     id="layer1">
    <g
       style="display:inline"
       id="g3337">
      <rect
         ry="2.5"
         rx="2.5"
         y="0.5"
         x="0.5"
         height="21.5"
         width="21"
         id="rect3371"
         style="opacity:0.3;fill:url(#linearGradient3335);fill-opacity:1;stroke:none;display:inline" />
      <rect
         style="opacity:0.5;fill:#000000;fill-opacity:1;stroke:none;display:inline"
         id="rect2553"
         width="20"
         height="20"
         x="1"
         y="2"
         rx="2.3809524"
         ry="2.3255813" />
    </g>
    <rect
       style="fill:url(#linearGradient3181);fill-opacity:1;fill-rule:evenodd;stroke:none;display:inline"
       id="rect3173"
       width="20"
       height="20"
       x="1"
       y="1"
       rx="2"
       ry="2" />
    <g
       transform="matrix(0.23809524,0,0,0.23809524,-0.428571,-0.4285716)"
       style="opacity:0.9;fill:#eed7f4;display:inline"
       id="g3855"
       clip-path="url(#clipPath3728)">
      <path
         inkscape:transform-center-y="-28"
         inkscape:transform-center-x="-20"
         id="path3819"
         d="M 48,48 72,-8 88,-8 48,48 z"
         style="opacity:0.15;fill:#eed7f4;stroke:none" />
      <path
         style="opacity:0.15;fill:#eed7f4;stroke:none"
         d="M 48,48 103.25122,73.67688 102.769,89.669611 48,48 z"
         id="path3821"
         inkscape:transform-center-x="-27.62561"
         inkscape:transform-center-y="20.834806" />
      <path
         inkscape:transform-center-y="4.8909875"
         inkscape:transform-center-x="34.398376"
         id="path3823"
         d="M 48,47.999999 -11.82794,59.515947 -20.796753,46.266027 48,47.999999 z"
         style="opacity:0.15;fill:#eed7f4;stroke:none" />
      <path
         style="opacity:0.15;fill:#eed7f4;stroke:none"
         d="M 48,48 -1.3111997,12.217252 2.2248524,-3.3871168 48,48 z"
         id="path3825"
         inkscape:transform-center-x="24.655599"
         inkscape:transform-center-y="-25.693558" />
      <path
         sodipodi:nodetypes="cccc"
         style="opacity:0.15;fill:#eed7f4;stroke:none"
         d="M 48,48 65.519239,-14.073153 95.955194,-1.3588835 48,48 z"
         id="path3827"
         inkscape:transform-center-x="-23.977597"
         inkscape:transform-center-y="-31.036577" />
      <path
         inkscape:transform-center-y="-2.7707725"
         inkscape:transform-center-x="-33.74475"
         id="path3829"
         d="M 48,48 109.6356,28.998609 115.4895,61.459846 48,48 z"
         style="opacity:0.15;fill:#eed7f4;stroke:none"
         sodipodi:nodetypes="cccc" />
      <path
         sodipodi:nodetypes="cccc"
         style="opacity:0.15;fill:#eed7f4;stroke:none"
         d="M 48,48 16.754067,104.42421 -9.9692451,85.088633 48,48 z"
         id="path3831"
         inkscape:transform-center-x="28.984623"
         inkscape:transform-center-y="28.212105" />
      <path
         inkscape:transform-center-y="-22.819354"
         inkscape:transform-center-x="31.405984"
         id="path3833"
         d="M 48,48 -14.811967,33.348835 -3.5083336,2.3612922 48,48 z"
         style="opacity:0.15;fill:#eed7f4;stroke:none"
         sodipodi:nodetypes="cccc" />
      <path
         sodipodi:nodetypes="cccc"
         inkscape:transform-center-y="27.212505"
         inkscape:transform-center-x="-22.904818"
         id="path3835"
         d="M 48,48 93.809637,93.403493 90.117903,102.42501 48,48 z"
         style="opacity:0.15;fill:#eed7f4;stroke:none" />
      <path
         style="opacity:0.15;fill:#eed7f4;stroke:none"
         d="m 48,48 -2.970052,64.42964 -9.168463,3.30998 L 48,48 z"
         id="path3837"
         inkscape:transform-center-x="6.069258"
         inkscape:transform-center-y="33.86981"
         sodipodi:nodetypes="cccc" />
      <path
         sodipodi:nodetypes="cccc"
         inkscape:transform-center-y="23.171276"
         inkscape:transform-center-x="26.961952"
         id="path3839"
         d="M 48,48 3.1405789,94.342551 -5.923902,90.757601 48,48 z"
         style="opacity:0.15;fill:#eed7f4;stroke:none" />
      <path
         style="opacity:0.15;fill:#eed7f4;stroke:none"
         d="M 48,47.999999 -14.116138,65.366204 -20.132068,57.696441 48,47.999999 z"
         id="path3841"
         inkscape:transform-center-x="34.066035"
         inkscape:transform-center-y="8.683102"
         sodipodi:nodetypes="cccc" />
      <path
         sodipodi:nodetypes="cccc"
         inkscape:transform-center-y="-32.466447"
         inkscape:transform-center-x="14.573314"
         id="path3843"
         d="M 48.000001,47.999998 18.853372,-9.5367177 25.202646,-16.932892 48.000001,47.999998 z"
         style="opacity:0.15;fill:#eed7f4;stroke:none" />
      <path
         style="opacity:0.15;fill:#eed7f4;stroke:none"
         d="m 48.000003,48.000001 59.481677,-24.938521 6.921,6.864135 -66.402677,18.074386 z"
         id="path3845"
         inkscape:transform-center-x="-33.201341"
         inkscape:transform-center-y="-12.46926"
         sodipodi:nodetypes="cccc" />
      <path
         style="opacity:0.15;fill:#eed7f4;stroke:none"
         d="M 47.999999,47.999999 88.186743,93.793286 81.290444,108.23077 47.999999,47.999999 z"
         id="path3849"
         inkscape:transform-center-x="-20.093371"
         inkscape:transform-center-y="30.115385" />
      <path
         inkscape:transform-center-y="-31.475519"
         inkscape:transform-center-x="17.978983"
         id="path3851"
         d="M 48.000001,48 12.042033,-1.1835747 20.194136,-14.95104 48.000001,48 z"
         style="opacity:0.15;fill:#eed7f4;stroke:none" />
    </g>
    <rect
       ry="1.4285715"
       rx="1.4285715"
       y="0.99999982"
       x="1"
       height="20"
       width="20"
       id="rect2975"
       style="fill:url(#linearGradient2977);fill-opacity:1;fill-rule:nonzero;stroke:none" />
    <path
       style="opacity:0.3;fill:url(#linearGradient3961);fill-opacity:1;fill-rule:evenodd;stroke:none;display:inline"
       d="M 3,1 C 1.892,1 1,1.892 1,3 l 0,16 c 0,1.108 0.892,2 2,2 l 16,0 c 1.108,0 2,-0.892 2,-2 L 21,3 C 21,1.892 20.108,1 19,1 L 3,1 z m 0,1.03125 16,0 c 0.5497,0 0.96875,0.4190495 0.96875,0.96875 l 0,16 c 0,0.5497 -0.41905,0.96875 -0.96875,0.96875 l -16,0 C 2.4502995,19.96875 2.03125,19.5497 2.03125,19 l 0,-16 C 2.03125,2.4502995 2.4502995,2.03125 3,2.03125 z"
       id="rect3050"
       inkscape:connector-curvature="0" />
    <path
       id="path3235"
       d="M 3,21 C 1.892,21 1,20.108 1,19 l 0,-1 c 0,1.108 0.892,2 2,2 l 16,0 c 1.108,0 2,-0.892 2,-2 l 0,1 c 0,1.108 -0.892,2 -2,2 L 3,21 z"
       style="opacity:0.2;fill:url(#linearGradient3845-2);fill-opacity:1;fill-rule:evenodd;stroke:none;display:inline"
       inkscape:connector-curvature="0" />
  </g>
  <g
     inkscape:groupmode="layer"
     id="layer2"
     inkscape:label="Highlight"
     sodipodi:insensitive="true">
    <rect
       style="opacity:0.15;fill:#ffffff;fill-opacity:1;fill-rule:nonzero;stroke:none;display:inline;filter:url(#filter3194)"
       id="rect2410"
       width="16"
       height="16"
       x="3"
       y="3"
       rx="2"
       ry="2"
       clip-path="url(#clipPath2849)" />
  </g>
  <g
     inkscape:groupmode="layer"
     id="layer3"
     inkscape:label="Symbol"
     sodipodi:insensitive="true">
    <path
       d="m 10.008334,4.5000003 c -0.2318563,0 -0.4083339,0.1764767 -0.4083339,0.4083333 l 0,1.1666667 c -0.516976,0.1327205 -0.9810863,0.3470865 -1.4291667,0.6125 L 7.3250001,5.8416671 c -0.1639463,-0.1639475 -0.4193859,-0.1639475 -0.5833333,0 l -1.4,1.3999999 c -0.1639466,0.1639474 -0.1639466,0.419386 0,0.5833333 L 6.1875001,8.6708337 C 5.9220871,9.1189137 5.7077211,9.583024 5.575,10.1 l -1.1666667,0 C 4.1764774,10.1 4,10.276477 4,10.508334 l 0,1.983333 C 4,12.723524 4.1764774,12.9 4.4083333,12.9 L 5.575,12.9 c 0.132721,0.516976 0.3470872,0.981087 0.6125001,1.429167 L 5.3416668,15.175 c -0.1639466,0.163947 -0.1639466,0.419386 0,0.583334 l 1.4,1.400001 c 0.1639473,0.163947 0.4193859,0.163947 0.5833333,0 l 0.8458333,-0.845834 c 0.4480804,0.265414 0.9121905,0.479779 1.4291667,0.6125 l 0,1.166666 C 9.6000002,18.323523 9.7764777,18.5 10.008334,18.5 l 1.983333,0 c 0.231856,0 0.408332,-0.176477 0.408332,-0.408333 l 0,-1.166666 c 0.516977,-0.132721 0.981088,-0.347086 1.429167,-0.6125 L 14.675,17.158335 c 0.163947,0.163947 0.419385,0.163947 0.583333,0 l 1.400001,-1.400001 c 0.163947,-0.163948 0.163947,-0.419387 0,-0.583334 L 15.8125,14.329167 C 16.077914,13.881087 16.292279,13.416976 16.425,12.9 l 1.166666,0 C 17.823523,12.9 18,12.723523 18,12.491667 l 0,-1.983333 C 18,10.276477 17.823522,10.1 17.591666,10.1 L 16.425,10.1 C 16.292279,9.583024 16.077914,9.1189137 15.8125,8.6708337 l 0.845834,-0.8458334 c 0.163947,-0.1639473 0.163947,-0.4193858 0,-0.5833333 L 15.258333,5.8416671 c -0.163948,-0.1639475 -0.419386,-0.1639475 -0.583333,0 l -0.845834,0.8458332 c -0.448079,-0.2654135 -0.91219,-0.4797795 -1.429167,-0.6125 l 0,-1.1666667 c 0,-0.2318566 -0.176476,-0.4083333 -0.408332,-0.4083333 l -1.983333,0 z M 11,9.633334 c 1.0304,0 1.866666,0.836266 1.866666,1.866666 0,1.0304 -0.836266,1.866666 -1.866666,1.866666 C 9.9696003,13.366666 9.1333335,12.5304 9.1333335,11.5 9.1333335,10.4696 9.9696003,9.633334 11,9.633334 z"
       id="path3875"
       style="opacity:0.8;fill:#000000;fill-opacity:1;fill-rule:nonzero;stroke:none;stroke-width:0.99999994;marker:none;visibility:visible;display:block;overflow:visible;filter:url(#filter3883);enable-background:accumulate" />
    <path
       style="fill:url(#linearGradient3868);fill-opacity:1;fill-rule:nonzero;stroke:none;stroke-width:0.99999994;marker:none;visibility:visible;display:block;overflow:visible;enable-background:accumulate"
       id="path2426"
       d="m 10.008334,4.0000003 c -0.2318563,0 -0.4083339,0.1764767 -0.4083339,0.4083333 l 0,1.1666667 c -0.516976,0.1327205 -0.9810863,0.3470865 -1.4291667,0.6125 L 7.3250001,5.3416671 c -0.1639463,-0.1639475 -0.4193859,-0.1639475 -0.5833333,0 l -1.4,1.3999999 c -0.1639466,0.1639474 -0.1639466,0.419386 0,0.5833333 L 6.1875001,8.1708337 C 5.9220871,8.6189137 5.7077211,9.083024 5.575,9.6 l -1.1666667,0 C 4.1764774,9.6 4,9.776477 4,10.008334 l 0,1.983333 C 4,12.223524 4.1764774,12.4 4.4083333,12.4 L 5.575,12.4 c 0.132721,0.516976 0.3470872,0.981087 0.6125001,1.429167 L 5.3416668,14.675 c -0.1639466,0.163947 -0.1639466,0.419386 0,0.583334 l 1.4,1.400001 c 0.1639473,0.163947 0.4193859,0.163947 0.5833333,0 l 0.8458333,-0.845834 c 0.4480804,0.265414 0.9121905,0.479779 1.4291667,0.6125 l 0,1.166666 C 9.6000002,17.823523 9.7764777,18 10.008334,18 l 1.983333,0 c 0.231856,0 0.408332,-0.176477 0.408332,-0.408333 l 0,-1.166666 c 0.516977,-0.132721 0.981088,-0.347086 1.429167,-0.6125 L 14.675,16.658335 c 0.163947,0.163947 0.419385,0.163947 0.583333,0 l 1.400001,-1.400001 c 0.163947,-0.163948 0.163947,-0.419387 0,-0.583334 L 15.8125,13.829167 C 16.077914,13.381087 16.292279,12.916976 16.425,12.4 l 1.166666,0 C 17.823523,12.4 18,12.223523 18,11.991667 l 0,-1.983333 C 18,9.776477 17.823522,9.6 17.591666,9.6 L 16.425,9.6 C 16.292279,9.083024 16.077914,8.6189137 15.8125,8.1708337 l 0.845834,-0.8458334 c 0.163947,-0.1639473 0.163947,-0.4193858 0,-0.5833333 L 15.258333,5.3416671 c -0.163948,-0.1639475 -0.419386,-0.1639475 -0.583333,0 l -0.845834,0.8458332 c -0.448079,-0.2654135 -0.91219,-0.4797795 -1.429167,-0.6125 l 0,-1.1666667 c 0,-0.2318566 -0.176476,-0.4083333 -0.408332,-0.4083333 l -1.983333,0 z M 11,9.133334 c 1.0304,0 1.866666,0.836266 1.866666,1.866666 0,1.0304 -0.836266,1.866666 -1.866666,1.866666 C 9.9696003,12.866666 9.1333335,12.0304 9.1333335,11 9.1333335,9.9696 9.9696003,9.133334 11,9.133334 z" />
    <path
       style="opacity:0.05;fill:#000000;fill-opacity:1;stroke:none"
       id="path3315"
       d="M 11,7.4545599 C 9.0450114,7.4545599 7.4545597,9.0450114 7.4545597,11 7.4545597,12.95499 9.0450114,14.545441 11,14.545441 12.954989,14.54544 14.54544,12.95499 14.54544,11 14.54544,9.0450114 12.954989,7.4545599 11,7.4545599 z m 0,1.6363576 c 1.053814,0 1.909083,0.8552691 1.909083,1.9090825 0,1.053814 -0.855269,1.909084 -1.909083,1.909084 C 9.9461862,12.909084 9.0909169,12.053814 9.0909169,11 9.0909169,9.9461866 9.9461862,9.0909175 11,9.0909175 z" />
    <path
       style="fill:none;stroke:url(#linearGradient3858);stroke-width:1;stroke-miterlimit:4;stroke-dasharray:none"
       id="path28"
       d="m 11.00237,7.4991666 c -1.9290527,0 -3.4984638,1.5694113 -3.4984638,3.4984644 0,1.929053 1.5694111,3.498466 3.4984638,3.498466 1.929054,0 3.498465,-1.569413 3.498465,-3.498466 0,-1.9290531 -1.569411,-3.4984644 -3.498465,-3.4984644 z" />
    <path
       style="fill:#ffffff;fill-opacity:1;fill-rule:nonzero;stroke:none;stroke-width:0.99999994;marker:none;visibility:visible;display:block;overflow:visible;enable-background:accumulate"
       d="M 10,6 C 9.7681437,6 9.59375,6.1743934 9.59375,6.40625 l 0,0.5 C 9.59375,6.6743934 9.7681437,6.5 10,6.5 l 2,0 c 0.231856,0 0.40625,0.1743934 0.40625,0.40625 l 0,-0.5 C 12.40625,6.1743934 12.231856,6 12,6 L 10,6 z M 7.03125,7.21875 c -0.1048466,0 -0.1992763,0.043026 -0.28125,0.125 L 5.34375,8.75 C 5.1912797,8.9024711 5.1813755,9.1177007 5.3125,9.28125 5.3223696,9.2689398 5.3322737,9.2614763 5.34375,9.25 L 6.75,7.84375 c 0.1639474,-0.1639475 0.3985537,-0.1639475 0.5625,0 L 8.15625,8.6875 C 8.6043304,8.4220865 9.076774,8.1952205 9.59375,8.0625 l 0,-0.5 C 9.076774,7.6952205 8.6043304,7.9220865 8.15625,8.1875 L 7.3125,7.34375 C 7.230527,7.261776 7.1360966,7.21875 7.03125,7.21875 z m 7.9375,0 c -0.104846,0 -0.199276,0.043026 -0.28125,0.125 L 13.84375,8.1875 C 13.395671,7.9220865 12.923227,7.6952205 12.40625,7.5625 l 0,0.5 c 0.516977,0.1327205 0.989421,0.3595865 1.4375,0.625 L 14.6875,7.84375 c 0.163947,-0.1639475 0.398552,-0.1639475 0.5625,0 L 16.65625,9.25 C 16.66773,9.261476 16.67763,9.26894 16.6875,9.28125 16.818625,9.1177007 16.808721,8.9024712 16.65625,8.75 L 15.25,7.34375 c -0.08197,-0.081974 -0.176404,-0.125 -0.28125,-0.125 z M 6.03125,10.5 C 5.8484877,10.849294 5.6637764,11.199258 5.5625,11.59375 l -1.15625,0 C 4.1743941,11.59375 4,11.768143 4,12 l 0,0.5 c 0,-0.231857 0.1743941,-0.40625 0.40625,-0.40625 l 1.15625,0 c 0.1327211,-0.516976 0.359587,-0.98942 0.625,-1.4375 L 6.03125,10.5 z m 9.9375,0 -0.15625,0.15625 c 0.265414,0.44808 0.492279,0.920524 0.625,1.4375 l 1.15625,0 C 17.825606,12.09375 18,12.268143 18,12.5 L 18,12 c 0,-0.231857 -0.174394,-0.40625 -0.40625,-0.40625 l -1.15625,0 C 16.336224,11.199258 16.151512,10.849294 15.96875,10.5 z M 6.03125,16 5.34375,16.6875 C 5.1912797,16.839971 5.1813755,17.0552 5.3125,17.21875 5.32237,17.20644 5.332274,17.19898 5.34375,17.1875 L 6.1875,16.34375 C 6.1246176,16.23759 6.0879947,16.10845 6.03125,16 z m 9.9375,0 c -0.05674,0.10845 -0.09337,0.23759 -0.15625,0.34375 l 0.84375,0.84375 c 0.01148,0.01148 0.02138,0.01894 0.03125,0.03125 0.131125,-0.16355 0.121221,-0.378779 -0.03125,-0.53125 L 15.96875,16 z"
       transform="translate(0,-2)"
       id="path3870"
       sodipodi:nodetypes="ccccccccccccsccccccccccccccccccscccccccccccccccccccccccsccccccscc" />
  </g>
</svg>
