<?xml version="1.0" encoding="UTF-8" standalone="no"?>
<!-- Created with Inkscape (http://www.inkscape.org/) -->

<svg
   xmlns:dc="http://purl.org/dc/elements/1.1/"
   xmlns:cc="http://creativecommons.org/ns#"
   xmlns:rdf="http://www.w3.org/1999/02/22-rdf-syntax-ns#"
   xmlns:svg="http://www.w3.org/2000/svg"
   xmlns="http://www.w3.org/2000/svg"
   xmlns:xlink="http://www.w3.org/1999/xlink"
   xmlns:sodipodi="http://sodipodi.sourceforge.net/DTD/sodipodi-0.dtd"
   xmlns:inkscape="http://www.inkscape.org/namespaces/inkscape"
   width="24"
   height="24"
   id="svg2"
   sodipodi:version="0.32"
   inkscape:version="0.48.0 r9654"
   version="1.0"
   sodipodi:docname="gnome-gnibbles.svg"
   inkscape:output_extension="org.inkscape.output.svg.inkscape"
   style="display:inline">
  <defs
     id="defs4">
    <linearGradient
       inkscape:collect="always"
       id="linearGradient3327">
      <stop
         style="stop-color:#000000;stop-opacity:1;"
         offset="0"
         id="stop3330" />
      <stop
         style="stop-color:#000000;stop-opacity:0;"
         offset="1"
         id="stop3333" />
    </linearGradient>
    <linearGradient
       inkscape:collect="always"
       xlink:href="#linearGradient3327"
       id="linearGradient3335"
       x1="11.375"
       y1="22"
       x2="11.375"
       y2="-9.817296"
       gradientUnits="userSpaceOnUse" />
    <linearGradient
       inkscape:collect="always"
       xlink:href="#linearGradient3927"
       id="linearGradient3181"
       x1="-3.0607977"
       y1="27.258198"
       x2="-3.0607977"
       y2="7.2536583"
       gradientUnits="userSpaceOnUse"
       gradientTransform="translate(12.119372,-7.2581977)" />
    <inkscape:perspective
       sodipodi:type="inkscape:persp3d"
       inkscape:vp_x="0 : 11 : 1"
       inkscape:vp_y="0 : 1000 : 0"
       inkscape:vp_z="22 : 11 : 1"
       inkscape:persp3d-origin="11 : 7.3333333 : 1"
       id="perspective2531" />
    <linearGradient
       id="ButtonShadow"
       gradientTransform="scale(0.9883037,1.0118347)"
       x1="9.3550024"
       y1="21.742682"
       x2="9.3550024"
       y2="0.49362123"
       gradientUnits="userSpaceOnUse">
      <stop
         id="stop3277"
         offset="0"
         style="stop-color:#000000;stop-opacity:0.70588237;" />
      <stop
         id="stop3279"
         offset="1"
         style="stop-color:#000000;stop-opacity:0.15686275;" />
    </linearGradient>
    <linearGradient
       inkscape:collect="always"
       id="linearGradient3232">
      <stop
         style="stop-color:#000000;stop-opacity:1;"
         offset="0"
         id="stop3234" />
      <stop
         style="stop-color:#000000;stop-opacity:0;"
         offset="1"
         id="stop3236" />
    </linearGradient>
    <linearGradient
       gradientUnits="userSpaceOnUse"
       y2="-6.0004225"
       x2="11"
       y1="14.805666"
       x1="11"
       id="linearGradient3221"
       xlink:href="#linearGradient3232"
       inkscape:collect="always" />
    <linearGradient
       id="ButtonColor"
       x1="10.31979"
       y1="21"
       x2="10.31979"
       y2="0.99929649"
       gradientUnits="userSpaceOnUse">
      <stop
         style="stop-color:#29669f;stop-opacity:1;"
         offset="0"
         id="stop3189" />
      <stop
         style="stop-color:#88b6e0;stop-opacity:1;"
         offset="1"
         id="stop3191" />
    </linearGradient>
    <linearGradient
       inkscape:collect="always"
       xlink:href="#ButtonShadow"
       id="linearGradient38042"
       gradientUnits="userSpaceOnUse"
       gradientTransform="scale(0.9883037,1.0118347)"
       x1="9.3550024"
       y1="21.742682"
       x2="9.3550024"
       y2="0.49362123" />
    <filter
       inkscape:collect="always"
       id="filter3194"
       x="-0.18000001"
       width="1.36"
       y="-0.18000001"
       height="1.36"
       color-interpolation-filters="sRGB">
      <feGaussianBlur
         inkscape:collect="always"
         stdDeviation="1.2"
         id="feGaussianBlur3196" />
    </filter>
    <clipPath
       clipPathUnits="userSpaceOnUse"
       id="clipPath2849">
      <rect
         ry="2"
         rx="2"
         y="1"
         x="1"
         height="20"
         width="20"
         id="rect2851"
         style="fill:#ffffff;fill-opacity:1;fill-rule:evenodd;stroke:none;display:inline" />
    </clipPath>
    <inkscape:perspective
       id="perspective3998"
       inkscape:persp3d-origin="0.5 : 0.33333333 : 1"
       inkscape:vp_z="1 : 0.5 : 1"
       inkscape:vp_y="0 : 1000 : 0"
       inkscape:vp_x="0 : 0.5 : 1"
       sodipodi:type="inkscape:persp3d" />
    <linearGradient
       inkscape:collect="always"
       xlink:href="#linearGradient3927"
       id="linearGradient4206"
       gradientUnits="userSpaceOnUse"
       x1="48"
       y1="90"
       x2="48"
       y2="5.9877172" />
    <linearGradient
       id="linearGradient3927">
      <stop
         style="stop-color:#5c8947;stop-opacity:1;"
         offset="0"
         id="stop3929" />
      <stop
         style="stop-color:#99c376;stop-opacity:1;"
         offset="1"
         id="stop3931" />
    </linearGradient>
    <radialGradient
       inkscape:collect="always"
       xlink:href="#linearGradient3982"
       id="radialGradient3988"
       cx="48"
       cy="48"
       fx="48"
       fy="48"
       r="42"
       gradientUnits="userSpaceOnUse"
       gradientTransform="matrix(0.40860719,0,0,0.41399045,-7.613146,-9.871542)" />
    <linearGradient
       inkscape:collect="always"
       id="linearGradient3982">
      <stop
         style="stop-color:#e9ddaf;stop-opacity:1;"
         offset="0"
         id="stop3984" />
      <stop
         style="stop-color:#e9ddaf;stop-opacity:0;"
         offset="1"
         id="stop3986" />
    </linearGradient>
    <inkscape:perspective
       id="perspective4022"
       inkscape:persp3d-origin="0.5 : 0.33333333 : 1"
       inkscape:vp_z="1 : 0.5 : 1"
       inkscape:vp_y="0 : 1000 : 0"
       inkscape:vp_x="0 : 0.5 : 1"
       sodipodi:type="inkscape:persp3d" />
    <linearGradient
       id="linearGradient3714">
      <stop
         id="stop3718"
         offset="0"
         style="stop-color:#d0d0d0;stop-opacity:1" />
      <stop
         id="stop3722"
         offset="1"
         style="stop-color:#b0b0b0;stop-opacity:0" />
    </linearGradient>
    <linearGradient
       id="linearGradient2955">
      <stop
         id="stop2957"
         offset="0"
         style="stop-color:#d0d0d0;stop-opacity:1" />
      <stop
         id="stop3689"
         offset="0.40000001"
         style="stop-color:white;stop-opacity:1" />
      <stop
         id="stop3709"
         offset="0.69999999"
         style="stop-color:white;stop-opacity:1" />
      <stop
         id="stop2959"
         offset="1"
         style="stop-color:#d0d0d0;stop-opacity:1" />
    </linearGradient>
    <linearGradient
       id="linearGradient8606">
      <stop
         id="stop8608"
         offset="0"
         style="stop-color:#eeeeec;stop-opacity:1" />
      <stop
         id="stop8610"
         offset="1"
         style="stop-color:#eeeeec;stop-opacity:0" />
    </linearGradient>
    <linearGradient
       id="linearGradient3917">
      <stop
         style="stop-color:#f4d7d7;stop-opacity:1;"
         offset="0"
         id="stop3919" />
      <stop
         style="stop-color:#e9afaf;stop-opacity:1;"
         offset="1"
         id="stop3921" />
    </linearGradient>
    <linearGradient
       inkscape:collect="always"
       xlink:href="#linearGradient3714"
       id="linearGradient3784"
       gradientUnits="userSpaceOnUse"
       gradientTransform="matrix(0.04114804,0,0,0.03957106,-21.626494,-9.580648)"
       x1="301.55588"
       y1="483.00668"
       x2="308.30713"
       y2="497.39062" />
    <linearGradient
       inkscape:collect="always"
       xlink:href="#linearGradient2955"
       id="linearGradient3791"
       gradientUnits="userSpaceOnUse"
       gradientTransform="matrix(0.04114804,0,0,0.03957106,-21.626494,-9.580648)"
       x1="222.58691"
       y1="499.1156"
       x2="337.48618"
       y2="473.95703" />
    <linearGradient
       inkscape:collect="always"
       xlink:href="#linearGradient8606"
       id="linearGradient3797"
       gradientUnits="userSpaceOnUse"
       gradientTransform="matrix(0.34907304,0,0,0.33569503,4.9284121,0.886344)"
       x1="0.86083812"
       y1="4.9364119"
       x2="45.033524"
       y2="25.572334" />
    <radialGradient
       inkscape:collect="always"
       xlink:href="#linearGradient3917"
       id="radialGradient3800"
       gradientUnits="userSpaceOnUse"
       gradientTransform="matrix(0.27961234,0,0,0.27941377,-1.5990687,-3.9118773)"
       cx="40"
       cy="40.301125"
       fx="40"
       fy="40.301125"
       r="26.875792" />
    <linearGradient
       y2="16"
       x2="10"
       y1="1"
       x1="10"
       gradientUnits="userSpaceOnUse"
       id="linearGradient3078"
       xlink:href="#linearGradient3823"
       inkscape:collect="always"
       gradientTransform="translate(1,-1)" />
    <linearGradient
       id="linearGradient3823">
      <stop
         id="stop3825"
         offset="0"
         style="stop-color:#ffffff;stop-opacity:1;" />
      <stop
         id="stop3829"
         offset="1"
         style="stop-color:#ffffff;stop-opacity:0;" />
    </linearGradient>
    <linearGradient
       inkscape:collect="always"
       xlink:href="#linearGradient3831"
       id="linearGradient3845"
       x1="11"
       y1="19.5"
       x2="21"
       y2="19.5"
       gradientUnits="userSpaceOnUse"
       spreadMethod="reflect"
       gradientTransform="translate(1,-1)" />
    <linearGradient
       id="linearGradient3831">
      <stop
         style="stop-color:#ffffff;stop-opacity:1;"
         offset="0"
         id="stop3833" />
      <stop
         id="stop3821"
         offset="0.75"
         style="stop-color:#ffffff;stop-opacity:0.49803922;" />
      <stop
         style="stop-color:#ffffff;stop-opacity:0;"
         offset="1"
         id="stop3835" />
    </linearGradient>
    <linearGradient
       y2="16"
       x2="10"
       y1="1"
       x1="10"
       gradientTransform="translate(1,-1)"
       gradientUnits="userSpaceOnUse"
       id="linearGradient3961"
       xlink:href="#linearGradient3823"
       inkscape:collect="always" />
  </defs>
  <sodipodi:namedview
     id="base"
     pagecolor="#ffffff"
     bordercolor="#e7e7e7"
     borderopacity="1"
     inkscape:pageopacity="0.0"
     inkscape:pageshadow="2"
     inkscape:zoom="27.059589"
     inkscape:cx="-8.5782481"
     inkscape:cy="8.2498938"
     inkscape:document-units="px"
     inkscape:current-layer="layer1"
     showgrid="true"
     inkscape:showpageshadow="false"
     showguides="false"
     inkscape:guide-bbox="true"
     inkscape:window-width="1920"
     inkscape:window-height="1026"
     inkscape:window-x="0"
     inkscape:window-y="25"
     inkscape:window-maximized="1"
     inkscape:snap-global="false">
    <sodipodi:guide
       orientation="1,0"
       position="0,112"
       id="guide2383" />
    <sodipodi:guide
       orientation="0,1"
       position="26.278146,128"
       id="guide2385" />
    <sodipodi:guide
       orientation="1,0"
       position="128,54.082119"
       id="guide2387" />
    <sodipodi:guide
       orientation="0,1"
       position="78.156291,0"
       id="guide2389" />
    <sodipodi:guide
       orientation="0,1"
       position="60.863576,64.084768"
       id="guide2391" />
    <inkscape:grid
       type="xygrid"
       id="grid3672"
       visible="true"
       enabled="true"
       empspacing="8"
       snapvisiblegridlinesonly="true" />
  </sodipodi:namedview>
  <metadata
     id="metadata7">
    <rdf:RDF>
      <cc:Work
         rdf:about="">
        <dc:format>image/svg+xml</dc:format>
        <dc:type
           rdf:resource="http://purl.org/dc/dcmitype/StillImage" />
        <dc:title />
      </cc:Work>
    </rdf:RDF>
  </metadata>
  <g
     inkscape:label="Button"
     inkscape:groupmode="layer"
     id="layer1"
     transform="translate(0,2)">
    <g
       style="display:inline"
       id="g3337"
       transform="translate(1,-1)">
      <rect
         ry="2.5"
         rx="2.5"
         y="0.5"
         x="0.5"
         height="21.5"
         width="21"
         id="rect3371"
         style="opacity:0.3;fill:url(#linearGradient3335);fill-opacity:1;stroke:none;display:inline" />
      <rect
         style="opacity:0.5;fill:#000000;fill-opacity:1;stroke:none;display:inline"
         id="rect2553"
         width="20"
         height="20"
         x="1"
         y="2"
         rx="2.3809524"
         ry="2.3255813" />
    </g>
    <rect
       style="fill:url(#linearGradient3181);fill-opacity:1;fill-rule:evenodd;stroke:none;display:inline"
       id="rect3173"
       width="20"
       height="20"
       x="2"
       y="0"
       rx="2"
       ry="2" />
    <path
       style="opacity:0.45;fill:url(#radialGradient3988);fill-opacity:1;stroke:none"
       d="M 5.541667,0 11.68006,9.68006 2,3.452381 2,7.857143 11.575893,10 2,12.083333 2,16.458333 11.68006,10.31994 5.452381,20 9.857143,20 12,10.424107 14.083333,20 l 4.375,0 L 12.31994,10.31994 22,16.547619 22,12.142857 12.424107,10 22,7.916667 22,3.541667 12.31994,9.68006 18.547619,0 14.142857,0 12,9.575893 9.916667,0 l -4.375,0 z"
       id="path4141"
       inkscape:connector-curvature="0" />
    <path
       style="opacity:0.4;fill:url(#linearGradient3961);fill-opacity:1;fill-rule:evenodd;stroke:none;display:inline"
       d="M 4,0 C 2.892,0 2,0.892 2,2 l 0,16 c 0,1.108 0.892,2 2,2 l 16,0 c 1.108,0 2,-0.892 2,-2 L 22,2 C 22,0.892 21.108,0 20,0 L 4,0 z m 0,1.03125 16,0 c 0.5497,0 0.96875,0.4190495 0.96875,0.96875 l 0,16 c 0,0.5497 -0.41905,0.96875 -0.96875,0.96875 l -16,0 C 3.4502995,18.96875 3.03125,18.5497 3.03125,18 l 0,-16 C 3.03125,1.4502995 3.4502995,1.03125 4,1.03125 z"
       id="rect3050"
       inkscape:connector-curvature="0" />
    <path
       id="path3235"
       d="M 4,20 C 2.892,20 2,19.108 2,18 l 0,-1 c 0,1.108 0.892,2 2,2 l 16,0 c 1.108,0 2,-0.892 2,-2 l 0,1 c 0,1.108 -0.892,2 -2,2 L 4,20 z"
       style="opacity:0.2;fill:url(#linearGradient3845);fill-opacity:1;fill-rule:evenodd;stroke:none;display:inline"
       inkscape:connector-curvature="0" />
  </g>
  <g
     inkscape:groupmode="layer"
     id="layer2"
     inkscape:label="Highlight"
     transform="translate(0,2)"
     sodipodi:insensitive="true">
    <rect
       style="opacity:0.15;fill:#ffffff;fill-opacity:1;fill-rule:nonzero;stroke:none;display:inline;filter:url(#filter3194)"
       id="rect2410"
       width="16"
       height="16"
       x="3"
       y="3"
       rx="2"
       ry="2"
       clip-path="url(#clipPath2849)"
       transform="translate(1,-1)" />
  </g>
  <g
     inkscape:groupmode="layer"
     id="layer3"
     inkscape:label="Symbol"
     transform="translate(0,2)">
    <path
       style="opacity:0.05;fill:#000000;fill-opacity:1;fill-rule:evenodd;stroke:none"
       d="M 9.90625,1.5 C 7.873011,1.758802 5.8227163,3.0145021 5.1742988,5.0433864 c -0.4653605,1.496882 0.022081,3.0669699 0.3685277,4.5367366 0.7708619,2.667345 1.7667879,5.336388 3.4438253,7.576703 0.6123718,0.800835 1.5337002,1.505794 2.5942542,1.382794 1.306284,-0.01548 2.244859,-1.062459 2.882644,-2.089876 0.357621,-0.37927 0.723183,-1.593079 1.040358,-0.627958 0.84811,1.381301 2.314019,2.56051 4.0179,2.430836 1.165876,0.0019 2.518594,-0.77132 2.509442,-2.065122 0.03403,-1.001541 -0.862193,-1.704269 -1.754058,-1.92864 -0.795668,-0.23809 -1.167065,-1.031099 -1.34251,-1.779873 C 18.458582,10.960282 17.713437,9.307263 16.208173,8.5789272 15.699548,8.3564985 15.002563,8.3734326 14.65625,8.78125 14.255059,8.8925496 13.546696,9.709571 13.518289,9.677051 14.113968,8.4900276 14.558815,7.152685 14.3125,5.8125 14.115879,5.2275228 14.056021,4.5578621 13.807365,3.9646087 13.261349,2.343745 11.582664,1.3635406 9.90625,1.5 z"
       id="path3827" />
    <path
       sodipodi:type="inkscape:offset"
       inkscape:radius="0.53094095"
       inkscape:original="M 9.96875 3.53125 C 9.744566 3.547751 9.506743 3.600608 9.28125 3.65625 C 8.379281 3.8788171 7.490801 4.390583 6.875 5.09375 C 6.266107 5.7890284 5.921164 6.6870039 6.03125 7.625 C 6.031868 7.63298 6.0306 7.648217 6.03125 7.65625 C 6.163382 9.288189 6.963448 11.986266 7.96875 14.28125 C 8.473875 15.43439 9.043962 16.480726 9.59375 17.25 C 9.868644 17.634637 10.135448 17.934808 10.40625 18.15625 C 10.668218 18.370468 10.923518 18.496418 11.1875 18.5 C 11.1964 18.500121 11.20985 18.500172 11.21875 18.5 C 11.692516 18.56198 12.134749 18.42795 12.5 18.15625 C 12.873575 17.878358 13.194219 17.479122 13.5 17.03125 C 14.106578 16.142808 14.646358 15.096634 15.28125 14.4375 C 15.29244 14.4468 15.29695 14.45104 15.3125 14.46875 C 15.37472 14.53957 15.435515 14.674938 15.53125 14.84375 C 15.72272 15.181374 15.965786 15.660055 16.28125 16.15625 C 16.907239 17.140872 17.851773 18.202387 19.21875 18.21875 C 19.22953 18.218879 19.23916 18.21875 19.25 18.21875 C 19.657461 18.24263 20.08201 18.18621 20.40625 18.03125 C 20.739035 17.872206 20.984251 17.580669 21 17.1875 C 21.0032 16.876683 20.824958 16.669681 20.59375 16.53125 C 20.362542 16.392819 20.06178 16.278223 19.75 16.125 C 19.126439 15.818554 18.421528 15.318945 18 13.875 C 17.668919 12.74088 17.239771 11.910283 16.78125 11.34375 C 16.322729 10.777217 15.849395 10.455717 15.40625 10.46875 L 15.375 10.5 L 15.34375 10.5 C 15.006847 10.617712 14.697451 10.906959 14.375 11.28125 C 14.052549 11.655541 13.738049 12.106064 13.4375 12.5625 C 13.136951 13.018936 12.83848 13.479952 12.59375 13.84375 C 12.390908 14.14528 12.248678 14.320857 12.125 14.4375 C 11.715702 14.034619 11.519604 13.604008 11.5625 13.09375 C 11.6095 12.53463 11.8803 11.889332 12.1875 11.21875 C 12.8019 9.8775859 13.61561 8.409531 13.28125 6.9375 C 13.155889 5.4757476 12.628068 4.5453788 11.875 4.03125 C 11.498466 3.7741856 11.068045 3.6182883 10.625 3.5625 C 10.403478 3.5346059 10.192934 3.5147494 9.96875 3.53125 z "
       style="opacity:0.15;fill:#000000;fill-opacity:1;fill-rule:evenodd;stroke:none"
       id="path3823"
       d="M 9.9375,3 C 9.6579497,3.0205762 9.3901144,3.0985423 9.15625,3.15625 8.149224,3.4047406 7.1671913,3.9524682 6.46875,4.75 5.7827566,5.5333173 5.3819131,6.5635594 5.5,7.65625 c 0.00115,0.01067 -0.00125,0.02057 0,0.03125 0.1422462,1.756858 0.9436242,4.472261 1.96875,6.8125 0.5166722,1.179501 1.1062412,2.249191 1.6875,3.0625 0.2934091,0.410544 0.5857259,0.737899 0.90625,1 0.30645,0.250592 0.678486,0.454126 1.09375,0.46875 0.01007,3.55e-4 0.02112,-1.38e-4 0.03125,0 0.01089,0.0013 0.02038,-0.0011 0.03125,0 0.590029,0.05968 1.147367,-0.105448 1.59375,-0.4375 0.452232,-0.336403 0.804609,-0.780729 1.125,-1.25 0.4844,-0.70949 0.891498,-1.361441 1.3125,-1.9375 0.163948,0.300692 0.33946,0.631275 0.59375,1.03125 0.663028,1.04288 1.736144,2.292883 3.375,2.3125 0.01029,6.03e-4 0.02094,-5.25e-4 0.03125,0 0.468206,0.02385 0.942825,-0.04346 1.375,-0.25 0.468987,-0.224138 0.882099,-0.678337 0.90625,-1.28125 a 0.53099404,0.53099404 0 0 0 0,-0.03125 C 21.536564,16.671305 21.20317,16.258985 20.875,16.0625 20.580481,15.886163 20.253273,15.796078 19.96875,15.65625 19.408047,15.380695 18.88614,15.041472 18.5,13.71875 18.153875,12.533095 17.703754,11.637866 17.1875,11 16.678362,10.370927 16.116964,9.9165977 15.40625,9.9375 a 0.53099404,0.53099404 0 0 0 -0.125,0.03125 0.53099404,0.53099404 0 0 0 -0.25,0.125 L 15,10.125 c -0.400692,0.191868 -0.732933,0.466223 -1.03125,0.8125 -0.348536,0.404569 -0.662892,0.879252 -0.96875,1.34375 -0.274741,0.417242 -0.553476,0.815006 -0.78125,1.15625 -0.0222,-0.0987 -0.134711,-0.196986 -0.125,-0.3125 0.0356,-0.423466 0.259809,-1.026762 0.5625,-1.6875 0.590595,-1.289201 1.495065,-2.8403265 1.15625,-4.53125 -0.0063,-0.031432 0.0072,-0.062218 0,-0.09375 l -0.03125,0 C 13.628707,5.3012192 13.070267,4.1964257 12.1875,3.59375 11.737911,3.2868102 11.2099,3.0970307 10.6875,3.03125 10.455592,3.0020481 10.217052,2.9794242 9.9375,3 z"
       transform="translate(0,-1)" />
    <path
       style="opacity:0.3;fill:#000000;fill-opacity:1;fill-rule:evenodd;stroke:none"
       d="m 9.96875,2.5163119 c -0.224184,0.016501 -0.462007,0.069358 -0.6875,0.125 -0.901969,0.2225671 -1.790449,0.734333 -2.40625,1.4375 -0.608893,0.6952784 -0.953836,1.5932539 -0.84375,2.53125 6.18e-4,0.00798 -6.5e-4,0.023217 0,0.03125 0.132132,1.631939 0.932198,4.3300161 1.9375,6.6250001 0.505125,1.15314 1.075212,2.199476 1.625,2.96875 0.274894,0.384637 0.541698,0.684808 0.8125,0.90625 0.261968,0.214218 0.517268,0.340168 0.78125,0.34375 0.0089,1.21e-4 0.02235,1.72e-4 0.03125,0 0.473766,0.06198 0.915999,-0.07205 1.28125,-0.34375 0.373575,-0.277892 0.694219,-0.677128 1,-1.125 0.606578,-0.888442 1.146358,-1.934616 1.78125,-2.59375 0.01119,0.0093 0.0157,0.01354 0.03125,0.03125 0.06222,0.07082 0.123015,0.206188 0.21875,0.375 0.19147,0.337624 0.434536,0.816305 0.75,1.3125 0.625989,0.984622 1.570523,2.046137 2.9375,2.0625 0.01078,1.29e-4 0.02041,0 0.03125,0 0.407461,0.02388 0.83201,-0.03254 1.15625,-0.1875 0.332785,-0.159044 0.578001,-0.450581 0.59375,-0.84375 0.0032,-0.310817 -0.175042,-0.517819 -0.40625,-0.65625 -0.231208,-0.138431 -0.53197,-0.253027 -0.84375,-0.40625 -0.623561,-0.306446 -1.328472,-0.806055 -1.75,-2.25 -0.331081,-1.13412 -0.760229,-1.964717 -1.21875,-2.53125 -0.458521,-0.566533 -0.931855,-0.888033 -1.375,-0.875 l -0.03125,0.03125 -0.03125,0 c -0.336903,0.117712 -0.646299,0.406959 -0.96875,0.78125 -0.322451,0.374291 -0.636951,0.824814 -0.9375,1.28125 -0.300549,0.456436 -0.59902,0.917452 -0.84375,1.28125 -0.202842,0.30153 -0.345072,0.477107 -0.46875,0.59375 -0.409298,-0.402881 -0.605396,-0.833492 -0.5625,-1.34375 0.047,-0.55912 0.3178,-1.204418 0.625,-1.875 C 12.8019,8.8626479 13.61561,7.3945929 13.28125,5.9225619 13.155889,4.4608095 12.628068,3.5304407 11.875,3.0163119 11.498466,2.7592475 11.068045,2.6033502 10.625,2.5475619 10.403478,2.5196678 10.192934,2.4998113 9.96875,2.5163119 z"
       id="path3810" />
    <path
       id="path5054"
       style="fill:url(#radialGradient3800);fill-opacity:1;fill-rule:evenodd;stroke:#d87070;stroke-width:0.5;stroke-linecap:butt;stroke-linejoin:miter;stroke-miterlimit:4;stroke-opacity:1;stroke-dasharray:none"
       d="m 6.1474564,6.093528 c 0.2474019,3.19725 3.2284178,10.799602 5.0642716,10.764077 1.808966,0.272359 2.657473,-2.723584 3.986211,-4.085375 0.460911,-0.265841 1.40046,3.785205 4.042468,3.785205 0.803432,0.05508 1.606866,-0.209565 1.634543,-0.90051 C 20.88608,14.578137 18.748697,15.331899 17.888427,12.38504 17.23347,10.141478 16.165232,9.055141 15.400604,9.077629 14.212513,9.49274 12.728896,12.714325 12.094916,13.129434 9.9400393,11.305166 13.806503,8.2375224 13.166197,5.4185528 12.673654,-0.32465723 5.6795413,2.4581353 6.1474564,6.093528 z" />
    <path
       id="path6834"
       style="fill:none;stroke:url(#linearGradient3797);stroke-width:0.25;stroke-linecap:butt;stroke-linejoin:miter;stroke-miterlimit:4;stroke-opacity:1;stroke-dasharray:none"
       d="M 6.5168638,6.0580027 C 6.7642657,9.255254 9.7822226,16.46683 11.211728,16.46683 c 1.808966,0.272359 2.50971,-3.363034 3.986211,-4.085376 0.941141,-0.372414 1.363519,3.785205 4.005527,3.785205 0.803433,0.05509 1.274399,-0.03194 1.265136,-0.474209 0.121949,-0.688012 -1.905648,-0.368335 -2.912641,-3.271886 C 16.79018,10.212528 16.165232,9.445916 15.400604,9.468404 14.212513,9.883514 13.209126,12.89195 12.094916,13.59126 9.1642845,11.198591 13.437096,8.2730468 12.79679,5.4540781 12.48895,0.4568932 6.3075329,2.4581353 6.5168638,6.0580027 z" />
    <path
       id="path2951"
       style="fill:#571e00;fill-opacity:0.32203393;stroke:none"
       d="m -7.415457,7.5363302 c -0.148903,0.062347 -0.2976,0.1700221 -0.435399,0.2523054 -1.157597,0.6912281 -3.075476,1.5363212 -4.483866,1.9575377 -0.141407,0.042293 -0.159191,0.1770293 -0.137589,0.2683417 0.07734,0.326952 0.336693,0.752101 0.680231,1.103047 0.343538,0.350946 0.850488,0.620605 1.559773,0.628192 0.309541,0.0033 0.613233,-0.144021 0.910403,-0.368506 0.297171,-0.224485 0.588588,-0.534525 0.849967,-0.895298 0.522758,-0.7215447 0.926893,-1.5889096 0.938693,-2.5251372 0.0016,-0.1246971 0.07476,-0.3020734 0.117787,-0.4204826 z m -0.563987,0.7939356 c -0.09988,0.6608438 -0.42361,1.3652973 -0.829393,1.9253872 -0.242096,0.334154 -0.511505,0.617432 -0.766386,0.809971 -0.254879,0.19254 -0.494709,0.286114 -0.653227,0.284419 -0.607644,-0.0065 -0.982597,-0.215804 -1.264019,-0.503296 -0.225334,-0.230193 -0.374259,-0.512803 -0.501494,-0.784004 1.33444,-0.3707023 2.892412,-1.0816206 4.014519,-1.7324772 z" />
    <path
       id="path2196"
       style="fill:url(#linearGradient3791);fill-opacity:1;stroke:none"
       d="m -12.282248,9.9377982 c 1.4866,-0.3743077 3.375375,-1.2586874 4.542694,-1.9827674 -0.017236,1.6367042 -1.554455,3.6030722 -2.490572,3.5930582 -1.316929,-0.01409 -1.764648,-0.957545 -2.052122,-1.6102908 z" />
    <path
       id="path2210"
       style="fill:#571e00;fill-opacity:0.32203393;stroke:none"
       d="m -10.681319,7.0235959 c 0.165098,-2.0045297 -0.822691,1.1949728 -1.514744,2.0779815 -0.48634,-0.019846 -1.144632,-0.9666308 -1.144632,-2.0779815 0,-1.1113493 0.5957,-2.0133157 1.329688,-2.0133157 0.733986,0 1.329688,0.9019664 1.329688,2.0133157 z" />
    <path
       id="path2212"
       style="fill:#571e00;fill-opacity:0.32203393;stroke:none"
       d="m -8.07165,5.7992842 c 0,1.0362595 -0.646398,1.877282 -1.442852,1.877282 -0.796455,0 -1.442853,-0.8410225 -1.442853,-1.877282 0,-1.0362594 0.646398,-1.8772819 1.442853,-1.8772819 0.796454,0 1.442852,0.8410225 1.442852,1.8772819 z" />
    <path
       id="path2198"
       style="fill:#ffffff;fill-opacity:1;stroke:none"
       d="m -9.385293,4.0437722 c -0.699347,0.068319 -1.249339,0.9655447 -1.338203,2.091851 -0.295591,-0.6101668 -0.741288,-0.9955955 -1.196453,-0.9493659 -0.698473,0.070946 -1.151385,1.1222583 -1.010827,2.3466373 0.08144,0.7093815 0.34752,1.3147619 0.690198,1.6910087 0.486945,-0.3781591 1.104402,-0.7021057 1.812396,-0.9380066 0.01409,-0.083977 0.02766,-0.1693191 0.03544,-0.2580323 0.038,0.076568 0.08526,0.1377381 0.128253,0.2061016 0.327849,-0.10093 0.671631,-0.1852022 1.031075,-0.24505 0.38493,-0.064094 0.762075,-0.095703 1.128952,-0.1038617 C -7.922659,7.4485985 -7.820092,6.9140534 -7.842895,6.33848 -7.89616,4.9941596 -8.587908,3.9658805 -9.385291,4.0437736 z" />
    <path
       id="path2944"
       style="fill:#000000;fill-opacity:1;stroke:none"
       d="m -9.055078,6.4546794 a 0.34793659,0.64530417 0 0 1 -0.695873,0 0.34793659,0.64530417 0 1 1 0.695873,0 z" />
    <path
       id="rect2946"
       style="fill:url(#linearGradient3784);fill-opacity:1;stroke:none"
       d="m -7.881718,8.8372718 c -0.27339,0.3768622 -0.847613,0.6635627 -1.804089,1.1092305 1.09073,-0.2425782 1.069609,-0.00774 1.104571,0.3425377 0.238521,-0.3478702 0.552103,-0.8922802 0.699518,-1.4517682 z m -2.297868,1.3083232 c -1.011725,0.31314 -1.456854,0.385986 -1.879957,0.253503 0.216093,0.432021 0.563442,0.790913 0.957981,0.967021 -0.165518,-0.35375 -0.164891,-0.674073 0.921976,-1.220524 z" />
    <path
       id="path8632"
       style="fill:#000000;fill-opacity:1;stroke:none"
       d="m -11.280314,7.0047308 a 0.3479364,0.64530381 0 0 1 -0.695873,0 0.3479364,0.64530381 0 1 1 0.695873,0 z" />
    <path
       style="opacity:0.15;fill:#d35f5f;stroke:none"
       d="m 15.343691,11.693169 c -0.05138,-2.49e-4 -0.109455,0.0077 -0.166019,0.0168 -1.395263,0.36265 -2.256249,3.772957 -3.425252,3.772957 C 9.6299508,15.73698 8.1698867,12.541871 8.1698867,12.541871 l -0.1048547,0.10924 c 1.0086631,2.311208 2.223153,4.227759 3.145639,4.209909 1.808966,0.272359 2.655739,-2.730475 3.984476,-4.092267 0.460911,-0.26584 1.403632,3.789759 4.045641,3.789759 0.730368,0.05006 1.460178,-0.164233 1.607771,-0.72266 L 20.647587,15.18882 c -4.493356,0.843152 -3.711393,-3.487968 -5.303896,-3.495652 z"
       id="path3968"
       sodipodi:nodetypes="ccccccccccc" />
    <path
       style="opacity:0.3;fill:#d35f5f;stroke:none"
       d="m 15.343691,12.230962 c -0.05138,-2.48e-4 -0.109455,0.0077 -0.166019,0.0168 -1.395263,0.362646 -2.256249,3.772953 -3.425252,3.772953 -1.311701,0.157006 -2.3709215,-0.998089 -2.9883566,-1.907485 0.8354099,1.599192 1.7294806,2.761663 2.4466076,2.747786 1.808966,0.272359 2.655739,-2.730475 3.984476,-4.092267 0.460911,-0.26584 1.403632,3.789759 4.045641,3.789759 0.627091,0.04299 1.253429,-0.106941 1.511654,-0.504181 l -0.104855,-0.327714 c -4.493356,0.843153 -3.711393,-3.487967 -5.303896,-3.495652 z"
       id="path3977" />
    <path
       sodipodi:type="arc"
       style="color:#000000;fill:#ffffff;fill-opacity:1;fill-rule:nonzero;stroke:#de8787;stroke-width:0.42234689;marker:none;visibility:visible;display:inline;overflow:visible;enable-background:accumulate"
       id="path3802"
       sodipodi:cx="11.259635"
       sodipodi:cy="9.2053633"
       sodipodi:rx="1.4401859"
       sodipodi:ry="2.0948157"
       d="m 12.699821,9.2053633 c 0,1.1569347 -0.644793,2.0948157 -1.440186,2.0948157 -0.795393,0 -1.4401859,-0.937881 -1.4401859,-2.0948157 0,-1.1569348 0.6447929,-2.0948158 1.4401859,-2.0948158 0.795393,0 1.440186,0.937881 1.440186,2.0948158 z"
       transform="matrix(1.1136364,0,0,1.2585139,-1.6395504,-5.3932397)" />
    <path
       transform="matrix(1.0802937,0,0,1.1079883,-3.9655498,-3.5082162)"
       d="m 12.699821,9.2053633 c 0,1.1569347 -0.644793,2.0948157 -1.440186,2.0948157 -0.795393,0 -1.4401859,-0.937881 -1.4401859,-2.0948157 0,-1.1569348 0.6447929,-2.0948158 1.4401859,-2.0948158 0.795393,0 1.440186,0.937881 1.440186,2.0948158 z"
       sodipodi:ry="2.0948157"
       sodipodi:rx="1.4401859"
       sodipodi:cy="9.2053633"
       sodipodi:cx="11.259635"
       id="path3804"
       style="color:#000000;fill:#ffffff;fill-opacity:1;fill-rule:nonzero;stroke:#de8787;stroke-width:0.45701611;marker:none;visibility:visible;display:inline;overflow:visible;enable-background:accumulate"
       sodipodi:type="arc" />
    <path
       sodipodi:type="arc"
       style="color:#000000;fill:#000000;fill-opacity:1;fill-rule:nonzero;stroke:none;stroke-width:0.5;marker:none;visibility:visible;display:inline;overflow:visible;enable-background:accumulate"
       id="path3806"
       sodipodi:cx="8.3137999"
       sodipodi:cy="9.6636047"
       sodipodi:rx="0.32731497"
       sodipodi:ry="0.58916694"
       d="m 8.6411148,9.6636047 c 0,0.325388 -0.1465439,0.5891673 -0.3273149,0.5891673 -0.1807711,0 -0.327315,-0.2637793 -0.327315,-0.5891673 0,-0.3253879 0.1465439,-0.5891669 0.327315,-0.5891669 0.180771,0 0.3273149,0.263779 0.3273149,0.5891669 z"
       transform="matrix(1.4023942,0,0,1.2794405,-3.2137155,-5.8650391)" />
    <path
       transform="matrix(1.4023942,0,0,1.2794405,-1.0075787,-5.8979665)"
       d="m 8.6411148,9.6636047 c 0,0.325388 -0.1465439,0.5891673 -0.3273149,0.5891673 -0.1807711,0 -0.327315,-0.2637793 -0.327315,-0.5891673 0,-0.3253879 0.1465439,-0.5891669 0.327315,-0.5891669 0.180771,0 0.3273149,0.263779 0.3273149,0.5891669 z"
       sodipodi:ry="0.58916694"
       sodipodi:rx="0.32731497"
       sodipodi:cy="9.6636047"
       sodipodi:cx="8.3137999"
       id="path3808"
       style="color:#000000;fill:#000000;fill-opacity:1;fill-rule:nonzero;stroke:none;stroke-width:0.5;marker:none;visibility:visible;display:inline;overflow:visible;enable-background:accumulate"
       sodipodi:type="arc" />
  </g>
</svg>
