<?xml version="1.0" encoding="UTF-8" standalone="no"?>
<!-- Created with Inkscape (http://www.inkscape.org/) -->

<svg
   xmlns:dc="http://purl.org/dc/elements/1.1/"
   xmlns:cc="http://creativecommons.org/ns#"
   xmlns:rdf="http://www.w3.org/1999/02/22-rdf-syntax-ns#"
   xmlns:svg="http://www.w3.org/2000/svg"
   xmlns="http://www.w3.org/2000/svg"
   xmlns:xlink="http://www.w3.org/1999/xlink"
   xmlns:sodipodi="http://sodipodi.sourceforge.net/DTD/sodipodi-0.dtd"
   xmlns:inkscape="http://www.inkscape.org/namespaces/inkscape"
   width="24"
   height="24"
   id="svg2"
   sodipodi:version="0.32"
   inkscape:version="0.48.0 r9654"
   version="1.0"
   sodipodi:docname="gnome-sudoku.svg"
   inkscape:output_extension="org.inkscape.output.svg.inkscape"
   style="display:inline">
  <defs
     id="defs4">
    <linearGradient
       inkscape:collect="always"
       id="linearGradient3327">
      <stop
         style="stop-color:#000000;stop-opacity:1;"
         offset="0"
         id="stop3330" />
      <stop
         style="stop-color:#000000;stop-opacity:0;"
         offset="1"
         id="stop3333" />
    </linearGradient>
    <linearGradient
       inkscape:collect="always"
       xlink:href="#linearGradient3327"
       id="linearGradient3335"
       x1="11.375"
       y1="22"
       x2="11.375"
       y2="-9.817296"
       gradientUnits="userSpaceOnUse" />
    <linearGradient
       inkscape:collect="always"
       xlink:href="#linearGradient3700"
       id="linearGradient3181"
       x1="-3.0607977"
       y1="27.258198"
       x2="-3.0607977"
       y2="7.2536583"
       gradientUnits="userSpaceOnUse"
       gradientTransform="translate(12.119372,-7.2581977)" />
    <inkscape:perspective
       sodipodi:type="inkscape:persp3d"
       inkscape:vp_x="0 : 11 : 1"
       inkscape:vp_y="0 : 1000 : 0"
       inkscape:vp_z="22 : 11 : 1"
       inkscape:persp3d-origin="11 : 7.3333333 : 1"
       id="perspective2531" />
    <linearGradient
       id="ButtonShadow"
       gradientTransform="scale(0.9883037,1.0118347)"
       x1="9.3550024"
       y1="21.742682"
       x2="9.3550024"
       y2="0.49362123"
       gradientUnits="userSpaceOnUse">
      <stop
         id="stop3277"
         offset="0"
         style="stop-color:#000000;stop-opacity:0.70588237;" />
      <stop
         id="stop3279"
         offset="1"
         style="stop-color:#000000;stop-opacity:0.15686275;" />
    </linearGradient>
    <linearGradient
       inkscape:collect="always"
       id="linearGradient3232">
      <stop
         style="stop-color:#000000;stop-opacity:1;"
         offset="0"
         id="stop3234" />
      <stop
         style="stop-color:#000000;stop-opacity:0;"
         offset="1"
         id="stop3236" />
    </linearGradient>
    <linearGradient
       gradientUnits="userSpaceOnUse"
       y2="-6.0004225"
       x2="11"
       y1="14.805666"
       x1="11"
       id="linearGradient3221"
       xlink:href="#linearGradient3232"
       inkscape:collect="always" />
    <linearGradient
       id="ButtonColor"
       x1="10.31979"
       y1="21"
       x2="10.31979"
       y2="0.99929649"
       gradientUnits="userSpaceOnUse">
      <stop
         style="stop-color:#29669f;stop-opacity:1;"
         offset="0"
         id="stop3189" />
      <stop
         style="stop-color:#88b6e0;stop-opacity:1;"
         offset="1"
         id="stop3191" />
    </linearGradient>
    <linearGradient
       inkscape:collect="always"
       xlink:href="#ButtonShadow"
       id="linearGradient38042"
       gradientUnits="userSpaceOnUse"
       gradientTransform="scale(0.9883037,1.0118347)"
       x1="9.3550024"
       y1="21.742682"
       x2="9.3550024"
       y2="0.49362123" />
    <filter
       inkscape:collect="always"
       id="filter3194"
       x="-0.18000001"
       width="1.36"
       y="-0.18000001"
       height="1.36"
       color-interpolation-filters="sRGB">
      <feGaussianBlur
         inkscape:collect="always"
         stdDeviation="1.2"
         id="feGaussianBlur3196" />
    </filter>
    <clipPath
       clipPathUnits="userSpaceOnUse"
       id="clipPath2849">
      <rect
         ry="2"
         rx="2"
         y="1"
         x="1"
         height="20"
         width="20"
         id="rect2851"
         style="fill:#ffffff;fill-opacity:1;fill-rule:evenodd;stroke:none;display:inline" />
    </clipPath>
    <inkscape:perspective
       id="perspective3834"
       inkscape:persp3d-origin="0.5 : 0.33333333 : 1"
       inkscape:vp_z="1 : 0.5 : 1"
       inkscape:vp_y="0 : 1000 : 0"
       inkscape:vp_x="0 : 0.5 : 1"
       sodipodi:type="inkscape:persp3d" />
    <linearGradient
       inkscape:collect="always"
       xlink:href="#linearGradient3700"
       id="linearGradient3617"
       gradientUnits="userSpaceOnUse"
       x1="48"
       y1="90"
       x2="48"
       y2="5.9877172" />
    <linearGradient
       id="linearGradient3700">
      <stop
         style="stop-color:#48914f;stop-opacity:1;"
         offset="0"
         id="stop3702" />
      <stop
         style="stop-color:#78cc80;stop-opacity:1;"
         offset="1"
         id="stop3704" />
    </linearGradient>
    <linearGradient
       gradientTransform="translate(-66,-34)"
       y2="5.9877172"
       x2="48"
       y1="90"
       x1="48"
       gradientUnits="userSpaceOnUse"
       id="linearGradient3843"
       xlink:href="#linearGradient3700"
       inkscape:collect="always" />
    <linearGradient
       y2="16"
       x2="10"
       y1="1"
       x1="10"
       gradientUnits="userSpaceOnUse"
       id="linearGradient3078"
       xlink:href="#linearGradient3823"
       inkscape:collect="always"
       gradientTransform="translate(1,-1)" />
    <linearGradient
       id="linearGradient3823">
      <stop
         id="stop3825"
         offset="0"
         style="stop-color:#ffffff;stop-opacity:1;" />
      <stop
         id="stop3829"
         offset="1"
         style="stop-color:#ffffff;stop-opacity:0;" />
    </linearGradient>
    <linearGradient
       inkscape:collect="always"
       xlink:href="#linearGradient3831"
       id="linearGradient3845"
       x1="11"
       y1="19.5"
       x2="21"
       y2="19.5"
       gradientUnits="userSpaceOnUse"
       spreadMethod="reflect"
       gradientTransform="translate(1,-1)" />
    <linearGradient
       id="linearGradient3831">
      <stop
         style="stop-color:#ffffff;stop-opacity:1;"
         offset="0"
         id="stop3833" />
      <stop
         id="stop3821"
         offset="0.75"
         style="stop-color:#ffffff;stop-opacity:0.49803922;" />
      <stop
         style="stop-color:#ffffff;stop-opacity:0;"
         offset="1"
         id="stop3835" />
    </linearGradient>
    <linearGradient
       y2="16"
       x2="10"
       y1="1"
       x1="10"
       gradientTransform="translate(1,-1)"
       gradientUnits="userSpaceOnUse"
       id="linearGradient3961"
       xlink:href="#linearGradient3823"
       inkscape:collect="always" />
  </defs>
  <sodipodi:namedview
     id="base"
     pagecolor="#ffffff"
     bordercolor="#e7e7e7"
     borderopacity="1"
     inkscape:pageopacity="0.0"
     inkscape:pageshadow="2"
     inkscape:zoom="24.339057"
     inkscape:cx="-10.982087"
     inkscape:cy="10.996101"
     inkscape:document-units="px"
     inkscape:current-layer="layer1"
     showgrid="true"
     inkscape:showpageshadow="false"
     showguides="false"
     inkscape:guide-bbox="true"
     inkscape:window-width="1920"
     inkscape:window-height="1026"
     inkscape:window-x="0"
     inkscape:window-y="25"
     inkscape:window-maximized="1">
    <sodipodi:guide
       orientation="1,0"
       position="0,112"
       id="guide2383" />
    <sodipodi:guide
       orientation="0,1"
       position="26.278146,128"
       id="guide2385" />
    <sodipodi:guide
       orientation="1,0"
       position="128,54.082119"
       id="guide2387" />
    <sodipodi:guide
       orientation="0,1"
       position="78.156291,0"
       id="guide2389" />
    <sodipodi:guide
       orientation="0,1"
       position="60.863576,64.084768"
       id="guide2391" />
    <inkscape:grid
       type="xygrid"
       id="grid3672"
       visible="true"
       enabled="true"
       empspacing="8"
       snapvisiblegridlinesonly="true" />
  </sodipodi:namedview>
  <metadata
     id="metadata7">
    <rdf:RDF>
      <cc:Work
         rdf:about="">
        <dc:format>image/svg+xml</dc:format>
        <dc:type
           rdf:resource="http://purl.org/dc/dcmitype/StillImage" />
        <dc:title />
      </cc:Work>
    </rdf:RDF>
  </metadata>
  <g
     inkscape:label="Button"
     inkscape:groupmode="layer"
     id="layer1"
     transform="translate(0,2)">
    <g
       style="display:inline"
       id="g3337"
       transform="translate(1,-1)">
      <rect
         ry="2.5"
         rx="2.5"
         y="0.5"
         x="0.5"
         height="21.5"
         width="21"
         id="rect3371"
         style="opacity:0.3;fill:url(#linearGradient3335);fill-opacity:1;stroke:none;display:inline" />
      <rect
         style="opacity:0.5;fill:#000000;fill-opacity:1;stroke:none;display:inline"
         id="rect2553"
         width="20"
         height="20"
         x="1"
         y="2"
         rx="2.3809524"
         ry="2.3255813" />
    </g>
    <rect
       style="fill:url(#linearGradient3181);fill-opacity:1;fill-rule:evenodd;stroke:none;display:inline"
       id="rect3173"
       width="20"
       height="20"
       x="2"
       y="0"
       rx="2"
       ry="2" />
    <path
       style="opacity:0.35;fill:url(#linearGradient3961);fill-opacity:1;fill-rule:evenodd;stroke:none;display:inline"
       d="M 4,0 C 2.892,0 2,0.892 2,2 l 0,16 c 0,1.108 0.892,2 2,2 l 16,0 c 1.108,0 2,-0.892 2,-2 L 22,2 C 22,0.892 21.108,0 20,0 L 4,0 z m 0,1.03125 16,0 c 0.5497,0 0.96875,0.4190495 0.96875,0.96875 l 0,16 c 0,0.5497 -0.41905,0.96875 -0.96875,0.96875 l -16,0 C 3.4502995,18.96875 3.03125,18.5497 3.03125,18 l 0,-16 C 3.03125,1.4502995 3.4502995,1.03125 4,1.03125 z"
       id="rect3050"
       inkscape:connector-curvature="0" />
    <path
       id="path3235"
       d="M 4,20 C 2.892,20 2,19.108 2,18 l 0,-1 c 0,1.108 0.892,2 2,2 l 16,0 c 1.108,0 2,-0.892 2,-2 l 0,1 c 0,1.108 -0.892,2 -2,2 L 4,20 z"
       style="opacity:0.2;fill:url(#linearGradient3845);fill-opacity:1;fill-rule:evenodd;stroke:none;display:inline"
       inkscape:connector-curvature="0" />
  </g>
  <g
     inkscape:groupmode="layer"
     id="layer2"
     inkscape:label="Highlight"
     transform="translate(0,2)"
     sodipodi:insensitive="true">
    <rect
       style="opacity:0.15;fill:#ffffff;fill-opacity:1;fill-rule:nonzero;stroke:none;display:inline;filter:url(#filter3194)"
       id="rect2410"
       width="16"
       height="16"
       x="3"
       y="3"
       rx="2"
       ry="2"
       clip-path="url(#clipPath2849)"
       transform="translate(1,-1)" />
  </g>
  <g
     inkscape:groupmode="layer"
     id="layer3"
     inkscape:label="Grid"
     transform="translate(0,2)"
     sodipodi:insensitive="true">
    <path
       sodipodi:type="inkscape:offset"
       inkscape:radius="0.62839156"
       inkscape:original="M 4.5 4 C 4.223 4 4 4.223 4 4.5 L 4 7.5 C 4 7.777 4.223 8 4.5 8 L 7.5 8 C 7.777 8 8 7.777 8 7.5 L 8 4.5 C 8 4.223 7.777 4 7.5 4 L 4.5 4 z M 10.5 4 C 10.223 4 10 4.223 10 4.5 L 10 7.5 C 10 7.777 10.223 8 10.5 8 L 13.5 8 C 13.777 8 14 7.777 14 7.5 L 14 4.5 C 14 4.223 13.777 4 13.5 4 L 10.5 4 z M 16.5 4 C 16.223 4 16 4.223 16 4.5 L 16 7.5 C 16 7.777 16.223 8 16.5 8 L 19.5 8 C 19.777 8 20 7.777 20 7.5 L 20 4.5 C 20 4.223 19.777 4 19.5 4 L 16.5 4 z M 4.5 10 C 4.223 10 4 10.223 4 10.5 L 4 13.5 C 4 13.777 4.223 14 4.5 14 L 7.5 14 C 7.777 14 8 13.777 8 13.5 L 8 10.5 C 8 10.223 7.777 10 7.5 10 L 4.5 10 z M 10.5 10 C 10.223 10 10 10.223 10 10.5 L 10 13.5 C 10 13.777 10.223 14 10.5 14 L 13.5 14 C 13.777 14 14 13.777 14 13.5 L 14 10.5 C 14 10.223 13.777 10 13.5 10 L 10.5 10 z M 16.5 10 C 16.223 10 16 10.223 16 10.5 L 16 13.5 C 16 13.777 16.223 14 16.5 14 L 19.5 14 C 19.777 14 20 13.777 20 13.5 L 20 10.5 C 20 10.223 19.777 10 19.5 10 L 16.5 10 z M 4.5 16 C 4.223 16 4 16.223 4 16.5 L 4 19.5 C 4 19.777 4.223 20 4.5 20 L 7.5 20 C 7.777 20 8 19.777 8 19.5 L 8 16.5 C 8 16.223 7.777 16 7.5 16 L 4.5 16 z M 10.5 16 C 10.223 16 10 16.223 10 16.5 L 10 19.5 C 10 19.777 10.223 20 10.5 20 L 13.5 20 C 13.777 20 14 19.777 14 19.5 L 14 16.5 C 14 16.223 13.777 16 13.5 16 L 10.5 16 z M 16.5 16 C 16.223 16 16 16.223 16 16.5 L 16 19.5 C 16 19.777 16.223 20 16.5 20 L 19.5 20 C 19.777 20 20 19.777 20 19.5 L 20 16.5 C 20 16.223 19.777 16 19.5 16 L 16.5 16 z "
       style="opacity:0.5;color:#000000;fill:#376e3c;fill-opacity:1;fill-rule:nonzero;stroke:none;stroke-width:1.5;marker:none;visibility:visible;display:inline;overflow:visible;enable-background:accumulate"
       id="path3716"
       d="M 4.5,3.375 C 3.8857405,3.375 3.375,3.8857405 3.375,4.5 l 0,3 c 0,0.6142595 0.5107405,1.125 1.125,1.125 l 3,0 c 0.6142595,0 1.125,-0.5107405 1.125,-1.125 l 0,-3 C 8.625,3.8857405 8.1142595,3.375 7.5,3.375 l -3,0 z m 6,0 C 9.8857405,3.375 9.375,3.8857405 9.375,4.5 l 0,3 c 0,0.6142595 0.5107405,1.125 1.125,1.125 l 3,0 c 0.614259,0 1.125,-0.5107405 1.125,-1.125 l 0,-3 c 0,-0.6142595 -0.510741,-1.125 -1.125,-1.125 l -3,0 z m 6,0 c -0.614259,0 -1.125,0.5107405 -1.125,1.125 l 0,3 c 0,0.6142595 0.510741,1.125 1.125,1.125 l 3,0 c 0.614259,0 1.125,-0.5107405 1.125,-1.125 l 0,-3 c 0,-0.6142595 -0.510741,-1.125 -1.125,-1.125 l -3,0 z m -12,6 c -0.6142595,0 -1.125,0.5107405 -1.125,1.125 l 0,3 c 0,0.614259 0.5107405,1.125 1.125,1.125 l 3,0 c 0.6142595,0 1.125,-0.510741 1.125,-1.125 l 0,-3 C 8.625,9.8857405 8.1142595,9.375 7.5,9.375 l -3,0 z m 6,0 c -0.6142595,0 -1.125,0.5107405 -1.125,1.125 l 0,3 c 0,0.614259 0.5107405,1.125 1.125,1.125 l 3,0 c 0.614259,0 1.125,-0.510741 1.125,-1.125 l 0,-3 c 0,-0.6142595 -0.510741,-1.125 -1.125,-1.125 l -3,0 z m 6,0 c -0.614259,0 -1.125,0.5107405 -1.125,1.125 l 0,3 c 0,0.614259 0.510741,1.125 1.125,1.125 l 3,0 c 0.614259,0 1.125,-0.510741 1.125,-1.125 l 0,-3 c 0,-0.6142595 -0.510741,-1.125 -1.125,-1.125 l -3,0 z m -12,6 c -0.6142595,0 -1.125,0.510741 -1.125,1.125 l 0,3 c 0,0.614259 0.5107405,1.125 1.125,1.125 l 3,0 c 0.6142595,0 1.125,-0.510741 1.125,-1.125 l 0,-3 c 0,-0.614259 -0.5107405,-1.125 -1.125,-1.125 l -3,0 z m 6,0 c -0.6142595,0 -1.125,0.510741 -1.125,1.125 l 0,3 c 0,0.614259 0.5107405,1.125 1.125,1.125 l 3,0 c 0.614259,0 1.125,-0.510741 1.125,-1.125 l 0,-3 c 0,-0.614259 -0.510741,-1.125 -1.125,-1.125 l -3,0 z m 6,0 c -0.614259,0 -1.125,0.510741 -1.125,1.125 l 0,3 c 0,0.614259 0.510741,1.125 1.125,1.125 l 3,0 c 0.614259,0 1.125,-0.510741 1.125,-1.125 l 0,-3 c 0,-0.614259 -0.510741,-1.125 -1.125,-1.125 l -3,0 z"
       transform="translate(0,-2)" />
    <rect
       style="opacity:0.8;color:#000000;fill:#ffffff;fill-opacity:1;fill-rule:nonzero;stroke:none;stroke-width:1.5;marker:none;visibility:visible;display:inline;overflow:visible;enable-background:accumulate"
       id="rect3659"
       width="4"
       height="4"
       x="4"
       y="2"
       rx="0.5"
       ry="0.5" />
    <rect
       y="2"
       x="10"
       height="4"
       width="4"
       id="rect3681"
       style="opacity:0.8;color:#000000;fill:#ffffff;fill-opacity:1;fill-rule:nonzero;stroke:none;stroke-width:1.5;marker:none;visibility:visible;display:inline;overflow:visible;enable-background:accumulate"
       rx="0.5"
       ry="0.5" />
    <rect
       style="color:#000000;fill:#ffffff;fill-opacity:1;fill-rule:nonzero;stroke:none;stroke-width:1.5;marker:none;visibility:visible;display:inline;overflow:visible;enable-background:accumulate"
       id="rect3683"
       width="4"
       height="4"
       x="16"
       y="2"
       rx="0.5"
       ry="0.5" />
    <rect
       y="8"
       x="4"
       height="4"
       width="4"
       id="rect3685"
       style="opacity:0.8;color:#000000;fill:#ffffff;fill-opacity:1;fill-rule:nonzero;stroke:none;stroke-width:1.5;marker:none;visibility:visible;display:inline;overflow:visible;enable-background:accumulate"
       rx="0.5"
       ry="0.5" />
    <rect
       style="color:#000000;fill:#ffffff;fill-opacity:1;fill-rule:nonzero;stroke:none;stroke-width:1.5;marker:none;visibility:visible;display:inline;overflow:visible;enable-background:accumulate"
       id="rect3687"
       width="4"
       height="4"
       x="10"
       y="8"
       rx="0.5"
       ry="0.5" />
    <rect
       y="8"
       x="16"
       height="4"
       width="4"
       id="rect3689"
       style="color:#000000;fill:#ffffff;fill-opacity:1;fill-rule:nonzero;stroke:none;stroke-width:1.5;marker:none;visibility:visible;display:inline;overflow:visible;enable-background:accumulate"
       rx="0.5"
       ry="0.5" />
    <rect
       style="color:#000000;fill:#ffffff;fill-opacity:1;fill-rule:nonzero;stroke:none;stroke-width:1.5;marker:none;visibility:visible;display:inline;overflow:visible;enable-background:accumulate"
       id="rect3691"
       width="4"
       height="4"
       x="4"
       y="14"
       rx="0.5"
       ry="0.5" />
    <rect
       y="14"
       x="10"
       height="4"
       width="4"
       id="rect3693"
       style="opacity:0.8;color:#000000;fill:#ffffff;fill-opacity:1;fill-rule:nonzero;stroke:none;stroke-width:1.5;marker:none;visibility:visible;display:inline;overflow:visible;enable-background:accumulate"
       rx="0.5"
       ry="0.5" />
    <rect
       style="opacity:0.8;color:#000000;fill:#ffffff;fill-opacity:1;fill-rule:nonzero;stroke:none;stroke-width:1.5;marker:none;visibility:visible;display:inline;overflow:visible;enable-background:accumulate"
       id="rect3695"
       width="4"
       height="4"
       x="16"
       y="14"
       rx="0.5"
       ry="0.5" />
    <g
       style="font-size:2.86634016px;font-style:normal;font-variant:normal;font-weight:bold;font-stretch:normal;text-align:center;line-height:125%;writing-mode:lr-tb;text-anchor:middle;fill:#337738;fill-opacity:1;stroke:none;font-family:Liberation Sans;-inkscape-font-specification:Abandoned Bitplane Bold"
       id="text3718">
      <path
         d="M 6.713086,4.3156051 C 6.7130845,4.4145091 6.697223,4.5059485 6.6655,4.5899228 6.634708,4.6729648 6.588522,4.7452765 6.5269415,4.8068578 6.4653585,4.8675058 6.3888484,4.915092 6.2974104,4.9496149 c -0.090507,0.03359 -0.1954756,0.050385 -0.3149055,0.050385 -0.110101,0 -0.2062054,-0.013063 -0.2883135,-0.039188 C 5.6120825,4.9337531 5.5425701,4.8968975 5.4856542,4.8502448 5.4296708,4.8026592 5.3853508,4.7471426 5.3526941,4.6836947 5.3209702,4.6202474 5.2990434,4.5521346 5.2869138,4.479356 l 0.3932821,-0.03219 c 0.00746,0.030791 0.017727,0.060649 0.030791,0.089573 0.013995,0.028925 0.033123,0.054584 0.057383,0.076977 0.024259,0.022394 0.054117,0.040588 0.089573,0.054584 0.035455,0.013063 0.078376,0.019594 0.1287614,0.019594 0.09797,2e-7 0.1758796,-0.031257 0.2337299,-0.093772 0.058781,-0.062514 0.088172,-0.1525537 0.088173,-0.270119 -1.1e-6,-0.05225 -0.00747,-0.099369 -0.022393,-0.1413576 C 6.2722172,4.1406584 6.25169,4.1047359 6.2246325,4.0748773 6.198506,4.0450206 6.1658492,4.0221608 6.1266619,4.0062979 6.0884058,3.990437 6.0445524,3.982506 5.9951014,3.9825051 c -0.065315,9e-7 -0.118965,0.012597 -0.1609517,0.037789 -0.041988,0.02426 -0.077444,0.054118 -0.1063681,0.089573 l -0.383485,0 L 5.4128756,3 6.59832,3 l 0,0.2925122 -0.8285514,0 -0.03219,0.4982506 c 0.039188,-0.034522 0.08864,-0.063913 0.1483555,-0.088174 0.059715,-0.025191 0.1292271,-0.037787 0.2085375,-0.037789 0.097036,1.3e-6 0.1838104,0.015863 0.2603219,0.047586 0.076509,0.031725 0.1413563,0.076045 0.1945416,0.1329601 0.053183,0.056917 0.09377,0.1254967 0.1217635,0.2057383 0.02799,0.07931 0.041986,0.1674838 0.041987,0.2645206"
         style="fill:#337738;fill-opacity:1"
         id="path3745"
         inkscape:connector-curvature="0" />
    </g>
    <g
       style="font-size:2.86634016px;font-style:normal;font-variant:normal;font-weight:bold;font-stretch:normal;text-align:center;line-height:125%;writing-mode:lr-tb;text-anchor:middle;fill:#337738;fill-opacity:1;stroke:none;font-family:Liberation Sans;-inkscape-font-specification:Abandoned Bitplane Bold"
       id="text3722">
      <path
         d="m 12.689293,4.4247724 c -10e-7,0.089574 -0.01493,0.1702826 -0.04479,0.2421274 -0.02893,0.070912 -0.07278,0.1315607 -0.131561,0.1819454 -0.05878,0.050385 -0.132028,0.089107 -0.219734,0.1161651 -0.08678,0.026126 -0.188011,0.039188 -0.303709,0.039188 -0.128762,-10e-8 -0.237463,-0.016328 -0.326102,-0.048985 C 11.575687,4.9225563 11.503378,4.8796363 11.446462,4.8264519 11.390482,4.7723349 11.348022,4.7112201 11.3191,4.6431069 11.29111,4.5749939 11.27291,4.5059485 11.26452,4.435969 l 0.400279,-0.03499 c 0.0056,0.041988 0.01586,0.08071 0.03079,0.1161652 0.01586,0.034523 0.03685,0.064381 0.06298,0.089573 0.02613,0.025193 0.05785,0.044787 0.09517,0.058782 0.03825,0.013063 0.08304,0.019594 0.134359,0.019594 0.09424,3e-7 0.167483,-0.023326 0.219735,-0.069979 0.05225,-0.046652 0.07837,-0.1180308 0.07838,-0.2141358 -10e-7,-0.058782 -0.0126,-0.1059009 -0.03779,-0.1413576 -0.02426,-0.035455 -0.05552,-0.062514 -0.09377,-0.081176 -0.03732,-0.019593 -0.07791,-0.032656 -0.121764,-0.039188 -0.04385,-0.00653 -0.08538,-0.0098 -0.124563,-0.0098 l -0.137158,0 0,-0.3177047 0.128761,0 c 0.03919,1.1e-6 0.07884,-0.00373 0.118964,-0.011197 0.04105,-0.00746 0.07791,-0.020993 0.110567,-0.040588 0.03266,-0.019593 0.05925,-0.046651 0.07978,-0.081176 0.02053,-0.035455 0.03079,-0.080241 0.03079,-0.1343597 -1e-6,-0.081174 -0.02286,-0.1446217 -0.06858,-0.1903429 -0.04479,-0.046651 -0.110567,-0.069977 -0.19734,-0.069979 -0.08118,1.6e-6 -0.146957,0.022395 -0.197341,0.06718 -0.04945,0.044788 -0.07791,0.1082357 -0.08537,0.1903429 L 11.29811,3.5136457 c 0.0112,-0.092371 0.03639,-0.1726132 0.07558,-0.2407278 0.04012,-0.068111 0.09004,-0.1245608 0.149755,-0.1693492 0.06065,-0.044785 0.13016,-0.077908 0.208537,-0.09937 0.07838,-0.022391 0.161418,-0.033588 0.249126,-0.03359 0.115697,2e-6 0.215067,0.013998 0.29811,0.041987 0.08304,0.027994 0.151154,0.065782 0.204339,0.113366 0.05318,0.047588 0.09237,0.1031041 0.117565,0.16655 0.02519,0.063449 0.03779,0.1310956 0.03779,0.2029392 -10e-7,0.057851 -0.0084,0.1119677 -0.02519,0.1623513 -0.0168,0.049453 -0.04246,0.09424 -0.07698,0.1343597 -0.03359,0.039189 -0.07698,0.073246 -0.130161,0.1021693 -0.05318,0.027993 -0.116166,0.048986 -0.188943,0.062981 l 0,0.0056 c 0.08117,0.00933 0.15162,0.027993 0.211336,0.055983 0.05971,0.02706 0.1087,0.061116 0.146956,0.1021694 0.03825,0.041055 0.06671,0.087708 0.08537,0.139958 0.01866,0.051319 0.02799,0.1059022 0.02799,0.1637509"
         style="fill:#337738;fill-opacity:1"
         id="path3748"
         inkscape:connector-curvature="0" />
    </g>
    <g
       style="font-size:2.86634016px;font-style:normal;font-variant:normal;font-weight:bold;font-stretch:normal;text-align:center;line-height:125%;writing-mode:lr-tb;text-anchor:middle;fill:#337738;fill-opacity:1;stroke:none;font-family:Liberation Sans;-inkscape-font-specification:Abandoned Bitplane Bold"
       id="text3726">
      <path
         d="m 6.6892931,10.326801 c -1.4e-6,0.09891 -0.013997,0.189877 -0.041987,0.272918 -0.027993,0.08211 -0.06998,0.153021 -0.1259622,0.212737 -0.055051,0.05878 -0.1240973,0.104968 -0.2071378,0.138558 -0.083043,0.03266 -0.1791472,0.04899 -0.2883135,0.04899 -0.2323309,0 -0.4110105,-0.08118 -0.5360392,-0.243527 C 5.3657567,10.593188 5.3037087,10.351528 5.3037088,10.03149 5.3037087,9.67973 5.3666897,9.4152096 5.4926521,9.2379279 5.619547,9.0597166 5.8005591,8.9706101 6.0356892,8.9706081 c 0.078376,2e-6 0.1497541,0.0084 0.2141358,0.025193 0.064379,0.015864 0.1217623,0.041989 0.1721483,0.078376 0.050384,0.036391 0.093304,0.08351 0.1287614,0.1413576 0.035455,0.056918 0.063913,0.1264303 0.085374,0.2085374 L 6.2652204,9.4758566 C 6.2465582,9.4068122 6.216234,9.3573604 6.1742476,9.3275011 6.1322593,9.296712 6.0832741,9.2813166 6.0272917,9.2813149 c -0.1054357,1.7e-6 -0.1884774,0.052719 -0.2491252,0.1581526 -0.059716,0.1054364 -0.089574,0.265455 -0.089573,0.480056 0.041987,-0.069978 0.1003027,-0.1236284 0.1749476,-0.1609517 0.074643,-0.037321 0.1590847,-0.055982 0.253324,-0.055983 0.086773,1.3e-6 0.1651493,0.014464 0.2351294,0.043387 0.070911,0.027993 0.1310928,0.069047 0.1805459,0.1231631 0.050384,0.053185 0.089105,0.1184988 0.1161651,0.1959411 0.027057,0.07744 0.040586,0.164684 0.040588,0.261721 m -0.3946816,0.0112 c -1.1e-6,-0.05318 -0.00607,-0.100769 -0.018194,-0.142757 -0.012131,-0.04292 -0.030792,-0.07931 -0.055983,-0.109167 -0.02426,-0.02986 -0.054585,-0.05272 -0.090973,-0.06858 -0.03639,-0.01679 -0.078377,-0.025191 -0.1259622,-0.025192 -0.034524,10e-7 -0.069047,0.0056 -0.103569,0.016795 -0.034524,0.0112 -0.065314,0.02939 -0.092372,0.05458 -0.027059,0.02426 -0.048986,0.05552 -0.06578,0.09377 -0.016795,0.03826 -0.025193,0.08444 -0.025193,0.138559 -5e-7,0.05598 0.007,0.108234 0.020994,0.156753 0.013995,0.04852 0.033589,0.09097 0.058782,0.127361 0.026125,0.03546 0.057382,0.06345 0.093772,0.08397 0.036388,0.0196 0.077443,0.02939 0.123163,0.02939 0.088639,10e-7 0.1576851,-0.03126 0.2071379,-0.09377 0.049451,-0.06345 0.074177,-0.150687 0.074178,-0.261721"
         style="fill:#337738;fill-opacity:1"
         id="path3751"
         inkscape:connector-curvature="0" />
    </g>
    <g
       style="font-size:2.86634016px;font-style:normal;font-variant:normal;font-weight:bold;font-stretch:normal;text-align:center;line-height:125%;writing-mode:lr-tb;text-anchor:middle;fill:#337738;fill-opacity:1;stroke:none;font-family:Liberation Sans;-inkscape-font-specification:Abandoned Bitplane Bold"
       id="text3730">
      <path
         d="m 12.694192,15.954513 c -10e-7,0.349896 -0.06392,0.611617 -0.191742,0.785164 -0.12783,0.173548 -0.309309,0.260322 -0.544437,0.260322 -0.08491,0 -0.161419,-0.0089 -0.229531,-0.02659 -0.06718,-0.01773 -0.125963,-0.04525 -0.176347,-0.08258 -0.05039,-0.03732 -0.09331,-0.08537 -0.128762,-0.144157 -0.03452,-0.05878 -0.06205,-0.128761 -0.08258,-0.209937 l 0.369489,-0.05178 c 0.01866,0.06998 0.04899,0.121764 0.09097,0.155353 0.04292,0.03359 0.09657,0.05038 0.160952,0.05038 0.05318,0 0.100769,-0.0126 0.142757,-0.03779 0.04199,-0.02519 0.07791,-0.06345 0.107767,-0.114765 0.02986,-0.05132 0.05272,-0.116165 0.06858,-0.194542 0.01679,-0.07931 0.02566,-0.172614 0.02659,-0.279916 -0.01866,0.03639 -0.04339,0.06858 -0.07418,0.09657 -0.03079,0.02799 -0.06578,0.05132 -0.104968,0.06998 -0.03826,0.01866 -0.07931,0.03312 -0.123163,0.04339 -0.04386,0.0093 -0.08817,0.014 -0.132961,0.014 -0.08584,1e-6 -0.163751,-0.01493 -0.233729,-0.04479 -0.06998,-0.03079 -0.129695,-0.07464 -0.179147,-0.13156 -0.04945,-0.05692 -0.08771,-0.125495 -0.114765,-0.205738 -0.02613,-0.08118 -0.03919,-0.172614 -0.03919,-0.274318 -10e-7,-0.104501 0.01539,-0.197806 0.04619,-0.279916 0.03172,-0.08211 0.07698,-0.151153 0.135759,-0.207138 0.05878,-0.05691 0.130627,-0.09984 0.215535,-0.128761 0.08584,-0.02986 0.182878,-0.04478 0.291113,-0.04479 0.113832,2e-6 0.214135,0.0196 0.30091,0.05878 0.08771,0.03826 0.16095,0.09797 0.219734,0.179147 0.05878,0.08024 0.103101,0.182413 0.13296,0.306508 0.03079,0.123164 0.04618,0.269653 0.04619,0.439468 M 12.278511,15.67879 c -10e-7,-0.05598 -0.0065,-0.108233 -0.01959,-0.156753 -0.01213,-0.04945 -0.03079,-0.09191 -0.05598,-0.127362 -0.02519,-0.03639 -0.05598,-0.06485 -0.09237,-0.08537 -0.03639,-0.02053 -0.07838,-0.03079 -0.125962,-0.03079 -0.04385,10e-7 -0.08304,0.0084 -0.117565,0.02519 -0.03452,0.01586 -0.06391,0.03919 -0.08817,0.06998 -0.02426,0.03079 -0.04292,0.06811 -0.05598,0.111967 -0.01213,0.04385 -0.01819,0.09331 -0.01819,0.148355 -10e-7,0.05132 0.0061,0.09937 0.01819,0.144157 0.01213,0.04385 0.02986,0.08211 0.05318,0.114765 0.02333,0.03172 0.05272,0.05692 0.08817,0.07558 0.03546,0.01773 0.07604,0.02659 0.121763,0.02659 0.03639,1e-6 0.07184,-0.0065 0.106369,-0.01959 0.03545,-0.01306 0.06671,-0.03266 0.09377,-0.05878 0.02799,-0.02612 0.05038,-0.05878 0.06718,-0.09797 0.01679,-0.04012 0.02519,-0.08677 0.02519,-0.139958"
         style="fill:#337738;fill-opacity:1"
         id="path3742"
         inkscape:connector-curvature="0" />
    </g>
    <g
       style="font-size:2.86634016px;font-style:normal;font-variant:normal;font-weight:bold;font-stretch:normal;text-align:center;line-height:125%;writing-mode:lr-tb;text-anchor:middle;fill:#337738;fill-opacity:1;stroke:none;font-family:Liberation Sans;-inkscape-font-specification:Abandoned Bitplane Bold"
       id="text3734">
      <path
         d="m 18.672499,15.312106 c -0.08864,0.139959 -0.172616,0.275718 -0.251925,0.407278 -0.07838,0.131561 -0.146957,0.264055 -0.205738,0.39748 -0.05878,0.132495 -0.105436,0.269187 -0.139958,0.410077 -0.03359,0.139959 -0.05039,0.288314 -0.05038,0.445067 l -0.410077,0 c 0,-0.15582 0.01819,-0.303709 0.05458,-0.443667 0.03732,-0.140891 0.08771,-0.278049 0.151155,-0.411477 0.06345,-0.133425 0.137158,-0.264986 0.221133,-0.394681 0.08397,-0.130626 0.172614,-0.263586 0.26592,-0.398881 l -0.979706,0 0,-0.323303 1.344997,0 0,0.312107"
         style="fill:#337738;fill-opacity:1"
         id="path3739"
         inkscape:connector-curvature="0" />
    </g>
  </g>
</svg>
