<?xml version="1.0" encoding="UTF-8" standalone="no"?>
<!-- Created with Inkscape (http://www.inkscape.org/) -->

<svg
   xmlns:dc="http://purl.org/dc/elements/1.1/"
   xmlns:cc="http://creativecommons.org/ns#"
   xmlns:rdf="http://www.w3.org/1999/02/22-rdf-syntax-ns#"
   xmlns:svg="http://www.w3.org/2000/svg"
   xmlns="http://www.w3.org/2000/svg"
   xmlns:xlink="http://www.w3.org/1999/xlink"
   xmlns:sodipodi="http://sodipodi.sourceforge.net/DTD/sodipodi-0.dtd"
   xmlns:inkscape="http://www.inkscape.org/namespaces/inkscape"
   width="24"
   height="24"
   id="svg2"
   sodipodi:version="0.32"
   inkscape:version="0.48.0 r9654"
   version="1.0"
   sodipodi:docname="google-chrome.svg"
   inkscape:output_extension="org.inkscape.output.svg.inkscape"
   style="display:inline">
  <defs
     id="defs4">
    <linearGradient
       inkscape:collect="always"
       id="linearGradient3327">
      <stop
         style="stop-color:#000000;stop-opacity:1;"
         offset="0"
         id="stop3330" />
      <stop
         style="stop-color:#000000;stop-opacity:0;"
         offset="1"
         id="stop3333" />
    </linearGradient>
    <linearGradient
       inkscape:collect="always"
       xlink:href="#linearGradient3327"
       id="linearGradient3335"
       x1="11.375"
       y1="22"
       x2="11.375"
       y2="-9.817296"
       gradientUnits="userSpaceOnUse" />
    <linearGradient
       inkscape:collect="always"
       xlink:href="#ButtonColor"
       id="linearGradient3181"
       x1="-3.0607977"
       y1="27.258198"
       x2="-3.0607977"
       y2="7.2536583"
       gradientUnits="userSpaceOnUse"
       gradientTransform="translate(42.119372,-7.2581977)" />
    <inkscape:perspective
       sodipodi:type="inkscape:persp3d"
       inkscape:vp_x="0 : 11 : 1"
       inkscape:vp_y="0 : 1000 : 0"
       inkscape:vp_z="22 : 11 : 1"
       inkscape:persp3d-origin="11 : 7.3333333 : 1"
       id="perspective2531" />
    <linearGradient
       id="ButtonShadow"
       gradientTransform="scale(0.9883037,1.0118347)"
       x1="9.3550024"
       y1="21.742682"
       x2="9.3550024"
       y2="0.49362123"
       gradientUnits="userSpaceOnUse">
      <stop
         id="stop3277"
         offset="0"
         style="stop-color:#000000;stop-opacity:0.70588237;" />
      <stop
         id="stop3279"
         offset="1"
         style="stop-color:#000000;stop-opacity:0.15686275;" />
    </linearGradient>
    <linearGradient
       inkscape:collect="always"
       id="linearGradient3232">
      <stop
         style="stop-color:#000000;stop-opacity:1;"
         offset="0"
         id="stop3234" />
      <stop
         style="stop-color:#000000;stop-opacity:0;"
         offset="1"
         id="stop3236" />
    </linearGradient>
    <linearGradient
       gradientUnits="userSpaceOnUse"
       y2="-6.0004225"
       x2="11"
       y1="14.805666"
       x1="11"
       id="linearGradient3221"
       xlink:href="#linearGradient3232"
       inkscape:collect="always" />
    <linearGradient
       id="ButtonColor"
       x1="10.31979"
       y1="21"
       x2="10.31979"
       y2="0.99929649"
       gradientUnits="userSpaceOnUse">
      <stop
         style="stop-color:#29669f;stop-opacity:1;"
         offset="0"
         id="stop3189" />
      <stop
         style="stop-color:#88b6e0;stop-opacity:1;"
         offset="1"
         id="stop3191" />
    </linearGradient>
    <linearGradient
       inkscape:collect="always"
       xlink:href="#ButtonShadow"
       id="linearGradient38042"
       gradientUnits="userSpaceOnUse"
       gradientTransform="scale(0.9883037,1.0118347)"
       x1="9.3550024"
       y1="21.742682"
       x2="9.3550024"
       y2="0.49362123" />
    <filter
       inkscape:collect="always"
       id="filter3194"
       x="-0.18000001"
       width="1.36"
       y="-0.18000001"
       height="1.36"
       color-interpolation-filters="sRGB">
      <feGaussianBlur
         inkscape:collect="always"
         stdDeviation="1.2"
         id="feGaussianBlur3196" />
    </filter>
    <clipPath
       clipPathUnits="userSpaceOnUse"
       id="clipPath2849">
      <rect
         ry="2"
         rx="2"
         y="1"
         x="1"
         height="20"
         width="20"
         id="rect2851"
         style="fill:#ffffff;fill-opacity:1;fill-rule:evenodd;stroke:none;display:inline" />
    </clipPath>
    <linearGradient
       y2="16"
       x2="10"
       y1="1"
       x1="10"
       gradientUnits="userSpaceOnUse"
       id="linearGradient3078"
       xlink:href="#linearGradient3823"
       inkscape:collect="always"
       gradientTransform="translate(1,-1)" />
    <linearGradient
       id="linearGradient3823">
      <stop
         id="stop3825"
         offset="0"
         style="stop-color:#ffffff;stop-opacity:1;" />
      <stop
         id="stop3829"
         offset="1"
         style="stop-color:#ffffff;stop-opacity:0;" />
    </linearGradient>
    <linearGradient
       inkscape:collect="always"
       xlink:href="#linearGradient3831"
       id="linearGradient3845"
       x1="11"
       y1="19.5"
       x2="21"
       y2="19.5"
       gradientUnits="userSpaceOnUse"
       spreadMethod="reflect"
       gradientTransform="translate(1,-1)" />
    <linearGradient
       id="linearGradient3831">
      <stop
         style="stop-color:#ffffff;stop-opacity:1;"
         offset="0"
         id="stop3833" />
      <stop
         id="stop3821"
         offset="0.75"
         style="stop-color:#ffffff;stop-opacity:0.49803922;" />
      <stop
         style="stop-color:#ffffff;stop-opacity:0;"
         offset="1"
         id="stop3835" />
    </linearGradient>
    <linearGradient
       y2="16"
       x2="10"
       y1="1"
       x1="10"
       gradientTransform="translate(1,-1)"
       gradientUnits="userSpaceOnUse"
       id="linearGradient3961"
       xlink:href="#linearGradient3823"
       inkscape:collect="always" />
    <linearGradient
       gradientTransform="matrix(0.23809524,0,0,0.23809524,0.571429,-1.4285714)"
       inkscape:collect="always"
       xlink:href="#linearGradient4044"
       id="linearGradient4050"
       x1="25.870298"
       y1="51.93507"
       x2="36.988956"
       y2="30.996477"
       gradientUnits="userSpaceOnUse" />
    <linearGradient
       inkscape:collect="always"
       id="linearGradient4044">
      <stop
         style="stop-color:#b61316;stop-opacity:1;"
         offset="0"
         id="stop4046" />
      <stop
         style="stop-color:#b61316;stop-opacity:0;"
         offset="1"
         id="stop4048" />
    </linearGradient>
    <linearGradient
       gradientTransform="matrix(0.23809524,0,0,0.23809524,0.571429,-1.4285714)"
       inkscape:collect="always"
       xlink:href="#linearGradient4036"
       id="linearGradient4042"
       x1="63.780933"
       y1="63.379192"
       x2="39.036816"
       y2="66.370422"
       gradientUnits="userSpaceOnUse" />
    <linearGradient
       inkscape:collect="always"
       id="linearGradient4036">
      <stop
         style="stop-color:#37893d;stop-opacity:1;"
         offset="0"
         id="stop4038" />
      <stop
         style="stop-color:#37893d;stop-opacity:0;"
         offset="1"
         id="stop4040" />
    </linearGradient>
    <linearGradient
       gradientTransform="matrix(0.23809524,0,0,0.23809524,0.571429,-1.4285714)"
       inkscape:collect="always"
       xlink:href="#linearGradient4028"
       id="linearGradient4034"
       x1="49.922932"
       y1="26.065477"
       x2="55.387222"
       y2="42.517231"
       gradientUnits="userSpaceOnUse" />
    <linearGradient
       inkscape:collect="always"
       id="linearGradient4028">
      <stop
         style="stop-color:#b2831d;stop-opacity:1;"
         offset="0"
         id="stop4030" />
      <stop
         style="stop-color:#b2831d;stop-opacity:0;"
         offset="1"
         id="stop4032" />
    </linearGradient>
    <linearGradient
       inkscape:collect="always"
       xlink:href="#linearGradient3921"
       id="linearGradient3927"
       x1="26"
       y1="48"
       x2="70"
       y2="48"
       gradientUnits="userSpaceOnUse"
       gradientTransform="matrix(0,0.23809524,-0.23809524,0,23.428571,-1.4285714)" />
    <linearGradient
       inkscape:collect="always"
       id="linearGradient3921">
      <stop
         style="stop-color:#000000;stop-opacity:1;"
         offset="0"
         id="stop3923" />
      <stop
         style="stop-color:#000000;stop-opacity:0;"
         offset="1"
         id="stop3925" />
    </linearGradient>
    <radialGradient
       inkscape:collect="always"
       xlink:href="#linearGradient3867"
       id="radialGradient3873"
       cx="45.437672"
       cy="37.516293"
       fx="45.437672"
       fy="37.516293"
       r="16"
       gradientUnits="userSpaceOnUse"
       gradientTransform="matrix(2.6228142e-8,1.7777777,-2.6666668,3.9342217e-8,148.04345,-47.000303)" />
    <linearGradient
       id="linearGradient3867">
      <stop
         style="stop-color:#79addd;stop-opacity:1"
         offset="0"
         id="stop3869" />
      <stop
         style="stop-color:#175f9a;stop-opacity:1"
         offset="1"
         id="stop3871" />
    </linearGradient>
    <linearGradient
       id="linearGradient3896">
      <stop
         style="stop-color:#4cb848;stop-opacity:1;"
         offset="0"
         id="stop3898" />
      <stop
         id="stop3974"
         offset="0.57428855"
         style="stop-color:#49b145;stop-opacity:1;" />
      <stop
         id="stop3972"
         offset="0.75"
         style="stop-color:#46aa42;stop-opacity:1;" />
      <stop
         style="stop-color:#388c42;stop-opacity:1"
         offset="1"
         id="stop3900" />
    </linearGradient>
    <linearGradient
       id="linearGradient3904">
      <stop
         style="stop-color:#fcd209;stop-opacity:1;"
         offset="0"
         id="stop3906" />
      <stop
         id="stop3976"
         offset="0.60882944"
         style="stop-color:#f8c80b;stop-opacity:1;" />
      <stop
         id="stop3970"
         offset="0.79731107"
         style="stop-color:#f0bc12;stop-opacity:1;" />
      <stop
         style="stop-color:#d9a027;stop-opacity:1"
         offset="1"
         id="stop3908" />
    </linearGradient>
    <linearGradient
       inkscape:collect="always"
       id="linearGradient3877">
      <stop
         style="stop-color:#f06b59;stop-opacity:1"
         offset="0"
         id="stop3879" />
      <stop
         style="stop-color:#df2227;stop-opacity:1"
         offset="1"
         id="stop3881" />
    </linearGradient>
    <linearGradient
       inkscape:collect="always"
       xlink:href="#linearGradient3700"
       id="linearGradient3987"
       gradientUnits="userSpaceOnUse"
       x1="48"
       y1="90"
       x2="48"
       y2="5.9877172"
       gradientTransform="matrix(0.25974026,0,0,0.25974026,-0.467532,-2.4675324)" />
    <linearGradient
       id="linearGradient3700">
      <stop
         style="stop-color:#e0e0e0;stop-opacity:1;"
         offset="0"
         id="stop3702" />
      <stop
         style="stop-color:#ffffff;stop-opacity:1;"
         offset="1"
         id="stop3704" />
    </linearGradient>
    <radialGradient
       inkscape:collect="always"
       xlink:href="#linearGradient3896"
       id="radialGradient3189"
       gradientUnits="userSpaceOnUse"
       gradientTransform="matrix(0,0.38387779,-0.39675748,0,32.048005,-1.803336)"
       cx="30.791513"
       cy="55.203083"
       fx="30.791513"
       fy="55.203083"
       r="30.40625" />
    <radialGradient
       inkscape:collect="always"
       xlink:href="#linearGradient3904"
       id="radialGradient3191"
       gradientUnits="userSpaceOnUse"
       gradientTransform="matrix(0,0.6199346,-0.58382248,0,47.740048,-41.470752)"
       cx="80.272285"
       cy="57.492752"
       fx="80.272285"
       fy="57.492752"
       r="21" />
    <radialGradient
       inkscape:collect="always"
       xlink:href="#linearGradient3877"
       id="radialGradient3193"
       gradientUnits="userSpaceOnUse"
       gradientTransform="matrix(0.45351474,0,0,0.14880952,-9.768707,1.4508929)"
       cx="48"
       cy="-6.5500002"
       fx="48"
       fy="-6.5500002"
       r="42" />
  </defs>
  <sodipodi:namedview
     id="base"
     pagecolor="#ffffff"
     bordercolor="#e7e7e7"
     borderopacity="1"
     inkscape:pageopacity="0.0"
     inkscape:pageshadow="2"
     inkscape:zoom="13.918519"
     inkscape:cx="-15.595939"
     inkscape:cy="13.16395"
     inkscape:document-units="px"
     inkscape:current-layer="layer1"
     showgrid="true"
     inkscape:showpageshadow="false"
     showguides="false"
     inkscape:guide-bbox="true"
     inkscape:window-width="1920"
     inkscape:window-height="1029"
     inkscape:window-x="0"
     inkscape:window-y="25"
     inkscape:window-maximized="1">
    <sodipodi:guide
       orientation="1,0"
       position="0,112"
       id="guide2383" />
    <sodipodi:guide
       orientation="0,1"
       position="26.278146,128"
       id="guide2385" />
    <sodipodi:guide
       orientation="1,0"
       position="128,54.082119"
       id="guide2387" />
    <sodipodi:guide
       orientation="0,1"
       position="78.156291,0"
       id="guide2389" />
    <sodipodi:guide
       orientation="0,1"
       position="60.863576,64.084768"
       id="guide2391" />
    <inkscape:grid
       type="xygrid"
       id="grid3672"
       visible="true"
       enabled="true"
       empspacing="8"
       snapvisiblegridlinesonly="true" />
  </sodipodi:namedview>
  <metadata
     id="metadata7">
    <rdf:RDF>
      <cc:Work
         rdf:about="">
        <dc:format>image/svg+xml</dc:format>
        <dc:type
           rdf:resource="http://purl.org/dc/dcmitype/StillImage" />
        <dc:title />
      </cc:Work>
    </rdf:RDF>
  </metadata>
  <g
     inkscape:label="Button"
     inkscape:groupmode="layer"
     id="layer1"
     transform="translate(0,2)">
    <g
       style="display:inline"
       id="g3337"
       transform="translate(1,-1)">
      <rect
         ry="2.5"
         rx="2.5"
         y="0.5"
         x="0.5"
         height="21.5"
         width="21"
         id="rect3371"
         style="opacity:0.3;fill:url(#linearGradient3335);fill-opacity:1;stroke:none;display:inline" />
      <rect
         style="opacity:0.5;fill:#000000;fill-opacity:1;stroke:none;display:inline"
         id="rect2553"
         width="20"
         height="20"
         x="1"
         y="2"
         rx="2.3809524"
         ry="2.3255813" />
    </g>
    <rect
       style="fill:url(#linearGradient3181);fill-opacity:1;fill-rule:evenodd;stroke:none;display:inline"
       id="rect3173"
       width="20"
       height="20"
       x="32"
       y="0"
       rx="2"
       ry="2" />
    <path
       inkscape:connector-curvature="0"
       style="fill:#dca325;fill-opacity:1;stroke:none"
       d="m 11.52381,2.3809524 c -0.791429,0 -1.428572,0.6371428 -1.428572,1.4285714 l 0,1.3095238 C 10.685702,4.8883943 11.327854,4.7619048 12,4.7619048 14.89292,4.7619048 17.238095,7.10708 17.238095,10 L 22,10 l 0,-5.2380952 0,-2.3809524 -10.47619,0 z"
       id="path4012" />
    <path
       inkscape:connector-curvature="0"
       style="fill:#3b9342;fill-opacity:1;stroke:none"
       d="m 17.223214,10.357143 c -0.05476,0.820649 -0.29507,1.588086 -0.684524,2.261905 -0.01916,0.03315 -0.03966,0.06404 -0.05952,0.09673 -0.918698,1.51197 -2.580691,2.522321 -4.47917,2.522321 -0.673287,0 -1.31341,-0.126005 -1.904762,-0.357143 l 0,5.119048 2.18006,0 5.438988,0 0,-8.571429 c 0,-0.430048 -0.192291,-0.80996 -0.491072,-1.071428 z"
       id="path3999" />
    <path
       inkscape:connector-curvature="0"
       style="fill:#df2227;fill-opacity:1;stroke:none"
       d="m 2,2.3809524 0,0.78125 0,12.5520836 6.666667,0 c 0.596044,0 1.102203,-0.361467 1.316964,-0.877976 C 8.920817,14.392462 8.032671,13.607598 7.46131,12.619048 7.43827,12.579178 7.41636,12.540528 7.39435,12.5 6.991161,11.757797 6.76191,10.904038 6.76191,10 c 0,-2.2207743 1.382435,-4.1188721 3.333333,-4.8809524 l 0,-1.3095238 c 0,-0.7914286 -0.637143,-1.4285714 -1.428571,-1.4285714 l -6.666667,0 z"
       id="path3989" />
    <path
       style="fill:url(#linearGradient3987);fill-opacity:1;fill-rule:nonzero;stroke:none"
       d="m 12,4.2857143 c -3.155914,0 -5.714286,2.5583724 -5.714286,5.7142857 0,3.155913 2.558372,5.714286 5.714286,5.714286 3.155914,0 5.714286,-2.558373 5.714286,-5.714286 0,-3.1559133 -2.558372,-5.7142857 -5.714286,-5.7142857 z"
       id="rect3982"
       inkscape:connector-curvature="0" />
    <path
       style="fill:url(#radialGradient3193);fill-opacity:1;stroke:none"
       d="M 4,0 C 2.892,0 2,0.892 2,2 L 2,3.15625 7.40625,12.5 C 7.003061,11.757797 6.75,10.904038 6.75,10 6.75,7.10708 9.10708,4.75 12,4.75 l 10,0 L 22,2 C 22,0.892 21.108,0 20,0 L 4,0 z"
       id="path3824"
       inkscape:connector-curvature="0" />
    <path
       style="fill:url(#radialGradient3191);fill-opacity:1;stroke:none"
       d="m 12,4.75 c 2.89292,0 5.25,2.35708 5.25,5.25 0,0.9534 -0.27366,1.854921 -0.71875,2.625 -0.01916,0.03315 -0.04264,0.06106 -0.0625,0.09375 L 12.28125,20 20,20 c 1.108,0 2,-0.892 2,-2 l 0,-13.25 -10,0 z"
       id="path3847"
       inkscape:connector-curvature="0" />
    <path
       style="fill:url(#radialGradient3189);fill-opacity:1;stroke:none"
       d="M 2,3.15625 2,18 c 0,1.108 0.892,2 2,2 l 8.28125,0 4.1875,-7.28125 C 15.550055,14.23072 13.898479,15.25 12,15.25 10.06048,15.25 8.374204,14.191586 7.46875,12.625 7.4457,12.58513 7.42826,12.54053 7.40625,12.5 L 2,3.15625 z"
       id="path3849"
       inkscape:connector-curvature="0" />
    <path
       sodipodi:type="arc"
       style="color:#000000;fill:url(#radialGradient3873);fill-opacity:1;stroke:none;stroke-width:1;marker:none;visibility:visible;display:inline;overflow:visible;enable-background:accumulate"
       id="path3822"
       sodipodi:cx="48"
       sodipodi:cy="48"
       sodipodi:rx="16"
       sodipodi:ry="16"
       d="m 64,48 c 0,8.836556 -7.163444,16 -16,16 -8.836556,0 -16,-7.163444 -16,-16 0,-8.836556 7.163444,-16 16,-16 8.836556,0 16,7.163444 16,16 z"
       transform="matrix(0.26785714,0,0,0.26785714,-0.857143,-2.8571429)" />
    <path
       inkscape:connector-curvature="0"
       style="opacity:0.65;fill:url(#linearGradient4034);fill-opacity:1;stroke:none"
       d="m 12,4.7619048 c 1.653693,0 3.124841,0.7673816 4.084821,1.9642857 L 22,5.2752976 l 0,-0.5133928 -10,0 z"
       id="path3929" />
    <path
       inkscape:connector-curvature="0"
       style="opacity:0.8;fill:url(#linearGradient4042);fill-opacity:1;stroke:none"
       d="m 16.479167,12.715774 c -0.787687,1.296358 -2.121952,2.224601 -3.683036,2.462797 L 11.38244,20 l 0.892858,0 4.203869,-7.284226 z"
       id="path3933" />
    <path
       inkscape:connector-curvature="0"
       style="opacity:0.89121339;fill:url(#linearGradient4050);fill-opacity:1;stroke:none"
       d="M 2,2.4553571 2,3.1622024 7.394345,12.5 C 6.991156,11.757797 6.761905,10.904038 6.761905,10 c 0,-0.6839105 0.133634,-1.3355876 0.372024,-1.9345238 L 2,2.4553571 z"
       id="path3935" />
    <path
       style="opacity:0.25;fill:url(#linearGradient3961);fill-opacity:1;fill-rule:evenodd;stroke:none;display:inline"
       d="M 4,0 C 2.892,0 2,0.892 2,2 l 0,16 c 0,1.108 0.892,2 2,2 l 16,0 c 1.108,0 2,-0.892 2,-2 L 22,2 C 22,0.892 21.108,0 20,0 L 4,0 z m 0,1.03125 16,0 c 0.5497,0 0.96875,0.4190495 0.96875,0.96875 l 0,16 c 0,0.5497 -0.41905,0.96875 -0.96875,0.96875 l -16,0 C 3.4502995,18.96875 3.03125,18.5497 3.03125,18 l 0,-16 C 3.03125,1.4502995 3.4502995,1.03125 4,1.03125 z"
       id="rect3050"
       inkscape:connector-curvature="0" />
    <path
       id="path3235"
       d="M 4,20 C 2.892,20 2,19.108 2,18 l 0,-1 c 0,1.108 0.892,2 2,2 l 16,0 c 1.108,0 2,-0.892 2,-2 l 0,1 c 0,1.108 -0.892,2 -2,2 L 4,20 z"
       style="opacity:0.2;fill:url(#linearGradient3845);fill-opacity:1;fill-rule:evenodd;stroke:none;display:inline"
       inkscape:connector-curvature="0" />
  </g>
  <g
     inkscape:groupmode="layer"
     id="layer2"
     inkscape:label="Highlight"
     transform="translate(0,2)"
     sodipodi:insensitive="true"
     style="display:none">
    <rect
       style="opacity:0.15;fill:#ffffff;fill-opacity:1;fill-rule:nonzero;stroke:none;display:inline;filter:url(#filter3194)"
       id="rect2410"
       width="16"
       height="16"
       x="3"
       y="3"
       rx="2"
       ry="2"
       clip-path="url(#clipPath2849)"
       transform="translate(1,-1)" />
  </g>
  <g
     inkscape:groupmode="layer"
     id="layer3"
     inkscape:label="Symbol"
     transform="translate(0,2)"
     sodipodi:insensitive="true"
     style="display:none" />
</svg>
