<?xml version="1.0" encoding="UTF-8" standalone="no"?>
<!-- Created with Inkscape (http://www.inkscape.org/) -->

<svg
   xmlns:dc="http://purl.org/dc/elements/1.1/"
   xmlns:cc="http://creativecommons.org/ns#"
   xmlns:rdf="http://www.w3.org/1999/02/22-rdf-syntax-ns#"
   xmlns:svg="http://www.w3.org/2000/svg"
   xmlns="http://www.w3.org/2000/svg"
   xmlns:xlink="http://www.w3.org/1999/xlink"
   xmlns:sodipodi="http://sodipodi.sourceforge.net/DTD/sodipodi-0.dtd"
   xmlns:inkscape="http://www.inkscape.org/namespaces/inkscape"
   width="22"
   height="22"
   id="svg2"
   sodipodi:version="0.32"
   inkscape:version="0.48.1 r9760"
   version="1.0"
   sodipodi:docname="gparted.svg"
   inkscape:output_extension="org.inkscape.output.svg.inkscape"
   style="display:inline">
  <defs
     id="defs4">
    <linearGradient
       id="linearGradient3865">
      <stop
         style="stop-color:#ec9013;stop-opacity:1;"
         offset="0"
         id="stop3867" />
      <stop
         style="stop-color:#ebc514;stop-opacity:1;"
         offset="1"
         id="stop3869" />
    </linearGradient>
    <linearGradient
       id="linearGradient3366">
      <stop
         style="stop-color:#c1ff97;stop-opacity:1;"
         offset="0"
         id="stop3368" />
      <stop
         style="stop-color:#30c700;stop-opacity:1;"
         offset="1"
         id="stop3370" />
    </linearGradient>
    <radialGradient
       inkscape:collect="always"
       xlink:href="#linearGradient3366"
       id="radialGradient3558"
       gradientUnits="userSpaceOnUse"
       gradientTransform="matrix(1,0,0,1.0042736,0,-0.3635233)"
       cx="18.089285"
       cy="85.0625"
       fx="18.089285"
       fy="85.0625"
       r="2.0892856" />
    <linearGradient
       id="linearGradient3376">
      <stop
         style="stop-color:#656565;stop-opacity:1;"
         offset="0"
         id="stop3378" />
      <stop
         style="stop-color:#fdfdfd;stop-opacity:1;"
         offset="1"
         id="stop3380" />
    </linearGradient>
    <linearGradient
       id="linearGradient3612">
      <stop
         style="stop-color:#f0f0f0;stop-opacity:1;"
         offset="0"
         id="stop3614" />
      <stop
         id="stop3616"
         offset="1"
         style="stop-color:#b4b4b4;stop-opacity:1;" />
    </linearGradient>
    <linearGradient
       id="linearGradient4327">
      <stop
         style="stop-color:#f0f0f0;stop-opacity:1;"
         offset="0"
         id="stop4329" />
      <stop
         id="stop4331"
         offset="1"
         style="stop-color:#b4b4b4;stop-opacity:1;" />
    </linearGradient>
    <linearGradient
       id="linearGradient3220">
      <stop
         style="stop-color:#ffffff;stop-opacity:1;"
         offset="0"
         id="stop3222" />
      <stop
         style="stop-color:#bfbfbf;stop-opacity:0;"
         offset="1"
         id="stop3224" />
    </linearGradient>
    <linearGradient
       inkscape:collect="always"
       xlink:href="#linearGradient3220"
       id="linearGradient4201"
       x1="11.743171"
       y1="15.971731"
       x2="25.151943"
       y2="3.6272087"
       gradientUnits="userSpaceOnUse" />
    <clipPath
       clipPathUnits="userSpaceOnUse"
       id="clipPath3824">
      <path
         style="opacity:1;fill:#ffffff;fill-opacity:1;fill-rule:nonzero;stroke:none;stroke-width:1;stroke-linecap:square;stroke-linejoin:round;stroke-miterlimit:4;stroke-dasharray:none;stroke-dashoffset:0;stroke-opacity:0.69658119;display:inline"
         d="M 16,12 C 13.784,12 12,13.784 12,16 L 12,68 C 12,70.216 13.784,72 16,72 L 80,72 C 82.216,72 84,70.216 84,68 L 84,16 C 84,13.784 82.216,12 80,12 L 16,12 z M 48,20 L 50.65625,22.25 L 69.34375,37.875 L 72,40.125 L 69.34375,42.34375 L 55.375,54.0625 L 55.375,45.1875 L 61.40625,40.125 L 48,28.875 L 34.59375,40.125 L 40.625,45.1875 L 40.625,54.0625 L 26.65625,42.34375 L 24,40.125 L 26.65625,37.875 L 45.34375,22.25 L 48,20 z M 44.25,40.03125 L 51.75,40.03125 L 51.75,62 L 44.25,62 L 44.25,40.03125 z"
         id="path3826" />
    </clipPath>
    <linearGradient
       id="linearGradient3767">
      <stop
         style="stop-color:#4d4d4d;stop-opacity:0.70731705;"
         offset="0"
         id="stop3769" />
      <stop
         style="stop-color:#4d4d4d;stop-opacity:0.25203252;"
         offset="1"
         id="stop3771" />
    </linearGradient>
    <linearGradient
       inkscape:collect="always"
       xlink:href="#linearGradient3322"
       id="linearGradient4220"
       x1="1"
       y1="13.5"
       x2="7"
       y2="13.5"
       gradientUnits="userSpaceOnUse" />
    <linearGradient
       id="linearGradient3322">
      <stop
         id="stop3324"
         offset="0"
         style="stop-color:#7a7a7a;stop-opacity:1;" />
      <stop
         style="stop-color:#f9f9f9;stop-opacity:1"
         offset="0.2032043"
         id="stop3326" />
      <stop
         id="stop3328"
         offset="0.42969123"
         style="stop-color:#c9c9c9;stop-opacity:1" />
      <stop
         id="stop3632"
         offset="1"
         style="stop-color:#dedede;stop-opacity:0;" />
    </linearGradient>
    <linearGradient
       inkscape:collect="always"
       xlink:href="#linearGradient3322"
       id="linearGradient4224"
       gradientUnits="userSpaceOnUse"
       x1="1"
       y1="13.5"
       x2="7"
       y2="13.5"
       gradientTransform="matrix(-1,0,0,1,22,0)" />
    <linearGradient
       inkscape:collect="always"
       xlink:href="#linearGradient3327"
       id="linearGradient2464"
       gradientUnits="userSpaceOnUse"
       x1="11.375"
       y1="22"
       x2="11.375"
       y2="-9.817296" />
    <linearGradient
       inkscape:collect="always"
       id="linearGradient3327">
      <stop
         style="stop-color:#000000;stop-opacity:1;"
         offset="0"
         id="stop3330" />
      <stop
         style="stop-color:#000000;stop-opacity:0;"
         offset="1"
         id="stop3333" />
    </linearGradient>
    <linearGradient
       inkscape:collect="always"
       xlink:href="#linearGradient4327"
       id="linearGradient3181"
       x1="-3.0607977"
       y1="5.2711968"
       x2="-3.0607977"
       y2="-14.745312"
       gradientUnits="userSpaceOnUse"
       gradientTransform="translate(11.119372,-6.2581977)" />
    <inkscape:perspective
       sodipodi:type="inkscape:persp3d"
       inkscape:vp_x="0 : 11 : 1"
       inkscape:vp_y="0 : 1000 : 0"
       inkscape:vp_z="22 : 11 : 1"
       inkscape:persp3d-origin="11 : 7.3333333 : 1"
       id="perspective2531" />
    <linearGradient
       id="ButtonShadow"
       gradientTransform="scale(0.9883037,1.0118347)"
       x1="9.3550024"
       y1="21.742682"
       x2="9.3550024"
       y2="0.49362123"
       gradientUnits="userSpaceOnUse">
      <stop
         id="stop3277"
         offset="0"
         style="stop-color:#000000;stop-opacity:0.70588237;" />
      <stop
         id="stop3279"
         offset="1"
         style="stop-color:#000000;stop-opacity:0.15686275;" />
    </linearGradient>
    <linearGradient
       inkscape:collect="always"
       id="linearGradient3232">
      <stop
         style="stop-color:#000000;stop-opacity:1;"
         offset="0"
         id="stop3234" />
      <stop
         style="stop-color:#000000;stop-opacity:0;"
         offset="1"
         id="stop3236" />
    </linearGradient>
    <linearGradient
       gradientUnits="userSpaceOnUse"
       y2="-6.0004225"
       x2="11"
       y1="14.805666"
       x1="11"
       id="linearGradient3221"
       xlink:href="#linearGradient3232"
       inkscape:collect="always" />
    <linearGradient
       id="ButtonColor"
       x1="10.31979"
       y1="21"
       x2="10.31979"
       y2="0.99929649"
       gradientUnits="userSpaceOnUse">
      <stop
         style="stop-color:#29669f;stop-opacity:1;"
         offset="0"
         id="stop3189" />
      <stop
         style="stop-color:#88b6e0;stop-opacity:1;"
         offset="1"
         id="stop3191" />
    </linearGradient>
    <linearGradient
       inkscape:collect="always"
       xlink:href="#ButtonShadow"
       id="linearGradient38042"
       gradientUnits="userSpaceOnUse"
       gradientTransform="scale(0.9883037,1.0118347)"
       x1="9.3550024"
       y1="21.742682"
       x2="9.3550024"
       y2="0.49362123" />
    <radialGradient
       inkscape:collect="always"
       xlink:href="#linearGradient3232"
       id="radialGradient4148"
       cx="-20.057463"
       cy="-23.5"
       fx="-20.057463"
       fy="-23.5"
       r="10"
       gradientTransform="matrix(3.109969e-8,0.7938646,-1.5189621,5.9505426e-8,-55.753071,-5.0770884)"
       gradientUnits="userSpaceOnUse" />
    <linearGradient
       inkscape:collect="always"
       xlink:href="#linearGradient3767"
       id="linearGradient4566"
       x1="15.999999"
       y1="85.0625"
       x2="18.455957"
       y2="85.0625"
       gradientUnits="userSpaceOnUse" />
    <linearGradient
       inkscape:collect="always"
       xlink:href="#linearGradient4327"
       id="linearGradient4578"
       x1="9.8904591"
       y1="2.4969082"
       x2="9.8904591"
       y2="12.941811"
       gradientUnits="userSpaceOnUse"
       gradientTransform="translate(-30,0)" />
    <inkscape:perspective
       id="perspective3852"
       inkscape:persp3d-origin="0.5 : 0.33333333 : 1"
       inkscape:vp_z="1 : 0.5 : 1"
       inkscape:vp_y="0 : 1000 : 0"
       inkscape:vp_x="0 : 0.5 : 1"
       sodipodi:type="inkscape:persp3d" />
    <linearGradient
       x1="-25.286484"
       y1="17.743382"
       x2="-16.964699"
       y2="32.402924"
       id="linearGradient6327"
       xlink:href="#linearGradient6699"
       gradientUnits="userSpaceOnUse"
       gradientTransform="matrix(2.3728978,0,0,2.9640752,92.261621,-35.811733)" />
    <linearGradient
       id="linearGradient6699">
      <stop
         id="stop6701"
         style="stop-color:#f8b17e;stop-opacity:1"
         offset="0" />
      <stop
         id="stop6295"
         style="stop-color:#c6262e;stop-opacity:1"
         offset="1" />
    </linearGradient>
    <linearGradient
       x1="-15.861224"
       y1="25.283489"
       x2="-11.915193"
       y2="30.298059"
       id="linearGradient6323"
       xlink:href="#linearGradient6711"
       gradientUnits="userSpaceOnUse"
       gradientTransform="matrix(2.3728344,0,0,3.2262042,53.261203,-73.232068)" />
    <linearGradient
       id="linearGradient6711">
      <stop
         id="stop6713"
         style="stop-color:#8badea;stop-opacity:1"
         offset="0" />
      <stop
         id="stop6715"
         style="stop-color:#3b7caf;stop-opacity:1"
         offset="1" />
    </linearGradient>
    <linearGradient
       x1="-15.059621"
       y1="33.7365"
       x2="-19.19733"
       y2="26.484671"
       id="linearGradient6319"
       xlink:href="#linearGradient6719"
       gradientUnits="userSpaceOnUse"
       gradientTransform="matrix(2.3844186,0,0,3.2108695,53.771056,-72.946933)" />
    <linearGradient
       id="linearGradient6719">
      <stop
         id="stop6721"
         style="stop-color:#8cab2a;stop-opacity:1"
         offset="0" />
      <stop
         id="stop6723"
         style="stop-color:#d7e866;stop-opacity:1"
         offset="1" />
    </linearGradient>
    <linearGradient
       x1="-20.75"
       y1="29"
       x2="-19.5"
       y2="18.75"
       id="linearGradient6316"
       xlink:href="#linearGradient6687"
       gradientUnits="userSpaceOnUse"
       gradientTransform="matrix(2.3680797,0,0,2.9481952,53.143197,-64.191839)" />
    <linearGradient
       id="linearGradient6687">
      <stop
         id="stop6689"
         style="stop-color:white;stop-opacity:1"
         offset="0" />
      <stop
         id="stop6691"
         style="stop-color:white;stop-opacity:0"
         offset="1" />
    </linearGradient>
    <filter
       inkscape:collect="always"
       id="filter3736">
      <feGaussianBlur
         inkscape:collect="always"
         stdDeviation="0.32560562"
         id="feGaussianBlur3738" />
    </filter>
    <linearGradient
       inkscape:collect="always"
       xlink:href="#linearGradient6719"
       id="linearGradient3771"
       gradientUnits="userSpaceOnUse"
       gradientTransform="matrix(0.58441854,0,0,0.78698081,51.958831,-13.55029)"
       x1="-15.059621"
       y1="33.7365"
       x2="-19.19733"
       y2="26.484671" />
    <linearGradient
       inkscape:collect="always"
       xlink:href="#linearGradient6711"
       id="linearGradient3774"
       gradientUnits="userSpaceOnUse"
       gradientTransform="matrix(0.58157927,0,0,0.79073933,51.833867,-13.620176)"
       x1="-15.861224"
       y1="25.283489"
       x2="-11.915193"
       y2="30.298059" />
    <linearGradient
       inkscape:collect="always"
       xlink:href="#linearGradient6699"
       id="linearGradient3777"
       gradientUnits="userSpaceOnUse"
       gradientTransform="matrix(0.58159481,0,0,0.72649178,51.833969,-11.55636)"
       x1="-25.286484"
       y1="17.743382"
       x2="-16.964699"
       y2="32.402924" />
    <linearGradient
       inkscape:collect="always"
       xlink:href="#linearGradient6699"
       id="linearGradient3809"
       gradientUnits="userSpaceOnUse"
       x1="6"
       y1="2"
       x2="11"
       y2="13" />
    <clipPath
       clipPathUnits="userSpaceOnUse"
       id="clipPath3835">
      <path
         style="fill:#ffffff;fill-opacity:1;fill-rule:nonzero;stroke:none"
         d="M 4,3 C 3.446,3 3,3.446 3,4 l 0,10 c 0,0.554 0.446,1 1,1 l 14,0 c 0.554,0 1,-0.446 1,-1 L 19,4 C 19,3.446 18.554,3 18,3 L 4,3 z"
         id="path3837" />
    </clipPath>
    <linearGradient
       inkscape:collect="always"
       xlink:href="#linearGradient6711"
       id="linearGradient3855"
       x1="17.530775"
       y1="6.9321012"
       x2="17.600426"
       y2="16.54985"
       gradientUnits="userSpaceOnUse" />
    <linearGradient
       inkscape:collect="always"
       xlink:href="#linearGradient6719"
       id="linearGradient3863"
       x1="25.25753"
       y1="8.9581423"
       x2="11"
       y2="6.0209293"
       gradientUnits="userSpaceOnUse" />
    <linearGradient
       inkscape:collect="always"
       xlink:href="#linearGradient3865"
       id="linearGradient3871"
       x1="25.562305"
       y1="7.6923079"
       x2="11"
       y2="7.6923079"
       gradientUnits="userSpaceOnUse" />
    <linearGradient
       inkscape:collect="always"
       xlink:href="#linearGradient3865"
       id="linearGradient3885"
       gradientUnits="userSpaceOnUse"
       x1="25.562305"
       y1="7.6923079"
       x2="14.168341"
       y2="7.9790711" />
    <linearGradient
       inkscape:collect="always"
       xlink:href="#linearGradient6711"
       id="linearGradient3887"
       gradientUnits="userSpaceOnUse"
       x1="12.371931"
       y1="7.4895353"
       x2="19.811434"
       y2="11.274649" />
    <linearGradient
       inkscape:collect="always"
       xlink:href="#linearGradient6719"
       id="linearGradient3889"
       gradientUnits="userSpaceOnUse"
       x1="22.201773"
       y1="9.0769234"
       x2="11"
       y2="7.6923084" />
    <clipPath
       clipPathUnits="userSpaceOnUse"
       id="clipPath3930">
      <path
         id="path3932"
         d="m 2.5147185,8.4142135 c -0.3917372,0.3917372 -0.3917372,1.0224764 1e-7,1.4142136 l 7.0710677,7.0710679 c 0.391737,0.391737 1.0224767,0.391737 1.4142137,0 l 9.899495,-9.8994949 c 0.391737,-0.3917372 0.391737,-1.0224764 0,-1.4142136 l -7.071068,-7.0710679 c -0.391737,-0.391737 -1.022476,-0.3917371 -1.414214,0 L 2.5147185,8.4142135 z"
         style="fill:#ffffff;fill-opacity:1;fill-rule:nonzero;stroke:none" />
    </clipPath>
    <linearGradient
       y2="16"
       x2="10"
       y1="1"
       x1="10"
       gradientUnits="userSpaceOnUse"
       id="linearGradient3078"
       xlink:href="#linearGradient3823"
       inkscape:collect="always"
       gradientTransform="translate(1,-1)" />
    <linearGradient
       id="linearGradient3823">
      <stop
         id="stop3825"
         offset="0"
         style="stop-color:#ffffff;stop-opacity:1;" />
      <stop
         id="stop3829"
         offset="1"
         style="stop-color:#ffffff;stop-opacity:0;" />
    </linearGradient>
    <linearGradient
       inkscape:collect="always"
       xlink:href="#linearGradient3831"
       id="linearGradient3845"
       x1="11"
       y1="19.5"
       x2="21"
       y2="19.5"
       gradientUnits="userSpaceOnUse"
       spreadMethod="reflect" />
    <linearGradient
       id="linearGradient3831">
      <stop
         style="stop-color:#ffffff;stop-opacity:1;"
         offset="0"
         id="stop3833" />
      <stop
         id="stop3821"
         offset="0.75"
         style="stop-color:#ffffff;stop-opacity:0.49803922;" />
      <stop
         style="stop-color:#ffffff;stop-opacity:0;"
         offset="1"
         id="stop3835" />
    </linearGradient>
    <linearGradient
       y2="16"
       x2="10"
       y1="1"
       x1="10"
       gradientUnits="userSpaceOnUse"
       id="linearGradient3869"
       xlink:href="#linearGradient3823"
       inkscape:collect="always" />
  </defs>
  <sodipodi:namedview
     id="base"
     pagecolor="#ffffff"
     bordercolor="#e7e7e7"
     borderopacity="1"
     inkscape:pageopacity="0.0"
     inkscape:pageshadow="2"
     inkscape:zoom="17.313327"
     inkscape:cx="0.10494454"
     inkscape:cy="20.904693"
     inkscape:document-units="px"
     inkscape:current-layer="layer1"
     showgrid="true"
     inkscape:showpageshadow="false"
     showguides="false"
     inkscape:guide-bbox="true"
     inkscape:window-width="1920"
     inkscape:window-height="1030"
     inkscape:window-x="0"
     inkscape:window-y="25"
     inkscape:window-maximized="1">
    <sodipodi:guide
       orientation="1,0"
       position="0,112"
       id="guide2383" />
    <sodipodi:guide
       orientation="0,1"
       position="26.278146,128"
       id="guide2385" />
    <sodipodi:guide
       orientation="1,0"
       position="128,54.082119"
       id="guide2387" />
    <sodipodi:guide
       orientation="0,1"
       position="78.156291,0"
       id="guide2389" />
    <sodipodi:guide
       orientation="0,1"
       position="60.863576,64.084768"
       id="guide2391" />
    <inkscape:grid
       type="xygrid"
       id="grid3672"
       visible="true"
       enabled="true" />
  </sodipodi:namedview>
  <metadata
     id="metadata7">
    <rdf:RDF>
      <cc:Work
         rdf:about="">
        <dc:format>image/svg+xml</dc:format>
        <dc:type
           rdf:resource="http://purl.org/dc/dcmitype/StillImage" />
      </cc:Work>
    </rdf:RDF>
  </metadata>
  <g
     inkscape:groupmode="layer"
     id="layer3"
     inkscape:label="Shadow"
     sodipodi:insensitive="true">
    <rect
       style="opacity:0.5;fill:url(#linearGradient2464);fill-opacity:1;stroke:none;stroke-width:1.00000012;stroke-linecap:round;stroke-linejoin:miter;stroke-miterlimit:4;stroke-dasharray:none;stroke-opacity:1;display:inline"
       id="rect3371"
       width="21"
       height="21.5"
       x="0.5"
       y="0.5"
       rx="2.5"
       ry="2.5" />
    <rect
       ry="2.3255813"
       rx="2.3809524"
       y="2"
       x="1"
       height="20"
       width="20"
       id="rect2553"
       style="opacity:0.4;fill:#000000;fill-opacity:1;stroke:none;stroke-width:1.00000012;stroke-linecap:round;stroke-linejoin:miter;stroke-miterlimit:4;stroke-dasharray:none;stroke-opacity:1;display:inline" />
  </g>
  <g
     inkscape:groupmode="layer"
     id="layer2"
     inkscape:label="Facade"
     sodipodi:insensitive="true">
    <rect
       transform="scale(1,-1)"
       ry="2"
       rx="2"
       y="-21"
       x="1"
       height="15"
       width="20"
       id="rect4177"
       style="fill:#cacaca;fill-opacity:1;fill-rule:evenodd;stroke:none;display:inline" />
    <path
       style="fill:url(#linearGradient4220);fill-opacity:1;fill-rule:evenodd;stroke:none;display:inline"
       d="M 3,6 C 1.892,6 1,6.892 1,8 l 0,11 c 0,1.108 0.892,2 2,2 L 7,21 7,6 3,6 z"
       id="rect4209"
       inkscape:connector-curvature="0" />
    <rect
       style="opacity:0.15;fill:url(#radialGradient4148);fill-opacity:1;fill-rule:evenodd;stroke:none;display:inline"
       id="rect4138"
       width="20"
       height="15"
       x="-21"
       y="-21"
       rx="2"
       ry="2"
       transform="scale(-1,-1)" />
    <path
       id="path4222"
       d="m 19,6 c 1.108,0 2,0.892 2,2 l 0,11 c 0,1.108 -0.892,2 -2,2 l -4,0 0,-15 4,0 z"
       style="fill:url(#linearGradient4224);fill-opacity:1;fill-rule:evenodd;stroke:none;display:inline"
       inkscape:connector-curvature="0" />
    <path
       style="opacity:0.15;fill:#000000;fill-opacity:1;fill-rule:evenodd;stroke:none;display:inline"
       d="M 2.9999999,16.999999 C 1.8919999,16.999999 0.99999993,16.108 0.99999993,15 l 0,-1 c 0,1.108 0.89199997,2 1.99999997,2 L 19,16 c 1.108,0 2,-0.892 2,-2 l 0,1 c 0,1.108 -0.892,1.999999 -2,1.999999 l -16.0000001,0 z"
       id="path4184"
       sodipodi:nodetypes="ccccccccc"
       inkscape:connector-curvature="0" />
    <path
       id="path4157"
       d="M 14.5,18 C 14.223,18 14,18.223 14,18.5 l 0,1 c 0,0.277 0.223,0.5 0.5,0.5 0.277,0 0.5,-0.223 0.5,-0.5 l 0,-1 C 15,18.223 14.777,18 14.5,18 z m 2,0 C 16.223,18 16,18.223 16,18.5 l 0,1 c 0,0.277 0.223,0.5 0.5,0.5 0.277,0 0.5,-0.223 0.5,-0.5 l 0,-1 C 17,18.223 16.777,18 16.5,18 z m 2,0 C 18.223,18 18,18.223 18,18.5 l 0,1 c 0,0.277 0.223,0.5 0.5,0.5 0.277,0 0.5,-0.223 0.5,-0.5 l 0,-1 C 19,18.223 18.777,18 18.5,18 z"
       style="fill:#eeeeee;fill-opacity:1;fill-rule:nonzero;stroke:none"
       inkscape:connector-curvature="0" />
    <path
       style="fill:#343434;fill-opacity:1;fill-rule:nonzero;stroke:none"
       d="M 14.5,17 C 14.223,17 14,17.223 14,17.5 l 0,1 c 0,0.277 0.223,0.5 0.5,0.5 0.277,0 0.5,-0.223 0.5,-0.5 l 0,-1 C 15,17.223 14.777,17 14.5,17 z m 2,0 C 16.223,17 16,17.223 16,17.5 l 0,1 c 0,0.277 0.223,0.5 0.5,0.5 0.277,0 0.5,-0.223 0.5,-0.5 l 0,-1 C 17,17.223 16.777,17 16.5,17 z m 2,0 C 18.223,17 18,17.223 18,17.5 l 0,1 c 0,0.277 0.223,0.5 0.5,0.5 0.277,0 0.5,-0.223 0.5,-0.5 l 0,-1 C 19,17.223 18.777,17 18.5,17 z"
       id="rect4150"
       inkscape:connector-curvature="0" />
    <g
       id="g3318"
       transform="matrix(0.4296675,0,0,0.4296675,-3.874681,-17.381072)">
      <path
         sodipodi:type="arc"
         style="fill:url(#linearGradient4566);fill-opacity:1;fill-rule:nonzero;stroke:none"
         id="path3374"
         sodipodi:cx="18.089285"
         sodipodi:cy="85.0625"
         sodipodi:rx="2.0892856"
         sodipodi:ry="2.0982144"
         d="m 20.178571,85.0625 a 2.0892856,2.0982144 0 1 1 -4.178572,0 2.0892856,2.0982144 0 1 1 4.178572,0 z"
         transform="matrix(0,1.6709402,1.6638297,0,-122.03844,53.282815)" />
      <path
         transform="matrix(0.9462917,0,0,0.9422649,2.3733252,3.3575217)"
         d="m 20.178571,85.0625 a 2.0892856,2.0982144 0 1 1 -4.178572,0 2.0892856,2.0982144 0 1 1 4.178572,0 z"
         sodipodi:ry="2.0982144"
         sodipodi:rx="2.0892856"
         sodipodi:cy="85.0625"
         sodipodi:cx="18.089285"
         id="path3364"
         style="fill:url(#radialGradient3558);fill-opacity:1;fill-rule:nonzero;stroke:none"
         sodipodi:type="arc" />
    </g>
    <path
       id="path3235"
       d="M 3,21 C 1.892,21 1,20.108 1,19 l 0,-1 c 0,1.108 0.892,2 2,2 l 16,0 c 1.108,0 2,-0.892 2,-2 l 0,1 c 0,1.108 -0.892,2 -2,2 L 3,21 z"
       style="opacity:0.3;fill:url(#linearGradient3845);fill-opacity:1;fill-rule:evenodd;stroke:none;display:inline"
       inkscape:connector-curvature="0" />
  </g>
  <g
     inkscape:label="Top"
     inkscape:groupmode="layer"
     id="layer1"
     style="display:inline">
    <rect
       ry="1"
       rx="1"
       y="2"
       x="-27"
       height="12"
       width="16"
       id="rect3806"
       style="opacity:0.3;fill:#000000;fill-opacity:1;fill-rule:nonzero;stroke:none" />
    <rect
       style="fill:url(#linearGradient3181);fill-opacity:1;fill-rule:evenodd;stroke:none;display:inline"
       id="rect3173"
       width="20"
       height="15"
       x="1"
       y="-16"
       rx="2"
       ry="2"
       transform="scale(1,-1)" />
    <path
       style="opacity:0.25;fill:#ffffff;fill-opacity:1;fill-rule:evenodd;stroke:none;display:inline"
       d="m 2.9999999,0.99999982 c -1.108,0 -1.99999997,0.89199998 -1.99999997,1.99999998 l 0,1 c 0,-1.108 0.89199997,-2 1.99999997,-2 l 16.0000001,0 c 1.108,0 2,0.892 2,2 l 0,-1 c 0,-1.108 -0.892,-1.99999998 -2,-1.99999998 l -16.0000001,0 z"
       id="rect3183"
       inkscape:connector-curvature="0" />
    <path
       style="opacity:0.8;fill:url(#linearGradient4201);fill-opacity:1;fill-rule:evenodd;stroke:none;display:inline"
       d="M 3,1 C 1.892,1 1,1.892 1,3 l 0,10.971731 c 0,1.108 0.892,2 2,2 l 16,0 c 1.108,0 2,-0.892 2,-2 L 21,3 C 21,1.892 20.108,1 19,1 L 3,1 z m 0,1 16,0 c 0.571596,0 1,0.4284045 1,1 l 0,10.971731 c 0,0.571596 -0.428404,1 -1,1 l -16,0 c -0.5715955,0 -1,-0.428404 -1,-1 L 2,3 C 2,2.4284045 2.4284045,2 3,2 z"
       id="path4188"
       sodipodi:nodetypes="cccccccccccccccccc"
       inkscape:connector-curvature="0" />
    <path
       style="fill:url(#linearGradient3809);fill-opacity:1;fill-rule:nonzero;stroke:none"
       d="M 4,2 C 3.446,2 3,2.446 3,3 l 0,10 c 0,0.554 0.446,1 1,1 l 14,0 c 0.554,0 1,-0.446 1,-1 L 19,3 C 19,2.446 18.554,2 18,2 L 4,2 z"
       id="rect3797"
       inkscape:connector-curvature="0" />
    <g
       id="g3873"
       clip-path="url(#clipPath3930)"
       inkscape:transform-center-y="6.5000001"
       transform="matrix(0.70710679,0.70710678,-0.70710678,0.70710679,8.1715729,-5.727922)">
      <path
         inkscape:transform-center-y="6.4999997"
         inkscape:transform-center-x="1.6823236"
         sodipodi:end="0.52359878"
         sodipodi:start="0"
         transform="matrix(0,0.89271578,-1.4444444,-2.2377086e-8,21.111111,-2.8198737)"
         sodipodi:type="arc"
         style="fill:url(#linearGradient3885);fill-opacity:1;stroke:none"
         id="path3841"
         sodipodi:cx="11"
         sodipodi:cy="7"
         sodipodi:rx="14.562305"
         sodipodi:ry="9"
         d="m 25.562305,7 a 14.562305,9 0 0 1 -1.950979,4.5 L 11,7 z" />
      <path
         inkscape:transform-center-y="1.3461932"
         inkscape:transform-center-x="-6.5001524"
         sodipodi:end="1.3089969"
         sodipodi:start="0"
         d="M 25.562305,7 A 14.562305,9 0 0 1 14.769003,15.693332 L 11,7 z"
         sodipodi:ry="9"
         sodipodi:rx="14.562305"
         sodipodi:cy="7"
         sodipodi:cx="11"
         id="path3845"
         style="fill:url(#linearGradient3887);fill-opacity:1;stroke:none"
         sodipodi:type="arc"
         transform="matrix(0.77311454,-0.44635789,0.72222222,1.2509255,-2.5598151,3.1534579)" />
      <path
         inkscape:transform-center-y="6.4999995"
         inkscape:transform-center-x="-4.5961946"
         sodipodi:end="0.78539816"
         sodipodi:start="0"
         transform="matrix(0.63124539,0.63124538,-1.0213764,1.0213764,11.205936,-7.0933343)"
         sodipodi:type="arc"
         style="fill:url(#linearGradient3889);fill-opacity:1;stroke:none"
         id="path3847"
         sodipodi:cx="11"
         sodipodi:cy="7"
         sodipodi:rx="14.562305"
         sodipodi:ry="9"
         d="m 25.562305,7 a 14.562305,9 0 0 1 -4.2652,6.363961 L 11,7 z" />
    </g>
    <path
       style="opacity:0.3;fill:#000000;fill-opacity:1;fill-rule:nonzero;stroke:none"
       d="M 4,2 C 3.446,2 3,2.446 3,3 l 0,10 c 0,0.554 0.446,1 1,1 l 14,0 c 0.554,0 1,-0.446 1,-1 L 19,3 C 19,2.446 18.554,2 18,2 L 4,2 z m 0.59375,0.5 12.8125,0 c 0.508119,0 0.9375,0.3981312 0.9375,0.90625 l 0,8.59375 c 0,0.508119 -0.429381,0.9375 -0.9375,0.9375 l -12.8125,0 c -0.5081188,0 -0.9375,-0.429381 -0.9375,-0.9375 l 0,-8.59375 C 3.65625,2.8981312 4.0856312,2.5 4.59375,2.5 z"
       id="rect4568"
       inkscape:connector-curvature="0" />
    <rect
       ry="0.91718197"
       rx="0.91718197"
       y="2.4969082"
       x="-26.337456"
       height="10.431978"
       width="14.674911"
       id="rect4570"
       style="fill:url(#linearGradient4578);fill-opacity:1;fill-rule:nonzero;stroke:none" />
    <path
       style="opacity:0.3;fill:#ffffff;fill-opacity:1;fill-rule:nonzero;stroke:none"
       d="m 3.65625,11 0,1 c 0,0.508119 0.4293812,0.9375 0.9375,0.9375 l 12.8125,0 c 0.508119,0 0.937499,-0.429381 0.9375,-0.9375 l 0,-1 c -1e-6,0.508119 -0.429381,0.9375 -0.9375,0.9375 l -12.8125,0 c -0.5081188,0 -0.9375,-0.429381 -0.9375,-0.9375 z"
       id="rect4585"
       inkscape:connector-curvature="0" />
  </g>
  <g
     inkscape:groupmode="layer"
     id="layer4"
     inkscape:label="Symbol"
     sodipodi:insensitive="true">
    <path
       transform="matrix(1,0,0,0.95833333,30,1.5)"
       d="M 18,6 A 7,6 0 1 1 4,6 7,6 0 1 1 18,6 z"
       sodipodi:ry="6"
       sodipodi:rx="7"
       sodipodi:cy="6"
       sodipodi:cx="11"
       id="path2955"
       style="opacity:0.8;fill:#000000;fill-opacity:1;stroke:none;filter:url(#filter3736)"
       sodipodi:type="arc" />
    <path
       d="m 47.989469,6.2089411 c 0,3.1899077 -3.131302,5.7751539 -6.994547,5.7751539 C 37.131676,11.984095 34,9.3988488 34,6.2089411 c 0,-3.1899087 3.132048,-5.77515572 6.994922,-5.77515572 3.863245,0 6.994547,2.58524702 6.994547,5.77515572 l 0,0 z"
       id="path3935"
       style="fill:url(#linearGradient3777);fill-opacity:1;fill-rule:nonzero;stroke:none;display:inline"
       inkscape:connector-curvature="0" />
    <path
       d="m 47.989469,5.7162049 c 0.24879,4.2975001 -3.986875,5.8174411 -4.630169,5.9178811 l -2.364566,-5.9479601 6.994362,0.03008 3.92e-4,0 z"
       id="path3939"
       style="fill:url(#linearGradient3774);fill-opacity:1;fill-rule:nonzero;stroke:none;display:inline"
       inkscape:connector-curvature="0" />
    <path
       d="m 40.994734,5.6839266 2.413184,5.9501594 c -1.71371,0.554322 -3.462393,0.350009 -3.81213,0.214206 l 1.398946,-6.1643654 z"
       id="path3943"
       style="fill:url(#linearGradient3771);fill-opacity:1;fill-rule:nonzero;stroke:none;display:inline"
       inkscape:connector-curvature="0" />
    <path
       style="opacity:0.4;fill:#ffffff;fill-opacity:1;stroke:none"
       d="M 34.03125,5.84375 C 34.019947,5.9773638 34,6.1140266 34,6.25 34,9.4256373 37.134007,12 41,12 44.865993,12 48,9.4256373 48,6.25 48,6.1140266 47.980053,5.9773638 47.96875,5.84375 47.61028,8.7432224 44.624369,11 41,11 37.375631,11 34.38972,8.7432224 34.03125,5.84375 z"
       id="path2953"
       inkscape:connector-curvature="0" />
  </g>
</svg>
