<?xml version="1.0" encoding="UTF-8" standalone="no"?>
<!-- Created with Inkscape (http://www.inkscape.org/) -->

<svg
   xmlns:dc="http://purl.org/dc/elements/1.1/"
   xmlns:cc="http://creativecommons.org/ns#"
   xmlns:rdf="http://www.w3.org/1999/02/22-rdf-syntax-ns#"
   xmlns:svg="http://www.w3.org/2000/svg"
   xmlns="http://www.w3.org/2000/svg"
   xmlns:xlink="http://www.w3.org/1999/xlink"
   xmlns:sodipodi="http://sodipodi.sourceforge.net/DTD/sodipodi-0.dtd"
   xmlns:inkscape="http://www.inkscape.org/namespaces/inkscape"
   width="24"
   height="24"
   id="svg2"
   sodipodi:version="0.32"
   inkscape:version="0.48.0 r9654"
   version="1.0"
   sodipodi:docname="jokosher.svg"
   inkscape:output_extension="org.inkscape.output.svg.inkscape"
   style="display:inline">
  <defs
     id="defs4">
    <linearGradient
       inkscape:collect="always"
       id="linearGradient3327">
      <stop
         style="stop-color:#000000;stop-opacity:1;"
         offset="0"
         id="stop3330" />
      <stop
         style="stop-color:#000000;stop-opacity:0;"
         offset="1"
         id="stop3333" />
    </linearGradient>
    <linearGradient
       inkscape:collect="always"
       xlink:href="#linearGradient3327"
       id="linearGradient3335"
       x1="11.375"
       y1="22"
       x2="11.375"
       y2="-9.817296"
       gradientUnits="userSpaceOnUse" />
    <linearGradient
       inkscape:collect="always"
       xlink:href="#linearGradient3700"
       id="linearGradient3181"
       x1="-3.0607977"
       y1="27.258198"
       x2="-3.0607977"
       y2="7.2536583"
       gradientUnits="userSpaceOnUse"
       gradientTransform="translate(12.119372,-7.2581977)" />
    <inkscape:perspective
       sodipodi:type="inkscape:persp3d"
       inkscape:vp_x="0 : 11 : 1"
       inkscape:vp_y="0 : 1000 : 0"
       inkscape:vp_z="22 : 11 : 1"
       inkscape:persp3d-origin="11 : 7.3333333 : 1"
       id="perspective2531" />
    <linearGradient
       id="ButtonShadow"
       gradientTransform="scale(0.9883037,1.0118347)"
       x1="9.3550024"
       y1="21.742682"
       x2="9.3550024"
       y2="0.49362123"
       gradientUnits="userSpaceOnUse">
      <stop
         id="stop3277"
         offset="0"
         style="stop-color:#000000;stop-opacity:0.70588237;" />
      <stop
         id="stop3279"
         offset="1"
         style="stop-color:#000000;stop-opacity:0.15686275;" />
    </linearGradient>
    <linearGradient
       inkscape:collect="always"
       id="linearGradient3232">
      <stop
         style="stop-color:#000000;stop-opacity:1;"
         offset="0"
         id="stop3234" />
      <stop
         style="stop-color:#000000;stop-opacity:0;"
         offset="1"
         id="stop3236" />
    </linearGradient>
    <linearGradient
       gradientUnits="userSpaceOnUse"
       y2="-6.0004225"
       x2="11"
       y1="14.805666"
       x1="11"
       id="linearGradient3221"
       xlink:href="#linearGradient3232"
       inkscape:collect="always" />
    <linearGradient
       id="ButtonColor"
       x1="10.31979"
       y1="21"
       x2="10.31979"
       y2="0.99929649"
       gradientUnits="userSpaceOnUse">
      <stop
         style="stop-color:#29669f;stop-opacity:1;"
         offset="0"
         id="stop3189" />
      <stop
         style="stop-color:#88b6e0;stop-opacity:1;"
         offset="1"
         id="stop3191" />
    </linearGradient>
    <linearGradient
       inkscape:collect="always"
       xlink:href="#ButtonShadow"
       id="linearGradient38042"
       gradientUnits="userSpaceOnUse"
       gradientTransform="scale(0.9883037,1.0118347)"
       x1="9.3550024"
       y1="21.742682"
       x2="9.3550024"
       y2="0.49362123" />
    <filter
       inkscape:collect="always"
       id="filter3194"
       x="-0.18000001"
       width="1.36"
       y="-0.18000001"
       height="1.36"
       color-interpolation-filters="sRGB">
      <feGaussianBlur
         inkscape:collect="always"
         stdDeviation="1.2"
         id="feGaussianBlur3196" />
    </filter>
    <clipPath
       clipPathUnits="userSpaceOnUse"
       id="clipPath2849">
      <rect
         ry="2"
         rx="2"
         y="1"
         x="1"
         height="20"
         width="20"
         id="rect2851"
         style="fill:#ffffff;fill-opacity:1;fill-rule:evenodd;stroke:none;display:inline" />
    </clipPath>
    <linearGradient
       y2="16"
       x2="10"
       y1="1"
       x1="10"
       gradientUnits="userSpaceOnUse"
       id="linearGradient3078"
       xlink:href="#linearGradient3823"
       inkscape:collect="always"
       gradientTransform="translate(1,-1)" />
    <linearGradient
       id="linearGradient3823">
      <stop
         id="stop3825"
         offset="0"
         style="stop-color:#ffffff;stop-opacity:1;" />
      <stop
         id="stop3829"
         offset="1"
         style="stop-color:#ffffff;stop-opacity:0;" />
    </linearGradient>
    <linearGradient
       inkscape:collect="always"
       xlink:href="#linearGradient3831"
       id="linearGradient3845"
       x1="11"
       y1="19.5"
       x2="21"
       y2="19.5"
       gradientUnits="userSpaceOnUse"
       spreadMethod="reflect"
       gradientTransform="translate(1,-1)" />
    <linearGradient
       id="linearGradient3831">
      <stop
         style="stop-color:#ffffff;stop-opacity:1;"
         offset="0"
         id="stop3833" />
      <stop
         id="stop3821"
         offset="0.75"
         style="stop-color:#ffffff;stop-opacity:0.49803922;" />
      <stop
         style="stop-color:#ffffff;stop-opacity:0;"
         offset="1"
         id="stop3835" />
    </linearGradient>
    <linearGradient
       y2="16"
       x2="10"
       y1="1"
       x1="10"
       gradientTransform="translate(1,-1)"
       gradientUnits="userSpaceOnUse"
       id="linearGradient3961"
       xlink:href="#linearGradient3823"
       inkscape:collect="always" />
    <linearGradient
       inkscape:collect="always"
       xlink:href="#linearGradient3700"
       id="linearGradient3617"
       gradientUnits="userSpaceOnUse"
       x1="48"
       y1="90"
       x2="48"
       y2="5.9877172" />
    <linearGradient
       id="linearGradient3700">
      <stop
         style="stop-color:#f57900;stop-opacity:1"
         offset="0"
         id="stop3702" />
      <stop
         style="stop-color:#fab234;stop-opacity:1;"
         offset="1"
         id="stop3704" />
    </linearGradient>
    <linearGradient
       gradientTransform="translate(-46,-34)"
       y2="5.9877172"
       x2="48"
       y1="90"
       x1="48"
       gradientUnits="userSpaceOnUse"
       id="linearGradient3982"
       xlink:href="#linearGradient3700"
       inkscape:collect="always" />
    <radialGradient
       inkscape:collect="always"
       xlink:href="#linearGradient3908"
       id="radialGradient3914"
       cx="48"
       cy="48"
       fx="48"
       fy="48"
       r="42"
       gradientUnits="userSpaceOnUse" />
    <linearGradient
       id="linearGradient3908">
      <stop
         style="stop-color:#d45500;stop-opacity:0.34351146;"
         offset="0"
         id="stop3910" />
      <stop
         style="stop-color:#d45500;stop-opacity:1;"
         offset="1"
         id="stop3912" />
    </linearGradient>
    <radialGradient
       gradientTransform="matrix(0.23809524,0,0,0.23809524,0.57142857,-1.4285714)"
       r="42"
       fy="48"
       fx="48"
       cy="48"
       cx="48"
       gradientUnits="userSpaceOnUse"
       id="radialGradient3999"
       xlink:href="#linearGradient3908"
       inkscape:collect="always" />
    <linearGradient
       gradientTransform="matrix(0.23809524,0,0,0.23809524,0.5714286,0.571434)"
       y2="64"
       x2="16"
       y1="16"
       x1="96"
       gradientUnits="userSpaceOnUse"
       id="linearGradient3954"
       xlink:href="#linearGradient3697"
       inkscape:collect="always" />
    <linearGradient
       inkscape:collect="always"
       id="linearGradient3697">
      <stop
         style="stop-color:#ffffff;stop-opacity:1;"
         offset="0"
         id="stop3699" />
      <stop
         style="stop-color:#ffffff;stop-opacity:0;"
         offset="1"
         id="stop3701" />
    </linearGradient>
    <linearGradient
       y2="64"
       x2="16"
       y1="16"
       x1="96"
       gradientTransform="matrix(0.23809524,0,0,0.23809524,0.5714286,-1.428566)"
       gradientUnits="userSpaceOnUse"
       id="linearGradient3059"
       xlink:href="#linearGradient3697"
       inkscape:collect="always" />
  </defs>
  <sodipodi:namedview
     id="base"
     pagecolor="#ffffff"
     bordercolor="#e7e7e7"
     borderopacity="1"
     inkscape:pageopacity="0.0"
     inkscape:pageshadow="2"
     inkscape:zoom="14.698516"
     inkscape:cx="-14.968323"
     inkscape:cy="17.280332"
     inkscape:document-units="px"
     inkscape:current-layer="layer1"
     showgrid="true"
     inkscape:showpageshadow="false"
     showguides="false"
     inkscape:guide-bbox="true"
     inkscape:window-width="1920"
     inkscape:window-height="1029"
     inkscape:window-x="0"
     inkscape:window-y="25"
     inkscape:window-maximized="1">
    <sodipodi:guide
       orientation="1,0"
       position="0,112"
       id="guide2383" />
    <sodipodi:guide
       orientation="0,1"
       position="26.278146,128"
       id="guide2385" />
    <sodipodi:guide
       orientation="1,0"
       position="128,54.082119"
       id="guide2387" />
    <sodipodi:guide
       orientation="0,1"
       position="78.156291,0"
       id="guide2389" />
    <sodipodi:guide
       orientation="0,1"
       position="60.863576,64.084768"
       id="guide2391" />
    <inkscape:grid
       type="xygrid"
       id="grid3672"
       visible="true"
       enabled="true"
       empspacing="8"
       snapvisiblegridlinesonly="true" />
  </sodipodi:namedview>
  <metadata
     id="metadata7">
    <rdf:RDF>
      <cc:Work
         rdf:about="">
        <dc:format>image/svg+xml</dc:format>
        <dc:type
           rdf:resource="http://purl.org/dc/dcmitype/StillImage" />
        <dc:title />
      </cc:Work>
    </rdf:RDF>
  </metadata>
  <g
     inkscape:label="Button"
     inkscape:groupmode="layer"
     id="layer1"
     transform="translate(0,2)">
    <g
       style="display:inline"
       id="g3337"
       transform="translate(1,-1)">
      <rect
         ry="2.5"
         rx="2.5"
         y="0.5"
         x="0.5"
         height="21.5"
         width="21"
         id="rect3371"
         style="opacity:0.3;fill:url(#linearGradient3335);fill-opacity:1;stroke:none;display:inline" />
      <rect
         style="opacity:0.5;fill:#000000;fill-opacity:1;stroke:none;display:inline"
         id="rect2553"
         width="20"
         height="20"
         x="1"
         y="2"
         rx="2.3809524"
         ry="2.3255813" />
    </g>
    <rect
       style="fill:url(#linearGradient3181);fill-opacity:1;fill-rule:evenodd;stroke:none;display:inline"
       id="rect3173"
       width="20"
       height="20"
       x="2"
       y="0"
       rx="2"
       ry="2" />
    <path
       inkscape:connector-curvature="0"
       style="opacity:0.4;fill:url(#linearGradient3059);fill-opacity:1;fill-rule:nonzero;stroke:none;display:inline"
       d="M 4,0 C 2.892,0 2,0.892 2,2 l 0,10.59375 c 4.192514,-2.743341 10.536604,-4.5 17.625,-4.5 0.804283,0 1.59215,0.0186 2.375,0.0625 L 22,2 C 22,0.892 21.108,0 20,0 L 4,0 z"
       id="rect3690" />
    <path
       style="opacity:0.4;fill:url(#radialGradient3999);fill-opacity:1;stroke:none"
       d="M 2,16.458333 11.68006,10.31994 5.452381,20 9.8571429,20 12,10.424107 14.083333,20 l 4.375,0 L 12.31994,10.31994 22,16.547619 22,12.142857 12.424107,10 22,7.9166667 22,3.5416667 12.31994,9.6800595 18.547619,0 14.142857,0 12,9.5758929 9.9166667,0 5.5416667,0 11.68006,9.6800595 2,3.452381 2,7.8571429 11.575893,10 2,12.083333 l 0,4.375 z"
       id="path4141"
       inkscape:connector-curvature="0" />
    <path
       id="path3018"
       d="m -26,-1.8e-7 c -1.108,0 -2,0.89199998 -2,1.99999998 l 0,1 c 0,-1.108 0.892,-2 2,-2 l 16,0 c 1.108,0 2,0.892 2,2 l 0,-1 C -8,0.8919998 -8.892,-1.8e-7 -10,-1.8e-7 l -16,0 z"
       style="opacity:0.25;fill:#ffffff;fill-opacity:1;fill-rule:evenodd;stroke:none;display:inline"
       inkscape:connector-curvature="0" />
    <path
       style="opacity:0.15;fill:#000000;fill-opacity:1;fill-rule:evenodd;stroke:none;display:inline"
       d="m -26,19.999999 c -1.108,0 -2,-0.891999 -2,-1.999999 l 0,-1 c 0,1.108 0.892,2 2,2 l 16,0 c 1.108,0 2,-0.892 2,-2 l 0,1 c 0,1.108 -0.892,1.999999 -2,1.999999 l -16,0 z"
       id="path3020"
       inkscape:connector-curvature="0" />
    <path
       style="opacity:0.35;fill:url(#linearGradient3961);fill-opacity:1;fill-rule:evenodd;stroke:none;display:inline"
       d="M 4,0 C 2.892,0 2,0.892 2,2 l 0,16 c 0,1.108 0.892,2 2,2 l 16,0 c 1.108,0 2,-0.892 2,-2 L 22,2 C 22,0.892 21.108,0 20,0 L 4,0 z m 0,1.03125 16,0 c 0.5497,0 0.96875,0.4190495 0.96875,0.96875 l 0,16 c 0,0.5497 -0.41905,0.96875 -0.96875,0.96875 l -16,0 C 3.4502995,18.96875 3.03125,18.5497 3.03125,18 l 0,-16 C 3.03125,1.4502995 3.4502995,1.03125 4,1.03125 z"
       id="rect3050"
       inkscape:connector-curvature="0" />
    <path
       id="path3235"
       d="M 4,20 C 2.892,20 2,19.108 2,18 l 0,-1 c 0,1.108 0.892,2 2,2 l 16,0 c 1.108,0 2,-0.892 2,-2 l 0,1 c 0,1.108 -0.892,2 -2,2 L 4,20 z"
       style="opacity:0.2;fill:url(#linearGradient3845);fill-opacity:1;fill-rule:evenodd;stroke:none;display:inline"
       inkscape:connector-curvature="0" />
  </g>
  <g
     inkscape:groupmode="layer"
     id="layer2"
     inkscape:label="Highlight"
     transform="translate(0,2)"
     style="display:inline"
     sodipodi:insensitive="true">
    <rect
       style="opacity:0.05;fill:#ffffff;fill-opacity:1;fill-rule:nonzero;stroke:none;display:inline;filter:url(#filter3194)"
       id="rect2410"
       width="16"
       height="16"
       x="3"
       y="3"
       rx="2"
       ry="2"
       clip-path="url(#clipPath2849)"
       transform="translate(1,-1)" />
  </g>
  <g
     inkscape:groupmode="layer"
     id="layer3"
     inkscape:label="Symbol"
     transform="translate(0,2)">
    <path
       sodipodi:type="inkscape:offset"
       inkscape:radius="0.70293474"
       inkscape:original="M 18.03125 3.15625 A 0.55937126 0.55937126 0 0 0 17.96875 3.1875 L 14.875 3.875 A 0.55937126 0.55937126 0 0 0 14.4375 4.40625 L 14.4375 14.1875 C 14.437498 14.683235 14.354259 14.968609 14.25 15.125 C 14.181166 15.22825 14.060024 15.312499 13.6875 15.3125 C 13.429162 15.3125 13.217652 15.296692 13.125 15.28125 C 13.009549 15.263487 12.86581 15.226104 12.65625 15.15625 A 0.55937126 0.55937126 0 0 0 11.90625 15.59375 L 11.5 18.125 A 0.55937126 0.55937126 0 0 0 11.875 18.75 C 12.253225 18.876071 12.646399 18.955417 13.0625 19 C 13.446199 19.042634 13.73453 19.062495 13.96875 19.0625 C 15.394081 19.062495 16.602584 18.693539 17.4375 17.875 C 18.285644 17.043479 18.656245 15.783418 18.65625 14.25 L 18.65625 3.71875 A 0.55937126 0.55937126 0 0 0 18.03125 3.15625 z "
       style="font-size:64px;font-style:normal;font-variant:normal;font-weight:bold;font-stretch:normal;text-align:start;line-height:125%;letter-spacing:0px;word-spacing:0px;writing-mode:lr-tb;text-anchor:start;opacity:0.05;fill:#2b1100;fill-opacity:1;stroke:none;font-family:Ubuntu;-inkscape-font-specification:Ubuntu Bold"
       id="path3883"
       d="m 18,2.4375 c 0.0025,-1.64e-4 -0.06503,0.031549 -0.0625,0.03125 A 0.70300504,0.70300504 0 0 0 17.8125,2.5 0.70300504,0.70300504 0 0 0 17.75,2.5 c 0.0028,-0.00117 -0.06517,0.032588 -0.0625,0.03125 L 14.71875,3.1875 c 0.0039,-8.622e-4 -0.09753,0.032429 -0.09375,0.03125 0.0038,-0.00118 -0.09742,0.032738 -0.09375,0.03125 0.0037,-0.00149 -0.09729,0.033037 -0.09375,0.03125 0.0035,-0.00179 -0.09713,0.064574 -0.09375,0.0625 0.0034,-0.00207 -0.09694,0.064846 -0.09375,0.0625 0.0032,-0.00235 -0.09674,0.065102 -0.09375,0.0625 0.003,-0.0026 -0.06526,0.065341 -0.0625,0.0625 0.0028,-0.00284 -0.06502,0.09681 -0.0625,0.09375 0.0025,-0.00306 -0.06476,0.065758 -0.0625,0.0625 0.0023,-0.00326 -0.06448,0.097183 -0.0625,0.09375 0.002,-0.00343 -0.06419,0.097335 -0.0625,0.09375 0.0017,-0.00359 -0.03264,0.097463 -0.03125,0.09375 0.0014,-0.00371 -0.03233,0.1288148 -0.03125,0.125 0.0011,-0.00381 -0.03201,0.097641 -0.03125,0.09375 7.56e-4,-0.00389 -4.32e-4,0.09769 0,0.09375 4.32e-4,-0.00394 -1.04e-4,0.097712 0,0.09375 a 0.70300504,0.70300504 0 0 0 0,0.03125 l 0,9.78125 c -10e-7,0.323119 -0.0474,0.391325 -0.0625,0.4375 -0.229662,0 -0.439232,-0.03154 -0.4375,-0.03125 a 0.70300504,0.70300504 0 0 0 -0.03125,0 c -0.05091,-0.0078 -0.151464,-0.04165 -0.3125,-0.09375 9.95e-4,3.75e-4 -0.01809,0.0045 -0.03125,0 -0.01974,-0.0068 -0.03277,-0.03173 -0.03125,-0.03125 0.0025,7.98e-4 -0.06508,-6.56e-4 -0.0625,0 0.0026,6.56e-4 -0.09636,-0.03176 -0.09375,-0.03125 0.0026,5.12e-4 -0.06513,-3.66e-4 -0.0625,0 0.0026,3.66e-4 -0.06515,-0.03147 -0.0625,-0.03125 0.0026,2.2e-4 -0.06516,-7.2e-5 -0.0625,0 0.0027,7.2e-5 -0.06516,7.5e-5 -0.0625,0 0.0027,-7.5e-5 -0.0964,2.23e-4 -0.09375,0 0.0026,-2.23e-4 -0.06513,0.03162 -0.0625,0.03125 0.0026,-3.69e-4 -0.06511,5.15e-4 -0.0625,0 0.0026,-5.15e-4 -0.06507,0.03191 -0.0625,0.03125 0.0026,-6.59e-4 -0.06503,8e-4 -0.0625,0 0.0025,-8e-4 -0.09624,0.03219 -0.09375,0.03125 0.0025,-9.4e-4 -0.06493,0.03233 -0.0625,0.03125 0.0024,-0.0011 -0.06487,0.03246 -0.0625,0.03125 0.0024,-0.0012 -0.0648,0.03259 -0.0625,0.03125 0.0023,-0.0013 -0.06472,0.03271 -0.0625,0.03125 0.0022,-0.0015 -0.03338,0.03284 -0.03125,0.03125 0.0021,-0.0016 -0.06454,0.0642 -0.0625,0.0625 0.002,-0.0017 -0.06444,0.03306 -0.0625,0.03125 0.0019,-0.0018 -0.03309,0.06442 -0.03125,0.0625 0.0018,-0.0019 -0.06423,0.03327 -0.0625,0.03125 0.0017,-0.002 -0.03287,0.06461 -0.03125,0.0625 0.0016,-0.0021 -0.064,0.0647 -0.0625,0.0625 0.0015,-0.0022 -0.03262,0.06477 -0.03125,0.0625 0.0014,-0.0023 -0.0325,0.06485 -0.03125,0.0625 0.0012,-0.0023 -0.03236,0.06491 -0.03125,0.0625 0.0011,-0.0024 -0.03223,0.06497 -0.03125,0.0625 9.77e-4,-0.0025 -0.03209,0.06502 -0.03125,0.0625 8.38e-4,-0.0025 -6.97e-4,0.06506 0,0.0625 6.97e-4,-0.0026 -0.0318,0.0651 -0.03125,0.0625 3.69e-4,-0.0017 0.0039,0.0415 0,0.0625 -0.0019,0.0105 -1.36e-4,0.03213 0,0.03125 L 10.8125,18 c 3.57e-4,-0.0021 -2.64e-4,0.06461 0,0.0625 2.64e-4,-0.0021 -0.03142,0.06461 -0.03125,0.0625 1.71e-4,-0.0021 -7.7e-5,0.06462 0,0.0625 7.7e-5,-0.0021 1.7e-5,0.03337 0,0.03125 -1.7e-5,-0.0021 1.12e-4,0.06462 0,0.0625 -1.12e-4,-0.0021 2.05e-4,0.06461 0,0.0625 -2.05e-4,-0.0021 0.03155,0.0646 0.03125,0.0625 -2.99e-4,-0.0021 3.92e-4,0.03334 0,0.03125 -3.92e-4,-0.0021 4.84e-4,0.06457 0,0.0625 -4.84e-4,-0.0021 0.03182,0.06454 0.03125,0.0625 -5.75e-4,-0.002 6.65e-4,0.06452 0,0.0625 -6.65e-4,-0.002 0.032,0.03323 0.03125,0.03125 -7.54e-4,-0.002 0.03209,0.06445 0.03125,0.0625 -8.41e-4,-0.0019 9.26e-4,0.06441 0,0.0625 -9.26e-4,-0.0019 0.03226,0.03312 0.03125,0.03125 -0.001,-0.0019 0.03234,0.06432 0.03125,0.0625 -0.0011,-0.0018 0.03242,0.03302 0.03125,0.03125 -0.0012,-0.0018 0.0325,0.06422 0.03125,0.0625 -0.0012,-0.0017 0.03257,0.03291 0.03125,0.03125 -0.0013,-0.0017 0.03265,0.0641 0.03125,0.0625 -0.0014,-0.0016 0.03271,0.03279 0.03125,0.03125 -0.0015,-0.0015 0.06403,0.03272 0.0625,0.03125 -0.0015,-0.0015 0.03285,0.03265 0.03125,0.03125 -0.0016,-0.0014 0.03291,0.06383 0.03125,0.0625 -0.0017,-0.0013 0.06421,0.0325 0.0625,0.03125 -0.0017,-0.0013 0.03302,0.03242 0.03125,0.03125 -0.0018,-0.0012 0.06432,0.03235 0.0625,0.03125 -0.0018,-0.0011 0.03311,0.001 0.03125,0 -0.0019,-0.001 0.06441,0.03218 0.0625,0.03125 -0.0019,-9.3e-4 0.06445,0.0321 0.0625,0.03125 -0.0019,-8.45e-4 0.03323,0.03201 0.03125,0.03125 -0.002,-7.58e-4 0.06451,6.69e-4 0.0625,0 0.432926,0.144304 0.886443,0.232252 1.34375,0.28125 0.398299,0.04426 0.694805,0.06249 0.96875,0.0625 1.546636,-5e-6 2.967102,-0.392999 3.96875,-1.375 1.028543,-1.008385 1.406245,-2.478325 1.40625,-4.125 l 0,-10.53125 c -3.2e-5,0.00254 -1.03e-4,-0.065042 0,-0.0625 1.03e-4,0.00254 -2.38e-4,-0.065033 0,-0.0625 2.38e-4,0.00253 -3.72e-4,-0.065016 0,-0.0625 3.72e-4,0.00252 -5.06e-4,-0.064993 0,-0.0625 5.06e-4,0.00249 -0.03189,-0.064963 -0.03125,-0.0625 6.37e-4,0.00246 -7.67e-4,-0.064925 0,-0.0625 7.67e-4,0.00243 -0.03214,-0.064881 -0.03125,-0.0625 8.95e-4,0.00238 -0.03227,-0.06483 -0.03125,-0.0625 0.001,0.00233 -0.03239,-0.064773 -0.03125,-0.0625 0.0011,0.00227 -0.03251,-0.064709 -0.03125,-0.0625 0.0013,0.00221 -0.03263,-0.064639 -0.03125,-0.0625 0.0014,0.00214 -0.03274,-0.064562 -0.03125,-0.0625 0.0015,0.00206 -0.03285,-0.06448 -0.03125,-0.0625 0.0016,0.00198 -0.0642,-0.033143 -0.0625,-0.03125 0.0017,0.00189 -0.03305,-0.0643 -0.03125,-0.0625 0.0018,0.0018 -0.06439,-0.032952 -0.0625,-0.03125 0.0019,0.0017 -0.06448,-0.064099 -0.0625,-0.0625 0.002,0.0016 -0.03331,-0.032741 -0.03125,-0.03125 0.0021,0.00149 -0.06464,-0.03263 -0.0625,-0.03125 0.0021,0.00138 -0.06471,-0.032514 -0.0625,-0.03125 0.0022,0.00126 -0.06477,-0.032395 -0.0625,-0.03125 0.0023,0.00115 -0.06483,-0.032273 -0.0625,-0.03125 0.0023,0.00102 -0.06488,-0.032148 -0.0625,-0.03125 0.0024,8.978e-4 -0.06492,-0.03202 -0.0625,-0.03125 0.0024,7.701e-4 -0.06496,-6.402e-4 -0.0625,0 0.0025,6.402e-4 -0.06499,-0.031759 -0.0625,-0.03125 0.0025,5.085e-4 -0.06502,-3.754e-4 -0.0625,0 0.0025,3.754e-4 -0.06503,-2.412e-4 -0.0625,0 0.0025,2.412e-4 -0.06504,-0.031356 -0.0625,-0.03125 0.0025,1.063e-4 -0.06504,2.89e-5 -0.0625,0 0.0025,-2.89e-5 -0.09629,1.64e-4 -0.09375,0 z" />
    <path
       sodipodi:type="inkscape:offset"
       inkscape:radius="0.55931532"
       inkscape:original="M 18.09375 3.71875 L 15 4.40625 L 15 14.1875 C 14.999998 14.741892 14.912785 15.146442 14.71875 15.4375 C 14.524712 15.728554 14.172592 15.874999 13.6875 15.875 C 13.424164 15.875 13.197568 15.87147 13.03125 15.84375 C 12.851074 15.816029 12.676647 15.7568 12.46875 15.6875 L 12.0625 18.21875 C 12.395137 18.329625 12.736927 18.39592 13.125 18.4375 C 13.499214 18.47908 13.774713 18.499996 13.96875 18.5 C 15.299287 18.499995 16.324399 18.161736 17.03125 17.46875 C 17.738094 16.77576 18.093745 15.691416 18.09375 14.25 L 18.09375 3.71875 z "
       style="font-size:64px;font-style:normal;font-variant:normal;font-weight:bold;font-stretch:normal;text-align:start;line-height:125%;letter-spacing:0px;word-spacing:0px;writing-mode:lr-tb;text-anchor:start;opacity:0.15;fill:#2b1100;fill-opacity:1;stroke:none;font-family:Ubuntu;-inkscape-font-specification:Ubuntu Bold"
       id="path3879"
       d="M 18.03125,3.15625 A 0.55937126,0.55937126 0 0 0 17.96875,3.1875 L 14.875,3.875 a 0.55937126,0.55937126 0 0 0 -0.4375,0.53125 l 0,9.78125 c -2e-6,0.495735 -0.08324,0.781109 -0.1875,0.9375 -0.06883,0.10325 -0.189976,0.187499 -0.5625,0.1875 -0.258338,0 -0.469848,-0.01581 -0.5625,-0.03125 -0.115451,-0.01776 -0.25919,-0.05515 -0.46875,-0.125 a 0.55937126,0.55937126 0 0 0 -0.75,0.4375 L 11.5,18.125 a 0.55937126,0.55937126 0 0 0 0.375,0.625 c 0.378225,0.126071 0.771399,0.205417 1.1875,0.25 0.383699,0.04263 0.67203,0.06249 0.90625,0.0625 1.425331,-5e-6 2.633834,-0.368961 3.46875,-1.1875 0.848144,-0.831521 1.218745,-2.091582 1.21875,-3.625 l 0,-10.53125 a 0.55937126,0.55937126 0 0 0 -0.625,-0.5625 z" />
    <path
       sodipodi:nodetypes="cccccsssccssc"
       inkscape:connector-curvature="0"
       id="path3875"
       d="m 13.981306,18.5 c -0.194037,-4e-6 -0.478162,-0.02079 -0.852376,-0.06237 -0.388073,-0.04158 -0.748426,-0.117811 -1.081063,-0.228686 l 0.415794,-2.515549 c 0.207897,0.0693 0.401934,0.117807 0.58211,0.145528 0.166318,0.02772 0.381144,0.04158 0.64448,0.04158 0.485092,-10e-7 0.824655,-0.145529 1.018693,-0.436583 C 14.902979,15.152862 14.999998,14.730139 15,14.175747 l 0,-9.7634911 3.09766,-0.6937094 0,10.5403595 c -5e-6,1.441416 -0.353429,2.508618 -1.060273,3.201608 -0.706851,0.692986 -1.725544,1.039479 -3.056081,1.039484"
       style="font-size:64px;font-style:normal;font-variant:normal;font-weight:bold;font-stretch:normal;text-align:start;line-height:125%;letter-spacing:0px;word-spacing:0px;writing-mode:lr-tb;text-anchor:start;opacity:0.3;fill:#2b1100;fill-opacity:1;stroke:none;font-family:Ubuntu;-inkscape-font-specification:Ubuntu Bold" />
    <path
       style="font-size:64px;font-style:normal;font-variant:normal;font-weight:bold;font-stretch:normal;text-align:start;line-height:125%;letter-spacing:0px;word-spacing:0px;writing-mode:lr-tb;text-anchor:start;fill:#ffffff;fill-opacity:1;stroke:none;font-family:Ubuntu;-inkscape-font-specification:Ubuntu Bold"
       d="m 13.981306,17.923548 c -0.194037,-4e-6 -0.478162,-0.02079 -0.852376,-0.06237 -0.388073,-0.04158 -0.748426,-0.117811 -1.081063,-0.228686 l 0.415794,-2.515549 c 0.207897,0.0693 0.401934,0.117807 0.58211,0.145528 0.166318,0.02772 0.381144,0.04158 0.64448,0.04158 0.485092,-10e-7 0.824655,-0.145529 1.018693,-0.436583 C 14.902979,14.57641 14.999998,14.153687 15,13.599295 l 0,-9.7634911 3.09766,-0.6937094 0,10.5403595 c -5e-6,1.441416 -0.353429,2.508618 -1.060273,3.201608 -0.706851,0.692986 -1.725544,1.039479 -3.056081,1.039484"
       id="path3884"
       inkscape:connector-curvature="0"
       sodipodi:nodetypes="cccccsssccssc" />
  </g>
</svg>
