<?xml version="1.0" encoding="UTF-8" standalone="no"?>
<!-- Created with Inkscape (http://www.inkscape.org/) -->

<svg
   xmlns:dc="http://purl.org/dc/elements/1.1/"
   xmlns:cc="http://creativecommons.org/ns#"
   xmlns:rdf="http://www.w3.org/1999/02/22-rdf-syntax-ns#"
   xmlns:svg="http://www.w3.org/2000/svg"
   xmlns="http://www.w3.org/2000/svg"
   xmlns:xlink="http://www.w3.org/1999/xlink"
   xmlns:sodipodi="http://sodipodi.sourceforge.net/DTD/sodipodi-0.dtd"
   xmlns:inkscape="http://www.inkscape.org/namespaces/inkscape"
   width="22"
   height="22"
   id="svg2"
   sodipodi:version="0.32"
   inkscape:version="0.48.0 r9654"
   version="1.0"
   sodipodi:docname="mplayer.svg"
   inkscape:output_extension="org.inkscape.output.svg.inkscape">
  <defs
     id="defs4">
    <linearGradient
       inkscape:collect="always"
       id="linearGradient3327">
      <stop
         style="stop-color:#000000;stop-opacity:1;"
         offset="0"
         id="stop3330" />
      <stop
         style="stop-color:#000000;stop-opacity:0;"
         offset="1"
         id="stop3333" />
    </linearGradient>
    <linearGradient
       inkscape:collect="always"
       xlink:href="#linearGradient3327"
       id="linearGradient3335"
       x1="11.375"
       y1="22"
       x2="11.375"
       y2="-9.817296"
       gradientUnits="userSpaceOnUse" />
    <linearGradient
       id="ButtonColor"
       x1="10.31979"
       y1="21"
       x2="10.31979"
       y2="0.99929649"
       gradientUnits="userSpaceOnUse">
      <stop
         style="stop-color:#8f1cac;stop-opacity:1;"
         offset="0"
         id="stop16156" />
      <stop
         style="stop-color:#d285e6;stop-opacity:1;"
         offset="1"
         id="stop16158" />
    </linearGradient>
    <linearGradient
       inkscape:collect="always"
       xlink:href="#ButtonColor"
       id="linearGradient3181"
       x1="-3.0607977"
       y1="27.258198"
       x2="-3.0607977"
       y2="7.2536583"
       gradientUnits="userSpaceOnUse"
       gradientTransform="translate(11.119372,-6.2581978)" />
    <linearGradient
       id="ButtonShadow"
       gradientTransform="scale(0.9883037,1.0118347)"
       x1="9.3550024"
       y1="21.742682"
       x2="9.3550024"
       y2="0.49362123"
       gradientUnits="userSpaceOnUse">
      <stop
         id="stop3277"
         offset="0"
         style="stop-color:#000000;stop-opacity:0.70588237;" />
      <stop
         id="stop3279"
         offset="1"
         style="stop-color:#000000;stop-opacity:0.15686275;" />
    </linearGradient>
    <inkscape:perspective
       sodipodi:type="inkscape:persp3d"
       inkscape:vp_x="0 : 11 : 1"
       inkscape:vp_y="0 : 1000 : 0"
       inkscape:vp_z="22 : 11 : 1"
       inkscape:persp3d-origin="11 : 7.3333333 : 1"
       id="perspective15637" />
    <linearGradient
       id="linearGradient3257">
      <stop
         id="stop3259"
         offset="0"
         style="stop-color:#5f5f5f;stop-opacity:1;" />
      <stop
         id="stop3261"
         offset="1"
         style="stop-color:#232323;stop-opacity:1;" />
    </linearGradient>
    <linearGradient
       id="linearGradient3224">
      <stop
         style="stop-color:#0a3859;stop-opacity:1;"
         offset="0"
         id="stop3226" />
      <stop
         style="stop-color:#44b0ff;stop-opacity:1;"
         offset="1"
         id="stop3228" />
    </linearGradient>
    <linearGradient
       inkscape:collect="always"
       xlink:href="#linearGradient3224"
       id="linearGradient3225"
       gradientUnits="userSpaceOnUse"
       x1="103.44824"
       y1="18.370279"
       x2="31.712519"
       y2="112.73306"
       gradientTransform="matrix(0.1730261,0,0,0.1561342,-9.0668187e-2,-22.462242)" />
    <linearGradient
       id="linearGradient3217">
      <stop
         style="stop-color:#ffffff;stop-opacity:1;"
         offset="0"
         id="stop2712" />
      <stop
         style="stop-color:#ffffff;stop-opacity:0;"
         offset="1"
         id="stop3221" />
    </linearGradient>
    <linearGradient
       inkscape:collect="always"
       xlink:href="#linearGradient3217"
       id="linearGradient3264"
       x1="56.476936"
       y1="22.087914"
       x2="61.432373"
       y2="60.295437"
       gradientUnits="userSpaceOnUse"
       gradientTransform="matrix(0.1905792,0,0,0.1630098,-1.2289142,1.8069063)" />
    <linearGradient
       id="linearGradient3215"
       inkscape:collect="always">
      <stop
         id="stop3217"
         offset="0"
         style="stop-color:#000000;stop-opacity:1;" />
      <stop
         id="stop3219"
         offset="1"
         style="stop-color:#000000;stop-opacity:0;" />
    </linearGradient>
    <linearGradient
       gradientUnits="userSpaceOnUse"
       y2="-6.0004225"
       x2="11"
       y1="14.805666"
       x1="11"
       id="linearGradient3221"
       xlink:href="#linearGradient3215"
       inkscape:collect="always" />
    <linearGradient
       y2="5.9489675"
       x2="47.667068"
       y1="121.97153"
       x1="47.667068"
       gradientTransform="matrix(0.1678362,0,0,0.1678362,0.244736,0.244739)"
       gradientUnits="userSpaceOnUse"
       id="linearGradient2442"
       xlink:href="#linearGradient3187"
       inkscape:collect="always" />
    <filter
       height="2.1786268"
       y="-0.58931339"
       width="1.5882337"
       x="-0.29411685"
       id="filter3342"
       inkscape:collect="always">
      <feGaussianBlur
         id="feGaussianBlur3344"
         stdDeviation="2.2029067"
         inkscape:collect="always" />
    </filter>
    <linearGradient
       gradientUnits="userSpaceOnUse"
       id="linearGradient3260">
      <stop
         id="stop3262"
         offset="0"
         style="stop-color:black;stop-opacity:1" />
      <stop
         style="stop-color:#000000;stop-opacity:0.421875;"
         offset="0.18715383"
         id="stop3266" />
      <stop
         id="stop3268"
         offset="0.55254942"
         style="stop-color:#000000;stop-opacity:0;" />
      <stop
         id="stop3264"
         offset="1"
         style="stop-color:black;stop-opacity:0" />
    </linearGradient>
    <linearGradient
       id="linearGradient3187">
      <stop
         style="stop-color:#282828;stop-opacity:1;"
         offset="0"
         id="stop3189" />
      <stop
         style="stop-color:#5a5a5a;stop-opacity:1;"
         offset="1"
         id="stop3191" />
    </linearGradient>
    <linearGradient
       inkscape:collect="always"
       xlink:href="#linearGradient3260"
       id="linearGradient3270"
       gradientUnits="userSpaceOnUse"
       x1="43.476658"
       y1="26"
       x2="43.476658"
       y2="34.001266"
       gradientTransform="matrix(0.1724138,0,0,0.375,-3.4482581e-2,-5.7499998)" />
    <linearGradient
       inkscape:collect="always"
       xlink:href="#linearGradient3257"
       id="linearGradient3505"
       x1="10.617864"
       y1="20"
       x2="10.617864"
       y2="4.9995232"
       gradientUnits="userSpaceOnUse" />
    <linearGradient
       inkscape:collect="always"
       xlink:href="#linearGradient3187"
       id="linearGradient16162"
       gradientUnits="userSpaceOnUse"
       gradientTransform="translate(11.119372,-6.2581978)"
       x1="-3.0607977"
       y1="27.258198"
       x2="-3.0607977"
       y2="7.2536583" />
    <linearGradient
       y2="16"
       x2="10"
       y1="1"
       x1="10"
       gradientUnits="userSpaceOnUse"
       id="linearGradient3078"
       xlink:href="#linearGradient3823"
       inkscape:collect="always"
       gradientTransform="translate(1,-1)" />
    <linearGradient
       id="linearGradient3823">
      <stop
         id="stop3825"
         offset="0"
         style="stop-color:#ffffff;stop-opacity:1;" />
      <stop
         id="stop3829"
         offset="1"
         style="stop-color:#ffffff;stop-opacity:0;" />
    </linearGradient>
    <linearGradient
       inkscape:collect="always"
       xlink:href="#linearGradient3831"
       id="linearGradient3845"
       x1="11"
       y1="19.5"
       x2="21"
       y2="19.5"
       gradientUnits="userSpaceOnUse"
       spreadMethod="reflect" />
    <linearGradient
       id="linearGradient3831">
      <stop
         style="stop-color:#ffffff;stop-opacity:1;"
         offset="0"
         id="stop3833" />
      <stop
         id="stop3821"
         offset="0.75"
         style="stop-color:#ffffff;stop-opacity:0.49803922;" />
      <stop
         style="stop-color:#ffffff;stop-opacity:0;"
         offset="1"
         id="stop3835" />
    </linearGradient>
    <linearGradient
       y2="16"
       x2="10"
       y1="1"
       x1="10"
       gradientUnits="userSpaceOnUse"
       id="linearGradient3938"
       xlink:href="#linearGradient3823"
       inkscape:collect="always" />
  </defs>
  <sodipodi:namedview
     id="base"
     pagecolor="#ffffff"
     bordercolor="#e7e7e7"
     borderopacity="1"
     inkscape:pageopacity="0.0"
     inkscape:pageshadow="2"
     inkscape:zoom="24.471132"
     inkscape:cx="-2.8657224"
     inkscape:cy="11.078277"
     inkscape:document-units="px"
     inkscape:current-layer="layer2"
     showgrid="true"
     inkscape:showpageshadow="false"
     showguides="true"
     inkscape:guide-bbox="true"
     inkscape:window-width="1920"
     inkscape:window-height="1026"
     inkscape:window-x="0"
     inkscape:window-y="25"
     inkscape:window-maximized="1">
    <sodipodi:guide
       orientation="1,0"
       position="0,112"
       id="guide2383" />
    <sodipodi:guide
       orientation="0,1"
       position="26.278146,128"
       id="guide2385" />
    <sodipodi:guide
       orientation="1,0"
       position="128,54.082119"
       id="guide2387" />
    <sodipodi:guide
       orientation="0,1"
       position="78.156291,0"
       id="guide2389" />
    <sodipodi:guide
       orientation="0,1"
       position="60.863576,64.084768"
       id="guide2391" />
    <inkscape:grid
       type="xygrid"
       id="grid3672"
       visible="true"
       enabled="true" />
  </sodipodi:namedview>
  <metadata
     id="metadata7">
    <rdf:RDF>
      <cc:Work
         rdf:about="">
        <dc:format>image/svg+xml</dc:format>
        <dc:type
           rdf:resource="http://purl.org/dc/dcmitype/StillImage" />
      </cc:Work>
    </rdf:RDF>
  </metadata>
  <g
     inkscape:groupmode="layer"
     id="layer3"
     inkscape:label="Button Shadow"
     sodipodi:insensitive="true">
    <g
       style="display:inline"
       id="g3337">
      <rect
         ry="2.5"
         rx="2.5"
         y="0.5"
         x="0.5"
         height="21.5"
         width="21"
         id="rect3371"
         style="opacity:0.3;fill:url(#linearGradient3335);fill-opacity:1;stroke:none;display:inline" />
      <rect
         style="opacity:0.5;fill:#000000;fill-opacity:1;stroke:none;display:inline"
         id="rect2553"
         width="20"
         height="20"
         x="1"
         y="2"
         rx="2.3809524"
         ry="2.3255813" />
    </g>
  </g>
  <g
     inkscape:groupmode="layer"
     id="layer5"
     inkscape:label="Screen"
     sodipodi:insensitive="true">
    <rect
       style="opacity:1;fill:url(#linearGradient3225);fill-opacity:1;stroke:none;stroke-width:1;stroke-linecap:butt;stroke-linejoin:round;stroke-miterlimit:4;stroke-dasharray:none;stroke-dashoffset:0;stroke-opacity:1;display:inline"
       id="rect3461"
       width="19.249161"
       height="15.886655"
       x="1.336798"
       y="-20.471529"
       rx="1.4459463"
       ry="1.2490736"
       transform="scale(1,-1)" />
    <path
       style="opacity:0.5;fill:url(#linearGradient3264);fill-opacity:1;fill-rule:nonzero;stroke:none;stroke-width:1;stroke-linecap:butt;stroke-linejoin:round;stroke-miterlimit:4;stroke-dasharray:none;stroke-dashoffset:0;stroke-opacity:1;display:inline"
       d="M 3.2199208,4.2214891 C 2.3376018,4.2214891 1.6297748,4.8031084 1.6297748,5.5255678 L 1.6297748,12.733658 C 1.6297748,13.19944 1.9220298,13.603397 2.3682698,13.833974 C 3.6844088,11.598776 9.0759578,9.9217387 15.53015,9.9217387 C 17.424706,9.9217387 19.230218,10.068704 20.866369,10.329264 L 20.866369,5.5255678 C 20.866369,4.8031082 20.158541,4.2214891 19.276222,4.2214891 L 3.2199208,4.2214891 z"
       id="rect3253" />
  </g>
  <g
     inkscape:label="Button"
     inkscape:groupmode="layer"
     id="layer1"
     style="display:inline"
     sodipodi:insensitive="true">
    <rect
       transform="matrix(0.8817734,0,0,0.8817734,1.299059,1.294756)"
       ry="2"
       rx="2"
       y="1.9800392"
       x="2"
       height="8.9714174"
       width="17.975767"
       id="rect3200"
       style="opacity:0.15;fill:#ffffff;fill-opacity:1;stroke:none;display:inline;filter:url(#filter3342)" />
    <path
       style="fill:none;stroke:url(#linearGradient3505);stroke-width:1;stroke-linecap:round;stroke-linejoin:miter;stroke-miterlimit:4;stroke-opacity:1;stroke-dasharray:none;stroke-dashoffset:0"
       d="m 2.5,5.5 0,1.5 0,4.5 0,6.5 c 0,0.831 0.669,1.5 1.5,1.5 l 14,0 c 0.831,0 1.5,-0.669 1.5,-1.5 l 0,-6.5 0,-4.5 0,-1.5 -1.5,0 -14,0 -1.5,0 z"
       id="rect2721"
       inkscape:connector-curvature="0" />
    <path
       style="fill:url(#linearGradient16162);fill-opacity:1;fill-rule:evenodd;stroke:none;display:inline"
       d="M 3,1 C 1.892,1 1,1.892 1,3 l 0,16 c 0,1.108 0.892,2 2,2 l 16,0 c 1.108,0 2,-0.892 2,-2 L 21,3 C 21,1.892 20.108,1 19,1 L 3,1 z m -0.5,4.5 1.5,0 14,0 1.5,0 0,1.5 0,4.5 0,6.5 c 0,0.831 -0.669,1.5 -1.5,1.5 l -14,0 C 3.169,19.5 2.5,18.831 2.5,18 l 0,-6.5 0,-4.5 0,-1.5 z"
       id="rect3173"
       inkscape:connector-curvature="0" />
  </g>
  <g
     inkscape:groupmode="layer"
     id="layer2"
     inkscape:label="Clap">
    <path
       style="fill:#000000;fill-opacity:1;fill-rule:evenodd;stroke:none"
       d="M 3,1 C 1.892,1 1,1.892 1,3 L 1,4 21,4 21,3 C 21,1.892 20.108,1 19,1 L 3,1 z"
       id="rect16165"
       inkscape:connector-curvature="0" />
    <rect
       y="4"
       x="1"
       height="3"
       width="20"
       id="rect3250"
       style="opacity:0.6;fill:url(#linearGradient3270);fill-opacity:1;fill-rule:evenodd;stroke:none" />
    <path
       style="fill:#f0f0f0;fill-opacity:1;fill-rule:evenodd;stroke:none"
       d="M 17.068962,1.0004443 16.034483,2.5002221 17.068962,4 19.13793,4 18.103449,2.5002221 19.13793,1.0004443 l -2.068968,0 z"
       id="rect3231"
       inkscape:connector-curvature="0" />
    <path
       id="path3237"
       d="M 12.975228,1.0004443 11.940746,2.5002221 12.975228,4 l 2.068966,0 -1.034482,-1.4997779 1.034482,-1.4997778 -2.068966,0 z"
       style="fill:#f0f0f0;fill-opacity:1;fill-rule:evenodd;stroke:none"
       inkscape:connector-curvature="0" />
    <path
       style="fill:#f0f0f0;fill-opacity:1;fill-rule:evenodd;stroke:none"
       d="M 9.014075,1.0004443 7.9795922,2.5002221 9.014075,4 11.08304,4 10.048558,2.5002221 11.08304,1.0004443 l -2.068965,0 z"
       id="path3239"
       inkscape:connector-curvature="0" />
    <path
       id="path3241"
       d="M 5.0308237,1.0004443 3.996341,2.5002221 5.0308237,4 7.0997891,4 6.0653064,2.5002221 7.0997891,1.0004443 l -2.0689654,0 z"
       style="fill:#f0f0f0;fill-opacity:1;fill-rule:evenodd;stroke:none"
       inkscape:connector-curvature="0" />
    <path
       style="opacity:0.2;fill:url(#linearGradient3938);fill-opacity:1;fill-rule:evenodd;stroke:none;display:inline"
       d="M 3,1 C 1.892,1 1,1.892 1,3 l 0,16 c 0,1.108 0.892,2 2,2 l 16,0 c 1.108,0 2,-0.892 2,-2 L 21,3 C 21,1.892 20.108,1 19,1 L 3,1 z m 0,1.03125 16,0 c 0.5497,0 0.96875,0.4190495 0.96875,0.96875 l 0,16 c 0,0.5497 -0.41905,0.96875 -0.96875,0.96875 l -16,0 C 2.4502995,19.96875 2.03125,19.5497 2.03125,19 l 0,-16 C 2.03125,2.4502995 2.4502995,2.03125 3,2.03125 z"
       id="rect3050"
       inkscape:connector-curvature="0" />
    <path
       id="path3235"
       d="M 3,21 C 1.892,21 1,20.108 1,19 l 0,-1 c 0,1.108 0.892,2 2,2 l 16,0 c 1.108,0 2,-0.892 2,-2 l 0,1 c 0,1.108 -0.892,2 -2,2 L 3,21 z"
       style="opacity:0.15;fill:url(#linearGradient3845);fill-opacity:1;fill-rule:evenodd;stroke:none;display:inline"
       inkscape:connector-curvature="0" />
  </g>
  <g
     inkscape:groupmode="layer"
     id="layer4"
     inkscape:label="Symbol"
     style="display:inline"
     sodipodi:insensitive="true">
    <rect
       style="opacity:0.4;fill:#ffffff;fill-opacity:1;fill-rule:evenodd;stroke:none;display:inline"
       id="rect3530"
       width="9"
       height="9"
       x="-23.5"
       y="8"
       rx="1.125"
       ry="1.125" />
    <path
       style="fill:#ffffff;fill-opacity:1;fill-rule:evenodd;stroke:none;display:inline"
       d="m 8.0307932,8.9723825 -3e-7,6.9803925 L 14.0625,12.556329 8.0307932,8.9723825 z"
       id="path3496"
       sodipodi:nodetypes="cccc"
       inkscape:connector-curvature="0" />
    <path
       style="opacity:0.4;fill:#162d50;fill-opacity:1;fill-rule:evenodd;stroke:none;display:inline"
       d="m -17.90625,6.78125 c -0.145028,0.018171 -0.271312,0.047094 -0.40625,0.125 L -20.21875,8 -16.375,8 -16.78125,7.3125 c -0.233719,-0.4048127 -0.689916,-0.5857635 -1.125,-0.53125 z M -23.5,9.875 l -0.6875,0.40625 c -0.53975,0.311625 -0.717875,0.9915 -0.40625,1.53125 l 1.09375,1.90625 0,-3.84375 z m 9,1.40625 0,3.84375 0.6875,-0.40625 c 0.53975,-0.311625 0.717875,-0.9915 0.40625,-1.53125 L -14.5,11.28125 z M -21.625,17 l 0.40625,0.6875 c 0.311625,0.53975 0.9915,0.717875 1.53125,0.40625 L -17.78125,17 -21.625,17 z"
       id="rect2880"
       sodipodi:nodetypes="ccccccccccccccccccccc"
       inkscape:connector-curvature="0" />
  </g>
</svg>
