<?xml version="1.0" encoding="UTF-8" standalone="no"?>
<!-- Created with Inkscape (http://www.inkscape.org/) -->

<svg
   xmlns:dc="http://purl.org/dc/elements/1.1/"
   xmlns:cc="http://creativecommons.org/ns#"
   xmlns:rdf="http://www.w3.org/1999/02/22-rdf-syntax-ns#"
   xmlns:svg="http://www.w3.org/2000/svg"
   xmlns="http://www.w3.org/2000/svg"
   xmlns:xlink="http://www.w3.org/1999/xlink"
   xmlns:sodipodi="http://sodipodi.sourceforge.net/DTD/sodipodi-0.dtd"
   xmlns:inkscape="http://www.inkscape.org/namespaces/inkscape"
   width="24"
   height="24"
   id="svg2"
   sodipodi:version="0.32"
   inkscape:version="0.48.1 r9760"
   version="1.0"
   sodipodi:docname="onboard.svg"
   inkscape:output_extension="org.inkscape.output.svg.inkscape"
   style="display:inline">
  <defs
     id="defs4">
    <linearGradient
       inkscape:collect="always"
       id="linearGradient3985">
      <stop
         style="stop-color:#000000;stop-opacity:1;"
         offset="0"
         id="stop3987" />
      <stop
         style="stop-color:#000000;stop-opacity:0;"
         offset="1"
         id="stop3989" />
    </linearGradient>
    <linearGradient
       inkscape:collect="always"
       id="linearGradient3795">
      <stop
         style="stop-color:#ffffff;stop-opacity:1;"
         offset="0"
         id="stop3797" />
      <stop
         style="stop-color:#ffffff;stop-opacity:0;"
         offset="1"
         id="stop3799" />
    </linearGradient>
    <linearGradient
       id="linearGradient4411">
      <stop
         id="stop4413"
         offset="0"
         style="stop-color:#0a0a0a;stop-opacity:1;" />
      <stop
         id="stop4415"
         offset="1"
         style="stop-color:#3c3c3c;stop-opacity:1;" />
    </linearGradient>
    <linearGradient
       id="linearGradient6059">
      <stop
         style="stop-color:#000000;stop-opacity:0.42629482"
         offset="0"
         id="stop6061" />
      <stop
         style="stop-color:#ffffff;stop-opacity:0.31707317;"
         offset="1"
         id="stop6063" />
    </linearGradient>
    <linearGradient
       id="linearGradient6151">
      <stop
         style="stop-color:#5b5b5b;stop-opacity:1;"
         offset="0"
         id="stop6153" />
      <stop
         style="stop-color:#0a0a0a;stop-opacity:1;"
         offset="1"
         id="stop6155" />
    </linearGradient>
    <linearGradient
       id="linearGradient3265">
      <stop
         style="stop-color:#8d8df1;stop-opacity:1;"
         offset="0"
         id="stop3267" />
      <stop
         style="stop-color:#6547e0;stop-opacity:1;"
         offset="1"
         id="stop3269" />
    </linearGradient>
    <radialGradient
       inkscape:collect="always"
       xlink:href="#linearGradient3265"
       id="radialGradient7013"
       gradientUnits="userSpaceOnUse"
       gradientTransform="matrix(-0.2150123,0,0,-0.09721999,25.601934,11.998931)"
       cx="77.203049"
       cy="-0.56155205"
       fx="77.203049"
       fy="-0.56155205"
       r="21" />
    <linearGradient
       inkscape:collect="always"
       id="linearGradient3737">
      <stop
         style="stop-color:#ffffff;stop-opacity:1;"
         offset="0"
         id="stop3739" />
      <stop
         style="stop-color:#ffffff;stop-opacity:0;"
         offset="1"
         id="stop3741" />
    </linearGradient>
    <radialGradient
       inkscape:collect="always"
       xlink:href="#linearGradient3737"
       id="radialGradient7015"
       gradientUnits="userSpaceOnUse"
       gradientTransform="matrix(0.1919464,-1.5717656e-8,0,0.1470006,-2.5836848,9.0463369)"
       cx="34.520515"
       cy="45"
       fx="34.520515"
       fy="45"
       r="27" />
    <linearGradient
       id="linearGradient3303">
      <stop
         style="stop-color:#1a1a1a;stop-opacity:1;"
         offset="0"
         id="stop3305" />
      <stop
         id="stop3313"
         offset="0.25049603"
         style="stop-color:#1a1a1a;stop-opacity:1;" />
      <stop
         id="stop3311"
         offset="0.50099206"
         style="stop-color:#cdff01;stop-opacity:1;" />
      <stop
         style="stop-color:#1a1a1a;stop-opacity:1;"
         offset="0.75049603"
         id="stop3315" />
      <stop
         style="stop-color:#1a1a1a;stop-opacity:1;"
         offset="1"
         id="stop3307" />
    </linearGradient>
    <linearGradient
       inkscape:collect="always"
       xlink:href="#linearGradient3303"
       id="linearGradient7168"
       gradientUnits="userSpaceOnUse"
       gradientTransform="matrix(0.131969,0,0,0.5,-0.6657837,2.3665771e-7)"
       x1="30"
       y1="31"
       x2="48"
       y2="31" />
    <linearGradient
       id="linearGradient6069">
      <stop
         style="stop-color:#ffffff;stop-opacity:1;"
         offset="0"
         id="stop6071" />
      <stop
         style="stop-color:#7c7c7c;stop-opacity:1;"
         offset="1"
         id="stop6073" />
    </linearGradient>
    <linearGradient
       id="linearGradient5892">
      <stop
         style="stop-color:#333333;stop-opacity:1;"
         offset="0"
         id="stop5894" />
      <stop
         style="stop-color:#555555;stop-opacity:1;"
         offset="1"
         id="stop5896" />
    </linearGradient>
    <linearGradient
       id="linearGradient3700">
      <stop
         id="stop3702"
         offset="0"
         style="stop-color:#dcdcdc;stop-opacity:1;" />
      <stop
         id="stop3704"
         offset="1"
         style="stop-color:#f0f0f0;stop-opacity:1;" />
    </linearGradient>
    <linearGradient
       inkscape:collect="always"
       id="linearGradient4594">
      <stop
         style="stop-color:#ffffff;stop-opacity:1;"
         offset="0"
         id="stop4596" />
      <stop
         style="stop-color:#ffffff;stop-opacity:0;"
         offset="1"
         id="stop4598" />
    </linearGradient>
    <linearGradient
       id="linearGradient3175">
      <stop
         id="stop3177"
         offset="0"
         style="stop-color:#55a6eb;stop-opacity:1;" />
      <stop
         id="stop3179"
         offset="1"
         style="stop-color:#1754c4;stop-opacity:1;" />
    </linearGradient>
    <linearGradient
       inkscape:collect="always"
       id="linearGradient3327">
      <stop
         style="stop-color:#000000;stop-opacity:1;"
         offset="0"
         id="stop3330" />
      <stop
         style="stop-color:#000000;stop-opacity:0;"
         offset="1"
         id="stop3333" />
    </linearGradient>
    <inkscape:perspective
       sodipodi:type="inkscape:persp3d"
       inkscape:vp_x="0 : 11 : 1"
       inkscape:vp_y="0 : 1000 : 0"
       inkscape:vp_z="22 : 11 : 1"
       inkscape:persp3d-origin="11 : 7.3333333 : 1"
       id="perspective2531" />
    <linearGradient
       id="ButtonShadow"
       gradientTransform="scale(0.9883037,1.0118347)"
       x1="9.3550024"
       y1="21.742682"
       x2="9.3550024"
       y2="0.49362123"
       gradientUnits="userSpaceOnUse">
      <stop
         id="stop3277"
         offset="0"
         style="stop-color:#000000;stop-opacity:0.70588237;" />
      <stop
         id="stop3279"
         offset="1"
         style="stop-color:#000000;stop-opacity:0.15686275;" />
    </linearGradient>
    <linearGradient
       inkscape:collect="always"
       id="linearGradient3232">
      <stop
         style="stop-color:#000000;stop-opacity:1;"
         offset="0"
         id="stop3234" />
      <stop
         style="stop-color:#000000;stop-opacity:0;"
         offset="1"
         id="stop3236" />
    </linearGradient>
    <linearGradient
       gradientUnits="userSpaceOnUse"
       y2="-6.0004225"
       x2="11"
       y1="14.805666"
       x1="11"
       id="linearGradient3221"
       xlink:href="#linearGradient3232"
       inkscape:collect="always" />
    <linearGradient
       id="ButtonColor"
       x1="10.31979"
       y1="21"
       x2="10.31979"
       y2="0.99929649"
       gradientUnits="userSpaceOnUse">
      <stop
         style="stop-color:#29669f;stop-opacity:1;"
         offset="0"
         id="stop3189" />
      <stop
         style="stop-color:#88b6e0;stop-opacity:1;"
         offset="1"
         id="stop3191" />
    </linearGradient>
    <linearGradient
       inkscape:collect="always"
       xlink:href="#ButtonShadow"
       id="linearGradient38042"
       gradientUnits="userSpaceOnUse"
       gradientTransform="scale(0.9883037,1.0118347)"
       x1="9.3550024"
       y1="21.742682"
       x2="9.3550024"
       y2="0.49362123" />
    <radialGradient
       inkscape:collect="always"
       xlink:href="#linearGradient3175"
       id="radialGradient3360"
       gradientUnits="userSpaceOnUse"
       gradientTransform="matrix(-0.00506833,1.2204755,-1.3843695,-0.00574561,26.241279,-46.842142)"
       cx="48"
       cy="-15.894132"
       fx="48"
       fy="-15.894132"
       r="35.9375" />
    <linearGradient
       inkscape:collect="always"
       xlink:href="#linearGradient3700"
       id="linearGradient3380"
       gradientUnits="userSpaceOnUse"
       gradientTransform="translate(-12.000001,-0.9999998)"
       x1="1"
       y1="9"
       x2="11.000391"
       y2="9" />
    <radialGradient
       inkscape:collect="always"
       xlink:href="#linearGradient3175"
       id="radialGradient3382"
       gradientUnits="userSpaceOnUse"
       gradientTransform="matrix(-0.00506833,1.2204755,-1.3843695,-0.00574561,26.241279,-46.842142)"
       cx="48"
       cy="-15.894132"
       fx="48"
       fy="-15.894132"
       r="35.9375" />
    <linearGradient
       inkscape:collect="always"
       xlink:href="#linearGradient4594"
       id="linearGradient3384"
       gradientUnits="userSpaceOnUse"
       gradientTransform="matrix(0.5288575,0,0,0.5288575,1.6537103,1.796232)"
       x1="10.733215"
       y1="3.9999018"
       x2="10.733215"
       y2="8.8139" />
    <linearGradient
       inkscape:collect="always"
       xlink:href="#linearGradient4594"
       id="linearGradient3386"
       gradientUnits="userSpaceOnUse"
       gradientTransform="translate(-4,5.3674303e-8)"
       x1="10.733215"
       y1="1.7773852"
       x2="10.733215"
       y2="13.937372" />
    <linearGradient
       inkscape:collect="always"
       xlink:href="#linearGradient4594"
       id="linearGradient4515"
       gradientUnits="userSpaceOnUse"
       gradientTransform="translate(-4,5.3674303e-8)"
       x1="10.733215"
       y1="1.7773852"
       x2="10.733215"
       y2="13.937372" />
    <linearGradient
       inkscape:collect="always"
       xlink:href="#linearGradient4594"
       id="linearGradient4518"
       gradientUnits="userSpaceOnUse"
       gradientTransform="matrix(0.5288575,0,0,0.5288575,1.6537103,1.796232)"
       x1="10.733215"
       y1="3.9999018"
       x2="10.733215"
       y2="8.8139" />
    <linearGradient
       inkscape:collect="always"
       xlink:href="#linearGradient4411"
       id="linearGradient4528"
       gradientUnits="userSpaceOnUse"
       gradientTransform="translate(-22.000001,-0.9999998)"
       x1="1"
       y1="9"
       x2="11.000391"
       y2="9" />
    <linearGradient
       inkscape:collect="always"
       xlink:href="#linearGradient5892"
       id="linearGradient4555"
       gradientUnits="userSpaceOnUse"
       gradientTransform="matrix(0.6666666,0,0,1.3333334,-2,-6.6666665)"
       x1="11.046464"
       y1="20"
       x2="11.046464"
       y2="16.988781" />
    <linearGradient
       inkscape:collect="always"
       xlink:href="#linearGradient3232"
       id="linearGradient4567"
       x1="5.5"
       y1="16"
       x2="5.5"
       y2="20"
       gradientUnits="userSpaceOnUse"
       gradientTransform="translate(0,-36)" />
    <linearGradient
       inkscape:collect="always"
       xlink:href="#linearGradient5892"
       id="linearGradient4575"
       gradientUnits="userSpaceOnUse"
       gradientTransform="matrix(0.6666666,0,0,1.3333334,0,-6.6666665)"
       x1="11.046464"
       y1="20"
       x2="11.046464"
       y2="16.988781" />
    <linearGradient
       inkscape:collect="always"
       xlink:href="#linearGradient3303"
       id="linearGradient4577"
       gradientUnits="userSpaceOnUse"
       gradientTransform="matrix(0.1111111,0,0,0.5,2.6666663,2.3665771e-7)"
       x1="30"
       y1="31"
       x2="48"
       y2="31" />
    <linearGradient
       inkscape:collect="always"
       xlink:href="#linearGradient3232"
       id="linearGradient4579"
       gradientUnits="userSpaceOnUse"
       gradientTransform="translate(2,-36)"
       x1="5.5"
       y1="16"
       x2="5.5"
       y2="20" />
    <linearGradient
       inkscape:collect="always"
       xlink:href="#linearGradient5892"
       id="linearGradient4587"
       gradientUnits="userSpaceOnUse"
       gradientTransform="matrix(0.6666666,0,0,1.3333334,2,-6.6666665)"
       x1="11.046464"
       y1="20"
       x2="11.046464"
       y2="16.988781" />
    <linearGradient
       inkscape:collect="always"
       xlink:href="#linearGradient3303"
       id="linearGradient4589"
       gradientUnits="userSpaceOnUse"
       gradientTransform="matrix(0.1111111,0,0,0.5,4.6666663,2.3665771e-7)"
       x1="30"
       y1="31"
       x2="48"
       y2="31" />
    <linearGradient
       inkscape:collect="always"
       xlink:href="#linearGradient3232"
       id="linearGradient4591"
       gradientUnits="userSpaceOnUse"
       gradientTransform="translate(4,-36)"
       x1="5.5"
       y1="16"
       x2="5.5"
       y2="20" />
    <linearGradient
       inkscape:collect="always"
       xlink:href="#linearGradient3327"
       id="linearGradient4616"
       gradientUnits="userSpaceOnUse"
       x1="11.375"
       y1="22"
       x2="11.375"
       y2="-9.817296"
       gradientTransform="translate(-40,0)" />
    <linearGradient
       inkscape:collect="always"
       xlink:href="#linearGradient3327"
       id="linearGradient4638"
       x1="11.189046"
       y1="22"
       x2="11.189046"
       y2="-5.8933268"
       gradientUnits="userSpaceOnUse" />
    <linearGradient
       inkscape:collect="always"
       xlink:href="#linearGradient3327"
       id="linearGradient2953"
       gradientUnits="userSpaceOnUse"
       x1="11.189046"
       y1="22"
       x2="11.189046"
       y2="-5.8933268"
       gradientTransform="matrix(-1,0,0,1,22,0)" />
    <linearGradient
       inkscape:collect="always"
       xlink:href="#linearGradient3700"
       id="linearGradient2958"
       gradientUnits="userSpaceOnUse"
       gradientTransform="matrix(0,-1,1,0,-1,12.000001)"
       x1="1"
       y1="9"
       x2="11.000391"
       y2="9" />
    <linearGradient
       inkscape:collect="always"
       xlink:href="#linearGradient3700"
       id="linearGradient2962"
       gradientUnits="userSpaceOnUse"
       gradientTransform="translate(-12.000001,9)"
       x1="1"
       y1="9"
       x2="11.000391"
       y2="9" />
    <linearGradient
       inkscape:collect="always"
       xlink:href="#linearGradient3700"
       id="linearGradient2968"
       gradientUnits="userSpaceOnUse"
       gradientTransform="translate(-22.000001,-1)"
       x1="1"
       y1="9"
       x2="11.000391"
       y2="9" />
    <linearGradient
       inkscape:collect="always"
       xlink:href="#linearGradient3700"
       id="linearGradient2970"
       gradientUnits="userSpaceOnUse"
       gradientTransform="translate(-22.000001,9)"
       x1="1"
       y1="9"
       x2="11.000391"
       y2="9" />
    <inkscape:perspective
       id="perspective4025"
       inkscape:persp3d-origin="0.5 : 0.33333333 : 1"
       inkscape:vp_z="1 : 0.5 : 1"
       inkscape:vp_y="0 : 1000 : 0"
       inkscape:vp_x="0 : 0.5 : 1"
       sodipodi:type="inkscape:persp3d" />
    <linearGradient
       inkscape:collect="always"
       xlink:href="#linearGradient3977"
       id="linearGradient3987"
       gradientUnits="userSpaceOnUse"
       gradientTransform="matrix(0.5,0,0,0.5,3.000008,-92.999998)"
       x1="48"
       y1="90"
       x2="48"
       y2="5.9877172" />
    <linearGradient
       id="linearGradient3977">
      <stop
         id="stop3979"
         offset="0"
         style="stop-color:#366598;stop-opacity:1;" />
      <stop
         id="stop3981"
         offset="1"
         style="stop-color:#6593c3;stop-opacity:1;" />
    </linearGradient>
    <linearGradient
       inkscape:collect="always"
       xlink:href="#linearGradient4941"
       id="linearGradient3993"
       gradientUnits="userSpaceOnUse"
       gradientTransform="matrix(0.5,0,0,0.5,-0.99999581,44)"
       x1="48"
       y1="90"
       x2="48"
       y2="5.9877172" />
    <linearGradient
       id="linearGradient4941">
      <stop
         style="stop-color:#2a2a2a;stop-opacity:1;"
         offset="0"
         id="stop4943" />
      <stop
         style="stop-color:#4b4b4b;stop-opacity:1;"
         offset="1"
         id="stop4945" />
    </linearGradient>
    <linearGradient
       y2="5.9877172"
       x2="48"
       y1="90"
       x1="48"
       gradientTransform="matrix(0.5,0,0,0.5,-0.99999581,2.000002)"
       gradientUnits="userSpaceOnUse"
       id="linearGradient4039"
       xlink:href="#linearGradient3977"
       inkscape:collect="always" />
    <linearGradient
       inkscape:collect="always"
       xlink:href="#linearGradient4941"
       id="linearGradient3782"
       x1="-11"
       y1="6"
       x2="-1"
       y2="6"
       gradientUnits="userSpaceOnUse"
       gradientTransform="translate(12,0)" />
    <linearGradient
       inkscape:collect="always"
       xlink:href="#linearGradient3977"
       id="linearGradient3786"
       gradientUnits="userSpaceOnUse"
       gradientTransform="translate(22,0)"
       x1="-11"
       y1="6"
       x2="-1"
       y2="6" />
    <linearGradient
       inkscape:collect="always"
       xlink:href="#linearGradient3795"
       id="linearGradient3801"
       x1="1"
       y1="6"
       x2="15"
       y2="6"
       gradientUnits="userSpaceOnUse"
       gradientTransform="matrix(0,1,-1,0,12,0)" />
    <linearGradient
       inkscape:collect="always"
       xlink:href="#linearGradient3795"
       id="linearGradient3805"
       gradientUnits="userSpaceOnUse"
       gradientTransform="matrix(0,1,-1,0,22,0)"
       x1="1"
       y1="6"
       x2="15"
       y2="6" />
    <linearGradient
       inkscape:collect="always"
       xlink:href="#linearGradient3327"
       id="linearGradient3839"
       gradientUnits="userSpaceOnUse"
       x1="11.189046"
       y1="22"
       x2="11.189046"
       y2="-5.8933268"
       gradientTransform="translate(1,-1)" />
    <linearGradient
       id="linearGradient4941-5">
      <stop
         style="stop-color:#2d88c8;stop-opacity:1;"
         offset="0"
         id="stop4943-0" />
      <stop
         style="stop-color:#539fd5;stop-opacity:1;"
         offset="1"
         id="stop4945-4" />
    </linearGradient>
    <linearGradient
       inkscape:collect="always"
       xlink:href="#linearGradient3977-8"
       id="linearGradient8096"
       gradientUnits="userSpaceOnUse"
       gradientTransform="matrix(0.5,0,0,0.5,3.0000004,45.000002)"
       x1="48"
       y1="90"
       x2="48"
       y2="5.9877172" />
    <linearGradient
       id="linearGradient3977-8">
      <stop
         id="stop3979-7"
         offset="0"
         style="stop-color:#e1e1e1;stop-opacity:1;" />
      <stop
         id="stop3981-1"
         offset="1"
         style="stop-color:#f5f5f5;stop-opacity:1;" />
    </linearGradient>
    <linearGradient
       id="linearGradient3979">
      <stop
         style="stop-color:#fac217;stop-opacity:1;"
         offset="0"
         id="stop3982" />
      <stop
         style="stop-color:#f8de72;stop-opacity:1;"
         offset="1"
         id="stop3984" />
    </linearGradient>
    <linearGradient
       inkscape:collect="always"
       xlink:href="#linearGradient3795"
       id="linearGradient3162"
       gradientUnits="userSpaceOnUse"
       gradientTransform="matrix(0,1,-1,0,23,-1)"
       x1="1"
       y1="6"
       x2="15"
       y2="6" />
    <linearGradient
       inkscape:collect="always"
       xlink:href="#linearGradient3795"
       id="linearGradient3165"
       gradientUnits="userSpaceOnUse"
       gradientTransform="matrix(0,1,-1,0,13,-1)"
       x1="1"
       y1="6"
       x2="15"
       y2="6" />
    <linearGradient
       inkscape:collect="always"
       xlink:href="#linearGradient3977-8"
       id="linearGradient3168"
       gradientUnits="userSpaceOnUse"
       gradientTransform="translate(1,11)"
       x1="-11"
       y1="6"
       x2="-1"
       y2="6" />
    <linearGradient
       inkscape:collect="always"
       xlink:href="#linearGradient3979"
       id="linearGradient3171"
       gradientUnits="userSpaceOnUse"
       gradientTransform="translate(1,1)"
       x1="-11"
       y1="6"
       x2="-1"
       y2="6" />
    <linearGradient
       inkscape:collect="always"
       xlink:href="#linearGradient3795"
       id="linearGradient3174"
       gradientUnits="userSpaceOnUse"
       gradientTransform="matrix(0,1,1,0,1,9)"
       x1="1"
       y1="6"
       x2="15"
       y2="6" />
    <linearGradient
       inkscape:collect="always"
       xlink:href="#linearGradient3795"
       id="linearGradient3177"
       gradientUnits="userSpaceOnUse"
       gradientTransform="matrix(0,1,1,0,11,9)"
       x1="1"
       y1="6"
       x2="15"
       y2="6" />
    <linearGradient
       inkscape:collect="always"
       xlink:href="#linearGradient3977-8"
       id="linearGradient3180"
       gradientUnits="userSpaceOnUse"
       gradientTransform="translate(-9,1)"
       x1="-11"
       y1="6"
       x2="-1"
       y2="6" />
    <linearGradient
       inkscape:collect="always"
       xlink:href="#linearGradient4941-5"
       id="linearGradient3183"
       gradientUnits="userSpaceOnUse"
       x1="-11"
       y1="6"
       x2="-1"
       y2="6"
       gradientTransform="translate(-9,11)" />
    <radialGradient
       inkscape:collect="always"
       xlink:href="#linearGradient3985"
       id="radialGradient3991"
       cx="12"
       cy="17"
       fx="12"
       fy="17"
       r="10"
       gradientTransform="matrix(1.2,0,0,0.9,-2.4,-3.3)"
       gradientUnits="userSpaceOnUse" />
    <radialGradient
       inkscape:collect="always"
       xlink:href="#linearGradient3985"
       id="radialGradient3995"
       gradientUnits="userSpaceOnUse"
       gradientTransform="matrix(0.2,0,0,0.9,9.6000002,4.7)"
       cx="11.999999"
       cy="11.444445"
       fx="11.999999"
       fy="11.444445"
       r="10" />
  </defs>
  <sodipodi:namedview
     id="base"
     pagecolor="#ffffff"
     bordercolor="#e7e7e7"
     borderopacity="1"
     inkscape:pageopacity="0.0"
     inkscape:pageshadow="2"
     inkscape:zoom="24.691212"
     inkscape:cx="13.381"
     inkscape:cy="14.745325"
     inkscape:document-units="px"
     inkscape:current-layer="layer1"
     showgrid="true"
     inkscape:showpageshadow="false"
     showguides="false"
     inkscape:guide-bbox="true"
     inkscape:window-width="1920"
     inkscape:window-height="1030"
     inkscape:window-x="0"
     inkscape:window-y="25"
     inkscape:window-maximized="1">
    <sodipodi:guide
       orientation="1,0"
       position="0,112"
       id="guide2383" />
    <sodipodi:guide
       orientation="0,1"
       position="26.278146,128"
       id="guide2385" />
    <sodipodi:guide
       orientation="1,0"
       position="128,54.082119"
       id="guide2387" />
    <sodipodi:guide
       orientation="0,1"
       position="78.156291,0"
       id="guide2389" />
    <sodipodi:guide
       orientation="0,1"
       position="60.863576,64.084768"
       id="guide2391" />
    <inkscape:grid
       type="xygrid"
       id="grid3672"
       visible="true"
       enabled="true"
       empspacing="8"
       snapvisiblegridlinesonly="true" />
  </sodipodi:namedview>
  <metadata
     id="metadata7">
    <rdf:RDF>
      <cc:Work
         rdf:about="">
        <dc:format>image/svg+xml</dc:format>
        <dc:type
           rdf:resource="http://purl.org/dc/dcmitype/StillImage" />
        <dc:title></dc:title>
      </cc:Work>
    </rdf:RDF>
  </metadata>
  <g
     inkscape:label="Button"
     inkscape:groupmode="layer"
     id="layer1"
     transform="translate(0,2)">
    <path
       style="opacity:0.4;fill:url(#linearGradient3839);fill-opacity:1;fill-rule:nonzero;stroke:none;display:inline"
       d="M 4,-0.5 C 2.615,-0.5 1.5,0.615 1.5,2 l 0,6.5 c 0,0.676342 0.2541156,1.300834 0.6875,1.75 -0.1005807,0.104243 -0.1686922,0.223201 -0.25,0.34375 -0.095194,0.142763 -0.1856563,0.275243 -0.25,0.4375 C 1.569798,11.328062 1.5,11.661829 1.5,12 l 0,6.5 C 1.5,19.885 2.615,21 4,21 l 6,0 c 0.824075,0 1.545093,-0.388519 2,-1 0.113727,0.15287 0.230557,0.283837 0.375,0.40625 C 12.808329,20.77349 13.381944,21 14,21 l 6,0 c 1.385,0 2.5,-1.115 2.5,-2.5 l 0,-6.5 c 0,-0.338171 -0.0698,-0.671938 -0.1875,-0.96875 C 22.192216,10.74592 22.024015,10.469217 21.8125,10.25 22.245884,9.800834 22.5,9.176342 22.5,8.5 l 0,-6.5 c 0,-1.385 -1.115,-2.5 -2.5,-2.5 l -6,0 c -0.824075,0 -1.545093,0.38851917 -2,1 -0.454907,-0.61148083 -1.175925,-1 -2,-1 l -6,0 z M 12,10 c 0.06193,0.08403 0.115269,0.175139 0.1875,0.25 C 12.11356,10.32663 12.0637,10.41438 12,10.5 11.9363,10.41438 11.88644,10.326633 11.8125,10.25 11.884731,10.175139 11.938075,10.08403 12,10 z"
       id="rect4625" />
    <rect
       style="opacity:0.3;fill:url(#linearGradient4616);fill-opacity:1;stroke:none;display:inline"
       id="rect3371"
       width="21"
       height="21.5"
       x="-39.5"
       y="0.5"
       rx="2.5"
       ry="2.5" />
    <rect
       ry="2.3255813"
       rx="2.3809524"
       y="2"
       x="-39"
       height="20"
       width="20"
       id="rect2553"
       style="opacity:0.5;fill:#000000;fill-opacity:1;stroke:none;display:inline" />
    <path
       style="opacity:0.5;fill:#000000;fill-opacity:1;fill-rule:nonzero;stroke:none;display:inline"
       d="M 4,1 C 2.892,1 2,1.892 2,3 l 0,6 c 0,1.108 0.892,2 2,2 -1.108,0 -2,0.892 -2,2 l 0,6 c 0,1.108 0.892,2 2,2 l 6,0 c 1.108,0 2,-0.892 2,-2 0,1.108 0.892,2 2,2 l 6,0 c 1.108,0 2,-0.892 2,-2 l 0,-6 c 0,-1.108 -0.892,-2 -2,-2 1.108,0 2,-0.892 2,-2 L 22,3 C 22,1.892 21.108,1 20,1 L 14,1 C 12.892,1 12,1.892 12,3 12,1.892 11.108,1 10,1 L 4,1 z m 8,8 c 0,1.108 0.892,2 2,2 -1.108,0 -2,0.892 -2,2 0,-1.108 -0.892,-2 -2,-2 1.108,0 2,-0.892 2,-2 z"
       id="rect2956" />
    <rect
       ry="2"
       rx="2"
       y="2"
       x="-10"
       height="10"
       width="10"
       id="rect3196"
       style="fill:url(#linearGradient3171);fill-opacity:1;fill-rule:nonzero;stroke:none;display:inline"
       transform="matrix(0,-1,1,0,0,0)" />
    <rect
       style="fill:url(#linearGradient3168);fill-opacity:1;fill-rule:nonzero;stroke:none;display:inline"
       id="rect3784"
       width="10"
       height="10"
       x="-10"
       y="12"
       rx="2"
       ry="2"
       transform="matrix(0,-1,1,0,0,0)" />
    <path
       inkscape:connector-curvature="0"
       style="opacity:0.35;fill:url(#linearGradient3165);fill-opacity:1;fill-rule:nonzero;stroke:none;display:inline"
       d="M 12,2 C 12,0.892 11.108,0 10,0 L 4,0 C 2.892,0 2,0.892 2,2 l 0,6 c 0,1.108 0.892,2 2,2 l 6,0 c 1.108,0 2,-0.892 2,-2 l 0,-6 z m -1.03125,0 0,6 c 0,0.5462113 -0.422539,0.96875 -0.96875,0.96875 l -6,0 C 3.4537887,8.96875 3.03125,8.5462113 3.03125,8 l 0,-6 C 3.03125,1.4537887 3.4537887,1.03125 4,1.03125 l 6,0 c 0.546211,0 0.96875,0.4225387 0.96875,0.96875 z"
       id="rect3788" />
    <path
       inkscape:connector-curvature="0"
       id="path3803"
       d="M 22,2 C 22,0.892 21.108,0 20,0 l -6,0 c -1.108,0 -2,0.892 -2,2 l 0,6 c 0,1.108 0.892,2 2,2 l 6,0 c 1.108,0 2,-0.892 2,-2 l 0,-6 z m -1.03125,0 0,6 c 0,0.5462113 -0.422539,0.96875 -0.96875,0.96875 l -6,0 C 13.453789,8.96875 13.03125,8.5462113 13.03125,8 l 0,-6 c 0,-0.5462113 0.422539,-0.96875 0.96875,-0.96875 l 6,0 c 0.546211,0 0.96875,0.4225387 0.96875,0.96875 z"
       style="opacity:0.4;fill:url(#linearGradient3162);fill-opacity:1;fill-rule:nonzero;stroke:none;display:inline" />
    <path
       style="fill:url(#radialGradient3991);fill-opacity:1;fill-rule:nonzero;stroke:none;display:inline;opacity:0.2"
       d="M 10 2 C 10.554 2 11 2.446 11 3 L 11 10 C 11 10.554 10.554 11 10 11 L 3 11 C 2.446 11 2 10.554 2 10 C 2 11.108 2.892 12 4 12 L 10 12 C 11.108 12 12 11.108 12 10 C 12 11.108 12.892 12 14 12 L 20 12 C 21.108 12 22 11.108 22 10 C 22 10.554 21.554 11 21 11 L 14 11 C 13.446 11 13 10.554 13 10 L 13 3 C 13 2.446 13.446 2 14 2 C 12.892 2 12 2.892 12 4 C 12 2.892 11.108 2 10 2 z "
       transform="translate(0,-2)"
       id="rect3955" />
    <rect
       style="fill:url(#linearGradient3183);fill-opacity:1;fill-rule:nonzero;stroke:none;display:inline"
       id="rect3823"
       width="10"
       height="10"
       x="-20"
       y="12"
       rx="2"
       ry="2"
       transform="matrix(0,-1,1,0,0,0)" />
    <rect
       ry="2"
       rx="2"
       y="2"
       x="-20"
       height="10"
       width="10"
       id="rect3825"
       style="fill:url(#linearGradient3180);fill-opacity:1;fill-rule:nonzero;stroke:none;display:inline"
       transform="matrix(0,-1,1,0,0,0)" />
    <path
       inkscape:connector-curvature="0"
       id="path3827"
       d="m 12,12 c 0,-1.108 0.892,-2 2,-2 l 6,0 c 1.108,0 2,0.892 2,2 l 0,6 c 0,1.108 -0.892,2 -2,2 l -6,0 c -1.108,0 -2,-0.892 -2,-2 l 0,-6 z m 1.03125,0 0,6 c 0,0.546211 0.422539,0.96875 0.96875,0.96875 l 6,0 c 0.546211,0 0.96875,-0.422539 0.96875,-0.96875 l 0,-6 c 0,-0.546211 -0.422539,-0.96875 -0.96875,-0.96875 l -6,0 c -0.546211,0 -0.96875,0.422539 -0.96875,0.96875 z"
       style="opacity:0.25;fill:url(#linearGradient3177);fill-opacity:1;fill-rule:nonzero;stroke:none;display:inline" />
    <path
       inkscape:connector-curvature="0"
       style="opacity:0.4;fill:url(#linearGradient3174);fill-opacity:1;fill-rule:nonzero;stroke:none;display:inline"
       d="m 2,12 c 0,-1.108 0.892,-2 2,-2 l 6,0 c 1.108,0 2,0.892 2,2 l 0,6 c 0,1.108 -0.892,2 -2,2 L 4,20 C 2.892,20 2,19.108 2,18 l 0,-6 z m 1.03125,0 0,6 c 0,0.546211 0.422539,0.96875 0.96875,0.96875 l 6,0 c 0.546211,0 0.96875,-0.422539 0.96875,-0.96875 l 0,-6 c 0,-0.546211 -0.422539,-0.96875 -0.96875,-0.96875 l -6,0 c -0.546211,0 -0.96875,0.422539 -0.96875,0.96875 z"
       id="path3829" />
    <path
       id="path3993"
       d="m 10,10 c 0.554,0 1,0.446 1,1 l 0,7 c 0,0.554 -0.446,1 -1,1 l -7,0 c -0.554,0 -1,-0.446 -1,-1 0,1.108 0.892,2 2,2 l 6,0 c 1.108,0 2,-0.892 2,-2 0,1.108 0.892,2 2,2 l 6,0 c 1.108,0 2,-0.892 2,-2 0,0.554 -0.446,1 -1,1 l -7,0 c -0.554,0 -1,-0.446 -1,-1 l 0,-7 c 0,-0.554 0.446,-1 1,-1 -1.108,0 -2,0.892 -2,2 0,-1.108 -0.892,-2 -2,-2 z"
       style="opacity:0.20000000000000001;fill:url(#radialGradient3995);fill-opacity:1;fill-rule:nonzero;stroke:none;display:inline"
       inkscape:connector-curvature="0" />
    <path
       style="font-size:11px;font-style:normal;font-variant:normal;font-weight:bold;font-stretch:normal;text-align:start;line-height:125%;letter-spacing:0px;word-spacing:0px;writing-mode:lr-tb;text-anchor:start;opacity:0.6;fill:#000000;fill-opacity:1;stroke:none;display:inline;font-family:BabelSans;-inkscape-font-specification:BabelSans Bold"
       d="M 5.5,2 C 5.2123896,2.0000056 4.9612464,2.0887669 4.7659574,2.2539062 4.5742173,2.4190569 4.432771,2.6268469 4.3191489,2.8789062 4.2055247,3.1309744 4.1135394,3.3993525 4.0638298,3.6992188 4.0176722,3.9990913 4,4.2848031 4,4.5585938 4,4.8236981 4.026523,5.1116075 4.079787,5.3984375 4.136599,5.6852706 4.2179316,5.9406625 4.3351062,6.1796875 4.45583,6.418715 4.6096833,6.6091719 4.7978723,6.765625 4.9896104,6.9177331 5.217737,7 5.4840425,7 5.760997,7 6.0103866,6.9220787 6.2021277,6.765625 6.3938642,6.6048256 6.5477164,6.4035294 6.6648936,6.1601562 6.7820637,5.9124394 6.8669486,5.650555 6.9202127,5.359375 6.9734698,5.0681987 6.9999964,4.7889819 7,4.5195313 6.9999964,4.3413506 6.9769804,4.1443494 6.9521276,3.953125 6.9308187,3.7575619 6.906089,3.5692512 6.8563829,3.3867188 6.8102212,3.1998469 6.7430064,3.0288706 6.6648936,2.859375 6.5867747,2.6898875 6.4877302,2.5361931 6.3776595,2.4101562 6.2675854,2.2841294 6.1438082,2.1910737 5.9946808,2.1171875 5.8491,2.0433119 5.684635,2.0000056 5.5,2 z m 0,0.6054687 c 0.184635,5.1e-6 0.3384889,0.073632 0.4627659,0.1953125 0.1242725,0.12169 0.2286241,0.2775326 0.3031915,0.4687501 0.074563,0.1868781 0.1276152,0.3794831 0.1595745,0.6054687 0.031951,0.2216456 0.047867,0.4446206 0.047872,0.6445313 -2.5e-6,0.2042612 -0.015922,0.4228906 -0.047872,0.6445312 C 6.393571,5.3857069 6.3405204,5.5826581 6.2659574,5.7695312 6.1913904,5.9520619 6.0905895,6.0970644 5.9627659,6.21875 5.8384889,6.3360906 5.6722291,6.3945319 5.4840425,6.3945312 5.3029544,6.3945319 5.1615081,6.351275 5.037234,6.2382812 4.912958,6.1209419 4.8121575,5.9672475 4.7340426,5.7890625 4.659476,5.6108806 4.5940174,5.4160775 4.5585106,5.203125 4.5265549,4.9901769 4.5106383,4.77804 4.5106383,4.578125 4.5106372,4.4564413 4.5194826,4.3265719 4.5265957,4.1875 4.5336987,4.0440875 4.5531643,3.9120719 4.5744681,3.7773438 4.5957719,3.6382775 4.6151966,3.5084081 4.6542553,3.3867188 4.693309,3.2606906 4.7534662,3.1459562 4.8138297,3.0546875 4.906147,2.9156219 5.006947,2.8008869 5.1170213,2.7226562 5.2306429,2.6444331 5.3544186,2.6054738 5.5,2.6054687 z"
       id="path4012"
       inkscape:connector-curvature="0" />
    <path
       style="font-size:11px;font-style:normal;font-variant:normal;font-weight:bold;font-stretch:normal;text-align:start;line-height:125%;letter-spacing:0px;word-spacing:0px;writing-mode:lr-tb;text-anchor:start;opacity:0.6;fill:#000000;fill-opacity:1;stroke:none;display:inline;font-family:BabelSans;-inkscape-font-specification:BabelSans Bold"
       d="m 14,12 0,5 1.523438,0 c 0.476188,0 0.843737,-0.124012 1.113281,-0.371094 0.274031,-0.24708 0.410152,-0.61912 0.410156,-1.113281 -4e-6,-0.242586 -0.04844,-0.467959 -0.15625,-0.683594 C 16.7873,14.6164 16.62696,14.441023 16.402344,14.324219 c 0.143752,-0.125784 0.240619,-0.274014 0.3125,-0.449219 0.07636,-0.179691 0.117187,-0.358193 0.117187,-0.546875 -3e-6,-0.417785 -0.108975,-0.742955 -0.351562,-0.976562 C 16.242371,12.117965 15.912709,12.000005 15.503906,12 L 14,12 z m 0.644531,0.644531 0.703125,0 c 0.148247,5e-6 0.263275,0.0016 0.371094,0.01954 0.107813,0.01797 0.20605,0.06329 0.273438,0.117187 0.07187,0.05391 0.120312,0.116013 0.156249,0.214844 0.03594,0.09435 0.05859,0.218357 0.05859,0.371094 -3e-6,0.27853 -0.06504,0.472069 -0.195312,0.566406 -0.130275,0.09434 -0.33143,0.136721 -0.605463,0.136719 l -0.761719,0 0,-1.425781 z m 0,2.070313 0.820313,0 c 0.300986,2e-6 0.521866,0.07403 0.683593,0.195312 0.161723,0.1213 0.234373,0.319522 0.234375,0.625 -2e-6,0.296498 -0.07109,0.518747 -0.214843,0.644532 -0.143758,0.125787 -0.357023,0.195313 -0.644531,0.195312 l -0.878907,0 0,-1.660156 z"
       id="path4008"
       inkscape:connector-curvature="0" />
  </g>
</svg>
