<?xml version="1.0" encoding="UTF-8" standalone="no"?>
<!-- Created with Inkscape (http://www.inkscape.org/) -->

<svg
   xmlns:dc="http://purl.org/dc/elements/1.1/"
   xmlns:cc="http://creativecommons.org/ns#"
   xmlns:rdf="http://www.w3.org/1999/02/22-rdf-syntax-ns#"
   xmlns:svg="http://www.w3.org/2000/svg"
   xmlns="http://www.w3.org/2000/svg"
   xmlns:xlink="http://www.w3.org/1999/xlink"
   xmlns:sodipodi="http://sodipodi.sourceforge.net/DTD/sodipodi-0.dtd"
   xmlns:inkscape="http://www.inkscape.org/namespaces/inkscape"
   width="22"
   height="22"
   id="svg2"
   sodipodi:version="0.32"
   inkscape:version="0.48.0 r9654"
   version="1.0"
   sodipodi:docname="shotwell.svg"
   inkscape:output_extension="org.inkscape.output.svg.inkscape"
   style="display:inline">
  <defs
     id="defs4">
    <linearGradient
       id="linearGradient3260">
      <stop
         style="stop-color:#000000;stop-opacity:1;"
         offset="0"
         id="stop3262" />
      <stop
         style="stop-color:#000000;stop-opacity:0;"
         offset="1"
         id="stop3264" />
    </linearGradient>
    <linearGradient
       inkscape:collect="always"
       xlink:href="#linearGradient3260"
       id="linearGradient3432"
       x1="14.647209"
       y1="47.260139"
       x2="84.0952"
       y2="47.260139"
       gradientUnits="userSpaceOnUse" />
    <linearGradient
       id="linearGradient3303">
      <stop
         id="stop3305"
         offset="0"
         style="stop-color:#f1b9ff;stop-opacity:1;" />
      <stop
         id="stop3307"
         offset="1"
         style="stop-color:#ffffff;stop-opacity:0;" />
    </linearGradient>
    <radialGradient
       inkscape:collect="always"
       xlink:href="#linearGradient3303"
       id="radialGradient3301"
       cx="62.716835"
       cy="76.334625"
       fx="62.716835"
       fy="76.334625"
       r="27.757055"
       gradientTransform="matrix(0.2553981,-0.1476658,0.1592689,0.2762577,-13.904914,4.5897696)"
       gradientUnits="userSpaceOnUse" />
    <linearGradient
       inkscape:collect="always"
       xlink:href="#linearGradient3287"
       id="linearGradient3298"
       gradientUnits="userSpaceOnUse"
       x1="47.855976"
       y1="21.75379"
       x2="47.855976"
       y2="52.816315" />
    <linearGradient
       inkscape:collect="always"
       id="linearGradient3287">
      <stop
         style="stop-color:#71c837;stop-opacity:1;"
         offset="0"
         id="stop3290" />
      <stop
         style="stop-color:#71c837;stop-opacity:0;"
         offset="1"
         id="stop3292" />
    </linearGradient>
    <linearGradient
       inkscape:collect="always"
       xlink:href="#linearGradient3287"
       id="linearGradient3294"
       x1="47.855976"
       y1="21.75379"
       x2="47.855976"
       y2="52.816315"
       gradientUnits="userSpaceOnUse" />
    <linearGradient
       inkscape:collect="always"
       id="linearGradient3304">
      <stop
         style="stop-color:#d42aff;stop-opacity:1;"
         offset="0"
         id="stop3306" />
      <stop
         style="stop-color:#d42aff;stop-opacity:0;"
         offset="1"
         id="stop3308" />
    </linearGradient>
    <linearGradient
       inkscape:collect="always"
       xlink:href="#linearGradient3304"
       id="linearGradient3310"
       x1="51.98505"
       y1="47.405834"
       x2="51.98505"
       y2="7.7924976"
       gradientUnits="userSpaceOnUse" />
    <linearGradient
       id="linearGradient3383">
      <stop
         id="stop3385"
         offset="0"
         style="stop-color:#ffffff;stop-opacity:0;" />
      <stop
         style="stop-color:#ffffff;stop-opacity:0;"
         offset="0.6557377"
         id="stop3389" />
      <stop
         id="stop3387"
         offset="1"
         style="stop-color:#ffffff;stop-opacity:1;" />
    </linearGradient>
    <radialGradient
       inkscape:collect="always"
       xlink:href="#linearGradient3383"
       id="radialGradient3430"
       gradientUnits="userSpaceOnUse"
       gradientTransform="matrix(8.8028565e-2,-0.3340028,0.3509343,9.2756622e-2,-12.838229,21.891579)"
       cx="48.453125"
       cy="55.808502"
       fx="48.453125"
       fy="55.808502"
       r="18.109375" />
    <linearGradient
       id="linearGradient4692">
      <stop
         style="stop-color:#000000;stop-opacity:0;"
         offset="0"
         id="stop4694" />
      <stop
         id="stop3355"
         offset="0.53445506"
         style="stop-color:#000000;stop-opacity:0;" />
      <stop
         id="stop3289"
         offset="0.86885244"
         style="stop-color:#000000;stop-opacity:0.50406504;" />
      <stop
         style="stop-color:#000000;stop-opacity:0.86178863;"
         offset="1"
         id="stop4696" />
    </linearGradient>
    <radialGradient
       inkscape:collect="always"
       xlink:href="#linearGradient4692"
       id="radialGradient3287"
       cx="48"
       cy="48"
       fx="48"
       fy="48"
       r="42"
       gradientUnits="userSpaceOnUse"
       gradientTransform="matrix(0.1894201,0,0,0.1922833,1.9078359,1.7703999)" />
    <linearGradient
       inkscape:collect="always"
       xlink:href="#linearGradient4341"
       id="linearGradient4567"
       gradientUnits="userSpaceOnUse"
       x1="56.270466"
       y1="22.625397"
       x2="53.392128"
       y2="23.509279"
       gradientTransform="matrix(1.0777455,0,0,1.0777455,-5.3852936,-3.7077624)" />
    <linearGradient
       inkscape:collect="always"
       xlink:href="#linearGradient4341"
       id="linearGradient4514"
       gradientUnits="userSpaceOnUse"
       x1="56.270466"
       y1="22.625397"
       x2="53.392128"
       y2="23.509279"
       gradientTransform="matrix(0.7620812,-0.7620812,0.7620812,0.7620812,-27.993121,47.228467)" />
    <linearGradient
       inkscape:collect="always"
       xlink:href="#linearGradient4321"
       id="linearGradient4518"
       gradientUnits="userSpaceOnUse"
       x1="48.916554"
       y1="24.147359"
       x2="97.732259"
       y2="24.147359"
       gradientTransform="matrix(0.7620812,-0.7620812,0.7620812,0.7620812,-27.993121,47.228467)" />
    <linearGradient
       inkscape:collect="always"
       xlink:href="#linearGradient4341"
       id="linearGradient4521"
       gradientUnits="userSpaceOnUse"
       x1="56.270466"
       y1="22.625397"
       x2="53.392128"
       y2="23.509279"
       gradientTransform="matrix(0,-1.0777456,1.0777456,0,-6.7688925,100.51326)" />
    <linearGradient
       inkscape:collect="always"
       xlink:href="#linearGradient4321"
       id="linearGradient4525"
       gradientUnits="userSpaceOnUse"
       x1="48.916554"
       y1="24.147359"
       x2="97.732259"
       y2="24.147359"
       gradientTransform="matrix(0,-1.0777456,1.0777456,0,-6.7688925,100.51326)" />
    <linearGradient
       inkscape:collect="always"
       xlink:href="#linearGradient4341"
       id="linearGradient4528"
       gradientUnits="userSpaceOnUse"
       x1="56.270466"
       y1="22.625397"
       x2="53.392128"
       y2="23.509279"
       gradientTransform="matrix(-0.7620812,-0.7620812,0.7620812,-0.7620812,48.297395,122.98892)" />
    <linearGradient
       inkscape:collect="always"
       xlink:href="#linearGradient4321"
       id="linearGradient4532"
       gradientUnits="userSpaceOnUse"
       x1="48.916554"
       y1="24.147359"
       x2="97.732259"
       y2="24.147359"
       gradientTransform="matrix(-0.7620812,-0.7620812,0.7620812,-0.7620812,48.297395,122.98892)" />
    <linearGradient
       inkscape:collect="always"
       xlink:href="#linearGradient4341"
       id="linearGradient4535"
       gradientUnits="userSpaceOnUse"
       x1="56.270466"
       y1="22.625397"
       x2="53.392128"
       y2="23.509279"
       gradientTransform="matrix(-1.0777456,0,0,-1.0777456,102.59234,101.76469)" />
    <linearGradient
       inkscape:collect="always"
       xlink:href="#linearGradient4321"
       id="linearGradient4539"
       gradientUnits="userSpaceOnUse"
       x1="48.916554"
       y1="24.147359"
       x2="97.732259"
       y2="24.147359"
       gradientTransform="matrix(-1.0777456,0,0,-1.0777456,102.59234,101.76469)" />
    <linearGradient
       inkscape:collect="always"
       xlink:href="#linearGradient4341"
       id="linearGradient4542"
       gradientUnits="userSpaceOnUse"
       x1="56.270466"
       y1="22.625397"
       x2="53.392128"
       y2="23.509279"
       gradientTransform="matrix(-0.7620812,0.7620812,-0.7620812,-0.7620812,123.30024,45.94078)" />
    <linearGradient
       inkscape:collect="always"
       xlink:href="#linearGradient4321"
       id="linearGradient4546"
       gradientUnits="userSpaceOnUse"
       x1="48.916554"
       y1="24.147359"
       x2="97.732259"
       y2="24.147359"
       gradientTransform="matrix(-0.7620812,0.7620812,-0.7620812,-0.7620812,123.30024,45.94078)" />
    <linearGradient
       inkscape:collect="always"
       xlink:href="#linearGradient4341"
       id="linearGradient4549"
       gradientUnits="userSpaceOnUse"
       x1="56.270466"
       y1="22.625397"
       x2="53.392128"
       y2="23.509279"
       gradientTransform="matrix(0,1.0777456,-1.0777456,0,101.3184,-7.3440125)" />
    <linearGradient
       inkscape:collect="always"
       xlink:href="#linearGradient4321"
       id="linearGradient4553"
       gradientUnits="userSpaceOnUse"
       x1="48.916554"
       y1="24.147359"
       x2="97.732259"
       y2="24.147359"
       gradientTransform="matrix(0,1.0777456,-1.0777456,0,101.3184,-7.3440125)" />
    <linearGradient
       inkscape:collect="always"
       id="linearGradient4341">
      <stop
         style="stop-color:#000000;stop-opacity:1;"
         offset="0"
         id="stop4343" />
      <stop
         style="stop-color:#000000;stop-opacity:0;"
         offset="1"
         id="stop4345" />
    </linearGradient>
    <linearGradient
       inkscape:collect="always"
       xlink:href="#linearGradient4341"
       id="linearGradient4556"
       gradientUnits="userSpaceOnUse"
       x1="56.270466"
       y1="22.625397"
       x2="53.392128"
       y2="23.509279"
       gradientTransform="matrix(0.7620812,0.7620812,-0.7620812,0.7620812,48.272417,-29.567134)" />
    <linearGradient
       inkscape:collect="always"
       xlink:href="#linearGradient4321"
       id="linearGradient4560"
       gradientUnits="userSpaceOnUse"
       x1="48.916554"
       y1="24.147359"
       x2="97.732259"
       y2="24.147359"
       gradientTransform="matrix(0.7620812,0.7620812,-0.7620812,0.7620812,48.272417,-29.567134)" />
    <linearGradient
       id="linearGradient4321">
      <stop
         style="stop-color:#959595;stop-opacity:1;"
         offset="0"
         id="stop4323" />
      <stop
         style="stop-color:#5d5d5d;stop-opacity:1;"
         offset="1"
         id="stop4325" />
    </linearGradient>
    <linearGradient
       inkscape:collect="always"
       xlink:href="#linearGradient4321"
       id="linearGradient4571"
       gradientUnits="userSpaceOnUse"
       x1="48.916554"
       y1="24.147359"
       x2="97.732259"
       y2="24.147359"
       gradientTransform="matrix(1.0777455,0,0,1.0777455,-5.3852936,-3.7077624)" />
    <clipPath
       clipPathUnits="userSpaceOnUse"
       id="clipPath2521">
      <rect
         style="opacity:1;fill:#ffffff;fill-opacity:1;fill-rule:nonzero;stroke:none;stroke-width:1;stroke-linecap:square;stroke-linejoin:round;stroke-miterlimit:4;stroke-dasharray:none;stroke-dashoffset:0;stroke-opacity:0.69658119"
         id="rect2523"
         width="131.18726"
         height="131.18726"
         x="-17.694021"
         y="-17.09572"
         rx="9.3705187"
         ry="9.3705187" />
    </clipPath>
    <linearGradient
       id="linearGradient3257">
      <stop
         id="stop3259"
         offset="0"
         style="stop-color:#aaaaaa;stop-opacity:1;" />
      <stop
         id="stop3261"
         offset="1"
         style="stop-color:#d2d2d2;stop-opacity:1;" />
    </linearGradient>
    <linearGradient
       id="linearGradient3268">
      <stop
         style="stop-color:#e4e4e4;stop-opacity:1;"
         offset="0"
         id="stop3270" />
      <stop
         style="stop-color:#7a7a7a;stop-opacity:1;"
         offset="1"
         id="stop3272" />
    </linearGradient>
    <linearGradient
       inkscape:collect="always"
       id="linearGradient3327">
      <stop
         style="stop-color:#000000;stop-opacity:1;"
         offset="0"
         id="stop3330" />
      <stop
         style="stop-color:#000000;stop-opacity:0;"
         offset="1"
         id="stop3333" />
    </linearGradient>
    <linearGradient
       inkscape:collect="always"
       xlink:href="#linearGradient3327"
       id="linearGradient3335"
       x1="11.375"
       y1="22"
       x2="11.375"
       y2="-9.817296"
       gradientUnits="userSpaceOnUse" />
    <linearGradient
       inkscape:collect="always"
       xlink:href="#linearGradient3257"
       id="linearGradient3181"
       x1="-3.0607977"
       y1="27.258198"
       x2="-3.0607977"
       y2="7.2536583"
       gradientUnits="userSpaceOnUse"
       gradientTransform="translate(11.119372,-6.2581977)" />
    <inkscape:perspective
       sodipodi:type="inkscape:persp3d"
       inkscape:vp_x="0 : 11 : 1"
       inkscape:vp_y="0 : 1000 : 0"
       inkscape:vp_z="22 : 11 : 1"
       inkscape:persp3d-origin="11 : 7.3333333 : 1"
       id="perspective2531" />
    <linearGradient
       id="ButtonShadow"
       gradientTransform="scale(0.9883037,1.0118347)"
       x1="9.3550024"
       y1="21.742682"
       x2="9.3550024"
       y2="0.49362123"
       gradientUnits="userSpaceOnUse">
      <stop
         id="stop3277"
         offset="0"
         style="stop-color:#000000;stop-opacity:0.70588237;" />
      <stop
         id="stop3279"
         offset="1"
         style="stop-color:#000000;stop-opacity:0.15686275;" />
    </linearGradient>
    <linearGradient
       inkscape:collect="always"
       id="linearGradient3232">
      <stop
         style="stop-color:#000000;stop-opacity:1;"
         offset="0"
         id="stop3234" />
      <stop
         style="stop-color:#000000;stop-opacity:0;"
         offset="1"
         id="stop3236" />
    </linearGradient>
    <linearGradient
       gradientUnits="userSpaceOnUse"
       y2="-6.0004225"
       x2="11"
       y1="14.805666"
       x1="11"
       id="linearGradient3221"
       xlink:href="#linearGradient3232"
       inkscape:collect="always" />
    <linearGradient
       id="ButtonColor"
       x1="10.31979"
       y1="21"
       x2="10.31979"
       y2="0.99929649"
       gradientUnits="userSpaceOnUse">
      <stop
         style="stop-color:#29669f;stop-opacity:1;"
         offset="0"
         id="stop3189" />
      <stop
         style="stop-color:#88b6e0;stop-opacity:1;"
         offset="1"
         id="stop3191" />
    </linearGradient>
    <linearGradient
       inkscape:collect="always"
       xlink:href="#ButtonShadow"
       id="linearGradient38042"
       gradientUnits="userSpaceOnUse"
       gradientTransform="scale(0.9883037,1.0118347)"
       x1="9.3550024"
       y1="21.742682"
       x2="9.3550024"
       y2="0.49362123" />
    <linearGradient
       inkscape:collect="always"
       xlink:href="#linearGradient3268"
       id="linearGradient4105"
       x1="1.6949042"
       y1="10.692579"
       x2="20.513577"
       y2="10.692579"
       gradientUnits="userSpaceOnUse" />
    <linearGradient
       y2="16"
       x2="10"
       y1="1"
       x1="10"
       gradientUnits="userSpaceOnUse"
       id="linearGradient3078"
       xlink:href="#linearGradient3823"
       inkscape:collect="always"
       gradientTransform="translate(1,-1)" />
    <linearGradient
       id="linearGradient3823">
      <stop
         id="stop3825"
         offset="0"
         style="stop-color:#ffffff;stop-opacity:1;" />
      <stop
         id="stop3829"
         offset="1"
         style="stop-color:#ffffff;stop-opacity:0;" />
    </linearGradient>
    <linearGradient
       inkscape:collect="always"
       xlink:href="#linearGradient3831"
       id="linearGradient3845"
       x1="11"
       y1="19.5"
       x2="21"
       y2="19.5"
       gradientUnits="userSpaceOnUse"
       spreadMethod="reflect" />
    <linearGradient
       id="linearGradient3831">
      <stop
         style="stop-color:#ffffff;stop-opacity:1;"
         offset="0"
         id="stop3833" />
      <stop
         id="stop3821"
         offset="0.75"
         style="stop-color:#ffffff;stop-opacity:0.49803922;" />
      <stop
         style="stop-color:#ffffff;stop-opacity:0;"
         offset="1"
         id="stop3835" />
    </linearGradient>
    <linearGradient
       y2="16"
       x2="10"
       y1="1"
       x1="10"
       gradientUnits="userSpaceOnUse"
       id="linearGradient4007"
       xlink:href="#linearGradient3823"
       inkscape:collect="always" />
  </defs>
  <sodipodi:namedview
     id="base"
     pagecolor="#ffffff"
     bordercolor="#e7e7e7"
     borderopacity="1"
     inkscape:pageopacity="0.0"
     inkscape:pageshadow="2"
     inkscape:zoom="24.484741"
     inkscape:cx="-1.236591"
     inkscape:cy="7.2522022"
     inkscape:document-units="px"
     inkscape:current-layer="layer1"
     showgrid="true"
     inkscape:showpageshadow="false"
     showguides="false"
     inkscape:guide-bbox="true"
     inkscape:window-width="1920"
     inkscape:window-height="1026"
     inkscape:window-x="0"
     inkscape:window-y="25"
     inkscape:window-maximized="1">
    <sodipodi:guide
       orientation="1,0"
       position="0,112"
       id="guide2383" />
    <sodipodi:guide
       orientation="0,1"
       position="26.278146,128"
       id="guide2385" />
    <sodipodi:guide
       orientation="1,0"
       position="128,54.082119"
       id="guide2387" />
    <sodipodi:guide
       orientation="0,1"
       position="78.156291,0"
       id="guide2389" />
    <sodipodi:guide
       orientation="0,1"
       position="60.863576,64.084768"
       id="guide2391" />
    <inkscape:grid
       type="xygrid"
       id="grid3672"
       visible="true"
       enabled="true" />
  </sodipodi:namedview>
  <metadata
     id="metadata7">
    <rdf:RDF>
      <cc:Work
         rdf:about="">
        <dc:format>image/svg+xml</dc:format>
        <dc:type
           rdf:resource="http://purl.org/dc/dcmitype/StillImage" />
      </cc:Work>
    </rdf:RDF>
  </metadata>
  <g
     inkscape:groupmode="layer"
     id="layer2"
     inkscape:label="Shadow"
     sodipodi:insensitive="true"
     style="display:inline">
    <g
       style="display:inline"
       id="g3337">
      <rect
         ry="2.5"
         rx="2.5"
         y="0.5"
         x="0.5"
         height="21.5"
         width="21"
         id="rect3371"
         style="opacity:0.3;fill:url(#linearGradient3335);fill-opacity:1;stroke:none;stroke-width:1.00000012;stroke-linecap:round;stroke-linejoin:miter;stroke-miterlimit:4;stroke-dasharray:none;stroke-opacity:1;display:inline" />
      <rect
         style="opacity:0.5;fill:#000000;fill-opacity:1;stroke:none;stroke-width:1.00000012;stroke-linecap:round;stroke-linejoin:miter;stroke-miterlimit:4;stroke-dasharray:none;stroke-opacity:1;display:inline"
         id="rect2553"
         width="20"
         height="20"
         x="1"
         y="2"
         rx="2.3809524"
         ry="2.3255813" />
    </g>
  </g>
  <g
     inkscape:groupmode="layer"
     id="layer3"
     inkscape:label="Diaphragm"
     sodipodi:insensitive="true">
    <path
       sodipodi:type="arc"
       style="opacity:1;fill:#393939;fill-opacity:1;fill-rule:nonzero;stroke:none;stroke-width:1;stroke-linecap:square;stroke-linejoin:miter;stroke-miterlimit:4;stroke-dasharray:none;stroke-dashoffset:0;stroke-opacity:1"
       id="path4165"
       sodipodi:cx="11"
       sodipodi:cy="10.974881"
       sodipodi:rx="4"
       sodipodi:ry="4.1539402"
       d="M 15,10.974881 A 4,4.1539402 0 1 1 7,10.974881 A 4,4.1539402 0 1 1 15,10.974881 z" />
    <g
       id="g4592"
       clip-path="url(#clipPath2521)"
       transform="matrix(0.1448311,0,0,0.1448311,4.0626473,3.9759947)">
      <path
         id="path4319"
         d="M 63.746354,52.94225 L 47.334302,-8.3083586 L 99.945209,-8.3083586 L 99.945209,51.853562 L 63.746354,52.94225 z"
         style="opacity:1;fill:url(#linearGradient4571);fill-opacity:1;fill-rule:evenodd;stroke:none;stroke-width:1px;stroke-linecap:butt;stroke-linejoin:miter;stroke-opacity:1" />
      <path
         id="path4329"
         d="M 47.323197,-8.3218603 L 63.758816,52.941235 L 65.29146,52.301026 L 48.855841,-8.9283907 L 47.323197,-8.3218603 z"
         style="opacity:0.4;fill:#ffffff;fill-opacity:1;fill-rule:evenodd;stroke:none;stroke-width:1px;stroke-linecap:butt;stroke-linejoin:miter;stroke-opacity:1"
         sodipodi:nodetypes="ccccc" />
      <path
         style="opacity:1;fill:url(#linearGradient4560);fill-opacity:1;fill-rule:evenodd;stroke:none;stroke-width:1px;stroke-linecap:butt;stroke-linejoin:miter;stroke-opacity:1"
         d="M 57.098267,59.373936 L 88.803916,4.4581392 L 126.00545,41.65967 L 83.464543,84.200575 L 57.098267,59.373936 z"
         id="path4424" />
      <path
         style="opacity:0.4;fill:#ffffff;fill-opacity:1;fill-rule:evenodd;stroke:none;stroke-width:1px;stroke-linecap:butt;stroke-linejoin:miter;stroke-opacity:1"
         d="M 88.805611,4.4407396 L 57.107796,59.382031 L 58.803488,59.920476 L 90.477488,5.003 L 88.805611,4.4407396 z"
         id="path4426"
         sodipodi:nodetypes="ccccc" />
      <path
         style="opacity:0.6;fill:url(#linearGradient4556);fill-opacity:1;fill-rule:evenodd;stroke:none;stroke-width:1px;stroke-linecap:butt;stroke-linejoin:miter;stroke-opacity:1"
         d="M 85.302388,1.0891496 L 54.059471,56.333706 L 57.179241,59.262956 L 88.805611,4.4407396 L 85.302388,1.0891496 z"
         id="path4428"
         sodipodi:nodetypes="ccccc" />
      <path
         id="path4436"
         d="M 44.668383,61.787642 L 105.919,45.375588 L 105.919,97.9865 L 45.757071,97.9865 L 44.668383,61.787642 z"
         style="opacity:1;fill:url(#linearGradient4553);fill-opacity:1;fill-rule:evenodd;stroke:none;stroke-width:1px;stroke-linecap:butt;stroke-linejoin:miter;stroke-opacity:1" />
      <path
         id="path4438"
         d="M 105.9325,45.364483 L 44.669397,61.800104 L 44.703076,63.636012 L 105.9325,47.200392 L 105.9325,45.364483 z"
         style="opacity:0.4;fill:#ffffff;fill-opacity:1;fill-rule:evenodd;stroke:none;stroke-width:1px;stroke-linecap:butt;stroke-linejoin:miter;stroke-opacity:1"
         sodipodi:nodetypes="ccccc" />
      <path
         id="path4440"
         d="M 105.9325,41.053501 L 44.669397,57.489121 L 44.804115,61.766424 L 105.9325,45.364483 L 105.9325,41.053501 z"
         style="opacity:0.6;fill:url(#linearGradient4549);fill-opacity:1;fill-rule:evenodd;stroke:none;stroke-width:1px;stroke-linecap:butt;stroke-linejoin:miter;stroke-opacity:1" />
      <path
         style="opacity:1;fill:url(#linearGradient4546);fill-opacity:1;fill-rule:evenodd;stroke:none;stroke-width:1px;stroke-linecap:butt;stroke-linejoin:miter;stroke-opacity:1"
         d="M 34.35917,54.76663 L 89.274967,86.472279 L 52.073436,123.67381 L 9.5325312,81.132906 L 34.35917,54.76663 z"
         id="path4448" />
      <path
         style="opacity:0.4;fill:#ffffff;fill-opacity:1;fill-rule:evenodd;stroke:none;stroke-width:1px;stroke-linecap:butt;stroke-linejoin:miter;stroke-opacity:1"
         d="M 89.292366,86.473974 L 34.351075,54.776159 L 33.253446,56.168585 L 88.170922,87.842585 L 89.292366,86.473974 z"
         id="path4450"
         sodipodi:nodetypes="ccccc" />
      <path
         style="opacity:0.6;fill:url(#linearGradient4542);fill-opacity:1;fill-rule:evenodd;stroke:none;stroke-width:1px;stroke-linecap:butt;stroke-linejoin:miter;stroke-opacity:1"
         d="M 92.340691,83.425649 L 37.3994,51.727834 L 34.47015,54.847604 L 89.292366,86.473974 L 92.340691,83.425649 z"
         id="path4452" />
      <path
         id="path4460"
         d="M 33.460686,45.114673 L 49.872739,106.36529 L -2.7381721,106.36529 L -2.7381721,46.203361 L 33.460686,45.114673 z"
         style="opacity:1;fill:url(#linearGradient4539);fill-opacity:1;fill-rule:evenodd;stroke:none;stroke-width:1px;stroke-linecap:butt;stroke-linejoin:miter;stroke-opacity:1" />
      <path
         id="path4462"
         d="M 49.883844,106.37879 L 33.448224,45.115687 L 31.763948,45.604264 L 48.199569,106.83369 L 49.883844,106.37879 z"
         style="opacity:0.4;fill:#ffffff;fill-opacity:1;fill-rule:evenodd;stroke:none;stroke-width:1px;stroke-linecap:butt;stroke-linejoin:miter;stroke-opacity:1"
         sodipodi:nodetypes="ccccc" />
      <path
         id="path4464"
         d="M 54.194827,106.37879 L 37.759206,45.115687 L 33.481903,45.250405 L 49.883844,106.37879 L 54.194827,106.37879 z"
         style="opacity:0.6;fill:url(#linearGradient4535);fill-opacity:1;fill-rule:evenodd;stroke:none;stroke-width:1px;stroke-linecap:butt;stroke-linejoin:miter;stroke-opacity:1" />
      <path
         style="opacity:1;fill:url(#linearGradient4532);fill-opacity:1;fill-rule:evenodd;stroke:none;stroke-width:1px;stroke-linecap:butt;stroke-linejoin:miter;stroke-opacity:1"
         d="M 39.471545,34.04785 L 7.7658958,88.963647 L -29.435635,51.762116 L 13.105269,9.2212112 L 39.471545,34.04785 z"
         id="path4472" />
      <path
         style="opacity:0.4;fill:#ffffff;fill-opacity:1;fill-rule:evenodd;stroke:none;stroke-width:1px;stroke-linecap:butt;stroke-linejoin:miter;stroke-opacity:1"
         d="M 7.7642012,88.981046 L 39.462016,34.039755 L 38.06959,32.846591 L 6.3955896,87.764067 L 7.7642012,88.981046 z"
         id="path4474"
         sodipodi:nodetypes="ccccc" />
      <path
         style="opacity:0.6;fill:url(#linearGradient4528);fill-opacity:1;fill-rule:evenodd;stroke:none;stroke-width:1px;stroke-linecap:butt;stroke-linejoin:miter;stroke-opacity:1"
         d="M 10.812526,92.029371 L 42.510341,37.08808 L 39.390571,34.15883 L 7.7642012,88.981046 L 10.812526,92.029371 z"
         id="path4476" />
      <path
         id="path4484"
         d="M -11.375,-4.8125 L -11.375,47.78125 L 49.875,31.375 L 48.84375,-2.71875 L 48.28125,-4.8125 L -11.375,-4.8125 z"
         style="opacity:1;fill:url(#linearGradient4525);fill-opacity:1;fill-rule:evenodd;stroke:none;stroke-width:1px;stroke-linecap:butt;stroke-linejoin:miter;stroke-opacity:1" />
      <path
         id="path4486"
         d="M -11.382991,47.804764 L 49.880111,31.369144 L 49.391533,29.684868 L -11.837889,46.120489 L -11.382991,47.804764 z"
         style="opacity:0.4;fill:#ffffff;fill-opacity:1;fill-rule:evenodd;stroke:none;stroke-width:1px;stroke-linecap:butt;stroke-linejoin:miter;stroke-opacity:1"
         sodipodi:nodetypes="ccccc" />
      <path
         id="path4488"
         d="M -11.382991,52.115747 L 49.880111,35.680126 L 49.745392,31.402823 L -11.382991,47.804764 L -11.382991,52.115747 z"
         style="opacity:0.6;fill:url(#linearGradient4521);fill-opacity:1;fill-rule:evenodd;stroke:none;stroke-width:1px;stroke-linecap:butt;stroke-linejoin:miter;stroke-opacity:1" />
      <path
         id="path4496"
         d="M 43.21875,-30.5 L 6.03125,6.6875 L 59.65625,37.65625 L 47.34375,-8.3125 L 65.4375,-8.3125 L 43.21875,-30.5 z"
         style="opacity:1;fill:url(#linearGradient4518);fill-opacity:1;fill-rule:evenodd;stroke:none;stroke-width:1px;stroke-linecap:butt;stroke-linejoin:miter;stroke-opacity:1" />
      <path
         id="path4498"
         d="M 6.6532389,5.179337 L 6,6.6875 L 59.65625,37.65625 L 59.153239,35.429337 L 6.6532389,5.179337 z"
         style="opacity:0.4;fill:#ffffff;fill-opacity:1;fill-rule:evenodd;stroke:none;stroke-width:1px;stroke-linecap:butt;stroke-linejoin:miter;stroke-opacity:1"
         sodipodi:nodetypes="ccccc" />
      <path
         id="path4500"
         d="M 6,6.6875 L 2.96875,9.75 L 57.90625,41.4375 L 60.0625,39.15625 L 59.65625,37.625 L 6,6.6875 z"
         style="opacity:0.6;fill:url(#linearGradient4514);fill-opacity:1;fill-rule:evenodd;stroke:none;stroke-width:1px;stroke-linecap:butt;stroke-linejoin:miter;stroke-opacity:1" />
      <path
         id="path4334"
         d="M 43,-8.3125 L 59.4375,52.9375 L 60.84375,52.90625 L 62.8125,49.46875 L 47.3125,-8.3125 L 43,-8.3125 z"
         style="opacity:0.6;fill:url(#linearGradient4567);fill-opacity:1;fill-rule:evenodd;stroke:none;stroke-width:1px;stroke-linecap:butt;stroke-linejoin:miter;stroke-opacity:1" />
    </g>
  </g>
  <g
     inkscape:groupmode="layer"
     id="layer5"
     inkscape:label="Inner Shadow"
     sodipodi:insensitive="true">
    <rect
       ry="2"
       rx="2"
       y="1"
       x="1"
       height="20"
       width="20"
       id="rect3277"
       style="opacity:1;fill:url(#radialGradient3287);fill-opacity:1;fill-rule:nonzero;stroke:none;stroke-width:1;stroke-linecap:square;stroke-linejoin:round;stroke-miterlimit:4;stroke-dasharray:none;stroke-dashoffset:0;stroke-opacity:0.69658119;display:inline" />
    <path
       sodipodi:type="arc"
       style="opacity:0.93584906;fill:url(#linearGradient3432);fill-opacity:1;fill-rule:nonzero;stroke:none;stroke-width:3.00296259;stroke-linecap:square;stroke-linejoin:miter;stroke-miterlimit:4;stroke-dasharray:none;stroke-dashoffset:0;stroke-opacity:1;display:inline"
       id="path3258"
       sodipodi:cx="49.371204"
       sodipodi:cy="47.260139"
       sodipodi:rx="34.723995"
       sodipodi:ry="34.345188"
       d="M 84.0952,47.260139 A 34.723995,34.345188 0 1 1 14.647209,47.260139 A 34.723995,34.345188 0 1 1 84.0952,47.260139 z"
       transform="matrix(0,-0.2307224,0.2329329,0,-8.3170654e-3,22.391019)" />
    <path
       style="opacity:0.6;fill:url(#radialGradient3301);fill-opacity:1;fill-rule:nonzero;stroke:none;stroke-width:3.00296259;stroke-linecap:square;stroke-linejoin:miter;stroke-miterlimit:4;stroke-dasharray:none;stroke-dashoffset:0;stroke-opacity:1;display:inline"
       d="M 5.2053786,14.037189 C 5.2475238,14.117786 5.288941,14.196038 5.3347835,14.275555 C 7.1400966,17.406936 11.144107,18.481348 14.271001,16.673444 C 17.397894,14.865541 18.470765,10.855783 16.665452,7.7244001 C 16.61961,7.6448853 16.572647,7.5698384 16.52402,7.4929887 C 18.099448,10.576721 16.994618,14.392031 13.965441,16.143438 C 10.936263,17.894845 7.0844287,16.945374 5.2053786,14.037189 z"
       id="path3272"
       inkscape:transform-center-y="1.5221582"
       inkscape:transform-center-x="-0.37358772" />
    <path
       d="M 75.003826,31.0977 A 27.14785,16.162441 0 1 1 20.708126,31.0977 A 27.14785,16.162441 0 1 1 75.003826,31.0977 z"
       sodipodi:ry="16.162441"
       sodipodi:rx="27.14785"
       sodipodi:cy="31.0977"
       sodipodi:cx="47.855976"
       id="path3296"
       style="opacity:0.2;fill:url(#linearGradient3298);fill-opacity:1;fill-rule:nonzero;stroke:none;stroke-width:3;stroke-linecap:square;stroke-linejoin:miter;stroke-miterlimit:4;stroke-dasharray:none;stroke-dashoffset:0;stroke-opacity:1;display:inline"
       sodipodi:type="arc"
       transform="matrix(0.2925108,0,0,0.2929307,-3.0302803,-1.8710075)" />
    <path
       sodipodi:type="arc"
       style="opacity:0.4;fill:url(#linearGradient3294);fill-opacity:1;fill-rule:nonzero;stroke:none;stroke-width:3;stroke-linecap:square;stroke-linejoin:miter;stroke-miterlimit:4;stroke-dasharray:none;stroke-dashoffset:0;stroke-opacity:1;display:inline"
       id="path3277"
       sodipodi:cx="47.855976"
       sodipodi:cy="31.0977"
       sodipodi:rx="27.14785"
       sodipodi:ry="16.162441"
       d="M 75.003826,31.0977 A 27.14785,16.162441 0 1 1 20.708126,31.0977 A 27.14785,16.162441 0 1 1 75.003826,31.0977 z"
       transform="matrix(0.1664107,0,0,0.1666496,3.0043623,2.0560437)" />
    <path
       transform="matrix(0.1247435,0,0,0.1249225,4.998391,11.727606)"
       d="M 75.003826,31.0977 A 27.14785,16.162441 0 1 1 20.708126,31.0977 A 27.14785,16.162441 0 1 1 75.003826,31.0977 z"
       sodipodi:ry="16.162441"
       sodipodi:rx="27.14785"
       sodipodi:cy="31.0977"
       sodipodi:cx="47.855976"
       id="path3300"
       style="opacity:0.2;fill:url(#linearGradient3310);fill-opacity:1;fill-rule:nonzero;stroke:none;stroke-width:3;stroke-linecap:square;stroke-linejoin:miter;stroke-miterlimit:4;stroke-dasharray:none;stroke-dashoffset:0;stroke-opacity:1;display:inline"
       sodipodi:type="arc" />
    <path
       sodipodi:type="arc"
       style="opacity:0.3;fill:#e67cff;fill-opacity:1;fill-rule:nonzero;stroke:none;stroke-width:9.10855007;stroke-linecap:square;stroke-linejoin:miter;stroke-miterlimit:4;stroke-dasharray:none;stroke-dashoffset:0;stroke-opacity:1;display:inline"
       id="path3312"
       sodipodi:cx="36.339287"
       sodipodi:cy="62.875"
       sodipodi:rx="4.0178571"
       sodipodi:ry="4.0178571"
       d="M 40.357144,62.875 A 4.0178571,4.0178571 0 1 1 32.32143,62.875 A 4.0178571,4.0178571 0 1 1 40.357144,62.875 z"
       transform="matrix(0.2466917,0,0,0.2471551,5.044227,-1.5468445)" />
    <path
       transform="matrix(0.1126756,0,0,0.1129135,8.3769271,5.4622702)"
       d="M 40.357144,62.875 A 4.0178571,4.0178571 0 1 1 32.32143,62.875 A 4.0178571,4.0178571 0 1 1 40.357144,62.875 z"
       sodipodi:ry="4.0178571"
       sodipodi:rx="4.0178571"
       sodipodi:cy="62.875"
       sodipodi:cx="36.339287"
       id="path3322"
       style="opacity:0.3;fill:#e67cff;fill-opacity:1;fill-rule:nonzero;stroke:none;stroke-width:17.31006813;stroke-linecap:square;stroke-linejoin:miter;stroke-miterlimit:4;stroke-dasharray:none;stroke-dashoffset:0;stroke-opacity:1;display:inline"
       sodipodi:type="arc" />
    <path
       transform="matrix(0.1404748,0,0,0.1407318,8.3715657,-2.2830717)"
       d="M 40.357144,62.875 A 4.0178571,4.0178571 0 1 1 32.32143,62.875 A 4.0178571,4.0178571 0 1 1 40.357144,62.875 z"
       sodipodi:ry="4.0178571"
       sodipodi:rx="4.0178571"
       sodipodi:cy="62.875"
       sodipodi:cx="36.339287"
       id="path3324"
       style="opacity:0.4;fill:#8de951;fill-opacity:1;fill-rule:nonzero;stroke:none;stroke-width:9.79514027;stroke-linecap:square;stroke-linejoin:miter;stroke-miterlimit:4;stroke-dasharray:none;stroke-dashoffset:0;stroke-opacity:1;display:inline"
       sodipodi:type="arc" />
    <path
       style="opacity:1;fill:url(#radialGradient3430);fill-opacity:1;fill-rule:nonzero;stroke:none;stroke-width:3.00296259;stroke-linecap:square;stroke-linejoin:miter;stroke-miterlimit:4;stroke-dasharray:none;stroke-dashoffset:0;stroke-opacity:1;display:inline"
       d="M 4.6184764,9.3638005 C 4.4853164,9.8898565 4.4129752,10.439912 4.4151009,11.007515 L 6.9604335,10.996978 C 6.9594237,10.652429 6.9933222,10.299905 7.0852596,9.9510697 C 7.1416335,9.7371711 7.2100217,9.5337916 7.2970785,9.3381388 L 4.994638,8.2908197 C 4.8404332,8.6344303 4.7125618,8.9921112 4.6184764,9.3638005 z M 5.5071394,7.3545724 L 7.6163308,8.7536026 C 7.8284146,8.432812 8.0833664,8.1461612 8.3719557,7.9031953 C 8.5162498,7.7817112 8.6666543,7.6700579 8.8260502,7.5700802 C 8.9854459,7.4701014 9.1545842,7.3838385 9.3263995,7.3067323 L 9.3214566,7.2982329 C 9.540308,7.2007143 9.767126,7.1252204 9.999929,7.0675799 L 9.998156,7.0743048 C 10.077031,7.0544529 10.154577,7.0369949 10.234666,7.0217339 C 10.474933,6.9759521 10.722391,6.9511454 10.9717,6.9504133 L 10.961177,4.4014266 C 10.587966,4.4028285 10.221724,4.4381738 9.864999,4.5000969 L 9.860057,4.4915977 C 9.808201,4.5007027 9.759577,4.5129967 9.708042,4.523345 C 9.572671,4.5505276 9.442155,4.5837368 9.3092603,4.6193365 C 8.9362586,4.7192554 8.5715392,4.8460897 8.2227704,5.0082735 C 8.0188469,5.1032607 7.8209612,5.2112171 7.6290668,5.3260656 C 7.6038568,5.3411541 7.5776758,5.3551928 7.5526854,5.3706106 C 7.5095042,5.3970674 7.4661736,5.4241344 7.4236107,5.4515779 C 7.4001751,5.4667967 7.3771719,5.482388 7.3539436,5.4978983 C 7.263344,5.5579482 7.1762525,5.6222347 7.0887056,5.6867283 C 7.0767048,5.6955683 7.064926,5.7043273 7.0529863,5.7132504 C 7.0105844,5.7451533 6.9686802,5.7765397 6.9270818,5.8094398 C 6.8503787,5.8697211 6.7729432,5.9299688 6.6989602,5.9936957 C 6.6761157,6.0134781 6.6550332,6.0351475 6.6324643,6.0552392 C 6.2036494,6.436961 5.8247078,6.8741032 5.5071394,7.3545724 z"
       id="path3416"
       inkscape:transform-center-x="3.288387"
       inkscape:transform-center-y="-3.2955069" />
  </g>
  <g
     inkscape:groupmode="layer"
     id="layer4"
     inkscape:label="Lens"
     sodipodi:insensitive="true" />
  <g
     inkscape:label="Button"
     inkscape:groupmode="layer"
     id="layer1">
    <path
       style="fill:url(#linearGradient3181);fill-opacity:1;fill-rule:evenodd;stroke:none;display:inline"
       d="M 3,1 C 1.892,1 1,1.892 1,3 l 0,16 c 0,1.108 0.892,2 2,2 l 16,0 c 1.108,0 2,-0.892 2,-2 L 21,3 C 21,1.892 20.108,1 19,1 L 3,1 z m 8,1.5 c 4.691999,0 8.5,3.8080002 8.5,8.5 -1e-6,4.692 -3.808,8.5 -8.5,8.5 C 6.3079997,19.499999 2.5,15.692 2.5,11 2.5,6.3079999 6.3080001,2.5 11,2.5 z"
       id="rect3173"
       inkscape:connector-curvature="0" />
    <path
       sodipodi:type="arc"
       style="fill:none;stroke:url(#linearGradient4105);stroke-width:1.02715325;stroke-linecap:square;stroke-linejoin:miter;stroke-miterlimit:4;stroke-opacity:1;stroke-dasharray:none;stroke-dashoffset:0"
       id="path4089"
       sodipodi:cx="11.10424"
       sodipodi:cy="10.692579"
       sodipodi:rx="8.8957596"
       sodipodi:ry="8.5689049"
       d="m 20,10.692579 a 8.8957596,8.5689049 0 1 1 -17.7915192,0 8.8957596,8.5689049 0 1 1 17.7915192,0 z"
       transform="matrix(0,-0.9555114,0.9919587,0,0.3934025,21.610228)" />
    <path
       style="opacity:0.5;fill:url(#linearGradient4007);fill-opacity:1;fill-rule:evenodd;stroke:none;display:inline"
       d="M 3,1 C 1.892,1 1,1.892 1,3 l 0,16 c 0,1.108 0.892,2 2,2 l 16,0 c 1.108,0 2,-0.892 2,-2 L 21,3 C 21,1.892 20.108,1 19,1 L 3,1 z m 0,1.03125 16,0 c 0.5497,0 0.96875,0.4190495 0.96875,0.96875 l 0,16 c 0,0.5497 -0.41905,0.96875 -0.96875,0.96875 l -16,0 C 2.4502995,19.96875 2.03125,19.5497 2.03125,19 l 0,-16 C 2.03125,2.4502995 2.4502995,2.03125 3,2.03125 z"
       id="rect3050"
       inkscape:connector-curvature="0" />
    <path
       id="path3235"
       d="M 3,21 C 1.892,21 1,20.108 1,19 l 0,-1 c 0,1.108 0.892,2 2,2 l 16,0 c 1.108,0 2,-0.892 2,-2 l 0,1 c 0,1.108 -0.892,2 -2,2 L 3,21 z"
       style="opacity:0.3;fill:url(#linearGradient3845);fill-opacity:1;fill-rule:evenodd;stroke:none;display:inline"
       inkscape:connector-curvature="0" />
  </g>
</svg>
