<?xml version="1.0" encoding="UTF-8" standalone="no"?>
<!-- Created with Inkscape (http://www.inkscape.org/) -->

<svg
   xmlns:dc="http://purl.org/dc/elements/1.1/"
   xmlns:cc="http://creativecommons.org/ns#"
   xmlns:rdf="http://www.w3.org/1999/02/22-rdf-syntax-ns#"
   xmlns:svg="http://www.w3.org/2000/svg"
   xmlns="http://www.w3.org/2000/svg"
   xmlns:xlink="http://www.w3.org/1999/xlink"
   xmlns:sodipodi="http://sodipodi.sourceforge.net/DTD/sodipodi-0.dtd"
   xmlns:inkscape="http://www.inkscape.org/namespaces/inkscape"
   width="24"
   height="24"
   id="svg2"
   sodipodi:version="0.32"
   inkscape:version="0.48.0 r9654"
   version="1.0"
   sodipodi:docname="shutter.svg"
   inkscape:output_extension="org.inkscape.output.svg.inkscape"
   style="display:inline">
  <defs
     id="defs4">
    <linearGradient
       inkscape:collect="always"
       id="linearGradient3327">
      <stop
         style="stop-color:#000000;stop-opacity:1;"
         offset="0"
         id="stop3330" />
      <stop
         style="stop-color:#000000;stop-opacity:0;"
         offset="1"
         id="stop3333" />
    </linearGradient>
    <linearGradient
       inkscape:collect="always"
       xlink:href="#linearGradient3327"
       id="linearGradient3335"
       x1="11.375"
       y1="22"
       x2="11.375"
       y2="-9.817296"
       gradientUnits="userSpaceOnUse" />
    <linearGradient
       inkscape:collect="always"
       xlink:href="#linearGradient4068"
       id="linearGradient3181"
       x1="-3.0607977"
       y1="27.258198"
       x2="-3.0607977"
       y2="7.2536583"
       gradientUnits="userSpaceOnUse"
       gradientTransform="translate(12.119372,-7.2581977)" />
    <inkscape:perspective
       sodipodi:type="inkscape:persp3d"
       inkscape:vp_x="0 : 11 : 1"
       inkscape:vp_y="0 : 1000 : 0"
       inkscape:vp_z="22 : 11 : 1"
       inkscape:persp3d-origin="11 : 7.3333333 : 1"
       id="perspective2531" />
    <linearGradient
       id="ButtonShadow"
       gradientTransform="scale(0.9883037,1.0118347)"
       x1="9.3550024"
       y1="21.742682"
       x2="9.3550024"
       y2="0.49362123"
       gradientUnits="userSpaceOnUse">
      <stop
         id="stop3277"
         offset="0"
         style="stop-color:#000000;stop-opacity:0.70588237;" />
      <stop
         id="stop3279"
         offset="1"
         style="stop-color:#000000;stop-opacity:0.15686275;" />
    </linearGradient>
    <linearGradient
       inkscape:collect="always"
       id="linearGradient3232">
      <stop
         style="stop-color:#000000;stop-opacity:1;"
         offset="0"
         id="stop3234" />
      <stop
         style="stop-color:#000000;stop-opacity:0;"
         offset="1"
         id="stop3236" />
    </linearGradient>
    <linearGradient
       gradientUnits="userSpaceOnUse"
       y2="-6.0004225"
       x2="11"
       y1="14.805666"
       x1="11"
       id="linearGradient3221"
       xlink:href="#linearGradient3232"
       inkscape:collect="always" />
    <linearGradient
       id="ButtonColor"
       x1="10.31979"
       y1="21"
       x2="10.31979"
       y2="0.99929649"
       gradientUnits="userSpaceOnUse">
      <stop
         style="stop-color:#29669f;stop-opacity:1;"
         offset="0"
         id="stop3189" />
      <stop
         style="stop-color:#88b6e0;stop-opacity:1;"
         offset="1"
         id="stop3191" />
    </linearGradient>
    <linearGradient
       inkscape:collect="always"
       xlink:href="#ButtonShadow"
       id="linearGradient38042"
       gradientUnits="userSpaceOnUse"
       gradientTransform="scale(0.9883037,1.0118347)"
       x1="9.3550024"
       y1="21.742682"
       x2="9.3550024"
       y2="0.49362123" />
    <filter
       inkscape:collect="always"
       id="filter3194"
       x="-0.18000001"
       width="1.36"
       y="-0.18000001"
       height="1.36"
       color-interpolation-filters="sRGB">
      <feGaussianBlur
         inkscape:collect="always"
         stdDeviation="1.2"
         id="feGaussianBlur3196" />
    </filter>
    <clipPath
       clipPathUnits="userSpaceOnUse"
       id="clipPath2849">
      <rect
         ry="2"
         rx="2"
         y="1"
         x="1"
         height="20"
         width="20"
         id="rect2851"
         style="fill:#ffffff;fill-opacity:1;fill-rule:evenodd;stroke:none;display:inline" />
    </clipPath>
    <inkscape:perspective
       id="perspective3772"
       inkscape:persp3d-origin="0.5 : 0.33333333 : 1"
       inkscape:vp_z="1 : 0.5 : 1"
       inkscape:vp_y="0 : 1000 : 0"
       inkscape:vp_x="0 : 0.5 : 1"
       sodipodi:type="inkscape:persp3d" />
    <linearGradient
       inkscape:collect="always"
       xlink:href="#linearGradient4068"
       id="linearGradient3617"
       gradientUnits="userSpaceOnUse"
       x1="48"
       y1="90"
       x2="48"
       y2="5.9877172" />
    <linearGradient
       id="linearGradient4068">
      <stop
         id="stop4070"
         offset="0"
         style="stop-color:#45a4d4;stop-opacity:1;" />
      <stop
         id="stop4072"
         offset="1"
         style="stop-color:#94c8e0;stop-opacity:1;" />
    </linearGradient>
    <linearGradient
       gradientTransform="translate(-86,-40)"
       y2="5.9877172"
       x2="48"
       y1="90"
       x1="48"
       gradientUnits="userSpaceOnUse"
       id="linearGradient3781"
       xlink:href="#linearGradient4068"
       inkscape:collect="always" />
    <inkscape:perspective
       id="perspective3791"
       inkscape:persp3d-origin="0.5 : 0.33333333 : 1"
       inkscape:vp_z="1 : 0.5 : 1"
       inkscape:vp_y="0 : 1000 : 0"
       inkscape:vp_x="0 : 0.5 : 1"
       sodipodi:type="inkscape:persp3d" />
    <radialGradient
       inkscape:collect="always"
       xlink:href="#linearGradient6793"
       id="radialGradient4113"
       gradientUnits="userSpaceOnUse"
       gradientTransform="matrix(-0.03806204,0,0,0.03737029,25.362229,2.2388773)"
       cx="353.6283"
       cy="241.04938"
       fx="353.6283"
       fy="241.04938"
       r="220.11942" />
    <linearGradient
       id="linearGradient6793">
      <stop
         offset="0"
         style="stop-color:#44b5e8;stop-opacity:1"
         id="stop6795" />
      <stop
         offset="1"
         style="stop-color:#116b98;stop-opacity:1"
         id="stop6797" />
    </linearGradient>
    <radialGradient
       inkscape:collect="always"
       xlink:href="#linearGradient6793"
       id="radialGradient4111"
       gradientUnits="userSpaceOnUse"
       gradientTransform="matrix(-0.03806204,0,0,0.03737029,25.362229,2.2388773)"
       cx="353.6283"
       cy="241.04938"
       fx="353.6283"
       fy="241.04938"
       r="220.11942" />
    <linearGradient
       id="linearGradient3800">
      <stop
         offset="0"
         style="stop-color:#44b5e8;stop-opacity:1"
         id="stop3802" />
      <stop
         offset="1"
         style="stop-color:#116b98;stop-opacity:1"
         id="stop3804" />
    </linearGradient>
    <radialGradient
       inkscape:collect="always"
       xlink:href="#linearGradient6793"
       id="radialGradient4109"
       gradientUnits="userSpaceOnUse"
       gradientTransform="matrix(-0.03806204,0,0,0.03737029,25.362229,2.2388773)"
       cx="353.6283"
       cy="241.04938"
       fx="353.6283"
       fy="241.04938"
       r="220.11942" />
    <linearGradient
       id="linearGradient3807">
      <stop
         offset="0"
         style="stop-color:#44b5e8;stop-opacity:1"
         id="stop3809" />
      <stop
         offset="1"
         style="stop-color:#116b98;stop-opacity:1"
         id="stop3811" />
    </linearGradient>
    <radialGradient
       inkscape:collect="always"
       xlink:href="#linearGradient6793"
       id="radialGradient4107"
       gradientUnits="userSpaceOnUse"
       gradientTransform="matrix(-0.03803067,-0.00153542,-0.00152598,0.0373395,25.581545,2.2929023)"
       cx="353.6283"
       cy="241.04938"
       fx="353.6283"
       fy="241.04938"
       r="220.11942" />
    <linearGradient
       id="linearGradient3814">
      <stop
         offset="0"
         style="stop-color:#44b5e8;stop-opacity:1"
         id="stop3816" />
      <stop
         offset="1"
         style="stop-color:#116b98;stop-opacity:1"
         id="stop3818" />
    </linearGradient>
    <radialGradient
       inkscape:collect="always"
       xlink:href="#linearGradient6793"
       id="radialGradient4105"
       gradientUnits="userSpaceOnUse"
       gradientTransform="matrix(-0.14010564,0,0,0.13702439,186.63397,20.542549)"
       cx="353.6283"
       cy="241.04938"
       fx="353.6283"
       fy="241.04938"
       r="220.11942" />
    <linearGradient
       id="linearGradient3821">
      <stop
         offset="0"
         style="stop-color:#44b5e8;stop-opacity:1"
         id="stop3823" />
      <stop
         offset="1"
         style="stop-color:#116b98;stop-opacity:1"
         id="stop3825" />
    </linearGradient>
    <radialGradient
       r="220.11942"
       fy="241.04938"
       fx="353.6283"
       cy="241.04938"
       cx="353.6283"
       gradientTransform="matrix(-0.03806204,0,0,0.03737029,25.362229,2.2388773)"
       gradientUnits="userSpaceOnUse"
       id="radialGradient3834"
       xlink:href="#linearGradient6793"
       inkscape:collect="always" />
    <radialGradient
       inkscape:collect="always"
       xlink:href="#linearGradient6793"
       id="radialGradient3732"
       gradientUnits="userSpaceOnUse"
       gradientTransform="matrix(-0.03806204,0,0,0.03737029,25.362229,4.2388773)"
       cx="353.6283"
       cy="241.04938"
       fx="353.6283"
       fy="241.04938"
       r="220.11942" />
    <inkscape:perspective
       id="perspective3844"
       inkscape:persp3d-origin="0.5 : 0.33333333 : 1"
       inkscape:vp_z="1 : 0.5 : 1"
       inkscape:vp_y="0 : 1000 : 0"
       inkscape:vp_x="0 : 0.5 : 1"
       sodipodi:type="inkscape:persp3d" />
    <filter
       color-interpolation-filters="sRGB"
       height="1.3107746"
       y="-0.15538733"
       width="1.1436011"
       x="-0.071800567"
       id="filter3985">
      <feGaussianBlur
         id="feGaussianBlur3987"
         stdDeviation="6.7803529"
         inkscape:collect="always" />
    </filter>
    <filter
       color-interpolation-filters="sRGB"
       id="filter3989">
      <feGaussianBlur
         id="feGaussianBlur3991"
         stdDeviation="6.7803529"
         inkscape:collect="always" />
    </filter>
    <filter
       color-interpolation-filters="sRGB"
       height="1.1447482"
       y="-0.072374105"
       width="1.2981865"
       x="-0.1490933"
       id="filter3993">
      <feGaussianBlur
         id="feGaussianBlur3995"
         stdDeviation="6.7803529"
         inkscape:collect="always" />
    </filter>
    <filter
       color-interpolation-filters="sRGB"
       height="1.2207661"
       y="-0.11038305"
       width="1.1631417"
       x="-0.081570871"
       id="filter3997">
      <feGaussianBlur
         id="feGaussianBlur3999"
         stdDeviation="6.7803529"
         inkscape:collect="always" />
    </filter>
    <filter
       color-interpolation-filters="sRGB"
       height="1.257324"
       y="-0.12866202"
       width="1.149857"
       x="-0.07492853"
       id="filter4001">
      <feGaussianBlur
         id="feGaussianBlur4003"
         stdDeviation="6.7803529"
         inkscape:collect="always" />
    </filter>
    <filter
       color-interpolation-filters="sRGB"
       height="1.152902"
       y="-0.076450996"
       width="1.2446516"
       x="-0.12232576"
       id="filter4005">
      <feGaussianBlur
         id="feGaussianBlur4007"
         stdDeviation="6.7803529"
         inkscape:collect="always" />
    </filter>
    <filter
       color-interpolation-filters="sRGB"
       height="1.1597476"
       y="-0.079873785"
       width="1.2244866"
       x="-0.11224329"
       id="filter4009">
      <feGaussianBlur
         id="feGaussianBlur4011"
         stdDeviation="6.7803529"
         inkscape:collect="always" />
    </filter>
    <radialGradient
       gradientTransform="matrix(-1,0,0,0.9878188,582.03434,46.933265)"
       gradientUnits="userSpaceOnUse"
       xlink:href="#linearGradient6793-4"
       id="radialGradient2607"
       fy="241.04938"
       fx="353.6283"
       r="220.11942"
       cy="241.04938"
       cx="353.6283" />
    <linearGradient
       id="linearGradient6793-4">
      <stop
         offset="0"
         style="stop-color:#44b5e8;stop-opacity:1"
         id="stop6795-0" />
      <stop
         offset="1"
         style="stop-color:#116b98;stop-opacity:1"
         id="stop6797-7" />
    </linearGradient>
    <radialGradient
       gradientTransform="matrix(-0.999176,-0.04058612,-0.04009174,0.9870049,587.79647,48.361326)"
       gradientUnits="userSpaceOnUse"
       xlink:href="#linearGradient6793-4"
       id="radialGradient2609"
       fy="241.04938"
       fx="353.6283"
       r="220.11942"
       cy="241.04938"
       cx="353.6283" />
    <linearGradient
       id="linearGradient3867">
      <stop
         offset="0"
         style="stop-color:#44b5e8;stop-opacity:1"
         id="stop3869" />
      <stop
         offset="1"
         style="stop-color:#116b98;stop-opacity:1"
         id="stop3871" />
    </linearGradient>
    <radialGradient
       gradientTransform="matrix(-1,0,0,0.9878188,582.03434,46.933265)"
       gradientUnits="userSpaceOnUse"
       xlink:href="#linearGradient6793-4"
       id="radialGradient2611"
       fy="241.04938"
       fx="353.6283"
       r="220.11942"
       cy="241.04938"
       cx="353.6283" />
    <linearGradient
       id="linearGradient3874">
      <stop
         offset="0"
         style="stop-color:#44b5e8;stop-opacity:1"
         id="stop3876" />
      <stop
         offset="1"
         style="stop-color:#116b98;stop-opacity:1"
         id="stop3878" />
    </linearGradient>
    <radialGradient
       gradientTransform="matrix(-1,0,0,0.9878188,582.03434,46.933265)"
       gradientUnits="userSpaceOnUse"
       xlink:href="#linearGradient6793-4"
       id="radialGradient2613"
       fy="241.04938"
       fx="353.6283"
       r="220.11942"
       cy="241.04938"
       cx="353.6283" />
    <linearGradient
       id="linearGradient3881">
      <stop
         offset="0"
         style="stop-color:#44b5e8;stop-opacity:1"
         id="stop3883" />
      <stop
         offset="1"
         style="stop-color:#116b98;stop-opacity:1"
         id="stop3885" />
    </linearGradient>
    <radialGradient
       gradientTransform="matrix(-1,0,0,0.9878188,582.03434,46.933265)"
       gradientUnits="userSpaceOnUse"
       xlink:href="#linearGradient6793-4"
       id="radialGradient2615"
       fy="241.04938"
       fx="353.6283"
       r="220.11942"
       cy="241.04938"
       cx="353.6283" />
    <linearGradient
       id="linearGradient3888">
      <stop
         offset="0"
         style="stop-color:#44b5e8;stop-opacity:1"
         id="stop3890" />
      <stop
         offset="1"
         style="stop-color:#116b98;stop-opacity:1"
         id="stop3892" />
    </linearGradient>
    <filter
       color-interpolation-filters="sRGB"
       id="filter3383">
      <feBlend
         id="feBlend3385"
         in2="BackgroundImage"
         mode="multiply"
         inkscape:collect="always" />
    </filter>
    <radialGradient
       gradientTransform="matrix(-0.999176,-0.04058612,-0.04009174,0.9870049,587.79647,48.361326)"
       gradientUnits="userSpaceOnUse"
       xlink:href="#linearGradient6793-4"
       id="radialGradient2617"
       fy="241.04938"
       fx="353.6283"
       r="220.11942"
       cy="241.04938"
       cx="353.6283" />
    <linearGradient
       id="linearGradient3897">
      <stop
         offset="0"
         style="stop-color:#44b5e8;stop-opacity:1"
         id="stop3899" />
      <stop
         offset="1"
         style="stop-color:#116b98;stop-opacity:1"
         id="stop3901" />
    </linearGradient>
    <radialGradient
       gradientTransform="matrix(-1,0,0,0.9878188,582.03434,46.933265)"
       gradientUnits="userSpaceOnUse"
       xlink:href="#linearGradient6793-4"
       id="radialGradient2619"
       fy="241.04938"
       fx="353.6283"
       r="220.11942"
       cy="241.04938"
       cx="353.6283" />
    <linearGradient
       id="linearGradient3904">
      <stop
         offset="0"
         style="stop-color:#44b5e8;stop-opacity:1"
         id="stop3906" />
      <stop
         offset="1"
         style="stop-color:#116b98;stop-opacity:1"
         id="stop3908" />
    </linearGradient>
    <radialGradient
       gradientTransform="matrix(-1,0,0,0.9878188,582.03434,46.933265)"
       gradientUnits="userSpaceOnUse"
       xlink:href="#linearGradient6793-4"
       id="radialGradient2621"
       fy="241.04938"
       fx="353.6283"
       r="220.11942"
       cy="241.04938"
       cx="353.6283" />
    <linearGradient
       id="linearGradient3911">
      <stop
         offset="0"
         style="stop-color:#44b5e8;stop-opacity:1"
         id="stop3913" />
      <stop
         offset="1"
         style="stop-color:#116b98;stop-opacity:1"
         id="stop3915" />
    </linearGradient>
    <radialGradient
       gradientTransform="matrix(-1,0,0,0.9878188,582.03434,46.933265)"
       gradientUnits="userSpaceOnUse"
       xlink:href="#linearGradient6793-4"
       id="radialGradient2623"
       fy="241.04938"
       fx="353.6283"
       r="220.11942"
       cy="241.04938"
       cx="353.6283" />
    <linearGradient
       id="linearGradient3918">
      <stop
         offset="0"
         style="stop-color:#44b5e8;stop-opacity:1"
         id="stop3920" />
      <stop
         offset="1"
         style="stop-color:#116b98;stop-opacity:1"
         id="stop3922" />
    </linearGradient>
    <radialGradient
       gradientTransform="matrix(-1,0,0,0.9878188,582.03434,46.933265)"
       gradientUnits="userSpaceOnUse"
       xlink:href="#linearGradient6793-4"
       id="radialGradient2625"
       fy="241.04938"
       fx="353.6283"
       r="220.11942"
       cy="241.04938"
       cx="353.6283" />
    <linearGradient
       id="linearGradient3925">
      <stop
         offset="0"
         style="stop-color:#44b5e8;stop-opacity:1"
         id="stop3927" />
      <stop
         offset="1"
         style="stop-color:#116b98;stop-opacity:1"
         id="stop3929" />
    </linearGradient>
    <radialGradient
       inkscape:collect="always"
       xlink:href="#linearGradient6793"
       id="radialGradient3919"
       gradientUnits="userSpaceOnUse"
       gradientTransform="matrix(-0.03806204,0,0,0.03737029,25.362229,4.2388773)"
       cx="353.6283"
       cy="241.04938"
       fx="353.6283"
       fy="241.04938"
       r="220.11942" />
    <filter
       inkscape:collect="always"
       id="filter3924">
      <feGaussianBlur
         inkscape:collect="always"
         stdDeviation="0.34298834"
         id="feGaussianBlur3926" />
    </filter>
    <radialGradient
       inkscape:collect="always"
       xlink:href="#linearGradient6793"
       id="radialGradient3938"
       gradientUnits="userSpaceOnUse"
       gradientTransform="matrix(-0.03806204,0,0,0.03737029,25.362229,4.2388773)"
       cx="353.6283"
       cy="241.04938"
       fx="353.6283"
       fy="241.04938"
       r="220.11942" />
    <linearGradient
       y2="16"
       x2="10"
       y1="1"
       x1="10"
       gradientUnits="userSpaceOnUse"
       id="linearGradient3078"
       xlink:href="#linearGradient3823"
       inkscape:collect="always"
       gradientTransform="translate(1,-1)" />
    <linearGradient
       id="linearGradient3823">
      <stop
         id="stop3825-7"
         offset="0"
         style="stop-color:#ffffff;stop-opacity:1;" />
      <stop
         id="stop3829"
         offset="1"
         style="stop-color:#ffffff;stop-opacity:0;" />
    </linearGradient>
    <linearGradient
       inkscape:collect="always"
       xlink:href="#linearGradient3831"
       id="linearGradient3845"
       x1="11"
       y1="19.5"
       x2="21"
       y2="19.5"
       gradientUnits="userSpaceOnUse"
       spreadMethod="reflect"
       gradientTransform="translate(1,-1)" />
    <linearGradient
       id="linearGradient3831">
      <stop
         style="stop-color:#ffffff;stop-opacity:1;"
         offset="0"
         id="stop3833" />
      <stop
         id="stop3821"
         offset="0.75"
         style="stop-color:#ffffff;stop-opacity:0.49803922;" />
      <stop
         style="stop-color:#ffffff;stop-opacity:0;"
         offset="1"
         id="stop3835" />
    </linearGradient>
    <linearGradient
       y2="16"
       x2="10"
       y1="1"
       x1="10"
       gradientTransform="translate(1,-1)"
       gradientUnits="userSpaceOnUse"
       id="linearGradient4007"
       xlink:href="#linearGradient3823"
       inkscape:collect="always" />
  </defs>
  <sodipodi:namedview
     id="base"
     pagecolor="#ffffff"
     bordercolor="#e7e7e7"
     borderopacity="1"
     inkscape:pageopacity="0.0"
     inkscape:pageshadow="2"
     inkscape:zoom="17.261742"
     inkscape:cx="-12.297012"
     inkscape:cy="6.7043284"
     inkscape:document-units="px"
     inkscape:current-layer="layer1"
     showgrid="true"
     inkscape:showpageshadow="false"
     showguides="false"
     inkscape:guide-bbox="true"
     inkscape:window-width="1920"
     inkscape:window-height="1026"
     inkscape:window-x="0"
     inkscape:window-y="25"
     inkscape:window-maximized="1">
    <sodipodi:guide
       orientation="1,0"
       position="0,112"
       id="guide2383" />
    <sodipodi:guide
       orientation="0,1"
       position="26.278146,128"
       id="guide2385" />
    <sodipodi:guide
       orientation="1,0"
       position="128,54.082119"
       id="guide2387" />
    <sodipodi:guide
       orientation="0,1"
       position="78.156291,0"
       id="guide2389" />
    <sodipodi:guide
       orientation="0,1"
       position="60.863576,64.084768"
       id="guide2391" />
    <inkscape:grid
       type="xygrid"
       id="grid3672"
       visible="true"
       enabled="true"
       empspacing="8"
       snapvisiblegridlinesonly="true" />
  </sodipodi:namedview>
  <metadata
     id="metadata7">
    <rdf:RDF>
      <cc:Work
         rdf:about="">
        <dc:format>image/svg+xml</dc:format>
        <dc:type
           rdf:resource="http://purl.org/dc/dcmitype/StillImage" />
        <dc:title />
      </cc:Work>
    </rdf:RDF>
  </metadata>
  <g
     inkscape:label="Button"
     inkscape:groupmode="layer"
     id="layer1"
     transform="translate(0,2)">
    <g
       style="display:inline"
       id="g3337"
       transform="translate(1,-1)">
      <rect
         ry="2.5"
         rx="2.5"
         y="0.5"
         x="0.5"
         height="21.5"
         width="21"
         id="rect3371"
         style="opacity:0.3;fill:url(#linearGradient3335);fill-opacity:1;stroke:none;display:inline" />
      <rect
         style="opacity:0.5;fill:#000000;fill-opacity:1;stroke:none;display:inline"
         id="rect2553"
         width="20"
         height="20"
         x="1"
         y="2"
         rx="2.3809524"
         ry="2.3255813" />
    </g>
    <rect
       style="fill:url(#linearGradient3181);fill-opacity:1;fill-rule:evenodd;stroke:none;display:inline"
       id="rect3173"
       width="20"
       height="20"
       x="2"
       y="0"
       rx="2"
       ry="2" />
    <path
       style="opacity:0.4;fill:url(#linearGradient4007);fill-opacity:1;fill-rule:evenodd;stroke:none;display:inline"
       d="M 4,0 C 2.892,0 2,0.892 2,2 l 0,16 c 0,1.108 0.892,2 2,2 l 16,0 c 1.108,0 2,-0.892 2,-2 L 22,2 C 22,0.892 21.108,0 20,0 L 4,0 z m 0,1.03125 16,0 c 0.5497,0 0.96875,0.4190495 0.96875,0.96875 l 0,16 c 0,0.5497 -0.41905,0.96875 -0.96875,0.96875 l -16,0 C 3.4502995,18.96875 3.03125,18.5497 3.03125,18 l 0,-16 C 3.03125,1.4502995 3.4502995,1.03125 4,1.03125 z"
       id="rect3050"
       inkscape:connector-curvature="0" />
    <path
       id="path3235"
       d="M 4,20 C 2.892,20 2,19.108 2,18 l 0,-1 c 0,1.108 0.892,2 2,2 l 16,0 c 1.108,0 2,-0.892 2,-2 l 0,1 c 0,1.108 -0.892,2 -2,2 L 4,20 z"
       style="opacity:0.25;fill:url(#linearGradient3845);fill-opacity:1;fill-rule:evenodd;stroke:none;display:inline"
       inkscape:connector-curvature="0" />
  </g>
  <g
     inkscape:groupmode="layer"
     id="layer2"
     inkscape:label="Highlight"
     transform="translate(0,2)"
     sodipodi:insensitive="true">
    <rect
       style="opacity:0.15;fill:#ffffff;fill-opacity:1;fill-rule:nonzero;stroke:none;display:inline;filter:url(#filter3194)"
       id="rect2410"
       width="16"
       height="16"
       x="3"
       y="3"
       rx="2"
       ry="2"
       clip-path="url(#clipPath2849)"
       transform="translate(1,-1)" />
  </g>
  <g
     inkscape:groupmode="layer"
     id="layer3"
     inkscape:label="Symbol"
     transform="translate(0,2)"
     sodipodi:insensitive="true">
    <path
       style="opacity:0.6;fill:#000000;fill-opacity:1;fill-rule:nonzero;stroke:none;stroke-width:25;marker-mid:none;filter:url(#filter3924)"
       d="m 47.125,1.5235706 c -2.496044,0.1603514 -5.719463,0.860359 -6.8125,2.15625 -0.981994,1.417775 -1.12849,6.9667604 -0.875,6.6250004 2.089245,-2.8167481 7.107297,-6.2867454 10.09375,-7.6875004 1.845777,-0.8657375 0.08979,-1.2541014 -2.40625,-1.09375 z m -8.625,3.125 c -0.644282,0.1090497 -3.252299,1.876116 -2.65625,5.0625 0.565873,1.6267764 4.186983,3.8124164 4.0625,3.4062504 C 38.876601,9.7577396 38.509053,7.5763056 38.625,4.7110706 38.6272,4.6580396 38.59204,4.6329916 38.5,4.6485706 z m 7.0625,1.4375 c -1.727278,0.123867 -4.770677,3.046042 -4.34375,3.03125 3.531289,-0.122343 5.744697,0.08721 8.5,0.9375004 0.407974,0.125902 -0.440701,-3.6837444 -4.15625,-3.9687504 z m -1.875,3.03125 c -0.09119,0.00466 -0.124268,0.050198 -0.09375,0.09375 2.019413,2.8819164 3.036126,4.8319774 3.8125,7.5937504 0.114957,0.408931 2.868876,-2.368225 1.09375,-5.625 C 47.588362,9.9767776 44.325818,9.0846756 43.6875,9.1173206 z m -9.375,0.5625 c -0.3459,0.181216 -0.972687,3.6019464 2.03125,5.3750004 1.6038,0.649364 5.608102,-0.637811 5.21875,-0.8125 -3.220527,-1.44493 -5.096129,-2.58717 -7.1875,-4.5625004 -0.01935,-0.01828 -0.03944,-0.01208 -0.0625,0 z M 44.75,11.429821 c -0.02009,-0.0051 -0.05576,0.0056 -0.0625,0.03125 -0.891987,3.398253 -1.704747,5.462732 -3.3125,7.84375 -0.238058,0.352553 3.662597,0.613494 5,-2.84375 0.351166,-1.575481 -1.323658,-4.954185 -1.625,-5.03125 z m -1.03125,2.1875 c -3.18756,1.515428 -5.288716,2.215702 -8.15625,2.53125 -0.424591,0.04672 1.885944,3.184026 5.40625,1.96875 1.533391,-0.799933 3.135367,-4.683211 2.75,-4.5 z"
       id="path3905"
       inkscape:connector-curvature="0" />
    <path
       d="m 15.555671,5.5941663 c -1.727278,0.123867 -4.763455,3.043644 -4.336528,3.028852 3.531289,-0.122343 5.737018,0.07964 8.492321,0.9299297 C 20.119438,9.67885 19.27122,5.8791723 15.555671,5.5941663 z"
       id="path4091"
       style="fill:url(#radialGradient3834);fill-opacity:1;fill-rule:nonzero;stroke:none;stroke-width:25;marker-mid:none"
       inkscape:connector-curvature="0" />
    <path
       d="M 10.302752,3.1928663 C 9.3207578,4.6106413 9.1974646,10.159175 9.4509541,9.817415 11.540199,7.0006673 16.547735,3.5220623 19.534188,2.1213073 c 3.691554,-1.731475 -7.045362,-1.520223 -9.231436,1.071559 z"
       id="path4093"
       style="fill:url(#radialGradient4107);fill-opacity:1;fill-rule:nonzero;stroke:#000000;stroke-width:0;stroke-linecap:butt;stroke-linejoin:round;stroke-miterlimit:4;stroke-opacity:1;stroke-dasharray:none;stroke-dashoffset:1;marker-mid:none"
       inkscape:connector-curvature="0" />
    <path
       d="m 5.8561115,9.228043 c 0.5658734,1.626776 4.1871305,3.789432 4.0626472,3.383266 C 8.8891094,9.251728 8.516592,7.0814553 8.6325393,4.2162203 8.6497083,3.7919703 5.1749127,5.5864613 5.8561115,9.228043 z"
       id="path4095"
       style="fill:#e2eef2;fill-opacity:1;fill-rule:nonzero;stroke:none;stroke-width:25;marker-mid:none"
       inkscape:connector-curvature="0" />
    <path
       d="M 6.3290423,14.56869 C 7.9328428,15.218054 11.95609,13.936954 11.566738,13.762265 8.3462108,12.317335 6.4586599,11.165196 4.3672884,9.189866 4.0576238,8.8973833 3.1248427,12.677432 6.3290423,14.56869 z"
       id="path4097"
       style="fill:#e2eef2;fill-opacity:1;fill-rule:nonzero;stroke:none;stroke-width:25;marker-mid:none"
       inkscape:connector-curvature="0" />
    <path
       d="m 10.969098,17.624557 c 1.533391,-0.799933 3.141852,-4.682727 2.756485,-4.499516 -3.18756,1.515428 -5.2905698,2.206818 -8.1581038,2.522366 -0.4245906,0.04672 1.8813134,3.192426 5.4016198,1.97715 z"
       id="path4099"
       style="fill:url(#radialGradient4109);fill-opacity:1;fill-rule:nonzero;stroke:none;stroke-width:25;marker-mid:none"
       inkscape:connector-curvature="0" />
    <path
       d="m 16.376821,15.975344 c 0.374577,-1.680513 -1.571983,-5.407266 -1.679824,-4.996425 -0.891987,3.398253 -1.717547,5.441259 -3.3253,7.822277 -0.238058,0.352553 3.667721,0.631392 5.005124,-2.825852 z"
       id="path4101"
       style="fill:url(#radialGradient4111);fill-opacity:1;fill-rule:nonzero;stroke:none;stroke-width:25;marker-mid:none"
       inkscape:connector-curvature="0" />
    <path
       d="M 18.505713,10.686888 C 17.463841,9.311982 13.348876,8.3612783 13.593018,8.7096963 c 2.019413,2.8819157 3.0455,4.8330837 3.821874,7.5948567 0.114957,0.408931 2.865947,-2.36089 1.090821,-5.617665 z"
       id="path4103"
       style="fill:url(#radialGradient4113);fill-opacity:1;fill-rule:nonzero;stroke:none;stroke-width:25;marker-mid:none"
       inkscape:connector-curvature="0" />
    <path
       style="opacity:0.6;fill:#012d5b;fill-opacity:1;fill-rule:nonzero;stroke:none;stroke-width:25;marker-mid:none"
       d="M 18.8125,3 C 18.325711,2.9726132 17.749011,2.9911622 17.125,3.03125 14.628956,3.1916014 11.405537,3.891609 10.3125,5.1875 9.3305058,6.605275 9.1840105,12.15426 9.4375,11.8125 11.526745,8.9957523 16.544797,5.525755 19.53125,4.125 20.915583,3.4756969 20.272868,3.0821605 18.8125,3 z m -0.78125,0.375 c 0.278946,-0.00636 0.546717,-0.013844 0.78125,0 0.441277,0.026048 0.764664,0.091908 0.96875,0.15625 -0.06037,0.048511 -0.09381,0.1034563 -0.40625,0.25 C 16.52028,5.1202174 12.043348,8.2118562 9.6875,11 9.6853283,10.527488 9.722361,9.8893278 9.78125,9.1875 c 0.06294,-0.7501089 0.1690374,-1.5570189 0.3125,-2.25 0.139943,-0.6759786 0.319337,-1.2249896 0.5,-1.5 0.0075,-0.0089 0.02343,-0.022367 0.03125,-0.03125 0.464383,-0.5274069 1.455123,-1.033155 2.65625,-1.375 1.221357,-0.3476026 2.650873,-0.5463594 3.875,-0.625 0.305932,-0.019654 0.596054,-0.02489 0.875,-0.03125 z M 15.5625,7.59375 c -1.727278,0.123867 -4.770677,3.046042 -4.34375,3.03125 3.531289,-0.122343 5.744697,0.08721 8.5,0.9375 0.407974,0.125902 -0.440701,-3.683744 -4.15625,-3.96875 z m 0,0.375 c 0.01099,9.124e-4 0.02032,-9.769e-4 0.03125,0 1.696347,0.1515757 2.709236,1.0797561 3.28125,1.96875 0.289693,0.450227 0.462218,0.891662 0.53125,1.1875 -1.825726,-0.516479 -3.578528,-0.745434 -5.5,-0.8125 a 0.36527602,0.36527602 0 0 0 -0.09375,0.03125 0.36527602,0.36527602 0 0 0 -0.0625,0 0.36527602,0.36527602 0 0 0 -0.125,-0.03125 c -0.539136,-0.01378 -1.102783,-0.01916 -1.6875,-0.03125 0.235129,-0.238876 0.500746,-0.5421327 0.875,-0.84375 0.889052,-0.7165017 2.071645,-1.4070305 2.75,-1.46875 z m -1.875,2.65625 c -0.09119,0.0047 -0.124268,0.0502 -0.09375,0.09375 2.019413,2.881916 3.036126,4.831977 3.8125,7.59375 0.114957,0.408931 2.868876,-2.368225 1.09375,-5.625 -0.911638,-1.203043 -4.174182,-2.095145 -4.8125,-2.0625 z m 0.625,0.5625 c 0.438951,0.07462 1.026006,0.166357 1.75,0.4375 0.88868,0.33282 1.769366,0.807023 2.125,1.25 0.0072,0.0089 0.02453,0.02238 0.03125,0.03125 0.803474,1.504652 0.566524,2.848345 0.125,3.8125 -0.222681,0.48627 -0.506362,0.875221 -0.71875,1.09375 -0.702382,-2.344992 -1.706235,-4.251247 -3.3125,-6.625 z m 0.4375,1.75 c -0.02009,-0.0051 -0.05576,0.0056 -0.0625,0.03125 -0.891987,3.398253 -1.704747,5.462732 -3.3125,7.84375 -0.238058,0.352553 3.662597,0.613494 5,-2.84375 0.351166,-1.575481 -1.323658,-4.954185 -1.625,-5.03125 z m 0.09375,0.71875 c 0.01305,0.023 0.01779,0.03806 0.03125,0.0625 0.184446,0.335027 0.393195,0.801364 0.59375,1.3125 0.396124,1.009565 0.687145,2.191847 0.5625,2.8125 -0.0016,0.0078 0.0017,0.02363 0,0.03125 -0.627444,1.594489 -1.818432,2.296221 -2.84375,2.59375 -0.491457,0.142612 -0.945068,0.167673 -1.25,0.15625 1.348247,-2.086765 2.126097,-4.129737 2.90625,-6.96875 z m -1.125,1.46875 c -3.18756,1.515428 -5.288716,2.215702 -8.15625,2.53125 -0.4245906,0.04672 1.8859436,3.184026 5.40625,1.96875 1.533391,-0.799933 3.135367,-4.683211 2.75,-4.5 z m -0.5,0.59375 c -0.118133,0.314649 -0.242949,0.690035 -0.46875,1.125 -0.520616,1.00287 -1.311171,2.104758 -1.90625,2.4375 C 9.1985357,19.849209 7.8937289,19.403864 7,18.8125 6.5682444,18.526815 6.2484704,18.208868 6.0625,17.96875 c 2.4518081,-0.317715 4.507643,-1.033807 7.15625,-2.25 z"
       transform="translate(0,-2)"
       id="path3928"
       inkscape:connector-curvature="0" />
  </g>
</svg>
