<?xml version="1.0" encoding="UTF-8" standalone="no"?>
<!-- Created with Inkscape (http://www.inkscape.org/) -->

<svg
   xmlns:dc="http://purl.org/dc/elements/1.1/"
   xmlns:cc="http://creativecommons.org/ns#"
   xmlns:rdf="http://www.w3.org/1999/02/22-rdf-syntax-ns#"
   xmlns:svg="http://www.w3.org/2000/svg"
   xmlns="http://www.w3.org/2000/svg"
   xmlns:xlink="http://www.w3.org/1999/xlink"
   xmlns:sodipodi="http://sodipodi.sourceforge.net/DTD/sodipodi-0.dtd"
   xmlns:inkscape="http://www.inkscape.org/namespaces/inkscape"
   width="24"
   height="24"
   id="svg2"
   sodipodi:version="0.32"
   inkscape:version="0.48.0 r9654"
   version="1.0"
   sodipodi:docname="vim.svg"
   inkscape:output_extension="org.inkscape.output.svg.inkscape"
   style="display:inline">
  <defs
     id="defs4">
    <linearGradient
       id="linearGradient3935">
      <stop
         id="stop3937"
         offset="0"
         style="stop-color:#d2d2d2;stop-opacity:1;" />
      <stop
         id="stop3939"
         offset="1"
         style="stop-color:#e2e1e2;stop-opacity:1;" />
    </linearGradient>
    <linearGradient
       inkscape:collect="always"
       id="linearGradient3661">
      <stop
         style="stop-color:#000000;stop-opacity:1;"
         offset="0"
         id="stop3663" />
      <stop
         style="stop-color:#000000;stop-opacity:0;"
         offset="1"
         id="stop3665" />
    </linearGradient>
    <linearGradient
       inkscape:collect="always"
       id="linearGradient3327">
      <stop
         style="stop-color:#000000;stop-opacity:1;"
         offset="0"
         id="stop3330" />
      <stop
         style="stop-color:#000000;stop-opacity:0;"
         offset="1"
         id="stop3333" />
    </linearGradient>
    <linearGradient
       inkscape:collect="always"
       xlink:href="#linearGradient3327"
       id="linearGradient3335"
       x1="11.375"
       y1="22"
       x2="11.375"
       y2="-9.817296"
       gradientUnits="userSpaceOnUse" />
    <linearGradient
       inkscape:collect="always"
       xlink:href="#linearGradient3844"
       id="linearGradient3181"
       x1="-3.0607977"
       y1="27.258198"
       x2="-3.0607977"
       y2="7.2536583"
       gradientUnits="userSpaceOnUse"
       gradientTransform="translate(12.119372,-7.2581977)" />
    <inkscape:perspective
       sodipodi:type="inkscape:persp3d"
       inkscape:vp_x="0 : 11 : 1"
       inkscape:vp_y="0 : 1000 : 0"
       inkscape:vp_z="22 : 11 : 1"
       inkscape:persp3d-origin="11 : 7.3333333 : 1"
       id="perspective2531" />
    <linearGradient
       id="ButtonShadow"
       gradientTransform="scale(0.9883037,1.0118347)"
       x1="9.3550024"
       y1="21.742682"
       x2="9.3550024"
       y2="0.49362123"
       gradientUnits="userSpaceOnUse">
      <stop
         id="stop3277"
         offset="0"
         style="stop-color:#000000;stop-opacity:0.70588237;" />
      <stop
         id="stop3279"
         offset="1"
         style="stop-color:#000000;stop-opacity:0.15686275;" />
    </linearGradient>
    <linearGradient
       inkscape:collect="always"
       id="linearGradient3232">
      <stop
         style="stop-color:#000000;stop-opacity:1;"
         offset="0"
         id="stop3234" />
      <stop
         style="stop-color:#000000;stop-opacity:0;"
         offset="1"
         id="stop3236" />
    </linearGradient>
    <linearGradient
       gradientUnits="userSpaceOnUse"
       y2="-6.0004225"
       x2="11"
       y1="14.805666"
       x1="11"
       id="linearGradient3221"
       xlink:href="#linearGradient3232"
       inkscape:collect="always" />
    <linearGradient
       id="ButtonColor"
       x1="10.31979"
       y1="21"
       x2="10.31979"
       y2="0.99929649"
       gradientUnits="userSpaceOnUse">
      <stop
         style="stop-color:#29669f;stop-opacity:1;"
         offset="0"
         id="stop3189" />
      <stop
         style="stop-color:#88b6e0;stop-opacity:1;"
         offset="1"
         id="stop3191" />
    </linearGradient>
    <linearGradient
       inkscape:collect="always"
       xlink:href="#ButtonShadow"
       id="linearGradient38042"
       gradientUnits="userSpaceOnUse"
       gradientTransform="scale(0.9883037,1.0118347)"
       x1="9.3550024"
       y1="21.742682"
       x2="9.3550024"
       y2="0.49362123" />
    <filter
       inkscape:collect="always"
       id="filter3194"
       x="-0.18000001"
       width="1.36"
       y="-0.18000001"
       height="1.36"
       color-interpolation-filters="sRGB">
      <feGaussianBlur
         inkscape:collect="always"
         stdDeviation="1.2"
         id="feGaussianBlur3196" />
    </filter>
    <clipPath
       clipPathUnits="userSpaceOnUse"
       id="clipPath2849">
      <rect
         ry="2"
         rx="2"
         y="1"
         x="1"
         height="20"
         width="20"
         id="rect2851"
         style="fill:#ffffff;fill-opacity:1;fill-rule:evenodd;stroke:none;display:inline" />
    </clipPath>
    <inkscape:perspective
       id="perspective4078"
       inkscape:persp3d-origin="0.5 : 0.33333333 : 1"
       inkscape:vp_z="1 : 0.5 : 1"
       inkscape:vp_y="0 : 1000 : 0"
       inkscape:vp_x="0 : 0.5 : 1"
       sodipodi:type="inkscape:persp3d" />
    <linearGradient
       y2="5.9877172"
       x2="48"
       y1="90"
       x1="48"
       gradientUnits="userSpaceOnUse"
       id="linearGradient2883"
       xlink:href="#linearGradient3844"
       inkscape:collect="always" />
    <linearGradient
       id="linearGradient3844">
      <stop
         id="stop3846"
         offset="0"
         style="stop-color:#0b700b;stop-opacity:1" />
      <stop
         id="stop3848"
         offset="1"
         style="stop-color:#28a528;stop-opacity:1" />
    </linearGradient>
    <linearGradient
       gradientTransform="translate(-64,-48)"
       y2="5.9877172"
       x2="48"
       y1="90"
       x1="48"
       gradientUnits="userSpaceOnUse"
       id="linearGradient4087"
       xlink:href="#linearGradient3844"
       inkscape:collect="always" />
    <linearGradient
       inkscape:collect="always"
       xlink:href="#linearGradient3661"
       id="linearGradient3667"
       x1="3"
       y1="12"
       x2="32"
       y2="12"
       gradientUnits="userSpaceOnUse"
       gradientTransform="matrix(0,-1,1,0,0,22)" />
    <linearGradient
       inkscape:collect="always"
       xlink:href="#linearGradient3661"
       id="linearGradient3671"
       gradientUnits="userSpaceOnUse"
       gradientTransform="matrix(0,-1,1,0,0,25)"
       x1="3"
       y1="12"
       x2="32"
       y2="12" />
    <linearGradient
       inkscape:collect="always"
       xlink:href="#linearGradient3661"
       id="linearGradient3675"
       gradientUnits="userSpaceOnUse"
       gradientTransform="matrix(0,-1,1,0,0,22)"
       x1="3"
       y1="12"
       x2="32"
       y2="12" />
    <linearGradient
       inkscape:collect="always"
       xlink:href="#linearGradient3661"
       id="linearGradient3682"
       gradientUnits="userSpaceOnUse"
       gradientTransform="matrix(0,-1,1,0,0,23)"
       x1="3"
       y1="12"
       x2="32"
       y2="12" />
    <linearGradient
       inkscape:collect="always"
       xlink:href="#linearGradient3661"
       id="linearGradient3684"
       gradientUnits="userSpaceOnUse"
       gradientTransform="matrix(0,-1,1,0,0,24)"
       x1="3"
       y1="12"
       x2="32"
       y2="12" />
    <inkscape:perspective
       id="perspective4097"
       inkscape:persp3d-origin="0.5 : 0.33333333 : 1"
       inkscape:vp_z="1 : 0.5 : 1"
       inkscape:vp_y="0 : 1000 : 0"
       inkscape:vp_x="0 : 0.5 : 1"
       sodipodi:type="inkscape:persp3d" />
    <linearGradient
       gradientTransform="matrix(0.42695903,0,0,0.42695903,-149.22084,-189.18833)"
       inkscape:collect="always"
       xlink:href="#linearGradient3909"
       id="linearGradient4031"
       x1="387.5567"
       y1="527.42371"
       x2="387.5567"
       y2="513.37085"
       gradientUnits="userSpaceOnUse" />
    <linearGradient
       id="linearGradient3909">
      <stop
         style="stop-color:#c6c3c6;stop-opacity:1;"
         offset="0"
         id="stop3911" />
      <stop
         style="stop-color:#e0dfe0;stop-opacity:1;"
         offset="1"
         id="stop3913" />
    </linearGradient>
    <linearGradient
       gradientTransform="translate(-39,-24)"
       inkscape:collect="always"
       xlink:href="#linearGradient3909"
       id="linearGradient3915"
       x1="48"
       y1="80"
       x2="48"
       y2="15.501938"
       gradientUnits="userSpaceOnUse" />
    <linearGradient
       id="linearGradient4106">
      <stop
         style="stop-color:#c6c3c6;stop-opacity:1;"
         offset="0"
         id="stop4108" />
      <stop
         style="stop-color:#e0dfe0;stop-opacity:1;"
         offset="1"
         id="stop4110" />
    </linearGradient>
    <linearGradient
       inkscape:collect="always"
       xlink:href="#linearGradient854"
       id="linearGradient3776"
       gradientUnits="userSpaceOnUse"
       gradientTransform="matrix(0.80571178,0,0,3.2149984,-427.10346,-858.60928)"
       x1="508.58997"
       y1="267.27991"
       x2="508.45602"
       y2="269.14072" />
    <linearGradient
       id="linearGradient854">
      <stop
         id="stop855"
         offset="0.0000000"
         style="stop-color:#000000;stop-opacity:1.0000000;" />
      <stop
         id="stop877"
         offset="0.87778628"
         style="stop-color:#f5f5f5;stop-opacity:1.0000000;" />
      <stop
         id="stop856"
         offset="1"
         style="stop-color:#fff;stop-opacity:1;" />
    </linearGradient>
    <linearGradient
       inkscape:collect="always"
       xlink:href="#linearGradient854"
       id="linearGradient3779"
       gradientUnits="userSpaceOnUse"
       gradientTransform="matrix(2.1044799,0,0,1.23088,-427.10346,-858.60928)"
       x1="195.59776"
       y1="696.40906"
       x2="193.063"
       y2="694.71436" />
    <linearGradient
       id="linearGradient4118">
      <stop
         id="stop4120"
         offset="0.0000000"
         style="stop-color:#000000;stop-opacity:1.0000000;" />
      <stop
         id="stop4122"
         offset="0.87778628"
         style="stop-color:#f5f5f5;stop-opacity:1.0000000;" />
      <stop
         id="stop4124"
         offset="1"
         style="stop-color:#fff;stop-opacity:1;" />
    </linearGradient>
    <linearGradient
       inkscape:collect="always"
       xlink:href="#linearGradient854"
       id="linearGradient3782"
       gradientUnits="userSpaceOnUse"
       gradientTransform="matrix(2.3159568,0,0,1.1184848,-427.10346,-858.60928)"
       x1="196.80382"
       y1="764.65295"
       x2="192.15778"
       y2="763.52991" />
    <linearGradient
       id="linearGradient4127">
      <stop
         id="stop4129"
         offset="0.0000000"
         style="stop-color:#000000;stop-opacity:1.0000000;" />
      <stop
         id="stop4131"
         offset="0.87778628"
         style="stop-color:#f5f5f5;stop-opacity:1.0000000;" />
      <stop
         id="stop4133"
         offset="1"
         style="stop-color:#fff;stop-opacity:1;" />
    </linearGradient>
    <linearGradient
       inkscape:collect="always"
       xlink:href="#linearGradient854"
       id="linearGradient3785"
       gradientUnits="userSpaceOnUse"
       gradientTransform="matrix(1.4043897,0,0,1.8444751,-583.59431,-821.79148)"
       x1="432.77563"
       y1="444.33771"
       x2="431.5174"
       y2="448.10916" />
    <linearGradient
       id="linearGradient4136">
      <stop
         id="stop4138"
         offset="0.0000000"
         style="stop-color:#000000;stop-opacity:1.0000000;" />
      <stop
         id="stop4140"
         offset="0.87778628"
         style="stop-color:#f5f5f5;stop-opacity:1.0000000;" />
      <stop
         id="stop4142"
         offset="1"
         style="stop-color:#fff;stop-opacity:1;" />
    </linearGradient>
    <linearGradient
       inkscape:collect="always"
       xlink:href="#linearGradient854"
       id="linearGradient3788"
       gradientUnits="userSpaceOnUse"
       gradientTransform="matrix(1.7367898,0,0,1.4914657,-427.10346,-858.60928)"
       x1="247.91669"
       y1="577.09601"
       x2="247.84926"
       y2="571.18286" />
    <linearGradient
       id="linearGradient4145">
      <stop
         id="stop4147"
         offset="0.0000000"
         style="stop-color:#000000;stop-opacity:1.0000000;" />
      <stop
         id="stop4149"
         offset="0.87778628"
         style="stop-color:#f5f5f5;stop-opacity:1.0000000;" />
      <stop
         id="stop4151"
         offset="1"
         style="stop-color:#fff;stop-opacity:1;" />
    </linearGradient>
    <linearGradient
       inkscape:collect="always"
       xlink:href="#linearGradient854"
       id="linearGradient3791"
       gradientUnits="userSpaceOnUse"
       gradientTransform="matrix(0.58266718,0,0,4.4456981,-427.10346,-858.60928)"
       x1="737.87024"
       y1="197.2177"
       x2="723.66583"
       y2="197.2661" />
    <linearGradient
       id="linearGradient4154">
      <stop
         id="stop4156"
         offset="0.0000000"
         style="stop-color:#000000;stop-opacity:1.0000000;" />
      <stop
         id="stop4158"
         offset="0.87778628"
         style="stop-color:#f5f5f5;stop-opacity:1.0000000;" />
      <stop
         id="stop4160"
         offset="1"
         style="stop-color:#fff;stop-opacity:1;" />
    </linearGradient>
    <linearGradient
       inkscape:collect="always"
       xlink:href="#linearGradient854"
       id="linearGradient3794"
       gradientUnits="userSpaceOnUse"
       gradientTransform="matrix(1.6002994,0,0,1.6186737,-427.10346,-858.60928)"
       x1="279.12204"
       y1="547.95782"
       x2="275.03989"
       y2="543.9057" />
    <linearGradient
       id="linearGradient4163">
      <stop
         id="stop4165"
         offset="0.0000000"
         style="stop-color:#000000;stop-opacity:1.0000000;" />
      <stop
         id="stop4167"
         offset="0.87778628"
         style="stop-color:#f5f5f5;stop-opacity:1.0000000;" />
      <stop
         id="stop4169"
         offset="1"
         style="stop-color:#fff;stop-opacity:1;" />
    </linearGradient>
    <linearGradient
       inkscape:collect="always"
       xlink:href="#linearGradient3909"
       id="linearGradient3812"
       x1="33.10498"
       y1="79.71875"
       x2="33.10498"
       y2="16.119293"
       gradientUnits="userSpaceOnUse" />
    <inkscape:perspective
       id="perspective3822"
       inkscape:persp3d-origin="0.5 : 0.33333333 : 1"
       inkscape:vp_z="1 : 0.5 : 1"
       inkscape:vp_y="0 : 1000 : 0"
       inkscape:vp_x="0 : 0.5 : 1"
       sodipodi:type="inkscape:persp3d" />
    <linearGradient
       inkscape:collect="always"
       xlink:href="#linearGradient3909-0"
       id="linearGradient3812-0"
       x1="33.10498"
       y1="79.71875"
       x2="33.10498"
       y2="16.119293"
       gradientUnits="userSpaceOnUse" />
    <linearGradient
       id="linearGradient3909-0">
      <stop
         style="stop-color:#bebebe;stop-opacity:1;"
         offset="0"
         id="stop3911-8" />
      <stop
         style="stop-color:#e5e5e5;stop-opacity:1;"
         offset="1"
         id="stop3913-5" />
    </linearGradient>
    <linearGradient
       gradientTransform="matrix(0.42198937,0,0,0.42695903,-149.6582,-207.02448)"
       inkscape:collect="always"
       xlink:href="#linearGradient3909-0"
       id="linearGradient4031-3"
       x1="387.5567"
       y1="527.42371"
       x2="387.5567"
       y2="513.37085"
       gradientUnits="userSpaceOnUse" />
    <linearGradient
       id="linearGradient3831">
      <stop
         style="stop-color:#c6c3c6;stop-opacity:1;"
         offset="0"
         id="stop3833" />
      <stop
         style="stop-color:#e0dfe0;stop-opacity:1;"
         offset="1"
         id="stop3835" />
    </linearGradient>
    <linearGradient
       y2="16.119293"
       x2="33.10498"
       y1="79.71875"
       x1="33.10498"
       gradientUnits="userSpaceOnUse"
       id="linearGradient3839"
       xlink:href="#linearGradient3909-0"
       inkscape:collect="always" />
    <linearGradient
       inkscape:collect="always"
       xlink:href="#linearGradient3909-0"
       id="linearGradient3874"
       gradientUnits="userSpaceOnUse"
       x1="33.10498"
       y1="79.71875"
       x2="33.10498"
       y2="16.119293" />
    <linearGradient
       inkscape:collect="always"
       xlink:href="#linearGradient3909-0"
       id="linearGradient3876"
       gradientUnits="userSpaceOnUse"
       x1="33.10498"
       y1="79.71875"
       x2="33.10498"
       y2="16.119293"
       gradientTransform="matrix(0.24940388,0,0,0.25234105,0.43820142,-0.116314)" />
    <linearGradient
       inkscape:collect="always"
       xlink:href="#linearGradient3909-0"
       id="linearGradient3883"
       gradientUnits="userSpaceOnUse"
       gradientTransform="matrix(0.42198937,0,0,0.42695903,-149.6582,-206.18833)"
       x1="387.5567"
       y1="527.42371"
       x2="387.5567"
       y2="513.37085" />
    <linearGradient
       inkscape:collect="always"
       xlink:href="#linearGradient3909-0"
       id="linearGradient3885"
       gradientUnits="userSpaceOnUse"
       gradientTransform="matrix(0.42198937,0,0,0.42695903,-149.6582,-205.18833)"
       x1="387.5567"
       y1="527.42371"
       x2="387.5567"
       y2="513.37085" />
    <linearGradient
       inkscape:collect="always"
       xlink:href="#linearGradient3909-0"
       id="linearGradient3896"
       gradientUnits="userSpaceOnUse"
       gradientTransform="matrix(0.42198937,0,0,0.42695903,-149.6582,-206.52448)"
       x1="387.5567"
       y1="527.42371"
       x2="387.5567"
       y2="513.37085" />
    <linearGradient
       inkscape:collect="always"
       xlink:href="#linearGradient3909-0"
       id="linearGradient3898"
       gradientUnits="userSpaceOnUse"
       gradientTransform="matrix(0.42198937,0,0,0.42695903,-149.6582,-205.02448)"
       x1="387.5567"
       y1="527.42371"
       x2="387.5567"
       y2="513.37085" />
    <linearGradient
       inkscape:collect="always"
       xlink:href="#linearGradient3935"
       id="linearGradient3933"
       gradientUnits="userSpaceOnUse"
       gradientTransform="matrix(0.42198937,0,0,0.42695903,-149.6582,-207.02448)"
       x1="387.5567"
       y1="527.42371"
       x2="387.5567"
       y2="513.37085" />
    <linearGradient
       y2="16"
       x2="10"
       y1="1"
       x1="10"
       gradientUnits="userSpaceOnUse"
       id="linearGradient3078"
       xlink:href="#linearGradient3823"
       inkscape:collect="always"
       gradientTransform="translate(1,-1)" />
    <linearGradient
       id="linearGradient3823">
      <stop
         id="stop3825"
         offset="0"
         style="stop-color:#ffffff;stop-opacity:1;" />
      <stop
         id="stop3829"
         offset="1"
         style="stop-color:#ffffff;stop-opacity:0;" />
    </linearGradient>
    <linearGradient
       inkscape:collect="always"
       xlink:href="#linearGradient3831-2"
       id="linearGradient3845"
       x1="11"
       y1="19.5"
       x2="21"
       y2="19.5"
       gradientUnits="userSpaceOnUse"
       spreadMethod="reflect"
       gradientTransform="translate(1,-1)" />
    <linearGradient
       id="linearGradient3831-2">
      <stop
         style="stop-color:#ffffff;stop-opacity:1;"
         offset="0"
         id="stop3833-8" />
      <stop
         id="stop3821"
         offset="0.75"
         style="stop-color:#ffffff;stop-opacity:0.49803922;" />
      <stop
         style="stop-color:#ffffff;stop-opacity:0;"
         offset="1"
         id="stop3835-8" />
    </linearGradient>
    <linearGradient
       y2="16"
       x2="10"
       y1="1"
       x1="10"
       gradientTransform="translate(1,-1)"
       gradientUnits="userSpaceOnUse"
       id="linearGradient4030"
       xlink:href="#linearGradient3823"
       inkscape:collect="always" />
  </defs>
  <sodipodi:namedview
     id="base"
     pagecolor="#ffffff"
     bordercolor="#e7e7e7"
     borderopacity="1"
     inkscape:pageopacity="0.0"
     inkscape:pageshadow="2"
     inkscape:zoom="18.146507"
     inkscape:cx="-7.5771229"
     inkscape:cy="6.2543172"
     inkscape:document-units="px"
     inkscape:current-layer="layer1"
     showgrid="true"
     inkscape:showpageshadow="false"
     showguides="false"
     inkscape:guide-bbox="true"
     inkscape:window-width="1920"
     inkscape:window-height="1026"
     inkscape:window-x="0"
     inkscape:window-y="25"
     inkscape:window-maximized="1">
    <sodipodi:guide
       orientation="1,0"
       position="0,112"
       id="guide2383" />
    <sodipodi:guide
       orientation="0,1"
       position="26.278146,128"
       id="guide2385" />
    <sodipodi:guide
       orientation="1,0"
       position="128,54.082119"
       id="guide2387" />
    <sodipodi:guide
       orientation="0,1"
       position="78.156291,0"
       id="guide2389" />
    <sodipodi:guide
       orientation="0,1"
       position="60.863576,64.084768"
       id="guide2391" />
    <inkscape:grid
       type="xygrid"
       id="grid3672"
       visible="true"
       enabled="true"
       empspacing="8"
       snapvisiblegridlinesonly="true" />
  </sodipodi:namedview>
  <metadata
     id="metadata7">
    <rdf:RDF>
      <cc:Work
         rdf:about="">
        <dc:format>image/svg+xml</dc:format>
        <dc:type
           rdf:resource="http://purl.org/dc/dcmitype/StillImage" />
        <dc:title />
      </cc:Work>
    </rdf:RDF>
  </metadata>
  <g
     inkscape:label="Button"
     inkscape:groupmode="layer"
     id="layer1"
     transform="translate(0,2)">
    <g
       style="display:inline"
       id="g3337"
       transform="translate(1,-1)">
      <rect
         ry="2.5"
         rx="2.5"
         y="0.5"
         x="0.5"
         height="21.5"
         width="21"
         id="rect3371"
         style="opacity:0.3;fill:url(#linearGradient3335);fill-opacity:1;stroke:none;display:inline" />
      <rect
         style="opacity:0.5;fill:#000000;fill-opacity:1;stroke:none;display:inline"
         id="rect2553"
         width="20"
         height="20"
         x="1"
         y="2"
         rx="2.3809524"
         ry="2.3255813" />
    </g>
    <rect
       style="fill:url(#linearGradient3181);fill-opacity:1;fill-rule:evenodd;stroke:none;display:inline"
       id="rect3173"
       width="20"
       height="20"
       x="2"
       y="0"
       rx="2"
       ry="2" />
    <path
       style="opacity:0.4;fill:url(#linearGradient3667);fill-opacity:1;stroke:none"
       d="m 3,10 9,9 9,-9 -9,-9 -9,9 z"
       id="path3659" />
    <path
       style="opacity:0.2;fill:#ffffff;fill-opacity:1;stroke:none"
       d="M 3.5,12.5 3,13 12,22 21,13 20.5,12.5 12,21 3.5,12.5 z"
       transform="translate(0,-2)"
       id="path3669" />
    <path
       style="opacity:0.2;fill:#000000;fill-opacity:1;stroke:none"
       d="M 12,3 3,12 3.5,12.5 12,4 20.5,12.5 21,12 12,3 z"
       transform="translate(0,-2)"
       id="path3678" />
    <path
       style="opacity:0.35;fill:url(#linearGradient4030);fill-opacity:1;fill-rule:evenodd;stroke:none;display:inline"
       d="M 4,0 C 2.892,0 2,0.892 2,2 l 0,16 c 0,1.108 0.892,2 2,2 l 16,0 c 1.108,0 2,-0.892 2,-2 L 22,2 C 22,0.892 21.108,0 20,0 L 4,0 z m 0,1.03125 16,0 c 0.5497,0 0.96875,0.4190495 0.96875,0.96875 l 0,16 c 0,0.5497 -0.41905,0.96875 -0.96875,0.96875 l -16,0 C 3.4502995,18.96875 3.03125,18.5497 3.03125,18 l 0,-16 C 3.03125,1.4502995 3.4502995,1.03125 4,1.03125 z"
       id="rect3050"
       inkscape:connector-curvature="0" />
    <path
       id="path3235"
       d="M 4,20 C 2.892,20 2,19.108 2,18 l 0,-1 c 0,1.108 0.892,2 2,2 l 16,0 c 1.108,0 2,-0.892 2,-2 l 0,1 c 0,1.108 -0.892,2 -2,2 L 4,20 z"
       style="opacity:0.2;fill:url(#linearGradient3845);fill-opacity:1;fill-rule:evenodd;stroke:none;display:inline"
       inkscape:connector-curvature="0" />
  </g>
  <g
     inkscape:groupmode="layer"
     id="layer2"
     inkscape:label="Highlight"
     transform="translate(0,2)"
     sodipodi:insensitive="true">
    <rect
       style="opacity:0.1;fill:#ffffff;fill-opacity:1;fill-rule:nonzero;stroke:none;display:inline;filter:url(#filter3194)"
       id="rect2410"
       width="16"
       height="16"
       x="3"
       y="3"
       rx="2"
       ry="2"
       clip-path="url(#clipPath2849)"
       transform="translate(1,-1)" />
  </g>
  <g
     inkscape:groupmode="layer"
     id="layer3"
     inkscape:label="Symbol"
     transform="translate(0,2)"
     sodipodi:insensitive="true">
    <path
       sodipodi:type="inkscape:offset"
       inkscape:radius="2.1389854"
       inkscape:original="M 57.59375 14.375 C 56.194497 14.391835 54.824321 14.843047 53.84375 15.84375 C 52.858527 16.8492 52.392187 18.293271 52.40625 19.75 L 52.4375 22 L 52.4375 22.03125 A 1.9446287 1.9446287 0 0 0 52.40625 22.46875 C 52.526733 24.199817 53.63037 25.701621 54.875 26.375 C 55.108366 26.501257 55.355185 26.530358 55.59375 26.625 L 41.3125 40.78125 L 41.3125 26.625 C 41.935255 26.435023 42.515956 26.127287 43 25.6875 C 43.878771 24.889076 44.440685 23.639229 44.5 22.25 A 1.9446287 1.9446287 0 0 0 44.46875 21.84375 A 1.9446287 1.9446287 0 0 0 44.46875 21.8125 L 44.4375 19.84375 A 1.9446287 1.9446287 0 0 0 44.4375 19.8125 A 1.9446287 1.9446287 0 0 0 44.46875 19.40625 C 44.397616 17.868813 43.850393 16.427696 42.78125 15.59375 C 41.669717 14.72674 40.380162 14.545922 38.875 14.5 A 1.9446287 1.9446287 0 0 0 38.5 14.53125 L 18.21875 14.65625 A 1.9446287 1.9446287 0 0 0 17.71875 14.625 C 16.440373 14.733925 15.21314 15.036099 14.1875 15.875 C 13.182105 16.697341 12.548554 18.03629 12.375 19.5625 A 1.9446287 1.9446287 0 0 0 12.40625 20.125 A 1.9446287 1.9446287 0 0 0 12.40625 20.15625 L 12.375 21.21875 A 1.9446287 1.9446287 0 0 0 12.375 21.25 A 1.9446287 1.9446287 0 0 0 12.34375 21.6875 C 12.417149 23.160261 12.720332 24.540435 13.65625 25.625 C 14.487255 26.58799 15.776749 27.040439 17.1875 27.1875 L 17.25 76.34375 A 1.9446287 1.9446287 0 0 0 17.21875 76.9375 C 17.373111 78.182112 17.887872 79.378761 18.78125 80.25 C 19.704929 81.150788 21.02624 81.602821 22.4375 81.625 A 1.9446287 1.9446287 0 0 0 22.46875 81.625 L 27 81.625 A 1.9446287 1.9446287 0 0 0 27.5 81.65625 C 29.282814 81.500854 30.362429 80.431678 31.21875 79.5625 A 1.9446287 1.9446287 0 0 0 31.25 79.53125 L 82.4375 26.78125 C 82.446788 26.771764 82.459441 26.75951 82.46875 26.75 C 82.920327 26.288654 83.420166 25.79041 83.8125 25.09375 C 84.068697 24.638827 84.099422 24.017373 84.1875 23.4375 C 84.189084 23.427071 84.185981 23.4167 84.1875 23.40625 A 1.9446287 1.9446287 0 0 0 84.34375 22.65625 A 1.9446287 1.9446287 0 0 0 84.34375 22.59375 C 84.342441 22.559178 84.377107 22.534576 84.375 22.5 L 84.34375 22.5 L 84.34375 19.5625 C 84.352399 18.017109 84.361861 16.751672 83.3125 15.59375 C 82.287446 14.46265 80.915684 14.379695 79.40625 14.375 L 57.625 14.375 A 1.9446287 1.9446287 0 0 0 57.59375 14.375 z M 39.375 22.96875 C 39.78165 22.920182 39.060496 23.001171 39.46875 22.96875 C 39.877004 22.936329 39.153282 22.984973 39.5625 22.96875 C 39.971718 22.952527 39.21546 22.96875 39.625 22.96875 C 40.03454 22.96875 39.309532 22.952527 39.71875 22.96875 C 40.127968 22.984973 39.404246 22.936329 39.8125 22.96875 C 40.220754 23.001171 39.4996 22.920182 39.90625 22.96875 C 40.3129 23.017318 39.595593 22.935362 40 23 L 39.9375 23.34375 A 1.9446287 1.9446287 0 0 0 39.3125 23.25 L 39.28125 23 C 39.685657 22.935362 38.96835 23.017318 39.375 22.96875 z M 38.9375 23.0625 L 39.03125 23.28125 A 1.9446287 1.9446287 0 0 0 37.875 23.90625 C 38.106525 23.579581 37.687968 24.094379 37.9375 23.78125 C 38.187032 23.468121 37.764501 23.986098 38.03125 23.6875 C 38.297999 23.388902 37.810628 23.876872 38.09375 23.59375 C 38.376872 23.310628 37.888902 23.797999 38.1875 23.53125 C 38.486098 23.264501 37.968121 23.687032 38.28125 23.4375 C 38.594379 23.187968 38.079581 23.606525 38.40625 23.375 C 38.624029 23.22065 38.510259 23.281792 38.46875 23.3125 A 1.9446287 1.9446287 0 0 1 38.5 23.28125 C 38.449337 23.314077 38.389874 23.368334 38.53125 23.28125 C 38.88469 23.06354 38.202797 23.457198 38.5625 23.25 C 38.922203 23.042802 38.259347 23.415256 38.625 23.21875 C 38.990653 23.022244 38.316214 23.373143 38.6875 23.1875 C 39.058786 23.001857 38.373403 23.330869 38.75 23.15625 C 39.126597 22.981631 38.43092 23.288443 38.8125 23.125 C 39.19408 22.961557 38.488768 23.245876 38.875 23.09375 C 39.261232 22.941624 38.546952 23.203176 38.9375 23.0625 z M 18.65625 23.4375 C 19.049179 23.408294 18.418494 23.439981 18.8125 23.4375 C 19.206506 23.435019 18.575484 23.413244 18.96875 23.4375 C 19.362016 23.461756 18.734286 23.386618 19.125 23.4375 C 19.515714 23.488382 18.894888 23.391478 19.28125 23.46875 C 19.667612 23.546022 19.057271 23.396693 19.4375 23.5 C 19.817729 23.603307 19.190156 23.433634 19.5625 23.5625 C 19.934844 23.691366 19.356007 23.43992 19.71875 23.59375 C 20.081493 23.74758 19.492279 23.478164 19.84375 23.65625 L 19.75 23.8125 A 1.9446287 1.9446287 0 0 0 18.6875 23.78125 L 18.65625 23.4375 z M 59.4375 23.46875 C 59.590207 23.508 59.53978 23.476126 59.6875 23.53125 C 59.756266 23.556911 59.763601 23.586676 59.78125 23.59375 C 59.801513 23.601872 59.830841 23.58738 59.90625 23.625 C 60.047338 23.695385 59.960865 23.665139 60.09375 23.75 C 60.226635 23.834861 60.158048 23.776607 60.28125 23.875 C 60.404452 23.973393 60.356603 23.920421 60.46875 24.03125 C 60.580897 24.142079 60.525157 24.09672 60.625 24.21875 C 60.724843 24.34078 60.694823 24.274378 60.78125 24.40625 C 60.867677 24.538122 60.802952 24.484754 60.875 24.625 C 60.947048 24.765246 60.943133 24.696692 61 24.84375 C 61.056867 24.990808 61.021447 24.910268 61.0625 25.0625 C 61.103553 25.214732 61.068969 25.125539 61.09375 25.28125 C 61.118531 25.436961 61.116766 25.373795 61.125 25.53125 C 61.133234 25.688705 61.133405 25.592554 61.125 25.75 C 61.116595 25.907446 61.118701 25.844317 61.09375 26 C 61.090201 26.014401 61.106133 25.956916 61.09375 26.03125 C 61.054125 26.269119 61.05335 26.179089 61.0625 26.125 A 1.9446287 1.9446287 0 0 0 60.75 24.78125 A 1.9446287 1.9446287 0 0 0 60.75 24.75 A 1.9446287 1.9446287 0 0 0 59.78125 23.59375 A 1.9446287 1.9446287 0 0 0 59.4375 23.46875 z M 19.875 23.6875 C 20.033578 23.772662 19.847281 23.68598 20 23.78125 C 20.152719 23.87652 19.978783 23.738773 20.125 23.84375 C 20.271217 23.948727 20.110902 23.823258 20.25 23.9375 C 20.389098 24.051742 20.243606 23.908225 20.375 24.03125 C 20.506394 24.154275 20.345614 23.99371 20.46875 24.125 C 20.591886 24.25629 20.448141 24.110998 20.5625 24.25 C 20.676859 24.389002 20.551149 24.197622 20.65625 24.34375 C 20.761351 24.489878 20.623351 24.316111 20.71875 24.46875 C 20.814149 24.621389 20.727204 24.435244 20.8125 24.59375 C 20.897796 24.752256 20.800167 24.586294 20.875 24.75 A 1.9446287 1.9446287 0 0 0 19.78125 23.84375 L 19.875 23.6875 z M 37.78125 24 C 37.816714 23.943471 37.804129 24.014799 37.8125 24 A 1.9446287 1.9446287 0 0 0 37.65625 24.25 C 37.827515 23.897544 37.522638 24.433009 37.71875 24.09375 C 37.859951 23.849483 37.784051 23.987143 37.78125 24 z M 37.4375 44.46875 L 39.375 44.6875 L 39.6875 44.6875 L 39.90625 44.90625 L 41.375 46.1875 C 41.100233 46.506573 41.624409 45.904848 41.34375 46.21875 C 41.063091 46.532652 41.598954 45.941377 41.3125 46.25 C 41.026046 46.558623 41.5734 45.978014 41.28125 46.28125 C 40.9891 46.584486 41.578995 46.014755 41.28125 46.3125 C 40.983505 46.610245 41.553236 46.02035 41.25 46.3125 C 40.946764 46.60465 41.527373 46.057296 41.21875 46.34375 C 40.910127 46.630204 41.501402 46.094341 41.1875 46.375 C 40.873598 46.655659 41.475323 46.131483 41.15625 46.40625 C 41.13459 46.426703 41.111642 46.438175 41.03125 46.5 C 40.905509 46.596701 40.978838 46.541853 40.84375 46.625 C 40.708662 46.708147 40.799228 46.681304 40.65625 46.75 C 40.513272 46.818696 40.586829 46.790244 40.4375 46.84375 C 40.288171 46.897256 40.372821 46.868511 40.21875 46.90625 C 40.064679 46.943989 40.125903 46.915934 39.96875 46.9375 C 39.811597 46.959066 39.908541 46.96359 39.75 46.96875 C 39.591459 46.97391 39.658222 46.980052 39.5 46.96875 C 39.341778 46.957448 39.437449 46.965141 39.28125 46.9375 C 39.125051 46.909859 39.214992 46.918683 39.0625 46.875 C 38.910008 46.831317 38.990893 46.871754 38.84375 46.8125 C 38.696607 46.753246 38.765208 46.792937 38.625 46.71875 C 38.484792 46.644563 38.569263 46.682071 38.4375 46.59375 C 38.305737 46.505429 38.371898 46.539003 38.25 46.4375 C 38.128102 46.335997 38.17322 46.394841 38.0625 46.28125 C 37.95178 46.167659 38.0046 46.249456 37.90625 46.125 C 37.788889 45.977276 37.953714 46.18456 37.84375 46.03125 C 37.733786 45.87794 37.883552 46.096025 37.78125 45.9375 C 37.678948 45.778975 37.813143 46.007108 37.71875 45.84375 C 37.624357 45.680392 37.773756 45.917797 37.6875 45.75 C 37.601244 45.582203 37.702911 45.828081 37.625 45.65625 C 37.547089 45.484419 37.663129 45.7067 37.59375 45.53125 C 37.524371 45.3558 37.623178 45.616145 37.5625 45.4375 C 37.501822 45.258855 37.551831 45.52516 37.5 45.34375 C 37.448169 45.16234 37.542859 45.402486 37.5 45.21875 C 37.457141 45.035014 37.502534 45.31062 37.46875 45.125 C 37.434966 44.93938 37.462127 45.187055 37.4375 45 C 37.412873 44.812945 37.452911 45.094289 37.4375 44.90625 C 37.422089 44.718211 37.443657 44.969818 37.4375 44.78125 C 37.431343 44.592682 37.434389 44.876143 37.4375 44.6875 C 37.440611 44.498857 37.425128 44.750763 37.4375 44.5625 C 37.449872 44.374237 37.415897 44.656178 37.4375 44.46875 z "
       style="opacity:0.05;fill:#000000;fill-opacity:1;fill-rule:evenodd;stroke:none;display:inline"
       id="path3931"
       d="m 57.5625,12.25 c -1.842191,0.02216 -3.797244,0.611168 -5.25,2.09375 -1.46563,1.49572 -2.049851,3.51069 -2.03125,5.4375 L 50.3125,21.875 c -0.01391,0.108097 -0.03149,0.222162 -0.03125,0.21875 5.22e-4,-0.0073 3.05e-4,0.476065 0,0.46875 a 2.1391993,2.1391993 0 0 0 0,0.0625 c 0.121776,1.749651 0.957397,3.103843 2.03125,4.21875 l -8.875,8.8125 0,-7.8125 c 0.333178,-0.202466 0.699758,-0.28971 1,-0.5625 1.365173,-1.240354 2.105958,-3.027688 2.1875,-4.9375 a 2.1391993,2.1391993 0 0 0 0,-0.03125 c -1.92e-4,0.0068 -5.22e-4,-0.44428 0,-0.4375 1.24e-4,0.0016 -0.02646,-0.05721 -0.03125,-0.09375 l 0,-0.125 -0.03125,-1.6875 0,-0.09375 c 0.0048,-0.03654 0.03137,-0.09536 0.03125,-0.09375 -5.22e-4,0.0068 -1.92e-4,-0.444297 0,-0.4375 a 2.1391993,2.1391993 0 0 0 0,-0.03125 c -0.09169,-1.981721 -0.767668,-4.055008 -2.5,-5.40625 C 42.463326,12.634498 40.576508,12.425006 38.9375,12.375 a 2.1391993,2.1391993 0 0 0 -0.03125,0 c 0.0063,8.6e-5 -0.412506,5.21e-4 -0.40625,0 0.0031,-2.61e-4 -0.08791,0.01807 -0.1875,0.03125 l -19.96875,0.125 c -0.06142,-0.0078 -0.0807,0.0057 -0.125,0 -0.0456,-0.0059 -0.126995,-0.03138 -0.125,-0.03125 0.0084,5.22e-4 -0.5396,5.58e-4 -0.53125,0 a 2.1391993,2.1391993 0 0 0 -0.03125,0 c -1.496422,0.127504 -3.209449,0.509809 -4.6875,1.71875 -1.545283,1.26393 -2.370036,3.126436 -2.59375,5.09375 a 2.1391993,2.1391993 0 0 0 0,0.0625 c 8.45e-4,-0.0094 5.22e-4,0.603153 0,0.59375 -1.93e-4,-0.0035 0.01794,0.115974 0.03125,0.21875 0.0019,0.01447 -0.002,0.01609 0,0.03125 L 10.25,21.0625 l 0,0.09375 a 2.1391993,2.1391993 0 0 0 0,0.03125 c -0.0064,0.04927 -0.03139,0.126977 -0.03125,0.125 5.22e-4,-0.0073 3.05e-4,0.476065 0,0.46875 0.08467,1.698873 0.439461,3.658888 1.8125,5.25 0.84594,0.980297 1.923078,1.468039 3.03125,1.8125 L 15.125,76.0625 c -0.01328,0.07845 -0.03157,0.158715 -0.03125,0.15625 6.41e-4,-0.0049 -0.03151,0.317465 -0.03125,0.3125 2.61e-4,-0.005 1.2e-4,0.31747 0,0.3125 -1.2e-4,-0.005 0.03175,0.317446 0.03125,0.3125 a 2.1391993,2.1391993 0 0 0 0,0.03125 c 0.20524,1.654847 0.887266,3.325737 2.1875,4.59375 1.397567,1.362932 3.278132,1.939725 5.125,1.96875 -6.94e-4,-6e-6 0.04283,-2e-6 0.0625,0 0.0098,10e-7 0.0316,-3e-6 0.03125,0 l 4.375,0 0.125,0 c 0.0456,0.0059 0.126995,0.03137 0.125,0.03125 -0.0084,-5.22e-4 0.5396,-5.58e-4 0.53125,0 a 2.1391993,2.1391993 0 0 0 0.03125,0 c 2.531467,-0.220651 4.154002,-1.797945 5.03125,-2.6875 0.0078,-0.0079 0.02358,-0.02347 0.03125,-0.03125 0.01667,-0.01667 0.03177,-0.03178 0.03125,-0.03125 l 51.1875,-52.75 c -0.02587,0.02642 -0.01331,0.01427 0.03125,-0.03125 0.438166,-0.447645 1.127977,-1.100216 1.6875,-2.09375 0.588765,-1.045457 0.545597,-1.800181 0.59375,-2.25 6.26e-4,-0.0058 -6.51e-4,-0.02552 0,-0.03125 -5.83e-4,0.0019 0.01811,-0.07445 0.03125,-0.125 0.09547,-0.62858 0.08711,-0.630518 0,-0.03125 0.03029,-0.116428 0.09457,-0.253943 0.09375,-0.25 -0.0013,0.0063 0.06318,-0.412636 0.0625,-0.40625 -6.29e-4,0.0059 -0.0031,-0.325444 0,-0.375 2.55e-4,-0.0041 4e-6,-0.03174 0,-0.03125 -1.3e-5,-0.03711 -2.5e-5,-0.09531 0,-0.09375 a 2.1391993,2.1391993 0 0 0 0,-0.0625 c 0.0022,-0.07125 0.03601,-0.04683 0.03125,-0.125 a 2.1391993,2.1391993 0 0 0 -0.03125,-0.3125 l 0,-2.5 c 0.0086,-1.543195 0.01188,-3.668997 -1.5625,-5.40625 -1.627748,-1.796145 -3.916229,-1.901324 -5.5,-1.90625 l -21.75,0 c 3.47e-4,3e-6 -0.02141,-10e-7 -0.03125,0 -0.01967,2e-6 -0.06319,6e-6 -0.0625,0 z M 41.375,23.78125 c 0.04731,0.02355 0.21875,0.125 0.21875,0.125 0,0 -0.21875,0.375 -0.21875,0.375 0,0 -0.05122,-0.238513 -0.0625,-0.28125 0.0078,-0.02184 0.02748,-0.120965 0.0625,-0.21875 z m 19.4375,0.28125 c -8.3e-5,10e-6 0.430081,0.09618 0.78125,0.15625 l -0.84375,0.5625 1.96875,0.03125 c -1.02e-4,-1.22e-4 0.28134,0.437687 0.28125,0.4375 -9e-5,-1.87e-4 0.09383,0.281498 0.09375,0.28125 -1.58e-4,-4.97e-4 0.05106,0.240407 0.0625,0.3125 0.01144,0.07209 0.02797,0.114758 0.03125,0.15625 0.01312,0.165968 0.0022,0.235186 0,0.28125 0.0098,-0.110505 0.03142,-0.253925 0.03125,-0.25 -2.55e-4,0.0059 -2.77e-4,-0.349617 0,-0.34375 2.77e-4,0.0059 -0.03206,-0.380817 -0.03125,-0.375 8.07e-4,0.0058 -0.06383,-0.38072 -0.0625,-0.375 0.0013,0.0057 -0.126843,-0.349327 -0.125,-0.34375 0.0018,0.0056 -0.12734,-0.349137 -0.125,-0.34375 0.0023,0.0054 -0.159068,-0.348903 -0.15625,-0.34375 z m 2.375,2.21875 c -0.0044,0.09213 -0.01643,0.09991 -0.03125,0.1875 a 2.1391993,2.1391993 0 0 0 0.03125,-0.0625 c -2.6e-4,0.0019 -0.0048,-0.07032 0,-0.125 z M 22.4375,24.125 c -4.16e-4,0.05925 -3e-6,0.156271 0,0.15625 4e-6,-2.5e-5 -0.02427,0.169853 -0.0625,0.3125 0.0261,-0.131779 0.06249,-0.468638 0.0625,-0.46875 z M 59,25.625 c 0,0 -0.03125,0.03125 -0.03125,0.03125 -0.0023,0.01429 0.0019,0.01918 0,0.03125 -0.0061,0.03678 0.01937,0.05217 0.03125,0 9.63e-4,-0.0042 -0.0011,-0.02626 0,-0.03125 0.0023,-0.01441 -0.0022,-0.0176 0,-0.03125 z m -39.9375,0.1875 c 0.0019,0.0033 0.02904,-0.0036 0.03125,0 0.0165,0.02652 0.02042,0.07645 0.0625,0.125 -0.05418,-0.06155 -0.06789,-0.08998 -0.09375,-0.125 z M 21.75,26.375 c -0.229348,0.08422 -0.718841,0.281262 -0.71875,0.28125 3.5e-5,-5e-6 -0.141833,-0.02427 -0.25,-0.03125 0.140848,-0.03742 0.753488,-0.192636 0.96875,-0.25 z M 20.03125,26.5 c 0.160282,0.03964 0.308509,0.08543 0.46875,0.125 -0.129052,-0.0083 -0.281298,-0.03126 -0.28125,-0.03125 5.3e-5,1.4e-5 -0.09533,-0.05623 -0.1875,-0.09375 z M 63,26.96875 C 63,26.96875 61.09375,26 61.09375,26 l -2.0625,-0.5 z m -25.75,15.4375 c 0,0 0.08503,0.05753 0.09375,0.0625 -0.124494,0.0047 -0.149129,-0.0038 -0.25,0 0.04095,-0.0145 0.15625,-0.0625 0.15625,-0.0625 z M 43.5,45.625 c 0,0 0.0625,0.5 0.0625,0.5 0,0 -0.03041,-0.03077 -0.03125,-0.03125 0.0046,0.08772 0,0.1875 0,0.1875 0,0 -0.03042,-0.03074 -0.03125,-0.03125 -0.0016,0.108304 0,0.21875 0,0.21875 0,0 -0.06045,-0.02991 -0.0625,-0.03125 -5e-4,-3.26e-4 6.19e-4,-0.03085 0,-0.03125 0.0044,-0.07461 0.02724,-0.08789 0.03125,-0.15625 -0.0022,-0.0013 -0.05825,-0.02866 -0.0625,-0.03125 -0.0054,-0.08955 0.0052,-0.100553 0,-0.1875 -0.0022,-0.0013 -0.02874,0.0014 -0.03125,0 5.02e-4,-0.01157 -1.8e-4,-0.05835 0,-0.0625 0.0034,-3.51e-4 0.02866,2.67e-4 0.03125,0 -0.004,-0.06684 -0.02904,-0.119321 -0.03125,-0.15625 0.0035,-5.96e-4 0.02858,4.6e-4 0.03125,0 -0.0079,-0.0291 -0.02263,-0.0307 -0.03125,-0.0625 -0.0076,-0.02815 0.0079,-0.03344 0,-0.0625 0,0 -0.03038,-0.03092 -0.03125,-0.03125 C 43.36543,45.651152 43.5,45.625 43.5,45.625 z"
       transform="matrix(0.24940388,0,0,0.25234105,0.43820142,-1.6163131)" />
    <path
       sodipodi:type="inkscape:offset"
       inkscape:radius="1.9444343"
       inkscape:original="M 57.625 16.3125 C 56.610335 16.324708 55.790093 16.635677 55.21875 17.21875 C 54.647407 17.801823 54.333474 18.654294 54.34375 19.71875 L 54.375 22.34375 L 54.34375 22.34375 C 54.425298 23.515413 54.982757 24.207336 55.8125 24.65625 C 56.650009 25.109366 57.786027 25.304757 58.90625 25.34375 A 0.29699398 0.29699398 0 0 1 59.1875 25.6875 A 0.29699398 0.29699398 0 0 1 59.125 25.84375 L 39.90625 44.90625 A 0.29699398 0.29699398 0 0 1 39.875 44.9375 A 0.29699398 0.29699398 0 0 1 39.4375 44.90625 A 0.29699398 0.29699398 0 0 1 39.375 44.6875 L 39.375 25.1875 A 0.29699398 0.29699398 0 0 1 39.4375 25.03125 A 0.29699398 0.29699398 0 0 1 39.53125 24.9375 A 0.29699398 0.29699398 0 0 1 39.59375 24.90625 A 0.29699398 0.29699398 0 0 1 39.6875 24.90625 C 40.508719 24.934631 41.195437 24.697073 41.6875 24.25 C 42.179563 23.802927 42.520892 23.130752 42.5625 22.15625 L 42.53125 22.15625 L 42.5 19.5 L 42.53125 19.5 C 42.473876 18.259968 42.156252 17.563759 41.59375 17.125 C 41.031248 16.686241 40.141289 16.478041 38.8125 16.4375 L 38.8125 16.46875 L 17.875 16.59375 L 17.875 16.5625 C 16.816534 16.652687 15.980307 16.905462 15.40625 17.375 C 14.831702 17.844939 14.450401 18.568567 14.3125 19.78125 L 14.34375 19.78125 L 14.3125 21.59375 L 14.28125 21.59375 C 14.343297 22.838726 14.608031 23.744673 15.125 24.34375 C 15.641969 24.942827 16.435524 25.285137 17.71875 25.34375 L 18.8125 25.375 A 0.29699398 0.29699398 0 0 1 18.96875 25.40625 A 0.29699398 0.29699398 0 0 1 19.125 25.65625 L 19.1875 76.6875 L 19.15625 76.6875 C 19.269955 77.604303 19.597031 78.328865 20.125 78.84375 C 20.659177 79.364689 21.421852 79.671047 22.46875 79.6875 L 27.34375 79.6875 L 27.34375 79.71875 C 28.2323 79.641301 29.096471 78.945999 29.84375 78.1875 L 81.0625 25.40625 C 81.933213 24.517005 82.510964 23.830797 82.4375 22.625 A 0.29699398 0.29699398 0 0 1 82.40625 22.59375 L 82.40625 19.5625 C 82.414114 18.157373 82.26665 17.338418 81.875 16.90625 C 81.48335 16.474082 80.768025 16.316736 79.40625 16.3125 L 57.625 16.3125 z "
       style="opacity:0.15;fill:#000000;fill-opacity:1;fill-rule:evenodd;stroke:none;display:inline"
       id="path3927"
       d="m 57.59375,14.375 c -1.399253,0.01684 -2.769429,0.468047 -3.75,1.46875 -0.985223,1.00545 -1.451563,2.449521 -1.4375,3.90625 l 0.03125,2.25 0,0.03125 a 1.9446287,1.9446287 0 0 0 -0.03125,0.4375 c 0.120483,1.731067 1.22412,3.232871 2.46875,3.90625 0.233366,0.126257 0.480185,0.155358 0.71875,0.25 l -14.28125,14.15625 0,-14.15625 C 41.935255,26.435023 42.515956,26.127287 43,25.6875 43.878771,24.889076 44.440685,23.639229 44.5,22.25 a 1.9446287,1.9446287 0 0 0 -0.03125,-0.40625 1.9446287,1.9446287 0 0 0 0,-0.03125 L 44.4375,19.84375 a 1.9446287,1.9446287 0 0 0 0,-0.03125 1.9446287,1.9446287 0 0 0 0.03125,-0.40625 c -0.07113,-1.537437 -0.618357,-2.978554 -1.6875,-3.8125 C 41.669717,14.72674 40.380162,14.545922 38.875,14.5 A 1.9446287,1.9446287 0 0 0 38.5,14.53125 l -20.28125,0.125 a 1.9446287,1.9446287 0 0 0 -0.5,-0.03125 c -1.278377,0.108925 -2.50561,0.411099 -3.53125,1.25 -1.005395,0.822341 -1.638946,2.16129 -1.8125,3.6875 a 1.9446287,1.9446287 0 0 0 0.03125,0.5625 1.9446287,1.9446287 0 0 0 0,0.03125 l -0.03125,1.0625 a 1.9446287,1.9446287 0 0 0 0,0.03125 1.9446287,1.9446287 0 0 0 -0.03125,0.4375 c 0.0734,1.472761 0.376582,2.852935 1.3125,3.9375 0.831005,0.96299 2.120499,1.415439 3.53125,1.5625 L 17.25,76.34375 a 1.9446287,1.9446287 0 0 0 -0.03125,0.59375 c 0.154361,1.244612 0.669122,2.441261 1.5625,3.3125 0.923679,0.900788 2.24499,1.352821 3.65625,1.375 a 1.9446287,1.9446287 0 0 0 0.03125,0 l 4.53125,0 a 1.9446287,1.9446287 0 0 0 0.5,0.03125 c 1.782814,-0.155396 2.862429,-1.224572 3.71875,-2.09375 A 1.9446287,1.9446287 0 0 0 31.25,79.53125 l 51.1875,-52.75 c 0.0093,-0.0095 0.02194,-0.02174 0.03125,-0.03125 0.451577,-0.461346 0.951416,-0.95959 1.34375,-1.65625 0.256197,-0.454923 0.286922,-1.076377 0.375,-1.65625 0.0016,-0.01043 -0.0015,-0.0208 0,-0.03125 a 1.9446287,1.9446287 0 0 0 0.15625,-0.75 1.9446287,1.9446287 0 0 0 0,-0.0625 c -0.0013,-0.03457 0.03336,-0.05917 0.03125,-0.09375 l -0.03125,0 0,-2.9375 c 0.0086,-1.545391 0.01811,-2.810828 -1.03125,-3.96875 -1.025054,-1.1311 -2.396816,-1.214055 -3.90625,-1.21875 l -21.78125,0 a 1.9446287,1.9446287 0 0 0 -0.03125,0 z M 39.375,22.96875 c 0.40665,-0.04857 -0.314504,0.03242 0.09375,0 0.408254,-0.03242 -0.315468,0.01622 0.09375,0 0.409218,-0.01622 -0.34704,0 0.0625,0 0.40954,0 -0.315468,-0.01622 0.09375,0 0.409218,0.01622 -0.314504,-0.03242 0.09375,0 0.408254,0.03242 -0.3129,-0.04857 0.09375,0 C 40.3129,23.017318 39.595593,22.935362 40,23 l -0.0625,0.34375 A 1.9446287,1.9446287 0 0 0 39.3125,23.25 L 39.28125,23 c 0.404407,-0.06464 -0.3129,0.01732 0.09375,-0.03125 z m -0.4375,0.09375 0.09375,0.21875 A 1.9446287,1.9446287 0 0 0 37.8125,24 1.9446287,1.9446287 0 0 0 37.53125,24.53125 c 0.119054,-0.37334 -0.08303,0.207586 0.0625,-0.15625 0.145534,-0.363836 -0.108765,0.227456 0.0625,-0.125 0.171265,-0.352456 -0.133612,0.183009 0.0625,-0.15625 0.141201,-0.244267 0.0653,-0.106607 0.0625,-0.09375 0.03546,-0.05653 0.02288,0.0148 0.03125,0 0.0084,-0.0148 0.0077,-0.04163 0,-0.03125 0.103505,-0.152618 0.09439,-0.105403 0.0625,-0.0625 0.231525,-0.326669 -0.187032,0.188129 0.0625,-0.125 0.249532,-0.313129 -0.172999,0.204848 0.09375,-0.09375 0.266749,-0.298598 -0.220622,0.189372 0.0625,-0.09375 0.283122,-0.283122 -0.204848,0.204249 0.09375,-0.0625 0.298598,-0.266749 -0.219379,0.155782 0.09375,-0.09375 0.313129,-0.249532 -0.201669,0.169025 0.125,-0.0625 0.217779,-0.15435 0.104009,-0.09321 0.0625,-0.0625 A 1.9446287,1.9446287 0 0 1 38.5,23.28125 c -0.05066,0.03283 -0.110126,0.08708 0.03125,0 0.35344,-0.21771 -0.328453,0.175948 0.03125,-0.03125 0.359703,-0.207198 -0.303153,0.165256 0.0625,-0.03125 0.365653,-0.196506 -0.308786,0.154393 0.0625,-0.03125 0.371286,-0.185643 -0.314097,0.143369 0.0625,-0.03125 0.376597,-0.174619 -0.31908,0.132193 0.0625,-0.03125 0.38158,-0.163443 -0.323732,0.120876 0.0625,-0.03125 0.386232,-0.152126 -0.328048,0.109426 0.0625,-0.03125 z m -20.28125,0.375 c 0.392929,-0.02921 -0.237756,0.0025 0.15625,0 0.394006,-0.0025 -0.237016,-0.02426 0.15625,0 0.393266,0.02426 -0.234464,-0.05088 0.15625,0 0.390714,0.05088 -0.230112,-0.04602 0.15625,0.03125 0.386362,0.07727 -0.223979,-0.07206 0.15625,0.03125 0.380229,0.103307 -0.247344,-0.06637 0.125,0.0625 0.372344,0.128866 -0.206493,-0.12258 0.15625,0.03125 0.362743,0.15383 -0.226471,-0.115586 0.125,0.0625 L 19.75,23.8125 A 1.9446287,1.9446287 0 0 0 18.6875,23.78125 L 18.65625,23.4375 z m 40.78125,0.03125 c 0.152707,0.03925 0.10228,0.0074 0.25,0.0625 0.14772,0.05512 0.07766,0.02336 0.21875,0.09375 0.141088,0.07039 0.05461,0.04014 0.1875,0.125 0.132885,0.08486 0.0643,0.02661 0.1875,0.125 0.123202,0.09839 0.07535,0.04542 0.1875,0.15625 0.112147,0.110829 0.05641,0.06547 0.15625,0.1875 0.09984,0.12203 0.06982,0.05563 0.15625,0.1875 0.08643,0.131872 0.0217,0.0785 0.09375,0.21875 0.07205,0.140246 0.06813,0.07169 0.125,0.21875 0.05687,0.147058 0.02145,0.06652 0.0625,0.21875 0.04105,0.152232 0.0065,0.06304 0.03125,0.21875 0.02478,0.155711 0.02302,0.09255 0.03125,0.25 0.0082,0.157455 0.0084,0.0613 0,0.21875 -0.0084,0.157446 -0.0063,0.09432 -0.03125,0.25 -0.0035,0.0144 0.01238,-0.04308 0,0.03125 -0.06439,0.386537 0.06071,-0.22467 -0.03125,0.15625 -0.09196,0.38092 0.0878,-0.21709 -0.03125,0.15625 -0.119054,0.37334 0.08303,-0.207586 -0.0625,0.15625 A 1.9446287,1.9446287 0 0 0 60.75,24.78125 1.9446287,1.9446287 0 0 0 60.75,24.75 1.9446287,1.9446287 0 0 0 59.4375,23.46875 z M 19.875,23.6875 c 0.158578,0.08516 -0.02772,-0.0015 0.125,0.09375 0.152719,0.09527 -0.02122,-0.04248 0.125,0.0625 0.146217,0.104977 -0.0141,-0.02049 0.125,0.09375 0.139098,0.114242 -0.0064,-0.02927 0.125,0.09375 0.131394,0.123025 -0.02939,-0.03754 0.09375,0.09375 0.123136,0.13129 -0.02061,-0.014 0.09375,0.125 0.114359,0.139002 -0.01135,-0.05238 0.09375,0.09375 0.105101,0.146128 -0.0329,-0.02764 0.0625,0.125 0.0954,0.152639 0.0085,-0.03351 0.09375,0.125 0.0853,0.158506 -0.01233,-0.0075 0.0625,0.15625 0.07483,0.163706 -0.0016,-0.04322 0.0625,0.125 0.06405,0.168216 -0.02176,-0.04702 0.03125,0.125 a 1.9446287,1.9446287 0 0 0 -1.1875,-1.15625 L 19.875,23.6875 z m 17.5625,20.78125 1.9375,0.21875 0.3125,0 0.21875,0.21875 1.46875,1.28125 c -0.274767,0.319073 0.249409,-0.282652 -0.03125,0.03125 -0.280659,0.313902 0.255204,-0.277373 -0.03125,0.03125 -0.286454,0.308623 0.2609,-0.271986 -0.03125,0.03125 -0.29215,0.303236 0.297745,-0.266495 0,0.03125 -0.297745,0.297745 0.271986,-0.29215 -0.03125,0 -0.303236,0.29215 0.277373,-0.255204 -0.03125,0.03125 -0.308623,0.286454 0.282652,-0.249409 -0.03125,0.03125 -0.313902,0.280659 0.287823,-0.243517 -0.03125,0.03125 -0.02166,0.02045 -0.04461,0.03193 -0.125,0.09375 -0.125741,0.0967 -0.05241,0.04185 -0.1875,0.125 -0.135088,0.08315 -0.04452,0.0563 -0.1875,0.125 -0.142978,0.0687 -0.06942,0.04024 -0.21875,0.09375 -0.149329,0.05351 -0.06468,0.02476 -0.21875,0.0625 -0.154071,0.03774 -0.09285,0.0097 -0.25,0.03125 -0.157153,0.02157 -0.06021,0.02609 -0.21875,0.03125 -0.158541,0.0052 -0.09178,0.0113 -0.25,0 -0.158222,-0.0113 -0.06255,-0.0036 -0.21875,-0.03125 -0.156199,-0.02764 -0.06626,-0.01882 -0.21875,-0.0625 -0.152492,-0.04368 -0.07161,-0.0032 -0.21875,-0.0625 -0.147143,-0.05925 -0.07854,-0.01956 -0.21875,-0.09375 -0.140208,-0.07419 -0.05574,-0.03668 -0.1875,-0.125 -0.131763,-0.08832 -0.0656,-0.05475 -0.1875,-0.15625 -0.121898,-0.101503 -0.07678,-0.04266 -0.1875,-0.15625 -0.11072,-0.113591 -0.0579,-0.03179 -0.15625,-0.15625 -0.117361,-0.147724 0.04746,0.05956 -0.0625,-0.09375 -0.109964,-0.15331 0.0398,0.06477 -0.0625,-0.09375 -0.102302,-0.158525 0.03189,0.06961 -0.0625,-0.09375 -0.09439,-0.163358 0.05501,0.07405 -0.03125,-0.09375 -0.08626,-0.167797 0.01541,0.07808 -0.0625,-0.09375 -0.07791,-0.171831 0.03813,0.05045 -0.03125,-0.125 -0.06938,-0.17545 0.02943,0.0849 -0.03125,-0.09375 -0.06068,-0.178645 -0.01067,0.08766 -0.0625,-0.09375 -0.05183,-0.18141 0.04286,0.05874 0,-0.125 -0.04286,-0.183736 0.0025,0.09187 -0.03125,-0.09375 -0.03378,-0.18562 -0.0066,0.06206 -0.03125,-0.125 -0.02463,-0.187055 0.01541,0.09429 0,-0.09375 -0.01541,-0.188039 0.0062,0.06357 0,-0.125 -0.0062,-0.188568 -0.0031,0.09489 0,-0.09375 0.0031,-0.188643 -0.01237,0.06326 0,-0.125 0.01237,-0.188263 -0.0216,0.09368 0,-0.09375 z"
       transform="matrix(0.24940388,0,0,0.25234105,0.43820142,-1.6163131)" />
    <path
       transform="matrix(0.24940388,0,0,0.25234105,0.43820142,-1.6163131)"
       d="m 57.625,16.3125 c -1.014665,0.01221 -1.834907,0.323177 -2.40625,0.90625 -0.571343,0.583073 -0.885276,1.435544 -0.875,2.5 l 0.03125,2.625 -0.03125,0 c 0.08155,1.171663 0.639007,1.863586 1.46875,2.3125 0.837509,0.453116 1.973527,0.648507 3.09375,0.6875 A 0.29699398,0.29699398 0 0 1 59.1875,25.6875 0.29699398,0.29699398 0 0 1 59.125,25.84375 L 39.90625,44.90625 A 0.29699398,0.29699398 0 0 1 39.375,44.6875 l 0,-19.5 a 0.29699398,0.29699398 0 0 1 0.0625,-0.15625 0.29699398,0.29699398 0 0 1 0.15625,-0.125 0.29699398,0.29699398 0 0 1 0.09375,0 c 0.821219,0.02838 1.507937,-0.209177 2,-0.65625 0.492063,-0.447073 0.833392,-1.119248 0.875,-2.09375 l -0.03125,0 L 42.5,19.5 l 0.03125,0 c -0.05737,-1.240032 -0.374998,-1.936241 -0.9375,-2.375 -0.562502,-0.438759 -1.452461,-0.646959 -2.78125,-0.6875 l 0,0.03125 -20.9375,0.125 0,-0.03125 c -1.058466,0.09019 -1.894693,0.342962 -2.46875,0.8125 -0.574548,0.469939 -0.955849,1.193567 -1.09375,2.40625 l 0.03125,0 -0.03125,1.8125 -0.03125,0 c 0.06205,1.244976 0.326781,2.150923 0.84375,2.75 0.516969,0.599077 1.310524,0.941387 2.59375,1 L 18.8125,25.375 a 0.29699398,0.29699398 0 0 1 0.3125,0.28125 l 0.0625,51.03125 -0.03125,0 c 0.113705,0.916803 0.440781,1.641365 0.96875,2.15625 0.534177,0.520939 1.296852,0.827297 2.34375,0.84375 l 4.875,0 0,0.03125 c 0.88855,-0.07745 1.752721,-0.772751 2.5,-1.53125 L 81.0625,25.40625 c 0.870713,-0.889245 1.448464,-1.575453 1.375,-2.78125 a 0.29699398,0.29699398 0 0 1 -0.03125,-0.03125 l 0,-3.03125 c 0.0079,-1.405127 -0.1396,-2.224082 -0.53125,-2.65625 -0.39165,-0.432168 -1.106975,-0.589514 -2.46875,-0.59375 l -21.78125,0 z"
       id="path3921"
       style="opacity:0.3;fill:#000000;fill-opacity:1;fill-rule:evenodd;stroke:none;display:inline"
       inkscape:original="M 57.625 16 C 55.465738 16.02598 54.009453 17.460946 54.03125 19.71875 L 54.0625 22.34375 C 54.220358 24.908787 56.618036 25.545352 58.90625 25.625 L 39.6875 44.6875 L 39.6875 25.1875 C 41.449694 25.2484 42.755394 24.22566 42.84375 22.15625 L 42.8125 19.5 C 42.693686 16.93206 41.518114 16.238797 38.8125 16.15625 L 17.875 16.28125 C 15.667919 16.46234 14.310882 17.216213 14.03125 19.78125 L 14 21.59375 C 14.127403 24.150082 15.055169 25.503338 17.71875 25.625 L 18.8125 25.65625 L 18.875 76.6875 C 19.106812 78.649678 20.258765 79.965269 22.46875 80 L 27.34375 80 C 28.370354 79.92553 29.289504 79.190852 30.0625 78.40625 L 81.28125 25.625 C 82.165242 24.722193 82.798476 23.902333 82.71875 22.59375 L 82.71875 19.5625 C 82.734695 16.713427 82.179981 16.008629 79.40625 16 L 57.625 16 z "
       inkscape:radius="-0.29696429"
       sodipodi:type="inkscape:offset" />
    <path
       sodipodi:type="inkscape:offset"
       inkscape:radius="-0.29696429"
       inkscape:original="M 57.625 16 C 55.465738 16.02598 54.009453 17.460946 54.03125 19.71875 L 54.0625 22.34375 C 54.220358 24.908787 56.618036 25.545352 58.90625 25.625 L 39.6875 44.6875 L 39.6875 25.1875 C 41.449694 25.2484 42.755394 24.22566 42.84375 22.15625 L 42.8125 19.5 C 42.693686 16.93206 41.518114 16.238797 38.8125 16.15625 L 17.875 16.28125 C 15.667919 16.46234 14.310882 17.216213 14.03125 19.78125 L 14 21.59375 C 14.127403 24.150082 15.055169 25.503338 17.71875 25.625 L 18.8125 25.65625 L 18.875 76.6875 C 19.106812 78.649678 20.258765 79.965269 22.46875 80 L 27.34375 80 C 28.370354 79.92553 29.289504 79.190852 30.0625 78.40625 L 81.28125 25.625 C 82.165242 24.722193 82.798476 23.902333 82.71875 22.59375 L 82.71875 19.5625 C 82.734695 16.713427 82.179981 16.008629 79.40625 16 L 57.625 16 z "
       style="fill:url(#linearGradient3839);fill-opacity:1;fill-rule:evenodd;stroke:none;display:inline"
       id="path3907"
       d="m 57.625,16.3125 c -1.014665,0.01221 -1.834907,0.323177 -2.40625,0.90625 -0.571343,0.583073 -0.885276,1.435544 -0.875,2.5 l 0.03125,2.625 -0.03125,0 c 0.08155,1.171663 0.639007,1.863586 1.46875,2.3125 0.837509,0.453116 1.973527,0.648507 3.09375,0.6875 A 0.29699398,0.29699398 0 0 1 59.1875,25.6875 0.29699398,0.29699398 0 0 1 59.125,25.84375 L 39.90625,44.90625 A 0.29699398,0.29699398 0 0 1 39.375,44.6875 l 0,-19.5 a 0.29699398,0.29699398 0 0 1 0.0625,-0.15625 0.29699398,0.29699398 0 0 1 0.15625,-0.125 0.29699398,0.29699398 0 0 1 0.09375,0 c 0.821219,0.02838 1.507937,-0.209177 2,-0.65625 0.492063,-0.447073 0.833392,-1.119248 0.875,-2.09375 l -0.03125,0 L 42.5,19.5 l 0.03125,0 c -0.05737,-1.240032 -0.374998,-1.936241 -0.9375,-2.375 -0.562502,-0.438759 -1.452461,-0.646959 -2.78125,-0.6875 l 0,0.03125 -20.9375,0.125 0,-0.03125 c -1.058466,0.09019 -1.894693,0.342962 -2.46875,0.8125 -0.574548,0.469939 -0.955849,1.193567 -1.09375,2.40625 l 0.03125,0 -0.03125,1.8125 -0.03125,0 c 0.06205,1.244976 0.326781,2.150923 0.84375,2.75 0.516969,0.599077 1.310524,0.941387 2.59375,1 L 18.8125,25.375 a 0.29699398,0.29699398 0 0 1 0.3125,0.28125 l 0.0625,51.03125 -0.03125,0 c 0.113705,0.916803 0.440781,1.641365 0.96875,2.15625 0.534177,0.520939 1.296852,0.827297 2.34375,0.84375 l 4.875,0 0,0.03125 c 0.88855,-0.07745 1.752721,-0.772751 2.5,-1.53125 L 81.0625,25.40625 c 0.870713,-0.889245 1.448464,-1.575453 1.375,-2.78125 a 0.29699398,0.29699398 0 0 1 -0.03125,-0.03125 l 0,-3.03125 c 0.0079,-1.405127 -0.1396,-2.224082 -0.53125,-2.65625 -0.39165,-0.432168 -1.106975,-0.589514 -2.46875,-0.59375 l -21.78125,0 z"
       transform="matrix(0.24940388,0,0,0.25234105,0.43820142,-2.116314)" />
    <path
       style="opacity:0.7;fill:#ffffff;fill-opacity:1;fill-rule:evenodd;stroke:none;display:inline"
       d="M 14.8125,4 C 14.559439,4.00308 14.361245,4.071617 14.21875,4.21875 14.076255,4.3658833 13.997437,4.6063941 14,4.875 l 0,0.65625 c 0.0034,0.049942 0.02129,0.081678 0.03125,0.125 0.03068,-0.1668302 0.08677,-0.333492 0.1875,-0.4375 C 14.361245,5.0716167 14.559439,5.0030806 14.8125,5 L 20.25,5 c 0.339632,0.00107 0.496071,0.047196 0.59375,0.15625 C 20.91529,5.236116 20.985087,5.3894256 21,5.59375 L 21,4.8125 C 21.001961,4.4579288 20.941429,4.2653037 20.84375,4.15625 20.746071,4.0471963 20.589632,4.0010689 20.25,4 L 14.8125,4 z M 10.125,4.03125 4.90625,4.0625 C 4.6422645,4.0852579 4.424422,4.1627663 4.28125,4.28125 4.1379555,4.3998349 4.034393,4.5689903 4,4.875 L 4,5.34375 C 4.0065745,5.477222 4.0367287,5.58429 4.0625,5.6875 4.1105796,5.5034947 4.1744815,5.3696074 4.28125,5.28125 4.424422,5.1627663 4.6422645,5.0852579 4.90625,5.0625 L 10.125,5.03125 c 0.331405,0.01023 0.54721,0.076783 0.6875,0.1875 0.12228,0.096503 0.160557,0.256933 0.1875,0.5 0.02613,-0.075708 0.05831,-0.1506915 0.0625,-0.25 l -0.03125,0 0,-0.65625 C 11.016941,4.499589 10.95279,4.3294669 10.8125,4.21875 10.67221,4.1080331 10.456405,4.0414802 10.125,4.03125 z m 4.34375,3.09375 -4.0625,4.09375 a 0.07407145,0.07494377 0 0 1 -0.03125,0 0.07407145,0.07494377 0 0 1 0,0.03125 0.07407145,0.07494377 0 0 1 -0.03125,0 0.07407145,0.07494377 0 0 1 -0.03125,0 A 0.07407145,0.07494377 0 0 1 10.28125,11.21875 0.07407145,0.07494377 0 0 1 10.25,11.1875 l 0,0.96875 a 0.07407145,0.07494377 0 0 0 0,0.03125 0.07407145,0.07494377 0 0 0 0.03125,0.03125 0.07407145,0.07494377 0 0 0 0.03125,0.03125 0.07407145,0.07494377 0 0 0 0.03125,0 0.07407145,0.07494377 0 0 0 0.03125,0 0.07407145,0.07494377 0 0 0 0,-0.03125 0.07407145,0.07494377 0 0 0 0.03125,0 l 4.78125,-4.8125 a 0.07407145,0.07494377 0 0 0 0,-0.03125 0.07407145,0.07494377 0 0 0 0,-0.03125 0.07407145,0.07494377 0 0 0 0,-0.03125 0.07407145,0.07494377 0 0 0 -0.03125,-0.03125 0.07407145,0.07494377 0 0 0 -0.03125,0 C 14.891013,7.2730094 14.662216,7.2036234 14.46875,7.125 z"
       transform="translate(0,-2)"
       id="path3870"
       inkscape:connector-curvature="0" />
    <g
       id="g3914"
       transform="translate(0.30006475,0)">
      <path
         d="m 12.28125,10.625 c -1.154775,0 -2,0.998742 -2,2.09375 0,0.260008 0.132939,0.416819 0.21875,0.625 -0.0662,0.05631 -0.164674,0.05696 -0.21875,0.125 -0.3249233,0.408848 -0.3254469,0.895652 -0.3125,1.15625 -0.0032,-0.06451 -0.00447,-0.05417 0,0.03125 0.015109,0.280363 0.066608,-0.01089 -0.03125,0.3125 -0.087196,0.288153 -0.3855334,1.01553 -1.03125,2.21875 a 0.66060848,0.66060848 0 0 0 -0.0625,0.09375 0.66060848,0.66060848 0 0 0 -0.03125,0.0625 c -0.2088425,0.463955 -0.2078322,1.004259 0.03125,1.4375 0.2594527,0.470155 0.7649697,0.787738 1.34375,0.78125 l 1.21875,0 c 0.199505,-0.0046 0.313724,-0.118392 0.46875,-0.1875 0.225469,0.146853 0.479922,0.253019 0.78125,0.25 l 1.21875,0 c 0.255957,-0.006 0.36985,-0.122918 0.53125,-0.21875 0.208199,0.122929 0.443467,0.221509 0.71875,0.21875 l 1.25,0 c 0.255958,-0.006 0.369851,-0.122919 0.53125,-0.21875 0.2082,0.122931 0.443461,0.221513 0.71875,0.21875 l 1.21875,0 c 0.366963,-0.0087 0.730702,-0.191664 0.875,-0.3125 0.200566,-0.167956 0.281422,-0.337592 0.34375,-0.4375 0.174672,-0.279989 0.408006,-0.867867 0.125,-1.46875 a 0.66060848,0.66060848 0 0 0 -0.0625,-0.125 c 0.0013,0.0017 -0.0181,-0.01501 -0.03125,-0.03125 0.04089,-0.0801 0.06552,-0.110928 0.125,-0.21875 0.194899,-0.353283 0.419131,-0.819014 0.625,-1.28125 A 0.66060848,0.66060848 0 0 0 20.875,15.71875 c 0.006,-0.01365 0.0254,-0.01754 0.03125,-0.03125 a 0.66060848,0.66060848 0 0 0 0.125,-0.25 c 0.245372,-0.769597 -0.0923,-1.439967 -0.4375,-1.84375 -0.296009,-0.346239 -0.665059,-0.613025 -1.09375,-0.75 A 0.66060848,0.66060848 0 0 0 19.40625,12.8125 c 0.004,5.28e-4 -0.09777,-2.64e-4 -0.09375,0 0.004,2.64e-4 -0.06652,0 -0.0625,0 0.002,0 -0.01157,-6.47e-4 -0.03125,0 l -0.125,0 -0.75,-0.03125 -0.0625,0 c -0.01146,-0.0011 -0.03259,-8.8e-5 -0.03125,0 0.004,2.64e-4 -0.06652,0 -0.0625,0 0.004,0 -0.06652,2.64e-4 -0.0625,0 0.004,-2.64e-4 -0.09774,5.28e-4 -0.09375,0 a 0.66060848,0.66060848 0 0 0 -0.0625,0 c -0.112063,0.02586 -0.245469,0.159871 -0.375,0.21875 -0.114012,-0.05755 -0.154401,-0.171679 -0.3125,-0.1875 a 0.66060848,0.66060848 0 0 0 -0.03125,0 c 0.004,2.63e-4 -0.06652,0 -0.0625,0 0.002,0 -0.01161,-6.44e-4 -0.03125,0 l -0.03125,0 -0.96875,0 c -0.125705,-0.0026 -0.278692,0.02157 -0.4375,0.0625 -0.04629,0.01193 -0.132528,0.07722 -0.1875,0.09375 0.0022,0.0015 -0.0335,-0.03263 -0.03125,-0.03125 0.0022,0.0014 -0.0648,-0.03253 -0.0625,-0.03125 0.0023,0.0013 -0.03361,-0.0012 -0.03125,0 0.0024,0.0012 -0.0649,-0.03233 -0.0625,-0.03125 0.0024,0.0011 -0.0337,-0.03222 -0.03125,-0.03125 0.0024,9.72e-4 -0.06499,-8.66e-4 -0.0625,0 0.0025,8.66e-4 -0.03377,-0.03201 -0.03125,-0.03125 0.0025,7.58e-4 -0.06505,-6.49e-4 -0.0625,0 0.0026,6.49e-4 -0.03383,-0.03179 -0.03125,-0.03125 0.0013,2.69e-4 -0.01858,0.0024 -0.03125,0 -0.01197,-0.0022 -0.01932,0.0021 -0.03125,0 -0.310085,-0.05371 -0.540246,-0.0085 -0.8125,0 0.0014,-0.02769 0.03125,-0.03407 0.03125,-0.0625 0,-1.095011 -0.845227,-2.09375 -2,-2.09375 z"
         id="path3912"
         style="opacity:0.05;fill:#000000;fill-opacity:1;fill-rule:evenodd;stroke:none;display:inline"
         inkscape:original="M 12.28125 11.28125 C 11.510064 11.28125 10.9375 11.953013 10.9375 12.71875 C 10.9375 13.055728 11.089612 13.340672 11.28125 13.59375 C 11.094345 13.630125 10.943235 13.710497 10.8125 13.875 C 10.617759 14.120041 10.613601 14.364308 10.625 14.59375 C 10.625465 14.603115 10.624514 14.61572 10.625 14.625 C 10.636409 14.8367 10.667995 14.807625 10.5625 15.15625 C 10.450879 15.525118 10.164591 16.257835 9.4375 17.59375 A 0.4768255 0.4768255 0 0 0 9.40625 17.625 C 9.2800339 17.905396 9.296008 18.212352 9.4375 18.46875 C 9.578992 18.725148 9.8663608 18.90985 10.1875 18.90625 L 11.40625 18.90625 C 11.63454 18.901003 11.752869 18.826098 11.84375 18.75 C 11.894783 18.707268 11.928042 18.643408 11.96875 18.59375 C 12.128856 18.814046 12.360955 18.971709 12.65625 18.96875 L 13.875 18.96875 C 14.103536 18.963353 14.22276 18.861671 14.3125 18.78125 C 14.372062 18.727874 14.4254 18.687262 14.46875 18.625 C 14.626217 18.823433 14.852279 18.971483 15.125 18.96875 L 16.375 18.96875 C 16.603537 18.963353 16.72276 18.86167 16.8125 18.78125 C 16.872062 18.727874 16.9254 18.687262 16.96875 18.625 C 17.126218 18.823434 17.352276 18.971487 17.625 18.96875 L 18.84375 18.96875 C 19.071877 18.963363 19.190397 18.888581 19.28125 18.8125 C 19.372103 18.736419 19.437509 18.63142 19.5 18.53125 C 19.624983 18.330909 19.754336 18.028459 19.59375 17.6875 A 0.4768255 0.4768255 0 0 0 19.5 17.59375 L 19.28125 17.34375 C 19.338891 17.444876 19.296057 17.422021 19.34375 17.28125 C 19.391443 17.140479 19.500169 16.945025 19.625 16.71875 C 19.874662 16.2662 20.196248 15.73768 20.375 15.25 A 0.4768255 0.4768255 0 0 0 20.40625 15.25 C 20.556257 14.779511 20.335246 14.313726 20.09375 14.03125 C 19.852254 13.748774 19.597588 13.559841 19.3125 13.46875 A 0.4768255 0.4768255 0 0 0 19.1875 13.46875 L 18.25 13.4375 A 0.4768255 0.4768255 0 0 0 18.125 13.4375 C 17.972448 13.472708 17.771176 13.552705 17.65625 13.6875 C 17.645598 13.699993 17.634518 13.706161 17.625 13.71875 C 17.515128 13.591613 17.369518 13.483837 17.21875 13.46875 A 0.4768255 0.4768255 0 0 0 17.15625 13.46875 L 16.15625 13.46875 C 16.054482 13.466642 15.988278 13.470806 15.875 13.5 C 15.761722 13.529194 15.586559 13.597818 15.5 13.71875 C 15.487835 13.735746 15.510041 13.734309 15.5 13.75 L 15.3125 13.75 C 15.290501 13.697718 15.294292 13.648241 15.25 13.59375 A 0.4768255 0.4768255 0 0 0 14.96875 13.4375 C 14.467546 13.345714 13.984942 13.38799 13.5625 13.4375 C 13.534337 13.440801 13.496375 13.434037 13.46875 13.4375 L 13.46875 13.46875 C 13.407807 13.475936 13.367571 13.508611 13.3125 13.53125 C 13.478958 13.287929 13.625 13.030816 13.625 12.71875 C 13.625 11.953011 13.052434 11.28125 12.28125 11.28125 z M 13.03125 14.8125 L 13.0625 14.84375 C 13.077444 14.956403 13.101041 14.969964 13 15.28125 C 12.888737 15.62403 12.538685 16.368553 11.96875 17.4375 L 11.875 17.34375 C 11.881399 17.293349 11.929019 17.210489 11.96875 17.09375 C 12.048212 16.860273 12.187206 16.536078 12.34375 16.21875 C 12.500294 15.901422 12.666991 15.58954 12.8125 15.3125 C 12.917645 15.11231 12.963903 14.95997 13.03125 14.8125 z M 17.59375 16.0625 C 17.464863 16.411483 17.315867 16.784698 16.9375 17.5 L 16.84375 17.375 C 16.852001 17.320708 16.87366 17.258213 16.90625 17.15625 C 16.974537 16.942606 17.115016 16.658364 17.25 16.375 C 17.376124 16.192119 17.482715 16.114241 17.59375 16.0625 z M 15.09375 16.09375 C 14.956939 16.434705 14.814065 16.79559 14.4375 17.5 L 14.34375 17.375 C 14.352095 17.323256 14.373478 17.25577 14.40625 17.15625 C 14.478177 16.937825 14.639889 16.669665 14.78125 16.375 C 14.785879 16.365351 14.776591 16.353404 14.78125 16.34375 C 14.890221 16.217249 14.993038 16.14388 15.09375 16.09375 z "
         inkscape:radius="0.66054243"
         sodipodi:type="inkscape:offset" />
      <path
         d="m 12.28125,11.28125 c -0.771186,0 -1.34375,0.671763 -1.34375,1.4375 0,0.336978 0.152112,0.621922 0.34375,0.875 -0.186905,0.03637 -0.338015,0.116747 -0.46875,0.28125 -0.194741,0.245041 -0.198899,0.489308 -0.1875,0.71875 4.65e-4,0.0094 -4.86e-4,0.02197 0,0.03125 0.01141,0.2117 0.04299,0.182625 -0.0625,0.53125 -0.111621,0.368868 -0.397909,1.101585 -1.125,2.4375 A 0.4768255,0.4768255 0 0 0 9.40625,17.625 c -0.1262161,0.280396 -0.110242,0.587352 0.03125,0.84375 0.141492,0.256398 0.4288608,0.4411 0.75,0.4375 l 1.21875,0 c 0.22829,-0.0052 0.346619,-0.08015 0.4375,-0.15625 0.05103,-0.04273 0.08429,-0.106592 0.125,-0.15625 0.160106,0.220296 0.392205,0.377959 0.6875,0.375 l 1.21875,0 c 0.228536,-0.0054 0.34776,-0.107079 0.4375,-0.1875 0.05956,-0.05338 0.1129,-0.09399 0.15625,-0.15625 0.157467,0.198433 0.383529,0.346483 0.65625,0.34375 l 1.25,0 c 0.228537,-0.0054 0.34776,-0.10708 0.4375,-0.1875 0.05956,-0.05338 0.1129,-0.09399 0.15625,-0.15625 0.157468,0.198434 0.383526,0.346487 0.65625,0.34375 l 1.21875,0 c 0.228127,-0.0054 0.346647,-0.08017 0.4375,-0.15625 0.09085,-0.07608 0.156259,-0.18108 0.21875,-0.28125 0.124983,-0.200341 0.254336,-0.502791 0.09375,-0.84375 A 0.4768255,0.4768255 0 0 0 19.5,17.59375 l -0.21875,-0.25 c 0.05764,0.101126 0.01481,0.07827 0.0625,-0.0625 0.04769,-0.140771 0.156419,-0.336225 0.28125,-0.5625 0.249662,-0.45255 0.571248,-0.98107 0.75,-1.46875 a 0.4768255,0.4768255 0 0 0 0.03125,0 c 0.150007,-0.470489 -0.071,-0.936274 -0.3125,-1.21875 -0.241496,-0.282476 -0.496162,-0.471409 -0.78125,-0.5625 a 0.4768255,0.4768255 0 0 0 -0.125,0 L 18.25,13.4375 a 0.4768255,0.4768255 0 0 0 -0.125,0 c -0.152552,0.03521 -0.353824,0.115205 -0.46875,0.25 -0.01065,0.01249 -0.02173,0.01866 -0.03125,0.03125 -0.109872,-0.127137 -0.255482,-0.234913 -0.40625,-0.25 a 0.4768255,0.4768255 0 0 0 -0.0625,0 l -1,0 c -0.101768,-0.0021 -0.167972,0.0021 -0.28125,0.03125 -0.113278,0.02919 -0.288441,0.09782 -0.375,0.21875 -0.01216,0.017 0.01004,0.01556 0,0.03125 l -0.1875,0 c -0.022,-0.05228 -0.01821,-0.101759 -0.0625,-0.15625 A 0.4768255,0.4768255 0 0 0 14.96875,13.4375 c -0.501204,-0.09179 -0.983808,-0.04951 -1.40625,0 -0.02816,0.0033 -0.06612,-0.0035 -0.09375,0 l 0,0.03125 c -0.06094,0.0072 -0.101179,0.03986 -0.15625,0.0625 0.166458,-0.243321 0.3125,-0.500434 0.3125,-0.8125 0,-0.765739 -0.572566,-1.4375 -1.34375,-1.4375 z m 0.75,3.53125 0.03125,0.03125 c 0.01494,0.112653 0.03854,0.126214 -0.0625,0.4375 -0.111263,0.34278 -0.461315,1.087303 -1.03125,2.15625 L 11.875,17.34375 c 0.0064,-0.0504 0.05402,-0.133261 0.09375,-0.25 0.07946,-0.233477 0.218456,-0.557672 0.375,-0.875 0.156544,-0.317328 0.323241,-0.62921 0.46875,-0.90625 0.105145,-0.20019 0.151403,-0.35253 0.21875,-0.5 z m 4.5625,1.25 C 17.464863,16.411483 17.315867,16.784698 16.9375,17.5 l -0.09375,-0.125 c 0.0083,-0.05429 0.02991,-0.116787 0.0625,-0.21875 0.06829,-0.213644 0.208766,-0.497886 0.34375,-0.78125 0.126124,-0.182881 0.232715,-0.260759 0.34375,-0.3125 z m -2.5,0.03125 C 14.956939,16.434705 14.814065,16.79559 14.4375,17.5 l -0.09375,-0.125 c 0.0083,-0.05174 0.02973,-0.11923 0.0625,-0.21875 0.07193,-0.218425 0.233639,-0.486585 0.375,-0.78125 0.0046,-0.0096 -0.0047,-0.0216 0,-0.03125 0.108971,-0.126501 0.211788,-0.19987 0.3125,-0.25 z"
         id="path3908"
         style="opacity:0.15;fill:#000000;fill-opacity:1;fill-rule:evenodd;stroke:none;display:inline"
         inkscape:original="M 12.28125 11.75 C 11.798963 11.75 11.40625 12.188356 11.40625 12.71875 C 11.40625 13.249149 11.798963 13.6875 12.28125 13.6875 C 12.763533 13.6875 13.15625 13.249149 13.15625 12.71875 C 13.15625 12.188356 12.763533 11.75 12.28125 11.75 z M 13.53125 13.90625 C 13.366088 13.89408 13.283688 14.155368 13.34375 14.34375 L 13.53125 14.71875 C 13.55382 15.004825 13.684685 15.296403 12.28125 17.875 C 12.143107 18.181877 12.352942 18.503039 12.65625 18.5 L 13.875 18.5 C 14.018971 18.4966 14.26709 18.141599 14.15625 17.90625 L 13.90625 17.59375 C 13.786739 17.384071 14.040804 16.752707 14.34375 16.125 C 14.781712 15.543192 15.304473 15.50579 15.625 15.5 C 15.7206 15.52208 15.752943 15.629726 15.78125 15.75 C 15.619198 16.199968 15.400127 16.73791 14.78125 17.875 C 14.643112 18.181877 14.821695 18.50304 15.125 18.5 L 16.375 18.5 C 16.51897 18.4966 16.767094 18.141599 16.65625 17.90625 L 16.40625 17.59375 C 16.285008 17.381035 16.534718 16.731007 16.84375 16.09375 C 17.248767 15.506472 17.756575 15.5 18.0625 15.5 C 18.184624 15.538 18.187446 15.714468 18.1875 15.875 C 18.018401 16.326501 17.8699 16.793462 17.28125 17.875 C 17.143112 18.181877 17.321694 18.503044 17.625 18.5 L 18.84375 18.5 C 18.987721 18.4966 19.267097 18.141603 19.15625 17.90625 L 18.875 17.59375 C 18.627621 17.159746 19.647306 15.885473 19.9375 15.09375 C 20.117686 14.528605 19.498598 14.046887 19.15625 13.9375 L 18.21875 13.90625 C 18.04873 13.94549 17.984264 14.038475 17.9375 14.21875 L 17.3125 14.21875 C 17.3252 14.051877 17.277727 13.949656 17.15625 13.9375 L 16.15625 13.9375 C 15.837626 13.9309 15.884616 14.020594 15.84375 14.21875 L 14.875 14.21875 C 14.92805 14.114077 14.93044 13.974456 14.875 13.90625 C 14.416914 13.82236 13.953303 13.85335 13.53125 13.90625 z M 11.59375 14.03125 C 11.155311 14.022138 11.07274 14.192682 11.09375 14.59375 C 11.102763 14.894551 11.312231 15.114397 9.84375 17.8125 C 9.7056119 18.119381 9.8841948 18.4409 10.1875 18.4375 L 11.40625 18.4375 C 11.550221 18.434191 11.829595 18.07909 11.71875 17.84375 L 11.4375 17.53125 C 11.190126 17.09725 12.514429 14.941428 12.6875 14.46875 C 12.795609 14.158833 12.655409 14.01302 12.25 14.03125 L 11.59375 14.03125 z "
         inkscape:radius="0.47677782"
         sodipodi:type="inkscape:offset" />
      <path
         id="path3901"
         style="opacity:0.3;fill:#000000;fill-opacity:1;fill-rule:evenodd;stroke:none;display:inline"
         d="m 13.146967,12.72508 c 0,0.530399 -0.390974,0.960372 -0.873257,0.960372 -0.482287,0 -0.873257,-0.429973 -0.873257,-0.960372 0,-0.530394 0.39097,-0.960367 0.873257,-0.960367 0.482283,0 0.873257,0.429973 0.873257,0.960367 z m -3.3113602,5.094603 c 1.4684812,-2.698103 1.2522662,-2.92598 1.2432532,-3.226781 -0.02101,-0.401068 0.06607,-0.556029 0.504509,-0.546917 l 0.666676,-0.01823 c 0.405409,-0.01823 0.540547,0.127609 0.432438,0.437526 -0.173071,0.472678 -1.480077,2.621157 -1.232703,3.055157 l 0.26281,0.331277 c 0.110845,0.23534 -0.147788,0.573812 -0.291759,0.577121 l -1.242881,0.01063 c -0.3033052,0.0034 -0.4804853,-0.312952 -0.3423472,-0.619833 z m 5.0379752,-3.902589 c -0.458086,-0.08389 -0.925186,-0.0584 -1.347239,-0.0055 -0.165162,-0.01217 -0.229786,0.258887 -0.169724,0.447269 l 0.175231,0.354586 c 0.02257,0.286075 0.16431,0.587359 -1.239125,3.165956 -0.138143,0.306877 0.04715,0.623565 0.350458,0.620526 l 1.239125,-0.01264 c 0.143971,-0.0034 0.398717,-0.334522 0.287877,-0.569871 L 13.90734,17.588162 c -0.119511,-0.209679 0.13513,-0.828633 0.438076,-1.45634 0.437962,-0.581808 0.943632,-0.614735 1.264159,-0.620525 0.0956,0.02208 0.134407,0.133002 0.162714,0.253276 -0.162052,0.449968 -0.369924,0.977766 -0.988801,2.114856 -0.138138,0.306877 0.03464,0.623566 0.337945,0.620526 l 1.251642,-0.01264 c 0.14397,-0.0034 0.398721,-0.334522 0.287877,-0.569871 l -0.262844,-0.329259 c -0.121242,-0.212715 0.14156,-0.84441 0.450592,-1.481667 0.405017,-0.587278 0.895647,-0.595198 1.201572,-0.595198 0.122124,0.038 0.150144,0.194053 0.150198,0.354585 -0.169099,0.451501 -0.337565,0.932009 -0.926215,2.013547 -0.138138,0.306877 0.03464,0.62357 0.337946,0.620526 l 1.23912,-0.01264 c 0.143971,-0.0034 0.411246,-0.334518 0.300399,-0.569871 l -0.262845,-0.329253 c -0.247379,-0.434004 0.74722,-1.698665 1.037414,-2.490388 0.180186,-0.565145 -0.438071,-1.059516 -0.780419,-1.168903 l -0.942652,-0.01469 c -0.17002,0.03924 -0.205628,0.138335 -0.252392,0.31861 l -0.644939,-0.0055 c 0.0127,-0.166873 -0.0303,-0.277092 -0.151777,-0.289248 l -0.987695,-0.01469 c -0.318624,-0.0066 -0.287109,0.109318 -0.327975,0.307474 l -0.961832,4e-4 c 0.05305,-0.104673 0.05204,-0.245813 -0.0034,-0.314019 z"
         inkscape:connector-curvature="0" />
      <path
         d="m 13.146967,12.22508 c 0,0.530399 -0.390974,0.960372 -0.873257,0.960372 -0.482287,0 -0.873257,-0.429973 -0.873257,-0.960372 0,-0.530394 0.39097,-0.960367 0.873257,-0.960367 0.482283,0 0.873257,0.429973 0.873257,0.960367 z m -3.3113602,5.094603 c 1.4684812,-2.698103 1.2522662,-2.92598 1.2432532,-3.226781 -0.02101,-0.401068 0.06607,-0.556029 0.504509,-0.546917 l 0.666676,-0.01823 c 0.405409,-0.01823 0.540547,0.127609 0.432438,0.437526 -0.173071,0.472678 -1.480077,2.621157 -1.232703,3.055157 l 0.26281,0.331277 c 0.110845,0.23534 -0.147788,0.573812 -0.291759,0.577121 l -1.242881,0.01063 c -0.3033052,0.0034 -0.4804853,-0.312952 -0.3423472,-0.619833 z m 5.0379752,-3.902589 c -0.458086,-0.08389 -0.925186,-0.0584 -1.347239,-0.0055 -0.165162,-0.01217 -0.229786,0.258887 -0.169724,0.447269 l 0.175231,0.354586 c 0.02257,0.286075 0.16431,0.587359 -1.239125,3.165956 -0.138143,0.306877 0.04715,0.623565 0.350458,0.620526 l 1.239125,-0.01264 c 0.143971,-0.0034 0.398717,-0.334522 0.287877,-0.569871 L 13.90734,17.088162 c -0.119511,-0.209679 0.13513,-0.828633 0.438076,-1.45634 0.437962,-0.581808 0.943632,-0.614735 1.264159,-0.620525 0.0956,0.02208 0.134407,0.133002 0.162714,0.253276 -0.162052,0.449968 -0.369924,0.977766 -0.988801,2.114856 -0.138138,0.306877 0.03464,0.623566 0.337945,0.620526 l 1.251642,-0.01264 c 0.14397,-0.0034 0.398721,-0.334522 0.287877,-0.569871 l -0.262844,-0.329259 c -0.121242,-0.212715 0.14156,-0.84441 0.450592,-1.481667 0.405017,-0.587278 0.895647,-0.595198 1.201572,-0.595198 0.122124,0.038 0.150144,0.194053 0.150198,0.354585 -0.169099,0.451501 -0.337565,0.932009 -0.926215,2.013547 -0.138138,0.306877 0.03464,0.62357 0.337946,0.620526 l 1.23912,-0.01264 c 0.143971,-0.0034 0.411246,-0.334518 0.300399,-0.569871 l -0.262845,-0.329253 c -0.247379,-0.434004 0.74722,-1.698665 1.037414,-2.490388 0.180186,-0.565145 -0.438071,-1.059516 -0.780419,-1.168903 l -0.942652,-0.01469 c -0.17002,0.03924 -0.205628,0.138335 -0.252392,0.31861 l -0.644939,-0.0055 c 0.0127,-0.166873 -0.0303,-0.277092 -0.151777,-0.289248 l -0.987695,-0.01469 c -0.318624,-0.0066 -0.287109,0.109318 -0.327975,0.307474 l -0.961832,4e-4 c 0.05305,-0.104673 0.05204,-0.245813 -0.0034,-0.314019 z"
         style="fill:url(#linearGradient3933);fill-opacity:1;fill-rule:evenodd;stroke:none;display:inline"
         id="path866"
         inkscape:connector-curvature="0" />
      <path
         id="path3892"
         transform="translate(0,-2)"
         d="m 12.28125,13.25 c -0.482287,0 -0.875,0.438356 -0.875,0.96875 0,0.0878 0.01118,0.169197 0.03125,0.25 0.101163,-0.407313 0.441301,-0.71875 0.84375,-0.71875 0.402446,0 0.742587,0.311437 0.84375,0.71875 0.02007,-0.0808 0.03125,-0.162197 0.03125,-0.25 0,-0.530394 -0.392717,-0.96875 -0.875,-0.96875 z m 1.90625,2.125 c -0.226792,0.0025 -0.445224,0.0048 -0.65625,0.03125 -0.165162,-0.01217 -0.247562,0.249118 -0.1875,0.4375 l 0.0625,0.09375 c 0.02835,-0.02664 0.08371,-0.03429 0.125,-0.03125 0.422053,-0.0529 0.885664,-0.08389 1.34375,0 0.05544,0.06821 0.05305,0.207827 0,0.3125 l 0.96875,0 c 0.04087,-0.198156 -0.0061,-0.28785 0.3125,-0.28125 l 1,0 c 0.121477,0.01216 0.16895,0.114377 0.15625,0.28125 l 0.625,0 c 0.04676,-0.180275 0.11123,-0.27326 0.28125,-0.3125 l 0.9375,0.03125 c 0.247699,0.07915 0.620353,0.355542 0.75,0.71875 0.0076,-0.01918 0.02441,-0.04383 0.03125,-0.0625 0.180186,-0.565145 -0.438902,-1.046863 -0.78125,-1.15625 l -0.9375,-0.03125 c -0.17002,0.03924 -0.234486,0.132225 -0.28125,0.3125 l -0.625,0 c 0.0127,-0.166873 -0.03477,-0.269094 -0.15625,-0.28125 l -1,0 c -0.318624,-0.0066 -0.271634,0.08309 -0.3125,0.28125 l -0.96875,0 c 0.05305,-0.104673 0.05544,-0.244294 0,-0.3125 C 14.645957,15.3643 14.414292,15.3725 14.1875,15.375 z m -2.59375,0.15625 c -0.438439,-0.0091 -0.52101,0.161432 -0.5,0.5625 0.0023,0.0752 0.0014,0.144179 0,0.25 0.03618,-0.212356 0.171171,-0.319334 0.5,-0.3125 l 0.65625,0 c 0.178857,-0.008 0.299032,0.0067 0.375,0.0625 0.0106,-0.02452 0.05546,-0.105787 0.0625,-0.125 0.05405,-0.154958 0.0397,-0.270829 -0.03125,-0.34375 -0.0052,-0.0054 -0.02534,0.0049 -0.03125,0 -0.104475,0.0486 -0.223179,0.0625 -0.34375,0.0625 -0.173438,0 -0.332867,-0.06036 -0.46875,-0.15625 l -0.21875,0 z m -0.5,0.8125 c -0.0042,0.317464 -0.148639,0.945173 -1.25,2.96875 -0.077703,0.172621 -0.056912,0.348731 0.03125,0.46875 1.440243,-2.65349 1.22771,-2.888466 1.21875,-3.1875 -0.0053,-0.100267 -0.01206,-0.179215 0,-0.25 z M 13.5,16.65625 c -0.06331,0.372684 -0.305618,1.041009 -1.21875,2.71875 -0.06907,0.153439 -0.03572,0.320348 0.03125,0.4375 1.358642,-2.507421 1.241093,-2.810557 1.21875,-3.09375 L 13.5,16.65625 z m 2.15625,0.875 c -0.156155,0.407251 -0.364058,0.904973 -0.875,1.84375 -0.0777,0.172618 -0.05569,0.348574 0.03125,0.46875 0.598534,-1.103793 0.809013,-1.65021 0.96875,-2.09375 -0.02359,-0.100228 -0.06004,-0.177512 -0.125,-0.21875 z m 2.46875,0.0625 c -0.152247,0.404479 -0.338425,0.852806 -0.84375,1.78125 -0.0777,0.172618 -0.05569,0.348573 0.03125,0.46875 0.567497,-1.047681 0.708437,-1.524022 0.875,-1.96875 -3.7e-5,-0.110956 -0.0139,-0.212075 -0.0625,-0.28125 z m -6.65625,1.46875 c -0.05609,0.202453 -0.08171,0.380214 -0.03125,0.46875 L 11.625,19.75 c 0.0833,-0.119213 0.155255,-0.275665 0.09375,-0.40625 l -0.25,-0.28125 z m 2.46875,0.0625 c -0.06133,0.2102 -0.08273,0.378427 -0.03125,0.46875 l 0.1875,0.21875 c 0.08224,-0.117215 0.124003,-0.27566 0.0625,-0.40625 L 13.9375,19.125 z m 2.5,0 c -0.05599,0.199315 -0.08091,0.381619 -0.03125,0.46875 l 0.1875,0.21875 c 0.08224,-0.117215 0.124005,-0.27566 0.0625,-0.40625 L 16.4375,19.125 z m 2.46875,0 c -0.06299,0.191964 -0.0931,0.360249 -0.03125,0.46875 l 0.1875,0.21875 c 0.08567,-0.117214 0.155257,-0.275658 0.09375,-0.40625 l -0.25,-0.28125 z"
         style="opacity:0.7;fill:#ffffff;fill-opacity:1;fill-rule:evenodd;stroke:none;display:inline"
         inkscape:connector-curvature="0" />
    </g>
  </g>
</svg>
