<?xml version="1.0" encoding="UTF-8" standalone="no"?>
<!-- Created with Inkscape (http://www.inkscape.org/) -->

<svg
   xmlns:dc="http://purl.org/dc/elements/1.1/"
   xmlns:cc="http://creativecommons.org/ns#"
   xmlns:rdf="http://www.w3.org/1999/02/22-rdf-syntax-ns#"
   xmlns:svg="http://www.w3.org/2000/svg"
   xmlns="http://www.w3.org/2000/svg"
   xmlns:xlink="http://www.w3.org/1999/xlink"
   xmlns:sodipodi="http://sodipodi.sourceforge.net/DTD/sodipodi-0.dtd"
   xmlns:inkscape="http://www.inkscape.org/namespaces/inkscape"
   width="24"
   height="24"
   id="svg2"
   sodipodi:version="0.32"
   inkscape:version="0.48.0 r9654"
   version="1.0"
   sodipodi:docname="xbmc.svg"
   inkscape:output_extension="org.inkscape.output.svg.inkscape"
   style="display:inline">
  <defs
     id="defs4">
    <linearGradient
       inkscape:collect="always"
       id="linearGradient3327">
      <stop
         style="stop-color:#000000;stop-opacity:1;"
         offset="0"
         id="stop3330" />
      <stop
         style="stop-color:#000000;stop-opacity:0;"
         offset="1"
         id="stop3333" />
    </linearGradient>
    <linearGradient
       inkscape:collect="always"
       xlink:href="#linearGradient3327"
       id="linearGradient3335"
       x1="11.375"
       y1="22"
       x2="11.375"
       y2="-9.817296"
       gradientUnits="userSpaceOnUse" />
    <linearGradient
       inkscape:collect="always"
       xlink:href="#linearGradient3700"
       id="linearGradient3181"
       x1="-3.0607977"
       y1="27.258198"
       x2="-3.0607977"
       y2="7.2536583"
       gradientUnits="userSpaceOnUse"
       gradientTransform="translate(12.119372,-7.2581977)" />
    <inkscape:perspective
       sodipodi:type="inkscape:persp3d"
       inkscape:vp_x="0 : 11 : 1"
       inkscape:vp_y="0 : 1000 : 0"
       inkscape:vp_z="22 : 11 : 1"
       inkscape:persp3d-origin="11 : 7.3333333 : 1"
       id="perspective2531" />
    <linearGradient
       id="ButtonShadow"
       gradientTransform="scale(0.9883037,1.0118347)"
       x1="9.3550024"
       y1="21.742682"
       x2="9.3550024"
       y2="0.49362123"
       gradientUnits="userSpaceOnUse">
      <stop
         id="stop3277"
         offset="0"
         style="stop-color:#000000;stop-opacity:0.70588237;" />
      <stop
         id="stop3279"
         offset="1"
         style="stop-color:#000000;stop-opacity:0.15686275;" />
    </linearGradient>
    <linearGradient
       inkscape:collect="always"
       id="linearGradient3232">
      <stop
         style="stop-color:#000000;stop-opacity:1;"
         offset="0"
         id="stop3234" />
      <stop
         style="stop-color:#000000;stop-opacity:0;"
         offset="1"
         id="stop3236" />
    </linearGradient>
    <linearGradient
       gradientUnits="userSpaceOnUse"
       y2="-6.0004225"
       x2="11"
       y1="14.805666"
       x1="11"
       id="linearGradient3221"
       xlink:href="#linearGradient3232"
       inkscape:collect="always" />
    <linearGradient
       id="ButtonColor"
       x1="10.31979"
       y1="21"
       x2="10.31979"
       y2="0.99929649"
       gradientUnits="userSpaceOnUse">
      <stop
         style="stop-color:#29669f;stop-opacity:1;"
         offset="0"
         id="stop3189" />
      <stop
         style="stop-color:#88b6e0;stop-opacity:1;"
         offset="1"
         id="stop3191" />
    </linearGradient>
    <linearGradient
       inkscape:collect="always"
       xlink:href="#ButtonShadow"
       id="linearGradient38042"
       gradientUnits="userSpaceOnUse"
       gradientTransform="scale(0.9883037,1.0118347)"
       x1="9.3550024"
       y1="21.742682"
       x2="9.3550024"
       y2="0.49362123" />
    <filter
       inkscape:collect="always"
       id="filter3194"
       x="-0.18000001"
       width="1.36"
       y="-0.18000001"
       height="1.36"
       color-interpolation-filters="sRGB">
      <feGaussianBlur
         inkscape:collect="always"
         stdDeviation="1.2"
         id="feGaussianBlur3196" />
    </filter>
    <clipPath
       clipPathUnits="userSpaceOnUse"
       id="clipPath2849">
      <rect
         ry="2"
         rx="2"
         y="1"
         x="1"
         height="20"
         width="20"
         id="rect2851"
         style="fill:#ffffff;fill-opacity:1;fill-rule:evenodd;stroke:none;display:inline" />
    </clipPath>
    <inkscape:perspective
       id="perspective3746"
       inkscape:persp3d-origin="0.5 : 0.33333333 : 1"
       inkscape:vp_z="1 : 0.5 : 1"
       inkscape:vp_y="0 : 1000 : 0"
       inkscape:vp_x="0 : 0.5 : 1"
       sodipodi:type="inkscape:persp3d" />
    <linearGradient
       inkscape:collect="always"
       xlink:href="#linearGradient3700"
       id="linearGradient3617"
       gradientUnits="userSpaceOnUse"
       x1="48"
       y1="90"
       x2="48"
       y2="5.9877172" />
    <linearGradient
       id="linearGradient3700">
      <stop
         style="stop-color:#344262;stop-opacity:1;"
         offset="0"
         id="stop3702" />
      <stop
         style="stop-color:#4a5e8c;stop-opacity:1;"
         offset="1"
         id="stop3704" />
    </linearGradient>
    <linearGradient
       gradientTransform="translate(-76,-49)"
       y2="5.9877172"
       x2="48"
       y1="90"
       x1="48"
       gradientUnits="userSpaceOnUse"
       id="linearGradient3755"
       xlink:href="#linearGradient3700"
       inkscape:collect="always" />
    <inkscape:perspective
       id="perspective3765"
       inkscape:persp3d-origin="0.5 : 0.33333333 : 1"
       inkscape:vp_z="1 : 0.5 : 1"
       inkscape:vp_y="0 : 1000 : 0"
       inkscape:vp_x="0 : 0.5 : 1"
       sodipodi:type="inkscape:persp3d" />
    <inkscape:perspective
       id="perspective3778"
       inkscape:persp3d-origin="0.5 : 0.33333333 : 1"
       inkscape:vp_z="1 : 0.5 : 1"
       inkscape:vp_y="0 : 1000 : 0"
       inkscape:vp_x="0 : 0.5 : 1"
       sodipodi:type="inkscape:persp3d" />
    <linearGradient
       inkscape:collect="always"
       xlink:href="#linearGradient3710"
       id="linearGradient3716"
       x1="56"
       y1="64"
       x2="16"
       y2="64"
       gradientUnits="userSpaceOnUse" />
    <linearGradient
       inkscape:collect="always"
       id="linearGradient3710">
      <stop
         style="stop-color:#d9822e;stop-opacity:1;"
         offset="0"
         id="stop3712" />
      <stop
         style="stop-color:#d9822e;stop-opacity:0;"
         offset="1"
         id="stop3714" />
    </linearGradient>
    <linearGradient
       gradientTransform="matrix(0.23809524,0,0,0.29999941,0.5714286,-1.6218385)"
       y2="64"
       x2="16"
       y1="64"
       x1="56"
       gradientUnits="userSpaceOnUse"
       id="linearGradient3787"
       xlink:href="#linearGradient3710"
       inkscape:collect="always" />
    <inkscape:perspective
       id="perspective3797"
       inkscape:persp3d-origin="0.5 : 0.33333333 : 1"
       inkscape:vp_z="1 : 0.5 : 1"
       inkscape:vp_y="0 : 1000 : 0"
       inkscape:vp_x="0 : 0.5 : 1"
       sodipodi:type="inkscape:persp3d" />
    <inkscape:perspective
       id="perspective3810"
       inkscape:persp3d-origin="0.5 : 0.33333333 : 1"
       inkscape:vp_z="1 : 0.5 : 1"
       inkscape:vp_y="0 : 1000 : 0"
       inkscape:vp_x="0 : 0.5 : 1"
       sodipodi:type="inkscape:persp3d" />
    <linearGradient
       y2="16"
       x2="10"
       y1="1"
       x1="10"
       gradientUnits="userSpaceOnUse"
       id="linearGradient3078"
       xlink:href="#linearGradient3823"
       inkscape:collect="always"
       gradientTransform="translate(1,-1)" />
    <linearGradient
       id="linearGradient3823">
      <stop
         id="stop3825"
         offset="0"
         style="stop-color:#ffffff;stop-opacity:1;" />
      <stop
         id="stop3829"
         offset="1"
         style="stop-color:#ffffff;stop-opacity:0;" />
    </linearGradient>
    <linearGradient
       inkscape:collect="always"
       xlink:href="#linearGradient3831"
       id="linearGradient3845"
       x1="11"
       y1="19.5"
       x2="21"
       y2="19.5"
       gradientUnits="userSpaceOnUse"
       spreadMethod="reflect"
       gradientTransform="translate(1,-1)" />
    <linearGradient
       id="linearGradient3831">
      <stop
         style="stop-color:#ffffff;stop-opacity:1;"
         offset="0"
         id="stop3833" />
      <stop
         id="stop3821"
         offset="0.75"
         style="stop-color:#ffffff;stop-opacity:0.49803922;" />
      <stop
         style="stop-color:#ffffff;stop-opacity:0;"
         offset="1"
         id="stop3835" />
    </linearGradient>
    <linearGradient
       y2="16"
       x2="10"
       y1="1"
       x1="10"
       gradientTransform="translate(1,-1)"
       gradientUnits="userSpaceOnUse"
       id="linearGradient4030"
       xlink:href="#linearGradient3823"
       inkscape:collect="always" />
  </defs>
  <sodipodi:namedview
     id="base"
     pagecolor="#ffffff"
     bordercolor="#e7e7e7"
     borderopacity="1"
     inkscape:pageopacity="0.0"
     inkscape:pageshadow="2"
     inkscape:zoom="27.778731"
     inkscape:cx="3.4844449"
     inkscape:cy="15.625124"
     inkscape:document-units="px"
     inkscape:current-layer="layer1"
     showgrid="true"
     inkscape:showpageshadow="false"
     showguides="false"
     inkscape:guide-bbox="true"
     inkscape:window-width="1920"
     inkscape:window-height="1026"
     inkscape:window-x="0"
     inkscape:window-y="25"
     inkscape:window-maximized="1">
    <sodipodi:guide
       orientation="1,0"
       position="0,112"
       id="guide2383" />
    <sodipodi:guide
       orientation="0,1"
       position="26.278146,128"
       id="guide2385" />
    <sodipodi:guide
       orientation="1,0"
       position="128,54.082119"
       id="guide2387" />
    <sodipodi:guide
       orientation="0,1"
       position="78.156291,0"
       id="guide2389" />
    <sodipodi:guide
       orientation="0,1"
       position="60.863576,64.084768"
       id="guide2391" />
    <inkscape:grid
       type="xygrid"
       id="grid3672"
       visible="true"
       enabled="true"
       empspacing="8"
       snapvisiblegridlinesonly="true" />
  </sodipodi:namedview>
  <metadata
     id="metadata7">
    <rdf:RDF>
      <cc:Work
         rdf:about="">
        <dc:format>image/svg+xml</dc:format>
        <dc:type
           rdf:resource="http://purl.org/dc/dcmitype/StillImage" />
        <dc:title />
      </cc:Work>
    </rdf:RDF>
  </metadata>
  <g
     inkscape:label="Button"
     inkscape:groupmode="layer"
     id="layer1"
     transform="translate(0,2)">
    <g
       style="display:inline"
       id="g3337"
       transform="translate(1,-1)">
      <rect
         ry="2.5"
         rx="2.5"
         y="0.5"
         x="0.5"
         height="21.5"
         width="21"
         id="rect3371"
         style="opacity:0.3;fill:url(#linearGradient3335);fill-opacity:1;stroke:none;display:inline" />
      <rect
         style="opacity:0.5;fill:#000000;fill-opacity:1;stroke:none;display:inline"
         id="rect2553"
         width="20"
         height="20"
         x="1"
         y="2"
         rx="2.3809524"
         ry="2.3255813" />
    </g>
    <rect
       style="fill:url(#linearGradient3181);fill-opacity:1;fill-rule:evenodd;stroke:none;display:inline"
       id="rect3173"
       width="20"
       height="20"
       x="2"
       y="0"
       rx="2"
       ry="2" />
    <path
       style="opacity:0.25;fill:url(#linearGradient4030);fill-opacity:1;fill-rule:evenodd;stroke:none;display:inline"
       d="M 4,0 C 2.892,0 2,0.892 2,2 l 0,16 c 0,1.108 0.892,2 2,2 l 16,0 c 1.108,0 2,-0.892 2,-2 L 22,2 C 22,0.892 21.108,0 20,0 L 4,0 z m 0,1.03125 16,0 c 0.5497,0 0.96875,0.4190495 0.96875,0.96875 l 0,16 c 0,0.5497 -0.41905,0.96875 -0.96875,0.96875 l -16,0 C 3.4502995,18.96875 3.03125,18.5497 3.03125,18 l 0,-16 C 3.03125,1.4502995 3.4502995,1.03125 4,1.03125 z"
       id="rect3050"
       inkscape:connector-curvature="0" />
    <path
       id="path3235"
       d="M 4,20 C 2.892,20 2,19.108 2,18 l 0,-1 c 0,1.108 0.892,2 2,2 l 16,0 c 1.108,0 2,-0.892 2,-2 l 0,1 c 0,1.108 -0.892,2 -2,2 L 4,20 z"
       style="opacity:0.15;fill:url(#linearGradient3845);fill-opacity:1;fill-rule:evenodd;stroke:none;display:inline"
       inkscape:connector-curvature="0" />
  </g>
  <g
     inkscape:groupmode="layer"
     id="layer2"
     inkscape:label="Highlight"
     transform="translate(0,2)"
     sodipodi:insensitive="true">
    <rect
       style="opacity:0.1;fill:#ffffff;fill-opacity:1;fill-rule:nonzero;stroke:none;display:inline;filter:url(#filter3194)"
       id="rect2410"
       width="16"
       height="16"
       x="3"
       y="3"
       rx="2"
       ry="2"
       clip-path="url(#clipPath2849)"
       transform="translate(1,-1)" />
  </g>
  <g
     inkscape:groupmode="layer"
     id="layer3"
     inkscape:label="Symbol"
     transform="translate(0,2)"
     sodipodi:insensitive="true">
    <path
       style="opacity:0.1;fill:#000000;fill-opacity:1"
       d="M 14.21875,1.09375 C 13.090501,1.064457 14.022623,3.0268763 12.90625,2.71875 11.686165,2.63273 10.472657,3.0902562 9.59375,3.9375 8.9344503,2.8177412 7.5137382,2.6810676 6.34375,2.71875 5.5920045,2.627766 4.3723345,2.779225 4.84375,3.84375 5.080846,4.981985 6.3331779,4.9512382 7.2397743,4.978682 8.0235773,5.2047156 8.1074084,6.1973036 7.7058998,6.7947302 7.3136846,7.4948607 6.5071739,7.8317755 5.7273675,7.7237402 4.7414862,7.6880744 3.644859,8.4853229 3.6263641,9.517641 3.6540991,9.9689535 4.1623712,10.008494 4.509385,9.96875 5.2160198,9.96497 5.93009,9.99835 6.625,9.84375 c -1.349079,0.364726 -2.5852458,1.39671 -3,2.75 0.00195,0.853118 -0.3721002,1.636125 -0.4167044,2.484161 0.024227,0.625055 -0.6087919,1.70847 0.3229544,1.890839 0.8392876,0.01333 1.6096065,-0.617087 1.84375,-1.40625 0.1205051,-0.367294 0.1804917,-1.148333 0.3156852,-1.831121 0.040254,-0.938236 0.8599476,-1.941318 1.8678549,-1.795005 0.9664836,-0.0093 1.1525189,1.16565 0.9230338,1.902576 -0.077757,0.868909 -0.5153754,1.91881 0.1981025,2.642776 0.3774592,0.488504 1.4636096,0.795127 1.6953236,0.04952 0.172946,-1.165974 0.278349,-2.353152 0.5625,-3.5 0.302086,-0.698331 1.044889,-1.222121 1.823086,-1.09623 0.912882,0.08936 0.975784,1.175189 0.827356,1.879525 -0.06293,0.85049 -0.523346,1.862553 0.142528,2.590012 0.386847,0.55907 1.68659,0.915779 1.76953,-0.02956 0.006,-0.514343 0.632414,0.501876 1.057847,0.406728 0.981994,0.309067 2.023298,0.194506 3.035903,0.218272 0.941198,-0.320144 0.396832,-1.752193 -0.3125,-2.0625 -0.723795,-0.428047 -1.784547,0.153158 -2.31991,-0.657128 -0.604735,-0.849357 0.139811,-1.951682 0.972929,-2.296845 0.853136,-0.176629 1.92542,0.09819 2.549049,-0.713714 0.33762,-0.376949 0.804168,-1.106076 0.300906,-1.5301694 C 20.386777,9.5652819 19.924379,9.6973906 19.5,9.65625 18.191672,9.5740475 16.805715,9.8878954 15.868947,10.862584 15.320282,11.738788 14.996302,10.077527 14.25,10 13.784933,9.8043711 13.223695,9.9717262 13.604454,9.3791042 13.797552,8.8948903 12.900822,7.7457972 13.493792,8.6598335 14.470148,10.090043 16.547912,10.411694 17.996044,9.5377943 18.822317,9.2244297 19.219523,8.3305186 19.877725,7.9035248 20.19061,7.336309 20.275219,6.6195159 20.375,5.96875 20.404959,5.3927871 20.226311,4.8876221 19.991212,4.3570382 19.423538,3.2335878 18.153966,2.6141159 16.920677,2.6672975 16.458449,2.5264033 15.467807,2.9995568 15.659506,2.1831454 15.442852,1.597558 14.85599,1.1063494 14.21875,1.09375 z M 13.125,4.875 C 13.04179,5.9233222 12.616156,7.0270383 13.14515,8.0316093 13.29185,8.3116523 12.517295,7.5997801 12.183446,7.7409271 11.403728,7.845114 10.285507,7.569506 10.450825,6.5540955 10.547399,5.5309237 11.632749,4.8013987 12.625,4.9375 c 0.169252,0.00467 0.335316,-0.028551 0.5,-0.0625 z m 2.3125,0.0625 c 0.62291,0.015374 1.251162,-0.03741 1.869762,0.023854 1.024876,0.3972669 0.818286,1.8910368 0.03464,2.4302123 C 16.681717,7.9901525 15.361281,7.8747451 15.21875,6.84375 15.190767,6.2066388 15.358529,5.5677706 15.4375,4.9375 z M 8.8125,8.75 c 0.5818562,0.8467557 1.612497,1.278162 2.625,1.21875 C 10.770537,9.982311 10.133242,11.150414 9.6828111,10.3807 9.0982655,9.7387223 7.597724,9.6679554 7.2076921,9.6828847 7.8000478,9.4881123 8.3467194,9.1633757 8.8125,8.75 z"
       id="path3731"
       inkscape:connector-curvature="0" />
    <path
       style="opacity:0.3;fill:#000000;fill-opacity:1"
       d="m 14.21875,1.5894193 c -0.0868,0 -0.116644,0.024104 -0.125,0.0625 -0.0052,0.024066 -0.06572,0.3701765 -0.125,0.78125 -0.05928,0.411073 -0.08767,0.7438993 -0.09375,0.75 -0.006,0.0061 -0.453504,0.024857 -0.96875,0.03125 -0.916439,0.01137 -0.92662,0.012588 -1.15625,0.0625 -0.742544,0.161388 -1.380026,0.5204594 -2,1.125 L 9.53125,4.6206693 9.5,4.5581693 C 9.2700181,4.1868087 9.0822857,3.9740794 8.84375,3.7769193 c -0.3560342,-0.2942781 -0.7572621,-0.457109 -1.25,-0.53125 -0.1547512,-0.023285 -0.4121344,-0.031157 -1.25,-0.03125 -0.9423354,-9.72e-5 -1.0519354,0.00372 -1.0625,0.03125 -0.022034,0.057434 0.00375,0.365365 0.03125,0.46875 0.08059,0.302733 0.2900345,0.5382176 0.59375,0.65625 0.1020815,0.03967 0.1802573,0.049391 0.6875,0.0625 0.6058664,0.015658 0.7299508,0.05615 0.96875,0.15625 0.3917833,0.164229 0.7310626,0.5583659 0.84375,1 0.074545,0.2921432 0.021765,0.7229198 -0.09375,1.0625 -0.2413174,0.7095032 -0.8976213,1.306638 -1.625,1.5 -0.1693806,0.045031 -0.2151125,0.048843 -0.75,0.0625 -0.6170421,0.015763 -0.6798702,0.024893 -0.90625,0.125 -0.2403461,0.1062926 -0.5267517,0.333698 -0.6875,0.5625 -0.1031826,0.146866 -0.2106787,0.367952 -0.21875,0.46875 l 0,0.09375 0.9375,0 c 0.9938738,0.006 1.2554893,-0.02501 1.59375,-0.09375 0.709112,-0.144079 1.4240858,-0.527224 2.03125,-1.125 0.1063227,-0.1046786 0.1849076,-0.1875 0.1875,-0.1875 0.00255,0 0.042207,0.069417 0.09375,0.15625 0.3112665,0.52447 0.7739486,0.905317 1.34375,1.09375 0.38664,0.127862 0.474713,0.147769 1.6875,0.15625 l 1.0625,0 0.03125,-0.0625 c 0.02883,-0.07584 0.0332,-0.310091 0,-0.4375 -0.08661,-0.332534 -0.337324,-0.5845489 -0.65625,-0.6875 -0.114777,-0.03706 -0.178342,-0.049637 -0.6875,-0.0625 -0.647357,-0.016348 -0.751515,-0.041964 -1.03125,-0.1875 -0.459874,-0.2392535 -0.7805484,-0.7733936 -0.78125,-1.3125 -3.203e-4,-0.2820045 0.090707,-0.6817228 0.21875,-0.9375 0.229245,-0.4579449 0.715459,-0.9009968 1.1875,-1.125 0.332672,-0.1578665 0.632236,-0.2187228 1.28125,-0.21875 0.310589,-1.38e-5 0.382519,-0.00115 0.5,-0.03125 0.177264,-0.045415 0.33218,-0.094685 0.46875,-0.1875 0.05723,-0.038897 0.120726,-0.09375 0.125,-0.09375 0.02038,0 -0.02148,0.2042126 -0.15625,1.125 -0.187646,1.2822217 -0.188201,1.2734533 -0.1875,1.59375 0.0016,0.7304774 0.279587,1.3406855 0.8125,1.875 0.301367,0.302161 0.580142,0.487905 0.96875,0.625 0.153702,0.05422 0.480965,0.137792 0.65625,0.15625 0.15133,0.01592 0.56397,0.01859 0.71875,0 0.705962,-0.08533 1.313766,-0.371857 1.90625,-0.84375 0.4441,-0.3537091 0.80509,-0.7649509 1.0625,-1.25 0.0466,-0.087806 0.09089,-0.1590981 0.09375,-0.15625 -0.09836,0.5575408 -0.0074,0.1468145 0.0625,-0.1875 0.134805,-0.3736473 0.188626,-0.6463723 0.21875,-1.09375 l 0,-0.28125 -0.03125,-0.25 C 19.768893,4.930407 19.58885,4.5209647 19.25,4.1206693 18.948459,3.7644473 18.559326,3.4926409 18.125,3.3394193 17.696753,3.188341 17.39284,3.1528264 16.09375,3.1519193 l -0.875,0 0,-0.09375 c 0.06967,-0.5448139 0.01186,-0.830484 -0.28125,-1.125 -0.212983,-0.2140052 -0.466249,-0.34375 -0.71875,-0.34375 z m 0.8125,2.84375 1.09375,0 c 1.213156,0.00827 1.214074,0.00336 1.53125,0.15625 0.59412,0.2863767 0.922761,0.9422361 0.84375,1.625 -0.05958,0.5149161 -0.251157,0.9575055 -0.59375,1.3125 -0.359236,0.3722406 -0.734762,0.5667157 -1.15625,0.65625 -0.207808,0.044134 -0.612136,0.071171 -0.8125,0.03125 -0.596473,-0.1188103 -1.074438,-0.6577486 -1.1875,-1.28125 -0.04547,-0.250729 -0.01984,-0.4669462 0.125,-1.46875 0.07632,-0.5279286 0.146072,-0.9753508 0.15625,-1 l 0,-0.03125 z M 12.75,10.151919 c -0.275539,-0.0014 -0.572452,0.05694 -0.84375,0.125 -0.649184,0.162841 -1.248416,0.493958 -1.75,0.96875 -0.09102,0.08615 -0.150252,0.15625 -0.15625,0.15625 -0.00595,0 -0.066082,-0.07846 -0.125,-0.15625 -0.1428756,-0.188663 -0.4020172,-0.425968 -0.59375,-0.5625 -0.3079459,-0.21929 -0.7418726,-0.397798 -1.125,-0.46875 -0.2298176,-0.04256 -0.8412774,-0.06984 -1.0625,-0.03125 -0.8016364,0.139739 -1.4813321,0.515127 -2.09375,1.125 -0.3490746,0.347625 -0.602639,0.668957 -0.8125,1.125 -0.087623,0.201298 -0.072284,0.212501 -0.09375,0.53125 -0.030217,0.448797 -0.083517,0.718917 -0.21875,1.09375 -0.033697,0.09341 -0.081226,0.248242 -0.125,0.53125 -0.03799,0.261663 -0.0908,0.71541 -0.1875,1.375 -0.049532,0.337856 -0.075663,0.491863 -0.0625,0.5 0.03404,0.02104 0.1946779,0.0087 0.34375,-0.03125 0.1147778,-0.03081 0.2391906,-0.06761 0.34375,-0.125 0.036452,-0.02 0.058925,-0.03964 0.09375,-0.0625 0.015102,-0.0099 0.016484,-0.02085 0.03125,-0.03125 0.034248,-0.02417 0.092682,-0.06698 0.125,-0.09375 0.2242363,-0.185703 0.3759492,-0.414547 0.46875,-0.6875 0.012962,-0.04342 0.049234,-0.09471 0.0625,-0.15625 0.00643,-0.03107 -0.0092,-0.07428 0,-0.125 0.016116,-0.08886 0.040749,-0.179138 0.0625,-0.3125 0.03031,-0.185835 0.06085,-0.368308 0.09375,-0.59375 0.080874,-0.554167 0.1658017,-1.103189 0.1875,-1.1875 0.021697,-0.08431 0.098181,-0.224333 0.15625,-0.34375 0.2952113,-0.607095 0.8451605,-1.08539 1.46875,-1.25 0.1345596,-0.03552 0.2230765,-0.03063 0.5,-0.03125 0.3844761,-8.47e-4 0.508974,0.01534 0.78125,0.15625 0.3144106,0.16273 0.6342601,0.520472 0.75,0.875 0.1255395,0.384555 0.1164928,0.525356 -0.0625,1.75 -0.1548748,1.059627 -0.179162,1.260804 -0.125,1.46875 0.085378,0.32778 0.3640539,0.628981 0.6875,0.75 0.1107863,0.04145 0.3742541,0.05101 0.40625,0.03125 0.01037,-0.0064 0.1205849,-0.708787 0.25,-1.59375 0.228908,-1.56531 0.262735,-1.82571 0.34375,-2.03125 0.22978,-0.582955 0.793469,-1.098962 1.375,-1.3125 0.250239,-0.09189 0.344929,-0.09304 0.6875,-0.09375 0.387935,-8.05e-4 0.469886,-0.01258 0.75,0.125 0.295699,0.145227 0.563169,0.451852 0.71875,0.78125 0.11561,0.244768 0.125655,0.335583 0.125,0.6875 -5.09e-4,0.286537 0.0056,0.381436 -0.125,1.25 -0.161828,1.076061 -0.186315,1.219283 -0.09375,1.46875 0.122849,0.331096 0.421508,0.603426 0.75,0.6875 0.124043,0.03174 0.293413,0.05035 0.3125,0.03125 0.0063,-0.0062 0.07213,-0.293008 0.125,-0.65625 0.106872,-0.734312 0.100003,-0.75 0.125,-0.75 0.0097,0 0.06006,0.03486 0.09375,0.09375 0.157959,0.276087 0.475834,0.648781 0.75,0.84375 0.299416,0.212926 0.700354,0.363782 1.09375,0.4375 0.195401,0.03661 0.307626,0.05406 1.28125,0.0625 0.588148,0.005 1.067562,0.0065 1.09375,0 0.04597,-0.01153 0.06294,-0.02301 0.0625,-0.1875 -3.22e-4,-0.09369 -0.02013,-0.202011 -0.03125,-0.25 -0.06021,-0.261367 -0.255809,-0.559181 -0.5,-0.6875 -0.20593,-0.108211 -0.334917,-0.12461 -0.84375,-0.125 -0.466202,-3.54e-4 -0.67584,-0.01715 -0.90625,-0.09375 -0.361821,-0.120344 -0.731833,-0.46259 -0.90625,-0.84375 -0.257035,-0.561693 -0.183745,-1.268761 0.21875,-1.875 0.120303,-0.181199 0.463376,-0.524115 0.65625,-0.65625 0.191016,-0.130864 0.432876,-0.246512 0.65625,-0.3125 0.166167,-0.04908 0.186875,-0.04791 0.75,-0.0625 0.643584,-0.01667 0.733807,-0.01564 0.96875,-0.125 0.258401,-0.120281 0.547404,-0.389026 0.6875,-0.625 0.07651,-0.128886 0.146676,-0.309388 0.15625,-0.40625 l 0,-0.09375 -1,0 c -1.055549,-0.006 -1.249889,0.01994 -1.59375,0.09375 -0.902024,0.193693 -1.816709,0.825953 -2.375,1.65625 -0.136478,0.202972 -0.146479,0.205446 -0.21875,0 -0.206576,-0.587558 -0.703375,-1.180343 -1.28125,-1.46875 C 13.658417,10.247095 13.209231,10.1542 12.75,10.151919 z"
       id="path3724"
       inkscape:connector-curvature="0" />
    <path
       style="fill:url(#linearGradient3787);fill-opacity:1"
       d="m 22,16.96875 c -4.403955,0.07917 -8.918349,0.07909 -13.333333,0.08438 -3.4748653,0.0024 -5.8200736,0.0022 -6.666667,0 l 0,0.187499 c 2.5706952,-0.01056 8.180674,0.01746 10.074405,0.05625 3.201709,0.0918 6.791555,0.140337 9.866071,0.693749 0.0017,0.0022 -0.0037,0.0054 -0.0074,0.0094 0.01721,-0.0099 0.04549,-0.01381 0.05952,-0.0094 0.0015,4.8e-4 0.0055,-6.5e-5 0.0074,0 l 0,-1.021873 z"
       id="path3666"
       inkscape:connector-curvature="0" />
    <path
       style="fill:#bdd1e3;fill-opacity:1"
       d="m 12.745857,9.665509 c -0.275539,-0.0014 -0.5579,0.03245 -0.829198,0.100509 -0.649184,0.162841 -1.252297,0.495118 -1.753881,0.96991 -0.09102,0.08615 -0.1698922,0.155789 -0.1758904,0.155789 -0.00595,0 -0.056667,-0.06292 -0.115585,-0.140713 C 9.728427,10.562341 9.4750578,10.314637 9.283325,10.178105 8.9753791,9.958815 8.5407529,9.776664 8.1576255,9.705712 7.9278079,9.663152 7.3084284,9.662122 7.0872058,9.700712 6.2855694,9.840451 5.5989877,10.201463 4.9865698,10.811336 4.6374952,11.158961 4.407436,11.491043 4.197575,11.947086 c -0.087623,0.201298 -0.089094,0.203898 -0.11056,0.522647 -0.030217,0.448797 -0.080861,0.710663 -0.2160939,1.085496 -0.033697,0.09341 -0.071811,0.26979 -0.1155852,0.552798 -0.03799,0.261663 -0.099293,0.68723 -0.1959925,1.34682 -0.049532,0.337856 -0.068442,0.51451 -0.055279,0.522647 0.03404,0.02104 0.1926584,0.0048 0.3417305,-0.03519 0.1147778,-0.03081 0.222094,-0.0783 0.3266534,-0.135687 0.036452,-0.02 0.07071,-0.04247 0.1055348,-0.06533 0.015102,-0.0099 0.030462,-0.01974 0.045228,-0.03014 0.034248,-0.02417 0.068191,-0.04861 0.100509,-0.07538 0.2242363,-0.185703 0.3996924,-0.430609 0.4924932,-0.703562 0.012962,-0.04342 0.026937,-0.09425 0.040203,-0.155789 0.00643,-0.03107 0.015921,-0.07994 0.025126,-0.130662 0.016116,-0.08886 0.028503,-0.163137 0.050254,-0.296499 0.03031,-0.185835 0.062584,-0.387664 0.095484,-0.613106 0.080874,-0.554167 0.1642432,-1.076567 0.1859415,-1.160878 0.021697,-0.08431 0.087669,-0.24744 0.145738,-0.366857 0.2952113,-0.607095 0.8538909,-1.076679 1.4774804,-1.241289 0.1345596,-0.03552 0.2155696,-0.04461 0.4924931,-0.04523 0.3844761,-8.47e-4 0.5267701,0.02995 0.7990461,0.170865 0.3144106,0.16273 0.6230005,0.534976 0.7387404,0.889504 0.1255395,0.384555 0.1237148,0.499083 -0.055278,1.723727 -0.1548748,1.059627 -0.169747,1.25948 -0.115585,1.467426 0.085378,0.32778 0.360015,0.627773 0.6834611,0.748792 0.1107863,0.04145 0.365014,0.08007 0.3970099,0.06031 0.01037,-0.0064 0.1218571,-0.73323 0.2512722,-1.618193 0.228908,-1.56531 0.270767,-1.80465 0.351782,-2.01019 0.22978,-0.582955 0.770314,-1.113179 1.351845,-1.326717 0.250239,-0.09189 0.345915,-0.104823 0.688486,-0.105535 0.387935,-8.05e-4 0.488779,0.01821 0.768893,0.155789 0.295699,0.145227 0.558032,0.424419 0.713613,0.753817 0.11561,0.244768 0.136342,0.35667 0.135687,0.708587 -5.09e-4,0.286537 -0.0101,0.387798 -0.140712,1.256362 -0.161828,1.076061 -0.167945,1.217963 -0.07538,1.46743 0.122849,0.331096 0.415274,0.604412 0.743766,0.688486 0.124043,0.03174 0.297517,0.04422 0.316604,0.02512 0.0063,-0.0062 0.05266,-0.305142 0.105534,-0.668384 0.106872,-0.734312 0.11069,-0.748793 0.135687,-0.748793 0.0097,0 0.04169,0.04665 0.07538,0.105535 0.157959,0.276087 0.494727,0.64428 0.768893,0.839249 0.299416,0.212926 0.682049,0.368522 1.075445,0.44224 0.195401,0.03661 0.312889,0.04181 1.286513,0.05025 0.588148,0.005 1.089461,0.0016 1.115649,-0.0049 0.04597,-0.01153 0.04568,-0.01642 0.04524,-0.180914 -3.22e-4,-0.09369 -0.009,-0.208309 -0.02012,-0.256298 -0.06021,-0.261367 -0.27845,-0.545146 -0.522641,-0.673465 -0.20593,-0.108211 -0.335447,-0.125246 -0.84428,-0.125636 -0.466202,-3.54e-4 -0.669145,-0.02391 -0.899555,-0.10051 -0.361821,-0.120344 -0.725134,-0.458144 -0.899551,-0.839304 -0.257035,-0.561693 -0.1663,-1.288353 0.236195,-1.894592 0.120303,-0.181199 0.440332,-0.50107 0.633206,-0.633205 0.191016,-0.130864 0.429934,-0.24559 0.653308,-0.311578 0.166167,-0.04908 0.205768,-0.05074 0.768893,-0.06533 0.643584,-0.01667 0.719891,-0.03135 0.954834,-0.140713 0.258401,-0.120281 0.543365,-0.372104 0.683461,-0.608078 0.07651,-0.128886 0.15124,-0.325276 0.160814,-0.422138 l 0.0049,-0.07035 -1.01514,-0.005 c -1.055549,-0.006 -1.24418,0.0066 -1.588041,0.08041 -0.902024,0.193693 -1.803668,0.823075 -2.361959,1.653372 -0.136478,0.202972 -0.143823,0.205446 -0.216094,0 C 15.112179,10.811785 14.600171,10.240412 14.022296,9.952005 13.649463,9.765931 13.205065,9.667835 12.745834,9.665554 z"
       id="path3672"
       inkscape:connector-curvature="0" />
    <path
       style="fill:#85c226;fill-opacity:1"
       d="m 14.20914,1.1093296 c -0.0868,0 -0.101853,0.00669 -0.110209,0.045086 -0.0052,0.024066 -0.05594,0.3804359 -0.115221,0.7915094 -0.05928,0.411073 -0.114147,0.7503416 -0.12023,0.7564423 -0.006,0.0061 -0.431558,0.018654 -0.946804,0.025047 -0.916439,0.01137 -0.942605,0.010203 -1.172235,0.060115 -0.742544,0.161388 -1.383847,0.522608 -2.0038214,1.1271486 L 9.5201984,4.1250791 9.4851217,4.0699745 C 9.2551398,3.6986139 9.0824347,3.490654 8.843899,3.2934939 8.4878648,2.9992158 8.0942682,2.8266037 7.6015303,2.7524627 7.4467791,2.7291774 7.1920178,2.7224973 6.3541522,2.7224048 c -0.9423354,-9.72e-5 -1.0514604,0.00253 -1.062025,0.030058 -0.022034,0.057434 -0.012486,0.3675129 0.015017,0.4708979 0.08059,0.302733 0.3074491,0.5482378 0.6111646,0.6662702 0.1020815,0.03967 0.1540183,0.047006 0.661261,0.060115 0.6058664,0.015658 0.7380633,0.035157 0.9768625,0.1352574 0.3917833,0.164229 0.723908,0.5602766 0.8365954,1.0019107 0.074545,0.2921432 0.045371,0.7174352 -0.070144,1.0570154 C 8.0815663,6.8534326 7.4271677,7.4634531 6.699789,7.6568151 6.5304084,7.7018462 6.4632054,7.7082779 5.9283179,7.7219346 5.3112758,7.7376974 5.2429594,7.7470663 5.0165796,7.8471737 4.7762335,7.9534663 4.5060474,8.179442 4.3452991,8.408244 4.2421165,8.55511 4.13295,8.788362 4.1248787,8.88916 l -0.00491,0.06512 0.9568242,0.01003 C 6.0706667,8.97031 6.3265604,8.95791 6.6648211,8.88917 7.3739331,8.745091 8.0664864,8.354787 8.6736506,7.7570113 8.7799733,7.6523327 8.8664307,7.5666479 8.8690231,7.5666479 c 0.00255,0 0.048648,0.068463 0.1001906,0.1552961 0.3112665,0.52447 0.7827789,0.908659 1.3525803,1.097092 0.38664,0.127862 0.450383,0.131786 1.66317,0.140267 l 1.092082,0.01002 0.02004,-0.05009 c 0.02883,-0.07584 0.02318,-0.318442 -0.01002,-0.445851 C 13.000452,8.140848 12.759761,7.8800035 12.440835,7.7770524 12.326058,7.7399924 12.243647,7.7348168 11.734489,7.7219534 11.087132,7.7056051 11.002293,7.6921562 10.722558,7.54662 10.262684,7.3073665 9.9467807,6.7732232 9.9460791,6.2341168 9.9457588,5.9521123 10.043466,5.5430884 10.171509,5.2873112 10.400754,4.8293663 10.861683,4.3791557 11.333724,4.1551525 11.666396,3.997286 11.962147,3.9497882 12.611161,3.949761 c 0.310589,-1.38e-5 0.408521,-0.00998 0.526002,-0.040076 0.177264,-0.045415 0.324309,-0.1075675 0.460879,-0.2003821 0.05723,-0.038897 0.110946,-0.070134 0.11522,-0.070134 0.02038,0 -0.0055,0.1863233 -0.140268,1.1071107 -0.187646,1.2822217 -0.186055,1.28276 -0.185354,1.6030567 0.0016,0.7304774 0.253588,1.3342502 0.786501,1.8685647 0.301367,0.302161 0.598273,0.494108 0.986881,0.631203 0.153702,0.05422 0.485976,0.121809 0.661261,0.140267 0.15133,0.01592 0.561586,0.01369 0.716366,-0.0049 0.705962,-0.08533 1.316155,-0.344664 1.908639,-0.816557 0.4441,-0.3537091 0.794596,-0.7723487 1.052006,-1.2573978 0.0466,-0.087806 0.08732,-0.158144 0.09018,-0.1552959 -0.09836,0.5575408 -0.0048,0.1439517 0.06513,-0.1903628 0.134805,-0.3736473 0.185287,-0.6346858 0.215411,-1.0820635 l 0.01002,-0.3005835 -0.03507,-0.2354489 C 19.770108,4.4439993 19.577576,4.0244247 19.238726,3.6241293 18.937185,3.2679073 18.545903,2.9958611 18.111577,2.8426395 17.68333,2.6915612 17.381799,2.6682122 16.082709,2.6673051 l -0.871663,-0.005 0.01502,-0.1001907 C 15.295735,2.0173005 15.218598,1.7344876 14.925493,1.4399716 14.71251,1.2259664 14.461629,1.109341 14.209128,1.109341 l 1.3e-5,-7.6e-6 z m 0.831586,2.8153658 1.077054,0.010022 c 1.213156,0.00827 1.205727,0.00742 1.522903,0.160306 0.59412,0.2863767 0.945664,0.9503501 0.866653,1.633114 -0.05958,0.5149161 -0.263562,0.9474897 -0.606155,1.3024842 -0.359236,0.3722406 -0.715681,0.581746 -1.137169,0.6712803 -0.207808,0.044134 -0.611184,0.049942 -0.811548,0.010021 -0.596473,-0.1188103 -1.089231,-0.6389066 -1.202293,-1.262408 -0.04547,-0.250729 -0.02962,-0.4710043 0.11522,-1.4728081 0.07632,-0.5279286 0.150128,-0.9822711 0.160306,-1.0069203 l 0.01503,-0.045086 z"
       id="path3670"
       sodipodi:nodetypes="cssssscccsssssssssssssscccssssscccssssssssssssssssssscccccsscccsccccssssssscc"
       inkscape:connector-curvature="0" />
  </g>
</svg>
