<svg height="16" width="16" xmlns="http://www.w3.org/2000/svg"><title>Gnome Symbolic Icon Theme</title><g color="#000" fill="#bebebe"><path d="M9 8V12.28A1.995 1.995 0 0 0 8 12a2 2 0 1 0 2 2V9h4v3.28a1.995 1.995 0 0 0-1-.28 2 2 0 1 0 2 2V8H9z" overflow="visible"/><path d="M1.97 0S1 1 1 2v12c0 1.01-1 2-1 2h1s.423-.427.72-1h1c-.297.573-.72 1-.72 1h1s1-1.02 1-2v-2h1v-1H4V6h8v1h3V2c0-1 .97-2 .97-2h-3S12 1 12 2v3H4V2c0-1 .97-2 .97-2zm.31 1h1c-.15.306-.28.652-.28 1H2c0-.348.13-.694.28-1zm11 0h1c-.15.306-.28.652-.28 1h-1c0-.348.13-.694.28-1zM2 3h1v1H2zm11 0h1v1h-1zM2 5h1v1H2zm11 0h1v1h-1zM2 7h1v1H2zm0 2h1v1H2zm0 2h1v1H2zm0 2h1v1H2z" overflow="visible"/></g></svg>