<svg width="16" height="16" xmlns="http://www.w3.org/2000/svg"><title>Gnome Symbolic Icon Theme</title><g transform="translate(-482 -462)" color="#000" fill="#bebebe"><rect width="6" height="16" ry="2.986" rx="2.934" y="461.999" x="482" overflow="visible"/><path d="M487.406 462c.878.712 1.47 1.792 1.47 3v1H491c-.074-1.093 1.25-2 2-2 .68 0 1 .01 1 1v1h1.22c1.228-.6 1.78-1.97 1.78-2.688 0-.736-2.385-1.313-3.687-1.313zM489 467v4.313c2.766 2.66 6.125 2.406 6.125 2.406s.353-1.522-1.906-4.033L490.843 467h-1.782c-.022.002-.04-.002-.063 0zm2.975 2.532l1.684 1.737c-1.8.164-2.152-.858-1.685-1.738z" overflow="visible"/></g></svg>