<svg height="16" xmlns="http://www.w3.org/2000/svg" width="16"><title>Gnome Symbolic Icon Theme</title><g font-weight="400" color="#000" fill="#bebebe" font-family="Sans"><path d="M3.55.09a3.5 3.5 0 0 0-1.144.216l1.885 1.88c.388.386.388 1 0 1.387l-.71.708a.98.98 0 0 1-1.39 0L.303 2.403a3.473 3.473 0 0 0-.216 1.14c0 1.906 1.55 3.45 3.46 3.45a3.5 3.5 0 0 0 1.144-.215l1.174 1.17a2.472 2.465 0 0 1 .062 0l2.07-2.063-1.205-1.202c.125-.356.217-.742.217-1.14 0-1.906-1.55-3.45-3.46-3.45zm6.55 7.89l-2.07 2.064a2.472 2.465 0 0 1 .03.092l1.144 1.14a3.474 3.474 0 0 0-.217 1.14c0 1.907 1.55 3.452 3.46 3.452.435 0 .855-.102 1.237-.247l-2.008-2.002a1.01 1.01 0 0 1 0-1.417l.68-.677c.193-.193.457-.308.71-.308.253 0 .517.115.71.308l1.947 1.94c.105-.328.186-.682.186-1.046 0-1.907-1.55-3.452-3.462-3.452a3.5 3.5 0 0 0-1.143.216L10.1 7.98z" style="text-indent:0;text-align:start;line-height:normal;text-transform:none;block-progression:tb;-inkscape-font-specification:Sans" overflow="visible"/><path d="M13.858 0l-1.542 1.438c-.452.42-.53 1.148-.267 1.706L6.16 9.14a1.492 1.488 0 0 0-.03 0 1.492 1.488 0 0 0-.84-.148 1.492 1.488 0 0 0-.867.44L.477 13.43a1.494 1.49 0 1 0 2.13 2.09l3.946-3.997a1.492 1.488 0 0 0 .297-1.738l5.888-5.965c.558.25 1.273.147 1.707-.292l1.417-1.56L13.858 0z" style="text-indent:0;text-align:start;line-height:normal;text-transform:none;block-progression:tb;-inkscape-font-specification:Sans" overflow="visible"/></g></svg>