<?xml version="1.0" encoding="UTF-8" standalone="no"?>
<!-- Created with Inkscape (http://www.inkscape.org/) -->

<svg
   xmlns:dc="http://purl.org/dc/elements/1.1/"
   xmlns:cc="http://creativecommons.org/ns#"
   xmlns:rdf="http://www.w3.org/1999/02/22-rdf-syntax-ns#"
   xmlns:svg="http://www.w3.org/2000/svg"
   xmlns="http://www.w3.org/2000/svg"
   xmlns:xlink="http://www.w3.org/1999/xlink"
   xmlns:sodipodi="http://sodipodi.sourceforge.net/DTD/sodipodi-0.dtd"
   xmlns:inkscape="http://www.inkscape.org/namespaces/inkscape"
   width="22"
   height="22"
   id="svg2"
   sodipodi:version="0.32"
   inkscape:version="0.48.0 r9654"
   version="1.0"
   sodipodi:docname="computer.svg"
   inkscape:output_extension="org.inkscape.output.svg.inkscape"
   style="display:inline">
  <defs
     id="defs4">
    <linearGradient
       inkscape:collect="always"
       id="linearGradient3941">
      <stop
         style="stop-color:#ffffff;stop-opacity:1;"
         offset="0"
         id="stop3943" />
      <stop
         style="stop-color:#ffffff;stop-opacity:0;"
         offset="1"
         id="stop3945" />
    </linearGradient>
    <linearGradient
       id="linearGradient3175">
      <stop
         id="stop3177"
         offset="0"
         style="stop-color:#55a6eb;stop-opacity:1;" />
      <stop
         id="stop3179"
         offset="1"
         style="stop-color:#1754c4;stop-opacity:1;" />
    </linearGradient>
    <radialGradient
       gradientUnits="userSpaceOnUse"
       gradientTransform="matrix(-5.0683284e-3,1.2204755,-1.3843695,-5.7456085e-3,26.241279,-46.842142)"
       r="35.9375"
       fy="-15.894132"
       fx="48"
       cy="-15.894132"
       cx="48"
       id="radialGradient3465"
       xlink:href="#linearGradient3175"
       inkscape:collect="always" />
    <filter
       height="1.84"
       y="-0.42000001"
       width="1.336"
       x="-0.168"
       id="filter3531"
       inkscape:collect="always">
      <feGaussianBlur
         id="feGaussianBlur3533"
         stdDeviation="0.55"
         inkscape:collect="always" />
    </filter>
    <linearGradient
       id="linearGradient3700">
      <stop
         id="stop3702"
         offset="0"
         style="stop-color:#dcdcdc;stop-opacity:1;" />
      <stop
         id="stop3704"
         offset="1"
         style="stop-color:#f0f0f0;stop-opacity:1;" />
    </linearGradient>
    <linearGradient
       inkscape:collect="always"
       id="linearGradient3327">
      <stop
         style="stop-color:#000000;stop-opacity:1;"
         offset="0"
         id="stop3330" />
      <stop
         style="stop-color:#000000;stop-opacity:0;"
         offset="1"
         id="stop3333" />
    </linearGradient>
    <linearGradient
       inkscape:collect="always"
       xlink:href="#linearGradient3327"
       id="linearGradient3335"
       x1="11.375"
       y1="22"
       x2="11.375"
       y2="-9.817296"
       gradientUnits="userSpaceOnUse" />
    <linearGradient
       inkscape:collect="always"
       xlink:href="#linearGradient3700"
       id="linearGradient3181"
       x1="-3.0607977"
       y1="27.258198"
       x2="-3.0607977"
       y2="7.2536583"
       gradientUnits="userSpaceOnUse"
       gradientTransform="translate(11.119372,-6.2581977)" />
    <filter
       inkscape:collect="always"
       id="filter8716"
       x="-0.26983512"
       width="1.5396702"
       y="-0.54066074"
       height="2.0813215">
      <feGaussianBlur
         inkscape:collect="always"
         stdDeviation="2.0210388"
         id="feGaussianBlur8718" />
    </filter>
    <inkscape:perspective
       sodipodi:type="inkscape:persp3d"
       inkscape:vp_x="0 : 11 : 1"
       inkscape:vp_y="0 : 1000 : 0"
       inkscape:vp_z="22 : 11 : 1"
       inkscape:persp3d-origin="11 : 7.3333333 : 1"
       id="perspective2531" />
    <linearGradient
       id="ButtonShadow"
       gradientTransform="scale(0.9883037,1.0118347)"
       x1="9.3550024"
       y1="21.742682"
       x2="9.3550024"
       y2="0.49362123"
       gradientUnits="userSpaceOnUse">
      <stop
         id="stop3277"
         offset="0"
         style="stop-color:#000000;stop-opacity:0.70588237;" />
      <stop
         id="stop3279"
         offset="1"
         style="stop-color:#000000;stop-opacity:0.15686275;" />
    </linearGradient>
    <linearGradient
       inkscape:collect="always"
       id="linearGradient3232">
      <stop
         style="stop-color:#000000;stop-opacity:1;"
         offset="0"
         id="stop3234" />
      <stop
         style="stop-color:#000000;stop-opacity:0;"
         offset="1"
         id="stop3236" />
    </linearGradient>
    <linearGradient
       gradientUnits="userSpaceOnUse"
       y2="-6.0004225"
       x2="11"
       y1="14.805666"
       x1="11"
       id="linearGradient3221"
       xlink:href="#linearGradient3232"
       inkscape:collect="always" />
    <linearGradient
       id="ButtonColor"
       x1="10.31979"
       y1="21"
       x2="10.31979"
       y2="0.99929649"
       gradientUnits="userSpaceOnUse">
      <stop
         style="stop-color:#29669f;stop-opacity:1;"
         offset="0"
         id="stop3189" />
      <stop
         style="stop-color:#88b6e0;stop-opacity:1;"
         offset="1"
         id="stop3191" />
    </linearGradient>
    <linearGradient
       inkscape:collect="always"
       xlink:href="#ButtonShadow"
       id="linearGradient38042"
       gradientUnits="userSpaceOnUse"
       gradientTransform="scale(0.9883037,1.0118347)"
       x1="9.3550024"
       y1="21.742682"
       x2="9.3550024"
       y2="0.49362123" />
    <linearGradient
       inkscape:collect="always"
       xlink:href="#linearGradient3941"
       id="linearGradient3971"
       gradientUnits="userSpaceOnUse"
       x1="15.150177"
       y1="4.9645324"
       x2="15.150177"
       y2="12.586279" />
    <linearGradient
       inkscape:collect="always"
       xlink:href="#linearGradient3941"
       id="linearGradient3973"
       gradientUnits="userSpaceOnUse"
       x1="15.150177"
       y1="1.9999975"
       x2="15.150177"
       y2="20.094381" />
    <linearGradient
       inkscape:collect="always"
       xlink:href="#linearGradient3327"
       id="linearGradient3205"
       gradientUnits="userSpaceOnUse"
       x1="11.375"
       y1="22"
       x2="11.375"
       y2="-9.817296" />
    <linearGradient
       inkscape:collect="always"
       xlink:href="#linearGradient3831"
       id="linearGradient3845"
       x1="11"
       y1="19.5"
       x2="21"
       y2="19.5"
       gradientUnits="userSpaceOnUse"
       spreadMethod="reflect" />
    <linearGradient
       id="linearGradient3831">
      <stop
         style="stop-color:#ffffff;stop-opacity:1;"
         offset="0"
         id="stop3833" />
      <stop
         id="stop3821"
         offset="0.75"
         style="stop-color:#ffffff;stop-opacity:0.49803922;" />
      <stop
         style="stop-color:#ffffff;stop-opacity:0;"
         offset="1"
         id="stop3835" />
    </linearGradient>
    <linearGradient
       y2="16"
       x2="10"
       y1="1"
       x1="10"
       gradientUnits="userSpaceOnUse"
       id="linearGradient3084"
       xlink:href="#linearGradient3823"
       inkscape:collect="always" />
    <linearGradient
       id="linearGradient3823">
      <stop
         id="stop3825"
         offset="0"
         style="stop-color:#ffffff;stop-opacity:1;" />
      <stop
         id="stop3829"
         offset="1"
         style="stop-color:#ffffff;stop-opacity:0;" />
    </linearGradient>
    <linearGradient
       y2="16"
       x2="10"
       y1="1"
       x1="10"
       gradientUnits="userSpaceOnUse"
       id="linearGradient3078"
       xlink:href="#linearGradient3823"
       inkscape:collect="always" />
  </defs>
  <sodipodi:namedview
     id="base"
     pagecolor="#ffffff"
     bordercolor="#e7e7e7"
     borderopacity="1"
     inkscape:pageopacity="0.0"
     inkscape:pageshadow="2"
     inkscape:zoom="25.26451"
     inkscape:cx="-3.5891648"
     inkscape:cy="7.7023488"
     inkscape:document-units="px"
     inkscape:current-layer="layer1"
     showgrid="true"
     inkscape:showpageshadow="false"
     showguides="false"
     inkscape:guide-bbox="true"
     inkscape:window-width="1920"
     inkscape:window-height="1026"
     inkscape:window-x="0"
     inkscape:window-y="25"
     inkscape:window-maximized="1">
    <sodipodi:guide
       orientation="1,0"
       position="0,112"
       id="guide2383" />
    <sodipodi:guide
       orientation="0,1"
       position="26.278146,128"
       id="guide2385" />
    <sodipodi:guide
       orientation="1,0"
       position="128,54.082119"
       id="guide2387" />
    <sodipodi:guide
       orientation="0,1"
       position="78.156291,0"
       id="guide2389" />
    <sodipodi:guide
       orientation="0,1"
       position="60.863576,64.084768"
       id="guide2391" />
    <inkscape:grid
       type="xygrid"
       id="grid3672"
       visible="true"
       enabled="true" />
  </sodipodi:namedview>
  <metadata
     id="metadata7">
    <rdf:RDF>
      <cc:Work
         rdf:about="">
        <dc:format>image/svg+xml</dc:format>
        <dc:type
           rdf:resource="http://purl.org/dc/dcmitype/StillImage" />
      </cc:Work>
    </rdf:RDF>
  </metadata>
  <g
     inkscape:label="Button"
     inkscape:groupmode="layer"
     id="layer1">
    <rect
       style="opacity:0.5;fill:url(#linearGradient3205);fill-opacity:1;stroke:none;stroke-width:1.00000011999999994;stroke-linecap:round;stroke-linejoin:miter;stroke-miterlimit:4;stroke-dasharray:none;stroke-opacity:1;display:inline"
       id="rect3371"
       width="21"
       height="21.5"
       x="0.5"
       y="0.5"
       rx="2.5"
       ry="2.5" />
    <rect
       ry="2.3255813"
       rx="2.3809524"
       y="2"
       x="1"
       height="20"
       width="20"
       id="rect2553"
       style="opacity:0.4;fill:#000000;fill-opacity:1;stroke:none;stroke-width:1.00000011999999994;stroke-linecap:round;stroke-linejoin:miter;stroke-miterlimit:4;stroke-dasharray:none;stroke-opacity:1;display:inline" />
    <rect
       style="opacity:1;fill:url(#linearGradient3181);fill-opacity:1.0;fill-rule:evenodd;stroke:none;stroke-width:0.25000000000000000;stroke-linecap:round;stroke-linejoin:miter;stroke-miterlimit:4;stroke-dasharray:none;stroke-dashoffset:0;stroke-opacity:1;display:inline"
       id="rect3173"
       width="20"
       height="20"
       x="1"
       y="1"
       rx="2"
       ry="2" />
    <rect
       style="opacity:0.2;fill:#ffffff;fill-opacity:1;stroke:none;stroke-width:1;stroke-linecap:butt;stroke-linejoin:round;stroke-miterlimit:4;stroke-dasharray:none;stroke-dashoffset:0;stroke-opacity:1;display:inline;filter:url(#filter8716)"
       id="rect3200"
       width="17.975767"
       height="8.9714174"
       x="2"
       y="1.9800392"
       rx="2"
       ry="2"
       transform="matrix(0.8817734,0,0,0.8817734,0.2364528,1.3432966)" />
    <path
       sodipodi:nodetypes="ccccccccccccccc"
       id="rect3535"
       d="M 6.8482415,15.857143 C 6.3868297,15.857143 6.0153685,16.239428 6.0153685,16.714285 L 5.1824948,16.714285 L 5.1824948,17 C 5.6422412,17 6.0153685,17.384 6.0153685,17.857142 L 6.0153685,18.142858 C 6.0153685,18.617715 6.3868297,19 6.8482415,19 L 15.176977,19 C 15.638389,19 16.00985,18.617715 16.00985,18.142858 L 16.00985,17.857142 C 16.00985,17.384 16.382977,17 16.842724,17 L 16.842724,16.714285 L 16.00985,16.714285 C 16.00985,16.239428 15.638389,15.857143 15.176977,15.857143 L 6.8482415,15.857143 z"
       style="fill:#000000;fill-opacity:1;fill-rule:nonzero;stroke:none;stroke-width:2;stroke-linecap:square;stroke-linejoin:miter;stroke-miterlimit:4;stroke-dasharray:none;stroke-dashoffset:0;stroke-opacity:1;display:inline" />
    <rect
       ry="0.38657662"
       rx="0.37563103"
       y="17.14842"
       x="12.046249"
       height="0.77315325"
       width="1.878155"
       id="rect3485"
       style="fill:#7fff2a;fill-opacity:1;fill-rule:nonzero;stroke:none;stroke-width:2;stroke-linecap:square;stroke-linejoin:miter;stroke-miterlimit:4;stroke-dasharray:none;stroke-dashoffset:0;stroke-opacity:1;display:inline" />
    <rect
       style="opacity:1;fill:#000000;fill-opacity:1;fill-rule:nonzero;stroke:none;stroke-width:1;stroke-linecap:square;stroke-linejoin:miter;stroke-miterlimit:4;stroke-dasharray:none;stroke-dashoffset:0;stroke-opacity:1"
       id="rect3920"
       width="18"
       height="15"
       x="2"
       y="2"
       rx="1.5"
       ry="1.5" />
    <rect
       transform="matrix(0.4524647,0,0,0.545021,-11.673995,-26.670108)"
       style="opacity:0.24302787;fill:#ccff00;fill-opacity:1;fill-rule:nonzero;stroke:none;stroke-width:2;stroke-linecap:square;stroke-linejoin:miter;stroke-miterlimit:4;stroke-dasharray:none;stroke-dashoffset:0;stroke-opacity:1;display:inline;filter:url(#filter3531)"
       id="rect3525"
       width="7.8571429"
       height="3.1428571"
       x="50.57143"
       y="79.535713"
       rx="1.5714285"
       ry="1.5714285" />
    <path
       transform="matrix(-0.1947826,0,0,-0.2041763,20.349565,17.462877)"
       d="M 12.0625,12.0625 L 12.0625,65.9375 L 83.9375,65.9375 L 83.9375,12.0625 L 12.0625,12.0625 z"
       id="path3215"
       style="opacity:1;fill:url(#radialGradient3465);fill-opacity:1;fill-rule:nonzero;stroke:none;stroke-width:1;stroke-linecap:square;stroke-linejoin:round;stroke-miterlimit:4;stroke-dasharray:none;stroke-dashoffset:0;stroke-opacity:0.69658119"
       inkscape:original="M 12.03125 12.03125 L 12.03125 65.96875 L 83.96875 65.96875 L 83.96875 12.03125 L 12.03125 12.03125 z "
       inkscape:radius="-0.031530734"
       sodipodi:type="inkscape:offset" />
    <rect
       style="opacity:1;fill:none;fill-opacity:1;fill-rule:nonzero;stroke:#144aac;stroke-width:0.99999994000000003;stroke-linecap:square;stroke-linejoin:miter;stroke-miterlimit:4;stroke-dasharray:none;stroke-dashoffset:0;stroke-opacity:1"
       id="rect3935"
       width="13"
       height="10"
       x="4.5"
       y="4.5" />
    <path
       style="fill:url(#linearGradient3971);fill-opacity:1;fill-rule:evenodd;stroke:none;stroke-width:1px;stroke-linecap:butt;stroke-linejoin:miter;stroke-opacity:1;opacity:0.7"
       d="M 11.375 4.96875 L 14.65625 14.03125 L 17.0625 14.03125 L 17.0625 4.96875 L 11.375 4.96875 z "
       id="path3937" />
    <path
       style="fill:url(#linearGradient3973);fill-opacity:1;fill-rule:evenodd;stroke:none;stroke-width:1px;stroke-linecap:butt;stroke-linejoin:miter;stroke-opacity:1;opacity:0.3"
       d="M 10.28125 2 L 11.03125 4 L 18 4 L 18 15 L 15 15 L 16 17.78125 C 16.031735 17.338049 16.404232 17 16.84375 17 L 18.5 17 C 19.331 17 20 16.331 20 15.5 L 20 3.5 C 20 2.669 19.331 2 18.5 2 L 10.28125 2 z "
       id="path3949" />
    <path
       style="fill:#ffffff;fill-opacity:1;fill-rule:nonzero;stroke:none;stroke-width:2;stroke-linecap:square;stroke-linejoin:miter;stroke-miterlimit:4;stroke-dasharray:none;stroke-dashoffset:0;stroke-opacity:1;display:inline"
       d="M 2 15.5 L 2 16.5 C 2 17.331 2.669 18 3.5 18 L 5.1875 18 C 5.6472466 18 6 18.370608 6 18.84375 L 6 19.15625 C 6 19.631106 6.3823382 20 6.84375 20 L 15.1875 20 C 15.648912 20 16 19.631107 16 19.15625 L 16 18.84375 C 16 18.370609 16.384003 18 16.84375 18 L 18.5 18 C 19.331 18 20 17.331 20 16.5 L 20 15.5 C 20 16.331 19.331 17 18.5 17 L 16.84375 17 C 16.384003 17 16 17.370609 16 17.84375 L 16 18.15625 C 16 18.631107 15.648912 19 15.1875 19 L 6.84375 19 C 6.3823382 19 6 18.631106 6 18.15625 L 6 17.84375 C 6 17.370608 5.6472466 17 5.1875 17 L 3.5 17 C 2.669 17 2 16.331 2 15.5 z "
       id="path4589" />
    <path
       style="opacity:0.7;fill:url(#linearGradient3078);fill-opacity:1;fill-rule:evenodd;stroke:none;display:inline"
       d="M 3,1 C 1.892,1 1,1.892 1,3 l 0,16 c 0,1.108 0.892,2 2,2 l 16,0 c 1.108,0 2,-0.892 2,-2 L 21,3 C 21,1.892 20.108,1 19,1 L 3,1 z m 0,1.03125 16,0 c 0.5497,0 0.96875,0.4190495 0.96875,0.96875 l 0,16 c 0,0.5497 -0.41905,0.96875 -0.96875,0.96875 l -16,0 C 2.4502995,19.96875 2.03125,19.5497 2.03125,19 l 0,-16 C 2.03125,2.4502995 2.4502995,2.03125 3,2.03125 z"
       id="rect3050"
       inkscape:connector-curvature="0" />
    <path
       id="path3235"
       d="M 3,21 C 1.892,21 1,20.108 1,19 l 0,-1 c 0,1.108 0.892,2 2,2 l 16,0 c 1.108,0 2,-0.892 2,-2 l 0,1 c 0,1.108 -0.892,2 -2,2 L 3,21 z"
       style="opacity:0.4;fill:url(#linearGradient3845);fill-opacity:1;fill-rule:evenodd;stroke:none;display:inline"
       inkscape:connector-curvature="0" />
  </g>
</svg>
