<?xml version="1.0" encoding="UTF-8" standalone="no"?>
<!-- Created with Inkscape (http://www.inkscape.org/) -->

<svg
   xmlns:dc="http://purl.org/dc/elements/1.1/"
   xmlns:cc="http://creativecommons.org/ns#"
   xmlns:rdf="http://www.w3.org/1999/02/22-rdf-syntax-ns#"
   xmlns:svg="http://www.w3.org/2000/svg"
   xmlns="http://www.w3.org/2000/svg"
   xmlns:xlink="http://www.w3.org/1999/xlink"
   xmlns:sodipodi="http://sodipodi.sourceforge.net/DTD/sodipodi-0.dtd"
   xmlns:inkscape="http://www.inkscape.org/namespaces/inkscape"
   width="22"
   height="22"
   id="svg2"
   sodipodi:version="0.32"
   inkscape:version="0.48.0 r9654"
   version="1.0"
   sodipodi:docname="drive-removable-media-scsi.svg"
   inkscape:output_extension="org.inkscape.output.svg.inkscape"
   style="display:inline">
  <defs
     id="defs4">
    <filter
       inkscape:collect="always"
       id="filter3810"
       x="-0.225"
       width="1.45"
       y="-0.25714286"
       height="1.5142857">
      <feGaussianBlur
         inkscape:collect="always"
         stdDeviation="4.5"
         id="feGaussianBlur3812" />
    </filter>
    <clipPath
       clipPathUnits="userSpaceOnUse"
       id="clipPath3824">
      <path
         style="opacity:1;fill:#ffffff;fill-opacity:1;fill-rule:nonzero;stroke:none;stroke-width:1;stroke-linecap:square;stroke-linejoin:round;stroke-miterlimit:4;stroke-dasharray:none;stroke-dashoffset:0;stroke-opacity:0.69658119;display:inline"
         d="M 16,12 C 13.784,12 12,13.784 12,16 L 12,68 C 12,70.216 13.784,72 16,72 L 80,72 C 82.216,72 84,70.216 84,68 L 84,16 C 84,13.784 82.216,12 80,12 L 16,12 z M 48,20 L 50.65625,22.25 L 69.34375,37.875 L 72,40.125 L 69.34375,42.34375 L 55.375,54.0625 L 55.375,45.1875 L 61.40625,40.125 L 48,28.875 L 34.59375,40.125 L 40.625,45.1875 L 40.625,54.0625 L 26.65625,42.34375 L 24,40.125 L 26.65625,37.875 L 45.34375,22.25 L 48,20 z M 44.25,40.03125 L 51.75,40.03125 L 51.75,62 L 44.25,62 L 44.25,40.03125 z"
         id="path3826" />
    </clipPath>
    <linearGradient
       id="linearGradient3767">
      <stop
         style="stop-color:#4d4d4d;stop-opacity:0.70731705;"
         offset="0"
         id="stop3769" />
      <stop
         style="stop-color:#4d4d4d;stop-opacity:0.25203252;"
         offset="1"
         id="stop3771" />
    </linearGradient>
    <linearGradient
       inkscape:collect="always"
       xlink:href="#linearGradient3767"
       id="linearGradient3773"
       x1="48"
       y1="62"
       x2="48"
       y2="21.554564"
       gradientUnits="userSpaceOnUse"
       gradientTransform="matrix(0.2592593,0,0,0.2592593,-1.4361446,-2.1011629)" />
    <linearGradient
       id="linearGradient3313">
      <stop
         style="stop-color:#4dbeff;stop-opacity:1;"
         offset="0"
         id="stop3315" />
      <stop
         id="stop4186"
         offset="0.67213112"
         style="stop-color:#1379ff;stop-opacity:0.902439;" />
      <stop
         style="stop-color:#0066ff;stop-opacity:0;"
         offset="1"
         id="stop3317" />
    </linearGradient>
    <radialGradient
       inkscape:collect="always"
       xlink:href="#linearGradient3313"
       id="radialGradient4138"
       gradientUnits="userSpaceOnUse"
       gradientTransform="matrix(0.3,0,0,3.3333334e-2,-3.4000004,15.199998)"
       cx="48"
       cy="84"
       fx="48"
       fy="84"
       r="30" />
    <filter
       inkscape:collect="always"
       id="filter4180"
       x="-0.11444673"
       width="1.2288935"
       y="-1.4149175"
       height="3.8298349">
      <feGaussianBlur
         inkscape:collect="always"
         stdDeviation="3.5372897"
         id="feGaussianBlur4182" />
    </filter>
    <linearGradient
       id="linearGradient3273">
      <stop
         style="stop-color:#7a7a7a;stop-opacity:1;"
         offset="0"
         id="stop3275" />
      <stop
         id="stop3281"
         offset="0.14636412"
         style="stop-color:#f9f9f9;stop-opacity:1" />
      <stop
         style="stop-color:#c9c9c9;stop-opacity:1"
         offset="0.37253973"
         id="stop3283" />
      <stop
         style="stop-color:#dedede;stop-opacity:0;"
         offset="1"
         id="stop3639" />
    </linearGradient>
    <linearGradient
       id="linearGradient3322">
      <stop
         id="stop3324"
         offset="0"
         style="stop-color:#7a7a7a;stop-opacity:1;" />
      <stop
         style="stop-color:#f9f9f9;stop-opacity:1"
         offset="0.2032043"
         id="stop3326" />
      <stop
         id="stop3328"
         offset="0.42969123"
         style="stop-color:#c9c9c9;stop-opacity:1" />
      <stop
         id="stop3632"
         offset="1"
         style="stop-color:#dedede;stop-opacity:0;" />
    </linearGradient>
    <linearGradient
       id="linearGradient4327">
      <stop
         style="stop-color:#f0f0f0;stop-opacity:1;"
         offset="0"
         id="stop4329" />
      <stop
         id="stop4331"
         offset="1"
         style="stop-color:#b4b4b4;stop-opacity:1;" />
    </linearGradient>
    <clipPath
       clipPathUnits="userSpaceOnUse"
       id="clipPath3785">
      <rect
         style="opacity:1;fill:#ffffff;fill-opacity:1;fill-rule:nonzero;stroke:none;stroke-width:1;stroke-linecap:square;stroke-linejoin:round;stroke-miterlimit:4;stroke-dasharray:none;stroke-dashoffset:0;stroke-opacity:0.69658119"
         id="rect3787"
         width="84"
         height="72"
         x="6"
         y="6"
         rx="6"
         ry="6" />
    </clipPath>
    <linearGradient
       id="linearGradient3220">
      <stop
         style="stop-color:#ffffff;stop-opacity:1;"
         offset="0"
         id="stop3222" />
      <stop
         style="stop-color:#bfbfbf;stop-opacity:0;"
         offset="1"
         id="stop3224" />
    </linearGradient>
    <linearGradient
       inkscape:collect="always"
       xlink:href="#linearGradient3220"
       id="linearGradient3781"
       gradientUnits="userSpaceOnUse"
       x1="15.656256"
       y1="69.394279"
       x2="46.594883"
       y2="39.82095"
       gradientTransform="matrix(1.1165614,0,0,1.1165614,0.8046986,-5.6759082)" />
    <linearGradient
       inkscape:collect="always"
       id="linearGradient3327">
      <stop
         style="stop-color:#000000;stop-opacity:1;"
         offset="0"
         id="stop3330" />
      <stop
         style="stop-color:#000000;stop-opacity:0;"
         offset="1"
         id="stop3333" />
    </linearGradient>
    <linearGradient
       inkscape:collect="always"
       xlink:href="#linearGradient4327"
       id="linearGradient3181"
       x1="-3.0607977"
       y1="27.258198"
       x2="-3.0607977"
       y2="7.2536583"
       gradientUnits="userSpaceOnUse"
       gradientTransform="translate(11.119372,-28.258198)" />
    <inkscape:perspective
       sodipodi:type="inkscape:persp3d"
       inkscape:vp_x="0 : 11 : 1"
       inkscape:vp_y="0 : 1000 : 0"
       inkscape:vp_z="22 : 11 : 1"
       inkscape:persp3d-origin="11 : 7.3333333 : 1"
       id="perspective2531" />
    <linearGradient
       id="ButtonShadow"
       gradientTransform="scale(0.9883037,1.0118347)"
       x1="9.3550024"
       y1="21.742682"
       x2="9.3550024"
       y2="0.49362123"
       gradientUnits="userSpaceOnUse">
      <stop
         id="stop3277"
         offset="0"
         style="stop-color:#000000;stop-opacity:0.70588237;" />
      <stop
         id="stop3279"
         offset="1"
         style="stop-color:#000000;stop-opacity:0.15686275;" />
    </linearGradient>
    <linearGradient
       inkscape:collect="always"
       id="linearGradient3232">
      <stop
         style="stop-color:#000000;stop-opacity:1;"
         offset="0"
         id="stop3234" />
      <stop
         style="stop-color:#000000;stop-opacity:0;"
         offset="1"
         id="stop3236" />
    </linearGradient>
    <linearGradient
       gradientUnits="userSpaceOnUse"
       y2="-6.0004225"
       x2="11"
       y1="14.805666"
       x1="11"
       id="linearGradient3221"
       xlink:href="#linearGradient3232"
       inkscape:collect="always" />
    <linearGradient
       id="ButtonColor"
       x1="10.31979"
       y1="21"
       x2="10.31979"
       y2="0.99929649"
       gradientUnits="userSpaceOnUse">
      <stop
         style="stop-color:#29669f;stop-opacity:1;"
         offset="0"
         id="stop3189" />
      <stop
         style="stop-color:#88b6e0;stop-opacity:1;"
         offset="1"
         id="stop3191" />
    </linearGradient>
    <linearGradient
       inkscape:collect="always"
       xlink:href="#ButtonShadow"
       id="linearGradient38042"
       gradientUnits="userSpaceOnUse"
       gradientTransform="scale(0.9883037,1.0118347)"
       x1="9.3550024"
       y1="21.742682"
       x2="9.3550024"
       y2="0.49362123" />
    <linearGradient
       inkscape:collect="always"
       xlink:href="#linearGradient3220"
       id="linearGradient4201"
       x1="11.743171"
       y1="15.971731"
       x2="25.151943"
       y2="3.6272087"
       gradientUnits="userSpaceOnUse" />
    <linearGradient
       inkscape:collect="always"
       xlink:href="#linearGradient3322"
       id="linearGradient4220"
       x1="1"
       y1="13.5"
       x2="7"
       y2="13.5"
       gradientUnits="userSpaceOnUse" />
    <linearGradient
       inkscape:collect="always"
       xlink:href="#linearGradient3322"
       id="linearGradient4224"
       gradientUnits="userSpaceOnUse"
       x1="1"
       y1="13.5"
       x2="7"
       y2="13.5"
       gradientTransform="matrix(-1,0,0,1,22,0)" />
    <linearGradient
       inkscape:collect="always"
       xlink:href="#linearGradient3327"
       id="linearGradient2464"
       gradientUnits="userSpaceOnUse"
       x1="11.375"
       y1="22"
       x2="11.375"
       y2="-9.817296" />
    <linearGradient
       inkscape:collect="always"
       xlink:href="#linearGradient3831"
       id="linearGradient3845"
       x1="11"
       y1="19.5"
       x2="21"
       y2="19.5"
       gradientUnits="userSpaceOnUse"
       spreadMethod="reflect" />
    <linearGradient
       id="linearGradient3831">
      <stop
         style="stop-color:#ffffff;stop-opacity:1;"
         offset="0"
         id="stop3833" />
      <stop
         id="stop3821"
         offset="0.75"
         style="stop-color:#ffffff;stop-opacity:0.49803922;" />
      <stop
         style="stop-color:#ffffff;stop-opacity:0;"
         offset="1"
         id="stop3835" />
    </linearGradient>
    <linearGradient
       y2="19.5"
       x2="21"
       y1="19.5"
       x1="11"
       spreadMethod="reflect"
       gradientUnits="userSpaceOnUse"
       id="linearGradient4740"
       xlink:href="#linearGradient3831"
       inkscape:collect="always" />
  </defs>
  <sodipodi:namedview
     id="base"
     pagecolor="#ffffff"
     bordercolor="#e7e7e7"
     borderopacity="1"
     inkscape:pageopacity="0.0"
     inkscape:pageshadow="2"
     inkscape:zoom="24.484741"
     inkscape:cx="3.291716"
     inkscape:cy="7.664188"
     inkscape:document-units="px"
     inkscape:current-layer="layer2"
     showgrid="true"
     inkscape:showpageshadow="false"
     showguides="false"
     inkscape:guide-bbox="true"
     inkscape:window-width="1920"
     inkscape:window-height="1026"
     inkscape:window-x="0"
     inkscape:window-y="25"
     inkscape:window-maximized="1">
    <sodipodi:guide
       orientation="1,0"
       position="0,112"
       id="guide2383" />
    <sodipodi:guide
       orientation="0,1"
       position="26.278146,128"
       id="guide2385" />
    <sodipodi:guide
       orientation="1,0"
       position="128,54.082119"
       id="guide2387" />
    <sodipodi:guide
       orientation="0,1"
       position="78.156291,0"
       id="guide2389" />
    <sodipodi:guide
       orientation="0,1"
       position="60.863576,64.084768"
       id="guide2391" />
    <inkscape:grid
       type="xygrid"
       id="grid3672"
       visible="true"
       enabled="true" />
  </sodipodi:namedview>
  <metadata
     id="metadata7">
    <rdf:RDF>
      <cc:Work
         rdf:about="">
        <dc:format>image/svg+xml</dc:format>
        <dc:type
           rdf:resource="http://purl.org/dc/dcmitype/StillImage" />
      </cc:Work>
    </rdf:RDF>
  </metadata>
  <g
     inkscape:groupmode="layer"
     id="layer3"
     inkscape:label="Shadow"
     sodipodi:insensitive="true">
    <rect
       style="opacity:0.5;fill:url(#linearGradient2464);fill-opacity:1;stroke:none;stroke-width:1.00000012;stroke-linecap:round;stroke-linejoin:miter;stroke-miterlimit:4;stroke-dasharray:none;stroke-opacity:1;display:inline"
       id="rect3371"
       width="21"
       height="21.5"
       x="0.5"
       y="0.5"
       rx="2.5"
       ry="2.5" />
    <rect
       ry="2.3255813"
       rx="2.3809524"
       y="2"
       x="1"
       height="20"
       width="20"
       id="rect2553"
       style="opacity:0.4;fill:#000000;fill-opacity:1;stroke:none;stroke-width:1.00000012;stroke-linecap:round;stroke-linejoin:miter;stroke-miterlimit:4;stroke-dasharray:none;stroke-opacity:1;display:inline" />
  </g>
  <g
     inkscape:groupmode="layer"
     id="layer2"
     inkscape:label="Facade">
    <rect
       transform="scale(1,-1)"
       ry="2"
       rx="2"
       y="-21"
       x="1"
       height="15"
       width="20"
       id="rect4177"
       style="fill:#cacaca;fill-opacity:1;fill-rule:evenodd;stroke:none;display:inline" />
    <path
       style="fill:url(#linearGradient4220);fill-opacity:1;fill-rule:evenodd;stroke:none;display:inline"
       d="M 3,6 C 1.892,6 1,6.892 1,8 l 0,11 c 0,1.108 0.892,2 2,2 L 7,21 7,6 3,6 z"
       id="rect4209"
       inkscape:connector-curvature="0" />
    <path
       id="path4222"
       d="m 19,6 c 1.108,0 2,0.892 2,2 l 0,11 c 0,1.108 -0.892,2 -2,2 l -4,0 0,-15 4,0 z"
       style="fill:url(#linearGradient4224);fill-opacity:1;fill-rule:evenodd;stroke:none;display:inline"
       inkscape:connector-curvature="0" />
    <path
       style="fill:#282828;fill-opacity:1;fill-rule:evenodd;stroke:none;display:inline"
       d="M 2.9999999,18.999999 C 1.8919999,18.999999 0.99999993,18.108 0.99999993,17 l 0,-2 c 0,1.108 0.89199997,2 1.99999997,2 L 19,17 c 1.108,0 2,-0.892 2,-2 l 0,2 c 0,1.108 -0.892,1.999999 -2,1.999999 l -16.0000001,0 z"
       id="path4182"
       sodipodi:nodetypes="ccccccccc"
       inkscape:connector-curvature="0" />
    <path
       style="opacity:0.15;fill:#000000;fill-opacity:1;fill-rule:evenodd;stroke:none;display:inline"
       d="M 2.9999999,16.999999 C 1.8919999,16.999999 0.99999993,16.108 0.99999993,15 l 0,-1 c 0,1.108 0.89199997,2 1.99999997,2 L 19,16 c 1.108,0 2,-0.892 2,-2 l 0,1 c 0,1.108 -0.892,1.999999 -2,1.999999 l -16.0000001,0 z"
       id="path4184"
       sodipodi:nodetypes="ccccccccc"
       inkscape:connector-curvature="0" />
    <path
       sodipodi:nodetypes="ccccccccc"
       id="path4203"
       d="M 2.9999999,17.999999 C 1.8919999,17.999999 0.99999993,17.108 0.99999993,16 l 0,-1 c 0,1.108 0.89199997,2 1.99999997,2 L 19,17 c 1.108,0 2,-0.892 2,-2 l 0,1 c 0,1.108 -0.892,1.999999 -2,1.999999 l -16.0000001,0 z"
       style="fill:#000000;fill-opacity:1;fill-rule:evenodd;stroke:none;display:inline"
       inkscape:connector-curvature="0" />
    <path
       id="path3235"
       d="M 3,21 C 1.892,21 1,20.108 1,19 l 0,-1 c 0,1.108 0.892,2 2,2 l 16,0 c 1.108,0 2,-0.892 2,-2 l 0,1 c 0,1.108 -0.892,2 -2,2 L 3,21 z"
       style="opacity:0.4;fill:url(#linearGradient4740);fill-opacity:1;fill-rule:evenodd;stroke:none;display:inline"
       inkscape:connector-curvature="0" />
  </g>
  <g
     inkscape:label="Top"
     inkscape:groupmode="layer"
     id="layer1">
    <rect
       style="opacity:1;fill:url(#linearGradient3181);fill-opacity:1;fill-rule:evenodd;stroke:none;stroke-width:0.25;stroke-linecap:round;stroke-linejoin:miter;stroke-miterlimit:4;stroke-dasharray:none;stroke-dashoffset:0;stroke-opacity:1;display:inline"
       id="rect3173"
       width="20"
       height="15"
       x="1"
       y="-16"
       rx="2"
       ry="2"
       transform="scale(1,-1)" />
    <path
       style="opacity:0.25;fill:#ffffff;fill-opacity:1;fill-rule:evenodd;stroke:none;stroke-width:0.25;stroke-linecap:round;stroke-linejoin:miter;stroke-miterlimit:4;stroke-dasharray:none;stroke-dashoffset:0;stroke-opacity:1;display:inline"
       d="M 2.9999999,0.99999982 C 1.8919999,0.99999982 0.99999993,1.8919998 0.99999993,2.9999998 L 0.99999993,3.9999998 C 0.99999993,2.8919998 1.8919999,1.9999998 2.9999999,1.9999998 L 19,1.9999998 C 20.108,1.9999998 21,2.8919998 21,3.9999998 L 21,2.9999998 C 21,1.8919998 20.108,0.99999982 19,0.99999982 L 2.9999999,0.99999982 z"
       id="rect3183" />
    <path
       style="opacity:0.80000000000000004;fill:url(#linearGradient4201);fill-opacity:1;fill-rule:evenodd;stroke:none;stroke-width:0.25000000000000000;stroke-linecap:round;stroke-linejoin:miter;stroke-miterlimit:4;stroke-dasharray:none;stroke-dashoffset:0;stroke-opacity:1;display:inline"
       d="M 3,1 C 1.892,1 1,1.892 1,3 L 1,13.971731 C 1,15.079731 1.892,15.971731 3,15.971731 L 19,15.971731 C 20.108,15.971731 21,15.079731 21,13.971731 L 21,3 C 21,1.892 20.108,1 19,1 L 3,1 z M 3,2 L 19,2 C 19.571596,2 20,2.4284045 20,3 L 20,13.971731 C 20,14.543327 19.571596,14.971731 19,14.971731 L 3,14.971731 C 2.4284045,14.971731 2,14.543327 2,13.971731 L 2,3 C 2,2.4284045 2.4284045,2 3,2 z"
       id="path4188"
       sodipodi:nodetypes="cccccccccccccccccc" />
  </g>
  <g
     inkscape:groupmode="layer"
     id="layer4"
     inkscape:label="Light"
     sodipodi:insensitive="true"
     style="display:none">
    <rect
       ry="5.9999933"
       rx="6.7435069"
       y="35.607777"
       x="-18.008015"
       height="5.9999933"
       width="74.178574"
       id="rect3323"
       style="opacity:0.6;fill:#0066ff;fill-opacity:1;fill-rule:nonzero;stroke:none;stroke-width:6;stroke-linecap:square;stroke-linejoin:miter;stroke-miterlimit:4;stroke-dasharray:none;stroke-dashoffset:0;stroke-opacity:1;display:inline;filter:url(#filter4180)"
       transform="matrix(0.2426577,0,0,0.3333337,6.3697829,5.1307279)" />
    <rect
       style="fill:url(#radialGradient4138);fill-opacity:1;fill-rule:nonzero;stroke:none;stroke-width:6;stroke-linecap:square;stroke-linejoin:miter;stroke-miterlimit:4;stroke-dasharray:none;stroke-dashoffset:0;stroke-opacity:1;display:inline"
       id="rect3311"
       width="18"
       height="2"
       x="2"
       y="17"
       rx="1.6363636"
       ry="2" />
  </g>
  <g
     inkscape:groupmode="layer"
     id="layer5"
     inkscape:label="Symbol"
     sodipodi:insensitive="true" />
  <path
     sodipodi:type="inkscape:offset"
     inkscape:radius="0.71428573"
     inkscape:original="M 48 20 L 45.34375 22.25 L 26.65625 37.875 L 24 40.125 L 26.65625 42.34375 L 40.625 54.0625 L 40.625 45.1875 L 34.59375 40.125 L 48 28.875 L 61.40625 40.125 L 55.375 45.1875 L 55.375 54.0625 L 69.34375 42.34375 L 72 40.125 L 69.34375 37.875 L 50.65625 22.25 L 48 20 z M 44.25 40.03125 L 44.25 62 L 51.75 62 L 51.75 40.03125 L 44.25 40.03125 z "
     style="opacity:0.8;fill:#ffffff;fill-opacity:1;fill-rule:evenodd;stroke:none;stroke-width:8;stroke-linecap:round;stroke-linejoin:miter;stroke-miterlimit:4;stroke-dasharray:none;stroke-dashoffset:0;stroke-opacity:1;display:inline;filter:url(#filter3810)"
     id="path3814"
     d="M 47.9375,19.28125 C 47.785499,19.298635 47.643095,19.36436 47.53125,19.46875 L 44.875,21.71875 L 26.1875,37.3125 C 26.187272,37.322915 26.187272,37.333335 26.1875,37.34375 L 23.53125,39.59375 C 23.369745,39.729481 23.276495,39.929659 23.276495,40.140625 C 23.276495,40.351591 23.369745,40.551769 23.53125,40.6875 L 26.1875,42.90625 L 40.15625,54.625 C 40.370429,54.814729 40.677154,54.858355 40.93574,54.735867 C 41.194325,54.613379 41.354875,54.348412 41.34375,54.0625 L 41.34375,45.1875 C 41.349617,44.971872 41.257736,44.765138 41.09375,44.625 L 35.71875,40.125 L 48,29.84375 L 60.28125,40.125 L 54.90625,44.625 C 54.742264,44.765138 54.650383,44.971872 54.65625,45.1875 L 54.65625,54.0625 C 54.645125,54.348412 54.805675,54.613379 55.06426,54.735867 C 55.322846,54.858355 55.629571,54.814729 55.84375,54.625 L 69.8125,42.90625 L 72.46875,40.6875 C 72.630255,40.551769 72.723505,40.351591 72.723505,40.140625 C 72.723505,39.929659 72.630255,39.729481 72.46875,39.59375 L 69.8125,37.34375 C 69.812728,37.333335 69.812728,37.322915 69.8125,37.3125 L 51.125,21.6875 L 48.46875,19.46875 C 48.324829,19.336114 48.132792,19.268336 47.9375,19.28125 z M 44.1875,39.3125 C 43.814131,39.342955 43.527706,39.656658 43.53125,40.03125 L 43.53125,62 C 43.530072,62.190983 43.605419,62.374485 43.740467,62.509533 C 43.875515,62.644581 44.059017,62.719928 44.25,62.71875 L 51.75,62.71875 C 51.940983,62.719928 52.124485,62.644581 52.259533,62.509533 C 52.394581,62.374485 52.469928,62.190983 52.46875,62 L 52.46875,40.03125 C 52.469928,39.840267 52.394581,39.656765 52.259533,39.521717 C 52.124485,39.386669 51.940983,39.311322 51.75,39.3125 L 44.25,39.3125 C 44.229177,39.311588 44.208323,39.311588 44.1875,39.3125 z"
     clip-path="url(#clipPath3824)"
     transform="matrix(0.2592593,0,0,0.2592593,-1.4361446,-2.1011629)" />
  <path
     id="path3242"
     style="opacity:1;fill:url(#linearGradient3773);fill-opacity:1;fill-rule:evenodd;stroke:none;stroke-width:8;stroke-linecap:round;stroke-linejoin:miter;stroke-miterlimit:4;stroke-dasharray:none;stroke-dashoffset:0;stroke-opacity:1;display:inline"
     d="M 17.230524,8.3016153 L 16.54249,7.7218828 L 11.696334,3.6637551 L 11.008301,3.0840227 L 10.320266,3.6637551 L 5.4741109,7.7218828 L 4.7860783,8.3016153 L 5.4741109,8.8750473 L 9.0937716,11.912342 L 9.0937716,9.6123141 L 7.5307355,8.3016153 L 11.008301,5.3840485 L 14.485866,8.3016153 L 12.922831,9.6123141 L 12.922831,11.912342 L 16.54249,8.8750473 L 17.230524,8.3016153 z M 11.978392,8.2795925 L 11.978392,13.972912 L 10.038211,13.972912 L 10.038211,8.2795925 L 11.978392,8.2795925 z" />
  <path
     style="opacity:0.4;fill:#000000;fill-opacity:1;fill-rule:evenodd;stroke:none;stroke-width:8;stroke-linecap:round;stroke-linejoin:miter;stroke-miterlimit:4;stroke-dasharray:none;stroke-dashoffset:0;stroke-opacity:1;display:inline"
     d="M 11 3.09375 L 10.3125 3.65625 L 5.46875 7.71875 L 4.78125 8.3125 L 5.09375 8.5625 L 5.46875 8.25 L 10.3125 4.1875 L 11 3.625 L 11.6875 4.1875 L 16.53125 8.25 L 16.90625 8.5625 L 17.21875 8.3125 L 16.53125 7.71875 L 11.6875 3.65625 L 11 3.09375 z M 10.03125 8.28125 L 10.03125 8.8125 L 11.96875 8.8125 L 11.96875 8.28125 L 10.03125 8.28125 z M 7.84375 8.5625 L 7.53125 8.84375 L 9.09375 10.125 L 9.09375 9.625 L 7.84375 8.5625 z M 14.1875 8.59375 L 12.9375 9.625 L 12.9375 10.125 L 14.5 8.84375 L 14.1875 8.59375 z "
     id="path4596" />
</svg>
