<?xml version="1.0" encoding="UTF-8" standalone="no"?>
<!-- Created with Inkscape (http://www.inkscape.org/) -->

<svg
   xmlns:dc="http://purl.org/dc/elements/1.1/"
   xmlns:cc="http://creativecommons.org/ns#"
   xmlns:rdf="http://www.w3.org/1999/02/22-rdf-syntax-ns#"
   xmlns:svg="http://www.w3.org/2000/svg"
   xmlns="http://www.w3.org/2000/svg"
   xmlns:xlink="http://www.w3.org/1999/xlink"
   xmlns:sodipodi="http://sodipodi.sourceforge.net/DTD/sodipodi-0.dtd"
   xmlns:inkscape="http://www.inkscape.org/namespaces/inkscape"
   width="24"
   height="24"
   id="svg2"
   sodipodi:version="0.32"
   inkscape:version="0.48.1 r9760"
   version="1.0"
   sodipodi:docname="network-vpn.svg"
   inkscape:output_extension="org.inkscape.output.svg.inkscape"
   style="display:inline">
  <defs
     id="defs4">
    <linearGradient
       inkscape:collect="always"
       id="linearGradient3327">
      <stop
         style="stop-color:#000000;stop-opacity:1;"
         offset="0"
         id="stop3330" />
      <stop
         style="stop-color:#000000;stop-opacity:0;"
         offset="1"
         id="stop3333" />
    </linearGradient>
    <inkscape:perspective
       sodipodi:type="inkscape:persp3d"
       inkscape:vp_x="0 : 11 : 1"
       inkscape:vp_y="0 : 1000 : 0"
       inkscape:vp_z="22 : 11 : 1"
       inkscape:persp3d-origin="11 : 7.3333333 : 1"
       id="perspective75" />
    <linearGradient
       id="linearGradient3215">
      <stop
         id="stop3217"
         offset="0"
         style="stop-color:#000000;stop-opacity:0.70588237;" />
      <stop
         id="stop3219"
         offset="1"
         style="stop-color:#000000;stop-opacity:0.15686275;" />
    </linearGradient>
    <linearGradient
       gradientUnits="userSpaceOnUse"
       y2="0.5"
       x2="11"
       y1="22"
       x1="11"
       id="linearGradient3221"
       xlink:href="#linearGradient3215"
       inkscape:collect="always" />
    <linearGradient
       y2="5.9489675"
       x2="47.667068"
       y1="121.97153"
       x1="47.667068"
       gradientTransform="matrix(0.1678362,0,0,0.1678362,0.244737,0.244738)"
       gradientUnits="userSpaceOnUse"
       id="linearGradient2442"
       xlink:href="#linearGradient3187"
       inkscape:collect="always" />
    <filter
       height="2.1786268"
       y="-0.58931339"
       width="1.5882337"
       x="-0.29411685"
       id="filter3342"
       inkscape:collect="always"
       color-interpolation-filters="sRGB">
      <feGaussianBlur
         id="feGaussianBlur3344"
         stdDeviation="2.2029067"
         inkscape:collect="always" />
    </filter>
    <linearGradient
       id="linearGradient3543">
      <stop
         style="stop-color:#ffffff;stop-opacity:1;"
         offset="0"
         id="stop3545" />
      <stop
         id="stop3555"
         offset="0.30645162"
         style="stop-color:#ffffff;stop-opacity:1;" />
      <stop
         id="stop3551"
         offset="0.51899064"
         style="stop-color:#ffffff;stop-opacity:0.640625;" />
      <stop
         style="stop-color:#ffffff;stop-opacity:0;"
         offset="1"
         id="stop3547" />
    </linearGradient>
    <linearGradient
       id="linearGradient5226">
      <stop
         style="stop-color:#ffffff;stop-opacity:1;"
         offset="0"
         id="stop5228" />
      <stop
         style="stop-color:#ffffff;stop-opacity:0.4140625;"
         offset="1"
         id="stop5230" />
    </linearGradient>
    <linearGradient
       id="linearGradient3929">
      <stop
         style="stop-color:#000000;stop-opacity:1;"
         offset="0"
         id="stop3931" />
      <stop
         style="stop-color:#000000;stop-opacity:0.58823532;"
         offset="1"
         id="stop3933" />
    </linearGradient>
    <linearGradient
       id="linearGradient3187">
      <stop
         style="stop-color:#1567b3;stop-opacity:1;"
         offset="0"
         id="stop3189" />
      <stop
         style="stop-color:#67aeed;stop-opacity:1;"
         offset="1"
         id="stop3191" />
    </linearGradient>
    <linearGradient
       inkscape:collect="always"
       xlink:href="#linearGradient3929"
       id="linearGradient5001"
       gradientUnits="userSpaceOnUse"
       x1="60.541664"
       y1="127.96666"
       x2="60.541664"
       y2="7.8298512" />
    <linearGradient
       inkscape:collect="always"
       xlink:href="#linearGradient3187"
       id="linearGradient5006"
       gradientUnits="userSpaceOnUse"
       gradientTransform="translate(39.999993,-1.5356449e-8)"
       x1="69"
       y1="122"
       x2="69"
       y2="5.9781809" />
    <radialGradient
       inkscape:collect="always"
       xlink:href="#linearGradient5226"
       id="radialGradient5232"
       cx="63.98003"
       cy="61.948856"
       fx="63.98003"
       fy="61.948856"
       r="58.01997"
       gradientTransform="matrix(1.505773,0,0,1.1615961,7.640631,-10.010692)"
       gradientUnits="userSpaceOnUse" />
    <radialGradient
       inkscape:collect="always"
       xlink:href="#linearGradient5226"
       id="radialGradient3180"
       gradientUnits="userSpaceOnUse"
       gradientTransform="matrix(0.2595267,0,0,0.2002063,-4.5769649,-2.70675)"
       cx="63.98003"
       cy="61.948856"
       fx="63.98003"
       fy="61.948856"
       r="58.01997" />
    <radialGradient
       inkscape:collect="always"
       xlink:href="#linearGradient3543"
       id="radialGradient4084"
       gradientUnits="userSpaceOnUse"
       cx="74.375"
       cy="67.125"
       fx="74.375"
       fy="67.125"
       r="3.125" />
    <radialGradient
       inkscape:collect="always"
       xlink:href="#linearGradient3543"
       id="radialGradient4086"
       gradientUnits="userSpaceOnUse"
       cx="74.375"
       cy="67.125"
       fx="74.375"
       fy="67.125"
       r="3.125" />
    <radialGradient
       inkscape:collect="always"
       xlink:href="#linearGradient3543"
       id="radialGradient4088"
       gradientUnits="userSpaceOnUse"
       cx="74.375"
       cy="67.125"
       fx="74.375"
       fy="67.125"
       r="3.125" />
    <radialGradient
       inkscape:collect="always"
       xlink:href="#linearGradient3543"
       id="radialGradient4090"
       gradientUnits="userSpaceOnUse"
       cx="74.375"
       cy="67.125"
       fx="74.375"
       fy="67.125"
       r="3.125" />
    <radialGradient
       inkscape:collect="always"
       xlink:href="#linearGradient3543"
       id="radialGradient4092"
       gradientUnits="userSpaceOnUse"
       cx="74.375"
       cy="67.125"
       fx="74.375"
       fy="67.125"
       r="3.125" />
    <radialGradient
       inkscape:collect="always"
       xlink:href="#linearGradient5226"
       id="radialGradient4099"
       gradientUnits="userSpaceOnUse"
       gradientTransform="matrix(0.164049,0,0,0.06391994,0.5365603,7.7036027)"
       cx="69.75"
       cy="75.973572"
       fx="69.75"
       fy="75.973572"
       r="58.5" />
    <radialGradient
       inkscape:collect="always"
       xlink:href="#linearGradient5226"
       id="radialGradient4102"
       gradientUnits="userSpaceOnUse"
       gradientTransform="matrix(0.1958447,0,0,0.08019051,-0.4943931,6.3899545)"
       cx="63.875"
       cy="2.2173476"
       fx="63.875"
       fy="2.2173476"
       r="58.375" />
    <radialGradient
       inkscape:collect="always"
       xlink:href="#linearGradient5226"
       id="radialGradient4111"
       gradientUnits="userSpaceOnUse"
       gradientTransform="matrix(0.3018538,0.00387629,-0.00320997,0.2499666,-7.1654179,-6.611025)"
       cx="65.235977"
       cy="63.182522"
       fx="65.235977"
       fy="63.182522"
       r="43.769611" />
    <radialGradient
       inkscape:collect="always"
       xlink:href="#linearGradient5226"
       id="radialGradient4114"
       gradientUnits="userSpaceOnUse"
       gradientTransform="matrix(-0.160813,0.04598161,0.1321437,0.3994121,6.0140774,-21.428142)"
       cx="49.233551"
       cy="70.608253"
       fx="49.233551"
       fy="70.608253"
       r="25.483549" />
    <radialGradient
       inkscape:collect="always"
       xlink:href="#linearGradient3543"
       id="radialGradient4116"
       gradientUnits="userSpaceOnUse"
       cx="74.375"
       cy="67.125"
       fx="74.375"
       fy="67.125"
       r="3.125" />
    <linearGradient
       inkscape:collect="always"
       xlink:href="#linearGradient3700-5-1-0"
       id="linearGradient3216"
       x1="-6.4374995"
       y1="25.0625"
       x2="-6.4374995"
       y2="5.056252"
       gradientUnits="userSpaceOnUse"
       gradientTransform="translate(17.937499,-5.062501)" />
    <linearGradient
       inkscape:collect="always"
       xlink:href="#linearGradient3327"
       id="linearGradient7424"
       gradientUnits="userSpaceOnUse"
       x1="11.375"
       y1="22"
       x2="11.375"
       y2="-9.817296"
       gradientTransform="translate(1,-1)" />
    <inkscape:perspective
       id="perspective2872"
       inkscape:persp3d-origin="0.5 : 0.33333333 : 1"
       inkscape:vp_z="1 : 0.5 : 1"
       inkscape:vp_y="0 : 1000 : 0"
       inkscape:vp_x="0 : 0.5 : 1"
       sodipodi:type="inkscape:persp3d" />
    <clipPath
       clipPathUnits="userSpaceOnUse"
       id="clipPath2849">
      <rect
         ry="2"
         rx="2"
         y="1"
         x="1"
         height="20"
         width="20"
         id="rect2851"
         style="fill:#ffffff;fill-opacity:1;fill-rule:evenodd;stroke:none;display:inline" />
    </clipPath>
    <filter
       color-interpolation-filters="sRGB"
       inkscape:collect="always"
       id="filter3194"
       x="-0.18000001"
       width="1.36"
       y="-0.18000001"
       height="1.36">
      <feGaussianBlur
         inkscape:collect="always"
         stdDeviation="1.2"
         id="feGaussianBlur3196" />
    </filter>
    <linearGradient
       y2="16"
       x2="10"
       y1="1"
       x1="10"
       gradientUnits="userSpaceOnUse"
       id="linearGradient3084"
       xlink:href="#linearGradient3823"
       inkscape:collect="always" />
    <linearGradient
       id="linearGradient3823">
      <stop
         id="stop3825"
         offset="0"
         style="stop-color:#ffffff;stop-opacity:1;" />
      <stop
         id="stop3829"
         offset="1"
         style="stop-color:#ffffff;stop-opacity:0;" />
    </linearGradient>
    <linearGradient
       inkscape:collect="always"
       xlink:href="#linearGradient3831"
       id="linearGradient3845"
       x1="11"
       y1="19.5"
       x2="21"
       y2="19.5"
       gradientUnits="userSpaceOnUse"
       spreadMethod="reflect"
       gradientTransform="translate(1,-1)" />
    <linearGradient
       id="linearGradient3831">
      <stop
         style="stop-color:#ffffff;stop-opacity:1;"
         offset="0"
         id="stop3833" />
      <stop
         id="stop3821"
         offset="0.75"
         style="stop-color:#ffffff;stop-opacity:0.49803922;" />
      <stop
         style="stop-color:#ffffff;stop-opacity:0;"
         offset="1"
         id="stop3835" />
    </linearGradient>
    <linearGradient
       y2="16"
       x2="10"
       y1="1"
       x1="10"
       gradientUnits="userSpaceOnUse"
       id="linearGradient3852"
       xlink:href="#linearGradient3823"
       inkscape:collect="always"
       gradientTransform="translate(1,-1)" />
    <linearGradient
       id="linearGradient3875">
      <stop
         id="stop3877"
         offset="0"
         style="stop-color:#ffffff;stop-opacity:1;" />
      <stop
         id="stop3879"
         offset="1"
         style="stop-color:#ffffff;stop-opacity:0.42635658;" />
    </linearGradient>
    <linearGradient
       y2="5.9877172"
       x2="48"
       y1="90"
       x1="48"
       gradientUnits="userSpaceOnUse"
       id="linearGradient3345"
       xlink:href="#linearGradient3700-5-1"
       inkscape:collect="always" />
    <linearGradient
       id="linearGradient3700-5-1">
      <stop
         style="stop-color:#3781c6;stop-opacity:1;"
         offset="0"
         id="stop3702-0-2" />
      <stop
         style="stop-color:#88b2db;stop-opacity:1;"
         offset="1"
         id="stop3704-4-9" />
    </linearGradient>
    <linearGradient
       y2="80"
       x2="56"
       y1="16"
       x1="56"
       gradientTransform="matrix(0.71049396,0,0,0.71049396,13.896289,12.59838)"
       gradientUnits="userSpaceOnUse"
       id="linearGradient3067"
       xlink:href="#linearGradient4121"
       inkscape:collect="always" />
    <linearGradient
       gradientUnits="userSpaceOnUse"
       y2="19.387045"
       x2="11.998966"
       y1="0.92195445"
       x1="11.998966"
       gradientTransform="scale(0.9219544,1.0846523)"
       id="linearGradient4121">
      <stop
         id="stop4123"
         offset="0"
         style="stop-color:#313233;stop-opacity:1" />
      <stop
         id="stop4125"
         offset="1"
         style="stop-color:#23486a;stop-opacity:1" />
    </linearGradient>
    <linearGradient
       y2="80"
       x2="56"
       y1="16"
       x1="56"
       gradientTransform="matrix(0.14726436,0,0,0.14726436,4.93126,2.636765)"
       gradientUnits="userSpaceOnUse"
       id="linearGradient3391-1"
       xlink:href="#linearGradient4121-9"
       inkscape:collect="always" />
    <linearGradient
       gradientUnits="userSpaceOnUse"
       y2="19.387045"
       x2="11.998966"
       y1="0.92195445"
       x1="11.998966"
       gradientTransform="scale(0.9219544,1.0846523)"
       id="linearGradient4121-9">
      <stop
         id="stop4123-5"
         offset="0"
         style="stop-color:#313233;stop-opacity:1" />
      <stop
         id="stop4125-7"
         offset="1"
         style="stop-color:#23486a;stop-opacity:1" />
    </linearGradient>
    <linearGradient
       inkscape:collect="always"
       xlink:href="#linearGradient4121-9"
       id="linearGradient3930"
       gradientUnits="userSpaceOnUse"
       gradientTransform="matrix(0.17972752,0,0,0.17972752,3.3730169,4.013603)"
       x1="56"
       y1="16"
       x2="56"
       y2="80" />
    <linearGradient
       inkscape:collect="always"
       xlink:href="#linearGradient4121-9"
       id="linearGradient3932"
       gradientUnits="userSpaceOnUse"
       gradientTransform="matrix(0.17972752,0,0,0.17972752,3.3730169,3.013603)"
       x1="56"
       y1="16"
       x2="56"
       y2="80" />
    <linearGradient
       inkscape:collect="always"
       xlink:href="#linearGradient4121-9"
       id="linearGradient3937"
       gradientUnits="userSpaceOnUse"
       gradientTransform="matrix(0.17972752,0,0,0.17972752,3.3730169,4.013603)"
       x1="56"
       y1="16"
       x2="56"
       y2="80" />
    <linearGradient
       inkscape:collect="always"
       xlink:href="#linearGradient4121-9"
       id="linearGradient3941"
       gradientUnits="userSpaceOnUse"
       gradientTransform="matrix(0.17972752,0,0,0.17972752,3.3730169,3.013603)"
       x1="56"
       y1="16"
       x2="56"
       y2="80" />
    <linearGradient
       id="linearGradient3956">
      <stop
         id="stop3958"
         offset="0"
         style="stop-color:#e6c94c;stop-opacity:1;" />
      <stop
         style="stop-color:#e7ce5f;stop-opacity:1"
         offset="0.57832253"
         id="stop3966" />
      <stop
         style="stop-color:#f0de93;stop-opacity:1"
         offset="0.83333331"
         id="stop3960" />
      <stop
         id="stop3962"
         offset="0.91666669"
         style="stop-color:#d0b64c;stop-opacity:1" />
      <stop
         id="stop3964"
         offset="1"
         style="stop-color:#907d2e;stop-opacity:1" />
    </linearGradient>
    <linearGradient
       inkscape:collect="always"
       id="linearGradient4195">
      <stop
         style="stop-color:#000000;stop-opacity:1;"
         offset="0"
         id="stop4197" />
      <stop
         style="stop-color:#000000;stop-opacity:0;"
         offset="1"
         id="stop4199" />
    </linearGradient>
    <linearGradient
       inkscape:collect="always"
       xlink:href="#linearGradient3977"
       id="linearGradient4191"
       x1="10"
       y1="9.5"
       x2="14"
       y2="9.5"
       gradientUnits="userSpaceOnUse"
       gradientTransform="matrix(-1.6666665,0,0,1.6666665,31.999999,-5.3333329)" />
    <linearGradient
       id="linearGradient3977">
      <stop
         style="stop-color:#cbcbcb;stop-opacity:1"
         offset="0"
         id="stop3979" />
      <stop
         style="stop-color:#efefef;stop-opacity:1"
         offset="1"
         id="stop3981" />
    </linearGradient>
    <linearGradient
       inkscape:collect="always"
       xlink:href="#linearGradient3956"
       id="linearGradient3161"
       gradientUnits="userSpaceOnUse"
       gradientTransform="matrix(0.41666663,0,0,0.41666663,-7.9999996,-5.3333325)"
       spreadMethod="reflect"
       x1="48"
       y1="41"
       x2="60"
       y2="41" />
    <linearGradient
       inkscape:collect="always"
       xlink:href="#linearGradient4195"
       id="linearGradient3957"
       gradientUnits="userSpaceOnUse"
       gradientTransform="matrix(1.6666665,0,0,1.6666665,-8,-1.9999995)"
       x1="13"
       y1="8"
       x2="13"
       y2="7" />
    <linearGradient
       y2="5.9877172"
       x2="48"
       y1="90"
       x1="48"
       gradientUnits="userSpaceOnUse"
       id="linearGradient3390"
       xlink:href="#linearGradient3700-5-1-0"
       inkscape:collect="always" />
    <linearGradient
       id="linearGradient3700-5-1-0">
      <stop
         style="stop-color:#285178;stop-opacity:1;"
         offset="0"
         id="stop3702-0-2-3" />
      <stop
         style="stop-color:#4f759a;stop-opacity:1;"
         offset="1"
         id="stop3704-4-9-9" />
    </linearGradient>
    <linearGradient
       gradientTransform="translate(-32,-21)"
       y2="5.9877172"
       x2="48"
       y1="90"
       x1="48"
       gradientUnits="userSpaceOnUse"
       id="linearGradient4006"
       xlink:href="#linearGradient3700-5-1-0"
       inkscape:collect="always" />
  </defs>
  <sodipodi:namedview
     id="base"
     pagecolor="#ffffff"
     bordercolor="#e7e7e7"
     borderopacity="1"
     inkscape:pageopacity="0.0"
     inkscape:pageshadow="2"
     inkscape:zoom="8.7036391"
     inkscape:cx="-11.469341"
     inkscape:cy="7.7686249"
     inkscape:document-units="px"
     inkscape:current-layer="layer1"
     showgrid="true"
     inkscape:showpageshadow="false"
     showguides="true"
     inkscape:guide-bbox="true"
     inkscape:window-width="1920"
     inkscape:window-height="1030"
     inkscape:window-x="0"
     inkscape:window-y="25"
     inkscape:window-maximized="1">
    <sodipodi:guide
       orientation="1,0"
       position="0,112"
       id="guide2383" />
    <sodipodi:guide
       orientation="1,0"
       position="128,54.082119"
       id="guide2387" />
    <sodipodi:guide
       orientation="0,1"
       position="78.156291,0"
       id="guide2389" />
    <inkscape:grid
       type="xygrid"
       id="grid3672"
       visible="true"
       enabled="true"
       empspacing="8"
       snapvisiblegridlinesonly="true" />
  </sodipodi:namedview>
  <metadata
     id="metadata7">
    <rdf:RDF>
      <cc:Work
         rdf:about="">
        <dc:format>image/svg+xml</dc:format>
        <dc:type
           rdf:resource="http://purl.org/dc/dcmitype/StillImage" />
        <dc:title />
      </cc:Work>
    </rdf:RDF>
  </metadata>
  <g
     inkscape:label="Button"
     inkscape:groupmode="layer"
     id="layer1"
     style="display:inline"
     transform="translate(0,2)">
    <rect
       style="opacity:0.3;fill:url(#linearGradient7424);fill-opacity:1;stroke:none;display:inline"
       id="rect3371"
       width="21"
       height="21.5"
       x="1.5"
       y="-0.5"
       rx="2.5"
       ry="2.5" />
    <rect
       ry="2.3255813"
       rx="2.3809524"
       y="1"
       x="2"
       height="20"
       width="20"
       id="rect2553"
       style="opacity:0.5;fill:#000000;fill-opacity:1;stroke:none;display:inline" />
    <rect
       transform="matrix(0.8817734,0,0,0.8817734,1.29906,1.294755)"
       ry="2"
       rx="2"
       y="1.9800392"
       x="2"
       height="8.9714174"
       width="17.975767"
       id="rect3200"
       style="opacity:0.1;fill:#ffffff;fill-opacity:1;stroke:none;display:inline;filter:url(#filter3342)" />
    <rect
       style="fill:url(#linearGradient3216);fill-opacity:1.0;fill-rule:evenodd;stroke:none"
       id="rect3207"
       width="20"
       height="20"
       x="2"
       y="0"
       rx="2"
       ry="2" />
    <path
       style="opacity:0.3;fill:url(#linearGradient3852);fill-opacity:1;fill-rule:evenodd;stroke:none;display:inline"
       d="M 4,0 C 2.892,0 2,0.892 2,2 l 0,16 c 0,1.108 0.892,2 2,2 l 16,0 c 1.108,0 2,-0.892 2,-2 L 22,2 C 22,0.892 21.108,0 20,0 L 4,0 z m 0,1.03125 16,0 c 0.5497,0 0.96875,0.4190495 0.96875,0.96875 l 0,16 c 0,0.5497 -0.41905,0.96875 -0.96875,0.96875 l -16,0 C 3.4502995,18.96875 3.03125,18.5497 3.03125,18 l 0,-16 C 3.03125,1.4502995 3.4502995,1.03125 4,1.03125 z"
       id="rect3050"
       inkscape:connector-curvature="0" />
    <path
       id="path3235"
       d="M 4,20 C 2.892,20 2,19.108 2,18 l 0,-1 c 0,1.108 0.892,2 2,2 l 16,0 c 1.108,0 2,-0.892 2,-2 l 0,1 c 0,1.108 -0.892,2 -2,2 L 4,20 z"
       style="opacity:0.15;fill:url(#linearGradient3845);fill-opacity:1;fill-rule:evenodd;stroke:none;display:inline"
       inkscape:connector-curvature="0" />
  </g>
  <g
     inkscape:groupmode="layer"
     id="layer2"
     inkscape:label="Highlight"
     transform="translate(0,2)"
     sodipodi:insensitive="true">
    <rect
       style="opacity:0.15;fill:#ffffff;fill-opacity:1;fill-rule:nonzero;stroke:none;display:inline;filter:url(#filter3194)"
       id="rect2410"
       width="16"
       height="16"
       x="3"
       y="3"
       rx="2"
       ry="2"
       clip-path="url(#clipPath2849)"
       transform="translate(1,-1)" />
  </g>
  <g
     inkscape:groupmode="layer"
     id="layer4"
     inkscape:label="World Map"
     style="display:inline"
     transform="translate(0,2)">
    <path
       style="opacity:0.3;fill:url(#radialGradient3180);fill-opacity:1;stroke:none;display:inline"
       d="m 9.2356274,0.052765 c 0.2904398,0.5348514 0.1771126,1.2971702 0.6610122,1.5964836 -0.5385034,0.095764 0.4824824,0.4112417 -0.075462,0.7614281 -0.058582,0.4994153 0.00653,1.7319357 0.8726444,1.9299937 0.201499,-0.8275171 0.641192,-1.4737139 1.436646,-1.8658941 0.539088,-0.3537076 1.015423,-0.5288014 0.278883,-0.8505518 0.09457,-0.5757889 0.951268,0.5277637 0.462976,-0.3246182 -0.344144,-0.4060092 -0.631639,-0.5823318 0.0944,-0.6018681 0.955617,-0.76284465 -0.802132,-0.71063105 -1.342708,-0.6449732 -0.796129,0 -1.592264,0 -2.3883941,0 z M 2.6161392,0.397473 C 1.9605475,0.4971737 2.1129463,2.0412946 2.6529978,1.0622635 2.9032921,0.8248399 3.2133395,0.3974619 2.6161392,0.397473 z M 5.3414943,0.445948 C 4.8233553,1.1126116 5.7945318,1.2430619 5.7009489,0.5403503 5.6069046,0.4511486 5.459652,0.4602406 5.3414943,0.445948 z M 6.1817219,0.5644419 C 5.3638928,1.0955585 6.1818087,2.1499496 7.0093996,1.8444248 7.632832,2.1795406 7.8693676,3.0477468 7.1043621,3.436805 7.5031716,3.0293712 8.3281119,4.424353 8.1606571,3.6832099 9.081988,4.0805066 7.6123281,2.4897312 8.5216749,3.1732574 9.3461407,3.0113924 7.8901589,2.4449043 8.2068871,1.959435 7.8356035,1.5409082 7.3231516,0.8785552 6.763628,1.143026 6.7517929,0.1939676 6.1804897,0.8299861 6.2903413,1.4023983 6.0505299,1.1410907 6.2714698,0.7918463 6.1817219,0.5644419 z m -1.324975,0.00539 C 3.9292532,1.0840845 5.5255688,1.7687887 4.984796,0.6818067 l -0.058779,-0.07489 -0.06927,-0.037089 -2e-7,10e-8 z M 3.154747,0.758341 C 2.4953263,0.810887 3.0648261,1.4976333 2.8506119,1.5891247 3.2871844,1.7069717 3.7070135,1.7316877 3.0018886,1.9249015 3.2202329,2.5156364 5.147542,2.3170895 4.3058843,1.4255577 4.1846017,1.0321384 3.8247023,0.4457604 3.8640679,1.2276449 3.731178,0.6209953 3.4439574,1.3801442 3.154747,0.758341 z m 18.000267,0.059246 c -0.774502,0.3130662 0.56253,1.3768331 0.160285,0.2774666 0.0144,-0.100133 0.0062,-0.3323119 -0.160285,-0.2774666 z M 5.2822473,1.270018 C 4.874698,1.5842013 5.8514826,2.7044735 5.0728552,2.4632951 4.3724805,2.4942646 3.4843936,2.7425079 2.81029,2.186612 1.6691488,1.2551718 2.1015831,3.2093504 2.0344431,3.8207388 1.8960015,4.6255105 2.2303245,6.5026225 2.0708721,6.4564651 2.0268881,7.5020694 2.37246,8.3956886 3.0786092,9.114344 c 0.090268,0.339669 0.8881267,1.146674 0.3396718,0.328974 -0.4307774,-1.1993151 0.6461448,0.972576 1.121248,1.034077 0.8096685,0.47213 2.0438373,0.779211 2.5419029,1.369871 -0.4150132,0.841481 -0.3694566,1.6796 0.4260586,2.28481 0.8466217,0.779008 0.03179,1.836382 0.102439,2.773942 -0.071944,0.726308 -0.4361204,2.26735 0.4438872,2.35179 0.187272,-0.760897 0.1359465,-1.987352 0.9760289,-2.304405 C 9.3847744,16.296659 10.014593,16.020002 10.357321,15.235789 11.042716,14.787852 11.6405,13.853133 11.473994,13.00175 10.895645,12.496061 9.8622032,12.850346 9.7396595,11.955457 8.9867572,11.573442 8.1073544,10.914261 7.2491682,11.38321 6.4140631,11.851949 6.1047666,10.109305 5.8617293,10.258007 4.3769749,10.792834 5.0779773,8.5345486 6.2331298,9.128759 6.7502458,9.202839 6.8770314,10.107037 6.7622227,9.214879 7.0089885,8.3858406 7.6625374,7.43253 8.4016012,7.0744765 8.2447527,7.6808665 9.3889283,6.5737127 8.6348441,6.916345 8.702635,6.211729 7.3904267,6.7451628 8.3519944,6.3247687 9.2854412,6.3316787 9.6449664,5.6859789 8.8299732,5.1104661 8.7435841,4.8118388 8.436687,4.2655863 8.1679631,4.752745 8.0463893,3.8286988 6.6568612,3.6486891 7.1539619,4.8234122 7.160725,5.2355525 6.9025643,6.5034017 6.6467676,5.5934275 5.9362394,5.1882081 4.7663205,4.5948645 5.6898031,3.6925452 5.8896189,3.0737868 7.2865491,2.6533765 6.3863931,1.970205 6.4156964,2.3852595 5.851406,2.8597572 5.9759981,2.165995 5.5137448,2.6173877 5.6647524,1.325379 5.2822473,1.270018 z M 18.246533,1.6039549 c -1.122526,0.2288404 -1.352251,1.5190815 -2.113345,2.1610587 -0.481956,0.5468291 0.03123,1.172019 0.476325,1.1045402 0.117114,1.246671 0.909292,-0.6001389 0.793874,-1.1073171 0.03347,-0.4552927 0.819842,-0.9815453 0.404119,-0.1901304 -0.530311,0.6644202 0.283869,0.9311886 0.525478,0.8931671 -0.622445,0.1030151 -0.320238,0.5803926 -0.705588,0.6717258 -0.07333,0.6832188 -1.463282,0.6369876 -1.206504,-0.1726842 -0.111289,0.8303245 -0.77446,1.1805703 -1.463766,1.6092858 0.596261,0.6150719 -0.08466,0.7674986 -0.601503,0.9593897 -0.0787,1.1636809 1.070477,0.6269672 1.358755,-0.045661 0.671271,-0.883235 1.335592,0.7451683 1.270111,0.6467687 0.762547,-0.2455706 -0.8371,-1.3937568 0.110479,-0.8677777 0.42326,0.2941014 0.590009,1.4488092 0.902386,0.454694 -0.0056,0.7363697 1.668929,0.4109855 0.96467,1.1905009 C 18.21195,8.8838834 17.332322,9.012315 16.678667,8.7453541 16.449596,7.82014 15.206302,8.3306424 14.612995,8.6363773 c -0.65444,0.6988807 -1.418109,1.8010697 -0.793512,2.7519637 0.472476,1.176145 2.458873,-0.291966 2.621925,1.073299 0.350045,0.758228 0.220634,1.624431 0.358689,2.483479 0.176459,0.925422 1.013792,2.128339 1.845643,0.916502 0.336398,-0.935337 1.202162,-1.663232 0.919882,-2.632757 0.08136,-0.715517 1.322987,-1.421038 1.099555,-1.897665 -0.980514,-0.03884 -1.448403,-1.107928 -1.65299,-1.90797 0.670482,0.152421 0.551757,1.668857 1.403173,1.607898 0.640691,-0.101796 1.9566,-1.365237 0.614763,-1.252341 -0.479355,-0.12393 -0.586214,-1.0668739 -0.04542,-0.327081 1.482739,0.819245 0.96834,-1.3935698 1.042853,-2.1967807 0,-1.7579831 0,-3.5159662 0,-5.2739493 C 21.52007,2.5286391 20.799935,2.2421075 20.260051,2.7174686 20.119253,1.8593137 19.943294,3.4922758 19.344921,3.3621759 19.2332,3.9580282 18.594265,2.3382397 19.371497,3.006605 20.28693,2.4922621 18.528567,1.9721929 18.349242,1.596042 l -0.10271,0.00791 1e-6,-1e-7 z M 9.6180394,1.8140151 c -0.2942306,0.3568388 0.6375556,0.2203831 0,0 z M 4.9698551,1.970205 c -0.37671,0.4246005 0.6145704,0.2794897 0,0 z m 2.2567658,0.40396 c -0.3235675,0.4221671 0.434532,0.1798466 0,0 z M 13.67914,2.9450852 c -0.336482,0.2823243 -1.202901,-0.042129 -0.559359,0.6276585 0.301533,0.339745 1.210727,-0.3575498 0.559359,-0.6276585 z m -7.3466078,0.23699 c -0.6190395,0.5675697 1.0712255,0.5257956 0.1386479,0.06558 -0.046216,-0.02186 -0.092432,-0.04372 -0.1386479,-0.06558 z m 8.6338798,1.5835099 c -0.35015,0.3933699 0.103129,1.0773511 0.025,1.4718683 1.158185,-0.1476036 -4.49e-4,-0.9284495 -0.025,-1.4718683 z m -0.317779,0.6194 c -0.690125,0.1554158 -0.04063,1.058727 0.08349,0.2414199 0.0079,-0.06624 0.03519,-0.235241 -0.08349,-0.2414199 z M 9.391824,6.079785 C 8.4589598,6.4999984 10.159525,7.2022459 9.5352929,6.3962662 L 9.435766,6.2444808 9.3918241,6.079785 l -10e-8,0 z m 11.536975,0.7001901 c 0.05489,0.2714162 -0.442573,0.5882994 0.08697,0.8443912 0.405401,0.7923828 -0.62963,0.7482827 -0.470554,0.00807 -0.253824,-0.4417142 -0.182548,-0.8118851 0.383587,-0.8524575 z m -1.567349,0.00539 c 0.05963,0.3607551 0.719144,1.0833477 -0.113107,0.8348402 -0.665839,0.3731938 -1.294704,-0.607394 -0.447787,-0.6638503 0.512867,0.3403072 0.124142,-0.1718886 0.560894,-0.1709899 z m -3.032361,0.8833098 c -0.387212,0.2288129 0.289998,0.3841363 0,0 z M 6.7149432,9.968535 c 0.2974539,0.410465 0.9742728,0.23207 0.1995797,0.0424 -0.066527,-0.01413 -0.1330532,-0.02827 -0.1995797,-0.0424 z m 0.9910388,0.307 c -0.3160374,0.427586 0.7478315,0.02616 0,0 z m 12.937356,3.60329 c -0.917818,-0.02211 -0.600686,2.163038 -0.115241,0.7991 0.06901,-0.2544 0.235602,-0.534336 0.115241,-0.7991 z"
       id="path3175"
       inkscape:connector-curvature="0" />
  </g>
  <g
     inkscape:groupmode="layer"
     id="layer3"
     inkscape:label="Network"
     style="display:inline"
     transform="translate(0,2)"
     sodipodi:insensitive="true">
    <path
       style="fill:none;stroke:url(#radialGradient4102);stroke-width:1.00000012;stroke-linecap:butt;stroke-linejoin:miter;stroke-miterlimit:4;stroke-opacity:1;stroke-dasharray:none"
       d="M 2,10.25 C 8.5209479,5.5491445 17.966875,4.6052342 21.822026,9.947115"
       id="path3577"
       sodipodi:nodetypes="cc"
       inkscape:connector-curvature="0" />
    <path
       style="fill:none;stroke:url(#radialGradient4114);stroke-width:1.00000012;stroke-linecap:butt;stroke-linejoin:miter;stroke-miterlimit:4;stroke-opacity:1;stroke-dasharray:none"
       d="M 6.1518918,0.1961974 C 2.0294584,11.55524 18.717196,19.536999 18.717196,19.536999"
       id="path3583"
       sodipodi:nodetypes="cc"
       inkscape:connector-curvature="0" />
    <path
       style="fill:none;stroke:url(#radialGradient4111);stroke-width:1.00000012;stroke-linecap:butt;stroke-linejoin:miter;stroke-miterlimit:4;stroke-opacity:1;stroke-dasharray:none"
       d="M 7.2782753,19.957267 C 7.0322018,16.196582 14.193748,5.1346146 21.781014,3.2542724"
       id="path3581"
       sodipodi:nodetypes="cc"
       inkscape:connector-curvature="0" />
    <path
       sodipodi:type="arc"
       style="fill:#eeeeec;fill-opacity:1;fill-rule:evenodd;stroke:none;display:inline"
       id="path4125"
       sodipodi:cx="6.25"
       sodipodi:cy="8.375"
       sodipodi:rx="1.8125"
       sodipodi:ry="1.8125"
       d="m 8.0625,8.375 c 0,1.0010161 -0.8114839,1.8125 -1.8125,1.8125 -1.0010161,0 -1.8125,-0.8114839 -1.8125,-1.8125 0,-1.0010161 0.8114839,-1.8125 1.8125,-1.8125 1.0010161,0 1.8125,0.8114839 1.8125,1.8125 z"
       transform="matrix(0.8965517,0,0,0.8965517,0.6465517,0.0663796)" />
    <path
       sodipodi:type="arc"
       style="fill:#eeeeec;fill-opacity:1;fill-rule:evenodd;stroke:none;display:inline"
       id="path4127"
       sodipodi:cx="14.8125"
       sodipodi:cy="7.625"
       sodipodi:rx="1.9375"
       sodipodi:ry="1.9375"
       d="m 16.75,7.625 c 0,1.0700517 -0.867448,1.9375 -1.9375,1.9375 -1.070052,0 -1.9375,-0.8674483 -1.9375,-1.9375 0,-1.0700517 0.867448,-1.9375 1.9375,-1.9375 1.070052,0 1.9375,0.8674483 1.9375,1.9375 z"
       transform="matrix(0.9032258,0,0,0.9032258,2.9329678,-0.36209671)" />
    <path
       sodipodi:type="arc"
       style="fill:#eeeeec;fill-opacity:1;fill-rule:evenodd;stroke:none;display:inline"
       id="path4129"
       sodipodi:cx="9.1875"
       sodipodi:cy="13.5"
       sodipodi:rx="1.5625"
       sodipodi:ry="1.5625"
       d="m 10.75,13.5 c 0,0.862945 -0.699555,1.5625 -1.5625,1.5625 -0.8629449,0 -1.5625,-0.699555 -1.5625,-1.5625 0,-0.862945 0.6995551,-1.5625 1.5625,-1.5625 0.862945,0 1.5625,0.699555 1.5625,1.5625 z"
       transform="translate(0.6,-5e-4)" />
  </g>
  <g
     inkscape:groupmode="layer"
     id="layer5"
     inkscape:label="Symbol"
     sodipodi:insensitive="true">
    <path
       sodipodi:type="inkscape:offset"
       inkscape:radius="0.55463105"
       inkscape:original="M 12 4.09375 C 9.5699866 4.09375 7.59375 6.069987 7.59375 8.5 L 7.59375 10.5 C 6.6638653 10.628781 5.9375 11.380824 5.9375 12.34375 L 5.9375 18.65625 C 5.9375 19.70751 6.7924898 20.5625 7.84375 20.5625 L 16.15625 20.5625 C 17.20751 20.5625 18.0625 19.70751 18.0625 18.65625 L 18.0625 12.34375 C 18.0625 11.380824 17.336135 10.628781 16.40625 10.5 L 16.40625 8.5 C 16.40625 6.0699867 14.430012 4.09375 12 4.09375 z M 12 7.84375 C 12.241166 7.84375 12.372144 7.934644 12.46875 8.03125 C 12.56536 8.127856 12.65625 8.2588338 12.65625 8.5 L 12.65625 10.4375 L 11.34375 10.4375 L 11.34375 8.5 C 11.34375 8.2588333 11.43464 8.1278562 11.53125 8.03125 C 11.62786 7.934644 11.758834 7.84375 12 7.84375 z "
       style="opacity:0.1;color:#000000;fill:#000000;fill-opacity:1;fill-rule:nonzero;stroke:none;stroke-width:2;marker:none;visibility:visible;display:inline;overflow:visible;enable-background:accumulate"
       id="path3876"
       d="M 12,3.53125 C 9.2692798,3.53125 7.03125,5.7692802 7.03125,8.5 l 0,1.59375 C 6.0943375,10.429676 5.375,11.284734 5.375,12.34375 l 0,6.3125 c 0,1.351981 1.1167688,2.46875 2.46875,2.46875 l 8.3125,0 c 1.351981,0 2.46875,-1.116769 2.46875,-2.46875 l 0,-6.3125 c 0,-1.059016 -0.719337,-1.914074 -1.65625,-2.25 l 0,-1.59375 C 16.96875,5.7692797 14.730719,3.53125 12,3.53125 z m 0,4.875 c 0.101808,0 0.02014,-0.011114 0.0625,0.03125 0.04236,0.042355 0.03125,-0.039314 0.03125,0.0625 l 0,1.375 -0.1875,0 0,-1.375 c 0,-0.1018152 -0.01111,-0.020144 0.03125,-0.0625 C 11.97988,8.395122 11.898192,8.40625 12,8.40625 z" />
    <path
       style="opacity:0.15;color:#000000;fill:#000000;fill-opacity:1;fill-rule:nonzero;stroke:none;stroke-width:2;marker:none;visibility:visible;display:inline;overflow:visible;enable-background:accumulate"
       d="M 12,4.09375 C 9.5699866,4.09375 7.59375,6.069987 7.59375,8.5 l 0,2 C 6.6638653,10.628781 5.9375,11.380824 5.9375,12.34375 l 0,6.3125 c 0,1.05126 0.8549898,1.90625 1.90625,1.90625 l 8.3125,0 c 1.05126,0 1.90625,-0.85499 1.90625,-1.90625 l 0,-6.3125 c 0,-0.962926 -0.726365,-1.714969 -1.65625,-1.84375 l 0,-2 C 16.40625,6.0699867 14.430012,4.09375 12,4.09375 z m 0,3.75 c 0.241166,0 0.372144,0.090894 0.46875,0.1875 0.09661,0.096606 0.1875,0.2275838 0.1875,0.46875 l 0,1.9375 -1.3125,0 0,-1.9375 c 0,-0.2411667 0.09089,-0.3721438 0.1875,-0.46875 C 11.62786,7.934644 11.758834,7.84375 12,7.84375 z"
       id="path3974"
       inkscape:connector-curvature="0" />
    <path
       sodipodi:type="inkscape:offset"
       inkscape:radius="0.47356614"
       inkscape:original="M 12 5.15625 C 10.153333 5.15625 8.65625 6.6533334 8.65625 8.5 L 8.65625 11.5 L 7.84375 11.5 C 7.382083 11.5 7 11.882083 7 12.34375 L 7 18.65625 C 7 19.117917 7.382083 19.5 7.84375 19.5 L 16.15625 19.5 C 16.617917 19.5 17 19.117917 17 18.65625 L 17 12.34375 C 17 11.882083 16.617917 11.5 16.15625 11.5 L 15.34375 11.5 L 15.34375 8.5 C 15.34375 6.6533334 13.846666 5.15625 12 5.15625 z M 12 6.78125 C 12.985362 6.78125 13.71875 7.514636 13.71875 8.5 L 13.71875 11.5 L 10.28125 11.5 L 10.28125 8.5 C 10.28125 7.514636 11.014637 6.78125 12 6.78125 z "
       style="opacity:0.2;color:#000000;fill:#000000;fill-opacity:1;fill-rule:nonzero;stroke:none;stroke-width:2;marker:none;visibility:visible;display:inline;overflow:visible;enable-background:accumulate"
       id="path3970"
       d="M 12,4.6875 C 9.8973879,4.6875 8.1875,6.3973883 8.1875,8.5 l 0,2.53125 -0.34375,0 c -0.7229543,0 -1.3125,0.589546 -1.3125,1.3125 l 0,6.3125 c 0,0.722954 0.5895457,1.3125 1.3125,1.3125 l 8.3125,0 c 0.722954,0 1.3125,-0.589546 1.3125,-1.3125 l 0,-6.3125 c 0,-0.722954 -0.589546,-1.3125 -1.3125,-1.3125 l -0.34375,0 0,-2.53125 C 15.8125,6.3973882 14.102611,4.6875 12,4.6875 z M 12,7.25 c 0.750385,0 1.25,0.4996136 1.25,1.25 l 0,2.53125 -2.5,0 0,-2.53125 c 0,-0.7503867 0.499614,-1.25 1.25,-1.25 z" />
    <path
       style="opacity:0.3;color:#000000;fill:#000000;fill-opacity:1;fill-rule:nonzero;stroke:none;stroke-width:2;marker:none;visibility:visible;display:inline;overflow:visible;enable-background:accumulate"
       d="m 12,5.15625 c -1.846667,0 -3.34375,1.4970834 -3.34375,3.34375 l 0,3 -0.8125,0 C 7.382083,11.5 7,11.882083 7,12.34375 l 0,6.3125 C 7,19.117917 7.382083,19.5 7.84375,19.5 l 8.3125,0 C 16.617917,19.5 17,19.117917 17,18.65625 l 0,-6.3125 C 17,11.882083 16.617917,11.5 16.15625,11.5 l -0.8125,0 0,-3 C 15.34375,6.6533334 13.846666,5.15625 12,5.15625 z m 0,1.625 c 0.985362,0 1.71875,0.733386 1.71875,1.71875 l 0,3 -3.4375,0 0,-3 c 0,-0.985364 0.733387,-1.71875 1.71875,-1.71875 z"
       id="path3959"
       inkscape:connector-curvature="0" />
    <path
       transform="translate(0,2)"
       sodipodi:type="inkscape:offset"
       inkscape:radius="0.37375355"
       inkscape:original="M 12 4.28125 C 11.862343 4.28125 11.806325 4.3037231 11.78125 4.3125 C 11.696049 4.3181992 11.609076 4.3214283 11.5 4.34375 C 10.351723 4.5787372 9.5 5.6028255 9.5 6.8125 L 9.5 8 C 8.9687195 8 8.53125 8.4374695 8.53125 8.96875 L 8.53125 9.5 L 8.53125 11.5 L 8.53125 11.96875 C 8.53125 12.500031 8.9687195 12.9375 9.5 12.9375 L 14.5 12.9375 C 15.031281 12.9375 15.46875 12.500031 15.46875 11.96875 L 15.46875 9.5 L 15.46875 8.96875 C 15.46875 8.4374695 15.031281 8 14.5 8 L 14.5 6.8125 C 14.5 5.9937553 14.114865 5.2694935 13.5 4.8125 C 13.596865 4.8849828 13.596069 4.8272711 13.4375 4.71875 C 13.041895 4.4480002 12.538317 4.28125 12 4.28125 z M 12 5.90625 C 12.234963 5.90625 12.464473 6.0066347 12.625 6.15625 C 12.621492 6.1529817 12.606131 6.1686257 12.625 6.1875 C 12.600781 6.1628574 12.624662 6.1685257 12.6875 6.25 C 12.788538 6.3800123 12.785013 6.3801737 12.71875 6.28125 C 12.766818 6.3526328 12.814142 6.4602074 12.84375 6.59375 C 12.876893 6.7432446 12.90625 6.8250795 12.90625 6.8125 L 12.90625 8 L 11.09375 8 L 11.09375 6.8125 C 11.09375 6.7829256 11.124403 6.719481 11.15625 6.59375 C 11.165994 6.5557691 11.153928 6.5589061 11.15625 6.53125 C 11.162868 6.5214265 11.149569 6.5116228 11.15625 6.5 C 11.168658 6.4784149 11.175456 6.4972814 11.1875 6.46875 C 11.168743 6.5138733 11.191921 6.4760587 11.25 6.375 C 11.280941 6.3212292 11.307023 6.2602149 11.34375 6.21875 C 11.343827 6.2186647 11.341384 6.1920889 11.34375 6.1875 C 11.345102 6.1848778 11.373042 6.1913141 11.375 6.1875 C 11.432361 6.1310391 11.512765 6.0845211 11.625 6.03125 C 11.637773 6.0249836 11.613844 6.0063152 11.625 6 C 11.6514 5.9880784 11.636982 5.9807675 11.65625 5.96875 C 11.675217 5.9642022 11.664079 5.9771091 11.6875 5.96875 C 11.706232 5.964772 11.696691 5.9755583 11.71875 5.96875 L 11.71875 6 C 11.833644 5.9651546 11.879417 5.9369616 11.875 5.9375 C 12.011007 5.9194779 12.049995 5.90625 12 5.90625 z "
       style="opacity:0;color:#000000;fill:#000000;fill-opacity:1;fill-rule:nonzero;stroke:none;stroke-width:2;marker:none;visibility:visible;display:inline;overflow:visible;enable-background:accumulate"
       id="path4173"
       d="m 12,3.90625 c -0.128401,0 -0.192261,0.016053 -0.25,0.03125 -0.07768,0.0052 -0.172129,0.00252 -0.3125,0.03125 C 10.11583,4.239221 9.125,5.4273874 9.125,6.8125 l 0,0.875 C 8.5683059,7.8512588 8.15625,8.3620417 8.15625,8.96875 l 0,0.53125 0,2 0,0.46875 c 0,0.736453 0.6072978,1.34375 1.34375,1.34375 l 5,0 c 0.736453,0 1.34375,-0.607297 1.34375,-1.34375 l 0,-2.46875 0,-0.53125 c 0,-0.6067081 -0.412056,-1.1174911 -0.96875,-1.28125 l 0,-0.875 c 0,-0.817157 -0.381282,-1.5374986 -0.9375,-2.0625 -0.0059,-0.023855 -0.02469,-0.046796 -0.03125,-0.0625 -0.0525,-0.1256311 -0.08584,-0.1195715 -0.125,-0.15625 C 13.766565,4.5174955 13.73485,4.5132064 13.71875,4.5 13.691917,4.4779894 13.688915,4.428605 13.65625,4.40625 13.197675,4.0924039 12.6155,3.90625 12,3.90625 z m 0,2.375 c 0.01057,-0.00474 0.02175,0.00473 0.03125,0 0.121859,0.00828 0.258705,0.076986 0.34375,0.15625 a 0.37379092,0.37379092 0 0 0 0.03125,0.03125 c 0.0074,0.00949 -0.0062,0.02319 0,0.03125 0.0029,0.00427 0.02699,0.023263 0.03125,0.03125 0.0032,0.00599 -0.0037,0.02338 0,0.03125 0.01599,0.034103 0.01788,0.064689 0.03125,0.125 0.01295,0.058411 0.051,0.083497 0.0625,0.125 0.0049,0.017787 -0.0045,0.047664 0,0.0625 l 0,0.75 -1.0625,0 0,-0.8125 c 0.01171,-0.035894 0.04656,-0.06208 0.0625,-0.125 0.0039,-0.015017 -0.0021,-0.041559 0,-0.0625 0.01101,-0.01878 0.0164,-0.036655 0.03125,-0.0625 0.01076,-0.018694 -0.0084,-0.017034 0,-0.03125 0.02799,-0.047386 0.08227,-0.08482 0.0625,-0.0625 0.0061,-0.00597 0.05769,-0.04697 0.15625,-0.09375 0.01062,-0.00521 0.01608,-0.020753 0.03125,-0.03125 0.01517,-0.010497 0.02223,-0.024491 0.03125,-0.03125 0.0097,-0.00318 0.02228,0.00313 0.03125,0 0.01795,-0.00625 0.04714,0.00602 0.0625,0 0.01792,-0.00702 0.0477,-0.024608 0.0625,-0.03125 z" />
    <path
       style="color:#000000;fill:url(#linearGradient4191);fill-opacity:1;fill-rule:nonzero;stroke:none;stroke-width:2;marker:none;visibility:visible;display:inline;overflow:visible;enable-background:accumulate"
       d="m 12,4.6666667 c 1.846666,0 3.333333,1.4866666 3.333333,3.3333332 l 0,5.0000001 c 0,1.846666 -1.486667,3.333333 -3.333333,3.333333 -1.846667,0 -3.3333334,-1.486667 -3.3333334,-3.333333 l 0,-5.0000001 C 8.6666666,6.1533333 10.153333,4.6666667 12,4.6666667 z M 12,6.28125 c -0.985363,0 -1.71875,0.7333859 -1.71875,1.7187499 l 0,5.0000001 c 0,0.985363 0.733387,1.718749 1.71875,1.718749 0.985362,0 1.718749,-0.733386 1.718749,-1.718749 l 0,-5.0000001 C 13.718749,7.0146359 12.985362,6.28125 12,6.28125 z"
       id="rect4177"
       inkscape:connector-curvature="0" />
    <path
       inkscape:connector-curvature="0"
       id="path4193"
       d="m 12,4.6666667 c 1.846666,0 3.333333,1.4866666 3.333333,3.3333332 l 0,5.0000001 c 0,1.846666 -1.486667,3.333333 -3.333333,3.333333 -1.846667,0 -3.3333334,-1.486667 -3.3333334,-3.333333 l 0,-5.0000001 C 8.6666666,6.1533333 10.153333,4.6666667 12,4.6666667 z M 12,6.28125 c -0.985363,0 -1.71875,0.7333859 -1.71875,1.7187499 l 0,5.0000001 c 0,0.985363 0.733387,1.718749 1.71875,1.718749 0.985362,0 1.718749,-0.733386 1.718749,-1.718749 l 0,-5.0000001 C 13.718749,7.0146359 12.985362,6.28125 12,6.28125 z"
       style="opacity:0.3;color:#000000;fill:url(#linearGradient3957);fill-opacity:1;fill-rule:nonzero;stroke:none;stroke-width:2;marker:none;visibility:visible;display:inline;overflow:visible;enable-background:accumulate" />
    <rect
       ry="0.83333325"
       rx="0.83333325"
       y="11"
       x="6.999999"
       height="8"
       width="10"
       id="rect3225"
       style="color:#000000;fill:url(#linearGradient3161);fill-opacity:1;fill-rule:nonzero;stroke:none;stroke-width:2;marker:none;visibility:visible;display:inline;overflow:visible;enable-background:accumulate" />
    <path
       style="opacity:0.3;color:#000000;fill:#ffffff;fill-opacity:1;fill-rule:nonzero;stroke:none;stroke-width:2;marker:none;visibility:visible;display:inline;overflow:visible;enable-background:accumulate"
       d="m 7.8333322,11 c -0.4616667,0 -0.8333333,0.371666 -0.8333333,0.833333 l 0,0.885416 c 0,-0.461666 0.3716666,-0.833333 0.8333333,-0.833333 l 8.3333328,0 c 0.461666,0 0.833333,0.371667 0.833333,0.833333 l 0,-0.885416 C 16.999998,11.371666 16.628331,11 16.166665,11 l -8.3333328,0 z"
       id="rect3233"
       inkscape:connector-curvature="0" />
    <path
       inkscape:connector-curvature="0"
       style="opacity:0.3;color:#000000;fill:#c87137;fill-opacity:1;fill-rule:nonzero;stroke:none;stroke-width:2;marker:none;visibility:visible;display:inline;overflow:visible;enable-background:accumulate"
       d="m 6.9999989,17.385415 0,0.78125 c 0,0.461667 0.3716666,0.833333 0.8333333,0.833333 l 8.3333328,0 c 0.461666,0 0.833333,-0.371666 0.833333,-0.833333 l 0,-0.78125 c 0,0.461667 -0.371667,0.833334 -0.833333,0.833334 l -8.3333328,0 c -0.4616667,0 -0.8333333,-0.371667 -0.8333333,-0.833334 z"
       id="rect4010" />
    <path
       id="path3167"
       d="m 6.9999989,13.385415 0,0.78125 c 0,0.461667 0.3716666,0.833333 0.8333333,0.833333 l 8.3333328,0 c 0.461666,0 0.833333,-0.371666 0.833333,-0.833333 l 0,-0.78125 c 0,0.461667 -0.371667,0.833334 -0.833333,0.833334 l -8.3333328,0 c -0.4616667,0 -0.8333333,-0.371667 -0.8333333,-0.833334 z"
       style="opacity:0.3;color:#000000;fill:#c87137;fill-opacity:1;fill-rule:nonzero;stroke:none;stroke-width:2;marker:none;visibility:visible;display:inline;overflow:visible;enable-background:accumulate"
       inkscape:connector-curvature="0" />
    <path
       inkscape:connector-curvature="0"
       id="path3169"
       d="m 7.8333322,15 c -0.4616667,0 -0.8333333,0.371666 -0.8333333,0.833333 l 0,0.885416 c 0,-0.461666 0.3716666,-0.833333 0.8333333,-0.833333 l 8.3333328,0 c 0.461666,0 0.833333,0.371667 0.833333,0.833333 l 0,-0.885416 C 16.999998,15.371666 16.628331,15 16.166665,15 l -8.3333328,0 z"
       style="opacity:0.3;color:#000000;fill:#ffffff;fill-opacity:1;fill-rule:nonzero;stroke:none;stroke-width:2;marker:none;visibility:visible;display:inline;overflow:visible;enable-background:accumulate" />
  </g>
</svg>
