<?xml version="1.0" encoding="UTF-8" standalone="no"?>
<!-- Created with Inkscape (http://www.inkscape.org/) -->

<svg
   xmlns:dc="http://purl.org/dc/elements/1.1/"
   xmlns:cc="http://creativecommons.org/ns#"
   xmlns:rdf="http://www.w3.org/1999/02/22-rdf-syntax-ns#"
   xmlns:svg="http://www.w3.org/2000/svg"
   xmlns="http://www.w3.org/2000/svg"
   xmlns:xlink="http://www.w3.org/1999/xlink"
   xmlns:sodipodi="http://sodipodi.sourceforge.net/DTD/sodipodi-0.dtd"
   xmlns:inkscape="http://www.inkscape.org/namespaces/inkscape"
   width="22"
   height="22"
   id="svg2"
   sodipodi:version="0.32"
   inkscape:version="0.48.0 r9654"
   version="1.0"
   sodipodi:docname="new-messages-red.svg"
   inkscape:output_extension="org.inkscape.output.svg.inkscape"
   style="display:inline">
  <defs
     id="defs4">
    <linearGradient
       id="linearGradient3295">
      <stop
         style="stop-color:#559829;stop-opacity:1;"
         offset="0"
         id="stop3297" />
      <stop
         style="stop-color:#86c837;stop-opacity:1;"
         offset="1"
         id="stop3299" />
    </linearGradient>
    <linearGradient
       id="linearGradient3287">
      <stop
         style="stop-color:#cd0000;stop-opacity:1;"
         offset="0"
         id="stop3289" />
      <stop
         style="stop-color:#e55300;stop-opacity:1;"
         offset="1"
         id="stop3291" />
    </linearGradient>
    <linearGradient
       id="linearGradient3279">
      <stop
         style="stop-color:#f08e00;stop-opacity:1;"
         offset="0"
         id="stop3281" />
      <stop
         style="stop-color:#ffd200;stop-opacity:1;"
         offset="1"
         id="stop3283" />
    </linearGradient>
    <linearGradient
       id="linearGradient3271">
      <stop
         style="stop-color:#395d93;stop-opacity:1;"
         offset="0"
         id="stop3273" />
      <stop
         style="stop-color:#6e92c7;stop-opacity:1;"
         offset="1"
         id="stop3275" />
    </linearGradient>
    <linearGradient
       inkscape:collect="always"
       id="linearGradient3327">
      <stop
         style="stop-color:#000000;stop-opacity:1;"
         offset="0"
         id="stop3330" />
      <stop
         style="stop-color:#000000;stop-opacity:0;"
         offset="1"
         id="stop3333" />
    </linearGradient>
    <linearGradient
       inkscape:collect="always"
       xlink:href="#linearGradient3327"
       id="linearGradient3335"
       x1="11.375"
       y1="22"
       x2="11.375"
       y2="-9.817296"
       gradientUnits="userSpaceOnUse" />
    <inkscape:perspective
       sodipodi:type="inkscape:persp3d"
       inkscape:vp_x="0 : 11 : 1"
       inkscape:vp_y="0 : 1000 : 0"
       inkscape:vp_z="22 : 11 : 1"
       inkscape:persp3d-origin="11 : 7.3333333 : 1"
       id="perspective102" />
    <linearGradient
       id="linearGradient4081">
      <stop
         style="stop-color:#aaaaaa;stop-opacity:1;"
         offset="0"
         id="stop4083" />
      <stop
         style="stop-color:#ebebeb;stop-opacity:1;"
         offset="1"
         id="stop4085" />
    </linearGradient>
    <linearGradient
       id="linearGradient4057">
      <stop
         style="stop-color:#816647;stop-opacity:1;"
         offset="0"
         id="stop4059" />
      <stop
         style="stop-color:#a6845d;stop-opacity:1;"
         offset="1"
         id="stop4061" />
    </linearGradient>
    <linearGradient
       id="linearGradient3929">
      <stop
         style="stop-color:#000000;stop-opacity:1;"
         offset="0"
         id="stop3931" />
      <stop
         style="stop-color:#000000;stop-opacity:0;"
         offset="1"
         id="stop3933" />
    </linearGradient>
    <linearGradient
       inkscape:collect="always"
       xlink:href="#linearGradient3929"
       id="linearGradient4051"
       x1="9.494998"
       y1="15.516565"
       x2="9.494998"
       y2="-4.1786065"
       gradientUnits="userSpaceOnUse" />
    <linearGradient
       inkscape:collect="always"
       xlink:href="#linearGradient4057"
       id="linearGradient4063"
       x1="9.17138"
       y1="21.000002"
       x2="9.17138"
       y2="0.97239029"
       gradientUnits="userSpaceOnUse" />
    <linearGradient
       inkscape:collect="always"
       xlink:href="#linearGradient4081"
       id="linearGradient4089"
       x1="6.101758"
       y1="154.58195"
       x2="6.101758"
       y2="36.995476"
       gradientUnits="userSpaceOnUse" />
    <linearGradient
       inkscape:collect="always"
       xlink:href="#linearGradient4081"
       id="linearGradient4103"
       gradientUnits="userSpaceOnUse"
       x1="6.101758"
       y1="154.58195"
       x2="6.101758"
       y2="36.995476" />
    <linearGradient
       inkscape:collect="always"
       xlink:href="#linearGradient4081"
       id="linearGradient4105"
       gradientUnits="userSpaceOnUse"
       x1="6.101758"
       y1="154.58195"
       x2="6.101758"
       y2="36.995476" />
    <linearGradient
       inkscape:collect="always"
       xlink:href="#linearGradient4081"
       id="linearGradient4107"
       gradientUnits="userSpaceOnUse"
       x1="6.101758"
       y1="154.58195"
       x2="6.101758"
       y2="36.995476" />
    <linearGradient
       inkscape:collect="always"
       xlink:href="#linearGradient4081"
       id="linearGradient4109"
       gradientUnits="userSpaceOnUse"
       x1="6.101758"
       y1="154.58195"
       x2="6.101758"
       y2="36.995476" />
    <linearGradient
       inkscape:collect="always"
       xlink:href="#linearGradient4081"
       id="linearGradient4111"
       gradientUnits="userSpaceOnUse"
       x1="6.101758"
       y1="154.58195"
       x2="6.101758"
       y2="36.995476" />
    <linearGradient
       inkscape:collect="always"
       xlink:href="#linearGradient4081"
       id="linearGradient4113"
       gradientUnits="userSpaceOnUse"
       x1="6.101758"
       y1="154.58195"
       x2="6.101758"
       y2="36.995476" />
    <linearGradient
       inkscape:collect="always"
       xlink:href="#linearGradient4081"
       id="linearGradient4115"
       gradientUnits="userSpaceOnUse"
       x1="6.101758"
       y1="154.58195"
       x2="6.101758"
       y2="36.995476" />
    <linearGradient
       inkscape:collect="always"
       xlink:href="#linearGradient4081"
       id="linearGradient4117"
       gradientUnits="userSpaceOnUse"
       x1="6.101758"
       y1="154.58195"
       x2="6.101758"
       y2="36.995476" />
    <linearGradient
       inkscape:collect="always"
       xlink:href="#linearGradient4081"
       id="linearGradient4119"
       gradientUnits="userSpaceOnUse"
       x1="6.101758"
       y1="154.58195"
       x2="6.101758"
       y2="36.995476" />
    <linearGradient
       inkscape:collect="always"
       xlink:href="#linearGradient4081"
       id="linearGradient4121"
       gradientUnits="userSpaceOnUse"
       x1="6.101758"
       y1="154.58195"
       x2="6.101758"
       y2="36.995476" />
    <linearGradient
       inkscape:collect="always"
       xlink:href="#linearGradient4081"
       id="linearGradient4123"
       gradientUnits="userSpaceOnUse"
       x1="6.101758"
       y1="154.58195"
       x2="6.101758"
       y2="36.995476" />
    <linearGradient
       inkscape:collect="always"
       xlink:href="#linearGradient4081"
       id="linearGradient4125"
       gradientUnits="userSpaceOnUse"
       x1="6.101758"
       y1="154.58195"
       x2="6.101758"
       y2="36.995476" />
    <linearGradient
       inkscape:collect="always"
       xlink:href="#linearGradient4081"
       id="linearGradient4127"
       gradientUnits="userSpaceOnUse"
       x1="6.101758"
       y1="154.58195"
       x2="6.101758"
       y2="36.995476" />
    <linearGradient
       inkscape:collect="always"
       xlink:href="#linearGradient4081"
       id="linearGradient4129"
       gradientUnits="userSpaceOnUse"
       x1="6.101758"
       y1="154.58195"
       x2="6.101758"
       y2="36.995476" />
    <linearGradient
       inkscape:collect="always"
       xlink:href="#linearGradient4081"
       id="linearGradient4132"
       gradientUnits="userSpaceOnUse"
       x1="6.101758"
       y1="154.58195"
       x2="6.101758"
       y2="36.995476"
       gradientTransform="matrix(0.1317916,0,0,0.1317916,11.619896,-1.9882468)" />
    <linearGradient
       inkscape:collect="always"
       xlink:href="#linearGradient4081"
       id="linearGradient4141"
       gradientUnits="userSpaceOnUse"
       x1="6.101758"
       y1="154.58195"
       x2="6.101758"
       y2="36.995476"
       gradientTransform="matrix(0.1317916,0,0,0.1317916,11.619896,-1.9882468)" />
    <linearGradient
       inkscape:collect="always"
       xlink:href="#linearGradient4081"
       id="linearGradient4148"
       gradientUnits="userSpaceOnUse"
       x1="6.101758"
       y1="154.58195"
       x2="6.101758"
       y2="36.995476"
       gradientTransform="matrix(0.1317916,0,0,0.1317916,11.619896,-1.9882468)" />
    <linearGradient
       inkscape:collect="always"
       xlink:href="#linearGradient4081"
       id="linearGradient4158"
       gradientUnits="userSpaceOnUse"
       x1="6.101758"
       y1="154.58195"
       x2="6.101758"
       y2="36.995476"
       gradientTransform="matrix(0.1317916,0,0,0.1317916,11.619896,-1.9882468)" />
    <linearGradient
       inkscape:collect="always"
       xlink:href="#linearGradient4081"
       id="linearGradient4180"
       gradientUnits="userSpaceOnUse"
       x1="6.101758"
       y1="154.58195"
       x2="6.101758"
       y2="36.995476" />
    <linearGradient
       inkscape:collect="always"
       xlink:href="#linearGradient4081"
       id="linearGradient4182"
       gradientUnits="userSpaceOnUse"
       gradientTransform="matrix(0.1317916,0,0,0.1317916,11.619896,-1.9882468)"
       x1="6.101758"
       y1="154.58195"
       x2="6.101758"
       y2="36.995476" />
    <linearGradient
       inkscape:collect="always"
       xlink:href="#linearGradient4081"
       id="linearGradient4184"
       gradientUnits="userSpaceOnUse"
       x1="6.101758"
       y1="154.58195"
       x2="6.101758"
       y2="36.995476" />
    <linearGradient
       inkscape:collect="always"
       xlink:href="#linearGradient4081"
       id="linearGradient4186"
       gradientUnits="userSpaceOnUse"
       gradientTransform="matrix(0.1317916,0,0,0.1317916,11.619896,-1.9882468)"
       x1="6.101758"
       y1="154.58195"
       x2="6.101758"
       y2="36.995476" />
    <linearGradient
       inkscape:collect="always"
       xlink:href="#linearGradient4081"
       id="linearGradient2480"
       gradientUnits="userSpaceOnUse"
       gradientTransform="matrix(0.1256322,0,0,0.1256322,11.921746,-1.0005124)"
       x1="6.101758"
       y1="154.58195"
       x2="6.101758"
       y2="36.995476" />
    <linearGradient
       inkscape:collect="always"
       xlink:href="#linearGradient4081"
       id="linearGradient2483"
       gradientUnits="userSpaceOnUse"
       gradientTransform="matrix(0.1256322,0,0,0.1256322,11.921746,-1.0005124)"
       x1="6.101758"
       y1="154.58195"
       x2="6.101758"
       y2="36.995476" />
    <linearGradient
       inkscape:collect="always"
       xlink:href="#linearGradient4081"
       id="linearGradient2489"
       gradientUnits="userSpaceOnUse"
       gradientTransform="matrix(0.1256322,0,0,0.1256322,11.921746,-1.0005124)"
       x1="6.101758"
       y1="154.58195"
       x2="6.101758"
       y2="36.995476" />
    <linearGradient
       inkscape:collect="always"
       xlink:href="#linearGradient4081"
       id="linearGradient2495"
       gradientUnits="userSpaceOnUse"
       gradientTransform="matrix(0.1256322,0,0,0.1256322,11.921746,-1.0005124)"
       x1="6.101758"
       y1="154.58195"
       x2="6.101758"
       y2="36.995476" />
    <linearGradient
       inkscape:collect="always"
       xlink:href="#linearGradient4081"
       id="linearGradient2498"
       gradientUnits="userSpaceOnUse"
       gradientTransform="matrix(0.1256322,0,0,0.1256322,11.921746,-1.0005124)"
       x1="6.101758"
       y1="154.58195"
       x2="6.101758"
       y2="36.995476" />
    <linearGradient
       inkscape:collect="always"
       xlink:href="#linearGradient4081"
       id="linearGradient2501"
       gradientUnits="userSpaceOnUse"
       gradientTransform="matrix(0.1256322,0,0,0.1256322,11.921746,-1.0005124)"
       x1="6.101758"
       y1="154.58195"
       x2="6.101758"
       y2="36.995476" />
    <linearGradient
       inkscape:collect="always"
       xlink:href="#linearGradient4081"
       id="linearGradient2504"
       gradientUnits="userSpaceOnUse"
       gradientTransform="matrix(0.1256322,0,0,0.1256322,11.921746,-1.0005124)"
       x1="6.101758"
       y1="154.58195"
       x2="6.101758"
       y2="36.995476" />
    <linearGradient
       inkscape:collect="always"
       xlink:href="#linearGradient4081"
       id="linearGradient2506"
       gradientUnits="userSpaceOnUse"
       x1="6.101758"
       y1="154.58195"
       x2="6.101758"
       y2="36.995476" />
    <linearGradient
       inkscape:collect="always"
       xlink:href="#linearGradient4081"
       id="linearGradient2508"
       gradientUnits="userSpaceOnUse"
       gradientTransform="matrix(0.1317916,0,0,0.1317916,11.619896,-1.9882468)"
       x1="6.101758"
       y1="154.58195"
       x2="6.101758"
       y2="36.995476" />
    <linearGradient
       inkscape:collect="always"
       xlink:href="#linearGradient4081"
       id="linearGradient2510"
       gradientUnits="userSpaceOnUse"
       gradientTransform="matrix(0.1317916,0,0,0.1317916,11.619896,-1.9882468)"
       x1="6.101758"
       y1="154.58195"
       x2="6.101758"
       y2="36.995476" />
    <clipPath
       clipPathUnits="userSpaceOnUse"
       id="clipPath4974">
      <path
         id="path4976"
         d="M 16.625,2 C 15.93281,2.046173 15.13978,2.350316 14.5,2.875 C 13.716105,3.517873 13.079371,5.1522168 13.25,6.0625 C 13.337976,6.531842 13.692147,7.1029241 14.03125,7.28125 C 14.662734,7.613335 15.813682,7.0624791 16.875,5.9375 C 18.021489,4.722239 18.547995,3.383178 18.15625,2.625 C 17.915497,2.159052 17.31719,1.953827 16.625,2 z M 10.96875,2.71875 C 10.005789,2.719616 9.496306,3.3967078 9.5,4.6875 C 9.502528,5.57142 9.81322,6.3666318 10.21875,6.5625 C 10.520262,6.708131 10.527801,6.6945361 10.90625,6.5625 C 11.533114,6.343793 12.122053,4.8839409 12,3.90625 C 11.900109,3.106091 11.556193,2.7182209 10.96875,2.71875 z M 7.15625,4.03125 C 6.976067,4.0573035 6.795347,4.173262 6.625,4.34375 C 6.281636,4.687396 6.277056,4.8747068 6.28125,5.53125 C 6.286196,6.305553 6.475145,6.7277249 7,7.28125 C 7.392601,7.695296 7.675716,7.7200481 8.03125,7.34375 C 8.416388,6.936117 8.535971,6.296057 8.40625,5.59375 C 8.208416,4.5226825 7.696799,3.9530895 7.15625,4.03125 z M 4.46875,6.375 C 4.281799,6.4054104 4.1133,6.5115553 3.9375,6.6875 C 3.476154,7.14923 3.798831,8.4188978 4.53125,9.0625 C 5.405425,9.830669 6.111327,9.1273309 5.8125,7.78125 C 5.599846,6.8233425 5.029603,6.2837687 4.46875,6.375 z M 12.5,8.0625 C 11.88094,8.0518483 11.187196,8.1034691 10.46875,8.25 C 8.61799,8.627471 7.13709,9.3254488 6.1875,10.28125 C 5.640611,10.831715 5.327697,11.341306 5.0625,12.125 C 4.420581,14.021963 5.609396,16.720678 7.875,18.5625 C 8.719088,19.248703 9.234152,19.555813 10.09375,19.84375 C 10.539486,19.993058 10.892913,20.027742 11.71875,20 C 12.665466,19.968192 12.858002,19.925916 13.46875,19.625 C 14.363786,19.184011 15.378303,18.163965 15.8125,17.28125 C 16.077385,16.74275 16.119821,16.512622 16.09375,16.0625 C 16.049227,15.293922 15.751092,15.084744 14.78125,15.09375 C 13.39673,15.106604 12.815494,15.427682 12.53125,16.40625 C 12.31656,17.145368 12.079212,17.40625 11.59375,17.40625 C 10.824382,17.40625 10.03125,16.794459 10.03125,16.15625 C 10.03125,15.712256 10.746563,15.05048 12.53125,13.84375 C 15.045366,12.14381 15.909739,11.109639 15.78125,9.96875 C 15.64852,8.7901993 14.35718,8.0944552 12.5,8.0625 z"
         style="fill:#ffffff;fill-opacity:1;stroke:none;stroke-width:0.5;stroke-miterlimit:4;stroke-dasharray:none;stroke-opacity:1" />
    </clipPath>
    <clipPath
       clipPathUnits="userSpaceOnUse"
       id="clipPath4995">
      <path
         style="opacity:1;fill:#ffffff;fill-opacity:1;fill-rule:nonzero;stroke:none;stroke-width:1;stroke-linecap:square;stroke-linejoin:miter;stroke-miterlimit:4;stroke-dasharray:none;stroke-dashoffset:0;stroke-opacity:0;display:inline"
         d="M 30,0 L 30,22 L 52,22 L 52,0 L 30,0 z M 46.625,2 C 47.31719,1.953827 47.915497,2.159052 48.15625,2.625 C 48.547995,3.383178 48.021489,4.722239 46.875,5.9375 C 45.813682,7.0624791 44.662734,7.613335 44.03125,7.28125 C 43.692147,7.1029241 43.337976,6.531842 43.25,6.0625 C 43.079371,5.1522168 43.716105,3.517873 44.5,2.875 C 45.13978,2.350316 45.93281,2.046173 46.625,2 z M 40.96875,2.71875 C 41.556193,2.7182209 41.900109,3.106091 42,3.90625 C 42.122053,4.8839409 41.533114,6.343793 40.90625,6.5625 C 40.527801,6.6945361 40.520262,6.708131 40.21875,6.5625 C 39.81322,6.3666318 39.502528,5.57142 39.5,4.6875 C 39.496306,3.3967078 40.005789,2.719616 40.96875,2.71875 z M 37.15625,4.03125 C 37.696799,3.9530895 38.208416,4.5226825 38.40625,5.59375 C 38.535971,6.296057 38.416388,6.936117 38.03125,7.34375 C 37.675716,7.7200481 37.392601,7.695296 37,7.28125 C 36.475145,6.7277249 36.286196,6.305553 36.28125,5.53125 C 36.277056,4.8747068 36.281636,4.687396 36.625,4.34375 C 36.795347,4.173262 36.976067,4.0573035 37.15625,4.03125 z M 34.46875,6.375 C 35.029603,6.2837687 35.599846,6.8233425 35.8125,7.78125 C 36.111327,9.1273309 35.405425,9.830669 34.53125,9.0625 C 33.798831,8.4188978 33.476154,7.14923 33.9375,6.6875 C 34.1133,6.5115553 34.281799,6.4054104 34.46875,6.375 z M 42.5,8.0625 C 44.35718,8.0944552 45.64852,8.7901993 45.78125,9.96875 C 45.909739,11.109639 45.045366,12.14381 42.53125,13.84375 C 40.746563,15.05048 40.03125,15.712256 40.03125,16.15625 C 40.03125,16.794459 40.824382,17.40625 41.59375,17.40625 C 42.079212,17.40625 42.31656,17.145368 42.53125,16.40625 C 42.815494,15.427682 43.39673,15.106604 44.78125,15.09375 C 45.751092,15.084744 46.049227,15.293922 46.09375,16.0625 C 46.119821,16.512622 46.077385,16.74275 45.8125,17.28125 C 45.378303,18.163965 44.363786,19.184011 43.46875,19.625 C 42.858002,19.925916 42.665466,19.968192 41.71875,20 C 40.892913,20.027742 40.539486,19.993058 40.09375,19.84375 C 39.234152,19.555813 38.719088,19.248703 37.875,18.5625 C 35.609396,16.720678 34.420581,14.021963 35.0625,12.125 C 35.327697,11.341306 35.640611,10.831715 36.1875,10.28125 C 37.13709,9.3254488 38.61799,8.627471 40.46875,8.25 C 41.187196,8.1034691 41.88094,8.0518483 42.5,8.0625 z"
         id="path4997" />
    </clipPath>
    <linearGradient
       inkscape:collect="always"
       xlink:href="#linearGradient4081"
       id="linearGradient5065"
       gradientUnits="userSpaceOnUse"
       x1="11.508813"
       y1="6.667244"
       x2="11.508813"
       y2="2.6882501"
       gradientTransform="translate(-30,-30)" />
    <linearGradient
       inkscape:collect="always"
       xlink:href="#linearGradient4081"
       id="linearGradient5068"
       gradientUnits="userSpaceOnUse"
       x1="17.212025"
       y1="7.3808393"
       x2="17.212025"
       y2="1.9877422"
       gradientTransform="translate(-30,-30)" />
    <linearGradient
       inkscape:collect="always"
       xlink:href="#linearGradient4081"
       id="linearGradient5071"
       gradientUnits="userSpaceOnUse"
       x1="7.3737612"
       y1="7.6049061"
       x2="7.3737612"
       y2="4.0347266"
       gradientTransform="translate(-30,-30)" />
    <linearGradient
       inkscape:collect="always"
       xlink:href="#linearGradient4081"
       id="linearGradient5074"
       gradientUnits="userSpaceOnUse"
       x1="4.9496975"
       y1="9.3934212"
       x2="4.9496975"
       y2="6.3640523"
       gradientTransform="translate(-30,-30)" />
    <linearGradient
       inkscape:collect="always"
       xlink:href="#linearGradient4081"
       id="linearGradient5077"
       gradientUnits="userSpaceOnUse"
       x1="13"
       y1="20"
       x2="13"
       y2="7.9960599"
       gradientTransform="translate(-30,-30)" />
    <linearGradient
       inkscape:collect="always"
       xlink:href="#linearGradient4081"
       id="linearGradient3345"
       gradientUnits="userSpaceOnUse"
       x1="6.8391123"
       y1="16.300354"
       x2="6.8391123"
       y2="6.0528178" />
    <linearGradient
       inkscape:collect="always"
       xlink:href="#linearGradient4081"
       id="linearGradient3355"
       gradientUnits="userSpaceOnUse"
       x1="12.316144"
       y1="18.468353"
       x2="12.316144"
       y2="3.4817097" />
    <linearGradient
       inkscape:collect="always"
       xlink:href="#linearGradient4081"
       id="linearGradient3357"
       gradientUnits="userSpaceOnUse"
       x1="18.764908"
       y1="21"
       x2="18.764908"
       y2="0.96705598" />
    <linearGradient
       inkscape:collect="always"
       xlink:href="#linearGradient4081"
       id="linearGradient3522"
       gradientUnits="userSpaceOnUse"
       x1="6.8391123"
       y1="16.300354"
       x2="6.8391123"
       y2="6.0528178"
       gradientTransform="translate(1,0)" />
    <linearGradient
       inkscape:collect="always"
       xlink:href="#linearGradient4081"
       id="linearGradient3527"
       gradientUnits="userSpaceOnUse"
       gradientTransform="translate(1,0)"
       x1="6.8391123"
       y1="16.300354"
       x2="6.8391123"
       y2="6.0528178" />
    <linearGradient
       inkscape:collect="always"
       xlink:href="#linearGradient4081"
       id="linearGradient3538"
       gradientUnits="userSpaceOnUse"
       gradientTransform="translate(1,0)"
       x1="16.5"
       y1="19.542921"
       x2="16.5"
       y2="2.5" />
    <linearGradient
       inkscape:collect="always"
       xlink:href="#linearGradient4081"
       id="linearGradient3540"
       gradientUnits="userSpaceOnUse"
       gradientTransform="translate(1,0)"
       x1="14.524625"
       y1="17.41902"
       x2="14.524625"
       y2="4.625" />
    <linearGradient
       inkscape:collect="always"
       xlink:href="#linearGradient4081"
       id="linearGradient3542"
       gradientUnits="userSpaceOnUse"
       gradientTransform="translate(1,0)"
       x1="10.50519"
       y1="15.28125"
       x2="10.50519"
       y2="6.7458849" />
    <linearGradient
       inkscape:collect="always"
       xlink:href="#linearGradient4081"
       id="linearGradient3552"
       gradientUnits="userSpaceOnUse"
       gradientTransform="translate(1,0)"
       x1="16.5"
       y1="19.542921"
       x2="16.5"
       y2="2.5" />
    <linearGradient
       inkscape:collect="always"
       xlink:href="#linearGradient4081"
       id="linearGradient3690"
       x1="9"
       y1="20"
       x2="9"
       y2="4"
       gradientUnits="userSpaceOnUse" />
    <linearGradient
       inkscape:collect="always"
       xlink:href="#linearGradient4081"
       id="linearGradient3696"
       gradientUnits="userSpaceOnUse"
       x1="9"
       y1="20"
       x2="9"
       y2="4"
       gradientTransform="translate(0,1)" />
    <linearGradient
       inkscape:collect="always"
       xlink:href="#linearGradient4081"
       id="linearGradient3698"
       gradientUnits="userSpaceOnUse"
       x1="9"
       y1="20"
       x2="9"
       y2="4" />
    <linearGradient
       inkscape:collect="always"
       xlink:href="#linearGradient4081"
       id="linearGradient3694"
       x1="39"
       y1="19"
       x2="39"
       y2="2.9687805"
       gradientUnits="userSpaceOnUse"
       gradientTransform="translate(-30,0)" />
    <linearGradient
       inkscape:collect="always"
       xlink:href="#linearGradient4081"
       id="linearGradient3700"
       gradientUnits="userSpaceOnUse"
       x1="39"
       y1="19"
       x2="39"
       y2="2.9687805"
       gradientTransform="translate(0,1)" />
    <linearGradient
       inkscape:collect="always"
       xlink:href="#linearGradient4081"
       id="linearGradient3702"
       gradientUnits="userSpaceOnUse"
       x1="39"
       y1="19"
       x2="39"
       y2="2.9687805" />
    <linearGradient
       inkscape:collect="always"
       xlink:href="#linearGradient4081"
       id="linearGradient3716"
       x1="-29"
       y1="31"
       x2="-9"
       y2="31"
       gradientUnits="userSpaceOnUse" />
    <linearGradient
       inkscape:collect="always"
       xlink:href="#linearGradient4081"
       id="linearGradient3719"
       gradientUnits="userSpaceOnUse"
       x1="-20"
       y1="38"
       x2="-20"
       y2="23.964331"
       gradientTransform="translate(30,-20)" />
    <linearGradient
       inkscape:collect="always"
       xlink:href="#linearGradient4081"
       id="linearGradient3699"
       x1="-19"
       y1="38"
       x2="-19"
       y2="23.964331"
       gradientUnits="userSpaceOnUse"
       gradientTransform="translate(30,-20)" />
    <linearGradient
       inkscape:collect="always"
       xlink:href="#linearGradient4081"
       id="linearGradient3713"
       x1="10"
       y1="17"
       x2="10"
       y2="5"
       gradientUnits="userSpaceOnUse" />
    <inkscape:perspective
       id="perspective3040"
       inkscape:persp3d-origin="0.5 : 0.33333333 : 1"
       inkscape:vp_z="1 : 0.5 : 1"
       inkscape:vp_y="0 : 1000 : 0"
       inkscape:vp_x="0 : 0.5 : 1"
       sodipodi:type="inkscape:persp3d" />
    <linearGradient
       inkscape:collect="always"
       xlink:href="#linearGradient3183"
       id="linearGradient3715"
       x1="17"
       y1="17"
       x2="17"
       y2="14"
       gradientUnits="userSpaceOnUse"
       gradientTransform="translate(-1,1)" />
    <linearGradient
       id="linearGradient3183">
      <stop
         style="stop-color:#c80000;stop-opacity:1;"
         offset="0"
         id="stop3185" />
      <stop
         style="stop-color:#f3604d;stop-opacity:1;"
         offset="1"
         id="stop3187" />
    </linearGradient>
    <linearGradient
       inkscape:collect="always"
       xlink:href="#linearGradient3183"
       id="linearGradient3713-7"
       x1="18"
       y1="13"
       x2="18"
       y2="6"
       gradientUnits="userSpaceOnUse"
       gradientTransform="translate(-1,1)" />
    <linearGradient
       id="linearGradient3049">
      <stop
         style="stop-color:#c80000;stop-opacity:1;"
         offset="0"
         id="stop3051" />
      <stop
         style="stop-color:#f3604d;stop-opacity:1;"
         offset="1"
         id="stop3053" />
    </linearGradient>
    <inkscape:perspective
       id="perspective3049"
       inkscape:persp3d-origin="0.5 : 0.33333333 : 1"
       inkscape:vp_z="1 : 0.5 : 1"
       inkscape:vp_y="0 : 1000 : 0"
       inkscape:vp_x="0 : 0.5 : 1"
       sodipodi:type="inkscape:persp3d" />
    <linearGradient
       inkscape:collect="always"
       xlink:href="#SpecificGradient"
       id="linearGradient2925"
       gradientUnits="userSpaceOnUse"
       x1="7.8228545"
       y1="5.1823945"
       x2="7.8228545"
       y2="16.91297" />
    <linearGradient
       id="linearGradient4081-9">
      <stop
         style="stop-color:#aaaaaa;stop-opacity:1;"
         offset="0"
         id="stop4083-4" />
      <stop
         style="stop-color:#ebebeb;stop-opacity:1;"
         offset="1"
         id="stop4085-9" />
    </linearGradient>
    <linearGradient
       inkscape:collect="always"
       xlink:href="#linearGradient4081-9"
       id="linearGradient5771"
       gradientUnits="userSpaceOnUse"
       x1="10"
       y1="19.429329"
       x2="10"
       y2="6.2307611"
       gradientTransform="translate(0,1)" />
    <linearGradient
       inkscape:collect="always"
       xlink:href="#linearGradient4081-9"
       id="linearGradient5775"
       gradientUnits="userSpaceOnUse"
       x1="10"
       y1="19.429329"
       x2="10"
       y2="6.2307611" />
    <linearGradient
       inkscape:collect="always"
       xlink:href="#SpecificGradient"
       id="linearGradient3196"
       x1="6"
       y1="1"
       x2="6"
       y2="14"
       gradientUnits="userSpaceOnUse"
       gradientTransform="translate(3.8611607,-2.0000001)" />
    <linearGradient
       id="SpecificGradient">
      <stop
         style="stop-color:#f3604d;stop-opacity:1;"
         offset="0"
         id="stop3185-7" />
      <stop
         style="stop-color:#c81700;stop-opacity:1;"
         offset="1"
         id="stop3187-4" />
    </linearGradient>
    <linearGradient
       y2="14"
       x2="6"
       y1="1"
       x1="6"
       gradientTransform="translate(-4.2568376,13.430525)"
       gradientUnits="userSpaceOnUse"
       id="linearGradient3804"
       xlink:href="#SpecificGradient"
       inkscape:collect="always" />
  </defs>
  <sodipodi:namedview
     id="base"
     pagecolor="#ffffff"
     bordercolor="#e7e7e7"
     borderopacity="1"
     inkscape:pageopacity="0.0"
     inkscape:pageshadow="2"
     inkscape:zoom="26.181071"
     inkscape:cx="4.5631099"
     inkscape:cy="7.3146272"
     inkscape:document-units="px"
     inkscape:current-layer="layer1"
     showgrid="true"
     inkscape:showpageshadow="false"
     showguides="false"
     inkscape:guide-bbox="true"
     inkscape:window-width="1920"
     inkscape:window-height="1029"
     inkscape:window-x="0"
     inkscape:window-y="25"
     inkscape:window-maximized="1"
     inkscape:snap-global="false">
    <sodipodi:guide
       orientation="1,0"
       position="0,112"
       id="guide2383" />
    <sodipodi:guide
       orientation="0,1"
       position="26.278146,128"
       id="guide2385" />
    <sodipodi:guide
       orientation="1,0"
       position="128,54.082119"
       id="guide2387" />
    <sodipodi:guide
       orientation="0,1"
       position="78.156291,0"
       id="guide2389" />
    <sodipodi:guide
       orientation="0,1"
       position="60.863576,64.084768"
       id="guide2391" />
    <inkscape:grid
       type="xygrid"
       id="grid3672"
       visible="true"
       enabled="true" />
  </sodipodi:namedview>
  <metadata
     id="metadata7">
    <rdf:RDF>
      <cc:Work
         rdf:about="">
        <dc:format>image/svg+xml</dc:format>
        <dc:type
           rdf:resource="http://purl.org/dc/dcmitype/StillImage" />
      </cc:Work>
    </rdf:RDF>
  </metadata>
  <g
     inkscape:label="Icon"
     inkscape:groupmode="layer"
     id="layer1"
     style="display:inline">
    <path
       sodipodi:type="inkscape:offset"
       inkscape:radius="0.98072451"
       inkscape:original="M 3.5 5 C 3.3511125 5 3.1980709 5.0224652 3.0625 5.0625 C 2.7251491 5.1621214 2.4419104 5.3717178 2.25 5.65625 C 2.1836385 5.7546396 2.1354906 5.8554799 2.09375 5.96875 C 2.0753839 6.018324 2.0756705 6.0730454 2.0625 6.125 C 2.032557 6.2435542 2 6.3718875 2 6.5 L 2 15.5 C 2 15.628113 2.032557 15.756446 2.0625 15.875 C 2.07981 15.94134 2.099184 16.000125 2.125 16.0625 C 2.164762 16.16225 2.190813 16.255997 2.25 16.34375 C 2.2578 16.35527 2.27314 16.36371 2.28125 16.375 C 2.4838796 16.657121 2.7776307 16.849766 3.125 16.9375 C 3.2435542 16.967443 3.3718875 17 3.5 17 L 18.5 17 C 18.603875 17 18.714678 16.98867 18.8125 16.96875 C 19.180772 16.89377 19.503134 16.696627 19.71875 16.40625 C 19.7895 16.31097 19.828242 16.204666 19.875 16.09375 C 19.9076 16.01126 19.95062 15.932826 19.96875 15.84375 C 19.97075 15.83395 19.96695 15.82238 19.96875 15.8125 C 19.988666 15.714678 20 15.603875 20 15.5 L 20 6.5 C 20 6.3511125 19.977535 6.1980709 19.9375 6.0625 C 19.921603 6.0091376 19.896486 5.9568328 19.875 5.90625 C 19.837148 5.8164609 19.803807 5.7360254 19.75 5.65625 C 19.642387 5.4966992 19.503301 5.3576133 19.34375 5.25 C 19.271952 5.201574 19.204989 5.1605826 19.125 5.125 C 19.1158 5.12151 19.10307 5.12831 19.09375 5.125 C 19.06382 5.1123828 19.030896 5.1044477 19 5.09375 C 18.959105 5.0815878 18.917455 5.0732228 18.875 5.0625 C 18.756446 5.032557 18.628113 5 18.5 5 L 3.5 5 z M 3.5 6.03125 L 4.03125 6.03125 L 10.96875 12.96875 L 17.90625 6.03125 L 18.5 6.03125 C 18.762593 6.03125 18.941967 6.190707 18.96875 6.4375 L 10.96875 14.40625 L 3.03125 6.4375 C 3.05803 6.190707 3.237407 6.03125 3.5 6.03125 z M 15.15625 11.84375 L 18.9375 15.625 C 18.88803 15.831734 18.737492 15.96875 18.5 15.96875 L 17.84375 15.96875 L 14.4375 12.5625 L 15.15625 11.84375 z M 6.75 11.90625 L 7.46875 12.625 L 4.09375 15.96875 L 3.5 15.96875 C 3.250923 15.96875 3.102299 15.818674 3.0625 15.59375 L 6.75 11.90625 z "
       style="opacity:0.1;fill:#000000;fill-opacity:1;stroke:none;display:inline"
       id="path2931"
       d="M 3.5,4.03125 C 3.2524601,4.03125 3.0135146,4.056411 2.78125,4.125 2.2285611,4.2882118 1.7547032,4.6234549 1.4375,5.09375 1.3204,5.2673661 1.2485488,5.4593339 1.1875,5.625 1.0863025,5.8981536 1.0970315,5.9853293 1.125,5.875 1.09524,5.9928298 1.03125,6.2057343 1.03125,6.5 l 0,9 c 0,0.294266 0.06399,0.50717 0.09375,0.625 0.026711,0.102369 0.050972,0.209143 0.09375,0.3125 0.016059,0.04029 0.0531,0.223151 0.21875,0.46875 0.2178058,0.321682 0.2611456,0.307786 0.0625,0.03125 0.3412128,0.47507 0.8244291,0.798444 1.375,0.9375 0.1178298,0.02976 0.3307343,0.09375 0.625,0.09375 l 15,0 c 0.175189,0 0.331536,0.0031 0.5,-0.03125 0.58795,-0.119706 1.132121,-0.442065 1.5,-0.9375 0.176739,-0.238017 0.246297,-0.448338 0.28125,-0.53125 0.0023,-0.0058 0.100088,-0.161564 0.15625,-0.4375 0.08091,-0.396447 0.06602,-0.393642 0,-0.03125 0.03429,-0.168412 0.03125,-0.324786 0.03125,-0.5 l 0,-9 c 0,-0.2475391 -0.02516,-0.4864837 -0.09375,-0.71875 -0.04653,-0.1562002 -0.08468,-0.2286401 -0.09375,-0.25 C 20.744762,5.4446961 20.682175,5.2711829 20.5625,5.09375 20.38358,4.8284765 20.171523,4.6164201 19.90625,4.4375 19.812796,4.3744672 19.681086,4.2854037 19.53125,4.21875 a 0.98082259,0.98082259 0 0 0 -0.0625,0 c -0.02268,-0.00956 -0.01326,0.00696 -0.03125,0 -0.300668,-0.09906 -0.461417,-0.063634 -0.46875,-0.0625 -0.0068,0.00105 0.164188,-0.030198 0.40625,0.03125 -0.01561,-0.00432 -0.07532,-0.035688 -0.0625,-0.03125 a 0.98082259,0.98082259 0 0 0 -0.03125,0 C 19.183733,4.1272483 19.137215,4.1280851 19.125,4.125 19.00717,4.09524 18.794266,4.03125 18.5,4.03125 l -15,0 z" />
    <path
       style="fill:url(#linearGradient2925);fill-opacity:1;stroke:none;display:inline"
       d="M 3.5,5 C 3.3511125,5 3.1980709,5.0224652 3.0625,5.0625 2.7251491,5.1621214 2.4419104,5.3717178 2.25,5.65625 2.1836385,5.7546396 2.1354906,5.8554799 2.09375,5.96875 2.0753839,6.018324 2.0756705,6.0730454 2.0625,6.125 2.032557,6.2435542 2,6.3718875 2,6.5 l 0,9 c 0,0.128113 0.032557,0.256446 0.0625,0.375 0.01731,0.06634 0.036684,0.125125 0.0625,0.1875 0.039762,0.09975 0.065813,0.193497 0.125,0.28125 0.0078,0.01152 0.02314,0.01996 0.03125,0.03125 0.2026296,0.282121 0.4963807,0.474766 0.84375,0.5625 C 3.2435542,16.96744 3.3718875,17 3.5,17 l 15,0 c 0.103875,0 0.214678,-0.01133 0.3125,-0.03125 0.368272,-0.07498 0.690634,-0.272123 0.90625,-0.5625 0.07075,-0.09528 0.109492,-0.201584 0.15625,-0.3125 0.0326,-0.08249 0.07562,-0.160924 0.09375,-0.25 0.002,-0.0098 -0.0018,-0.02137 0,-0.03125 C 19.98867,15.71468 20,15.603875 20,15.5 l 0,-9 C 20,6.3511125 19.97753,6.1980709 19.9375,6.0625 19.9216,6.009138 19.89649,5.9568328 19.875,5.90625 19.83715,5.816461 19.80381,5.7360254 19.75,5.65625 19.642387,5.4966992 19.503301,5.3576133 19.34375,5.25 19.27195,5.201574 19.204989,5.160583 19.125,5.125 19.1158,5.12151 19.10307,5.12831 19.09375,5.125 19.06382,5.112383 19.0309,5.104448 19,5.09375 18.95911,5.081588 18.91746,5.073223 18.875,5.0625 18.756446,5.032557 18.628113,5 18.5,5 l -15,0 z m 0,1.03125 0.53125,0 6.9375,6.9375 6.9375,-6.9375 0.59375,0 c 0.262593,0 0.441967,0.159457 0.46875,0.40625 l -8,7.96875 L 3.03125,6.4375 C 3.05803,6.190707 3.237407,6.03125 3.5,6.03125 z m 11.65625,5.8125 3.78125,3.78125 c -0.04947,0.206734 -0.200008,0.34375 -0.4375,0.34375 l -0.65625,0 -3.40625,-3.40625 0.71875,-0.71875 z M 6.75,11.90625 7.46875,12.625 l -3.375,3.34375 -0.59375,0 c -0.249077,0 -0.397701,-0.150076 -0.4375,-0.375 L 6.75,11.90625 z"
       id="rect2932" />
    <path
       style="opacity:0.3;fill:#ffffff;fill-opacity:1;stroke:none;display:inline"
       d="M 3.5,5 C 3.3511125,5 3.1980709,5.0224652 3.0625,5.0625 2.7251491,5.1621214 2.4419104,5.3717178 2.25,5.65625 2.1836385,5.7546396 2.1354906,5.8554799 2.09375,5.96875 2.0753839,6.018324 2.0756705,6.0730454 2.0625,6.125 2.032557,6.2435542 2,6.3718875 2,6.5 l 0,1 C 2,7.3718875 2.032557,7.2435542 2.0625,7.125 2.0756705,7.0730454 2.0753839,7.018324 2.09375,6.96875 2.1354906,6.8554799 2.1836385,6.7546396 2.25,6.65625 2.4419104,6.3717178 2.7251491,6.1621214 3.0625,6.0625 3.1980709,6.0224652 3.3511125,6 3.5,6 l 15,0 c 0.128113,0 0.256446,0.032557 0.375,0.0625 0.04246,0.010723 0.08411,0.019088 0.125,0.03125 0.0309,0.010698 0.06382,0.018633 0.09375,0.03125 0.0093,0.00331 0.02205,-0.00349 0.03125,0 0.07999,0.035583 0.146952,0.076574 0.21875,0.125 0.159551,0.1076133 0.298637,0.2466992 0.40625,0.40625 0.05381,0.079775 0.08715,0.1602109 0.125,0.25 0.02149,0.050583 0.0466,0.1028876 0.0625,0.15625 C 19.97753,7.1980709 20,7.3511125 20,7.5 l 0,-1 C 20,6.3511125 19.97753,6.1980709 19.9375,6.0625 19.9216,6.009138 19.89649,5.9568328 19.875,5.90625 19.83715,5.816461 19.80381,5.7360254 19.75,5.65625 19.642387,5.4966992 19.503301,5.3576133 19.34375,5.25 19.27195,5.201574 19.204989,5.160583 19.125,5.125 19.1158,5.12151 19.10307,5.12831 19.09375,5.125 19.06382,5.112383 19.0309,5.104448 19,5.09375 18.95911,5.081588 18.91746,5.073223 18.875,5.0625 18.756446,5.032557 18.628113,5 18.5,5 l -15,0 z m 0,2.03125 c -0.262593,0 -0.44197,0.159457 -0.46875,0.40625 l 7.9375,7.96875 8,-7.96875 C 18.941967,7.190707 18.762593,7.03125 18.5,7.03125 l -0.125,0 -7.40625,7.375 -7.34375,-7.375 -0.125,0 z m 11.4375,6.03125 -0.5,0.5 3.40625,3.40625 0.65625,0 c 0.237492,0 0.38803,-0.137016 0.4375,-0.34375 l -0.65625,-0.65625 -0.4375,0 -2.90625,-2.90625 z m -7.96875,0.0625 -2.875,2.84375 -0.40625,0 -0.625,0.625 c 0.039799,0.224924 0.188423,0.375 0.4375,0.375 l 0.59375,0 3.375,-3.34375 -0.5,-0.5 z"
       id="path3707" />
    <rect
       style="opacity:0.2;fill:#ff0000;fill-opacity:1;stroke:none"
       id="rect2909"
       width="20"
       height="14"
       x="-29"
       y="4"
       rx="1.5"
       ry="1.5" />
    <rect
       style="opacity:0.2;fill:#ff0000;fill-opacity:1;stroke:none"
       id="rect2911"
       width="33"
       height="1"
       x="-29"
       y="-2" />
    <path
       style="opacity:0.2;fill:#ff0000;fill-opacity:1;stroke:none"
       d="M -27.9375 4.0625 C -28.274851 4.1621214 -28.55809 4.3717178 -28.75 4.65625 L -28.75 4.6875 L -18.875 14.53125 L -9.15625 4.8125 C -9.311247 4.5053911 -9.5594873 4.2653535 -9.875 4.125 L -9.90625 4.125 L -18.875 13.125 L -27.9375 4.0625 z "
       id="rect2908" />
    <path
       style="opacity:0.2;fill:#ff0000;fill-opacity:1;stroke:none"
       d="M -23.21875 11.78125 L -28.75 17.3125 C -28.74477 17.320587 -28.755381 17.335772 -28.75 17.34375 C -28.55809 17.628282 -28.274851 17.837879 -27.9375 17.9375 L -22.5 12.5 L -23.21875 11.78125 z M -14.8125 11.8125 L -15.5 12.5 L -10.0625 17.9375 C -9.7251491 17.837879 -9.4419104 17.628282 -9.25 17.34375 L -14.8125 11.8125 z "
       id="path2913" />
    <path
       style="opacity:0.2;fill:#ff0000;fill-opacity:1;stroke:none"
       d="M -26.9375 25.0625 C -27.274851 25.162121 -27.55809 25.371718 -27.75 25.65625 L -19.03125 34.40625 L -10.25 25.65625 C -10.254431 25.64968 -10.245468 25.631495 -10.25 25.625 C -10.452756 25.334446 -10.770845 25.151948 -11.125 25.0625 L -19.03125 32.96875 L -26.9375 25.0625 z M -14.84375 31.84375 L -15.5625 32.5625 L -11.15625 36.96875 C -10.800377 36.888864 -10.491139 36.688914 -10.28125 36.40625 L -14.84375 31.84375 z M -23.25 31.90625 L -27.71875 36.375 C -27.51612 36.657121 -27.222369 36.849766 -26.875 36.9375 L -22.53125 32.625 L -23.25 31.90625 z "
       id="rect2915" />
    <rect
       ry="1.5"
       rx="1.5"
       y="25"
       x="-28"
       height="12"
       width="18"
       id="rect2913"
       style="opacity:0.2;fill:#ff0000;fill-opacity:1;stroke:none" />
    <path
       style="fill:#000000;fill-opacity:1;stroke:none;display:inline;opacity:0.55"
       d="M 3.5 6.03125 C 3.237407 6.03125 3.05803 6.190707 3.03125 6.4375 L 3.625 7.03125 L 4.03125 7.03125 L 10.96875 13.96875 L 17.90625 7.03125 L 18.375 7.03125 L 18.96875 6.4375 C 18.941967 6.190707 18.762593 6.03125 18.5 6.03125 L 17.90625 6.03125 L 10.96875 12.96875 L 4.03125 6.03125 L 3.5 6.03125 z M 15.15625 11.84375 L 14.4375 12.5625 L 14.9375 13.0625 L 15.15625 12.84375 L 18.28125 15.96875 L 18.5 15.96875 C 18.737492 15.96875 18.88803 15.831734 18.9375 15.625 L 15.15625 11.84375 z M 6.75 11.90625 L 3.0625 15.59375 C 3.102299 15.818674 3.250923 15.96875 3.5 15.96875 L 3.6875 15.96875 L 6.75 12.90625 L 6.96875 13.125 L 7.46875 12.625 L 6.75 11.90625 z M 2 15.5 L 2 16.5 C 2 16.628113 2.032557 16.756446 2.0625 16.875 C 2.07981 16.94134 2.099184 17.000125 2.125 17.0625 C 2.164762 17.16225 2.190813 17.255997 2.25 17.34375 C 2.2578 17.35527 2.27314 17.36371 2.28125 17.375 C 2.4838796 17.657121 2.7776307 17.849766 3.125 17.9375 C 3.2435542 17.96744 3.3718875 18 3.5 18 L 18.5 18 C 18.603875 18 18.714678 17.98867 18.8125 17.96875 C 19.180772 17.89377 19.503134 17.696627 19.71875 17.40625 C 19.7895 17.31097 19.828242 17.204666 19.875 17.09375 C 19.9076 17.01126 19.95062 16.932826 19.96875 16.84375 C 19.97075 16.83395 19.96695 16.82238 19.96875 16.8125 C 19.98867 16.71468 20 16.603875 20 16.5 L 20 15.5 C 20 15.603875 19.98867 15.71468 19.96875 15.8125 C 19.96695 15.82238 19.97075 15.83395 19.96875 15.84375 C 19.95062 15.932826 19.9076 16.01126 19.875 16.09375 C 19.828242 16.204666 19.7895 16.31097 19.71875 16.40625 C 19.503134 16.696627 19.180772 16.89377 18.8125 16.96875 C 18.714678 16.98867 18.603875 17 18.5 17 L 3.5 17 C 3.3718875 17 3.2435542 16.96744 3.125 16.9375 C 2.7776307 16.849766 2.4838796 16.657121 2.28125 16.375 C 2.27314 16.36371 2.2578 16.35527 2.25 16.34375 C 2.190813 16.255997 2.164762 16.16225 2.125 16.0625 C 2.099184 16.000125 2.07981 15.94134 2.0625 15.875 C 2.032557 15.756446 2 15.628113 2 15.5 z "
       id="path5769" />
  </g>
</svg>
