<?xml version="1.0" encoding="UTF-8" standalone="no"?>
<!-- Created with Inkscape (http://www.inkscape.org/) -->

<svg
   xmlns:dc="http://purl.org/dc/elements/1.1/"
   xmlns:cc="http://creativecommons.org/ns#"
   xmlns:rdf="http://www.w3.org/1999/02/22-rdf-syntax-ns#"
   xmlns:svg="http://www.w3.org/2000/svg"
   xmlns="http://www.w3.org/2000/svg"
   xmlns:xlink="http://www.w3.org/1999/xlink"
   xmlns:sodipodi="http://sodipodi.sourceforge.net/DTD/sodipodi-0.dtd"
   xmlns:inkscape="http://www.inkscape.org/namespaces/inkscape"
   width="22"
   height="22"
   id="svg2"
   sodipodi:version="0.32"
   inkscape:version="0.48.1 r9760"
   version="1.0"
   sodipodi:docname="system-file-progress-panel.svg"
   inkscape:output_extension="org.inkscape.output.svg.inkscape"
   style="display:inline">
  <defs
     id="defs4">
    <inkscape:perspective
       sodipodi:type="inkscape:persp3d"
       inkscape:vp_x="0 : 11 : 1"
       inkscape:vp_y="0 : 1000 : 0"
       inkscape:vp_z="22 : 11 : 1"
       inkscape:persp3d-origin="11 : 7.3333333 : 1"
       id="perspective29" />
    <linearGradient
       id="linearGradient4081">
      <stop
         style="stop-color:#aaaaaa;stop-opacity:1;"
         offset="0"
         id="stop4083" />
      <stop
         style="stop-color:#ebebeb;stop-opacity:1;"
         offset="1"
         id="stop4085" />
    </linearGradient>
    <linearGradient
       inkscape:collect="always"
       xlink:href="#linearGradient4081"
       id="linearGradient3527"
       gradientUnits="userSpaceOnUse"
       gradientTransform="translate(-39,0)"
       x1="6.8391123"
       y1="16.300354"
       x2="6.8391123"
       y2="6.0528178" />
    <linearGradient
       inkscape:collect="always"
       xlink:href="#linearGradient4081"
       id="linearGradient3538"
       gradientUnits="userSpaceOnUse"
       gradientTransform="translate(-39,0)"
       x1="16.5"
       y1="19.542921"
       x2="16.5"
       y2="2.5" />
    <linearGradient
       inkscape:collect="always"
       xlink:href="#linearGradient4081"
       id="linearGradient3540"
       gradientUnits="userSpaceOnUse"
       gradientTransform="translate(-39,0)"
       x1="14.524625"
       y1="17.41902"
       x2="14.524625"
       y2="4.625" />
    <linearGradient
       inkscape:collect="always"
       xlink:href="#linearGradient4081"
       id="linearGradient3542"
       gradientUnits="userSpaceOnUse"
       gradientTransform="translate(-39,0)"
       x1="10.50519"
       y1="15.28125"
       x2="10.50519"
       y2="6.7458849" />
    <linearGradient
       inkscape:collect="always"
       xlink:href="#linearGradient4081"
       id="linearGradient3266"
       x1="9"
       y1="4.5"
       x2="14"
       y2="4.5"
       gradientUnits="userSpaceOnUse"
       gradientTransform="matrix(0,-1,1,0,6,16)" />
    <linearGradient
       inkscape:collect="always"
       xlink:href="#linearGradient4081"
       id="linearGradient3274"
       x1="11.984375"
       y1="20"
       x2="11.984375"
       y2="7.96875"
       gradientUnits="userSpaceOnUse" />
    <linearGradient
       inkscape:collect="always"
       xlink:href="#linearGradient4081"
       id="linearGradient3280"
       gradientUnits="userSpaceOnUse"
       gradientTransform="matrix(0,-1,1,0,7,16)"
       x1="9"
       y1="4.5"
       x2="14"
       y2="4.5" />
    <linearGradient
       inkscape:collect="always"
       xlink:href="#linearGradient4081"
       id="linearGradient3287"
       gradientUnits="userSpaceOnUse"
       gradientTransform="matrix(0,-1,1,0,7,16)"
       x1="9"
       y1="4.5"
       x2="14"
       y2="4.5" />
    <linearGradient
       inkscape:collect="always"
       xlink:href="#linearGradient4081"
       id="linearGradient3293"
       gradientUnits="userSpaceOnUse"
       x1="11.984375"
       y1="20"
       x2="11.984375"
       y2="7.96875"
       gradientTransform="translate(-1,0)" />
    <linearGradient
       inkscape:collect="always"
       xlink:href="#linearGradient4081"
       id="linearGradient3180"
       x1="-13"
       y1="17.008953"
       x2="-13"
       y2="-0.70032859"
       gradientUnits="userSpaceOnUse" />
    <linearGradient
       inkscape:collect="always"
       xlink:href="#linearGradient4081"
       id="linearGradient3632"
       x1="10"
       y1="2"
       x2="10"
       y2="20.110771"
       gradientUnits="userSpaceOnUse" />
    <linearGradient
       inkscape:collect="always"
       xlink:href="#linearGradient4081"
       id="linearGradient3638"
       gradientUnits="userSpaceOnUse"
       x1="10"
       y1="2"
       x2="10"
       y2="20.110771"
       gradientTransform="matrix(0.93103448,0,0,0.93103448,1.3922414,0.1594828)" />
    <linearGradient
       inkscape:collect="always"
       xlink:href="#linearGradient4081"
       id="linearGradient3640"
       gradientUnits="userSpaceOnUse"
       x1="10"
       y1="2"
       x2="10"
       y2="20.110771"
       gradientTransform="translate(1,-1)" />
    <linearGradient
       inkscape:collect="always"
       xlink:href="#linearGradient4081"
       id="linearGradient3643"
       gradientUnits="userSpaceOnUse"
       gradientTransform="matrix(0.93103448,0,0,0.93103448,1.3922414,0.1594828)"
       x1="13.027205"
       y1="20.307617"
       x2="13.027205"
       y2="2.3902955" />
    <linearGradient
       inkscape:collect="always"
       xlink:href="#linearGradient4081"
       id="linearGradient3649"
       gradientUnits="userSpaceOnUse"
       gradientTransform="matrix(0.93103448,0,0,0.93103448,1.3922414,1.1594828)"
       x1="10"
       y1="2.4281847"
       x2="10"
       y2="20.110771" />
    <linearGradient
       inkscape:collect="always"
       xlink:href="#linearGradient4081"
       id="linearGradient3651"
       gradientUnits="userSpaceOnUse"
       gradientTransform="matrix(0.93103448,0,0,0.93103448,1.3922414,0.1594828)"
       x1="10"
       y1="2.4281847"
       x2="10"
       y2="20.110771" />
    <linearGradient
       inkscape:collect="always"
       xlink:href="#linearGradient4081"
       id="linearGradient3656"
       gradientUnits="userSpaceOnUse"
       gradientTransform="matrix(0.93103448,0,0,0.93103448,1.3922414,0.1594828)"
       x1="10"
       y1="2.4281847"
       x2="10"
       y2="20.110771" />
    <inkscape:perspective
       id="perspective3703"
       inkscape:persp3d-origin="0.5 : 0.33333333 : 1"
       inkscape:vp_z="1 : 0.5 : 1"
       inkscape:vp_y="0 : 1000 : 0"
       inkscape:vp_x="0 : 0.5 : 1"
       sodipodi:type="inkscape:persp3d" />
    <linearGradient
       inkscape:collect="always"
       xlink:href="#StandardGradient"
       id="linearGradient3657"
       x1="10"
       y1="4"
       x2="10"
       y2="19"
       gradientUnits="userSpaceOnUse" />
    <linearGradient
       id="StandardGradient"
       gradientTransform="matrix(0.9984539,0,0,0.9984539,-0.0459776,0.05767558)"
       x1="10.710332"
       y1="1.9963325"
       x2="10.710332"
       y2="18.974037"
       gradientUnits="userSpaceOnUse">
      <stop
         style="stop-color:#000000;stop-opacity:0.86274511;"
         offset="0"
         id="stop3277" />
      <stop
         style="stop-color:#000000;stop-opacity:0.47058824;"
         offset="1"
         id="stop3279" />
    </linearGradient>
    <linearGradient
       y2="4.2032285"
       x2="7.0054154"
       y1="18.796772"
       x1="7.0054154"
       gradientUnits="userSpaceOnUse"
       id="linearGradient3712"
       xlink:href="#linearGradient4081"
       inkscape:collect="always"
       gradientTransform="translate(-40,0)" />
    <linearGradient
       inkscape:collect="always"
       xlink:href="#linearGradient4081"
       id="linearGradient2864"
       gradientUnits="userSpaceOnUse"
       gradientTransform="matrix(0.93103448,0,0,0.93103448,-28.607759,0.1594828)"
       x1="13.027205"
       y1="20.307617"
       x2="13.027205"
       y2="2.3902955" />
    <linearGradient
       inkscape:collect="always"
       xlink:href="#linearGradient4081"
       id="linearGradient3642"
       gradientUnits="userSpaceOnUse"
       x1="10"
       y1="4"
       x2="10"
       y2="19"
       gradientTransform="translate(0,1)" />
    <linearGradient
       inkscape:collect="always"
       xlink:href="#linearGradient4081"
       id="linearGradient3644"
       gradientUnits="userSpaceOnUse"
       x1="10"
       y1="4"
       x2="10"
       y2="19" />
    <inkscape:perspective
       id="perspective3828"
       inkscape:persp3d-origin="0.5 : 0.33333333 : 1"
       inkscape:vp_z="1 : 0.5 : 1"
       inkscape:vp_y="0 : 1000 : 0"
       inkscape:vp_x="0 : 0.5 : 1"
       sodipodi:type="inkscape:persp3d" />
    <linearGradient
       inkscape:collect="always"
       xlink:href="#StandardGradient-1"
       id="linearGradient3783"
       gradientUnits="userSpaceOnUse"
       gradientTransform="matrix(0.9247229,0,0,1.0872097,-3.0600562,0.997642)"
       x1="11.998966"
       y1="1.8417038"
       x2="11.998966"
       y2="16.558352" />
    <linearGradient
       id="StandardGradient-1"
       gradientTransform="matrix(0.9984539,0,0,0.9984539,-0.0459776,0.05767558)"
       x1="10.710332"
       y1="1.9963325"
       x2="10.710332"
       y2="18.974037"
       gradientUnits="userSpaceOnUse">
      <stop
         style="stop-color:#000000;stop-opacity:0.86274511;"
         offset="0"
         id="stop3277-4" />
      <stop
         style="stop-color:#000000;stop-opacity:0.47058824;"
         offset="1"
         id="stop3279-1" />
    </linearGradient>
    <linearGradient
       y2="1.8181274"
       x2="10.14215"
       y1="16.480043"
       x1="10.14215"
       gradientTransform="matrix(0.9247229,0,0,1.0872097,-3.0600562,0.997642)"
       gradientUnits="userSpaceOnUse"
       id="linearGradient3837"
       xlink:href="#linearGradient4081"
       inkscape:collect="always" />
    <linearGradient
       inkscape:collect="always"
       xlink:href="#linearGradient4081"
       id="linearGradient3671"
       gradientUnits="userSpaceOnUse"
       gradientTransform="matrix(0.9247229,0,0,1.0872097,-3.0600562,1.997642)"
       x1="10.14215"
       y1="16.480043"
       x2="10.14215"
       y2="1.8181274" />
    <linearGradient
       inkscape:collect="always"
       xlink:href="#linearGradient4081"
       id="linearGradient3673"
       gradientUnits="userSpaceOnUse"
       gradientTransform="matrix(0.9247229,0,0,1.0872097,-3.0600562,0.997642)"
       x1="10.14215"
       y1="16.480043"
       x2="10.14215"
       y2="1.8181274" />
    <linearGradient
       inkscape:collect="always"
       xlink:href="#linearGradient4081"
       id="linearGradient4974"
       gradientUnits="userSpaceOnUse"
       gradientTransform="matrix(0.9247229,0,0,1.0872097,-3.0600562,1.997642)"
       x1="10.14215"
       y1="16.480043"
       x2="10.14215"
       y2="1.8181274" />
    <linearGradient
       inkscape:collect="always"
       xlink:href="#linearGradient4081"
       id="linearGradient4978"
       gradientUnits="userSpaceOnUse"
       gradientTransform="matrix(0.9247229,0,0,1.0872097,-3.0600562,0.997642)"
       x1="10.14215"
       y1="16.480043"
       x2="10.14215"
       y2="1.8181274" />
    <linearGradient
       inkscape:collect="always"
       xlink:href="#linearGradient4081"
       id="linearGradient3783-5"
       gradientUnits="userSpaceOnUse"
       gradientTransform="matrix(0.9247229,0,0,1.0872097,-3.0600562,0.997642)"
       x1="10.502063"
       y1="16.388376"
       x2="10.502063"
       y2="1.8187671" />
    <linearGradient
       id="StandardGradient-0"
       gradientTransform="matrix(0.9984539,0,0,0.9984539,-0.0459776,0.05767558)"
       x1="10.710332"
       y1="1.9963325"
       x2="10.710332"
       y2="18.974037"
       gradientUnits="userSpaceOnUse">
      <stop
         style="stop-color:#000000;stop-opacity:0.86274511;"
         offset="0"
         id="stop3277-48" />
      <stop
         style="stop-color:#000000;stop-opacity:0.47058824;"
         offset="1"
         id="stop3279-7" />
    </linearGradient>
  </defs>
  <sodipodi:namedview
     id="base"
     pagecolor="#ffffff"
     bordercolor="#e7e7e7"
     borderopacity="1"
     inkscape:pageopacity="0.0"
     inkscape:pageshadow="2"
     inkscape:zoom="18.783129"
     inkscape:cx="-2.9764869"
     inkscape:cy="0.26376685"
     inkscape:document-units="px"
     inkscape:current-layer="layer1"
     showgrid="true"
     inkscape:showpageshadow="false"
     showguides="false"
     inkscape:guide-bbox="true"
     inkscape:window-width="1920"
     inkscape:window-height="1030"
     inkscape:window-x="0"
     inkscape:window-y="25"
     inkscape:window-maximized="1"
     inkscape:snap-global="false">
    <sodipodi:guide
       orientation="1,0"
       position="0,112"
       id="guide2383" />
    <sodipodi:guide
       orientation="0,1"
       position="26.278146,128"
       id="guide2385" />
    <sodipodi:guide
       orientation="1,0"
       position="128,54.082119"
       id="guide2387" />
    <sodipodi:guide
       orientation="0,1"
       position="78.156291,0"
       id="guide2389" />
    <sodipodi:guide
       orientation="0,1"
       position="60.863576,64.084768"
       id="guide2391" />
    <inkscape:grid
       type="xygrid"
       id="grid3672"
       visible="true"
       enabled="true" />
  </sodipodi:namedview>
  <metadata
     id="metadata7">
    <rdf:RDF>
      <cc:Work
         rdf:about="">
        <dc:format>image/svg+xml</dc:format>
        <dc:type
           rdf:resource="http://purl.org/dc/dcmitype/StillImage" />
        <dc:title />
      </cc:Work>
    </rdf:RDF>
  </metadata>
  <g
     inkscape:label="Icon"
     inkscape:groupmode="layer"
     id="layer1"
     style="display:inline">
    <path
       inkscape:connector-curvature="0"
       style="opacity:0.25000000000000000;fill:#000000;fill-opacity:1;stroke:none;display:inline"
       d="M 5,2.03125 C 3.9206679,2.03125 3.03125,2.9206679 3.03125,4 l 0,1 A 0.97891165,0.97891165 0 0 0 3.1875,5.5625 C 2.5261274,6.0103481 2.03125,6.6512285 2.03125,7.5 l 0,6.5 0,1.5 c 0,1.356332 1.1124179,2.46875 2.46875,2.46875 l 2.71875,0 c 0.245859,1.107579 1.1058856,2 2.28125,2 l 6,0 c 1.175364,0 2.035391,-0.892421 2.28125,-2 l 0.09375,0 0,-0.03125 c 0.618631,-0.0307 1.235043,-0.284368 1.59375,-0.75 0.378707,-0.491593 0.5,-1.093886 0.5,-1.6875 l 0,-1.5 0,-6.5 c 0,-0.8591337 -0.512604,-1.4918627 -1.1875,-1.9375 A 0.97891165,0.97891165 0 0 0 18.96875,5 C 18.96875,3.9206679 18.079332,3.03125 17,3.03125 l -6.40625,0 c -0.349745,-0.5725643 -0.8845337,-1 -1.59375,-1 l -4,0 z M 5,3 9,3 c 0.554,0 1,0.446 1,1 l 7,0 c 0.554,0 1,0.446 1,1 L 4,5 4,4 C 4,3.446 4.446,3 5,3 z m -0.5,3 5,0 7,0 1,0 C 18.331,6 19,6.669 19,7.5 l 0,6.5 0,1.5 c 0,0.87896 -0.415231,1.500004 -1.21875,1.5 l -0.75,0.0625 -0.03125,0 0,0.4375 c 0,0.831 -0.669,1.5 -1.5,1.5 l -6,0 C 8.669,19 8,18.331 8,17.5 L 8,17 4.5,17 C 3.669,17 3,16.331 3,15.5 L 3,14 3,7.5 C 3,6.669 3.669,6 4.5,6 z m 6,3 C 10.223,9 10,9.223 10,9.5 l 0,7 c 0,0.277 0.223,0.5 0.5,0.5 l 4,0 c 0.277,0 0.5,-0.223 0.5,-0.5 l 0,-7 C 15,9.223 14.777,9 14.5,9 l -4,0 z m 0.46875,0.96875 3.0625,0 0,6.0625 -3.0625,0 0,-6.0625 z"
       id="path3903" />
    <path
       style="fill:url(#linearGradient3783-5);fill-opacity:1;stroke:none;display:inline"
       d="M 5,3 C 4.446,3 4,3.446 4,4 L 4,5 18,5 C 18,4.446 17.554,4 17,4 L 10,4 C 10,3.446 9.554,3 9,3 z M 4.5,6 C 3.669,6 3,6.669 3,7.5 L 3,14 3,15.5 C 3,16.331 3.669,17 4.5,17 L 8,17 8,17.5 C 8,18.331 8.669,19 9.5,19 l 6,0 c 0.831,0 1.5,-0.669 1.5,-1.5 l 0,-0.4375 0.03125,0 0.75,-0.0625 C 18.584769,17.000004 19,16.37896 19,15.5 L 19,14 19,7.5 C 19,6.669 18.331,6 17.5,6 l -1,0 -7,0 z m 6,3 4,0 C 14.777,9 15,9.223 15,9.5 l 0,7 c 0,0.277 -0.223,0.5 -0.5,0.5 l -4,0 C 10.223,17 10,16.777 10,16.5 l 0,-7 C 10,9.223 10.223,9 10.5,9 z"
       id="Symbol"
       inkscape:connector-curvature="0"
       sodipodi:nodetypes="ssccscsssscsscsssscccscssccssssssssss" />
    <path
       inkscape:connector-curvature="0"
       style="opacity:0.6;fill:#ffffff;fill-opacity:1;stroke:none;display:inline"
       d="M 5,3 C 4.446,3 4,3.446 4,4 L 4,5 C 4,4.446 4.446,4 5,4 l 4,0 c 0.554,0 1,0.446 1,1 l 7,0 1,0 C 18,4.446 17.554,4 17,4 L 10,4 C 10,3.446 9.554,3 9,3 L 5,3 z M 4.5,6 C 3.669,6 3,6.669 3,7.5 l 0,1 C 3,7.669 3.669,7 4.5,7 l 5,0 7,0 1,0 C 18.331,7 19,7.669 19,8.5 l 0,-1 C 19,6.669 18.331,6 17.5,6 l -13,0 z m 5.5,10.5 0,1 c 0,0.277 0.223,0.5 0.5,0.5 l 4,0 c 0.277,0 0.5,-0.223 0.5,-0.5 l 0,-1 c 0,0.277 -0.223,0.5 -0.5,0.5 l -4,0 C 10.223,17 10,16.777 10,16.5 z"
       id="path3111" />
    <path
       inkscape:connector-curvature="0"
       style="opacity:0.45;fill:#000000;fill-opacity:1;stroke:none;display:inline"
       d="m 4,5 0,1 0.5,0 13,0 0.5,0 C 18,5.446 17.554,5 17,5 L 10,5 4,5 z m 6.5,4 C 10.223,9 10,9.223 10,9.5 l 0,1 C 10,10.223 10.223,10 10.5,10 l 4,0 c 0.277,0 0.5,0.223 0.5,0.5 l 0,-1 C 15,9.223 14.777,9 14.5,9 l -4,0 z m -7.5,6.5 0,1 C 3,17.331 3.669,18 4.5,18 L 8,18 8,18.5 C 8,19.331 8.669,20 9.5,20 l 6,0 c 0.831,0 1.5,-0.669 1.5,-1.5 l 0,-0.4375 0.03125,0 0.75,-0.0625 C 18.584769,18.000004 19,17.37896 19,16.5 l 0,-1 c 0,0.87896 -0.415231,1.500004 -1.21875,1.5 l -0.75,0.0625 -0.03125,0 0,0.4375 c 0,0.831 -0.669,1.5 -1.5,1.5 l -6,0 C 8.669,19 8,18.331 8,17.5 L 8,17 4.5,17 C 3.669,17 3,16.331 3,15.5 z"
       id="path3888" />
  </g>
</svg>
