<?xml version="1.0" encoding="UTF-8" standalone="no"?>
<!-- Created with Inkscape (http://www.inkscape.org/) -->

<svg
   xmlns:dc="http://purl.org/dc/elements/1.1/"
   xmlns:cc="http://creativecommons.org/ns#"
   xmlns:rdf="http://www.w3.org/1999/02/22-rdf-syntax-ns#"
   xmlns:svg="http://www.w3.org/2000/svg"
   xmlns="http://www.w3.org/2000/svg"
   xmlns:xlink="http://www.w3.org/1999/xlink"
   xmlns:sodipodi="http://sodipodi.sourceforge.net/DTD/sodipodi-0.dtd"
   xmlns:inkscape="http://www.inkscape.org/namespaces/inkscape"
   width="22"
   height="22"
   id="svg2"
   sodipodi:version="0.32"
   inkscape:version="0.48.2 r9819"
   version="1.0"
   sodipodi:docname="system-devices-panel-alert.svg"
   inkscape:output_extension="org.inkscape.output.svg.inkscape"
   style="display:inline">
  <defs
     id="defs4">
    <linearGradient
       id="linearGradient4081">
      <stop
         style="stop-color:#aaaaaa;stop-opacity:1;"
         offset="0"
         id="stop4083" />
      <stop
         style="stop-color:#ebebeb;stop-opacity:1;"
         offset="1"
         id="stop4085" />
    </linearGradient>
    <linearGradient
       inkscape:collect="always"
       xlink:href="#linearGradient4081"
       id="linearGradient3643"
       gradientUnits="userSpaceOnUse"
       gradientTransform="matrix(0.93103448,0,0,0.93103448,-28.607759,0.1594828)"
       x1="10"
       y1="2.4281847"
       x2="10"
       y2="20.110771" />
    <linearGradient
       inkscape:collect="always"
       xlink:href="#SpecificGradient"
       id="linearGradient3642"
       x1="4"
       y1="11.000002"
       x2="18"
       y2="11.000002"
       gradientUnits="userSpaceOnUse"
       gradientTransform="matrix(0,1,-1,0,22.000002,2e-6)" />
    <linearGradient
       inkscape:collect="always"
       xlink:href="#linearGradient4081"
       id="linearGradient3648"
       gradientUnits="userSpaceOnUse"
       gradientTransform="matrix(0,1,-1,0,22.000002,2e-6)"
       x1="4"
       y1="11.000002"
       x2="18"
       y2="11.000002" />
    <linearGradient
       inkscape:collect="always"
       xlink:href="#linearGradient4081"
       id="linearGradient3653"
       gradientUnits="userSpaceOnUse"
       gradientTransform="matrix(0,-1,-1,0,22.000002,22.000002)"
       x1="4"
       y1="11.000002"
       x2="18"
       y2="11.000002" />
    <linearGradient
       inkscape:collect="always"
       xlink:href="#linearGradient4081"
       id="linearGradient3769"
       gradientUnits="userSpaceOnUse"
       gradientTransform="matrix(0,-1,-1,0,22.000002,23.000002)"
       x1="4"
       y1="11.000002"
       x2="18"
       y2="11.000002" />
    <linearGradient
       inkscape:collect="always"
       xlink:href="#linearGradient4081"
       id="linearGradient3773"
       gradientUnits="userSpaceOnUse"
       gradientTransform="matrix(0,-1,-1,0,22.000002,22.000002)"
       x1="4"
       y1="11.000002"
       x2="18"
       y2="11.000002" />
    <linearGradient
       inkscape:collect="always"
       xlink:href="#SpecificGradient"
       id="linearGradient3619"
       gradientUnits="userSpaceOnUse"
       gradientTransform="matrix(-1.3653904,0,0,1.1770572,21.039062,0.71428571)"
       x1="11.014478"
       y1="1.0923125"
       x2="11.014478"
       y2="16.384687" />
    <linearGradient
       id="SpecificGradient">
      <stop
         style="stop-color:#f3604d;stop-opacity:1;"
         offset="0"
         id="stop3185-7" />
      <stop
         style="stop-color:#c81700;stop-opacity:1;"
         offset="1"
         id="stop3187-4" />
    </linearGradient>
    <linearGradient
       y2="16.384687"
       x2="11.014478"
       y1="1.0923125"
       x1="11.014478"
       gradientTransform="matrix(-1.3653904,0,0,1.1770572,22.991394,1.8494282)"
       gradientUnits="userSpaceOnUse"
       id="linearGradient3037"
       xlink:href="#SpecificGradient"
       inkscape:collect="always" />
    <linearGradient
       inkscape:collect="always"
       xlink:href="#SpecificGradient"
       id="linearGradient3814"
       x1="3.0000069"
       y1="10.999994"
       x2="19.000008"
       y2="10.999994"
       gradientUnits="userSpaceOnUse"
       gradientTransform="matrix(0,1,-1,0,22.000001,-1.3e-5)" />
    <linearGradient
       id="SpecificGradient-8"
       x1="10.761708"
       y1="3.9999998"
       x2="10.761708"
       y2="18.011395"
       gradientUnits="userSpaceOnUse">
      <stop
         style="stop-color:#a50000;stop-opacity:1;"
         offset="0"
         id="stop3292" />
      <stop
         style="stop-color:#e73800;stop-opacity:1;"
         offset="1"
         id="stop3294" />
    </linearGradient>
    <linearGradient
       inkscape:collect="always"
       xlink:href="#StandardGradient"
       id="linearGradient3814-8"
       x1="3.0000069"
       y1="10.999994"
       x2="19.000008"
       y2="10.999994"
       gradientUnits="userSpaceOnUse"
       gradientTransform="matrix(0,1,-1,0,22.000001,-1.3e-5)" />
    <linearGradient
       id="StandardGradient"
       gradientTransform="matrix(0.9984539,0,0,0.9984539,-0.0459776,0.05767558)"
       x1="10.710332"
       y1="1.9963325"
       x2="10.710332"
       y2="18.974037"
       gradientUnits="userSpaceOnUse">
      <stop
         style="stop-color:#000000;stop-opacity:0.86274511;"
         offset="0"
         id="stop3277" />
      <stop
         style="stop-color:#000000;stop-opacity:0.47058824;"
         offset="1"
         id="stop3279" />
    </linearGradient>
    <linearGradient
       inkscape:collect="always"
       xlink:href="#SpecificGradient"
       id="linearGradient3814-8-8"
       x1="3.0000069"
       y1="10.999994"
       x2="19.000008"
       y2="10.999994"
       gradientUnits="userSpaceOnUse"
       gradientTransform="matrix(0,1,-1,0,22.000001,-1.3e-5)" />
    <linearGradient
       id="linearGradient4081-8">
      <stop
         style="stop-color:#aaaaaa;stop-opacity:1;"
         offset="0"
         id="stop4083-9" />
      <stop
         style="stop-color:#ebebeb;stop-opacity:1;"
         offset="1"
         id="stop4085-7" />
    </linearGradient>
  </defs>
  <sodipodi:namedview
     id="base"
     pagecolor="#ffffff"
     bordercolor="#e7e7e7"
     borderopacity="1"
     inkscape:pageopacity="0.0"
     inkscape:pageshadow="2"
     inkscape:zoom="13.279462"
     inkscape:cx="-16.240632"
     inkscape:cy="4.1797938"
     inkscape:document-units="px"
     inkscape:current-layer="layer1"
     showgrid="true"
     inkscape:showpageshadow="false"
     showguides="false"
     inkscape:guide-bbox="true"
     inkscape:window-width="1680"
     inkscape:window-height="1026"
     inkscape:window-x="0"
     inkscape:window-y="24"
     inkscape:window-maximized="1"
     inkscape:snap-global="false">
    <sodipodi:guide
       orientation="1,0"
       position="0,112"
       id="guide2383" />
    <sodipodi:guide
       orientation="0,1"
       position="26.278146,128"
       id="guide2385" />
    <sodipodi:guide
       orientation="1,0"
       position="128,54.082119"
       id="guide2387" />
    <sodipodi:guide
       orientation="0,1"
       position="78.156291,0"
       id="guide2389" />
    <sodipodi:guide
       orientation="0,1"
       position="60.863576,64.084768"
       id="guide2391" />
    <inkscape:grid
       type="xygrid"
       id="grid3672"
       visible="true"
       enabled="true" />
  </sodipodi:namedview>
  <metadata
     id="metadata7">
    <rdf:RDF>
      <cc:Work
         rdf:about="">
        <dc:format>image/svg+xml</dc:format>
        <dc:type
           rdf:resource="http://purl.org/dc/dcmitype/StillImage" />
        <dc:title />
      </cc:Work>
    </rdf:RDF>
  </metadata>
  <g
     inkscape:label="Icon"
     inkscape:groupmode="layer"
     id="layer1"
     style="display:inline">
    <path
       d="m 39.757265,2.0000516 c -0.354195,0 -0.640989,0.2938192 -0.640989,0.654066 l 0,1.268892 c -0.63332,0.168741 -1.23846,0.4236198 -1.792143,0.7456372 L 36.421518,3.7660342 C 36.294149,3.6386714 36.141579,3.5712086 35.976753,3.5698136 35.811927,3.5683994 35.644132,3.627735 35.518906,3.752952 l -1.765983,1.7659814 c -0.25045,0.250452 -0.241652,0.6478816 0.01307,0.902615 l 0.902614,0.9026114 c -0.32202,0.5536826 -0.576899,1.1588246 -0.745644,1.7921456 l -1.26889,0 C 32.293821,9.1163054 32,9.4031006 32,9.7572934 l 0,2.4854566 c 0,0.354192 0.293821,0.640988 0.654068,0.640988 l 1.26889,0 c 0.168746,0.633322 0.423624,1.238463 0.74564,1.792144 l -0.902615,0.902614 c -0.254733,0.254733 -0.263532,0.65216 -0.01306,0.902612 l 1.765983,1.765984 c 0.250451,0.250452 0.647879,0.24165 0.902612,-0.01308 l 0.902615,-0.902614 c 0.553683,0.322017 1.158823,0.576896 1.792143,0.745638 l 0,1.268891 c 0,0.360247 0.286794,0.654068 0.640989,0.654068 l 2.485456,0 c 0.354194,0 0.640987,-0.293821 0.640987,-0.654068 l 0,-1.268891 c 0.633321,-0.168742 1.238463,-0.423621 1.792145,-0.745638 l 0.902616,0.902615 c 0.25473,0.254731 0.65216,0.263533 0.902612,0.01307 l 1.765982,-1.765984 c 0.25045,-0.250453 0.24165,-0.647881 -0.01305,-0.902613 L 47.331404,14.67587 c 0.322016,-0.553681 0.576895,-1.158823 0.745636,-1.792145 l 1.268894,0 C 49.706177,12.883733 50,12.596939 50,12.242746 L 50,9.7572882 C 50,9.4030968 49.706177,9.1163014 49.345934,9.1163014 l -1.268894,0 C 47.908299,8.4829818 47.65342,7.8778398 47.331404,7.324156 l 0.902614,-0.9026126 c 0.25473,-0.2547322 0.263532,-0.6521606 0.01305,-0.9026126 l -1.76598,-1.7659852 c -0.250457,-0.2504494 -0.647882,-0.24165 -0.902616,0.01305 L 44.675855,4.6686108 C 44.122172,4.346592 43.517031,4.0917134 42.88371,3.922971 l 0,-1.2688894 c 0,-0.3602494 -0.286793,-0.6540686 -0.640984,-0.6540686 l -2.485457,0 z m 1.242728,6.279048 c 1.501951,0 2.720923,1.2189728 2.720923,2.7209214 0,1.501951 -1.218975,2.720921 -2.720923,2.720921 -1.501948,0 -2.720922,-1.21897 -2.720922,-2.720921 0,-1.5019486 1.218974,-2.7209214 2.720922,-2.7209214 z"
       id="rect3267"
       style="fill:#000000;fill-opacity:1;fill-rule:nonzero;stroke:none;stroke-width:1;marker:none;visibility:visible;display:block;overflow:visible;enable-background:accumulate" />
    <path
       inkscape:connector-curvature="0"
       style="opacity:0.25;fill:#000000;fill-opacity:1;fill-rule:nonzero;stroke:none;stroke-width:1;marker:none;visibility:visible;display:block;overflow:visible;enable-background:accumulate"
       d="M 9.90625,2 C 9.0086551,2 8.3125,2.689294 8.3125,3.59375 l 0,0.46875 C 8.1983291,4.1062075 8.0805285,4.1383272 7.96875,4.1875 L 7.65625,3.875 a 1.0062511,1.0062511 0 0 0 0,-0.03125 c -0.6110683,-0.6110732 -1.6442609,-0.6057554 -2.25,0 l -1.5625,1.5625 c -0.6057567,0.6057659 -0.6109946,1.6389306 0,2.25 a 1.0062511,1.0062511 0 0 0 0.03125,0 l 0.3125,0.3125 C 4.1383271,8.0805286 4.1062076,8.1983289 4.0625,8.3125 l -0.46875,0 C 2.6892791,8.3124915 2,9.0086468 2,9.90625 l 0,2.1875 c 0,0.897605 0.6892866,1.59375 1.59375,1.59375 l 0.46875,0 c 0.043708,0.114171 0.075827,0.231972 0.125,0.34375 l -0.3125,0.3125 a 1.0062511,1.0062511 0 0 0 -0.03125,0 c -0.6110407,0.611043 -0.6058189,1.644257 0,2.25 l 1.5625,1.5625 c 0.605761,0.605745 1.6389353,0.610984 2.25,0 a 1.0062511,1.0062511 0 0 0 0,-0.03125 l 0.3125,-0.3125 c 0.1117787,0.04917 0.229579,0.08129 0.34375,0.125 l 0,0.46875 C 8.3125,19.310709 9.0086557,20 9.90625,20 l 2.1875,0 c 0.897596,0 1.59375,-0.689295 1.59375,-1.59375 l 0,-0.46875 c 0.114171,-0.04371 0.231971,-0.07583 0.34375,-0.125 l 0.3125,0.3125 a 1.0062511,1.0062511 0 0 0 0,0.03125 c 0.33259,0.332587 0.79282,0.434689 1.125,0.4375 0.364259,0.0032 0.795999,-0.108535 1.125,-0.4375 l 1.5625,-1.5625 c 0.605738,-0.605741 0.611053,-1.638928 0,-2.25 a 1.0062511,1.0062511 0 0 0 -0.03125,0 l -0.3125,-0.3125 c 0.04917,-0.111779 0.08129,-0.229579 0.125,-0.34375 l 0.46875,0 C 19.310706,13.6875 20,12.991339 20,12.09375 l 0,-2.1875 C 20,9.0086544 19.310708,8.3125 18.40625,8.3125 l -0.46875,0 C 17.89379,8.1983298 17.86167,8.0805283 17.8125,7.96875 l 0.3125,-0.3125 a 1.0062511,1.0062511 0 0 0 0.03125,0 c 0.611052,-0.6110541 0.605784,-1.6442619 0,-2.25 l -1.5625,-1.5625 c -0.605742,-0.6057452 -1.638928,-0.611053 -2.25,0 a 1.0062511,1.0062511 0 0 0 0,0.03125 l -0.3125,0.3125 C 13.919472,4.1383273 13.801671,4.1062075 13.6875,4.0625 l 0,-0.46875 C 13.6875,2.6892961 12.991344,2 12.09375,2 l -2.1875,0 z m 0,1 2.1875,0 c 0.31484,0 0.59375,0.2735291 0.59375,0.59375 l 0,1.125 c 0.562952,0.1499932 1.101586,0.3700131 1.59375,0.65625 L 15.0625,4.5625 c 0.22643,-0.2264231 0.589877,-0.2226243 0.8125,0 l 1.5625,1.5625 c 0.222641,0.2226242 0.226429,0.5860701 0,0.8125 L 16.625,7.71875 c 0.286237,0.4921616 0.506251,1.0307959 0.65625,1.59375 l 1.125,0 C 18.726471,9.3125 19,9.591412 19,9.90625 l 0,2.1875 c 0,0.314838 -0.273526,0.59375 -0.59375,0.59375 l -1.125,0 c -0.149996,0.562952 -0.37001,1.101588 -0.65625,1.59375 l 0.8125,0.78125 c 0.226423,0.22643 0.222623,0.589876 0,0.8125 l -1.5625,1.5625 c -0.111312,0.1113 -0.259738,0.15755 -0.40625,0.15625 -0.146512,-0.0012 -0.293038,-0.04304 -0.40625,-0.15625 L 14.28125,16.625 c -0.492164,0.286238 -1.030798,0.506258 -1.59375,0.65625 l 0,1.125 C 12.6875,18.72647 12.40859,19 12.09375,19 l -2.1875,0 C 9.591413,19 9.3125,18.726472 9.3125,18.40625 l 0,-1.125 C 8.749548,17.131257 8.210913,16.911239 7.71875,16.625 L 6.9375,17.4375 c -0.22643,0.2264 -0.589872,0.222622 -0.8125,0 L 4.5625,15.875 c -0.222652,-0.222624 -0.226428,-0.586071 0,-0.8125 L 5.375,14.28125 C 5.088763,13.789086 4.868742,13.250451 4.71875,12.6875 l -1.125,0 C 3.273533,12.6875 3,12.408587 3,12.09375 L 3,9.90625 C 3,9.591411 3.273533,9.312497 3.59375,9.3125 l 1.125,0 C 4.868742,8.7495468 5.088763,8.2109116 5.375,7.71875 L 4.5625,6.9375 C 4.3361,6.7110723 4.339878,6.3476254 4.5625,6.125 L 6.125,4.5625 c 0.222624,-0.22263 0.586073,-0.2264288 0.8125,0 L 7.71875,5.375 C 8.210912,5.0887631 8.749548,4.8687432 9.3125,4.71875 l 0,-1.125 C 9.3125,3.2735291 9.591411,3 9.90625,3 z M 11,8 c -1.6568542,0 -3,1.3431458 -3,3 0,1.656854 1.3431458,3 3,3 1.656854,0 3,-1.343146 3,-3 0,-1.6568542 -1.343146,-3 -3,-3 z m 0,1 c 1.11309,0 2,0.88691 2,2 0,1.11309 -0.88691,2 -2,2 C 9.88691,13 9,12.11309 9,11 9,9.8869099 9.8869099,9 11,9 z"
       id="path3828" />
    <path
       inkscape:connector-curvature="0"
       style="fill:url(#linearGradient3814-8-8);fill-opacity:1;fill-rule:nonzero;stroke:none;stroke-width:1;marker:none;visibility:visible;display:block;overflow:visible;enable-background:accumulate"
       d="M 9.90625,3 C 9.591411,3 9.3125,3.273529 9.3125,3.59375 l 0,1.125 C 8.749548,4.868743 8.210912,5.088763 7.71875,5.375 L 6.9375,4.5625 C 6.711073,4.336071 6.347624,4.33987 6.125,4.5625 L 4.5625,6.125 c -0.222622,0.222625 -0.2264,0.586072 0,0.8125 L 5.375,7.71875 C 5.088763,8.210912 4.868742,8.749547 4.71875,9.3125 l -1.125,0 C 3.273533,9.312497 3,9.591411 3,9.90625 l 0,2.1875 c 0,0.314837 0.273533,0.59375 0.59375,0.59375 l 1.125,0 c 0.149992,0.562951 0.370013,1.101586 0.65625,1.59375 L 4.5625,15.0625 c -0.226428,0.226429 -0.222652,0.589876 0,0.8125 l 1.5625,1.5625 c 0.222628,0.222622 0.58607,0.2264 0.8125,0 L 7.71875,16.625 c 0.492163,0.286239 1.030798,0.506257 1.59375,0.65625 l 0,1.125 C 9.3125,18.726472 9.591413,19 9.90625,19 l 2.1875,0 c 0.31484,0 0.59375,-0.27353 0.59375,-0.59375 l 0,-1.125 c 0.562952,-0.149992 1.101586,-0.370012 1.59375,-0.65625 l 0.78125,0.8125 c 0.113212,0.113211 0.259738,0.15501 0.40625,0.15625 0.146512,0.0013 0.294938,-0.04495 0.40625,-0.15625 l 1.5625,-1.5625 c 0.222623,-0.222624 0.226423,-0.58607 0,-0.8125 L 16.625,14.28125 c 0.28624,-0.492162 0.506254,-1.030798 0.65625,-1.59375 l 1.125,0 C 18.726474,12.6875 19,12.408588 19,12.09375 l 0,-2.1875 C 19,9.591412 18.726471,9.3125 18.40625,9.3125 l -1.125,0 C 17.131251,8.749546 16.911237,8.210912 16.625,7.71875 L 17.4375,6.9375 c 0.226429,-0.22643 0.222641,-0.589876 0,-0.8125 L 15.875,4.5625 c -0.222623,-0.222624 -0.58607,-0.226423 -0.8125,0 L 14.28125,5.375 C 13.789086,5.088763 13.250452,4.868743 12.6875,4.71875 l 0,-1.125 C 12.6875,3.273529 12.40859,3 12.09375,3 L 9.90625,3 z M 11,8 c 1.656854,0 3,1.343146 3,3 0,1.656854 -1.343146,3 -3,3 C 9.3431458,14 8,12.656854 8,11 8,9.343146 9.3431458,8 11,8 z"
       id="path2862" />
    <path
       inkscape:connector-curvature="0"
       style="opacity:0.4;fill:#ffffff;fill-opacity:1;fill-rule:nonzero;stroke:none;stroke-width:1;marker:none;visibility:visible;display:block;overflow:visible;enable-background:accumulate"
       d="M 9.90625,3 C 9.591411,3 9.3125,3.2735291 9.3125,3.59375 l 0,1 C 9.3125,4.2735291 9.591411,4 9.90625,4 l 2.1875,0 c 0.31484,0 0.59375,0.2735291 0.59375,0.59375 l 0,-1 C 12.6875,3.2735291 12.40859,3 12.09375,3 l -2.1875,0 z m -3.375,1.40625 C 6.3842564,4.4067248 6.236312,4.451185 6.125,4.5625 L 4.5625,6.125 c -0.222622,0.2226254 -0.2264,0.5860723 0,0.8125 L 4.65625,7.03125 6.125,5.5625 c 0.222624,-0.22263 0.586073,-0.2264288 0.8125,0 L 7.71875,6.375 C 8.210912,6.0887631 8.749548,5.8687432 9.3125,5.71875 l 0,-1 C 8.749548,4.8687432 8.210912,5.0887631 7.71875,5.375 L 6.9375,4.5625 C 6.8242865,4.4492856 6.6782436,4.4057752 6.53125,4.40625 z m 8.9375,0 C 15.321757,4.4057752 15.175715,4.4492885 15.0625,4.5625 L 14.28125,5.375 C 13.789086,5.0887631 13.250452,4.8687432 12.6875,4.71875 l 0,1 c 0.562952,0.1499932 1.101586,0.3700131 1.59375,0.65625 L 15.0625,5.5625 c 0.22643,-0.2264231 0.589877,-0.2226243 0.8125,0 L 17.34375,7.03125 17.4375,6.9375 c 0.226429,-0.2264299 0.222641,-0.5898758 0,-0.8125 L 15.875,4.5625 C 15.763689,4.4511879 15.615743,4.4067248 15.46875,4.40625 z m -10.4375,4 C 4.9050415,8.7006856 4.8022306,8.9991788 4.71875,9.3125 l -1.125,0 C 3.273533,9.312497 3,9.591411 3,9.90625 l 0,1 C 3,10.591411 3.273533,10.312497 3.59375,10.3125 l 1.125,0 C 4.868742,9.7495468 5.088763,9.2109116 5.375,8.71875 L 5.03125,8.40625 z m 11.9375,0 -0.34375,0.3125 c 0.286237,0.4921616 0.506251,1.0307959 0.65625,1.59375 l 1.125,0 C 18.726471,10.3125 19,10.591412 19,10.90625 l 0,-1 C 19,9.591412 18.726471,9.3125 18.40625,9.3125 l -1.125,0 C 17.197766,8.9991783 17.094957,8.7006854 16.96875,8.40625 z M 8.0625,11.5 C 8.0338207,11.666575 8,11.825236 8,12 c 0,1.656854 1.3431458,3 3,3 1.656854,0 3,-1.343146 3,-3 0,-0.174764 -0.03382,-0.333425 -0.0625,-0.5 C 13.694284,12.912646 12.48209,14 11,14 9.5179099,14 8.3057158,12.912646 8.0625,11.5 z M 5.03125,14.59375 4.5625,15.0625 c -0.226428,0.226429 -0.222652,0.589876 0,0.8125 L 4.65625,15.96875 5.375,15.28125 C 5.2480731,15.063008 5.131804,14.828335 5.03125,14.59375 z m 11.9375,0 c -0.100553,0.234585 -0.216822,0.469259 -0.34375,0.6875 l 0.71875,0.6875 0.09375,-0.09375 c 0.222623,-0.222624 0.226423,-0.58607 0,-0.8125 l -0.46875,-0.46875 z"
       id="path3804" />
    <path
       inkscape:connector-curvature="0"
       style="opacity:0.45;fill:#000000;fill-opacity:1;fill-rule:nonzero;stroke:none;stroke-width:1;marker:none;visibility:visible;display:block;overflow:visible;enable-background:accumulate"
       d="M 4.65625,7.03125 4.5625,7.125 c -0.222622,0.2226254 -0.2264,0.5860723 0,0.8125 L 5.03125,8.40625 C 5.131804,8.1716646 5.2480731,7.9369907 5.375,7.71875 L 4.65625,7.03125 z m 12.6875,0 -0.71875,0.6875 c 0.126927,0.2182407 0.243197,0.4529148 0.34375,0.6875 L 17.4375,7.9375 c 0.226429,-0.2264299 0.222641,-0.5898758 0,-0.8125 L 17.34375,7.03125 z M 11,8 C 9.3431458,8 8,9.343146 8,11 8,11.174764 8.0338207,11.333425 8.0625,11.5 8.3057158,10.087354 9.5179099,9 11,9 c 1.48209,0 2.694284,1.087354 2.9375,2.5 C 13.966179,11.333425 14,11.174764 14,11 14,9.343146 12.656854,8 11,8 z m -8,4.09375 0,1 c 0,0.314837 0.273533,0.59375 0.59375,0.59375 l 1.125,0 c 0.083481,0.31332 0.1862915,0.611814 0.3125,0.90625 L 5.375,14.28125 C 5.088763,13.789086 4.868742,13.250451 4.71875,12.6875 l -1.125,0 C 3.273533,12.6875 3,12.408587 3,12.09375 z m 16,0 c 0,0.314838 -0.273526,0.59375 -0.59375,0.59375 l -1.125,0 c -0.149996,0.562952 -0.37001,1.101588 -0.65625,1.59375 l 0.34375,0.3125 c 0.126208,-0.294436 0.229017,-0.59293 0.3125,-0.90625 l 1.125,0 C 18.726474,13.6875 19,13.408588 19,13.09375 l 0,-1 z M 4.65625,15.96875 4.5625,16.0625 c -0.226428,0.226429 -0.222652,0.589876 0,0.8125 l 1.5625,1.5625 c 0.222628,0.222622 0.58607,0.2264 0.8125,0 L 7.71875,17.625 c 0.492163,0.286239 1.030798,0.506257 1.59375,0.65625 l 0,-1 C 8.749548,17.131257 8.210913,16.911239 7.71875,16.625 L 6.9375,17.4375 c -0.22643,0.2264 -0.589872,0.222622 -0.8125,0 L 4.65625,15.96875 z m 12.6875,0 -1.46875,1.46875 c -0.111312,0.1113 -0.259738,0.15755 -0.40625,0.15625 -0.146512,-0.0012 -0.293038,-0.04304 -0.40625,-0.15625 L 14.28125,16.625 c -0.492164,0.286238 -1.030798,0.506258 -1.59375,0.65625 l 0,1 c 0.562952,-0.149992 1.101586,-0.370012 1.59375,-0.65625 l 0.78125,0.8125 c 0.113212,0.113211 0.259738,0.15501 0.40625,0.15625 0.146512,0.0013 0.294938,-0.04495 0.40625,-0.15625 l 1.5625,-1.5625 c 0.222623,-0.222624 0.226423,-0.58607 0,-0.8125 l -0.09375,-0.09375 z m -8.03125,2.4375 0,1 C 9.3125,19.726472 9.591413,20 9.90625,20 l 2.1875,0 c 0.31484,0 0.59375,-0.27353 0.59375,-0.59375 l 0,-1 C 12.6875,18.72647 12.40859,19 12.09375,19 l -2.1875,0 C 9.591413,19 9.3125,18.726472 9.3125,18.40625 z"
       id="path3813" />
  </g>
</svg>
