<?xml version="1.0" encoding="UTF-8" standalone="no"?>
<!-- Created with Inkscape (http://www.inkscape.org/) -->

<svg
   xmlns:dc="http://purl.org/dc/elements/1.1/"
   xmlns:cc="http://creativecommons.org/ns#"
   xmlns:rdf="http://www.w3.org/1999/02/22-rdf-syntax-ns#"
   xmlns:svg="http://www.w3.org/2000/svg"
   xmlns="http://www.w3.org/2000/svg"
   xmlns:xlink="http://www.w3.org/1999/xlink"
   xmlns:sodipodi="http://sodipodi.sourceforge.net/DTD/sodipodi-0.dtd"
   xmlns:inkscape="http://www.inkscape.org/namespaces/inkscape"
   width="24"
   height="24"
   id="svg2"
   sodipodi:version="0.32"
   inkscape:version="0.48.1 r9760"
   version="1.0"
   sodipodi:docname="emblem-downloads.svg"
   inkscape:output_extension="org.inkscape.output.svg.inkscape"
   style="display:inline">
  <defs
     id="defs4">
    <inkscape:perspective
       sodipodi:type="inkscape:persp3d"
       inkscape:vp_x="0 : 11 : 1"
       inkscape:vp_y="0 : 1000 : 0"
       inkscape:vp_z="22 : 11 : 1"
       inkscape:persp3d-origin="11 : 7.3333333 : 1"
       id="perspective2531" />
    <linearGradient
       id="ButtonShadow"
       gradientTransform="scale(0.9883037,1.0118347)"
       x1="9.3550024"
       y1="21.742682"
       x2="9.3550024"
       y2="0.49362123"
       gradientUnits="userSpaceOnUse">
      <stop
         id="stop3277"
         offset="0"
         style="stop-color:#000000;stop-opacity:0.70588237;" />
      <stop
         id="stop3279"
         offset="1"
         style="stop-color:#000000;stop-opacity:0.15686275;" />
    </linearGradient>
    <linearGradient
       inkscape:collect="always"
       id="linearGradient3232">
      <stop
         style="stop-color:#000000;stop-opacity:1;"
         offset="0"
         id="stop3234" />
      <stop
         style="stop-color:#000000;stop-opacity:0;"
         offset="1"
         id="stop3236" />
    </linearGradient>
    <linearGradient
       gradientUnits="userSpaceOnUse"
       y2="-6.0004225"
       x2="11"
       y1="14.805666"
       x1="11"
       id="linearGradient3221"
       xlink:href="#linearGradient3232"
       inkscape:collect="always" />
    <linearGradient
       id="ButtonColor"
       x1="10.31979"
       y1="21"
       x2="10.31979"
       y2="0.99929649"
       gradientUnits="userSpaceOnUse">
      <stop
         style="stop-color:#d0d0d0;stop-opacity:1;"
         offset="0"
         id="stop3189" />
      <stop
         style="stop-color:#ffffff;stop-opacity:1;"
         offset="1"
         id="stop3191" />
    </linearGradient>
    <linearGradient
       inkscape:collect="always"
       xlink:href="#ButtonShadow"
       id="linearGradient38042"
       gradientUnits="userSpaceOnUse"
       gradientTransform="scale(0.9883037,1.0118347)"
       x1="9.3550024"
       y1="21.742682"
       x2="9.3550024"
       y2="0.49362123" />
    <clipPath
       clipPathUnits="userSpaceOnUse"
       id="clipPath2849">
      <rect
         ry="2"
         rx="2"
         y="1"
         x="1"
         height="20"
         width="20"
         id="rect2851"
         style="fill:#ffffff;fill-opacity:1;fill-rule:evenodd;stroke:none;display:inline" />
    </clipPath>
    <inkscape:perspective
       id="perspective2898"
       inkscape:persp3d-origin="0.5 : 0.33333333 : 1"
       inkscape:vp_z="1 : 0.5 : 1"
       inkscape:vp_y="0 : 1000 : 0"
       inkscape:vp_x="0 : 0.5 : 1"
       sodipodi:type="inkscape:persp3d" />
    <linearGradient
       inkscape:collect="always"
       xlink:href="#linearGradient3250"
       id="linearGradient3962"
       gradientUnits="userSpaceOnUse"
       gradientTransform="matrix(-0.1844416,0,0,-0.1860272,22.085665,22.521622)"
       x1="84.35965"
       y1="79.416924"
       x2="84.35965"
       y2="5.1837206" />
    <linearGradient
       id="linearGradient3250">
      <stop
         id="stop3252"
         offset="0"
         style="stop-color:#ffffff;stop-opacity:1;" />
      <stop
         style="stop-color:#ffffff;stop-opacity:0.49803922;"
         offset="0.43290177"
         id="stop3254" />
      <stop
         id="stop3256"
         offset="1"
         style="stop-color:#ffffff;stop-opacity:0" />
    </linearGradient>
    <inkscape:perspective
       id="perspective2838"
       inkscape:persp3d-origin="0.5 : 0.33333333 : 1"
       inkscape:vp_z="1 : 0.5 : 1"
       inkscape:vp_y="0 : 1000 : 0"
       inkscape:vp_x="0 : 0.5 : 1"
       sodipodi:type="inkscape:persp3d" />
    <linearGradient
       id="XMLID_2_"
       gradientUnits="userSpaceOnUse"
       x1="32.328602"
       y1="-43.420898"
       x2="-1.0462"
       y2="-75.051697"
       gradientTransform="matrix(1,0,0,-1,7.916,-34.9062)">
      <stop
         offset="0"
         style="stop-color:#000000;stop-opacity:1"
         id="stop22" />
      <stop
         id="stop3695"
         style="stop-color:#4a4a4a;stop-opacity:1"
         offset="0.38107949" />
      <stop
         offset="1"
         style="stop-color:#1d1d1d;stop-opacity:0;"
         id="stop26" />
    </linearGradient>
    <linearGradient
       y2="-89.851723"
       x2="16.449209"
       y1="-42.637962"
       x1="16.449209"
       gradientTransform="matrix(0.36278763,0,0,-0.36278763,6.5580347,-13.63994)"
       gradientUnits="userSpaceOnUse"
       id="linearGradient2847"
       xlink:href="#StandardGradient"
       inkscape:collect="always" />
    <inkscape:perspective
       id="perspective2849"
       inkscape:persp3d-origin="0.5 : 0.33333333 : 1"
       inkscape:vp_z="1 : 0.5 : 1"
       inkscape:vp_y="0 : 1000 : 0"
       inkscape:vp_x="0 : 0.5 : 1"
       sodipodi:type="inkscape:persp3d" />
    <linearGradient
       id="StandardGradient"
       gradientTransform="scale(1.1467263,0.8720476)"
       x1="7.1904788"
       y1="6.9551144"
       x2="7.1904788"
       y2="18.319494"
       gradientUnits="userSpaceOnUse">
      <stop
         style="stop-color:#000000;stop-opacity:0.86274511;"
         offset="0"
         id="stop3280" />
      <stop
         style="stop-color:#000000;stop-opacity:0.47058824;"
         offset="1"
         id="stop3282" />
    </linearGradient>
    <inkscape:perspective
       id="perspective2867"
       inkscape:persp3d-origin="0.5 : 0.33333333 : 1"
       inkscape:vp_z="1 : 0.5 : 1"
       inkscape:vp_y="0 : 1000 : 0"
       inkscape:vp_x="0 : 0.5 : 1"
       sodipodi:type="inkscape:persp3d" />
    <clipPath
       clipPathUnits="userSpaceOnUse"
       id="clipPath3778">
      <path
         style="fill:#ff00ff;fill-opacity:1;stroke:none;display:inline"
         d="m -20,6 0,16 6.15625,0 C -20.004456,18.99429 -18,15 -13,10 l -4,-3 11,0 0,11 -3,-4 c -3,3 -7.004456,4.99429 -4.84375,8 L -4,22 -4,6 -20,6 z"
         id="path3780"
         inkscape:connector-curvature="0" />
    </clipPath>
    <linearGradient
       inkscape:collect="always"
       xlink:href="#StandardGradient"
       id="linearGradient3892"
       gradientUnits="userSpaceOnUse"
       gradientTransform="matrix(0.36278763,0,0,-0.36278763,6.5580347,-12.63994)"
       x1="16.449209"
       y1="-42.637962"
       x2="16.449209"
       y2="-89.851723" />
    <linearGradient
       inkscape:collect="always"
       xlink:href="#StandardGradient"
       id="linearGradient3894"
       gradientUnits="userSpaceOnUse"
       gradientTransform="matrix(0.36278763,0,0,-0.36278763,6.5580347,-13.63994)"
       x1="16.449209"
       y1="-42.637962"
       x2="16.449209"
       y2="-89.851723" />
    <linearGradient
       inkscape:collect="always"
       xlink:href="#StandardGradient"
       id="linearGradient3899"
       gradientUnits="userSpaceOnUse"
       gradientTransform="matrix(0.36278763,0,0,-0.36278763,6.5580347,-12.63994)"
       x1="16.449209"
       y1="-42.637962"
       x2="16.449209"
       y2="-89.851723" />
    <linearGradient
       inkscape:collect="always"
       xlink:href="#StandardGradient"
       id="linearGradient3903"
       gradientUnits="userSpaceOnUse"
       gradientTransform="matrix(0.36278763,0,0,-0.36278763,6.5580347,-13.63994)"
       x1="16.449209"
       y1="-42.637962"
       x2="16.449209"
       y2="-89.851723" />
    <linearGradient
       inkscape:collect="always"
       xlink:href="#StandardGradient"
       id="linearGradient3908"
       gradientUnits="userSpaceOnUse"
       gradientTransform="matrix(0.36278763,0,0,-0.36278763,-23.441965,-13.63994)"
       x1="16.449209"
       y1="-42.637962"
       x2="16.449209"
       y2="-89.851723" />
    <clipPath
       clipPathUnits="userSpaceOnUse"
       id="clipPath3915">
      <path
         style="fill:#ff00ff;fill-opacity:1;stroke:none;display:inline"
         d="m -30,0 0,22 22,0 0,-22 -22,0 z m 4,1.90625 14,0 0,14 -3.8125,-5.09375 c -3.818182,3.818181 -8.90624,6.362051 -6.15625,10.1875 -7.840899,-3.825449 -5.301136,-8.917613 1.0625,-15.28125 L -26,1.90625 z"
         id="path3917"
         inkscape:connector-curvature="0" />
    </clipPath>
    <inkscape:perspective
       id="perspective2874"
       inkscape:persp3d-origin="0.5 : 0.33333333 : 1"
       inkscape:vp_z="1 : 0.5 : 1"
       inkscape:vp_y="0 : 1000 : 0"
       inkscape:vp_x="0 : 0.5 : 1"
       sodipodi:type="inkscape:persp3d" />
    <linearGradient
       y2="-80.566788"
       x2="-6.5612912"
       y1="-43.688423"
       x1="30.317072"
       gradientTransform="matrix(-0.28504742,0,0,-0.28504742,15.15335,-6.2158718)"
       gradientUnits="userSpaceOnUse"
       id="linearGradient2847-2"
       xlink:href="#XMLID_2_-7"
       inkscape:collect="always" />
    <linearGradient
       id="XMLID_2_-7"
       gradientUnits="userSpaceOnUse"
       x1="32.328602"
       y1="-43.420898"
       x2="-1.0462"
       y2="-75.051697"
       gradientTransform="matrix(1,0,0,-1,7.916,-34.9062)">
      <stop
         offset="0"
         style="stop-color:#000000;stop-opacity:1"
         id="stop22-2" />
      <stop
         id="stop3695-2"
         style="stop-color:#4a4a4a;stop-opacity:1"
         offset="0.38107949" />
      <stop
         offset="1"
         style="stop-color:#1d1d1d;stop-opacity:0;"
         id="stop26-5" />
    </linearGradient>
    <linearGradient
       inkscape:collect="always"
       xlink:href="#StandardGradient"
       id="linearGradient3678"
       gradientUnits="userSpaceOnUse"
       gradientTransform="matrix(0.28504742,0,0,-0.28504742,7.0098844,-5.215871)"
       x1="17.506266"
       y1="-42.696442"
       x2="17.506266"
       y2="-81.445648" />
    <linearGradient
       inkscape:collect="always"
       xlink:href="#StandardGradient"
       id="linearGradient3680"
       gradientUnits="userSpaceOnUse"
       gradientTransform="matrix(0.28504742,0,0,-0.28504742,7.0098844,-6.215871)"
       x1="17.506266"
       y1="-42.696442"
       x2="17.506266"
       y2="-81.445648" />
    <linearGradient
       inkscape:collect="always"
       xlink:href="#StandardGradient"
       id="linearGradient3685"
       gradientUnits="userSpaceOnUse"
       gradientTransform="matrix(0.28504742,0,0,-0.28504742,7.0098844,-5.215871)"
       x1="17.506266"
       y1="-42.696442"
       x2="17.506266"
       y2="-81.445648" />
    <linearGradient
       inkscape:collect="always"
       xlink:href="#StandardGradient"
       id="linearGradient3689"
       gradientUnits="userSpaceOnUse"
       gradientTransform="matrix(0.28504742,0,0,-0.28504742,7.0098844,-5.215871)"
       x1="17.506266"
       y1="-42.696442"
       x2="17.506266"
       y2="-84.79258" />
    <linearGradient
       inkscape:collect="always"
       xlink:href="#StandardGradient"
       id="linearGradient3693"
       gradientUnits="userSpaceOnUse"
       gradientTransform="matrix(0.28504742,0,0,-0.28504742,7.0098844,-6.215871)"
       x1="17.506266"
       y1="-42.696442"
       x2="17.506266"
       y2="-84.79258" />
    <linearGradient
       inkscape:collect="always"
       xlink:href="#StandardGradient"
       id="linearGradient3698"
       gradientUnits="userSpaceOnUse"
       gradientTransform="matrix(0.28504742,0,0,-0.28504742,-22.990116,-6.215871)"
       x1="17.506266"
       y1="-42.696442"
       x2="17.506266"
       y2="-84.79258" />
    <clipPath
       clipPathUnits="userSpaceOnUse"
       id="clipPath3705">
      <path
         style="fill:#ff00ff;fill-opacity:1;stroke:none;display:inline"
         d="m -30,0 0,22 22,0 0,-22 -22,0 z m 7.03125,6 9.09375,0.0625 0,9.0625 -2.9375,-2.9375 C -19.92878,13.501356 -21.635945,15.052995 -22,18 c -2,-3 -0.955178,-6.647168 1.96875,-9.0625 L -22.96875,6 z"
         id="path3707"
         inkscape:connector-curvature="0" />
    </clipPath>
    <linearGradient
       inkscape:collect="always"
       xlink:href="#StandardGradient"
       id="linearGradient3717"
       gradientUnits="userSpaceOnUse"
       gradientTransform="matrix(0.34226893,0,0,-0.34226893,6.0497912,-8.7282418)"
       x1="17.506266"
       y1="-42.696442"
       x2="17.506266"
       y2="-84.79258" />
    <linearGradient
       inkscape:collect="always"
       xlink:href="#StandardGradient"
       id="linearGradient3719"
       gradientUnits="userSpaceOnUse"
       gradientTransform="matrix(0.34226893,0,0,-0.34226893,6.0497912,-9.7282418)"
       x1="17.506266"
       y1="-42.696442"
       x2="17.506266"
       y2="-84.79258" />
    <linearGradient
       inkscape:collect="always"
       xlink:href="#StandardGradient"
       id="linearGradient3724"
       gradientUnits="userSpaceOnUse"
       gradientTransform="matrix(0.34226893,0,0,-0.34226893,6.0497912,-8.7282418)"
       x1="17.506266"
       y1="-42.696442"
       x2="17.506266"
       y2="-84.79258" />
    <linearGradient
       inkscape:collect="always"
       xlink:href="#StandardGradient"
       id="linearGradient3728"
       gradientUnits="userSpaceOnUse"
       gradientTransform="matrix(0.34226893,0,0,-0.34226893,6.0497912,-9.7282418)"
       x1="17.506266"
       y1="-42.696442"
       x2="17.506266"
       y2="-84.79258" />
    <linearGradient
       inkscape:collect="always"
       xlink:href="#StandardGradient"
       id="linearGradient3733"
       gradientUnits="userSpaceOnUse"
       gradientTransform="matrix(0.34226893,0,0,-0.34226893,-23.950209,-9.7282418)"
       x1="17.506266"
       y1="-42.696442"
       x2="17.506266"
       y2="-84.79258" />
    <clipPath
       clipPathUnits="userSpaceOnUse"
       id="clipPath3740">
      <path
         style="fill:#ff00ff;fill-opacity:1;stroke:none;display:inline"
         d="m -30,0 0,22 22,0 0,-22 -22,0 z M -23.90625,4.96875 -13,5 l 0,10.875 -3.53125,-3.53125 c -3.741854,1.577603 -5.579694,4.615012 -6.21875,7 -2.401487,-3.602231 -1.167139,-7.974804 2.34375,-10.875 l -3.5,-3.5 z"
         id="path3742"
         inkscape:connector-curvature="0" />
    </clipPath>
    <inkscape:perspective
       id="perspective2876"
       inkscape:persp3d-origin="0.5 : 0.33333333 : 1"
       inkscape:vp_z="1 : 0.5 : 1"
       inkscape:vp_y="0 : 1000 : 0"
       inkscape:vp_x="0 : 0.5 : 1"
       sodipodi:type="inkscape:persp3d" />
    <linearGradient
       y2="45.017357"
       x2="20.758585"
       y1="1"
       x1="20.758585"
       gradientTransform="matrix(0.41860332,0,0,0.41860332,0.95351344,1.3721451)"
       gradientUnits="userSpaceOnUse"
       id="linearGradient4427"
       xlink:href="#StandardGradient-9"
       inkscape:collect="always" />
    <linearGradient
       id="StandardGradient-9">
      <stop
         style="stop-color:#000000;stop-opacity:0.86274511;"
         offset="0"
         id="stop3389-8" />
      <stop
         style="stop-color:#000000;stop-opacity:0.47058824;"
         offset="1"
         id="stop3391-3" />
    </linearGradient>
    <clipPath
       clipPathUnits="userSpaceOnUse"
       id="clipPath4461">
      <path
         style="fill:#ff00ff;fill-opacity:1;stroke:none;display:inline"
         d="m -30,0 0,22 22,0 0,-22 -22,0 z m 9.75,2 2.5,0 c 0.354191,0 0.625,0.2960006 0.625,0.65625 l 0,1.28125 c 0.633321,0.1687424 1.258817,0.3967312 1.8125,0.71875 l 0.90625,-0.875 c 0.254734,-0.2547 0.624543,-0.2816994 0.875,-0.03125 L -11.75,5.53125 c 0.250482,0.250452 0.22348,0.6202678 -0.03125,0.875 l -0.875,0.90625 c 0.322016,0.5536838 0.550009,1.1791804 0.71875,1.8125 l 1.28125,0 C -10.296007,9.125 -10,9.3958086 -10,9.75 l 0,2.5 c 0,0.354193 -0.296007,0.625008 -0.65625,0.625 l -1.28125,0 c -0.168741,0.633322 -0.396734,1.258819 -0.71875,1.8125 l 0.875,0.90625 c 0.2547,0.254732 0.2817,0.624547 0.03125,0.875 L -13.53125,18.25 c -0.250452,0.250463 -0.62027,0.223481 -0.875,-0.03125 l -0.90625,-0.875 c -0.553682,0.322017 -1.179179,0.550008 -1.8125,0.71875 l 0,1.28125 C -17.125,19.703997 -17.395806,20 -17.75,20 l -2.5,0 c -0.354195,0 -0.625,-0.296003 -0.625,-0.65625 l 0,-1.28125 c -0.63332,-0.168742 -1.258817,-0.396733 -1.8125,-0.71875 l -0.90625,0.875 c -0.254733,0.25473 -0.624549,0.281702 -0.875,0.03125 L -26.25,16.46875 c -0.250472,-0.250452 -0.223483,-0.620267 0.03125,-0.875 l 0.875,-0.90625 c -0.322016,-0.553681 -0.550005,-1.179178 -0.71875,-1.8125 l -1.28125,0 C -27.703997,12.875 -28,12.604192 -28,12.25 l 0,-2.5 c 0,-0.3541928 0.295998,-0.625 0.65625,-0.625 l 1.28125,0 c 0.168745,-0.633321 0.39673,-1.2588174 0.71875,-1.8125 l -0.875,-0.90625 C -26.473472,6.1515166 -26.50045,5.781702 -26.25,5.53125 L -24.46875,3.75 c 0.125226,-0.1252174 0.272674,-0.18891 0.4375,-0.1875 0.164826,0.0014 0.310131,0.091387 0.4375,0.21875 l 0.90625,0.875 c 0.553683,-0.3220174 1.17918,-0.550009 1.8125,-0.71875 l 0,-1.28125 C -20.875,2.2960032 -20.604195,2 -20.25,2 z M -19,8.28125 c -1.501948,0 -2.71875,1.2168013 -2.71875,2.71875 0,1.501951 1.216802,2.71875 2.71875,2.71875 1.501948,0 2.71875,-1.216799 2.71875,-2.71875 0,-1.5019487 -1.216799,-2.71875 -2.71875,-2.71875 z"
         id="path4463"
         inkscape:connector-curvature="0" />
    </clipPath>
    <inkscape:perspective
       id="perspective2853"
       inkscape:persp3d-origin="0.5 : 0.33333333 : 1"
       inkscape:vp_z="1 : 0.5 : 1"
       inkscape:vp_y="0 : 1000 : 0"
       inkscape:vp_x="0 : 0.5 : 1"
       sodipodi:type="inkscape:persp3d" />
    <linearGradient
       inkscape:collect="always"
       xlink:href="#StandardGradient-8"
       id="linearGradient2410"
       gradientUnits="userSpaceOnUse"
       gradientTransform="matrix(0.9247229,0,0,1.0872097,-7.0600562,-1.0023578)"
       x1="11.998966"
       y1="1.8417401"
       x2="11.998966"
       y2="20.238579" />
    <linearGradient
       id="StandardGradient-8"
       gradientTransform="scale(0.9219544,1.0846523)"
       x1="11.998966"
       y1="0.92195445"
       x2="11.998966"
       y2="19.387045"
       gradientUnits="userSpaceOnUse">
      <stop
         style="stop-color:#000000;stop-opacity:0.86274511;"
         offset="0"
         id="stop3283" />
      <stop
         style="stop-color:#000000;stop-opacity:0.47058824;"
         offset="1"
         id="stop2651" />
    </linearGradient>
    <linearGradient
       y2="22.077026"
       x2="24.937262"
       y1="5.5208831"
       x1="24.937262"
       gradientTransform="matrix(0.9247229,0,0,1.0872097,-43.060056,-4.0023578)"
       gradientUnits="userSpaceOnUse"
       id="linearGradient2862"
       xlink:href="#linearGradient4036"
       inkscape:collect="always" />
    <linearGradient
       inkscape:collect="always"
       xlink:href="#StandardGradient-8"
       id="linearGradient2994"
       gradientUnits="userSpaceOnUse"
       gradientTransform="matrix(0.9247229,0,0,1.0872097,-13.060056,-3.0023578)"
       x1="11.998966"
       y1="1.8417401"
       x2="11.998966"
       y2="20.238579" />
    <linearGradient
       inkscape:collect="always"
       xlink:href="#StandardGradient-8"
       id="linearGradient2996"
       gradientUnits="userSpaceOnUse"
       gradientTransform="matrix(0.9247229,0,0,1.0872097,-13.060056,-4.0023578)"
       x1="11.998966"
       y1="1.8417401"
       x2="11.998966"
       y2="20.238579" />
    <linearGradient
       inkscape:collect="always"
       xlink:href="#StandardGradient-8"
       id="linearGradient3773"
       gradientUnits="userSpaceOnUse"
       gradientTransform="matrix(0.9247229,0,0,1.0872097,-13.060056,-3.0023578)"
       x1="11.998966"
       y1="1.8417401"
       x2="11.998966"
       y2="20.238579" />
    <linearGradient
       inkscape:collect="always"
       xlink:href="#StandardGradient-8"
       id="linearGradient3777"
       gradientUnits="userSpaceOnUse"
       gradientTransform="matrix(0.9247229,0,0,1.0872097,-13.060056,-4.0023578)"
       x1="11.998966"
       y1="1.8417401"
       x2="11.998966"
       y2="20.238579" />
    <linearGradient
       inkscape:collect="always"
       xlink:href="#StandardGradient-8"
       id="linearGradient3783"
       gradientUnits="userSpaceOnUse"
       gradientTransform="matrix(0.9247229,0,0,1.0872097,-13.060056,-3.0023578)"
       x1="11.998966"
       y1="1.8417401"
       x2="11.998966"
       y2="20.238579" />
    <linearGradient
       inkscape:collect="always"
       xlink:href="#StandardGradient-8"
       id="linearGradient3787"
       gradientUnits="userSpaceOnUse"
       gradientTransform="matrix(0.9247229,0,0,1.0872097,-13.060056,-4.0023578)"
       x1="11.998966"
       y1="1.8417401"
       x2="11.998966"
       y2="20.238579" />
    <linearGradient
       inkscape:collect="always"
       xlink:href="#StandardGradient-8"
       id="linearGradient3792"
       gradientUnits="userSpaceOnUse"
       gradientTransform="matrix(0.9247229,0,0,1.0872097,-43.060056,-4.0023578)"
       x1="11.998966"
       y1="1.8417401"
       x2="11.998966"
       y2="20.238579" />
    <clipPath
       clipPathUnits="userSpaceOnUse"
       id="clipPath3799">
      <path
         style="fill:#ff00ff;fill-opacity:1;stroke:none;display:inline"
         d="m -30,0 0,22 22,0 0,-22 -22,0 z m 8,2.03125 6,0 0,2 -6,0 0,-2 z m 0,3 6,0 0,3 -6,0 0,-3 z m 0,4 6,0 0,3.96875 4,0 -7,7 -7,-7 4,0 0,-3.96875 z"
         id="path3801"
         inkscape:connector-curvature="0" />
    </clipPath>
    <inkscape:perspective
       id="perspective4052"
       inkscape:persp3d-origin="0.5 : 0.33333333 : 1"
       inkscape:vp_z="1 : 0.5 : 1"
       inkscape:vp_y="0 : 1000 : 0"
       inkscape:vp_x="0 : 0.5 : 1"
       sodipodi:type="inkscape:persp3d" />
    <linearGradient
       inkscape:collect="always"
       xlink:href="#linearGradient4036"
       id="linearGradient4042"
       gradientUnits="userSpaceOnUse"
       x1="11.640054"
       y1="4.0775533"
       x2="11.640054"
       y2="17.924156" />
    <linearGradient
       gradientUnits="userSpaceOnUse"
       y2="17.924156"
       x2="11.640054"
       y1="4.0775533"
       x1="11.640054"
       id="linearGradient4036">
      <stop
         id="stop4038"
         offset="0"
         style="stop-color:#282828;stop-opacity:1;" />
      <stop
         id="stop4040"
         offset="1"
         style="stop-color:#787878;stop-opacity:1;" />
    </linearGradient>
    <linearGradient
       gradientTransform="translate(1,3.0000005)"
       y2="17.924156"
       x2="11.640054"
       y1="4.0775533"
       x1="11.640054"
       gradientUnits="userSpaceOnUse"
       id="linearGradient4061"
       xlink:href="#linearGradient4036"
       inkscape:collect="always" />
    <linearGradient
       inkscape:collect="always"
       xlink:href="#linearGradient4036"
       id="linearGradient4650"
       gradientUnits="userSpaceOnUse"
       gradientTransform="matrix(0.9247229,0,0,1.0872097,-13.060056,-4.0023578)"
       x1="24.937262"
       y1="5.5208831"
       x2="24.937262"
       y2="22.077026" />
    <linearGradient
       inkscape:collect="always"
       xlink:href="#linearGradient4036"
       id="linearGradient4654"
       gradientUnits="userSpaceOnUse"
       gradientTransform="matrix(0.9247229,0,0,1.0872097,-13.060056,-4.0023578)"
       x1="24.937262"
       y1="5.5208831"
       x2="24.937262"
       y2="22.077026" />
    <radialGradient
       inkscape:collect="always"
       xlink:href="#linearGradient3949"
       id="radialGradient3972"
       cx="12"
       cy="26.749996"
       fx="12"
       fy="26.749996"
       r="8"
       gradientTransform="matrix(1,0,0,0.49999999,0,4.6250021)"
       gradientUnits="userSpaceOnUse" />
    <linearGradient
       inkscape:collect="always"
       id="linearGradient3949">
      <stop
         style="stop-color:#ffffff;stop-opacity:1;"
         offset="0"
         id="stop3951" />
      <stop
         style="stop-color:#ffffff;stop-opacity:0;"
         offset="1"
         id="stop3953" />
    </linearGradient>
    <linearGradient
       inkscape:collect="always"
       xlink:href="#linearGradient3949"
       id="linearGradient3955"
       x1="4"
       y1="12"
       x2="16"
       y2="12"
       gradientUnits="userSpaceOnUse"
       gradientTransform="matrix(0,1,-1,0,24,-2)" />
    <linearGradient
       inkscape:collect="always"
       xlink:href="#ButtonColor-6"
       id="linearGradient3181"
       x1="-3.0607977"
       y1="27.258198"
       x2="-3.0607977"
       y2="7.2536583"
       gradientUnits="userSpaceOnUse"
       gradientTransform="matrix(0.8,0,0,0.8,12.095498,-3.8065583)" />
    <linearGradient
       id="ButtonColor-6"
       x1="10.31979"
       y1="21"
       x2="10.31979"
       y2="0.99929649"
       gradientUnits="userSpaceOnUse">
      <stop
         style="stop-color:#c8c8c8;stop-opacity:1;"
         offset="0"
         id="stop3189-4" />
      <stop
         style="stop-color:#e6e6e6;stop-opacity:1;"
         offset="1"
         id="stop3191-0" />
    </linearGradient>
    <linearGradient
       inkscape:collect="always"
       xlink:href="#ButtonShadow-2"
       id="linearGradient3934"
       gradientUnits="userSpaceOnUse"
       gradientTransform="matrix(0.9,0,0,0.9,12.107435,-3.5323781)"
       x1="-3.0607977"
       y1="27.258198"
       x2="-3.0607977"
       y2="7.2581978" />
    <linearGradient
       id="ButtonShadow-2"
       gradientTransform="scale(0.9883037,1.0118347)"
       x1="9.3550024"
       y1="21.742682"
       x2="9.3550024"
       y2="0.49362123"
       gradientUnits="userSpaceOnUse">
      <stop
         id="stop3277-2"
         offset="0"
         style="stop-color:#000000;stop-opacity:0.70588237;" />
      <stop
         id="stop3279-4"
         offset="1"
         style="stop-color:#000000;stop-opacity:0.15686275;" />
    </linearGradient>
    <linearGradient
       y2="7.2581978"
       x2="-3.0607977"
       y1="27.258198"
       x1="-3.0607977"
       gradientTransform="matrix(0.9,0,0,0.9,12.107435,-5.5323781)"
       gradientUnits="userSpaceOnUse"
       id="linearGradient3182"
       xlink:href="#ButtonShadow-2"
       inkscape:collect="always" />
    <linearGradient
       inkscape:collect="always"
       xlink:href="#linearGradient4036"
       id="linearGradient3136"
       gradientUnits="userSpaceOnUse"
       gradientTransform="matrix(0.9247229,0,0,1.0872097,-12.060056,-5.0023578)"
       x1="24.937262"
       y1="10.119812"
       x2="24.937262"
       y2="21.157242" />
    <linearGradient
       inkscape:collect="always"
       xlink:href="#linearGradient4036"
       id="linearGradient3920"
       gradientUnits="userSpaceOnUse"
       gradientTransform="matrix(0.9247229,0,0,1.0872097,-12.060056,-4.0023578)"
       x1="24.937262"
       y1="10.119812"
       x2="24.937262"
       y2="21.157242" />
    <linearGradient
       inkscape:collect="always"
       xlink:href="#linearGradient4036"
       id="linearGradient3924"
       gradientUnits="userSpaceOnUse"
       gradientTransform="matrix(0.9247229,0,0,1.0872097,-12.060056,-7.0023578)"
       x1="24.937262"
       y1="10.119812"
       x2="24.937262"
       y2="21.157242" />
  </defs>
  <sodipodi:namedview
     id="base"
     pagecolor="#ffffff"
     bordercolor="#e7e7e7"
     borderopacity="1"
     inkscape:pageopacity="0.0"
     inkscape:pageshadow="2"
     inkscape:zoom="20.069245"
     inkscape:cx="-11.65514"
     inkscape:cy="12.035575"
     inkscape:document-units="px"
     inkscape:current-layer="layer1"
     showgrid="true"
     inkscape:showpageshadow="false"
     showguides="false"
     inkscape:guide-bbox="true"
     inkscape:window-width="1920"
     inkscape:window-height="1030"
     inkscape:window-x="0"
     inkscape:window-y="25"
     inkscape:window-maximized="1"
     inkscape:snap-global="true">
    <sodipodi:guide
       orientation="1,0"
       position="0,112"
       id="guide2383" />
    <sodipodi:guide
       orientation="0,1"
       position="26.278146,128"
       id="guide2385" />
    <sodipodi:guide
       orientation="1,0"
       position="128,54.082119"
       id="guide2387" />
    <sodipodi:guide
       orientation="0,1"
       position="78.156291,0"
       id="guide2389" />
    <sodipodi:guide
       orientation="0,1"
       position="60.863576,64.084768"
       id="guide2391" />
    <inkscape:grid
       type="xygrid"
       id="grid3672"
       visible="true"
       enabled="true"
       empspacing="8"
       snapvisiblegridlinesonly="true" />
  </sodipodi:namedview>
  <metadata
     id="metadata7">
    <rdf:RDF>
      <cc:Work
         rdf:about="">
        <dc:format>image/svg+xml</dc:format>
        <dc:type
           rdf:resource="http://purl.org/dc/dcmitype/StillImage" />
        <dc:title />
      </cc:Work>
    </rdf:RDF>
  </metadata>
  <g
     inkscape:label="Emblem"
     inkscape:groupmode="layer"
     id="layer1"
     style="display:inline"
     transform="translate(0,2)">
    <path
       style="opacity:0.15;fill:#ffffff;fill-opacity:1;stroke:none;display:inline"
       d="m -22.1875,0.96875 a 1.0670372,1.0670372 0 0 0 -0.875,1.0625 l 0,2 a 1.0670372,1.0670372 0 0 0 0.125,0.5 1.0670372,1.0670372 0 0 0 0,0.03125 1.0670372,1.0670372 0 0 0 -0.125,0.46875 l 0,3 a 1.0670372,1.0670372 0 0 0 0.125,0.5 1.0670372,1.0670372 0 0 0 0,0.03125 1.0670372,1.0670372 0 0 0 -0.125,0.46875 l 0,2.90625 -2.9375,0 a 1.0670372,1.0670372 0 0 0 -0.75,1.8125 l 7,7 a 1.0670372,1.0670372 0 0 0 1.5,0 l 7,-7 A 1.0670372,1.0670372 0 0 0 -12,11.9375 l -2.9375,0 0,-2.90625 a 1.0670372,1.0670372 0 0 0 -0.125,-0.5 1.0670372,1.0670372 0 0 0 0,-0.03125 1.0670372,1.0670372 0 0 0 0.125,-0.46875 l 0,-3 a 1.0670372,1.0670372 0 0 0 -0.125,-0.5 1.0670372,1.0670372 0 0 0 0,-0.03125 1.0670372,1.0670372 0 0 0 0.125,-0.46875 l 0,-2 A 1.0670372,1.0670372 0 0 0 -16,0.96875 l -6,0 a 1.0670372,1.0670372 0 0 0 -0.09375,0 1.0670372,1.0670372 0 0 0 -0.09375,0 z m 0.1875,1.0625 6,0 0,2 -6,0 0,-2 z m 0,3 6,0 0,3 -6,0 0,-3 z m 0,4 6,0 0,3.96875 4,0 -7,7 -7,-7 4,0 0,-3.96875 z"
       id="path4652"
       inkscape:connector-curvature="0" />
    <path
       style="fill:url(#linearGradient2862);fill-opacity:1;stroke:none;display:inline"
       d="m -22,2.03125 0,2 6,0 0,-2 -6,0 z m 0,3 0,3 6,0 0,-3 -6,0 z m 0,4 0,3.96875 -4,0 7,7 7,-7 -4,0 0,-3.96875 -6,0 z"
       id="Symbol"
       sodipodi:nodetypes="cccccccccccccccccc"
       inkscape:connector-curvature="0" />
    <path
       style="opacity:0.5;fill:#000000;fill-opacity:1;stroke:none;display:inline"
       d="m -22,2.03125 0,1 6,0 0,-1 -6,0 z m 0,3 0,1 6,0 0,-1 -6,0 z m 0,4 0,1 6,0 0,-1 -6,0 z M -26,13 l 1,1 3,0 0,-1 -4,0 z m 10,0 0,1 3,0 1,-1 -4,0 z"
       id="path2990"
       inkscape:connector-curvature="0" />
    <path
       style="opacity:0.3;fill:#ffffff;fill-opacity:1;stroke:none;display:inline"
       d="m -22,4.03125 0,1 6,0 0,-1 -6,0 z m 0,4 0,1 6,0 0,-1 -6,0 z M -26,14 l 7,7 7,-7 -1,0 -6,6 -6,-6 -1,0 z"
       id="path3781"
       inkscape:connector-curvature="0" />
    <path
       inkscape:connector-curvature="0"
       style="opacity:0.5;fill:url(#linearGradient3182);fill-opacity:1;fill-rule:evenodd;stroke:none;display:inline"
       d="M 5.5,1 C 4.115,1 3,2.115 3,3.5 l 0,13 C 3,17.885 4.115,19 5.5,19 l 13,0 c 1.385,0 2.5,-1.115 2.5,-2.5 l 0,-13 C 21,2.115 19.885,1 18.5,1 l -13,0 z m 0,1 13,0 C 19.331,2 20,2.669 20,3.5 l 0,13 c 0,0.831 -0.669,1.5 -1.5,1.5 l -13,0 C 4.669,18 4,17.331 4,16.5 L 4,3.5 C 4,2.669 4.669,2 5.5,2 z"
       id="rect3918" />
    <rect
       style="opacity:0.75;fill:url(#linearGradient3181);fill-opacity:1;fill-rule:evenodd;stroke:none;display:inline"
       id="rect3173"
       width="16"
       height="16"
       x="4"
       y="2"
       rx="1.5"
       ry="1.5" />
    <path
       inkscape:connector-curvature="0"
       style="opacity:0.2;fill:#000000;fill-opacity:1;fill-rule:evenodd;stroke:none;display:inline"
       d="m 4,16.5 0,1 C 4,18.331 4.669,19 5.5,19 l 13,0 c 0.831,0 1.5,-0.669 1.5,-1.5 l 0,-1 c 0,0.831 -0.669,1.5 -1.5,1.5 l -13,0 C 4.669,18 4,17.331 4,16.5 z"
       id="rect3925" />
    <path
       style="opacity:0.6;fill:url(#linearGradient3955);fill-opacity:1;fill-rule:evenodd;stroke:none;display:inline"
       d="M 20,3.5 C 20,2.669 19.331,2 18.5,2 L 5.5,2 C 4.669,2 4,2.669 4,3.5 l 0,13 C 4,17.331 4.669,18 5.5,18 l 13,0 c 0.831,0 1.5,-0.669 1.5,-1.5 l 0,-13 z m -0.96875,0 0,13 c 0,0.317808 -0.213442,0.53125 -0.53125,0.53125 l -13,0 c -0.317808,0 -0.53125,-0.213442 -0.53125,-0.53125 l 0,-13 C 4.96875,3.1821923 5.182192,2.96875 5.5,2.96875 l 13,0 c 0.317808,0 0.53125,0.2134423 0.53125,0.53125 z"
       id="rect3936"
       inkscape:connector-curvature="0" />
    <path
       inkscape:connector-curvature="0"
       style="opacity:0.35;fill:url(#radialGradient3972);fill-opacity:1;fill-rule:evenodd;stroke:none;display:inline"
       d="m 4,15.5 0,1 C 4,17.331 4.669,18 5.5,18 l 13,0 c 0.831,0 1.5,-0.669 1.5,-1.5 l 0,-1 c 0,0.831 -0.669,1.5 -1.5,1.5 l -13,0 C 4.669,17 4,16.331 4,15.5 z"
       id="rect3957" />
    <path
       style="fill:url(#linearGradient3136);fill-opacity:1;stroke:none;display:inline"
       d="M 9 6.03125 L 9 7.03125 L 15 7.03125 L 15 6.03125 L 9 6.03125 z M 9 8 L 9 9 L 15 9 L 15 8 L 9 8 z M 9 10.03125 L 9 12 L 6 12 L 12 18 L 18 12 L 15 12 L 15 10.03125 L 9 10.03125 z "
       transform="translate(0,-2)"
       id="path3134" />
    <path
       style="fill:#ffffff;fill-opacity:1;stroke:none;display:inline;opacity:0.5"
       d="M 9 7.03125 L 9 8 L 15 8 L 15 7.03125 L 9 7.03125 z M 9 9 L 9 10 L 15 10 L 15 9 L 9 9 z M 6 13 L 12 19 L 18 13 L 17 13 L 12 18 L 7 13 L 6 13 z "
       transform="translate(0,-2)"
       id="path3141" />
    <path
       style="fill:#000000;fill-opacity:1;stroke:none;display:inline;opacity:0.5"
       d="M 9 6.03125 L 9 7.03125 L 15 7.03125 L 15 6.03125 L 9 6.03125 z M 9 8.03125 L 9 9 L 15 9 L 15 8.03125 L 9 8.03125 z M 9 10.03125 L 9 11.03125 L 15 11.03125 L 15 10.03125 L 9 10.03125 z M 6 12 L 7 13 L 9 13 L 9 12 L 6 12 z M 15 12 L 15 13 L 17 13 L 18 12 L 15 12 z "
       transform="translate(0,-2)"
       id="path3143" />
  </g>
</svg>
