<?xml version="1.0" encoding="UTF-8" standalone="no"?>
<!-- Created with Inkscape (http://www.inkscape.org/) -->

<svg
   xmlns:dc="http://purl.org/dc/elements/1.1/"
   xmlns:cc="http://creativecommons.org/ns#"
   xmlns:rdf="http://www.w3.org/1999/02/22-rdf-syntax-ns#"
   xmlns:svg="http://www.w3.org/2000/svg"
   xmlns="http://www.w3.org/2000/svg"
   xmlns:xlink="http://www.w3.org/1999/xlink"
   xmlns:sodipodi="http://sodipodi.sourceforge.net/DTD/sodipodi-0.dtd"
   xmlns:inkscape="http://www.inkscape.org/namespaces/inkscape"
   width="16"
   height="16"
   id="svg2"
   sodipodi:version="0.32"
   inkscape:version="0.48.0 r9654"
   version="1.0"
   sodipodi:docname="system-log-out.svg"
   inkscape:output_extension="org.inkscape.output.svg.inkscape"
   style="display:inline">
  <defs
     id="defs4">
    <inkscape:perspective
       sodipodi:type="inkscape:persp3d"
       inkscape:vp_x="0 : 11 : 1"
       inkscape:vp_y="0 : 1000 : 0"
       inkscape:vp_z="22 : 11 : 1"
       inkscape:persp3d-origin="11 : 7.3333333 : 1"
       id="perspective29" />
    <linearGradient
       id="linearGradient4081">
      <stop
         style="stop-color:#aaaaaa;stop-opacity:1;"
         offset="0"
         id="stop4083" />
      <stop
         style="stop-color:#ebebeb;stop-opacity:1;"
         offset="1"
         id="stop4085" />
    </linearGradient>
    <linearGradient
       inkscape:collect="always"
       xlink:href="#linearGradient4081"
       id="linearGradient3527"
       gradientUnits="userSpaceOnUse"
       gradientTransform="translate(-39,0)"
       x1="6.8391123"
       y1="16.300354"
       x2="6.8391123"
       y2="6.0528178" />
    <linearGradient
       inkscape:collect="always"
       xlink:href="#linearGradient4081"
       id="linearGradient3538"
       gradientUnits="userSpaceOnUse"
       gradientTransform="translate(-39,0)"
       x1="16.5"
       y1="19.542921"
       x2="16.5"
       y2="2.5" />
    <linearGradient
       inkscape:collect="always"
       xlink:href="#linearGradient4081"
       id="linearGradient3540"
       gradientUnits="userSpaceOnUse"
       gradientTransform="translate(-39,0)"
       x1="14.524625"
       y1="17.41902"
       x2="14.524625"
       y2="4.625" />
    <linearGradient
       inkscape:collect="always"
       xlink:href="#linearGradient4081"
       id="linearGradient3542"
       gradientUnits="userSpaceOnUse"
       gradientTransform="translate(-39,0)"
       x1="10.50519"
       y1="15.28125"
       x2="10.50519"
       y2="6.7458849" />
    <linearGradient
       inkscape:collect="always"
       xlink:href="#linearGradient4081"
       id="linearGradient3266"
       x1="9"
       y1="4.5"
       x2="14"
       y2="4.5"
       gradientUnits="userSpaceOnUse"
       gradientTransform="matrix(0,-1,1,0,6,16)" />
    <linearGradient
       inkscape:collect="always"
       xlink:href="#linearGradient4081"
       id="linearGradient3274"
       x1="11.984375"
       y1="20"
       x2="11.984375"
       y2="7.96875"
       gradientUnits="userSpaceOnUse" />
    <linearGradient
       inkscape:collect="always"
       xlink:href="#linearGradient4081"
       id="linearGradient3280"
       gradientUnits="userSpaceOnUse"
       gradientTransform="matrix(0,-1,1,0,7,16)"
       x1="9"
       y1="4.5"
       x2="14"
       y2="4.5" />
    <linearGradient
       inkscape:collect="always"
       xlink:href="#linearGradient4081"
       id="linearGradient3287"
       gradientUnits="userSpaceOnUse"
       gradientTransform="matrix(0,-1,1,0,7,16)"
       x1="9"
       y1="4.5"
       x2="14"
       y2="4.5" />
    <linearGradient
       inkscape:collect="always"
       xlink:href="#linearGradient4081"
       id="linearGradient3293"
       gradientUnits="userSpaceOnUse"
       x1="11.984375"
       y1="20"
       x2="11.984375"
       y2="7.96875"
       gradientTransform="translate(-1,0)" />
    <linearGradient
       inkscape:collect="always"
       xlink:href="#linearGradient4081"
       id="linearGradient3180"
       x1="-13"
       y1="17.008953"
       x2="-13"
       y2="-0.70032859"
       gradientUnits="userSpaceOnUse" />
    <linearGradient
       inkscape:collect="always"
       xlink:href="#linearGradient4081"
       id="linearGradient3196"
       x1="14"
       y1="7.0000005"
       x2="1.9584055"
       y2="7.0000005"
       gradientUnits="userSpaceOnUse"
       gradientTransform="matrix(0,1,-1,0,16.861161,0.9999998)" />
    <linearGradient
       inkscape:collect="always"
       xlink:href="#linearGradient4081"
       id="linearGradient3611"
       gradientUnits="userSpaceOnUse"
       gradientTransform="matrix(0,1,-1,0,19.861161,-1.0000002)"
       x1="14"
       y1="7.0000005"
       x2="1.9584055"
       y2="7.0000005" />
    <linearGradient
       inkscape:collect="always"
       xlink:href="#linearGradient4081"
       id="linearGradient3613"
       gradientUnits="userSpaceOnUse"
       gradientTransform="matrix(0,1,-1,0,19,2.9999999)"
       x1="14"
       y1="7.0000005"
       x2="1.9584055"
       y2="7.0000005" />
    <linearGradient
       inkscape:collect="always"
       xlink:href="#linearGradient4081"
       id="linearGradient4457"
       gradientUnits="userSpaceOnUse"
       gradientTransform="matrix(0,1,-1,0,19,3.9999999)"
       x1="14"
       y1="7.0000005"
       x2="1.9584055"
       y2="7.0000005" />
    <linearGradient
       inkscape:collect="always"
       xlink:href="#linearGradient4081"
       id="linearGradient4461"
       gradientUnits="userSpaceOnUse"
       gradientTransform="matrix(0,1,-1,0,19.861161,-2.0000002)"
       x1="14"
       y1="7.0000005"
       x2="1.9584055"
       y2="7.0000005" />
  </defs>
  <sodipodi:namedview
     id="base"
     pagecolor="#ffffff"
     bordercolor="#e7e7e7"
     borderopacity="1"
     inkscape:pageopacity="0.0"
     inkscape:pageshadow="2"
     inkscape:zoom="18.512812"
     inkscape:cx="-2.373289"
     inkscape:cy="4.9386027"
     inkscape:document-units="px"
     inkscape:current-layer="layer1"
     showgrid="true"
     inkscape:showpageshadow="false"
     showguides="false"
     inkscape:guide-bbox="true"
     inkscape:window-width="1920"
     inkscape:window-height="1029"
     inkscape:window-x="0"
     inkscape:window-y="25"
     inkscape:window-maximized="1">
    <sodipodi:guide
       orientation="1,0"
       position="0,112"
       id="guide2383" />
    <sodipodi:guide
       orientation="0,1"
       position="26.278146,128"
       id="guide2385" />
    <sodipodi:guide
       orientation="1,0"
       position="128,54.082119"
       id="guide2387" />
    <sodipodi:guide
       orientation="0,1"
       position="78.156291,0"
       id="guide2389" />
    <sodipodi:guide
       orientation="0,1"
       position="60.863576,64.084768"
       id="guide2391" />
    <inkscape:grid
       type="xygrid"
       id="grid3672"
       visible="true"
       enabled="true"
       empspacing="8"
       snapvisiblegridlinesonly="true" />
  </sodipodi:namedview>
  <metadata
     id="metadata7">
    <rdf:RDF>
      <cc:Work
         rdf:about="">
        <dc:format>image/svg+xml</dc:format>
        <dc:type
           rdf:resource="http://purl.org/dc/dcmitype/StillImage" />
      </cc:Work>
    </rdf:RDF>
  </metadata>
  <g
     inkscape:label="Icon"
     inkscape:groupmode="layer"
     id="layer1"
     style="display:inline"
     transform="translate(-0.8611607,-0.9999999)">
    <path
       id="path3198"
       d="m 15.861161,8.5000001 c 0,-0.277 -0.223,-0.5 -0.5,-0.5 l -5,0 c -0.277,0 -0.5,0.223 -0.5,0.5 l 0,1 C 9.861161,9.777 10.084161,10 10.361161,10 l 5,0 c 0.277,0 0.5,-0.223 0.5,-0.4999999 l 0,-1 z M 14.517411,6.9999998 C 13.693772,4.6692213 11.472811,2.9999997 8.861161,2.9999997 5.5491607,2.9999997 2.8611607,5.688 2.8611607,9.0000001 2.8611607,12.312 5.5491607,15 8.861161,15 c 2.61165,0 4.832611,-1.669221 5.65625,-4 l -2.21875,0 c -0.692339,1.193787 -1.959054,2 -3.4375,2 -2.2080003,0 -4.0000003,-1.792 -4.0000003,-3.9999999 0,-2.2080002 1.792,-4.0000003 4.0000003,-4.0000003 1.478446,0 2.745161,0.8062133 3.4375,2 l 2.21875,0 z"
       style="opacity:0.25;fill:#000000;fill-opacity:1;fill-rule:nonzero;stroke:#000000;stroke-width:2;stroke-linecap:square;stroke-linejoin:round;stroke-miterlimit:4;stroke-opacity:1;stroke-dasharray:none;stroke-dashoffset:0"
       inkscape:transform-center-x="-0.5"
       inkscape:connector-curvature="0" />
    <path
       style="fill:url(#linearGradient3196);fill-opacity:1;fill-rule:nonzero;stroke:none"
       d="m 15.861161,8.5000001 c 0,-0.277 -0.223,-0.5 -0.5,-0.5 l -5,0 c -0.277,0 -0.5,0.223 -0.5,0.5 l 0,1 C 9.861161,9.777 10.084161,10 10.361161,10 l 5,0 c 0.277,0 0.5,-0.223 0.5,-0.4999999 l 0,-1 z M 14.517411,6.9999998 C 13.693772,4.6692213 11.472811,2.9999997 8.861161,2.9999997 5.5491607,2.9999997 2.8611607,5.688 2.8611607,9.0000001 2.8611607,12.312 5.5491607,15 8.861161,15 c 2.61165,0 4.832611,-1.669221 5.65625,-4 l -2.21875,0 c -0.692339,1.193787 -1.959054,2 -3.4375,2 -2.2080003,0 -4.0000003,-1.792 -4.0000003,-3.9999999 0,-2.2080002 1.792,-4.0000003 4.0000003,-4.0000003 1.478446,0 2.745161,0.8062133 3.4375,2 l 2.21875,0 z"
       id="path2401"
       inkscape:transform-center-x="-0.5"
       inkscape:connector-curvature="0" />
    <path
       style="opacity:0.6;fill:#ffffff;fill-opacity:1;fill-rule:nonzero;stroke:none"
       d="m 8.861161,2.9999999 c -3.3120006,0 -6.0000003,2.6879999 -6.0000003,6 0,0.124406 0.023774,0.252464 0.03125,0.375 0.3074414,-3.0243165 2.8637497,-5.375 5.9687503,-5.375 2.219275,0 4.150126,1.2076461 5.1875,3 l 0.46875,0 c -0.823639,-2.3307785 -3.0446,-4 -5.65625,-4 z m 1.5,5 c -0.277,0 -0.5,0.223 -0.5,0.5 l 0,1 c 0,-0.277 0.223,-0.5 0.5,-0.5 l 5,0 c 0.277,0 0.5,0.223 0.5,0.5 l 0,-1 c 0,-0.277 -0.223,-0.5 -0.5,-0.5 l -0.84375,0 -2.21875,0 -1.9375,0 z m -5.4375003,1.5 c -0.020625,0.16447 -0.0625,0.329968 -0.0625,0.5 C 4.8611607,12.208 6.6531604,14 8.861161,14 c 1.478446,0 2.745161,-0.806213 3.4375,-2 l 1.75,0 c 0.183411,-0.316894 0.345006,-0.649823 0.46875,-1 l -2.21875,0 c -0.692339,1.193787 -1.959054,2 -3.4375,2 C 6.8231925,13 5.1708698,11.4713 4.9236607,9.4999999 z"
       id="path3607"
       inkscape:connector-curvature="0" />
    <path
       style="opacity:0.45;fill:#000000;fill-opacity:1;fill-rule:nonzero;stroke:none"
       d="m 8.861161,4.9999999 c -2.2080006,0 -4.0000003,1.7919998 -4.0000003,4 0,0.170032 0.041875,0.33553 0.0625,0.5 0.2472091,-1.9713004 1.8995318,-3.5 3.9375003,-3.5 1.478446,0 2.745161,0.8062133 3.4375,2 l 2.21875,0 c -0.123744,-0.3501771 -0.285339,-0.6831057 -0.46875,-1 l -1.75,0 c -0.692339,-1.1937867 -1.959054,-2 -3.4375,-2 z m 1,4.5 0,1.0000001 c 0,0.277 0.223,0.5 0.5,0.5 l 1.9375,0 2.21875,0 0.84375,0 c 0.277,0 0.5,-0.223 0.5,-0.5 l 0,-1.0000001 c 0,0.277 -0.223,0.5 -0.5,0.5 l -5,0 c -0.277,0 -0.5,-0.223 -0.5,-0.5 z m -6.9687503,0.125 c -0.00748,0.122536 -0.03125,0.250594 -0.03125,0.375 C 2.8611607,13.312 5.5491604,16 8.861161,16 c 2.61165,0 4.832611,-1.669221 5.65625,-4 l -0.46875,0 c -1.037374,1.792354 -2.968225,3 -5.1875,3 C 5.7561604,15 3.1998521,12.649316 2.8924107,9.6249999 z"
       id="path4455"
       inkscape:connector-curvature="0" />
  </g>
</svg>
