<?xml version="1.0" encoding="UTF-8" standalone="no"?>
<!-- Created with Inkscape (http://www.inkscape.org/) -->

<svg
   xmlns:dc="http://purl.org/dc/elements/1.1/"
   xmlns:cc="http://creativecommons.org/ns#"
   xmlns:rdf="http://www.w3.org/1999/02/22-rdf-syntax-ns#"
   xmlns:svg="http://www.w3.org/2000/svg"
   xmlns="http://www.w3.org/2000/svg"
   xmlns:xlink="http://www.w3.org/1999/xlink"
   xmlns:sodipodi="http://sodipodi.sourceforge.net/DTD/sodipodi-0.dtd"
   xmlns:inkscape="http://www.inkscape.org/namespaces/inkscape"
   width="16"
   height="16"
   id="svg2"
   sodipodi:version="0.32"
   inkscape:version="0.48.0 r9654"
   version="1.0"
   sodipodi:docname="emblem-money.svg"
   inkscape:output_extension="org.inkscape.output.svg.inkscape"
   style="display:inline">
  <defs
     id="defs4">
    <inkscape:perspective
       sodipodi:type="inkscape:persp3d"
       inkscape:vp_x="0 : 8 : 1"
       inkscape:vp_y="0 : 1000 : 0"
       inkscape:vp_z="16 : 8 : 1"
       inkscape:persp3d-origin="8 : 5.3333333 : 1"
       id="perspective35" />
    <linearGradient
       inkscape:collect="always"
       id="linearGradient3327">
      <stop
         style="stop-color:#000000;stop-opacity:1;"
         offset="0"
         id="stop3330" />
      <stop
         style="stop-color:#000000;stop-opacity:0;"
         offset="1"
         id="stop3333" />
    </linearGradient>
    <linearGradient
       id="ButtonColor"
       x1="10.31979"
       y1="21"
       x2="10.31979"
       y2="0.99929649"
       gradientUnits="userSpaceOnUse">
      <stop
         style="stop-color:#29669f;stop-opacity:1;"
         offset="0"
         id="stop3189" />
      <stop
         style="stop-color:#88b6e0;stop-opacity:1;"
         offset="1"
         id="stop3191" />
    </linearGradient>
    <linearGradient
       inkscape:collect="always"
       xlink:href="#linearGradient3700"
       id="linearGradient3204"
       x1="1"
       y1="9"
       x2="15"
       y2="9"
       gradientUnits="userSpaceOnUse"
       gradientTransform="translate(-17,-2)" />
    <linearGradient
       inkscape:collect="always"
       xlink:href="#linearGradient3327"
       id="linearGradient3629"
       x1="0"
       y1="8"
       x2="29.017237"
       y2="8"
       gradientUnits="userSpaceOnUse"
       gradientTransform="matrix(0,-1,1,0,0,16)" />
    <linearGradient
       inkscape:collect="always"
       xlink:href="#SVGID_1_-4"
       id="linearGradient3765"
       gradientUnits="userSpaceOnUse"
       gradientTransform="matrix(0.09341072,0,0,0.04108075,-26.756456,8.0246654)"
       x1="383.28857"
       y1="0"
       x2="383.28857"
       y2="218.48047" />
    <linearGradient
       id="SVGID_1_-4"
       gradientUnits="userSpaceOnUse"
       x1="383.28857"
       y1="0"
       x2="383.28857"
       y2="218.48047">
      <stop
         offset="0.005618"
         style="stop-color:#ED2828"
         id="stop3143-2" />
      <stop
         offset="0.5"
         style="stop-color:#EF3B39"
         id="stop3145-1" />
      <stop
         offset="0.994382"
         style="stop-color:#C02126"
         id="stop3147-3" />
    </linearGradient>
    <linearGradient
       y2="180.6748"
       x2="175.30762"
       y1="73.254395"
       x1="175.30762"
       gradientUnits="userSpaceOnUse"
       id="linearGradient3749-5">
      <stop
         id="stop3751-8"
         style="stop-color:#000000;stop-opacity:1;"
         offset="0" />
      <stop
         id="stop3753-7"
         style="stop-color:#000000;stop-opacity:0.4728682;"
         offset="0.99438202" />
    </linearGradient>
    <linearGradient
       inkscape:collect="always"
       xlink:href="#linearGradient3749-5"
       id="linearGradient3754"
       gradientUnits="userSpaceOnUse"
       gradientTransform="matrix(0.04164302,0,0,0.03408859,1.9444673,0.78644322)"
       x1="175.30762"
       y1="73.254395"
       x2="175.30762"
       y2="180.6748" />
    <linearGradient
       inkscape:collect="always"
       xlink:href="#linearGradient3749-5"
       id="linearGradient3756"
       gradientUnits="userSpaceOnUse"
       gradientTransform="matrix(0.04998763,0,0,0.03408859,2.4795353,0.78644322)"
       x1="175.30762"
       y1="73.254395"
       x2="175.30762"
       y2="180.6748" />
    <linearGradient
       y2="180.6748"
       x2="175.30762"
       y1="73.254395"
       x1="175.30762"
       gradientTransform="matrix(0.04859283,0,0,0.03408859,3.115962,0.78644322)"
       gradientUnits="userSpaceOnUse"
       id="linearGradient3809"
       xlink:href="#linearGradient3749-5"
       inkscape:collect="always" />
    <inkscape:perspective
       id="perspective3729"
       inkscape:persp3d-origin="0.5 : 0.33333333 : 1"
       inkscape:vp_z="1 : 0.5 : 1"
       inkscape:vp_y="0 : 1000 : 0"
       inkscape:vp_x="0 : 0.5 : 1"
       sodipodi:type="inkscape:persp3d" />
    <linearGradient
       inkscape:collect="always"
       xlink:href="#linearGradient3696"
       id="linearGradient4163"
       x1="6"
       y1="48"
       x2="90"
       y2="48"
       gradientUnits="userSpaceOnUse"
       gradientTransform="translate(-96,0)" />
    <linearGradient
       id="linearGradient3696">
      <stop
         id="stop3698"
         offset="0"
         style="stop-color:#2458a6;stop-opacity:1;" />
      <stop
         id="stop3700"
         offset="1"
         style="stop-color:#598ad4;stop-opacity:1;" />
    </linearGradient>
    <linearGradient
       y2="48"
       x2="90"
       y1="48"
       x1="6"
       gradientTransform="translate(-52.867199,-57.252856)"
       gradientUnits="userSpaceOnUse"
       id="linearGradient3738"
       xlink:href="#linearGradient3696"
       inkscape:collect="always" />
    <inkscape:perspective
       id="perspective3703"
       inkscape:persp3d-origin="0.5 : 0.33333333 : 1"
       inkscape:vp_z="1 : 0.5 : 1"
       inkscape:vp_y="0 : 1000 : 0"
       inkscape:vp_x="0 : 0.5 : 1"
       sodipodi:type="inkscape:persp3d" />
    <linearGradient
       gradientTransform="matrix(0.19388162,0,0,0.19388162,-1.4007219,-1.9461429)"
       inkscape:collect="always"
       xlink:href="#linearGradient4099"
       id="linearGradient4113"
       x1="22.111456"
       y1="62.983868"
       x2="40"
       y2="32"
       gradientUnits="userSpaceOnUse" />
    <linearGradient
       id="linearGradient4099">
      <stop
         style="stop-color:#9ede27;stop-opacity:1;"
         offset="0"
         id="stop4101" />
      <stop
         style="stop-color:#c8f16b;stop-opacity:1;"
         offset="1"
         id="stop4103" />
    </linearGradient>
    <linearGradient
       gradientTransform="matrix(0.19388162,0,0,0.19388162,-1.5256152,-1.9461429)"
       inkscape:collect="always"
       xlink:href="#linearGradient4099"
       id="linearGradient4105"
       x1="38"
       y1="74"
       x2="70"
       y2="49"
       gradientUnits="userSpaceOnUse" />
    <linearGradient
       id="linearGradient3712">
      <stop
         style="stop-color:#9ede27;stop-opacity:1;"
         offset="0"
         id="stop3714" />
      <stop
         style="stop-color:#c8f16b;stop-opacity:1;"
         offset="1"
         id="stop3716" />
    </linearGradient>
    <linearGradient
       inkscape:collect="always"
       xlink:href="#linearGradient3799-3"
       id="linearGradient3746"
       gradientUnits="userSpaceOnUse"
       x1="56.037025"
       y1="49.333305"
       x2="56.037025"
       y2="13.593002"
       gradientTransform="matrix(0.26518093,0,0,0.26518093,-0.34872536,-3.7081516)" />
    <linearGradient
       id="linearGradient3799-3">
      <stop
         style="stop-color:#1a1a1a;stop-opacity:1;"
         offset="0"
         id="stop3801-3" />
      <stop
         style="stop-color:#000000;stop-opacity:1;"
         offset="1"
         id="stop3803-2" />
    </linearGradient>
    <linearGradient
       y2="13.593002"
       x2="56.037025"
       y1="49.333305"
       x1="56.037025"
       gradientTransform="matrix(0.19388162,0,0,0.19388162,-1.3401963,-1.8843368)"
       gradientUnits="userSpaceOnUse"
       id="linearGradient3726"
       xlink:href="#linearGradient3799-3"
       inkscape:collect="always" />
    <inkscape:perspective
       id="perspective3736"
       inkscape:persp3d-origin="0.5 : 0.33333333 : 1"
       inkscape:vp_z="1 : 0.5 : 1"
       inkscape:vp_y="0 : 1000 : 0"
       inkscape:vp_x="0 : 0.5 : 1"
       sodipodi:type="inkscape:persp3d" />
    <radialGradient
       inkscape:collect="always"
       xlink:href="#linearGradient3784-2"
       id="radialGradient3758"
       gradientUnits="userSpaceOnUse"
       gradientTransform="matrix(1.0456205,0.08243661,-0.05194947,0.90987799,0.84943041,1.3399685)"
       cx="49.580967"
       cy="67.04126"
       fx="49.580967"
       fy="67.04126"
       r="10" />
    <linearGradient
       id="linearGradient3784-2">
      <stop
         id="stop3786-4"
         offset="0"
         style="stop-color:#a0a0a0;stop-opacity:1;" />
      <stop
         id="stop3790-2"
         offset="1"
         style="stop-color:#1a1a1a;stop-opacity:1;" />
    </linearGradient>
    <radialGradient
       r="10"
       fy="67.04126"
       fx="49.580967"
       cy="67.04126"
       cx="49.580967"
       gradientTransform="matrix(1.0456205,0.08243661,-0.05194947,0.90987799,0.84943041,1.3399685)"
       gradientUnits="userSpaceOnUse"
       id="radialGradient3745"
       xlink:href="#linearGradient3784-2"
       inkscape:collect="always" />
    <radialGradient
       inkscape:collect="always"
       xlink:href="#linearGradient3784-2"
       id="radialGradient3698"
       cx="10.116978"
       cy="6.5340972"
       fx="10.116978"
       fy="6.5340972"
       r="2.6487656"
       gradientTransform="matrix(0.60548597,-0.18291744,0.13322228,0.44098703,0.81853832,7.6996387)"
       gradientUnits="userSpaceOnUse" />
    <linearGradient
       gradientTransform="matrix(0.23809524,0,0,0.23809524,-8.8182334,-5.5171751)"
       y2="109.10714"
       x2="48"
       y1="6"
       x1="48"
       gradientUnits="userSpaceOnUse"
       id="linearGradient3874"
       xlink:href="#linearGradient3737-4"
       inkscape:collect="always" />
    <linearGradient
       id="linearGradient3737-4">
      <stop
         style="stop-color:#fffec0;stop-opacity:1;"
         offset="0"
         id="stop3739-4" />
      <stop
         style="stop-color:#ffffff;stop-opacity:0;"
         offset="1"
         id="stop3741-3" />
    </linearGradient>
    <linearGradient
       inkscape:collect="always"
       xlink:href="#linearGradient3700"
       id="linearGradient3181"
       x1="-3.0607977"
       y1="27.258198"
       x2="-3.0607977"
       y2="7.2536583"
       gradientUnits="userSpaceOnUse"
       gradientTransform="translate(12.119372,-7.2581977)" />
    <linearGradient
       id="linearGradient3700">
      <stop
         style="stop-color:#4c6d37;stop-opacity:1"
         offset="0"
         id="stop3702" />
      <stop
         style="stop-color:#75ac54;stop-opacity:1"
         offset="1"
         id="stop3704" />
    </linearGradient>
    <linearGradient
       y2="7.2536583"
       x2="-3.0607977"
       y1="27.258198"
       x1="-3.0607977"
       gradientTransform="translate(2.72971,-11.346801)"
       gradientUnits="userSpaceOnUse"
       id="linearGradient4103"
       xlink:href="#linearGradient3700"
       inkscape:collect="always" />
    <linearGradient
       inkscape:collect="always"
       xlink:href="#linearGradient3737-4"
       id="linearGradient3954"
       gradientUnits="userSpaceOnUse"
       gradientTransform="matrix(0.19047619,0,0,0.19047619,-1.1428571,-1.1428569)"
       x1="48"
       y1="6"
       x2="48"
       y2="109.10714" />
    <linearGradient
       y2="20"
       x2="13"
       y1="2"
       x1="13"
       gradientTransform="matrix(0.8046262,0,0,0.77777775,3.1778595,1.4444462)"
       gradientUnits="userSpaceOnUse"
       id="linearGradient3075"
       xlink:href="#linearGradient4088"
       inkscape:collect="always" />
    <linearGradient
       id="linearGradient4088">
      <stop
         id="stop4090"
         offset="0"
         style="stop-color:#d5b742;stop-opacity:1;" />
      <stop
         style="stop-color:#f5e6aa;stop-opacity:1;"
         offset="0.34920636"
         id="stop4094" />
      <stop
         id="stop4096"
         offset="0.5714286"
         style="stop-color:#e0bf55;stop-opacity:1;" />
      <stop
         id="stop4092"
         offset="1"
         style="stop-color:#8a6e24;stop-opacity:1;" />
    </linearGradient>
    <linearGradient
       y2="20"
       x2="13"
       y1="2"
       x1="13"
       gradientTransform="matrix(0.8046262,0,0,0.77777775,-0.8221405,-0.5555538)"
       gradientUnits="userSpaceOnUse"
       id="linearGradient4122"
       xlink:href="#linearGradient4088"
       inkscape:collect="always" />
    <linearGradient
       inkscape:collect="always"
       xlink:href="#linearGradient4088"
       id="linearGradient3989"
       gradientUnits="userSpaceOnUse"
       gradientTransform="matrix(0.8046262,0,0,0.77777775,-0.8221405,-0.06170607)"
       x1="13"
       y1="2"
       x2="13"
       y2="20" />
    <linearGradient
       inkscape:collect="always"
       xlink:href="#linearGradient4088"
       id="linearGradient3991"
       gradientUnits="userSpaceOnUse"
       gradientTransform="matrix(0.8046262,0,0,0.77777775,-0.8221405,-0.5555538)"
       x1="13"
       y1="2"
       x2="13"
       y2="20" />
    <linearGradient
       inkscape:collect="always"
       xlink:href="#linearGradient4088"
       id="linearGradient3998"
       gradientUnits="userSpaceOnUse"
       gradientTransform="matrix(0.8046262,0,0,0.77777775,-0.8221405,-1.0494015)"
       x1="13"
       y1="2"
       x2="13"
       y2="20" />
    <linearGradient
       inkscape:collect="always"
       xlink:href="#linearGradient4088"
       id="linearGradient4000"
       gradientUnits="userSpaceOnUse"
       gradientTransform="matrix(0.8046262,0,0,0.77777775,-0.8221405,-0.5555538)"
       x1="13"
       y1="2"
       x2="13"
       y2="20" />
  </defs>
  <sodipodi:namedview
     id="base"
     pagecolor="#ffffff"
     bordercolor="#e7e7e7"
     borderopacity="1"
     inkscape:pageopacity="0.0"
     inkscape:pageshadow="2"
     inkscape:zoom="28.348819"
     inkscape:cx="-3.433575"
     inkscape:cy="9.5563131"
     inkscape:document-units="px"
     inkscape:current-layer="layer1"
     showgrid="true"
     inkscape:showpageshadow="false"
     showguides="false"
     inkscape:guide-bbox="true"
     inkscape:window-width="1920"
     inkscape:window-height="1026"
     inkscape:window-x="0"
     inkscape:window-y="25"
     inkscape:window-maximized="1"
     inkscape:snap-global="false">
    <sodipodi:guide
       orientation="1,0"
       position="0,112"
       id="guide2383" />
    <sodipodi:guide
       orientation="0,1"
       position="26.278146,128"
       id="guide2385" />
    <sodipodi:guide
       orientation="1,0"
       position="128,54.082119"
       id="guide2387" />
    <sodipodi:guide
       orientation="0,1"
       position="78.156291,0"
       id="guide2389" />
    <sodipodi:guide
       orientation="0,1"
       position="60.863576,64.084768"
       id="guide2391" />
    <inkscape:grid
       type="xygrid"
       id="grid3672"
       visible="true"
       enabled="true" />
  </sodipodi:namedview>
  <metadata
     id="metadata7">
    <rdf:RDF>
      <cc:Work
         rdf:about="">
        <dc:format>image/svg+xml</dc:format>
        <dc:type
           rdf:resource="http://purl.org/dc/dcmitype/StillImage" />
        <dc:title></dc:title>
      </cc:Work>
    </rdf:RDF>
  </metadata>
  <g
     inkscape:label="Button"
     inkscape:groupmode="layer"
     id="layer1">
    <rect
       ry="2"
       rx="2"
       y="0"
       x="-16"
       height="16"
       width="16"
       id="rect3196"
       style="fill:url(#linearGradient3204);fill-opacity:1.0;fill-rule:nonzero;stroke:none"
       transform="matrix(0,-1,1,0,0,0)" />
    <path
       style="opacity:0.3;fill:url(#linearGradient3954);fill-opacity:1;stroke:none;display:inline"
       d="M 2.8333334,2.4e-7 7.744048,7.7440478 0,2.761905 0,6.2857146 7.6607144,8.0000002 0,9.6666666 0,13.166666 7.744048,8.2559522 2.7619048,16 6.2857143,16 8,8.3392858 9.6666664,16 13.166666,16 8.255952,8.2559522 16,13.238095 16,9.7142858 8.3392856,8.0000002 16,6.3333336 l 0,-3.5 L 8.255952,7.7440478 13.238095,2.4e-7 9.7142856,2.4e-7 8,7.6607146 6.3333334,2.4e-7 l -3.5,0 z"
       id="path4141"
       inkscape:connector-curvature="0" />
    <path
       style="opacity:0.4;fill:url(#linearGradient3629);fill-opacity:1;fill-rule:nonzero;stroke:none"
       d="m 0,14 c 0,1.108 0.892,2 2,2 l 12,0 c 1.108,0 2,-0.892 2,-2 L 16,2 C 16,0.892 15.108,0 14,0 L 2,0 C 0.892,0 0,0.892 0,2 l 0,12 z m 0.96875,0 0,-12 C 0.96875,1.416801 1.4168007,0.96875 2,0.96875 l 12,0 c 0.583199,0 1.03125,0.448051 1.03125,1.03125 l 0,12 c 0,0.583199 -0.448051,1.03125 -1.03125,1.03125 l -12,0 C 1.4168007,15.03125 0.96875,14.583199 0.96875,14 z"
       id="rect2835" />
    <path
       sodipodi:type="inkscape:offset"
       inkscape:radius="0.5302971"
       inkscape:original="M 7 1.5 L 7 3.0625 C 6.188361 3.1999895 5.5229462 3.5392737 5 4.0625 C 4.4151166 4.656622 4.1249992 5.378003 4.125 6.25 C 4.1249992 7.313661 4.5765554 8.143807 5.46875 8.71875 C 5.7958851 8.939152 6.60912 9.280463 7.9375 9.75 C 8.829688 10.066225 9.281244 10.422124 9.28125 10.84375 C 9.281244 11.131227 9.152565 11.36835 8.875 11.53125 C 8.637076 11.684571 8.348469 11.750002 8.03125 11.75 C 7.664455 11.750002 7.341577 11.66998 7.09375 11.46875 C 6.845915 11.26752 6.72866 11.001222 6.71875 10.65625 L 4.03125 10.625 C 4.060989 11.573667 4.3511064 12.35297 4.90625 12.9375 C 5.4236408 13.473352 6.120947 13.801179 7 13.9375 L 7 15.5 L 7.1875 15.5 L 8.875 15.5 L 9 15.5 L 9 13.90625 C 9.88865 13.741516 10.586917 13.382122 11.125 12.84375 C 11.719787 12.240055 12.031241 11.504087 12.03125 10.59375 C 12.031241 9.568429 11.589598 8.740786 10.6875 8.15625 C 10.320702 7.907111 9.474707 7.563297 8.15625 7.09375 C 7.25414 6.75837 6.781247 6.395391 6.78125 6.03125 C 6.781247 5.743783 6.908415 5.516243 7.15625 5.34375 C 7.374338 5.180856 7.640098 5.093758 7.9375 5.09375 C 8.314199 5.093758 8.625653 5.229196 8.84375 5.46875 C 9.061836 5.698737 9.156244 5.979623 9.15625 6.34375 L 11.78125 6.34375 C 11.761889 4.510431 10.842344 3.4258413 9 3.0625 L 9 1.5 L 7 1.5 z "
       style="font-size:14.61969756999999959px;font-style:normal;font-variant:normal;font-weight:normal;font-stretch:normal;text-align:start;line-height:100%;writing-mode:lr-tb;text-anchor:start;opacity:0.15;fill:#000000;fill-opacity:1;stroke:none;display:inline;font-family:Biohazard Participants;-inkscape-font-specification:Biohazard Participants"
       id="path3983"
       d="M 6.90625,0.96875 A 0.53035013,0.53035013 0 0 0 6.46875,1.5 l 0,1.1875 C 5.7608413,2.8828089 5.1197645,3.1924704 4.625,3.6875 3.9510679,4.3720773 3.5937491,5.2603812 3.59375,6.25 3.5937491,7.463746 4.1684162,8.4995378 5.1875,9.15625 5.6419874,9.4624535 6.4096062,9.7762165 7.75,10.25 c 0.4136021,0.146596 0.7271733,0.286885 0.875,0.40625 0.1478267,0.119365 0.1249997,0.165999 0.125,0.1875 -2.7e-6,0.129237 -0.010723,0.133342 -0.15625,0.21875 a 0.53035013,0.53035013 0 0 0 0,0.03125 c -0.1315336,0.08476 -0.318204,0.125002 -0.5625,0.125 -0.289665,2e-6 -0.4674892,-0.05373 -0.59375,-0.15625 C 7.3038536,10.953986 7.2566872,10.889036 7.25,10.65625 A 0.53035013,0.53035013 0 0 0 6.71875,10.125 L 4.03125,10.09375 A 0.53035013,0.53035013 0 0 0 3.5,10.65625 c 0.032838,1.047533 0.3775624,1.96796 1.03125,2.65625 0.5070953,0.525189 1.1737978,0.843106 1.9375,1.03125 l 0,1.15625 A 0.53035013,0.53035013 0 0 0 7,16.03125 l 0.1875,0 1.6875,0 0.125,0 A 0.53035013,0.53035013 0 0 0 9.53125,15.5 l 0,-1.21875 c 0.76944,-0.213806 1.453272,-0.546745 1.96875,-1.0625 0.681057,-0.691257 1.06249,-1.593712 1.0625,-2.625 C 12.56249,9.4312402 12.002468,8.4166816 11,7.75 l 0,-0.03125 c -0.0049,-0.00334 -0.02627,0.00333 -0.03125,0 -0.377968,-0.2529809 -1.1641449,-0.565359 -2,-0.875 A 0.53035013,0.53035013 0 0 0 9.15625,6.875 l 2.625,0 A 0.53035013,0.53035013 0 0 0 12.3125,6.34375 C 12.301895,5.3395485 12.024857,4.4685415 11.46875,3.8125 11.001553,3.2613462 10.322332,2.91207 9.53125,2.6875 l 0,-1.1875 A 0.53035013,0.53035013 0 0 0 9,0.96875 l -2,0 a 0.53035013,0.53035013 0 0 0 -0.09375,0 z M 7.9375,5.625 c 0.2495969,5.3e-6 0.3841123,0.060211 0.5,0.1875 a 0.53035013,0.53035013 0 0 0 0.03125,0.03125 c 0.1223262,0.1290016 0.1562455,0.2275294 0.15625,0.5 A 0.53035013,0.53035013 0 0 0 8.90625,6.8125 C 8.6705764,6.7257308 8.6214731,6.6926566 8.34375,6.59375 7.9228972,6.4372884 7.6309166,6.2813466 7.46875,6.15625 7.3065834,6.0311534 7.3125004,5.9837616 7.3125,6.03125 7.3124986,5.9001791 7.330574,5.8774204 7.46875,5.78125 7.593965,5.6877246 7.7436257,5.6250052 7.9375,5.625 z" />
    <path
       id="path3977"
       d="M 7,1.5 7,3.0625 C 6.188361,3.1999895 5.5229462,3.5392737 5,4.0625 4.4151166,4.656622 4.1249992,5.378003 4.125,6.25 c -8e-7,1.063661 0.4515554,1.893807 1.34375,2.46875 0.3271351,0.220402 1.14037,0.561713 2.46875,1.03125 0.892188,0.316225 1.343744,0.672124 1.34375,1.09375 -6e-6,0.287477 -0.128685,0.5246 -0.40625,0.6875 -0.237924,0.153321 -0.526531,0.218752 -0.84375,0.21875 -0.366795,2e-6 -0.689673,-0.08002 -0.9375,-0.28125 -0.247835,-0.20123 -0.36509,-0.467528 -0.375,-0.8125 L 4.03125,10.625 c 0.029739,0.948667 0.3198564,1.72797 0.875,2.3125 0.5173908,0.535852 1.214697,0.863679 2.09375,1 l 0,1.5625 0.1875,0 1.6875,0 0.125,0 0,-1.59375 c 0.88865,-0.164734 1.586917,-0.524128 2.125,-1.0625 0.594787,-0.603695 0.906241,-1.339663 0.90625,-2.25 -9e-6,-1.025321 -0.441652,-1.852964 -1.34375,-2.4375 C 10.320702,7.907111 9.474707,7.563297 8.15625,7.09375 7.25414,6.75837 6.781247,6.395391 6.78125,6.03125 c -3e-6,-0.287467 0.127165,-0.515007 0.375,-0.6875 0.218088,-0.162894 0.483848,-0.249992 0.78125,-0.25 0.376699,8e-6 0.688153,0.135446 0.90625,0.375 0.218086,0.229987 0.312494,0.510873 0.3125,0.875 l 2.625,0 C 11.761889,4.510431 10.842344,3.4258413 9,3.0625 L 9,1.5 7,1.5 z"
       style="font-size:14.61969756999999959px;font-style:normal;font-variant:normal;font-weight:normal;font-stretch:normal;text-align:start;line-height:100%;writing-mode:lr-tb;text-anchor:start;fill:#000000;fill-opacity:1;stroke:none;display:inline;font-family:Biohazard Participants;-inkscape-font-specification:Biohazard Participants;opacity:0.3"
       inkscape:connector-curvature="0" />
    <path
       inkscape:connector-curvature="0"
       style="font-size:14.61969757px;font-style:normal;font-variant:normal;font-weight:normal;font-stretch:normal;text-align:start;line-height:100%;writing-mode:lr-tb;text-anchor:start;fill:url(#linearGradient4122);fill-opacity:1;stroke:none;display:inline;font-family:Biohazard Participants;-inkscape-font-specification:Biohazard Participants"
       d="M 7,1 7,2.5625 C 6.188361,2.6999895 5.5229462,3.0392737 5,3.5625 4.4151166,4.156622 4.1249992,4.878003 4.125,5.75 c -8e-7,1.063661 0.4515554,1.893807 1.34375,2.46875 0.3271351,0.220402 1.14037,0.561713 2.46875,1.03125 0.892188,0.316225 1.343744,0.672124 1.34375,1.09375 -6e-6,0.287477 -0.128685,0.5246 -0.40625,0.6875 -0.237924,0.153321 -0.526531,0.218752 -0.84375,0.21875 -0.366795,2e-6 -0.689673,-0.08002 -0.9375,-0.28125 -0.247835,-0.20123 -0.36509,-0.467528 -0.375,-0.8125 L 4.03125,10.125 c 0.029739,0.948667 0.3198564,1.72797 0.875,2.3125 0.5173908,0.535852 1.214697,0.863679 2.09375,1 L 7,15 7.1875,15 8.875,15 9,15 9,13.40625 c 0.88865,-0.164734 1.586917,-0.524128 2.125,-1.0625 0.594787,-0.603695 0.906241,-1.339663 0.90625,-2.25 -9e-6,-1.025321 -0.441652,-1.852964 -1.34375,-2.4375 C 10.320702,7.407111 9.474707,7.063297 8.15625,6.59375 7.25414,6.25837 6.781247,5.895391 6.78125,5.53125 c -3e-6,-0.287467 0.127165,-0.515007 0.375,-0.6875 0.218088,-0.162894 0.483848,-0.249992 0.78125,-0.25 0.376699,8e-6 0.688153,0.135446 0.90625,0.375 0.218086,0.229987 0.312494,0.510873 0.3125,0.875 l 2.625,0 C 11.761889,4.010431 10.842344,2.9258413 9,2.5625 L 9,1 7,1 z"
       id="text2928" />
    <path
       style="fill:#ffffff;fill-opacity:1;fill-rule:nonzero;stroke:none;opacity:0.25"
       d="M 2 0.96875 C 1.4168007 0.96875 0.96875 1.4168007 0.96875 2 L 0.96875 3 C 0.96875 2.4168007 1.4168007 1.96875 2 1.96875 L 14 1.96875 C 14.583199 1.96875 15.03125 2.4168007 15.03125 3 L 15.03125 2 C 15.03125 1.4168007 14.583199 0.96875 14 0.96875 L 2 0.96875 z "
       id="path2843" />
    <path
       style="font-size:14.61969756999999959px;font-style:normal;font-variant:normal;font-weight:normal;font-stretch:normal;text-align:start;line-height:100%;writing-mode:lr-tb;text-anchor:start;fill:#ffffff;fill-opacity:1;stroke:none;display:inline;font-family:Biohazard Participants;-inkscape-font-specification:Biohazard Participants;opacity:0.5"
       d="M 7 1 L 7 1.5 L 9 1.5 L 9 1 L 7 1 z M 7 2.5625 C 6.188361 2.6999895 5.5229462 3.0392737 5 3.5625 C 4.4151166 4.156622 4.1249992 4.878003 4.125 5.75 C 4.1249999 5.8277291 4.1514315 5.8935234 4.15625 5.96875 C 4.2142902 5.2248027 4.4809884 4.5897097 5 4.0625 C 5.5229462 3.5392737 6.188361 3.1999895 7 3.0625 L 7 2.5625 z M 9 2.5625 L 9 3.0625 C 10.66639 3.3911402 11.545528 4.3146534 11.71875 5.84375 L 11.78125 5.84375 C 11.761889 4.010431 10.842344 2.9258413 9 2.5625 z M 6.84375 5.71875 C 6.8083273 5.809953 6.7812489 5.9234499 6.78125 6.03125 C 6.781247 6.395391 7.25414 6.75837 8.15625 7.09375 C 9.474707 7.563297 10.320702 7.907111 10.6875 8.15625 C 11.523675 8.6980699 11.940069 9.451611 12 10.375 C 12.007138 10.281281 12.031249 10.191432 12.03125 10.09375 C 12.031241 9.068429 11.589598 8.240786 10.6875 7.65625 C 10.320702 7.407111 9.474707 7.063297 8.15625 6.59375 C 7.4044917 6.3142667 6.9740964 6.0212661 6.84375 5.71875 z M 4.03125 10.125 C 4.0366432 10.297043 4.039952 10.464249 4.0625 10.625 L 6.71875 10.65625 C 6.72866 11.001222 6.845915 11.26752 7.09375 11.46875 C 7.341577 11.66998 7.664455 11.750002 8.03125 11.75 C 8.348469 11.750002 8.637076 11.684571 8.875 11.53125 C 9.152565 11.36835 9.281244 11.131227 9.28125 10.84375 C 9.281249 10.770256 9.2461336 10.694638 9.21875 10.625 C 9.1583041 10.785927 9.0544601 10.925927 8.875 11.03125 C 8.637076 11.184571 8.348469 11.250002 8.03125 11.25 C 7.664455 11.250002 7.341577 11.16998 7.09375 10.96875 C 6.845915 10.76752 6.72866 10.501222 6.71875 10.15625 L 4.03125 10.125 z "
       id="path3985" />
    <path
       style="font-size:14.61969756999999959px;font-style:normal;font-variant:normal;font-weight:normal;font-stretch:normal;text-align:start;line-height:100%;writing-mode:lr-tb;text-anchor:start;fill:#554400;fill-opacity:1;stroke:none;display:inline;font-family:Biohazard Participants;-inkscape-font-specification:Biohazard Participants;opacity:0.5"
       d="M 7.9375 4.09375 C 7.640098 4.093758 7.374338 4.180856 7.15625 4.34375 C 6.908415 4.516243 6.781247 4.743783 6.78125 5.03125 C 6.7812495 5.0919402 6.8176807 5.1582468 6.84375 5.21875 C 6.9039946 5.0734963 7.0066944 4.9478406 7.15625 4.84375 C 7.374338 4.680856 7.640098 4.593758 7.9375 4.59375 C 8.314199 4.593758 8.625653 4.729196 8.84375 4.96875 C 9.061836 5.198737 9.156244 5.479623 9.15625 5.84375 L 11.78125 5.84375 C 11.779401 5.6686577 11.737041 5.5052074 11.71875 5.34375 L 9.15625 5.34375 C 9.156244 4.979623 9.061836 4.698737 8.84375 4.46875 C 8.625653 4.229196 8.314199 4.093758 7.9375 4.09375 z M 4.15625 5.46875 C 4.1488837 5.5631701 4.1249999 5.6517924 4.125 5.75 C 4.1249992 6.813661 4.5765554 7.643807 5.46875 8.21875 C 5.7958851 8.439152 6.60912 8.780463 7.9375 9.25 C 8.694632 9.5183561 9.1029437 9.8148283 9.21875 10.15625 C 9.2560075 10.063867 9.2812478 9.9515538 9.28125 9.84375 C 9.281244 9.422124 8.829688 9.066225 7.9375 8.75 C 6.60912 8.280463 5.7958851 7.939152 5.46875 7.71875 C 4.6417542 7.1858221 4.2173692 6.4229395 4.15625 5.46875 z M 12 9.875 C 11.940615 10.654682 11.655964 11.304834 11.125 11.84375 C 10.586917 12.382122 9.88865 12.741516 9 12.90625 L 9 13.40625 C 9.88865 13.241516 10.586917 12.882122 11.125 12.34375 C 11.719787 11.740055 12.031241 11.004087 12.03125 10.09375 C 12.031249 10.015612 12.005139 9.9508216 12 9.875 z M 4.03125 10.125 C 4.060989 11.073667 4.3511064 11.85297 4.90625 12.4375 C 5.4236408 12.973352 6.120947 13.301179 7 13.4375 L 7 12.9375 C 6.120947 12.801179 5.4236408 12.473352 4.90625 11.9375 C 4.4517831 11.458976 4.1642844 10.850651 4.0625 10.125 L 4.03125 10.125 z M 7 14.5 L 7 15 L 7.1875 15 L 8.875 15 L 9 15 L 9 14.5 L 8.875 14.5 L 7.1875 14.5 L 7 14.5 z "
       id="path3994" />
  </g>
</svg>
