<?xml version="1.0" encoding="UTF-8" standalone="no"?>
<!-- Created with Inkscape (http://www.inkscape.org/) -->

<svg
   xmlns:dc="http://purl.org/dc/elements/1.1/"
   xmlns:cc="http://creativecommons.org/ns#"
   xmlns:rdf="http://www.w3.org/1999/02/22-rdf-syntax-ns#"
   xmlns:svg="http://www.w3.org/2000/svg"
   xmlns="http://www.w3.org/2000/svg"
   xmlns:xlink="http://www.w3.org/1999/xlink"
   xmlns:sodipodi="http://sodipodi.sourceforge.net/DTD/sodipodi-0.dtd"
   xmlns:inkscape="http://www.inkscape.org/namespaces/inkscape"
   width="16"
   height="16"
   id="svg2"
   sodipodi:version="0.32"
   inkscape:version="0.48.1 r9760"
   version="1.0"
   sodipodi:docname="emblem-important.svg"
   inkscape:output_extension="org.inkscape.output.svg.inkscape"
   style="display:inline">
  <defs
     id="defs4">
    <linearGradient
       id="linearGradient3655">
      <stop
         style="stop-color:#ad0707;stop-opacity:1;"
         offset="0"
         id="stop3657" />
      <stop
         style="stop-color:#f75535;stop-opacity:1;"
         offset="1"
         id="stop3659" />
    </linearGradient>
    <inkscape:perspective
       sodipodi:type="inkscape:persp3d"
       inkscape:vp_x="0 : 8 : 1"
       inkscape:vp_y="0 : 1000 : 0"
       inkscape:vp_z="16 : 8 : 1"
       inkscape:persp3d-origin="8 : 5.3333333 : 1"
       id="perspective26" />
    <linearGradient
       inkscape:collect="always"
       id="linearGradient3327">
      <stop
         style="stop-color:#000000;stop-opacity:1;"
         offset="0"
         id="stop3330" />
      <stop
         style="stop-color:#000000;stop-opacity:0;"
         offset="1"
         id="stop3333" />
    </linearGradient>
    <linearGradient
       id="ButtonColor"
       x1="10.31979"
       y1="21"
       x2="10.31979"
       y2="0.99929649"
       gradientUnits="userSpaceOnUse">
      <stop
         style="stop-color:#29669f;stop-opacity:1;"
         offset="0"
         id="stop3189" />
      <stop
         style="stop-color:#88b6e0;stop-opacity:1;"
         offset="1"
         id="stop3191" />
    </linearGradient>
    <linearGradient
       inkscape:collect="always"
       xlink:href="#linearGradient3327"
       id="linearGradient3192"
       x1="9.0574636"
       y1="10.202822"
       x2="9.0574636"
       y2="-12.198761"
       gradientUnits="userSpaceOnUse"
       gradientTransform="translate(-20.499722,5.3006549)" />
    <linearGradient
       inkscape:collect="always"
       xlink:href="#ButtonColor-7"
       id="linearGradient3204"
       x1="1"
       y1="9"
       x2="15"
       y2="9"
       gradientUnits="userSpaceOnUse"
       gradientTransform="translate(-16,-1)" />
    <linearGradient
       inkscape:collect="always"
       xlink:href="#ButtonColor"
       id="linearGradient3173"
       gradientUnits="userSpaceOnUse"
       gradientTransform="translate(-16,-1)"
       x1="1"
       y1="9"
       x2="15"
       y2="9" />
    <linearGradient
       inkscape:collect="always"
       xlink:href="#ButtonColor"
       id="linearGradient3177"
       gradientUnits="userSpaceOnUse"
       gradientTransform="translate(-16,-1)"
       x1="1"
       y1="9"
       x2="15"
       y2="9" />
    <linearGradient
       inkscape:collect="always"
       xlink:href="#ButtonColor"
       id="linearGradient3179"
       gradientUnits="userSpaceOnUse"
       gradientTransform="matrix(0,-1,1,0,-1,16)"
       x1="1"
       y1="9"
       x2="15"
       y2="9" />
    <linearGradient
       inkscape:collect="always"
       xlink:href="#linearGradient3327"
       id="linearGradient3612"
       x1="8"
       y1="15"
       x2="8"
       y2="-1"
       gradientUnits="userSpaceOnUse" />
    <inkscape:perspective
       id="perspective3841"
       inkscape:persp3d-origin="0.5 : 0.33333333 : 1"
       inkscape:vp_z="1 : 0.5 : 1"
       inkscape:vp_y="0 : 1000 : 0"
       inkscape:vp_x="0 : 0.5 : 1"
       sodipodi:type="inkscape:persp3d" />
    <linearGradient
       gradientTransform="translate(-3,-5)"
       inkscape:collect="always"
       xlink:href="#linearGradient2908"
       id="linearGradient3851"
       gradientUnits="userSpaceOnUse"
       x1="11"
       y1="15"
       x2="11"
       y2="4.377924" />
    <linearGradient
       id="linearGradient2908">
      <stop
         id="stop2910"
         style="stop-color:#1e1e1e;stop-opacity:1"
         offset="0" />
      <stop
         id="stop2912"
         style="stop-color:#1e1e1e;stop-opacity:0"
         offset="1" />
    </linearGradient>
    <linearGradient
       inkscape:collect="always"
       xlink:href="#ButtonColor-7"
       id="linearGradient3849"
       gradientUnits="userSpaceOnUse"
       gradientTransform="translate(11.119372,-6.2581977)"
       x1="-3.0607977"
       y1="27.258198"
       x2="-3.0607977"
       y2="7.2536583" />
    <linearGradient
       id="ButtonColor-7"
       x1="10.31979"
       y1="21"
       x2="10.31979"
       y2="0.99929649"
       gradientUnits="userSpaceOnUse">
      <stop
         style="stop-color:#dcdcdc;stop-opacity:1;"
         offset="0"
         id="stop3189-8" />
      <stop
         style="stop-color:#f0f0f0;stop-opacity:1;"
         offset="1"
         id="stop3191-6" />
    </linearGradient>
    <linearGradient
       y2="7.2536583"
       x2="-3.0607977"
       y1="27.258198"
       x1="-3.0607977"
       gradientTransform="translate(-18.880628,-12.258198)"
       gradientUnits="userSpaceOnUse"
       id="linearGradient3855"
       xlink:href="#ButtonColor-7"
       inkscape:collect="always" />
    <linearGradient
       inkscape:collect="always"
       xlink:href="#linearGradient2908"
       id="linearGradient3639"
       gradientUnits="userSpaceOnUse"
       gradientTransform="translate(-3,-5)"
       x1="11"
       y1="15"
       x2="11"
       y2="4.377924" />
    <linearGradient
       inkscape:collect="always"
       xlink:href="#linearGradient2908"
       id="linearGradient3644"
       gradientUnits="userSpaceOnUse"
       gradientTransform="matrix(1,0,0,-1,-3,21.125)"
       x1="11"
       y1="15"
       x2="11"
       y2="4.377924" />
    <linearGradient
       inkscape:collect="always"
       xlink:href="#linearGradient2908"
       id="linearGradient3651"
       gradientUnits="userSpaceOnUse"
       gradientTransform="matrix(1,0,0,-1,-3,21.125)"
       x1="11"
       y1="15"
       x2="11"
       y2="4.377924" />
    <linearGradient
       inkscape:collect="always"
       xlink:href="#linearGradient2908"
       id="linearGradient3654"
       gradientUnits="userSpaceOnUse"
       gradientTransform="matrix(1,0,0,-1,-3,21.125)"
       x1="11"
       y1="13.125"
       x2="11"
       y2="7.125" />
    <linearGradient
       inkscape:collect="always"
       xlink:href="#linearGradient2908"
       id="linearGradient3656"
       gradientUnits="userSpaceOnUse"
       gradientTransform="translate(-3,-5)"
       x1="11"
       y1="15"
       x2="11"
       y2="8" />
    <inkscape:perspective
       id="perspective3865"
       inkscape:persp3d-origin="0.5 : 0.33333333 : 1"
       inkscape:vp_z="1 : 0.5 : 1"
       inkscape:vp_y="0 : 1000 : 0"
       inkscape:vp_x="0 : 0.5 : 1"
       sodipodi:type="inkscape:persp3d" />
    <linearGradient
       inkscape:collect="always"
       xlink:href="#linearGradient3290"
       id="linearGradient4025"
       gradientUnits="userSpaceOnUse"
       gradientTransform="matrix(0.73405777,0,0,0.75715713,7.925054,5.0466551)"
       x1="10.351493"
       y1="2.5798409"
       x2="10.351493"
       y2="18.417696" />
    <linearGradient
       id="linearGradient3290">
      <stop
         id="stop3292"
         offset="0"
         style="stop-color:#a50000;stop-opacity:1;" />
      <stop
         id="stop3294"
         offset="1"
         style="stop-color:#e73800;stop-opacity:1;" />
    </linearGradient>
    <linearGradient
       inkscape:collect="always"
       xlink:href="#linearGradient3203"
       id="linearGradient4035"
       gradientUnits="userSpaceOnUse"
       gradientTransform="matrix(0.73405777,0,0,0.75715713,7.925054,7.0466551)"
       x1="10.351493"
       y1="2.5798409"
       x2="10.351493"
       y2="18.417696" />
    <linearGradient
       id="linearGradient3203">
      <stop
         id="stop3205"
         offset="0"
         style="stop-color:#ff4a00;stop-opacity:1;" />
      <stop
         style="stop-color:#ff7e00;stop-opacity:1;"
         offset="0.27244934"
         id="stop3211" />
      <stop
         id="stop3213"
         offset="0.62384999"
         style="stop-color:#ffd200;stop-opacity:1;" />
      <stop
         id="stop3207"
         offset="1"
         style="stop-color:#fff3b9;stop-opacity:1;" />
    </linearGradient>
    <linearGradient
       y2="18.417696"
       x2="10.351493"
       y1="2.5798409"
       x1="10.351493"
       gradientTransform="matrix(0.73405777,0,0,0.75715713,7.9250538,-0.9533449)"
       gradientUnits="userSpaceOnUse"
       id="linearGradient3883"
       xlink:href="#linearGradient3290"
       inkscape:collect="always" />
    <linearGradient
       inkscape:collect="always"
       xlink:href="#linearGradient3290"
       id="linearGradient3699"
       gradientUnits="userSpaceOnUse"
       gradientTransform="matrix(0.73405777,0,0,0.75715713,7.9250538,-0.9533449)"
       x1="10.351493"
       y1="2.5798409"
       x2="10.351493"
       y2="18.417696" />
    <linearGradient
       inkscape:collect="always"
       xlink:href="#linearGradient3203"
       id="linearGradient3701"
       gradientUnits="userSpaceOnUse"
       gradientTransform="matrix(0.73405777,0,0,0.75715713,7.925054,7.0466551)"
       x1="10.351493"
       y1="2.5798409"
       x2="10.351493"
       y2="18.417696" />
    <linearGradient
       inkscape:collect="always"
       xlink:href="#linearGradient3290"
       id="linearGradient3715"
       gradientUnits="userSpaceOnUse"
       gradientTransform="matrix(0.73405777,0,0,0.75715713,7.9250538,-0.9533449)"
       x1="10.351493"
       y1="2.5798409"
       x2="10.351493"
       y2="18.417696" />
    <linearGradient
       inkscape:collect="always"
       xlink:href="#linearGradient3203"
       id="linearGradient3717"
       gradientUnits="userSpaceOnUse"
       gradientTransform="matrix(0.73405777,0,0,0.75715713,7.925054,7.0466551)"
       x1="10.351493"
       y1="2.5798409"
       x2="10.351493"
       y2="18.417696" />
    <linearGradient
       inkscape:collect="always"
       xlink:href="#linearGradient3290"
       id="linearGradient3721"
       gradientUnits="userSpaceOnUse"
       gradientTransform="matrix(0.56707051,0,0,0.58491511,5.7705895,2.4910121)"
       x1="10.351493"
       y1="2.5798409"
       x2="10.351493"
       y2="18.417696" />
    <linearGradient
       inkscape:collect="always"
       xlink:href="#linearGradient3203"
       id="linearGradient3723"
       gradientUnits="userSpaceOnUse"
       gradientTransform="matrix(0.73405777,0,0,0.75715713,7.925054,7.0466551)"
       x1="10.351493"
       y1="2.5798409"
       x2="10.351493"
       y2="18.417696" />
    <inkscape:perspective
       id="perspective3893"
       inkscape:persp3d-origin="0.5 : 0.33333333 : 1"
       inkscape:vp_z="1 : 0.5 : 1"
       inkscape:vp_y="0 : 1000 : 0"
       inkscape:vp_x="0 : 0.5 : 1"
       sodipodi:type="inkscape:persp3d" />
    <radialGradient
       inkscape:collect="always"
       xlink:href="#linearGradient4069"
       id="radialGradient4075"
       cx="15.941758"
       cy="14.472868"
       fx="15.941758"
       fy="14.472868"
       r="10"
       gradientUnits="userSpaceOnUse"
       gradientTransform="matrix(1.3254292,-4.7273854e-8,4.4754296e-8,1.2547877,-5.187914,-3.9064552)" />
    <linearGradient
       id="linearGradient4069">
      <stop
         style="stop-color:#ff2400;stop-opacity:1;"
         offset="0"
         id="stop4071" />
      <stop
         style="stop-color:#ff4700;stop-opacity:0;"
         offset="1"
         id="stop4073" />
    </linearGradient>
    <radialGradient
       r="10"
       fy="14.472868"
       fx="15.941758"
       cy="14.472868"
       cx="15.941758"
       gradientTransform="matrix(1.3254292,-4.7273854e-8,4.4754296e-8,1.2547877,-35.187914,-9.9064552)"
       gradientUnits="userSpaceOnUse"
       id="radialGradient3902"
       xlink:href="#linearGradient4069"
       inkscape:collect="always" />
    <radialGradient
       inkscape:collect="always"
       xlink:href="#linearGradient4069"
       id="radialGradient3757"
       cx="-10.959364"
       cy="11.931095"
       fx="-10.959364"
       fy="11.931095"
       r="7"
       gradientUnits="userSpaceOnUse"
       gradientTransform="matrix(1.4227803,3.8818413e-8,-3.9186555e-8,1.4362735,3.6334034,-6.2052205)" />
    <linearGradient
       inkscape:collect="always"
       xlink:href="#ButtonColor-7"
       id="linearGradient3759"
       gradientUnits="userSpaceOnUse"
       gradientTransform="translate(-17,-2)"
       x1="1"
       y1="9"
       x2="15"
       y2="9" />
    <linearGradient
       inkscape:collect="always"
       xlink:href="#linearGradient3327"
       id="linearGradient3763"
       gradientUnits="userSpaceOnUse"
       gradientTransform="translate(-19.499722,6.3006549)"
       x1="9.0574636"
       y1="10.202822"
       x2="9.0574636"
       y2="-12.198761" />
    <linearGradient
       inkscape:collect="always"
       xlink:href="#linearGradient3327"
       id="linearGradient3766"
       gradientUnits="userSpaceOnUse"
       gradientTransform="translate(-0.499722,5.300655)"
       x1="9.0574636"
       y1="10.202822"
       x2="9.0574636"
       y2="-12.198761" />
    <linearGradient
       inkscape:collect="always"
       xlink:href="#linearGradient3655"
       id="linearGradient3661"
       x1="13"
       y1="12"
       x2="13"
       y2="4"
       gradientUnits="userSpaceOnUse"
       gradientTransform="translate(-5,-2)" />
    <linearGradient
       inkscape:collect="always"
       xlink:href="#linearGradient3655"
       id="linearGradient3665"
       gradientUnits="userSpaceOnUse"
       x1="13"
       y1="12"
       x2="13"
       y2="9"
       gradientTransform="translate(-5,2)" />
    <linearGradient
       inkscape:collect="always"
       xlink:href="#linearGradient3655"
       id="linearGradient2891"
       gradientUnits="userSpaceOnUse"
       gradientTransform="translate(-5,-2)"
       x1="13"
       y1="12"
       x2="13"
       y2="4" />
    <linearGradient
       inkscape:collect="always"
       xlink:href="#linearGradient3655"
       id="linearGradient2894"
       gradientUnits="userSpaceOnUse"
       gradientTransform="translate(-5,-2)"
       x1="13"
       y1="12"
       x2="13"
       y2="4" />
    <linearGradient
       inkscape:collect="always"
       xlink:href="#linearGradient3655"
       id="linearGradient3676"
       gradientUnits="userSpaceOnUse"
       gradientTransform="translate(-5,-2)"
       x1="13"
       y1="12"
       x2="13"
       y2="4" />
    <linearGradient
       inkscape:collect="always"
       xlink:href="#linearGradient3655"
       id="linearGradient3681"
       gradientUnits="userSpaceOnUse"
       gradientTransform="translate(-5,-1)"
       x1="13"
       y1="12"
       x2="13"
       y2="4" />
    <linearGradient
       inkscape:collect="always"
       xlink:href="#linearGradient3655"
       id="linearGradient3683"
       gradientUnits="userSpaceOnUse"
       gradientTransform="translate(-5,-2)"
       x1="13"
       y1="12"
       x2="13"
       y2="4" />
    <linearGradient
       inkscape:collect="always"
       xlink:href="#linearGradient3655"
       id="linearGradient2896"
       gradientUnits="userSpaceOnUse"
       gradientTransform="translate(15,-2)"
       x1="13"
       y1="12"
       x2="13"
       y2="4" />
    <linearGradient
       inkscape:collect="always"
       xlink:href="#linearGradient3655"
       id="linearGradient2898"
       gradientUnits="userSpaceOnUse"
       gradientTransform="translate(15,2)"
       x1="13"
       y1="12"
       x2="13"
       y2="9" />
    <linearGradient
       inkscape:collect="always"
       xlink:href="#linearGradient3655"
       id="linearGradient3673"
       gradientUnits="userSpaceOnUse"
       gradientTransform="translate(-35,-2)"
       x1="13"
       y1="3"
       x2="13"
       y2="17.035669" />
    <linearGradient
       inkscape:collect="always"
       xlink:href="#linearGradient3655"
       id="linearGradient3679"
       gradientUnits="userSpaceOnUse"
       gradientTransform="translate(-5,-1)"
       x1="13"
       y1="3"
       x2="13"
       y2="17.035669" />
    <linearGradient
       inkscape:collect="always"
       xlink:href="#linearGradient3655"
       id="linearGradient3682"
       gradientUnits="userSpaceOnUse"
       gradientTransform="translate(-5,-2)"
       x1="13"
       y1="3"
       x2="13"
       y2="17.035669" />
    <linearGradient
       inkscape:collect="always"
       xlink:href="#linearGradient3655"
       id="linearGradient3687"
       gradientUnits="userSpaceOnUse"
       gradientTransform="translate(-5,-1)"
       x1="13"
       y1="3"
       x2="13"
       y2="17.035669" />
    <linearGradient
       inkscape:collect="always"
       xlink:href="#linearGradient3655"
       id="linearGradient3691"
       gradientUnits="userSpaceOnUse"
       gradientTransform="translate(-5,-2)"
       x1="13"
       y1="3"
       x2="13"
       y2="17.035669" />
    <linearGradient
       inkscape:collect="always"
       xlink:href="#linearGradient3655"
       id="linearGradient3698"
       gradientUnits="userSpaceOnUse"
       gradientTransform="translate(-25,-2)"
       x1="13"
       y1="3"
       x2="13"
       y2="17.035669" />
    <clipPath
       clipPathUnits="userSpaceOnUse"
       id="clipPath3705">
      <path
         style="color:#000000;fill:#ff00ff;fill-opacity:1;fill-rule:nonzero;stroke:none;stroke-width:1;marker:none;visibility:visible;display:inline;overflow:visible;enable-background:accumulate"
         d="m -20,0 0,16 16,0 0,-16 -16,0 z m 7,1 2,0 c 0.554,0 1,0.446 1,1 l 0,7 c 0,0.554 -0.446,1 -1,1 l -2,0 c -0.554,0 -1,-0.446 -1,-1 l 0,-7 c 0,-0.554 0.446,-1 1,-1 z m 0,10 2,0 c 0.554,0 1,0.446 1,1 l 0,2 c 0,0.554 -0.446,1 -1,1 l -2,0 c -0.554,0 -1,-0.446 -1,-1 l 0,-2 c 0,-0.554 0.446,-1 1,-1 z"
         id="path3707" />
    </clipPath>
    <linearGradient
       inkscape:collect="always"
       xlink:href="#linearGradient3655"
       id="linearGradient5075"
       gradientUnits="userSpaceOnUse"
       gradientTransform="translate(-5,-2)"
       x1="13"
       y1="3"
       x2="13"
       y2="17.035669" />
    <linearGradient
       inkscape:collect="always"
       xlink:href="#linearGradient3655"
       id="linearGradient5079"
       gradientUnits="userSpaceOnUse"
       gradientTransform="translate(-5,-2)"
       x1="13"
       y1="3"
       x2="13"
       y2="17.035669" />
    <linearGradient
       inkscape:collect="always"
       xlink:href="#ButtonColor-0"
       id="linearGradient3204-5"
       x1="1"
       y1="9"
       x2="15"
       y2="9"
       gradientUnits="userSpaceOnUse"
       gradientTransform="translate(-17,-2)" />
    <linearGradient
       id="ButtonColor-0"
       x1="10.31979"
       y1="21"
       x2="10.31979"
       y2="0.99929649"
       gradientUnits="userSpaceOnUse">
      <stop
         style="stop-color:#c8c8c8;stop-opacity:1;"
         offset="0"
         id="stop3189-4" />
      <stop
         style="stop-color:#e6e6e6;stop-opacity:1;"
         offset="1"
         id="stop3191-8" />
    </linearGradient>
    <linearGradient
       inkscape:collect="always"
       xlink:href="#linearGradient3327-7"
       id="linearGradient3629"
       x1="0"
       y1="8"
       x2="29.017237"
       y2="8"
       gradientUnits="userSpaceOnUse"
       gradientTransform="matrix(0,-1,1,0,0,16)" />
    <linearGradient
       inkscape:collect="always"
       id="linearGradient3327-7">
      <stop
         style="stop-color:#000000;stop-opacity:1;"
         offset="0"
         id="stop3330-1" />
      <stop
         style="stop-color:#000000;stop-opacity:0;"
         offset="1"
         id="stop3333-7" />
    </linearGradient>
    <linearGradient
       y2="9"
       x2="15"
       y1="9"
       x1="1"
       gradientTransform="translate(-17,-2)"
       gradientUnits="userSpaceOnUse"
       id="linearGradient3117"
       xlink:href="#ButtonColor-0"
       inkscape:collect="always" />
    <linearGradient
       inkscape:collect="always"
       xlink:href="#linearGradient3655"
       id="linearGradient3106"
       gradientUnits="userSpaceOnUse"
       gradientTransform="translate(-5,-3)"
       x1="13"
       y1="5"
       x2="13"
       y2="17.035669" />
  </defs>
  <sodipodi:namedview
     id="base"
     pagecolor="#ffffff"
     bordercolor="#e7e7e7"
     borderopacity="1"
     inkscape:pageopacity="0.0"
     inkscape:pageshadow="2"
     inkscape:zoom="24.579705"
     inkscape:cx="-7.531591"
     inkscape:cy="12.591342"
     inkscape:document-units="px"
     inkscape:current-layer="layer2"
     showgrid="true"
     inkscape:showpageshadow="false"
     showguides="false"
     inkscape:guide-bbox="true"
     inkscape:window-width="1920"
     inkscape:window-height="1030"
     inkscape:window-x="0"
     inkscape:window-y="25"
     inkscape:window-maximized="1"
     inkscape:snap-global="true">
    <sodipodi:guide
       orientation="1,0"
       position="0,112"
       id="guide2383" />
    <sodipodi:guide
       orientation="0,1"
       position="26.278146,128"
       id="guide2385" />
    <sodipodi:guide
       orientation="1,0"
       position="128,54.082119"
       id="guide2387" />
    <sodipodi:guide
       orientation="0,1"
       position="78.156291,0"
       id="guide2389" />
    <sodipodi:guide
       orientation="0,1"
       position="60.863576,64.084768"
       id="guide2391" />
    <inkscape:grid
       type="xygrid"
       id="grid3672"
       visible="true"
       enabled="true" />
  </sodipodi:namedview>
  <metadata
     id="metadata7">
    <rdf:RDF>
      <cc:Work
         rdf:about="">
        <dc:format>image/svg+xml</dc:format>
        <dc:type
           rdf:resource="http://purl.org/dc/dcmitype/StillImage" />
      </cc:Work>
    </rdf:RDF>
  </metadata>
  <g
     inkscape:label="Button"
     inkscape:groupmode="layer"
     id="layer1" />
  <g
     inkscape:groupmode="layer"
     id="layer2"
     inkscape:label="Symbol">
    <path
       style="opacity:0.15;fill:#ffffff;fill-opacity:1;stroke:none"
       d="m -23,0.03125 c -1.082123,0 -1.96875,0.88662698 -1.96875,1.96875 l 0,7 c 0,0.6260558 0.317247,1.134343 0.78125,1.5 -0.464003,0.365657 -0.78125,0.873944 -0.78125,1.5 l 0,2 c 0,1.082123 0.886627,1.96875 1.96875,1.96875 l 2,0 c 1.082123,0 1.96875,-0.886627 1.96875,-1.96875 l 0,-2 c 0,-0.626056 -0.317247,-1.134343 -0.78125,-1.5 0.464003,-0.365657 0.78125,-0.8739442 0.78125,-1.5 l 0,-7 c 0,-1.08212302 -0.886627,-1.96875 -1.96875,-1.96875 l -2,0 z M -23,1 l 2,0 c 0.554,0 1,0.446 1,1 l 0,7 c 0,0.554 -0.446,1 -1,1 l -2,0 c -0.554,0 -1,-0.446 -1,-1 l 0,-7 c 0,-0.554 0.446,-1 1,-1 z m 0,10 2,0 c 0.554,0 1,0.446 1,1 l 0,2 c 0,0.554 -0.446,1 -1,1 l -2,0 c -0.554,0 -1,-0.446 -1,-1 l 0,-2 c 0,-0.554 0.446,-1 1,-1 z"
       id="path5077"
       inkscape:connector-curvature="0" />
    <path
       style="fill:url(#linearGradient3673);fill-opacity:1;stroke:none"
       d="m -23,1 c -0.554,0 -1,0.446 -1,1 l 0,7 c 0,0.554 0.446,1 1,1 l 2,0 c 0.554,0 1,-0.446 1,-1 l 0,-7 c 0,-0.554 -0.446,-1 -1,-1 l -2,0 z m 0,10 c -0.554,0 -1,0.446 -1,1 l 0,2 c 0,0.554 0.446,1 1,1 l 2,0 c 0.554,0 1,-0.446 1,-1 l 0,-2 c 0,-0.554 -0.446,-1 -1,-1 l -2,0 z"
       id="rect2880"
       inkscape:connector-curvature="0" />
    <path
       d="M 7,0.03125 C 5.9244691,0.03125 5.03125,0.92446906 5.03125,2 l 0,7 c 0,0.6482684 0.3808,1.13901 0.875,1.5 -0.4942,0.36099 -0.875,0.851732 -0.875,1.5 l 0,2 c 0,1.075531 0.8932191,1.96875 1.96875,1.96875 l 2,0 c 1.075531,0 1.96875,-0.893219 1.96875,-1.96875 l 0,-2 c 0,-0.648268 -0.3808,-1.13901 -0.875,-1.5 0.4942,-0.36099 0.875,-0.8517316 0.875,-1.5 l 0,-7 C 10.96875,0.92446906 10.075531,0.03125 9,0.03125 l -2,0 z"
       id="path2888"
       style="opacity:0.1;fill:#000000;fill-opacity:1;stroke:none"
       inkscape:original="M 7 1 C 6.446 1 6 1.446 6 2 L 6 9 C 6 9.554 6.446 10 7 10 L 9 10 C 9.554 10 10 9.554 10 9 L 10 2 C 10 1.446 9.554 1 9 1 L 7 1 z M 7 11 C 6.446 11 6 11.446 6 12 L 6 14 C 6 14.554 6.446 15 7 15 L 9 15 C 9.554 15 10 14.554 10 14 L 10 12 C 10 11.446 9.554 11 9 11 L 7 11 z "
       inkscape:radius="0.97173142"
       sodipodi:type="inkscape:offset"
       transform="translate(20,0)" />
    <rect
       ry="1"
       rx="1"
       y="1"
       x="26"
       height="8.9999981"
       width="4"
       id="rect2890"
       style="fill:url(#linearGradient2896);fill-opacity:1;stroke:none" />
    <rect
       style="fill:url(#linearGradient2898);fill-opacity:1;stroke:none"
       id="rect2892"
       width="3.9999981"
       height="3.9999998"
       x="26"
       y="11"
       rx="1"
       ry="1" />
    <path
       id="path2894"
       d="m 27,1 c -0.554,0 -1,0.446 -1,1 l 0,1 c 0,-0.554 0.446,-1 1,-1 l 2,0 c 0.554,0 1,0.446 1,1 L 30,2 C 30,1.446 29.554,1 29,1 l -2,0 z m 0,10 c -0.554,0 -1,0.446 -1,1 l 0,1 c 0,-0.554 0.446,-1 1,-1 l 2,0 c 0.554,0 1,0.446 1,1 l 0,-1 c 0,-0.554 -0.446,-1 -1,-1 l -2,0 z"
       style="opacity:0.2;fill:#ffffff;fill-opacity:1;stroke:none" />
    <path
       style="opacity:0.5;fill:#550000;fill-opacity:1;stroke:none"
       d="m -23,1 c -0.554,0 -1,0.446 -1,1 l 0,1 c 0,-0.554 0.446,-1 1,-1 l 2,0 c 0.554,0 1,0.446 1,1 l 0,-1 c 0,-0.554 -0.446,-1 -1,-1 l -2,0 z m 0,10 c -0.554,0 -1,0.446 -1,1 l 0,1 c 0,-0.554 0.446,-1 1,-1 l 2,0 c 0.554,0 1,0.446 1,1 l 0,-1 c 0,-0.554 -0.446,-1 -1,-1 l -2,0 z"
       id="path3675"
       inkscape:connector-curvature="0" />
    <path
       style="opacity:0.3;fill:#ffffff;fill-opacity:1;stroke:none"
       d="m -24,9 0,1 c 0,0.554 0.446,1 1,1 l 2,0 c 0.554,0 1,-0.446 1,-1 l 0,-1 c 0,0.554 -0.446,1 -1,1 l -2,0 c -0.554,0 -1,-0.446 -1,-1 z m 0,5 0,1 c 0,0.554 0.446,1 1,1 l 2,0 c 0.554,0 1,-0.446 1,-1 l 0,-1 c 0,0.554 -0.446,1 -1,1 l -2,0 c -0.554,0 -1,-0.446 -1,-1 z"
       id="path3685"
       inkscape:connector-curvature="0" />
    <rect
       ry="2"
       rx="2"
       y="0"
       x="-16"
       height="16"
       width="16"
       id="rect3196"
       style="opacity:0.75;fill:url(#linearGradient3117);fill-opacity:1;fill-rule:nonzero;stroke:none;display:inline"
       transform="matrix(0,-1,1,0,0,0)" />
    <path
       inkscape:connector-curvature="0"
       style="opacity:0.4;fill:url(#linearGradient3629);fill-opacity:1;fill-rule:nonzero;stroke:none;display:inline"
       d="m 0,14 c 0,1.108 0.892,2 2,2 l 12,0 c 1.108,0 2,-0.892 2,-2 L 16,2 C 16,0.892 15.108,0 14,0 L 2,0 C 0.892,0 0,0.892 0,2 l 0,12 z m 0.96875,0 0,-12 C 0.96875,1.416801 1.4168007,0.96875 2,0.96875 l 12,0 c 0.583199,0 1.03125,0.448051 1.03125,1.03125 l 0,12 c 0,0.583199 -0.448051,1.03125 -1.03125,1.03125 l -12,0 C 1.4168007,15.03125 0.96875,14.583199 0.96875,14 z"
       id="rect2835" />
    <path
       inkscape:connector-curvature="0"
       style="opacity:0.6;fill:#ffffff;fill-opacity:1;fill-rule:nonzero;stroke:none;display:inline"
       d="M 2,0.96875 C 1.4168007,0.96875 0.96875,1.4168007 0.96875,2 l 0,1 C 0.96875,2.4168007 1.4168007,1.96875 2,1.96875 l 12,0 c 0.583199,0 1.03125,0.4480507 1.03125,1.03125 l 0,-1 C 15.03125,1.4168007 14.583199,0.96875 14,0.96875 l -12,0 z"
       id="path2843" />
    <path
       inkscape:connector-curvature="0"
       id="path3104"
       d="M 7,2 C 6.446,2 6,2.446 6,3 l 0,6 c 0,0.554 0.446,1 1,1 l 2,0 c 0.554,0 1,-0.446 1,-1 L 10,3 C 10,2.446 9.554,2 9,2 z m 0,9 c -0.554,0 -1,0.446 -1,1 l 0,1 c 0,0.554 0.446,1 1,1 l 2,0 c 0.554,0 1,-0.446 1,-1 l 0,-1 C 10,11.446 9.554,11 9,11 z"
       style="fill:url(#linearGradient3106);fill-opacity:1;stroke:none"
       sodipodi:nodetypes="ssssssssssssssssss" />
    <path
       inkscape:connector-curvature="0"
       id="path3108"
       d="M 7,2 C 6.446,2 6,3 6,3 L 6,4 C 6,3.446 6.446,3 7,3 l 2,0 c 0.554,0 1,0.446 1,1 L 10,3 C 10,3 9.554,2 9,2 z m 0,9 c -0.554,0 -1,0.446 -1,1 l 0,1 c 0,-0.554 0.446,-1 1,-1 l 2,0 c 0.554,0 1,0.446 1,1 l 0,-1 C 10,11.446 9.554,11 9,11 z"
       style="opacity:0.5;fill:#550000;fill-opacity:1;stroke:none"
       sodipodi:nodetypes="sscsscssssscsscsss" />
    <path
       inkscape:connector-curvature="0"
       id="path3110"
       d="m 6,9 0,1 c 0,0.554 0.446,1 1,1 l 2,0 c 0.554,0 1,-0.446 1,-1 l 0,-1 c 0,0.554 -0.446,1 -1,1 L 7,10 C 6.446,10 6,9.554 6,9 z m 0,4 0,1 c 0,0 0.446,1 1,1 l 2,0 c 0.554,0 1,-1 1,-1 l 0,-1 c 0,0.554 -0.446,1 -1,1 L 7,14 C 6.446,14 6,13.554 6,13 z"
       style="opacity:0.3;fill:#ffffff;fill-opacity:1;stroke:none"
       sodipodi:nodetypes="csssscssccsssscssc" />
  </g>
</svg>
