<svg height="16" width="16" xmlns="http://www.w3.org/2000/svg"><title>Gnome Symbolic Icon Theme</title><g fill="#bebebe"><path d="M5 5v2h6V5H5zm0 3v2h4l.25-.125L11 8.125V8H5zm0 3.063V13h3v-1.937H5z"/><path d="M5.47 0c-.492 0-.798.228-1.033.47C4.202.71 4 1.026 4 1.5V2H2v14h8v-2H4V4h2V2h4v2h2v3h2V2h-2V1.563c-.024-.43-.17-.72-.406-1A1.53 1.53 0 0 0 10.437.03V0H5.47z" style="text-indent:0;text-align:start;line-height:normal;text-transform:none;block-progression:tb;-inkscape-font-specification:Sans" font-weight="400" color="#bebebe" overflow="visible" font-family="Sans"/><path d="M12.72 7.97c-.18.048-.343.146-.47.28l-3 2.97a1.08 1.08 0 0 0-.28.936v.813h3.124l-.844 1.25c-.152.148-.245.352-.28.56v1.189h1c.263.003.527-.13.717-.314l3-3a.94.94 0 0 0 .282-.687.87.87 0 0 0 0-.126v-.875h-.939c-.02-.002-.04-.002-.06 0h-2.126l.844-1.314a.98.98 0 0 0 .28-.53V7.97h-1.25z" style="text-indent:0;text-align:start;line-height:normal;text-transform:none;block-progression:tb;-inkscape-font-specification:Bitstream Vera Sans" font-size="xx-small" font-weight="400" color="#bebebe" overflow="visible" font-family="Bitstream Vera Sans"/></g></svg>