<svg height="16" width="16" xmlns="http://www.w3.org/2000/svg"><title>Gnome Symbolic Icon Theme</title><g fill="#bebebe"><path d="M5 11.062V13h3v-2z"/><path d="M5.47 0c-.492 0-.798.228-1.033.47C4.202.71 4 1.026 4 1.5V2H2v14h8v-2H4V4h2V2h4v2h2v3h2V2h-2V1.563c-.024-.43-.17-.72-.406-1A1.53 1.53 0 0 0 10.437.03V0H5.47z" style="text-indent:0;text-align:start;line-height:normal;text-transform:none;block-progression:tb;-inkscape-font-specification:Sans" font-weight="400" color="#bebebe" overflow="visible" font-family="Sans"/><path d="M12.844 7.97a1 1 0 0 0-.594.28l-3 3a1 1 0 0 0 .72 1.72h2.56l-1.28 1.28a1.016 1.016 0 1 0 1.437 1.438l3-3a1 1 0 0 0-.718-1.72h-2.564l1.28-1.28a1 1 0 0 0-.842-1.72z" style="text-indent:0;text-align:start;line-height:normal;text-transform:none;block-progression:tb;-inkscape-font-specification:Sans" font-weight="400" color="#bebebe" overflow="visible" font-family="Sans"/><path color="#bebebe" overflow="visible" d="M14.97 10.97h1v1h-1zM8.97 11.97h1v1h-1zM12.97 7.97h1v1h-1zM10.97 14.97h1v1h-1z"/><path d="M12.125 8.406l-2 3 1.687 1.125 2-3-1.687-1.124zM13.125 11.406l-2 3 1.687 1.125 2-3-1.687-1.124z" style="text-indent:0;text-align:start;line-height:normal;text-transform:none;block-progression:tb;-inkscape-font-specification:Sans" font-weight="400" color="#bebebe" overflow="visible" font-family="Sans"/></g></svg>