<svg height="16" width="16" xmlns="http://www.w3.org/2000/svg"><title>Gnome Symbolic Icon Theme</title><g fill="#bebebe"><path d="M3.344 11.52c-1.202.29-1.993 1.1-2.188 2.44-.053.562-.28 1.344.25 1.717.708.424 1.574.354 2.344.22.56-.15.802-.203 1.25-.626 0 0-.052-1.07.188-1.655 1.93-.81 3.81-.75 5.687 0 .24.586.188 1.656.188 1.656.448.424.688.478 1.25.626.77.135 1.635.205 2.343-.22.53-.372.304-1.154.25-1.717-.194-1.34-.985-2.15-2.187-2.44-3.14-.59-6.278-.723-9.376 0z"/><path d="M9 2v.78A1 1 0 0 0 10.03 4h.595L8.062 6.563 5.688 4.28a1.005 1.005 0 0 0-.72-.28H4v.75a1.005 1.005 0 0 0 0 .094 1.005 1.005 0 0 0 .28.875l3.095 2.967.688.688.718-.688L12 5.437V6a1 1 0 0 0 1 1h1v-.844A1 1 0 0 0 14 6V2h-3.97A1 1 0 0 0 10 2H9z" style="text-indent:0;text-align:start;line-height:normal;text-transform:none;block-progression:tb;-inkscape-font-specification:Sans" font-weight="400" opacity=".5" color="#bebebe" overflow="visible" font-family="Sans"/></g></svg>