<svg height="16" width="16" xmlns="http://www.w3.org/2000/svg"><title>Gnome Symbolic Icon Theme</title><path d="M10 13a2 2 0 1 1-4 0 2 2 0 1 1 4 0z" opacity=".32" fill="#bebebe"/><path d="M5 8.5a1.5 1.5 0 1 1-3 0 1.5 1.5 0 1 1 3 0zM9 8.5a1.5 1.5 0 1 1-3 0 1.5 1.5 0 1 1 3 0zM13 8.5a1.5 1.5 0 1 1-3 0 1.5 1.5 0 1 1 3 0z" fill="#bebebe"/><path d="M8 1.5C5.067 1.5 2.598 2.562.687 4.22a.5.5 0 0 0-.187.374V6a.5.5 0 0 0 .5.5h1.47a.5.5 0 0 0 .342-.125C4.264 5.167 5.806 4.5 8 4.5c2.187 0 3.76.703 5.22 1.875a.5.5 0 0 0 .31.125H15a.5.5 0 0 0 .5-.5V4.625a.5.5 0 0 0-.156-.375C13.61 2.7 10.95 1.5 8 1.5zm0 1c2.606 0 4.95 1.077 6.5 2.406V5.5h-.875c-1.536-1.182-3.312-2-5.625-2-2.307 0-4.083.775-5.625 2H1.5v-.656C3.22 3.414 5.39 2.5 8 2.5z" style="text-indent:0;text-align:start;line-height:normal;text-transform:none;block-progression:tb;-inkscape-font-specification:Sans" font-weight="400" opacity=".32" color="#000" overflow="visible" font-family="Sans" fill="none"/><path d="M8 4.5c-1.584 0-3.043.36-4.156 1.063a.5.5 0 0 0 .28.937h7.688a.5.5 0 0 0 .25-.938C10.952 4.883 9.547 4.5 8 4.5z" style="text-indent:0;text-align:start;line-height:normal;text-transform:none;block-progression:tb;-inkscape-font-specification:Sans" font-weight="400" opacity=".32" color="#000" overflow="visible" font-family="Sans" fill="none"/></svg>