<svg height="16" width="16" xmlns="http://www.w3.org/2000/svg"><title>Gnome Symbolic Icon Theme</title><path d="M5 7c-.31 0-.615.09-.812.28L.594 11l3.656 3.72c.198.19.44.28.75.28h1v-1c0-.257-.13-.53-.312-.72L4.406 12H8.03c.023-.277.114-1 .724-2h-4.38l1.22-1.28C5.777 8.53 6 8.256 6 8V7z" style="text-indent:0;text-align:start;line-height:normal;text-transform:none;block-progression:tb;-inkscape-font-specification:Sans" font-weight="400" opacity=".5" color="#000" fill="#bebebe" overflow="visible" font-family="Sans"/><path class="error" d="M12.5 9a3.5 3.5 0 1 0 0 7 3.5 3.5 0 0 0 0-7zM10 11.97h5V13h-5v-1.03z" color="#bebebe" fill="#ef2929" overflow="visible"/><path d="M12.48 8.03L15.406 5 11.75 1.28C11.552 1.09 11.31 1 11 1h-1v1c0 .257.13.53.313.72L11.593 4H7c-.528-.007-1 .472-1 1s.472 1.007 1 1h4.625l-1.22 1.28c-.18.19-.405.463-.405.72v.426c.62-.377 1.91-.507 2.48-.395z" style="text-indent:0;text-align:start;line-height:normal;text-transform:none;block-progression:tb;-inkscape-font-specification:Sans" font-weight="400" opacity=".5" color="#000" fill="#bebebe" overflow="visible" font-family="Sans"/></svg>