<svg height="16" width="16" xmlns="http://www.w3.org/2000/svg"><title>Gnome Symbolic Icon Theme</title><defs><clipPath id="a"><path d="M-73-30l-7-7v-4.5h16.5v4.5l-7.5 7z" fill="none" stroke="#000"/></clipPath></defs><path clip-path="url(#a)" d="M-72-38v1h1v-.97c-.323-.026-.66-.03-1-.03zm1 1v1h1v-1zm1 0h1v-.594a9.508 9.508 0 0 0-1-.218zm1 0v1h1v-1zm1 0h.5c-.165-.084-.327-.145-.5-.22zm0 1v1h1v-1zm1 0h1v1h1a7.865 7.865 0 0 0-2-1.72zm2 1v1h-1v1h-1v1h-1v1h-1v1h-1v-1h-1v1h-1v-1h-1v1h-1v-1h-1v-1h-1v-1h-1v-1h-1v-1h-.563c-1.565 1.85-.437 4.376-.437 7 0 5.215 1.39 6 7 6s7-.784 7-6c0-2.374 1.296-5.44 0-7zm-13 0h1v-1h-.563c-.144.124-.3.242-.437.375zm1-1h1v-1h-.063c-.328.174-.64.35-.937.563zm1-1h1v-.5c-.346.125-.68.303-1 .47zm1 0v1h1v-1zm1 0h1v-.938a8.79 8.79 0 0 0-1 .157zm1 0v1h1v-1zm1 1v1h1v-1zm1 1v1h1v-1zm1 0h1v-1h-1zm1 0v1h1v-1zm1 1v1h1v-1zm1 0h1v-1h-1zm-1 1h-1v1h1zm-1 1h-1v1h1zm-1 0v-1h-1v1zm-1 0h-1v1h1zm-1 0v-1h-1v1zm-1 0h-1v1h1zm-1 0v-1h-1v1zm-1-1v-1h-1v1zm-1-1v-1h-1v1zm0-1h1v-1h-1zm1 0v1h1v-1zm1 0h1v-1h-1zm1 0v1h1v-1zm1 1v1h1v-1zm-1 0h-1v1h1zm3 1h1v-1h-1z" style="text-indent:0;text-align:start;line-height:normal;text-transform:none;block-progression:tb;-inkscape-font-specification:Sans" transform="translate(80 40)" font-weight="400" opacity=".35" color="#000" fill="#bebebe" overflow="visible" font-family="Sans"/><path d="M0 16V0h16v16z" color="#bebebe" fill="none" overflow="visible"/><path d="M10 13a2 2 0 1 1-4 0 2 2 0 0 1 4 0z" fill="#bebebe"/></svg>