<svg height="16" width="16" xmlns="http://www.w3.org/2000/svg"><title>Gnome Symbolic Icon Theme</title><defs><clipPath id="a"><path color="#bebebe" fill="#bebebe" stroke-width="2" overflow="visible" d="M27 221.502h1.875v4.878H27z"/></clipPath></defs><g fill="#bebebe"><path d="M7.848 4.97c1.642-.093 3.096 1.17 3.188 2.81 0 1.403-.378 1.923-1.594 2.845-.19.144-.326.25-.375.313-.05.062-.03.033-.03.03.006.53-.473 1-1 1-.53 0-1.008-.47-1-1 0-.502.223-.943.467-1.25a3.82 3.82 0 0 1 .72-.687c.203-.16.46-.383.687-.655.094-.112.13-.308.126-.438v-.03a.988.988 0 0 0-1.063-.938c-.563.03-.97.436-.937 1h-2c-.092-1.644 1.17-2.91 2.812-3zm.188 8a1 1 0 1 1 0 2 1 1 0 0 1 0-2z" color="#bebebe" overflow="visible"/><path clip-path="url(#a)" d="M27.125 221.313a.362.362 0 0 0-.22.593.362.362 0 0 0 .032.03 2.825 2.825 0 0 1 0 4 .362.362 0 1 0 .5.5 3.53 3.53 0 0 0 0-5 .362.362 0 0 0-.312-.124z" style="text-indent:0;text-align:start;line-height:normal;text-transform:none;block-progression:tb;-inkscape-font-specification:Sans" transform="matrix(0 -2.66667 2.86852 0 -634.374 78)" font-weight="400" opacity=".35" color="#000" overflow="visible" font-family="Sans"/><path d="M5 10h1.016c.024-.343.14-.72.514-1H5zM3 8h1.016c-.016-.68.102-1.652.664-2.18C4.096 6 3.433 6.503 3 7zM13 8h-1.016c.016-.68-.102-1.652-.664-2.18.584.18 1.247.683 1.68 1.18z" opacity=".35"/></g></svg>