<svg height="16" width="16" xmlns="http://www.w3.org/2000/svg"><title>Gnome Symbolic Icon Theme</title><g color="#bebebe" fill="#bebebe"><path d="M3.03 0A3.038 3.038 0 0 0 0 3.03v7.94C0 12.637 1.362 14 3.03 14H10v-2H8v-2h7V3.03C15 1.363 13.638 0 11.97 0zm0 2h8.94c.595 0 1.03.435 1.03 1.03V9H2V3.03C2 2.436 2.436 2 3.03 2zM2 10h5v2H3.03C2.437 12 2 11.565 2 10.97z" style="text-indent:0;text-align:start;line-height:normal;text-transform:none;block-progression:tb;-inkscape-font-specification:Sans" font-weight="400" opacity=".5" overflow="visible" font-family="Sans"/><path d="M11 11h1.375l1.125 1.094L14.594 11H16v1.47l-1.094 1.06L16 14.595V16h-1.437L13.5 14.937 12.438 16H11v-1.406l1.063-1.063L11 12.47V11z" overflow="visible"/></g></svg>