<svg height="16" width="16" xmlns="http://www.w3.org/2000/svg"><title>Gnome Symbolic Icon Theme</title><g color="#000" fill="#bebebe"><path d="M9.51.044c-1.273 0-2.307.973-2.448 2.218-.324-.122-.657-.218-1.023-.218-1.644 0-2.976 1.343-2.976 3 0 .098.022.186.03.28-.296-.178-.65-.28-1.02-.28a1.992 1.992 0 0 0-1.985 2C.09 8.15.904 9 2 9h5V7.5c-.016-.786.74-1.47 1.518-1.487.8-.017 1.5.68 1.482 1.487V9h4.5a1.43 1.43 0 0 0 1.455-1.456c0-.828-.666-1.5-1.487-1.5-.206 0-.41.05-.59.125.053-.203.094-.408.094-.626 0-1.23-.886-2.228-2.046-2.438.042-.18.062-.368.062-.562 0-1.38-1.11-2.5-2.48-2.5z" overflow="visible"/><path d="M8.406 7A.5.5 0 0 0 8 7.5V10H5v1H3.28l-.124.156-2.5 2.5a.5.5 0 1 0 .688.688L3.687 12H5v3a.5.5 0 0 0 1 0v-3.375a.5.5 0 0 0 0-.22V11h2v.72l.156.124L10 13.688V15a.5.5 0 0 0 1 0v-1h1.344l2.406 1.438a.504.504 0 1 0 .5-.876l-2.5-1.5-.125-.062h-1.938L9 11.312v-.687a.5.5 0 0 0 0-.22V7.5a.5.5 0 0 0-.594-.5z" style="text-indent:0;text-align:start;line-height:normal;text-transform:none;block-progression:tb;-inkscape-font-specification:Sans" font-weight="400" overflow="visible" font-family="Sans"/></g></svg>