<svg height="16" xmlns="http://www.w3.org/2000/svg" width="16"><title>Gnome Symbolic Icon Theme</title><path d="M8 1C4.146 1 1 4.146 1 8a7.026 7.026 0 0 0 2.938 5.72c.233-.66.754-1.17 1.406-1.47A4.98 4.98 0 0 1 3 8c0-2.773 2.227-5 5-5s5 2.227 5 5c0 .648-.153 1.245-.375 1.813.724.03 1.367.307 1.875.75.316-.796.5-1.657.5-2.563 0-3.854-3.146-7-7-7z" style="text-indent:0;text-align:start;line-height:normal;text-transform:none;block-progression:tb;-inkscape-font-specification:Sans" font-weight="400" color="#bebebe" fill="#bebebe" overflow="visible" font-family="Sans"/><path d="M8 4a3.987 3.987 0 0 0-2.844 1.188c0 .082.015.17.063.25.1.167.183.338.31.468.096-.3.412-.53.782-.53.313 0 .585.146.72.374.266-.28.52-.6 1.062-.625.904-.043.994.657 1.906.844.59.12 1.12.038 1.438-.032A4.006 4.006 0 0 0 8 4zm-.47.438c.03-.012.066.004.095 0 .086-.012.148.01.187.062.053.068.016.14-.093.188-.11.047-.23.036-.282-.032-.053-.067-.016-.17.093-.218zm-.624.156a.87.87 0 0 1 .125 0c.103.005.17.06.22.125.087.112.025.263-.156.343-.183.08-.414.05-.5-.063-.087-.113.006-.265.187-.344.047-.02.08-.055.126-.062zm.594.343c.06-.008.13-.005.156.032.037.046.015.12-.062.155-.078.033-.182.016-.22-.03-.036-.05-.014-.093.064-.126.02-.01.042-.03.062-.032zm1 .907c-.52-.026-.77.398-.813.78-.042.384.986.183.657.75-.035.06-.095.09-.125.126-.04.286-.29.5-.626.5a.696.696 0 0 1-.407-.125c-.014.07-.053.162-.062.28-.03.423.282.767.344 1.033a2.67 2.67 0 0 0 .186-.438c.048.2.098.355.157.5A3.53 3.53 0 0 1 9.5 8.812c.84 0 1.554.353 2.156.844.186-.403.302-.82.344-1.28-.1-.29-.38-1.1-.688-1.282a.673.673 0 0 0-.062-.03c.024.055.024.114 0 .155-.037.065-.142.07-.22 0-.048-.047-.055-.1-.06-.157-.207.07-.356.287-.408.53-.076.366.438.97.438.97-.352 0-.875.034-1.063-.47-.16-.427.144-1.057-.187-1.374 0 0-.73-.85-1.25-.876zm2.28 1.625c.017-.004.046-.002.064 0 .07.003.146.024.22.092.143.137.193.345.123.47-.07.123-.23.104-.374-.032-.145-.136-.226-.345-.157-.47.026-.045.077-.052.125-.06zm-6.75.03c-.018.16-.03.334-.03.5 0 .68.2 1.314.5 1.875-.076-.18-.088-.4-.062-.563.05-.323.696-.16.687-.406a.86.86 0 0 0 .188.156c.385.224.865.12 1.062-.218.198-.34.042-.777-.344-1-.384-.224-.864-.152-1.06.187-.116.198-.1.45 0 .657a3.57 3.57 0 0 0-.564-.375L4.03 7.5zm.47 2.375c.36.673.896 1.22 1.563 1.594.03-.106.054-.213.093-.314-.25-.056-.527-.167-.78-.25.342-.15.737-.27.968-.562-.402-.08-.638-.35-.907-.563-.175.213-.312.412-.53.407-.2-.004-.33-.133-.407-.312zm1.78-.563a1.092 1.092 0 0 0-.25.032c-.257.077-.423.244-.56.406.37.084.75.267 1.155.156a3.438 3.438 0 0 1-.156-.594c-.062-.01-.124-.002-.19 0zm.75.188c.028.045.066.08.095.125.04-.03.06-.058.094-.094-.06.002-.12-.01-.19-.03z" opacity=".35" color="#000" fill="#bebebe" fill-rule="evenodd" overflow="visible"/><path d="M9.5 10A2.5 2.5 0 0 0 7 12.5c0 .218.04.423.094.625A1.55 1.55 0 0 0 6.5 13a1.5 1.5 0 0 0 0 3h8a1.5 1.5 0 0 0 0-3 2 2 0 0 0-2-2c-.316 0-.61.088-.875.22A2.47 2.47 0 0 0 9.5 10z" color="#000" fill="#bebebe" overflow="visible"/></svg>