<?xml version="1.0" encoding="UTF-8" standalone="no"?>
<!-- Created with Inkscape (http://www.inkscape.org/) -->

<svg
   xmlns:dc="http://purl.org/dc/elements/1.1/"
   xmlns:cc="http://creativecommons.org/ns#"
   xmlns:rdf="http://www.w3.org/1999/02/22-rdf-syntax-ns#"
   xmlns:svg="http://www.w3.org/2000/svg"
   xmlns="http://www.w3.org/2000/svg"
   xmlns:xlink="http://www.w3.org/1999/xlink"
   xmlns:sodipodi="http://sodipodi.sourceforge.net/DTD/sodipodi-0.dtd"
   xmlns:inkscape="http://www.inkscape.org/namespaces/inkscape"
   width="96"
   height="96"
   id="svg2"
   sodipodi:version="0.32"
   inkscape:version="0.47 r22583"
   version="1.0"
   sodipodi:docname="gpm-primary-000.svg"
   inkscape:output_extension="org.inkscape.output.svg.inkscape"
   style="display:inline">
  <defs
     id="defs4">
    <inkscape:perspective
       sodipodi:type="inkscape:persp3d"
       inkscape:vp_x="0 : 48 : 1"
       inkscape:vp_y="0 : 1000 : 0"
       inkscape:vp_z="96 : 48 : 1"
       inkscape:persp3d-origin="48 : 32 : 1"
       id="perspective29" />
    <linearGradient
       id="linearGradient4081">
      <stop
         style="stop-color:#aaaaaa;stop-opacity:1;"
         offset="0"
         id="stop4083" />
      <stop
         style="stop-color:#f0f0f0;stop-opacity:1;"
         offset="1"
         id="stop4085" />
    </linearGradient>
    <linearGradient
       inkscape:collect="always"
       xlink:href="#linearGradient4081-3"
       id="linearGradient4529"
       gradientUnits="userSpaceOnUse"
       x1="71"
       y1="17"
       x2="71"
       y2="5" />
    <linearGradient
       id="linearGradient4081-3">
      <stop
         style="stop-color:#aaaaaa;stop-opacity:1;"
         offset="0"
         id="stop4083-1" />
      <stop
         style="stop-color:#f0f0f0;stop-opacity:1;"
         offset="1"
         id="stop4085-4" />
    </linearGradient>
    <linearGradient
       id="linearGradient3295-9">
      <stop
         style="stop-color:#559829;stop-opacity:1;"
         offset="0"
         id="stop3297-2" />
      <stop
         style="stop-color:#86c837;stop-opacity:1;"
         offset="1"
         id="stop3299-0" />
    </linearGradient>
    <linearGradient
       y2="44.99865"
       x2="9.8299322"
       y1="55.716991"
       x1="9.8299322"
       gradientTransform="matrix(0.875,0,0,0.83333333,-30.642046,-96.809885)"
       gradientUnits="userSpaceOnUse"
       id="linearGradient3276"
       xlink:href="#linearGradient3295-9"
       inkscape:collect="always" />
    <linearGradient
       inkscape:collect="always"
       xlink:href="#linearGradient4081"
       id="linearGradient3763"
       x1="39"
       y1="72"
       x2="39.196381"
       y2="24.266857"
       gradientUnits="userSpaceOnUse" />
    <linearGradient
       inkscape:collect="always"
       xlink:href="#linearGradient3287"
       id="linearGradient3807"
       x1="39"
       y1="68"
       x2="39"
       y2="28"
       gradientUnits="userSpaceOnUse"
       gradientTransform="matrix(0.17142857,0,0,0.9,10.285714,-69.2)" />
    <inkscape:perspective
       id="perspective3197"
       inkscape:persp3d-origin="0.5 : 0.33333333 : 1"
       inkscape:vp_z="1 : 0.5 : 1"
       inkscape:vp_y="0 : 1000 : 0"
       inkscape:vp_x="0 : 0.5 : 1"
       sodipodi:type="inkscape:persp3d" />
    <linearGradient
       inkscape:collect="always"
       xlink:href="#linearGradient3959"
       id="linearGradient3965"
       gradientUnits="userSpaceOnUse"
       gradientTransform="matrix(0.5,0,0,0.83333333,2,-31.5)"
       x1="9.8299322"
       y1="55.716991"
       x2="9.8299322"
       y2="44.99865" />
    <linearGradient
       id="linearGradient3959">
      <stop
         id="stop3961"
         offset="0"
         style="stop-color:#a6d200;stop-opacity:1;" />
      <stop
         id="stop3963"
         offset="1"
         style="stop-color:#e1ff00;stop-opacity:1;" />
    </linearGradient>
    <linearGradient
       y2="44.99865"
       x2="9.8299322"
       y1="55.716991"
       x1="9.8299322"
       gradientTransform="matrix(0.5,0,0,0.83333333,-12,-71.5)"
       gradientUnits="userSpaceOnUse"
       id="linearGradient3206"
       xlink:href="#linearGradient3959"
       inkscape:collect="always" />
    <inkscape:perspective
       id="perspective3193"
       inkscape:persp3d-origin="0.5 : 0.33333333 : 1"
       inkscape:vp_z="1 : 0.5 : 1"
       inkscape:vp_y="0 : 1000 : 0"
       inkscape:vp_x="0 : 0.5 : 1"
       sodipodi:type="inkscape:persp3d" />
    <linearGradient
       inkscape:collect="always"
       xlink:href="#linearGradient3279"
       id="linearGradient4611"
       gradientUnits="userSpaceOnUse"
       gradientTransform="matrix(0.375,0,0,0.83333333,2.25,-31.5)"
       x1="9.8299322"
       y1="55.716991"
       x2="9.8299322"
       y2="44.99865" />
    <linearGradient
       id="linearGradient3279">
      <stop
         style="stop-color:#f08e00;stop-opacity:1;"
         offset="0"
         id="stop3281" />
      <stop
         style="stop-color:#ffd200;stop-opacity:1;"
         offset="1"
         id="stop3283" />
    </linearGradient>
    <linearGradient
       y2="44.99865"
       x2="9.8299322"
       y1="55.716991"
       x1="9.8299322"
       gradientTransform="matrix(0.375,0,0,0.83333333,-32.75,-73.5)"
       gradientUnits="userSpaceOnUse"
       id="linearGradient3202"
       xlink:href="#linearGradient3279"
       inkscape:collect="always" />
    <inkscape:perspective
       id="perspective3193-7"
       inkscape:persp3d-origin="0.5 : 0.33333333 : 1"
       inkscape:vp_z="1 : 0.5 : 1"
       inkscape:vp_y="0 : 1000 : 0"
       inkscape:vp_x="0 : 0.5 : 1"
       sodipodi:type="inkscape:persp3d" />
    <linearGradient
       inkscape:collect="always"
       xlink:href="#linearGradient3287"
       id="linearGradient4646"
       gradientUnits="userSpaceOnUse"
       gradientTransform="matrix(0.25,0,0,0.83333333,2.5,-31.5)"
       x1="9.8299322"
       y1="55.716991"
       x2="9.8299322"
       y2="44.99865" />
    <linearGradient
       id="linearGradient3287">
      <stop
         style="stop-color:#cd0000;stop-opacity:1;"
         offset="0"
         id="stop3289" />
      <stop
         style="stop-color:#e55300;stop-opacity:1;"
         offset="1"
         id="stop3291" />
    </linearGradient>
    <linearGradient
       y2="44.99865"
       x2="9.8299322"
       y1="55.716991"
       x1="9.8299322"
       gradientTransform="matrix(0.25,0,0,0.83333333,-8.5,-78.5)"
       gradientUnits="userSpaceOnUse"
       id="linearGradient3202-8"
       xlink:href="#linearGradient3287"
       inkscape:collect="always" />
    <inkscape:perspective
       id="perspective2966"
       inkscape:persp3d-origin="0.5 : 0.33333333 : 1"
       inkscape:vp_z="1 : 0.5 : 1"
       inkscape:vp_y="0 : 1000 : 0"
       inkscape:vp_x="0 : 0.5 : 1"
       sodipodi:type="inkscape:persp3d" />
    <linearGradient
       y2="11.015625"
       x2="19"
       y1="11.015625"
       x1="11"
       gradientTransform="matrix(0,-3.0000004,2.9652505,0,13.335916,19.000009)"
       gradientUnits="userSpaceOnUse"
       id="linearGradient2927"
       xlink:href="#linearGradient3183"
       inkscape:collect="always" />
    <linearGradient
       id="linearGradient3183">
      <stop
         style="stop-color:#c80000;stop-opacity:1;"
         offset="0"
         id="stop3185" />
      <stop
         style="stop-color:#f3604d;stop-opacity:1;"
         offset="1"
         id="stop3187" />
    </linearGradient>
  </defs>
  <sodipodi:namedview
     id="base"
     pagecolor="#ffffff"
     bordercolor="#e7e7e7"
     borderopacity="1"
     inkscape:pageopacity="0.0"
     inkscape:pageshadow="2"
     inkscape:zoom="22.640002"
     inkscape:cx="25.111561"
     inkscape:cy="39.956202"
     inkscape:document-units="px"
     inkscape:current-layer="layer1"
     showgrid="true"
     inkscape:showpageshadow="false"
     showguides="true"
     inkscape:guide-bbox="true"
     inkscape:window-width="1920"
     inkscape:window-height="1027"
     inkscape:window-x="0"
     inkscape:window-y="25"
     inkscape:window-maximized="1"
     borderlayer="true"
     inkscape:snap-global="true">
    <inkscape:grid
       type="xygrid"
       id="grid3672"
       visible="true"
       enabled="true"
       empspacing="8"
       snapvisiblegridlinesonly="true" />
  </sodipodi:namedview>
  <metadata
     id="metadata7">
    <rdf:RDF>
      <cc:Work
         rdf:about="">
        <dc:format>image/svg+xml</dc:format>
        <dc:type
           rdf:resource="http://purl.org/dc/dcmitype/StillImage" />
      </cc:Work>
    </rdf:RDF>
  </metadata>
  <g
     inkscape:label="Icon"
     inkscape:groupmode="layer"
     id="layer1"
     style="display:inline"
     transform="translate(0,74)">
    <path
       sodipodi:type="inkscape:offset"
       inkscape:radius="1.0537632"
       inkscape:original="M 12 -50.96875 C 7.6219324 -50.96875 4.03125 -47.378068 4.03125 -43 L 4.03125 -7 C 4.03125 -2.6219324 7.6219324 0.96875 12 0.96875 L 78 0.96875 C 82.378068 0.96875 85.96875 -2.6219324 85.96875 -7 L 85.96875 -15.03125 L 88 -15.03125 C 90.170657 -15.03125 91.96875 -16.829343 91.96875 -19 L 91.96875 -31 C 91.96875 -33.170657 90.170657 -34.96875 88 -34.96875 L 85.96875 -34.96875 L 85.96875 -43 C 85.96875 -47.378068 82.378068 -50.96875 78 -50.96875 L 12 -50.96875 z M 16 -41.03125 L 74 -41.03125 C 75.188373 -41.03125 76.03125 -40.188373 76.03125 -39 L 76.03125 -11 C 76.03125 -9.8116264 75.188374 -8.96875 74 -8.96875 L 16 -8.96875 C 14.811626 -8.96875 13.96875 -9.8116264 13.96875 -11 L 13.96875 -39 C 13.96875 -40.188373 14.811627 -41.03125 16 -41.03125 z "
       style="opacity:0.07999998;fill:#000000;fill-opacity:1;stroke:none"
       id="path3797"
       d="m 12,-52.03125 c -4.9542317,0 -9.03125,4.077018 -9.03125,9.03125 l 0,36 c 0,4.9542318 4.0770182,9.03125 9.03125,9.03125 l 66,0 c 4.954232,0 9.03125,-4.0770183 9.03125,-9.03125 l 0,-6.96875 0.96875,0 c 2.75259,0 5.03125,-2.27866 5.03125,-5.03125 l 0,-12 c 0,-2.75259 -2.27866,-5.03125 -5.03125,-5.03125 l -0.96875,0 0,-6.96875 c 0,-4.954232 -4.077018,-9.03125 -9.03125,-9.03125 l -66,0 z m 4,12.0625 58,0 c 0.690105,0 0.96875,0.278645 0.96875,0.96875 l 0,28 c 0,0.690106 -0.278643,0.96875 -0.96875,0.96875 l -58,0 c -0.690107,0 -0.96875,-0.278644 -0.96875,-0.96875 l 0,-28 c 0,-0.690105 0.278645,-0.96875 0.96875,-0.96875 z" />
    <path
       sodipodi:type="inkscape:offset"
       inkscape:radius="0.93108988"
       inkscape:original="M 12 -50.03125 C 8.1285599 -50.03125 4.96875 -46.87144 4.96875 -43 L 4.96875 -7 C 4.96875 -3.1285599 8.1285599 0.03125 12 0.03125 L 78 0.03125 C 81.87144 0.03125 85.03125 -3.1285599 85.03125 -7 L 85.03125 -15.96875 L 88 -15.96875 C 89.653332 -15.96875 91.03125 -17.346668 91.03125 -19 L 91.03125 -31 C 91.03125 -32.653332 89.653332 -34.03125 88 -34.03125 L 85.03125 -34.03125 L 85.03125 -43 C 85.03125 -46.87144 81.87144 -50.03125 78 -50.03125 L 12 -50.03125 z M 16 -41.96875 L 74 -41.96875 C 75.670668 -41.96875 76.96875 -40.670668 76.96875 -39 L 76.96875 -11 C 76.96875 -9.3293319 75.670668 -8.03125 74 -8.03125 L 16 -8.03125 C 14.329332 -8.03125 13.03125 -9.3293319 13.03125 -11 L 13.03125 -39 C 13.03125 -40.670668 14.329332 -41.96875 16 -41.96875 z "
       style="opacity:0.1;fill:#000000;fill-opacity:1;stroke:none"
       id="path3793"
       d="m 12,-50.96875 c -4.3780676,0 -7.96875,3.590682 -7.96875,7.96875 l 0,36 c 0,4.3780676 3.5906824,7.96875 7.96875,7.96875 l 66,0 c 4.378068,0 7.96875,-3.5906824 7.96875,-7.96875 l 0,-8.03125 2.03125,0 c 2.170657,0 3.96875,-1.798093 3.96875,-3.96875 l 0,-12 c 0,-2.170657 -1.798093,-3.96875 -3.96875,-3.96875 l -2.03125,0 0,-8.03125 c 0,-4.378068 -3.590682,-7.96875 -7.96875,-7.96875 l -66,0 z m 4,9.9375 58,0 c 1.188373,0 2.03125,0.842877 2.03125,2.03125 l 0,28 c 0,1.1883736 -0.842876,2.03125 -2.03125,2.03125 l -58,0 c -1.188374,0 -2.03125,-0.8428764 -2.03125,-2.03125 l 0,-28 c 0,-1.188373 0.842877,-2.03125 2.03125,-2.03125 z" />
    <path
       sodipodi:type="inkscape:offset"
       inkscape:radius="1.0160781"
       inkscape:original="M 12 -49 C 8.672667 -49 6 -46.327333 6 -43 L 6 -7 C 6 -3.672667 8.672667 -1 12 -1 L 78 -1 C 81.327333 -1 84 -3.672667 84 -7 L 84 -17 L 88 -17 C 89.108 -17 90 -17.892 90 -19 L 90 -31 C 90 -32.108 89.108 -33 88 -33 L 84 -33 L 84 -43 C 84 -46.327333 81.327333 -49 78 -49 L 12 -49 z M 16 -43 L 74 -43 C 76.216 -43 78 -41.216 78 -39 L 78 -11 C 78 -8.784 76.216 -7 74 -7 L 16 -7 C 13.784 -7 12 -8.784 12 -11 L 12 -39 C 12 -41.216 13.784 -43 16 -43 z "
       style="opacity:0.15;fill:#000000;fill-opacity:1;stroke:none"
       id="path3789"
       d="m 12,-50.03125 c -3.8714401,0 -7.03125,3.15981 -7.03125,7.03125 l 0,36 c 0,3.8714401 3.1598099,7.03125 7.03125,7.03125 l 66,0 c 3.87144,0 7.03125,-3.1598099 7.03125,-7.03125 l 0,-8.96875 2.96875,0 c 1.653332,0 3.03125,-1.377918 3.03125,-3.03125 l 0,-12 c 0,-1.653332 -1.377918,-3.03125 -3.03125,-3.03125 l -2.96875,0 0,-8.96875 c 0,-3.87144 -3.15981,-7.03125 -7.03125,-7.03125 l -66,0 z m 4,8.0625 58,0 c 1.670668,0 2.96875,1.298082 2.96875,2.96875 l 0,28 c 0,1.6706681 -1.298082,2.96875 -2.96875,2.96875 l -58,0 c -1.670668,0 -2.96875,-1.2980819 -2.96875,-2.96875 l 0,-28 c 0,-1.670668 1.298082,-2.96875 2.96875,-2.96875 z" />
    <path
       sodipodi:nodetypes="cccccccccccccccccccccccc"
       id="path3783"
       d="m 12,-49 c -3.327333,0 -6,2.672667 -6,6 l 0,36 c 0,3.327333 2.672667,6 6,6 l 66,0 c 3.327333,0 6,-2.672667 6,-6 l 0,-10 4,0 c 1.108,0 2,-0.892 2,-2 l 0,-12 c 0,-1.108 -0.892,-2 -2,-2 l -4,0 0,-10 c 0,-3.327333 -2.672667,-6 -6,-6 l -66,0 z m 4,6 58,0 c 2.216,0 4,1.784 4,4 l 0,28 c 0,2.216 -1.784,4 -4,4 l -58,0 c -2.216,0 -4,-1.784 -4,-4 l 0,-28 c 0,-2.216 1.784,-4 4,-4 z"
       style="fill:#000000;fill-opacity:1;stroke:none;opacity:0.3" />
    <path
       style="opacity:1;fill:url(#linearGradient3763);fill-opacity:1;stroke:none"
       d="m 12,24 c -3.327333,0 -6,2.672667 -6,6 l 0,36 c 0,3.327333 2.672667,6 6,6 l 66,0 c 3.327333,0 6,-2.672667 6,-6 l 0,-10 4,0 c 1.108,0 2,-0.892 2,-2 l 0,-12 c 0,-1.108 -0.892,-2 -2,-2 l -4,0 0,-10 c 0,-3.327333 -2.672667,-6 -6,-6 l -66,0 z m 4,6 58,0 c 2.216,0 4,1.784 4,4 l 0,28 c 0,2.216 -1.784,4 -4,4 l -58,0 c -2.216,0 -4,-1.784 -4,-4 l 0,-28 c 0,-2.216 1.784,-4 4,-4 z"
       transform="translate(0,-74)"
       id="rect2975"
       sodipodi:nodetypes="cccccccccccccccccccccccc" />
    <path
       style="opacity:0.75;fill:#ffffff;fill-opacity:1;stroke:none"
       d="M 12 24 C 8.672667 24 6 26.672667 6 30 L 6 31 C 6 27.672667 8.672667 25 12 25 L 78 25 C 81.327333 25 84 27.672667 84 31 L 84 30 C 84 26.672667 81.327333 24 78 24 L 12 24 z M 84 40 L 84 41 L 88 41 C 89.108 41 90 41.892 90 43 L 90 42 C 90 40.892 89.108 40 88 40 L 84 40 z M 12 62 L 12 63 C 12 65.216 13.784 67 16 67 L 74 67 C 76.216 67 78 65.216 78 63 L 78 62 C 78 64.216 76.216 66 74 66 L 16 66 C 13.784 66 12 64.216 12 62 z "
       transform="translate(0,-74)"
       id="path3765" />
    <path
       style="opacity:0.15;fill:#000000;fill-opacity:1;stroke:none"
       d="M 16 29 C 13.784 29 12 30.784 12 33 L 12 34 C 12 31.784 13.784 30 16 30 L 74 30 C 76.216 30 78 31.784 78 34 L 78 33 C 78 30.784 76.216 29 74 29 L 16 29 z M 90 53 C 90 54.108 89.108 55 88 55 L 84 55 L 84 56 L 88 56 C 89.108 56 90 55.108 90 54 L 90 53 z M 6 65 L 6 66 C 6 69.327333 8.672667 72 12 72 L 78 72 C 81.327333 72 84 69.327333 84 66 L 84 65 C 84 68.327333 81.327333 71 78 71 L 12 71 C 8.672667 71 6 68.327333 6 65 z "
       transform="translate(0,-74)"
       id="path3774" />
    <path
       sodipodi:type="inkscape:offset"
       inkscape:radius="0.99647576"
       inkscape:original="M 54 -37.96875 A 0.95278301 0.95278301 0 0 0 53.8125 -37.9375 A 0.95278301 0.95278301 0 0 0 53.34375 -37.65625 L 47.3125 -31.5625 A 0.95278301 0.95278301 0 0 0 47.3125 -30.25 L 52.5 -25 L 47.3125 -19.75 A 0.95278301 0.95278301 0 0 0 47.3125 -18.4375 L 53.34375 -12.34375 A 0.95278301 0.95278301 0 0 0 54.6875 -12.3125 L 59.96875 -17.5625 L 65.09375 -12.34375 A 0.95278301 0.95278301 0 0 0 66.46875 -12.34375 L 72.6875 -18.625 A 0.95278301 0.95278301 0 0 0 72.65625 -19.96875 L 67.5 -25 L 72.65625 -30.03125 A 0.95278301 0.95278301 0 0 0 72.6875 -31.375 L 66.46875 -37.65625 A 0.95278301 0.95278301 0 0 0 65.09375 -37.65625 L 59.96875 -32.4375 L 54.6875 -37.6875 A 0.95278301 0.95278301 0 0 0 54 -37.96875 z "
       style="opacity:0.1;fill:#000000;fill-opacity:1;fill-rule:evenodd;stroke:none;display:inline"
       id="path3761"
       d="m 53.84375,-38.96875 c 7.23e-4,-8.4e-5 -0.09447,0.03137 -0.09375,0.03125 7.18e-4,-1.2e-4 -0.09446,1.55e-4 -0.09375,0 7.11e-4,-1.55e-4 -0.09445,0.03144 -0.09375,0.03125 0.001,-2.62e-4 -0.126005,0.03158 -0.125,0.03125 0.001,-3.35e-4 -0.125978,0.06291 -0.125,0.0625 9.78e-4,-4.08e-4 -0.157196,0.06298 -0.15625,0.0625 9.46e-4,-4.78e-4 -0.125908,0.06305 -0.125,0.0625 9.08e-4,-5.45e-4 -0.09462,0.09436 -0.09375,0.09375 8.66e-4,-6.1e-4 -0.12582,0.06317 -0.125,0.0625 8.2e-4,-6.71e-4 -0.09452,0.09448 -0.09375,0.09375 5.77e-4,-5.47e-4 -0.06575,0.06523 -0.09375,0.09375 -0.0093,0.0095 -0.03143,0.03145 -0.03125,0.03125 l -6,6.0625 c 9.53e-4,-0.001 -0.125853,0.157339 -0.125,0.15625 8.53e-4,-0.0011 -0.0945,0.126165 -0.09375,0.125 7.46e-4,-0.0012 -0.09438,0.15748 -0.09375,0.15625 6.32e-4,-0.0012 -0.09426,0.188785 -0.09375,0.1875 5.13e-4,-0.0013 -0.06289,0.157577 -0.0625,0.15625 3.89e-4,-0.0013 -0.03151,0.188858 -0.03125,0.1875 2.61e-4,-0.0014 -0.03138,0.188877 -0.03125,0.1875 1.31e-4,-0.0014 0,0.188883 0,0.1875 0,-0.0014 1.31e-4,0.188877 0,0.1875 -1.31e-4,-0.0014 0.03151,0.188858 0.03125,0.1875 -2.61e-4,-0.0014 0.03164,0.188827 0.03125,0.1875 -3.89e-4,-0.0013 0.06301,0.157535 0.0625,0.15625 -5.13e-4,-0.0013 0.09438,0.18873 0.09375,0.1875 -6.32e-4,-0.0012 0.0945,0.157415 0.09375,0.15625 -7.46e-4,-0.0012 0.0946,0.126089 0.09375,0.125 -8.53e-4,-0.0011 0.125953,0.157253 0.125,0.15625 l 4.5,4.5625 -4.5,4.5625 c 9.53e-4,-0.001 -0.125853,0.157339 -0.125,0.15625 8.53e-4,-0.0011 -0.0945,0.126165 -0.09375,0.125 7.46e-4,-0.0012 -0.09438,0.15748 -0.09375,0.15625 6.32e-4,-0.0012 -0.09426,0.188785 -0.09375,0.1875 5.13e-4,-0.0013 -0.06289,0.157577 -0.0625,0.15625 3.89e-4,-0.0013 -0.03151,0.188858 -0.03125,0.1875 2.61e-4,-0.0014 -0.03138,0.188877 -0.03125,0.1875 1.31e-4,-0.0014 0,0.188883 0,0.1875 0,-0.0014 1.31e-4,0.188877 0,0.1875 -1.31e-4,-0.0014 0.03151,0.188858 0.03125,0.1875 -2.61e-4,-0.0014 0.03164,0.188827 0.03125,0.1875 -3.89e-4,-0.0013 0.06301,0.157535 0.0625,0.15625 -5.13e-4,-0.0013 0.09438,0.18873 0.09375,0.1875 -6.32e-4,-0.0012 0.0945,0.157415 0.09375,0.15625 -7.46e-4,-0.0012 0.0946,0.126089 0.09375,0.125 -8.53e-4,-0.0011 0.125953,0.157253 0.125,0.15625 l 6.03125,6.09375 c -9.87e-4,-0.001 0.126082,0.125927 0.125,0.125 -0.0011,-9.27e-4 0.157418,0.125817 0.15625,0.125 -0.0012,-8.17e-4 0.157492,0.09445 0.15625,0.09375 -0.0012,-6.99e-4 0.188805,0.09432 0.1875,0.09375 -0.0013,-5.74e-4 0.188854,0.06294 0.1875,0.0625 -0.0014,-4.44e-4 0.157641,0.06281 0.15625,0.0625 -0.0014,-3.1e-4 0.188915,0.03142 0.1875,0.03125 -0.0014,-1.72e-4 0.220175,3.3e-5 0.21875,0 -0.0014,-3.3e-5 0.188921,-1.06e-4 0.1875,0 -0.0014,1.06e-4 0.188904,-0.03149 0.1875,-0.03125 -0.0014,2.45e-4 0.188874,-0.03163 0.1875,-0.03125 -0.0014,3.81e-4 0.15758,-0.06301 0.15625,-0.0625 -0.0013,5.13e-4 0.188773,-0.06314 0.1875,-0.0625 -0.0013,6.41e-4 0.157455,-0.09451 0.15625,-0.09375 -0.0012,7.62e-4 0.157374,-0.125876 0.15625,-0.125 -0.0011,8.76e-4 0.157283,-0.125982 0.15625,-0.125 l 4.59375,-4.5625 4.40625,4.5 c -5.08e-4,-5.29e-4 0.06303,0.063 0.0625,0.0625 -5.34e-4,-5.03e-4 0.09431,0.06298 0.09375,0.0625 -5.59e-4,-4.76e-4 0.06308,0.06295 0.0625,0.0625 -5.82e-4,-4.47e-4 0.09435,0.06292 0.09375,0.0625 -6.04e-4,-4.17e-4 0.06312,0.06289 0.0625,0.0625 -6.24e-4,-3.86e-4 0.09439,0.06285 0.09375,0.0625 -6.43e-4,-3.54e-4 0.09441,0.03157 0.09375,0.03125 -6.6e-4,-3.21e-4 0.09443,0.03154 0.09375,0.03125 -6.75e-4,-2.88e-4 0.06319,0.0315 0.0625,0.03125 -6.89e-4,-2.53e-4 0.09445,0.03147 0.09375,0.03125 -7e-4,-2.18e-4 0.09446,0.03143 0.09375,0.03125 -7.11e-4,-1.83e-4 0.125719,0.0314 0.125,0.03125 -7.19e-4,-1.47e-4 0.09448,0.03136 0.09375,0.03125 -7.25e-4,-1.1e-4 0.09448,7.4e-5 0.09375,0 -7.3e-4,-7.4e-5 0.09448,3.7e-5 0.09375,0 -7.33e-4,-3.7e-5 0.09448,0 0.09375,0 -7.34e-4,0 0.09448,-3.7e-5 0.09375,0 -7.33e-4,3.7e-5 0.09448,-7.4e-5 0.09375,0 -7.3e-4,7.4e-5 0.09448,-1.1e-4 0.09375,0 -7.25e-4,1.1e-4 0.09447,-0.0314 0.09375,-0.03125 -7.19e-4,1.47e-4 0.125711,-0.03143 0.125,-0.03125 -7.11e-4,1.83e-4 0.09445,-0.03147 0.09375,-0.03125 -7e-4,2.18e-4 0.09444,-0.0315 0.09375,-0.03125 -6.89e-4,2.53e-4 0.06318,-0.03154 0.0625,-0.03125 -6.75e-4,2.88e-4 0.09441,-0.03157 0.09375,-0.03125 -6.6e-4,3.21e-4 0.09439,-0.0316 0.09375,-0.03125 -6.43e-4,3.54e-4 0.09437,-0.06289 0.09375,-0.0625 -6.24e-4,3.86e-4 0.0631,-0.06292 0.0625,-0.0625 -6.04e-4,4.17e-4 0.09433,-0.06295 0.09375,-0.0625 -5.82e-4,4.47e-4 0.06306,-0.06298 0.0625,-0.0625 -5.59e-4,4.76e-4 0.09428,-0.063 0.09375,-0.0625 -5.34e-4,5.03e-4 0.06301,-0.06303 0.0625,-0.0625 l 6.21875,-6.28125 c -9.82e-4,0.001 0.125876,-0.157374 0.125,-0.15625 -8.76e-4,0.0011 0.125762,-0.157455 0.125,-0.15625 -7.62e-4,0.0012 0.09439,-0.157523 0.09375,-0.15625 -6.41e-4,0.0013 0.06301,-0.18883 0.0625,-0.1875 -5.13e-4,0.0013 0.06288,-0.157624 0.0625,-0.15625 -3.81e-4,0.0014 0.0315,-0.188904 0.03125,-0.1875 -2.45e-4,0.0014 0.03136,-0.188921 0.03125,-0.1875 -1.06e-4,0.0014 -3.3e-5,-0.188925 0,-0.1875 3.3e-5,0.0014 -1.72e-4,-0.220165 0,-0.21875 1.72e-4,0.0014 -0.03156,-0.188891 -0.03125,-0.1875 3.1e-4,0.0014 -0.06294,-0.157604 -0.0625,-0.15625 4.44e-4,0.0014 -0.06307,-0.188805 -0.0625,-0.1875 5.74e-4,0.0013 -0.09445,-0.188742 -0.09375,-0.1875 6.99e-4,0.0012 -0.09457,-0.157418 -0.09375,-0.15625 8.17e-4,0.0012 -0.125927,-0.157332 -0.125,-0.15625 9.27e-4,0.0011 -0.126029,-0.125987 -0.125,-0.125 L 68.9375,-25 l 4.40625,-4.3125 c -0.001,9.87e-4 0.125927,-0.126082 0.125,-0.125 -9.27e-4,0.0011 0.125817,-0.157418 0.125,-0.15625 -8.17e-4,0.0012 0.09445,-0.157492 0.09375,-0.15625 -6.99e-4,0.0012 0.09432,-0.188805 0.09375,-0.1875 -5.74e-4,0.0013 0.06294,-0.188854 0.0625,-0.1875 -4.44e-4,0.0014 0.06281,-0.157641 0.0625,-0.15625 -3.1e-4,0.0014 0.03142,-0.188915 0.03125,-0.1875 -1.72e-4,0.0014 3.3e-5,-0.220175 0,-0.21875 -3.3e-5,0.0014 -1.06e-4,-0.188921 0,-0.1875 1.06e-4,0.0014 -0.0315,-0.188904 -0.03125,-0.1875 2.45e-4,0.0014 -0.03163,-0.188874 -0.03125,-0.1875 3.81e-4,0.0014 -0.06301,-0.15758 -0.0625,-0.15625 5.13e-4,0.0013 -0.06314,-0.188773 -0.0625,-0.1875 6.41e-4,0.0013 -0.09451,-0.157455 -0.09375,-0.15625 7.62e-4,0.0012 -0.125876,-0.157374 -0.125,-0.15625 8.76e-4,0.0011 -0.125982,-0.157283 -0.125,-0.15625 l -6.21875,-6.28125 c 5.08e-4,5.29e-4 -0.06303,-0.063 -0.0625,-0.0625 5.34e-4,5.03e-4 -0.09431,-0.06298 -0.09375,-0.0625 5.59e-4,4.76e-4 -0.06308,-0.06295 -0.0625,-0.0625 5.82e-4,4.47e-4 -0.09435,-0.06292 -0.09375,-0.0625 6.04e-4,4.17e-4 -0.06312,-0.06289 -0.0625,-0.0625 6.24e-4,3.86e-4 -0.09439,-0.06285 -0.09375,-0.0625 6.43e-4,3.54e-4 -0.09441,-0.03157 -0.09375,-0.03125 6.6e-4,3.21e-4 -0.09443,-0.03154 -0.09375,-0.03125 6.75e-4,2.88e-4 -0.06319,-0.0315 -0.0625,-0.03125 6.89e-4,2.53e-4 -0.09445,-0.03147 -0.09375,-0.03125 7e-4,2.18e-4 -0.09446,-0.03143 -0.09375,-0.03125 7.11e-4,1.83e-4 -0.125719,-0.0314 -0.125,-0.03125 7.19e-4,1.47e-4 -0.09448,-0.03136 -0.09375,-0.03125 7.25e-4,1.1e-4 -0.09448,-7.4e-5 -0.09375,0 7.3e-4,7.4e-5 -0.09448,-3.7e-5 -0.09375,0 7.33e-4,3.7e-5 -0.09448,0 -0.09375,0 7.34e-4,0 -0.09448,3.7e-5 -0.09375,0 7.33e-4,-3.7e-5 -0.09448,7.4e-5 -0.09375,0 7.3e-4,-7.4e-5 -0.09448,1.1e-4 -0.09375,0 7.25e-4,-1.1e-4 -0.09447,0.0314 -0.09375,0.03125 7.19e-4,-1.47e-4 -0.125711,0.03143 -0.125,0.03125 7.11e-4,-1.83e-4 -0.09445,0.03147 -0.09375,0.03125 7e-4,-2.18e-4 -0.09444,0.0315 -0.09375,0.03125 6.89e-4,-2.53e-4 -0.06318,0.03154 -0.0625,0.03125 6.75e-4,-2.88e-4 -0.09441,0.03157 -0.09375,0.03125 6.6e-4,-3.21e-4 -0.09439,0.0316 -0.09375,0.03125 6.43e-4,-3.54e-4 -0.09437,0.06289 -0.09375,0.0625 6.24e-4,-3.86e-4 -0.0631,0.06292 -0.0625,0.0625 6.04e-4,-4.17e-4 -0.09433,0.06295 -0.09375,0.0625 5.82e-4,-4.47e-4 -0.06306,0.06298 -0.0625,0.0625 5.59e-4,-4.76e-4 -0.09428,0.063 -0.09375,0.0625 5.34e-4,-5.03e-4 -0.06301,0.06303 -0.0625,0.0625 l -4.40625,4.5 -4.5625,-4.53125 c 1.71e-4,1.72e-4 -0.02075,-0.0212 -0.03125,-0.03125 -0.021,-0.0201 -0.06286,-0.06283 -0.0625,-0.0625 5.39e-4,4.91e-4 -0.06306,-0.06296 -0.0625,-0.0625 5.63e-4,4.63e-4 -0.06309,-0.06294 -0.0625,-0.0625 5.85e-4,4.35e-4 -0.09436,-0.03166 -0.09375,-0.03125 6.06e-4,4.05e-4 -0.09438,-0.06287 -0.09375,-0.0625 6.26e-4,3.74e-4 -0.06314,-0.06284 -0.0625,-0.0625 6.44e-4,3.42e-4 -0.09441,-0.03156 -0.09375,-0.03125 6.6e-4,3.09e-4 -0.09443,-0.03153 -0.09375,-0.03125 6.75e-4,2.76e-4 -0.09444,-0.03149 -0.09375,-0.03125 6.88e-4,2.42e-4 -0.09445,-0.03146 -0.09375,-0.03125 6.99e-4,2.07e-4 -0.09446,-0.03142 -0.09375,-0.03125 7.08e-4,1.72e-4 -0.09447,-0.03139 -0.09375,-0.03125 7.16e-4,1.36e-4 -0.09447,-1e-4 -0.09375,0 7.22e-4,1e-4 -0.09448,-0.03131 -0.09375,-0.03125 7.26e-4,6.4e-5 -0.09448,-2.8e-5 -0.09375,0 7.28e-4,2.8e-5 -0.09448,9e-6 -0.09375,0 a 0.9965754,0.9965754 0 0 0 -0.0625,0 c 7.26e-4,-4.7e-5 -0.09447,8.4e-5 -0.09375,0 z"
       transform="translate(-14,0)" />
    <path
       sodipodi:type="inkscape:offset"
       inkscape:radius="0.95268774"
       inkscape:original="M 54.03125 -37 L 48 -30.90625 L 53.84375 -25 L 48 -19.09375 L 54.03125 -13 L 59.96875 -18.90625 L 65.78125 -13 L 72 -19.28125 L 66.15625 -25 L 72 -30.71875 L 65.78125 -37 L 59.96875 -31.09375 L 54.03125 -37 z "
       style="opacity:0.15;fill:#000000;fill-opacity:1;fill-rule:evenodd;stroke:none;display:inline"
       id="path3757"
       d="m 53.8125,-37.9375 a 0.95278301,0.95278301 0 0 0 -0.46875,0.28125 l -6.03125,6.09375 a 0.95278301,0.95278301 0 0 0 0,1.3125 L 52.5,-25 l -5.1875,5.25 a 0.95278301,0.95278301 0 0 0 0,1.3125 l 6.03125,6.09375 a 0.95278301,0.95278301 0 0 0 1.34375,0.03125 l 5.28125,-5.25 5.125,5.21875 a 0.95278301,0.95278301 0 0 0 1.375,0 L 72.6875,-18.625 a 0.95278301,0.95278301 0 0 0 -0.03125,-1.34375 L 67.5,-25 72.65625,-30.03125 A 0.95278301,0.95278301 0 0 0 72.6875,-31.375 l -6.21875,-6.28125 a 0.95278301,0.95278301 0 0 0 -1.375,0 l -5.125,5.21875 -5.28125,-5.25 a 0.95278301,0.95278301 0 0 0 -0.875,-0.25 z"
       transform="translate(-14,0)" />
    <path
       id="path3751"
       d="M 34.000001,-19.093748 40.023166,-13 45.953669,-18.906248 51.791502,-13 58,-19.281248 52.16216,-24.999998 58,-30.718748 51.791502,-37 45.953669,-31.09375 40.023166,-37 l -6.023165,6.093751 5.837841,5.906251 -5.837841,5.90625 z"
       style="opacity:0.3;fill:#000000;fill-opacity:1;fill-rule:evenodd;stroke:none;display:inline" />
    <path
       style="fill:url(#linearGradient2927);fill-opacity:1;fill-rule:evenodd;stroke:none;display:inline"
       d="M 34.000001,-20.093748 40.023166,-14 45.953669,-19.906248 51.791502,-14 58,-20.281248 52.16216,-25.999998 58,-31.718748 51.791502,-38 45.953669,-32.09375 40.023166,-38 l -6.023165,6.093751 5.837841,5.906251 -5.837841,5.90625 z"
       id="path7165" />
    <path
       style="opacity:0.2;fill:#ffffff;fill-opacity:1;fill-rule:evenodd;stroke:none;display:inline"
       d="m 40.031251,-38 -6.03125,6.09375 1,1 L 40.031251,-36 45.96875,-30.09375 51.78125,-36 57,-30.75 58,-31.71875 51.78125,-38 45.96875,-32.09375 40.031251,-38 z m -0.194826,11.975812 -5.836424,5.930438 1,1 4.84375,-4.90625 -0.0073,-2.024188 z m 12.342644,0.04727 -0.02282,1.976918 4.84375,4.75 1,-1.03125 -5.820931,-5.695668 z"
       id="path2970"
       sodipodi:nodetypes="ccccccccccccccccccccc" />
  </g>
</svg>
