<svg height="16" width="16" xmlns="http://www.w3.org/2000/svg"><title>Gnome Symbolic Icon Theme</title><g fill="#bebebe"><path d="M16 5v1c0 .257-.13.528-.313.72L14.408 8l1.28 1.28c.183.192.313.463.313.72v1h-1c-.31 0-.552-.09-.75-.28L11.594 8l2.656-2.72c.198-.19.44-.28.75-.28h1z" style="text-indent:0;text-align:start;line-height:normal;text-transform:none;block-progression:tb;-inkscape-font-specification:Bitstream Vera Sans" font-weight="400" color="#bebebe" overflow="visible" font-family="Bitstream Vera Sans"/><path d="M1 1v14h10V1H1zm7 2h1v10H3l5-3V3zM5 5h2v1H5V5z" color="#000" overflow="visible"/></g></svg>