<svg height="16" width="16" xmlns="http://www.w3.org/2000/svg"><title>Gnome Symbolic Icon Theme</title><g fill="#bebebe"><path d="M3.344 3.52c-1.202.29-1.993 1.1-2.188 2.44-.053.562-.28 1.344.25 1.717.708.424 1.574.354 2.344.22.56-.15.802-.203 1.25-.626 0 0-.052-1.07.188-1.655 1.93-.81 3.81-.75 5.687 0 .24.586.188 1.656.188 1.656.448.424.688.478 1.25.626.77.135 1.635.205 2.343-.22.53-.372.304-1.154.25-1.717-.194-1.34-.985-2.15-2.187-2.44-3.14-.59-6.278-.723-9.376 0z"/><path d="M11 11h-1c-.257 0-.528.13-.72.313L8 12.593l-1.28-1.28C6.53 11.13 6.256 11 6 11H5v1c0 .31.09.552.28.75L8 15.406l2.72-2.656c.19-.198.28-.44.28-.75v-1z" style="text-indent:0;text-align:start;line-height:normal;text-transform:none;block-progression:tb;-inkscape-font-specification:Bitstream Vera Sans" font-weight="400" color="#bebebe" overflow="visible" font-family="Bitstream Vera Sans"/></g></svg>