<svg height="16" width="15.974" xmlns="http://www.w3.org/2000/svg"><title>Gnome Symbolic Icon Theme</title><g fill="#bebebe"><path d="M2.812 1.03a1 1 0 0 0-.812 1v12.94a1 1 0 0 0 1 1h10a1 1 0 0 0 1-1V9.936a1 1 0 1 0-2 0v4.032H4V3.03h1.97a1 1 0 1 0 0-2H3a1 1 0 0 0-.188 0z" style="text-indent:0;text-align:start;line-height:normal;text-transform:none;block-progression:tb;-inkscape-font-specification:Sans" font-weight="400" color="#000" overflow="visible" font-family="Sans"/><path d="M9 1.997v1.996H7V5.99h2v1.997h2V5.99h2V3.993h-2V1.997H9z"/></g></svg>