<svg height="16" width="16" xmlns="http://www.w3.org/2000/svg"><title>Gnome Symbolic Icon Theme</title><path d="M10 2l6 6-6 6H.965A1.03 1.03 0 0 1 0 13V3c0-.53.346-1 1.01-1H10zM9 5H7.97c-.256.01-.51.13-.69.313L6 6.593l-1.313-1.28C4.423 5.082 4.242 5.006 4 5H3v1c0 .286.034.55.25.75l1.28 1.28-1.25 1.25c-.187.19-.28.455-.28.72v1h1c.265 0 .53-.093.72-.28L6 9.436l1.28 1.282c.19.187.455.28.72.28h1v-1c0-.265-.093-.53-.28-.72L7.436 8.03 8.72 6.75A.91.91 0 0 0 9 6V5z" color="#000" fill="#bebebe" overflow="visible"/></svg>