<svg height="16" width="16" xmlns="http://www.w3.org/2000/svg"><title>Gnome Symbolic Icon Theme</title><g transform="translate(-441 -787)" color="#000" fill="#bebebe"><rect height="14" rx="0" ry="0" style="isolation:auto;mix-blend-mode:normal" width="2" x="442" y="788" overflow="visible"/><rect height="14" rx="0" ry="0" style="isolation:auto;mix-blend-mode:normal" transform="rotate(90)" width="2" x="800" y="-456" overflow="visible"/><path d="M454.5 788.074a.5.5 0 0 0-.486.514c.017 1.182-.07 2.284-.715 3.21-.646.928-1.894 1.762-4.42 2.27-2.72.547-4.343 1.69-5.308 3.063-.964 1.375-1.274 2.93-1.558 4.28a.5.5 0 1 0 .978.207c.285-1.353.584-2.748 1.4-3.912.817-1.164 2.147-2.146 4.684-2.656 2.674-.54 4.213-1.485 5.045-2.68.833-1.197.912-2.56.894-3.798a.5.5 0 0 0-.514-.498z" style="line-height:normal;text-indent:0;text-align:start;text-decoration-line:none;text-decoration-style:solid;text-decoration-color:#000;text-transform:none;block-progression:tb;isolation:auto;mix-blend-mode:normal" font-weight="400" font-family="sans-serif" white-space="normal" overflow="visible"/><path d="M442.504 801.514c.568-2.704 1.258-5.367 6.496-6.514 5.218-.955 5.086-3.648 6-6v12.558z" style="isolation:auto;mix-blend-mode:normal" overflow="visible" opacity=".33"/></g></svg>