<svg height="16" width="16" xmlns="http://www.w3.org/2000/svg"><title>Gnome Symbolic Icon Theme</title><g font-weight="400" fill="#bebebe"><path d="M11 12h-1c-.257 0-.528.118-.72.284L8 13.447l-1.28-1.163A1.145 1.145 0 0 0 6 12H5v.908c0 .28.09.5.28.68L8 16l2.72-2.41c.19-.18.28-.4.28-.682V12z" style="text-indent:0;text-align:start;line-height:normal;text-transform:none;block-progression:tb;-inkscape-font-specification:Bitstream Vera Sans" color="#bebebe" overflow="visible" font-family="Bitstream Vera Sans"/><path d="M4 0v2h6c.428 0 1 .614 1 1v1H6c-.92 0-1.736.384-2.25.97A3.017 3.017 0 0 0 3 7c.006.72.27 1.453.78 2.03.513.58 1.312.97 2.22.97h7V3a3 3 0 0 0-3-3H4zm2 6h5v2H6c-.398 0-.567-.11-.72-.28-.15-.173-.278-.44-.28-.72a1.12 1.12 0 0 1 .25-.72C5.395 6.117 5.578 6 6 6z" style="text-indent:0;text-align:start;line-height:normal;text-transform:none;block-progression:tb;-inkscape-font-specification:Sans" color="#000" overflow="visible" font-family="Sans"/></g></svg>