<svg height="16" xmlns="http://www.w3.org/2000/svg" width="16"><title>Gnome Symbolic Icon Theme</title><g font-weight="400" color="#000" fill="#bebebe"><path d="M2 9v1c0 .265.093.53.28.72L6 14.436l3.72-3.718c.187-.19.28-.455.28-.72V9H9c-.265 0-.53.093-.72.28L6 11.564 3.72 9.28A1.015 1.015 0 0 0 3 9z" style="text-indent:0;text-align:start;line-height:normal;text-transform:none;block-progression:tb;-inkscape-font-specification:Bitstream Vera Sans" overflow="visible" font-family="Bitstream Vera Sans"/><path d="M8.5 3C6.58 3 5 4.58 5 6.5V12h2V6.5C7 5.66 7.66 5 8.5 5H13V3H8.5z" style="text-indent:0;text-align:start;line-height:normal;text-transform:none;block-progression:tb;-inkscape-font-specification:Sans" overflow="visible" font-family="Sans"/></g></svg>