<svg height="16" width="16" xmlns="http://www.w3.org/2000/svg"><title>Gnome Symbolic Icon Theme</title><g font-weight="400" color="#000" fill="#bebebe" font-family="Sans"><path d="M3 3v2h1.906C4.85 5 5 5.17 5 5.094v.937H4C2.284 6.03.962 7.14.937 8.5c-.012.68.32 1.353.875 1.812.556.46 1.31.72 2.188.72h3V5.093C7 3.924 6.103 3 4.906 3H3zm1 5.03h1v1H4c-.52 0-.78-.144-.906-.25-.127-.103-.158-.177-.157-.25.003-.143.093-.5 1.063-.5zM8 2v9.03h3c.938 0 1.782-.38 2.312-.967.53-.587.76-1.333.75-2.063a3.073 3.073 0 0 0-.812-2.03A3.04 3.04 0 0 0 11 5h-1V2H8zm2 5h1c.422 0 .62.135.78.313.163.177.28.442.282.718.004.277-.098.52-.25.69-.15.167-.353.31-.812.31h-1V7zM3 11.28l-.344.376-2 2a.5.5 0 1 0 .688.688L3 12.688l1.656 1.656.344.375.344-.376L7 12.688l1.656 1.656.344.375.344-.376L11 12.688l1.656 1.656.344.375.344-.376 2-2a.5.5 0 1 0-.688-.688L13 13.312l-1.656-1.656L11 11.28l-.344.376L9 13.312l-1.656-1.656L7 11.28l-.344.376L5 13.312l-1.656-1.656L3 11.28z" style="text-indent:0;text-align:start;line-height:normal;text-transform:none;block-progression:tb;-inkscape-font-specification:Sans" overflow="visible"/></g></svg>