<svg height="16" width="16" xmlns="http://www.w3.org/2000/svg"><title>Gnome Symbolic Icon Theme</title><path d="M6.72 2c-.193.01-.373.035-.564.063a6.03 6.03 0 0 0-3.968 2.343C.206 7.048.764 10.83 3.405 12.813c2.642 1.98 6.425 1.422 8.406-1.22.123-.17.19-.382.188-.593v-1h-1c-.314 0-.625.154-.813.406-1.332 1.777-3.817 2.114-5.593.78-1.777-1.33-2.114-3.815-.782-5.592C5.146 3.817 7.63 3.48 9.407 4.812c.43.323.77.733 1.03 1.188H9.002a1 1 0 0 0-1 1v1h6V2h-1a1 1 0 0 0-1 1v1.688A5.966 5.966 0 0 0 6.72 2z" style="text-indent:0;text-align:start;line-height:normal;text-transform:none;block-progression:tb;-inkscape-font-specification:Sans" font-weight="400" color="#bebebe" fill="#bebebe" overflow="visible" font-family="Sans"/></svg>