<?xml version="1.0" encoding="UTF-8" standalone="no"?>
<!-- Created with Inkscape (http://www.inkscape.org/) -->
<svg
   xmlns:dc="http://purl.org/dc/elements/1.1/"
   xmlns:cc="http://creativecommons.org/ns#"
   xmlns:rdf="http://www.w3.org/1999/02/22-rdf-syntax-ns#"
   xmlns:svg="http://www.w3.org/2000/svg"
   xmlns="http://www.w3.org/2000/svg"
   xmlns:xlink="http://www.w3.org/1999/xlink"
   xmlns:sodipodi="http://sodipodi.sourceforge.net/DTD/sodipodi-0.dtd"
   xmlns:inkscape="http://www.inkscape.org/namespaces/inkscape"
   width="16"
   height="16"
   id="svg2"
   sodipodi:version="0.32"
   inkscape:version="0.46"
   version="1.0"
   sodipodi:docname="drive-harddisk.svg"
   inkscape:output_extension="org.inkscape.output.svg.inkscape"
   style="display:inline">
  <defs
     id="defs4">
    <linearGradient
       inkscape:collect="always"
       id="linearGradient3552">
      <stop
         style="stop-color:#999999;stop-opacity:1;"
         offset="0"
         id="stop3554" />
      <stop
         style="stop-color:#999999;stop-opacity:0;"
         offset="1"
         id="stop3556" />
    </linearGradient>
    <linearGradient
       id="linearGradient3259">
      <stop
         style="stop-color:#8fe100;stop-opacity:1;"
         offset="0"
         id="stop3261" />
      <stop
         style="stop-color:#c7e100;stop-opacity:0;"
         offset="1"
         id="stop3263" />
    </linearGradient>
    <linearGradient
       id="linearGradient3249">
      <stop
         style="stop-color:#838383;stop-opacity:1;"
         offset="0"
         id="stop3251" />
      <stop
         style="stop-color:#f1f1f1;stop-opacity:1;"
         offset="1"
         id="stop3253" />
    </linearGradient>
    <linearGradient
       id="linearGradient3221">
      <stop
         style="stop-color:#1a1a1a;stop-opacity:1;"
         offset="0"
         id="stop3223" />
      <stop
         style="stop-color:#3c3c3c;stop-opacity:1;"
         offset="1"
         id="stop3225" />
    </linearGradient>
    <linearGradient
       id="linearGradient3313">
      <stop
         style="stop-color:#4dbeff;stop-opacity:1;"
         offset="0"
         id="stop3315" />
      <stop
         id="stop4186"
         offset="0.67213112"
         style="stop-color:#1379ff;stop-opacity:0.902439;" />
      <stop
         style="stop-color:#0066ff;stop-opacity:0;"
         offset="1"
         id="stop3317" />
    </linearGradient>
    <linearGradient
       id="linearGradient3531">
      <stop
         style="stop-color:#020202;stop-opacity:1;"
         offset="0"
         id="stop3533" />
      <stop
         style="stop-color:#a8a8a8;stop-opacity:1;"
         offset="1"
         id="stop3535" />
    </linearGradient>
    <linearGradient
       id="linearGradient3322">
      <stop
         id="stop3324"
         offset="0"
         style="stop-color:#7a7a7a;stop-opacity:1;" />
      <stop
         style="stop-color:#f9f9f9;stop-opacity:1"
         offset="0.2032043"
         id="stop3326" />
      <stop
         id="stop3328"
         offset="0.42969123"
         style="stop-color:#c9c9c9;stop-opacity:1" />
      <stop
         id="stop3632"
         offset="1"
         style="stop-color:#dedede;stop-opacity:0;" />
    </linearGradient>
    <linearGradient
       id="linearGradient4327">
      <stop
         style="stop-color:#f0f0f0;stop-opacity:1;"
         offset="0"
         id="stop4329" />
      <stop
         id="stop4331"
         offset="1"
         style="stop-color:#b4b4b4;stop-opacity:1;" />
    </linearGradient>
    <linearGradient
       id="linearGradient3220">
      <stop
         style="stop-color:#ffffff;stop-opacity:1;"
         offset="0"
         id="stop3222" />
      <stop
         style="stop-color:#bfbfbf;stop-opacity:0;"
         offset="1"
         id="stop3224" />
    </linearGradient>
    <clipPath
       clipPathUnits="userSpaceOnUse"
       id="clipPath3824">
      <path
         style="opacity:1;fill:#ffffff;fill-opacity:1;fill-rule:nonzero;stroke:none;stroke-width:1;stroke-linecap:square;stroke-linejoin:round;stroke-miterlimit:4;stroke-dasharray:none;stroke-dashoffset:0;stroke-opacity:0.69658119;display:inline"
         d="M 16,12 C 13.784,12 12,13.784 12,16 L 12,68 C 12,70.216 13.784,72 16,72 L 80,72 C 82.216,72 84,70.216 84,68 L 84,16 C 84,13.784 82.216,12 80,12 L 16,12 z M 48,20 L 50.65625,22.25 L 69.34375,37.875 L 72,40.125 L 69.34375,42.34375 L 55.375,54.0625 L 55.375,45.1875 L 61.40625,40.125 L 48,28.875 L 34.59375,40.125 L 40.625,45.1875 L 40.625,54.0625 L 26.65625,42.34375 L 24,40.125 L 26.65625,37.875 L 45.34375,22.25 L 48,20 z M 44.25,40.03125 L 51.75,40.03125 L 51.75,62 L 44.25,62 L 44.25,40.03125 z"
         id="path3826" />
    </clipPath>
    <linearGradient
       id="linearGradient3767">
      <stop
         style="stop-color:#4d4d4d;stop-opacity:0.70731705;"
         offset="0"
         id="stop3769" />
      <stop
         style="stop-color:#4d4d4d;stop-opacity:0.25203252;"
         offset="1"
         id="stop3771" />
    </linearGradient>
    <inkscape:perspective
       sodipodi:type="inkscape:persp3d"
       inkscape:vp_x="0 : 8 : 1"
       inkscape:vp_y="0 : 1000 : 0"
       inkscape:vp_z="16 : 8 : 1"
       inkscape:persp3d-origin="8 : 5.3333333 : 1"
       id="perspective26" />
    <linearGradient
       id="ButtonColor"
       x1="10.31979"
       y1="21"
       x2="10.31979"
       y2="0.99929649"
       gradientUnits="userSpaceOnUse">
      <stop
         style="stop-color:#29669f;stop-opacity:1;"
         offset="0"
         id="stop3189" />
      <stop
         style="stop-color:#88b6e0;stop-opacity:1;"
         offset="1"
         id="stop3191" />
    </linearGradient>
    <linearGradient
       inkscape:collect="always"
       xlink:href="#ButtonColor"
       id="linearGradient3204"
       x1="1"
       y1="9"
       x2="15"
       y2="9"
       gradientUnits="userSpaceOnUse"
       gradientTransform="translate(-16,-1)" />
    <linearGradient
       inkscape:collect="always"
       xlink:href="#ButtonColor"
       id="linearGradient3173"
       gradientUnits="userSpaceOnUse"
       gradientTransform="translate(-16,-1)"
       x1="1"
       y1="9"
       x2="15"
       y2="9" />
    <linearGradient
       inkscape:collect="always"
       xlink:href="#ButtonColor"
       id="linearGradient3177"
       gradientUnits="userSpaceOnUse"
       gradientTransform="translate(-16,-1)"
       x1="1"
       y1="9"
       x2="15"
       y2="9" />
    <linearGradient
       inkscape:collect="always"
       xlink:href="#ButtonColor"
       id="linearGradient3179"
       gradientUnits="userSpaceOnUse"
       gradientTransform="matrix(0,-1,1,0,-1,16)"
       x1="1"
       y1="9"
       x2="15"
       y2="9" />
    <linearGradient
       inkscape:collect="always"
       xlink:href="#linearGradient4327"
       id="linearGradient2707"
       gradientUnits="userSpaceOnUse"
       gradientTransform="translate(10.101705,-23.277632)"
       x1="-3.0607977"
       y1="23.258198"
       x2="-3.0607977"
       y2="12.157126" />
    <linearGradient
       inkscape:collect="always"
       xlink:href="#linearGradient3322"
       id="linearGradient3507"
       x1="0"
       y1="10"
       x2="5.3533568"
       y2="10"
       gradientUnits="userSpaceOnUse" />
    <linearGradient
       inkscape:collect="always"
       xlink:href="#linearGradient3322"
       id="linearGradient3511"
       gradientUnits="userSpaceOnUse"
       x1="0"
       y1="10"
       x2="5.3533568"
       y2="10"
       gradientTransform="matrix(-1,0,0,1,16,0)" />
    <linearGradient
       inkscape:collect="always"
       xlink:href="#linearGradient3531"
       id="linearGradient3537"
       x1="6.6837831"
       y1="16"
       x2="6.6837831"
       y2="-0.0038814719"
       gradientUnits="userSpaceOnUse" />
    <linearGradient
       inkscape:collect="always"
       xlink:href="#linearGradient4327"
       id="linearGradient3547"
       gradientUnits="userSpaceOnUse"
       gradientTransform="translate(10.101705,-23.277632)"
       x1="-3.0607977"
       y1="27.258198"
       x2="-3.0607977"
       y2="7.2536583" />
    <linearGradient
       inkscape:collect="always"
       xlink:href="#linearGradient3220"
       id="linearGradient3563"
       gradientUnits="userSpaceOnUse"
       gradientTransform="matrix(1,0,0,-1,10.101705,23.277632)"
       x1="-5.7468042"
       y1="12.246382"
       x2="-0.93697876"
       y2="22.745043" />
    <linearGradient
       inkscape:collect="always"
       xlink:href="#linearGradient3767"
       id="linearGradient3573"
       gradientUnits="userSpaceOnUse"
       gradientTransform="matrix(0.1867824,0,0,0.1867824,-0.9572521,-1.9419949)"
       x1="48"
       y1="62"
       x2="48"
       y2="21.554564" />
    <clipPath
       clipPathUnits="userSpaceOnUse"
       id="clipPath3587">
      <path
         style="opacity:1;fill:#ffffff;fill-opacity:1;fill-rule:evenodd;stroke:none;stroke-width:0.25;stroke-linecap:round;stroke-linejoin:miter;stroke-miterlimit:4;stroke-dasharray:none;stroke-dashoffset:0;stroke-opacity:1;display:inline"
         d="M 1.96875,10.03125 C 0.86075,10.03125 -0.03125,10.92325 -0.03125,12.03125 L -0.03125,19.03125 C -0.03125,20.13925 0.86075,21.03125 1.96875,21.03125 L 13.96875,21.03125 C 15.07675,21.03125 15.96875,20.13925 15.96875,19.03125 L 15.96875,12.03125 C 15.96875,10.92325 15.07675,10.03125 13.96875,10.03125 L 1.96875,10.03125 z M 8,11.53125 L 12.875,15.53125 L 9.96875,17.875 L 9.96875,15.96875 L 10.5,15.53125 L 8,13.4375 L 5.5,15.53125 L 6.03125,15.96875 L 6.03125,17.84375 L 3.125,15.53125 L 8,11.53125 z M 7.09375,15.90625 L 8.9375,15.90625 L 8.9375,19 L 7.09375,19 L 7.09375,15.90625 z"
         id="path3589" />
    </clipPath>
    <clipPath
       clipPathUnits="userSpaceOnUse"
       id="clipPath3613">
      <path
         style="opacity:1;fill:#ffffff;fill-opacity:1;fill-rule:evenodd;stroke:none;stroke-width:0.25;stroke-linecap:round;stroke-linejoin:miter;stroke-miterlimit:4;stroke-dasharray:none;stroke-dashoffset:0;stroke-opacity:1;display:inline"
         d="M 1.96875,10.03125 C 0.86075,10.03125 -0.03125,10.92325 -0.03125,12.03125 L -0.03125,19.03125 C -0.03125,20.13925 0.86075,21.03125 1.96875,21.03125 L 13.96875,21.03125 C 15.07675,21.03125 15.96875,20.13925 15.96875,19.03125 L 15.96875,12.03125 C 15.96875,10.92325 15.07675,10.03125 13.96875,10.03125 L 1.96875,10.03125 z M 8,11.53125 L 12.875,15.53125 L 9.96875,17.875 L 9.96875,15.96875 L 10.5,15.53125 L 8,13.4375 L 5.5,15.53125 L 6.03125,15.96875 L 6.03125,17.84375 L 3.125,15.53125 L 8,11.53125 z M 7.09375,15.09375 L 8.9375,15.09375 L 8.9375,20.03125 L 7.09375,20.03125 L 7.09375,15.09375 z"
         id="path3615" />
    </clipPath>
    <linearGradient
       inkscape:collect="always"
       xlink:href="#linearGradient3767"
       id="linearGradient3286"
       gradientUnits="userSpaceOnUse"
       x1="9"
       y1="9"
       x2="9"
       y2="1.9707127"
       gradientTransform="translate(0,10)" />
    <clipPath
       clipPathUnits="userSpaceOnUse"
       id="clipPath3289">
      <path
         style="opacity:1;fill:#ffffff;fill-opacity:1;fill-rule:evenodd;stroke:none;stroke-width:0.25;stroke-linecap:round;stroke-linejoin:miter;stroke-miterlimit:4;stroke-dasharray:none;stroke-dashoffset:0;stroke-opacity:1;display:inline"
         d="M 1.96875,10.03125 C 0.86075,10.03125 -0.03125,10.92325 -0.03125,12.03125 L -0.03125,19.03125 C -0.03125,20.13925 0.86075,21.03125 1.96875,21.03125 L 13.96875,21.03125 C 15.07675,21.03125 15.96875,20.13925 15.96875,19.03125 L 15.96875,12.03125 C 15.96875,10.92325 15.07675,10.03125 13.96875,10.03125 L 1.96875,10.03125 z M 8,12 C 10.208,12 12,13.568 12,15.5 C 12,17.432 10.208,19 8,19 C 5.792,19 4,17.432 4,15.5 C 4,13.568 5.792,12 8,12 z M 8,13.9375 C 7.0160693,13.9375 6.21875,14.639061 6.21875,15.5 C 6.21875,16.360939 7.0160694,17.0625 8,17.0625 C 8.9839307,17.0625 9.7812502,16.36094 9.78125,15.5 C 9.78125,14.639061 8.9839308,13.9375 8,13.9375 z"
         id="path3291" />
    </clipPath>
    <filter
       inkscape:collect="always"
       id="filter3293"
       x="-0.11333333"
       width="1.2266667"
       y="-0.1275"
       height="1.255">
      <feGaussianBlur
         inkscape:collect="always"
         stdDeviation="0.425"
         id="feGaussianBlur3295" />
    </filter>
    <linearGradient
       inkscape:collect="always"
       xlink:href="#linearGradient3221"
       id="linearGradient3235"
       x1="13.480771"
       y1="11.97099"
       x2="13.480771"
       y2="14"
       gradientUnits="userSpaceOnUse"
       gradientTransform="translate(3.845787e-2,2.9009819e-2)" />
    <linearGradient
       inkscape:collect="always"
       xlink:href="#linearGradient3221"
       id="linearGradient3239"
       gradientUnits="userSpaceOnUse"
       gradientTransform="translate(-1.9615421,2.9009819e-2)"
       x1="13.480771"
       y1="11.97099"
       x2="13.480771"
       y2="14" />
    <linearGradient
       inkscape:collect="always"
       xlink:href="#linearGradient3221"
       id="linearGradient3243"
       gradientUnits="userSpaceOnUse"
       gradientTransform="translate(-3.9615421,2.9009819e-2)"
       x1="13.480771"
       y1="11.97099"
       x2="13.480771"
       y2="14" />
    <linearGradient
       inkscape:collect="always"
       xlink:href="#linearGradient3249"
       id="linearGradient3255"
       x1="2.9999999"
       y1="12.516727"
       x2="4.0290094"
       y2="12.516727"
       gradientUnits="userSpaceOnUse" />
    <radialGradient
       inkscape:collect="always"
       xlink:href="#linearGradient3259"
       id="radialGradient3265"
       cx="3.5145047"
       cy="12.516727"
       fx="3.5145047"
       fy="12.516727"
       r="0.51450473"
       gradientTransform="matrix(1,0,0,0.9392957,0,0.7598186)"
       gradientUnits="userSpaceOnUse" />
    <linearGradient
       inkscape:collect="always"
       xlink:href="#linearGradient3552"
       id="linearGradient3558"
       x1="6.7785926"
       y1="9"
       x2="6.7785926"
       y2="-0.43942794"
       gradientUnits="userSpaceOnUse" />
  </defs>
  <sodipodi:namedview
     id="base"
     pagecolor="#ffffff"
     bordercolor="#e7e7e7"
     borderopacity="1"
     inkscape:pageopacity="0.0"
     inkscape:pageshadow="2"
     inkscape:zoom="32.017795"
     inkscape:cx="3.3128278"
     inkscape:cy="7.1218266"
     inkscape:document-units="px"
     inkscape:current-layer="layer2"
     showgrid="true"
     inkscape:showpageshadow="false"
     showguides="true"
     inkscape:guide-bbox="true"
     inkscape:window-width="1266"
     inkscape:window-height="960"
     inkscape:window-x="7"
     inkscape:window-y="57">
    <sodipodi:guide
       orientation="1,0"
       position="0,112"
       id="guide2383" />
    <sodipodi:guide
       orientation="0,1"
       position="26.278146,128"
       id="guide2385" />
    <sodipodi:guide
       orientation="1,0"
       position="128,54.082119"
       id="guide2387" />
    <sodipodi:guide
       orientation="0,1"
       position="78.156291,0"
       id="guide2389" />
    <sodipodi:guide
       orientation="0,1"
       position="60.863576,64.084768"
       id="guide2391" />
    <inkscape:grid
       type="xygrid"
       id="grid3672"
       visible="true"
       enabled="true" />
  </sodipodi:namedview>
  <metadata
     id="metadata7">
    <rdf:RDF>
      <cc:Work
         rdf:about="">
        <dc:format>image/svg+xml</dc:format>
        <dc:type
           rdf:resource="http://purl.org/dc/dcmitype/StillImage" />
      </cc:Work>
    </rdf:RDF>
  </metadata>
  <g
     inkscape:label="Facade"
     inkscape:groupmode="layer"
     id="layer1"
     style="display:inline"
     sodipodi:insensitive="true">
    <rect
       ry="2"
       rx="2"
       y="1"
       x="-15"
       height="14"
       width="14"
       id="rect3196"
       style="opacity:1;fill:url(#linearGradient3204);fill-opacity:1;fill-rule:nonzero;stroke:none;stroke-width:0.5;stroke-linecap:round;stroke-linejoin:round;stroke-miterlimit:4;stroke-dasharray:none;stroke-dashoffset:0;stroke-opacity:1"
       transform="matrix(0,-1,1,0,0,0)" />
    <path
       style="opacity:1;fill:#2b6090;fill-opacity:1;fill-rule:nonzero;stroke:none;stroke-width:0.5;stroke-linecap:round;stroke-linejoin:round;stroke-miterlimit:4;stroke-dasharray:none;stroke-dashoffset:0;stroke-opacity:1"
       d="M 3,1 C 1.892,1 1,1.892 1,3 L 1,13 C 1,14.108 1.892,15 3,15 L 13,15 C 14.108,15 15,14.108 15,13 L 15,3 C 15,1.892 14.108,1 13,1 L 3,1 z M 3,2 L 13,2 C 13.575975,2 14,2.4240247 14,3 L 14,13 C 14,13.575975 13.575975,14 13,14 L 3,14 C 2.4240247,14 2,13.575975 2,13 L 2,3 C 2,2.4240247 2.4240247,2 3,2 z"
       id="rect2401" />
    <path
       style="opacity:0.5;fill:#ffffff;fill-opacity:1;fill-rule:nonzero;stroke:none;stroke-width:0.5;stroke-linecap:round;stroke-linejoin:round;stroke-miterlimit:4;stroke-dasharray:none;stroke-dashoffset:0;stroke-opacity:1"
       d="M 3,1 C 1.892,1 1,1.892 1,3 L 1,4 C 1,2.892 1.892,2 3,2 L 13,2 C 14.108,2 15,2.892 15,4 L 15,3 C 15,1.892 14.108,1 13,1 L 3,1 z"
       id="rect2411" />
    <path
       style="opacity:0.25;fill:#ffffff;fill-opacity:1;fill-rule:evenodd;stroke:none;stroke-width:0.25;stroke-linecap:round;stroke-linejoin:miter;stroke-miterlimit:4;stroke-dasharray:none;stroke-dashoffset:0;stroke-opacity:1;display:inline"
       d="M -25.0053,6.9982331 C -26.1133,6.9982331 -27.0053,7.8902331 -27.0053,8.9982331 L -27.0053,9.9982331 C -27.0053,8.8902331 -26.1133,7.9982331 -25.0053,7.9982331 L -9.0053003,7.9982331 C -7.8973003,7.9982331 -7.0053003,8.8902331 -7.0053003,9.9982331 L -7.0053003,8.9982331 C -7.0053003,7.8902331 -7.8973003,6.9982331 -9.0053003,6.9982331 L -25.0053,6.9982331 z"
       id="rect3183" />
    <rect
       transform="scale(1,-1)"
       ry="2"
       rx="2"
       y="-16"
       x="0"
       height="12"
       width="16"
       id="rect4177"
       style="opacity:1;fill:#cacaca;fill-opacity:1;fill-rule:evenodd;stroke:none;stroke-width:0.25;stroke-linecap:round;stroke-linejoin:miter;stroke-miterlimit:4;stroke-dasharray:none;stroke-dashoffset:0;stroke-opacity:1;display:inline" />
    <path
       style="opacity:1;fill:url(#linearGradient3507);fill-opacity:1;fill-rule:evenodd;stroke:none;stroke-width:0.25;stroke-linecap:round;stroke-linejoin:miter;stroke-miterlimit:4;stroke-dasharray:none;stroke-dashoffset:0;stroke-opacity:1;display:inline"
       d="M 2,4 C 0.892,4 0,4.892 0,6 L 0,14 C 0,15.108 0.892,16 2,16 L 5,16 L 5,4 L 2,4 z"
       id="rect2726" />
    <path
       id="path3509"
       d="M 14,4 C 15.108,4 16,4.892 16,6 L 16,14 C 16,15.108 15.108,16 14,16 L 11,16 L 11,4 L 14,4 z"
       style="opacity:1;fill:url(#linearGradient3511);fill-opacity:1;fill-rule:evenodd;stroke:none;stroke-width:0.25;stroke-linecap:round;stroke-linejoin:miter;stroke-miterlimit:4;stroke-dasharray:none;stroke-dashoffset:0;stroke-opacity:1;display:inline" />
    <rect
       style="opacity:1;fill:url(#linearGradient3235);fill-opacity:1;fill-rule:nonzero;stroke:none;stroke-width:1;stroke-linecap:square;stroke-linejoin:miter;stroke-miterlimit:4;stroke-dasharray:none;stroke-dashoffset:0;stroke-opacity:1"
       id="rect2457"
       width="1"
       height="2"
       x="13"
       y="12"
       rx="0.5"
       ry="0.5" />
    <rect
       ry="0.5"
       rx="0.5"
       y="12"
       x="11"
       height="2"
       width="1"
       id="rect3237"
       style="opacity:1;fill:url(#linearGradient3239);fill-opacity:1;fill-rule:nonzero;stroke:none;stroke-width:1;stroke-linecap:square;stroke-linejoin:miter;stroke-miterlimit:4;stroke-dasharray:none;stroke-dashoffset:0;stroke-opacity:1" />
    <rect
       style="opacity:1;fill:url(#linearGradient3243);fill-opacity:1;fill-rule:nonzero;stroke:none;stroke-width:1;stroke-linecap:square;stroke-linejoin:miter;stroke-miterlimit:4;stroke-dasharray:none;stroke-dashoffset:0;stroke-opacity:1"
       id="rect3241"
       width="1"
       height="2"
       x="9"
       y="12"
       rx="0.5"
       ry="0.5" />
    <path
       transform="matrix(0,2.8536407,-3.038064,0,41.526619,2.4708665)"
       d="M 4.0290094,12.516727 A 0.51450473,0.48327211 0 1 1 2.9999999,12.516727 A 0.51450473,0.48327211 0 1 1 4.0290094,12.516727 z"
       sodipodi:ry="0.48327211"
       sodipodi:rx="0.51450473"
       sodipodi:cy="12.516727"
       sodipodi:cx="3.5145047"
       id="path3247"
       style="opacity:1;fill:url(#linearGradient3255);fill-opacity:1;fill-rule:nonzero;stroke:none;stroke-width:1;stroke-linecap:square;stroke-linejoin:miter;stroke-miterlimit:4;stroke-dasharray:none;stroke-dashoffset:0;stroke-opacity:1"
       sodipodi:type="arc" />
    <path
       sodipodi:type="arc"
       style="opacity:1;fill:#9be100;fill-opacity:1;fill-rule:nonzero;stroke:none;stroke-width:1;stroke-linecap:square;stroke-linejoin:miter;stroke-miterlimit:4;stroke-dasharray:none;stroke-dashoffset:0;stroke-opacity:1"
       id="path3245"
       sodipodi:cx="3.5145047"
       sodipodi:cy="12.516727"
       sodipodi:rx="0.51450473"
       sodipodi:ry="0.48327211"
       d="M 4.0290094,12.516727 A 0.51450473,0.48327211 0 1 1 2.9999999,12.516727 A 0.51450473,0.48327211 0 1 1 4.0290094,12.516727 z"
       transform="matrix(0.9718084,0,0,1.0346138,8.457491e-2,-0.4499797)" />
    <path
       transform="matrix(2.4287108,0,0,2.585672,-5.0357155,-19.864152)"
       d="M 4.0290094,12.516727 A 0.51450473,0.48327211 0 1 1 2.9999999,12.516727 A 0.51450473,0.48327211 0 1 1 4.0290094,12.516727 z"
       sodipodi:ry="0.48327211"
       sodipodi:rx="0.51450473"
       sodipodi:cy="12.516727"
       sodipodi:cx="3.5145047"
       id="path3257"
       style="opacity:1;fill:url(#radialGradient3265);fill-opacity:1;fill-rule:nonzero;stroke:none;stroke-width:1;stroke-linecap:square;stroke-linejoin:miter;stroke-miterlimit:4;stroke-dasharray:none;stroke-dashoffset:0;stroke-opacity:1"
       sodipodi:type="arc" />
  </g>
  <g
     inkscape:groupmode="layer"
     id="layer2"
     inkscape:label="Top">
    <rect
       style="opacity:1;fill:url(#linearGradient2707);fill-opacity:1;fill-rule:evenodd;stroke:none;stroke-width:0.25;stroke-linecap:round;stroke-linejoin:miter;stroke-miterlimit:4;stroke-dasharray:none;stroke-dashoffset:0;stroke-opacity:1;display:inline"
       id="rect3173"
       width="16"
       height="11"
       x="-0.017668013"
       y="-11.019435"
       rx="2"
       ry="2"
       transform="scale(1,-1)" />
    <path
       style="opacity:1;fill:url(#linearGradient3563);fill-opacity:1;fill-rule:evenodd;stroke:none;stroke-width:0.25;stroke-linecap:round;stroke-linejoin:miter;stroke-miterlimit:4;stroke-dasharray:none;stroke-dashoffset:0;stroke-opacity:1;display:inline"
       d="M 1.96875,0.03125 C 0.86075,0.03125 -0.03125,0.92325 -0.03125,2.03125 L -0.03125,9.03125 C -0.03125,10.13925 0.86075,11.03125 1.96875,11.03125 L 13.96875,11.03125 C 15.07675,11.03125 15.96875,10.13925 15.96875,9.03125 L 15.96875,2.03125 C 15.96875,0.92325 15.07675,0.03125 13.96875,0.03125 L 1.96875,0.03125 z M 2.75,1.03125 L 13.1875,1.03125 C 13.685413,1.03125 14.0625,1.4596545 14.0625,2.03125 L 14.0625,9.03125 C 14.0625,9.6028455 13.685414,10.03125 13.1875,10.03125 L 2.75,10.03125 C 2.2520868,10.03125 1.875,9.6028455 1.875,9.03125 L 1.875,2.03125 C 1.8749999,1.4596545 2.2520867,1.03125 2.75,1.03125 z"
       id="rect3539" />
    <path
       style="opacity:1;fill:#e6e6e6;fill-opacity:1;fill-rule:nonzero;stroke:none;stroke-width:1;stroke-linecap:square;stroke-linejoin:miter;stroke-miterlimit:4;stroke-dasharray:none;stroke-dashoffset:0;stroke-opacity:1;display:inline"
       d="M 2.5,6.3126042 L 2.5,7.3126042 C 2.5,7.8666042 2.946,8.3126042 3.5,8.3126042 L 12.5,8.3126042 C 13.054,8.3126042 13.5,7.8666042 13.5,7.3126042 L 13.5,6.3126042 C 13.5,6.8666042 13.054,7.3126042 12.5,7.3126042 L 3.5,7.3126042 C 2.946,7.3126042 2.5,6.8666042 2.5,6.3126042 z"
       id="rect3560" />
    <rect
       style="opacity:1;fill:none;fill-opacity:1;fill-rule:nonzero;stroke:url(#linearGradient3558);stroke-width:1;stroke-linecap:square;stroke-linejoin:miter;stroke-miterlimit:4;stroke-dasharray:none;stroke-dashoffset:0;stroke-opacity:1;display:inline"
       id="rect3533"
       width="11"
       height="7"
       x="2.5"
       y="1.5"
       rx="1"
       ry="1" />
  </g>
  <g
     inkscape:groupmode="layer"
     id="layer5"
     inkscape:label="Border"
     sodipodi:insensitive="true">
    <path
       style="opacity:0.5;fill:url(#linearGradient3537);fill-opacity:1;fill-rule:nonzero;stroke:none;stroke-width:0.60000002;stroke-linecap:square;stroke-linejoin:miter;stroke-miterlimit:4;stroke-dasharray:none;stroke-dashoffset:0;stroke-opacity:1"
       d="M 2,0 C 0.892,0 3.0947467e-18,0.892 0,2 L 0,14 C 0,15.108 0.892,16 2,16 L 14,16 C 15.108,16 16,15.108 16,14 L 16,2 C 16,0.892 15.108,3.0947467e-18 14,0 L 2,0 z M 2,1 L 14,1 C 14.574616,1 15,1.4253839 15,2 L 15,14 C 15,14.574616 14.574616,15 14,15 L 2,15 C 1.4253839,15 1,14.574616 1,14 L 1,2 C 1,1.4253839 1.4253839,1 2,1 z"
       id="rect3524" />
  </g>
</svg>
