<?xml version="1.0" encoding="UTF-8" standalone="no"?>
<!-- Created with Inkscape (http://www.inkscape.org/) -->

<svg
   xmlns:dc="http://purl.org/dc/elements/1.1/"
   xmlns:cc="http://creativecommons.org/ns#"
   xmlns:rdf="http://www.w3.org/1999/02/22-rdf-syntax-ns#"
   xmlns:svg="http://www.w3.org/2000/svg"
   xmlns="http://www.w3.org/2000/svg"
   xmlns:xlink="http://www.w3.org/1999/xlink"
   xmlns:sodipodi="http://sodipodi.sourceforge.net/DTD/sodipodi-0.dtd"
   xmlns:inkscape="http://www.inkscape.org/namespaces/inkscape"
   width="16"
   height="16"
   id="svg2"
   sodipodi:version="0.32"
   inkscape:version="0.48.1 r9760"
   version="1.0"
   sodipodi:docname="network-vpn.svg"
   inkscape:output_extension="org.inkscape.output.svg.inkscape"
   style="display:inline">
  <defs
     id="defs4">
    <inkscape:perspective
       sodipodi:type="inkscape:persp3d"
       inkscape:vp_x="0 : 8 : 1"
       inkscape:vp_y="0 : 1000 : 0"
       inkscape:vp_z="16 : 8 : 1"
       inkscape:persp3d-origin="8 : 5.3333333 : 1"
       id="perspective35" />
    <linearGradient
       inkscape:collect="always"
       id="linearGradient3327">
      <stop
         style="stop-color:#000000;stop-opacity:1;"
         offset="0"
         id="stop3330" />
      <stop
         style="stop-color:#000000;stop-opacity:0;"
         offset="1"
         id="stop3333" />
    </linearGradient>
    <linearGradient
       id="ButtonColor"
       x1="10.31979"
       y1="21"
       x2="10.31979"
       y2="0.99929649"
       gradientUnits="userSpaceOnUse">
      <stop
         style="stop-color:#29669f;stop-opacity:1;"
         offset="0"
         id="stop3189" />
      <stop
         style="stop-color:#88b6e0;stop-opacity:1;"
         offset="1"
         id="stop3191" />
    </linearGradient>
    <linearGradient
       inkscape:collect="always"
       xlink:href="#linearGradient3700-5-1"
       id="linearGradient3204"
       x1="1"
       y1="9"
       x2="15"
       y2="9"
       gradientUnits="userSpaceOnUse"
       gradientTransform="translate(-17,-2)" />
    <linearGradient
       inkscape:collect="always"
       xlink:href="#linearGradient3327"
       id="linearGradient3629"
       x1="0"
       y1="8"
       x2="29.017237"
       y2="8"
       gradientUnits="userSpaceOnUse"
       gradientTransform="matrix(0,-1,1,0,0,16)" />
    <linearGradient
       inkscape:collect="always"
       xlink:href="#SVGID_1_-4"
       id="linearGradient3765"
       gradientUnits="userSpaceOnUse"
       gradientTransform="matrix(0.09341072,0,0,0.04108075,-26.756456,8.0246654)"
       x1="383.28857"
       y1="0"
       x2="383.28857"
       y2="218.48047" />
    <linearGradient
       id="SVGID_1_-4"
       gradientUnits="userSpaceOnUse"
       x1="383.28857"
       y1="0"
       x2="383.28857"
       y2="218.48047">
      <stop
         offset="0.005618"
         style="stop-color:#ED2828"
         id="stop3143-2" />
      <stop
         offset="0.5"
         style="stop-color:#EF3B39"
         id="stop3145-1" />
      <stop
         offset="0.994382"
         style="stop-color:#C02126"
         id="stop3147-3" />
    </linearGradient>
    <linearGradient
       y2="180.6748"
       x2="175.30762"
       y1="73.254395"
       x1="175.30762"
       gradientUnits="userSpaceOnUse"
       id="linearGradient3749-5">
      <stop
         id="stop3751-8"
         style="stop-color:#000000;stop-opacity:1;"
         offset="0" />
      <stop
         id="stop3753-7"
         style="stop-color:#000000;stop-opacity:0.4728682;"
         offset="0.99438202" />
    </linearGradient>
    <linearGradient
       inkscape:collect="always"
       xlink:href="#linearGradient3749-5"
       id="linearGradient3754"
       gradientUnits="userSpaceOnUse"
       gradientTransform="matrix(0.04164302,0,0,0.03408859,1.9444673,0.78644322)"
       x1="175.30762"
       y1="73.254395"
       x2="175.30762"
       y2="180.6748" />
    <linearGradient
       inkscape:collect="always"
       xlink:href="#linearGradient3749-5"
       id="linearGradient3756"
       gradientUnits="userSpaceOnUse"
       gradientTransform="matrix(0.04998763,0,0,0.03408859,2.4795353,0.78644322)"
       x1="175.30762"
       y1="73.254395"
       x2="175.30762"
       y2="180.6748" />
    <linearGradient
       y2="180.6748"
       x2="175.30762"
       y1="73.254395"
       x1="175.30762"
       gradientTransform="matrix(0.04859283,0,0,0.03408859,3.115962,0.78644322)"
       gradientUnits="userSpaceOnUse"
       id="linearGradient3809"
       xlink:href="#linearGradient3749-5"
       inkscape:collect="always" />
    <inkscape:perspective
       id="perspective3729"
       inkscape:persp3d-origin="0.5 : 0.33333333 : 1"
       inkscape:vp_z="1 : 0.5 : 1"
       inkscape:vp_y="0 : 1000 : 0"
       inkscape:vp_x="0 : 0.5 : 1"
       sodipodi:type="inkscape:persp3d" />
    <linearGradient
       inkscape:collect="always"
       xlink:href="#linearGradient3696"
       id="linearGradient4163"
       x1="6"
       y1="48"
       x2="90"
       y2="48"
       gradientUnits="userSpaceOnUse"
       gradientTransform="translate(-96,0)" />
    <linearGradient
       id="linearGradient3696">
      <stop
         id="stop3698"
         offset="0"
         style="stop-color:#2458a6;stop-opacity:1;" />
      <stop
         id="stop3700"
         offset="1"
         style="stop-color:#598ad4;stop-opacity:1;" />
    </linearGradient>
    <linearGradient
       y2="48"
       x2="90"
       y1="48"
       x1="6"
       gradientTransform="translate(-52.867199,-57.252856)"
       gradientUnits="userSpaceOnUse"
       id="linearGradient3738"
       xlink:href="#linearGradient3696"
       inkscape:collect="always" />
    <inkscape:perspective
       id="perspective3703"
       inkscape:persp3d-origin="0.5 : 0.33333333 : 1"
       inkscape:vp_z="1 : 0.5 : 1"
       inkscape:vp_y="0 : 1000 : 0"
       inkscape:vp_x="0 : 0.5 : 1"
       sodipodi:type="inkscape:persp3d" />
    <linearGradient
       gradientTransform="matrix(0.19388162,0,0,0.19388162,-1.4007219,-1.9461429)"
       inkscape:collect="always"
       xlink:href="#linearGradient4099"
       id="linearGradient4113"
       x1="22.111456"
       y1="62.983868"
       x2="40"
       y2="32"
       gradientUnits="userSpaceOnUse" />
    <linearGradient
       id="linearGradient4099">
      <stop
         style="stop-color:#9ede27;stop-opacity:1;"
         offset="0"
         id="stop4101" />
      <stop
         style="stop-color:#c8f16b;stop-opacity:1;"
         offset="1"
         id="stop4103" />
    </linearGradient>
    <linearGradient
       gradientTransform="matrix(0.19388162,0,0,0.19388162,-1.5256152,-1.9461429)"
       inkscape:collect="always"
       xlink:href="#linearGradient4099"
       id="linearGradient4105"
       x1="38"
       y1="74"
       x2="70"
       y2="49"
       gradientUnits="userSpaceOnUse" />
    <linearGradient
       id="linearGradient3712">
      <stop
         style="stop-color:#9ede27;stop-opacity:1;"
         offset="0"
         id="stop3714" />
      <stop
         style="stop-color:#c8f16b;stop-opacity:1;"
         offset="1"
         id="stop3716" />
    </linearGradient>
    <linearGradient
       inkscape:collect="always"
       xlink:href="#linearGradient3799-3"
       id="linearGradient3746"
       gradientUnits="userSpaceOnUse"
       x1="56.037025"
       y1="49.333305"
       x2="56.037025"
       y2="13.593002"
       gradientTransform="matrix(0.26518093,0,0,0.26518093,-0.34872536,-3.7081516)" />
    <linearGradient
       id="linearGradient3799-3">
      <stop
         style="stop-color:#1a1a1a;stop-opacity:1;"
         offset="0"
         id="stop3801-3" />
      <stop
         style="stop-color:#000000;stop-opacity:1;"
         offset="1"
         id="stop3803-2" />
    </linearGradient>
    <linearGradient
       y2="13.593002"
       x2="56.037025"
       y1="49.333305"
       x1="56.037025"
       gradientTransform="matrix(0.19388162,0,0,0.19388162,-1.3401963,-1.8843368)"
       gradientUnits="userSpaceOnUse"
       id="linearGradient3726"
       xlink:href="#linearGradient3799-3"
       inkscape:collect="always" />
    <inkscape:perspective
       id="perspective3736"
       inkscape:persp3d-origin="0.5 : 0.33333333 : 1"
       inkscape:vp_z="1 : 0.5 : 1"
       inkscape:vp_y="0 : 1000 : 0"
       inkscape:vp_x="0 : 0.5 : 1"
       sodipodi:type="inkscape:persp3d" />
    <radialGradient
       inkscape:collect="always"
       xlink:href="#linearGradient3784-2"
       id="radialGradient3758"
       gradientUnits="userSpaceOnUse"
       gradientTransform="matrix(1.0456205,0.08243661,-0.05194947,0.90987799,0.84943041,1.3399685)"
       cx="49.580967"
       cy="67.04126"
       fx="49.580967"
       fy="67.04126"
       r="10" />
    <linearGradient
       id="linearGradient3784-2">
      <stop
         id="stop3786-4"
         offset="0"
         style="stop-color:#a0a0a0;stop-opacity:1;" />
      <stop
         id="stop3790-2"
         offset="1"
         style="stop-color:#1a1a1a;stop-opacity:1;" />
    </linearGradient>
    <radialGradient
       r="10"
       fy="67.04126"
       fx="49.580967"
       cy="67.04126"
       cx="49.580967"
       gradientTransform="matrix(1.0456205,0.08243661,-0.05194947,0.90987799,0.84943041,1.3399685)"
       gradientUnits="userSpaceOnUse"
       id="radialGradient3745"
       xlink:href="#linearGradient3784-2"
       inkscape:collect="always" />
    <radialGradient
       inkscape:collect="always"
       xlink:href="#linearGradient3784-2"
       id="radialGradient3698"
       cx="10.116978"
       cy="6.5340972"
       fx="10.116978"
       fy="6.5340972"
       r="2.6487656"
       gradientTransform="matrix(0.60548597,-0.18291744,0.13322228,0.44098703,0.81853832,7.6996387)"
       gradientUnits="userSpaceOnUse" />
    <inkscape:perspective
       id="perspective2887"
       inkscape:persp3d-origin="0.5 : 0.33333333 : 1"
       inkscape:vp_z="1 : 0.5 : 1"
       inkscape:vp_y="0 : 1000 : 0"
       inkscape:vp_x="0 : 0.5 : 1"
       sodipodi:type="inkscape:persp3d" />
    <linearGradient
       inkscape:collect="always"
       xlink:href="#linearGradient3187"
       id="linearGradient3216"
       x1="-6.4374995"
       y1="25.0625"
       x2="-6.4374995"
       y2="5.056252"
       gradientUnits="userSpaceOnUse"
       gradientTransform="translate(16.937499,-4.062501)" />
    <linearGradient
       id="linearGradient3187">
      <stop
         style="stop-color:#1567b3;stop-opacity:1;"
         offset="0"
         id="stop3189-5" />
      <stop
         style="stop-color:#67aeed;stop-opacity:1;"
         offset="1"
         id="stop3191-1" />
    </linearGradient>
    <linearGradient
       y2="5.056252"
       x2="-6.4374995"
       y1="25.0625"
       x1="-6.4374995"
       gradientTransform="translate(-9.7694339,-11.536687)"
       gradientUnits="userSpaceOnUse"
       id="linearGradient2896"
       xlink:href="#linearGradient3187"
       inkscape:collect="always" />
    <inkscape:perspective
       id="perspective2906"
       inkscape:persp3d-origin="0.5 : 0.33333333 : 1"
       inkscape:vp_z="1 : 0.5 : 1"
       inkscape:vp_y="0 : 1000 : 0"
       inkscape:vp_x="0 : 0.5 : 1"
       sodipodi:type="inkscape:persp3d" />
    <radialGradient
       inkscape:collect="always"
       xlink:href="#linearGradient5226"
       id="radialGradient4111"
       gradientUnits="userSpaceOnUse"
       gradientTransform="matrix(0.24085275,0.00309282,-0.00256127,0.19944385,-7.3131963,-5.2410947)"
       cx="65.235977"
       cy="63.182522"
       fx="65.235977"
       fy="63.182522"
       r="43.769611" />
    <linearGradient
       id="linearGradient5226">
      <stop
         style="stop-color:#ffffff;stop-opacity:1;"
         offset="0"
         id="stop5228" />
      <stop
         style="stop-color:#ffffff;stop-opacity:0.4140625;"
         offset="1"
         id="stop5230" />
    </linearGradient>
    <radialGradient
       inkscape:collect="always"
       xlink:href="#linearGradient5226"
       id="radialGradient4114"
       gradientUnits="userSpaceOnUse"
       gradientTransform="matrix(-0.12831461,0.0366879,0.10543903,0.31868372,2.2028802,-17.063406)"
       cx="49.233551"
       cy="70.608253"
       fx="49.233551"
       fy="70.608253"
       r="25.483549" />
    <linearGradient
       id="linearGradient2915">
      <stop
         style="stop-color:#ffffff;stop-opacity:1;"
         offset="0"
         id="stop2917" />
      <stop
         style="stop-color:#ffffff;stop-opacity:0.4140625;"
         offset="1"
         id="stop2919" />
    </linearGradient>
    <radialGradient
       inkscape:collect="always"
       xlink:href="#linearGradient5226"
       id="radialGradient4102"
       gradientUnits="userSpaceOnUse"
       gradientTransform="matrix(0.15626682,0,0,0.06398256,-1.990306,5.1321524)"
       cx="63.875"
       cy="2.2173476"
       fx="63.875"
       fy="2.2173476"
       r="58.375" />
    <linearGradient
       id="linearGradient2922">
      <stop
         style="stop-color:#ffffff;stop-opacity:1;"
         offset="0"
         id="stop2924" />
      <stop
         style="stop-color:#ffffff;stop-opacity:0.4140625;"
         offset="1"
         id="stop2926" />
    </linearGradient>
    <radialGradient
       inkscape:collect="always"
       xlink:href="#linearGradient5226"
       id="radialGradient3180"
       gradientUnits="userSpaceOnUse"
       gradientTransform="matrix(0.2595267,0,0,0.2002063,-5.5769649,-1.70675)"
       cx="63.98003"
       cy="61.948856"
       fx="63.98003"
       fy="61.948856"
       r="58.01997" />
    <linearGradient
       id="linearGradient2929">
      <stop
         style="stop-color:#ffffff;stop-opacity:1;"
         offset="0"
         id="stop2931" />
      <stop
         style="stop-color:#ffffff;stop-opacity:0.4140625;"
         offset="1"
         id="stop2933" />
    </linearGradient>
    <radialGradient
       r="58.01997"
       fy="61.948856"
       fx="63.98003"
       cy="61.948856"
       cx="63.98003"
       gradientTransform="matrix(0.20707945,0,0,0.159741,-5.2478388,-2.1259443)"
       gradientUnits="userSpaceOnUse"
       id="radialGradient2942"
       xlink:href="#linearGradient5226"
       inkscape:collect="always" />
    <linearGradient
       y2="80"
       x2="56"
       y1="16"
       x1="56"
       gradientTransform="matrix(0.17972752,0,0,0.17972752,3.3730169,3.013603)"
       gradientUnits="userSpaceOnUse"
       id="linearGradient3907"
       xlink:href="#linearGradient4121-9"
       inkscape:collect="always" />
    <linearGradient
       gradientUnits="userSpaceOnUse"
       y2="19.387045"
       x2="11.998966"
       y1="0.92195445"
       x1="11.998966"
       gradientTransform="scale(0.9219544,1.0846523)"
       id="linearGradient4121-9">
      <stop
         id="stop4123-5"
         offset="0"
         style="stop-color:#313233;stop-opacity:1" />
      <stop
         id="stop4125-7"
         offset="1"
         style="stop-color:#23486a;stop-opacity:1" />
    </linearGradient>
    <linearGradient
       y2="80"
       x2="56"
       y1="16"
       x1="56"
       gradientTransform="matrix(0.17662274,0,0,0.17662274,-0.47795242,-0.83115726)"
       gradientUnits="userSpaceOnUse"
       id="linearGradient3959"
       xlink:href="#linearGradient4121-9"
       inkscape:collect="always" />
    <linearGradient
       inkscape:collect="always"
       xlink:href="#linearGradient4121-9"
       id="linearGradient3877"
       gradientUnits="userSpaceOnUse"
       gradientTransform="matrix(0.17662274,0,0,0.17662274,-0.47795242,0.16884274)"
       x1="56"
       y1="16"
       x2="56"
       y2="80" />
    <linearGradient
       inkscape:collect="always"
       xlink:href="#linearGradient4121-9"
       id="linearGradient3879"
       gradientUnits="userSpaceOnUse"
       gradientTransform="matrix(0.17662274,0,0,0.17662274,-0.47795242,-0.83115726)"
       x1="56"
       y1="16"
       x2="56"
       y2="80" />
    <linearGradient
       inkscape:collect="always"
       xlink:href="#linearGradient4121-9"
       id="linearGradient3884"
       gradientUnits="userSpaceOnUse"
       gradientTransform="matrix(0.17662274,0,0,0.17662274,-0.47795242,0.16884274)"
       x1="56"
       y1="16"
       x2="56"
       y2="80" />
    <linearGradient
       inkscape:collect="always"
       xlink:href="#linearGradient4121-9"
       id="linearGradient3888"
       gradientUnits="userSpaceOnUse"
       gradientTransform="matrix(0.17662274,0,0,0.17662274,-0.47795242,-0.83115726)"
       x1="56"
       y1="16"
       x2="56"
       y2="80" />
    <linearGradient
       inkscape:collect="always"
       xlink:href="#linearGradient3956"
       id="linearGradient4024"
       gradientUnits="userSpaceOnUse"
       gradientTransform="matrix(0.25,0,0,0.25,0,-2)"
       spreadMethod="reflect"
       x1="48"
       y1="41"
       x2="60"
       y2="41" />
    <linearGradient
       id="linearGradient3956">
      <stop
         id="stop3958"
         offset="0"
         style="stop-color:#e6c94c;stop-opacity:1;" />
      <stop
         style="stop-color:#e7ce5f;stop-opacity:1"
         offset="0.57832253"
         id="stop3966" />
      <stop
         style="stop-color:#f0de93;stop-opacity:1"
         offset="0.83333331"
         id="stop3960" />
      <stop
         id="stop3962"
         offset="0.91666669"
         style="stop-color:#d0b64c;stop-opacity:1" />
      <stop
         id="stop3964"
         offset="1"
         style="stop-color:#907d2e;stop-opacity:1" />
    </linearGradient>
    <linearGradient
       gradientTransform="translate(-4,-1)"
       inkscape:collect="always"
       xlink:href="#linearGradient4195"
       id="linearGradient4201"
       x1="13"
       y1="8"
       x2="13"
       y2="7"
       gradientUnits="userSpaceOnUse" />
    <linearGradient
       inkscape:collect="always"
       id="linearGradient4195">
      <stop
         style="stop-color:#000000;stop-opacity:1;"
         offset="0"
         id="stop4197" />
      <stop
         style="stop-color:#000000;stop-opacity:0;"
         offset="1"
         id="stop4199" />
    </linearGradient>
    <linearGradient
       inkscape:collect="always"
       xlink:href="#linearGradient3977"
       id="linearGradient4191"
       x1="10"
       y1="9.5"
       x2="14"
       y2="9.5"
       gradientUnits="userSpaceOnUse"
       gradientTransform="matrix(-1,0,0,1,0,-3)" />
    <linearGradient
       id="linearGradient3977">
      <stop
         style="stop-color:#cbcbcb;stop-opacity:1"
         offset="0"
         id="stop3979" />
      <stop
         style="stop-color:#efefef;stop-opacity:1"
         offset="1"
         id="stop3981" />
    </linearGradient>
    <linearGradient
       inkscape:collect="always"
       xlink:href="#linearGradient3956"
       id="linearGradient3611"
       gradientUnits="userSpaceOnUse"
       gradientTransform="matrix(0.25,0,0,0.25,0,-2)"
       spreadMethod="reflect"
       x1="48"
       y1="41"
       x2="60"
       y2="41" />
    <linearGradient
       inkscape:collect="always"
       xlink:href="#linearGradient3956"
       id="linearGradient3616"
       gradientUnits="userSpaceOnUse"
       gradientTransform="matrix(0.25,0,0,0.3136886,-4,-5.5475443)"
       spreadMethod="reflect"
       x1="48"
       y1="41"
       x2="60"
       y2="41" />
    <linearGradient
       inkscape:collect="always"
       xlink:href="#linearGradient3977"
       id="linearGradient3618"
       gradientUnits="userSpaceOnUse"
       gradientTransform="matrix(-1,0,0,1,20,-3)"
       x1="10"
       y1="9.5"
       x2="14"
       y2="9.5" />
    <linearGradient
       inkscape:collect="always"
       xlink:href="#linearGradient4195"
       id="linearGradient4407"
       gradientUnits="userSpaceOnUse"
       gradientTransform="translate(-24,-1)"
       x1="13"
       y1="8"
       x2="13"
       y2="7" />
    <linearGradient
       inkscape:collect="always"
       xlink:href="#linearGradient4195"
       id="linearGradient4411"
       gradientUnits="userSpaceOnUse"
       gradientTransform="translate(-24,-1)"
       x1="13"
       y1="8"
       x2="13"
       y2="7" />
    <linearGradient
       inkscape:collect="always"
       xlink:href="#linearGradient3977"
       id="linearGradient4415"
       gradientUnits="userSpaceOnUse"
       gradientTransform="matrix(-1,0,0,1,0,-3)"
       x1="10"
       y1="9.5"
       x2="14"
       y2="9.5" />
    <linearGradient
       inkscape:collect="always"
       xlink:href="#linearGradient4195"
       id="linearGradient4427"
       gradientUnits="userSpaceOnUse"
       gradientTransform="translate(-24,-1)"
       x1="13"
       y1="8"
       x2="13"
       y2="7" />
    <linearGradient
       inkscape:collect="always"
       xlink:href="#linearGradient3956"
       id="linearGradient4429"
       gradientUnits="userSpaceOnUse"
       gradientTransform="matrix(0.25,0,0,0.25,0,-2)"
       spreadMethod="reflect"
       x1="48"
       y1="41"
       x2="60"
       y2="41" />
    <linearGradient
       inkscape:collect="always"
       xlink:href="#linearGradient3956"
       id="linearGradient4434"
       gradientUnits="userSpaceOnUse"
       gradientTransform="matrix(0.25,0,0,0.3136886,-24,-5.5475443)"
       spreadMethod="reflect"
       x1="48"
       y1="41"
       x2="60"
       y2="41" />
    <linearGradient
       y2="5.9877172"
       x2="48"
       y1="90"
       x1="48"
       gradientUnits="userSpaceOnUse"
       id="linearGradient3390"
       xlink:href="#linearGradient3700-5-1"
       inkscape:collect="always" />
    <linearGradient
       id="linearGradient3700-5-1">
      <stop
         style="stop-color:#285178;stop-opacity:1;"
         offset="0"
         id="stop3702-0-2" />
      <stop
         style="stop-color:#4f759a;stop-opacity:1;"
         offset="1"
         id="stop3704-4-9" />
    </linearGradient>
  </defs>
  <sodipodi:namedview
     id="base"
     pagecolor="#ffffff"
     bordercolor="#e7e7e7"
     borderopacity="1"
     inkscape:pageopacity="0.0"
     inkscape:pageshadow="2"
     inkscape:zoom="28.458771"
     inkscape:cx="-10.148693"
     inkscape:cy="9.5914517"
     inkscape:document-units="px"
     inkscape:current-layer="layer1"
     showgrid="true"
     inkscape:showpageshadow="false"
     showguides="false"
     inkscape:guide-bbox="true"
     inkscape:window-width="1920"
     inkscape:window-height="1030"
     inkscape:window-x="0"
     inkscape:window-y="25"
     inkscape:window-maximized="1"
     inkscape:snap-global="false">
    <sodipodi:guide
       orientation="1,0"
       position="0,112"
       id="guide2383" />
    <sodipodi:guide
       orientation="0,1"
       position="26.278146,128"
       id="guide2385" />
    <sodipodi:guide
       orientation="1,0"
       position="128,54.082119"
       id="guide2387" />
    <sodipodi:guide
       orientation="0,1"
       position="78.156291,0"
       id="guide2389" />
    <sodipodi:guide
       orientation="0,1"
       position="60.863576,64.084768"
       id="guide2391" />
    <inkscape:grid
       type="xygrid"
       id="grid3672"
       visible="true"
       enabled="true" />
  </sodipodi:namedview>
  <metadata
     id="metadata7">
    <rdf:RDF>
      <cc:Work
         rdf:about="">
        <dc:format>image/svg+xml</dc:format>
        <dc:type
           rdf:resource="http://purl.org/dc/dcmitype/StillImage" />
        <dc:title />
      </cc:Work>
    </rdf:RDF>
  </metadata>
  <g
     inkscape:label="Button"
     inkscape:groupmode="layer"
     id="layer1">
    <rect
       ry="2"
       rx="2"
       y="0"
       x="-16"
       height="16"
       width="16"
       id="rect3196"
       style="fill:url(#linearGradient3204);fill-opacity:1.0;fill-rule:nonzero;stroke:none"
       transform="matrix(0,-1,1,0,0,0)" />
    <path
       style="fill:#ffffff;fill-opacity:1;fill-rule:nonzero;stroke:none;opacity:0.3"
       d="M 2 0.96875 C 1.4168007 0.96875 0.96875 1.4168007 0.96875 2 L 0.96875 3 C 0.96875 2.4168007 1.4168007 1.96875 2 1.96875 L 14 1.96875 C 14.583199 1.96875 15.03125 2.4168007 15.03125 3 L 15.03125 2 C 15.03125 1.4168007 14.583199 0.96875 14 0.96875 L 2 0.96875 z "
       id="path2843" />
    <path
       style="opacity:0.3;fill:url(#radialGradient2942);fill-opacity:1;stroke:none;display:inline"
       d="M 5.7733934,0.07582305 C 6.0051388,0.50257135 5.9147137,1.1108118 6.3008229,1.3496286 5.8711447,1.4260369 6.6858016,1.6777509 6.2406109,1.9571583 6.1938676,2.3556328 6.2458213,3.3390386 6.9369041,3.4970655 7.0976823,2.8368046 7.4485186,2.3212158 8.0832213,2.0083022 8.513366,1.7260853 8.8934394,1.5863811 8.3057454,1.3296623 8.3812039,0.87025069 9.0647734,1.7507554 8.6751594,1.0706553 8.4005628,0.74670784 8.1711671,0.60602321 8.7504823,0.59043555 9.5129805,-0.0182245 8.1104516,0.02343579 7.67912,0.07582305 c -0.6352417,0 -1.2704863,0 -1.9057286,0 z M 0.49162482,0.35085935 C -0.03147965,0.43040898 0.0901212,1.662435 0.52103505,0.88128372 0.72074786,0.6918477 0.96813838,0.35085049 0.49162482,0.35085935 z M 2.6662182,0.38953668 C 2.2527889,0.92145556 3.0277022,1.0255395 2.9530313,0.46485834 2.8779925,0.39368567 2.7604976,0.40094001 2.6662182,0.38953668 z m 0.6704276,0.0945441 C 2.6840902,0.9078492 3.3367151,1.7491289 3.9970597,1.5053561 4.4945039,1.772739 4.6832384,2.4654651 4.0728318,2.7758876 4.3910467,2.4508035 5.0492764,3.5638344 4.9156622,2.9724897 5.6508027,3.2894855 4.4781435,2.0202345 5.2037222,2.5656077 5.8615733,2.4364586 4.6998281,1.9844679 4.9525493,1.5971207 4.6562977,1.2631857 4.2474062,0.73470618 3.8009556,0.94572266 3.7915122,0.18848606 3.3356626,0.69595376 3.4233145,1.1526712 3.2319661,0.94417852 3.4082567,0.66552271 3.3366458,0.48408083 z m -1.0572134,0.004301 C 1.5393741,0.8986943 2.8130934,1.4450075 2.3816043,0.57772409 l -0.0469,-0.0597534 -0.055271,-0.0295926 -10e-8,8e-8 z M 0.92138641,0.63878943 C 0.39522676,0.68071494 0.84963737,1.2286574 0.67871338,1.3016568 1.0270598,1.3956848 1.3620464,1.4154052 0.79941887,1.569567 0.97363839,2.0409038 2.5114613,1.8824868 1.8398926,1.1711496 1.7431198,0.85724744 1.4559517,0.389387 1.487362,1.0132386 1.3813276,0.52920377 1.1521508,1.134915 0.92138641,0.63878943 z M 15.284014,0.68606075 c -0.617984,0.24978988 0.44885,1.09855035 0.127894,0.2213856 0.01149,-0.0798943 0.0049,-0.26514568 -0.127894,-0.2213856 z M 2.6189443,1.0470473 C 2.2937558,1.2977285 3.0731439,2.1915735 2.4518678,1.9991416 1.8930305,2.0238516 1.1844154,2.2219205 0.64654006,1.7783811 -0.26399015,1.0352018 0.08105437,2.5944057 0.02748256,3.0822215 -0.08298161,3.7243343 0.18377867,5.2220482 0.05654969,5.18522 0.02145434,6.0194889 0.29719028,6.7324916 0.86063515,7.3058938 0.93266106,7.5769095 1.569282,8.2208045 1.1316633,7.5683762 0.7879409,6.6114643 1.64723,8.3443773 2.0263205,8.3934478 2.6723646,8.7701519 3.6571227,9.0151663 4.0545351,9.4864432 3.7233912,10.157846 3.7597413,10.826566 4.3944924,11.309452 5.0700219,11.931008 4.419858,12.774668 4.4762297,13.52273 4.4188247,14.102238 4.128244,15.331808 4.8304126,15.399181 4.9798391,14.792075 4.9388859,13.813509 5.6091977,13.560538 5.8923996,13.036534 6.3949395,12.815794 6.6684063,12.190085 7.215291,11.832684 7.69227,11.086888 7.5594128,10.407585 7.0979412,10.004105 6.2733457,10.286783 6.1755667,9.5727669 5.5748169,9.267964 4.8731309,8.7420154 4.1883739,9.1161813 3.5220336,9.4901797 3.2752422,8.0997555 3.0813199,8.2184021 1.8966166,8.6451309 2.4559548,6.8432854 3.3776648,7.3173952 3.7902778,7.3765023 3.8914415,8.0979459 3.7998343,7.3861088 3.9967317,6.724634 4.5182061,5.9640046 5.107914,5.6783202 4.9827627,6.1621479 5.895714,5.2787698 5.2940213,5.5521499 5.3481124,4.9899495 4.3010858,5.4155667 5.0683321,5.0801419 5.8131405,5.0856552 6.1000099,4.570463 5.4497171,4.1112717 5.3807862,3.8730023 5.1359094,3.4371573 4.9214913,3.8258525 4.8244862,3.0885726 3.7157651,2.9449461 4.1124077,3.8822365 4.117804,4.2110759 3.9118145,5.2226699 3.7077113,4.4966179 3.1407724,4.1733006 2.2072801,3.6998824 2.9441379,2.9799381 3.1035733,2.4862419 4.2182006,2.1508041 3.4999554,1.6057139 3.5233366,1.9368784 3.0730828,2.3154716 3.1724963,1.7619312 2.8036589,2.1220893 2.9241497,1.0912188 2.6189443,1.0470473 z M 12.963303,1.3134895 c -0.895677,0.1825877 -1.078978,1.2120478 -1.686264,1.7242699 -0.384558,0.436305 0.02492,0.9351328 0.380066,0.8812927 0.09345,0.9946963 0.725535,-0.47884 0.633441,-0.8835084 0.02671,-0.3632698 0.654162,-0.7831573 0.322452,-0.1517016 -0.423142,0.5301289 0.226502,0.7429786 0.419285,0.7126419 -0.496656,0.082194 -0.255522,0.4630848 -0.562997,0.535958 -0.05851,0.5451279 -1.16757,0.5082409 -0.962684,-0.1377817 -0.0888,0.662501 -0.617951,0.9419558 -1.167957,1.2840202 0.475764,0.4907548 -0.06755,0.6123733 -0.479946,0.7654798 -0.062796,0.92848 0.854146,0.5002458 1.084167,-0.036432 0.535615,-0.7047173 1.065685,0.5945563 1.013437,0.5160451 0.608445,-0.1959364 -0.667933,-1.1120535 0.08815,-0.6923842 0.337724,0.2346582 0.470775,1.1559788 0.720025,0.3627921 -0.0045,0.5875362 1.331658,0.327918 0.769721,0.9498793 C 12.935708,7.1220134 12.233843,7.2244867 11.712284,7.0114834 11.529505,6.2732717 10.537466,6.6805924 10.064059,6.9245327 9.5418737,7.4821571 8.9325331,8.3615741 9.4309065,9.1202752 9.8079007,10.0587 11.392871,8.8873208 11.522972,9.9766412 c 0.279305,0.6049768 0.176046,1.2961038 0.286202,1.9815228 0.140799,0.738378 0.808917,1.698164 1.472661,0.731261 0.268416,-0.746289 0.959219,-1.327063 0.733984,-2.10063 0.06492,-0.570898 1.055627,-1.1338202 0.877348,-1.5141123 -0.782363,-0.03099 -1.155698,-0.8839958 -1.31894,-1.5223352 0.534986,0.121614 0.440253,1.3315512 1.119608,1.2829131 0.511215,-0.081221 1.561195,-1.0892982 0.490527,-0.9992203 -0.382483,-0.098882 -0.467747,-0.8512397 -0.03624,-0.2609723 1.183095,0.6536611 0.77265,-1.1119042 0.832105,-1.7527717 0,-1.4026631 0,-2.8053262 0,-4.2079892 C 15.575297,2.0512784 15.000692,1.82266 14.569913,2.2019421 14.457568,1.5172357 14.317168,2.8201468 13.839719,2.7163424 13.750576,3.1917622 13.240762,1.8993622 13.860928,2.4326388 14.591363,2.0222539 13.188344,1.6073 13.045258,1.307176 l -0.08195,0.00631 10e-7,-1e-7 z M 6.0785245,1.4810928 c -0.2347701,0.2847152 0.5087132,0.1758397 0,0 z M 2.3696828,1.6057139 c -0.3005814,0.3387811 0.4903731,0.2229998 0,0 z m 1.8007004,0.3223124 c -0.2581784,0.3368395 0.3467182,0.1434964 0,0 z M 9.3189251,2.3835532 C 9.0504421,2.6088147 8.3591161,2.3499393 8.8726059,2.8843507 9.1132027,3.1554271 9.8386594,2.5990681 9.3189251,2.3835532 z M 3.4569791,2.5726433 C 2.9630401,3.0254969 4.3117227,2.9921661 3.5676079,2.6249684 3.5307316,2.6075267 3.4938554,2.590085 3.4569791,2.5726433 z m 6.8890759,1.263454 c -0.279389,0.3138628 0.08229,0.8595991 0.01995,1.1743772 0.924129,-0.1177702 -3.59e-4,-0.7407931 -0.01995,-1.1743772 z m -0.25356,0.4942081 c -0.5506588,0.1240035 -0.03242,0.8447393 0.06662,0.1926246 0.0063,-0.052852 0.02808,-0.1876945 -0.06662,-0.1926246 z M 5.8980246,4.8846738 C 5.1536811,5.2199545 6.5105819,5.7802651 6.0125001,5.1371884 l -0.079414,-0.1211068 -0.035062,-0.1314078 -1e-7,0 z m 9.2054904,0.558669 c 0.0438,0.2165581 -0.353135,0.4693935 0.06939,0.6737246 0.323474,0.6322279 -0.502389,0.5970413 -0.375461,0.00644 -0.202529,-0.3524358 -0.145657,-0.6477885 0.306069,-0.6801605 z m -1.250607,0.0043 c 0.04758,0.28784 0.573814,0.8643836 -0.09025,0.666104 -0.531281,0.2977646 -1.03306,-0.4846287 -0.357295,-0.5296742 0.409223,0.271525 0.09905,-0.1371468 0.447544,-0.1364298 z m -2.419557,0.704777 c -0.308961,0.1825657 0.231393,0.3064954 0,0 z M 3.7621094,7.9874376 c 0.237342,0.3275026 0.7773839,0.1851645 0.1592471,0.03383 -0.053083,-0.011274 -0.1061648,-0.022556 -0.1592471,-0.03383 z m 0.7907617,0.2449498 c -0.25217,0.3411632 0.5967037,0.020873 0,0 z M 14.875742,11.107388 c -0.732338,-0.01764 -0.479295,1.725849 -0.09195,0.637587 0.05506,-0.202981 0.187989,-0.426337 0.09195,-0.637587 z"
       id="path3175" />
    <path
       style="fill:none;stroke:url(#radialGradient4102);stroke-width:1.00000012;stroke-linecap:butt;stroke-linejoin:miter;stroke-miterlimit:4;stroke-opacity:1;stroke-dasharray:none;display:inline"
       d="M 0,8.2120134 C 5.2031421,4.4612853 12.74016,3.7081562 15.816231,7.970347"
       id="path3577"
       sodipodi:nodetypes="cc" />
    <path
       style="fill:none;stroke:url(#radialGradient4114);stroke-width:1.00000012;stroke-linecap:butt;stroke-linejoin:miter;stroke-miterlimit:4;stroke-opacity:1;stroke-dasharray:none;display:inline"
       d="M 3.1107559,0.19026517 C -0.17858286,9.2534409 12.33885,15.621943 12.33885,15.621943"
       id="path3583"
       sodipodi:nodetypes="cc"
       inkscape:connector-curvature="0" />
    <path
       style="fill:none;stroke:url(#radialGradient4111);stroke-width:1.00000012;stroke-linecap:butt;stroke-linejoin:miter;stroke-miterlimit:4;stroke-opacity:1;stroke-dasharray:none;display:inline"
       d="M 4.2115988,15.957267 C 4.0152539,12.956684 9.729537,4.1305393 15.783507,2.6302481"
       id="path3581"
       sodipodi:nodetypes="cc" />
    <path
       sodipodi:type="arc"
       style="fill:#eeeeec;fill-opacity:1;fill-rule:evenodd;stroke:none;display:inline"
       id="path4125"
       sodipodi:cx="6.25"
       sodipodi:cy="8.375"
       sodipodi:rx="1.8125"
       sodipodi:ry="1.8125"
       d="m 8.0625,8.375 a 1.8125,1.8125 0 1 1 -3.625,0 1.8125,1.8125 0 1 1 3.625,0 z"
       transform="matrix(0.7153693,0,0,0.71534246,-1.2820206,-0.07289075)" />
    <path
       sodipodi:type="arc"
       style="fill:#eeeeec;fill-opacity:1;fill-rule:evenodd;stroke:none;display:inline"
       id="path4127"
       sodipodi:cx="14.8125"
       sodipodi:cy="7.625"
       sodipodi:rx="1.9375"
       sodipodi:ry="1.9375"
       d="m 16.75,7.625 a 1.9375,1.9375 0 1 1 -3.875,0 1.9375,1.9375 0 1 1 3.875,0 z"
       transform="matrix(0.72069464,0,0,0.7206676,0.84605651,-0.17539952)" />
    <path
       transform="matrix(0.79791193,0,0,0.79788199,-1.4980785,0.23584081)"
       sodipodi:type="arc"
       style="fill:#eeeeec;fill-opacity:1;fill-rule:evenodd;stroke:none;display:inline"
       id="path4129"
       sodipodi:cx="9.1875"
       sodipodi:cy="13.5"
       sodipodi:rx="1.5625"
       sodipodi:ry="1.5625"
       d="m 10.75,13.5 a 1.5625,1.5625 0 1 1 -3.125,0 1.5625,1.5625 0 1 1 3.125,0 z" />
    <path
       style="opacity:0.4;fill:url(#linearGradient3629);fill-opacity:1;fill-rule:nonzero;stroke:none"
       d="m 0,14 c 0,1.108 0.892,2 2,2 l 12,0 c 1.108,0 2,-0.892 2,-2 L 16,2 C 16,0.892 15.108,0 14,0 L 2,0 C 0.892,0 0,0.892 0,2 l 0,12 z m 0.96875,0 0,-12 C 0.96875,1.416801 1.4168007,0.96875 2,0.96875 l 12,0 c 0.583199,0 1.03125,0.448051 1.03125,1.03125 l 0,12 c 0,0.583199 -0.448051,1.03125 -1.03125,1.03125 l -12,0 C 1.4168007,15.03125 0.96875,14.583199 0.96875,14 z"
       id="rect2835" />
    <path
       sodipodi:type="inkscape:offset"
       inkscape:radius="1.0594143"
       inkscape:original="M 8 2.625 C 6.713088 2.625 5.65625 3.6818382 5.65625 4.96875 L 5.65625 6.96875 L 5.5 6.96875 C 5.223 6.96875 5 7.246183 5 7.59375 L 5 8.25 L 5 10.78125 L 5 11.375 C 5 11.722567 5.223 12 5.5 12 L 10.5 12 C 10.777 12 11 11.722567 11 11.375 L 11 10.78125 L 11 7.59375 C 11 7.246183 10.777 6.96875 10.5 6.96875 L 10.34375 6.96875 L 10.34375 4.96875 C 10.34375 3.6818382 9.286912 2.625 8 2.625 z M 8 4.28125 C 8.425812 4.28125 8.6875 4.5429372 8.6875 4.96875 L 8.6875 6.96875 L 7.3125 6.96875 L 7.3125 4.96875 C 7.3125 4.5429372 7.574188 4.28125 8 4.28125 z "
       style="opacity:0.2;color:#000000;fill:#000000;fill-opacity:1;fill-rule:nonzero;stroke:none;stroke-width:2;marker:none;visibility:visible;display:inline;overflow:visible;enable-background:accumulate"
       id="path4441"
       d="m 8,1.5625 c -1.8669203,0 -3.40625,1.5393299 -3.40625,3.40625 l 0,1.34375 C 4.2036968,6.6432914 3.9375,7.1054968 3.9375,7.59375 l 0,0.65625 0,2.53125 0,0.59375 c 0,0.800716 0.5781198,1.6875 1.5625,1.6875 l 5,0 c 0.98438,0 1.5625,-0.886784 1.5625,-1.6875 l 0,-0.59375 0,-3.1875 c 0,-0.4882532 -0.266197,-0.9504586 -0.65625,-1.28125 l 0,-1.34375 C 11.40625,3.1018299 9.8669203,1.5625 8,1.5625 z" />
    <path
       sodipodi:type="inkscape:offset"
       inkscape:radius="0.64545012"
       inkscape:original="M 8 1.5625 C 6.1330797 1.5625 4.59375 3.1018299 4.59375 4.96875 L 4.59375 6.3125 C 4.2036968 6.6432914 3.9375 7.1054968 3.9375 7.59375 L 3.9375 8.25 L 3.9375 10.78125 L 3.9375 11.375 C 3.9375 12.175716 4.5156198 13.0625 5.5 13.0625 L 10.5 13.0625 C 11.48438 13.0625 12.0625 12.175716 12.0625 11.375 L 12.0625 10.78125 L 12.0625 7.59375 C 12.0625 7.1054968 11.796303 6.6432914 11.40625 6.3125 L 11.40625 4.96875 C 11.40625 3.1018299 9.8669203 1.5625 8 1.5625 z "
       style="opacity:0.1;color:#000000;fill:#000000;fill-opacity:1;fill-rule:nonzero;stroke:none;stroke-width:2;marker:none;visibility:visible;display:inline;overflow:visible;enable-background:accumulate"
       id="path4445"
       d="m 8,0.90625 c -2.2217152,0 -4.0625,1.840785 -4.0625,4.0625 l 0,1.15625 C 3.5787865,6.5277783 3.28125,7.0126189 3.28125,7.59375 l 0,0.65625 0,2.53125 0,0.59375 c 0,0.555697 0.1906561,1.115325 0.5625,1.5625 0.3718439,0.447175 0.9702409,0.78125 1.65625,0.78125 l 5,0 c 0.686009,0 1.284406,-0.334075 1.65625,-0.78125 0.371844,-0.447175 0.5625,-1.006803 0.5625,-1.5625 l 0,-0.59375 0,-3.1875 c 0,-0.5811312 -0.297537,-1.0659718 -0.65625,-1.46875 l 0,-1.15625 C 12.0625,2.747035 10.221715,0.90625 8,0.90625 z" />
    <path
       style="opacity:0.3;color:#000000;fill:#000000;fill-opacity:1;fill-rule:nonzero;stroke:none;stroke-width:2;marker:none;visibility:visible;display:inline;overflow:visible;enable-background:accumulate"
       d="m 8,3.625 c -1.286912,0 -2.34375,1.0568382 -2.34375,2.34375 l 0,2 -0.15625,0 c -0.277,0 -0.5,0.277433 -0.5,0.625 L 5,9.25 5,11.78125 5,12.375 C 5,12.722567 5.223,13 5.5,13 l 5,0 c 0.277,0 0.5,-0.277433 0.5,-0.625 l 0,-0.59375 0,-3.1875 c 0,-0.347567 -0.223,-0.625 -0.5,-0.625 l -0.15625,0 0,-2 C 10.34375,4.6818382 9.286912,3.625 8,3.625 z m 0,1.65625 c 0.425812,0 0.6875,0.2616872 0.6875,0.6875 l 0,2 -1.375,0 0,-2 C 7.3125,5.5429372 7.574188,5.28125 8,5.28125 z"
       id="path4417"
       inkscape:connector-curvature="0" />
    <path
       transform="translate(-4,0)"
       sodipodi:type="inkscape:offset"
       inkscape:radius="0.37375355"
       inkscape:original="M 12 4.28125 C 11.862343 4.28125 11.806325 4.3037231 11.78125 4.3125 C 11.696049 4.3181992 11.609076 4.3214283 11.5 4.34375 C 10.351723 4.5787372 9.5 5.6028255 9.5 6.8125 L 9.5 8 C 8.9687195 8 8.53125 8.4374695 8.53125 8.96875 L 8.53125 9.5 L 8.53125 11.5 L 8.53125 11.96875 C 8.53125 12.500031 8.9687195 12.9375 9.5 12.9375 L 14.5 12.9375 C 15.031281 12.9375 15.46875 12.500031 15.46875 11.96875 L 15.46875 9.5 L 15.46875 8.96875 C 15.46875 8.4374695 15.031281 8 14.5 8 L 14.5 6.8125 C 14.5 5.9937553 14.114865 5.2694935 13.5 4.8125 C 13.596865 4.8849828 13.596069 4.8272711 13.4375 4.71875 C 13.041895 4.4480002 12.538317 4.28125 12 4.28125 z M 12 5.90625 C 12.234963 5.90625 12.464473 6.0066347 12.625 6.15625 C 12.621492 6.1529817 12.606131 6.1686257 12.625 6.1875 C 12.600781 6.1628574 12.624662 6.1685257 12.6875 6.25 C 12.788538 6.3800123 12.785013 6.3801737 12.71875 6.28125 C 12.766818 6.3526328 12.814142 6.4602074 12.84375 6.59375 C 12.876893 6.7432446 12.90625 6.8250795 12.90625 6.8125 L 12.90625 8 L 11.09375 8 L 11.09375 6.8125 C 11.09375 6.7829256 11.124403 6.719481 11.15625 6.59375 C 11.165994 6.5557691 11.153928 6.5589061 11.15625 6.53125 C 11.162868 6.5214265 11.149569 6.5116228 11.15625 6.5 C 11.168658 6.4784149 11.175456 6.4972814 11.1875 6.46875 C 11.168743 6.5138733 11.191921 6.4760587 11.25 6.375 C 11.280941 6.3212292 11.307023 6.2602149 11.34375 6.21875 C 11.343827 6.2186647 11.341384 6.1920889 11.34375 6.1875 C 11.345102 6.1848778 11.373042 6.1913141 11.375 6.1875 C 11.432361 6.1310391 11.512765 6.0845211 11.625 6.03125 C 11.637773 6.0249836 11.613844 6.0063152 11.625 6 C 11.6514 5.9880784 11.636982 5.9807675 11.65625 5.96875 C 11.675217 5.9642022 11.664079 5.9771091 11.6875 5.96875 C 11.706232 5.964772 11.696691 5.9755583 11.71875 5.96875 L 11.71875 6 C 11.833644 5.9651546 11.879417 5.9369616 11.875 5.9375 C 12.011007 5.9194779 12.049995 5.90625 12 5.90625 z "
       style="opacity:0;color:#000000;fill:#000000;fill-opacity:1;fill-rule:nonzero;stroke:none;stroke-width:2;marker:none;visibility:visible;display:inline;overflow:visible;enable-background:accumulate"
       id="path4173"
       d="m 12,3.90625 c -0.128401,0 -0.192261,0.016053 -0.25,0.03125 -0.07768,0.0052 -0.172129,0.00252 -0.3125,0.03125 C 10.11583,4.239221 9.125,5.4273874 9.125,6.8125 l 0,0.875 C 8.5683059,7.8512588 8.15625,8.3620417 8.15625,8.96875 l 0,0.53125 0,2 0,0.46875 c 0,0.736453 0.6072978,1.34375 1.34375,1.34375 l 5,0 c 0.736453,0 1.34375,-0.607297 1.34375,-1.34375 l 0,-2.46875 0,-0.53125 c 0,-0.6067081 -0.412056,-1.1174911 -0.96875,-1.28125 l 0,-0.875 c 0,-0.817157 -0.381282,-1.5374986 -0.9375,-2.0625 -0.0059,-0.023855 -0.02469,-0.046796 -0.03125,-0.0625 -0.0525,-0.1256311 -0.08584,-0.1195715 -0.125,-0.15625 C 13.766565,4.5174955 13.73485,4.5132064 13.71875,4.5 13.691917,4.4779894 13.688915,4.428605 13.65625,4.40625 13.197675,4.0924039 12.6155,3.90625 12,3.90625 z m 0,2.375 c 0.01057,-0.00474 0.02175,0.00473 0.03125,0 0.121859,0.00828 0.258705,0.076986 0.34375,0.15625 a 0.37379092,0.37379092 0 0 0 0.03125,0.03125 c 0.0074,0.00949 -0.0062,0.02319 0,0.03125 0.0029,0.00427 0.02699,0.023263 0.03125,0.03125 0.0032,0.00599 -0.0037,0.02338 0,0.03125 0.01599,0.034103 0.01788,0.064689 0.03125,0.125 0.01295,0.058411 0.051,0.083497 0.0625,0.125 0.0049,0.017787 -0.0045,0.047664 0,0.0625 l 0,0.75 -1.0625,0 0,-0.8125 c 0.01171,-0.035894 0.04656,-0.06208 0.0625,-0.125 0.0039,-0.015017 -0.0021,-0.041559 0,-0.0625 0.01101,-0.01878 0.0164,-0.036655 0.03125,-0.0625 0.01076,-0.018694 -0.0084,-0.017034 0,-0.03125 0.02799,-0.047386 0.08227,-0.08482 0.0625,-0.0625 0.0061,-0.00597 0.05769,-0.04697 0.15625,-0.09375 0.01062,-0.00521 0.01608,-0.020753 0.03125,-0.03125 0.01517,-0.010497 0.02223,-0.024491 0.03125,-0.03125 0.0097,-0.00318 0.02228,0.00313 0.03125,0 0.01795,-0.00625 0.04714,0.00602 0.0625,0 0.01792,-0.00702 0.0477,-0.024608 0.0625,-0.03125 z" />
    <path
       sodipodi:type="inkscape:offset"
       inkscape:radius="0.34601402"
       inkscape:original="M -12 3 C -13.108 3 -14 3.892 -14 5 L -14 8 C -14 9.108 -13.108 10 -12 10 C -10.892 10 -10 9.108 -10 8 L -10 5 C -10 3.892 -10.892 3 -12 3 z M -12 3.96875 C -11.408782 3.96875 -10.96875 4.4087816 -10.96875 5 L -10.96875 8 C -10.96875 8.591218 -11.408782 9.03125 -12 9.03125 C -12.591218 9.03125 -13.03125 8.591218 -13.03125 8 L -13.03125 5 C -13.03125 4.4087816 -12.591218 3.96875 -12 3.96875 z "
       style="color:#000000;fill:url(#linearGradient4415);fill-opacity:1;fill-rule:nonzero;stroke:none;stroke-width:2;marker:none;visibility:visible;display:inline;overflow:visible;enable-background:accumulate"
       id="path4413"
       d="m -12,2.65625 c -1.293707,0 -2.34375,1.0500433 -2.34375,2.34375 l 0,3 c 0,1.2937067 1.050043,2.34375 2.34375,2.34375 1.293707,0 2.34375,-1.0500433 2.34375,-2.34375 l 0,-3 c 0,-1.2937067 -1.050043,-2.34375 -2.34375,-2.34375 z m 0,1.65625 c 0.419531,0 0.6875,0.2679691 0.6875,0.6875 l 0,3 c 0,0.4195304 -0.26797,0.6875 -0.6875,0.6875 -0.41953,0 -0.6875,-0.2679696 -0.6875,-0.6875 l 0,-3 c 0,-0.4195309 0.267969,-0.6875 0.6875,-0.6875 z"
       transform="translate(20,0)" />
    <path
       sodipodi:type="inkscape:offset"
       inkscape:radius="0.33335358"
       inkscape:original="M -12 3 C -13.108 3 -14 3.892 -14 5 L -14 8 C -14 9.108 -13.108 10 -12 10 C -10.892 10 -10 9.108 -10 8 L -10 5 C -10 3.892 -10.892 3 -12 3 z M -12 3.96875 C -11.408782 3.96875 -10.96875 4.4087816 -10.96875 5 L -10.96875 8 C -10.96875 8.591218 -11.408782 9.03125 -12 9.03125 C -12.591218 9.03125 -13.03125 8.591218 -13.03125 8 L -13.03125 5 C -13.03125 4.4087816 -12.591218 3.96875 -12 3.96875 z "
       style="opacity:0.3;color:#000000;fill:url(#linearGradient4411);fill-opacity:1;fill-rule:nonzero;stroke:none;stroke-width:2;marker:none;visibility:visible;display:inline;overflow:visible;enable-background:accumulate"
       id="path4409"
       d="m -12,2.65625 c -1.286912,0 -2.34375,1.0568382 -2.34375,2.34375 l 0,3 c 0,1.2869118 1.056838,2.34375 2.34375,2.34375 1.286912,0 2.34375,-1.0568382 2.34375,-2.34375 l 0,-3 c 0,-1.2869118 -1.056838,-2.34375 -2.34375,-2.34375 z m 0,1.65625 c 0.425812,0 0.6875,0.2616872 0.6875,0.6875 l 0,3 c 0,0.4258123 -0.261688,0.6875 -0.6875,0.6875 -0.425812,0 -0.6875,-0.2616877 -0.6875,-0.6875 l 0,-3 c 0,-0.4258128 0.261688,-0.6875 0.6875,-0.6875 z"
       transform="translate(20,0)" />
    <g
       transform="matrix(1,0,0,1.2547544,-4,-3.0380355)"
       style="display:inline"
       id="g4019">
      <rect
         style="color:#000000;fill:url(#linearGradient4024);fill-opacity:1;fill-rule:nonzero;stroke:none;stroke-width:2;marker:none;visibility:visible;display:inline;overflow:visible;enable-background:accumulate"
         id="rect3225"
         width="6.0000005"
         height="4.000001"
         x="9"
         y="8"
         rx="0.5"
         ry="0.5" />
      <path
         inkscape:connector-curvature="0"
         id="rect3233"
         d="M 9.5,8 C 9.223,8 9,8.223 9,8.5 l 0,0.53125 c 0,-0.277 0.223,-0.5 0.5,-0.5 l 5,0 c 0.277,0 0.5,0.223 0.5,0.5 L 15,8.5 C 15,8.223 14.777,8 14.5,8 l -5,0 z"
         style="opacity:0.3;color:#000000;fill:#ffffff;fill-opacity:1;fill-rule:nonzero;stroke:none;stroke-width:2;marker:none;visibility:visible;display:inline;overflow:visible;enable-background:accumulate" />
      <path
         id="rect4010-0"
         transform="translate(0,-2)"
         d="M 9,13.03125 9,13.5 C 9,13.777 9.223,14 9.5,14 l 5,0 c 0.277,0 0.5,-0.223 0.5,-0.5 l 0,-0.46875 c 0,0.277 -0.223,0.5 -0.5,0.5 l -5,0 c -0.277,0 -0.5,-0.223 -0.5,-0.5 z"
         style="opacity:0.3;color:#000000;fill:#c87137;fill-opacity:1;fill-rule:nonzero;stroke:none;stroke-width:2;marker:none;visibility:visible;display:inline;overflow:visible;enable-background:accumulate"
         inkscape:connector-curvature="0" />
    </g>
  </g>
</svg>
